<?xml version="1.0" encoding="UTF-8"?>
<svg id="Glyph" xmlns="http://www.w3.org/2000/svg" viewBox="0 0 64 64">
  <path d="M45.39,53.81l-1.55-7.92c-.07-.33-.3-.61-.61-.74l-4.84-1.98v.53h-12.78v-.53l-4.84,1.98c-.31.13-.54.41-.61.74l-1.55,7.92-6.25,5.43c-.42.37-.46,1-.1,1.42.2.22.47.34.75.34.24,0,.47-.08.66-.25l6.51-5.65c.17-.15.28-.35.32-.56l1.52-7.74,3.589-1.47v2.17h12.781v-2.17l3.589,1.47,1.52,7.74c.04.21.15.41.32.56l6.51,5.65c.19.17.42.25.66.25.27,0,.55-.12.75-.34.36-.42.32-1.05-.1-1.42l-6.25-5.43Z"/>
  <path d="M29.77,37.69h-9.1c-.29,0-.56.13-.75.35l-6.04,6.95c-.37.42-.32,1.05.09,1.41.19.17.43.25.66.25.28,0,.56-.12.75-.35l5.75-6.61h5.87c.01-.002.019-.005.029-.007-.479.597-.866,1.272-1.107,2.017h12.156c-.241-.743-.626-1.415-1.103-2.011.008,0,.016,0,.025.001h5.87l5.75,6.61c.19.23.47.35.75.35.23,0,.47-.08.66-.25.41-.36.46-.99.09-1.41l-6.04-6.95c-.19-.22-.46-.35-.75-.35h-9.1s0,.002,0,.003c-.696-.26-1.443-.414-2.229-.414s-1.535.154-2.231.415c0-.001,0-.003,0-.004Z"/>
  <path d="M49.62,28.2c-3.908,0-8.945.549-12.354,1.399-.088-.568-.239-1.108-.44-1.613l8.515-7.476c.25-.22.38-.56.32-.9l-1.35-8.92c-.09-.55-.6-.92-1.14-.84-.55.08-.92.59-.84,1.14l1.27,8.38-7.797,6.858c-.971-1.182-2.316-1.915-3.803-1.915s-2.832.733-3.803,1.915l-7.797-6.858,1.27-8.38c.08-.55-.29-1.06-.84-1.14-.55-.09-1.05.29-1.14.84l-1.35,8.92c-.06.34.07.68.32.9l8.515,7.476c-.202.505-.353,1.045-.44,1.613-3.41-.849-8.446-1.399-12.354-1.399-6.52,0-8.68,1.53-8.68,3.41s2.16,3.41,8.68,3.41c4.069,0,9.357-.6,12.757-1.509.85,2.223,2.705,3.768,4.863,3.768s4.013-1.546,4.863-3.768c3.4.91,8.688,1.509,12.757,1.509,6.52,0,8.68-1.53,8.68-3.41s-2.16-3.41-8.68-3.41Z"/>
  <path d="M37.021,19.291c0-2.431-1.727-4.457-4.021-4.92h0V4c0-.552-.448-1-1-1s-1,.448-1,1v10.37h0c-2.294.464-4.021,2.49-4.021,4.92,0,2.773,2.248,5.021,5.021,5.021s5.021-2.248,5.021-5.021Z"/>
  <rect x="25.609" y="49.5" width="12.781" height="3.81"/>
  <path d="M32,60c2.939,0,5.409-1.987,6.154-4.69h-12.309c.746,2.702,3.215,4.69,6.154,4.69Z"/>
</svg>