<?xml version="1.0" encoding="UTF-8"?>
<svg id="Glyph" xmlns="http://www.w3.org/2000/svg" viewBox="0 0 64 64">
  <path d="M38.21,18.74c.24-.28.3-.68.15-1.02l-1.3-3.1c-.22-.51-.8-.75-1.31-.54-.51.22-.75.8-.54,1.31l1.07,2.54-1.35,1.62s0,.009,0,.013c-.779-.704-1.802-1.143-2.929-1.143s-2.148.438-2.927,1.141c-.002-.004-.002-.007-.003-.011l-1.35-1.62,1.07-2.54c.21-.51-.03-1.09-.54-1.31-.51-.21-1.09.03-1.31.54l-1.3,3.1c-.15.34-.09.74.15,1.02l2.11,2.53s.007-.002.011-.003c-.059.159-.121.316-.161.483,1.36-.74,2.8-1.13,4.25-1.13s2.89.39,4.25,1.13c-.041-.168-.103-.327-.163-.487.004.002.008.005.013.007l2.11-2.53Z"/>
  <path d="M23.27,29.89l-3.75-2.95.9-5.98c.09-.55-.29-1.06-.84-1.14-.54-.08-1.05.29-1.13.84l-1,6.55c-.05.36.09.71.37.94l4.7,3.7h.01c.02-.06.05-.13.08-.21-.34,1.05-.57,2.11-.66,3.13,0-.01-.01-.02-.01-.03h-2.06l-4.13-4.76c-.36-.41-1-.46-1.41-.1-.42.37-.46,1-.1,1.41l4.43,5.11c.19.22.47.34.76.34h1.84l4.2-4.21c-.92-.47-1.78-1.05-2.58-1.72,0,0,.2-.56.38-.92Z"/>
  <path d="M23.75,28.91c.94.87,2.03,1.59,3.22,2.12l7.79-7.79c-.88-.4-1.81-.62-2.76-.62-3.41,0-6.42,2.82-8.25,6.29Z"/>
  <path d="M32,4c-15.464,0-28,12.536-28,28s12.536,28,28,28,28-12.536,28-28S47.464,4,32,4ZM8.675,32c0-12.882,10.443-23.325,23.325-23.325,5.634,0,10.801,1.998,14.833,5.323L14.001,46.836c-3.327-4.032-5.326-9.201-5.326-14.836ZM47.366,49.541c.226-.342.232-.797-.026-1.141l-.68-.92-.98-1.31-.46-5.07c-.03-.38-.29-.72-.66-.85l-3.03-1.08c-.01,0-.01.01-.02.01.28-.79.48-1.62.55-2.48,0,.01.01.02.01.03h2.5c.29,0,.57-.12.76-.34l4.43-5.1c.36-.42.32-1.05-.1-1.41-.41-.37-1.05-.32-1.41.09l-4.14,4.76h-2.05c-.09-.94-.29-1.91-.59-2.88l4.71-3.71c.28-.23.42-.58.37-.94l-.49-3.2-1.76,1.76.18,1.17-3.75,2.95c.14.32.27.63.39.95-1.3,1.07-2.76,1.9-4.34,2.45l-10.68,10.7c1.66,1.2,3.69,1.91,5.9,1.91,3.69,0,6.9-1.98,8.66-4.92q.01.01.01.02l2.62.93.42,4.71c.02.18.08.36.19.51l1.24,1.65.59.8c.2.27.5.41.81.41.15,0,.292-.047.429-.115-4.051,3.394-9.27,5.44-14.969,5.44-5.615,0-10.765-1.985-14.79-5.29L50.033,17.206c3.306,4.026,5.292,9.177,5.292,14.794,0,6.995-3.083,13.266-7.959,17.541Z"/>
</svg>