<?xml version="1.0" encoding="UTF-8"?>
<svg id="Glyph" xmlns="http://www.w3.org/2000/svg" viewBox="0 0 64 64">
  <path d="M13.006,38.296c-.375,1.161.723,2.258,1.884,1.883l8.288-2.677c6.703,3.511,15.176,2.453,20.806-3.178,6.938-6.937,6.938-18.185,0-25.122-6.937-6.937-18.184-6.938-25.123,0-5.63,5.631-6.689,14.103-3.178,20.803l-2.677,8.29ZM21.407,19.003c.624-4.426,4.264-7.957,8.705-8.465,6.041-.691,11.162,4.015,11.162,9.918,0,3.253-1.556,6.143-3.964,7.966v2.803c0,.676-.548,1.224-1.224,1.224h-1.676v-3.568c0-.55-.45-1-1-1-.56,0-1,.45-1,1v3.568h-2.24v-3.568c0-.55-.44-1-1-1-.55,0-1,.45-1,1v3.568h-1.701c-.676,0-1.224-.548-1.224-1.224v-2.821c-2.748-2.092-4.378-5.576-3.839-9.401Z"/>
  <path d="M27.373,23.34c1.268,0,2.296-1.028,2.296-2.296s-1.028-2.296-2.296-2.296-2.296,1.028-2.296,2.296,1.028,2.296,2.296,2.296Z"/>
  <path d="M35.206,23.34c1.268,0,2.296-1.028,2.296-2.296s-1.028-2.296-2.296-2.296-2.296,1.028-2.296,2.296,1.028,2.296,2.296,2.296Z"/>
  <path d="M48.62,39.7c.39-.91.62-1.9.62-2.95,0-1.539-.479-2.966-1.291-4.146-.735,1.116-1.584,2.168-2.551,3.135-.067.067-.141.124-.209.19.066.264.112.536.112.821,0,1.87-1.51,3.38-3.38,3.38-.706,0-1.359-.216-1.901-.584-1.336.647-2.739,1.143-4.194,1.472,1.304,2.272,3.652,3.732,6.455,3.732.55,0,1,.45,1,1,0,.56-.45,1-1,1-3.831,0-6.993-2.13-8.538-5.372-.765.089-1.536.148-2.317.148-1.857,0-3.706-.267-5.483-.777,1.876,6.228-.329,10.151-1.942,12.042,5.67,1.94,5.76,6.58,5.74,7.21h9.68v-.44c-.05-1.2-.51-2.14-1.38-2.75-.5-.36-1.16-.55-1.88-.55h-3.51c-.55,0-1-.45-1-1s.45-1,1-1h3.51c1.14,0,2.19.31,3.04.91.96.68,2.13,1.99,2.22,4.35v.48h15.88c1.41,0,2.58-1.08,2.66-2.48.26-4.18-.69-12.66-11.34-17.82ZM52.71,50.69c.39.39.39,1.02,0,1.41-.2.2-.45.3-.71.3s-.51-.1-.71-.3l-1.6-1.6-1.6,1.6c-.19.2-.45.3-.71.3-.25,0-.51-.1-.7-.3-.39-.39-.39-1.02,0-1.41l1.6-1.6-1.6-1.6c-.39-.39-.39-1.03,0-1.42.39-.39,1.02-.39,1.41,0l1.6,1.6,1.6-1.6c.39-.39,1.03-.39,1.42,0s.39,1.03,0,1.42l-1.6,1.6,1.6,1.6Z"/>
  <path d="M21.83,54.27c-.39-.08-.7-.39-.78-.78s.08-.79.41-1.02c.19-.14,4.91-3.64,2.52-11.31-.11-.366.004-.737.253-.99-.41-.159-.816-.328-1.214-.514l-7.515,2.428c-.353.114-.717.171-1.082.171-1.109,0-2.164-.54-2.823-1.445-.664-.911-.845-2.051-.497-3.128l2.427-7.515c-.087-.184-.157-.373-.237-.559-1.511.7-2.903,1.617-4.112,2.733l-.15-.12c-.02-.01-1.52-1.1-2.5-2.62-.86-1.35-.87-3.14-.02-4.58.67-1.13,1.61-1.77,2.79-1.9h2.394c-.047-.667-.061-1.334-.04-2h-2.504c-1.85.19-3.36,1.19-4.36,2.88-1.23,2.08-1.21,4.7.06,6.68,1.11,1.72,2.68,2.92,2.92,3.1-2.29,2.7-3.69,6.18-3.76,9.98-.17,8.93,7.42,16.24,16.35,16.24h7.39c.01-.26.18-4.49-5.92-5.73Z"/>
</svg>