<?xml version="1.0" encoding="UTF-8"?>
<svg id="Glyph" xmlns="http://www.w3.org/2000/svg" viewBox="0 0 64 64">
  <path d="M44.88,40.83c.29,0,.57-.12.76-.34l6.24-7.19c.37-.42.32-1.05-.09-1.41-.42-.36-1.05-.32-1.41.1l-5.95,6.84h-3.48v-.18c0-1.71-.09-3.36-.25-4.95l6.2-4.89c.28-.22.42-.58.37-.93l-1.41-9.23c-.08-.54-.59-.92-1.13-.83-.55.08-.93.59-.84,1.14l1.31,8.64-4.807,3.793c-.124-.815-.261-1.613-.424-2.373-2.25.77-4.59,1.2-6.97,1.3v29.47c3.249-.851,5.958-5.846,7.207-12.705l3.253,1.155.62,6.89c.01.19.08.36.19.51l2.58,3.46c.2.26.5.4.8.4.21,0,.42-.06.6-.2.44-.33.53-.95.2-1.39l-2.41-3.24-.65-7.24c-.03-.39-.29-.72-.66-.85l-4.213-1.508c.184-1.365.32-2.771.383-4.242h3.98Z"/>
  <path d="M44.37,5.03c-6.82,1.94-9.23,8.18-9.55,9.11.82.73,1.37,1.75,1.45,2.91-1.3-1.1-2.74-1.68-4.27-1.68s-2.97.58-4.27,1.68c.08-1.14.63-2.14,1.43-2.86-.14-.4-.75-2.03-2.02-3.8-1.47-2.03-3.84-4.31-7.51-5.36-.53-.16-.84-.71-.69-1.24.16-.53.71-.84,1.24-.69,7.36,2.11,10.11,8.36,10.76,10.12.34-.09.69-.15,1.06-.15.35,0,.7.04,1.02.12.67-1.78,3.46-7.98,10.8-10.09.53-.15,1.08.16,1.24.69.15.53-.16,1.08-.69,1.24Z"/>
  <path d="M32,17.37c-3.14,0-5.91,3.86-7.51,9.7,2.34.83,4.87,1.29,7.51,1.29s5.17-.46,7.51-1.29c-1.6-5.84-4.37-9.7-7.51-9.7Z"/>
  <path d="M23.607,31.393l-4.807-3.793,1.31-8.64c.09-.55-.29-1.06-.84-1.14-.54-.09-1.05.29-1.13.83l-1.41,9.23c-.05.35.09.71.37.93l6.2,4.89c-.16,1.59-.25,3.24-.25,4.95v.18h-3.48l-5.95-6.84c-.36-.42-.99-.46-1.41-.1-.41.36-.46.99-.09,1.41l6.24,7.19c.19.22.47.34.76.34h3.98c.063,1.47.199,2.877.383,4.242l-4.213,1.508c-.37.13-.63.46-.66.85l-.65,7.24-2.41,3.24c-.33.44-.24,1.06.2,1.39.18.14.39.2.6.2.3,0,.6-.14.8-.4l2.58-3.46c.11-.15.18-.32.19-.51l.62-6.89,3.253-1.155c1.248,6.859,3.957,11.853,7.207,12.705v-29.47c-2.38-.1-4.72-.53-6.97-1.3-.163.76-.299,1.558-.424,2.373Z"/>
</svg>