<?xml version="1.0" encoding="UTF-8"?>
<svg id="Glyph" xmlns="http://www.w3.org/2000/svg" viewBox="0 0 64 64">
  <path d="M47.678,8.656h7.665v7.665c0,.783.635,1.418,1.418,1.418h1.82c.783,0,1.418-.635,1.418-1.418V5.418c0-.783-.635-1.418-1.418-1.418h-10.903c-.783,0-1.418.635-1.418,1.418v1.82c0,.783.635,1.418,1.418,1.418Z"/>
  <path d="M5.419,17.738h1.82c.783,0,1.418-.635,1.418-1.418v-7.665h7.665c.783,0,1.418-.635,1.418-1.418v-1.82c0-.783-.635-1.418-1.418-1.418H5.419c-.783,0-1.418.635-1.418,1.418v10.903c0,.783.635,1.418,1.418,1.418Z"/>
  <path d="M58.581,46.26h-1.82c-.783,0-1.418.635-1.418,1.418v7.665h-7.665c-.783,0-1.418.635-1.418,1.418v1.82c0,.783.635,1.418,1.418,1.418h10.903c.783,0,1.418-.635,1.418-1.418v-10.903c0-.783-.635-1.418-1.418-1.418Z"/>
  <path d="M16.322,55.345h-7.665v-7.665c0-.783-.635-1.418-1.418-1.418h-1.82c-.783,0-1.418.635-1.418,1.418v10.903c0,.783.635,1.418,1.418,1.418h10.903c.783,0,1.418-.635,1.418-1.418v-1.82c0-.783-.635-1.418-1.418-1.418Z"/>
  <path d="M60,31h-3.025c-.514-12.99-10.984-23.46-23.975-23.975v-3.025c0-.552-.447-1-1-1s-1,.448-1,1v3.025c-12.99.514-23.46,10.984-23.975,23.975h-3.025c-.553,0-1,.448-1,1s.447,1,1,1h3.025c.514,12.99,10.984,23.46,23.975,23.975v3.025c0,.552.447,1,1,1s1-.448,1-1v-3.025c12.99-.514,23.46-10.984,23.975-23.975h3.025c.553,0,1-.448,1-1s-.447-1-1-1ZM33,54.975v-2.875c0-.552-.447-1-1-1s-1,.448-1,1v2.875c-11.888-.512-21.463-10.087-21.975-21.975h2.875c.553,0,1-.448,1-1s-.447-1-1-1h-2.875c.512-11.888,10.086-21.463,21.975-21.975v2.875c0,.552.447,1,1,1s1-.448,1-1v-2.875c11.888.512,21.463,10.087,21.975,21.975h-2.875c-.553,0-1,.448-1,1s.447,1,1,1h2.875c-.512,11.888-10.086,21.463-21.975,21.975Z"/>
  <path d="M27.9,18.97c.007-.019.02-.035.028-.054-.067.174-.133.349-.178.534,1.36-.74,2.79-1.13,4.25-1.13s2.89.39,4.25,1.13c-.041-.169-.103-.328-.163-.488.004.003.008.006.013.008l2.11-2.53c.24-.29.3-.69.15-1.03l-1.3-3.1c-.22-.51-.81-.75-1.31-.54-.51.22-.75.81-.54,1.31l1.07,2.54-1.35,1.63s0,.007,0,.01c-.776-.702-1.799-1.14-2.93-1.14s-2.155.439-2.932,1.142c0-.005.002-.008.002-.012l-1.35-1.63,1.07-2.54c.21-.5-.03-1.09-.54-1.31-.5-.21-1.09.03-1.31.54l-1.3,3.1c-.15.34-.09.74.15,1.03l2.11,2.53Z"/>
  <path d="M48.25,27.67l-4.14,4.76h-2.05c0,.007-.005.013-.005.019-.088-.962-.298-1.96-.608-2.956.008.016.018.028.023.046l4.71-3.71c.28-.22.42-.58.37-.94l-1-6.55c-.08-.54-.59-.92-1.13-.84-.55.09-.93.6-.84,1.14l.9,5.98-3.75,2.96c.148.326.285.656.41.99,0,0,0,0,0,0,0,0,0,0,0,0-2.54,2.08-5.77,3.22-9.14,3.22s-6.59-1.137-9.129-3.211c-.003-.008-.003-.013-.006-.021.125-.325.26-.648.405-.968l-3.75-2.96.9-5.98c.09-.54-.29-1.05-.84-1.14-.54-.08-1.05.3-1.13.84l-1,6.55c-.05.36.09.72.37.94l4.7,3.7c.009-.03.026-.051.042-.073-.316,1.011-.53,2.023-.617,2.998,0-.009-.005-.017-.004-.026h-2.05l-4.14-4.76c-.37-.42-1-.46-1.41-.1-.42.36-.46.99-.1,1.41l4.43,5.1c.2.22.47.35.76.35h2.509c.081.853.276,1.671.557,2.449-.006,0-.01,0-.016,0l-2.94,1.05c-.37.14-.63.47-.66.86l-.46,5.06-1.66,2.23c-.33.45-.24,1.07.2,1.4.18.13.39.2.6.2.3,0,.61-.14.8-.4l1.83-2.46c.11-.15.18-.32.2-.51l.42-4.71,2.54-.9s.004-.009.007-.014c1.771,2.923,4.971,4.884,8.643,4.884s6.894-1.974,8.661-4.913c.004.005.005.008.009.013l2.62.93.42,4.71c.02.19.08.36.19.51l1.83,2.46c.2.26.5.4.81.4.21,0,.41-.07.59-.2.45-.33.54-.95.21-1.4l-1.66-2.23-.46-5.06c-.03-.39-.29-.72-.66-.86l-3.03-1.08c-.006.002-.011.004-.017.006.279-.781.471-1.603.55-2.459,0,.007.008.015.007.023h2.5c.29,0,.56-.13.76-.35l4.43-5.1c.36-.42.32-1.05-.1-1.41-.41-.36-1.04-.32-1.41.1Z"/>
  <path d="M40.28,26.67c-1.162-2.234-2.818-4.199-4.755-5.331-.049-.028-.098-.055-.147-.082-1.057-.59-2.192-.937-3.378-.937s-2.321.347-3.378.937c-.049.027-.099.053-.147.082-1.937,1.132-3.593,3.097-4.755,5.331,2.17,1.94,5.08,3.12,8.28,3.12s6.11-1.18,8.28-3.12Z"/>
</svg>