<?xml version="1.0" encoding="UTF-8"?>
<svg id="Glyph" xmlns="http://www.w3.org/2000/svg" viewBox="0 0 64 64">
  <path d="M55.31,8.69c-7.4-7.41-20.96-5.87-30.27,3.44-7.88,7.88-10.17,18.79-6.21,26.45l-3.1,3.09c-.43.43-.43,1.12,0,1.54l5.06,5.06c.43.43,1.11.43,1.54,0l3.09-3.1c2.47,1.28,5.27,1.9,8.21,1.9,6.17,0,12.9-2.77,18.24-8.11,9.31-9.31,10.85-22.87,3.44-30.27ZM55.06,17.93l-.97.97-3.79-3.79,2.31-2.3c1.24,1.47,2.06,3.21,2.45,5.12ZM29.42,25.51l3.79-3.79,3.83,3.83-3.79,3.79-3.83-3.83ZM31.83,30.75l-3.78,3.78-3.83-3.82,3.79-3.79,3.82,3.83ZM34.62,20.31l3.83-3.83,3.83,3.83-3.83,3.82-3.83-3.82ZM38.45,26.96l3.79,3.79-3.79,3.79-3.79-3.79,3.79-3.79ZM39.87,25.55l3.82-3.83,3.79,3.79-3.83,3.83-3.78-3.79ZM45.11,20.31l3.78-3.79,3.79,3.79-3.78,3.78-3.79-3.78ZM45.94,8.91c.02,0,.05,0,.07.01l-.01.01c1.94.39,3.7,1.21,5.19,2.46l-2.3,2.31-3.83-3.83.94-.94c-.02-.01-.04-.01-.06-.02ZM43.65,11.28l3.83,3.83-3.79,3.78-3.82-3.83,3.78-3.78ZM41.11,8.74l1.12,1.13-3.78,3.78-3.2-3.2c1.94-.89,3.92-1.48,5.86-1.71ZM33.39,11.41l3.65,3.65-3.83,3.83-4.2-4.2c1.38-1.3,2.85-2.39,4.38-3.28ZM27.61,16.12l4.19,4.19-3.79,3.79-3.57-3.57c.84-1.53,1.9-3.01,3.17-4.41ZM23.48,22.4l3.11,3.11-3.78,3.78-.9-.9c.16-1.97.69-4,1.57-5.99ZM24.6,37.99c-1.26-1.49-2.08-3.27-2.47-5.2l-.01.01c0-.02-.01-.05-.01-.07.01.02.01.04.02.06l.68-.67,3.83,3.83-2.04,2.04ZM31.13,41.86c-1.91-.41-3.66-1.22-5.13-2.45l2.05-2.05,3.79,3.79-.71.71ZM33.26,39.74l-3.79-3.79,3.78-3.78,3.79,3.78-3.78,3.79ZM35.62,42.1l-.95-.95,3.78-3.78,3.14,3.14c-1.98.88-4.01,1.41-5.97,1.59ZM43.48,39.57l-3.61-3.62,3.78-3.78,4.23,4.22c-1.38,1.26-2.86,2.32-4.4,3.18ZM49.31,34.99l-4.24-4.24,3.83-3.83,3.69,3.69c-.89,1.53-1.99,3-3.28,4.38ZM53.55,28.75l-3.24-3.24,3.78-3.78,1.17,1.16c-.23,1.94-.81,3.92-1.71,5.86Z"/>
  <path d="M4.534,54.954c-.295.295-.295.773,0,1.069l3.443,3.443c.295.295.773.295,1.069,0l10.055-10.055-4.511-4.512-10.055,10.055Z"/>
</svg>