<?xml version="1.0" encoding="UTF-8"?>
<svg id="Glyph" xmlns="http://www.w3.org/2000/svg" viewBox="0 0 64 64">
  <path d="M54.17,50.53l-7.12-6.19-1.77-9.02c-.06-.33-.29-.61-.6-.74l-7.719-3.16c.565-.968.941-2.106,1.064-3.34h6.805c.29,0,.57-.12.76-.34l6.85-7.88c.36-.42.31-1.05-.1-1.41-.42-.37-1.05-.32-1.41.1l-6.55,7.53h-6.38s-.002.008-.001.012c-.117-.938-.378-1.816-.758-2.602l9.78-8.6c.26-.22.38-.56.33-.9l-1.54-10.11c-.08-.55-.59-.92-1.14-.84-.54.08-.92.59-.83,1.14l1.45,9.57-9.167,8.058c-1.083-1.214-2.529-1.962-4.123-1.962s-3.035.746-4.118,1.958l-9.172-8.053,1.45-9.57c.09-.55-.29-1.06-.83-1.14-.55-.08-1.06.29-1.14.84l-1.54,10.11c-.05.34.07.68.33.9l9.78,8.6c-.38.786-.641,1.664-.758,2.601,0-.004-.002-.007-.002-.011h-6.38l-6.55-7.53c-.36-.42-.99-.47-1.41-.1-.41.36-.46.99-.1,1.41l6.85,7.88c.19.22.47.34.76.34h6.805c.123,1.234.499,2.373,1.064,3.34l-7.719,3.16c-.31.13-.54.41-.6.74l-1.77,9.02-7.12,6.19c-.41.36-.46.99-.1,1.41.2.22.48.34.76.34.23,0,.46-.08.65-.24l7.38-6.41c.17-.15.28-.35.32-.57l1.74-8.83,7.768-3.179c1.017.929,2.279,1.486,3.652,1.486s2.635-.557,3.652-1.486l7.768,3.179,1.74,8.83c.04.22.15.42.32.57l7.38,6.41c.19.16.42.24.65.24.28,0,.56-.12.76-.34.36-.42.31-1.05-.1-1.41Z"/>
  <path d="M37.689,14.156c0-1.243-.403-2.39-1.08-3.326,0,0,0,0,0,0l2.12-2.54c.24-.29.3-.69.16-1.03l-1.43-3.4c-.22-.51-.81-.75-1.31-.53-.51.21-.75.8-.54,1.31l1.2,2.83-1.629,1.969c-.908-.614-2.003-.972-3.181-.972s-2.273.358-3.181.972l-1.629-1.969,1.2-2.83c.21-.51-.03-1.1-.54-1.31-.5-.22-1.09.02-1.31.53l-1.43,3.4c-.14.34-.08.74.16,1.03l2.12,2.54s0,0,0,0c-.677.936-1.08,2.083-1.08,3.326,0,3.142,2.547,5.689,5.689,5.689s5.689-2.547,5.689-5.689Z"/>
  <path d="M24.147,52.83h15.706c.472-1.403.773-2.946.861-4.58h-17.428c.087,1.634.388,3.178.861,4.58Z"/>
  <path d="M24.146,41.68c-.471,1.4-.771,2.939-.859,4.57h17.427c-.088-1.63-.388-3.17-.859-4.57h-15.708Z"/>
  <path d="M24.984,39.68h14.032c-1.594-3.116-4.139-5.143-7.016-5.143s-5.421,2.027-7.016,5.143Z"/>
  <path d="M32,59.97c2.876,0,5.42-2.026,7.014-5.14h-14.029c1.595,3.114,4.138,5.14,7.014,5.14Z"/>
</svg>