<?xml version="1.0" encoding="UTF-8"?>
<svg id="Glyph" xmlns="http://www.w3.org/2000/svg" viewBox="0 0 64 64">
  <path d="M49.97,5.89c-.21-1.1-1.17-1.9-2.29-1.9h-.79c-.52,0-.94.42-.94.93v4.68c0,1.65-1.33,2.98-2.97,2.98h-5.99c-1.65,0-2.98-1.33-2.98-2.98v-4.68c0-.51-.42-.93-.93-.93h-.79c-1.13,0-2.09.8-2.3,1.9l-2.67,14.26h25.33l-2.68-14.26Z"/>
  <path d="M36.99,10.58h5.99c.535,0,.97-.439.97-.98v-4.073h-7.94v4.073c0,.549.431.98.98.98ZM38.774,6.935h2.415c.553,0,1,.448,1,1s-.447,1-1,1h-2.415c-.553,0-1-.448-1-1s.447-1,1-1Z"/>
  <path d="M43.296,45.538c0,3.16-.85,6.122-2.324,8.682h5.847c.061,0,.11-.05.11-.111v-26.278c0-.061-.05-.111-.11-.111h-13.675c-.062,0-.11.05-.11.111v1.826c6.042,2.749,10.262,8.822,10.262,15.882Z"/>
  <path d="M27.316,28.143c1.286.109,2.526.373,3.718.746v-1.059c0-1.164.947-2.111,2.111-2.111h13.675c1.164,0,2.11.947,2.11,2.111v26.278c0,1.164-.946,2.111-2.11,2.111h-7.188c-1.127,1.453-2.474,2.728-3.996,3.765h13.347c2.025,0,3.666-1.641,3.666-3.666V22.15h-25.332v5.993Z"/>
  <path d="M23.23,38.17c.02,0,.03,0,.04-.01-.26.34-.45.72-.56,1.14.94-.58,1.99-.94,3.11-.94.85,0,1.65.2,2.39.55l.4-.4c-.07-.12-.14-.23-.22-.34h.01l1.16-1.39c.24-.28.3-.68.16-1.03l-.72-1.69c-.21-.51-.8-.75-1.31-.54-.5.22-.74.81-.53,1.31l.48,1.14-.87,1.05c0,.01.01.01.01.01-.31-.09-.62-.15-.96-.15-.33,0-.65.06-.95.15v-.01l-.87-1.05.48-1.14c.21-.5-.03-1.09-.54-1.31-.5-.21-1.09.03-1.3.54l-.72,1.69c-.14.35-.08.74.15,1.03l1.16,1.39Z"/>
  <path d="M25.82,40.36c-1.54,0-2.93,1.06-3.94,2.5l-2.87-.82-.72-2.95c-.13-.54-.68-.87-1.21-.74-.54.14-.87.68-.74,1.21l.86,3.52c.09.35.36.63.7.73l3.01.85c-.18.45-.32.91-.43,1.36l-3.26.39c-.35.04-.64.25-.79.56l-.96,2c-.23.49-.02,1.09.47,1.33.14.07.29.1.44.1.37,0,.73-.21.9-.57l.72-1.5.89-.1,7.77-7.77c-.28-.07-.55-.1-.84-.1Z"/>
  <path d="M41.3,45.54c0-8.53-6.94-15.47-15.47-15.47s-15.48,6.94-15.48,15.47,6.94,15.47,15.48,15.47,15.47-6.94,15.47-15.47ZM12.35,45.54c0-7.43,6.05-13.47,13.48-13.47,3.35,0,6.41,1.24,8.77,3.27l-1.85,1.85c-.01.02-.03.03-.04.05l-4.21,4.21h-.01l-7.89,7.9-1.4,1.4-3.57,3.57c-2.04-2.36-3.28-5.43-3.28-8.78ZM33.24,39.54l-.61,2.5-2.65.76,3.26-3.26ZM25.83,59.01c-3.36,0-6.42-1.24-8.79-3.28l2.37-2.37-.15,2.43c-.04.55.38,1.03.93,1.06.02,0,.04.01.07.01.52,0,.96-.41.99-.94l.22-3.44.63-.84c.99.9,2.29,1.45,3.72,1.45,1.44,0,2.74-.55,3.72-1.45l.63.84.22,3.44c.03.53.47.94.99.94.03,0,.05-.01.07-.01.55-.03.97-.51.93-1.06l-.23-3.73c-.01-.19-.08-.38-.2-.53l-1.15-1.56c.28-.58.47-1.23.53-1.91l2.31.27.72,1.5c.17.36.53.57.9.57.15,0,.3-.03.43-.1.5-.24.71-.84.48-1.33l-.96-2c-.15-.31-.44-.52-.79-.56l-3.25-.39c-.11-.45-.25-.91-.43-1.36l3-.85c.34-.1.61-.38.7-.73l.86-3.52c.13-.53-.2-1.07-.74-1.21-.04-.01-.08-.02-.12-.01l1.58-1.58c2.04,2.36,3.28,5.42,3.28,8.78,0,7.43-6.05,13.47-13.47,13.47Z"/>
</svg>