<?xml version="1.0" encoding="UTF-8"?>
<svg id="Glyph" xmlns="http://www.w3.org/2000/svg" viewBox="0 0 64 64">
  <path d="M30.232,16.444c-1.326,0-2.4,1.075-2.4,2.4,0,1.326,1.075,2.4,2.401,2.4s2.4-1.075,2.4-2.4c0-1.326-1.075-2.4-2.4-2.4Z"/>
  <path d="M35.733,12.074c-1.047,0-1.895.848-1.895,1.895,0,1.047.849,1.895,1.895,1.895s1.895-.848,1.895-1.895c0-1.047-.849-1.895-1.895-1.895Z"/>
  <g>
    <path d="M46.087,34.884v.322c0,1.112-.905,2.018-2.018,2.018s-2.018-.905-2.018-2.018v-.392h-2v.392c0,1.112-.904,2.018-2.017,2.018s-2.018-.905-2.018-2.018v-.392h-2v.392c0,.747-.413,1.393-1.018,1.742v9.243c0,.552-.447,1-1,1s-1-.448-1-1v-9.243c-.605-.349-1.018-.995-1.018-1.742v-.392h-2v.384c0,.633-.307,1.236-.82,1.614-.529.388-1.182.49-1.842.282-.788-.247-1.338-1.068-1.338-1.998v-.283h-2v.392c0,1.112-.905,2.018-2.018,2.018s-2.018-.905-2.018-2.018v-.332c-.907.214-1.587,1.026-1.587,1.998v15.257c0,1.135.924,2.058,2.059,2.058h27.162c1.135,0,2.059-.923,2.059-2.058v-15.257c0-.959-.663-1.76-1.553-1.987Z"/>
    <path d="M47.471,4h-30.943c-3.198,0-5.791,2.593-5.791,5.791v44.42c0,3.198,2.593,5.791,5.791,5.791h30.943c3.198,0,5.791-2.593,5.791-5.791V9.79c0-3.198-2.593-5.791-5.791-5.791ZM22.506,18.127c1.552-.165,2.765-1.463,2.765-3.058,0-1.596-1.213-2.893-2.765-3.058v-1.912c0-.521.422-.943.943-.943h17.103c.521,0,.943.422.943.943v10.34c-.008,0-.016-.002-.024-.002-2.088,0-3.78,1.692-3.78,3.78,0,.008.002.015.002.023h-14.244c-.521,0-.943-.422-.943-.943v-5.168ZM49.64,52.128c0,2.237-1.82,4.058-4.059,4.058h-27.162c-2.238,0-4.059-1.82-4.059-4.058v-15.257c0-2.076,1.573-3.773,3.587-4.01v-.44c0-1.112.905-2.018,2.018-2.018s2.018.905,2.018,2.018v.393h2.001c.006-1.15.516-2.023,1.337-2.281.224-.07.447-.105.665-.105.424,0,.828.131,1.177.387.514.377.82.98.82,1.614v.385h2v-.393c0-.747.413-1.393,1.018-1.742v-4.442h2v4.442c.605.349,1.018.995,1.018,1.742v.393h2v-.393c0-1.112.905-2.018,2.018-2.018s2.017.905,2.017,2.018v.393h2v-.393c0-1.112.905-2.018,2.018-2.018s2.018.905,2.018,2.018v.444c1.998.252,3.553,1.942,3.553,4.006v15.257Z"/>
  </g>
</svg>