<?xml version="1.0" encoding="UTF-8"?>
<svg id="Glyph" xmlns="http://www.w3.org/2000/svg" viewBox="0 0 64 64">
  <path d="M26.94,43.14h1.99v-.1c0-.26-.05-.84-.45-1.44l-1.54,1.54Z"/>
  <path d="M24.34,22.9c-2.5,0-4.79.92-6.56,2.43l-.15-.13c-.01,0-.91-.66-1.49-1.56-.48-.74-.48-1.73-.01-2.52.36-.62.85-.96,1.48-1.03h6.12c.17,0,4.11-.04,5.02-2.93.17-.53-.12-1.09-.65-1.26-.53-.16-1.09.13-1.25.66-.47,1.47-3.1,1.53-3.12,1.53h-6.28c-1.29.13-2.34.83-3.04,2.01-.85,1.43-.84,3.25.05,4.62.74,1.15,1.79,1.95,1.93,2.06-1.31,1.67-2.12,3.76-2.16,6.05-.06,3,1.26,5.71,3.36,7.59l9.01-9.01c-.01-.04-.03-.09-.04-.13-.16-.52.13-1.09.66-1.25.24-.07.49-.05.7.05l4.32-4.32c.09-.24.2-.47.32-.7-4.93-2.07-8.22-2.16-8.22-2.16Z"/>
  <path d="M42.55,30.25c.25-.58.39-1.21.39-1.87,0-.39-.05-.76-.14-1.12l-5.03,5.03c.12.02.23.02.35.02.55,0,1,.44,1,1,0,.55-.45,1-1,1-.71,0-1.39-.12-2.02-.34l-6.2,6.2c.83,1.05,1.07,2.2,1.03,2.97h5.59v-.3c-.03-.71-.3-1.25-.8-1.61-.37-.25-.8-.31-1.1-.31h-2.37c-.56,0-1-.45-1-1s.44-1,1-1h2.37c.84,0,1.62.24,2.25.68.71.5,1.57,1.46,1.65,3.2v.34h9.55c.89,0,1.63-.69,1.68-1.58.17-2.65-.44-8.04-7.2-11.31ZM43.09,38.05c-.97,0-1.75-.79-1.75-1.76s.78-1.75,1.75-1.75,1.75.78,1.75,1.75-.78,1.76-1.75,1.76Z"/>
  <path d="M32,4c-15.464,0-28,12.536-28,28s12.536,28,28,28,28-12.536,28-28S47.464,4,32,4ZM8.675,32c0-12.882,10.443-23.325,23.325-23.325,5.634,0,10.801,1.998,14.833,5.323L14.001,46.836c-3.327-4.032-5.326-9.201-5.326-14.836ZM32,55.325c-5.615,0-10.765-1.985-14.79-5.29L50.033,17.206c3.306,4.026,5.292,9.177,5.292,14.794,0,12.882-10.443,23.325-23.325,23.325Z"/>
</svg>