<?xml version="1.0" encoding="UTF-8"?>
<svg id="Glyph" xmlns="http://www.w3.org/2000/svg" viewBox="0 0 64 64">
  <path d="M48.615,32.389c.398-.902.622-1.897.622-2.946,0-4.041-3.275-7.316-7.316-7.316-2.596,0-4.87,1.356-6.169,3.394,0,0-.002,0-.003-.001h0c-.68,1.18-1.03,2.52-1.03,3.92,0,4.56,3.25,8,7.56,8,.55,0,1,.45,1,1,0,.56-.45,1-1,1-5.45,0-9.56-4.3-9.56-10,0-1.69.42-3.32,1.2-4.77h0c-8.337-3.71-13.978-3.849-13.978-3.849-4.156,0-7.929,1.603-10.766,4.208l-.147-.117c-.015-.011-1.519-1.103-2.496-2.622-.864-1.344-.873-3.14-.023-4.575.667-1.127,1.607-1.767,2.794-1.903h9.667c.247,0,6.061-.048,7.368-4.208.166-.527-.127-1.088-.654-1.254-.525-.163-1.088.127-1.254.654-.867,2.759-5.416,2.808-5.46,2.808h-9.721c-.034,0-.068.002-.102.005-1.849.189-3.356,1.185-4.359,2.878-1.233,2.082-1.208,4.702.062,6.677,1.106,1.719,2.677,2.918,2.921,3.098-2.289,2.705-3.694,6.181-3.766,9.985-.167,8.932,7.419,16.242,16.353,16.242h7.39c.011-.267.177-4.49-5.92-5.737-.39-.08-.7-.39-.78-.78s.08-.79.41-1.02c.19-.14,4.91-3.64,2.52-11.31-.16-.53.13-1.09.66-1.25.53-.17,1.09.13,1.25.65,1.98,6.34-.26,10.32-1.89,12.23,5.673,1.948,5.76,6.588,5.74,7.217h9.68v-.447c-.05-1.2-.51-2.14-1.38-2.75-.5-.36-1.16-.55-1.88-.55h-3.51c-.55,0-1-.45-1-1s.45-1,1-1h3.51c1.14,0,2.19.31,3.04.91.96.68,2.13,1.99,2.22,4.35v.487h15.882c1.405,0,2.573-1.085,2.659-2.488.257-4.179-.693-12.658-11.346-17.82ZM41.922,32.825c-1.868,0-3.382-1.514-3.382-3.382s1.514-3.382,3.382-3.382,3.382,1.514,3.382,3.382-1.514,3.382-3.382,3.382ZM49.465,44.672c-1.526,0-2.763-1.237-2.763-2.763s1.237-2.763,2.763-2.763,2.763,1.237,2.763,2.763-1.237,2.763-2.763,2.763Z"/>
</svg>