<?xml version="1.0" encoding="UTF-8"?>
<svg id="Glyph" xmlns="http://www.w3.org/2000/svg" viewBox="0 0 64 64">
  <path d="M59.38,6.46c-.1-.62-.56-1.13-1.17-1.29-12.72-3.22-23.23.67-29.14,3.87.37.81.57,1.71.57,2.67,0,.87-.17,1.7-.48,2.46.33.19.62.45.86.76.49.64.7,1.42.6,2.22-.19,1.49-1.47,2.61-2.97,2.61-.14,0-.27-.01-.4-.02-.39-.06-.76-.15-1.1-.26.09.38.11.78.05,1.18-.23,1.47-1.47,2.54-2.96,2.54-.16,0-.31-.01-.47-.04-.02,0-.03-.01-.05-.01.17.37.27.78.27,1.22,0,1.49-1.08,2.71-2.5,2.95.08.17.16.34.21.53.23.76.14,1.57-.24,2.28-.1.18-.22.35-.35.51.02.09.04.18.03.28l-.64,7.29,6.06-5.59.59-7.52c.05-.56.54-.97,1.08-.92.55.04.96.52.92,1.07l-.43,5.38,5.39-4.96.33-4.97c.03-.55.52-.97,1.06-.93.55.03.97.51.93,1.06l-.19,2.87,5.25-4.83c.72-.62,1.52-.93,2.36-.93,1.39,0,2.67.84,3.26,2.14.56,1.27.33,2.71-.61,3.77l-5.17,5.53,3.42-.23c.55-.04,1.03.38,1.07.93.03.56-.38,1.03-.94,1.07l-5.56.37-5.05,5.4,6.06-.48c.55-.04,1.04.37,1.08.92.04.55-.37,1.03-.92,1.07l-8.24.65-5.69,6.08,8.11-.71c.54-.06,1.03.36,1.08.91s-.36,1.03-.91,1.08l-10.32.9-5.8,6.19c12.74.36,21.72-2.41,28.01-6.8.4-.29.52-.84.28-1.28-1.12-2.07-.81-4.71.94-6.46.78-.77,1.72-1.26,2.72-1.48.53-.11.85-.63.73-1.16-.43-1.79.05-3.74,1.44-5.14.51-.5,1.08-.88,1.7-1.15.49-.21.74-.75.55-1.25-.84-2.24-.36-4.86,1.44-6.66.97-.97,2.18-1.55,3.43-1.76.44-.07.76-.44.8-.88.5-6-.07-10.98-.38-13.05Z"/>
  <path d="M15.01,36.89c-.97,0-1.81-.26-2.5-.58-.69.31-1.45.49-2.26.49-.22,0-.43-.02-.64-.04-.62,4.13-.44,7.79-.05,10.6l7.75-7.14.38-4.25c-.39.38-.86.65-1.4.77-.42.1-.85.15-1.28.15Z"/>
  <path d="M41.847,20.336L4.874,54.402c-1.078.988-1.115,2.675-.081,3.709l1.172,1.172c1.028,1.028,2.703.998,3.694-.065L44.005,22.524c1.278-1.437-.703-3.445-2.158-2.188Z"/>
  <path d="M10.252,34.797c.86,0,1.646-.312,2.252-.829.502.39,1.384.917,2.51.917.263,0,.539-.028.826-.095.538-.124.874-.661.749-1.199-.124-.539-.666-.874-1.199-.75-.879.204-1.594-.375-1.806-.571.034-.119.075-.236.096-.361-.176.052-.36.083-.543.119-.146.029-.293.056-.442.073-.041.005-.083.005-.124.009-.151.015-.302.028-.456.031-.001.001-.003.002-.004.003-.038,0-.075.008-.113.008-1.98,0-3.735-.968-4.829-2.451-.252.482-.408,1.023-.408,1.605,0,1.927,1.562,3.49,3.49,3.49Z"/>
  <path d="M12,30.154c1.12,0,2.116-.471,2.837-1.214.562.435,1.384.848,2.335.848.301,0,.614-.042.937-.137.53-.156.833-.712.676-1.242-.156-.53-.713-.833-1.242-.676-.868.254-1.605-.472-1.702-.571.047-.178.093-.356.115-.543-.426.096-.866.151-1.32.151-2.406,0-4.481-1.426-5.438-3.475-.741.727-1.202,1.736-1.202,2.856,0,2.211,1.793,4.004,4.004,4.004Z"/>
  <path d="M14.636,24.77c.969,0,1.85-.352,2.541-.925.564.752,1.508,1.526,2.816,1.526.552,0,1-.448,1-1s-.448-1-1-1c-.876,0-1.383-.97-1.447-1.099-.136.009-.271.028-.409.028-.306,0-.604-.035-.898-.079-.103-.016-.205-.033-.306-.054-2.326-.478-4.169-2.295-4.665-4.615-.987.729-1.636,1.892-1.636,3.213,0,2.211,1.793,4.004,4.004,4.004Z"/>
  <path d="M18.137,20.301c.837,0,1.604-.266,2.242-.707.493.59,1.383,1.386,2.703,1.592.052.008.104.012.156.012.484,0,.91-.352.986-.846.085-.545-.288-1.057-.833-1.142-.817-.128-1.353-.72-1.585-1.035-.134-.026-.262-.069-.393-.103-.188-.049-.375-.101-.556-.166-.137-.049-.271-.106-.404-.164-2.066-.895-3.591-2.807-3.918-5.111-1.412.619-2.401,2.025-2.401,3.665,0,2.211,1.793,4.004,4.004,4.004Z"/>
  <path d="M23.053,16.297c.57,0,1.111-.117,1.615-.307.509.646,1.463,1.584,2.848,1.765.043.006.087.008.13.008.495,0,.925-.367.99-.871.071-.547-.315-1.049-.863-1.121-.624-.081-1.115-.52-1.424-.879.798-.826,1.295-1.946,1.295-3.186,0-1.445-.681-2.719-1.725-3.561,1.855-1.527,2.407-3.802,2.434-3.918.125-.537-.208-1.071-.745-1.197-.537-.127-1.074.206-1.203.741-.006.025-.625,2.51-2.679,3.399-.006.003-.009.008-.015.011-.217-.031-.433-.066-.659-.066-2.536,0-4.591,2.056-4.591,4.591s2.056,4.591,4.591,4.591Z"/>
</svg>