<?xml version="1.0" encoding="UTF-8"?>
<svg id="Glyph" xmlns="http://www.w3.org/2000/svg" viewBox="0 0 64 64">
  <path d="M35.92,13.28c-.22-.51-.8-.75-1.31-.54-.51.22-.75.8-.54,1.31l.71,1.69-.97,1.17c-.004.008-.005.013-.008.021-.537-.296-1.145-.479-1.802-.479s-1.267.184-1.805.481c-.002-.009-.002-.014-.005-.023l-.97-1.17.71-1.69c.21-.51-.03-1.09-.54-1.31-.51-.21-1.09.03-1.31.54l-.94,2.24c-.15.35-.09.74.15,1.03l1.47,1.76s.008.003.012.004c-.329.559-.531,1.201-.531,1.897,0,2.076,1.683,3.759,3.759,3.759s3.759-1.683,3.759-3.759c0-.695-.202-1.338-.53-1.896.004-.002.007-.003.012-.005l1.47-1.76c.24-.29.3-.68.15-1.03l-.94-2.24Z"/>
  <path d="M22.89,34.13l-.24,1.23,2.74-2.74-1.89.77c-.32.13-.54.41-.61.74Z"/>
  <path d="M29.53,25.03c-.01,0-.01-.01-.01-.01l-5.94-5.21.93-6.14c.09-.55-.29-1.05-.83-1.14-.55-.08-1.06.29-1.14.84l-1.02,6.68c-.05.34.08.68.33.9l6.54,5.75.01.01c-.13.33-.24.67-.31,1.04h-4.57c-.18,0-.37.05-.52.15l-4.53,2.79c-.47.29-.61.91-.32,1.38.18.31.51.47.85.47.18,0,.36-.04.52-.14l4.29-2.65h4.25c.01.05.02.11.03.16l5.52-5.52c-.49-.27-1.03-.42-1.61-.42-.94,0-1.79.41-2.47,1.06Z"/>
  <path d="M41.46,13.37c-.08-.55-.59-.92-1.14-.84-.54.09-.92.59-.83,1.14l.64,4.2,1.75-1.75-.42-2.75Z"/>
  <path d="M45,32.54c.34,0,.67-.16.85-.47.29-.47.15-1.09-.32-1.38l-3.81-2.35-1.45,1.46,4.21,2.6c.16.1.34.14.52.14Z"/>
  <path d="M42.26,39.97l-1.15-5.84c-.07-.33-.29-.61-.61-.74l-2.71-1.11-1.53,1.53,2.99,1.23,1.11,5.66c.04.21.16.41.32.56l4.88,4.23c.19.17.42.25.65.25.28,0,.56-.12.76-.35.36-.41.32-1.04-.1-1.41l-4.61-4.01Z"/>
  <path d="M26.34,43.74c.08.58.2,1.15.36,1.68h10.6c.22-.73.37-1.52.43-2.34h-10.73l-.66.66Z"/>
  <path d="M31.34,38.73l-2.35,2.35h8.75c-.07-.83-.22-1.61-.44-2.35h-5.96Z"/>
  <path d="M32,50.479c1.796,0,3.401-1.191,4.461-3.059h-8.922c1.06,1.868,2.665,3.059,4.461,3.059Z"/>
  <path d="M35.09,34.98l-1.75,1.75h3.12c-.39-.68-.85-1.27-1.37-1.75Z"/>
  <path d="M32,4c-15.464,0-28,12.536-28,28s12.536,28,28,28,28-12.536,28-28S47.464,4,32,4ZM8.675,32c0-12.882,10.443-23.325,23.325-23.325,5.634,0,10.801,1.998,14.833,5.323L14.001,46.836c-3.327-4.032-5.326-9.201-5.326-14.836ZM32,55.325c-5.615,0-10.765-1.985-14.79-5.29L50.033,17.206c3.306,4.026,5.292,9.177,5.292,14.794,0,12.882-10.443,23.325-23.325,23.325Z"/>
</svg>