<?xml version="1.0" encoding="UTF-8"?>
<svg id="Glyph" xmlns="http://www.w3.org/2000/svg" viewBox="0 0 64 64">
  <path d="M53.88,19.8l-1.31-3.95c-.33-1.02-1.28-1.7-2.36-1.7h-16.16v-.38c2.07-.82,3.53-2.84,3.53-5.19,0-3.08-2.5-5.58-5.58-5.58s-5.58,2.5-5.58,5.58c0,2.35,1.46,4.37,3.53,5.19v.38H13.79c-1.08,0-2.03.68-2.36,1.7l-1.31,3.95c-.16.46.18.92.66.92h42.44c.48,0,.82-.46.66-.92ZM32.13,9.68h-.26c-1.03,0-1.87.82-1.91,1.84-.93-.65-1.54-1.72-1.54-2.94,0-1.97,1.6-3.58,3.58-3.58s3.58,1.61,3.58,3.58c0,1.22-.61,2.29-1.54,2.94-.04-1.02-.88-1.84-1.91-1.84Z"/>
  <rect x="10.355" y="53.425" width="43.289" height="6.575" rx="1.793" ry="1.793"/>
  <path d="M53.82,38.074c.553,0,1-.447,1-1s-.447-1-1-1h-3.21v-6.728h3.21c.553,0,1-.448,1-1s-.447-1-1-1h-3.21v-4.627h-4.49v4.627h-6.42v-4.627h-4.49v4.627h-6.42v-4.627h-4.49v4.627h-6.42v-4.627h-4.49v4.627h-3.21c-.553,0-1,.448-1,1s.447,1,1,1h3.21v6.728h-3.21c-.553,0-1,.447-1,1s.447,1,1,1h3.21v6.729h-3.21c-.553,0-1,.447-1,1s.447,1,1,1h3.21v4.617h4.49v-4.617h6.42v4.617h4.49v-4.617h6.42v4.617h4.49v-4.617h6.42v4.617h4.49v-4.617h3.21c.553,0,1-.447,1-1s-.447-1-1-1h-3.21v-6.729h3.21ZM46.12,29.347v6.728h-6.42v-6.728h6.42ZM35.21,29.347v6.728h-6.42v-6.728h6.42ZM17.88,29.347h6.42v6.728h-6.42v-6.728ZM17.88,44.803v-6.729h6.42v6.729h-6.42ZM28.79,44.803v-6.729h6.42v6.729h-6.42ZM46.12,44.803h-6.42v-6.729h6.42v6.729Z"/>
</svg>