<?xml version="1.0" encoding="UTF-8"?>
<svg id="Glyph" xmlns="http://www.w3.org/2000/svg" viewBox="0 0 64 64">
  <g>
    <path d="M23.49,33.8h.72l-1.79,1.78c-.05-.03-.1-.07-.14-.12l-4.34-5c-.37-.42-.32-1.05.1-1.42.41-.36,1.04-.31,1.41.1l4.04,4.66Z"/>
    <path d="M25.84,32.16c.03-.43.06-.85.1-1.26-.01-.01-.01,0-.03-.01l-4.46-3.52c-.28-.22-.43-.58-.37-.93l.97-6.42c.09-.54.6-.92,1.14-.84.55.09.92.6.84,1.14l-.89,5.84,3.06,2.41c-.01.05-.03.1-.01.15.8.27,1.62.48,2.46.64l-2.81,2.8Z"/>
    <path d="M31,39.07v9.51c-1.6-.61-2.99-2.67-3.93-5.58l3.93-3.93Z"/>
    <path d="M38.17,35.8c-.04.81-.11,1.6-.2,2.36,0,0,.01-.01.01-.02l2.98,1.07c.37.13.62.46.66.85l.45,4.95,1.62,2.18c.33.45.24,1.07-.2,1.4-.18.14-.39.2-.6.2-.31,0-.61-.14-.8-.4l-1.8-2.41c-.11-.15-.17-.32-.19-.51l-.41-4.6-2.03-.72c-.85,4.39-2.58,7.63-4.66,8.43v-11.51l5.15-5.15c.04.62.06,1.25.07,1.89l.01-.01h2.28l4.04-4.66c.37-.41,1-.46,1.41-.1.42.37.47,1,.1,1.42l-4.34,5c-.19.21-.47.34-.76.34h-2.79Z"/>
    <path d="M40.69,14.17c-4.37,1.25-6.03,5.05-6.4,6.05.54.51,1.04,1.18,1.49,2l-5.38,5.38c-1.34-.13-2.63-.42-3.84-.86.35-1.48.8-2.79,1.34-3.89.53-1.11,1.14-2,1.81-2.63-.37-1-2.03-4.8-6.4-6.05-.53-.15-.84-.7-.69-1.23.16-.53.71-.84,1.24-.69,4.89,1.4,6.98,5.41,7.62,6.99.17-.04.34-.06.52-.06s.36.02.53.06c.65-1.58,2.73-5.59,7.61-6.99.53-.15,1.08.16,1.24.69.15.53-.16,1.08-.69,1.23Z"/>
  </g>
  <path d="M32,4c-15.464,0-28,12.536-28,28s12.536,28,28,28,28-12.536,28-28S47.464,4,32,4ZM8.675,32c0-12.882,10.443-23.325,23.325-23.325,5.634,0,10.801,1.998,14.833,5.323L14.001,46.836c-3.327-4.032-5.326-9.201-5.326-14.836ZM32,55.325c-5.615,0-10.765-1.985-14.79-5.29L50.033,17.206c3.306,4.026,5.292,9.177,5.292,14.794,0,12.882-10.443,23.325-23.325,23.325Z"/>
</svg>