<?xml version="1.0" encoding="UTF-8"?>
<svg id="Glyph" xmlns="http://www.w3.org/2000/svg" viewBox="0 0 64 64">
  <path d="M57.718,50.7h-.33c-.419,2.041-2.26,3.565-4.473,3.565h-.983l.02.895c0,2.492-1.991,4.483-4.44,4.483-.078,0-.156-.002-.234-.006-2.358-.124-4.204-2.132-4.204-4.571l-.02-.801h-4.887c-1.212,0-2.386-.504-3.22-1.384-.576-.606-.949-1.37-1.114-2.181H6.282c-1.26,0-2.282,1.021-2.282,2.282v4.737c0,1.26,1.021,2.282,2.282,2.282h51.437c1.26,0,2.282-1.021,2.282-2.282v-4.737c0-1.26-1.021-2.282-2.282-2.282Z"/>
  <path d="M41.181,22.233l-1.138-1.138-18.949,18.949,1.137,1.138c1.592,1.592,4.174,1.593,5.767,0l13.183-13.183c1.592-1.592,1.592-4.174,0-5.766Z"/>
  <path d="M26.405,7.456l-2.816-2.816c-.855-.855-2.24-.855-3.095,0l-15.855,15.855c-.855.855-.855,2.24,0,3.095l2.816,2.817L26.405,7.456Z"/>
  <path d="M53.053,47.385h-2.054c-.174.887-.605,1.703-1.259,2.356-.868.868-2.022,1.347-3.25,1.347-1.195,0-2.32-.453-3.18-1.277l-2.887-2.425h-2.119c-1.321,0-2.505.989-2.574,2.308-.074,1.407,1.045,2.571,2.436,2.571h5.451c.785,0,1.422.637,1.422,1.422l.033,1.379c0,1.321.989,2.505,2.308,2.574,1.407.074,2.571-1.045,2.571-2.436l-.033-1.517c0-.786.637-1.422,1.422-1.422h1.574c1.321,0,2.505-.989,2.574-2.308.074-1.407-1.045-2.571-2.436-2.571Z"/>
  <path d="M48.326,44.655l-5.378-6.401-4.696,4.696,6.402,5.378c1.014,1.014,2.658,1.014,3.672,0s1.014-2.658,0-3.672Z"/>
  <path d="M40.711,31.296l-1.557,1.557.546.546c.39.39.39,1.03,0,1.42-.2.19-.45.29-.71.29s-.51-.1-.71-.29l-.546-.546-1.02,1.02.546.546c.39.4.39,1.03,0,1.42-.2.19-.45.29-.71.29s-.51-.1-.71-.29l-.546-.546-1.025,1.025.551.551c.39.39.39,1.02,0,1.41-.2.19-.46.29-.71.29-.26,0-.51-.1-.71-.29l-.546-.546-1.559,1.559,2.068,2.068c.615.615,1.613.615,2.229,0l7.188-7.187c.615-.615.615-1.613,0-2.229l-2.068-2.068Z"/>
  <path d="M27.82,8.87L8.87,27.82l10.81,10.81,18.95-18.95-10.81-10.81ZM21.354,32.154l-2.031,2.031c-.195.195-.451.293-.707.293s-.512-.098-.707-.293c-.391-.391-.391-1.023,0-1.414l1.324-1.324-.883-.883-1.324,1.324c-.195.195-.451.293-.707.293s-.512-.098-.707-.293c-.391-.391-.391-1.023,0-1.414l1.324-1.324-.884-.884-1.324,1.324c-.391.391-1.023.391-1.414,0s-.391-1.023,0-1.414l2.031-2.031c.391-.391,1.023-.391,1.414,0l4.595,4.595c.391.391.391,1.023,0,1.414ZM26.073,27.435c-.391.391-1.023.391-1.414,0l-3.625-3.624c-.19-.188-.335-.19-.525,0l-.756.755c-.095.095-.109.205-.109.263s.014.168.108.263l3.625,3.625c.391.391.391,1.023,0,1.414-.195.195-.451.293-.707.293s-.512-.098-.707-.293l-3.625-3.625c-.448-.447-.695-1.043-.695-1.677s.247-1.229.695-1.677l.755-.755c.896-.896,2.458-.896,3.354,0l3.625,3.624c.391.391.391,1.023,0,1.414ZM29.489,24.02c-.195.195-.451.293-.707.293s-.512-.098-.707-.293l-3.888-3.888-.941.941c-.391.391-1.023.391-1.414,0s-.391-1.023,0-1.414l1.648-1.648c.391-.391,1.023-.391,1.414,0l4.595,4.595c.391.391.391,1.023,0,1.414ZM32.46,21.049c-.463.462-1.07.693-1.678.693s-1.214-.231-1.676-.693c-.391-.39-.391-1.023,0-1.414.391-.391,1.024-.391,1.415,0,.144.144.38.146.526,0l.754-.756c.095-.095.109-.205.109-.263s-.014-.168-.108-.263l-2.655-2.655c-.145-.145-.381-.145-.526,0l-.754.756c-.096.095-.109.205-.109.263s.014.168.108.262l.286.287.075-.075c.391-.391,1.023-.391,1.414,0s.391,1.023,0,1.414l-.782.782c-.188.188-.442.293-.707.293s-.52-.105-.708-.293l-.993-.993c-.448-.447-.694-1.043-.694-1.677s.247-1.229.695-1.678l.754-.755c.926-.924,2.43-.924,3.354,0l2.655,2.655c.448.447.695,1.043.695,1.677s-.247,1.229-.695,1.677l-.754.756Z"/>
</svg>