<?xml version="1.0" encoding="UTF-8"?>
<svg id="Glyph" xmlns="http://www.w3.org/2000/svg" viewBox="0 0 64 64">
  <polygon points="16.16 42.26 13.72 44.03 13.28 42.7 10.77 35 10.82 35 10.16 33 13.15 33 16.16 42.26"/>
  <polygon points="16.17 21.7 13.15 31 10.15 31 10.79 29 10.77 29 12.93 22.37 12.94 22.39 13.74 19.94 16.17 21.7"/>
  <polygon points="15.25 33 20.82 33 22.36 37.76 17.86 41.02 15.25 33"/>
  <polygon points="17.87 22.93 22.38 26.2 20.82 31 15.25 31 17.87 22.93"/>
  <polygon points="25.24 49.64 24.32 52.49 22.98 51.53 22.97 51.53 17.05 47.23 17.07 47.22 14.9 45.64 17.33 43.88 25.24 49.64"/>
  <polygon points="25.24 14.36 17.36 20.09 14.93 18.33 16.31 17.31 22.97 12.47 22.99 12.49 24.32 11.51 25.24 14.36"/>
  <polygon points="25.89 47.63 19.03 42.65 23.54 39.38 27.61 42.33 25.89 47.63"/>
  <polygon points="25.89 16.37 27.61 21.67 23.57 24.6 19.06 21.33 25.89 16.37"/>
  <polygon points="22.92 33 28.92 33 24.07 36.52 22.92 33"/>
  <polygon points="28.99 31 22.92 31 24.08 27.44 28.99 31"/>
  <polygon points="25.27 25.83 28.25 23.67 30.08 29.32 25.27 25.83"/>
  <polygon points="28.25 40.33 25.24 38.14 30.1 34.61 28.25 40.33"/>
  <polygon points="32 35.25 33.84 40.94 30.16 40.94 32 35.25"/>
  <polygon points="33.84 23.06 32 28.75 30.16 23.06 33.84 23.06"/>
  <polygon points="36.2 48.24 27.8 48.24 29.51 42.94 34.49 42.94 36.2 48.24"/>
  <polygon points="27.8 15.76 36.2 15.76 34.49 21.06 29.51 21.06 27.8 15.76"/>
  <polygon points="37.77 10.91 36.85 13.76 27.15 13.76 26.23 10.9 28.81 10.89 35.26 10.89 35.25 10.91 37.77 10.91"/>
  <polygon points="37.77 53.1 35.26 53.11 28.81 53.11 28.82 53.09 26.23 53.09 27.15 50.24 36.85 50.24 37.77 53.1"/>
  <polygon points="35.75 23.67 38.76 25.86 33.9 29.39 35.75 23.67"/>
  <polygon points="38.8 38.12 35.75 40.33 33.87 34.54 38.8 38.12"/>
  <polygon points="39.95 36.48 35.15 33 41.08 33 39.95 36.48"/>
  <polygon points="41.08 31 35.08 31 39.94 27.48 41.08 31"/>
  <polygon points="44.97 21.35 40.46 24.62 36.39 21.67 38.11 16.37 44.97 21.35"/>
  <polygon points="38.11 47.63 36.39 42.33 40.5 39.35 45.01 42.62 38.11 47.63"/>
  <polygon points="46.16 40.98 41.65 37.71 43.18 33 48.75 33 46.16 40.98"/>
  <polygon points="48.75 31 43.18 31 41.64 26.24 46.14 22.98 48.75 31"/>
  <polygon points="49.1 18.36 46.67 20.12 38.76 14.36 39.68 11.51 41.06 12.5 46.92 16.75 46.9 16.76 49.1 18.36"/>
  <polygon points="49.14 45.62 47.79 46.63 41.06 51.51 41.05 51.48 39.68 52.49 38.76 49.64 46.71 43.86 49.14 45.62"/>
  <polygon points="53.84 31 50.85 31 47.84 21.74 50.28 19.97 50.7 21.23 53.23 29 53.18 29 53.84 31"/>
  <polygon points="53.21 35 53.23 35 50.94 42.04 50.91 42.02 50.28 43.98 47.86 42.22 50.85 33 53.85 33 53.21 35"/>
  <path d="M60,31h-1.92l-4.39-13.5,1.63-1.19c.45-.32.55-.95.23-1.39-.33-.45-.95-.55-1.4-.23l-1.62,1.18-11.55-8.39.59-1.81c.17-.53-.12-1.09-.64-1.26-.53-.17-1.09.12-1.26.64l-.6,1.84h-14.14l-.6-1.84c-.17-.52-.73-.81-1.26-.64-.52.17-.81.73-.64,1.26l.59,1.82-11.51,8.36-1.59-1.16c-.44-.32-1.07-.22-1.39.23-.33.44-.23,1.07.22,1.39l1.57,1.14-4.4,13.55h-1.92c-.55,0-1,.45-1,1s.45,1,1,1h1.92l4.39,13.5-1.56,1.13c-.45.33-.55.95-.22,1.4.19.27.5.41.81.41.2,0,.41-.06.58-.19l1.55-1.12,11.55,8.38-.59,1.82c-.17.53.12,1.09.64,1.26.11.03.21.05.31.05.42,0,.82-.27.95-.69l.6-1.84h14.14l.6,1.84c.13.42.53.69.95.69.1,0,.2-.02.31-.05.52-.17.81-.73.64-1.26l-.59-1.81,11.58-8.42,1.59,1.15c.18.13.38.19.59.19.31,0,.61-.14.81-.41.32-.45.22-1.07-.23-1.4l-1.61-1.17,4.37-13.46h1.92c.55,0,1-.45,1-1s-.45-1-1-1ZM55.98,33l-3.97,12.23-.03-.02-.34,1.06-.8.58.02.02-10.53,7.64-.01-.02-.82.6h-1.08l.01.02h-12.86l.01-.02h-1.08l-.82-.6-.01.02-10.49-7.62.02-.01-.84-.61-.33-1.01-.02.01-3.99-12.27h.03l-.33-1,.33-1h-.03l4-12.31.02.02.32-.98.87-.63-.02-.02,10.46-7.59.01.02.82-.6h1.08l-.01-.02h12.86l-.01.02h1.08l.82.6.01-.02,10.49,7.62-.02.01.84.61.33,1.01.02-.01,3.99,12.27h-.03l.33,1-.33,1h.03Z"/>
</svg>