<?xml version="1.0" encoding="UTF-8"?>
<svg id="Glyph" xmlns="http://www.w3.org/2000/svg" viewBox="0 0 64 64">
  <path d="M58.515,23.11l-7.451-5.589V7.665c0-1.006-.816-1.822-1.822-1.822h-4.608c-1.006,0-1.822.816-1.822,1.822v3.666l-8.942-6.708c-1.108-.831-2.631-.831-3.739,0L5.485,23.111c-1.625,1.224-1.983,3.514-.797,5.088,1.186,1.574,3.486,1.86,5.111.635L31.232,12.771c.455-.341,1.081-.341,1.536,0l21.433,16.063c1.625,1.224,3.925.939,5.111-.635,1.186-1.574.828-3.863-.797-5.088Z"/>
  <path d="M28.06,36.87l-2.87-.82-.72-2.95c-.13-.54-.68-.87-1.21-.74-.54.14-.87.68-.74,1.21l.86,3.52c.09.35.36.63.7.73l3.01.85c-.19.45-.33.9-.43,1.36l-3.26.39c-.35.04-.64.25-.79.56l-.96,2c-.23.49-.02,1.09.47,1.33.14.07.29.1.44.1.37,0,.73-.21.9-.57l.72-1.5.88-.1,7.77-7.77c-.27-.06-.55-.1-.83-.1-1.54,0-2.94,1.06-3.94,2.5Z"/>
  <path d="M52.997,30.432l-20.997-15.736-21.002,15.739c-.328.248-.683.442-1.049.612l.079,25.076c0,2.121,1.719,3.842,3.84,3.844l36.454.034c2.124.002,3.847-1.719,3.847-3.844l-.08-25.093c-.381-.174-.751-.374-1.093-.632ZM34.674,35.454s-.002-.003-.004-.004l-7.9,7.9s.002.004.002.005l-4.966,4.966c-2.037-2.361-3.278-5.426-3.278-8.781,0-7.427,6.044-13.47,13.474-13.47,3.354,0,6.418,1.24,8.778,3.276l-6.106,6.107ZM39.425,33.53l-.615,2.52-2.666.762,3.281-3.282ZM25.59,47.366l-.15,2.434c-.04.55.38,1.03.93,1.06.02,0,.04.01.07.01.52,0,.96-.41.99-.94l.22-3.44.63-.84c.98.89,2.29,1.44,3.72,1.44s2.74-.55,3.72-1.44l.63.84.22,3.44c.03.53.47.94.99.94.03,0,.05-.01.07-.01.55-.03.97-.51.93-1.06l-.23-3.73c-.01-.19-.08-.38-.2-.53l-1.16-1.56c.29-.59.47-1.23.53-1.91l2.32.27.72,1.5c.17.36.53.57.9.57.15,0,.3-.03.43-.1.5-.24.71-.84.48-1.33l-.96-2c-.15-.31-.44-.52-.79-.56l-3.26-.39c-.1-.46-.24-.92-.43-1.36l3.01-.85c.34-.1.61-.38.7-.73l.86-3.52c.13-.53-.2-1.07-.74-1.21-.047-.011-.093,0-.14-.005l1.594-1.594c2.036,2.361,3.277,5.426,3.277,8.78,0,7.428-6.043,13.471-13.47,13.471-3.355,0-6.421-1.24-8.782-3.276l2.37-2.37Z"/>
  <path d="M35.74,30.79c.24-.28.3-.68.16-1.03l-.72-1.69c-.21-.51-.8-.75-1.31-.54-.5.22-.74.81-.53,1.31l.48,1.14-.87,1.05c-.3-.1-.62-.15-.95-.15s-.65.05-.95.15l-.87-1.05.48-1.14c.21-.5-.03-1.09-.54-1.31-.5-.21-1.09.03-1.3.54l-.72,1.69c-.14.35-.08.74.15,1.03l1.16,1.39c.01.02.02.01.03.02-.25.33-.45.7-.56,1.11.95-.59,2-.94,3.12-.94.84,0,1.64.2,2.39.54l.4-.4c-.07-.11-.14-.22-.22-.32l.01-.01,1.16-1.39Z"/>
</svg>