<?xml version="1.0" encoding="UTF-8"?>
<svg id="Glyph" xmlns="http://www.w3.org/2000/svg" viewBox="0 0 64 64">
  <path d="M25.53,13.66c.012-.025.029-.047.041-.071-.486.953-.774,2.025-.791,3.165,2.295-1.423,4.748-2.194,7.22-2.194s4.924.772,7.22,2.194c-.018-1.14-.305-2.211-.791-3.165.012.024.03.046.041.071l3.26-3.9c.24-.29.3-.69.15-1.03l-2.15-5.11c-.21-.51-.8-.74-1.31-.53-.51.21-.74.8-.53,1.31l1.91,4.54-2.51,3.02c-1.318-1.423-3.197-2.319-5.29-2.319s-3.972.896-5.29,2.319l-2.51-3.02,1.91-4.54c.21-.51-.02-1.1-.53-1.31-.51-.21-1.1.02-1.31.53l-2.15,5.11c-.15.34-.09.74.15,1.03l3.26,3.9Z"/>
  <path d="M52.7,39.15c.29,0,.57-.12.76-.34l7.3-8.41c.37-.42.32-1.05-.09-1.41-.42-.36-1.05-.32-1.42.1l-7,8.06h-3.63c-.12-1.95-.54-4.02-1.23-6.06l7.56-5.96c.28-.22.43-.58.37-.94l-1.64-10.78c-.08-.55-.59-.93-1.14-.84-.54.08-.92.59-.83,1.14l1.55,10.21-6.619,5.207c-.051-.119-.1-.237-.151-.357-3.99,3.47-9.11,5.39-14.49,5.39s-10.5-1.92-14.49-5.39c-.056.126-.106.253-.159.379l-6.611-5.219,1.55-10.21c.09-.54-.29-1.05-.83-1.14-.55-.08-1.06.3-1.14.84l-1.64,10.79c-.06.35.09.71.37.93l7.568,5.974c-.687,2.045-1.126,4.107-1.248,6.056h-3.62l-7-8.07c-.37-.41-1-.46-1.42-.1-.41.37-.46,1-.09,1.42l7.3,8.4c.19.22.47.35.76.35h4.07c.11,1.92.54,3.76,1.25,5.45-.04-.09-.08-.17-.11-.26l-4.84,1.85c-.36.13-.61.46-.64.84l-.77,8.53-2.84,3.81c-.33.45-.24,1.07.2,1.4.18.14.39.2.6.2.3,0,.6-.14.8-.4l3.01-4.05c.11-.14.18-.32.2-.5l.73-8.19,4.4-1.67c-.05-.09-.1-.19-.14-.28,2.78,5.33,8.35,8.98,14.78,8.98s11.95-3.62,14.74-8.92c-.03.09-.08.18-.13.27l4.58,1.64.74,8.17c.02.18.08.36.19.5l3.02,4.05c.19.26.49.4.8.4.21,0,.42-.06.6-.2.44-.33.53-.95.2-1.4l-2.84-3.81-.77-8.53c-.04-.39-.29-.72-.66-.85l-5.01-1.78c.66-1.65,1.07-3.42,1.17-5.27h4.07Z"/>
  <path d="M45.6,26.91c-3.02-5.71-7.99-10.35-13.6-10.35s-10.58,4.64-13.6,10.35c3.54,3.25,8.33,5.25,13.6,5.25s10.05-1.99,13.6-5.25Z"/>
</svg>