<?xml version="1.0" encoding="UTF-8"?>
<svg id="Glyph" xmlns="http://www.w3.org/2000/svg" viewBox="0 0 64 64">
  <path d="M21.745,8.674c.4-.4.4-1.049,0-1.449l-2.424-2.424c-.4-.4-1.049-.4-1.449,0l-8.451,8.451c-.4.4-.4,1.049,0,1.449l2.424,2.424c.4.4,1.049.4,1.449,0l4.192-4.192,4.259-4.259Z"/>
  <path d="M47.054,9.536h-18.572c-.665,0-1.302.264-1.773.734l-2.962,2.962-1.867-1.866-5.933,5.933,1.867,1.867h0l-3.025,3.025c-.47.47-.734,1.108-.734,1.773v31.768c0,2.306,1.887,4.193,4.193,4.193h32.864c2.306,0,4.193-1.887,4.193-4.193V17.786c0-4.537-3.712-8.25-8.25-8.25ZM29.713,15.607c.338-.33.791-.514,1.263-.514h15.853c1.19,0,2.164.974,2.164,2.164v3.086c0,1.19-.974,2.164-2.164,2.164h-22.615c-.574,0-.857-.697-.447-1.098l5.946-5.802ZM35.21,54.473c-3.355,0-6.421-1.24-8.782-3.276l2.372-2.372-.15,2.435c-.04.55.38,1.03.93,1.06.02,0,.04.01.07.01.52,0,.96-.41.99-.94l.22-3.44.63-.84c.98.89,2.28,1.44,3.72,1.44,1.43,0,2.74-.55,3.72-1.44l.63.84.22,3.44c.03.53.47.94.99.94.03,0,.05-.01.07-.01.55-.03.97-.51.93-1.06l-.23-3.73c-.01-.19-.08-.38-.2-.53l-1.16-1.56c.29-.59.47-1.23.54-1.91l2.31.27.72,1.5c.17.36.53.57.9.57.15,0,.3-.03.43-.1.5-.24.71-.84.48-1.33l-.96-2c-.15-.31-.44-.52-.79-.56l-3.26-.39c-.1-.46-.25-.91-.43-1.36l3.01-.85c.34-.1.61-.38.7-.73l.86-3.52c.13-.53-.2-1.07-.74-1.21-.048-.011-.093,0-.14-.005l1.593-1.593c2.036,2.361,3.277,5.426,3.277,8.78,0,7.428-6.043,13.471-13.47,13.471ZM35.21,27.532c3.354,0,6.418,1.24,8.778,3.276l-6.105,6.105s-.002-.002-.003-.003l-7.9,7.9s.001.003.002.005l-4.968,4.968c-2.037-2.361-3.278-5.426-3.278-8.781,0-7.427,6.044-13.47,13.474-13.47ZM42.635,34.989l-.615,2.521-2.668.762,3.283-3.283Z"/>
  <path d="M25.33,45.77c.14.07.29.1.44.1.37,0,.73-.21.9-.57l.72-1.5.87-.1,7.77-7.77c-.27-.06-.54-.1-.82-.1-1.55,0-2.94,1.06-3.94,2.5l-2.87-.82-.72-2.95c-.13-.54-.68-.87-1.21-.74-.54.14-.87.68-.74,1.21l.86,3.52c.09.35.36.63.7.73l3,.85c-.18.45-.32.9-.42,1.36l-3.26.39c-.35.04-.64.25-.79.56l-.96,2c-.23.49-.02,1.09.47,1.33Z"/>
  <path d="M32.62,33.64l.01.01c-.25.33-.44.71-.54,1.12.94-.59,2-.94,3.12-.94.84,0,1.63.2,2.38.54h.01l.39-.4c-.07-.11-.14-.22-.22-.32q.01,0,.02-.01l1.16-1.39c.24-.28.3-.68.16-1.03l-.72-1.69c-.21-.51-.8-.75-1.31-.54-.5.22-.74.81-.53,1.31l.48,1.14-.87,1.05c-.3-.1-.62-.15-.95-.15s-.65.05-.95.15l-.87-1.05.48-1.14c.21-.5-.03-1.09-.54-1.31-.5-.21-1.09.03-1.3.54l-.72,1.69c-.14.35-.08.74.15,1.03l1.16,1.39Z"/>
</svg>