<?xml version="1.0" encoding="UTF-8"?>
<svg id="Glyph" xmlns="http://www.w3.org/2000/svg" viewBox="0 0 64 64">
  <path d="M42.24,49.25c.4-.05.8-.09,1.2-.13,1.1-.11,2.23-.23,3.42-.4.35-.87.55-1.82.55-2.82,0-4-3.13-7.26-7.08-7.48,1.69,1.8,2.73,4.21,2.73,6.86,0,1.41-.29,2.75-.82,3.97Z"/>
  <path d="M35.35,48.19c1.31.43,2.54.93,3.7,1.51.26-.05.51-.1.77-.13.79-1.25,1.24-2.72,1.24-4.29,0-2.96-1.6-5.54-3.98-6.94.39,1.07.61,2.21.61,3.41,0,2.45-.88,4.69-2.34,6.44Z"/>
  <path d="M24.94,46.13c-1.7,0-3.3-.42-4.7-1.17.19.43.42.85.69,1.24h.53c4.36,0,8.29.46,11.76,1.36,1.52-1.47,2.47-3.53,2.47-5.81,0-1.32-.33-2.57-.89-3.67-.94,4.59-5,8.05-9.86,8.05Z"/>
  <path d="M24.938,44.133c4.451,0,8.059-3.608,8.059-8.059,0-.586-.066-1.156-.185-1.707-1.766,2.905-4.952,4.856-8.593,4.856-2.895,0-5.501-1.237-7.338-3.201,0,.018-.003.035-.003.052,0,4.451,3.608,8.059,8.059,8.059Z"/>
  <path d="M24.219,37.223c4.451,0,8.059-3.608,8.059-8.059,0-.42-.042-.83-.104-1.233-2.012,2.091-4.831,3.4-7.955,3.4s-5.943-1.309-7.955-3.399c-.062.403-.104.813-.104,1.233,0,4.451,3.608,8.059,8.059,8.059Z"/>
  <path d="M58.298,47.128c-6.433,3.494-11.847,3.637-16.457,4.171,3.002,2.015,5.333,4.612,6.941,7.767l.462.908h9.03c.953,0,1.726-.773,1.726-1.726v-10.12c0-.872-.935-1.417-1.702-1Z"/>
  <path d="M5.562,49.994c-.915.203-1.562,1.011-1.562,1.948v6.243c0,.988.801,1.788,1.788,1.788h41.212c-8.244-16.185-34.719-11.472-41.438-9.98Z"/>
  <path d="M16.922,8.865c.295,0,.574-.06.835-.157,1.51,1.339,1.95,3.025,2.066,3.664-2.775,1.546-4.654,4.506-4.654,7.908,0,4.998,4.052,9.051,9.051,9.051s9.051-4.052,9.051-9.051c0-3.431-1.91-6.416-4.724-7.95.128-.661.584-2.309,2.059-3.621.261.096.539.156.833.156,1.336,0,2.42-1.083,2.42-2.42s-1.083-2.42-2.42-2.42-2.42,1.083-2.42,2.42c0,.301.062.587.163.853-1.603,1.467-2.259,3.236-2.515,4.275-.779-.219-1.598-.344-2.448-.344-.876,0-1.72.131-2.52.363-.253-1.037-.908-2.819-2.52-4.294.101-.266.162-.551.162-.853,0-1.336-1.083-2.42-2.42-2.42s-2.42,1.083-2.42,2.42,1.083,2.42,2.42,2.42ZM26.283,17.673c0-.553.448-1,1-1s1,.447,1,1v1.474c0,.553-.448,1-1,1s-1-.447-1-1v-1.474ZM22.156,17.673v1.474c0,.553-.448,1-1,1s-1-.447-1-1v-1.474c0-.553.448-1,1-1s1,.447,1,1Z"/>
</svg>