<?xml version="1.0" encoding="UTF-8"?>
<svg id="Glyph" xmlns="http://www.w3.org/2000/svg" viewBox="0 0 64 64">
  <path d="M44.98,46.85l-3.22-1.79-1.06-5.42c-.07-.33-.29-.61-.61-.74l-3.58-1.46c.02.16.03.33.03.5v.49h-4.9l-2.12,2.12h7.02v-.94l2.3.94,1.05,5.35c.06.28.24.53.49.68l3.63,2.02c.15.08.32.12.49.12.35,0,.69-.18.87-.51.27-.48.1-1.09-.39-1.36Z"/>
  <path d="M31.822,49.725h.355c1.947,0,3.578-1.284,4.14-3.045h-8.634c.562,1.761,2.192,3.045,4.14,3.045Z"/>
  <path d="M35.84,35.58h3.75l4,4.6c.2.23.48.34.76.34.23,0,.46-.08.65-.24.42-.37.46-1,.1-1.41l-4.29-4.95c-.19-.22-.47-.34-.76-.34h-3.56l-2.85,2.85h2.62c-.11-.3-.25-.59-.42-.85Z"/>
  <path d="M29.49,24.52v-.01l-5.39-4.75.83-3.68c.12-.54-.22-1.07-.76-1.2-.53-.12-1.07.22-1.19.76l-.97,4.26c-.08.36.05.73.32.97l6.13,5.39h.01c-.18.53-.28,1.1-.28,1.71,0,.04.01.08.01.13-1.21-.3-2.7-.54-4.24-.71-1.53-.17-3.11-.27-4.49-.27-4.63,0-6.16,1.09-6.16,2.42,0,1.34,1.53,2.43,6.16,2.43,2.23,0,4.98-.25,7.23-.67l7.27-7.26c-.57-.43-1.24-.68-1.97-.68-.96,0-1.84.44-2.51,1.16Z"/>
  <path d="M41.02,15.64c-.12-.54-.66-.88-1.19-.76-.54.13-.88.66-.76,1.2l.52,2.33,1.68-1.68-.25-1.09Z"/>
  <path d="M44.53,27.12c-.52,0-1.07.01-1.63.05l-4.35,4.34c1.97.29,4.15.46,5.98.46,4.63,0,6.16-1.09,6.16-2.43,0-1.33-1.53-2.42-6.16-2.42Z"/>
  <polygon points="27.46 42.55 27.46 42.62 27.46 44.68 36.54 44.68 36.54 42.55 27.53 42.55 27.46 42.55"/>
  <path d="M32,4c-15.464,0-28,12.536-28,28s12.536,28,28,28,28-12.536,28-28S47.464,4,32,4ZM8.675,32c0-12.882,10.443-23.325,23.325-23.325,5.634,0,10.801,1.998,14.833,5.323L14.001,46.836c-3.327-4.032-5.326-9.201-5.326-14.836ZM32,55.325c-5.615,0-10.765-1.985-14.79-5.29L50.033,17.206c3.306,4.026,5.292,9.177,5.292,14.794,0,12.882-10.443,23.325-23.325,23.325Z"/>
  <path d="M33,16.378v-4.378c0-.553-.448-1-1-1s-1,.447-1,1v4.378c-1.481.435-2.569,1.788-2.569,3.41,0,1.971,1.598,3.569,3.569,3.569s3.569-1.598,3.569-3.569c0-1.622-1.088-2.975-2.569-3.41Z"/>
</svg>