<?xml version="1.0" encoding="UTF-8"?>
<svg id="Glyph" xmlns="http://www.w3.org/2000/svg" viewBox="0 0 64 64">
  <g>
    <path d="M55.31,8.69c-7.4-7.41-20.96-5.87-30.27,3.44-7.88,7.88-10.17,18.79-6.21,26.45l-3.1,3.09c-.43.43-.43,1.12,0,1.54l5.06,5.06c.43.43,1.11.43,1.54,0l3.09-3.1c2.47,1.28,5.27,1.9,8.21,1.9,1.85,0,3.74-.25,5.63-.74-.16-.67-.06-1.38.28-1.99l3.12-5.6-2.79-2.79,3.78-3.78,1.71,1.71.43-.77c.19-.35.45-.64.75-.88l-1.47-1.48,3.83-3.83,3.69,3.69c-.2.34-.4.67-.62,1h3.22c.64,0,1.24.21,1.74.58,4.49-8.3,4.13-17.76-1.62-23.5ZM55.06,17.93l-.97.97-3.79-3.79,2.31-2.3c1.24,1.47,2.06,3.21,2.45,5.12ZM45.94,8.91c.02,0,.05,0,.07.01l-.01.01c1.94.39,3.7,1.21,5.19,2.46l-2.3,2.31-3.83-3.83.94-.94c-.02-.01-.04-.01-.06-.02ZM43.65,11.28l3.83,3.83-3.79,3.78-3.82-3.83,3.78-3.78ZM29.42,25.51l3.79-3.79,3.83,3.83-3.79,3.79-3.83-3.83ZM31.83,30.75l-3.78,3.78-3.83-3.82,3.79-3.79,3.82,3.83ZM34.62,20.31l3.83-3.83,3.83,3.83-3.83,3.82-3.83-3.82ZM41.11,8.74l1.12,1.13-3.78,3.78-3.2-3.2c1.94-.89,3.92-1.48,5.86-1.71ZM33.39,11.41l3.65,3.65-3.83,3.83-4.2-4.2c1.38-1.3,2.85-2.39,4.38-3.28ZM27.61,16.12l4.19,4.19-3.79,3.79-3.57-3.57c.84-1.53,1.9-3.01,3.17-4.41ZM23.48,22.4l3.11,3.11-3.78,3.78-.9-.9c.16-1.97.69-4,1.57-5.99ZM24.6,37.99c-1.26-1.49-2.08-3.27-2.47-5.2l-.01.01c0-.02-.01-.05-.01-.07.01.02.01.04.02.06l.68-.67,3.83,3.83-2.04,2.04ZM31.13,41.86c-1.91-.41-3.66-1.22-5.13-2.45l2.05-2.05,3.79,3.79-.71.71ZM33.26,39.74l-3.79-3.79,3.78-3.78,3.79,3.78-3.78,3.79ZM41.59,40.51c-1.98.88-4.01,1.41-5.97,1.59l-.95-.95,3.78-3.78,3.14,3.14ZM38.45,34.54l-3.79-3.79,3.79-3.79,3.79,3.79-3.79,3.79ZM43.65,29.34l-3.78-3.79,3.82-3.83,3.79,3.79-3.83,3.83ZM45.11,20.31l3.78-3.79,3.79,3.79-3.78,3.78-3.79-3.78ZM53.55,28.75l-3.24-3.24,3.78-3.78,1.17,1.16c-.23,1.94-.81,3.92-1.71,5.86Z"/>
    <path d="M4.534,54.954c-.295.295-.295.773,0,1.069l3.443,3.443c.295.295.773.295,1.069,0l10.055-10.055-4.511-4.512-10.055,10.055Z"/>
  </g>
  <path d="M12.317,4.634l-4.896,8.79c-.213.382.063.852.5.852h3.655s-1.825,6.659-1.825,6.659c-.116.425.402.733.719.427l9.971-9.59c.267-.257.085-.707-.285-.707h-4.521s3.775-6.283,3.775-6.283c.206-.344-.041-.781-.442-.781h-5.573c-.448,0-.86.242-1.078.634Z"/>
  <path d="M47.538,34.086l-6.254,11.23c-.287.515.085,1.148.675,1.148h4.476s-2.216,8.085-2.216,8.085c-.164.6.567,1.035,1.015.603l11.902-11.447c.474-.456.151-1.258-.507-1.258h-5.117s4.466-7.435,4.466-7.435c.37-.617-.074-1.402-.793-1.402h-6.839c-.336,0-.645.182-.808.475Z"/>
</svg>