<?xml version="1.0" encoding="UTF-8"?>
<svg id="Glyph" xmlns="http://www.w3.org/2000/svg" viewBox="0 0 64 64">
  <path d="M51,31.46h-20.75c3.51,2.59,6.02,6.45,6.83,10.91,0-5.21,4.24-9.45,9.46-9.45h4.46v-1.46Z"/>
  <path d="M51,53.29v-1.46h-4.46c-4.44,0-8.17-3.07-9.19-7.2.01.3.02.6.02.9,0,2.78-.66,5.42-1.83,7.76h15.46Z"/>
  <path d="M51.39,24.76h-28.81c-1.14,0-2.07.93-2.07,2.07v.56c0,.24.04.48.12.69,2.16.08,4.22.57,6.1,1.38h24.66c1.14,0,2.07-.93,2.07-2.07v-.56c0-1.14-.93-2.07-2.07-2.07Z"/>
  <path d="M51.39,55.29h-17.01c-1.25,1.85-2.84,3.45-4.69,4.7h21.7c1.14,0,2.07-.93,2.07-2.07v-.56c0-1.14-.93-2.07-2.07-2.07Z"/>
  <path d="M40.22,8.5h-2.38c-.56,0-1-.45-1-1,0-.56.44-1,1-1h2.38v-.8c0-.93-.75-1.68-1.67-1.68h-3.13c-.92,0-1.67.75-1.67,1.68v5.27h6.47v-2.47Z"/>
  <path d="M46.538,49.832h4.458v-14.915h-4.458c-4.119,0-7.458,3.339-7.458,7.458h0c0,4.119,3.339,7.458,7.458,7.458Z"/>
  <path d="M46.345,6.578c.042,0,.085-.003.129-.008l12.227-1.574c.548-.071.935-.572.864-1.12-.07-.547-.558-.925-1.12-.864l-12.227,1.574c-.548.071-.935.572-.864,1.12.065.504.495.872.991.872Z"/>
  <path d="M58.7,9.586l-12.227-1.574c-.562-.06-1.049.317-1.12.864-.07.548.316,1.049.864,1.12l12.227,1.574c.044.005.087.008.129.008.496,0,.926-.368.991-.872.07-.548-.316-1.049-.864-1.12Z"/>
  <path d="M19.9,40.35c-1.54,0-2.94,1.06-3.94,2.5l-2.87-.82-.72-2.95c-.13-.54-.68-.87-1.21-.74-.54.14-.87.68-.74,1.21l.86,3.52c.09.35.36.63.7.73l3.01.85c-.19.45-.33.91-.43,1.36l-3.26.39c-.35.04-.64.25-.79.56l-.96,2c-.23.49-.02,1.09.47,1.33.14.07.29.1.44.1.37,0,.73-.21.9-.57l.72-1.5.89-.1,7.76-7.76c-.27-.07-.55-.11-.83-.11Z"/>
  <path d="M17.31,38.16h.02c-.25.33-.44.71-.55,1.13.94-.6,2-.94,3.12-.94.84,0,1.65.19,2.39.54l.4-.4c-.07-.12-.14-.23-.22-.33h.01l1.16-1.39c.24-.28.3-.68.16-1.03l-.72-1.69c-.21-.51-.8-.75-1.31-.54-.5.22-.74.81-.53,1.31l.48,1.14-.87,1.05.01.01c-.31-.09-.63-.15-.96-.15s-.65.06-.95.15v-.01l-.87-1.05.48-1.14c.21-.5-.03-1.09-.54-1.31-.5-.21-1.09.03-1.3.54l-.72,1.69c-.14.35-.08.74.15,1.03l1.16,1.39Z"/>
  <path d="M35.372,45.525c0-8.53-6.939-15.47-15.47-15.47s-15.474,6.939-15.474,15.47,6.941,15.471,15.474,15.471,15.47-6.94,15.47-15.471ZM6.428,45.525c0-7.427,6.044-13.47,13.474-13.47,3.354,0,6.418,1.24,8.778,3.276l-12.575,12.575-1.435,1.434s0,0,0,.001l-4.965,4.965c-2.037-2.361-3.278-5.426-3.278-8.781ZM27.324,39.516l-.614,2.514-2.661.76,3.274-3.274ZM19.902,58.996c-3.355,0-6.421-1.24-8.782-3.276l2.37-2.37-.15,2.43c-.04.55.38,1.03.93,1.06.02,0,.04.01.07.01.52,0,.96-.41.99-.94l.22-3.44.63-.84c.98.9,2.29,1.45,3.72,1.45s2.74-.55,3.72-1.45l.63.84.22,3.44c.03.53.47.94.99.94.03,0,.05-.01.07-.01.55-.03.97-.51.93-1.06l-.23-3.73c-.01-.19-.08-.38-.2-.53l-1.16-1.56c.29-.58.47-1.23.54-1.91l2.31.27.72,1.5c.17.36.53.57.9.57.15,0,.3-.03.43-.1.5-.24.71-.84.48-1.33l-.96-2c-.15-.31-.44-.52-.79-.56l-3.26-.39c-.1-.45-.24-.91-.43-1.36l3.01-.85c.34-.1.61-.38.7-.73l.86-3.52c.13-.53-.2-1.07-.74-1.21-.046-.011-.09,0-.135-.005l1.59-1.59c2.036,2.361,3.277,5.426,3.277,8.78,0,7.428-6.043,13.471-13.47,13.471Z"/>
  <path d="M43.205,13.671c.303,0,.602.016.899.042v-.668c0-1.144-.928-2.072-2.072-2.072h-10.094c-1.144,0-2.072.928-2.072,2.072v.668c.296-.026.596-.042.899-.042h12.44Z"/>
  <path d="M43.205,15.671h-12.44c-4.066,0-7.4,3.116-7.755,7.09h27.951c-.355-3.974-3.689-7.09-7.755-7.09Z"/>
</svg>