<?xml version="1.0" encoding="UTF-8"?><svg id="Filled_Line" xmlns="http://www.w3.org/2000/svg" viewBox="0 0 64 64"><defs><style>.cls-1{fill:#894c3d;}.cls-1,.cls-2,.cls-3,.cls-4,.cls-5,.cls-6{stroke-width:0px;}.cls-2{fill:#702e24;}.cls-3{fill:#1a2c3d;}.cls-4{fill:#e26677;}.cls-5{fill:#a26a55;}.cls-6{fill:#edae65;}</style></defs><rect class="cls-6" x="4" y="4" width="56" height="6" rx="1" ry="1"/><rect class="cls-6" x="4" y="54" width="56" height="6" rx="1" ry="1"/><polygon class="cls-5" points="54.75 16 9.25 16 6 10 58 10 54.75 16"/><rect class="cls-1" x="9" y="16" width="46" height="38"/><path class="cls-2" d="m21,24h22c2.21,0,4,1.79,4,4v26h-30v-26c0-2.21,1.79-4,4-4Z"/><path class="cls-4" d="m35.42,53.45c-3.28,1.15-7.36.5-9.66-2.11-1.24-1.4-1.89-2.83-1.37-6.2,1.02-6.6-.52-7.62-.52-7.62,0,0,2.91.75,4.54,4.98,0,0,.39-2.1.33-4.76s1.33-6.95,4.12-8.2c0,0-1.02,4.79.63,6.3,2.4,2.19,3.11,4.55,2.92,6.45,0,0,1.75-1.79,1.8-4.17,0,0,5.81,12.3-2.79,15.32Z"/><path class="cls-6" d="m33.97,52.06c-1.89.66-4.23.29-5.55-1.21-.71-.81-1.09-1.63-.79-3.57.58-3.79-.3-4.38-.3-4.38,0,0,1.67.43,2.61,2.86,0,0,.23-1.21.19-2.74s.77-3.99,2.37-4.71c0,0-.59,2.75.36,3.62,1.38,1.26,1.79,2.61,1.68,3.71,0,0,1.01-1.03,1.04-2.4,0,0,3.34,7.07-1.6,8.81Z"/><path class="cls-3" d="m59,11c1.1,0,2-.9,2-2v-4c0-1.1-.9-2-2-2H5c-1.1,0-2,.9-2,2v4c0,1.1.9,2,2,2h.4l2.63,4.85c0,.05-.03.1-.03.15v37h-3c-1.1,0-2,.9-2,2v4c0,1.1.9,2,2,2h54c1.1,0,2-.9,2-2v-4c0-1.1-.9-2-2-2h-3V16c0-.05-.02-.1-.03-.15l2.63-4.85h.4ZM5,5h54v4s-54,0-54,0v-4Zm54,54H5v-4h54v4Zm-13-6h-7.72c.93-.76,1.65-1.7,2.13-2.85,2.12-5.08-1.16-12.14-1.3-12.44-.2-.42-.65-.65-1.11-.55-.45.1-.78.49-.79.96,0,.41-.08.8-.19,1.16-.43-1.27-1.28-2.72-2.86-4.17-.84-.77-.69-3.65-.33-5.35.08-.37-.06-.75-.35-.99s-.69-.29-1.04-.13c-3.33,1.49-4.78,6.33-4.71,9.13.01.51,0,1,0,1.46-1.67-2.15-3.5-2.65-3.61-2.67-.48-.12-.96.12-1.16.56-.18.41-.07.89.27,1.17.1.13.98,1.48.17,6.7-.57,3.68.2,5.41,1.61,7.01.32.37.69.69,1.08,1h-8.09v-25c0-1.65,1.35-3,3-3h22c1.65,0,3,1.35,3,3v25Zm-20.32-13.1c.62.66,1.28,1.61,1.8,2.96.16.42.59.67,1.02.64.45-.04.81-.37.89-.81.02-.09.41-2.23.35-4.97-.04-1.65.58-4.13,1.81-5.79-.07,1.64.12,3.61,1.27,4.65,1.86,1.71,2.79,3.7,2.6,5.62-.04.42.19.83.57,1,.38.18.84.1,1.14-.21.05-.05.65-.68,1.2-1.69.69,2.29,1.3,5.56.25,8.07-.63,1.5-1.77,2.52-3.48,3.13-3.13,1.1-6.66.35-8.58-1.83-.95-1.07-1.63-2.15-1.13-5.39.37-2.39.41-4.13.3-5.39Zm22.32,13.1v-25c0-2.76-2.24-5-5-5h-22c-2.76,0-5,2.24-5,5v25h-6V17h44v36h-6Zm6.15-38H9.85l-2.17-4h48.64l-2.17,4Z"/></svg>