<?xml version="1.0" encoding="UTF-8"?><svg id="Filled_Line" xmlns="http://www.w3.org/2000/svg" viewBox="0 0 64 64"><defs><style>.cls-1{fill:#50823f;}.cls-1,.cls-2,.cls-3,.cls-4,.cls-5,.cls-6{stroke-width:0px;}.cls-2{fill:#894c3d;}.cls-3{fill:#85b9db;}.cls-4{fill:#1a2c3d;}.cls-5{fill:#d3dce5;}.cls-6{fill:#a26a55;}</style></defs><rect class="cls-2" x="10" y="56" width="44" height="4" rx="1" ry="1"/><circle class="cls-3" cx="32" cy="28" r="24"/><polyline class="cls-6" points="33.87 42.64 33.87 32.72 33.87 29.5 30.13 29.5 30.13 32.72 30.13 42.18"/><path class="cls-5" d="m53.57,38.52c-3.69,7.56-11.26,12.95-20.26,13.44-8.19.45-15.65-3.26-20.31-9.3,0,0,6-4.66,16-1.66s16.15-3.95,24.57-2.48Z"/><polygon class="cls-6" points="51 56 13 56 16.17 46 47.83 46 51 56"/><path class="cls-1" d="m41.37,33.94c-1.23.23-3.95.56-6.81-.92-.23-.12-.45-.23-.65-.36l-1.32,2.08c-.29.45-.9.45-1.19,0l-1.32-2.08c-.2.13-.42.24-.65.36-2.86,1.48-5.59,1.16-6.81.92,1.62-1.24,3.9-3.31,5.96-6.47,1.83-2.8,2.84-5.47,3.41-7.39.57,1.92,1.58,4.59,3.41,7.39,2.06,3.16,4.35,5.23,5.96,6.47Z"/><path class="cls-1" d="m41.37,27.84c-1.23.23-3.95.56-6.81-.92-.23-.12-.45-.23-.65-.36l-1.32,2.08c-.29.45-.9.45-1.19,0l-1.32-2.08c-.2.13-.42.24-.65.36-2.86,1.48-5.59,1.16-6.81.92,1.62-1.24,3.9-3.31,5.96-6.47,1.83-2.8,2.84-5.47,3.41-7.39.57,1.92,1.58,4.59,3.41,7.39,2.06,3.16,4.35,5.23,5.96,6.47Z"/><path class="cls-1" d="m39.93,21.09c-1.37-.99-3.3-2.65-5.05-5.17-1.55-2.24-2.4-4.37-2.88-5.91-.48,1.54-1.34,3.68-2.88,5.91-1.75,2.53-3.68,4.18-5.05,5.17,1.04.19,3.34.44,5.77-.74.92-.45,1.63-.99,2.16-1.48.53.49,1.24,1.03,2.16,1.48,2.42,1.18,4.73.93,5.77.74Z"/><circle class="cls-5" cx="16" cy="26" r="2"/><circle class="cls-5" cx="23" cy="13" r="2"/><circle class="cls-5" cx="49" cy="26" r="2"/><circle class="cls-5" cx="44" cy="15" r="2"/><path class="cls-4" d="m53.85,54.32h-1.27l-2.75-8.68c5.1-4.72,8.02-11.36,8.02-18.32,0-13.79-11.21-25-25-25S7.85,13.53,7.85,27.32c0,6.97,2.92,13.6,8.02,18.32l-2.75,8.68h-1.27c-1.1,0-2,.9-2,2v2c0,1.1.9,2,2,2h42c1.1,0,2-.9,2-2v-2c0-1.1-.9-2-2-2ZM32.85,4.32c12.68,0,23,10.32,23,23,0,3.29-.71,6.5-2.03,9.44-3.71-.45-7.04.57-10.25,1.58-2.49.78-5.04,1.58-7.85,1.71v-6.48c2.57,1.08,5.02.98,6.69.67.39-.07.7-.37.79-.75s-.05-.78-.36-1.03c-1.58-1.21-2.99-2.62-4.25-4.2,1.5.2,2.83.07,3.84-.13.39-.08.69-.37.78-.75.09-.38-.05-.78-.37-1.02-1.79-1.36-3.37-3-4.75-4.84.31.03.62.04.92.04.74,0,1.41-.08,1.97-.18.39-.07.71-.37.8-.76.09-.39-.06-.8-.39-1.03-1.87-1.36-3.49-3.02-4.81-4.93-1.19-1.73-2.12-3.63-2.75-5.65-.13-.42-.52-.7-.95-.7s-.82.28-.95.7c-.63,2.02-1.56,3.92-2.75,5.65-1.32,1.91-2.94,3.57-4.81,4.93-.32.24-.48.64-.39,1.03.09.39.4.69.8.76.79.14,1.78.23,2.88.14-1.38,1.84-2.96,3.47-4.75,4.84-.31.24-.46.64-.37,1.02.09.38.39.68.78.75,1,.2,2.34.33,3.84.13-1.26,1.57-2.67,2.98-4.25,4.2-.31.24-.45.64-.36,1.03s.4.68.79.75c1.66.31,4.11.41,6.69-.67v5.75c-8.22-2.41-13.82.09-15.88,1.3-2.74-3.85-4.25-8.49-4.25-13.31,0-12.68,10.32-23,23-23Zm2.6,14.45c-.69-.34-1.34-.78-1.92-1.32-.38-.35-.97-.35-1.35,0-.58.54-1.23.98-1.92,1.32-.92.45-1.84.67-2.69.76,1.2-1.11,2.28-2.36,3.22-3.72.8-1.16,1.49-2.38,2.06-3.66.57,1.28,1.26,2.51,2.06,3.66.94,1.36,2.02,2.61,3.22,3.72-.84-.08-1.76-.31-2.68-.76Zm-4.9,2.04c.19-.08.38-.15.58-.25.61-.3,1.18-.65,1.73-1.07.54.42,1.12.78,1.73,1.07.19.09.38.16.57.23.09.15.18.3.28.44,1.24,1.9,2.68,3.62,4.3,5.11-.98-.04-2.08-.23-3.21-.71-.22-.09-.43-.19-.63-.29l-.1-.05c-.16-.08-.32-.17-.47-.26-.22-.15-.5-.2-.76-.14-.26.06-.49.22-.63.44l-1.06,1.69-1.06-1.69c-.14-.23-.37-.39-.63-.44-.26-.06-.53,0-.76.14-.14.09-.3.17-.47.26l-.09.04c-.22.11-.43.21-.65.3-1.13.48-2.23.67-3.21.71,1.62-1.5,3.06-3.21,4.3-5.11.09-.14.18-.29.27-.43Zm-.29,6.56s0-.01,0-.02c.11-.05.22-.1.33-.15l.82,1.29c.31.51.85.81,1.44.81s1.12-.3,1.44-.8l.82-1.3c.11.05.22.1.33.15,1.23,1.89,2.67,3.59,4.28,5.1-1.18-.05-2.51-.31-3.85-1-.21-.11-.42-.22-.6-.33-.46-.28-1.11-.08-1.4.38l-1.03,1.62-1.08-1.7c-.3-.44-.89-.58-1.35-.3-.18.11-.39.22-.59.33-1.34.69-2.67.95-3.85,1,1.62-1.51,3.06-3.21,4.27-5.08Zm1.73,7.77c.26.16.56.25.87.25s.61-.09.87-.25v4.88c-.57-.04-1.15-.11-1.74-.22v-4.66Zm-16.64,7.07c1.92-1.08,6.89-3.14,14.22-.94,5.79,1.74,10.27.33,14.6-1.03,2.91-.91,5.68-1.78,8.68-1.59-1.19,2.09-2.71,4.01-4.53,5.66h-30.94c-.73-.66-1.41-1.36-2.04-2.1Zm2.41,4.1h30.2l2.53,8H15.22l2.53-8Zm-5.9,12v-2h42v2s-42,0-42,0Zm5-30c1.65,0,3-1.35,3-3s-1.35-3-3-3-3,1.35-3,3,1.35,3,3,3Zm0-4c.55,0,1,.45,1,1s-.45,1-1,1-1-.45-1-1,.45-1,1-1Zm7-9c1.65,0,3-1.35,3-3s-1.35-3-3-3-3,1.35-3,3,1.35,3,3,3Zm0-4c.55,0,1,.45,1,1s-.45,1-1,1-1-.45-1-1,.45-1,1-1Zm23,14c0,1.65,1.35,3,3,3s3-1.35,3-3-1.35-3-3-3-3,1.35-3,3Zm3-1c.55,0,1,.45,1,1s-.45,1-1,1-1-.45-1-1,.45-1,1-1Zm-5-7c1.65,0,3-1.35,3-3s-1.35-3-3-3-3,1.35-3,3,1.35,3,3,3Zm0-4c.55,0,1,.45,1,1s-.45,1-1,1-1-.45-1-1,.45-1,1-1Z"/></svg>