<?xml version="1.0" encoding="UTF-8"?><svg id="Filled_Line" xmlns="http://www.w3.org/2000/svg" viewBox="0 0 64 64"><defs><style>.cls-1{fill:#1a2c3d;}.cls-1,.cls-2,.cls-3{stroke-width:0px;}.cls-2{fill:#d86c66;}.cls-3{fill:#d3dce5;}</style></defs><path class="cls-2" d="m10,9h44c1.1,0,2,.9,2,2v6H8v-6c0-1.1.9-2,2-2Z"/><path class="cls-3" d="m8,17h48v38c0,1.1-.9,2-2,2H10c-1.1,0-2-.9-2-2V17h0Z"/><path class="cls-1" d="m54,8h-6.08c-.36-2.31-1.95-4-3.92-4s-3.56,1.69-3.92,4h-5.16c-.36-2.31-1.95-4-3.92-4s-3.56,1.69-3.92,4h-5.16c-.36-2.31-1.95-4-3.92-4s-3.56,1.69-3.92,4h-4.08c-1.65,0-3,1.35-3,3v44c0,1.65,1.35,3,3,3h44c1.65,0,3-1.35,3-3V11c0-1.65-1.35-3-3-3Zm-10-2c.85,0,1.59.85,1.87,2h-3.75c.28-1.15,1.02-2,1.87-2Zm-13,0c.85,0,1.59.85,1.87,2h-3.75c.28-1.15,1.02-2,1.87-2Zm-13,0c.85,0,1.59.85,1.87,2h-3.75c.28-1.15,1.02-2,1.87-2Zm-9,5c0-.55.45-1,1-1h4.08c.3,1.9,1.43,3.36,2.92,3.83v.17c0,.55.45,1,1,1s1-.45,1-1v-2c0-.55-.45-1-1-1-.42,0-.78.26-.93.63-.43-.35-.78-.93-.95-1.63h10.95c.3,1.9,1.43,3.36,2.92,3.83v.17c0,.55.45,1,1,1s1-.45,1-1v-2c0-.55-.45-1-1-1-.42,0-.78.26-.93.63-.43-.35-.78-.93-.95-1.63h10.95c.3,1.9,1.43,3.36,2.92,3.83v.17c0,.55.45,1,1,1s1-.45,1-1v-2c0-.55-.45-1-1-1-.42,0-.78.26-.93.63-.43-.35-.78-.93-.95-1.63h11.87c.55,0,1,.45,1,1v5H9v-5Zm46,44c0,.55-.45,1-1,1H10c-.55,0-1-.45-1-1V18h46v37Zm-26.81-16.95l-3.6,2.08-5.33-1.43c-.53-.14-1.08.17-1.22.71-.14.53.17,1.08.71,1.22l3.41.91-3.36,1.94c-.48.28-.64.89-.37,1.37.19.32.52.5.87.5.17,0,.34-.04.5-.13l3.36-1.94-.91,3.39c-.14.53.17,1.08.71,1.22.09.02.17.03.26.03.44,0,.85-.29.97-.74l1.43-5.34,3.59-2.07,1.82,1.05v4.15l-3.9,3.9c-.39.39-.39,1.02,0,1.41s1.02.39,1.41,0l2.49-2.49v3.88c0,.55.45,1,1,1s1-.45,1-1v-3.88l2.49,2.49c.2.2.45.29.71.29s.51-.1.71-.29c.39-.39.39-1.02,0-1.41l-3.9-3.9v-4.15l1.82-1.05,3.59,2.07,1.43,5.34c.12.45.52.74.97.74.09,0,.17-.01.26-.03.53-.14.85-.69.71-1.22l-.91-3.39,3.36,1.94c.16.09.33.13.5.13.35,0,.68-.18.87-.5.28-.48.11-1.09-.37-1.37l-3.36-1.94,3.41-.91c.53-.14.85-.69.71-1.22s-.69-.85-1.22-.71l-5.33,1.43-3.6-2.08v-2.09l3.6-2.08,5.33,1.43c.09.02.17.03.26.03.44,0,.85-.29.97-.74.14-.53-.17-1.08-.71-1.22l-3.41-.91,3.36-1.94c.48-.28.64-.89.37-1.37-.28-.48-.89-.64-1.37-.37l-3.36,1.94.91-3.39c.14-.53-.17-1.08-.71-1.22-.54-.15-1.08.17-1.22.71l-1.43,5.34-3.59,2.07-1.82-1.05v-4.15l3.9-3.9c.39-.39.39-1.02,0-1.41s-1.02-.39-1.41,0l-2.49,2.49v-3.88c0-.55-.45-1-1-1s-1,.45-1,1v3.88l-2.49-2.49c-.39-.39-1.02-.39-1.41,0s-.39,1.02,0,1.41l3.9,3.9v4.15l-1.82,1.05-3.59-2.07-1.43-5.34c-.14-.53-.69-.85-1.22-.71-.53.14-.85.69-.71,1.22l.91,3.39-3.36-1.94c-.48-.28-1.09-.11-1.37.37-.28.48-.11,1.09.37,1.37l3.36,1.94-3.41.91c-.53.14-.85.69-.71,1.22.12.45.52.74.97.74.09,0,.17-.01.26-.03l5.33-1.43,3.6,2.08v2.09Zm2-2.09l1.81-1.05,1.81,1.05v2.1l-1.81,1.05-1.81-1.05v-2.1Z"/></svg>