<?xml version="1.0" encoding="UTF-8"?><svg id="Filled_Line" xmlns="http://www.w3.org/2000/svg" viewBox="0 0 64 64"><defs><style>.cls-1{fill:#85b9db;}.cls-1,.cls-2,.cls-3,.cls-4,.cls-5,.cls-6,.cls-7{stroke-width:0px;}.cls-2{fill:#536882;}.cls-3{fill:#1a2c3d;}.cls-4{fill:#d3dce5;}.cls-5{fill:#d88852;}.cls-6{fill:#737f9b;}.cls-7{fill:#edae65;}</style></defs><polyline class="cls-4" points="14 15 10 15 10 10.62 14 10.62"/><polyline class="cls-4" points="50 15 54 15 54 10.62 50 10.62"/><rect class="cls-7" x="3" y="7" width="8" height="12" rx="2" ry="2"/><rect class="cls-7" x="53" y="7" width="8" height="12" rx="2" ry="2"/><path class="cls-7" d="m12,25h40c1.66,0,3,1.34,3,3v11H9v-11c0-1.66,1.34-3,3-3Z"/><circle class="cls-4" cx="48" cy="32" r="3"/><circle class="cls-4" cx="16" cy="32" r="3"/><path class="cls-7" d="m50,8v1H14v-1c0-2.21,1.79-4,4-4h28c2.21,0,4,1.79,4,4Z"/><rect class="cls-1" x="14" y="9" width="36" height="16"/><path class="cls-5" d="m25,23h14c1.1,0,2,.9,2,2v14h-18v-14c0-1.1.9-2,2-2Z"/><polygon class="cls-6" points="59 39 57.71 43 6.29 43 5 39 59 39"/><path class="cls-2" d="m7.32,52.78c.69-2.15.69-4.41,0-6.56l-1.03-3.22h51.42l-1.03,3.22c-.69,2.15-.69,4.41,0,6.56l2.32,7.22H5l2.32-7.22Z"/><path class="cls-4" d="m46.53,53.29c0-2.47-2-4.47-4.47-4.47-1.7,0-3.15.96-3.91,2.35-.76-1.39-2.22-2.35-3.91-2.35-1.41,0-2.65.66-3.46,1.68-.63-.35-1.35-.56-2.12-.56-1.1,0-2.1.41-2.88,1.08-.78-1.31-2.19-2.19-3.83-2.19-2.47,0-4.47,2-4.47,4.47-2.47,0-4.47,2-4.47,4.47v2.24h38v-2.24c0-2.47-2-4.47-4.47-4.47Z"/><path class="cls-3" d="m44,32c0,2.21,1.79,4,4,4s4-1.79,4-4-1.79-4-4-4-4,1.79-4,4Zm6,0c0,1.1-.9,2-2,2s-2-.9-2-2,.9-2,2-2,2,.9,2,2Zm-34-4c-2.21,0-4,1.79-4,4s1.79,4,4,4,4-1.79,4-4-1.79-4-4-4Zm0,6c-1.1,0-2-.9-2-2s.9-2,2-2,2,.9,2,2-.9,2-2,2ZM59,7h-4c-1.1,0-2,.9-2,2v.62h-2v-1.62c0-2.76-2.24-5-5-5h-28c-2.76,0-5,2.24-5,5v1.62h-2v-.62c0-1.1-.9-2-2-2h-4c-1.1,0-2,.9-2,2v8c0,1.1.9,2,2,2h4c1.1,0,2-.9,2-2v-1h2v8h-1c-2.21,0-4,1.79-4,4v10h-3c-.32,0-.62.15-.81.41-.19.26-.24.59-.14.89l2.32,7.22c.62,1.94.62,4,0,5.94l-2.32,7.22c-.1.3-.04.64.14.89.19.26.49.41.81.41h54c.32,0,.62-.15.81-.41.19-.26.24-.59.14-.89l-2.32-7.22c-.62-1.94-.62-4,0-5.94l2.32-7.22c.1-.3.04-.64-.14-.89-.19-.26-.49-.41-.81-.41h-3v-10c0-2.21-1.79-4-4-4h-1v-8h2v1c0,1.1.9,2,2,2h4c1.1,0,2-.9,2-2v-8c0-1.1-.9-2-2-2Zm-41-2h28c1.65,0,3,1.35,3,3H15c0-1.65,1.35-3,3-3Zm-13,12v-8h4v8s-4,0-4,0Zm6-3v-2.38h2v2.38h-2Zm-1,14c0-1.1.9-2,2-2h10v12h-12v-10Zm30,10h-16v-13c0-.55.45-1,1-1h14c.55,0,1,.45,1,1v13Zm-26,21v-1.24c0-1.91,1.56-3.47,3.47-3.47.55,0,1-.45,1-1,0-1.91,1.56-3.47,3.47-3.47,1.22,0,2.33.64,2.97,1.71.15.25.4.43.69.47.29.05.59-.03.81-.22.45-.38,1.2-.84,2.23-.84.56,0,1.11.15,1.65.44.42.23.95.13,1.26-.25.67-.83,1.65-1.31,2.69-1.31,1.26,0,2.42.7,3.03,1.83.35.64,1.41.64,1.76,0,.61-1.13,1.77-1.83,3.03-1.83,1.91,0,3.47,1.56,3.47,3.47,0,.55.45,1,1,1,1.91,0,3.47,1.56,3.47,3.47v1.24H14Zm43.63,0h-5.63v-1.24c0-2.7-1.97-4.95-4.55-5.39-.44-2.58-2.69-4.55-5.39-4.55-1.49,0-2.9.62-3.91,1.67-1.02-1.05-2.42-1.67-3.91-1.67-1.38,0-2.69.53-3.7,1.47-1.49-.57-3.16-.42-4.53.35-1.03-1.15-2.48-1.82-4.06-1.82-2.7,0-4.95,1.97-5.39,4.55-2.58.44-4.55,2.69-4.55,5.39v1.24h-5.63l1.9-5.92c.75-2.34.75-4.82,0-7.16l-.62-1.92h48.69l-.62,1.92c-.75,2.34-.75,4.82,0,7.16l1.9,5.92Zm-.64-17H7.01l-.64-2h51.26l-.64,2Zm-2.99-14v10h-12v-12h10c1.1,0,2,.9,2,2Zm-12.18-4c-.41-1.16-1.51-2-2.82-2h-14c-1.3,0-2.4.84-2.82,2h-7.18v-14h34v14h-7.18Zm9.18-10v-2.38h2v2.38h-2Zm8,3h-4v-8h4v8Zm-26,10v8c0,.55-.45,1-1,1s-1-.45-1-1v-8c0-.55.45-1,1-1s1,.45,1,1Zm4,0v8c0,.55-.45,1-1,1s-1-.45-1-1v-8c0-.55.45-1,1-1s1,.45,1,1Zm-8,0v8c0,.55-.45,1-1,1s-1-.45-1-1v-8c0-.55.45-1,1-1s1,.45,1,1Z"/></svg>