<?xml version="1.0" encoding="UTF-8"?><svg id="Filled_Line" xmlns="http://www.w3.org/2000/svg" viewBox="0 0 64 64"><defs><style>.cls-1{fill:#894c3d;}.cls-1,.cls-2,.cls-3,.cls-4,.cls-5{stroke-width:0px;}.cls-2{fill:#1a2c3d;}.cls-3{fill:#d3dce5;}.cls-4{fill:#a26a55;}.cls-5{fill:#edae65;}</style></defs><path class="cls-4" d="m58,45.82v9.18H10V12h28v17.24c0,5.39,4.37,9.76,9.76,9.76h3.43c3.77,0,6.82,3.05,6.82,6.82Z"/><path class="cls-5" d="m26,12v15c0,4.42-3.58,8-8,8s-8-3.58-8-8v-15"/><path class="cls-3" d="m43.96,9.64c-.28,2.27-2.16,4.11-4.44,4.34-.94.09-1.84-.07-2.62-.43-.57-.26-1.24-.26-1.81,0-.63.29-1.34.45-2.09.45s-1.47-.16-2.1-.46c-.56-.26-1.23-.26-1.79,0-.64.3-1.35.46-2.1.46s-1.47-.16-2.1-.46c-.56-.26-1.23-.26-1.79,0-.64.3-1.35.46-2.1.46s-1.47-.16-2.1-.46c-.56-.26-1.23-.26-1.79,0-.64.3-1.35.46-2.1.46s-1.46-.16-2.09-.45c-.57-.26-1.24-.27-1.81,0-.78.36-1.68.52-2.62.43-2.27-.23-4.16-2.07-4.44-4.34-.38-3.04,1.99-5.64,4.96-5.64.75,0,1.47.16,2.1.46.56.26,1.23.26,1.79,0,.64-.3,1.35-.46,2.1-.46s1.47.16,2.1.46c.56.26,1.23.26,1.79,0,.64-.3,1.35-.46,2.1-.46s1.47.16,2.1.46c.56.26,1.23.26,1.79,0,.64-.3,1.35-.46,2.1-.46s1.47.16,2.1.46c.56.26,1.23.26,1.79,0,.64-.3,1.35-.46,2.1-.46s1.47.16,2.1.46c.56.26,1.23.26,1.79,0,.64-.3,1.35-.46,2.1-.46,2.97,0,5.34,2.59,4.96,5.64Z"/><path class="cls-1" d="m58,55v5h-5.95l-1.39-1.23c-.38-.33-.95-.33-1.32,0l-1.39,1.23h-3.9l-1.39-1.23c-.38-.33-.95-.33-1.32,0l-1.39,1.23h-3.9l-1.39-1.23c-.38-.33-.95-.33-1.32,0l-1.39,1.23h-3.9l-1.39-1.23c-.38-.33-.95-.33-1.32,0l-1.39,1.23h-3.9l-1.39-1.23c-.38-.33-.95-.33-1.32,0l-1.39,1.23h-5.95v-5h48Z"/><path class="cls-5" d="m10,45h0c5.52,0,10,4.48,10,10h-10v-10h0Z"/><path class="cls-2" d="m51.18,38h-3.42c-3.11,0-5.83-1.63-7.39-4.07.37-.15.63-.5.63-.93,0-.55-.45-1-1-1h-.55c-.29-.87-.45-1.79-.45-2.76v-.24h1c.55,0,1-.45,1-1s-.45-1-1-1h-1v-3h1c.55,0,1-.45,1-1s-.45-1-1-1h-1v-3h1c.55,0,1-.45,1-1s-.45-1-1-1h-1v-2.01c.21,0,.42,0,.62-.02,2.75-.27,4.99-2.47,5.33-5.21.21-1.72-.32-3.44-1.46-4.73-1.14-1.29-2.78-2.03-4.5-2.03-.88,0-1.74.19-2.53.55-.29.14-.66.14-.95,0-1.58-.74-3.47-.73-5.05,0-.29.14-.66.14-.95,0-1.58-.74-3.47-.73-5.05,0-.29.14-.66.14-.95,0-1.58-.74-3.47-.73-5.05,0-.29.14-.66.14-.95,0-1.58-.74-3.47-.73-5.05,0-.29.14-.66.14-.95,0-.79-.37-1.64-.55-2.53-.55-1.72,0-3.36.74-4.5,2.03-1.14,1.29-1.67,3.01-1.46,4.73.34,2.74,2.58,4.94,5.33,5.21.21.02.42.02.62.02v45.01c0,.55.45,1,1,1h5.95c.24,0,.48-.09.66-.25l1.39-1.23,1.39,1.23c.18.16.42.25.66.25h3.9c.24,0,.48-.09.66-.25l1.39-1.23,1.39,1.23c.18.16.42.25.66.25h3.9c.24,0,.48-.09.66-.25l1.39-1.23,1.39,1.23c.18.16.42.25.66.25h3.9c.24,0,.48-.09.66-.25l1.39-1.23,1.39,1.23c.18.16.42.25.66.25h3.9c.24,0,.48-.09.66-.25l1.39-1.23,1.39,1.23c.18.16.42.25.66.25h5.95c.55,0,1-.45,1-1v-14.18c0-4.31-3.51-7.82-7.82-7.82ZM5.03,9.51c-.14-1.17.2-2.29.97-3.16,1.15-1.3,3.14-1.7,4.68-.98.83.38,1.81.38,2.63,0,1.05-.49,2.32-.49,3.37,0,.83.38,1.81.38,2.63,0,1.05-.49,2.32-.49,3.37,0,.83.38,1.81.38,2.63,0,1.05-.49,2.32-.49,3.37,0,.83.38,1.81.38,2.63,0,1.05-.49,2.32-.49,3.37,0,.83.38,1.81.38,2.63,0,1.54-.72,3.53-.32,4.68.99.77.87,1.11,1.99.97,3.16-.22,1.8-1.75,3.29-3.54,3.47-.73.07-1.46-.05-2.1-.34-.83-.38-1.82-.38-2.65,0-1.05.48-2.31.48-3.35,0-.41-.19-.86-.29-1.32-.29s-.9.1-1.32.29c-1.05.49-2.32.49-3.37,0-.83-.38-1.81-.38-2.63,0-1.05.49-2.32.49-3.37,0-.83-.38-1.81-.38-2.63,0-1.05.49-2.31.49-3.35,0-.83-.38-1.82-.38-2.65,0-.64.3-1.37.42-2.1.34-1.8-.18-3.32-1.67-3.54-3.47Zm5.97,5.13c.17-.06.35-.12.52-.2.3-.14.67-.14.98,0,1.58.73,3.46.72,5.03,0,.29-.14.66-.14.95,0,1.58.74,3.47.73,5.05,0,.29-.14.66-.14.95,0,.17.08.35.15.53.21v12.34c0,3.86-3.14,7-7,7s-7-3.14-7-7v-12.35Zm7,21.35c4.96,0,9-4.04,9-9v-12c.87,0,1.73-.18,2.53-.55.29-.14.66-.14.95,0,.79.37,1.64.55,2.53.55s1.72-.18,2.51-.55c.31-.14.67-.14.98,0,.17.08.34.14.52.2v2.35h-3c-.55,0-1,.45-1,1s.45,1,1,1h3v3h-3c-.55,0-1,.45-1,1s.45,1,1,1h3v3h-3c-.55,0-1,.45-1,1s.45,1,1,1h3v.24c0,.96.14,1.88.37,2.76h-3.37c-.55,0-1,.45-1,1s.45,1,1,1h4.12c1.76,3.55,5.41,6,9.64,6h3.42c3.21,0,5.82,2.61,5.82,5.82v8.18H20.95c-.48-5.27-4.68-9.47-9.95-9.95v-11.41c1.65,2.04,4.17,3.36,7,3.36Zm-7,10.06c4.17.46,7.48,3.78,7.94,7.94h-7.94v-7.94Zm46,12.94h-4.57l-1.1-.97c-.76-.67-1.89-.67-2.65,0l-1.1.98h-3.14l-1.1-.97c-.76-.67-1.89-.67-2.65,0l-1.1.98h-3.14l-1.1-.97c-.76-.67-1.89-.67-2.65,0l-1.1.98h-3.14l-1.1-.97c-.75-.67-1.89-.67-2.65,0l-1.1.98h-3.14l-1.1-.97c-.75-.67-1.89-.67-2.65,0l-1.1.98h-4.57v-3h46v3Z"/></svg>