<?xml version="1.0" encoding="UTF-8"?><svg id="Filled_Line" xmlns="http://www.w3.org/2000/svg" viewBox="0 0 64 64"><defs><style>.cls-1{fill:#536882;}.cls-1,.cls-2,.cls-3,.cls-4,.cls-5{stroke-width:0px;}.cls-2{fill:#1a2c3d;}.cls-3{fill:#d3dce5;}.cls-4{fill:#c3967b;}.cls-5{fill:#b8c3d5;}</style></defs><path class="cls-3" d="m7,59.5c-.04-2.77.28-6.71,2-11,.23-.58.58-1.3.92-1.97.72-1.41,1.08-2.97,1.08-4.56v-15.97c0-11.39,8.86-21.09,20.24-21.49,11.95-.42,21.76,9.13,21.76,20.99v16.47c0,1.58.36,3.15,1.08,4.56.34.67.69,1.39.92,1.97,1.72,4.29,2.04,8.23,2,11"/><path class="cls-5" d="m28,36.5l-2.57,8.43c-.33,1.08-1.53,1.08-1.86,0l-2.57-8.43h7Z"/><path class="cls-5" d="m36,36.5l2.57,8.43c.33,1.08,1.53,1.08,1.86,0l2.57-8.43h-7Z"/><path class="cls-4" d="m45.03,30.64v2.88c0,2.52-2.05,4.57-4.57,4.57h-2.96c-1.72,0-3.64-.95-4.7-2.35-.41-.54-1.19-.54-1.6,0-1.06,1.4-2.98,2.35-4.7,2.35h-2.96c-2.52,0-4.57-2.05-4.57-4.57v-2.88c0-2.05,1.68-3.72,3.72-3.72h18.61c2.05,0,3.72,1.68,3.72,3.72Z"/><path class="cls-1" d="m35.64,27.95l-1.36,2.36c-1.01,1.76-3.55,1.76-4.56,0l-1.36-2.36c-1.01-1.76.25-3.95,2.28-3.95h2.73c2.03,0,3.29,2.19,2.28,3.95Z"/><ellipse class="cls-1" cx="24" cy="18" rx="2.25" ry="3"/><ellipse class="cls-1" cx="40" cy="18" rx="2.25" ry="3"/><path class="cls-5" d="m18.98,59.5c2.04-4.97,7.1-8.5,13.02-8.5s10.98,3.53,13.03,8.5"/><path class="cls-2" d="m58,59.51c0,.55-.45.99-1,.99h-.01c-.55,0-.99-.46-.99-1.01.05-3.72-.59-7.29-1.93-10.61-.19-.48-.49-1.11-.88-1.89-.78-1.53-1.19-3.26-1.19-5.01v-16.47c0-5.48-2.17-10.59-6.11-14.39-3.94-3.8-9.14-5.79-14.62-5.6-10.63.38-19.27,9.57-19.27,20.49v15.97c0,1.75-.41,3.48-1.19,5.01-.39.78-.69,1.41-.88,1.89-1.33,3.33-1.98,6.9-1.93,10.61,0,.55-.43,1.01-.99,1.01h-.01c-.55,0-.99-.44-1-.99-.06-3.98.64-7.81,2.07-11.39.21-.53.53-1.22.96-2.05.64-1.25.97-2.67.97-4.1v-15.97C10,14.02,19.51,3.93,31.2,3.51c6.02-.21,11.74,1.97,16.07,6.16,4.33,4.18,6.72,9.81,6.72,15.83v16.47c0,1.43.34,2.85.97,4.1.42.83.74,1.52.96,2.05,1.43,3.57,2.13,7.4,2.07,11.39ZM24,22c-1.82,0-3.25-1.76-3.25-4s1.43-4,3.25-4,3.25,1.76,3.25,4-1.43,4-3.25,4Zm0-2c.59,0,1.25-.82,1.25-2s-.66-2-1.25-2-1.25.82-1.25,2,.66,2,1.25,2Zm16,2c-1.82,0-3.25-1.76-3.25-4s1.43-4,3.25-4,3.25,1.76,3.25,4-1.43,4-3.25,4Zm0-2c.59,0,1.25-.82,1.25-2s-.66-2-1.25-2-1.25.82-1.25,2,.66,2,1.25,2Zm-8,30c-6.2,0-11.67,3.58-13.94,9.12-.21.51.03,1.09.55,1.3.12.05.25.08.38.08.39,0,.77-.23.92-.62,1.96-4.79,6.71-7.88,12.09-7.88s10.13,3.09,12.11,7.88c.21.51.79.75,1.31.54.51-.21.75-.79.54-1.31-2.28-5.54-7.76-9.12-13.96-9.12Zm17.17-17.78c-.12.54-.66.88-1.19.76-.64-.14-1.29-.21-1.94-.24v.78c0,.47-.06.92-.17,1.35.74.26,1.46.56,2.13.94.48.27.65.88.38,1.36-.18.33-.52.51-.87.51-.17,0-.33-.04-.49-.13-.63-.36-1.3-.63-1.98-.86-.39.56-.9,1.05-1.48,1.43l-2.17,7.1c-.28.92-1.02,1.52-1.89,1.52s-1.6-.6-1.89-1.52l-1.96-6.43c-1.44-.42-2.79-1.31-3.66-2.45-.87,1.14-2.21,2.02-3.66,2.45l-1.95,6.43c-.28.92-1.02,1.52-1.89,1.52s-1.6-.6-1.89-1.52l-2.17-7.1c-.57-.38-1.08-.86-1.47-1.43-.69.23-1.35.51-1.98.86-.16.09-.32.13-.49.13-.35,0-.69-.18-.87-.51-.27-.48-.1-1.09.38-1.36.68-.38,1.4-.68,2.13-.94-.11-.43-.17-.89-.17-1.35v-.78c-.65.03-1.3.1-1.94.24-.54.12-1.07-.22-1.19-.76s.22-1.07.76-1.19c.78-.18,1.59-.25,2.38-.29v-.1c0-.75.19-1.46.52-2.11-.66-.18-1.34-.32-2.03-.38-.55-.05-.96-.53-.91-1.08.04-.55.52-.97,1.08-.91,1.03.09,2.05.29,3.03.61.08.03.16.06.24.09.82-.6,1.78-.94,2.79-.94h4.39c.08-.38.21-.75.41-1.1.66-1.14,1.83-1.82,3.15-1.82h2.73c1.31,0,2.49.68,3.15,1.82.2.35.34.72.41,1.1h4.39c1.02,0,1.98.34,2.8.94.08-.03.16-.06.24-.09.98-.32,2-.53,3.03-.61.56-.05,1.03.36,1.08.91.05.55-.36,1.03-.91,1.08-.69.06-1.36.2-2.03.38.33.65.52,1.37.52,2.11v.1c.8.03,1.6.11,2.38.29.54.12.88.66.76,1.19Zm-19.94-4.77l1.36,2.36c.29.51.82.82,1.41.82s1.12-.3,1.41-.82l1.36-2.36c.29-.51.29-1.12,0-1.63-.3-.51-.82-.82-1.41-.82h-2.73c-.59,0-1.12.31-1.41.82-.29.51-.29,1.12,0,1.63Zm-3.06,11.63h-2.62c-.24,0-.49-.02-.72-.05l1.68,5.52,1.66-5.47Zm10.48-2.1c.3.07.58.1.85.1h2.96c.62,0,1.22-.16,1.74-.46.22-.12.42-.27.6-.44-.18-.02-.35-.05-.53-.07-.55-.04-.96-.52-.92-1.07s.52-.96,1.07-.92c.51.04,1.01.11,1.51.2.06-.27.1-.54.1-.82v-.7c-.34.04-.67.1-1,.17-.07.02-.15.02-.22.02-.46,0-.87-.32-.97-.78-.12-.54.22-1.07.76-1.19.47-.11.96-.18,1.44-.24v-.15c0-.51-.15-.99-.41-1.42-.27.13-.54.26-.8.41-.16.09-.33.13-.5.13-.35,0-.68-.18-.87-.5-.26-.45-.12-1.01.3-1.31-.14-.02-.29-.04-.43-.04h-4.55c-.07.18-.15.36-.25.53l-1.36,2.36c-.66,1.14-1.83,1.82-3.15,1.82s-2.49-.68-3.15-1.82l-1.36-2.36c-.1-.17-.18-.35-.25-.53h-4.55c-.15,0-.29.02-.43.04.42.3.56.86.3,1.31-.19.32-.52.5-.87.5-.17,0-.34-.04-.5-.13-.26-.15-.53-.28-.8-.41-.26.43-.41.91-.41,1.42v.15c.48.05.97.13,1.44.24.54.12.88.66.76,1.19-.1.46-.52.78-.97.78-.07,0-.15,0-.22-.02-.33-.07-.67-.13-1-.17v.7c0,.28.03.56.1.82.5-.09,1-.17,1.51-.2.55-.04,1.03.37,1.07.92s-.37,1.03-.92,1.07c-.18.01-.35.05-.53.07.18.16.38.31.59.43.53.31,1.13.46,1.75.46h2.96c.27,0,.55-.03.83-.09,1.23-.24,2.39-.95,3.08-1.85.77-1.02,2.42-1.02,3.19,0,.68.9,1.85,1.61,3.05,1.84Zm4.54,2.05c-.24.03-.48.05-.72.05h-2.62l1.66,5.47,1.68-5.52Z"/></svg>