<?xml version="1.0" encoding="UTF-8"?><svg id="Filled_Line" xmlns="http://www.w3.org/2000/svg" viewBox="0 0 64 64"><defs><style>.cls-1{fill:#536882;}.cls-1,.cls-2,.cls-3,.cls-4{stroke-width:0px;}.cls-2{fill:#1a2c3d;}.cls-3{fill:#d3dce5;}.cls-4{fill:#edae65;}</style></defs><path class="cls-1" d="m7,59.5c-.04-2.77.28-6.71,2-11,.23-.58.58-1.3.92-1.97.72-1.41,1.08-2.97,1.08-4.56v-15.97c0-11.39,8.86-21.09,20.24-21.49,11.95-.42,21.76,9.13,21.76,20.99v16.47c0,1.58.36,3.15,1.08,4.56.34.67.69,1.39.92,1.97,1.72,4.29,2.04,8.23,2,11"/><path class="cls-3" d="m14.15,59.5c0-3.54.44-8.78,2.68-14.63,1.32-3.46,2.94-6.27,4.41-8.42-.88-.89-4.24-4.6-4.24-9.95,0-6.35,3.81-11.5,8.5-11.5,2.61,0,4.94,1.59,6.5,4.09,1.56-2.5,3.89-4.09,6.5-4.09,4.69,0,8.5,5.15,8.5,11.5,0,5.35-3.36,9.06-4.24,9.95,1.47,2.15,3.09,4.96,4.41,8.42,2.23,5.84,2.68,11.09,2.68,14.63"/><ellipse class="cls-1" cx="25" cy="25" rx="2.25" ry="3"/><ellipse class="cls-1" cx="39" cy="25" rx="2.25" ry="3"/><path class="cls-4" d="m35.13,32.64l-2.23,4.77c-.36.77-1.45.77-1.81,0l-2.23-4.77c-.31-.66.17-1.42.91-1.42h4.45c.73,0,1.22.76.91,1.42Z"/><path class="cls-2" d="m58,59.51c0,.55-.45.99-1,.99h-.02c-.55,0-.99-.46-.99-1.01.05-3.72-.59-7.29-1.93-10.61-.19-.48-.49-1.11-.88-1.89-.78-1.53-1.19-3.26-1.19-5.01v-16.47c0-5.48-2.17-10.59-6.11-14.39-3.94-3.8-9.11-5.77-14.62-5.6-10.63.38-19.27,9.57-19.27,20.49v15.97c0,1.75-.41,3.48-1.19,5.01-.39.78-.69,1.41-.88,1.89-1.33,3.32-1.98,6.89-1.93,10.61,0,.55-.43,1.01-.99,1.01-.55.01-1.01-.43-1.01-.99-.06-3.98.64-7.81,2.07-11.39.21-.53.53-1.22.96-2.05.64-1.25.97-2.67.97-4.1v-15.97C10,14.01,19.51,3.93,31.2,3.51c6.02-.22,11.74,1.97,16.08,6.16,4.33,4.18,6.72,9.81,6.72,15.83v16.47c0,1.43.34,2.85.97,4.1.42.83.74,1.52.96,2.05,1.43,3.57,2.13,7.41,2.07,11.39Zm-13.97-22.96c1.39-1.58,3.97-5.16,3.97-10.05,0-6.89-4.26-12.5-9.5-12.5-2.44,0-4.75,1.21-6.5,3.37-1.75-2.16-4.06-3.37-6.5-3.37-5.24,0-9.5,5.61-9.5,12.5,0,4.89,2.58,8.47,3.97,10.05-1.64,2.51-3.01,5.18-4.07,7.96-1.82,4.77-2.74,9.81-2.74,14.98,0,.55.45,1,1,1s1-.45,1-1c0-4.93.88-9.73,2.61-14.27,1.1-2.88,2.55-5.65,4.3-8.21.27-.4.22-.93-.12-1.27-.66-.66-3.95-4.21-3.95-9.24,0-5.79,3.36-10.5,7.5-10.5,2.16,0,4.22,1.32,5.65,3.62.37.59,1.33.59,1.7,0,1.44-2.3,3.5-3.62,5.65-3.62,4.14,0,7.5,4.71,7.5,10.5,0,5.03-3.29,8.58-3.95,9.24-.34.34-.39.87-.12,1.27,1.75,2.57,3.2,5.33,4.3,8.21,1.73,4.54,2.61,9.34,2.61,14.27,0,.55.45,1,1,1h0c.55,0,1-.45,1-1,0-5.17-.92-10.22-2.74-14.98-1.06-2.78-2.43-5.46-4.07-7.96Zm-15.78-11.55c0,2.24-1.43,4-3.25,4s-3.25-1.76-3.25-4,1.43-4,3.25-4,3.25,1.76,3.25,4Zm-2,0c0-1.18-.66-2-1.25-2s-1.25.82-1.25,2,.66,2,1.25,2,1.25-.82,1.25-2Zm16,0c0,2.24-1.43,4-3.25,4s-3.25-1.76-3.25-4,1.43-4,3.25-4,3.25,1.76,3.25,4Zm-2,0c0-1.18-.66-2-1.25-2s-1.25.82-1.25,2,.66,2,1.25,2,1.25-.82,1.25-2Zm-4.34,6.14c.37.58.42,1.3.13,1.92l-2.23,4.77c-.33.71-1.03,1.15-1.81,1.15h0c-.79,0-1.48-.44-1.81-1.15l-2.23-4.77c-.29-.62-.24-1.34.13-1.92s1-.93,1.69-.93h4.45c.69,0,1.32.35,1.69.93Zm-1.69,1.07h-4.45s2.23,4.77,2.23,4.77l2.23-4.77h0Z"/></svg>