<?xml version="1.0" encoding="UTF-8"?><svg id="Filled_Line" xmlns="http://www.w3.org/2000/svg" viewBox="0 0 64 64"><defs><style>.cls-1{fill:#1a2c3d;}.cls-1,.cls-2,.cls-3,.cls-4{stroke-width:0px;}.cls-2{fill:#e26677;}.cls-3{fill:#d85364;}.cls-4{fill:#d3dce5;}</style></defs><path class="cls-4" d="m50,42c0,9.94-8.06,18-18,18s-18-8.06-18-18c0-4.13,1.4-7.94,3.74-10.98,3.63,3.69,8.67,5.98,14.26,5.98s10.63-2.29,14.26-5.98c2.34,3.04,3.74,6.85,3.74,10.98Z"/><path class="cls-3" d="m44.02,43v2.53c0,.55-.45,1-1,1s-1-.45-1-1v-1.53h-2v1.53c0,.55-.45,1-1,1s-1-.45-1-1v-2.33c-.01-.06-.02-.13-.02-.2v-9.66l6-1.62v11.08c.01.06.02.13.02.2Z"/><path class="cls-2" d="m46.26,31.02c-3.63,3.69-8.67,5.98-14.26,5.98s-10.63-2.29-14.26-5.98c3.29-4.27,8.45-7.02,14.26-7.02s10.97,2.75,14.26,7.02Z"/><circle class="cls-4" cx="32" cy="17" r="13"/><path class="cls-2" d="m30.81,21.63l-3.22-1.21c-.79-.3-.79-1.41,0-1.7l3.22-1.21c1.42-.53,3.01.45,3.04,1.97,0,.02,0,.03,0,.05,0,.03,0,.06,0,.08-.01,1.54-1.6,2.57-3.04,2.03Z"/><path class="cls-1" d="m33,42.34c0,.55-.45,1-1,1s-1-.45-1-1,.45-1,1-1,1,.45,1,1Zm-1,5c-.55,0-1,.45-1,1s.45,1,1,1,1-.45,1-1-.45-1-1-1Zm0,6c-.55,0-1,.45-1,1s.45,1,1,1,1-.45,1-1-.45-1-1-1Zm27.99-29.48c.08.55-.3,1.05-.85,1.13l-3.57.5-6.19,8.84c1.07,2.42,1.63,5,1.63,7.67,0,10.48-8.52,19-19,19s-19-8.52-19-19c0-2.67.55-5.25,1.63-7.67l-6.19-8.84-3.57-.5c-.55-.08-.93-.58-.85-1.13.08-.55.58-.93,1.13-.85l1.72.24-2.68-3.83c-.32-.45-.21-1.08.25-1.39.45-.32,1.08-.21,1.39.25l4.71,6.71.5-2.21c.12-.54.66-.88,1.2-.75.54.12.88.66.75,1.2l-.9,3.98,3.59,5.12c.39-.65.81-1.29,1.28-1.91,1.28-1.66,2.81-3.06,4.53-4.2-2.16-2.46-3.48-5.68-3.48-9.21,0-7.72,6.28-14,14-14s14,6.28,14,14c0,3.53-1.32,6.74-3.48,9.21,1.72,1.14,3.25,2.54,4.53,4.2.48.62.9,1.26,1.28,1.92l3.59-5.12-.9-3.98c-.12-.54.22-1.07.75-1.2.54-.12,1.07.22,1.2.75l.5,2.21,4.7-6.71c.32-.45.94-.56,1.39-.25.45.32.56.94.25,1.39l-2.68,3.83,1.72-.24c.55-.08,1.05.3,1.13.85Zm-16.99,11.01c-1.27.78-2.6,1.42-4,1.92v6.22h4v-8.13Zm-23-17.87c0,6.62,5.38,12,12,12s12-5.38,12-12-5.38-12-12-12-12,5.38-12,12Zm-.88,13.94c3.52,3.26,8.05,5.06,12.88,5.06s9.36-1.8,12.88-5.06c-1.1-1.29-2.38-2.39-3.81-3.29-2.45,2.09-5.61,3.35-9.07,3.35s-6.62-1.27-9.07-3.35c-1.43.9-2.71,2-3.81,3.29Zm29.88,11.06c0-2.57-.56-5.04-1.67-7.35-.34-.72-.77-1.43-1.24-2.12-.36.32-.72.64-1.09.94v9.53c0,.73-.4,1.36-.98,1.71v1.82c0,.55-.45,1-1,1s-1-.45-1-1v-1.53h-2v1.53c0,.55-.45,1-1,1s-1-.45-1-1v-1.8c-.61-.34-1.02-.99-1.02-1.73v-5.62c-1.62.39-3.29.62-5,.62-5.27,0-10.22-1.95-14.09-5.47-.47.69-.89,1.39-1.24,2.11-1.11,2.31-1.67,4.78-1.67,7.35,0,9.37,7.63,17,17,17s17-7.63,17-17Zm-23-22.44c0-.8.49-1.5,1.24-1.79l3.22-1.21c1-.38,2.12-.24,3.01.36.86.58,1.37,1.5,1.39,2.53,0,0,0,.16,0,.16,0,1.05-.51,1.99-1.38,2.59-.56.38-1.21.58-1.86.58-.39,0-.78-.07-1.15-.21l-3.22-1.21c-.75-.28-1.24-.99-1.24-1.79Zm2.16,0l3,1.13h0c.39.15.83.09,1.17-.14.33-.22.51-.57.52-.95v-.11c-.01-.5-.32-.78-.51-.91-.35-.24-.79-.29-1.18-.14l-3,1.13Zm-1.16-4.34c.55,0,1-.45,1-1v-2c0-.55-.45-1-1-1s-1,.45-1,1v2c0,.55.45,1,1,1Zm10,0c.55,0,1-.45,1-1v-2c0-.55-.45-1-1-1s-1,.45-1,1v2c0,.55.45,1,1,1Z"/></svg>