<?xml version="1.0" encoding="UTF-8"?><svg id="Filled_Line" xmlns="http://www.w3.org/2000/svg" viewBox="0 0 64 64"><defs><style>.cls-1{fill:#1a2c3d;}.cls-1,.cls-2,.cls-3,.cls-4{stroke-width:0px;}.cls-2{fill:#d3dce5;}.cls-3{fill:#a26a55;}.cls-4{fill:#edae65;}</style></defs><path class="cls-4" d="m32.29,44.49c-3.08,3.61-8.48,4.07-12.11,1.02,1.12-2.5,2.81-5.4,5.2-8.03,1.9-2.07,4.1-3.75,6.09-5,3.47,3.11,3.85,8.44.82,12.01Z"/><path class="cls-3" d="m31.47,32.48c-1.99,1.25-4.19,2.93-6.09,5-2.39,2.63-4.08,5.53-5.2,8.03-.02-.01-.03-.03-.05-.04l-5.19-4.41v-4.86c0-3.65-2.95-6.6-6.59-6.6h-.92V9.75h17.25v13.4c0,2.25.99,4.39,2.7,5.84l3.93,3.34c.06.05.11.1.16.15Z"/><path class="cls-2" d="m24.06,4.07c-.84-.14-1.64-.06-2.36.19-.55.19-1.14.2-1.69,0-.49-.17-1.01-.26-1.56-.26s-1.07.09-1.56.26c-.55.19-1.13.19-1.68,0-.49-.17-1.01-.26-1.56-.26s-1.07.09-1.56.26c-.55.19-1.14.19-1.69,0-.72-.25-1.53-.33-2.36-.19-2.07.35-3.72,2.09-3.94,4.18-.32,2.89,1.94,5.33,4.76,5.33.55,0,1.07-.09,1.56-.26.55-.19,1.13-.19,1.68,0,.49.17,1.01.26,1.56.26s1.07-.09,1.56-.26c.55-.19,1.13-.19,1.68,0,.49.17,1.01.26,1.56.26s1.07-.09,1.56-.26c.55-.19,1.13-.19,1.68,0,.49.17,1.01.26,1.56.26,2.83,0,5.08-2.44,4.76-5.33-.23-2.09-1.87-3.83-3.94-4.18Z"/><path class="cls-4" d="m14.94,36.2v4.86l-4.81-4.09c-1.71-1.46-2.7-3.59-2.7-5.84v-1.53h.92c3.64,0,6.59,2.95,6.59,6.6Z"/><path class="cls-4" d="m57.87,56.96c-3.06,3.6-8.44,4.06-12.07,1.05,1.13-2.51,2.76-5.42,5.16-8.06,1.91-2.08,4.05-3.79,6.05-5.04,3.51,3.11,3.9,8.46.86,12.05Z"/><path class="cls-3" d="m57.01,44.91c-2,1.25-4.14,2.96-6.05,5.04-2.4,2.64-4.03,5.55-5.16,8.06-.03-.02-.06-.04-.09-.07l-5.18-4.4v-4.87c0-3.64-2.96-6.6-6.6-6.6h-.92v-19.85h17.26v13.41c0,2.24.98,4.38,2.69,5.84l3.93,3.33s.08.07.12.11Z"/><path class="cls-2" d="m49.65,16.54c-.84-.14-1.64-.06-2.36.19-.55.19-1.14.2-1.69,0-.49-.17-1.01-.26-1.56-.26s-1.07.09-1.56.26c-.55.19-1.13.19-1.68,0-.49-.17-1.01-.26-1.56-.26s-1.07.09-1.56.26c-.55.19-1.14.19-1.69,0-.72-.25-1.53-.33-2.36-.19-2.07.35-3.72,2.09-3.94,4.18-.32,2.89,1.94,5.33,4.76,5.33.55,0,1.07-.09,1.56-.26.55-.19,1.13-.19,1.68,0,.49.17,1.01.26,1.56.26s1.07-.09,1.56-.26c.55-.19,1.13-.19,1.68,0,.49.17,1.01.26,1.56.26s1.07-.09,1.56-.26c.55-.19,1.13-.19,1.68,0,.49.17,1.01.26,1.56.26,2.83,0,5.08-2.44,4.76-5.33-.23-2.09-1.87-3.83-3.94-4.18Z"/><path class="cls-4" d="m40.53,48.67v4.87l-4.82-4.1c-1.71-1.46-2.7-3.59-2.7-5.84v-1.53h.92c3.64,0,6.6,2.96,6.6,6.6Z"/><path class="cls-1" d="m57.54,44.04l-3.93-3.33c-1.49-1.27-2.34-3.12-2.34-5.08v-9.12c.7-.33,1.34-.79,1.87-1.38,1.1-1.22,1.62-2.87,1.44-4.52-.28-2.55-2.24-4.63-4.77-5.06-.97-.16-1.93-.09-2.85.23-.35.12-.71.12-1.04,0-1.21-.42-2.56-.42-3.77,0-.33.12-.69.12-1.02,0-1.21-.42-2.56-.42-3.77,0-.33.12-.69.11-1.04,0-.92-.32-1.88-.39-2.85-.23-2.53.42-4.49,2.5-4.77,5.06-.18,1.65.34,3.29,1.44,4.52.53.59,1.17,1.04,1.87,1.36v5.13s-.03-.04-.05-.05l-3.93-3.34c-1.49-1.26-2.35-3.12-2.35-5.08v-9.11c.71-.33,1.35-.79,1.88-1.39,1.1-1.22,1.62-2.87,1.44-4.52-.28-2.55-2.24-4.63-4.77-5.06h0c-.97-.16-1.93-.08-2.85.23-.35.12-.71.12-1.04,0-1.22-.42-2.56-.42-3.77,0-.33.12-.69.12-1.02,0-1.21-.42-2.55-.42-3.77,0-.33.12-.7.12-1.04,0-.92-.32-1.88-.39-2.85-.23-2.53.43-4.49,2.51-4.77,5.06-.18,1.65.35,3.29,1.44,4.52.52.59,1.17,1.04,1.88,1.36v17.11c0,2.54,1.11,4.95,3.05,6.6,0,0,10,8.5,10.04,8.53,1.8,1.51,4,2.25,6.18,2.25,2.4,0,4.79-.89,6.62-2.62.46,1.66,1.39,3.16,2.73,4.31,0,0,10.02,8.52,10.07,8.55,1.79,1.5,3.98,2.23,6.16,2.23,2.73,0,5.44-1.15,7.34-3.38,3.43-4.04,2.94-10.13-1.1-13.57Zm-5.22-1.8l3.05,2.59c-1.86,1.28-3.59,2.76-5.14,4.46-1.93,2.12-3.53,4.51-4.81,7.1l-3.89-3.31v-4.4c0-4.16-3.36-7.55-7.52-7.59v-5.78c.57.05.9.21,1.3.44.57.32,1.28.71,2.59.71s2.01-.39,2.58-.71c.48-.27.82-.46,1.61-.46s1.13.19,1.6.46c.57.32,1.28.71,2.59.71s2.02-.39,2.59-.71c.14-.08.27-.15.41-.21v.1c0,2.54,1.11,4.95,3.04,6.6Zm-3.04-8.81c-.59.14-1.02.37-1.38.57-.48.27-.82.46-1.61.46s-1.14-.19-1.61-.46c-.57-.32-1.27-.71-2.58-.71s-2.02.39-2.59.71c-.47.26-.82.46-1.6.46s-1.14-.19-1.61-.46c-.52-.29-1.17-.63-2.28-.69v-2.06c.57.05.9.21,1.3.44.57.32,1.28.71,2.59.71s2.01-.39,2.58-.71c.48-.27.82-.46,1.61-.46s1.13.19,1.6.46c.57.32,1.28.71,2.59.71s2.02-.39,2.59-.71c.14-.08.27-.15.41-.21v1.95Zm-18.59-12.6c.18-1.64,1.49-3.03,3.12-3.3.64-.11,1.27-.06,1.87.15.77.26,1.58.27,2.34,0,.79-.28,1.67-.28,2.46,0,.76.26,1.57.27,2.33,0,.79-.28,1.67-.28,2.46,0,.76.26,1.57.26,2.34,0,.6-.21,1.23-.26,1.87-.15h0c1.62.27,2.94,1.66,3.12,3.3.12,1.1-.21,2.15-.94,2.96-1,1.12-2.65,1.54-4.05,1.06-.38-.13-.77-.2-1.17-.2s-.78.07-1.17.2c-.79.28-1.67.27-2.46,0-.76-.27-1.57-.27-2.33,0-.79.28-1.67.27-2.46,0-.76-.27-1.57-.27-2.33,0-1.41.49-3.06.06-4.06-1.06-.73-.81-1.06-1.87-.94-2.96Zm5.65,5.91c.33-.12.69-.12,1.02,0,1.21.42,2.55.42,3.77,0,.33-.12.68-.12,1.02,0,1.21.42,2.55.42,3.77,0,.33-.12.69-.12,1.02,0,.61.21,1.24.32,1.89.32.15,0,.29-.01.44-.02v2.34c-.59.14-1.02.37-1.38.57-.48.27-.82.46-1.61.46s-1.14-.19-1.61-.46c-.57-.32-1.27-.71-2.58-.71s-2.02.39-2.59.71c-.47.26-.82.46-1.6.46s-1.14-.19-1.61-.46c-.52-.29-1.17-.63-2.28-.69v-2.23c.78.06,1.57-.02,2.33-.28Zm-9.6,3.01l3.05,2.6c-1.86,1.28-3.59,2.76-5.14,4.46-1.93,2.12-3.53,4.51-4.81,7.1l-3.89-3.31v-4.4c0-4.16-3.36-7.55-7.51-7.59v-5.78c.57.05.9.21,1.3.44.57.32,1.28.71,2.59.71s2.01-.39,2.58-.71c.48-.27.82-.46,1.61-.46s1.13.19,1.6.46c.57.32,1.28.71,2.59.71s2.02-.39,2.59-.71c.14-.08.27-.14.4-.21v.09c0,2.55,1.11,4.96,3.05,6.6Zm-3.05-8.8c-.59.14-1.01.37-1.37.56-.48.27-.82.46-1.61.46s-1.14-.19-1.61-.46c-.57-.32-1.27-.71-2.58-.71s-2.02.4-2.59.71c-.47.27-.82.46-1.6.46s-1.14-.19-1.61-.46c-.52-.29-1.18-.63-2.28-.69v-2.06c.57.05.9.21,1.3.44.57.32,1.28.71,2.59.71s2.01-.39,2.58-.71c.48-.27.82-.46,1.61-.46s1.13.19,1.6.46c.57.32,1.28.71,2.59.71s2.02-.39,2.59-.71c.14-.08.27-.14.4-.21v1.95ZM5.1,8.36c.18-1.64,1.49-3.03,3.12-3.31.64-.11,1.27-.06,1.87.15.77.27,1.58.27,2.34,0,.79-.27,1.67-.28,2.46,0,.76.26,1.57.26,2.33,0,.79-.27,1.67-.27,2.46,0,.76.26,1.57.26,2.34,0,.6-.21,1.23-.25,1.87-.15,1.63.27,2.94,1.66,3.12,3.3.12,1.1-.21,2.15-.94,2.96-1,1.12-2.65,1.55-4.06,1.05-.38-.13-.77-.2-1.17-.2s-.79.07-1.17.2c-.79.28-1.67.28-2.46,0-.76-.26-1.57-.26-2.33,0-.79.28-1.67.28-2.46,0-.76-.26-1.57-.27-2.33,0-1.4.49-3.05.06-4.05-1.05-.73-.81-1.06-1.87-.94-2.96Zm5.65,5.91c.33-.12.69-.12,1.02,0,1.21.42,2.56.42,3.77,0,.33-.12.69-.12,1.02,0,1.21.42,2.56.42,3.77,0,.33-.12.69-.12,1.02,0,.61.21,1.24.32,1.89.32.15,0,.29-.01.43-.02v2.34c-.59.14-1.01.37-1.37.56-.48.27-.82.46-1.61.46s-1.14-.19-1.61-.46c-.57-.32-1.27-.71-2.58-.71s-2.02.4-2.59.71c-.47.27-.82.46-1.6.46s-1.14-.19-1.61-.46c-.52-.29-1.18-.63-2.28-.69v-2.23c.78.07,1.58-.02,2.33-.28Zm-2.33,16.86v-.53c3.05.04,5.51,2.53,5.51,5.59v2.7l-3.17-2.69c-1.49-1.27-2.35-3.13-2.35-5.08Zm12.99,14.08c1.22-2.58,2.79-4.96,4.69-7.05,1.56-1.7,3.31-3.17,5.19-4.42.26.28.49.58.7.89v8.57c-.13.2-.28.41-.48.65-2.56,3.01-6.98,3.53-10.1,1.37Zm12.59-1.61v-.52c3.05.04,5.52,2.53,5.52,5.59v2.7l-3.17-2.69c-1.49-1.27-2.35-3.13-2.35-5.08Zm23.1,12.71c-2.56,3.01-6.98,3.53-10.1,1.37,1.22-2.58,2.79-4.96,4.69-7.05,1.56-1.7,3.32-3.18,5.2-4.43,2.57,2.79,2.73,7.15.21,10.11Z"/></svg>