<?xml version="1.0" encoding="UTF-8"?><svg id="Filled_Line" xmlns="http://www.w3.org/2000/svg" viewBox="0 0 64 64"><defs><style>.cls-1{fill:#1a2c3d;}.cls-1,.cls-2,.cls-3{stroke-width:0px;}.cls-2{fill:#a26a55;}.cls-3{fill:#edae65;}</style></defs><path class="cls-3" d="m4.61,49.1l-.22,2.65c-.04.49.31.92.8.97l2.41.27,2.41.27c.49.05.93-.29.99-.78l.32-2.45"/><path class="cls-2" d="m59.95,49.16c-2.7.29-5.41.58-8.11.87l-4.01-14.26.07,17.87h-31.8l.07-17.87-4.01,14.26c-2.7-.29-5.41-.58-8.11-.87-.21-5.24.16-13.45,3.6-22.73.66-1.75,1.36-3.4,2.1-4.94,2.92-6.08,9.24-9.92,16.15-9.92h12.2c6.91,0,13.23,3.84,16.15,9.92.74,1.54,1.44,3.19,2.1,4.94,3.44,9.28,3.81,17.49,3.6,22.73Z"/><path class="cls-3" d="m59.39,49.1l.22,2.65c.04.49-.31.92-.8.97l-2.41.27-2.41.27c-.49.05-.93-.29-.99-.78l-.32-2.45"/><path class="cls-3" d="m16.67,53.64h30.66v2.61c0,.55-.45,1-1,1h-28.66c-.55,0-1-.45-1-1v-2.61h0Z"/><path class="cls-3" d="m42.82,8.75v3.41h-21.64v-3.41c0-1.1.89-2,2-2h17.64c1.11,0,2,.9,2,2Z"/><path class="cls-1" d="m57.28,26.08c-.63-1.7-1.35-3.39-2.13-5.02-2.23-4.65-6.4-8.09-11.33-9.62v-2.69c0-1.65-1.35-3-3-3h-17.64c-1.65,0-3,1.35-3,3v2.69c-4.93,1.52-9.1,4.96-11.33,9.62-.78,1.63-1.5,3.32-2.13,5.02-2.75,7.4-3.98,15.18-3.67,23.12.01.34.21.64.49.81l-.14,1.67c-.09,1.04.65,1.94,1.69,2.05l4.82.54c.07,0,.14.01.21.01.94,0,1.76-.71,1.89-1.66l.21-1.6c.43-.02.81-.29.93-.71l2.01-7.17-.04,10.5c0,.27.1.52.29.71.08.08.18.14.28.19v1.71c0,1.1.9,2,2,2h28.66c1.1,0,2-.9,2-2v-1.71c.1-.05.2-.11.28-.19.19-.19.29-.44.29-.71l-.04-10.5,2.01,7.17c.12.42.5.71.93.72l.21,1.59c.12.95.95,1.66,1.89,1.66.07,0,.14,0,.21-.01l4.82-.54c1.03-.11,1.77-1.01,1.69-2.05l-.14-1.67c.28-.17.47-.46.49-.81.31-7.94-.92-15.72-3.67-23.12Zm-10.38,26.56h-29.8l.05-12.4c4.93.83,9.89,1.26,14.85,1.26s9.92-.43,14.85-1.26l.05,12.4Zm-29.74-14.43l.02-4.06c4.92.88,9.87,1.35,14.83,1.35s9.9-.46,14.82-1.35l.02,4.06c-9.85,1.69-19.83,1.69-29.68,0Zm-1.99-2.58l-.6,2.12c-2.8-.56-5.64-1.28-8.47-2.15.26-1.31.56-2.61.91-3.91,2.71.84,5.45,1.54,8.16,2.09v1.85Zm33.66,0v-1.85c2.71-.55,5.44-1.25,8.15-2.09.35,1.29.65,2.6.91,3.91-2.83.87-5.67,1.59-8.47,2.15l-.6-2.12Zm-7.01-26.88v2.18c-1.11-.22-2.25-.34-3.41-.36v-2.83h2.41c.55,0,1,.45,1,1Zm-5.41,1.82h-3.41v-2.82h3.41v2.82Zm-5.41,0h-3.41v-2.82h3.41v2.82Zm-8.82-1.82c0-.55.45-1,1-1h2.41v2.83c-1.16.02-2.3.14-3.41.36v-2.18Zm-11.53,13.17c2.09-4.35,6.08-7.51,10.77-8.76h21.16c4.69,1.25,8.68,4.41,10.77,8.76.76,1.58,1.45,3.21,2.06,4.86.37.99.7,1.99,1.01,3-2.53.79-5.07,1.44-7.61,1.97l-.03-6.26c0-.55-.45-1-1-1h0c-.55,0-1,.45-1,1l.03,6.63c-9.83,1.81-19.79,1.81-29.63,0l.03-6.63c0-.55-.44-1-1-1h0c-.55,0-1,.45-1,1l-.03,6.26c-2.53-.52-5.08-1.18-7.61-1.97.31-1.01.64-2.01,1.01-3,.61-1.64,1.3-3.28,2.06-4.86Zm-.63,30.34l-4.63-.51.12-1.42,4.69.51-.19,1.43Zm1.41-3.31l-6.41-.69c-.09-3.6.16-7.17.72-10.68,2.77.84,5.55,1.55,8.29,2.1l-2.6,9.27Zm6.24,7.3v-1.61h28.66v1.61s-28.66,0-28.66,0Zm32.3-16.56c2.74-.56,5.52-1.26,8.29-2.1.57,3.51.81,7.07.72,10.68l-6.41.69-2.6-9.27Zm4.01,12.58l-.19-1.43,4.69-.51.12,1.42-4.63.51Z"/></svg>