<?xml version="1.0" encoding="UTF-8"?><svg id="Filled_Line" xmlns="http://www.w3.org/2000/svg" viewBox="0 0 64 64"><defs><style>.cls-1{fill:#536882;}.cls-1,.cls-2,.cls-3,.cls-4,.cls-5{stroke-width:0px;}.cls-2{fill:#1a2c3d;}.cls-3{fill:#d3dce5;}.cls-4{fill:#a26a55;}.cls-5{fill:#edae65;}</style></defs><path class="cls-1" d="m32,59.45h0c4.8-1.75,8-6.31,8-11.42v-8.03s-8,0-8,0h-8v8.03c0,5.11,3.2,9.68,8,11.42h0s0,0,0,0Z"/><path class="cls-4" d="m34,11.44v28.56h-4V11.44c.58.39,1.29.56,2,.56s1.42-.18,2-.56Z"/><path class="cls-5" d="m32.73,47.27l-.73.73-.73-.73c-.81-.81-1.27-1.91-1.27-3.06v-9.21h4v9.21c0,1.15-.46,2.25-1.27,3.06Z"/><path class="cls-5" d="m39,4h-14c-.55,0-1,.45-1,1v2.55c0,1.67.47,3.27,1.32,4.63.84,1.37,2.06,2.51,3.56,3.26.36.18.73.32,1.12.41.41.1.83.15,1.25.15h1.5c.42,0,.84-.05,1.25-.15.39-.09.76-.23,1.12-.41,2.99-1.5,4.88-4.55,4.88-7.89v-2.55c0-.55-.45-1-1-1Zm-4.66,7.19c-.11.09-.22.18-.34.25-.58.38-1.29.56-2,.56s-1.42-.17-2-.56c-.12-.07-.23-.16-.34-.25-.93-.8-1.52-1.94-1.64-3.19h7.96c-.12,1.25-.71,2.38-1.64,3.19Z"/><path class="cls-3" d="m46.53,55.2c0-1.77-2-3.2-4.47-3.2-1.7,0-3.15.68-3.91,1.68-.76-1-2.22-1.68-3.91-1.68-1.41,0-2.65.47-3.46,1.2-.63-.25-1.35-.4-2.12-.4-1.1,0-2.1.3-2.88.77-.78-.94-2.19-1.57-3.83-1.57-2.47,0-4.47,1.43-4.47,3.2-2.47,0-4.47,1.43-4.47,3.2v1.6h38v-1.6c0-1.77-2-3.2-4.47-3.2Z"/><path class="cls-2" d="m34.99,11.95c1.14-.98,1.84-2.35,1.98-3.85.03-.28-.07-.56-.26-.77s-.46-.33-.74-.33h-7.96c-.28,0-.55.12-.74.33s-.28.49-.26.77c.14,1.5.84,2.87,1.98,3.86.79.68,1.85,1.05,2.99,1.05s2.21-.37,2.99-1.05Zm-5.71-2.95h5.44c-.22.55-.57,1.04-1.03,1.43-.85.73-2.53.73-3.37,0-.46-.39-.81-.89-1.03-1.43Zm18.11,45.25c-.55-1.88-2.7-3.25-5.34-3.25-.5,0-.99.07-1.45.17.25-1.02.4-2.06.4-3.14v-8.03c0-.55-.45-1-1-1h-5v-22.42c.19-.07.38-.15.57-.24h0c3.35-1.68,5.43-5.04,5.43-8.79v-2.55c0-1.1-.9-2-2-2h-14c-1.1,0-2,.9-2,2v2.55c0,3.75,2.08,7.11,5.43,8.79.18.09.38.17.57.24v22.42h-5c-.55,0-1,.45-1,1v8.03c0,1.07.14,2.12.4,3.14-.47-.1-.95-.17-1.45-.17-2.64,0-4.79,1.37-5.34,3.25-2.64.31-4.61,2.02-4.61,4.15v1.6c0,.55.45,1,1,1h38c.55,0,1-.45,1-1v-1.6c0-2.13-1.96-3.84-4.61-4.15Zm-16.39-13.25h2v3.21c0,.89-.35,1.72-.97,2.35l-.03.03-.03-.03c-.63-.63-.97-1.46-.97-2.35v-3.21ZM25,7.55v-2.55h14v2.55c0,2.98-1.66,5.67-4.33,7-.6.3-1.26.46-1.93.46h-1.49c-.66,0-1.33-.16-1.93-.46-2.67-1.33-4.33-4.02-4.33-7Zm6.25,9.45h1.49c.08,0,.17-.01.25-.01v17.01h-2v-17.01c.08,0,.17.01.25.01Zm-.25,19h2v3h-2v-3Zm-6,12.03v-7.03h4v3.21c0,1.42.55,2.76,1.56,3.76l.73.73c.2.2.45.29.71.29s.51-.1.71-.29l.73-.73c1-1,1.56-2.34,1.56-3.76v-3.21h4v7.03c0,1.48-.29,2.9-.86,4.23-1.01-.8-2.4-1.26-3.91-1.26-1.36,0-2.65.39-3.65,1.08-1.54-.46-3.24-.34-4.63.27-.03-.02-.07-.04-.1-.07-.56-1.35-.86-2.78-.86-4.25Zm25,10.97H14v-.6c0-1.19,1.59-2.2,3.47-2.2.55,0,1-.45,1-1,0-1.19,1.59-2.2,3.47-2.2,1.27,0,2.44.46,3.06,1.21.32.38.86.47,1.29.21,1.13-.69,2.75-.83,4.12-.29.35.14.75.06,1.03-.18.68-.6,1.7-.95,2.8-.95,1.32,0,2.51.49,3.12,1.29.19.25.48.39.8.39s.61-.15.8-.39c.6-.79,1.8-1.29,3.12-1.29,1.88,0,3.47,1.01,3.47,2.2,0,.55.45,1,1,1,1.88,0,3.47,1.01,3.47,2.2v.6Z"/></svg>