<?xml version="1.0" encoding="UTF-8"?><svg id="Line" xmlns="http://www.w3.org/2000/svg" viewBox="0 0 96 96"><defs><style>.cls-1{stroke-width:0px;}</style></defs><path class="cls-1" d="M73.39,38.31c.07,0,.14,0,.21,0,.72,0,1.42-.26,1.97-.74.6-.53.97-1.26,1.02-2.06l.39-5.67c.05-.8-.21-1.57-.73-2.18-.53-.6-1.26-.97-2.06-1.02l-1.89-.13v-9.76s1.89-.13,1.89-.13c.8-.05,1.53-.42,2.06-1.02.53-.6.79-1.38.73-2.18l-.39-5.67c-.05-.8-.42-1.53-1.02-2.06-.6-.53-1.38-.79-2.18-.73l-51.57,3.51c-.8.05-1.53.42-2.06,1.02-.53.6-.79,1.38-.73,2.18l.39,5.67c.05.8.42,1.53,1.02,2.06.55.48,1.24.74,1.97.74.07,0,.14,0,.21,0l1.91-.13.45,3.28-2.35-.16c-.8-.05-1.57.21-2.18.73-.6.53-.97,1.26-1.02,2.06l-.39,5.67c-.05.8.21,1.57.73,2.18.53.6,1.26.97,2.06,1.02l1.9.13v8.07h-1.56c-1.65,0-3,1.35-3,3v5.68c0,1.65,1.35,3,3,3h1.91l2.07,31.03c.19,2.96,2.67,5.28,5.65,5.28h32.44c2.97,0,5.45-2.32,5.65-5.28l.62-9.31c.04-.55-.38-1.03-.93-1.06-.55-.05-1.03.38-1.06.93l-.62,9.31c-.12,1.92-1.73,3.42-3.65,3.42H31.78c-1.92,0-3.53-1.5-3.65-3.42l-2.06-30.9h43.86l-.84,12.59c-.04.55.38,1.03.93,1.06.55.04,1.03-.38,1.06-.93l.85-12.72h1.91c1.65,0,3-1.35,3-3v-5.68c0-1.65-1.35-3-3-3h-3.02l.65-4.82,1.91.13ZM22.48,18.16c-.27.01-.52-.07-.73-.24-.2-.18-.32-.42-.34-.69l-.39-5.67c-.04-.55.38-1.03.93-1.07l51.57-3.51s.05,0,.07,0c.24,0,.47.09.66.25.2.18.32.42.34.69l.39,5.67c.04.55-.38,1.03-.93,1.07l-51.57,3.51ZM26.52,19.89l21.91-1.5,21.85-1.49v9.48s-43.28-2.95-43.28-2.95l-.48-3.55ZM21.03,31.73l.39-5.67c.02-.27.14-.51.34-.69.18-.16.41-.25.66-.25.02,0,.05,0,.07,0l51.57,3.51c.55.04.97.52.93,1.07l-.39,5.67c-.02.27-.14.51-.34.69-.2.18-.46.26-.73.24l-51.57-3.51c-.55-.04-.97-.52-.93-1.07ZM74.84,46v5.68c0,.55-.45,1-1,1H22.16c-.55,0-1-.45-1-1v-5.68c0-.55.45-1,1-1h51.69c.55,0,1,.45,1,1ZM69.48,38.05l-.67,4.95H25.71v-7.94s21.86,1.49,21.86,1.49l21.91,1.5ZM70.85,71.01l-.12,1.8c-.04.53-.47.93-1,.93-.02,0-.04,0-.07,0-.55-.04-.97-.51-.93-1.06l.12-1.8c.04-.55.52-.98,1.06-.93.55.04.97.51.93,1.06Z"/></svg>