<?xml version="1.0" encoding="UTF-8"?><svg id="Line" xmlns="http://www.w3.org/2000/svg" viewBox="0 0 96 96"><defs><style>.cls-1{stroke-width:0px;}</style></defs><path class="cls-1" d="M84.7,39.8h3.3c1.65,0,3-1.35,3-3v-4.4c0-1.65-1.35-3-3-3h-3.3v-5.3c0-.33-.17-.65-.45-.83l-9.45-6.3c-.34-.22-.77-.22-1.11,0l-9.45,6.3c-.28.19-.45.5-.45.83v5.3h-5.35v-5.3c0-.33-.17-.65-.45-.83l-9.45-6.3c-.34-.22-.77-.22-1.11,0l-9.45,6.3c-.28.19-.45.5-.45.83v5.3h-5.35v-5.3c0-.33-.17-.65-.45-.83l-9.45-6.3c-.34-.22-.77-.22-1.11,0l-9.45,6.3c-.28.19-.45.5-.45.83v5.3h-3.3c-1.65,0-3,1.35-3,3v4.4c0,1.65,1.35,3,3,3h3.3v21.65h-3.3c-1.65,0-3,1.35-3,3v4.4c0,1.65,1.35,3,3,3h3.3v5.35c0,1.1.9,2,2,2h16.9c1.1,0,2-.9,2-2v-5.35h5.35v5.35c0,1.1.9,2,2,2h16.9c1.1,0,2-.9,2-2v-5.35h5.35v5.35c0,1.1.9,2,2,2h16.9c1.1,0,2-.9,2-2v-5.35h3.3c1.65,0,3-1.35,3-3v-4.4c0-1.65-1.35-3-3-3h-3.3v-6.32c0-.55-.45-1-1-1s-1,.45-1,1v22.07h-16.9V24.64l8.45-5.63,8.45,5.63v21.49c0,.55.45,1,1,1s1-.45,1-1v-6.33ZM88,63.45c.55,0,1,.45,1,1v4.4c0,.55-.45,1-1,1h-3.3v-6.4h3.3ZM58.45,39.8h5.35v21.65h-5.35v-21.65ZM63.8,31.4v6.4h-5.35v-6.4h5.35ZM32.2,39.8h5.35v21.65h-5.35v-21.65ZM37.55,31.4v6.4h-5.35v-6.4h5.35ZM8,37.8c-.55,0-1-.45-1-1v-4.4c0-.55.45-1,1-1h3.3v6.4h-3.3ZM8,69.85c-.55,0-1-.45-1-1v-4.4c0-.55.45-1,1-1h3.3v6.4h-3.3ZM13.3,77.2V24.64l8.45-5.63,8.45,5.63v52.56s-16.9,0-16.9,0ZM32.2,69.85v-6.4h5.35v6.4h-5.35ZM39.55,77.2V24.64l8.45-5.63,8.45,5.63v52.56s-16.9,0-16.9,0ZM58.45,69.85v-6.4h5.35v6.4h-5.35ZM88,31.4c.55,0,1,.45,1,1v4.4c0,.55-.45,1-1,1h-3.3v-6.4h3.3ZM21.75,31.5c-1.71,0-3.1,1.39-3.1,3.1s1.39,3.1,3.1,3.1,3.1-1.39,3.1-3.1-1.39-3.1-3.1-3.1ZM21.75,35.7c-.61,0-1.1-.49-1.1-1.1s.49-1.1,1.1-1.1,1.1.49,1.1,1.1-.49,1.1-1.1,1.1ZM21.75,63.55c-1.71,0-3.1,1.39-3.1,3.1s1.39,3.1,3.1,3.1,3.1-1.39,3.1-3.1-1.39-3.1-3.1-3.1ZM21.75,67.75c-.61,0-1.1-.49-1.1-1.1s.49-1.1,1.1-1.1,1.1.49,1.1,1.1-.49,1.1-1.1,1.1ZM48,31.5c-1.71,0-3.1,1.39-3.1,3.1s1.39,3.1,3.1,3.1,3.1-1.39,3.1-3.1-1.39-3.1-3.1-3.1ZM48,35.7c-.61,0-1.1-.49-1.1-1.1s.49-1.1,1.1-1.1,1.1.49,1.1,1.1-.49,1.1-1.1,1.1ZM48,63.55c-1.71,0-3.1,1.39-3.1,3.1s1.39,3.1,3.1,3.1,3.1-1.39,3.1-3.1-1.39-3.1-3.1-3.1ZM48,67.75c-.61,0-1.1-.49-1.1-1.1s.49-1.1,1.1-1.1,1.1.49,1.1,1.1-.49,1.1-1.1,1.1ZM74.25,31.5c-1.71,0-3.1,1.39-3.1,3.1s1.39,3.1,3.1,3.1,3.1-1.39,3.1-3.1-1.39-3.1-3.1-3.1ZM74.25,35.7c-.61,0-1.1-.49-1.1-1.1s.49-1.1,1.1-1.1,1.1.49,1.1,1.1-.49,1.1-1.1,1.1ZM74.25,63.55c-1.71,0-3.1,1.39-3.1,3.1s1.39,3.1,3.1,3.1,3.1-1.39,3.1-3.1-1.39-3.1-3.1-3.1ZM74.25,67.75c-.61,0-1.1-.49-1.1-1.1s.49-1.1,1.1-1.1,1.1.49,1.1,1.1-.49,1.1-1.1,1.1ZM84.7,49.73v1.79c0,.55-.45,1-1,1s-1-.45-1-1v-1.79c0-.55.45-1,1-1s1,.45,1,1Z"/></svg>