<?xml version="1.0" encoding="UTF-8"?><svg id="Line" xmlns="http://www.w3.org/2000/svg" viewBox="0 0 96 96"><defs><style>.cls-1{stroke-width:0px;}</style></defs><path class="cls-1" d="M91,64.59v6.1c0,.55-.45,1-1,1s-1-.45-1-1v-6.1h-21.8c-2.33,8.7-10.11,14.7-19.2,14.7s-16.88-6-19.2-14.7H7v21.2h82v-6.1c0-.55.45-1,1-1s1,.45,1,1v6.1c0,1.1-.9,2-2,2H7c-1.1,0-2-.9-2-2v-21.2c0-1.1.9-2,2-2h22.58c.47,0,.87.32.98.78,1.85,8.2,9.02,13.92,17.44,13.92s15.59-5.72,17.44-13.92c.1-.46.51-.78.98-.78h22.58c1.1,0,2,.9,2,2ZM29.07,33.42c-.68-.87-.52-2.13.35-2.81l28.24-22c.87-.68,2.13-.52,2.81.35,0,0,0,0,0,0l16.84,21.62c.33.42.47.95.41,1.48s-.33,1-.76,1.33l-22.7,17.69c-.18.14-.39.21-.61.21-.04,0-.08,0-.12,0l-11.26-1.4c-.26-.03-.5-.17-.67-.38l-12.52-16.08ZM30.65,32.19l12.27,15.75,10.44,1.3,22.38-17.43-16.84-21.62-28.24,22ZM54.39,34.71c-.88,0-1.81-.27-2.72-.98-1.33-1.04-1.93-1.85-2.36-2.44-.43-.58-.66-.9-1.41-1.26-.33-.16-.54-.48-.56-.84-.02-.36.15-.71.46-.9.15-.1,3.79-2.4,6.93-1.11,1.65.68,2.8,2.18,3.43,4.45,1,.16,2,.05,2.98-.39.51-.22,1.1,0,1.32.51.22.51,0,1.1-.51,1.32-.97.43-1.96.64-2.96.64-.46,0-.93-.06-1.39-.15-.76.58-1.9,1.15-3.19,1.15ZM56.21,32.09c-.46-1.6-1.21-2.63-2.24-3.06-1.22-.5-2.66-.15-3.7.26.25.26.45.54.66.81.41.55.87,1.18,1.99,2.05,1.32,1.03,2.64.39,3.3-.07ZM51.37,43.67l-9.95-12.77c-.33-.42-.47-.94-.41-1.48.07-.53.33-1,.76-1.33l13.9-10.83c.42-.33.95-.48,1.48-.41.53.07,1,.33,1.33.76l9.95,12.77c.33.42.47.95.41,1.48s-.33,1-.76,1.33l-13.9,10.83c-.36.28-.8.42-1.23.42-.6,0-1.19-.26-1.58-.77ZM43,29.67l9.95,12.77,13.9-10.83-9.95-12.77-13.9,10.83ZM54.21,55.87c-.08.88-.46,1.83-1.07,2.67-.98,1.34-2.32,2.11-3.49,2.11-.49,0-.96-.14-1.35-.42-.7-.51-1.05-1.41-.95-2.46.08-.88.46-1.83,1.07-2.67.61-.84,1.4-1.49,2.21-1.84.97-.42,1.93-.36,2.63.15.7.51,1.05,1.41.95,2.46ZM52.08,55.02s-.1-.04-.19-.04c-.12,0-.29.03-.48.12-.48.2-.98.63-1.38,1.18-.4.54-.65,1.15-.7,1.67-.03.36.04.6.14.66.26.19,1.25-.15,2.05-1.25h0c.4-.54.65-1.15.7-1.67.03-.36-.04-.6-.14-.66ZM44.05,66.9c-.84,0-1.79-.26-2.69-.78-.9-.52-1.63-1.23-2.06-2-.52-.92-.56-1.88-.13-2.63.43-.75,1.29-1.19,2.35-1.21.88-.01,1.87.27,2.77.78,2.05,1.18,3.01,3.22,2.19,4.64-.46.79-1.36,1.2-2.42,1.2ZM43.29,62.8c-.58-.34-1.2-.5-1.74-.52-.37,0-.59.11-.64.21-.06.1-.03.34.14.66.25.46.73.91,1.32,1.25,1.17.68,2.22.59,2.38.31.16-.27-.29-1.23-1.46-1.91ZM48.96,71.89c-.56-.66-.69-1.61-.35-2.62.29-.84.88-1.67,1.67-2.34.79-.67,1.71-1.12,2.58-1.27,1.05-.17,1.96.1,2.53.76.56.66.69,1.61.35,2.62-.29.84-.88,1.67-1.67,2.34-1.02.87-2.18,1.31-3.18,1.31-.77,0-1.46-.26-1.92-.81ZM50.49,70.59c.21.24,1.25.14,2.29-.73.51-.43.9-.97,1.07-1.46.12-.35.1-.59.02-.68-.05-.06-.19-.11-.4-.11-.08,0-.17,0-.27.02-.51.09-1.1.39-1.62.82-.51.43-.9.97-1.07,1.46-.12.35-.1.59-.02.67ZM42.55,56.7c.58,0,1.05-.47,1.05-1.05s-.47-1.05-1.05-1.05-1.05.47-1.05,1.05.47,1.05,1.05,1.05ZM52.83,62.54c0,.58.47,1.05,1.05,1.05s1.05-.47,1.05-1.05-.47-1.05-1.05-1.05-1.05.47-1.05,1.05ZM43.22,70.21c0,.58.47,1.05,1.05,1.05s1.05-.47,1.05-1.05-.47-1.05-1.05-1.05-1.05.47-1.05,1.05ZM90,73.29c-.55,0-1,.45-1,1v1.8c0,.55.45,1,1,1s1-.45,1-1v-1.8c0-.55-.45-1-1-1Z"/></svg>