<?xml version="1.0" encoding="UTF-8"?><svg id="Line" xmlns="http://www.w3.org/2000/svg" viewBox="0 0 96 96"><defs><style>.cls-1{stroke-width:0px;}</style></defs><path class="cls-1" d="M89,17H7c-1.1,0-2,.9-2,2v59c0,1.1.9,2,2,2h82c1.1,0,2-.9,2-2v-21.5c0-.55-.45-1-1-1s-1,.45-1,1v3.5H7v-16h82v3.5c0,.55.45,1,1,1s1-.45,1-1v-28.5c0-1.1-.9-2-2-2ZM89,19v5H7v-5h82ZM30.75,62l-3.56,16h-9.95l3.56-16h9.95ZM42.75,62l-3.56,16h-9.95l3.56-16h9.95ZM54.75,62l-3.56,16h-9.95l3.56-16h9.95ZM66.75,62l-3.56,16h-9.95l3.56-16h9.95ZM78.75,62l-3.56,16h-9.95l3.56-16h9.95ZM89,78h-11.75l3.56-16h8.2v16ZM18.75,62l-3.56,16H7v-16h11.75ZM7,42v-16h82v16H7ZM18.5,31c0,.55-.45,1-1,1h-3c-.55,0-1-.45-1-1s.45-1,1-1h3c.55,0,1,.45,1,1ZM26.5,36c0,.55-.45,1-1,1h-3c-.55,0-1-.45-1-1s.45-1,1-1h3c.55,0,1,.45,1,1ZM34.5,31c0,.55-.45,1-1,1h-3c-.55,0-1-.45-1-1s.45-1,1-1h3c.55,0,1,.45,1,1ZM42.5,36c0,.55-.45,1-1,1h-3c-.55,0-1-.45-1-1s.45-1,1-1h3c.55,0,1,.45,1,1ZM50.5,31c0,.55-.45,1-1,1h-3c-.55,0-1-.45-1-1s.45-1,1-1h3c.55,0,1,.45,1,1ZM58.5,36c0,.55-.45,1-1,1h-3c-.55,0-1-.45-1-1s.45-1,1-1h3c.55,0,1,.45,1,1ZM66.5,31c0,.55-.45,1-1,1h-3c-.55,0-1-.45-1-1s.45-1,1-1h3c.55,0,1,.45,1,1ZM74.5,36c0,.55-.45,1-1,1h-3c-.55,0-1-.45-1-1s.45-1,1-1h3c.55,0,1,.45,1,1ZM82.5,31c0,.55-.45,1-1,1h-3c-.55,0-1-.45-1-1s.45-1,1-1h3c.55,0,1,.45,1,1ZM12.5,50c.55,0,1,.45,1,1s-.45,1-1,1-1-.45-1-1,.45-1,1-1ZM26.5,50c.55,0,1,.45,1,1s-.45,1-1,1-1-.45-1-1,.45-1,1-1ZM40.5,48c.55,0,1,.45,1,1s-.45,1-1,1-1-.45-1-1,.45-1,1-1ZM57.5,49c.55,0,1,.45,1,1s-.45,1-1,1-1-.45-1-1,.45-1,1-1ZM70.5,47c.55,0,1,.45,1,1s-.45,1-1,1-1-.45-1-1,.45-1,1-1ZM18.5,55c.55,0,1,.45,1,1s-.45,1-1,1-1-.45-1-1,.45-1,1-1ZM34.5,55c.55,0,1,.45,1,1s-.45,1-1,1-1-.45-1-1,.45-1,1-1ZM47.5,55c.55,0,1,.45,1,1s-.45,1-1,1-1-.45-1-1,.45-1,1-1ZM66.5,54c.55,0,1,.45,1,1s-.45,1-1,1-1-.45-1-1,.45-1,1-1ZM83.5,48c.55,0,1,.45,1,1s-.45,1-1,1-1-.45-1-1,.45-1,1-1ZM79.5,55c.55,0,1,.45,1,1s-.45,1-1,1-1-.45-1-1,.45-1,1-1ZM91,51.1v1.8c0,.55-.45,1-1,1s-1-.45-1-1v-1.8c0-.55.45-1,1-1s1,.45,1,1Z"/></svg>