<?xml version="1.0" encoding="UTF-8"?><svg id="Line" xmlns="http://www.w3.org/2000/svg" viewBox="0 0 96 96"><defs><style>.cls-1{stroke-width:0px;}</style></defs><path class="cls-1" d="M37.95,80.3c.39.39.39,1.02,0,1.41l-.89.89c-.15.15-.3.3-.45.43-.19.16-.42.24-.65.24-.28,0-.57-.12-.76-.35-.36-.42-.3-1.05.12-1.41.11-.09.22-.2.33-.31l.89-.89c.39-.39,1.02-.39,1.41,0ZM89.74,25.16l-4.4,4.4c-1.95,1.95-4.88,2.58-7.46,1.61l-3.84-1.44-4.97,4.97c-.41.41-.96.62-1.5.62-.21,0-.41-.04-.61-.1l-29.77,29.77,6.45,6.45c.61.61.95,1.42.95,2.29,0,.87-.34,1.69-.96,2.3l-3.14,3.14c-.39.39-1.02.39-1.41,0s-.39-1.02,0-1.41l3.14-3.14c.24-.24.37-.55.37-.88,0-.33-.13-.64-.36-.87l-6.45-6.45-4.4,4.4c-1.98,1.98-4.6,3.29-7.37,3.69-.11.02-.21.02-.32.02-.58,0-1.13-.23-1.55-.65-.5-.5-.72-1.18-.62-1.87.4-2.77,1.71-5.39,3.69-7.37l4.4-4.4-6.45-6.45c-.47-.48-1.29-.47-1.75,0l-6.58,6.58c-4.83,4.83-7.5,11.26-7.5,18.08,0,2.27.3,4.54.9,6.74.35,1.26,1.34,2.26,2.61,2.61,7.54,2.06,15.48.6,21.78-4,.45-.33,1.07-.23,1.4.22s.23,1.07-.22,1.4c-4.77,3.49-10.42,5.3-16.18,5.3-2.43,0-4.89-.32-7.3-.98-1.94-.53-3.48-2.07-4.01-4.01-.65-2.37-.98-4.82-.98-7.26,0-7.36,2.87-14.28,8.08-19.5l6.58-6.58c1.21-1.23,3.37-1.23,4.59,0l6.44,6.44,29.77-29.77c-.22-.72-.05-1.54.52-2.11l4.97-4.97-1.44-3.84c-.97-2.58-.34-5.51,1.61-7.46l4.4-4.4c1.27-1.27,3.33-1.27,4.59,0l14.31,14.31c1.27,1.27,1.27,3.33,0,4.59ZM65.36,33.99l-3.36-3.36-29.58,29.58,3.36,3.35,29.58-29.58ZM34.36,64.99l-3.35-3.35-4.4,4.4c-1.68,1.68-2.79,3.89-3.12,6.24-.01.08.03.14.06.18.03.03.1.07.18.06,2.35-.34,4.56-1.44,6.24-3.12l4.4-4.4ZM88.32,21.98l-14.31-14.31c-.24-.24-.56-.36-.88-.36s-.64.12-.88.36l-4.4,4.4c-1.4,1.4-1.85,3.49-1.16,5.34l1.67,4.45c.14.37.05.78-.23,1.06l-5.42,5.42s-.05.12,0,.17c0,0,0,0,0,0l4.77,4.77s0,0,0,0c.05.04.12.04.17,0l5.42-5.42c.28-.28.69-.37,1.06-.23l4.45,1.67c1.85.69,3.94.24,5.34-1.16l4.4-4.4c.49-.49.49-1.28,0-1.77ZM84.97,22.16c.39.39.39,1.02,0,1.41l-3.52,3.52c-.19.19-.45.29-.71.29-.12,0-.24-.02-.35-.06l-8.09-3.04c-.27-.1-.48-.31-.58-.58l-3.04-8.09c-.14-.37-.05-.78.23-1.06l3.52-3.52c.38-.38,1.04-.38,1.41,0l11.13,11.13ZM82.85,22.87l-9.71-9.71-2.35,2.35,2.65,7.06,7.06,2.65,2.35-2.35Z"/></svg>