<?xml version="1.0" encoding="UTF-8"?><svg id="Line" xmlns="http://www.w3.org/2000/svg" viewBox="0 0 96 96"><defs><style>.cls-1{stroke-width:0px;}</style></defs><path class="cls-1" d="M27.33,80.53c3.25,0,5.89-2.64,5.89-5.89s-2.64-5.89-5.89-5.89-5.89,2.64-5.89,5.89,2.64,5.89,5.89,5.89ZM27.33,70.75c2.15,0,3.89,1.75,3.89,3.89s-1.75,3.89-3.89,3.89-3.89-1.75-3.89-3.89,1.75-3.89,3.89-3.89ZM81.46,66.88v-3.37c0-1.13-.81-2.11-1.92-2.32l-13.12-2.48.92-5.73,1.15.22c.15.03.29.04.44.04.54,0,1.07-.19,1.5-.54l5.83-4.8c.82-.67,1.09-1.82.65-2.79l-4.43-9.86c-.37-.82-1.19-1.37-2.08-1.39l-24.53-.76c-.84-.04-1.66.41-2.1,1.15l-3.47,5.78c-.32.53-.42,1.19-.27,1.79l1.43,5.67c.1.38.4.67.78.74l1.84.35-.92,5.74-12.81-2.42c-.14-.03-.29-.04-.44-.04h-2.58V17.83c0-1.56-.98-2.96-2.41-3.49l-14.92-6.02c-.93-.34-1.95-.3-2.85.12-.9.42-1.59,1.16-1.93,2.1-.71,1.93.29,4.07,2.18,4.77l12.48,5.1v31.44h-.74c-1.3,0-2.36,1.06-2.36,2.36v12.42c-1.7,2.23-2.72,5-2.72,8.02,0,7.31,5.95,13.26,13.26,13.26,6.02,0,11.1-4.03,12.72-9.53h9.08c.55,0,1-.45,1-1s-.45-1-1-1h-8.66c.07-.57.13-1.14.13-1.73,0-7.31-5.95-13.26-13.26-13.26-3.25,0-6.23,1.18-8.54,3.13v-10.3c0-.2.16-.36.36-.36h10.84s49.17,9.31,49.17,9.31c.17.03.29.18.29.36v3.37c-5.01.47-9.01,4.47-9.49,9.49h-11.85c-.55,0-1,.45-1,1s.45,1,1,1h11.85c.51,5.34,5.01,9.53,10.49,9.53,5.81,0,10.54-4.73,10.54-10.54,0-5.47-4.19-9.98-9.54-10.49ZM27.33,63.38c6.21,0,11.26,5.05,11.26,11.26s-5.05,11.26-11.26,11.26-11.26-5.05-11.26-11.26,5.05-11.26,11.26-11.26ZM7.11,11.23c.33-.89,1.32-1.35,2.18-1.04l8.45,3.41-1.32,3.23-8.29-3.39c-.89-.33-1.35-1.32-1.03-2.21ZM21.27,18.81l-3-1.22,1.32-3.23,4.62,1.86c.68.25,1.13.9,1.13,1.62v34.02h-3.45V19.73c0-.41-.25-.77-.62-.93ZM41.98,41.32c-.02-.09,0-.19.04-.27l3.47-5.79c.07-.11.19-.18.32-.18l24.53.76c.14,0,.26.09.32.21l4.43,9.86c.07.15.03.32-.1.43l-5.84,4.8c-.08.07-.19.1-.3.08l-25.61-4.85-1.27-5.05ZM46.06,48.94l19.32,3.66-.92,5.74-19.32-3.66.92-5.74ZM80.46,85.9c-4.7,0-8.53-3.82-8.54-8.52,0,0,0,0,0-.01,0,0,0,0,0-.01,0-4.7,3.83-8.52,8.54-8.52s8.54,3.83,8.54,8.54-3.83,8.54-8.54,8.54ZM80.46,72.28c-2.81,0-5.09,2.28-5.09,5.09s2.28,5.09,5.09,5.09,5.09-2.28,5.09-5.09-2.28-5.09-5.09-5.09ZM80.46,80.45c-1.7,0-3.09-1.38-3.09-3.09s1.38-3.09,3.09-3.09,3.09,1.38,3.09,3.09-1.38,3.09-3.09,3.09ZM55.53,77.37c0,.55-.45,1-1,1h-1.8c-.55,0-1-.45-1-1s.45-1,1-1h1.8c.55,0,1,.45,1,1ZM47.77,62.98c.55,0,1,.45,1,1v8.78c0,.55-.45,1-1,1s-1-.45-1-1v-8.78c0-.55.45-1,1-1ZM55.58,63.98v8.78c0,.55-.45,1-1,1s-1-.45-1-1v-8.78c0-.55.45-1,1-1s1,.45,1,1ZM61.39,73.76c-.55,0-1-.45-1-1v-8.78c0-.55.45-1,1-1s1,.45,1,1v8.78c0,.55-.45,1-1,1ZM70.35,46.28c.69-.57.92-1.54.55-2.36l-1.79-3.99c-.31-.69-1-1.15-1.76-1.18l-18.91-.59c-.72-.01-1.4.35-1.78.97l-1.08,1.8c-.27.46-.35,1-.22,1.51l.18.71c.09.38.4.67.78.74l20.96,3.97c.13.02.25.04.38.04.46,0,.91-.16,1.27-.46l1.42-1.17ZM67.66,45.91l-20.34-3.86-.02-.09,1.08-1.8,18.91.59,1.79,3.99-1.42,1.17Z"/></svg>