<?xml version="1.0" encoding="UTF-8"?><svg id="Line" xmlns="http://www.w3.org/2000/svg" viewBox="0 0 96 96"><defs><style>.cls-1{stroke-width:0px;}</style></defs><path class="cls-1" d="M49.1,9.75c0-.55.45-1,1-1h1.8c.55,0,1,.45,1,1s-.45,1-1,1h-1.8c-.55,0-1-.45-1-1ZM91,84.25c0,2.48-2.02,4.5-4.5,4.5H9.5c-2.48,0-4.5-2.02-4.5-4.5s2.02-4.5,4.5-4.5h.93c-.48-.72-.76-1.58-.76-2.5,0-2.48,2.02-4.5,4.5-4.5h.93c-.48-.72-.76-1.58-.76-2.5,0-2.48,2.02-4.5,4.5-4.5h4.89v-4.67c0-4.96,4.04-9,9-9h.95c.55,0,1-.45,1-1v-3.18c-.69-.32-1.17-1.01-1.17-1.81v-3.83c0-.8.48-1.5,1.17-1.81v-14.41c-1.29-.32-2.36-1.21-2.91-2.39-3.59.51-4.8,5.67-5.2,8.82-.29,2.26-2.22,3.96-4.5,3.96h-.21c-.58,0-1.15-.24-1.55-.66-.41-.42-.63-.97-.61-1.55.21-8.83,2.69-12.58,4.14-14.03.33-.33.51-.76.51-1.22,0-2.41,1.96-4.38,4.38-4.38h3.02c.69-1.52,2.21-2.58,3.98-2.58h7.37c.32-1.61,1.58-2.89,3.25-3.19.55-.1,1.06.27,1.16.81s-.27,1.06-.81,1.16c-.97.17-1.67,1.01-1.67,2v12.6c0,1.12.91,2.04,2.03,2.04h9.97V10.75h-1.5c-.55,0-1-.45-1-1s.45-1,1-1h1.5v-.5c0-1.65,1.35-3,3-3h3c1.65,0,3,1.35,3,3v21.67c0,1.65-1.35,3-3,3h-3c-1.65,0-3-1.35-3-3v-.5h-9.97c-1.41,0-2.64-.73-3.36-1.82v12.84c.69.32,1.17,1.01,1.17,1.81v3.83c0,.8-.48,1.49-1.16,1.81v4.19c0,4.96-4.04,9-9,9h-.95c-.55,0-1,.45-1,1v3.67h44.45c2.48,0,4.5,2.02,4.5,4.5,0,.92-.28,1.78-.76,2.5h.93c2.48,0,4.5,2.02,4.5,4.5,0,.92-.28,1.78-.76,2.5h.93c2.48,0,4.5,2.02,4.5,4.5ZM59,9.75v20.17c0,.55.45,1,1,1h3c.55,0,1-.45,1-1V8.25c0-.55-.45-1-1-1h-3c-.55,0-1,.45-1,1v1.5ZM42.83,46.08v-3.83h-7.33v3.83h7.33ZM36.67,40.25h5v-14.08h-5v14.08ZM31.33,21.66v-5.08h-2.62c-1.31,0-2.38,1.07-2.38,2.38,0,1-.39,1.94-1.1,2.64-1,1-3.35,4.22-3.55,12.66,0,.05.02.09.05.11.02.02.06.05.12.05h.21c1.27,0,2.35-.95,2.51-2.22.8-6.28,3.19-9.97,6.76-10.54ZM35.71,24.17h7.29v-10.17h-7.29c-1.31,0-2.38,1.07-2.38,2.38v5.42c0,1.31,1.07,2.38,2.38,2.38ZM25.72,65.75h5v-3.67c0-1.65,1.35-3,3-3h.95c3.86,0,7-3.14,7-7v-4h-5v3c0,1.65-1.35,3-3,3h-.95c-3.86,0-7,3.14-7,7v4.67ZM18.83,72.75h58.33c1.38,0,2.5-1.12,2.5-2.5s-1.12-2.5-2.5-2.5H18.83c-1.38,0-2.5,1.12-2.5,2.5s1.12,2.5,2.5,2.5ZM14.17,79.75h67.67c1.38,0,2.5-1.12,2.5-2.5s-1.12-2.5-2.5-2.5H14.17c-1.38,0-2.5,1.12-2.5,2.5s1.12,2.5,2.5,2.5ZM89,84.25c0-1.38-1.12-2.5-2.5-2.5H9.5c-1.38,0-2.5,1.12-2.5,2.5s1.12,2.5,2.5,2.5h77c1.38,0,2.5-1.12,2.5-2.5Z"/></svg>