<?xml version="1.0" encoding="UTF-8"?><svg id="Line" xmlns="http://www.w3.org/2000/svg" viewBox="0 0 96 96"><defs><style>.cls-1{stroke-width:0px;}</style></defs><path class="cls-1" d="M90.84,60.69c-1.07-3.38-3.56-6.88-7.22-10.13-.41-.37-1.05-.33-1.41.08-.37.41-.33,1.04.08,1.41,3.38,3.01,5.68,6.2,6.64,9.24.22.71-.22,1.15-.37,1.27-.14.12-.64.47-1.29.13l-9.89-5.28c-.3-3.51-2.15-6.16-5.67-8.06-5.33-2.87-9.23-6.93-10.97-11.26,3.13,2.71,7.3,5.87,11.2,7.45,1.01.4,2.07.91,3.15,1.5.49.27,1.09.09,1.36-.4.27-.48.09-1.09-.4-1.36-1.15-.63-2.28-1.17-3.37-1.6-5.01-2.02-10.62-6.95-13.51-9.71-1.75-1.68-4.14-2.5-6.54-2.26l-8.52.86L23.69,5.61c-.47-.62-1.31-.79-1.99-.41-.68.39-.96,1.19-.67,1.92l9.45,23.35L7.12,21.03c-.72-.3-1.53-.01-1.92.67-.39.68-.21,1.52.41,1.99l26.93,20.42-.85,8.55c-.24,2.4.58,4.78,2.26,6.53,2.77,2.91,7.71,8.54,9.71,13.5,2.38,5.89,8.88,15.59,17.02,18.16.32.1.65.15.97.15.93,0,1.82-.41,2.44-1.15.84-1.01.97-2.36.36-3.51l-13.85-25.91c2.12-1.06,4.05-2.42,5.73-4.1,1.68-1.68,3.04-3.61,4.1-5.72l25.91,13.85c.48.26,1,.38,1.51.38.71,0,1.42-.25,2-.74,1-.83,1.39-2.17.99-3.41ZM52.84,33.69c1.82-.18,3.63.44,4.96,1.72.05.05.11.11.17.16,1.02,5.97,5.78,11.76,12.8,15.55,2.91,1.57,4.01,3.47,4.43,5.13l-14.63-7.82s-.07-.05-.11-.07l-7.74-4.13c-1.67-.9-3.67-.87-5.33.08-.59.33-1.15.6-1.72.83-2.47,1.01-5.15,1.36-7.97,1.05-.48-.05-.88-.4-1.01-.88l-1.52-5.67c-.49-1.86.55-3.74,2.36-4.32.02,0,.51-.13.73-.15l14.57-1.47ZM24.17,9.57l17.61,23.22-3.72.38c-.21.02-.43.08-.64.12l-4.37-1.77-8.88-21.95ZM35.01,34.47c-1.58,1.34-2.33,3.52-1.76,5.67l.67,2.5L9.57,24.18l25.44,10.29ZM33.68,52.86l.73-7.33.34.26v.03c.34,1.26,1.43,2.2,2.72,2.35,2.27.25,4.53.09,6.65-.44-.78,1.6-.77,3.45.08,5.01l12.02,22.47c-1.66-.42-3.56-1.53-5.13-4.43-3.79-7.03-9.59-11.79-15.56-12.81-.05-.05-.1-.11-.15-.16-1.28-1.33-1.9-3.13-1.72-4.95ZM62.56,88.57c-.12.14-.56.59-1.27.37-6.63-2.09-13.07-10.32-15.77-17-1.53-3.8-4.55-7.85-7.45-11.2,4.33,1.74,8.4,5.64,11.28,10.98,1.91,3.52,4.55,5.37,8.06,5.67l5.29,9.89c.34.64-.01,1.15-.13,1.29ZM54.91,54.92c-1.54,1.54-3.31,2.79-5.26,3.75l-3.68-6.88c-.57-1.06-.55-2.33.05-3.39.29-.49.54-1.03.78-1.59.51-.22,1.02-.47,1.56-.77,1.07-.61,2.34-.63,3.4-.06l6.89,3.67c-.96,1.94-2.21,3.71-3.75,5.26ZM78.11,48.85c-.46-.31-.58-.93-.27-1.39.31-.46.93-.58,1.39-.27.5.34,1.01.69,1.51,1.05.45.33.54.95.21,1.4-.2.27-.5.41-.81.41-.21,0-.41-.06-.59-.19-.48-.35-.97-.68-1.45-1.01ZM38.71,42.82c.63.63,1.45.94,2.27.94s1.65-.31,2.27-.94c1.25-1.25,1.25-3.29,0-4.54h0c-1.25-1.25-3.29-1.25-4.54,0-1.25,1.25-1.25,3.29,0,4.54ZM40.13,39.7c.24-.24.55-.35.86-.35s.62.12.86.35c.47.47.47,1.24,0,1.71-.47.47-1.24.47-1.71,0-.47-.47-.47-1.24,0-1.71Z"/></svg>