<?xml version="1.0" encoding="UTF-8"?><svg id="Line" xmlns="http://www.w3.org/2000/svg" viewBox="0 0 96 96"><defs><style>.cls-1{stroke-width:0px;}</style></defs><path class="cls-1" d="M79.42,63.36c-.26-.49-.87-.68-1.35-.42-.49.26-.67.86-.42,1.35,2.43,4.59,3.52,9.03,3.06,12.49-.08.61-.58.79-.73.83-.18.05-.65.11-1-.36l-6.04-8.08c1.09-3,.58-5.89-1.59-8.82-3.14-4.24-4.77-8.87-4.66-12.96,1.45,3.22,3.49,7.05,5.87,9.73.37.41,1,.45,1.41.08.41-.37.45-1,.08-1.41-3.21-3.61-5.8-9.58-7.05-12.83-.81-2.07-2.47-3.68-4.55-4.42l-7.26-2.54-3.48-16.24c.45-.07.91-.15,1.35-.21.17-.03.34-.05.51-.08-.13,1.39.28,2.8,1.21,3.92,1.04,1.25,2.54,1.94,4.12,1.94.38,0,.77-.04,1.16-.13.32-.07.58-.29.71-.59.78-1.85.46-3.97-.83-5.51h0c-.19-.23-.39-.43-.61-.61,1.92-.39,3.83-.86,5.7-1.48.15,1.4.85,2.7,1.98,3.6.97.77,2.15,1.17,3.34,1.17.74,0,1.49-.15,2.2-.47.3-.13.51-.4.57-.72.38-1.97-.35-3.98-1.93-5.23-.3-.24-.63-.43-.97-.6.81-.45,1.61-.95,2.39-1.5.68-.48,1.12-1.23,1.23-2.06.1-.84-.15-1.69-.7-2.33-1.01-1.18-2.74-1.39-4.02-.48-1.99,1.41-4.22,2.37-6.58,3.11.13-.28.24-.56.32-.86.53-1.94-.06-4-1.54-5.36-.24-.22-.57-.31-.89-.24-1.97.43-3.52,1.9-4.05,3.84-.37,1.37-.18,2.78.48,3.98-1.54.28-3.12.53-4.72.78-.56.08-1.13.17-1.69.26l-1.66-7.74c-.16-.74-.82-1.23-1.57-1.17-.75.06-1.33.65-1.37,1.4l-.45,8.42c-1.85.38-3.54.8-5.14,1.3-1.95.62-3.81,1.33-5.53,2.12l-5.44-5.85c-.52-.56-1.34-.64-1.96-.2-.62.44-.8,1.25-.45,1.9l3.43,6.51c-1.25.78-2.43,1.61-3.53,2.5.01-.43-.02-.87-.12-1.31h0c-.44-1.96-1.92-3.51-3.86-4.02-.32-.08-.65,0-.9.2-1.54,1.29-2.23,3.32-1.79,5.29.35,1.58,1.38,2.87,2.78,3.59-1.11,1.29-2.1,2.67-2.96,4.13-.07-.17-.13-.34-.22-.5-.93-1.79-2.75-2.89-4.76-2.9-.33,0-.63.16-.82.42-1.16,1.65-1.3,3.78-.37,5.57.76,1.46,2.13,2.46,3.7,2.77-.25.71-.48,1.44-.67,2.18-.22.81-.08,1.68.36,2.39.44.7,1.16,1.19,1.98,1.35.19.04.38.05.56.05,1.33,0,2.54-.9,2.89-2.23.54-2.08,1.35-4,2.38-5.78.84,1.13,2.1,1.9,3.55,2.1.25.04.5.05.75.05,1.72,0,3.35-.83,4.37-2.26.19-.27.24-.61.13-.91-.67-1.89-2.33-3.24-4.32-3.52-.35-.05-.7-.05-1.04-.03,1.36-1.41,2.95-2.67,4.72-3.8l7.98,15.16-3.96,6.64c-1.13,1.9-1.38,4.19-.66,6.3,1.15,3.44,3.03,9.93,2.77,14.75-.31,5.76,1.3,16.23,7.01,21.48.56.52,1.28.79,2.01.79.43,0,.86-.09,1.27-.28,1.11-.52,1.76-1.61,1.69-2.83l-1.4-26.43c2.12-.06,4.2-.44,6.2-1.17,2-.73,3.84-1.77,5.51-3.07l15.84,21.2c.57.77,1.43,1.2,2.34,1.2.25,0,.5-.03.75-.1,1.18-.3,2.05-1.28,2.22-2.5.51-3.87-.65-8.73-3.28-13.69ZM59.13,23.32c-1.05.06-2.08-.38-2.78-1.21-.69-.83-.93-1.92-.68-2.95,1.04-.06,2.08.38,2.77,1.21.69.83.94,1.92.69,2.95ZM71.25,19.66c-1.02.27-2.12.05-2.96-.62-.85-.67-1.31-1.69-1.27-2.75,1.02-.27,2.12-.05,2.96.63h0c.84.67,1.31,1.69,1.27,2.75ZM58.34,9.39c.28-1.04,1.04-1.87,2.02-2.26.65.83.88,1.92.6,2.96-.28,1.04-1.03,1.87-2.01,2.26-.66-.83-.89-1.92-.6-2.97ZM15.56,32.63c-.5-.96-.51-2.08-.04-3.03,1.04.17,1.95.82,2.45,1.77.5.96.51,2.08.05,3.02-1.04-.17-1.96-.81-2.45-1.77ZM65.16,43.69s.04.1.06.15c-1.45,5.3.23,11.89,4.54,17.71,1.67,2.26,1.92,4.14,1.69,5.61l-13.67-18.29c-1.05-1.4-2.73-2.15-4.48-2.02-.59.04-1.15.05-1.71.02-2.41-.13-4.72-.87-6.88-2.18-.34-.21-.53-.62-.46-.98l.07-.35s.01-.07.01-.11l.86-4.8c.3-1.66,1.9-2.81,3.55-2.55.21.03.39.08.58.15l4.58,1.61s.08.04.12.05l7.79,2.73c1.53.54,2.75,1.73,3.35,3.26ZM44.67,28.89l-5.58-6.01c.94-.37,1.93-.72,3-1.06.91-.29,1.9-.56,3-.81l-.42,7.88ZM37.14,23.72l7.59,8.17s.05.06.08.09l1.97,2.12c-1.78.55-3.21,2.05-3.56,3.98l-.36,2.01-8.01-15.22c.74-.41,1.5-.8,2.29-1.16ZM52.53,15.59c6.52-1.02,12.68-1.98,17.78-5.58.44-.31,1.01-.24,1.35.15.18.22.27.5.24.79-.03.28-.18.52-.4.68-1.68,1.19-3.48,2.12-5.35,2.86-.15.05-.3.1-.44.16-.01,0-.02.01-.03.02-4.11,1.55-8.54,2.24-12.88,2.91-.48.07-.98.15-1.47.23l-.42-1.96c.53-.08,1.06-.17,1.63-.25ZM47.67,10.31l5.33,24.9-3.02-1.06c-.17-.06-.37-.1-.56-.14l-2.86-3.08,1.11-20.63ZM32.88,19.13c-.28.15-.55.29-.81.44l-1.59-3.03,2.41,2.59ZM22.09,22.81c-.24-1.06.05-2.14.74-2.94.96.43,1.68,1.29,1.91,2.34.23,1.05-.04,2.14-.73,2.94-.97-.43-1.68-1.29-1.92-2.34ZM20.67,39.57c-.13.5-.63.81-1.15.71-.27-.05-.51-.21-.66-.45-.15-.24-.2-.53-.12-.81,1.96-7.36,6.47-13.15,13.42-17.22.84-.5,1.75-.98,2.78-1.48,1.82-.88,3.82-1.66,5.94-2.33,1.38-.43,2.84-.81,4.43-1.15l-.11,2.08c-1.38.31-2.61.63-3.72.98-1.65.52-3.13,1.07-4.5,1.67-1.39.6-2.73,1.28-3.98,2.03-6.4,3.78-10.55,9.15-12.33,15.95ZM29.18,31.73c1.07.15,1.98.79,2.49,1.72-.74.75-1.79,1.12-2.87.97-1.07-.15-1.99-.79-2.49-1.72.74-.75,1.79-1.11,2.87-.97ZM38.87,48.74l3.33-5.59.08.15v.03c-.22,1.19.34,2.42,1.38,3.06,1.73,1.05,3.55,1.77,5.44,2.16-1.18,1.03-1.82,2.52-1.73,4.08l1.21,22.8c-1.12-.98-2.13-2.58-2.29-5.39-.41-7.23-3.33-13.36-7.84-16.51-.02-.05-.03-.11-.05-.16-.53-1.55-.35-3.24.49-4.63ZM48.69,88.94c-.14.07-.62.25-1.08-.17-4.6-4.23-6.71-13.41-6.36-19.9.2-3.59-.66-7.9-1.7-11.66,2.71,3.07,4.43,7.68,4.73,12.95.21,3.63,1.67,6.18,4.42,7.79l.53,10.07c.03.59-.41.85-.55.91ZM55.36,58.44c-1.81.66-3.71.99-5.62,1.05l-.37-6.96c-.06-1.05.43-2.06,1.3-2.67.41-.29.82-.62,1.23-.98.51.01,1.02,0,1.55-.03,1.08-.08,2.09.37,2.73,1.22l4.17,5.57c-1.5,1.19-3.17,2.13-4.99,2.79ZM74.83,59.83c-.33-.44-.24-1.07.2-1.4.44-.33,1.07-.24,1.4.2.36.48.72.99,1.07,1.51.31.46.18,1.08-.28,1.39-.17.11-.36.17-.55.17-.32,0-.64-.16-.83-.45-.33-.5-.67-.97-1.01-1.43ZM50.77,38.7c-.73-.34-1.54-.38-2.29-.1-.75.27-1.36.82-1.7,1.55s-.38,1.54-.1,2.29c.44,1.22,1.6,1.98,2.83,1.98.34,0,.68-.06,1.02-.18,1.55-.56,2.36-2.29,1.8-3.84-.27-.75-.82-1.36-1.55-1.7ZM49.83,42.36c-.52.19-1.09-.08-1.28-.6-.09-.25-.08-.52.03-.76s.31-.42.57-.52c.11-.04.23-.06.34-.06.14,0,.29.03.42.1.24.11.42.31.52.56.19.52-.08,1.09-.6,1.28Z"/></svg>