<?xml version="1.0" encoding="UTF-8"?><svg id="Line" xmlns="http://www.w3.org/2000/svg" viewBox="0 0 96 96"><defs><style>.cls-1{stroke-width:0px;}</style></defs><path class="cls-1" d="M40.79,41.58l.15-1.8c.05-.55.53-.96,1.08-.91.55.05.96.53.91,1.08l-.15,1.8c-.04.52-.48.92-1,.92-.03,0-.06,0-.08,0-.55-.05-.96-.53-.91-1.08ZM55.47,58.93c0-2.3,3.3-6.54,3.96-7.37.38-.47,1.18-.47,1.56,0,.66.83,3.96,5.07,3.96,7.37,0,2.62-2.13,4.74-4.74,4.74s-4.74-2.13-4.74-4.74ZM57.47,58.93c0,1.51,1.23,2.74,2.74,2.74s2.74-1.23,2.74-2.74c0-.98-1.42-3.29-2.74-5.1-1.32,1.8-2.74,4.12-2.74,5.1ZM51.01,71.77c-.63,0-1.24-.27-1.67-.73-.43-.46-.65-1.09-.59-1.72l1.96-24.15c.1-1.17,1.09-2.09,2.26-2.09h14.49c1.17,0,2.17.92,2.26,2.09l1.96,24.15c.05.63-.17,1.26-.59,1.72-.43.46-1.04.73-1.67.73h-18.4ZM50.81,69.69s.1.09.2.09h18.4c.1,0,.16-.05.2-.09.04-.04.08-.11.07-.21l-1.96-24.15c-.01-.14-.13-.25-.27-.25h-14.49c-.14,0-.26.11-.27.25l-1.96,24.15c0,.1.03.17.07.21ZM90.38,41.45c-2.57,10.69-7.93,22.1-8.81,23.95l1.03,12.71c.08.98-.26,1.96-.93,2.69-.67.73-1.62,1.14-2.61,1.14h-37.69c-.99,0-1.94-.42-2.61-1.14-.67-.73-1.01-1.71-.93-2.69l.11-1.32-23-23-8.04-1.34c-.84-.14-1.53-.73-1.79-1.55-.26-.81-.05-1.7.56-2.3l12.68-12.68c.6-.6,1.49-.82,2.3-.56.81.26,1.41.95,1.55,1.79l1.34,8.04,8.16,8.16,8.57-5.29.23-2.9c.04-.55.51-.97,1.08-.92.55.04.96.53.92,1.08l-2.67,32.93c-.04.43.11.85.4,1.17.3.32.7.5,1.14.5h37.69c.44,0,.84-.18,1.14-.5.3-.32.44-.74.4-1.17l-3.4-41.94c-.07-.8-.73-1.41-1.54-1.41h-30.89c-.81,0-1.48.61-1.54,1.41-.04.53-.48.95-1.04.92-.54-.02-.96-.46-.96-.99h0c.08-.93.47-1.73,1.05-2.31,1.29-3.04,6.03-12.41,17.2-17.75,2.96-1.42,6.11-2.14,9.35-2.14,4.98,0,9.9,1.77,13.85,4.98,6.76,5.47,9.71,14.06,7.7,22.41ZM33.15,54.82l6.08,6.08.84-10.34-6.91,4.27ZM7.23,50.48l7.84,1.31,6.46-6.46-1.31-7.84c-.02-.13-.11-.19-.18-.21-.03,0-.06-.01-.09-.01-.06,0-.12.02-.19.08l-12.68,12.68c-.1.1-.09.2-.07.27.02.07.08.16.21.18ZM38.15,74.18l.86-10.67-16.42-16.42-5.77,5.77,21.32,21.32ZM79.2,36.17l1.13,13.89c1.34-3.65,2.41-7.09,3.17-10.27,1.37-5.67-.65-11.51-5.26-15.24-2.77-2.24-6-3.42-9.35-3.42-2.17,0-4.31.5-6.35,1.48-5.98,2.87-9.65,7.25-11.65,10.33h24.78c1.86,0,3.38,1.4,3.54,3.25ZM81.42,20.59c-3.6-2.92-8.07-4.53-12.59-4.53-2.94,0-5.8.66-8.49,1.95-8.83,4.23-13.4,11.11-15.36,14.91h3.55c1.92-3.26,5.99-8.7,13.13-12.13,2.32-1.11,4.74-1.67,7.22-1.67,3.81,0,7.47,1.34,10.61,3.87,5.22,4.22,7.5,10.84,5.95,17.27-1.05,4.37-2.65,9.21-4.74,14.39l.54,6.69c1.99-4.47,5.34-12.61,7.2-20.35,1.83-7.6-.86-15.41-7.02-20.39Z"/></svg>