<?xml version="1.0" encoding="UTF-8"?><svg id="Line" xmlns="http://www.w3.org/2000/svg" viewBox="0 0 96 96"><defs><style>.cls-1{stroke-width:0px;}</style></defs><path class="cls-1" d="M46.4,65.95l-.18,1.83c-.05.52-.49.9-.99.9-.03,0-.07,0-.1,0-.55-.05-.95-.54-.9-1.09l.18-1.83c.05-.55.54-.95,1.09-.9.55.05.95.54.9,1.09ZM89.12,10.98l-35.07,35.07.04.04c.45.45.68,1.06.64,1.69-.04.63-.35,1.22-.85,1.61l-5.75,4.47c-.32.25-.53.63-.57,1.03l-.77,7.43c-.06.55-.56.94-1.1.89-.55-.06-.95-.55-.89-1.1l.77-7.43c.1-.93.58-1.8,1.32-2.39l5.76-4.48c.07-.05.08-.11.08-.15,0-.04,0-.1-.06-.15l-4.89-4.89c-.06-.06-.12-.06-.16-.06-.04,0-.1.02-.14.07l-4.48,5.75c-.56.74-1.44,1.23-2.4,1.33l-21.74,2.25c-.1,0-.15.07-.17.12-.03.07-.03.13,0,.19.34.55.69,1.09,1.04,1.61.03.03.05.06.07.1,1.45,2.16,3.02,4.29,4.67,6.31,1.62,1.95,3.3,3.8,5,5.5,1.71,1.71,3.5,3.34,5.48,4.98,2.03,1.68,4.15,3.25,6.3,4.68.61.41,1.19.78,1.75,1.14.06.03.12.04.19,0,.05-.02.1-.07.11-.16l.54-5.21c.06-.55.54-.94,1.1-.89.55.06.95.55.89,1.1l-.54,5.21c-.08.76-.53,1.41-1.22,1.75-.31.15-.64.23-.97.23-.4,0-.8-.11-1.16-.33-.22-.14-.46-.3-.69-.45l-2.84,8.88,1.38,2.66c.25.49.06,1.09-.43,1.35-.15.08-.3.11-.46.11-.36,0-.71-.2-.89-.54l-1.57-3.03c-.12-.24-.15-.51-.06-.76l1.28-3.99c-2.13-1.34-4.21-2.79-6.22-4.34l-2.68,4.39.7,2.92c.13.54-.2,1.08-.74,1.21-.08.02-.16.03-.24.03-.45,0-.86-.31-.97-.77l-.8-3.32c-.06-.26-.02-.53.12-.76l3.02-4.95c-1.85-1.5-3.63-3.1-5.34-4.76l-4.12,4.12v2.99c0,.55-.45,1-1,1s-1-.45-1-1v-3.41c0-.27.11-.52.29-.71l4.42-4.42c-1.66-1.7-3.26-3.51-4.79-5.38l-4.6,2.8-.71,2.91c-.11.46-.52.76-.97.76-.08,0-.16,0-.24-.03-.54-.13-.87-.67-.73-1.21l.81-3.31c.06-.26.23-.48.45-.62l4.74-2.89c-1.54-2-3-4.08-4.34-6.23l-3.59,1.14-1.37,2.66c-.18.34-.53.54-.89.54-.15,0-.31-.04-.46-.11-.49-.25-.68-.86-.43-1.35l1.56-3.02c.12-.24.33-.41.58-.5l9.27-2.96c-.14-.22-.28-.42-.42-.64-.4-.65-.44-1.44-.11-2.13.34-.69,1-1.15,1.77-1.23l21.74-2.25c.41-.04.78-.25,1.02-.56l4.49-5.76c.38-.49.96-.8,1.6-.84.63-.04,1.25.19,1.7.64l.03.03L84.29,6.16c1.33-1.33,3.49-1.33,4.82,0,.64.64,1,1.5,1,2.41s-.35,1.77-1,2.41ZM18.79,62.74l3.43-2.09c-1.28-1.61-2.5-3.26-3.65-4.94l-3.87,1.23c1.27,2,2.64,3.94,4.09,5.81ZM24.52,69.34l2.84-2.84c-1.31-1.35-2.61-2.78-3.87-4.27l-3.45,2.1c1.43,1.75,2.93,3.43,4.48,5.02ZM30.92,75.19l2.1-3.44c-1.5-1.27-2.9-2.53-4.24-3.84l-2.83,2.83c1.59,1.55,3.25,3.03,4.97,4.44ZM38.29,80.54l1.23-3.86c-1.67-1.14-3.33-2.36-4.94-3.65l-2.09,3.42c1.87,1.45,3.82,2.82,5.8,4.09ZM88.11,8.57c0-.38-.15-.73-.41-1-.55-.55-1.45-.55-1.99,0l-35.07,35.07,1.99,1.99L87.7,9.57c.27-.27.41-.62.41-1Z"/></svg>