<?xml version="1.0" encoding="UTF-8"?><svg id="Line" xmlns="http://www.w3.org/2000/svg" viewBox="0 0 96 96"><defs><style>.cls-1{stroke-width:0px;}</style></defs><path class="cls-1" d="M78.98,57.81l-.03.97c-.01.29-.02.58-.04.87-.04.53-.48.93-1,.93-.02,0-.05,0-.07,0-.55-.04-.97-.52-.93-1.07.02-.27.03-.54.04-.8l.03-.97c.02-.54.46-.97,1-.97.01,0,.02,0,.03,0,.55.02.98.48.97,1.03ZM79.29,33.98c-.7,1.09-1.76,1.83-3,2.14,1.62,5.84,2.53,11.9,2.68,18.04.01.55-.42,1.01-.98,1.02h-.02c-.54,0-.99-.43-1-.98-.15-6.02-1.04-11.97-2.64-17.68-8.35,1.59-16.87,2.4-25.34,2.4-9.06,0-18.16-.92-27.07-2.73-.05-.01-.1-.03-.15-.04-2.08,7.29-3.01,14.87-2.73,22.57.21,5.98,1.08,14.19,2.08,19.53.36,2.04,0,4.18-1.01,5.88-.42.7-.57,1.52-.42,2.38.18,1.16.94,2.12,1.88,2.4.91.27,1.8-.03,2.46-.83,1.57-1.92,3.69-2.87,5.8-2.58,12.03,1.6,24.36,1.59,36.38,0,2.08-.29,4.17.65,5.72,2.56.62.78,1.53,1.11,2.44.88.92-.25,1.7-1.18,1.91-2.31.17-.91.02-1.81-.43-2.53-1-1.65-1.37-3.77-.99-5.83.77-4.08,1.47-9.88,1.84-15.14.04-.55.53-.98,1.07-.93.55.04.97.52.93,1.07-.37,5.34-1.09,11.22-1.87,15.37-.28,1.58-.02,3.19.73,4.43.71,1.15.95,2.55.69,3.95-.35,1.9-1.68,3.43-3.38,3.88-.35.09-.71.13-1.06.13-1.32,0-2.57-.61-3.44-1.7-1.09-1.35-2.52-2.02-3.89-1.83-12.2,1.61-24.7,1.62-36.91,0-1.4-.18-2.87.5-4,1.87-1.16,1.41-2.92,1.97-4.58,1.47-1.66-.5-2.98-2.1-3.28-3.99-.22-1.3.02-2.63.68-3.72.76-1.29,1.04-2.93.76-4.5-1.02-5.42-1.91-13.76-2.12-19.82-.29-8.01.69-15.91,2.89-23.49-.48-.36-.91-.79-1.25-1.32-.74-1.15-.97-2.52-.66-3.84.62-2.64,3.19-4.29,5.85-3.75.78.16,1.57.3,2.36.45l11.63-16.16c2.61-3.63,6.32-5.71,10.19-5.71h0c3.87,0,7.58,2.08,10.19,5.71l11.86,16.45c1.34-.23,2.67-.47,4.01-.74,2.65-.54,5.22,1.11,5.85,3.75.31,1.33.08,2.69-.66,3.84ZM28.43,27.21c13.04,2.16,26.4,2.25,39.47.27l-11.28-15.64c-2.26-3.15-5.3-4.88-8.56-4.88-3.26,0-6.3,1.73-8.56,4.88l-11.06,15.37ZM78,30.59c-.37-1.58-1.91-2.57-3.5-2.25-16.79,3.42-34.23,3.42-51.02,0-.2-.04-.41-.06-.6-.06-1.36,0-2.57.93-2.9,2.31-.19.8-.05,1.62.39,2.31.44.69,1.13,1.17,1.94,1.33,17.55,3.57,35.79,3.57,53.35,0,.81-.16,1.5-.64,1.94-1.33.44-.69.58-1.51.39-2.31ZM47.59,56.17c2.73-.68,4.34-.64,5.64-.61,1.27.03,2.1.06,3.56-.66.32-.16.71-.13,1.01.07.3.2.46.55.43.92-.03.3-.72,7.33-5.48,10.05-1.21.69-2.57,1.04-4.05,1.04-1.66,0-3.48-.46-5.45-1.32-1.58,1.33-2.65,3.06-3.18,5.15-.11.45-.52.76-.97.76-.08,0-.16,0-.25-.03-.54-.13-.86-.68-.73-1.21.65-2.57,1.99-4.69,3.97-6.31-.07-2.52.96-6.71,5.49-7.85ZM48.07,58.11c-3.62.91-3.98,4.39-3.97,5.76,3.1,1.35,5.67,1.47,7.65.33,2.62-1.5,3.74-4.83,4.2-6.85-1.01.26-1.85.24-2.78.21-1.24-.04-2.64-.07-5.1.55ZM48.17,46.52c9.18,0,16.66,7.47,16.66,16.66s-7.47,16.66-16.66,16.66-16.66-7.47-16.66-16.66,7.47-16.66,16.66-16.66ZM48.17,48.52c-8.08,0-14.66,6.57-14.66,14.66s6.58,14.66,14.66,14.66,14.66-6.58,14.66-14.66-6.58-14.66-14.66-14.66ZM46,20.56c-.55,0-1,.45-1,1s.45,1,1,1,1-.45,1-1-.45-1-1-1ZM37.1,21.56c-.55,0-1,.45-1,1s.45,1,1,1,1-.45,1-1-.45-1-1-1ZM41.54,15.68c-.55,0-1,.45-1,1s.45,1,1,1,1-.45,1-1-.45-1-1-1ZM51.8,19.7c.55,0,1-.45,1-1s-.45-1-1-1-1,.45-1,1,.45,1,1,1ZM52.8,14.49c.55,0,1-.45,1-1s-.45-1-1-1-1,.45-1,1,.45,1,1,1ZM57.8,19.7c.55,0,1-.45,1-1s-.45-1-1-1-1,.45-1,1,.45,1,1,1ZM57.8,25.54c.55,0,1-.45,1-1s-.45-1-1-1-1,.45-1,1,.45,1,1,1ZM51.46,26.54c.55,0,1-.45,1-1s-.45-1-1-1-1,.45-1,1,.45,1,1,1ZM46.43,11c-.55,0-1,.45-1,1s.45,1,1,1,1-.45,1-1-.45-1-1-1ZM41.54,24.54c-.55,0-1,.45-1,1s.45,1,1,1,1-.45,1-1-.45-1-1-1Z"/></svg>