<?xml version="1.0" encoding="UTF-8"?><svg id="Line" xmlns="http://www.w3.org/2000/svg" viewBox="0 0 96 96"><defs><style>.cls-1{stroke-width:0px;}</style></defs><path class="cls-1" d="M79.89,55.85c.11.71.21,1.31.29,1.79.09.54-.28,1.06-.82,1.15-.06,0-.11.01-.17.01-.48,0-.9-.35-.99-.83-.08-.48-.18-1.1-.29-1.81-.08-.55.29-1.06.84-1.14.55-.08,1.06.29,1.14.84ZM87.45,7.98v3.93c0,1.65-1.35,3-3,3h-2.54c-4.98,10.8-3.74,27.97-2.53,37.35.07.55-.32,1.05-.86,1.12-.04,0-.09,0-.13,0-.5,0-.93-.37-.99-.87-.22-1.71-.44-3.69-.63-5.83h-4.04c-.78,0-1.51.3-2.07.85l-2.42,2.36c-.94.91-2.17,1.41-3.47,1.41h-10.05c-1.12,0-2.22-.39-3.09-1.09l-3.63-2.88c-.53-.42-1.18-.65-1.85-.65h-4.91c-.93,3.72-2.43,7.15-4.75,9.89-5.33,6.28-11.56,8.14-16.56,9.64-5.64,1.69-9.37,2.8-9.37,9.06v7.33h34.55c2.58,0,5.13-.85,7.19-2.4l5.01-3.79c2.45-1.84,5.35-2.81,8.39-2.81h12.84c.37-1.84,1.18-6.79.35-12.09-.08-.55.29-1.06.83-1.14.55-.08,1.06.29,1.14.83,1.03,6.63-.3,12.58-.53,13.52v12.65c0,2.01-1.64,3.64-3.65,3.64h-9.27c-1.42,0-2.73-.84-3.32-2.13l-.95-2.08c-.2-.44-.58-.76-1.04-.9-.46-.13-.95-.06-1.35.2l-6.68,4.32c-.59.38-1.28.59-1.98.59H12.2c-2.01,0-3.64-1.63-3.64-3.64v-12.11c0-7.75,5-9.24,10.79-10.97,5-1.5,10.67-3.19,15.61-9.01,9.27-10.93,4.55-34.11,3.05-40.37h-2.45c-1.65,0-3-1.35-3-3v-3.93c0-1.65,1.35-3,3-3h48.89c1.65,0,3,1.35,3,3ZM45.1,84.6H10.55v2.78c0,.91.74,1.64,1.64,1.64h39.9c.32,0,.63-.09.89-.26l6.68-4.32c.89-.58,1.98-.74,3-.44,1.02.3,1.86,1.02,2.3,1.99l.95,2.08c.27.58.85.96,1.5.96h9.27c.91,0,1.65-.74,1.65-1.64v-11.78h-12.64c-2.6,0-5.09.83-7.19,2.41l-5.01,3.79c-2.41,1.81-5.39,2.8-8.39,2.8ZM76.61,44.69c-.12-1.64-.21-3.34-.26-5.11h-3.62c-.78,0-1.52.3-2.07.84l-2.41,2.36c-.93.91-2.17,1.41-3.47,1.41h-10.05c-1.12,0-2.22-.38-3.1-1.08l-3.63-2.89c-.52-.42-1.18-.65-1.85-.65h-3.81c-.13,1.72-.35,3.44-.67,5.11h4.48c1.12,0,2.22.39,3.09,1.09l3.63,2.88c.53.42,1.18.65,1.85.65h10.05c.78,0,1.51-.3,2.07-.85l2.42-2.36c.94-.91,2.17-1.41,3.47-1.41h3.88ZM79.73,14.91h-39.67c.94,4.05,2.78,13.33,2.4,22.67h3.69c1.12,0,2.22.38,3.1,1.08l3.62,2.89c.52.42,1.18.65,1.85.65h10.05c.78,0,1.52-.3,2.07-.85l2.41-2.36c.93-.91,2.17-1.41,3.47-1.41h3.58c-.09-7.75.67-16.15,3.42-22.67ZM85.45,7.98c0-.55-.45-1-1-1h-48.89c-.55,0-1,.45-1,1v3.93c0,.55.45,1,1,1h48.89c.55,0,1-.45,1-1v-3.93Z"/></svg>