<?xml version="1.0" encoding="UTF-8"?><svg id="Line" xmlns="http://www.w3.org/2000/svg" viewBox="0 0 96 96"><defs><style>.cls-1{stroke-width:0px;}</style></defs><path class="cls-1" d="M74.65,34.26l-2.21-11.03c-.47-2.35-2.55-4.06-4.95-4.06h-10.86v-.02c0-1.1-.9-2-2-2h-1.04v-6.1h.74c.62,0,1.2-.28,1.59-.77.38-.49.52-1.12.37-1.73l-.51-2.02c-.22-.9-1.03-1.52-1.95-1.52h-6.52c-.92,0-1.73.63-1.95,1.52l-.51,2.02c-.15.6-.02,1.23.37,1.73.38.49.96.77,1.59.77h.74v6.1h-1.04c-1.1,0-2,.9-2,2v.02h-3.06v-.02c0-1.1-.9-2-2-2h-3.06c-1.1,0-2,.9-2,2v1.04h-5.08v-1.02c0-.3-.14-.59-.37-.78-.24-.19-.54-.26-.84-.2l-6.07,1.35c-.46.1-.78.51-.78.98v5.4c0,.47.33.87.78.98l6.07,1.35c.07.02.14.02.22.02.23,0,.45-.08.63-.22.24-.19.37-.48.37-.78v-1.02h5.08v1.04c0,1.1.9,2,2,2h3.06c1.1,0,2-.9,2-2v-.02h3.06v.17c-.65.26-1.15.85-1.25,1.58l-.63,4.35h-.08c-.95,0-1.78.67-1.97,1.6l-1.01,4.84c-5.7,3.35-9.22,9.48-9.22,16.11v28.04c0,3.9,3.17,7.07,7.07,7.07h26.32c3.9,0,7.07-3.17,7.07-7.07v-5.93c0-.55-.45-1-1-1s-1,.45-1,1v5.93c0,2.8-2.27,5.07-5.07,5.07h-26.32c-2.8,0-5.07-2.27-5.07-5.07v-20.78h3.66v17.85c0,.55.45,1,1,1h4c.55,0,1-.45,1-1s-.45-1-1-1h-3v-10h3c.55,0,1-.45,1-1s-.45-1-1-1h-3v-4.85h30.8v5.85c0,.55.45,1,1,1s1-.45,1-1v-13.11c0-3.35-.9-6.63-2.59-9.49-1.6-2.74-3.89-5.01-6.63-6.62l-1.01-4.84c-.19-.93-1.02-1.6-1.97-1.6h-.08l-.63-4.35c-.11-.73-.6-1.32-1.25-1.58v-.17h8.51s2.67,13.36,2.67,13.36c.09.47.5.8.98.8,1.8,0,3.48-.8,4.62-2.19,1.14-1.39,1.59-3.2,1.24-4.96ZM46.79,9.03l.52-2.03h6.53s.5,2.05.5,2.05h-7.54ZM49.55,11.05h2.05v6.1h-2.05v-6.1ZM46.51,19.14h8.12v8.12h-8.12v-8.12ZM27.31,26.01l-4.07-.9v-3.79l4.07-.9v5.6ZM29.31,24.23v-2.05h5.08v2.05h-5.08ZM36.39,27.26v-8.12h3.06v8.12s-3.06,0-3.06,0ZM41.45,25.24v-4.07h3.06v4.07h-3.06ZM66.49,47.42c1.51,2.55,2.31,5.48,2.31,8.47v5.26h-30.8v-3.15h3c.55,0,1-.45,1-1s-.45-1-1-1h-4c-.55,0-1,.45-1,1v4.15h-3.66v-5.26c0-5.98,3.2-11.5,8.37-14.48h19.71c2.51,1.44,4.6,3.52,6.06,6.01ZM41.68,39.41l.86-4.07h16.08s.85,4.07.85,4.07h-17.78ZM44.64,33.34l.6-4.07h10.66s.59,4.07.59,4.07h-11.85ZM71.86,37.95c-.59.71-1.39,1.19-2.27,1.38l-2.49-12.47c-.19-.94-1.02-1.62-1.97-1.62h-8.49v-4.07h10.86c1.45,0,2.71,1.03,2.99,2.45l2.21,11.03c.23,1.17-.07,2.38-.82,3.3ZM70.8,72.6v1.8c0,.55-.45,1-1,1s-1-.45-1-1v-1.8c0-.55.45-1,1-1s1,.45,1,1Z"/></svg>