<?xml version="1.0" encoding="UTF-8"?><svg id="Line" xmlns="http://www.w3.org/2000/svg" viewBox="0 0 96 96"><defs><style>.cls-1{stroke-width:0px;}</style></defs><path class="cls-1" d="M23.7,46.16c.39.39.39,1.02,0,1.41-.2.2-.45.29-.71.29s-.51-.1-.71-.29l-1.27-1.27c-.39-.39-.39-1.02,0-1.41s1.02-.39,1.41,0l1.27,1.27ZM83.79,86.47l-.07.25-2.06,2.06c-1.25,1.25-2.9,1.93-4.65,1.93-.04,0-.09,0-.13,0-1.81-.04-3.49-.79-4.72-2.12-2.57-2.78-6.02-6.03-8.01-7.57-5.71-4.41-12.15-11.14-20.88-21.82-2.52-3.08-5.72-5.66-8.37-7.64-.43.35-1.47,1.2-1.47,1.2-.87.72-1.92,1.08-2.98,1.08-1.2,0-2.39-.46-3.3-1.37l-2.32-2.32c-.39-.39-.39-1.02,0-1.41s1.02-.39,1.41,0l2.32,2.32c.98.98,2.52,1.05,3.58.17,0,0,1.45-1.19,2.1-1.71,2.39-1.93,5.02-3.9,7.81-5.84.64-.44,1.28-.88,1.93-1.32,0,0,6.88-4.4,10.24-6.29-2.54-6.57-6.33-11.26-9.13-14.06-3.81-3.81-8.45-6.86-13.46-8.9-1.9,3.95-4.12,7.77-6.62,11.35-.43.63-.87,1.23-1.31,1.82-2.18,2.97-4.62,5.84-7.23,8.52l-.23.23c-1,1.03-.98,2.71.04,3.73l3.59,3.59c.39.39.39,1.02,0,1.41s-1.02.39-1.41,0l-3.59-3.59c-1.63-1.63-1.78-4.2-.47-6.02l-3.17-3.17c-1.95-1.95-1.95-5.12,0-7.07l2.02-2.02c1.92-1.92,4.97-1.97,6.95-.11l.4.37c.7.65,1.42,1.33,2.15,2.01.21-.29.41-.57.62-.86,2.61-3.73,4.91-7.72,6.84-11.84,0,0,0,0,0-.01,0,0,.01-.02.02-.02,0-.01.01-.03.02-.04.74-1.58,1.45-3.25,2.11-4.95.44-1.11,1.65-1.68,2.77-1.3,4.32,1.45,10.71,4.4,16.57,10.25,4.66,4.66,8.21,10.43,10.29,16.68.35,1.04-.13,2.19-1.11,2.68-5.28,2.67-10.46,5.69-15.38,8.98,0,0-1,.68-1.31.89,6.94,6.9,11.99,12.45,15.38,16.91,4.89,6.43,10.8,10,15.56,12.87,5.79,3.49,10.37,6.25,8.66,12.08ZM21.56,25.78c-.79-.74-1.57-1.47-2.32-2.18l-.4-.37c-1.19-1.11-3.02-1.08-4.17.07l-2.02,2.02c-1.17,1.17-1.17,3.07,0,4.24l3.09,3.09c2.07-2.18,4.03-4.49,5.82-6.87ZM55.99,35.05c1.32-.72,2.65-1.42,3.99-2.09.1-.05.15-.16.11-.26-2.5-7.54-6.72-12.81-9.81-15.9-5.58-5.57-11.67-8.39-15.79-9.77-.11-.04-.23.02-.27.14-.55,1.4-1.14,2.77-1.74,4.11,5.22,2.14,10.06,5.33,14.03,9.3,4.1,4.1,7.35,9.09,9.48,14.48ZM74.09,76.11c-4.9-2.96-11-6.63-16.12-13.37-3.38-4.44-8.45-10.01-15.45-16.96-2.11,1.49-4.12,2.99-6.01,4.48,2.66,2.01,5.78,4.59,8.3,7.67,8.63,10.56,14.97,17.19,20.55,21.5,2.1,1.62,5.57,4.9,8.26,7.8.86.93,2.03,1.46,3.29,1.48,1.25.04,2.44-.45,3.33-1.34l1.69-1.69c1.04-4-1.85-5.95-7.84-9.56Z"/></svg>