<?xml version="1.0" encoding="UTF-8"?><svg id="Line" xmlns="http://www.w3.org/2000/svg" viewBox="0 0 96 96"><defs><style>.cls-1{stroke-width:0px;}</style></defs><path class="cls-1" d="M36.02,60.99l.22,1.79c.07.55-.32,1.05-.87,1.11-.04,0-.08,0-.12,0-.5,0-.93-.37-.99-.88l-.22-1.79c-.07-.55.32-1.05.87-1.11.55-.07,1.05.32,1.11.87ZM81.6,20.24l-8.55,8.3c-1.67,1.62-3.87,2.51-6.19,2.51-.04,0-.09,0-.13,0-2.38-.03-4.6-.99-6.25-2.69l-2.17-2.23-20.98,20.39c.03.15.06.31.05.47,0,.53-.22,1.03-.61,1.41l-3.28,3.18c.93.79,1.58,1.9,1.76,3.16l.32,2.67c.07.55-.32,1.05-.87,1.11-.54.07-1.05-.32-1.11-.87l-.32-2.65c-.19-1.28-1.19-2.34-2.49-2.6l-9.31-1.9c-.39-.08-.77,0-1.09.24-.32.23-.52.58-.56.97l-.07.61c-.66,6.05-1.79,16.32-2.16,19.68h17.76s-.65-5.39-.65-5.39c-.07-.55.32-1.05.87-1.11.54-.08,1.05.32,1.11.87l.32,2.63h8.48c1.65,0,3,1.35,3,3v12.29c0,1.69-1.2,3.15-2.86,3.48l-2.95.59c-.06.01-.13.02-.2.02-.23,0-.45-.08-.63-.23-.23-.19-.37-.47-.37-.77v-8.38h-12v2h7c1.65,0,3,1.35,3,3s-1.35,3-3,3h-7v1c0,1.65-1.35,3-3,3s-3-1.35-3-3v-1h-7c-1.65,0-3-1.35-3-3s1.35-3,3-3h7v-2h-11c-1.1,0-2-.9-2-2v-2.95c0-1.65.97-3.14,2.47-3.8l2.97-1.31c.5-4.56,1.32-12.03,1.85-16.84l.07-.62c.11-.95.61-1.81,1.38-2.36.76-.56,1.74-.77,2.67-.58l.34.07,7.58-7.38c.38-.37.91-.56,1.42-.57.2,0,.38.04.57.1l21.66-21.05,11.63-11.3c4.11-3.99,10.52-4.53,15.24-1.29l.17.12c.47.32.9.68,1.29,1.08,3.24,3.33,3.16,8.68-.18,11.92ZM27.48,87h-2v1c0,.55.45,1,1,1s1-.45,1-1v-1ZM36.48,83h-20c-.55,0-1,.45-1,1s.45,1,1,1h20c.55,0,1-.45,1-1s-.45-1-1-1ZM27.48,79h-2v2h2v-2ZM16.11,73.34c-.38-.42-.56-.99-.51-1.55.02-.16.04-.36.06-.55l-1.91.84c-.78.34-1.27,1.11-1.27,1.97v2.95h29c1.1,0,2,.9,2,2v7.16l1.75-.35c.72-.15,1.25-.79,1.25-1.52v-12.29c0-.55-.45-1-1-1h-8.23l.09.76c.07.57-.11,1.14-.49,1.57-.38.43-.93.68-1.5.68h-17.75c-.57,0-1.11-.24-1.49-.66ZM31.66,50.58l3.69-3.58-4.15-4.27s-.01-.03-.02-.04l-6.59,6.41,6.6,1.35c.16.03.32.09.47.14ZM56.92,24.7l-2.79-2.87-20.77,20.18,2.79,2.87,20.76-20.18ZM80.34,9.71c-.3-.31-.63-.58-.98-.83l-.17-.12c-3.94-2.71-9.29-2.26-12.71,1.07l-10.91,10.6,6.35,6.53c1.28,1.32,3,2.06,4.85,2.08.03,0,.07,0,.1,0,1.81,0,3.51-.69,4.8-1.95l8.55-8.3c2.54-2.47,2.61-6.55.14-9.09ZM80.14,13.82c.11,1.33-.37,2.62-1.33,3.55l-8.55,8.31c-.95.92-2.18,1.38-3.41,1.38s-2.55-.5-3.51-1.48l-4.25-4.38c-.38-.4-.38-1.03.02-1.41l2.87-2.79s0,0,0,0l4.34-4.21,1.55-1.51c2.75-2.67,7.03-3.03,10.18-.86l.18.13c1.1.76,1.79,1.95,1.91,3.28ZM67.67,14.25l-3.59,3.48,1.39,1.43h0s0,0,0,0l3.58-3.49-1.39-1.43ZM78.15,13.98c-.06-.73-.44-1.39-1.05-1.8l-.18-.13c-2.37-1.63-5.59-1.36-7.66.65l-.15.15,1.39,1.43c.37.38.57.89.57,1.42,0,.53-.22,1.03-.61,1.41l-3.58,3.48c-.38.37-.87.57-1.39.57,0,0-.02,0-.03,0-.53,0-1.03-.22-1.41-.61l-1.39-1.43-1.43,1.39,3.56,3.66c1.11,1.15,2.95,1.17,4.09.06l8.55-8.31c.53-.51.79-1.22.73-1.95Z"/></svg>