<?xml version="1.0" encoding="UTF-8"?><svg id="Line" xmlns="http://www.w3.org/2000/svg" viewBox="0 0 96 96"><defs><style>.cls-1{stroke-width:0px;}</style></defs><path class="cls-1" d="M17.5,62.17c.55,0,1,.45,1,1s-.45,1-1,1h-3c-.55,0-1-.45-1-1s.45-1,1-1h3ZM22.5,67.17c-.55,0-1,.45-1,1s.45,1,1,1h3c.55,0,1-.45,1-1s-.45-1-1-1h-3ZM30.5,62.17c-.55,0-1,.45-1,1s.45,1,1,1h3c.55,0,1-.45,1-1s-.45-1-1-1h-3ZM38.5,67.17c-.55,0-1,.45-1,1s.45,1,1,1h3c.55,0,1-.45,1-1s-.45-1-1-1h-3ZM46.5,62.17c-.55,0-1,.45-1,1s.45,1,1,1h3c.55,0,1-.45,1-1s-.45-1-1-1h-3ZM54.5,67.17c-.55,0-1,.45-1,1s.45,1,1,1h3c.55,0,1-.45,1-1s-.45-1-1-1h-3ZM62.5,62.17c-.55,0-1,.45-1,1s.45,1,1,1h3c.55,0,1-.45,1-1s-.45-1-1-1h-3ZM70.5,67.17c-.55,0-1,.45-1,1s.45,1,1,1h3c.55,0,1-.45,1-1s-.45-1-1-1h-3ZM78.5,62.17c-.55,0-1,.45-1,1s.45,1,1,1h3c.55,0,1-.45,1-1s-.45-1-1-1h-3ZM89,63.77c-.55,0-1,.45-1,1v1.8c0,.55.45,1,1,1s1-.45,1-1v-1.8c0-.55-.45-1-1-1ZM86.65,49.81h1.35c1.1,0,2,.9,2,2v9.36c0,.55-.45,1-1,1s-1-.45-1-1v-3.72H8v16.44h80v-3.72c0-.55.45-1,1-1s1,.45,1,1v3.72c0,1.1-.9,2-2,2H8c-1.1,0-2-.9-2-2v-22.08c0-1.1.9-2,2-2h1.35c.23-3.65.73-17.46-4.21-24.18-.27-.36-.26-.86.02-1.21.28-.35.76-.48,1.17-.3.3.13,4.47,1.98,7.97,7.52-.6-3.61-1.69-7.32-3.62-9.93-.27-.36-.26-.86.02-1.22.28-.35.77-.47,1.18-.29.27.12,4.63,2.1,8.19,8.18.58-2,1.37-4.47,2.28-6.65.15-.36.5-.6.89-.61.38,0,.76.21.93.56.1.21,2.09,4.3,3.1,8.29,3.2-4.24,6.54-5.72,6.81-5.83.41-.18.89-.05,1.17.3s.29.85.02,1.21c-1.49,2.02-2.49,4.7-3.14,7.54,1.66-3.07,3.61-5.24,5.35-6.73-.18-.28-.36-.55-.55-.81-.27-.36-.26-.86.02-1.21.28-.35.76-.48,1.17-.3.1.04.64.28,1.43.78.82-.52,1.35-.75,1.42-.78.42-.17.89-.05,1.17.31.28.35.28.85.02,1.21-.19.26-.37.53-.53.8,1.38,1.17,2.98,2.86,4.46,5.21-.6-3.61-1.69-7.32-3.62-9.93-.27-.36-.26-.86.02-1.22.28-.35.77-.47,1.18-.29.28.12,4.69,2.13,8.26,8.29.53-1.72,1.18-3.67,1.94-5.49.15-.36.5-.6.89-.61.43-.01.75.21.93.56.09.19,1.88,3.86,2.92,7.64,3.33-4.72,6.99-6.34,7.27-6.46.41-.18.9-.05,1.17.3.28.35.29.85.02,1.21-1.49,2.02-2.48,4.69-3.14,7.52,1.62-3,3.51-5.12,5.2-6.59-.2-.32-.4-.63-.62-.93-.27-.36-.26-.86.02-1.21.28-.35.76-.48,1.17-.3.1.04.69.3,1.54.85.9-.59,1.5-.84,1.53-.85.41-.17.89-.05,1.17.3.28.35.29.84.02,1.21-.23.31-.43.62-.61.92.8.7,1.68,1.57,2.56,2.64.49-1.62,1.16-3.65,1.95-5.54.15-.36.5-.6.89-.61.41-.02.76.21.93.56.08.17,1.67,3.44,2.73,6.99,3.35-4.75,7-6.37,7.22-6.46.41-.18.9-.05,1.17.3s.29.85.02,1.21c-4.95,6.71-4.45,20.52-4.21,24.18ZM77.44,31.2c.81,1.23,1.6,2.66,2.29,4.3.4-.94.82-1.82,1.27-2.62-.51-2.22-1.41-4.6-2.11-6.25-.62,1.74-1.13,3.42-1.45,4.57ZM72.24,28.24c3.12,7.57,2.75,18.14,2.53,21.56h5.73c-.25-12.2-4.93-18.58-8.25-21.56ZM72.76,49.81c.17-2.76.5-11.33-1.49-18.25-2,6.93-1.67,15.49-1.49,18.25h2.98ZM62.82,42.36c-.14,3.3-.01,6.08.07,7.45h4.88c-.22-3.37-.58-13.72,2.42-21.27-.02-.05-.04-.1-.07-.15-2.7,2.47-5.85,6.77-7.3,13.97ZM55.15,49.81h5.73c-.22-3.43-.6-14.07,2.56-21.65-3.33,2.93-8.04,9.27-8.29,21.65ZM53.29,31.07c.78,1.74,1.48,3.73,2.02,6,.55-1.53,1.17-2.89,1.84-4.1-.46-2.42-1.49-5.15-2.26-6.99-.69,1.94-1.25,3.83-1.6,5.09ZM48.71,36.99c1.23,3.39,2.09,7.61,2.19,12.82h2.24c.06-3.16.4-5.96.93-8.42-1.26-9.18-5.02-14.31-7.84-16.95,1.61,4.01,2.25,8.77,2.47,12.55ZM40.61,28.16c3.15,7.58,2.78,18.21,2.56,21.64h5.73c-.25-12.37-4.95-18.71-8.29-21.64ZM41.16,49.81c.18-2.81.51-11.62-1.59-18.6-2.11,6.99-1.78,15.8-1.6,18.6h3.19ZM31.01,42.37c-.14,3.3-.01,6.08.07,7.44h4.88c-.22-3.41-.58-13.94,2.52-21.52,0-.01-.01-.02-.02-.03-2.76,2.47-5.98,6.8-7.46,14.11ZM23.34,49.81h5.73c-.22-3.43-.6-14.07,2.56-21.65-3.33,2.93-8.04,9.27-8.29,21.65ZM21.43,30.98c.8,1.76,1.51,3.78,2.06,6.09.66-1.82,1.42-3.41,2.23-4.79-.4-2.56-1.53-5.59-2.37-7.58-.84,2.35-1.52,4.73-1.92,6.28ZM16.9,36.99c1.23,3.39,2.09,7.61,2.19,12.82h2.24c.06-3.16.4-5.96.93-8.42-1.26-9.17-5.02-14.31-7.84-16.95,1.61,4.01,2.25,8.77,2.47,12.55ZM11.36,49.81h5.73c-.25-12.37-4.95-18.71-8.29-21.64,3.15,7.58,2.78,18.21,2.56,21.64ZM88,51.81H8v3.64h80v-3.64ZM84.64,49.81c-.22-3.42-.59-13.98,2.52-21.55-2.08,1.87-4.67,5.05-6.39,10.1.98,3.14,1.64,6.92,1.73,11.45h2.14Z"/></svg>