<?xml version="1.0" encoding="UTF-8"?><svg id="Line" xmlns="http://www.w3.org/2000/svg" viewBox="0 0 96 96"><defs><style>.cls-1{stroke-width:0px;}</style></defs><path class="cls-1" d="M72.11,37.92h-.41v-9.22c0-13.07-10.63-23.7-23.7-23.7s-23.7,10.63-23.7,23.7v9.22h-.41c-1.65,0-3,1.35-3,3v2.81c0,1.65,1.35,3,3,3h.41v37.27c0,3.86,3.14,7,7,7h33.4c3.86,0,7-3.14,7-7v-6c0-.55-.45-1-1-1s-1,.45-1,1v6c0,2.76-2.24,5-5,5H31.3c-2.76,0-5-2.24-5-5v-18.53h43.4v3.53c0,.55.45,1,1,1s1-.45,1-1v-22.27h.41c1.65,0,3-1.35,3-3v-2.81c0-1.65-1.35-3-3-3ZM69.7,50.96H26.3v-4.23h43.4v4.23ZM26.3,52.96h43.4v4.25H26.3v-4.25ZM26.3,63.47v-4.26h43.4v4.26H26.3ZM26.3,28.7c0-11.97,9.74-21.7,21.7-21.7s21.7,9.74,21.7,21.7v9.22h-3.68v-9.22c0-9.31-7.26-17.2-16.54-17.97-5-.41-9.79,1.24-13.49,4.65-3.83,3.53-6.02,8.59-6.02,13.88v8.65h-3.68v-9.22ZM64.03,37.92H31.97v-8.65c0-4.74,1.96-9.26,5.38-12.41,3.29-3.03,7.54-4.5,11.97-4.13,8.24.68,14.7,7.69,14.7,15.97v9.22ZM73.11,43.73c0,.55-.45,1-1,1H23.89c-.55,0-1-.45-1-1v-2.81c0-.55.45-1,1-1h48.22c.55,0,1,.45,1,1v2.81ZM71.7,72.6v1.8c0,.55-.45,1-1,1s-1-.45-1-1v-1.8c0-.55.45-1,1-1s1,.45,1,1Z"/></svg>