<?xml version="1.0" encoding="UTF-8"?><svg id="Line" xmlns="http://www.w3.org/2000/svg" viewBox="0 0 96 96"><defs><style>.cls-1{stroke-width:0px;}</style></defs><path class="cls-1" d="M63.42,21.66c-.31-.46-.19-1.08.27-1.39.46-.31,1.08-.19,1.39.26.35.51.67,1.05.99,1.65.26.49.08,1.09-.41,1.35-.15.08-.31.12-.47.12-.36,0-.7-.19-.88-.53-.29-.54-.58-1.02-.89-1.47ZM85.17,49.25c-.4,3.82-3.87,25.05-31.65,27.55.17.16.35.31.51.49,1.52,1.66,2.16,3.97,1.7,6.19-.09.42-.43.74-.86.79-.27.03-.55.05-.82.05-1.96,0-3.86-.82-5.2-2.28-.32-.35-.6-.74-.84-1.14-.24.4-.52.79-.84,1.14-1.34,1.46-3.23,2.28-5.2,2.28-.27,0-.55-.02-.82-.05-.43-.05-.78-.37-.86-.79-.46-2.22.18-4.53,1.7-6.19.16-.17.33-.33.51-.49-27.76-2.5-31.25-23.69-31.65-27.54-3.52-1.7-5.63-3.67-5.83-5.8-.41-4.4,6.72-7.86,21.14-10.29,1.13-8.13,5.04-14.96,10.94-18.59,3.12-1.92,6.81-2.9,10.98-2.9,5.97,0,10.88,1.96,14.6,5.83.38.4.37,1.03-.03,1.41-.4.38-1.03.37-1.41-.03-3.33-3.46-7.76-5.21-13.16-5.21-3.8,0-7.14.88-9.93,2.6-5.65,3.48-9.31,10.22-10.15,18.25,6.46,2.27,13.21,3.42,20.08,3.42s13.37-1.12,19.72-3.31c-.39-3.07-1.07-5.87-2.03-8.37-.2-.52.06-1.09.57-1.29.51-.2,1.09.06,1.29.57.88,2.3,1.53,4.83,1.96,7.57,14.59,2.41,21.79,5.88,21.39,10.32-.19,2.13-2.31,4.1-5.81,5.8ZM27.85,36.59c-.05,1.08-.05,2.18,0,3.3.02.39.29.74.68.87,12.56,4.27,26.39,4.28,38.96.04.42-.14.7-.54.68-.96-.03-1.08-.09-2.13-.17-3.16-6.43,2.16-13.12,3.27-19.93,3.27s-13.71-1.14-20.22-3.37ZM45.69,80.69c.91-.99,1.38-2.32,1.31-3.66-.03,0-.06,0-.08,0-1.31.07-2.57.64-3.46,1.61-.92,1-1.38,2.33-1.31,3.67,1.34-.05,2.63-.63,3.55-1.62ZM49.09,77.03s-.06,0-.08,0c-.07,1.34.4,2.66,1.31,3.66.92,1,2.2,1.58,3.55,1.62.07-1.34-.4-2.67-1.31-3.67-.9-.98-2.15-1.55-3.46-1.61ZM83.06,50.17c-7.36,2.91-19.1,4.78-32.1,4.78-.99,0-1.98-.01-2.98-.03-14.13.31-27.11-1.62-35.03-4.74.81,5.7,5.64,24.37,33.97,24.85.29-.01,1.88-.01,2.17,0,28.34-.48,33.16-19.17,33.97-24.86ZM69.87,35.2c.16,1.48.27,3,.31,4.58.04,1.29-.79,2.49-2.04,2.91-6.47,2.19-13.22,3.29-20.06,3.29s-13.67-1.12-20.18-3.33c-1.16-.39-1.98-1.46-2.04-2.67-.08-1.62-.05-3.2.07-4.75-14.24,2.46-19.14,5.75-18.93,8.05.39,4.19,16.93,10.18,40.98,9.64,24.46.54,40.62-5.36,41.01-9.65.21-2.32-4.74-5.62-19.12-8.07ZM49.03,25.21c-.43.35-.49.98-.14,1.41l1.27,1.56c.2.24.48.37.77.37.22,0,.45-.07.63-.23.43-.35.49-.98.14-1.41l-1.27-1.56c-.35-.43-.98-.49-1.41-.14ZM40.72,31.72l1.38,1.47c.2.21.46.32.73.32.25,0,.49-.09.68-.27.4-.38.42-1.01.05-1.41l-1.38-1.47c-.38-.4-1.01-.42-1.41-.05-.4.38-.42,1.01-.05,1.41ZM18.73,40.81c-.38-.4-1.01-.42-1.41-.05-.4.38-.42,1.01-.05,1.41l1.38,1.47c.2.21.46.32.73.32.25,0,.49-.09.68-.27.4-.38.42-1.01.05-1.41l-1.38-1.47ZM58.07,21c.26-.49.07-1.09-.41-1.35-.49-.26-1.09-.07-1.35.41l-.94,1.78c-.26.49-.07,1.09.41,1.35.15.08.31.12.47.12.36,0,.7-.19.88-.53l.94-1.78ZM41.71,20.69c.18.34.53.54.89.54.15,0,.31-.04.46-.11.49-.25.69-.86.43-1.35l-.92-1.79c-.25-.49-.86-.69-1.35-.43s-.69.86-.43,1.35l.92,1.79ZM57.91,33.58c.3,0,.6-.14.8-.4l1.21-1.61c.33-.44.25-1.07-.19-1.4-.44-.33-1.07-.25-1.4.2l-1.21,1.61c-.33.44-.25,1.07.19,1.4.18.14.39.2.6.2ZM56.08,47.21l-1.21,1.61c-.33.44-.25,1.07.19,1.4.18.14.39.2.6.2.3,0,.6-.14.8-.4l1.21-1.61c.33-.44.25-1.07-.19-1.4-.44-.33-1.07-.25-1.4.2ZM39.92,47.21c-.33-.44-.96-.53-1.4-.2-.44.33-.53.96-.19,1.4l1.21,1.61c.2.26.5.4.8.4.21,0,.42-.07.6-.2.44-.33.53-.96.19-1.4l-1.21-1.61ZM35.63,25.35l-1.26,1.57c-.35.43-.28,1.06.16,1.41.18.15.41.22.62.22.29,0,.58-.13.78-.38l1.26-1.57c.35-.43.28-1.06-.16-1.41-.43-.35-1.06-.28-1.41.16ZM77.22,42.34l-1.26,1.57c-.35.43-.28,1.06.16,1.41.18.15.41.22.62.22.29,0,.58-.13.78-.38l1.26-1.57c.35-.43.28-1.06-.16-1.41-.43-.34-1.06-.28-1.41.16Z"/></svg>