<?xml version="1.0" encoding="UTF-8"?><svg id="Line" xmlns="http://www.w3.org/2000/svg" viewBox="0 0 96 96"><defs><style>.cls-1{stroke-width:0px;}</style></defs><path class="cls-1" d="M85.39,73.49c.3-1.78.6-3.6.87-5.46.16-1.09.31-2.2.46-3.32.07-.55-.31-1.05-.86-1.12-.55-.07-1.05.31-1.12.86-.11.83-.23,1.64-.34,2.45h-5.62c-.55,0-1,.45-1,1s.45,1,1,1h5.32c-.22,1.45-.45,2.87-.69,4.26-.89-.02-1.77.11-2.59.41-1.27-2.15-3.58-3.49-6.12-3.49-1.14,0-2.25.27-3.25.78-.11-.14-.23-.27-.35-.4-.48-3.01-.92-6.16-1.31-9.39h5.82c.55,0,1-.45,1-1s-.45-1-1-1h-6.06c-.03-.29-.07-.58-.1-.87l-.09-.83c-.3-2.86-.52-5.36-.7-7.62-.16-2.04.37-4,1.51-5.67.97-1.39,2.28-2.47,3.8-3.11,2.22-.96,4.79-.97,7.03,0,1.51.65,2.83,1.72,3.79,3.1,1.01,1.48,1.55,3.2,1.55,4.99,0,.23,0,.46-.03.7-.04.5-.08,1.01-.12,1.51h-7.4c-.55,0-1,.45-1,1s.45,1,1,1h7.22c-.07.74-.14,1.47-.21,2.21-.06.55.34,1.04.89,1.1.56.05,1.04-.34,1.1-.89.2-1.94.37-3.89.51-5.78.02-.29.03-.56.03-.85,0-1.98-.54-3.9-1.57-5.6l3.57-7.03c.88-1.72.96-3.72.24-5.51-.73-1.78-2.19-3.16-4.03-3.78-.85-.28-1.71-.37-2.52-.32-.52-3.12-3.25-5.51-6.53-5.51-1.78,0-3.45.7-4.71,1.96-.98.99-1.6,2.22-1.83,3.55-.81-.05-1.66.04-2.53.32-1.83.62-3.3,1.99-4.02,3.78-.73,1.78-.64,3.79.23,5.5l3.57,7.03c-1.16,1.93-1.71,4.19-1.54,6.45.17,2.28.4,4.79.7,7.69l.09.84c.07.6.13,1.19.21,1.77.34,2.94.73,5.81,1.15,8.6-.92-.42-1.93-.66-2.97-.66-.9,0-1.79.17-2.62.5-1.32-1.95-3.5-3.13-5.9-3.13-.3,0-.6.03-.9.06.25-1.51.49-3.04.73-4.61.54-3.67,1.01-7.36,1.4-10.96.3-2.82.55-5.53.74-8.05.02-.3.03-.59.03-.88,0-2.08-.58-4.1-1.66-5.87l3.76-7.4c.91-1.79,1-3.88.25-5.73-.76-1.86-2.29-3.29-4.2-3.93-.91-.3-1.81-.39-2.67-.33-.53-3.27-3.37-5.78-6.8-5.78-1.85,0-3.6.72-4.9,2.04-1.03,1.04-1.68,2.34-1.91,3.74-.86-.06-1.76.04-2.68.34-1.91.64-3.43,2.07-4.19,3.93-.76,1.86-.67,3.95.24,5.73l3.76,7.41c-1.23,2.01-1.81,4.38-1.63,6.75.19,2.52.44,5.23.74,8.05.55,5.13,1.27,10.36,2.13,15.57-.3-.04-.6-.06-.9-.06-2.4,0-4.58,1.18-5.9,3.13-.83-.33-1.72-.5-2.62-.5-1.04,0-2.05.24-2.97.66.54-3.59,1.03-7.34,1.46-11.21.3-2.88.53-5.39.7-7.67.17-2.26-.38-4.52-1.54-6.45l3.57-7.03c.88-1.72.96-3.72.23-5.51-.73-1.79-2.19-3.16-4.03-3.78-.85-.28-1.71-.37-2.52-.32-.22-1.33-.85-2.57-1.83-3.55-1.25-1.26-2.92-1.96-4.71-1.96-3.27,0-5.98,2.37-6.52,5.51-.81-.05-1.67.04-2.53.32-1.83.62-3.3,1.99-4.02,3.78-.73,1.78-.64,3.79.23,5.5l3.57,7.03c-1.03,1.69-1.57,3.62-1.57,5.6,0,.29.01.56.03.85.2,2.6.43,5.18.7,7.68.37,3.41.82,6.92,1.33,10.45.27,1.86.57,3.69.87,5.46-2.89.94-4.96,3.73-4.96,7.02v1.49c0,1.1.9,2,2,2h80.7c1.1,0,2-.9,2-2v-1.49c0-3.29-2.07-6.08-4.96-7.02ZM85.9,29.03c1.28.43,2.3,1.39,2.81,2.63.51,1.24.45,2.64-.17,3.84l-3.13,6.17c-.85-.91-1.84-1.64-2.93-2.2l1.55-10.59s0-.06,0-.08c.59-.05,1.22.02,1.86.23ZM74.2,24.67c.87-.88,2.04-1.37,3.28-1.37,2.55,0,4.63,2.06,4.63,4.65,0,.22-.02.43-.05.65l-1.48,10.09c-2.01-.6-4.18-.6-6.19,0l-1.48-10.08c-.03-.22-.06-.43-.06-.66-.01-1.23.47-2.39,1.34-3.28ZM66.25,31.67c.51-1.25,1.53-2.21,2.8-2.63.65-.21,1.29-.28,1.87-.23,0,.03,0,.06,0,.09l1.55,10.59c-1.09.56-2.09,1.29-2.93,2.2l-3.13-6.17c-.61-1.2-.67-2.6-.16-3.84ZM56.85,20.01c1.35.45,2.44,1.47,2.98,2.79.54,1.32.47,2.8-.18,4.07l-3.32,6.53c-.89-.97-1.96-1.75-3.14-2.36l1.63-11.14s0-.09.02-.13c.63-.06,1.32.01,2.01.24ZM44.52,15.45c.93-.93,2.16-1.45,3.48-1.45,2.7,0,4.9,2.19,4.9,4.93,0,.24-.02.45-.06.69l-1.56,10.63c-2.14-.64-4.43-.64-6.57,0l-1.56-10.63c-.03-.24-.06-.45-.06-.7-.01-1.3.49-2.54,1.42-3.47ZM36.18,22.8c.54-1.32,1.62-2.34,2.97-2.79.7-.23,1.39-.3,2.02-.24,0,.04.01.09.02.13l1.63,11.14c-1.18.61-2.25,1.39-3.14,2.36l-3.32-6.53c-.65-1.27-.71-2.75-.17-4.07ZM39.88,53.61h6.16c.55,0,1-.45,1-1s-.45-1-1-1h-6.39c-.07-.61-.15-1.23-.21-1.83-.3-2.8-.55-5.49-.74-7.99-.17-2.12.4-4.24,1.61-5.98.99-1.45,2.37-2.59,3.99-3.29,2.35-1.01,5.07-1.01,7.41,0,1.62.7,3,1.84,3.99,3.29,1.07,1.56,1.63,3.37,1.63,5.25,0,.24,0,.48-.03.72-.04.53-.09,1.08-.13,1.63h-7.81c-.55,0-1,.45-1,1s.45,1,1,1h7.63c-.13,1.41-.27,2.87-.43,4.36-.35,3.3-.78,6.67-1.27,10.03h-5.93c-.55,0-1,.45-1,1s.45,1,1,1h5.64c-.23,1.48-.46,2.94-.7,4.38-.26.12-.52.26-.77.41-1.34-1.65-3.38-2.64-5.53-2.64s-4.19.99-5.53,2.64c-.25-.16-.5-.29-.77-.41-.71-4.19-1.32-8.4-1.82-12.57ZM12.58,73.15c-.24-1.39-.47-2.82-.69-4.26h5.32c.55,0,1-.45,1-1s-.45-1-1-1h-5.61c-.46-3.21-.87-6.42-1.21-9.52-.14-1.35-.28-2.72-.4-4.11h7.23c.55,0,1-.45,1-1s-.45-1-1-1h-7.39c-.04-.5-.09-1.01-.13-1.51-.02-.24-.03-.46-.03-.69,0-1.78.53-3.51,1.54-4.98.97-1.39,2.28-2.47,3.8-3.11,2.22-.96,4.79-.97,7.03,0,1.51.65,2.83,1.72,3.79,3.11,1.15,1.68,1.67,3.64,1.52,5.68-.17,2.27-.4,4.76-.7,7.62-.06.57-.13,1.14-.2,1.71h-6.05c-.55,0-1,.45-1,1s.45,1,1,1h5.82c-.4,3.24-.84,6.38-1.32,9.39-.12.13-.24.26-.35.4-1-.51-2.11-.78-3.25-.78-2.54,0-4.85,1.34-6.12,3.49-.82-.3-1.7-.43-2.59-.41ZM26.94,29.03c1.28.43,2.3,1.39,2.81,2.63.51,1.24.45,2.64-.17,3.84l-3.13,6.17c-.85-.91-1.84-1.64-2.93-2.2l1.55-10.59s0-.05,0-.08c.59-.05,1.22.02,1.86.23ZM18.52,23.3c1.24,0,2.41.49,3.28,1.37.88.88,1.35,2.05,1.34,3.29,0,.22-.02.43-.05.65l-1.48,10.09c-2.01-.6-4.18-.6-6.19,0l-1.48-10.08c-.03-.22-.05-.43-.05-.71,0-2.54,2.08-4.6,4.63-4.6ZM7.29,31.67c.51-1.25,1.53-2.21,2.8-2.63.65-.21,1.29-.28,1.87-.23,0,.03,0,.06,0,.09l1.55,10.59c-1.09.56-2.08,1.29-2.93,2.2l-3.13-6.17c-.61-1.2-.67-2.6-.16-3.84ZM88.35,82H7.65v-1.49c0-2.82,2.18-5.23,4.86-5.36.09,0,.17,0,.26,0,.85,0,1.67.21,2.4.6.25.13.54.16.81.06.27-.09.48-.3.59-.56.8-1.93,2.66-3.17,4.74-3.17,1.07,0,2.09.33,2.96.95.23.16.52.22.79.16.27-.06.51-.23.65-.48.92-1.59,2.62-2.58,4.44-2.58.89,0,1.76.23,2.52.67.24.14.52.17.79.09.26-.08.48-.27.6-.51.87-1.77,2.64-2.87,4.6-2.87,1.23,0,2.43.45,3.37,1.27.23.2.53.28.82.23.29-.05.55-.23.7-.49.91-1.58,2.61-2.56,4.43-2.56s3.52.98,4.43,2.56c.15.26.41.44.7.49.29.05.6-.04.82-.23.94-.82,2.14-1.27,3.37-1.27,1.97,0,3.73,1.1,4.6,2.87.12.25.34.43.6.51.27.08.55.05.79-.09.76-.44,1.63-.67,2.52-.67,1.82,0,3.53.99,4.44,2.58.14.24.38.42.65.48.28.06.56,0,.79-.16.87-.62,1.9-.95,2.96-.95,2.08,0,3.94,1.25,4.74,3.17.11.26.32.46.59.56.27.09.56.07.81-.06.8-.43,1.72-.64,2.66-.59,2.68.13,4.86,2.54,4.86,5.36v1.49ZM86.53,58.18c.55.06.94.56.88,1.11l-.21,1.8c-.06.51-.49.88-.99.88-.04,0-.08,0-.12,0-.55-.06-.94-.56-.88-1.11l.21-1.8c.06-.55.56-.94,1.11-.88Z"/></svg>