<?xml version="1.0" encoding="UTF-8"?><svg id="Line" xmlns="http://www.w3.org/2000/svg" viewBox="0 0 96 96"><defs><style>.cls-1{stroke-width:0px;}</style></defs><path class="cls-1" d="M53.57,57.68c-1.68-1.01-3.51-1.65-5.45-1.92l-6.92-.97v-2.89c.97-.61,1.88-1.32,2.72-2.14,2.86-2.81,4.52-6.49,4.76-10.46h.3c1.27,0,2.46-.49,3.38-1.4.89-.91,1.39-2.11,1.39-3.37,0-1.11-.4-2.12-1.04-2.93,1.64-.02,2.96-1.35,2.96-3v-1.86c0-1.65-1.35-3-3-3h-2.6v-1.34c0-9.59-7.81-17.4-17.4-17.4S15.28,12.81,15.28,22.4v1.34h-2.6c-1.65,0-3,1.35-3,3v1.86c0,1.64,1.33,2.98,2.96,3-.64.81-1.04,1.82-1.04,2.93,0,1.27.49,2.46,1.39,3.38.9.9,2.09,1.39,3.37,1.39h.33c.47,5.24,3.34,9.79,7.46,12.49v3l-6.93.97c-1.93.27-3.76.92-5.44,1.92-1.97,1.19-3.61,2.87-4.73,4.87-1.13,2-1.73,4.27-1.73,6.56v20.88c0,.55.45,1,1,1h52.72c.55,0,1-.45,1-1v-8.62c0-.55-.45-1-1-1s-1,.45-1,1v7.62h-6.36v-30.06c.29.15.58.29.86.46,3.39,2.05,5.5,5.77,5.5,9.72v3.26c0,.55.45,1,1,1s1-.45,1-1v-3.26c0-4.65-2.48-9.03-6.47-11.44ZM50.96,36.49c-.53.52-1.23.81-1.97.81h-.25v-5.53h.25c1.53,0,2.77,1.24,2.77,2.76,0,.74-.29,1.44-.8,1.96ZM32.68,7c7.34,0,13.49,5.17,15.02,12.06h-30.05c1.53-6.89,7.68-12.06,15.02-12.06ZM17.28,22.4c0-.45.03-.9.07-1.34h30.66c.04.44.07.89.07,1.34v1.34h-30.8v-1.34ZM11.68,28.6v-1.86c0-.55.45-1,1-1h40c.55,0,1,.45,1,1v1.86c0,.55-.45,1-1,1H12.68c-.55,0-1-.45-1-1ZM14.41,36.5c-.52-.53-.81-1.23-.81-1.97,0-1.52,1.24-2.76,2.76-2.76h.26v5.53h-.26c-.74,0-1.43-.29-1.95-.8ZM18.62,37.8v-6.03h28.12v6.53c0,3.8-1.5,7.37-4.21,10.03s-6.32,4.11-10.12,4.03c-7.61-.14-13.8-6.67-13.8-14.56ZM32.38,54.36c.1,0,.2,0,.3,0,2.29,0,4.5-.49,6.53-1.4v4.06c0,1.3-.65,2.51-1.73,3.24-2.85,1.9-6.74,1.9-9.59,0-1.09-.73-1.74-1.94-1.74-3.24v-4.11c1.91.89,4.02,1.4,6.23,1.44ZM26.78,61.92c1.75,1.17,3.8,1.79,5.9,1.79s4.15-.62,5.91-1.79c1.64-1.1,2.62-2.93,2.62-4.9v-.21l2.47.35v13.84h-22v-13.84l2.47-.35v.21c0,1.97.98,3.8,2.63,4.9ZM17.5,57.74l2.18-.31v13.56h-4v-12.85c.59-.18,1.2-.32,1.82-.41ZM7.32,69.12c0-1.95.51-3.88,1.47-5.58.96-1.7,2.35-3.13,4.02-4.14.28-.17.57-.32.87-.46v30.07h-6.36v-19.88ZM15.68,89v-16h34v16H15.68ZM49.68,71h-4v-13.56l2.17.3c.62.09,1.23.23,1.83.41v12.85ZM60.04,75.98v1.8c0,.55-.45,1-1,1s-1-.45-1-1v-1.8c0-.55.45-1,1-1s1,.45,1,1ZM78.41,29.73c-1.58-.9-3.53-.9-5.11,0-7.57,4.33-12.27,12.43-12.27,21.15v11.18c0,1.64,1.33,2.98,2.98,2.98h7.89v24.85c0,.55.45,1,1,1h5.92c.55,0,1-.45,1-1v-24.85h7.89c1.64,0,2.98-1.33,2.98-2.98v-11.18c0-8.72-4.7-16.82-12.27-21.15ZM75.9,50.93c1.24,1.65,1.92,3.69,1.92,5.74v6.35h-3.93v-6.35c0-2.06.68-4.1,1.91-5.74h.1ZM73.89,88.87v-23.85h3.92v23.85h-3.92ZM88.68,62.05c0,.54-.44.98-.98.98h-7.89v-6.35c0-2.49-.82-4.95-2.32-6.94-.39-.52-.99-.82-1.65-.82h0c-.65,0-1.25.3-1.65.82h0c-1.49,1.99-2.31,4.46-2.31,6.94v6.35h-7.89c-.54,0-.98-.44-.98-.98v-11.18c0-8,4.32-15.44,11.26-19.41.96-.55,2.16-.55,3.13,0,6.95,3.97,11.26,11.41,11.26,19.41v11.18Z"/></svg>