<?xml version="1.0" encoding="UTF-8"?><svg id="Line" xmlns="http://www.w3.org/2000/svg" viewBox="0 0 96 96"><defs><style>.cls-1{stroke-width:0px;}</style></defs><path class="cls-1" d="M63.16,64.71l.08,1.79c.02.55-.4,1.02-.95,1.04-.02,0-.03,0-.05,0-.53,0-.97-.42-1-.96l-.08-1.79c-.02-.55.4-1.02.95-1.04.54-.03,1.02.4,1.04.95ZM85.14,48.01c0,.41-.25.78-.63.93l-3.77,1.5c1.19,1.87.66,4.06.09,5.13-.15.28-.43.48-.74.52-.05,0-.09,0-.14,0-.27,0-.53-.11-.72-.31-1.9-1.98-5.12-3.04-6.83-3.49-.18.9-.98,1.58-1.93,1.58h-6.75c-.27,0-.51.11-.7.3-.18.19-.28.44-.26.71l.26,6.21c.02.55-.41,1.02-.96,1.04-.54.04-1.02-.41-1.04-.96l-.26-6.21c-.04-.81.25-1.59.82-2.18.56-.59,1.32-.91,2.14-.91h6.75l-.03-7.76-16.93.02c-1.07,2.04-2.93,3.07-5.51,3.07s-4.44-1.03-5.51-3.07h-16.96s.03,7.77.03,7.77l6.72-.03c.82,0,1.58.32,2.14.91.56.59.85,1.36.82,2.18l-.84,20.38,2.44-.02,1.56-2.46c.18-.29.5-.46.84-.46h0c.34,0,.66.18.84.47l1.54,2.45h20.02l-.25-5.15c-.02-.55.41-1.02.96-1.04.58-.04,1.02.41,1.04.96l.21,5.17c.03.52-.17,1.06-.54,1.45s-.89.61-1.42.61h-9.71v11.67c0,1.1-.9,2-2,2h-3.86c-1.1,0-2-.9-2-2v-11.67h-3c-.34,0-.66-.18-.85-.47l-.99-1.58-1,1.58c-.18.29-.5.46-.84.46h-3.03c-.53,0-1.05-.22-1.42-.61s-.57-.92-.54-1.46l.84-20.37c.01-.27-.08-.52-.26-.71-.18-.19-.43-.3-.7-.3h-6.75c-.95,0-1.75-.68-1.93-1.58-1.71.45-4.93,1.52-6.83,3.49-.19.2-.45.31-.72.31-.05,0-.09,0-.14,0-.32-.04-.59-.24-.74-.52-.57-1.06-1.1-3.26.09-5.13l-3.77-1.5c-.38-.15-.63-.52-.63-.93s.25-.78.63-.93l3.77-1.5c-1.19-1.87-.66-4.06-.09-5.13.15-.28.43-.48.74-.52.32-.05.64.07.86.3,1.9,1.98,5.13,3.04,6.83,3.49.18-.9.98-1.58,1.93-1.58h16.96c.63,0,1.2.31,1.58.81v-3.43c-4.55-1.62-7.81-5.96-7.81-11.05v-3.88h-1.87c-1.66,0-3.01-1.35-3.01-3.01v-1.84c0-1.66,1.35-3.01,3.01-3.01h1.87c0-1.45.28-2.84.77-4.13l-1.82-.51c-.53-.15-.84-.7-.69-1.23s.7-.84,1.23-.69l2.16.6c.16-.27.33-.54.51-.79l-1.83-1.6c-.42-.36-.46-1-.09-1.41.37-.42,1-.46,1.41-.09l1.79,1.57c2.13-2.12,5.06-3.44,8.29-3.44,6.47,0,11.73,5.26,11.74,11.72h1.1l.45-2.61c.09-.54.6-.91,1.15-.82.54.09.91.61.82,1.15l-.43,2.53c.24.1.45.24.65.4l1.17-1.37c.36-.42.99-.47,1.41-.11.42.36.47.99.11,1.41l-1.59,1.87c.03.18.06.36.06.55v1.84c0,1.66-1.35,3.01-3.01,3.01h-1.87v3.88c0,5.1-3.27,9.43-7.81,11.05v3.43c.38-.5.95-.81,1.58-.81h16.96c.95,0,1.75.68,1.93,1.58,1.71-.45,4.93-1.52,6.83-3.49.22-.23.54-.34.86-.3.32.04.59.24.74.52.57,1.06,1.1,3.26-.09,5.13l3.77,1.5c.38.15.63.52.63.93ZM23.56,50.24v-4.46c-1.47-.35-4.6-1.27-7.01-3.08-.08.77.07,1.74,1.04,2.51.28.22.42.58.36.93-.05.35-.29.65-.62.78l-2.76,1.1,2.76,1.1c.33.13.57.43.62.78.05.35-.08.71-.36.93-.96.77-1.12,1.74-1.04,2.51,2.41-1.82,5.54-2.73,7.01-3.08ZM49.93,77.33h-3.86v11.67h3.86v-11.67ZM38.26,16.72h19.49c-.01-5.36-4.38-9.72-9.74-9.72s-9.73,4.36-9.74,9.72ZM34.38,22.58h27.23c.56,0,1.01-.45,1.01-1.01v-1.84c0-.56-.45-1.01-1.01-1.01h-27.23c-.56,0-1.01.45-1.01,1.01v1.84c0,.56.45,1.01,1.01,1.01ZM48,38.21c5.37,0,9.74-4.37,9.74-9.74v-3.88h-19.49v3.88c0,5.37,4.37,9.74,9.74,9.74ZM48,45.21c.8,0,1.42-.13,1.93-.34v-4.66h-3.86v4.66c.5.2,1.13.34,1.93.34ZM81.43,48.01l-2.76-1.1c-.33-.13-.57-.43-.62-.78-.05-.35.08-.71.36-.93.96-.77,1.12-1.74,1.04-2.51-2.41,1.82-5.54,2.73-7.01,3.08v4.46c1.47.35,4.6,1.27,7.01,3.08.08-.77-.07-1.74-1.04-2.51-.28-.22-.42-.58-.36-.93.05-.35.29-.65.62-.78l2.76-1.1ZM57.11,54.1c.55,0,1,.45,1,1v5.07c0,1.8-1.47,3.27-3.27,3.27h-2.8c-1.8,0-3.27-1.47-3.27-3.27v-5.07c0-.55.45-1,1-1h2.72c.29,0,.57.13.76.35l.62.73.75-.78c.19-.19.45-.3.72-.3h1.77ZM56.11,56.1h-.34l-1.23,1.26c-.2.2-.47.34-.75.3-.28,0-.55-.14-.73-.35l-1.03-1.21h-1.26v4.07c0,.7.57,1.27,1.27,1.27h2.8c.7,0,1.27-.57,1.27-1.27v-4.07Z"/></svg>