<?xml version="1.0" encoding="UTF-8"?><svg id="Line" xmlns="http://www.w3.org/2000/svg" viewBox="0 0 96 96"><defs><style>.cls-1{stroke-width:0px;}</style></defs><path class="cls-1" d="M83.59,73.15h0c-.95-.05-1.89.09-2.77.41-1.27-2.15-3.58-3.49-6.12-3.49-1.14,0-2.25.27-3.25.78-1.34-1.71-3.41-2.73-5.6-2.73-.13,0-.27.01-.4.02,2.76-4.8,3.36-10.5,3.49-12.83h12.02c.56,0,1.08-.22,1.46-.63s.58-.96.54-1.52c-.27-4.25-2.05-8.29-5.03-11.36-.38-.4-1.02-.41-1.41-.02-.4.38-.41,1.02-.02,1.41.85.88,1.57,1.85,2.19,2.88-3.87.36-6.97,3.4-7.44,7.24l-22.22-.02c.05-.87.2-1.73.4-2.6h4.69c.66,0,1.27-.26,1.71-.74.32-.34.52-.77.6-1.22,3.38-1.08,5.75-4.27,5.75-7.89,0-.76-.11-1.5-.31-2.21,2.38-.48,4.95-.4,7.28.25.53.15,1.08-.16,1.23-.7.15-.53-.17-1.08-.7-1.23-3.01-.83-6.4-.83-9.38,0-2.13.57-4.15,1.57-5.93,2.87-.11-.23-.21-.46-.32-.69-3.05-6.21-8.6-10.78-15.24-12.55-2-.55-4.1-.83-6.25-.83-12.61,0-23.12,9.85-23.91,22.42-.04.66.19,1.32.63,1.79s1.06.74,1.71.74h16.56c.14,2.83.88,11.1,4.87,17.82-.73-.25-1.5-.38-2.28-.38-2.2,0-4.26,1.03-5.6,2.73-1-.51-2.11-.78-3.25-.78-2.54,0-4.85,1.34-6.12,3.49-.88-.32-1.82-.46-2.77-.41-3.79.19-6.76,3.42-6.76,7.36v1.49c0,1.1.9,2,2,2h80.7c1.1,0,2-.9,2-2v-1.49c0-3.94-2.97-7.17-6.76-7.36ZM62.98,68.3c-.81-1.07-1.89-1.88-3.13-2.35,3.3-3.89,3.49-8.29,3.29-10.64h3.8c-.14,2.43-.82,8.45-3.96,12.99ZM79.47,48.02c.09,0,.16.01.24.02.71,1.66,1.14,3.44,1.25,5.27h-7.7c.49-3,3.08-5.29,6.2-5.29ZM47.57,54.68c.38.41.9.63,1.46.63h12.11c.21,2.13.1,6.56-3.6,10.19-.07,0-.14-.01-.21-.01-1.34,0-2.66.39-3.8,1.1-1.34-1.65-3.38-2.64-5.53-2.64-1.79,0-3.5.69-4.79,1.87-6.12-5.35-6.12-12.18-5.75-15.14h9.93c-.17.82-.3,1.65-.35,2.47-.04.56.16,1.12.54,1.53ZM59.94,39.15c.15.54.24,1.1.24,1.68,0,2.56-1.57,4.84-3.86,5.8-.21-1.68-.6-3.32-1.16-4.91,1.43-1.12,3.06-1.99,4.79-2.57ZM51.83,39.18c-1.3.73-2.76,1.14-4.29,1.14-4.87,0-8.83-3.97-8.83-8.84,0-.94.15-1.86.44-2.74,5.41,1.69,9.96,5.43,12.68,10.44ZM32.57,27.73c1.59,0,3.14.17,4.65.5-.33,1.05-.5,2.13-.5,3.25,0,5.98,4.86,10.84,10.83,10.84,1.83,0,3.59-.46,5.16-1.32,1,2.3,1.61,4.73,1.77,7.27.01.15-.06.25-.1.3-.05.05-.13.11-.25.11h-30.31c-.49-5.36-4.9-9.59-10.33-9.82,3.79-6.66,10.95-11.13,19.09-11.13ZM10.75,48.57s-.11-.14-.1-.3h0c.17-2.64.82-5.13,1.83-7.42.17-.01.35-.02.54-.02,4.54,0,8.28,3.44,8.78,7.84h-10.79c-.12,0-.21-.06-.25-.11ZM35.44,50.68c-.34,3.12-.24,9.5,4.75,14.99-.5-.11-1.01-.18-1.52-.18-1.76,0-3.39.64-4.66,1.74-3.61-6.24-4.31-13.84-4.44-16.55h5.88ZM88.35,82H7.65v-1.49c0-2.82,2.18-5.23,4.86-5.36.09,0,.17,0,.26,0,.85,0,1.67.21,2.4.6.25.14.54.16.81.06.27-.09.48-.3.59-.56.8-1.93,2.66-3.17,4.74-3.17,1.07,0,2.09.33,2.96.95.23.16.51.22.79.16.28-.06.51-.23.65-.48.92-1.59,2.62-2.58,4.44-2.58.89,0,1.76.23,2.52.67.24.14.52.17.79.09.26-.08.48-.27.61-.51.87-1.77,2.64-2.87,4.6-2.87,1.23,0,2.43.45,3.37,1.27.23.2.52.28.82.23.29-.05.55-.23.7-.49.92-1.58,2.61-2.56,4.43-2.56s3.52.98,4.43,2.56c.15.26.41.44.7.49.29.05.59-.04.82-.23.94-.82,2.14-1.27,3.37-1.27,1.97,0,3.73,1.1,4.6,2.87.12.25.34.43.61.51.27.08.55.05.79-.09.76-.44,1.63-.67,2.52-.67,1.82,0,3.53.99,4.44,2.58.14.24.38.42.65.48.28.06.56,0,.79-.16.87-.62,1.89-.95,2.96-.95,2.08,0,3.94,1.25,4.74,3.17.11.26.32.46.59.56.27.09.56.07.81-.06.8-.43,1.72-.65,2.66-.59,2.68.13,4.86,2.54,4.86,5.36v1.49ZM72,38.8c.25-.49.86-.68,1.35-.43.58.3,1.14.63,1.66.99.46.31.57.93.26,1.39-.19.28-.51.44-.83.44-.19,0-.39-.06-.56-.17-.46-.31-.95-.61-1.46-.87-.49-.25-.68-.86-.43-1.35ZM67.65,41.49c-2.02,0-3.66,1.64-3.66,3.66s1.64,3.66,3.66,3.66,3.66-1.64,3.66-3.66-1.64-3.66-3.66-3.66ZM67.65,46.81c-.92,0-1.66-.75-1.66-1.66s.75-1.66,1.66-1.66,1.66.75,1.66,1.66-.75,1.66-1.66,1.66ZM26.97,40.84c2.53,0,4.59-2.06,4.59-4.59s-2.06-4.59-4.59-4.59-4.59,2.06-4.59,4.59,2.06,4.59,4.59,4.59ZM26.97,33.65c1.43,0,2.59,1.16,2.59,2.59s-1.16,2.59-2.59,2.59-2.59-1.16-2.59-2.59,1.16-2.59,2.59-2.59ZM36.85,47.34c1.71,0,3.11-1.39,3.11-3.11s-1.39-3.11-3.11-3.11-3.11,1.39-3.11,3.11,1.39,3.11,3.11,3.11ZM36.85,43.13c.61,0,1.11.5,1.11,1.11s-.5,1.11-1.11,1.11-1.11-.5-1.11-1.11.5-1.11,1.11-1.11Z"/></svg>