<?xml version="1.0" encoding="UTF-8"?><svg id="Filled_Line" xmlns="http://www.w3.org/2000/svg" viewBox="0 0 64 64"><defs><style>.cls-1{fill:#50823f;}.cls-1,.cls-2,.cls-3,.cls-4,.cls-5{stroke-width:0px;}.cls-2{fill:#1a2c3d;}.cls-3{fill:#d85264;}.cls-4{fill:#d3dce5;}.cls-5{fill:#737e9b;}</style></defs><polygon class="cls-5" points="39.64 3.98 12.89 3.98 11.28 9.23 41.25 9.23 39.64 3.98"/><polygon class="cls-5" points="41.25 54.77 39.64 60.02 12.89 60.02 11.28 54.77 41.25 54.77"/><path class="cls-3" d="m41.44,9.23H11.09c-1.85,0-3.36,1.51-3.36,3.36v24.26c0,.56.36,1.05.9,1.21l4.52,1.36c.59.18.64,1,.08,1.25l-4.75,2.12c-.45.2-.75.65-.75,1.15v7.47c0,1.85,1.51,3.36,3.36,3.36h30.35c1.85,0,3.36-1.51,3.36-3.36V12.59c0-1.85-1.51-3.36-3.36-3.36Z"/><path class="cls-4" d="m36.02,54.77c5.06-21.59-8.08-45.53-8.08-45.53h-3.66s8.77,29.67,0,45.53h11.74"/><circle class="cls-1" cx="44.27" cy="46.02" r="12"/><path class="cls-2" d="m45.8,33.12V12.59c0-2.21-1.66-4.02-3.79-4.3l-1.41-4.6c-.13-.42-.52-.71-.96-.71H12.89c-.44,0-.83.29-.96.71l-1.41,4.6c-2.13.28-3.79,2.09-3.79,4.3v25.2c0,.44.29.83.71.96l4.56,1.37-4.68,2.09c-.36.16-.59.52-.59.91v8.29c0,2.21,1.66,4.02,3.79,4.3l1.41,4.6c.13.42.52.71.96.71h26.76c.44,0,.83-.29.96-.71l.52-1.69c1.01.25,2.06.4,3.15.4,7.17,0,13-5.83,13-13,0-6.65-5.02-12.14-11.47-12.9Zm-2-20.53v20.45c-2.32.08-4.48.77-6.33,1.92-1.75-11.56-6.16-21.21-7.92-24.73h11.9c1.3,0,2.36,1.06,2.36,2.36Zm-15.24,13.35c-.84-7.16-2.33-13.22-2.99-15.7h1.72c1.18,2.27,6.6,13.22,8.34,26.09-2.68,2.38-4.37,5.84-4.37,9.7,0,2.9.97,5.58,2.58,7.75h-7.98c3.16-6.69,4.07-16.04,2.69-27.83ZM13.63,4.98h25.27l.99,3.25H12.64l.99-3.25Zm-4.9,46.43v-7.64l6.54-2.92c.38-.17.62-.56.59-.98-.03-.42-.31-.77-.71-.89l-6.42-1.94v-7.07l2.35,2.01c.19.16.42.24.65.24.18,0,.36-.05.51-.14l4.76-2.86,5.37,5.07c.19.18.44.27.69.27.27,0,.53-.11.73-.31.38-.4.36-1.03-.04-1.41l-4.96-4.68,2.95-1.77c.47-.28.63-.9.34-1.37-.28-.47-.9-.63-1.37-.34l-8.88,5.33-3.1-2.66v-14.75c0-1.3,1.06-2.36,2.36-2.36h12.41c1.17,4.27,7.54,29.39.13,43.53h-12.54c-1.3,0-2.36-1.06-2.36-2.36Zm30.17,7.61H13.63l-.99-3.25h23.06c1.04.92,2.23,1.68,3.52,2.23l-.31,1.02Zm5.36-2c-6.07,0-11-4.93-11-11s4.93-11,11-11,11,4.93,11,11-4.93,11-11,11Zm6.52-9.04c-.86,2.85-3.54,4.85-6.52,4.85-2.02,0-3.88-.93-5.15-2.4l-.16.72c-.1.47-.52.78-.98.78-.07,0-.15,0-.22-.02-.54-.12-.88-.65-.76-1.19l.72-3.24c.12-.53.63-.87,1.17-.76l3.26.63c.54.1.9.63.79,1.17-.1.54-.62.9-1.17.79l-1.19-.23c.9,1.07,2.23,1.75,3.68,1.75,2.1,0,4-1.41,4.6-3.42.16-.53.72-.83,1.25-.67.53.16.83.72.67,1.25Zm.75-6.65l-.72,3.24c-.1.46-.52.78-.98.78-.06,0-.13,0-.19-.02l-3.26-.63c-.54-.11-.9-.63-.79-1.17.11-.54.63-.89,1.17-.79l1.19.23c-.9-1.07-2.23-1.75-3.68-1.75-2.1,0-4,1.41-4.6,3.42-.16.53-.71.83-1.25.67-.53-.16-.83-.72-.67-1.25.86-2.85,3.54-4.85,6.52-4.85,2.02,0,3.88.93,5.15,2.4l.16-.72c.12-.54.66-.87,1.19-.76.54.12.88.65.76,1.19Z"/></svg>