<?xml version="1.0" encoding="UTF-8"?><svg id="Filled_Line" xmlns="http://www.w3.org/2000/svg" viewBox="0 0 64 64"><defs><style>.cls-1{fill:#50823f;}.cls-1,.cls-2,.cls-3,.cls-4{stroke-width:0px;}.cls-2{fill:#1a2c3d;}.cls-3{fill:#b8c3d5;}.cls-4{fill:#737e9b;}</style></defs><path class="cls-3" d="m46.37,23.27c-.04-1.1-.17-2.21-.36-3.29l-2.63-14.7c-.14-.76-.8-1.32-1.58-1.32H13.85c-.75,0-1.4.52-1.57,1.25l-3.12,13.92c-.22.98-.38,1.97-.48,2.97-.06.62.35,1.2.95,1.38l5.06,1.53c.58.18.63.97.08,1.22l-4.75,2.12c-.6.27-.91.93-.75,1.56,1.52,5.88,5.93,12.69,18.16,13.14,0,0,19.7,1.71,18.92-19.8Z"/><circle class="cls-1" cx="43.38" cy="35.2" r="12"/><path class="cls-4" d="m39.2,58.81l-8.18-3.31v-12.56c-2.11.25-3.57.12-3.57.12-1.27-.05-2.43-.18-3.54-.35v12.79l-8.18,3.31c-.66.26-.47,1.24.23,1.24h23c.71,0,.89-.98.23-1.24Z"/><path class="cls-2" d="m47.34,22.82c-.05-.98-.16-1.99-.35-3.02l-2.87-16.02c-.09-.48-.5-.82-.98-.82H12.57c-.47,0-.87.32-.98.78l-3.4,15.18c-.31,1.38-.5,2.79-.58,4.21-.02.46.27.88.71,1.01l5.2,1.57-4.9,2.19c-.43.19-.67.65-.57,1.11,1.18,5.81,4.78,12.67,14.86,14.57,0,0,0,0,0,.02v11.24l-7.54,3.05c-.75.29-1.16,1.05-1.02,1.83.15.79.81,1.34,1.61,1.34h23c.8,0,1.46-.55,1.61-1.34.15-.79-.27-1.54-1-1.83l-7.55-3.06v-11.02c.45-.07.92-.16,1.41-.27,2.39,2.84,5.96,4.65,9.95,4.65,7.17,0,13-5.83,13-13,0-5.79-3.8-10.7-9.04-12.38Zm-16.69,33.61l6.48,2.62h-19.31l6.48-2.62c.38-.15.62-.52.62-.93v-11.62c.78.09,1.6.15,2.45.18.04,0,.44.04,1.09.04.42,0,.95-.02,1.57-.06v11.46c0,.41.25.77.62.93Zm-3.16-14.36c-11.74-.43-15.91-6.96-17.3-12.68l6.6-2.95c.38-.17.62-.56.59-.98-.03-.42-.31-.77-.71-.89l-7-2.12c.09-1.04.25-2.08.48-3.1l.59-2.63,3.33,2.63c.18.14.4.21.62.21.19,0,.38-.05.55-.16l4.64-3.05,5.57,4.85c.19.16.42.25.66.25.28,0,.56-.12.76-.34.36-.42.32-1.05-.1-1.41l-5.15-4.48,2.87-1.89c.46-.3.59-.92.29-1.38-.3-.46-.92-.59-1.38-.29l-8.65,5.68-3.52-2.78,2.15-9.6h28.94l2.72,15.2c.13.75.22,1.48.28,2.2-.63-.09-1.27-.16-1.92-.16-7.17,0-13,5.83-13,13,0,2.39.66,4.63,1.8,6.56-2.62.47-4.62.31-4.69.31Zm15.89,4.13c-6.07,0-11-4.93-11-11s4.93-11,11-11,11,4.93,11,11-4.93,11-11,11Zm6.52-9.04c-.86,2.85-3.54,4.85-6.52,4.85-2.02,0-3.88-.93-5.15-2.4l-.16.72c-.1.47-.52.78-.98.78-.07,0-.15,0-.22-.02-.54-.12-.88-.65-.76-1.19l.72-3.24c.12-.53.63-.86,1.17-.76l3.26.63c.54.11.9.63.79,1.17-.11.54-.63.9-1.17.79l-1.19-.23c.9,1.07,2.23,1.75,3.68,1.75,2.1,0,4-1.41,4.6-3.42.16-.53.72-.83,1.25-.67.53.16.83.72.67,1.25Zm.75-6.65l-.72,3.24c-.1.46-.52.78-.98.78-.06,0-.13,0-.19-.02l-3.26-.63c-.54-.1-.9-.63-.79-1.17.1-.54.63-.9,1.17-.79l1.19.23c-.9-1.07-2.23-1.75-3.68-1.75-2.1,0-4,1.41-4.6,3.42-.16.53-.72.83-1.25.67-.53-.16-.83-.72-.67-1.25.86-2.85,3.54-4.85,6.52-4.85,2.02,0,3.88.93,5.15,2.4l.16-.72c.12-.54.66-.88,1.19-.76.54.12.88.65.76,1.19Z"/></svg>