<?xml version="1.0" encoding="UTF-8"?><svg id="Filled_Line" xmlns="http://www.w3.org/2000/svg" viewBox="0 0 64 64"><defs><style>.cls-1{fill:#77b24c;}.cls-1,.cls-2,.cls-3,.cls-4,.cls-5,.cls-6{stroke-width:0px;}.cls-2{fill:#50823f;}.cls-3{fill:#1a2c3d;}.cls-4{fill:#b8c3d5;}.cls-5{fill:#9eabc4;}.cls-6{fill:#737e9b;}</style></defs><path class="cls-1" d="m37.71,9.49H7.01c-1.68,0-3.04,1.36-3.04,3.04v33.67c0,1.68,1.36,3.04,3.04,3.04h33.74V12.53c0-1.68-1.36-3.04-3.04-3.04Z"/><path class="cls-5" d="m59.43,37.69l-5.83-11.34c-.54-1.05-1.62-1.71-2.8-1.71h-10.05v24.6h17c1.26,0,2.28-1.02,2.28-2.28v-6.79c0-.86-.21-1.71-.6-2.48Z"/><path class="cls-4" d="m57.98,34.86h-8.68c-.96,0-1.74-.78-1.74-1.74v-8.48h3.25c1.18,0,2.26.66,2.8,1.71l4.37,8.51Z"/><path class="cls-2" d="m40.75,42.55v6.69H7.01c-1.68,0-3.04-1.36-3.04-3.04v-3.65h36.78Z"/><path class="cls-6" d="m50.48,42.23c-3.39,0-6.14,2.75-6.14,6.14s2.75,6.14,6.14,6.14,6.14-2.75,6.14-6.14-2.75-6.14-6.14-6.14Z"/><path class="cls-5" d="m50.48,46.06c-1.28,0-2.31,1.04-2.31,2.31s1.04,2.31,2.31,2.31,2.31-1.04,2.31-2.31-1.03-2.31-2.31-2.31Z"/><path class="cls-6" d="m16.08,42.23c-3.39,0-6.14,2.75-6.14,6.14s2.75,6.14,6.14,6.14,6.14-2.75,6.14-6.14-2.75-6.14-6.14-6.14Z"/><path class="cls-5" d="m16.08,46.06c-1.28,0-2.31,1.04-2.31,2.31s1.04,2.31,2.31,2.31,2.31-1.04,2.31-2.31-1.03-2.31-2.31-2.31Z"/><circle class="cls-2" cx="21.98" cy="26.86" r="12"/><path class="cls-3" d="m50.48,45.06c-1.83,0-3.31,1.49-3.31,3.31s1.49,3.31,3.31,3.31,3.31-1.49,3.31-3.31-1.49-3.31-3.31-3.31Zm0,4.62c-.72,0-1.31-.59-1.31-1.31s.59-1.31,1.31-1.31,1.31.59,1.31,1.31-.59,1.31-1.31,1.31Zm-34.39-4.62c-1.83,0-3.31,1.49-3.31,3.31s1.49,3.31,3.31,3.31,3.31-1.49,3.31-3.31-1.49-3.31-3.31-3.31Zm0,4.62c-.72,0-1.31-.59-1.31-1.31s.59-1.31,1.31-1.31,1.31.59,1.31,1.31-.59,1.31-1.31,1.31Zm5.9-9.82c7.17,0,13-5.83,13-13s-5.83-13-13-13-13,5.83-13,13,5.83,13,13,13Zm0-24c6.07,0,11,4.93,11,11s-4.93,11-11,11-11-4.93-11-11,4.93-11,11-11Zm-7.26,15.69l.72-3.24c.12-.53.64-.87,1.17-.76l3.26.63c.54.1.9.63.79,1.17-.1.54-.63.9-1.17.79l-1.19-.23c.9,1.07,2.23,1.75,3.68,1.75,2.1,0,4-1.41,4.6-3.42.16-.53.71-.83,1.25-.67.53.16.83.72.67,1.25-.86,2.85-3.54,4.85-6.52,4.85-2.02,0-3.88-.93-5.15-2.4l-.16.72c-.1.47-.52.78-.97.78-.07,0-.15,0-.22-.02-.54-.12-.88-.66-.76-1.19Zm.75-6.64c.86-2.85,3.54-4.85,6.52-4.85,2.02,0,3.88.93,5.15,2.4l.16-.72c.12-.54.66-.88,1.19-.76.54.12.88.65.76,1.19l-.72,3.24c-.1.46-.52.78-.97.78-.06,0-.13,0-.19-.02l-3.26-.63c-.54-.11-.9-.63-.79-1.17s.63-.89,1.17-.79l1.19.23c-.9-1.07-2.23-1.75-3.68-1.75-2.1,0-4,1.41-4.6,3.42-.16.53-.71.83-1.25.67-.53-.16-.83-.72-.67-1.25Zm44.86,12.33l-5.83-11.34c-.71-1.39-2.13-2.25-3.69-2.25h-9.05v-11.11c0-2.23-1.81-4.04-4.04-4.04H7.01c-2.23,0-4.04,1.81-4.04,4.04v33.67c0,2.23,1.81,4.04,4.04,4.04h2.19c.83,3.03,3.6,5.27,6.89,5.27s6.06-2.24,6.88-5.27h20.62c.83,3.03,3.6,5.27,6.89,5.27s6.06-2.24,6.88-5.27h.39c1.81,0,3.28-1.47,3.28-3.28v-6.79c0-1.01-.25-2.03-.71-2.93Zm-7.6-10.43l3.62,7.05h-7.04c-.41,0-.74-.33-.74-.74v-7.48h2.25c.81,0,1.54.45,1.91,1.17Zm-30.61,17.74h17.65v3.7h-16.53c-.02-1.36-.43-2.62-1.11-3.7ZM7.01,10.49h30.7c1.13,0,2.04.92,2.04,2.04v30.02h-19.55c-1.17-.83-2.59-1.32-4.12-1.32s-2.96.49-4.12,1.32h-7V12.53c0-1.13.92-2.04,2.04-2.04Zm-2.04,35.71v-1.65h5.1c-.68,1.07-1.09,2.34-1.11,3.7h-1.94c-1.13,0-2.04-.92-2.04-2.04Zm11.12,7.32c-2.84,0-5.14-2.31-5.14-5.15s2.31-5.14,5.14-5.14,5.14,2.31,5.14,5.14-2.31,5.15-5.14,5.15Zm34.39,0c-2.84,0-5.14-2.31-5.14-5.15s2.31-5.14,5.14-5.14,5.14,2.31,5.14,5.14-2.31,5.15-5.14,5.15Zm8.56-6.56c0,.71-.58,1.28-1.28,1.28h-.14c-.07-3.88-3.24-7.02-7.14-7.02s-7.07,3.14-7.14,7.02h-1.59v-22.6h4.8v7.48c0,1.51,1.23,2.74,2.74,2.74h8.07l1.18,2.29c.32.62.49,1.32.49,2.02v6.79Z"/></svg>