<?xml version="1.0" encoding="UTF-8"?><svg id="Filled_Line" xmlns="http://www.w3.org/2000/svg" viewBox="0 0 64 64"><defs><style>.cls-1{fill:#1a2c3d;}.cls-1,.cls-2,.cls-3,.cls-4,.cls-5{stroke-width:0px;}.cls-2{fill:#d85264;}.cls-3{fill:#325068;}.cls-4{fill:#737e9b;}.cls-5{fill:#ecc865;}</style></defs><path class="cls-4" d="m24.1,16.24h12.03l3.01-10.22c.3-1.01-.46-2.02-1.51-2.02h-15.03c-1.05,0-1.81,1.01-1.51,2.02l3.01,10.22Z"/><path class="cls-4" d="m46.08,60H11.15c-2.35,0-4.27-1.86-4.27-4.14s1.92-4.14,4.27-4.14v-16.37c0-6.63,5.43-12.06,12.07-12.06h13.8c6.63,0,12.06,5.43,12.06,12.06v16.37s-2.99,8.27-2.99,8.27"/><path class="cls-3" d="m36.21,16.24h-12.17c-1.95,0-3.53,1.58-3.53,3.53s1.58,3.53,3.53,3.53h12.17c1.95,0,3.53-1.58,3.53-3.53s-1.58-3.53-3.53-3.53Z"/><path class="cls-2" d="m37.74,56.94s3.78,4.18,10.56,2.76c0,0,6.05-.78,8.35-7.11,0,0,2.12-5.64-2.68-12.11-.4-.55-1.3-.35-1.38.33-.13.97-.56,2.11-1.69,3.01-.34.27-.86.06-.92-.38-.23-1.7-1.05-5.5-3.98-9.09-.44-.53-1.31-.24-1.35.45-.07,1.45-.42,3.5-1.62,5.48,0,0-1.53,2.22-2.47,4.6-.16.4-.68.49-.96.17-.45-.52-1.01-1.36-1.36-2.5-.2-.66-1.09-.75-1.41-.14-1.56,3.04-3.73,9.28.9,14.53Z"/><path class="cls-5" d="m48.46,59.55l-.24.17c-1.53.31-2.9.34-4.11.19-.14-.11-.22-.19-.22-.19-5.42-5.44-1.73-11.06.17-13.29.31-.36.91-.16.93.32.07,1.4.44,3.46,1.98,3.77,0,0,.98-.26,1.64-1.44.19-.34.67-.4.9-.07,1.26,1.82,3.86,6.67-1.05,10.54Z"/><path class="cls-1" d="m53.19,37.98c-.32-.34-.82-.41-1.22-.18-.4.23-.59.71-.47,1.15.07.25.54,2.06-.65,3.52-.14-.78-.38-1.77-.77-2.88v-4.23c0-6.27-4.45-11.52-10.35-12.77.62-.78,1.01-1.75,1.01-2.82,0-2.08-1.41-3.81-3.33-4.35l3.29-11.14c.09-.3.03-.63-.16-.88-.19-.25-.49-.4-.8-.4h-19.25c-.32,0-.61.15-.8.4-.19.25-.25.58-.16.88l3.29,11.15c-1.9.54-3.31,2.27-3.31,4.34,0,1.07.39,2.04,1.01,2.81-5.91,1.25-10.36,6.5-10.36,12.78v15.46c-2.43.46-4.27,2.54-4.27,5.04,0,2.83,2.36,5.14,5.26,5.14h34.03c.11,0,.21.01.31.01.07,0,.15-.01.22-.01h.37c.08,0,.13-.01.17-.03.7-.04,1.41-.11,2.18-.28.27-.04,6.69-.94,9.16-7.75.11-.3,2.67-7.39-4.4-14.96ZM38.4,5l-3.02,10.24h-4.27v-4.52c0-.55-.45-1-1-1s-1,.45-1,1v4.52h-4.27l-3.02-10.24h16.58Zm-14.36,12.24h12.17c1.39,0,2.53,1.13,2.53,2.53s-1.13,2.53-2.53,2.53h-12.17c-1.39,0-2.53-1.13-2.53-2.53s1.13-2.53,2.53-2.53Zm12.97,7.06c6.1,0,11.06,4.96,11.06,11.06v.14c-.74-1.14-1.65-2.3-2.79-3.41-.31-.3-.77-.37-1.16-.17-.38.2-.59.62-.53,1.05,0,.04.54,3.55-1.38,6.74-.07.1-1.33,1.94-2.28,4.11-.48-.73-.96-1.83-.99-3.28,0-.43-.29-.81-.7-.93-.41-.13-.86.02-1.11.37-.07.1-6.98,9.86-.14,17.63,0,0,0,0,0,0,.06.07.64.69,1.69,1.39H11.15c-1.8,0-3.26-1.41-3.26-3.14s1.46-3.14,3.26-3.14c.55,0,1-.45,1-1v-16.37c0-6.1,4.97-11.06,11.07-11.06h13.8Zm5.05,29.06c.05-2.13,1.09-4.05,2.05-5.37.25,1.51.93,3.15,2.66,3.51.15.03.31.03.46-.01.47-.12,1.22-.52,1.84-1.31.65,1.08,1.4,2.75,1.24,4.5-.14,1.53-.97,2.9-2.46,4.08-1.21.23-2.31.27-3.3.18-1.69-1.72-2.53-3.6-2.48-5.59Zm13.65-1.11c-.96,2.64-2.62,4.21-4.14,5.15.4-.8.66-1.65.74-2.54.34-3.85-2.48-7.09-2.6-7.23-.24-.27-.61-.39-.96-.32-.35.08-.64.33-.75.68-.28.88-.78,1.29-1.07,1.46-.89-.53-1.02-2.85-.93-3.92.03-.41-.18-.8-.55-.98-.37-.18-.81-.12-1.11.15-.17.15-4.14,3.8-4.27,8.6-.04,1.72.42,3.35,1.35,4.89-1.82-.76-2.83-1.8-2.93-1.91-4.02-4.57-2.43-9.95-1.01-12.91.77,2.03,2.11,3.08,2.19,3.14.26.2.6.26.91.16.31-.1.55-.34.65-.65.8-2.5,2.62-5.14,2.67-5.22,1.14-1.89,1.57-3.82,1.72-5.33,3.29,4.34,3.46,8.87,3.46,8.92,0,.35.2.67.5.84.3.17.67.18.98.02,1.78-.96,2.61-2.38,2.93-3.73,4,5.72,2.32,10.52,2.23,10.75Z"/></svg>