<?xml version="1.0" encoding="UTF-8"?><svg id="Filled_Line" xmlns="http://www.w3.org/2000/svg" viewBox="0 0 64 64"><defs><style>.cls-1{fill:#1a2c3d;}.cls-1,.cls-2,.cls-3,.cls-4,.cls-5,.cls-6{stroke-width:0px;}.cls-2{fill:#d68076;}.cls-3{fill:#b74846;}.cls-4{fill:#325068;}.cls-5{fill:#737e9b;}.cls-6{fill:#ecc865;}</style></defs><path class="cls-5" d="m37.2,40.7l-12.2-1.7-12.2,1.7c-1.43.2-2.8.69-4.04,1.43h0c-2.95,1.78-4.76,4.98-4.76,8.43v9.44s21,0,21,0h21v-9.44c0-3.45-1.81-6.65-4.76-8.43h0c-1.24-.74-2.61-1.23-4.04-1.43Z"/><path class="cls-3" d="m31,33v7.91c0,1.3-.65,2.52-1.74,3.24h0c-2.58,1.72-5.95,1.72-8.53,0h0c-1.08-.72-1.74-1.94-1.74-3.24v-7.91h12Z"/><path class="cls-4" d="m25,4c-7.73,0-14,6.27-14,14v5h28v-5c0-7.73-6.27-14-14-14Z"/><path class="cls-3" d="m38,20h-3v6h3c1.66,0,3-1.34,3-3s-1.34-3-3-3Z"/><path class="cls-3" d="m12,20c-1.66,0-3,1.34-3,3s1.34,3,3,3h3v-6h-3Z"/><path class="cls-2" d="m37,20h-1.48c-3.72,0-7.36-1.04-10.52-3h0s0,0,0,0c-3.16,1.96-6.8,3-10.52,3h-1.48v5.6c0,6.61,5.17,12.28,11.78,12.4,6.73.12,12.22-5.3,12.22-12v-6Z"/><path class="cls-6" d="m40.22,41.59v18.41H9.82v-18.43c.94-.44,1.95-.73,2.98-.87l3.05-.42v7.74c0,1.65,1.33,2.98,2.98,2.98h12.34c1.64,0,2.98-1.33,2.98-2.98v-7.74l3.05.42c1.05.15,2.07.44,3.02.89Z"/><path class="cls-4" d="m57.66,55.46c1.29,0,2.34,1.02,2.34,2.27s-1.05,2.27-2.34,2.27h-20.79c-1.29,0-2.34-1.02-2.34-2.27s1.05-2.27,2.34-2.27v-7.91c0-3.64,2.98-6.61,6.61-6.61h7.56c3.64,0,6.61,2.97,6.61,6.61v7.91Z"/><path class="cls-5" d="m50.61,37.08h-6.67c-1.07,0-1.93.87-1.93,1.93s.87,1.93,1.93,1.93h6.67c1.07,0,1.93-.87,1.93-1.93s-.87-1.93-1.93-1.93Z"/><path class="cls-4" d="m50.56,37.08l1.64-5.58c.17-.57-.26-1.13-.85-1.13h-8.19c-.59,0-1.01.57-.85,1.13l1.64,5.58h6.59Z"/><path class="cls-1" d="m57.66,61c1.84,0,3.34-1.47,3.34-3.27,0-1.46-.98-2.7-2.34-3.12v-7.06c0-3.43-2.29-6.34-5.41-7.28.18-.38.3-.81.3-1.26,0-1.18-.71-2.2-1.72-2.66l1.68-5.7c.09-.3.03-.63-.16-.88-.19-.25-.49-.4-.8-.4h-10.55c-.32,0-.61.15-.8.4-.19.25-.25.58-.16.88l1.68,5.7c-1.01.47-1.71,1.48-1.71,2.66,0,.45.11.87.29,1.26-.3.09-.6.2-.88.33-.99-.44-2.02-.74-3.08-.89l-5.34-.74v-2.01c.75-.48,1.46-1.04,2.11-1.68,2.27-2.23,3.61-5.14,3.84-8.28h.05c2.21,0,4-1.79,4-4,0-1.47-.81-2.75-2-3.44v-1.56c0-8.27-6.73-15-15-15s-15,6.73-15,15v1.56c-1.19.69-2,1.97-2,3.44,0,2.21,1.79,4,4,4h.07c.42,4.12,2.69,7.7,5.93,9.86v2.11l-5.34.74c-1.57.22-3.06.75-4.42,1.56-3.23,1.95-5.24,5.51-5.24,9.29v9.44c0,.55.45,1,1,1h53.66Zm-13.72-21.05c-.51,0-.93-.42-.93-.93s.42-.93.93-.93h6.67c.51,0,.93.42.93.93s-.42.93-.93.93h-6.67Zm7.27-8.58l-1.39,4.71h-1.55v-2.02c0-.55-.45-1-1-1s-1,.45-1,1v2.02h-1.55l-1.39-4.71h7.88Zm-34.35,9.78l1.15-.16c.02,1.61.83,3.11,2.18,4.01,1.46.98,3.14,1.46,4.82,1.46s3.36-.49,4.82-1.46c1.35-.9,2.15-2.39,2.18-4.01l1.15.16v6.88c0,1.09-.89,1.98-1.98,1.98h-12.34c-1.09,0-1.98-.89-1.98-1.98v-6.88Zm21.15-16.14v-4c1.1,0,2,.9,2,2s-.9,2-2,2Zm-26-7c0-7.17,5.83-13,13-13s13,5.83,13,13v1h-2.48c-3.53,0-6.99-.99-9.99-2.85-.32-.2-.73-.2-1.05,0-3,1.86-6.46,2.85-9.99,2.85h-2.48v-1Zm-2,5c0-1.1.9-2,2-2v4c-1.1,0-2-.9-2-2Zm4,2.6v-4.6h.48c3.7,0,7.33-.98,10.52-2.83,3.19,1.86,6.82,2.83,10.52,2.83h.48v5c0,2.98-1.17,5.76-3.29,7.85-2.12,2.08-4.98,3.18-7.91,3.15-5.95-.11-10.79-5.22-10.79-11.4Zm10.76,13.4c.08,0,.16,0,.25,0,1.74,0,3.43-.34,5-1v2.91c0,.97-.48,1.87-1.29,2.41-2.25,1.5-5.17,1.5-7.42,0-.81-.54-1.29-1.44-1.29-2.41v-2.96c1.47.64,3.08,1.02,4.76,1.05Zm-11.82,2.69l1.92-.27v6.6c0,2.19,1.78,3.98,3.98,3.98h12.34c2.19,0,3.98-1.78,3.98-3.98v-6.6l1.92.27c.43.06.86.16,1.28.28-1.51,1.39-2.46,3.38-2.46,5.59v7.06c-1.36.42-2.34,1.66-2.34,3.12,0,.45.09.88.26,1.27H10.82v-16.76c.68-.26,1.39-.45,2.12-.55Zm-7.93,8.87c0-2.89,1.46-5.61,3.82-7.25v15.7h-3.82v-8.44Zm46.05-8.61c3.09,0,5.61,2.52,5.61,5.61v7.91c0,.55.45,1,1,1,.74,0,1.34.57,1.34,1.27s-.6,1.27-1.34,1.27h-20.79c-.74,0-1.34-.57-1.34-1.27s.6-1.27,1.34-1.27c.55,0,1-.45,1-1v-7.91c0-3.09,2.52-5.61,5.61-5.61h7.56Zm-36.35,13.88c0-.55.45-1,1-1h4.23c.55,0,1,.45,1,1s-.45,1-1,1h-4.23c-.55,0-1-.45-1-1Z"/></svg>