<?xml version="1.0" encoding="UTF-8"?><svg id="Filled_Line" xmlns="http://www.w3.org/2000/svg" viewBox="0 0 64 64"><defs><style>.cls-1{fill:#77b24c;}.cls-1,.cls-2,.cls-3,.cls-4,.cls-5{stroke-width:0px;}.cls-2{fill:#50823f;}.cls-3{fill:#1a2c3d;}.cls-4{fill:#d85264;}.cls-5{fill:#ecc865;}</style></defs><path class="cls-1" d="m21.34,18.86l4.41,10.77c.26.63-.39,1.24-1,.96l-2.55-1.16-9.83,19.04s-.66,1.85-.02,3.5l-7.3-11.15s-1.98-2.61-.51-5.84l6.08-10.83-2.1-.96c-.62-.28-.57-1.17.07-1.39l11.03-3.72c.69-.23,1.44.11,1.71.78Z"/><path class="cls-1" d="m28.34,7.28c-1.17-1.78-3.08-1.82-3.43-1.81h13.97s3.27-.22,5.16,2.79l5.47,10.34,1.95-1.23c.57-.36,1.29.17,1.12.82l-2.94,11.27c-.18.7-.88,1.14-1.59,1l-11.43-2.22c-.66-.13-.83-1-.26-1.37l2.37-1.49L28.34,7.28Z"/><path class="cls-1" d="m59,40.2c-1.23,1.25-3.17,1.41-3.17,1.41h-23.95s0-2.81,0-2.81c0-.68-.83-1.01-1.29-.51l-7.97,8.48c-.5.53-.5,1.35,0,1.88l7.96,8.49c.46.49,1.29.17,1.29-.51v-2.31s14.92,0,14.92,0c3.55,0,5.1-2.88,5.1-2.88l7.1-11.25Z"/><path class="cls-2" d="m19.63,18.07c.69-.23,1.44.11,1.71.78l3.03,7.39,7.94-12.06-3.97-6.91c-1.3-1.97-3.49-1.81-3.49-1.81-2.29,0-3.36,1.93-3.36,1.93l-8.58,12.94,6.72-2.27Z"/><path class="cls-2" d="m59.79,36.14l-7.61-16.42-2.54,9.73c-.18.7-.88,1.14-1.59,1l-5.46-1.06,5.66,12.22h7.59s1.94-.16,3.17-1.41c.8-.81,1.3-2.08.78-4.07Z"/><path class="cls-2" d="m22.62,48.66c-.5-.53-.5-1.35,0-1.88l4.86-5.18h-11.57s-3.54,6.87-3.54,6.87c0,0-1.78,4.99,3.35,5.87h12.23s-5.32-5.68-5.32-5.68Z"/><circle class="cls-5" cx="48" cy="48" r="12"/><path class="cls-4" d="m54.39,43.66l-1.63-1.63c-.33-.33-.86-.33-1.19,0l-3.57,3.57-3.57-3.57c-.33-.33-.86-.33-1.19,0l-1.63,1.63c-.33.33-.33.86,0,1.19l3.57,3.57-3.57,3.57c-.33.33-.33.86,0,1.19l1.63,1.63c.33.33.86.33,1.19,0l3.57-3.57,3.57,3.57c.33.33.86.33,1.19,0l1.63-1.63c.33-.33.33-.86,0-1.19l-3.57-3.57,3.57-3.57c.33-.33.33-.86,0-1.19Z"/><path class="cls-3" d="m55.1,42.95l-1.63-1.63c-.69-.7-1.91-.7-2.6,0l-2.87,2.87-2.87-2.87c-.72-.72-1.88-.72-2.6,0l-1.63,1.63c-.72.72-.72,1.88,0,2.6l2.87,2.87-2.87,2.87c-.72.72-.72,1.88,0,2.6l1.63,1.63c.72.72,1.89.72,2.6,0l2.87-2.87,2.87,2.87c.36.36.83.54,1.3.54s.94-.18,1.3-.54l1.63-1.63c.72-.72.72-1.89,0-2.6l-2.87-2.87,2.87-2.87c.72-.72.72-1.89,0-2.6Zm-4.99,4.76c-.39.39-.39,1.02,0,1.41l3.46,3.46-1.41,1.41-3.46-3.46c-.2-.2-.45-.29-.71-.29s-.51.1-.71.29l-3.46,3.46-1.41-1.41,3.46-3.46c.39-.39.39-1.02,0-1.41l-3.46-3.46,1.41-1.41,3.46,3.46c.39.39,1.02.39,1.41,0l3.46-3.46,1.41,1.41-3.46,3.46Zm-34.39,7.62h11.79l3.63,3.88c.19.21.46.32.73.32.12,0,.25-.02.37-.07.38-.15.63-.52.63-.93v-3.2s4.4,0,4.4,0c2.34,3.42,6.28,5.67,10.72,5.67,7.17,0,13-5.83,13-13,0-2.42-.68-4.68-1.84-6.63.2-.15.39-.3.55-.46.85-.86,1.72-2.43,1.04-5.02-.01-.06-.04-.11-.06-.17l-7.46-16.09.79-3.01c.1-.4-.05-.82-.38-1.06-.33-.24-.78-.26-1.12-.04l-2.64,1.66-5-9.45c-2.19-3.47-5.91-3.26-6.01-3.25h-13.85c-2.98-.13-4.37,2.38-4.37,2.38l-8.39,12.65-5.78,1.95c-.39.13-.66.49-.68.9-.02.41.21.79.58.96l2.83,1.29-5.58,9.96c-1.63,3.56.33,6.46.59,6.82l7.25,11.07s1.61,2.68,4.24,2.89Zm43.12-18.86c.33,1.33.15,2.32-.55,3.03-.08.08-.18.15-.27.23-2.39-2.89-5.99-4.73-10.02-4.73-.56,0-1.11.05-1.66.12l-2.02-4.37,4.8.93c.06.01.13.02.19.02.45,0,.85-.3.97-.75l2.16-8.28,6.4,13.81Zm-21.52,4.13h-4.43s0-3.69,0-3.69c0-.41-.25-.78-.63-.93-.38-.15-.82-.05-1.1.25l-4.11,4.37h-9.5l5.09-9.87,3.4,1.55c.37.17.81.1,1.11-.19.3-.28.39-.72.23-1.1l-1.9-4.64,6.76-10.26,5.14,8.94-3.16,1.99c-.35.22-.53.63-.45,1.03.08.4.39.72.79.8l7.32,1.42,2.43,5.26c-2.88.85-5.34,2.66-7.02,5.07ZM28.99,6.47h9.95c.11,0,2.71-.12,4.21,2.25l5.47,10.34c.13.25.36.43.63.5.27.07.56.03.79-.12l1.41-.89-2.86,10.99-11.15-2.16,1.83-1.15c.45-.29.6-.88.33-1.34L29.21,6.79c-.06-.11-.22-.31-.22-.31Zm-3.95,0c.43.01,1.65.15,2.45,1.34l3.65,6.35-6.56,9.96-2.8-6.83c-.2-.49-.74-.74-1.25-.57l-5.18,1.75,7-10.56s.86-1.54,2.68-1.43ZM5.85,40.21c-.07-.09-1.59-2.2-.43-4.75l6.08-10.83c.14-.24.17-.53.08-.8-.09-.27-.28-.48-.54-.6l-1.52-.69,10.76-3.63,4.3,10.51-1.97-.9c-.49-.22-1.06-.02-1.3.45l-9.83,19.04s-.13.28-.18.54l-5.46-8.33Zm7.45,8.64l3.23-6.25h8.65l-4.16,4.43c-.36.38-.36.98,0,1.37l4.63,4.94h-9.83c-1.14-.21-1.96-.66-2.35-1.38-.74-1.37-.16-3.1-.16-3.1Zm18.58,4.48c-.55,0-1,.45-1,1v1.67s-7.77-8.28-7.77-8.28l7.77-8.27v2.16c0,.27.1.52.29.71s.44.29.71.29h4.3c-.75,1.65-1.18,3.47-1.18,5.39s.42,3.7,1.16,5.33h-4.28Zm16.12,5.67c-6.07,0-11-4.93-11-11s4.93-11,11-11,11,4.93,11,11-4.93,11-11,11Z"/></svg>