<?xml version="1.0" encoding="UTF-8"?><svg id="Filled_Line" xmlns="http://www.w3.org/2000/svg" viewBox="0 0 64 64"><defs><style>.cls-1{fill:#77b24c;}.cls-1,.cls-2,.cls-3{stroke-width:0px;}.cls-2{fill:#1a2c3d;}.cls-3{fill:#d3dce5;}</style></defs><circle class="cls-3" cx="32" cy="32" r="28"/><path class="cls-1" d="m31.45,34.96c0,2.51-2.1,4.56-4.67,4.56h-7.22c-1.86,0-3.37,1.48-3.37,3.29s1.51,3.3,3.37,3.3h2.38c1.97,0,3.58,1.57,3.58,3.49s-1.61,3.5-3.58,3.5h-8.34c-5.88-5.13-9.6-12.68-9.6-21.1,0-.54.02-1.07.05-1.6h22.73c2.57,0,4.67,2.05,4.67,4.56Z"/><path class="cls-1" d="m54.45,15.26v11.4c0,2.57-2.05,4.67-4.56,4.67s-4.56-2.1-4.56-4.67v-7.56c0-1.86-1.49-3.37-3.3-3.37s-3.29,1.51-3.29,3.37v2.38c0,1.97-1.57,3.57-3.49,3.57s-3.5-1.6-3.5-3.57V4.01c.08-.01.17-.01.25-.01,9.18,0,17.34,4.43,22.45,11.26Z"/><path class="cls-1" d="m38.8,59.58c3.91.29,17.39,0,14.63-18.43-.1-.66-.67-1.16-1.34-1.17-4.17-.07-18,.99-14.54,18.5.12.61.63,1.06,1.25,1.1Z"/><path class="cls-1" d="m22.63,20.86c.65-3.87,1.57-17.32-17.04-16.23-.67.04-1.21.56-1.28,1.23-.45,4.15-.64,18.02,17.11,16.15.61-.06,1.11-.54,1.21-1.15Z"/><path class="cls-2" d="m61,32c0-15.99-13.01-29-29-29-4.71,0-9.36,1.16-13.5,3.35-3.31-2.26-8.03-3.17-14.12-2.64-.44.04-.81.36-.89.8-.07.35-1.6,8.45,2.9,13.92-2.21,4.17-3.39,8.84-3.39,13.57,0,15.99,13.01,29,29,29,1.88,0,3.76-.19,5.6-.55.13.02,1.16.19,2.67.19,2.87,0,7.44-.6,10.73-3.92,1.6-1.62,2.7-3.69,3.29-6.18,4.33-5.2,6.72-11.77,6.72-18.54Zm-7.55-16.37v11.04c0,2.02-1.6,3.67-3.56,3.67s-3.56-1.65-3.56-3.67v-7.57c0-2.41-1.93-4.37-4.29-4.37s-4.29,1.96-4.29,4.37v2.39c0,1.42-1.12,2.57-2.49,2.57s-2.49-1.15-2.49-2.57V5.02c8.43.23,15.9,4.34,20.7,10.61ZM5.34,5.64c6.62-.44,11.34.93,14.01,4.09,2.57,3.05,2.69,7.15,2.46,9.66-3.2-4.13-7.8-8.15-8.03-8.34-.42-.36-1.05-.32-1.41.1-.36.42-.32,1.05.1,1.41.05.05,5,4.37,8.09,8.5-5.53.45-9.65-.68-12.22-3.41-3.62-3.85-3.26-9.91-3-12.01Zm-.34,26.36c0-.2.01-.4.02-.6h21.76c2.02,0,3.67,1.6,3.67,3.56s-1.64,3.56-3.67,3.56h-7.23c-2.41,0-4.37,1.93-4.37,4.29s1.96,4.29,4.37,4.29h2.39c1.42,0,2.57,1.12,2.57,2.49s-1.15,2.49-2.57,2.49h-7.95c-5.51-4.95-8.99-12.12-8.99-20.1Zm11.51,22.1h5.43c2.52,0,4.57-2.02,4.57-4.49s-2.05-4.49-4.57-4.49h-2.39c-1.31,0-2.37-1.03-2.37-2.29s1.06-2.29,2.37-2.29h7.23c3.12,0,5.67-2.5,5.67-5.56s-2.54-5.56-5.67-5.56H5.14c.32-3.29,1.24-6.5,2.72-9.46,2.55,2.15,6.04,3.24,10.44,3.24,1.34,0,2.75-.1,4.26-.3.4-.05.73-.34.83-.74.09-.33,2.09-8.21-2.5-13.68-.22-.26-.47-.48-.71-.72,3.3-1.61,6.91-2.53,10.58-2.7v16.44c0,2.52,2.02,4.57,4.49,4.57s4.49-2.05,4.49-4.57v-2.39c0-1.31,1.03-2.37,2.29-2.37s2.29,1.06,2.29,2.37v7.57c0,3.12,2.5,5.67,5.56,5.67s5.56-2.54,5.56-5.67v-8.02c2.25,3.94,3.55,8.5,3.55,13.36,0,5.13-1.49,10.12-4.2,14.41.05-1.99-.14-4.18-.56-6.56-.08-.44-.44-.77-.88-.82-.37-.04-9.16-.91-14.13,4.68-3.03,3.41-3.9,8.43-2.64,14.89-1.51.26-3.05.4-4.58.4-5.76,0-11.1-1.82-15.49-4.9Zm33.07,1.21c-2.93,2.96-7.26,3.36-9.73,3.32,1.82-2.1,5.02-6.01,6.83-9.51.25-.49.06-1.09-.43-1.35-.49-.25-1.09-.06-1.35.43-1.68,3.26-4.77,7.03-6.53,9.08-.88-5.35-.11-9.46,2.34-12.22,3.51-3.95,9.57-4.14,11.69-4.07,1.04,6.56.09,11.38-2.82,14.32Z"/></svg>