<?xml version="1.0" encoding="UTF-8"?><svg id="Filled_Line" xmlns="http://www.w3.org/2000/svg" viewBox="0 0 64 64"><defs><style>.cls-1{fill:#50823f;}.cls-1,.cls-2,.cls-3,.cls-4,.cls-5{stroke-width:0px;}.cls-2{fill:#1a2c3d;}.cls-3{fill:#b8c3d5;}.cls-4{fill:#9eabc4;}.cls-5{fill:#737e9b;}</style></defs><path class="cls-3" d="m48,17.7v38.77c0,1.95-1.58,3.53-3.53,3.53H10.53c-1.95,0-3.53-1.58-3.53-3.53v-13.41c0-.52.33-.98.82-1.14l5.9-1.96c.65-.22.64-1.14-.02-1.34l-5.85-1.78c-.51-.15-.85-.62-.85-1.15V7.53c0-1.95,1.58-3.53,3.53-3.53h23.64c.61,0,1.19.24,1.62.67l11.52,11.39c.44.43.69,1.03.69,1.64Z"/><path class="cls-4" d="m47.78,16.74h-11.15c-.84,0-1.52-.68-1.52-1.52V4.2c.25.11.49.27.69.47l11.51,11.39c.2.2.36.43.47.68Z"/><path class="cls-5" d="m48,53.02v3.45c0,1.95-1.58,3.53-3.53,3.53H10.53c-1.95,0-3.53-1.58-3.53-3.53v-3.45h41Z"/><circle class="cls-1" cx="45" cy="43" r="12"/><path class="cls-2" d="m58,43c0-5.77-3.78-10.67-9-12.36v-13.9c0-.27-.11-.52-.3-.71l-12.88-12.74c-.19-.19-.44-.29-.7-.29H10.53c-2.5,0-4.53,2.03-4.53,4.53v29.04c0,.44.29.83.71.96l5.81,1.77-5.83,1.94c-.41.14-.68.52-.68.95v14.28c0,2.5,2.03,4.53,4.53,4.53h33.94c2.5,0,4.53-2.03,4.53-4.53v-1.1c5.22-1.69,9-6.59,9-12.36ZM36.11,6.39l9.46,9.35h-9.46V6.39Zm-19.98,33.82c.41-.14.69-.53.68-.96,0-.44-.29-.82-.71-.94l-8.1-2.46v-9.18l4.2,3.6c.19.16.42.24.65.24.18,0,.35-.05.51-.14l4.76-2.86,5.37,5.07c.19.18.44.27.69.27.27,0,.53-.11.73-.31.38-.4.36-1.04-.04-1.41l-4.96-4.68,2.95-1.77c.47-.28.63-.9.34-1.37s-.9-.63-1.37-.34l-8.88,5.33-4.95-4.24V7.53c0-1.4,1.14-2.53,2.53-2.53h23.58v11.74c0,.55.45,1,1,1h11.89v12.43c-.65-.1-1.32-.17-2-.17-7.17,0-13,5.83-13,13,0,3.51,1.4,6.68,3.66,9.03H8v-9.12l8.13-2.7Zm30.87,16.26c0,1.4-1.14,2.53-2.53,2.53H10.53c-1.4,0-2.53-1.14-2.53-2.53v-2.44h30.15c1.99,1.24,4.34,1.97,6.85,1.97.68,0,1.35-.07,2-.17v.64Zm-2-2.47c-6.07,0-11-4.93-11-11s4.93-11,11-11,11,4.93,11,11-4.93,11-11,11Zm6.52-9.04c-.86,2.85-3.54,4.85-6.52,4.85-2.02,0-3.88-.93-5.15-2.4l-.16.72c-.1.47-.52.78-.98.78-.07,0-.15,0-.22-.02-.54-.12-.88-.65-.76-1.19l.72-3.24c.12-.53.63-.87,1.17-.76l.38.07c.05-.02.11-.04.15-.05.29-.09.29-.03.25.13l2.48.48c.54.1.9.63.79,1.17s-.63.9-1.17.79l-1.19-.23c.9,1.07,2.23,1.75,3.68,1.75,2.1,0,4-1.41,4.6-3.42.16-.53.72-.83,1.25-.67.53.16.83.72.67,1.25Zm.75-6.65l-.72,3.24c-.1.46-.52.78-.98.78-.06,0-.13,0-.19-.02l-3.26-.63c-.54-.1-.9-.63-.79-1.17.11-.54.63-.9,1.17-.79l1.19.23c-.9-1.07-2.23-1.75-3.68-1.75-2.1,0-4,1.41-4.6,3.42-.16.53-.72.83-1.25.67-.53-.16-.83-.72-.67-1.25.86-2.85,3.54-4.85,6.52-4.85,2.02,0,3.88.93,5.15,2.4l.16-.72c.12-.54.66-.88,1.19-.76.54.12.88.65.76,1.19Z"/></svg>