<?xml version="1.0" encoding="UTF-8"?><svg id="Filled_Line" xmlns="http://www.w3.org/2000/svg" viewBox="0 0 64 64"><defs><style>.cls-1{fill:#77b24c;}.cls-1,.cls-2,.cls-3,.cls-4,.cls-5,.cls-6{stroke-width:0px;}.cls-2{fill:#50823f;}.cls-3{fill:#1a2c3d;}.cls-4{fill:#b8c3d5;}.cls-5{fill:#a26a55;}.cls-6{fill:#737e9b;}</style></defs><path class="cls-4" d="m53.23,52.08s7.4-15.37-3.22-28.86l-.16-.17-35.71-.02-.14.19c-10.62,13.49-3.22,28.86-3.22,28.86-1.97,0-3.59,1.61-3.59,3.59v.71c0,1.97,1.61,3.59,3.59,3.59h42.45c1.97,0,3.59-1.61,3.59-3.59v-.71c0-1.97-1.61-3.59-3.59-3.59Z"/><path class="cls-5" d="m50.27,15.21c-.28-2.03-1.3-5.61-4.97-7.15,0,0-2.94-1.23-5.89.98,0,0-1.05-5.04-7.43-5s-7.4,5-7.4,5c-2.95-2.21-5.89-.98-5.89-.98-3.66,1.54-4.68,5.1-4.97,7.13l36.55.02Z"/><circle class="cls-2" cx="32" cy="40.93" r="12"/><path class="cls-1" d="m34.64,17.54c2.75-.08,10.96-1.25,8.29-12.64-.12-.52-.61-.87-1.15-.83-2.88.24-11.31,1.87-8.24,12.68.14.48.59.8,1.09.78Z"/><path class="cls-6" d="m51.68,15.22l-39.35-.02c-2.17,0-3.92,1.76-3.92,3.92s1.76,3.92,3.92,3.92l39.35.02c2.17,0,3.92-1.76,3.92-3.92s-1.76-3.92-3.92-3.92Z"/><path class="cls-3" d="m32,27.93c-7.17,0-13,5.83-13,13s5.83,13,13,13,13-5.83,13-13-5.83-13-13-13Zm0,24c-6.07,0-11-4.93-11-11s4.93-11,11-11,11,4.93,11,11-4.93,11-11,11Zm6.52-9.04c-.86,2.85-3.54,4.85-6.52,4.85-2.02,0-3.88-.93-5.15-2.4l-.16.72c-.1.47-.52.78-.98.78-.07,0-.15,0-.22-.02-.54-.12-.88-.65-.76-1.19l.72-3.24c.12-.53.63-.87,1.17-.76l3.26.63c.54.1.9.63.79,1.17-.11.54-.63.9-1.17.79l-1.19-.23c.9,1.07,2.23,1.75,3.68,1.75,2.1,0,4-1.41,4.6-3.42.16-.53.72-.83,1.25-.67.53.16.83.72.67,1.25Zm.75-6.65l-.72,3.24c-.1.46-.52.78-.98.78-.06,0-.13,0-.19-.02l-3.26-.63c-.54-.1-.9-.63-.79-1.17.1-.54.63-.9,1.17-.79l1.19.23c-.9-1.07-2.23-1.75-3.68-1.75-2.1,0-4,1.41-4.6,3.42-.16.53-.72.83-1.25.67-.53-.16-.83-.72-.67-1.25.86-2.85,3.54-4.85,6.52-4.85,2.02,0,3.88.93,5.15,2.4l.16-.72c.12-.54.66-.88,1.19-.76.54.12.88.65.76,1.19Zm15.37,15.06c1.44-3.83,4.99-16.03-2.78-27.26,2.64-.09,4.76-2.25,4.76-4.91s-2.21-4.92-4.92-4.92h-.56c-.47-2.27-1.78-5.55-5.43-7.08-.07-.03-.6-.24-1.41-.35-.13-.96-.31-1.95-.6-3.02-.12-.43-.5-.73-.95-.74-.17,0-3.03-.02-5.78,1.28-1.39-.83-3.06-1.26-4.97-1.27-4.59.03-6.96,2.5-7.91,4.49-2.95-1.53-5.63-.45-5.75-.4-3.63,1.53-4.95,4.79-5.42,7.06h-.57c-2.71,0-4.92,2.21-4.92,4.92s2.13,4.82,4.77,4.91c-7.79,11.24-4.23,23.45-2.8,27.28-1.85.59-3.19,2.33-3.19,4.37v.71c0,2.53,2.06,4.59,4.59,4.59h42.45c2.53,0,4.59-2.06,4.59-4.59v-.71c0-2.04-1.34-3.78-3.19-4.37Zm-9.71-42.32c2.62,1.1,3.69,3.43,4.14,5.23h-5.91c.88-1.47,1.32-3.26,1.29-5.36.3.07.48.13.48.13Zm-4.26,5.23h-3.37c.88-1.42,1.55-2.68,2-3.78.21-.51-.04-1.09-.55-1.3-.51-.21-1.1.04-1.3.55-.5,1.23-1.38,2.8-2.53,4.53h-.88c-.37-2.63.07-4.73,1.33-6.25,1.88-2.25,5.12-2.77,6.58-2.89.99,4.15.55,7.21-1.28,9.14Zm-21.58-5.22c.1-.04,2.49-.96,4.91.86.27.2.63.25.95.13.32-.12.56-.39.63-.73.04-.17.98-4.17,6.43-4.21,1.12,0,2.1.18,2.97.51-.4.33-.78.69-1.13,1.11-1.61,1.92-2.21,4.45-1.83,7.54H14.95c.45-1.8,1.52-4.12,4.13-5.22Zm-9.67,10.13c0-1.61,1.31-2.92,2.92-2.92l39.35.02c1.61,0,2.92,1.31,2.92,2.92s-1.31,2.92-2.92,2.92l-39.35-.02h0c-1.61,0-2.92-1.31-2.92-2.92Zm46.41,37.26c0,1.43-1.16,2.59-2.59,2.59H10.77c-1.43,0-2.59-1.16-2.59-2.59v-.71c0-1.43,1.16-2.59,2.59-2.59.34,0,.66-.18.85-.47.18-.29.2-.66.06-.96-.07-.15-6.91-14.83,2.96-27.61l34.74.02c9.85,12.77,3.02,27.44,2.95,27.59-.15.31-.13.67.06.96.18.29.5.47.85.47,1.43,0,2.59,1.16,2.59,2.59v.71Z"/></svg>