<?xml version="1.0" encoding="UTF-8"?><svg id="Filled_Line" xmlns="http://www.w3.org/2000/svg" viewBox="0 0 64 64"><defs><style>.cls-1{fill:#50823f;}.cls-1,.cls-2,.cls-3,.cls-4,.cls-5{stroke-width:0px;}.cls-2{fill:#1a2c3d;}.cls-3{fill:#d85264;}.cls-4{fill:#b8c3d5;}.cls-5{fill:#737e9b;}</style></defs><path class="cls-4" d="m35.67,18.79v-7.83h-14.33v7.83c-8.08,2.93-13.85,10.67-13.85,19.76,0,1.01.07,2,.21,2.97.1.68.63,1.21,1.31,1.28l6.11.62c.64.06.81.92.25,1.23l-4.45,2.44c-.73.4-.98,1.32-.56,2.04,3.88,6.65,11.29,10.98,19.67,10.39,10.15-.72,18.47-8.87,19.39-19,.9-9.92-5.11-18.58-13.76-21.72Z"/><path class="cls-3" d="m37.29,39.92v-2.63c0-.53-.43-.96-.96-.96h-5.77s0-5.77,0-5.77c0-.53-.43-.96-.96-.96h-2.63c-.53,0-.96.43-.96.96v5.77s-5.77,0-5.77,0c-.53,0-.96.43-.96.96v2.63c0,.53.43.96.96.96h5.77s0,5.77,0,5.77c0,.53.43.96.96.96h2.63c.53,0,.96-.43.96-.96v-5.77s5.77,0,5.77,0c.53,0,.96-.43.96-.96Z"/><rect class="cls-5" x="17.74" y="4.1" width="21.53" height="6.87" rx="1.75" ry="1.75"/><circle class="cls-1" cx="44.51" cy="47.9" r="12"/><path class="cls-2" d="m50.39,36.33c-.82-8.15-6.12-15.19-13.72-18.23v-6.14h.85c1.52,0,2.75-1.24,2.75-2.75v-3.36c0-1.52-1.24-2.75-2.75-2.75h-18.03c-1.52,0-2.75,1.24-2.75,2.75v3.36c0,1.52,1.24,2.75,2.75,2.75h.85v6.14c-8.31,3.32-13.85,11.45-13.85,20.45,0,1.44.14,2.89.43,4.33.09.43.44.75.88.8l6.12.62-4.76,2.61c-.47.26-.65.84-.42,1.32,3.74,7.61,11.3,12.34,19.75,12.34,3.03,0,5.98-.63,8.78-1.86,2.07,1.38,4.55,2.19,7.21,2.19,7.17,0,13-5.83,13-13,0-5.05-2.9-9.42-7.11-11.58ZM18.74,9.21v-3.36c0-.42.34-.75.75-.75h18.03c.42,0,.75.34.75.75v3.36c0,.42-.34.75-.75.75h-18.03c-.42,0-.75-.34-.75-.75Zm9.77,49.36c-7.36,0-13.99-3.95-17.52-10.37l6.72-3.69c.38-.21.59-.65.5-1.08s-.44-.75-.88-.8l-8.57-.87c-.17-1.07-.26-2.15-.26-3.21,0-2.72.56-5.35,1.58-7.76l3.25,2.2c.17.12.37.17.56.17.21,0,.43-.07.61-.21l3.4-2.6,3.61,2.71c.18.13.39.2.6.2.3,0,.6-.14.8-.4.33-.44.24-1.07-.2-1.4l-3.16-2.37,3.53-2.7c.44-.33.52-.96.19-1.4s-.96-.52-1.4-.19l-8.01,6.12-2.89-1.96c2.29-4.19,6.05-7.55,10.72-9.24.4-.14.66-.52.66-.94v-6.83h12.33v6.83c0,.42.26.8.66.94,6.89,2.5,11.83,8.57,12.94,15.73-1.19-.36-2.46-.56-3.77-.56-2.31,0-4.48.61-6.36,1.67-.29-.73-.99-1.25-1.82-1.25h-4.77v-4.77c0-1.08-.88-1.96-1.96-1.96h-2.63c-1.08,0-1.96.88-1.96,1.96v4.77h-4.77c-1.08,0-1.96.88-1.96,1.96v2.63c0,1.08.88,1.96,1.96,1.96h4.77v4.77c0,1.08.88,1.96,1.96,1.96h2.63c1.08,0,1.96-.88,1.96-1.96v-4.77h1.43c-.95,1.8-1.49,3.85-1.49,6.02,0,3.68,1.55,7,4.01,9.37-2.26.85-4.61,1.29-7.01,1.29Zm5.79-18.69h-3.74c-.55,0-1,.45-1,1l.04,5.73-2.59.04v-5.77c0-.55-.45-1-1-1l-5.73.04-.04-2.59h5.77c.55,0,1-.45,1-1l-.04-5.73,2.59-.04v5.77c0,.55.45,1,1,1l5.73-.04v.55c-.74.6-1.4,1.29-1.99,2.04Zm10.21,19.02c-6.07,0-11-4.93-11-11s4.93-11,11-11,11,4.93,11,11-4.93,11-11,11Zm6.52-9.04c-.86,2.85-3.54,4.85-6.52,4.85-2.02,0-3.88-.93-5.15-2.4l-.16.72c-.1.47-.52.78-.97.78-.07,0-.15,0-.22-.02-.54-.12-.88-.65-.76-1.19l.72-3.24c.12-.53.63-.87,1.17-.76l3.26.63c.54.11.9.63.79,1.17-.11.54-.63.9-1.17.79l-1.19-.23c.9,1.07,2.23,1.75,3.68,1.75,2.1,0,4-1.41,4.6-3.42.16-.53.71-.83,1.25-.67.53.16.83.72.67,1.25Zm.75-6.64l-.72,3.24c-.1.46-.52.78-.97.78-.06,0-.13,0-.19-.02l-3.26-.63c-.54-.1-.9-.63-.79-1.17s.63-.89,1.17-.79l1.19.23c-.9-1.07-2.23-1.75-3.68-1.75-2.1,0-4,1.41-4.6,3.42-.16.53-.72.83-1.25.67-.53-.16-.83-.72-.67-1.25.86-2.85,3.54-4.85,6.52-4.85,2.02,0,3.88.93,5.15,2.4l.16-.72c.12-.54.66-.88,1.19-.76.54.12.88.65.76,1.19Z"/></svg>