<?xml version="1.0" encoding="UTF-8"?><svg id="Filled_Line" xmlns="http://www.w3.org/2000/svg" viewBox="0 0 64 64"><defs><style>.cls-1{fill:#50823f;}.cls-1,.cls-2,.cls-3,.cls-4{stroke-width:0px;}.cls-2{fill:#1a2c3d;}.cls-3{fill:#d85264;}.cls-4{fill:#737e9b;}</style></defs><path class="cls-3" d="m44.05,9.61h-18.81c-.51,0-1,.2-1.36.56l-12.22,12.22c-.39.39-.61.92-.61,1.47v15.96c0,.57.37,1.07.92,1.23l4.47,1.35c.59.18.64.99.08,1.25l-4.7,2.1c-.46.21-.76.67-.76,1.18v8.88c0,2.31,1.89,4.19,4.19,4.19h32.86c2.31,0,4.19-1.89,4.19-4.19V17.86c0-4.54-3.71-8.25-8.25-8.25Zm1.94,11.81c0,1.19-.97,2.16-2.16,2.16h-22.54c-.61,0-.92-.74-.49-1.17l6.62-6.71c.33-.34.79-.53,1.26-.53h15.15c1.19,0,2.16.97,2.16,2.16v4.09Z"/><path class="cls-3" d="m18.79,7.35l-2.52-2.52c-.37-.37-.98-.37-1.35,0L6.37,13.38c-.37.37-.37.98,0,1.35l2.52,2.52c.37.37.98.37,1.35,0l4.24-4.24,4.31-4.31c.37-.37.37-.98,0-1.35Z"/><rect class="cls-4" x="11.95" y="12.31" width="8.39" height="4.64" transform="translate(-5.62 15.7) rotate(-45)"/><path class="cls-4" d="m52.3,53.02v2.79c0,2.3-1.88,4.19-4.19,4.19H15.25c-2.31,0-4.2-1.89-4.2-4.19v-2.79h41.25Z"/><circle class="cls-1" cx="48" cy="48" r="12"/><path class="cls-2" d="m46.99,21.42v-4.09c0-1.75-1.42-3.16-3.16-3.16h-15.89c-.27,0-.52.11-.71.3l-8.29,8.41c-.28.29-.37.72-.21,1.09.16.37.52.61.92.61h24.19c1.74,0,3.16-1.42,3.16-3.16Zm-18.64-5.25h15.48c.64,0,1.16.52,1.16,1.16v4.09c0,.64-.52,1.16-1.16,1.16h-21.8l6.32-6.41Zm32.65,31.83c0-5.28-3.17-9.82-7.7-11.86v-18.28c0-5.1-4.15-9.25-9.25-9.25h-19.61c-.27,0-.52.11-.71.29l-2.99,2.99-1.87-1.87,1.3-1.3c.39-.39.39-1.02,0-1.41l-3.87-3.87c-.39-.39-1.02-.39-1.41,0L4.99,13.35c-.39.39-.39,1.02,0,1.41l3.87,3.87c.2.2.45.29.71.29s.51-.1.71-.29l1.26-1.26,1.87,1.87-3.05,3.05c-.19.19-.29.44-.29.71v17.78c0,.44.29.83.71.96l4.53,1.37-4.65,2.08c-.36.16-.59.52-.59.91v9.72c0,2.86,2.33,5.19,5.19,5.19h32.86s.05,0,.07,0c7.08-.1,12.82-5.88,12.82-12.99ZM9.57,16.51l-2.46-2.46L15.6,5.57l2.46,2.46-8.49,8.49Zm3.38-.55l4.52-4.52,1.87,1.87-4.52,4.52-1.87-1.87Zm5.61,27.87c.38-.17.62-.56.59-.98-.03-.42-.31-.77-.71-.89l-6.39-1.93v-6l2.6,2.23c.19.16.42.24.65.24.18,0,.36-.05.51-.14l4.76-2.86,5.37,5.07c.19.18.44.27.69.27.27,0,.53-.11.73-.31.38-.4.36-1.04-.04-1.41l-4.96-4.68,2.95-1.77c.47-.28.63-.9.34-1.37s-.9-.63-1.37-.34l-8.88,5.33-3.3-2.83s-.04-.02-.06-.03v-8l12.8-12.8h19.2c4,0,7.25,3.25,7.25,7.25v17.58c-1.06-.28-2.16-.44-3.3-.44-7.17,0-13,5.83-13,13,0,1.41.23,2.76.65,4.03H12.05v-5.29l6.5-2.91Zm-3.31,15.17c-1.76,0-3.19-1.43-3.19-3.19v-1.78h24.44c1.07,2.04,2.67,3.75,4.61,4.97H15.25Zm32.75,0c-6.07,0-11-4.93-11-11s4.93-11,11-11,11,4.93,11,11-4.93,11-11,11Zm6.52-9.04c-.86,2.85-3.54,4.85-6.52,4.85-2.02,0-3.88-.93-5.15-2.4l-.16.72c-.1.47-.52.78-.98.78-.07,0-.15,0-.22-.02-.54-.12-.88-.65-.76-1.19l.72-3.24c.12-.53.63-.87,1.17-.76l3.26.63c.54.1.9.63.79,1.17-.11.54-.63.9-1.17.79l-1.19-.23c.9,1.07,2.23,1.75,3.68,1.75,2.1,0,4-1.41,4.6-3.42.16-.53.72-.83,1.25-.67.53.16.83.72.67,1.25Zm.75-6.65l-.72,3.24c-.1.46-.52.78-.98.78-.06,0-.13,0-.19-.02l-3.26-.63c-.54-.1-.9-.63-.79-1.17.1-.54.63-.9,1.17-.79l1.19.23c-.9-1.07-2.23-1.75-3.68-1.75-2.1,0-4,1.41-4.6,3.42-.16.53-.72.83-1.25.67-.53-.16-.83-.72-.67-1.25.86-2.85,3.54-4.85,6.52-4.85,2.02,0,3.88.93,5.15,2.4l.16-.72c.12-.54.66-.88,1.19-.76.54.12.88.65.76,1.19Z"/></svg>