<?xml version="1.0" encoding="UTF-8"?><svg id="Filled_Line" xmlns="http://www.w3.org/2000/svg" viewBox="0 0 64 64"><defs><style>.cls-1{fill:#1a2c3d;}.cls-1,.cls-2,.cls-3{stroke-width:0px;}.cls-2{fill:#d68076;}.cls-3{fill:#ecc865;}</style></defs><rect class="cls-2" x="8.62" y="48.58" width="16.66" height="11.42"/><rect class="cls-2" x="38.71" y="48.57" width="16.66" height="11.42"/><path class="cls-3" d="m26.57,36.85c2.95-3.42,3.28-7.52,3.28-7.52v-8.31s0-3.03-2.52-3c0,0-2.35-.14-2.74,2.3v-10.19s.01-2.7-2.47-2.91c0,0-2.22-.03-2.71,2.02v-1.78c-.04-3.54-2.49-3.46-2.49-3.46-2.82,0-2.78,3.59-2.78,3.59v.84c-.34-2.36-2.7-2.4-2.7-2.4-2.49.21-2.47,2.91-2.47,2.91v6.07c-.33-2.49-2.54-2.45-2.54-2.45-2.7,0-2.43,3.37-2.43,3.37v13.74c.56,3.33,1.82,5.71,3.34,7.41.73.81,1.11,1.87,1.11,2.96v4.71c-.89.24-1.54,1.08-1.46,2.07.09,1.04,1.04,1.79,2.08,1.79h15.69c1.04,0,1.99-.76,2.08-1.79.09-.99-.56-1.83-1.46-2.07v-4.85c0-1.13.45-2.19,1.19-3.04Z"/><path class="cls-3" d="m38.62,39.89v4.85c-.89.24-1.54,1.08-1.46,2.07.09,1.04,1.04,1.79,2.08,1.79h15.69c1.04,0,1.99-.76,2.08-1.79.09-.99-.56-1.83-1.46-2.07v-4.71c0-1.09.39-2.15,1.11-2.96,1.52-1.7,2.78-4.08,3.34-7.41v-13.74s.26-3.37-2.43-3.37c0,0-2.21-.04-2.54,2.45v-6.07s.01-2.7-2.47-2.91c0,0-2.36.04-2.7,2.4v-.84s.04-3.59-2.78-3.59c0,0-2.44-.08-2.49,3.46v1.78c-.49-2.05-2.71-2.02-2.71-2.02-2.49.21-2.47,2.91-2.47,2.91v10.19c-.39-2.44-2.74-2.3-2.74-2.3-2.52-.03-2.52,3-2.52,3v8.31s.33,4.1,3.28,7.52c.74.85,1.19,1.92,1.19,3.04Z"/><path class="cls-1" d="m11.36,5.03c-2.69.23-3.39,2.66-3.39,3.9v2.98c-.57-.28-1.14-.37-1.54-.36-.97,0-1.8.34-2.39.99-1.17,1.27-1.05,3.24-1.04,3.38v13.74c0,.06,0,.11.01.17.54,3.19,1.74,5.85,3.58,7.91.55.62.86,1.43.86,2.29v4.06c-.97.57-1.55,1.65-1.45,2.81.09,1.02.73,1.88,1.63,2.34v10.75c0,.55.45,1,1,1s1-.45,1-1v-10.39h14.66v10.39c0,.55.45,1,1,1s1-.45,1-1v-10.79c.85-.47,1.46-1.31,1.55-2.31.1-1.16-.49-2.24-1.45-2.81v-4.2c0-.84.33-1.69.94-2.39,3.13-3.63,3.5-7.92,3.52-8.18v-8.32c0-.2-.03-1.97-1.19-3.1-.61-.6-1.42-.92-2.27-.9-.47-.03-1.14.05-1.8.37v-7.25c0-1.25-.69-3.68-3.39-3.91,0,0-1.01.02-1.86.49-.13-1.19-.53-2.13-1.21-2.79-.97-.93-2.11-.92-2.21-.92-.98,0-1.84.34-2.48.99-.48.49-.79,1.09-.98,1.66-.94-.7-2.1-.62-2.1-.62Zm14.45,31.17c-.92,1.07-1.43,2.38-1.43,3.7v4.85c0,.45.3.85.74.97.39.1.76.49.72,1.01-.04.48-.53.88-1.08.88h-15.69c-.55,0-1.04-.39-1.08-.88-.04-.53.33-.91.72-1.01.44-.12.74-.51.74-.97v-4.71c0-1.35-.49-2.64-1.37-3.63-1.57-1.75-2.61-4.05-3.09-6.83v-13.73c-.03-.34.02-1.43.51-1.96.14-.15.38-.34.94-.34.31,0,1.36.11,1.51,1.67,0,.01,0,.02,0,.03v6.72c0,.55.45,1,1,1s1-.45,1-1v-13.03c0-.29.09-1.75,1.5-1.91.26.02,1.45.17,1.67,1.5v11.91c0,.55.45,1,1,1s1-.45,1-1V7.58c0-.4.12-1.58.72-2.18.27-.27.6-.4,1.09-.4,0,0,.43.02.8.37.42.4.64,1.13.66,2.1v12.98c0,.55.45,1,1,1s1-.45,1-1v-10.67s0,0,0-.01c.19-1.34,1.36-1.52,1.68-1.54,1.41.16,1.49,1.61,1.5,1.91v15.9c0,.55.45,1,1,1s1-.45,1-1v-5.6c.25-1.36,1.35-1.43,1.75-1.41.54.04.76.18.91.32.48.47.59,1.38.6,1.69v8.23s-.35,3.83-3.03,6.95Zm15.99-29.98c-2.7.14-3.39,2.66-3.39,3.9v7.26c-.64-.3-1.29-.4-1.73-.37-.9.01-1.73.3-2.34.9-1.15,1.14-1.19,2.91-1.19,3.11v8.39c.02.18.39,4.47,3.52,8.1.61.71.94,1.56.94,2.39v4.2c-.97.57-1.55,1.65-1.45,2.81.09.99.7,1.83,1.55,2.31v10.79c0,.55.45,1,1,1s1-.45,1-1v-10.39h14.66v10.39c0,.55.45,1,1,1s1-.45,1-1v-10.75c.89-.46,1.54-1.32,1.63-2.34.1-1.16-.49-2.24-1.45-2.81v-4.06c0-.86.3-1.67.86-2.29,1.84-2.06,3.05-4.72,3.58-7.91,0-.05.01-.11.01-.17v-13.66c.01-.22.13-2.2-1.04-3.46-.6-.64-1.42-.99-2.35-.99h0c-.43,0-1.01.08-1.58.36v-2.98c0-1.25-.69-3.68-3.39-3.91,0,0-1.12-.03-2.1.61-.19-.57-.49-1.16-.98-1.65-.64-.65-1.5-.99-2.45-.99,0,0-1.32-.04-2.25.92-.66.68-1.08,1.59-1.21,2.78,0,0-.99-.52-1.86-.48Zm17.21,9.71v13.65c-.48,2.78-1.52,5.07-3.09,6.83-.88.99-1.37,2.27-1.37,3.63v4.71c0,.45.3.85.74.97.39.1.76.49.72,1.01-.04.48-.53.88-1.08.88h-15.69c-.55,0-1.04-.39-1.08-.88-.04-.53.33-.91.72-1.01.44-.12.74-.51.74-.97v-4.85c0-1.32-.51-2.63-1.43-3.7-2.67-3.1-3.03-6.87-3.03-6.87v-8.31c0-.31.12-1.22.6-1.69.14-.14.38-.29.98-.32.14,0,1.42-.04,1.68,1.42v5.6c0,.55.45,1,1,1s1-.45,1-1v-15.9c0-.29.09-1.75,1.5-1.91.34.02,1.49.21,1.68,1.54,0,0,0,0,0,.01v10.66c0,.55.45,1,1,1s1-.45,1-1V7.47c.03-2.33,1.23-2.47,1.49-2.47.45,0,.79.13,1.06.4.6.6.73,1.78.72,2.19v12.85c0,.55.45,1,1,1s1-.45,1-1v-11.9c.21-1.3,1.35-1.48,1.67-1.5,1.41.16,1.5,1.61,1.5,1.91v13.03c0,.55.45,1,1,1s1-.45,1-1v-6.72s0-.02,0-.03c.15-1.55,1.24-1.66,1.53-1.67.54,0,.79.19.92.34.49.53.54,1.62.51,2.03Z"/></svg>