<?xml version="1.0" encoding="UTF-8"?><svg id="Filled_Line" xmlns="http://www.w3.org/2000/svg" viewBox="0 0 64 64"><defs><style>.cls-1{fill:#536882;}.cls-1,.cls-2,.cls-3{stroke-width:0px;}.cls-2{fill:#1a2c3d;}.cls-3{fill:#d3dce5;}</style></defs><rect class="cls-3" x="28" y="47" width="8" height="8"/><rect class="cls-1" x="26" y="55" width="12" height="5" rx="1" ry="1"/><circle class="cls-1" cx="32" cy="27" r="23"/><circle class="cls-3" cx="32" cy="27" r="19"/><circle class="cls-1" cx="32" cy="27" r="2"/><rect class="cls-1" x="27" y="37" width="10" height="4" rx="1" ry="1"/><path class="cls-2" d="M56,27c0-13.23-10.77-24-24-24S8,13.77,8,27c0,11.52,8.16,21.17,19,23.47v3.53c-1.1,0-2,.9-2,2v3c0,1.1.9,2,2,2h10c1.1,0,2-.9,2-2v-3c0-1.1-.9-2-2-2v-3.53c10.84-2.31,19-11.95,19-23.47ZM10,27c0-12.13,9.87-22,22-22s22,9.87,22,22-9.87,22-22,22-22-9.87-22-22ZM37,59h-10v-3h10v3ZM35,54h-6v-3.19c.98.12,1.98.19,3,.19s2.02-.07,3-.19v3.19ZM52,27c0-11.03-8.97-20-20-20S12,15.97,12,27s8.97,20,20,20,20-8.97,20-20ZM14,27c0-9.93,8.07-18,18-18s18,8.07,18,18-8.07,18-18,18-18-8.07-18-18ZM24.16,35.91s-1.35,1.4-1.35,1.4c-.2.2-.45.29-.71.29s-.51-.1-.71-.29c-.39-.39-.39-1.02,0-1.41l.56-.56c-1.85-2.15-2.95-4.8-3.16-7.63h-.8c-.55,0-1-.45-1-1s.45-1,1-1h.8c.22-2.9,1.37-5.54,3.16-7.62l-.57-.57c-.39-.39-.39-1.02,0-1.41s1.02-.39,1.41,0l.57.57c2.08-1.79,4.72-2.94,7.62-3.16v-.8c0-.55.45-1,1-1s1,.45,1,1v.8c2.9.22,5.54,1.37,7.62,3.16l.57-.57c.39-.39,1.02-.39,1.41,0s.39,1.02,0,1.41l-.57.57c1.79,2.08,2.94,4.72,3.16,7.62h.8c.55,0,1,.45,1,1s-.45,1-1,1h-.8c-.21,2.82-1.31,5.47-3.16,7.63l.56.56c.39.39.39,1.02,0,1.41-.2.2-.45.29-.71.29s-.51-.1-.71-.29c0,0-1.33-1.35-1.35-1.41-.25-.39-.23-.9.11-1.24,2.13-2.13,3.3-4.96,3.3-7.96,0-6.2-5.05-11.25-11.25-11.25s-11.25,5.05-11.25,11.25c0,3,1.17,5.82,3.3,7.96.34.34.36.86.11,1.24ZM36.75,20.83l-3.47,3.47c-.39-.19-.82-.3-1.29-.3-1.65,0-3,1.35-3,3,0,.46.11.89.3,1.29l-.84.84c-.39.39-.39,1.02,0,1.41.2.2.45.29.71.29s.51-.1.71-.29l.84-.84c.39.19.82.3,1.29.3,1.65,0,3-1.35,3-3,0-.46-.11-.89-.3-1.29l3.47-3.47c.39-.39.39-1.02,0-1.41s-1.02-.39-1.41,0ZM32,28c-.27,0-.52-.11-.7-.29,0,0,0,0,0-.01s0,0-.01,0c-.18-.18-.29-.42-.29-.7,0-.55.45-1,1-1,.27,0,.52.11.7.29,0,0,0,0,0,.01s0,0,.01,0c.18.18.29.42.29.7,0,.55-.45,1-1,1ZM38,40v-2c0-1.1-.9-2-2-2h-8c-1.1,0-2,.9-2,2v2c0,1.1.9,2,2,2h8c1.1,0,2-.9,2-2ZM28,38h8v2s-8,0-8,0v-2Z"/></svg>