<?xml version="1.0" encoding="UTF-8"?><svg id="Filled_Line" xmlns="http://www.w3.org/2000/svg" viewBox="0 0 64 64"><defs><style>.cls-1{fill:#759dd1;}.cls-1,.cls-2,.cls-3,.cls-4{stroke-width:0px;}.cls-2{fill:#85b9db;}.cls-3{fill:#1a2c3d;}.cls-4{fill:#d3dce5;}</style></defs><path class="cls-1" d="M28.49,10.43h8.85c1.1,0,2,.9,2,2v3.51h-12.85v-3.51c0-1.1.9-2,2-2Z"/><path class="cls-2" d="M44.96,19.45l-5.62-3.52h-12.85l-7.15,3.58c-1.24.62-2.03,1.89-2.03,3.28v33.54c0,2.03,1.65,3.67,3.67,3.67h16.84c.98,0,1.91-.39,2.6-1.08l5.19-5.19c.69-.69,1.08-1.62,1.08-2.6v-28.57c0-1.27-.65-2.44-1.73-3.11ZM41.18,42.56c0,2.03-1.64,3.67-3.67,3.67s-3.67-1.64-3.67-3.67v-14.69c0-2.03,1.64-3.67,3.67-3.67,1.01,0,1.93.41,2.6,1.07.66.67,1.07,1.59,1.07,2.6v14.69Z"/><path class="cls-4" d="M30.33,4h5.18c1.1,0,2,.9,2,2v4.43h-9.18v-4.43c0-1.1.9-2,2-2Z"/><path class="cls-1" d="M42.1,49.42v1.33l-4.65,4.65h-15.54v-29.38h7.55c-.13.59-.2,1.2-.2,1.84v14.69c0,4.55,3.71,8.26,8.26,8.26,1.7,0,3.28-.51,4.59-1.4Z"/><path class="cls-3" d="M45.49,18.6l-5.15-3.22v-2.95c0-1.24-.76-2.31-1.84-2.77v-3.66c0-1.65-1.35-3-3-3h-5.18c-1.65,0-3,1.35-3,3v3.66c-1.08.46-1.84,1.52-1.84,2.76v2.89l-6.6,3.3c-1.59.8-2.58,2.4-2.58,4.18v33.53c0,2.58,2.1,4.67,4.67,4.67h16.84c1.23,0,2.43-.5,3.3-1.37l5.19-5.19c.88-.88,1.37-2.06,1.37-3.3v-28.57c0-1.62-.82-3.1-2.2-3.96ZM27.49,12.43c0-.55.45-1,1-1h8.85c.55,0,1,.45,1,1v2.51h-10.85v-2.51ZM29.33,6c0-.55.45-1,1-1h5.18c.55,0,1,.45,1,1v3.43h-7.18v-3.43ZM45.69,51.13c0,.71-.28,1.38-.78,1.89l-5.19,5.19c-.5.5-1.19.78-1.89.78h-16.84c-1.47,0-2.67-1.2-2.67-2.67V22.79c0-1.02.57-1.93,1.48-2.39l6.94-3.47h12.33l5.38,3.36c.79.49,1.26,1.34,1.26,2.27v28.57ZM37.51,47.23c2.58,0,4.67-2.1,4.67-4.67v-14.69c0-2.58-2.1-4.67-4.67-4.67s-4.67,2.1-4.67,4.67v14.69c0,2.58,2.1,4.67,4.67,4.67ZM34.84,27.87c0-1.47,1.2-2.67,2.67-2.67s2.67,1.2,2.67,2.67v14.69c0,1.47-1.2,2.67-2.67,2.67s-2.67-1.2-2.67-2.67v-14.69ZM42.57,48.54c-.33-.17-.72-.15-1.03.05-1.19.8-2.59,1.23-4.03,1.23-4,0-7.26-3.26-7.26-7.26v-14.69c0-.54.06-1.08.18-1.62.07-.3,0-.6-.2-.84-.19-.24-.48-.37-.78-.37h-7.55c-.55,0-1,.45-1,1v29.38c0,.55.45,1,1,1h15.54c.27,0,.52-.11.71-.29l4.65-4.65c.19-.19.29-.44.29-.71v-1.33c0-.37-.2-.71-.53-.88ZM37.03,54.41h-14.13v-27.38h5.38c-.03.28-.04.56-.04.84v14.69c0,5.11,4.16,9.26,9.26,9.26.83,0,1.65-.11,2.44-.33l-2.92,2.92Z"/></svg>