<?xml version="1.0" encoding="UTF-8"?><svg id="Filled_Line" xmlns="http://www.w3.org/2000/svg" viewBox="0 0 64 64"><defs><style>.cls-1{fill:#1a2c3d;}.cls-1,.cls-2,.cls-3{stroke-width:0px;}.cls-2{fill:#d3dce5;}.cls-3{fill:#edae65;}</style></defs><path class="cls-2" d="M39.69,16h-15.38c-.66,0-1.14-.63-.96-1.26l1.09-4c.12-.44.51-.74.96-.74h13.2c.45,0,.85.3.96.74l1.09,4c.17.64-.31,1.26-.96,1.26Z"/><path class="cls-3" d="M28,4h8c.55,0,1,.45,1,1v5h-10v-5c0-.55.45-1,1-1Z"/><rect class="cls-3" x="26" y="16" width="12" height="6"/><rect class="cls-3" x="26" y="38" width="12" height="6"/><rect class="cls-2" x="23" y="44" width="18" height="16" rx="1" ry="1"/><path class="cls-2" d="M42.37,36.25l-4.19,1.68c-.12.05-.24.07-.37.07h-11.61c-.13,0-.25-.02-.37-.07l-4.19-1.68c-.38-.15-.63-.52-.63-.93v-10.65c0-.41.25-.78.63-.93l4.19-1.68c.12-.05.24-.07.37-.07h11.61c.13,0,.25.02.37.07l4.19,1.68c.38.15.63.52.63.93v10.65c0,.41-.25.78-.63.93Z"/><path class="cls-1" d="M47.14,23.92c-.55-.07-1.05.3-1.13.85-.08.55.3,1.05.85,1.13,2.82.4,4.15.83,4.75,1.1-.6.27-1.93.7-4.76,1.1-.85.13-1.79.24-2.85.35v-3.77c0-.82-.49-1.55-1.26-1.86l-3.74-1.5v-4.32h.69c.63,0,1.21-.29,1.59-.79.38-.5.5-1.13.34-1.74l-1.09-4c-.24-.87-1.03-1.47-1.93-1.47h-.6v-4c0-1.1-.9-2-2-2h-8c-1.1,0-2,.9-2,2v4h-.6c-.9,0-1.69.61-1.93,1.47l-1.09,4c-.17.61-.04,1.24.34,1.74.38.5.96.79,1.59.79h.69v4.32l-3.74,1.5c-.76.31-1.26,1.03-1.26,1.86v3.77c-1.06-.11-2.01-.22-2.86-.35-2.82-.4-4.15-.83-4.75-1.1.6-.27,1.93-.7,4.75-1.1.55-.08.93-.58.85-1.13-.08-.55-.59-.93-1.13-.85-6.03.86-6.86,1.99-6.86,3.08s.83,2.22,6.85,3.08c.93.14,1.97.27,3.15.38v4.86c0,.82.49,1.55,1.26,1.86l3.74,1.5v4.32h-1c-1.1,0-2,.9-2,2v2h-1c-.55,0-1,.45-1,1s.45,1,1,1h1v2h-1c-.55,0-1,.45-1,1s.45,1,1,1h1v2h-1c-.55,0-1,.45-1,1s.45,1,1,1h1v2c0,1.1.9,2,2,2h16c1.1,0,2-.9,2-2v-2h1c.55,0,1-.45,1-1s-.45-1-1-1h-1v-2h1c.55,0,1-.45,1-1s-.45-1-1-1h-1v-2h1c.55,0,1-.45,1-1s-.45-1-1-1h-1v-2c0-1.1-.9-2-2-2h-1v-4.32l3.74-1.5c.76-.31,1.26-1.03,1.26-1.86v-4.86c1.18-.12,2.22-.24,3.14-.38,6.03-.86,6.86-1.99,6.86-3.08s-.83-2.22-6.86-3.08ZM28,5h8v4h-8v-4ZM25.4,11h13.2l1.09,4h-15.38l1.09-4ZM37,17v4h-10v-4h10ZM26.19,23h11.62l4.19,1.68v3.95c-2.33.19-4.91.31-7.61.35l-1.68-1.68c-.39-.39-1.02-.39-1.41,0s-.39,1.02,0,1.41l.29.29c-3.41,0-6.68-.14-9.58-.37v-3.95l4.19-1.68ZM40,59h-16v-2h16v2ZM40,55h-16v-2h16v2ZM40,51h-16v-2h16v2ZM40,47h-16v-2h16v2ZM27,43v-4h10v4h-10ZM42,35.32l-4.19,1.68h-11.62l-4.19-1.68v-4.69c2.91.23,6.18.36,9.59.37l-.3.3c-.39.39-.39,1.02,0,1.41.2.2.45.29.71.29s.51-.1.71-.29l1.73-1.73c2.68-.04,5.23-.16,7.56-.35v4.69Z"/></svg>