<?xml version="1.0" encoding="UTF-8"?><svg id="Filled_Line" xmlns="http://www.w3.org/2000/svg" viewBox="0 0 64 64"><defs><style>.cls-1{fill:#759dd1;}.cls-1,.cls-2,.cls-3,.cls-4,.cls-5{stroke-width:0px;}.cls-2{fill:#85b9db;}.cls-3{fill:#536882;}.cls-4{fill:#1a2c3d;}.cls-5{fill:#d3dce5;}</style></defs><path class="cls-3" d="M42,19.5h8c1.1,0,2,.9,2,2v4h-12v-4c0-1.1.9-2,2-2Z"/><rect class="cls-5" x="42" y="11.5" width="8" height="8"/><rect class="cls-3" x="40" y="5.5" width="12" height="6" rx="1" ry="1"/><rect class="cls-3" x="31" y="20.5" width="4" height="5"/><rect class="cls-3" x="16" y="18.5" width="4" height="7"/><circle class="cls-5" cx="18" cy="12.5" r="8"/><polygon class="cls-5" points="17 53.5 13 53.5 12 45.5 18 45.5 17 53.5"/><circle class="cls-3" cx="15" cy="55.5" r="4"/><polygon class="cls-5" points="47 53.5 51 53.5 52 45.5 46 45.5 47 53.5"/><circle class="cls-3" cx="49" cy="55.5" r="4"/><path class="cls-2" d="M52.84,47.5H11.16c-1.34,0-2.51-.89-2.89-2.17-.67-2.28-1.27-5.28-1.27-8.83,0-2.11.21-5.26,1.29-8.9.37-1.26,1.55-2.1,2.87-2.1h41.68c1.34,0,2.51.89,2.89,2.17.67,2.28,1.27,5.28,1.27,8.83,0,2.11-.21,5.26-1.29,8.9-.37,1.26-1.55,2.1-2.87,2.1Z"/><rect class="cls-1" x="20" y="32.5" width="24" height="8" rx="1" ry="1"/><path class="cls-4" d="M56.69,27.39c-.49-1.68-1.97-2.81-3.69-2.88v-3.01c0-1.3-.84-2.4-2-2.82v-2.18h1c.55,0,1-.45,1-1s-.45-1-1-1h-1v-2c1.1,0,2-.9,2-2v-4c0-1.1-.9-2-2-2h-10c-1.1,0-2,.9-2,2v1.03c-3.9.27-7,3.53-7,7.5v4.47h-1c-.55,0-1,.45-1,1v4h-9v-3.53c3.49-1.24,6-4.57,6-8.47,0-4.96-4.04-9-9-9s-9,4.04-9,9c0,3.91,2.51,7.24,6,8.47v3.53h-3.84c-1.76,0-3.33,1.16-3.82,2.82-.88,2.98-1.33,6.07-1.33,9.18s.44,6.15,1.31,9.11c.51,1.73,2.05,2.89,3.84,2.89h.21l.4,3.22c-1.07.92-1.77,2.26-1.77,3.78,0,2.76,2.24,5,5,5s5-2.24,5-5c0-1.52-.7-2.87-1.77-3.78l.4-3.22h26.73l.4,3.22c-1.07.92-1.77,2.26-1.77,3.78,0,2.76,2.24,5,5,5s5-2.24,5-5c0-1.52-.7-2.87-1.77-3.78l.4-3.22h.21c1.76,0,3.33-1.16,3.82-2.82.88-2.98,1.33-6.07,1.33-9.18s-.44-6.15-1.31-9.11ZM42,20.5h8c.55,0,1,.45,1,1v3h-10v-3c0-.55.45-1,1-1ZM49,18.5h-6v-2h6v2ZM49,14.5h-6v-2h6v2ZM41,6.5h10v4s-10,0-10,0v-4ZM34,15.03c0-2.87,2.2-5.24,5-5.5v.97c0,1.1.9,2,2,2v2h-1c-.55,0-1,.45-1,1s.45,1,1,1h1v2.18c-1.16.41-2,1.51-2,2.82v3h-3v-4c0-.55-.45-1-1-1h-1v-4.47ZM32,21.5h2v3h-2v-3ZM11,12.5c0-3.86,3.14-7,7-7s7,3.14,7,7-3.14,7-7,7-7-3.14-7-7ZM17,21.44c.33.04.66.06,1,.06s.67-.02,1-.06v3.06h-2v-3.06ZM15,58.5c-1.65,0-3-1.35-3-3s1.35-3,3-3,3,1.35,3,3-1.35,3-3,3ZM16.34,50.71c-.43-.12-.87-.21-1.34-.21s-.91.09-1.34.21l-.28-2.21h3.23l-.28,2.21ZM49,58.5c-1.65,0-3-1.35-3-3s1.35-3,3-3,3,1.35,3,3-1.35,3-3,3ZM50.34,50.71c-.43-.12-.87-.21-1.34-.21s-.91.09-1.34.21l-.28-2.21h3.23l-.28,2.21ZM54.75,45.11c-.24.82-1.03,1.39-1.91,1.39H11.16c-.9,0-1.67-.58-1.93-1.46-.82-2.78-1.23-5.65-1.23-8.54s.42-5.81,1.25-8.61c.24-.82,1.03-1.39,1.91-1.39h41.68c.9,0,1.67.58,1.93,1.46.82,2.78,1.23,5.65,1.23,8.54s-.42,5.81-1.25,8.61ZM43,31.5h-22c-1.1,0-2,.9-2,2v6c0,1.1.9,2,2,2h22c1.1,0,2-.9,2-2v-6c0-1.1-.9-2-2-2ZM21,39.5v-6h22v6s-22,0-22,0ZM18,13.5c-.26,0-.51-.1-.71-.29-.39-.39-.39-1.02,0-1.41l2.83-2.83c.39-.39,1.02-.39,1.41,0,.39.39.39,1.02,0,1.41l-2.83,2.83c-.2.2-.45.29-.71.29Z"/></svg>