<?xml version="1.0" encoding="UTF-8"?><svg id="Filled_Line" xmlns="http://www.w3.org/2000/svg" viewBox="0 0 64 64"><defs><style>.cls-1{fill:#759dd1;}.cls-1,.cls-2,.cls-3,.cls-4,.cls-5,.cls-6{stroke-width:0px;}.cls-2{fill:#85b9db;}.cls-3{fill:#536882;}.cls-4{fill:#1a2c3d;}.cls-5{fill:#d3dce5;}.cls-6{fill:#edae65;}</style></defs><path class="cls-3" d="M5,30h5c.55,0,1,.45,1,1v8c0,.55-.45,1-1,1h-5"/><path class="cls-6" d="M27,32.8v4.4c0,.47-.33.87-.78.97l-7,1.56c-.63.14-1.22-.34-1.22-.98v-7.5c0-.64.59-1.12,1.22-.98l7,1.56c.45.1.78.5.78.97Z"/><rect class="cls-5" x="11" y="32" width="7" height="6"/><path class="cls-1" d="M60,11.36v47.28c-.73.83-1.8,1.36-3,1.36-2.21,0-4-1.79-4-4-2.21,0-4-1.79-4-4,0-.83.25-1.6.69-2.24-1.32-.46-2.33-1.58-2.61-2.98-.05-.25-.08-.51-.08-.78,0-1.73,1.1-3.19,2.64-3.75-2.74-1.27-4.64-4.03-4.64-7.25s1.9-5.98,4.64-7.25c-1.54-.56-2.64-2.02-2.64-3.75,0-.27.03-.53.08-.78.28-1.4,1.29-2.52,2.61-2.98-.44-.64-.69-1.41-.69-2.24,0-2.21,1.79-4,4-4,0-2.21,1.79-4,4-4,1.2,0,2.27.53,3,1.36Z"/><path class="cls-2" d="M49.64,42.25c-1.54.56-2.64,2.02-2.64,3.75,0,.27.03.53.08.78l-20.08-9.58v-4.4l20.08-9.58c-.05.25-.08.51-.08.78,0,1.73,1.1,3.19,2.64,3.75-2.74,1.27-4.64,4.03-4.64,7.25s1.9,5.98,4.64,7.25Z"/><path class="cls-4" d="M60.75,10.7c-.95-1.08-2.32-1.7-3.75-1.7-2.44,0-4.48,1.76-4.92,4.08-2.32.43-4.08,2.47-4.08,4.92,0,.62.11,1.23.33,1.79-1,.63-1.74,1.6-2.09,2.72l-18.76,8.95c-.27-.3-.63-.52-1.05-.61l-7-1.56c-.59-.13-1.21.01-1.68.39-.41.33-.66.8-.72,1.31h-5.03c0-1.1-.9-2-2-2h-5c-.55,0-1,.45-1,1s.45,1,1,1h5v8h-5c-.55,0-1,.45-1,1s.45,1,1,1h5c1.1,0,2-.9,2-2h5.03c.06.51.31.98.72,1.31.36.29.8.44,1.25.44.15,0,.29-.02.44-.05l7-1.56c.42-.09.78-.31,1.05-.61l18.76,8.95c.35,1.12,1.09,2.09,2.09,2.72-.22.57-.33,1.17-.33,1.79,0,2.44,1.76,4.48,4.08,4.92.43,2.32,2.47,4.08,4.92,4.08,1.43,0,2.8-.62,3.75-1.7.16-.18.25-.42.25-.66V11.36c0-.24-.09-.48-.25-.66ZM46.07,45.19l-18.07-8.62v-3.14l18.07-8.62c.19,1.14.77,2.18,1.62,2.93-2.29,1.67-3.7,4.37-3.7,7.26s1.41,5.59,3.7,7.26c-.86.76-1.43,1.79-1.62,2.93ZM12,33h5v4h-5v-4ZM19,38.75v-7.51l7,1.56v4.4l-7,1.56ZM59,58.23c-.55.49-1.26.77-2,.77-1.65,0-3-1.35-3-3,0-.55-.45-1-1-1-1.65,0-3-1.35-3-3,0-.61.18-1.18.51-1.67.18-.26.22-.58.13-.88s-.33-.53-.62-.63c-1.21-.42-2.02-1.55-2.02-2.81s.8-2.38,1.98-2.81c.38-.14.64-.49.66-.9.02-.41-.21-.78-.58-.95-2.47-1.14-4.06-3.63-4.06-6.34s1.59-5.2,4.06-6.34c.37-.17.6-.55.58-.95-.02-.4-.28-.76-.66-.9-1.19-.43-1.98-1.56-1.98-2.81s.81-2.4,2.02-2.81c.29-.1.53-.34.62-.63.1-.3.05-.62-.13-.88-.34-.49-.51-1.07-.51-1.67,0-1.65,1.35-3,3-3,.55,0,1-.45,1-1,0-1.65,1.35-3,3-3,.74,0,1.45.28,2,.77v46.46ZM41.94,30.66c.19.52-.08,1.09-.59,1.28l-4,1.47c-.11.04-.23.06-.34.06-.41,0-.79-.25-.94-.66-.19-.52.08-1.09.59-1.28l4-1.47c.52-.19,1.09.08,1.28.59ZM41.94,39.34c-.15.4-.53.66-.94.66-.11,0-.23-.02-.34-.06l-4-1.47c-.52-.19-.78-.76-.59-1.28.19-.52.76-.78,1.28-.59l4,1.47c.52.19.78.76.59,1.28ZM18.4,15.92l-2.61,1.5-2.33-.62c-.53-.14-1.08.17-1.22.71s.17,1.08.71,1.22l.4.11-.51.29c-.48.28-.64.89-.37,1.37.19.32.52.5.87.5.17,0,.34-.04.5-.13l.51-.29-.11.4c-.14.53.17,1.08.71,1.22.09.02.17.03.26.03.44,0,.85-.29.96-.74l.62-2.33,2.61-1.5,1.6.92v3.01l-1.71,1.71c-.39.39-.39,1.02,0,1.41s1.02.39,1.41,0l.29-.29v.59c0,.55.45,1,1,1s1-.45,1-1v-.59l.29.29c.2.2.45.29.71.29s.51-.1.71-.29c.39-.39.39-1.02,0-1.41l-1.71-1.71v-3.01l1.6-.92,2.61,1.5.62,2.33c.12.45.52.74.96.74.09,0,.17-.01.26-.03.53-.14.85-.69.71-1.22l-.11-.4.51.29c.16.09.33.13.5.13.35,0,.68-.18.87-.5.28-.48.11-1.09-.37-1.37l-.51-.29.4-.11c.53-.14.85-.69.71-1.22-.14-.53-.69-.85-1.22-.71l-2.33.62-2.61-1.5v-1.84l2.61-1.5,2.33.62c.09.02.17.03.26.03.44,0,.85-.29.96-.74.14-.53-.17-1.08-.71-1.22l-.4-.11.51-.29c.48-.28.64-.89.37-1.37-.28-.48-.89-.64-1.37-.37l-.51.29.11-.4c.14-.53-.17-1.08-.71-1.22-.53-.14-1.08.17-1.22.71l-.62,2.33-2.61,1.5-1.6-.92v-3.01l1.71-1.71c.39-.39.39-1.02,0-1.41s-1.02-.39-1.41,0l-.29.29v-.59c0-.55-.45-1-1-1s-1,.45-1,1v.59l-.29-.29c-.39-.39-1.02-.39-1.41,0s-.39,1.02,0,1.41l1.71,1.71v3.01l-1.6.92-2.61-1.5-.62-2.33c-.14-.53-.69-.85-1.22-.71-.53.14-.85.69-.71,1.22l.11.4-.51-.29c-.48-.28-1.09-.11-1.37.37s-.11,1.09.37,1.37l.51.29-.4.11c-.53.14-.85.69-.71,1.22.12.45.52.74.96.74.09,0,.17-.01.26-.03l2.33-.62,2.61,1.5v1.84ZM20.4,14.08l1.6-.92,1.6.92v1.85l-1.6.92-1.6-.92v-1.85Z"/></svg>