<?xml version="1.0" encoding="UTF-8"?><svg id="Filled_Line" xmlns="http://www.w3.org/2000/svg" viewBox="0 0 64 64"><defs><style>.cls-1{fill:#759dd1;}.cls-1,.cls-2,.cls-3,.cls-4,.cls-5,.cls-6,.cls-7{stroke-width:0px;}.cls-2{fill:#85b9db;}.cls-3{fill:#536882;}.cls-4{fill:#1a2c3d;}.cls-5{fill:#d3dce5;}.cls-6{fill:#b8c3d5;}.cls-7{fill:#a26a55;}</style></defs><path class="cls-1" d="M13,24v2c0,.55-.45,1-1,1h-6c-1.1,0-2-.9-2-2v-3c0-1.1.9-2,2-2h3c2.21,0,4,1.79,4,4Z"/><path class="cls-1" d="M60,22v3c0,1.1-.9,2-2,2h-6c-.55,0-1-.45-1-1v-2c0-2.21,1.79-4,4-4h3c1.1,0,2,.9,2,2Z"/><path class="cls-2" d="M56,42H8l.73-12.28c.15-2.09,1.89-3.72,3.99-3.72h38.55c2.1,0,3.84,1.62,3.99,3.72l.73,12.28Z"/><rect class="cls-5" x="6" y="42" width="52" height="6" rx="2" ry="2"/><rect class="cls-6" x="23" y="42" width="18" height="6"/><path class="cls-3" d="M9,48h10v4c0,1.1-.9,2-2,2h-6c-1.1,0-2-.9-2-2v-4h0Z"/><path class="cls-3" d="M45,48h10v4c0,1.1-.9,2-2,2h-6c-1.1,0-2-.9-2-2v-4h0Z"/><path class="cls-5" d="M52,26H12l4.19-12.07c.48-1.73,2.05-2.93,3.85-2.93h12.13s.87.8,1.08,1.51c.22.72.14,1.48.21,2.22.06.75.33,1.55.99,1.91.75.41,1.67.07,2.49-.16.79-.21,1.64-.31,2.4-.02,1.18.46,1.81,1.72,2.34,2.87.29.64.6,1.31,1.16,1.73.48.35,1.08.48,1.66.51.69.03,1.4-.07,1.96-.46.88-.61,1.18-1.76,1.85-2.58.24-.29.53-.54.84-.74l2.85,8.21Z"/><circle class="cls-5" cx="17" cy="34" r="4"/><circle class="cls-5" cx="47" cy="34" r="4"/><path class="cls-7" d="M41,10v1h-18v-1c0-2.21,1.79-4,4-4,.38,0,.74.05,1.09.15.39-1.8,1.99-3.15,3.91-3.15s3.52,1.35,3.91,3.15c.35-.1.71-.15,1.09-.15,2.21,0,4,1.79,4,4Z"/><path class="cls-7" d="M49.15,17.79c-.31.2-.6.45-.84.74-.67.82-.97,1.97-1.85,2.58-.56.39-1.27.49-1.96.46-.58-.03-1.18-.16-1.66-.51-.56-.42-.87-1.09-1.16-1.73-.53-1.15-1.16-2.41-2.34-2.87-.76-.29-1.61-.19-2.4.02-.82.23-1.74.57-2.49.16-.66-.36-.93-1.16-.99-1.91-.07-.74,0-1.5-.21-2.22-.21-.71-1.08-1.51-1.08-1.51h11.79c1.8,0,3.37,1.2,3.85,2.93l.58,1.67.76,2.19Z"/><path class="cls-4" d="M58,20h-3c-1.42,0-2.67.75-3.37,1.87l-2.85-8.21c-.6-2.16-2.58-3.66-4.81-3.66h-1.96c0-2.76-2.24-5-5-5-.14,0-.27,0-.41.02-.78-1.79-2.58-3.02-4.59-3.02s-3.81,1.22-4.59,3.02c-.14-.01-.27-.02-.41-.02-2.76,0-5,2.24-5,5h-1.96c-2.24,0-4.22,1.51-4.79,3.6l-2.87,8.27c-.71-1.12-1.95-1.87-3.37-1.87h-3c-1.1,0-2,.9-2,2v3c0,1.1.9,2,2,2h2.74c-.57.75-.93,1.66-1,2.66l-.69,11.51c-1.19.4-2.05,1.51-2.05,2.83v2c0,1.65,1.35,3,3,3v3c0,1.65,1.35,3,3,3h6c1.65,0,3-1.35,3-3v-3h24v3c0,1.65,1.35,3,3,3h6c1.65,0,3-1.35,3-3v-3c1.65,0,3-1.35,3-3v-2c0-1.32-.86-2.43-2.05-2.83l-.69-11.53c-.07-.99-.43-1.9-1-2.64h2.74c1.1,0,2-.9,2-2v-3c0-1.1-.9-2-2-2ZM9.06,41l.67-11.21c.11-1.56,1.43-2.79,2.99-2.79h38.55c1.57,0,2.88,1.22,2.99,2.77l.67,11.23H9.06ZM43.96,12c1.34,0,2.53.9,2.91,2.26l1.11,3.19c-.15.14-.3.29-.44.45-.31.39-.54.8-.76,1.19-.29.51-.53.96-.88,1.2-.31.21-.77.3-1.34.28-.49-.03-.87-.13-1.11-.31-.37-.27-.62-.84-.85-1.35-.5-1.1-1.27-2.75-2.89-3.39-.84-.32-1.83-.33-3.03,0l-.27.08c-.57.17-1.17.34-1.47.17-.25-.14-.43-.56-.47-1.13-.02-.22-.03-.45-.03-.68-.01-.53-.03-1.13-.21-1.73-.02-.08-.06-.15-.09-.23h9.84ZM27,7c.29,0,.55.04.81.11.27.08.55.04.79-.1.24-.14.41-.38.46-.65.3-1.37,1.53-2.36,2.93-2.36s2.64.99,2.93,2.36c.06.27.23.5.46.65.24.14.52.18.79.1.26-.07.53-.11.81-.11,1.65,0,3,1.35,3,3h-16c0-1.65,1.35-3,3-3ZM17.15,14.2c.36-1.29,1.54-2.2,2.89-2.2h11.71c.23.26.48.59.55.8.11.35.12.77.13,1.21,0,.27.01.54.04.8.1,1.27.64,2.23,1.51,2.71,1.03.56,2.12.25,2.99,0l.24-.07c.76-.2,1.35-.22,1.78-.05.8.31,1.3,1.29,1.79,2.35.31.68.7,1.54,1.48,2.13.58.42,1.31.65,2.21.7.09,0,.18,0,.27,0,.92,0,1.69-.22,2.31-.64.73-.51,1.13-1.23,1.49-1.87.08-.14.15-.27.23-.39l1.85,5.33H13.41l3.75-10.8ZM6,22h3c1.1,0,2,.9,2,2v1h-5v-3ZM7,46v-2c0-.55.45-1,1-1h14v4h-14c-.55,0-1-.45-1-1ZM18,52c0,.55-.45,1-1,1h-6c-.55,0-1-.45-1-1v-3h8v3ZM24,47v-4h16v4h-16ZM54,52c0,.55-.45,1-1,1h-6c-.55,0-1-.45-1-1v-3h8v3ZM57,46c0,.55-.45,1-1,1h-14v-4h14c.55,0,1,.45,1,1v2ZM58,25h-5v-1c0-1.1.9-2,2-2h3v3ZM17,29c-2.76,0-5,2.24-5,5s2.24,5,5,5,5-2.24,5-5-2.24-5-5-5ZM17,37c-1.65,0-3-1.35-3-3s1.35-3,3-3,3,1.35,3,3-1.35,3-3,3ZM47,29c-2.76,0-5,2.24-5,5s2.24,5,5,5,5-2.24,5-5-2.24-5-5-5ZM47,37c-1.65,0-3-1.35-3-3s1.35-3,3-3,3,1.35,3,3-1.35,3-3,3ZM39,32c0,.55-.45,1-1,1h-12c-.55,0-1-.45-1-1s.45-1,1-1h12c.55,0,1,.45,1,1ZM39,36c0,.55-.45,1-1,1h-12c-.55,0-1-.45-1-1s.45-1,1-1h12c.55,0,1,.45,1,1Z"/></svg>