<?xml version="1.0" encoding="UTF-8"?><svg id="Filled_Line" xmlns="http://www.w3.org/2000/svg" viewBox="0 0 64 64"><defs><style>.cls-1{fill:#759dd1;}.cls-1,.cls-2,.cls-3,.cls-4,.cls-5,.cls-6,.cls-7{stroke-width:0px;}.cls-2{fill:#85b9db;}.cls-3{fill:#536882;}.cls-4{fill:#1a2c3d;}.cls-5{fill:#d3dce5;}.cls-6{fill:#b8c3d5;}.cls-7{fill:#edae65;}</style></defs><path class="cls-1" d="M13,28v2c0,.55-.45,1-1,1h-6c-1.1,0-2-.9-2-2v-3c0-1.1.9-2,2-2h3c2.21,0,4,1.79,4,4Z"/><path class="cls-1" d="M60,26v3c0,1.1-.9,2-2,2h-6c-.55,0-1-.45-1-1v-2c0-2.21,1.79-4,4-4h3c1.1,0,2,.9,2,2Z"/><path class="cls-2" d="M56,46H8l.73-12.28c.15-2.09,1.89-3.72,3.99-3.72h38.55c2.1,0,3.84,1.62,3.99,3.72l.73,12.28Z"/><rect class="cls-5" x="6" y="46" width="52" height="6" rx="2" ry="2"/><rect class="cls-6" x="23" y="46" width="18" height="6"/><path class="cls-3" d="M9,52h10v4c0,1.1-.9,2-2,2h-6c-1.1,0-2-.9-2-2v-4h0Z"/><path class="cls-3" d="M45,52h10v4c0,1.1-.9,2-2,2h-6c-1.1,0-2-.9-2-2v-4h0Z"/><path class="cls-5" d="M52,30H12l4.19-12.07c.48-1.73,2.05-2.93,3.85-2.93h23.92c1.8,0,3.37,1.2,3.85,2.93l.58,1.67,3.61,10.4Z"/><circle class="cls-5" cx="17" cy="38" r="4"/><circle class="cls-5" cx="47" cy="38" r="4"/><path class="cls-7" d="M49.59,18.44l1.87,1.02-1.87,1.02c-1.51.82-2.75,2.06-3.57,3.57l-1.02,1.87-1.02-1.87c-.82-1.51-2.06-2.75-3.57-3.57l-1.87-1.02,1.87-1.02c1.51-.82,2.75-2.06,3.57-3.57l1.02-1.87,1.02,1.87c.82,1.51,2.06,2.75,3.57,3.57Z"/><path class="cls-7" d="M56.71,10.76l1.29.71-1.29.71c-1.04.57-1.9,1.43-2.47,2.47l-.71,1.29-.71-1.29c-.57-1.04-1.43-1.9-2.47-2.47l-1.29-.71,1.29-.71c1.04-.57,1.9-1.43,2.47-2.47l.71-1.29.71,1.29c.57,1.04,1.43,1.9,2.47,2.47Z"/><path class="cls-4" d="M58,24h-3c-1.42,0-2.66.75-3.37,1.87l-1.56-4.5s0,0,0,0l1.87-1.02c.32-.17.52-.51.52-.88s-.2-.7-.52-.88l-1.87-1.02c-1.34-.73-2.44-1.83-3.17-3.17l-1.02-1.87c-.35-.64-1.4-.64-1.75,0l-.81,1.48h-23.27c-2.24,0-4.22,1.51-4.79,3.6l-2.87,8.27c-.71-1.12-1.95-1.87-3.37-1.87h-3c-1.1,0-2,.9-2,2v3c0,1.1.9,2,2,2h2.74c-.57.75-.93,1.66-1,2.66l-.69,11.51c-1.19.4-2.05,1.51-2.05,2.83v2c0,1.65,1.35,3,3,3v3c0,1.65,1.35,3,3,3h6c1.65,0,3-1.35,3-3v-3h24v3c0,1.65,1.35,3,3,3h6c1.65,0,3-1.35,3-3v-3c1.65,0,3-1.35,3-3v-2c0-1.32-.86-2.43-2.05-2.83l-.69-11.53c-.07-.99-.43-1.9-1-2.64h2.74c1.1,0,2-.9,2-2v-3c0-1.1-.9-2-2-2ZM9.06,45l.67-11.21c.11-1.56,1.43-2.79,2.99-2.79h38.55c1.57,0,2.88,1.22,2.99,2.77l.67,11.23H9.06ZM44.86,15.35l.14-.26.14.26c.92,1.68,2.29,3.05,3.97,3.97l.26.15-.26.14c-1.68.92-3.05,2.29-3.97,3.97l-.14.26-.14-.26c-.92-1.68-2.29-3.05-3.97-3.97l-.26-.14.26-.15c1.68-.92,3.05-2.29,3.97-3.97ZM17.15,18.2c.36-1.29,1.55-2.2,2.89-2.2h21.88c-.58.62-1.24,1.15-1.99,1.56l-1.87,1.02c-.32.17-.52.51-.52.88s.2.7.52.88l1.87,1.02c1.34.73,2.44,1.83,3.17,3.17l1.02,1.87c.18.32.51.52.88.52s.7-.2.88-.52l1.02-1.87c.39-.72.9-1.36,1.48-1.92l2.21,6.39H13.41l3.75-10.8ZM6,26h3c1.1,0,2,.9,2,2v1h-5v-3ZM7,50v-2c0-.55.45-1,1-1h14v4h-14c-.55,0-1-.45-1-1ZM18,56c0,.55-.45,1-1,1h-6c-.55,0-1-.45-1-1v-3h8v3ZM24,51v-4h16v4h-16ZM54,56c0,.55-.45,1-1,1h-6c-.55,0-1-.45-1-1v-3h8v3ZM57,50c0,.55-.45,1-1,1h-14v-4h14c.55,0,1,.45,1,1v2ZM58,29h-5v-1c0-1.1.9-2,2-2h3v3ZM17,33c-2.76,0-5,2.24-5,5s2.24,5,5,5,5-2.24,5-5-2.24-5-5-5ZM17,41c-1.65,0-3-1.35-3-3s1.35-3,3-3,3,1.35,3,3-1.35,3-3,3ZM47,33c-2.76,0-5,2.24-5,5s2.24,5,5,5,5-2.24,5-5-2.24-5-5-5ZM47,41c-1.65,0-3-1.35-3-3s1.35-3,3-3,3,1.35,3,3-1.35,3-3,3ZM39,36c0,.55-.45,1-1,1h-12c-.55,0-1-.45-1-1s.45-1,1-1h12c.55,0,1,.45,1,1ZM39,40c0,.55-.45,1-1,1h-12c-.55,0-1-.45-1-1s.45-1,1-1h12c.55,0,1,.45,1,1ZM48.6,12.34l1.29.7c.88.48,1.59,1.19,2.07,2.07l.71,1.29c.18.32.51.52.88.52s.7-.2.88-.52l.71-1.29c.48-.87,1.19-1.59,2.07-2.07l1.29-.71c.32-.18.52-.51.52-.88s-.2-.7-.52-.88l-1.29-.71c-.88-.48-1.59-1.19-2.07-2.07l-.71-1.29c-.35-.64-1.4-.64-1.75,0l-.71,1.29c-.48.87-1.19,1.59-2.07,2.07l-1.29.71c-.32.17-.52.51-.52.88s.2.7.52.88ZM53.54,9.07c.6.98,1.42,1.8,2.39,2.39-.98.6-1.8,1.42-2.39,2.39-.6-.98-1.42-1.8-2.4-2.39.98-.6,1.8-1.42,2.4-2.39Z"/></svg>