<?xml version="1.0" encoding="UTF-8"?><svg id="Filled_Line" xmlns="http://www.w3.org/2000/svg" viewBox="0 0 64 64"><defs><style>.cls-1{fill:#85b9db;}.cls-1,.cls-2,.cls-3,.cls-4{stroke-width:0px;}.cls-2{fill:#536882;}.cls-3{fill:#1a2c3d;}.cls-4{fill:#d3dce5;}</style></defs><path class="cls-4" d="M42.87,34.52l-6.46-17.33c-.72-2.02-2.64-3.38-4.78-3.38h-4.68v-4h4.68c3.84,0,7.28,2.43,8.56,6.05l6.46,17.33-3.77,1.33Z"/><path class="cls-1" d="M29.95,11.81h0c0,2.21-1.79,4-4,4h-3s-1.45,2.89-1.45,2.89c-.34.68-1.03,1.11-1.79,1.11h-5.76V3.81h5.76c.76,0,1.45.43,1.79,1.11l1.45,2.89h3c2.21,0,4,1.79,4,4Z"/><rect class="cls-2" x="8.95" y="3.81" width="5" height="16"/><path class="cls-1" d="M49.98,36.47l-7.52,2.74-1.03-3.07c-.19-.52.08-1.09.6-1.28l5.64-2.05c.52-.19,1.09.08,1.28.6l1.03,3.07Z"/><rect class="cls-2" x="39.91" y="37.72" width="14" height="4" rx="1" ry="1" transform="translate(-10.77 18.46) rotate(-20.02)"/><path class="cls-1" d="M52.29,39.89l1.43,3.92c.18.5.16,1.05-.07,1.53l-.67,1.45c-.11.24-.12.5-.04.75l3.16,9.1c.38,1.04-.16,2.19-1.19,2.56l-1.88.68c-1.04.38-2.19-.16-2.56-1.19l-3.16-9.08c-.09-.26-.28-.46-.52-.58l-1.43-.67c-.48-.22-.85-.63-1.03-1.13l-1.43-3.92,9.4-3.42Z"/><path class="cls-3" d="M57.05,56.3l-3.16-9.1.67-1.45c.34-.73.37-1.54.1-2.29l-1.09-2.98c.5-.18.9-.55,1.13-1.03s.25-1.03.07-1.53l-.68-1.88c-.18-.5-.55-.9-1.04-1.13-.48-.22-1.03-.25-1.53-.07l-.91.33-.71-2.12c-.38-1.04-1.53-1.57-2.56-1.19l-.1.04-6.11-16.38c-1.42-4.02-5.24-6.72-9.49-6.72h-1.71c-.91-1.21-2.35-2-3.97-2h-2.38l-1.17-2.34c-.51-1.02-1.54-1.66-2.68-1.66h-10.76c-.55,0-1,.45-1,1v16c0,.55.45,1,1,1h10.76c1.14,0,2.17-.64,2.68-1.66l1.17-2.34h2.38c1.63,0,3.06-.79,3.98-2h1.7c1.73,0,3.27,1.09,3.84,2.73l6.12,16.43c-.97.41-1.46,1.52-1.11,2.49l.72,2.14-.96.35c-1.04.38-1.57,1.53-1.19,2.56l.68,1.88c.3.81,1.06,1.31,1.88,1.31.23,0,.46-.04.68-.12h0l1.09,2.98c.27.74.84,1.36,1.55,1.69l1.43.67,3.16,9.09c.44,1.22,1.6,1.97,2.82,1.97.34,0,.69-.06,1.02-.18l1.88-.69c1.55-.57,2.36-2.29,1.8-3.83ZM9.95,4.81h3v14h-3V4.81ZM25.95,14.81h-3c-.38,0-.73.21-.89.55l-1.45,2.9c-.17.34-.51.55-.89.55h-4.76V4.81h4.76c.38,0,.72.21.89.55l1.45,2.89c.17.34.52.55.89.55h3c1.65,0,3,1.35,3,3s-1.35,3-3,3ZM31.63,12.81h-.78c.07-.32.1-.66.1-1s-.04-.68-.1-1h.78c3.41,0,6.47,2.16,7.61,5.4l6.1,16.38-1.88.66-6.11-16.39c-.85-2.42-3.15-4.05-5.72-4.05ZM42.38,35.8l5.63-2.08.72,2.14-5.64,2.05-.71-2.12ZM41.61,42.72l-.68-1.88,11.27-4.11.69,1.88h0s0,0,0,0l-11.27,4.11ZM54.56,58.25l-1.88.69c-.52.19-1.09-.08-1.28-.58l-3.15-9.08c-.18-.51-.56-.93-1.04-1.16l-1.43-.67c-.24-.11-.43-.32-.52-.56l-1.09-2.98,7.52-2.74,1.09,2.98c.09.25.08.52-.03.76l-.67,1.44c-.22.47-.25,1.01-.08,1.5l3.17,9.11c.19.52-.08,1.09-.6,1.28Z"/></svg>