<?xml version="1.0" encoding="UTF-8"?><svg id="Filled_Line" xmlns="http://www.w3.org/2000/svg" viewBox="0 0 64 64"><defs><style>.cls-1{fill:#759dd1;}.cls-1,.cls-2,.cls-3,.cls-4,.cls-5{stroke-width:0px;}.cls-2{fill:#85b9db;}.cls-3{fill:#536882;}.cls-4{fill:#1a2c3d;}.cls-5{fill:#d3dce5;}</style></defs><path class="cls-1" d="M45.68,19.36h2.34c.55,0,1,.45,1,1v3.34h-4.34v-3.34c0-.55.45-1,1-1Z"/><path class="cls-3" d="M34.37,39h5c1.1,0,2-.9,2-2v-4.49h-8.5v6.49h1.5Z"/><path class="cls-2" d="M13.37,43v-9.51l2-2.49v-8.5c0-5.25,4.25-9.5,9.5-9.5h0c5.25,0,9.5,4.25,9.5,9.5v1.2s16,0,16,0c1.1,0,2,.9,2,2v6.3c0,1.1-.9,2-2,2h-16v9H13.37Z"/><rect class="cls-5" x="13.37" y="43" width="18" height="5"/><path class="cls-3" d="M12.37,48h20c1.1,0,2,.9,2,2v4H10.37v-4c0-1.1.9-2,2-2Z"/><path class="cls-2" d="M38.19,60H6.55c-.62,0-1.09-.55-.99-1.16l.53-3.16c.16-.96,1-1.67,1.97-1.67h28.61c.98,0,1.81.71,1.97,1.67l.53,3.16c.1.61-.37,1.16-.99,1.16Z"/><rect class="cls-1" x="20.9" y="28.98" width="8" height="8" rx="1" ry="1"/><path class="cls-4" d="M21.75,24.43v-5.86c0-.55.45-1,1-1s1,.45,1,1v5.86c0,.55-.45,1-1,1s-1-.45-1-1ZM26.98,25.43c.55,0,1-.45,1-1v-5.86c0-.55-.45-1-1-1s-1,.45-1,1v5.86c0,.55.45,1,1,1ZM29.9,29.98v6c0,1.1-.9,2-2,2h-6c-1.1,0-2-.9-2-2v-6c0-1.1.9-2,2-2h6c1.1,0,2,.9,2,2ZM27.9,29.98h-6v6h6v-6ZM47.85,14.51v3.85h.17c1.1,0,2,.9,2,2v2.34h.35c1.65,0,3,1.35,3,3v6.3c0,1.65-1.35,3-3,3h-8v2c0,1.65-1.35,3-3,3h-4v3c0,.55-.45,1-1,1h-2v3c1.65,0,3,1.35,3,3v3h1.31c1.47,0,2.72,1.05,2.96,2.51l.53,3.17c.1.58-.07,1.17-.45,1.62s-.94.71-1.53.71H6.55c-.59,0-1.15-.26-1.53-.71s-.54-1.04-.45-1.62l.53-3.17c.24-1.45,1.49-2.51,2.96-2.51h1.31v-3c0-1.65,1.35-3,3-3v-13.51c0-.23.08-.45.22-.63l1.78-2.21v-8.15c0-5.79,4.71-10.5,10.5-10.5s10.5,4.71,10.5,10.5v.2h8.31v-2.34c0-1.1.9-2,2-2h.17v-3.85c0-2.28,1.85-4.13,4.13-4.13,1.17,0,2.13-.95,2.13-2.13v-4.25c0-.55.45-1,1-1s1,.45,1,1v4.25c0,2.28-1.85,4.13-4.13,4.13-1.17,0-2.13.95-2.13,2.13ZM36.67,55H8.06c-.49,0-.91.35-.99.84l-.53,3.16h31.64l-.53-3.17c-.08-.48-.5-.83-.99-.83ZM32.37,49H12.37c-.55,0-1,.45-1,1v3h22v-3c0-.55-.45-1-1-1ZM30.37,44H14.37v3h16v-3ZM40.37,35h-5v3h4c.55,0,1-.45,1-1v-2ZM50.37,24.7h-16c-.55,0-1-.45-1-1v-1.2c0-4.69-3.81-8.5-8.5-8.5s-8.5,3.81-8.5,8.5v8.5c0,.23-.08.45-.22.63l-1.78,2.21v8.16h19v-8c0-.55.45-1,1-1h16c.55,0,1-.45,1-1v-6.3c0-.55-.45-1-1-1ZM48.02,20.36h-2.34v2.34h2.34v-2.34Z"/></svg>