<?xml version="1.0" encoding="UTF-8"?><svg id="Filled_Line" xmlns="http://www.w3.org/2000/svg" viewBox="0 0 64 64"><defs><style>.cls-1{fill:#85b9db;}.cls-1,.cls-2,.cls-3,.cls-4{stroke-width:0px;}.cls-2{fill:#536882;}.cls-3{fill:#1a2c3d;}.cls-4{fill:#d3dce5;}</style></defs><polyline class="cls-4" points="37.69 28.74 51.7 5.74 55.15 7.85 40.76 31.47"/><path class="cls-1" d="M30.24,60H5.77c-.69,0-1.18-.67-.96-1.33l1.02-3.14c.34-1.04,1.3-1.74,2.39-1.74h19.56c1.09,0,2.06.7,2.39,1.74l1.02,3.14c.21.65-.27,1.33-.96,1.33Z"/><rect class="cls-4" x="9.02" y="49.37" width="17.96" height="4.43"/><path class="cls-1" d="M31.32,44.94v4.43H6.88c-1.21,0-2.19-.98-2.19-2.19v-.05c0-1.21.98-2.19,2.19-2.19h24.44Z"/><path class="cls-4" d="M41.87,36.58v6.91c-3.25,0-5.88,2.63-5.88,5.88h-4.67v-4.43H9.02v-4.42h19.04l5.31-3.94h8.5Z"/><circle class="cls-2" cx="41.87" cy="49.37" r="5.88"/><circle class="cls-4" cx="41.87" cy="49.37" r="2.21"/><path class="cls-1" d="M30.53,18.99v19.69l-2.47,1.83h-5.45v-12.2c0-1.12-.9-2.03-2.02-2.03h-11.57v-1.33c0-3.51,2.69-6.43,6.19-6.7l13.14-1.27c1.18-.1,2.18.84,2.18,2.01Z"/><path class="cls-2" d="M22.61,28.31v12.2h-13.59v-14.23h11.57c1.12,0,2.02.91,2.02,2.03Z"/><path class="cls-2" d="M37.62,28.74h.08c1.71,0,3.1,1.39,3.1,3.1v4.74h-6.27v-4.74c0-1.71,1.39-3.1,3.1-3.1Z"/><path class="cls-1" d="M51.1,14.39l-3.44-2.13c-.47-.29-.62-.91-.34-1.38l3.83-6.39c.29-.48.92-.64,1.4-.34l3.45,2.12c.47.29.62.91.34,1.38l-3.84,6.4c-.29.48-.92.64-1.4.34Z"/><path class="cls-3" d="M38.65,49.37c0,1.77,1.44,3.21,3.21,3.21s3.21-1.44,3.21-3.21-1.44-3.21-3.21-3.21-3.21,1.44-3.21,3.21ZM43.08,49.37c0,.67-.54,1.21-1.21,1.21s-1.21-.54-1.21-1.21.54-1.21,1.21-1.21,1.21.54,1.21,1.21ZM19.33,31.12c0,.55-.45,1-1,1h-4.59c-.55,0-1-.45-1-1s.45-1,1-1h4.59c.55,0,1,.45,1,1ZM19.33,35.62c0,.55-.45,1-1,1h-4.59c-.55,0-1-.45-1-1s.45-1,1-1h4.59c.55,0,1,.45,1,1ZM59.31,8.58h-2.36l.25-.41c.56-.94.26-2.18-.67-2.75l-3.45-2.12c-.46-.28-1.01-.37-1.53-.24-.53.13-.97.46-1.25.92l-3.83,6.39c-.39.65-.36,1.44,0,2.06l-9.37,15.37c-2.01.26-3.57,1.96-3.57,4.04v3.74h-.16c-.21,0-.42.07-.6.2l-1.24.92v-17.7c0-.84-.35-1.65-.97-2.22-.62-.57-1.45-.87-2.3-.79l-13.12,1.27c-3.99.31-7.12,3.69-7.12,7.7v15.56s0,3.43,0,3.43h-1.14c-1.76,0-3.19,1.43-3.19,3.24s1.43,3.19,3.19,3.19h1.14v2.44c-1.44.08-2.69,1.02-3.15,2.41l-1.02,3.14c-.2.61-.09,1.29.28,1.81.38.52.99.83,1.63.83h24.48c.64,0,1.25-.31,1.63-.83.38-.52.48-1.2.28-1.81l-1.02-3.14c-.45-1.39-1.7-2.33-3.15-2.41v-2.44h3.33s3.75,0,3.75,0c.49,3.32,3.35,5.88,6.8,5.88,3.79,0,6.88-3.09,6.88-6.88,0-3.45-2.56-6.31-5.88-6.8v-6c0-.55-.45-1-1-1h-.08s-.01-3.82-.01-3.86l9.85-16.17c.16,0,.32-.02.47-.06.53-.13.97-.46,1.25-.92l2.39-3.99h3.56c.55,0,1-.45,1-1s-.45-1-1-1ZM15.31,19.25l13.12-1.27c.28-.02.56.07.77.27.21.2.33.46.33.75v19.19l-1.79,1.33h-4.12v-11.21c0-1.67-1.36-3.02-3.02-3.02h-10.57v-.33c0-2.97,2.32-5.47,5.29-5.71ZM10.02,27.28h10.57c.56,0,1.02.46,1.02,1.02v11.21h-11.6v-12.23ZM29.23,55.84l1.02,3.16h0l-24.49-.02,1.02-3.14c.2-.63.78-1.05,1.44-1.05h19.56c.66,0,1.24.42,1.44,1.05ZM25.99,52.8h-15.96v-2.43h15.96v2.43ZM30.32,48.37H6.88c-.65,0-1.19-.53-1.19-1.24,0-.65.53-1.19,1.19-1.19h23.44v2.43ZM10.02,43.94v-2.43h18.04c.21,0,.42-.07.6-.2l5.04-3.74h7.17v5c-2.99.44-5.36,2.81-5.8,5.8h-2.75v-3.43c0-.55-.45-1-1-1H10.02ZM46.75,49.37c0,2.69-2.19,4.88-4.88,4.88s-4.88-2.19-4.88-4.88,2.19-4.88,4.88-4.88,4.88,2.19,4.88,4.88ZM35.53,35.58v-3.74c0-1.16.94-2.1,2.17-2.1,1.16,0,2.1.94,2.1,2.1v3.74h-4.27ZM39.27,28.07l8.77-14.39,1.73,1.07-8.87,14.57c-.43-.54-.98-.98-1.63-1.25ZM51.63,13.54s0,0,0,0l-3.45-2.15,3.85-6.39,3.46,2.13-.87,1.44h-2.39c-.55,0-1,.45-1,1s.45,1,1,1h1.19l-1.78,2.97Z"/></svg>