<?xml version="1.0" encoding="UTF-8"?><svg id="Filled_Line" xmlns="http://www.w3.org/2000/svg" viewBox="0 0 64 64"><defs><style>.cls-1{fill:#85b9db;}.cls-1,.cls-2,.cls-3,.cls-4,.cls-5,.cls-6{stroke-width:0px;}.cls-2{fill:#536882;}.cls-3{fill:#1a2c3d;}.cls-4{fill:#d3dce5;}.cls-5{fill:#a26a55;}.cls-6{fill:#edae65;}</style></defs><rect class="cls-5" x="25" y="8" width="34" height="38"/><rect class="cls-4" x="29" y="12" width="11" height="30"/><rect class="cls-4" x="44" y="12" width="11" height="30"/><rect class="cls-6" x="24" y="4" width="36" height="4" rx="1" ry="1"/><rect class="cls-6" x="24" y="46" width="36" height="4" rx="1" ry="1"/><path class="cls-1" d="M31.93,31.56l14.79-2.66c2.15-.39,2.76-3.3.87-4.39-.02-.01-.04-.02-.06-.03-.39-.22-.78-.33-1.13-.39-.47-.08-.85-.46-.9-.94-.08-.8-.4-1.97-1.46-2.77-.56-.42-1.15-.61-1.64-.69-.52-.09-.9-.5-.94-1.03s-.2-1.15-.64-1.75c-.17-.23-.36-.43-.57-.59-1.13-.9-2.82-.48-3.52.79-2.2,3.99-4.39,7.99-6.59,11.98"/><rect class="cls-4" x="19.82" y="31.29" width="3.82" height="11.47" transform="translate(39.12 -2.23) rotate(54.31)"/><path class="cls-2" d="M31.66,31.2l-1.24-1.73c-.29-.4-.82-.53-1.25-.31l-3.4,1.67c-.55.27-.73.98-.37,1.48l1.97,2.74c.36.5,1.09.56,1.52.12l2.67-2.68c.34-.35.39-.89.1-1.29Z"/><path class="cls-1" d="M20.69,41.3l-3.34-4.66c-.62-.86-1.81-1.05-2.67-.44l-9.83,7.07c-.52.37-.82.98-.79,1.62l-.06,13.48c.04,1.05.92,1.88,1.98,1.84l9.46.41c1.06-.04,1.88-.92,1.84-1.97l-.91-11.89,3.89-2.8c.85-.61,1.05-1.81.43-2.66ZM7.75,56.32l.19-4.01,4.27-3.43.32,7.27-4.78.17Z"/><path class="cls-3" d="M61,7v-2c0-1.1-.9-2-2-2H25c-1.1,0-2,.9-2,2v2c0,.74.41,1.37,1,1.72v21.95c-.12.12-.21.27-.26.44-.07.27-.01.55.14.79l-5.75,4.13c-.45-.61-1.11-1.02-1.87-1.14-.77-.13-1.54.05-2.17.51l-9.83,7.06c-.79.57-1.25,1.49-1.21,2.43l-.05,13.52c.06,1.6,1.42,2.84,2.93,2.81l9.54.41c1.6-.06,2.86-1.41,2.81-3.01,0-.01,0-.03,0-.04l-.87-11.33,3.43-2.46c.63-.45,1.05-1.13,1.17-1.89.12-.75-.05-1.51-.49-2.13l2.47-1.78v6.31c-.59.35-1,.99-1,1.72v2c0,1.1.9,2,2,2h34c1.1,0,2-.9,2-2v-2c0-.74-.41-1.37-1-1.72V8.72c.59-.35,1-.98,1-1.72ZM25,5h34v2s0,0,0,0H25v-2ZM45,30.23l1.89-.34c1.43-.26,2.52-1.36,2.77-2.81.24-1.39-.38-2.74-1.57-3.43,0,0-.08-.05-.09-.05-.44-.24-.93-.41-1.52-.56-.1-.92-.45-2.17-1.49-3.15v-6.89h9v28h-9v-10.77ZM43.43,21.17c.76.58,1,1.45,1.07,2.08.1.91.81,1.66,1.72,1.82.3.05.57.15.86.31.72.42.65,1.15.61,1.36-.08.49-.43,1.05-1.16,1.18l-14.17,2.55-1.04-1.45,6.28-11.43c.21-.38.57-.64.99-.73.22-.04.64-.07,1.03.24.15.12.27.25.39.4.26.35.41.77.45,1.24.08.98.81,1.78,1.77,1.94.45.08.85.24,1.2.5ZM30,35.47l2.87-2.88c.06-.06.1-.14.14-.21l5.99-1.08v9.69h-9v-5.53ZM39,14.84c-.26-.01-.53,0-.79.05-1,.2-1.86.83-2.35,1.72l-5.86,10.65v-14.27h9v1.84ZM29.39,30.16s0,0,0,0l.22-.11,1.24,1.73-2.67,2.68-1.97-2.74,3.17-1.56ZM20.36,39.12l-1.06-1.47,5.74-4.12,1.06,1.48-5.74,4.12ZM19.67,43.15l-3.89,2.79c-.28.2-.44.54-.41.89l.91,11.86c0,.24-.08.46-.24.64-.17.18-.39.28-.56.29l-9.54-.41c-.25,0-.48-.08-.65-.24-.18-.17-.28-.39-.29-.6l.05-13.52c-.01-.3.13-.59.38-.77l9.83-7.06c.2-.14.44-.2.68-.16.24.04.45.17.59.37l3.35,4.66c.14.2.2.44.16.68-.04.24-.17.45-.37.59ZM27.28,36.62c.17.22.42.36.7.38,0,0,.01,0,.02,0v5c0,.55.45,1,1,1h11c.55,0,1-.45,1-1v-11.05l2-.36v11.41c0,.55.45,1,1,1h11c.55,0,1-.45,1-1V12c0-.55-.45-1-1-1h-11c-.55,0-1,.45-1,1v6.79c-.14-.04-.29-.07-.44-.1-.08-.01-.1-.08-.11-.12-.06-.84-.35-1.62-.83-2.27-.18-.25-.39-.46-.62-.66v-3.65c0-.55-.45-1-1-1h-11c-.55,0-1,.45-1,1v16.62l-2,.99V9h32v36H26v-7.46l1.28-.92ZM25,49v-2h34v2s-34,0-34,0ZM12.62,47.97c-.34-.16-.75-.1-1.04.13l-4.27,3.44c-.22.18-.36.45-.37.73l-.19,4.01c-.01.28.09.55.29.75.19.19.44.3.71.3.01,0,.02,0,.04,0l4.78-.17c.27,0,.52-.12.7-.32.18-.2.28-.46.26-.72l-.33-7.28c-.02-.38-.24-.71-.59-.87ZM8.8,55.28l.11-2.47,2.38-1.92.19,4.29-2.69.09ZM52.31,15.89c.39.39.39,1.02,0,1.41l-2.99,2.99c-.2.2-.45.29-.71.29s-.51-.1-.71-.29c-.39-.39-.39-1.02,0-1.41l2.99-2.99c.39-.39,1.02-.39,1.41,0ZM48.1,17.27c-.2.2-.45.29-.71.29s-.51-.1-.71-.29c-.39-.39-.39-1.02,0-1.41l1.18-1.18c.39-.39,1.02-.39,1.41,0s.39,1.02,0,1.41l-1.18,1.18Z"/></svg>