<?xml version="1.0" encoding="UTF-8"?><svg id="Filled_Line" xmlns="http://www.w3.org/2000/svg" viewBox="0 0 64 64"><defs><style>.cls-1{fill:#85b9db;}.cls-1,.cls-2,.cls-3,.cls-4,.cls-5,.cls-6{stroke-width:0px;}.cls-2{fill:#536882;}.cls-3{fill:#1a2c3d;}.cls-4{fill:#d3dce5;}.cls-5{fill:#a26a55;}.cls-6{fill:#edae65;}</style></defs><polygon class="cls-5" points="54 46 20 46 20 20 37 8 54 20 54 46"/><rect class="cls-4" x="31" y="28" width="12" height="18"/><path class="cls-6" d="M56.21,23.44l-19.21-13.97-19.21,13.97c-.89.65-2.14.45-2.79-.44h0c-.65-.89-.45-2.14.44-2.79l20.38-14.82,1.18-.86,1.18.86,20.38,14.82c.89.65,1.09,1.9.44,2.79h0c-.65.89-1.9,1.09-2.79.44Z"/><path class="cls-1" d="M31.93,30.56l14.79-2.66c2.15-.39,2.76-3.3.87-4.39-.02-.01-.04-.02-.06-.03-.39-.22-.78-.33-1.13-.39-.47-.08-.85-.46-.9-.94-.08-.8-.4-1.97-1.46-2.77-.56-.42-1.15-.61-1.64-.69-.52-.09-.9-.5-.94-1.03s-.2-1.15-.64-1.75c-.17-.23-.36-.43-.57-.59-1.13-.9-2.82-.48-3.52.79-2.2,3.99-4.39,7.99-6.59,11.98"/><rect class="cls-4" x="19.82" y="30.29" width="3.82" height="11.47" transform="translate(38.31 -2.64) rotate(54.31)"/><path class="cls-2" d="M31.66,30.2l-1.24-1.73c-.29-.4-.82-.53-1.25-.31l-3.4,1.67c-.55.27-.73.98-.37,1.48l1.97,2.74c.36.5,1.09.56,1.52.12l2.67-2.68c.34-.35.39-.89.1-1.29Z"/><path class="cls-1" d="M20.69,40.3l-3.34-4.66c-.62-.86-1.81-1.05-2.67-.44l-9.83,7.07c-.52.37-.82.98-.79,1.62l-.06,13.48c.04,1.05.92,1.88,1.98,1.84l9.46.41c1.06-.04,1.88-.92,1.84-1.97l-.91-11.89,3.89-2.8c.85-.61,1.05-1.81.43-2.66ZM7.75,55.32l.19-4.01,4.27-3.43.32,7.27-4.78.17Z"/><path class="cls-3" d="M59.15,19.4L37.59,3.72c-.35-.26-.83-.26-1.18,0l-21.56,15.68c-1.34.97-1.63,2.85-.66,4.19.97,1.34,2.85,1.64,4.19.66l.62-.45v10.6l-.86.62c-.45-.61-1.11-1.02-1.87-1.14-.77-.13-1.54.05-2.17.51l-9.83,7.06c-.79.57-1.24,1.49-1.21,2.43l-.05,13.52c.06,1.6,1.41,2.84,2.93,2.81l9.54.41c1.6-.06,2.86-1.41,2.81-3.01,0-.01,0-.03,0-.04l-.87-11.33,1.59-1.14v.9c0,.55.45,1,1,1h34c.55,0,1-.45,1-1v-22.2l.62.45c.53.39,1.15.57,1.76.57.93,0,1.84-.43,2.43-1.23.97-1.34.68-3.22-.66-4.19ZM32.37,29.46l-1.04-1.45,6.28-11.43c.21-.38.57-.64.99-.73.21-.04.64-.07,1.03.24.15.12.27.25.39.4.26.35.41.77.45,1.24.08.98.81,1.78,1.77,1.94.45.08.85.24,1.2.5.76.58,1,1.45,1.07,2.08.1.91.81,1.66,1.72,1.82.3.05.57.15.86.31.72.42.65,1.15.61,1.36-.08.49-.43,1.05-1.16,1.18l-14.17,2.55ZM29.61,29.05l1.24,1.73-2.67,2.68-1.97-2.74,3.39-1.67ZM25.04,32.53l1.06,1.48-5.74,4.12-1.06-1.47,5.74-4.12ZM16.28,57.7c0,.24-.08.46-.24.64-.17.18-.39.28-.56.29l-9.54-.41c-.5-.01-.93-.38-.94-.84l.05-13.52c-.01-.3.13-.59.38-.77l9.83-7.06c.2-.14.43-.2.68-.16.24.04.45.17.59.37l3.35,4.66c.14.2.2.44.16.68-.04.24-.17.45-.37.59l-3.89,2.79c-.28.2-.44.54-.41.89l.91,11.86ZM21,43.64c.54-.45.9-1.06,1.01-1.75.12-.76-.05-1.51-.49-2.13l5.75-4.13c.17.22.42.36.7.38.03,0,.05,0,.08,0,.26,0,.52-.11.71-.29l1.23-1.24v10.53h-9v-1.36ZM32,45v-12.54l.87-.87c.06-.06.1-.14.14-.21l8.99-1.62v15.23h-10ZM53,45h-9v-15.59l2.89-.52c1.43-.26,2.52-1.36,2.77-2.81.24-1.39-.38-2.74-1.57-3.43,0,0-.08-.05-.09-.05-.44-.24-.93-.41-1.52-.56-.11-1.02-.52-2.45-1.85-3.46-.6-.46-1.3-.75-2.08-.88-.08-.01-.1-.08-.11-.12-.06-.84-.35-1.62-.83-2.27-.22-.29-.47-.55-.75-.77-.74-.59-1.71-.83-2.67-.63-1,.2-1.86.83-2.35,1.72l-6.16,11.2c-.07.02-.14.03-.21.06l-5.21,2.57c-.26.13-.46.37-.53.66s-.01.55.14.79l-2.89,2.07v-10.62l16-11.64,16,11.64v22.65ZM58.19,22.41c-.32.45-.95.55-1.4.22l-19.21-13.97c-.35-.26-.83-.26-1.18,0l-19.21,13.97c-.45.32-1.07.22-1.4-.22-.32-.45-.22-1.07.22-1.4l20.97-15.25,20.97,15.25c.45.32.55.95.22,1.4ZM12.62,46.97c-.34-.15-.75-.11-1.04.13l-4.27,3.44c-.22.18-.36.45-.37.73l-.18,4.01c-.01.28.09.55.29.75.19.19.44.3.71.3.01,0,.02,0,.04,0l4.78-.17c.27,0,.52-.12.7-.32.18-.2.28-.46.26-.72l-.33-7.28c-.02-.38-.24-.71-.59-.87ZM8.8,54.28l.11-2.47,2.38-1.92.19,4.29-2.69.09Z"/></svg>