<?xml version="1.0" encoding="UTF-8"?><svg id="Line" xmlns="http://www.w3.org/2000/svg" viewBox="0 0 64 64"><path d="m60.06,46.79s0,0,0-.01l-11.73-26.77c-.84-1.85-2.56-3.01-4.47-3.01h0c-1.92,0-3.63,1.15-4.49,3.02l-8.39,19.16-6.65-15.17c-.84-1.85-2.56-3.01-4.47-3.01h0c-1.92,0-3.63,1.15-4.49,3.02l-9.02,20.61c-1.98.98-3.34,3.02-3.34,5.37v10c0,.55.45,1,1,1h56c.55,0,1-.45,1-1v-10c0-1.18-.35-2.28-.94-3.21Zm-23-16.51c.08-.04.15-.07.22-.13l1.5-1.3,1.88,1.63c.19.16.42.25.66.25s.47-.08.66-.25l1.87-1.63,1.87,1.63c.38.33.93.33,1.31,0l1.88-1.63,1.55,1.34c.06.05.13.08.2.11l6.12,13.97c-.56-.17-1.16-.27-1.77-.27-1.59,0-3.07.62-4.18,1.72-.87-.47-1.83-.72-2.82-.72-1.76,0-3.41.79-4.54,2.11-1.01-.72-2.2-1.11-3.46-1.11-1.5,0-2.91.55-4,1.54-1.09-.99-2.5-1.54-4-1.54-.69,0-1.35.13-1.98.35l7.04-16.08Zm4.13-9.44c.53-1.15,1.52-1.84,2.66-1.84h0c1.14,0,2.13.69,2.65,1.82l2.5,5.71c-.26-.03-.54.04-.75.23l-1.88,1.63-1.88-1.63c-.38-.33-.94-.33-1.31,0l-1.87,1.63-1.87-1.63c-.21-.18-.48-.25-.74-.23l2.49-5.69Zm-24,4c.53-1.15,1.52-1.84,2.66-1.84h0c1.14,0,2.13.69,2.65,1.82l2.5,5.71c-.26-.03-.54.04-.75.23l-1.88,1.63-1.88-1.63c-.38-.33-.94-.33-1.31,0l-1.87,1.63-1.87-1.63c-.21-.18-.48-.25-.74-.23l2.49-5.69Zm-4.13,9.44c.08-.04.15-.07.22-.13l1.5-1.3,1.88,1.63c.19.16.42.25.66.25s.47-.08.66-.25l1.87-1.63,1.87,1.63c.38.33.93.33,1.31,0l1.88-1.63,1.55,1.34c.06.05.13.08.2.11l3.23,7.37-2.4,5.49c-1.01-.73-2.21-1.16-3.49-1.16s-2.45.39-3.46,1.11c-1.13-1.32-2.78-2.11-4.54-2.11-.99,0-1.95.25-2.82.72-1.12-1.1-2.6-1.72-4.18-1.72-.07,0-.14,0-.2.01l4.26-9.74Zm45.94,24.73H5v-9c0-2.21,1.79-4,4-4,1.26,0,2.43.59,3.2,1.62.16.21.4.35.66.39.27.04.53-.03.74-.19.71-.54,1.54-.82,2.4-.82,1.44,0,2.77.8,3.48,2.08.15.28.43.47.75.51.31.04.63-.08.85-.31.77-.82,1.8-1.28,2.91-1.28,1.26,0,2.43.59,3.2,1.62.38.51,1.23.51,1.6,0,.77-1.03,1.94-1.62,3.2-1.62s2.43.59,3.2,1.62c.38.51,1.23.51,1.6,0,.77-1.03,1.94-1.62,3.2-1.62,1.11,0,2.14.45,2.91,1.28.22.23.54.35.85.31.32-.04.6-.23.75-.51.71-1.28,2.04-2.08,3.48-2.08.86,0,1.69.28,2.4.82.21.16.48.23.74.19.26-.04.5-.18.66-.39.77-1.03,1.93-1.62,3.2-1.62,2.21,0,4,1.79,4,4v9ZM6.75,16h8.51c2.07,0,3.75-1.68,3.75-3.75,0-1.66-.92-3.18-2.35-3.86h0c-.58-.28-1.18-.41-1.78-.39-.44-1.72-2.01-3-3.87-3s-3.43,1.28-3.87,3c-.6-.02-1.2.11-1.78.39-1.43.69-2.35,2.2-2.35,3.86,0,2.07,1.68,3.75,3.75,3.75Zm-.53-5.81c.27-.13.52-.19.78-.19.22,0,.44.04.68.13.32.12.67.06.94-.14s.42-.53.4-.86c0-.03-.01-.1-.02-.13,0-1.1.9-2,2-2s2,.9,2,1.97c0,.03-.02.13-.02.16-.02.34.13.66.4.86.27.2.62.25.94.14.53-.19.98-.17,1.46.06.74.36,1.22,1.17,1.22,2.06,0,.96-.78,1.75-1.75,1.75H6.75c-.96,0-1.75-.78-1.75-1.75,0-.9.48-1.71,1.22-2.06Zm33.53,2.81h8.51c2.07,0,3.75-1.68,3.75-3.75,0-1.66-.92-3.18-2.35-3.86h0c-.58-.28-1.18-.41-1.78-.39-.44-1.72-2.01-3-3.87-3s-3.43,1.28-3.87,3c-.61-.02-1.2.11-1.78.39-1.43.69-2.35,2.2-2.35,3.86,0,2.07,1.68,3.75,3.75,3.75Zm-.53-5.81c.27-.13.52-.19.78-.19.22,0,.44.04.68.13.32.12.67.06.94-.14s.42-.53.4-.86c0-.03-.01-.1-.02-.13,0-1.1.9-2,2-2s2,.9,2,1.97c0,.03-.02.13-.02.16-.02.34.13.66.4.86.27.2.62.25.94.14.53-.19.98-.17,1.46.06.74.36,1.22,1.17,1.22,2.06,0,.96-.78,1.75-1.75,1.75h-8.51c-.96,0-1.75-.78-1.75-1.75,0-.9.48-1.71,1.22-2.06Z"/></svg>