<?xml version="1.0" encoding="UTF-8"?><svg id="Line" xmlns="http://www.w3.org/2000/svg" viewBox="0 0 64 64"><path d="m4.02,43c.93-.02,2.3-.25,3.57-1.2.14-.1.27-.21.4-.33.13.12.26.23.4.33,1.27.95,2.65,1.18,3.62,1.2.93-.02,2.3-.25,3.57-1.2.14-.1.27-.21.4-.33.13.12.26.23.4.33,1.27.95,2.65,1.18,3.62,1.2.93-.02,2.3-.25,3.57-1.2.14-.1.27-.21.4-.33.13.12.26.23.4.33,1.27.95,2.65,1.18,3.62,1.2.93-.02,2.3-.25,3.57-1.2.14-.1.27-.21.4-.33.13.12.26.23.4.33,1.27.95,2.65,1.18,3.62,1.2.93-.02,2.3-.25,3.57-1.2.14-.1.27-.21.4-.33.13.12.26.23.4.33,1.27.95,2.65,1.18,3.62,1.2.93-.02,2.3-.25,3.57-1.2.14-.1.27-.21.4-.33.13.12.26.23.4.33,1.27.95,2.65,1.18,3.62,1.2.93-.02,2.3-.25,3.57-1.2.14-.1.27-.21.4-.33.13.12.26.23.4.33,1.27.95,2.65,1.18,3.57,1.2,0,0,.02,0,.02,0,.54,0,.99-.43,1-.98.01-.55-.42-1.01-.98-1.02-.64-.02-1.57-.17-2.43-.8-.3-.22-.57-.49-.8-.8-.38-.5-1.22-.5-1.6,0-.23.3-.5.57-.8.8-.85.64-1.79.79-2.38.8-.64-.02-1.57-.17-2.43-.8-.3-.22-.57-.49-.8-.8-.22-.29-.58-.39-.93-.35-.97-7.9-7.71-14.05-15.87-14.05s-14.9,6.15-15.87,14.05c-.35-.04-.72.06-.93.35-.23.3-.5.57-.8.8-.85.64-1.79.79-2.38.8-.64-.02-1.57-.17-2.43-.8-.3-.22-.57-.49-.8-.8-.38-.5-1.22-.5-1.6,0-.23.3-.5.57-.8.8-.85.64-1.79.79-2.43.8-.55.01-.99.47-.98,1.02.01.55.47.98,1.02.98Zm27.98-16c7.54,0,13.68,5.99,13.97,13.46-.72.4-1.46.53-1.95.54-.64-.02-1.57-.17-2.43-.8-.3-.22-.57-.49-.8-.8-.38-.5-1.22-.5-1.6,0-.23.3-.5.57-.8.8-.85.64-1.79.79-2.38.8-.64-.02-1.57-.17-2.43-.8-.3-.22-.57-.49-.8-.8-.38-.5-1.22-.5-1.6,0-.23.3-.5.57-.8.8-.85.64-1.79.79-2.38.8-.64-.02-1.57-.17-2.43-.8-.3-.22-.57-.49-.8-.8-.38-.5-1.22-.5-1.6,0-.23.3-.5.57-.8.8-.85.64-1.79.79-2.38.8-.53-.01-1.27-.14-2-.54.29-7.47,6.44-13.46,13.97-13.46Zm29,23.02c-.01.54-.46.98-1,.98,0,0-.02,0-.02,0-.93-.02-2.3-.25-3.57-1.2-.14-.1-.27-.21-.4-.33-.13.12-.26.23-.4.33-1.27.95-2.65,1.18-3.57,1.2-.97-.02-2.35-.25-3.62-1.2-.14-.1-.27-.21-.4-.33-.13.12-.26.23-.4.33-1.27.95-2.65,1.18-3.57,1.2-.97-.02-2.35-.25-3.62-1.2-.14-.1-.27-.21-.4-.33-.13.12-.26.23-.4.33-1.27.95-2.65,1.18-3.57,1.2-.97-.02-2.35-.25-3.62-1.2-.14-.1-.27-.21-.4-.33-.13.12-.26.23-.4.33-1.27.95-2.65,1.18-3.57,1.2-.97-.02-2.35-.25-3.62-1.2-.14-.1-.27-.21-.4-.33-.13.12-.26.23-.4.33-1.27.95-2.65,1.18-3.57,1.2-.97-.02-2.35-.25-3.62-1.2-.14-.1-.27-.21-.4-.33-.13.12-.26.23-.4.33-1.27.95-2.65,1.18-3.57,1.2-.97-.02-2.35-.25-3.62-1.2-.14-.1-.27-.21-.4-.33-.13.12-.26.23-.4.33-1.27.95-2.65,1.18-3.57,1.2-.55.02-1.01-.42-1.02-.98-.01-.55.42-1.01.98-1.02.64-.02,1.57-.17,2.43-.8.3-.22.57-.49.8-.8.38-.5,1.22-.5,1.6,0,.23.3.5.57.8.8.85.64,1.79.79,2.43.8.59-.02,1.53-.17,2.38-.8.3-.22.57-.49.8-.8.38-.5,1.22-.5,1.6,0,.23.3.5.57.8.8.85.64,1.79.79,2.43.8.59-.02,1.53-.17,2.38-.8.3-.22.57-.49.8-.8.38-.5,1.22-.5,1.6,0,.23.3.5.57.8.8.85.64,1.79.79,2.43.8.59-.02,1.53-.17,2.38-.8.3-.22.57-.49.8-.8.38-.5,1.22-.5,1.6,0,.23.3.5.57.8.8.85.64,1.79.79,2.43.8.59-.02,1.53-.17,2.38-.8.3-.22.57-.49.8-.8.38-.5,1.22-.5,1.6,0,.23.3.5.57.8.8.85.64,1.79.79,2.43.8.59-.02,1.53-.17,2.38-.8.3-.22.57-.49.8-.8.38-.5,1.22-.5,1.6,0,.23.3.5.57.8.8.85.64,1.79.79,2.43.8.59-.02,1.53-.17,2.38-.8.3-.22.57-.49.8-.8.38-.5,1.22-.5,1.6,0,.23.3.5.57.8.8.85.64,1.79.79,2.43.8.55.01.99.47.98,1.02Zm0,8c-.01.54-.46.98-1,.98,0,0-.02,0-.02,0-.93-.02-2.3-.25-3.57-1.2-.14-.1-.27-.21-.4-.33-.13.12-.26.23-.4.33-1.27.95-2.65,1.18-3.57,1.2-.97-.02-2.35-.25-3.62-1.2-.14-.1-.27-.21-.4-.33-.13.12-.26.23-.4.33-1.27.95-2.65,1.18-3.57,1.2-.97-.02-2.35-.25-3.62-1.2-.14-.1-.27-.21-.4-.33-.13.12-.26.23-.4.33-1.27.95-2.65,1.18-3.57,1.2-.97-.02-2.35-.25-3.62-1.2-.14-.1-.27-.21-.4-.33-.13.12-.26.23-.4.33-1.27.95-2.65,1.18-3.57,1.2-.97-.02-2.35-.25-3.62-1.2-.14-.1-.27-.21-.4-.33-.13.12-.26.23-.4.33-1.27.95-2.65,1.18-3.57,1.2-.97-.02-2.35-.25-3.62-1.2-.14-.1-.27-.21-.4-.33-.13.12-.26.23-.4.33-1.27.95-2.65,1.18-3.57,1.2-.97-.02-2.35-.25-3.62-1.2-.14-.1-.27-.21-.4-.33-.13.12-.26.23-.4.33-1.27.95-2.65,1.18-3.57,1.2-.55.04-1.01-.42-1.02-.98-.01-.55.42-1.01.98-1.02.64-.02,1.57-.17,2.43-.8.3-.22.57-.49.8-.8.38-.5,1.22-.5,1.6,0,.23.3.5.57.8.8.85.64,1.79.79,2.43.8.59-.02,1.53-.17,2.38-.8.3-.22.57-.49.8-.8.38-.5,1.22-.5,1.6,0,.23.3.5.57.8.8.85.64,1.79.79,2.43.8.59-.02,1.53-.17,2.38-.8.3-.22.57-.49.8-.8.38-.5,1.22-.5,1.6,0,.23.3.5.57.8.8.85.64,1.79.79,2.43.8.59-.02,1.53-.17,2.38-.8.3-.22.57-.49.8-.8.38-.5,1.22-.5,1.6,0,.23.3.5.57.8.8.85.64,1.79.79,2.43.8.59-.02,1.53-.17,2.38-.8.3-.22.57-.49.8-.8.38-.5,1.22-.5,1.6,0,.23.3.5.57.8.8.85.64,1.79.79,2.43.8.59-.02,1.53-.17,2.38-.8.3-.22.57-.49.8-.8.38-.5,1.22-.5,1.6,0,.23.3.5.57.8.8.85.64,1.79.79,2.43.8.59-.02,1.53-.17,2.38-.8.3-.22.57-.49.8-.8.38-.5,1.22-.5,1.6,0,.23.3.5.57.8.8.85.64,1.79.79,2.43.8.55.01.99.47.98,1.02ZM31,22v-4c0-.55.45-1,1-1s1,.45,1,1v4c0,.55-.45,1-1,1s-1-.45-1-1Zm-10.13-1.28l2,3.46c.28.48.11,1.09-.37,1.37-.16.09-.33.13-.5.13-.35,0-.68-.18-.87-.5l-2-3.46c-.28-.48-.11-1.09.37-1.37.48-.28,1.09-.11,1.37.37Zm-5.69,10.42c.48.28.64.89.37,1.37-.19.32-.52.5-.87.5-.17,0-.34-.04-.5-.13l-3.46-2c-.48-.28-.64-.89-.37-1.37.28-.48.89-.64,1.37-.37l3.46,2Zm29.32-10.78c.48.28.64.89.37,1.37l-2,3.46c-.19.32-.52.5-.87.5-.17,0-.34-.04-.5-.13-.48-.28-.64-.89-.37-1.37l2-3.46c.28-.48.89-.64,1.37-.37Zm9.15,9.15c.28.48.11,1.09-.37,1.37l-3.46,2c-.16.09-.33.13-.5.13-.35,0-.68-.18-.87-.5-.28-.48-.11-1.09.37-1.37l3.46-2c.48-.28,1.09-.11,1.37.37Zm-5.87-16.44c0-.55.45-1,1-1,1.99,0,3.25.83,4,1.88.75-1.05,2.01-1.88,4-1.88.55,0,1,.45,1,1s-.45,1-1,1c-2.21,0-2.79,1.53-2.95,2.44h.95c.55,0,1,.45,1,1s-.45,1-1,1h-4c-.55,0-1-.45-1-1s.45-1,1-1h.95c-.15-.91-.73-2.44-2.95-2.44-.55,0-1-.45-1-1Zm-12.12-7.06c0-.55.45-1,1-1,1.99,0,3.25.83,4,1.88.75-1.05,2.01-1.88,4-1.88.55,0,1,.45,1,1s-.45,1-1,1c-2.81,0-2.99,2.49-3,3h1c.55,0,1,.45,1,1s-.45,1-1,1h-4c-.55,0-1-.45-1-1s.45-1,1-1h1c0-.51-.19-3-3-3-.55,0-1-.45-1-1ZM6.22,13.06c0-.55.45-1,1-1,1.99,0,3.25.83,4,1.88.75-1.05,2.01-1.88,4-1.88.55,0,1,.45,1,1s-.45,1-1,1c-2.21,0-2.79,1.53-2.95,2.44h.95c.55,0,1,.45,1,1s-.45,1-1,1h-4c-.55,0-1-.45-1-1s.45-1,1-1h.95c-.15-.91-.73-2.44-2.95-2.44-.55,0-1-.45-1-1Zm12.12-7.06c0-.55.45-1,1-1,1.99,0,3.25.83,4,1.88.75-1.05,2.01-1.88,4-1.88.55,0,1,.45,1,1s-.45,1-1,1c-2.81,0-2.99,2.49-3,3h1c.55,0,1,.45,1,1s-.45,1-1,1h-4c-.55,0-1-.45-1-1s.45-1,1-1h1c0-.51-.19-3-3-3-.55,0-1-.45-1-1Z"/></svg>