<?xml version="1.0" encoding="UTF-8"?><svg id="Line" xmlns="http://www.w3.org/2000/svg" viewBox="0 0 64 64"><path d="m31,10v-4c0-.55.45-1,1-1s1,.45,1,1v4c0,.55-.45,1-1,1s-1-.45-1-1ZM7,32h4c.55,0,1-.45,1-1s-.45-1-1-1h-4c-.55,0-1,.45-1,1s.45,1,1,1Zm45-1c0,.55.45,1,1,1h4c.55,0,1-.45,1-1s-.45-1-1-1h-4c-.55,0-1,.45-1,1ZM21.13,13.18c.19.32.52.5.87.5.17,0,.34-.04.5-.13.48-.28.64-.89.37-1.37l-2-3.46c-.28-.48-.89-.64-1.37-.37-.48.28-.64.89-.37,1.37l2,3.46Zm-10.42,5.69l3.46,2c.16.09.33.13.5.13.35,0,.68-.18.87-.5.28-.48.11-1.09-.37-1.37l-3.46-2c-.48-.28-1.09-.11-1.37.37-.28.48-.11,1.09.37,1.37Zm30.78-5.32c.16.09.33.13.5.13.35,0,.68-.18.87-.5l2-3.46c.28-.48.11-1.09-.37-1.37-.48-.28-1.09-.11-1.37.37l-2,3.46c-.28.48-.11,1.09.37,1.37Zm7.82,7.45c.17,0,.34-.04.5-.13l3.46-2c.48-.28.64-.89.37-1.37-.28-.48-.89-.64-1.37-.37l-3.46,2c-.48.28-.64.89-.37,1.37.19.32.52.5.87.5Zm11.68,20v17c0,.55-.45,1-1,1H4c-.55,0-1-.45-1-1v-17c0-.55.45-1,1-1h6.33c2.93,0,5.66.13,8.23.36-2.27-2.95-3.56-6.6-3.56-10.36,0-9.37,7.63-17,17-17s17,7.63,17,17c0,3.77-1.28,7.42-3.56,10.36,2.63-.24,5.39-.36,8.23-.36h6.33c.55,0,1,.45,1,1Zm-39.51-.32c3.97.51,7.47,1.28,10.55,2.21,3.26-.98,6.77-1.72,10.45-2.19,2.9-2.83,4.51-6.62,4.51-10.7,0-8.27-6.73-15-15-15s-15,6.73-15,15c0,4.07,1.6,7.85,4.49,10.68Zm28.71,16.32c-2.84-4-13.1-15-39.87-15h-5.33v15h45.2Zm8.8-15h-5.33c-3.7,0-7.26.21-10.57.63-2.66.33-5.22.8-7.66,1.4,11.51,4.36,16.02,10.96,17.17,12.96h6.4v-15Z"/></svg>