<?xml version="1.0" encoding="UTF-8"?><svg id="Line" xmlns="http://www.w3.org/2000/svg" viewBox="0 0 64 64"><path d="m60.86,30.34l-13.82-15.84c-.83-.96-2.14-1.51-3.6-1.51h-.01c-1.46,0-2.78.55-3.61,1.5l-1.95,2.23-6.82-7.82c-1.06-1.21-2.74-1.91-4.62-1.91h0c-1.88,0-3.56.7-4.62,1.91L3.12,30.34c-.26.3-.32.71-.16,1.07s.52.59.91.59h20.53l-8.36,27.71c-.16.53.14,1.09.67,1.25.53.16,1.09-.14,1.25-.67l8.54-28.29h11.01l8.54,28.29c.13.43.53.71.96.71.1,0,.19-.01.29-.04.53-.16.83-.72.67-1.25l-8.36-27.71h20.51c.39,0,.75-.23.91-.59s.1-.78-.16-1.07Zm-54.79-.34L23.33,10.22c.67-.77,1.83-1.22,3.11-1.22h0c1.28,0,2.44.46,3.11,1.22l17.25,19.78H6.08Zm43.38,0l-10.25-11.75,2.13-2.43c.45-.51,1.23-.82,2.1-.82h0c.87,0,1.65.31,2.09.82l12.38,14.18h-8.46Zm-16.45,5v3c0,.55-.45,1-1,1s-1-.45-1-1v-3c0-.55.45-1,1-1s1,.45,1,1Zm0,7v3c0,.55-.45,1-1,1s-1-.45-1-1v-3c0-.55.45-1,1-1s1,.45,1,1Zm0,7v3c0,.55-.45,1-1,1s-1-.45-1-1v-3c0-.55.45-1,1-1s1,.45,1,1Zm0,7v3c0,.55-.45,1-1,1s-1-.45-1-1v-3c0-.55.45-1,1-1s1,.45,1,1Zm17.99-17.51l-2.21,2.79c-.19.24-.48.38-.78.38s-.59-.14-.78-.38l-2.21-2.79c-.34-.43-.27-1.06.16-1.4.43-.34,1.06-.27,1.4.16l.43.54v-.91c0-.49.45-.88,1-.88s1,.4,1,.88v.91l.43-.54c.34-.43.97-.51,1.4-.16.43.34.51.97.16,1.4Zm5.84,10.6c.43.34.51.97.16,1.4l-2.21,2.79c-.19.24-.48.38-.78.38s-.59-.14-.78-.38l-2.21-2.79c-.34-.43-.27-1.06.16-1.4.43-.34,1.06-.27,1.4.16l.43.54v-.88c0-.5.45-.91,1-.91s1,.41,1,.91v.88l.43-.54c.34-.43.97-.51,1.4-.16Zm-40.05-7.81c-.19.24-.48.38-.78.38s-.59-.14-.78-.38l-2.21-2.79c-.34-.43-.27-1.06.16-1.4.43-.34,1.06-.27,1.4.16l.43.54v-.93c0-.47.45-.86,1-.86s1,.38,1,.86v.93l.43-.54c.34-.43.97-.51,1.4-.16.43.34.51.97.16,1.4l-2.21,2.79Zm-4.16,7.9c.43.34.51.97.16,1.4l-2,2.52c-.19.24-.48.38-.78.38s-.59-.14-.78-.38l-2-2.52c-.34-.43-.27-1.06.16-1.4.43-.34,1.06-.27,1.4.16l.22.27v-.56c0-.49.45-.88,1-.88s1,.4,1,.88v.56l.22-.27c.34-.43.97-.51,1.4-.16Z"/></svg>