<?xml version="1.0" encoding="UTF-8"?><svg id="Line" xmlns="http://www.w3.org/2000/svg" viewBox="0 0 64 64"><path d="m60,36s-.02,0-.02,0c-.93-.02-2.3-.25-3.57-1.2-.14-.1-.27-.21-.4-.33-.13.12-.26.23-.4.33-1.27.95-2.65,1.18-3.57,1.2-.97-.02-2.35-.25-3.62-1.2-.14-.1-.27-.21-.4-.33-.13.12-.26.23-.4.33-1.27.95-2.65,1.18-3.57,1.2-.97-.02-2.35-.25-3.62-1.2-.14-.1-.27-.21-.4-.33-.13.12-.26.23-.4.33-1.27.95-2.65,1.18-3.57,1.2-.97-.02-2.35-.25-3.62-1.2-.14-.1-.27-.21-.4-.33-.13.12-.26.23-.4.33-1.27.95-2.65,1.18-3.57,1.2-.97-.02-2.35-.25-3.62-1.2-.14-.1-.27-.21-.4-.33-.13.12-.26.23-.4.33-1.27.95-2.65,1.18-3.57,1.2-.97-.02-2.35-.25-3.62-1.2-.14-.1-.27-.21-.4-.33-.13.12-.26.23-.4.33-1.27.95-2.65,1.18-3.57,1.2-.97-.02-2.35-.25-3.62-1.2-.14-.1-.27-.21-.4-.33-.13.12-.26.23-.4.33-1.27.95-2.65,1.18-3.57,1.2-.59.01-1.01-.42-1.02-.98-.01-.55.42-1.01.98-1.02.64-.02,1.57-.17,2.43-.8.3-.22.57-.49.8-.8.38-.5,1.22-.5,1.6,0,.23.31.5.57.8.8.85.64,1.79.79,2.43.8.59-.02,1.53-.17,2.38-.8.3-.22.57-.49.8-.8.38-.5,1.22-.5,1.6,0,.23.31.5.57.8.8.85.64,1.79.79,2.43.8.59-.02,1.53-.17,2.38-.8.3-.22.57-.49.8-.8.38-.5,1.22-.5,1.6,0,.23.31.5.57.8.8.85.64,1.79.79,2.43.8.59-.02,1.53-.17,2.38-.8.3-.22.57-.49.8-.8.38-.5,1.22-.5,1.6,0,.23.31.5.57.8.8.85.64,1.79.79,2.43.8.59-.02,1.53-.17,2.38-.8.3-.22.57-.49.8-.8.38-.5,1.22-.5,1.6,0,.23.31.5.57.8.8.85.64,1.79.79,2.43.8.59-.02,1.53-.17,2.38-.8.3-.22.57-.49.8-.8.38-.5,1.22-.5,1.6,0,.23.31.5.57.8.8.85.64,1.79.79,2.43.8.59-.02,1.53-.17,2.38-.8.3-.22.57-.49.8-.8.38-.5,1.22-.5,1.6,0,.23.31.5.57.8.8.85.64,1.79.79,2.43.8.55.01.99.47.98,1.02-.01.54-.46.98-1,.98Zm1,7.02c.01-.55-.42-1.01-.98-1.02-.64-.02-1.57-.17-2.43-.8-.3-.22-.57-.49-.8-.8-.38-.5-1.22-.5-1.6,0-.23.31-.5.57-.8.8-.85.64-1.79.79-2.38.8-.64-.02-1.57-.17-2.43-.8-.3-.22-.57-.49-.8-.8-.38-.5-1.22-.5-1.6,0-.23.31-.5.57-.8.8-.85.64-1.79.79-2.38.8-.64-.02-1.57-.17-2.43-.8-.3-.22-.57-.49-.8-.8-.38-.5-1.22-.5-1.6,0-.23.31-.5.57-.8.8-.85.64-1.79.79-2.38.8-.64-.02-1.57-.17-2.43-.8-.3-.22-.57-.49-.8-.8-.38-.5-1.22-.5-1.6,0-.23.31-.5.57-.8.8-.85.64-1.79.79-2.38.8-.64-.02-1.57-.17-2.43-.8-.3-.22-.57-.49-.8-.8-.38-.5-1.22-.5-1.6,0-.23.31-.5.57-.8.8-.85.64-1.79.79-2.38.8-.64-.02-1.57-.17-2.43-.8-.3-.22-.57-.49-.8-.8-.38-.5-1.22-.5-1.6,0-.23.31-.5.57-.8.8-.85.64-1.79.79-2.38.8-.64-.02-1.57-.17-2.43-.8-.3-.22-.57-.49-.8-.8-.38-.5-1.22-.5-1.6,0-.23.31-.5.57-.8.8-.85.64-1.79.79-2.43.8-.55.01-.99.47-.98,1.02.01.55.43,1,1.02.98.93-.02,2.3-.25,3.57-1.2.14-.1.27-.21.4-.33.13.12.26.23.4.33,1.27.95,2.65,1.18,3.62,1.2.93-.02,2.3-.25,3.57-1.2.14-.1.27-.21.4-.33.13.12.26.23.4.33,1.27.95,2.65,1.18,3.62,1.2.93-.02,2.3-.25,3.57-1.2.14-.1.27-.21.4-.33.13.12.26.23.4.33,1.27.95,2.65,1.18,3.62,1.2.93-.02,2.3-.25,3.57-1.2.14-.1.27-.21.4-.33.13.12.26.23.4.33,1.27.95,2.65,1.18,3.62,1.2.93-.02,2.3-.25,3.57-1.2.14-.1.27-.21.4-.33.13.12.26.23.4.33,1.27.95,2.65,1.18,3.62,1.2.93-.02,2.3-.25,3.57-1.2.14-.1.27-.21.4-.33.13.12.26.23.4.33,1.27.95,2.65,1.18,3.62,1.2.93-.02,2.3-.25,3.57-1.2.14-.1.27-.21.4-.33.13.12.26.23.4.33,1.27.95,2.65,1.18,3.57,1.2,0,0,.02,0,.02,0,.54,0,.99-.43,1-.98Zm0,8c.01-.55-.42-1.01-.98-1.02-.64-.02-1.57-.17-2.43-.8-.3-.22-.57-.49-.8-.8-.38-.5-1.22-.5-1.6,0-.23.31-.5.57-.8.8-.85.64-1.79.79-2.38.8-.64-.02-1.57-.17-2.43-.8-.3-.22-.57-.49-.8-.8-.38-.5-1.22-.5-1.6,0-.23.31-.5.57-.8.8-.85.64-1.79.79-2.38.8-.64-.02-1.57-.17-2.43-.8-.3-.22-.57-.49-.8-.8-.38-.5-1.22-.5-1.6,0-.23.31-.5.57-.8.8-.85.64-1.79.79-2.38.8-.64-.02-1.57-.17-2.43-.8-.3-.22-.57-.49-.8-.8-.38-.5-1.22-.5-1.6,0-.23.31-.5.57-.8.8-.85.64-1.79.79-2.38.8-.64-.02-1.57-.17-2.43-.8-.3-.22-.57-.49-.8-.8-.38-.5-1.22-.5-1.6,0-.23.31-.5.57-.8.8-.85.64-1.79.79-2.38.8-.64-.02-1.57-.17-2.43-.8-.3-.22-.57-.49-.8-.8-.38-.5-1.22-.5-1.6,0-.23.31-.5.57-.8.8-.85.64-1.79.79-2.38.8-.64-.02-1.57-.17-2.43-.8-.3-.22-.57-.49-.8-.8-.38-.5-1.22-.5-1.6,0-.23.31-.5.57-.8.8-.85.64-1.79.79-2.43.8-.55.01-.99.47-.98,1.02.01.55.43,1,1.02.98.93-.02,2.3-.25,3.57-1.2.14-.1.27-.21.4-.33.13.12.26.23.4.33,1.27.95,2.65,1.18,3.62,1.2.93-.02,2.3-.25,3.57-1.2.14-.1.27-.21.4-.33.13.12.26.23.4.33,1.27.95,2.65,1.18,3.62,1.2.93-.02,2.3-.25,3.57-1.2.14-.1.27-.21.4-.33.13.12.26.23.4.33,1.27.95,2.65,1.18,3.62,1.2.93-.02,2.3-.25,3.57-1.2.14-.1.27-.21.4-.33.13.12.26.23.4.33,1.27.95,2.65,1.18,3.62,1.2.93-.02,2.3-.25,3.57-1.2.14-.1.27-.21.4-.33.13.12.26.23.4.33,1.27.95,2.65,1.18,3.62,1.2.93-.02,2.3-.25,3.57-1.2.14-.1.27-.21.4-.33.13.12.26.23.4.33,1.27.95,2.65,1.18,3.62,1.2.93-.02,2.3-.25,3.57-1.2.14-.1.27-.21.4-.33.13.12.26.23.4.33,1.27.95,2.65,1.18,3.57,1.2,0,0,.02,0,.02,0,.54,0,.99-.43,1-.98Zm0,8c.01-.55-.42-1.01-.98-1.02-.64-.02-1.57-.17-2.43-.8-.3-.22-.57-.49-.8-.8-.38-.5-1.22-.5-1.6,0-.23.31-.5.57-.8.8-.85.64-1.79.79-2.38.8-.64-.02-1.57-.17-2.43-.8-.3-.22-.57-.49-.8-.8-.38-.5-1.22-.5-1.6,0-.23.31-.5.57-.8.8-.85.64-1.79.79-2.38.8-.64-.02-1.57-.17-2.43-.8-.3-.22-.57-.49-.8-.8-.38-.5-1.22-.5-1.6,0-.23.31-.5.57-.8.8-.85.64-1.79.79-2.38.8-.64-.02-1.57-.17-2.43-.8-.3-.22-.57-.49-.8-.8-.38-.5-1.22-.5-1.6,0-.23.31-.5.57-.8.8-.85.64-1.79.79-2.38.8-.64-.02-1.57-.17-2.43-.8-.3-.22-.57-.49-.8-.8-.38-.5-1.22-.5-1.6,0-.23.31-.5.57-.8.8-.85.64-1.79.79-2.38.8-.64-.02-1.57-.17-2.43-.8-.3-.22-.57-.49-.8-.8-.38-.5-1.22-.5-1.6,0-.23.31-.5.57-.8.8-.85.64-1.79.79-2.38.8-.64-.02-1.57-.17-2.43-.8-.3-.22-.57-.49-.8-.8-.38-.5-1.22-.5-1.6,0-.23.31-.5.57-.8.8-.85.64-1.79.79-2.43.8-.55.01-.99.47-.98,1.02.01.55.43,1.01,1.02.98.93-.02,2.3-.25,3.57-1.2.14-.1.27-.21.4-.33.13.12.26.23.4.33,1.27.95,2.65,1.18,3.62,1.2.93-.02,2.3-.25,3.57-1.2.14-.1.27-.21.4-.33.13.12.26.23.4.33,1.27.95,2.65,1.18,3.62,1.2.93-.02,2.3-.25,3.57-1.2.14-.1.27-.21.4-.33.13.12.26.23.4.33,1.27.95,2.65,1.18,3.62,1.2.93-.02,2.3-.25,3.57-1.2.14-.1.27-.21.4-.33.13.12.26.23.4.33,1.27.95,2.65,1.18,3.62,1.2.93-.02,2.3-.25,3.57-1.2.14-.1.27-.21.4-.33.13.12.26.23.4.33,1.27.95,2.65,1.18,3.62,1.2.93-.02,2.3-.25,3.57-1.2.14-.1.27-.21.4-.33.13.12.26.23.4.33,1.27.95,2.65,1.18,3.62,1.2.93-.02,2.3-.25,3.57-1.2.14-.1.27-.21.4-.33.13.12.26.23.4.33,1.27.95,2.65,1.18,3.57,1.2,0,0,.02,0,.02,0,.54,0,.99-.43,1-.98Zm-1.22-40.86c0-2.17-1.2-4.14-3.05-5.04h0c-.85-.41-1.73-.57-2.63-.48-.46-2.4-2.57-4.22-5.1-4.22s-4.64,1.82-5.1,4.22c-.9-.09-1.78.07-2.63.48-1.85.9-3.05,2.87-3.05,5.04,0,2.67,2.17,4.84,4.84,4.84h11.88c2.67,0,4.84-2.17,4.84-4.84Zm-15.28-3.34c.32.11.67.06.94-.14.27-.2.42-.53.4-.87,0-.06-.01-.12-.02-.2,0-1.76,1.43-3.19,3.19-3.19s3.19,1.43,3.19,3.21c0,.06-.02.12-.02.18-.02.34.13.66.4.87.27.2.62.25.94.14.83-.3,1.58-.27,2.35.1h0c1.17.56,1.92,1.83,1.92,3.24,0,1.56-1.27,2.84-2.84,2.84h-11.88c-1.56,0-2.84-1.27-2.84-2.84,0-1.4.75-2.67,1.92-3.24.42-.2.84-.31,1.27-.31.35,0,.71.07,1.08.2Zm-20.61-2.88c0-2-1.11-3.83-2.83-4.66h0c-.76-.37-1.55-.52-2.35-.45-.46-2.18-2.39-3.83-4.71-3.83s-4.25,1.64-4.71,3.83c-.8-.07-1.59.08-2.35.45-1.72.83-2.83,2.66-2.83,4.66,0,2.47,2.01,4.49,4.49,4.49h10.8c2.47,0,4.49-2.01,4.49-4.49Zm-14.01-2.95c.31.12.67.06.94-.14.27-.2.42-.53.4-.86,0-.06-.01-.12-.02-.18,0-1.55,1.26-2.81,2.81-2.81s2.81,1.26,2.81,2.81c0,.06-.02.12-.02.18-.02.34.13.66.4.86.27.2.62.25.94.14.73-.27,1.39-.24,2.07.09h0c1.03.5,1.7,1.62,1.7,2.86,0,1.37-1.12,2.49-2.49,2.49h-10.8c-1.37,0-2.49-1.12-2.49-2.49,0-1.24.67-2.36,1.7-2.86.37-.18.74-.27,1.11-.27.31,0,.62.06.95.18Z"/></svg>