<?xml version="1.0" encoding="UTF-8"?><svg id="Line" xmlns="http://www.w3.org/2000/svg" viewBox="0 0 64 64"><path d="m31.6,50.8c.14-.1.27-.21.4-.33.13.12.26.23.4.33,1.36,1.01,2.83,1.18,3.61,1.2.75-.01,2.22-.19,3.58-1.2.14-.1.27-.21.4-.33.13.12.26.23.4.33,1.36,1.01,2.83,1.18,3.61,1.2.75-.01,2.22-.19,3.58-1.2.14-.1.27-.21.4-.33.13.12.26.23.4.33,1.36,1.01,2.83,1.18,3.61,1.2.75-.01,2.22-.19,3.58-1.2.14-.1.27-.21.4-.33.13.12.26.23.4.33,1.36,1.01,2.83,1.18,3.58,1.2h.02c.54,0,.99-.44,1-.98,0-.55-.43-1.01-.98-1.02-.51,0-1.51-.12-2.42-.8-.39-.29-.65-.59-.8-.8-.38-.51-1.23-.51-1.61,0-.15.2-.41.51-.79.79-.91.68-1.91.79-2.39.8-.51,0-1.51-.12-2.42-.8-.39-.29-.65-.59-.8-.8-.38-.51-1.23-.51-1.61,0-.15.2-.41.51-.79.79-.91.68-1.91.79-2.39.8-.51,0-1.51-.12-2.42-.8-.39-.29-.65-.59-.8-.8-.38-.51-1.23-.51-1.61,0-.15.2-.41.51-.79.79-.91.68-1.91.79-2.39.8-.51,0-1.51-.12-2.42-.8-.39-.29-.65-.59-.8-.8-.38-.51-1.23-.51-1.61,0-.15.2-.41.51-.79.79-.44.33-.89.51-1.3.63l-1.17-2.99c-.41-1.06-.9-2.07-1.44-3.04.6.15,1.14.2,1.51.21.75-.01,2.22-.19,3.58-1.2.14-.1.27-.21.4-.33.13.12.26.23.4.33,1.36,1.01,2.83,1.18,3.61,1.2.75-.01,2.22-.19,3.58-1.2.14-.1.27-.21.4-.33.13.12.26.23.4.33,1.36,1.01,2.83,1.18,3.61,1.2.75-.01,2.22-.19,3.58-1.2.14-.1.27-.21.4-.33.13.12.26.23.4.33,1.36,1.01,2.83,1.18,3.61,1.2.75-.01,2.22-.19,3.58-1.2.14-.1.27-.21.4-.33.13.12.26.23.4.33,1.36,1.01,2.83,1.18,3.58,1.2h.02c.54,0,.99-.44,1-.98,0-.55-.43-1.01-.98-1.02-.51,0-1.51-.12-2.42-.8-.39-.29-.65-.59-.8-.8-.38-.51-1.23-.51-1.61,0-.15.2-.41.51-.79.79-.91.68-1.91.79-2.39.8-.51,0-1.51-.12-2.42-.8-.39-.29-.65-.59-.8-.8-.38-.51-1.23-.51-1.61,0-.15.2-.41.51-.79.79-.91.68-1.91.79-2.39.8-.51,0-1.51-.12-2.42-.8-.39-.29-.65-.59-.8-.8-.38-.51-1.23-.51-1.61,0-.15.2-.41.51-.79.79-.91.68-1.91.79-2.39.8-.51,0-1.51-.12-2.42-.8-.39-.29-.65-.59-.8-.8-.38-.51-1.23-.51-1.61,0-.15.2-.41.51-.79.79-.91.68-1.91.79-2.39.8-.51,0-1.51-.12-2.42-.8-.39-.29-.65-.59-.8-.8-.19-.26-.52-.39-.81-.4-.02,0-.03.01-.05.01-.9-1.09-1.89-2.1-2.95-3.02l6.2-9.9,2.3,1.44h0c.33.21.7.31,1.06.31.41,0,.83-.13,1.18-.39l.62-.45-.15.55c-.24.86.11,1.75.87,2.23l6.87,4.31c.32.2.69.3,1.06.3.48,0,.95-.17,1.32-.49l2.58-2.26c.16-.14.27-.33.32-.53.67-2.96,1.1-7.57-.65-12.73-1.54-4.53-4.18-7.72-6.42-9.76l1.26-2.01c.29-.48.45-1.03.45-1.58,0-1.04-.53-2-1.4-2.54-.67-.43-1.48-.56-2.26-.39-.79.18-1.45.65-1.88,1.33l-1.25,2c-2.82-1.12-6.85-2.12-11.6-1.52-5.41.67-9.37,3.07-11.74,4.97-.17.13-.28.31-.34.52l-.91,3.31c-.24.86.11,1.75.87,2.22l6.87,4.31c.74.47,1.72.39,2.38-.19l.43-.37-.14.76c-.15.81.21,1.61.91,2.05l2.31,1.45-6.11,9.74c-3.4-1.71-7.21-2.66-11.22-2.66h-.77c-.55,0-1,.45-1,1v28c0,.55.45,1,1,1h28c.33,0,.64-.16.83-.44.19-.27.23-.62.11-.93l-.25-.65c1.28.84,2.61,1,3.34,1.02.75-.01,2.22-.19,3.58-1.2.14-.1.27-.21.4-.33.13.12.26.23.4.33,1.36,1.01,2.83,1.18,3.61,1.2.75-.01,2.22-.19,3.58-1.2.14-.1.27-.21.4-.33.13.12.26.23.4.33,1.36,1.01,2.83,1.18,3.61,1.2.75-.01,2.22-.19,3.58-1.2.14-.1.27-.21.4-.33.13.12.26.23.4.33,1.36,1.01,2.83,1.18,3.58,1.2h.02c.54,0,.99-.44,1-.98,0-.55-.43-1.01-.98-1.02-.51,0-1.51-.12-2.42-.8-.39-.29-.65-.59-.8-.8-.38-.51-1.23-.51-1.61,0-.15.2-.41.51-.79.79-.91.68-1.91.79-2.39.8-.51,0-1.51-.12-2.42-.8-.39-.29-.65-.59-.8-.8-.38-.51-1.23-.51-1.61,0-.15.2-.41.51-.79.79-.91.68-1.91.79-2.39.8-.51,0-1.51-.12-2.42-.8-.39-.29-.65-.59-.8-.8-.38-.51-1.23-.51-1.61,0-.15.2-.41.51-.79.79-.91.68-1.91.79-2.39.8-.51,0-1.51-.12-2.42-.8-.39-.29-.65-.59-.8-.8-.28-.38-.83-.48-1.24-.29l-1.72-4.42c.56-.18,1.16-.45,1.77-.89Zm4.03-33.22c-.22,2.26-.9,4.48-1.95,6.51l-11.72-7.34c1.37-1.83,3.08-3.41,5.01-4.59,2.82-1.72,5.59-2.34,7.62-2.54.7,1.91,1.35,4.68,1.03,7.96Zm5.37,15.82l-6.87-4.31.55-2.01,7.89,4.94-1.57,1.38Zm1.67-13.38c1.35,3.97,1.28,7.58.86,10.25l-8.13-5.09c1.21-2.3,1.97-4.83,2.22-7.4.23-2.37,0-4.49-.4-6.27,1.95,1.88,4.14,4.66,5.45,8.52Zm-6.67-14.54c.14-.22.36-.38.62-.44.26-.06.52-.01.75.13.29.18.47.5.47.85,0,.19-.05.37-.15.53l-1.1,1.76c-.27-.21-.53-.4-.77-.57-.03-.02-.06-.04-.09-.06-.25-.14-.53-.29-.84-.44l1.1-1.76Zm-14.3,1.4c4.05-.51,7.52.25,10.07,1.19-1.78.42-3.8,1.14-5.84,2.38-2.2,1.34-4.13,3.15-5.67,5.24l-8.15-5.11c2.21-1.54,5.44-3.18,9.6-3.69Zm-4.44,11.65l-6.87-4.31.55-2.01,7.89,4.94-1.57,1.38Zm3.96.12l11.05,6.93-1.74,1.27-9.7-6.08.38-2.12Zm2.56,6.32l1.69,1.06-6.08,9.71c-.54-.39-1.1-.77-1.67-1.12l6.05-9.66ZM5,59v-26c9.4.09,17.66,5.78,21.08,14.56l4.46,11.44H5Z"/></svg>