<?xml version="1.0" encoding="UTF-8"?><svg id="Line" xmlns="http://www.w3.org/2000/svg" viewBox="0 0 64 64"><path d="m60,33c.55,0,1-.45,1-1s-.45-1-1-1h-5v-2h5c.55,0,1-.45,1-1s-.45-1-1-1v-12.51s0,0,0,0c.44,0,.84-.29.96-.73.15-.53-.16-1.08-.69-1.23-1.76-.5-3.53-1.15-5.27-1.93v-2.24c1.53.69,3.11,1.29,4.71,1.78.1.03.2.04.3.04.43,0,.82-.28.96-.71.16-.53-.13-1.09-.66-1.25-1.8-.56-3.58-1.26-5.29-2.09v-1.15c0-1.1-.9-2-2-2h-2c-1.1,0-2,.9-2,2v1.61c-2.33,1.03-4.75,1.85-7.22,2.41-4.3.98-7.73.98-9.78.98s-5.48,0-9.78-.98c-2.47-.56-4.89-1.38-7.22-2.41v-1.61c0-1.1-.9-2-2-2h-2c-1.1,0-2,.9-2,2v1.15c-1.72.82-3.49,1.53-5.29,2.09-.53.16-.82.72-.66,1.25.13.43.53.71.96.71.1,0,.2-.01.3-.04,1.6-.49,3.17-1.09,4.71-1.78v2.24c-1.74.78-3.51,1.43-5.27,1.93-.53.15-.84.7-.69,1.23.12.44.53.73.96.73,0,0,0,0,0,0v12.51c-.55,0-1,.45-1,1s.45,1,1,1h5v2h-5c-.55,0-1,.45-1,1s.45,1,1,1h5v9c-1.1,0-2,.9-2,2v3.63c-.18.21-.38.4-.6.57-.85.64-1.79.79-2.43.8-.55.01-.99.47-.98,1.02.01.55.47.98,1.02.98.93-.02,2.3-.25,3.57-1.2.14-.1.27-.21.4-.33.13.12.26.23.4.33,1.27.95,2.65,1.18,3.62,1.2.93-.02,2.3-.25,3.57-1.2.14-.1.27-.21.4-.33.13.12.26.23.4.33,1.27.95,2.65,1.18,3.62,1.2.93-.02,2.3-.25,3.57-1.2.14-.1.27-.21.4-.33.13.12.26.23.4.33,1.27.95,2.65,1.18,3.62,1.2.93-.02,2.3-.25,3.57-1.2.14-.1.27-.21.4-.33.13.12.26.23.4.33,1.27.95,2.65,1.18,3.62,1.2.93-.02,2.3-.25,3.57-1.2.14-.1.27-.21.4-.33.13.12.26.23.4.33,1.27.95,2.65,1.18,3.62,1.2.93-.02,2.3-.25,3.57-1.2.14-.1.27-.21.4-.33.13.12.26.23.4.33,1.27.95,2.65,1.18,3.62,1.2.93-.02,2.3-.25,3.57-1.2.14-.1.27-.21.4-.33.13.12.26.23.4.33,1.27.95,2.65,1.18,3.57,1.2,0,0,.02,0,.02,0,.54,0,.99-.43,1-.98.01-.55-.42-1.01-.98-1.02-.64-.02-1.57-.17-2.43-.8-.22-.16-.42-.36-.6-.57v-3.63c0-1.1-.9-2-2-2v-9h5Zm-2-19.08v13.08h-3v-14.21c.99.42,2,.8,3,1.13Zm-21,1.96v11.12h-4v-11c1.25,0,2.58-.03,4-.12Zm12,11.12h-4v-12.47c1.34-.37,2.68-.82,4-1.33v13.81Zm-6,0h-4v-11.31c1.25-.14,2.58-.36,4-.67v11.98Zm-12,0h-4v-11.12c1.42.1,2.75.12,4,.12v11Zm-6,0h-4v-11.98c1.42.32,2.75.53,4,.67v11.31Zm-6,0h-4v-13.81c1.32.51,2.66.96,4,1.33v12.47Zm-4,2h34v2H15v-2Zm6.78-18.02c4.52,1.02,8.09,1.02,10.22,1.02s5.7,0,10.22-1.02c2.31-.53,4.58-1.27,6.78-2.19v2.25c-2.04.84-4.13,1.51-6.22,1.99-4.28.98-7.58.98-10.78.98s-6.5,0-10.78-.98c-2.09-.48-4.18-1.15-6.22-1.99v-2.25c2.2.92,4.47,1.66,6.78,2.19ZM6,27v-13.08c1-.33,2.01-.71,3-1.13v14.21h-3ZM11,5h2v6.7h0v30.3h-2V5Zm3.4,43.2c-.85.64-1.79.79-2.38.8-.64-.02-1.57-.17-2.43-.8-.22-.16-.42-.36-.6-.57v-3.63h6v3.63c-.18.21-.38.4-.6.57Zm32,0c-.85.64-1.79.79-2.38.8-.64-.02-1.57-.17-2.43-.8-.3-.22-.57-.49-.8-.8-.38-.5-1.22-.5-1.6,0-.23.3-.5.57-.8.8-.85.64-1.79.79-2.38.8-.64-.02-1.57-.17-2.43-.8-.3-.22-.57-.49-.8-.8-.38-.5-1.22-.5-1.6,0-.23.3-.5.57-.8.8-.85.64-1.79.79-2.38.8-.64-.02-1.57-.17-2.43-.8-.3-.22-.57-.49-.8-.8-.38-.5-1.22-.5-1.6,0-.23.3-.5.57-.8.8-.85.64-1.79.79-2.38.8-.64-.02-1.57-.17-2.43-.8-.22-.16-.42-.36-.6-.57v-3.63c0-1.1-.9-2-2-2v-9h34v9c-1.1,0-2,.9-2,2v3.63c-.18.21-.38.4-.6.57Zm8,0c-.85.64-1.79.79-2.38.8-.64-.02-1.57-.17-2.43-.8-.22-.16-.42-.36-.6-.57v-3.63h6v3.63c-.18.21-.38.4-.6.57Zm-3.4-6.2V11.7h0v-6.7h2v37h-2Zm10,16.02c-.01.54-.46.98-1,.98,0,0-.02,0-.02,0-.93-.02-2.3-.25-3.57-1.2-.14-.1-.27-.21-.4-.33-.13.12-.26.23-.4.33-1.27.95-2.65,1.18-3.57,1.2-.97-.02-2.35-.25-3.62-1.2-.14-.1-.27-.21-.4-.33-.13.12-.26.23-.4.33-1.27.95-2.65,1.18-3.57,1.2-.97-.02-2.35-.25-3.62-1.2-.14-.1-.27-.21-.4-.33-.13.12-.26.23-.4.33-1.27.95-2.65,1.18-3.57,1.2-.97-.02-2.35-.25-3.62-1.2-.14-.1-.27-.21-.4-.33-.13.12-.26.23-.4.33-1.27.95-2.65,1.18-3.57,1.2-.97-.02-2.35-.25-3.62-1.2-.14-.1-.27-.21-.4-.33-.13.12-.26.23-.4.33-1.27.95-2.65,1.18-3.57,1.2-.97-.02-2.35-.25-3.62-1.2-.14-.1-.27-.21-.4-.33-.13.12-.26.23-.4.33-1.27.95-2.65,1.18-3.57,1.2-.97-.02-2.35-.25-3.62-1.2-.14-.1-.27-.21-.4-.33-.13.12-.26.23-.4.33-1.27.95-2.65,1.18-3.57,1.2-.55.02-1.01-.42-1.02-.98-.01-.55.42-1.01.98-1.02.64-.02,1.57-.17,2.43-.8.3-.22.57-.49.8-.8.38-.5,1.22-.5,1.6,0,.23.3.5.57.8.8.85.64,1.79.79,2.43.8.59-.02,1.53-.17,2.38-.8.3-.22.57-.49.8-.8.38-.5,1.22-.5,1.6,0,.23.3.5.57.8.8.85.64,1.79.79,2.43.8.59-.02,1.53-.17,2.38-.8.3-.22.57-.49.8-.8.38-.5,1.22-.5,1.6,0,.23.3.5.57.8.8.85.64,1.79.79,2.43.8.59-.02,1.53-.17,2.38-.8.3-.22.57-.49.8-.8.38-.5,1.22-.5,1.6,0,.23.3.5.57.8.8.85.64,1.79.79,2.43.8.59-.02,1.53-.17,2.38-.8.3-.22.57-.49.8-.8.38-.5,1.22-.5,1.6,0,.23.3.5.57.8.8.85.64,1.79.79,2.43.8.59-.02,1.53-.17,2.38-.8.3-.22.57-.49.8-.8.38-.5,1.22-.5,1.6,0,.23.3.5.57.8.8.85.64,1.79.79,2.43.8.59-.02,1.53-.17,2.38-.8.3-.22.57-.49.8-.8.38-.5,1.22-.5,1.6,0,.23.3.5.57.8.8.85.64,1.79.79,2.43.8.55.01.99.47.98,1.02Z"/></svg>