<?xml version="1.0" encoding="UTF-8"?><svg id="Line" xmlns="http://www.w3.org/2000/svg" viewBox="0 0 64 64"><path d="m60,36h-6.29l-7.1-11.36c-.84-1.33-2.25-2.12-3.79-2.12s-2.96.79-3.79,2.13l-.74,1.19-4.59-7.34c-.98-1.56-2.63-2.49-4.43-2.49s-3.45.93-4.43,2.49l-.95,1.52c-1.6.06-2.89,1.37-2.89,2.99v1h-2v-3c0-1.07-.42-2.07-1.17-2.83-.76-.76-1.76-1.17-2.83-1.17-2.21,0-4,1.79-4,4v6h-2v-1c0-1.65-1.35-3-3-3s-3,1.35-3,3v2c0,2.76,2.24,5,5,5h3v3.02c-.22,0-.44-.02-.67-.02h-6.33c-.55,0-1,.45-1,1v23c0,.55.45,1,1,1h56c.55,0,1-.45,1-1v-23c0-.55-.45-1-1-1Zm-19.28-10.3c.48-.76,1.24-1.19,2.1-1.19s1.62.43,2.1,1.19l6.48,10.37c-2.1.1-4.2.32-6.27.7l-5.66-9.05,1.25-2.01Zm-11.45-7.7c1.12,0,2.11.56,2.73,1.55l11.03,17.65c-3.82.86-7.53,2.17-11.03,3.92-4.09-2.04-8.47-3.5-13.01-4.33v-5.19l1-1.61h2c2.76,0,5-2.24,5-5v-2c0-.95-.46-1.8-1.15-2.35l.69-1.1c.62-.98,1.61-1.55,2.73-1.55Zm-7.27,8s.05-.01.08-.02c.05,0,.11-.02.16-.03.4-.1.7-.44.74-.86,0,0,0,0,0,0,0-.03.02-.05.02-.08v-2c0-.55.45-1,1-1s1,.45,1,1v2c0,1.65-1.35,3-3,3h-3v-2h3Zm-14,5c-1.65,0-3-1.35-3-3v-2c0-.55.45-1,1-1s1,.45,1,1v2c0,.55.45,1,1,1h3v2h-3Zm5,1v-11c0-1.1.9-2,2-2,.53,0,1.03.21,1.41.59s.59.88.59,1.41v15.48c-1.32-.18-2.66-.33-4-.4v-4.07Zm-8,27v-21h5.33c13.48,0,26.29,5.83,35.13,16.01l4.34,4.99H5Zm54,0h-6.54l-5.48-6.31c-3.67-4.22-8.01-7.71-12.77-10.41,6.08-2.8,12.77-4.29,19.47-4.29h5.33v21Zm-43-14c0,.55-.45,1-1,1h-5c-.55,0-1-.45-1-1s.45-1,1-1h5c.55,0,1,.45,1,1Zm10,5c0,.55-.45,1-1,1h-5c-.55,0-1-.45-1-1s.45-1,1-1h5c.55,0,1,.45,1,1Zm25-5h-5c-.55,0-1-.45-1-1s.45-1,1-1h5c.55,0,1,.45,1,1s-.45,1-1,1Zm-1,4h5c.55,0,1,.45,1,1s-.45,1-1,1h-5c-.55,0-1-.45-1-1s.45-1,1-1Zm-12,6c0,.55-.45,1-1,1h-5c-.55,0-1-.45-1-1s.45-1,1-1h5c.55,0,1,.45,1,1Zm12-38c2.76,0,5-2.24,5-5s-2.24-5-5-5-5,2.24-5,5,2.24,5,5,5Zm0-8c1.65,0,3,1.35,3,3s-1.35,3-3,3-3-1.35-3-3,1.35-3,3-3Zm-1-4v-1c0-.55.45-1,1-1s1,.45,1,1v1c0,.55-.45,1-1,1s-1-.45-1-1Zm-5.36,2.05c-.39-.39-.39-1.02,0-1.41s1.02-.39,1.41,0l.71.71c.39.39.39,1.02,0,1.41-.2.2-.45.29-.71.29s-.51-.1-.71-.29l-.71-.71Zm-2.64,4.95c0-.55.45-1,1-1h1c.55,0,1,.45,1,1s-.45,1-1,1h-1c-.55,0-1-.45-1-1Zm4.76,4.24c.39.39.39,1.02,0,1.41l-.71.71c-.2.2-.45.29-.71.29s-.51-.1-.71-.29c-.39-.39-.39-1.02,0-1.41l.71-.71c.39-.39,1.02-.39,1.41,0Zm4.24,1.76c.55,0,1,.45,1,1v1c0,.55-.45,1-1,1s-1-.45-1-1v-1c0-.55.45-1,1-1Zm5.66-1.76l.71.71c.39.39.39,1.02,0,1.41-.2.2-.45.29-.71.29s-.51-.1-.71-.29l-.71-.71c-.39-.39-.39-1.02,0-1.41s1.02-.39,1.41,0Zm1.34-5.24h1c.55,0,1,.45,1,1s-.45,1-1,1h-1c-.55,0-1-.45-1-1s.45-1,1-1Zm-2.76-3.24c-.39-.39-.39-1.02,0-1.41l.71-.71c.39-.39,1.02-.39,1.41,0s.39,1.02,0,1.41l-.71.71c-.2.2-.45.29-.71.29s-.51-.1-.71-.29Z"/></svg>