<?xml version="1.0" encoding="UTF-8"?><svg id="Line" xmlns="http://www.w3.org/2000/svg" viewBox="0 0 64 64"><path d="m60.85,3.24c-.19-.19-.44-.27-.71-.29-9.22.09-23,2.13-36.3,11.33-6.38,4.42-12.06,10.2-16.47,16.72h-3.37c-.55,0-1,.45-1,1v28c0,.55.45,1,1,1h56c.55,0,1-.45,1-1v-28c0-.55-.45-1-1-1h-6.33c-8.05,0-15.33.98-21.65,2.89-1.62-.49-3.35-.94-5.21-1.32,1.92-1.89,3.98-3.61,6.15-5.11,9.88-6.85,20.24-8.39,27.19-8.47.55,0,.99-.45.99-1V3.95c0-.27-.11-.52-.3-.71ZM18.81,31.38c-1.06-.1-2.15-.18-3.27-.24,3.5-4.41,7.56-8.23,12.11-11.37,11.4-7.9,23.25-9.9,31.51-10.12v2.68c-7.86.22-19.13,2.14-29.99,9.65-3.83,2.65-7.3,5.82-10.36,9.41Zm6.17-15.46c12.41-8.58,25.26-10.73,34.17-10.95v2.69c-8.54.22-20.82,2.28-32.65,10.47-5.09,3.52-9.6,7.87-13.42,12.92-.9-.03-1.81-.04-2.75-.04h-.52c4.15-5.86,9.36-11.05,15.17-15.08Zm-14.65,17.08c21.49,0,32.3,6.9,37.35,12H5v-12h5.33Zm48.67,26H5v-12h54v12Zm-5.33-26h5.33v12h-8.59c-2.6-3-7.23-7-15.01-9.96,5.46-1.35,11.58-2.04,18.27-2.04Zm-21.84-7.18c-2.64,1.82-5.12,3.95-7.39,6.3-1.03-.18-2.1-.33-3.2-.47,2.72-3.03,5.74-5.74,9.05-8.03,10.43-7.22,21.27-9.07,28.85-9.29v2.68c-7.2.22-17.48,1.99-27.32,8.81Z"/></svg>