<?xml version="1.0" encoding="UTF-8"?><svg id="Line" xmlns="http://www.w3.org/2000/svg" viewBox="0 0 64 64"><path d="m61,58.02c-.01.54-.46.98-1,.98h-.02c-.93-.02-2.3-.25-3.57-1.2-.14-.1-.27-.21-.4-.33-.13.12-.26.22-.4.33-1.27.95-2.65,1.18-3.57,1.2-.97-.02-2.35-.25-3.62-1.2-.14-.1-.27-.21-.4-.33-.13.12-.26.22-.4.33-1.27.95-2.65,1.18-3.57,1.2-.97-.02-2.35-.25-3.62-1.2-.14-.1-.27-.21-.4-.33-.13.12-.26.22-.4.33-1.27.95-2.65,1.18-3.57,1.2-.97-.02-2.35-.25-3.62-1.2-.14-.1-.27-.21-.4-.33-.13.12-.26.22-.4.33-1.27.95-2.65,1.18-3.57,1.2-.97-.02-2.35-.25-3.62-1.2-.14-.1-.27-.21-.4-.33-.13.12-.26.22-.4.33-1.27.95-2.65,1.18-3.57,1.2-.97-.02-2.35-.25-3.62-1.2-.14-.1-.27-.21-.4-.33-.13.12-.26.22-.4.33-1.27.95-2.65,1.18-3.57,1.2-.97-.02-2.35-.25-3.62-1.2-.14-.1-.27-.21-.4-.33-.13.12-.26.22-.4.33-1.27.95-2.65,1.18-3.57,1.2-.57.01-1.01-.42-1.02-.98-.01-.55.42-1.01.98-1.02.64-.01,1.57-.17,2.43-.8.3-.22.57-.49.8-.8.38-.5,1.22-.5,1.6,0,.23.31.5.58.8.8.85.64,1.79.79,2.43.8.59-.01,1.53-.17,2.38-.8.3-.22.57-.49.8-.8.38-.5,1.22-.5,1.6,0,.23.31.5.58.8.8.85.64,1.79.79,2.43.8.59-.01,1.53-.17,2.38-.8.3-.22.57-.49.8-.8.38-.5,1.22-.5,1.6,0,.23.31.5.58.8.8.85.64,1.79.79,2.43.8.59-.01,1.53-.17,2.38-.8.3-.22.57-.49.8-.8.38-.5,1.22-.5,1.6,0,.23.31.5.58.8.8.85.64,1.79.79,2.43.8.59-.01,1.53-.17,2.38-.8.3-.22.57-.49.8-.8.38-.5,1.22-.5,1.6,0,.23.31.5.58.8.8.85.64,1.79.79,2.43.8.59-.01,1.53-.17,2.38-.8.3-.22.57-.49.8-.8.38-.5,1.22-.5,1.6,0,.23.31.5.58.8.8.85.64,1.79.79,2.43.8.59-.01,1.53-.17,2.38-.8.3-.22.57-.49.8-.8.38-.5,1.22-.5,1.6,0,.23.31.5.58.8.8.85.64,1.79.79,2.43.8.55.01.99.47.98,1.02Zm-21-37.02v22.97c.16.24.31.49.41.77,1.55.6,2.59,2.09,2.59,3.8,0,.1-.02.2-.03.3.41.11.78.15,1.05.16.47,0,1.47-.12,2.38-.8.38-.29.64-.59.79-.79.38-.51,1.23-.51,1.61,0,.15.2.41.51.8.8.91.67,1.9.79,2.42.8.48,0,1.47-.12,2.39-.8.38-.29.64-.59.79-.79.38-.51,1.23-.51,1.61,0,.15.2.41.51.8.8.91.67,1.9.79,2.42.8.55,0,.99.46.98,1.02,0,.55-.46.98-1,.98h-.02c-.75-.01-2.22-.19-3.58-1.2-.14-.1-.27-.21-.4-.33-.13.12-.26.23-.4.33-1.36,1.01-2.83,1.19-3.58,1.2-.79-.01-2.25-.19-3.61-1.2-.14-.1-.27-.21-.4-.33-.13.12-.26.23-.4.33-1.36,1.01-2.83,1.19-3.58,1.2-.43,0-.98-.07-1.58-.23-.81,1.55-2.41,2.62-4.28,2.62h-12.31c-1.87,0-3.47-1.07-4.28-2.62-.6.16-1.14.22-1.55.23-.79-.01-2.26-.19-3.62-1.2-.14-.1-.27-.21-.4-.33-.13.12-.26.23-.4.33-1.36,1.01-2.83,1.19-3.58,1.2-.79-.01-2.25-.19-3.61-1.2-.14-.1-.27-.21-.4-.33-.13.12-.26.23-.4.33-1.36,1.01-2.83,1.19-3.58,1.2h-.02c-.54,0-.99-.44-1-.98,0-.55.43-1.01.98-1.02.51,0,1.51-.12,2.42-.8.38-.29.64-.59.79-.79.38-.51,1.23-.51,1.61,0,.15.2.41.51.8.8.91.67,1.9.79,2.42.8.48,0,1.47-.12,2.39-.8.38-.29.64-.59.79-.79.38-.51,1.23-.51,1.61,0,.15.2.41.51.8.8.91.67,1.9.79,2.42.8.25,0,.61-.05,1.01-.16,0-.1-.03-.2-.03-.31,0-1.71,1.04-3.2,2.59-3.8.11-.28.25-.53.41-.77v-22.97H4c-.55,0-1-.45-1-1s.45-1,1-1h20v-4H4c-.55,0-1-.45-1-1s.45-1,1-1h20v-4.28l-2.02-.67-2.68.77c-.62.18-1.29.05-1.79-.35l-1.98-1.56-3.32-.99-3.05,2.43c-.65.52-1.57.58-2.28.15l-3.4-2.06c-.47-.29-.62-.9-.34-1.37s.9-.62,1.37-.34l3.4,2.06,3.05-2.43c.51-.41,1.19-.54,1.82-.35l3.31.99c.25.07.47.19.67.35l1.97,1.56,2.68-.77c.39-.11.8-.1,1.19.03l2.43.81c4.59-1.27,9.44-1.25,13.92,0l2.43-.81c.38-.13.79-.14,1.18-.03l2.68.77,1.98-1.56c.2-.16.42-.27.67-.35l3.31-.99c.63-.19,1.31-.06,1.82.35l3.05,2.43,3.4-2.06c.47-.28,1.09-.14,1.37.34s.14,1.09-.34,1.37l-3.4,2.06c-.71.43-1.63.37-2.28-.15l-3.05-2.43-3.31.99-1.98,1.56c-.5.4-1.18.53-1.79.35l-2.67-.77-2.02.67v4.28h20c.55,0,1,.45,1,1s-.45,1-1,1h-20v4h20c.55,0,1,.45,1,1s-.45,1-1,1h-20Zm-14-12.24v33.64c.43-.16.9-.25,1.38-.25.44,0,.87.07,1.27.2.75-1.07,1.99-1.74,3.34-1.74s2.59.67,3.34,1.74c.41-.13.84-.2,1.27-.2.49,0,.95.09,1.38.25V8.76c-3.87-1-8.04-1.02-12,0Zm13.39,37.75c-.37-.09-.66-.38-.75-.75-.22-.95-1.05-1.61-2.03-1.61-.41,0-.81.12-1.16.35-.26.17-.58.22-.88.12-.29-.1-.53-.33-.63-.62-.29-.83-1.07-1.39-1.96-1.39s-1.67.56-1.96,1.39c-.1.29-.33.52-.63.62-.29.1-.62.06-.88-.12-.34-.23-.74-.35-1.16-.35-.97,0-1.81.66-2.03,1.61-.09.37-.38.66-.75.75-.95.22-1.61,1.05-1.61,2.03,0,1.57,1.28,2.85,2.85,2.85h12.31c1.57,0,2.85-1.28,2.85-2.85,0-.97-.66-1.81-1.61-2.03Zm-10.39-29.02c.55,0,1-.45,1-1v-3.49c0-.55-.45-1-1-1s-1,.45-1,1v3.49c0,.55.45,1,1,1Zm0,13c.55,0,1-.45,1-1v-5.49c0-.55-.45-1-1-1s-1,.45-1,1v5.49c0,.55.45,1,1,1Zm6-6c.55,0,1-.45,1-1v-5.49c0-.55-.45-1-1-1s-1,.45-1,1v5.49c0,.55.45,1,1,1Zm0,12c.55,0,1-.45,1-1v-3.49c0-.55-.45-1-1-1s-1,.45-1,1v3.49c0,.55.45,1,1,1Z"/></svg>