<?xml version="1.0" encoding="UTF-8"?><svg id="Line" xmlns="http://www.w3.org/2000/svg" viewBox="0 0 64 64"><path d="m4.02,51c.93-.02,2.3-.25,3.57-1.2.14-.1.27-.21.4-.33.13.12.26.22.4.33,1.27.95,2.65,1.18,3.62,1.2.93-.02,2.3-.25,3.57-1.2.14-.1.27-.21.4-.33.13.12.26.22.4.33,1.27.95,2.65,1.18,3.62,1.2.93-.02,2.3-.25,3.57-1.2.14-.1.27-.21.4-.33.13.12.26.22.4.33,1.27.95,2.65,1.18,3.62,1.2.93-.02,2.3-.25,3.57-1.2.14-.1.27-.21.4-.33.13.12.26.22.4.33,1.27.95,2.65,1.18,3.62,1.2.93-.02,2.3-.25,3.57-1.2.14-.1.27-.21.4-.33.13.12.26.22.4.33,1.27.95,2.65,1.18,3.62,1.2.93-.02,2.3-.25,3.57-1.2.14-.1.27-.21.4-.33.13.12.26.22.4.33,1.27.95,2.65,1.18,3.62,1.2.93-.02,2.3-.25,3.57-1.2.14-.1.27-.21.4-.33.13.12.26.22.4.33,1.27.95,2.65,1.18,3.57,1.2h.02c.54,0,.99-.43,1-.98.01-.55-.42-1.01-.98-1.02-.64-.01-1.57-.17-2.43-.8-.3-.22-.57-.49-.8-.8-.38-.5-1.22-.5-1.6,0-.23.31-.5.58-.8.8-.85.64-1.79.79-2.38.8-.64-.01-1.57-.17-2.43-.8-.3-.22-.57-.49-.8-.8-.38-.5-1.22-.5-1.6,0-.23.31-.5.58-.8.8-.85.64-1.79.79-2.38.8-.64-.01-1.57-.17-2.43-.8-.3-.22-.57-.49-.8-.8-.31-.41-.92-.47-1.34-.21l-1.38-17.22c.8-.06,1.5-.57,1.76-1.35l.67-2c.2-.61.1-1.28-.27-1.8-.3-.41-.74-.69-1.24-.78v-8.8h1c.55,0,1-.45,1-1s-.45-1-1-1h-1.05c-.43-4.38-3.67-6.4-5.95-7.05v-2.2c0-.55-.45-1-1-1s-1,.45-1,1v2.2c-2.28.65-5.52,2.67-5.95,7.05h-1.05c-.55,0-1,.45-1,1s.45,1,1,1h1v8.8c-.49.1-.94.37-1.24.78-.38.52-.48,1.19-.27,1.8l.67,2c.26.77.96,1.29,1.76,1.35l-1.38,17.22c-.42-.26-1.03-.21-1.34.21-.23.31-.5.58-.8.8-.85.64-1.79.79-2.38.8-.64-.01-1.57-.17-2.43-.8-.3-.22-.57-.49-.8-.8-.38-.5-1.22-.5-1.6,0-.23.31-.5.58-.8.8-.85.64-1.79.79-2.38.8-.64-.01-1.57-.17-2.43-.8-.3-.22-.57-.49-.8-.8-.38-.5-1.22-.5-1.6,0-.23.31-.5.58-.8.8-.85.64-1.79.79-2.43.8-.55.01-.99.47-.98,1.02.01.55.47.98,1.02.98Zm23.5-16h8.95l.24,3h-9.43l.24-3Zm9.35,5l.24,3h-10.23l.24-3h9.75Zm-.56-7h-8.63l.24-3h8.15l.24,3Zm-2.72,15.2c-.3-.22-.57-.49-.8-.8-.38-.5-1.22-.5-1.6,0-.23.31-.5.58-.8.8-.85.64-1.79.79-2.38.8-.43,0-1-.1-1.59-.34l.29-3.66h10.55l.29,3.66c-.58.24-1.15.33-1.55.34-.64-.01-1.57-.17-2.43-.8Zm-.6-24.2h-2v-3c0-.55.45-1,1-1s1,.45,1,1v3Zm-1-6c-1.65,0-3,1.35-3,3v3h-2v-8h10v8h-2v-3c0-1.65-1.35-3-3-3Zm0-9.98c.81.17,4.43,1.16,4.94,5.23h-9.88c.51-4.08,4.14-5.06,4.94-5.23Zm6.61,17.98l-.67,2h-11.89l-.67-2h13.23Zm22.39,32.02c-.01.54-.46.98-1,.98h-.02c-.93-.02-2.3-.25-3.57-1.2-.14-.1-.27-.21-.4-.33-.13.12-.26.22-.4.33-1.27.95-2.65,1.18-3.57,1.2-.97-.02-2.35-.25-3.62-1.2-.14-.1-.27-.21-.4-.33-.13.12-.26.22-.4.33-1.27.95-2.65,1.18-3.57,1.2-.97-.02-2.35-.25-3.62-1.2-.14-.1-.27-.21-.4-.33-.13.12-.26.22-.4.33-1.27.95-2.65,1.18-3.57,1.2-.97-.02-2.35-.25-3.62-1.2-.14-.1-.27-.21-.4-.33-.13.12-.26.22-.4.33-1.27.95-2.65,1.18-3.57,1.2-.97-.02-2.35-.25-3.62-1.2-.14-.1-.27-.21-.4-.33-.13.12-.26.22-.4.33-1.27.95-2.65,1.18-3.57,1.2-.97-.02-2.35-.25-3.62-1.2-.14-.1-.27-.21-.4-.33-.13.12-.26.22-.4.33-1.27.95-2.65,1.18-3.57,1.2-.97-.02-2.35-.25-3.62-1.2-.14-.1-.27-.21-.4-.33-.13.12-.26.22-.4.33-1.27.95-2.65,1.18-3.57,1.2-.55.01-1.01-.42-1.02-.98-.01-.55.42-1.01.98-1.02.64-.01,1.57-.17,2.43-.8.3-.22.57-.49.8-.8.38-.5,1.22-.5,1.6,0,.23.31.5.58.8.8.85.64,1.79.79,2.43.8.59-.01,1.53-.17,2.38-.8.3-.22.57-.49.8-.8.38-.5,1.22-.5,1.6,0,.23.31.5.58.8.8.85.64,1.79.79,2.43.8.59-.01,1.53-.17,2.38-.8.3-.22.57-.49.8-.8.38-.5,1.22-.5,1.6,0,.23.31.5.58.8.8.85.64,1.79.79,2.43.8.59-.01,1.53-.17,2.38-.8.3-.22.57-.49.8-.8.38-.5,1.22-.5,1.6,0,.23.31.5.58.8.8.85.64,1.79.79,2.43.8.59-.01,1.53-.17,2.38-.8.3-.22.57-.49.8-.8.38-.5,1.22-.5,1.6,0,.23.31.5.58.8.8.85.64,1.79.79,2.43.8.59-.01,1.53-.17,2.38-.8.3-.22.57-.49.8-.8.38-.5,1.22-.5,1.6,0,.23.31.5.58.8.8.85.64,1.79.79,2.43.8.59-.01,1.53-.17,2.38-.8.3-.22.57-.49.8-.8.38-.5,1.22-.5,1.6,0,.23.31.5.58.8.8.85.64,1.79.79,2.43.8.55.01.99.47.98,1.02Zm-12-39.02c.55,0,1,.45,1,1s-.45,1-1,1h-5c-.55,0-1-.45-1-1s.45-1,1-1h5Zm-6.48-2.21c-.16-.53.14-1.09.66-1.25l4.78-1.46c.53-.17,1.09.14,1.25.66s-.14,1.09-.66,1.25l-4.78,1.46c-.1.03-.2.04-.29.04-.43,0-.82-.28-.96-.71Zm0,6.42c.16-.53.72-.83,1.25-.66l4.78,1.46c.53.16.83.72.66,1.25-.13.43-.53.71-.96.71-.1,0-.19-.01-.29-.04l-4.78-1.46c-.53-.16-.83-.72-.66-1.25Zm-28.52-3.21c0-.55.45-1,1-1h5c.55,0,1,.45,1,1s-.45,1-1,1h-5c-.55,0-1-.45-1-1Zm.78-5.25c.16-.53.72-.83,1.25-.66l4.78,1.46c.53.16.83.72.66,1.25-.13.43-.53.71-.96.71-.1,0-.19-.01-.29-.04l-4.78-1.46c-.53-.16-.83-.72-.66-1.25Zm6.7,8.46c.16.53-.14,1.09-.66,1.25l-4.78,1.46c-.1.03-.2.04-.29.04-.43,0-.82-.28-.96-.71-.16-.53.14-1.09.66-1.25l4.78-1.46c.53-.17,1.09.14,1.25.66Z"/></svg>