<?xml version="1.0" encoding="UTF-8"?><svg id="Line" xmlns="http://www.w3.org/2000/svg" viewBox="0 0 64 64"><path d="m58.46,59.33c-5.2-5.73-9.55-12.13-12.95-19.02-2.14-4.34-3.9-8.9-5.24-13.55-.22-.78-.76-1.41-1.44-1.79v-2.42c1.44-.51,3.25-1.71,3.54-3.83.98-.03,2.43-.26,3.66-1.2,1.07-.81,1.76-1.96,2.07-3.44,2.41-.63,5.85-2.65,5.65-6.91.96-.63,2.02-1.81,1.59-3.41-.14-.53-.69-.85-1.22-.71-.53.14-.85.69-.71,1.22.22.82-1.1,1.42-1.11,1.42-.41.18-.65.61-.6,1.05.61,4.57-4.43,5.48-4.64,5.52-.44.07-.78.42-.83.87-.15,1.26-.63,2.2-1.4,2.79-1.36,1.04-3.28.78-3.29.77-.31-.05-.62.05-.84.26-.22.21-.34.52-.3.83.25,2.36-2.65,3.01-2.77,3.03-.47.09-.8.5-.8.98v2.81h-9.43v-2.81c0-.47-.33-.88-.8-.98-.12-.03-3.02-.67-2.77-3.03.03-.31-.08-.61-.3-.83-.22-.21-.54-.31-.84-.27-.02,0-1.94.27-3.3-.77-.78-.59-1.25-1.53-1.4-2.79-.05-.44-.39-.79-.83-.87-.21-.04-5.25-.95-4.64-5.52.06-.44-.19-.87-.59-1.05-.01,0-1.33-.6-1.11-1.42.14-.53-.18-1.08-.71-1.22-.53-.14-1.08.18-1.22.71-.43,1.6.64,2.78,1.59,3.41-.2,4.26,3.24,6.28,5.65,6.91.31,1.48,1.01,2.63,2.07,3.44,1.23.93,2.68,1.17,3.66,1.2.3,2.13,2.11,3.32,3.54,3.83v2.32c-.8.35-1.43,1.03-1.68,1.89-1.34,4.66-3.11,9.22-5.24,13.55-3.39,6.89-7.75,13.29-12.95,19.02-.27.29-.33.71-.17,1.08.16.36.52.59.91.59h51.45c.4,0,.75-.23.91-.59.16-.36.09-.78-.17-1.08ZM25.65,27.3c.12-.42.51-.71.96-.71h10.79c.44,0,.83.29.96.71,1.37,4.77,3.18,9.44,5.37,13.88.78,1.59,1.62,3.16,2.5,4.7-1.02-.22-1.7-1.14-2.65-2.57-.99-1.5-2.12-3.19-4.2-3.72-.59-.15-.9-.68-1.35-1.53-.6-1.12-1.42-2.65-3.6-2.5-2.29.16-2.72,2.29-3,3.7-.32,1.6-.51,1.8-.94,1.81-.46,0-.67-.36-1.07-1.77-.37-1.28-.91-3.22-3.03-3.14-1.89.06-2.59,2.17-3.27,4.21-.69,2.08-1.4,4.23-3.05,4.5-.51.09-.99.07-1.27-.81.52-.96,1.02-1.92,1.5-2.89,2.19-4.44,3.99-9.11,5.37-13.88Zm-17.15,31.7c3.47-4.03,6.53-8.35,9.17-12.93.66.69,1.58.97,2.7.79,2.84-.47,3.83-3.45,4.63-5.84.37-1.13.94-2.83,1.44-2.85.42,0,.61.21,1.03,1.69.36,1.26.91,3.17,2.95,3.22.03,0,.05,0,.08,0,2.18,0,2.59-2.05,2.87-3.42.32-1.56.52-2.06,1.18-2.1.83-.05,1.09.31,1.7,1.45.51.96,1.15,2.14,2.62,2.52,1.33.34,2.16,1.58,3.03,2.89,1.06,1.6,2.34,3.53,4.79,3.53.23,0,.47-.02.72-.05,2.39,3.9,5.09,7.62,8.08,11.1H8.49ZM36.55,10.96c.03-.55.49-.96,1.06-.94,1.92.11,2.28-2.22,2.31-2.48.05-.48.43-.85.91-.89,1.29-.11,1.33-1.31,1.32-1.67-.03-.55.39-1.02.94-1.05.53-.03,1.02.38,1.05.93.08,1.25-.51,3.09-2.37,3.64-.38,1.53-1.51,3.53-4,3.53-.1,0-.19,0-.29,0-.55-.03-.97-.51-.94-1.06Zm-17.05-5.82c.05-.55.53-.96,1.09-.91.55.05.95.53.91,1.08-.02.3-.13,2.89,2.91,3.53.52.11.86.6.78,1.12-.03.21-.23,2.16,1.52,2.69.53.16.83.72.66,1.25-.13.43-.53.71-.96.71-.1,0-.2-.01-.29-.04-2.21-.68-2.87-2.58-2.94-3.99-3.17-1.07-3.81-3.96-3.67-5.44Z"/></svg>