<?xml version="1.0" encoding="UTF-8"?><svg id="Line" xmlns="http://www.w3.org/2000/svg" viewBox="0 0 64 64"><path d="m60,29c-3.77,0-6.24,3.63-7.06,5.03-3.28.3-5.04,3.04-5.71,4.99-.08,0-.16.02-.24.03v-8.05c2.59,0,4.73-2.18,4.98-4.96,1.81-.86,3.02-2.82,3.02-5.04s-1.21-4.18-3.02-5.04c-.25-2.78-2.38-4.96-4.98-4.96-1.09,0-2.14.4-3,1.12-.86-.72-1.91-1.12-3-1.12-2.59,0-4.73,2.18-4.98,4.96-1.81.86-3.02,2.82-3.02,5.04s1.21,4.18,3.02,5.04c.25,2.78,2.38,4.96,4.98,4.96v10.88s.01.05.02.07c-.93,1.11-1.4,2.28-1.64,3.04h-10.37v-3h1c1.1,0,2-.9,2-2v-2c0-1.1-.9-2-2-2h-3v-2h1c1.1,0,2-.9,2-2v-4c0-1.1-.9-2-2-2H10c-1.1,0-2,.9-2,2v4c0,1.1.9,2,2,2h1v2h-3c-1.1,0-2,.9-2,2v2c0,1.1.9,2,2,2h1v3h-5c-.55,0-1,.45-1,1s.45,1,1,1h56c.55,0,1-.45,1-1v-16c0-.55-.45-1-1-1Zm-50-1h18v4s-18,0-18,0v-4Zm3,6h12v2h-12v-2Zm-5,4h22v2s-22,0-22,0v-2Zm3,7v-3h16v3H11Zm27-19.46s.01-.13.01-.16c.02-.46-.28-.87-.72-1-1.35-.39-2.29-1.78-2.29-3.38s.94-3,2.29-3.38c.44-.13.74-.54.72-1,0-.05,0-.11-.01-.12,0-1.93,1.35-3.5,3-3.5.84,0,1.63.41,2.21,1.17.38.49,1.2.49,1.58,0,.58-.75,1.37-1.17,2.21-1.17,1.65,0,3,1.57,3,3.46,0,.03-.01.13-.01.16-.02.46.28.87.72,1,1.35.39,2.29,1.78,2.29,3.38s-.94,3-2.29,3.38c-.44.13-.74.54-.72,1,0,.05,0,.11.01.12,0,1.93-1.35,3.5-3,3.5-.84,0-1.63-.41-2.21-1.17-.19-.24-.48-.39-.79-.39s-.6.14-.79.39c-.58.75-1.37,1.17-2.21,1.17-1.65,0-3-1.57-3-3.46Zm6,4.34c.31.26.65.46,1,.63v8.89c-.76.22-1.42.51-2,.85v-9.74c.35-.17.69-.37,1-.63Zm-2.53,15.12c.61-1.52,2.26-4,6.53-4,.47,0,.87-.33.98-.78.04-.17,1-4.22,4.58-4.22.38,0,.73-.22.9-.56.02-.04,1.79-3.57,4.55-4.31v13.87h-17.53Zm-20.47-28c2.76,0,5-2.24,5-5s-2.24-5-5-5-5,2.24-5,5,2.24,5,5,5Zm0-8c1.65,0,3,1.35,3,3s-1.35,3-3,3-3-1.35-3-3,1.35-3,3-3Zm-1-4v-1c0-.55.45-1,1-1s1,.45,1,1v1c0,.55-.45,1-1,1s-1-.45-1-1Zm-5.36,2.05c-.39-.39-.39-1.02,0-1.41s1.02-.39,1.41,0l.71.71c.39.39.39,1.02,0,1.41-.2.2-.45.29-.71.29s-.51-.1-.71-.29l-.71-.71Zm-2.64,4.95c0-.55.45-1,1-1h1c.55,0,1,.45,1,1s-.45,1-1,1h-1c-.55,0-1-.45-1-1Zm4.76,4.24c.39.39.39,1.02,0,1.41l-.71.71c-.2.2-.45.29-.71.29s-.51-.1-.71-.29c-.39-.39-.39-1.02,0-1.41l.71-.71c.39-.39,1.02-.39,1.41,0Zm4.24,1.76c.55,0,1,.45,1,1v1c0,.55-.45,1-1,1s-1-.45-1-1v-1c0-.55.45-1,1-1Zm5.66-1.76l.71.71c.39.39.39,1.02,0,1.41-.2.2-.45.29-.71.29s-.51-.1-.71-.29l-.71-.71c-.39-.39-.39-1.02,0-1.41s1.02-.39,1.41,0Zm1.34-5.24h1c.55,0,1,.45,1,1s-.45,1-1,1h-1c-.55,0-1-.45-1-1s.45-1,1-1Zm-2.76-3.24c-.39-.39-.39-1.02,0-1.41l.71-.71c.39-.39,1.02-.39,1.41,0s.39,1.02,0,1.41l-.71.71c-.2.2-.45.29-.71.29s-.51-.1-.71-.29Zm-10.41,43.33c.43.34.51.97.16,1.4l-2.21,2.79c-.19.24-.48.38-.78.38s-.59-.14-.78-.38l-2.21-2.79c-.34-.43-.27-1.06.16-1.4.43-.35,1.06-.27,1.4.16l.43.54v-.91c0-.49.45-.88,1-.88s1,.4,1,.88v.91l.43-.54c.34-.43.97-.51,1.4-.16Zm20,5c.43.34.51.97.16,1.4l-2.21,2.79c-.19.24-.48.38-.78.38s-.59-.14-.78-.38l-2.21-2.79c-.34-.43-.27-1.06.16-1.4.43-.35,1.06-.27,1.4.16l.43.54v-.88c0-.5.45-.91,1-.91s1,.41,1,.91v.88l.43-.54c.34-.43.97-.51,1.4-.16Zm21-5c.43.34.51.97.16,1.4l-2.21,2.79c-.19.24-.48.38-.78.38s-.59-.14-.78-.38l-2.21-2.79c-.34-.43-.27-1.06.16-1.4.43-.35,1.06-.27,1.4.16l.43.54v-.91c0-.49.45-.88,1-.88s1,.4,1,.88v.91l.43-.54c.34-.43.97-.51,1.4-.16Z"/></svg>