<?xml version="1.0" encoding="UTF-8"?><svg id="Line" xmlns="http://www.w3.org/2000/svg" viewBox="0 0 64 64"><path d="m60,21.36h-10.71l-1.07-3.74c-.09-.31-.32-.56-.62-.67l-3.7-1.34-3.84-6.15c-.15-.24-.4-.41-.68-.46-.29-.04-.57.03-.8.21l-1.64,1.34-4.07-7.06c-.36-.62-1.38-.62-1.73,0l-4.07,7.06-1.64-1.34c-.22-.18-.51-.26-.8-.21-.28.05-.53.21-.68.46l-3.84,6.15-3.7,1.34c-.3.11-.53.36-.62.67l-1.05,3.68s-.09.04-.13.06H4c-.55,0-1,.45-1,1s.45,1,1,1h9.06l-.64.88c-.12.17-.19.38-.19.59v6.13c0,.27.11.52.29.71l4.1,4.1v7.58c0,.34.17.65.46.84l5.13,3.33,1.12,7.01c.05.32.26.6.55.74.29.14.64.13.92-.03l2.14-1.19,1.79.88,2.34,5.47c.15.35.48.58.85.6.02,0,.04,0,.06,0,.35,0,.68-.19.86-.49l5.34-9.04c.08-.14.13-.29.14-.45l.23-3.76,3.63-2.45c.23-.16.39-.4.43-.67l1.22-7.8,2.77-2.31c.17-.14.28-.32.33-.53l.96-3.95,2.62-2.74c.26-.27.34-.66.22-1.01l-.83-2.42h10.07c.55,0,1-.45,1-1s-.45-1-1-1Zm-17.11-3.99l3.54,1.29.77,2.7h-12.19l.47-1.83,3.24-2.03c.25-.16.41-.41.46-.7l.61-4.01,2.6,4.16c.12.19.3.33.51.41Zm-25.33,1.29l3.54-1.29c.21-.08.39-.22.51-.41l3.42-5.48,1.23,1-.34,2.42c-.03.21,0,.42.1.6l1.06,2.04c.18.34.53.54.89.54.16,0,.31-.04.46-.11.49-.25.68-.86.42-1.35l-.92-1.76.34-2.43,3.71-6.43,3.79,6.57c.15.25.4.43.69.48.29.05.59-.02.81-.21l.53-.43-.55,3.64-3.19,2c-.22.14-.37.35-.44.6l-.7,2.71h-16.15l.77-2.7Zm12.39,34.63l-2.6-1.28c-.29-.14-.64-.14-.93.02l-1.35.75-.97-6.04c-.04-.28-.21-.53-.44-.68l-5.04-3.28v-7.45c0-.27-.11-.52-.29-.71l-4.1-4.1v-5.39l1.3-1.79h7.23l2.42,6.33v6.37c0,.29.13.57.35.76l4.59,3.95,1.27,6.36-.26,8.33-.71-1.66c-.09-.22-.26-.4-.48-.5Zm16.33-24.94c-.12.13-.21.28-.25.46l-.94,3.89-2.81,2.34c-.19.16-.31.37-.35.61l-1.21,7.74-3.68,2.48c-.26.17-.42.46-.44.77l-.24,4.01-3.24,5.48.28-9.06c0-.08,0-.15-.02-.23l-1.36-6.81c-.04-.22-.16-.42-.33-.56l-4.5-3.87v-6.09c0-.12-.02-.24-.07-.36l-2.22-5.79h22.91l.85,2.49-2.39,2.5Z"/></svg>