<?xml version="1.0" encoding="UTF-8"?><svg id="Line" xmlns="http://www.w3.org/2000/svg" viewBox="0 0 64 64"><path d="m11.18,48.89c-.5-.1-1.06-.3-1.59-.69-.3-.22-.57-.49-.8-.8-.38-.5-1.22-.5-1.6,0-.23.31-.5.58-.8.8-.85.64-1.79.79-2.43.8-.55.01-.99.47-.98,1.02.01.54.46.98,1,.98h.02c.93-.02,2.3-.25,3.57-1.2.14-.1.27-.21.4-.33.13.12.26.22.4.33,1.27.95,2.65,1.18,3.62,1.2.93-.02,2.3-.25,3.57-1.2.14-.1.27-.21.4-.33.13.12.26.22.4.33,1.27.95,2.65,1.18,3.62,1.2.93-.02,2.3-.25,3.57-1.2.14-.1.27-.21.4-.33.13.12.26.22.4.33,1.27.95,2.65,1.18,3.62,1.2.93-.02,2.3-.25,3.57-1.2.14-.1.27-.21.4-.33.13.12.26.22.4.33,1.27.95,2.65,1.18,3.62,1.2.93-.02,2.3-.25,3.57-1.2.14-.1.27-.21.4-.33.13.12.26.23.4.33,1.27.95,2.65,1.18,3.62,1.2.93-.02,2.3-.25,3.57-1.2.14-.1.27-.21.4-.33.13.12.26.23.4.33,1.27.95,2.65,1.18,3.62,1.2.93-.02,2.3-.25,3.57-1.2.14-.1.27-.21.4-.33.13.12.26.23.4.33,1.27.95,2.65,1.18,3.57,1.2.54,0,1.01-.42,1.02-.98.01-.55-.42-1.01-.98-1.02-.64-.01-1.57-.17-2.43-.8-.3-.22-.57-.49-.8-.8-.38-.5-1.22-.5-1.6,0-.23.31-.5.58-.8.8-.53.4-1.09.59-1.58.7-1.08-3.17-2.88-6.08-5.26-8.45-1.9-1.9-4.09-3.39-6.47-4.47.13-2.97.61-5.9,1.48-8.7.95-3.08,2.37-6.01,4.17-8.75l7.67,7.62c.19.19.44.29.71.29.08,0,.17-.01.25-.03.34-.09.61-.35.71-.7.25-.89.58-2.69-.02-4.79-.39-1.38-1.14-2.63-2.12-3.67l5.12.4s.05,0,.08,0c.33,0,.63-.16.82-.43.2-.29.24-.67.09-.99-.39-.84-1.3-2.43-3.12-3.64-1.3-.86-2.82-1.37-4.37-1.47-1.58-.15-3.16.12-4.58.78-.38.18-.71.37-1.03.58.01-.38.01-.77-.03-1.19-.15-1.55-.72-3.05-1.63-4.32-.89-1.31-2.1-2.37-3.5-3.05-1.96-.95-3.79-.93-4.71-.84-.35.04-.66.25-.81.58s-.12.7.09.99l2.94,4.22c-1.41-.32-2.86-.32-4.24.03-2.11.55-3.49,1.75-4.13,2.41-.25.26-.34.62-.24.96.1.34.37.61.71.7l10.35,2.72c-2.05,2.28-3.82,4.79-5.24,7.5-1.76,3.39-2.96,7.04-3.6,10.84-.3-.01-.6-.04-.9-.04-.93,0-1.85.08-2.76.19-.37-1.26-.79-2.52-1.31-3.75-.38-.91-.81-1.84-1.3-2.78-.62-1.19-1.3-2.33-2.02-3.4-.98-1.46-2.05-2.84-3.19-4.11l10.33-2.72c.34-.09.61-.35.71-.7.1-.34,0-.71-.24-.96-.64-.67-2.03-1.86-4.14-2.42-1.39-.36-2.85-.35-4.24-.03l2.94-4.22c.2-.29.24-.67.09-.99-.15-.32-.46-.54-.81-.58-.92-.09-2.75-.1-4.71.84-1.4.68-2.61,1.74-3.48,3.03-.92,1.29-1.5,2.79-1.65,4.34-.04.41-.04.81-.03,1.18-.32-.2-.66-.4-1.04-.58-1.42-.65-3-.92-4.55-.78-1.58.1-3.1.61-4.4,1.47-1.81,1.21-2.73,2.8-3.11,3.64-.15.32-.11.7.09.99.19.27.5.43.82.43.03,0,.05,0,.08,0l5.13-.4c-.99,1.05-1.73,2.3-2.12,3.67-.59,2.09-.26,3.9-.01,4.79.1.34.37.61.71.7.08.02.17.03.25.03.26,0,.52-.1.7-.29l7.69-7.64c.91,1.38,1.72,2.81,2.41,4.27.69,1.46,1.28,2.97,1.75,4.49.23.73.42,1.45.57,2.12,0,.04.02.08.04.12.2.86.36,1.71.5,2.59-1.9,1.01-3.67,2.31-5.23,3.88-2.38,2.38-4.18,5.29-5.26,8.45Zm41.09-30.51c.89.86,1.53,1.92,1.87,3.08.19.67.26,1.29.26,1.85l-6.58-6.54,2.48.19c.72.35,1.39.82,1.98,1.42Zm-3.45-4.67c1.09-.51,2.32-.72,3.58-.6,1.23.08,2.41.47,3.42,1.14.58.38,1.03.82,1.39,1.24l-6.38-.49c-.37-.16-.75-.3-1.15-.41-.66-.18-1.28-.27-1.86-.3.3-.21.62-.4.99-.58Zm-7.91-7.99c1.08.53,2.02,1.35,2.73,2.39.72,1,1.16,2.17,1.28,3.37.04.41.03.79,0,1.15-.32-.48-.71-.98-1.2-1.45-.29-.28-.61-.54-.94-.78l-3.66-5.25c.55.1,1.15.27,1.77.57Zm-5.36,5.11c1.17-.3,2.42-.29,3.63.05.79.2,1.53.54,2.2.98l1.42,2.04-8.97-2.36c.48-.28,1.05-.54,1.72-.71Zm9.02,5.6l.69.63c-.79,1.17-1.48,2.39-2.13,3.63-.39-.3-.81-.56-1.26-.77-.26-.12-.52-.21-.79-.29.87-1.18,1.81-2.3,2.83-3.37l.65.17Zm-4.7,4.98c.41.06.81.16,1.18.33.51.23.89.53,1.19.81-.61,1.35-1.15,2.72-1.58,4.12-.06.19-.1.38-.15.57-.4-.32-.82-.61-1.29-.86-.53-.28-1.11-.5-1.7-.69.24-.53.49-1.06.76-1.58.49-.93,1.03-1.82,1.6-2.7Zm-3.14,6.14c.54.16,1.06.35,1.53.6.8.44,1.35.94,1.67,1.28-.42,1.89-.68,3.81-.8,5.76-1.37-.47-2.78-.8-4.23-.99.4-2.29,1.01-4.51,1.84-6.65Zm-12.75-12.22c.62-.17,1.26-.26,1.9-.26.58,0,1.15.07,1.7.21.67.17,1.25.43,1.73.71l-8.97,2.36,1.42-2.04c.67-.44,1.41-.78,2.22-.99Zm-5.77.61c.12-1.2.56-2.37,1.3-3.39.69-1.02,1.63-1.84,2.71-2.37.62-.3,1.23-.48,1.78-.57l-3.66,5.25c-.33.24-.64.5-.94.78-.49.47-.88.97-1.2,1.45-.03-.36-.03-.74,0-1.15Zm-10.89,2.77c1-.67,2.19-1.06,3.45-1.14.22-.02.44-.03.65-.03,1.01,0,2,.21,2.9.63.37.17.69.37.99.58-.58.03-1.2.12-1.86.3-.39.11-.77.25-1.14.41l-6.38.49c.36-.42.82-.85,1.39-1.24Zm1.69,7.21c.33-1.16.98-2.23,1.89-3.1.57-.58,1.24-1.05,1.96-1.4l2.48-.19-6.58,6.54c0-.55.07-1.18.26-1.85Zm9.57-5.03l.65-.17c1,1.04,1.96,2.16,2.84,3.36-.27.08-.54.18-.8.3-.45.21-.87.46-1.26.77-.64-1.23-1.34-2.45-2.12-3.63l.7-.63Zm2.34,6.12c.3-.28.68-.58,1.18-.81.37-.17.78-.27,1.18-.33.56.87,1.1,1.77,1.59,2.7.27.53.53,1.06.77,1.58-.59.19-1.17.41-1.71.7-.5.27-.92.56-1.27.84-.05-.19-.11-.38-.17-.57-.43-1.39-.97-2.77-1.58-4.12Zm2.3,6.88c.33-.35.86-.85,1.66-1.28.47-.25.99-.44,1.52-.6.32.83.61,1.67.86,2.51-1.27.28-2.5.65-3.69,1.14-.1-.59-.22-1.18-.35-1.77Zm8.79,2.1c2.66,0,5.23.52,7.62,1.5.02,0,.04.01.06.02,2.39.99,4.58,2.45,6.47,4.34,1.96,1.96,3.49,4.31,4.49,6.88-.34-.12-.69-.28-1.03-.54-.3-.22-.57-.49-.8-.8-.38-.5-1.22-.5-1.6,0-.23.31-.5.58-.8.8-.85.64-1.79.79-2.38.8-.64-.01-1.57-.17-2.43-.8-.3-.22-.57-.49-.8-.8-.38-.5-1.22-.5-1.6,0-.23.31-.5.58-.8.8-.85.64-1.79.79-2.38.8-.64-.01-1.57-.17-2.43-.8-.3-.22-.57-.49-.8-.8-.38-.5-1.22-.5-1.6,0-.23.31-.5.58-.8.8-.85.64-1.79.79-2.38.8-.64-.01-1.57-.17-2.43-.8-.3-.22-.57-.49-.8-.8-.38-.5-1.22-.5-1.6,0-.23.31-.5.58-.8.8-.85.64-1.79.79-2.38.8-.64-.01-1.57-.17-2.43-.8-.3-.22-.57-.49-.8-.8-.38-.5-1.22-.5-1.6,0-.23.31-.5.58-.8.8-.34.25-.69.42-1.03.54,1-2.56,2.53-4.92,4.49-6.88,3.78-3.78,8.8-5.86,14.14-5.86Zm29,22.02c-.01.55-.48.94-1.02.98-.93-.02-2.3-.25-3.57-1.2-.14-.1-.27-.21-.4-.33-.13.12-.26.23-.4.33-1.27.95-2.65,1.18-3.57,1.2-.97-.02-2.35-.25-3.62-1.2-.14-.1-.27-.21-.4-.33-.13.12-.26.23-.4.33-1.27.95-2.65,1.18-3.57,1.2-.97-.02-2.35-.25-3.62-1.2-.14-.1-.27-.21-.4-.33-.13.12-.26.23-.4.33-1.27.95-2.65,1.18-3.57,1.2-.97-.02-2.35-.25-3.62-1.2-.14-.1-.27-.21-.4-.33-.13.12-.26.22-.4.33-1.27.95-2.65,1.18-3.57,1.2-.97-.02-2.35-.25-3.62-1.2-.14-.1-.27-.21-.4-.33-.13.12-.26.22-.4.33-1.27.95-2.65,1.18-3.57,1.2-.97-.02-2.35-.25-3.62-1.2-.14-.1-.27-.21-.4-.33-.13.12-.26.22-.4.33-1.27.95-2.65,1.18-3.57,1.2-.97-.02-2.35-.25-3.62-1.2-.14-.1-.27-.21-.4-.33-.13.12-.26.22-.4.33-1.27.95-2.65,1.18-3.57,1.2h-.02c-.54,0-.99-.43-1-.98-.01-.55.42-1.01.98-1.02.64-.01,1.57-.17,2.43-.8.3-.22.57-.49.8-.8.38-.5,1.22-.5,1.6,0,.23.31.5.58.8.8.85.64,1.79.79,2.43.8.59-.01,1.53-.17,2.38-.8.3-.22.57-.49.8-.8.38-.5,1.22-.5,1.6,0,.23.31.5.58.8.8.85.64,1.79.79,2.43.8.59-.01,1.53-.17,2.38-.8.3-.22.57-.49.8-.8.38-.5,1.22-.5,1.6,0,.23.31.5.58.8.8.85.64,1.79.79,2.43.8.59-.01,1.53-.17,2.38-.8.3-.22.57-.49.8-.8.38-.5,1.22-.5,1.6,0,.23.31.5.58.8.8.85.64,1.79.79,2.43.8.59-.01,1.53-.17,2.38-.8.3-.22.57-.49.8-.8.38-.5,1.22-.5,1.6,0,.23.31.5.58.8.8.85.64,1.79.79,2.43.8.59-.01,1.53-.17,2.38-.8.3-.22.57-.49.8-.8.38-.5,1.22-.5,1.6,0,.23.31.5.58.8.8.85.64,1.79.79,2.43.8.59-.01,1.53-.17,2.38-.8.3-.22.57-.49.8-.8.38-.5,1.22-.5,1.6,0,.23.31.5.58.8.8.85.64,1.79.79,2.43.8.55.01.99.47.98,1.02Z"/></svg>