<?xml version="1.0" encoding="UTF-8"?><svg id="Line" xmlns="http://www.w3.org/2000/svg" viewBox="0 0 64 64"><path d="m32,43.47c.13.12.26.22.4.33,1.36,1.01,2.83,1.18,3.61,1.2.75-.01,2.22-.19,3.58-1.2.14-.1.27-.21.4-.33.13.12.26.22.4.33,1.36,1.01,2.83,1.18,3.61,1.2.75-.01,2.22-.19,3.58-1.2.14-.1.27-.21.4-.33.13.12.26.22.4.33,1.36,1.01,2.83,1.18,3.61,1.2.75-.01,2.22-.19,3.58-1.2.14-.1.27-.21.4-.33.13.12.26.22.4.33,1.36,1.01,2.83,1.18,3.58,1.2h.02c.54,0,.99-.44,1-.98,0-.55-.43-1.01-.98-1.02-.51,0-1.51-.12-2.42-.8-.38-.29-.64-.59-.8-.8-.38-.51-1.23-.51-1.6,0-.15.21-.42.51-.79.79-.91.68-1.91.79-2.39.8-.51,0-1.51-.12-2.42-.8-.38-.29-.64-.59-.8-.8-.38-.51-1.23-.51-1.6,0-.15.21-.42.51-.79.79-.91.68-1.91.79-2.39.8-.51,0-1.51-.12-2.42-.8-.38-.29-.64-.59-.8-.8-.38-.51-1.23-.51-1.6,0-.15.21-.42.51-.79.79-.91.68-1.91.79-2.39.8-.51,0-1.51-.12-2.42-.8-.38-.29-.64-.59-.8-.8-.38-.51-1.23-.51-1.6,0-.15.21-.42.51-.79.79-.85.63-1.75.77-2.28.79v-1.64l3.45-4.67c.1-.14.17-.3.19-.47l.93-7.37s0-.09,0-.13c0-.33-.16-.63-.43-.82-.26-.18-6.41-4.39-14.65-4.39H4c-.55,0-1,.45-1,1v27.5s0,0,0,.01c0,0,0,0,0,.01,0,.12.03.24.07.35,0,0,0,.01,0,.02.07.16.19.29.33.39.17.13.37.22.59.22,0,0,0,0,.01,0,0,0,0,0,.01,0,.93-.02,2.3-.25,3.57-1.2.14-.1.27-.21.4-.33.13.12.26.23.4.33,1.27.95,2.65,1.18,3.62,1.2.93-.02,2.3-.25,3.57-1.2.14-.1.27-.21.4-.33.13.12.26.23.4.33,1.27.95,2.65,1.18,3.62,1.2.93-.02,2.3-.25,3.57-1.2.14-.1.27-.21.4-.33.13.12.26.23.4.33,1.27.95,2.65,1.18,3.62,1.2.93-.02,2.3-.25,3.57-1.2.14-.1.27-.21.4-.33.13.12.26.23.4.33,1.27.95,2.65,1.18,3.62,1.2.93-.02,2.3-.25,3.57-1.2.14-.1.27-.21.4-.33.13.12.26.23.4.33,1.27.95,2.65,1.18,3.62,1.2.93-.02,2.3-.25,3.57-1.2.14-.1.27-.21.4-.33.13.12.26.23.4.33,1.27.95,2.65,1.18,3.62,1.2.93-.02,2.3-.25,3.57-1.2.14-.1.27-.21.4-.33.13.12.26.23.4.33,1.27.95,2.65,1.18,3.57,1.2h.02c.54,0,.99-.43,1-.98.01-.55-.42-1.01-.98-1.02-.64-.01-1.57-.17-2.43-.8-.3-.22-.57-.49-.8-.8-.38-.5-1.22-.5-1.6,0-.23.31-.5.58-.8.8-.85.64-1.79.79-2.38.8-.64-.01-1.57-.17-2.43-.8-.3-.22-.57-.49-.8-.8-.38-.5-1.22-.5-1.6,0-.23.31-.5.58-.8.8-.85.64-1.79.79-2.38.8-.64-.01-1.57-.17-2.43-.8-.3-.22-.57-.49-.8-.8-.38-.5-1.22-.5-1.6,0-.23.31-.5.58-.8.8-.85.64-1.79.79-2.38.8-.64-.01-1.57-.17-2.43-.8-.3-.22-.57-.49-.8-.8-.38-.5-1.22-.5-1.6,0-.13.17-.26.32-.41.46l-.2-3.08c-.01-.22-.1-.43-.24-.59l-1.15-1.33c.72-.15,1.58-.45,2.4-1.06.14-.1.27-.21.4-.33Zm-14.38-17.97c5.03,0,9.29,1.75,11.62,2.94l-6.96,2.18-6.33.32-3.62-1.18c-1.22-.39-2.55-.24-3.65.41l-1.3.77h-2.37v-5.45h12.62Zm-.82,23.9c-.38-.5-1.22-.5-1.6,0-.23.31-.5.58-.8.8-.85.64-1.79.79-2.38.8-.41,0-.95-.09-1.51-.31l1.11-6.73c.04-.25-.01-.5-.15-.71l-1.21-1.88,1.97-3.23c.29-.47.14-1.09-.33-1.37-.47-.29-1.09-.14-1.37.33l-2.3,3.77c-.2.33-.2.74.01,1.06l1.34,2.09-.88,5.31c-.41-.41-1.15-.4-1.51.07-.23.31-.5.58-.8.8-.46.35-.95.54-1.4.66v-17.91h2.64c.18,0,.35-.05.51-.14l1.54-.91c.61-.36,1.35-.44,2.02-.23l3.79,1.23c.12.04.24.05.36.05l2.5-.13-2.07,6.27c-.04.13-.06.27-.05.4l.48,5.34c0,.11.04.21.08.31l2.51,5.78c-.53-.1-1.14-.29-1.71-.72-.3-.22-.57-.49-.8-.8Zm8.8.8c-.3-.22-.57-.49-.8-.8-.38-.5-1.22-.5-1.6,0-.23.31-.5.58-.8.8-.33.25-.67.4-1,.52l-2.7-6.23-.45-4.97,2.24-6.81,2-.1c.08,0,.17-.02.25-.04l7.77-2.43-.7,5.57-3.49,4.72c-.13.17-.2.38-.2.59v2.98c0,.24.09.47.24.65l2.25,2.6.23,3.64c-.31.07-.6.11-.83.11-.64-.01-1.57-.17-2.43-.8Zm35.4,9.83c-.01.54-.46.98-1,.98h-.02c-.93-.02-2.3-.25-3.57-1.2-.14-.1-.27-.21-.4-.33-.13.12-.26.23-.4.33-1.27.95-2.65,1.18-3.57,1.2-.97-.02-2.35-.25-3.62-1.2-.14-.1-.27-.21-.4-.33-.13.12-.26.23-.4.33-1.27.95-2.65,1.18-3.57,1.2-.97-.02-2.35-.25-3.62-1.2-.14-.1-.27-.21-.4-.33-.13.12-.26.23-.4.33-1.27.95-2.65,1.18-3.57,1.2-.97-.02-2.35-.25-3.62-1.2-.14-.1-.27-.21-.4-.33-.13.12-.26.23-.4.33-1.27.95-2.65,1.18-3.57,1.2-.97-.02-2.35-.25-3.62-1.2-.14-.1-.27-.21-.4-.33-.13.12-.26.23-.4.33-1.27.95-2.65,1.18-3.57,1.2-.97-.02-2.35-.25-3.62-1.2-.14-.1-.27-.21-.4-.33-.13.12-.26.23-.4.33-1.27.95-2.65,1.18-3.57,1.2-.97-.02-2.35-.25-3.62-1.2-.14-.1-.27-.21-.4-.33-.13.12-.26.23-.4.33-1.27.95-2.65,1.18-3.57,1.2h-.02c-.54,0-.99-.43-1-.98-.01-.55.42-1.01.98-1.02.64-.01,1.57-.17,2.43-.8.3-.22.57-.49.8-.8.38-.5,1.22-.5,1.6,0,.23.31.5.58.8.8.85.64,1.79.79,2.43.8.59-.01,1.53-.17,2.38-.8.3-.22.57-.49.8-.8.38-.5,1.22-.5,1.6,0,.23.31.5.58.8.8.85.64,1.79.79,2.43.8.59-.01,1.53-.17,2.38-.8.3-.22.57-.49.8-.8.38-.5,1.22-.5,1.6,0,.23.31.5.58.8.8.85.64,1.79.79,2.43.8.59-.01,1.53-.17,2.38-.8.3-.22.57-.49.8-.8.38-.5,1.22-.5,1.6,0,.23.31.5.58.8.8.85.64,1.79.79,2.43.8.59-.01,1.53-.17,2.38-.8.3-.22.57-.49.8-.8.38-.5,1.22-.5,1.6,0,.23.31.5.58.8.8.85.64,1.79.79,2.43.8.59-.01,1.53-.17,2.38-.8.3-.22.57-.49.8-.8.38-.5,1.22-.5,1.6,0,.23.31.5.58.8.8.85.64,1.79.79,2.43.8.59-.01,1.53-.17,2.38-.8.3-.22.57-.49.8-.8.38-.5,1.22-.5,1.6,0,.23.31.5.58.8.8.85.64,1.79.79,2.43.8.55.01.99.47.98,1.02Zm-13.86-38.79h9.72c2.28,0,4.14-1.86,4.14-4.14,0-1.84-1.02-3.53-2.6-4.29-.68-.33-1.37-.47-2.08-.42-.45-1.97-2.21-3.44-4.32-3.44s-3.87,1.47-4.32,3.44c-.72-.05-1.41.1-2.08.42-1.58.76-2.6,2.44-2.6,4.29,0,2.28,1.86,4.14,4.14,4.14Zm-.67-6.62c.32-.15.63-.23.96-.23.27,0,.54.05.82.16.32.12.67.06.94-.14.27-.2.42-.52.4-.86,0-.03-.02-.14-.02-.16,0-1.34,1.09-2.43,2.43-2.43s2.43,1.09,2.43,2.41c0,.03-.02.15-.02.18-.02.34.13.66.4.86.27.2.62.25.94.14.63-.23,1.2-.2,1.78.08.89.43,1.47,1.41,1.47,2.49,0,1.18-.96,2.14-2.14,2.14h-9.72c-1.18,0-2.14-.96-2.14-2.14,0-1.08.58-2.05,1.47-2.49Zm-21.54-.46h9.72c2.28,0,4.14-1.86,4.14-4.14,0-1.84-1.02-3.53-2.6-4.29-.68-.33-1.37-.47-2.08-.42-.45-1.97-2.21-3.44-4.32-3.44s-3.87,1.47-4.32,3.44c-.71-.05-1.41.1-2.08.42-1.58.76-2.6,2.44-2.6,4.29,0,2.28,1.86,4.14,4.14,4.14Zm-.67-6.62c.32-.15.64-.23.96-.23.27,0,.54.05.82.16.32.11.67.06.94-.14.27-.2.42-.53.4-.87,0-.03-.02-.12-.02-.15,0-1.34,1.09-2.43,2.43-2.43s2.43,1.09,2.43,2.42c0,.02-.02.13-.02.16-.02.34.13.66.4.87s.62.25.94.14c.64-.23,1.19-.21,1.78.08.89.43,1.47,1.41,1.47,2.49,0,1.18-.96,2.14-2.14,2.14h-9.72c-1.18,0-2.14-.96-2.14-2.14,0-1.08.58-2.05,1.47-2.49Z"/></svg>