<?xml version="1.0" encoding="UTF-8"?><svg id="Filled_Line" xmlns="http://www.w3.org/2000/svg" viewBox="0 0 64 64"><defs><style>.cls-1{fill:#a26955;}.cls-2{fill:#c3967b;}.cls-3{fill:#b8c3d5;}.cls-4{fill:#d3dce5;}.cls-5{fill:#1a2c3d;}.cls-6{fill:#702e24;}.cls-7{fill:#894c3d;}</style></defs><g><polygon class="cls-2" points="54 60 54 22 32 6.09 10 22 10 60 54 60"/><path class="cls-7" d="M56.13,26.6L32,8.5,7.87,26.6l-2.4-3.2L30.8,4.4c.71-.53,1.69-.53,2.4,0l25.33,19-2.4,3.2Z"/><rect class="cls-6" x="19" y="56" width="26" height="4"/><rect class="cls-7" x="21" y="52" width="22" height="4"/><rect class="cls-1" x="26" y="36" width="12" height="16"/><rect class="cls-4" x="43" y="36" width="6" height="8"/><rect class="cls-3" x="26" y="22" width="6" height="6" transform="translate(54 -4) rotate(90)"/><rect class="cls-4" x="32" y="22" width="6" height="6" transform="translate(60 -10) rotate(90)"/><rect class="cls-4" x="15" y="36" width="6" height="8" transform="translate(36 80) rotate(-180)"/></g><g><path class="cls-5" d="M59.13,22.6L33.8,3.6c-1.06-.79-2.54-.79-3.6,0L4.87,22.6c-.21,.16-.35,.4-.39,.66-.04,.26,.03,.53,.19,.74l2.4,3.2c.33,.44,.96,.53,1.4,.2l.53-.4V60c0,.55,.45,1,1,1H54c.55,0,1-.45,1-1V27l.53,.4c.18,.14,.39,.2,.6,.2,.3,0,.6-.14,.8-.4l2.4-3.2c.16-.21,.23-.48,.19-.74-.04-.26-.18-.5-.39-.66ZM20,59v-2h24v2H20Zm17-8h-10v-14h10v14Zm5,2v2H22v-2h20Zm11,6h-7v-3c0-.55-.45-1-1-1h-1v-3c0-.55-.45-1-1-1h-4v-15c0-.55-.45-1-1-1h-12c-.55,0-1,.45-1,1v15h-4c-.55,0-1,.45-1,1v3h-1c-.55,0-1,.45-1,1v3h-7V25.5l21-15.75,21,15.75V59Zm2.93-33.8L32.6,7.7c-.18-.13-.39-.2-.6-.2s-.42,.07-.6,.2L8.07,25.2l-1.2-1.6L31.4,5.2c.35-.27,.85-.27,1.2,0l24.53,18.4-1.2,1.6Z"/><path class="cls-5" d="M43,45h6c.55,0,1-.45,1-1v-8c0-.55-.45-1-1-1h-6c-.55,0-1,.45-1,1v8c0,.55,.45,1,1,1Zm1-8h4v6h-4v-6Z"/><path class="cls-5" d="M26,21c-.55,0-1,.45-1,1v6c0,.55,.45,1,1,1h12c.55,0,1-.45,1-1v-6c0-.55-.45-1-1-1h-12Zm1,2h4v4h-4v-4Zm10,4h-4v-4h4v4Z"/><path class="cls-5" d="M21,35h-6c-.55,0-1,.45-1,1v8c0,.55,.45,1,1,1h6c.55,0,1-.45,1-1v-8c0-.55-.45-1-1-1Zm-1,8h-4v-6h4v6Z"/></g></svg>