<?xml version="1.0" encoding="UTF-8"?><svg id="Filled_Line" xmlns="http://www.w3.org/2000/svg" viewBox="0 0 64 64"><defs><style>.cls-1{fill:#c3967b;}.cls-2{fill:#d3dce5;}.cls-3{fill:#1a2c3d;}.cls-4{fill:#894c3d;}</style></defs><g><polygon class="cls-1" points="54 60 54 22 32 6.09 10 22 10 60 54 60"/><path class="cls-4" d="M56.13,26.6L32,8.5,7.87,26.6l-2.4-3.2L30.8,4.4c.71-.53,1.69-.53,2.4,0l25.33,19-2.4,3.2Z"/><path class="cls-2" d="M28.9,46.35l10.45-10.45c1.96,.5,4.12,0,5.65-1.53,1.41-1.41,1.95-3.35,1.64-5.17-.11-.66-.95-.9-1.43-.42l-2.65,2.65-2.33-.62-.03-.03-.62-2.33,2.65-2.65c.48-.48,.23-1.32-.44-1.43-1.83-.31-3.78,.25-5.19,1.68-1.47,1.49-1.95,3.65-1.47,5.6l-10.49,10.49c-1.95-.48-4.1,0-5.6,1.47-1.43,1.41-1.99,3.35-1.68,5.19,.11,.67,.95,.92,1.43,.44l2.65-2.65,2.33,.62,.03,.03,.62,2.33-2.65,2.65c-.47,.47-.24,1.31,.42,1.43,1.82,.31,3.76-.24,5.17-1.64,1.53-1.53,2.03-3.69,1.53-5.65Z"/></g><g><path class="cls-3" d="M59.13,22.6L33.8,3.6c-1.06-.79-2.54-.79-3.6,0L4.87,22.6c-.21,.16-.35,.4-.39,.66-.04,.26,.03,.53,.19,.74l2.4,3.2c.33,.44,.96,.53,1.4,.2l.53-.4V60c0,.55,.45,1,1,1H54c.55,0,1-.45,1-1V27l.53,.4c.18,.14,.39,.2,.6,.2,.3,0,.6-.14,.8-.4l2.4-3.2c.16-.21,.23-.48,.19-.74-.04-.26-.18-.5-.39-.66Zm-6.13,36.4H11V25.5l21-15.75,21,15.75V59Zm2.93-33.8L32.6,7.7c-.18-.13-.39-.2-.6-.2s-.42,.07-.6,.2L8.07,25.2l-1.2-1.6L31.4,5.2c.35-.26,.85-.26,1.2,0l24.53,18.4-1.2,1.6Z"/><path class="cls-3" d="M23.19,54.72c-.38,0-.77-.03-1.16-.1-.67-.11-1.21-.59-1.42-1.24-.21-.67-.04-1.39,.45-1.88l2.24-2.24-.33-1.24-1.24-.33-2.24,2.24c-.49,.49-1.21,.67-1.88,.45-.66-.21-1.13-.76-1.24-1.43-.37-2.22,.36-4.49,1.97-6.07,1.54-1.51,3.79-2.2,5.97-1.85l9.73-9.73c-.35-2.19,.33-4.43,1.85-5.97,1.58-1.6,3.85-2.34,6.07-1.97,.67,.11,1.22,.59,1.43,1.24,.21,.67,.04,1.39-.45,1.88l-2.24,2.24,.33,1.24,1.24,.33,2.24-2.24c.49-.49,1.21-.67,1.88-.45,.65,.21,1.12,.75,1.24,1.42,.38,2.21-.34,4.47-1.92,6.05-1.6,1.6-3.82,2.29-6.03,1.91l-9.68,9.68c.38,2.21-.31,4.44-1.91,6.03-1.3,1.3-3.07,2.02-4.89,2.02Zm-.48-2.02c1.46,.14,2.92-.37,3.96-1.41,1.23-1.23,1.7-2.99,1.27-4.7-.09-.34,.01-.71,.26-.96l10.45-10.45c.25-.25,.61-.35,.96-.26,1.71,.44,3.46-.04,4.69-1.27,1.04-1.04,1.56-2.5,1.41-3.96l-2.43,2.43c-.25,.25-.62,.35-.97,.26l-2.33-.62c-.17-.05-.32-.13-.45-.26s-.25-.31-.29-.48l-.62-2.33c-.09-.35,0-.71,.26-.97l2.43-2.43c-1.48-.15-2.95,.38-3.99,1.44-1.16,1.18-1.63,2.97-1.22,4.66,.08,.34-.02,.7-.26,.95l-10.49,10.49c-.25,.25-.61,.34-.94,.26-1.69-.42-3.47,.05-4.66,1.21-1.06,1.04-1.59,2.52-1.44,3.99l2.43-2.43c.25-.25,.62-.35,.97-.26l2.33,.62c.17,.05,.33,.14,.45,.26,.12,.12,.24,.31,.29,.48l.62,2.33c.09,.34,0,.71-.26,.97l-2.43,2.43Z"/></g></svg>