<?xml version="1.0" encoding="UTF-8"?><svg id="Filled_Line" xmlns="http://www.w3.org/2000/svg" viewBox="0 0 64 64"><defs><style>.cls-1{fill:#a26955;}.cls-2{fill:#c3967b;}.cls-3{fill:#b8c3d5;}.cls-4{fill:#9dabc4;}.cls-5{fill:#1a2c3d;}.cls-6{fill:#335068;}</style></defs><g><rect class="cls-3" x="4" y="11" width="56" height="4"/><rect class="cls-6" x="46" y="56" width="10" height="4"/><rect class="cls-6" x="46" y="8" width="10" height="10" rx="1" ry="1"/><path class="cls-4" d="M9,15h8v3c0,.55-.45,1-1,1h-6c-.55,0-1-.45-1-1v-3h0Z"/><rect class="cls-2" x="9" y="25" width="8" height="6"/><polygon class="cls-2" points="11 43.65 11 60 35 60 35 45 27 45 27 38.55 23 36 11 43.65"/><rect class="cls-1" x="20" y="52" width="6" height="8"/></g><g><path class="cls-5" d="M60,10h-3v-1c0-1.1-.9-2-2-2v-3c0-.55-.45-1-1-1h-6c-.55,0-1,.45-1,1v3c-1.1,0-2,.9-2,2v1H4c-.55,0-1,.45-1,1v4c0,.55,.45,1,1,1h4v2c0,1.1,.9,2,2,2h2v4h-3c-.55,0-1,.45-1,1v6c0,.55,.45,1,1,1h8c.55,0,1-.45,1-1v-6c0-.55-.45-1-1-1h-3v-4h2c1.1,0,2-.9,2-2v-2h27v1c0,1.1,.9,2,2,2V55h-1c-.55,0-1,.45-1,1v4c0,.55,.45,1,1,1h10c.55,0,1-.45,1-1v-4c0-.55-.45-1-1-1h-1V19c1.1,0,2-.9,2-2v-1h3c.55,0,1-.45,1-1v-4c0-.55-.45-1-1-1ZM16,30h-6v-4h6v4Zm0-12h-6v-2h6v2ZM5,14v-2H45v2H5ZM49,5h4v2h-4v-2Zm4,42.86l-2.84-2.36,2.84-2.36v4.73Zm-4-9.73l3.44,2.86-3.44,2.86v-5.73Zm0-9l3.44,2.86-3.44,2.86v-5.73Zm0,18l3.44,2.86-3.44,2.86v-5.73Zm4-8.27l-2.84-2.36,2.84-2.36v4.73Zm0-9l-2.84-2.36,2.84-2.36v4.73Zm-4-4v-5.73l3.44,2.86-3.44,2.86Zm6,33.14h-8v-2h8v2Zm-5.44-4l3.44-2.86v2.86h-3.44Zm3.44-34.14l-2.24-1.86h2.24v1.86Zm2-3.86h-8V9h8v8Zm4-3h-2v-2h2v2Z"/><path class="cls-5" d="M37,59h-1v-14c0-.55-.45-1-1-1h-2v-15c0-.55-.45-1-1-1s-1,.45-1,1v1h-3v-1c0-.55-.45-1-1-1s-1,.45-1,1v1h-2c-.55,0-1,.45-1,1s.45,1,1,1h2v4.73l-2.46-1.57c-.33-.21-.75-.21-1.08,0l-12,7.65c-.29,.18-.46,.5-.46,.84v15.35h-1c-.55,0-1,.45-1,1s.45,1,1,1h28c.55,0,1-.45,1-1s-.45-1-1-1Zm-6-27v12h-3v-12h3Zm-10,27v-6h4v6h-4Zm6,0v-7c0-.55-.45-1-1-1h-6c-.55,0-1,.45-1,1v7h-7v-14.8l11-7.01,3,1.91v5.9c0,.55,.45,1,1,1h7v13h-7Z"/></g></svg>