<?xml version="1.0" encoding="UTF-8"?><svg id="Filled_Line" xmlns="http://www.w3.org/2000/svg" viewBox="0 0 64 64"><defs><style>.cls-1{fill:#ecaf64;}.cls-2{fill:#c3967b;}.cls-3{fill:#d88852;}.cls-4{fill:#d3dce5;}.cls-5{fill:#1a2c3d;}.cls-6{fill:#702e24;}.cls-7{fill:#536882;}.cls-8{fill:#894c3d;}.cls-9{fill:#335068;}</style></defs><g><polygon class="cls-2" points="54 60 54 22 32 6.09 10 22 10 60 54 60"/><path class="cls-8" d="M56.13,26.6L32,8.5,7.87,26.6l-2.4-3.2L30.8,4.4c.71-.53,1.69-.53,2.4,0l25.33,19-2.4,3.2Z"/><rect class="cls-4" x="16" y="36" width="32" height="24"/><g><path class="cls-7" d="M38.2,56h0c1.21,0,2.2,.99,2.2,2.2v1.8h-4.4v-1.8c0-1.21,.99-2.2,2.2-2.2Z" transform="translate(76.4 116) rotate(-180)"/><path class="cls-7" d="M23.6,56h4.4v1.8c0,1.21-.99,2.2-2.2,2.2h0c-1.21,0-2.2-.99-2.2-2.2v-1.8h0Z"/><path class="cls-3" d="M40.77,48.69l-.8-6.07c-.07-.5-.49-.87-.99-.87h-13.96c-.5,0-.93,.37-.99,.87l-.8,6.07-1.6,2.4c-.15,.23-.23,.49-.23,.76v3.24c0,.5,.41,.91,.91,.91h19.37c.5,0,.91-.41,.91-.91v-3.24c0-.27-.08-.54-.23-.76l-1.6-2.4Z"/><path class="cls-1" d="M40.77,48.69H23.23l.8-6.07c.07-.5,.49-.87,.99-.87h13.96c.5,0,.93,.37,.99,.87l.8,6.07Z"/></g><rect class="cls-9" x="16" y="32" width="32" height="4"/><rect class="cls-7" x="16" y="28" width="32" height="4"/><rect class="cls-6" x="29" y="17" width="6" height="6" rx="3" ry="3" transform="translate(52 -12) rotate(90)"/></g><g><path class="cls-5" d="M59.13,22.6L33.8,3.6c-1.06-.79-2.54-.79-3.6,0L4.87,22.6c-.21,.16-.35,.4-.39,.66-.04,.26,.03,.53,.19,.74l2.4,3.2c.33,.44,.96,.53,1.4,.2l.53-.4V60c0,.55,.45,1,1,1H54c.55,0,1-.45,1-1V27l.53,.4c.18,.14,.39,.2,.6,.2,.3,0,.6-.14,.8-.4l2.4-3.2c.16-.21,.23-.48,.19-.74-.04-.26-.18-.5-.39-.66Zm-42.13,10.4h30v2H17v-2Zm30-2H17v-2h30v2Zm-30,6h30v22h-5.78c.11-.31,.18-.65,.18-1v-1h.29c1.06,0,1.91-.86,1.91-1.91v-3.24c0-.47-.14-.92-.4-1.32l-1.47-2.2-.77-5.84c-.13-.99-.98-1.74-1.98-1.74h-13.96c-1,0-1.85,.75-1.98,1.74l-.77,5.84-1.47,2.21c-.26,.39-.4,.84-.4,1.31v3.24c0,1.06,.86,1.91,1.91,1.91h.29v1c0,.35,.07,.69,.18,1h-5.78v-22Zm7.6,21v-1h2v1c0,.55-.45,1-1,1s-1-.45-1-1Zm-2.2-6.16c0-.07,.02-.15,.06-.21l1.3-1.95h16.47l1.3,1.95c.04,.06,.06,.13,.06,.21v3.16H22.4v-3.16Zm1.97-4.16l.65-4.94h13.96l.65,4.94h-15.26Zm15.03,10.31c0,.55-.45,1-1,1s-1-.45-1-1v-1h2v1Zm-10.8,0v-1h6.8v1c0,.35,.07,.69,.18,1h-7.17c.11-.31,.18-.65,.18-1Zm24.4,1h-4V28c0-.55-.45-1-1-1H16c-.55,0-1,.45-1,1v31h-4V25.5l21-15.75,21,15.75V59Zm2.93-33.8L32.6,7.7c-.18-.13-.39-.2-.6-.2s-.42,.07-.6,.2L8.07,25.2l-1.2-1.6L31.4,5.2c.35-.26,.85-.26,1.2,0l24.53,18.4-1.2,1.6Z"/><path class="cls-5" d="M29.71,53h4.57c.55,0,1-.45,1-1s-.45-1-1-1h-4.57c-.55,0-1,.45-1,1s.45,1,1,1Z"/><path class="cls-5" d="M28,20c0,2.21,1.79,4,4,4s4-1.79,4-4-1.79-4-4-4-4,1.79-4,4Zm6,0c0,1.1-.9,2-2,2s-2-.9-2-2,.9-2,2-2,2,.9,2,2Z"/></g></svg>