<?xml version="1.0" encoding="UTF-8"?><svg id="Filled_Line" xmlns="http://www.w3.org/2000/svg" viewBox="0 0 64 64"><defs><style>.cls-1{fill:#d85363;}.cls-2{fill:#1a2c3d;}</style></defs><g><rect class="cls-1" x="4" y="28" width="56" height="24" rx="2" ry="2"/><circle class="cls-1" cx="32" cy="15" r="3"/></g><g><path class="cls-2" d="M58,27h-6.2l-16.04-10.69c.14-.41,.24-.85,.24-1.31,0-2.21-1.79-4-4-4s-4,1.79-4,4c0,.46,.09,.9,.24,1.31L12.2,27H6c-1.65,0-3,1.35-3,3v20c0,1.65,1.35,3,3,3H58c1.65,0,3-1.35,3-3V30c0-1.65-1.35-3-3-3Zm-26-14c1.1,0,2,.9,2,2s-.9,2-2,2-2-.9-2-2,.9-2,2-2Zm-2.65,4.97c.71,.63,1.63,1.03,2.65,1.03s1.94-.4,2.65-1.03l13.55,9.03H15.8l13.55-9.03Zm29.65,32.03c0,.55-.45,1-1,1H6c-.55,0-1-.45-1-1V30c0-.55,.45-1,1-1H58c.55,0,1,.45,1,1v20Z"/><path class="cls-2" d="M26.95,32.79h-2.9c-2.21,0-4,1.79-4,4v6.41c0,2.21,1.79,4,4,4h2.9c2.21,0,4-1.79,4-4v-6.41c0-2.21-1.79-4-4-4Zm2,10.41c0,1.1-.9,2-2,2h-2.9c-1.1,0-2-.9-2-2v-6.41c0-1.1,.9-2,2-2h2.9c1.1,0,2,.9,2,2v6.41Z"/><path class="cls-2" d="M13.95,32.79h-1.9c-1.1,0-2.16,.46-2.91,1.26-.7,.75-1.09,1.72-1.09,2.74,0,1.56,.99,2.94,2.48,3.44l4.31,1.44c.66,.22,1.11,.84,1.11,1.54,0,.65-.3,1.1-.54,1.36-.38,.41-.92,.64-1.46,.64h-1.9c-1.1,0-2-.9-2-2v-.32c0-.55-.45-1-1-1s-1,.45-1,1v.32c0,2.21,1.79,4,4,4h1.9c1.09,0,2.16-.46,2.92-1.27,.69-.75,1.08-1.72,1.08-2.73,0-1.56-.99-2.94-2.48-3.44l-4.31-1.44c-.66-.22-1.11-.84-1.11-1.54,0-.51,.19-.98,.55-1.37,.37-.4,.9-.63,1.45-.63h1.9c1.1,0,2,.9,2,2v.31c0,.55,.45,1,1,1s1-.45,1-1v-.31c0-2.21-1.79-4-4-4Z"/><path class="cls-2" d="M48.74,32.79h-2.69c-.55,0-1,.45-1,1v12.41c0,.55,.45,1,1,1h2.69c3.97,0,7.21-3.23,7.21-7.21s-3.23-7.21-7.21-7.21Zm0,12.41h-1.69v-10.41h1.69c2.87,0,5.21,2.34,5.21,5.21s-2.34,5.21-5.21,5.21Z"/><path class="cls-2" d="M41.46,45.21h-5.9v-11.41c0-.55-.45-1-1-1s-1,.45-1,1v12.41c0,.55,.45,1,1,1h6.9c.55,0,1-.45,1-1s-.45-1-1-1Z"/></g></svg>