<?xml version="1.0" encoding="UTF-8"?><svg id="Filled_Line" xmlns="http://www.w3.org/2000/svg" viewBox="0 0 64 64"><defs><style>.cls-1{fill:#a26955;}.cls-2{fill:#c3967b;}.cls-3{fill:#b8c3d5;}.cls-4{fill:#9dabc4;}.cls-5{fill:#1a2c3d;}.cls-6{fill:#536882;}.cls-7{fill:#894c3d;}</style></defs><g><g><polygon class="cls-2" points="47 31.58 47 14.41 37 6.21 27 14.41 27 31.58 47 31.58"/><rect class="cls-1" x="34" y="19.58" width="6" height="12"/><path class="cls-7" d="M51.01,14.01l-2.4,3.2-11.61-8.71-11.61,8.71-2.4-3.2,12.81-9.61c.71-.53,1.69-.53,2.4,0l12.81,9.61Z"/></g><path class="cls-4" d="M16.25,44.63l-3.06-30.63H6c-1.1,0-2-.9-2-2h0c0-1.1,.9-2,2-2H15c1.03,0,1.89,.78,1.99,1.8l2.88,32.07-3.61,.76Z"/><circle class="cls-6" cx="25" cy="57" r="3"/><circle class="cls-6" cx="50" cy="57" r="3"/><path class="cls-3" d="M19.21,54c-3.05,0-5.77-2.19-6.16-5.21-.47-3.66,2.38-6.79,5.95-6.79H52.63l3.4-20.55c.18-1.09,1.21-1.83,2.3-1.65h0c1.09,.18,1.83,1.21,1.65,2.3l-3.67,22.23c-.16,.97-.99,1.67-1.97,1.67H19c-1.1,0-2,.9-2,2h0c0,1.1,.9,2,2,2H56c1.1,0,2,.9,2,2h0c0,1.1-.9,2-2,2H19.21Z"/></g><g><path class="cls-5" d="M24.59,17.81c.16,.21,.4,.35,.66,.39,.27,.04,.53-.03,.74-.19h0s0,13.57,0,13.57c0,.55,.45,1,1,1h20c.55,0,1-.45,1-1v-13.58h.01c.17,.14,.39,.21,.6,.21,.05,0,.09,0,.14,0,.26-.04,.5-.18,.66-.39l2.4-3.2c.33-.44,.24-1.07-.2-1.4L38.8,3.6c-1.06-.79-2.54-.8-3.6,0l-12.81,9.61c-.44,.33-.53,.96-.2,1.4l2.4,3.2Zm10.41,12.77v-10h4v10h-4Zm11,0h-5v-11c0-.55-.45-1-1-1h-6c-.55,0-1,.45-1,1v11h-5v-14.08l9-6.75,9,6.75v14.08ZM36.4,5.2c.35-.27,.85-.27,1.2,0l12.01,9.01-1.2,1.6-10.81-8.11c-.18-.13-.39-.2-.6-.2s-.42,.07-.6,.2l-10.81,8.11-1.2-1.6,12.01-9.01Z"/><path class="cls-5" d="M19,47H54.33c1.47,0,2.72-1.06,2.96-2.51l3.67-22.23c.13-.79-.05-1.58-.52-2.24-.47-.65-1.16-1.08-1.95-1.21-1.63-.27-3.18,.84-3.45,2.47l-3.26,19.72H20.61l-2.63-29.3c-.15-1.54-1.44-2.7-2.99-2.7H6c-.81,0-1.57,.32-2.11,.87-.58,.56-.89,1.32-.89,2.13,0,1.65,1.35,3,3,3h6.29l2.72,27.27c-.46,.32-.88,.69-1.26,1.12-1.33,1.51-1.94,3.53-1.69,5.54,.45,3.47,3.52,6.08,7.15,6.08h2.35c-.34,.59-.56,1.27-.56,2,0,2.21,1.79,4,4,4s4-1.79,4-4c0-.73-.21-1.41-.56-2h18.11c-.34,.59-.56,1.27-.56,2,0,2.21,1.79,4,4,4s4-1.79,4-4c0-.73-.21-1.41-.56-2h2.56c1.65,0,3-1.35,3-3s-1.35-3-3-3H19c-.55,0-1-.45-1-1s.45-1,1-1ZM14.19,13.9c-.05-.51-.48-.9-1-.9H6c-.55,0-1-.45-1-1,0-.27,.1-.51,.31-.71,.18-.18,.43-.29,.69-.29H15c.52,0,.94,.39,.99,.89l2.61,29.13c-.58,.03-1.14,.13-1.69,.3l-2.73-27.42Zm12.81,43.1c0,1.1-.9,2-2,2s-2-.9-2-2,.9-2,2-2,2,.9,2,2Zm25,0c0,1.1-.9,2-2,2s-2-.9-2-2,.9-2,2-2,2,.9,2,2Zm-33-6H56c.55,0,1,.45,1,1s-.45,1-1,1H19.21c-2.63,0-4.85-1.87-5.17-4.34-.19-1.46,.24-2.87,1.2-3.96,.95-1.08,2.32-1.7,3.75-1.7H52.63c.49,0,.91-.35,.99-.84l3.4-20.55c.09-.54,.6-.91,1.15-.82,.26,.04,.5,.19,.65,.4,.16,.22,.22,.48,.17,.75l-3.67,22.23c-.08,.49-.5,.84-.99,.84H19c-1.65,0-3,1.35-3,3s1.35,3,3,3Z"/></g></svg>