<?xml version="1.0" encoding="UTF-8"?><svg id="Filled_Line" xmlns="http://www.w3.org/2000/svg" viewBox="0 0 64 64"><defs><style>.cls-1{fill:#b8c3d5;}.cls-2{fill:#9dabc4;}.cls-3{fill:#6581c6;}.cls-4{fill:#d3dce5;}.cls-5{fill:#1a2c3d;}.cls-6{fill:#5064aa;}</style></defs><g><rect class="cls-3" x="4" y="4" width="40" height="56"/><rect class="cls-1" x="14" y="46" width="10" height="14"/><rect class="cls-2" x="12" y="46" width="12" height="4"/><rect class="cls-4" x="24" y="46" width="10" height="14" transform="translate(58 106) rotate(-180)"/><rect class="cls-1" x="24" y="46" width="12" height="4" transform="translate(60 96) rotate(-180)"/><rect class="cls-4" x="9" y="14" width="6" height="6"/><rect class="cls-4" x="9" y="24" width="6" height="6"/><rect class="cls-4" x="21" y="14" width="6" height="6"/><rect class="cls-4" x="21" y="24" width="6" height="6"/><rect class="cls-4" x="33" y="14" width="6" height="6"/><rect class="cls-4" x="33" y="24" width="6" height="6"/><rect class="cls-4" x="9" y="34" width="6" height="6"/><rect class="cls-4" x="21" y="34" width="6" height="6"/><rect class="cls-4" x="33" y="34" width="6" height="6"/><rect class="cls-4" x="4" y="4" width="40" height="4"/><rect class="cls-6" x="44" y="14" width="16" height="46" transform="translate(104 74) rotate(180)"/><rect class="cls-1" x="44" y="14" width="16" height="4" transform="translate(104 32) rotate(180)"/><rect class="cls-4" x="49" y="24" width="6" height="6"/><rect class="cls-4" x="49" y="34" width="6" height="6"/><rect class="cls-4" x="49" y="44" width="6" height="6"/></g><g><path class="cls-5" d="M9,21h6c.55,0,1-.45,1-1v-6c0-.55-.45-1-1-1h-6c-.55,0-1,.45-1,1v6c0,.55,.45,1,1,1Zm1-6h4v4h-4v-4Z"/><path class="cls-5" d="M9,31h6c.55,0,1-.45,1-1v-6c0-.55-.45-1-1-1h-6c-.55,0-1,.45-1,1v6c0,.55,.45,1,1,1Zm1-6h4v4h-4v-4Z"/><path class="cls-5" d="M21,21h6c.55,0,1-.45,1-1v-6c0-.55-.45-1-1-1h-6c-.55,0-1,.45-1,1v6c0,.55,.45,1,1,1Zm1-6h4v4h-4v-4Z"/><path class="cls-5" d="M21,31h6c.55,0,1-.45,1-1v-6c0-.55-.45-1-1-1h-6c-.55,0-1,.45-1,1v6c0,.55,.45,1,1,1Zm1-6h4v4h-4v-4Z"/><path class="cls-5" d="M33,21h6c.55,0,1-.45,1-1v-6c0-.55-.45-1-1-1h-6c-.55,0-1,.45-1,1v6c0,.55,.45,1,1,1Zm1-6h4v4h-4v-4Z"/><path class="cls-5" d="M33,31h6c.55,0,1-.45,1-1v-6c0-.55-.45-1-1-1h-6c-.55,0-1,.45-1,1v6c0,.55,.45,1,1,1Zm1-6h4v4h-4v-4Z"/><path class="cls-5" d="M16,40v-6c0-.55-.45-1-1-1h-6c-.55,0-1,.45-1,1v6c0,.55,.45,1,1,1h6c.55,0,1-.45,1-1Zm-2-1h-4v-4h4v4Z"/><path class="cls-5" d="M21,41h6c.55,0,1-.45,1-1v-6c0-.55-.45-1-1-1h-6c-.55,0-1,.45-1,1v6c0,.55,.45,1,1,1Zm1-6h4v4h-4v-4Z"/><path class="cls-5" d="M33,41h6c.55,0,1-.45,1-1v-6c0-.55-.45-1-1-1h-6c-.55,0-1,.45-1,1v6c0,.55,.45,1,1,1Zm1-6h4v4h-4v-4Z"/><path class="cls-5" d="M60,13h-15V4c0-.55-.45-1-1-1H4c-.55,0-1,.45-1,1V60c0,.55,.45,1,1,1H60c.55,0,1-.45,1-1V14c0-.55-.45-1-1-1Zm-1,2v2h-14v-2h14ZM5,5H43v2H5v-2Zm0,4H43V59h-8v-8h1c.55,0,1-.45,1-1v-4c0-.55-.45-1-1-1H12c-.55,0-1,.45-1,1v4c0,.55,.45,1,1,1h1v8H5V9ZM25,47h10v2h-10v-2Zm-2,2H13v-2h10v2Zm-8,2h8v8H15v-8Zm10,0h8v8h-8v-8Zm20,8V19h14V59h-14Z"/><path class="cls-5" d="M55,23h-6c-.55,0-1,.45-1,1v6c0,.55,.45,1,1,1h6c.55,0,1-.45,1-1v-6c0-.55-.45-1-1-1Zm-1,6h-4v-4h4v4Z"/><path class="cls-5" d="M55,33h-6c-.55,0-1,.45-1,1v6c0,.55,.45,1,1,1h6c.55,0,1-.45,1-1v-6c0-.55-.45-1-1-1Zm-1,6h-4v-4h4v4Z"/><path class="cls-5" d="M55,43h-6c-.55,0-1,.45-1,1v6c0,.55,.45,1,1,1h6c.55,0,1-.45,1-1v-6c0-.55-.45-1-1-1Zm-1,6h-4v-4h4v4Z"/></g></svg>