<?xml version="1.0" encoding="UTF-8"?><svg id="Filled_Line" xmlns="http://www.w3.org/2000/svg" viewBox="0 0 64 64"><defs><style>.cls-1{fill:#a26955;}.cls-2{fill:#c3967b;}.cls-3{fill:#d3dce5;}.cls-4{fill:#1a2c3d;}.cls-5{fill:#536882;}.cls-6{fill:#335068;}</style></defs><g><rect class="cls-5" x="9" y="4" width="4" height="56"/><rect class="cls-6" x="8" y="38" width="6" height="4"/><rect class="cls-5" x="51" y="4" width="4" height="56"/><rect class="cls-6" x="50" y="38" width="6" height="4"/><rect class="cls-3" x="4" y="8" width="56" height="30"/><g><polygon class="cls-2" points="27.03 32.25 27.03 19.07 19.94 13.75 12.84 19.07 12.84 32.25 27.03 32.25"/><rect class="cls-1" x="16.94" y="24.25" width="6" height="8"/></g></g><g><path class="cls-4" d="M60,7h-4v-3c0-.55-.45-1-1-1h-4c-.55,0-1,.45-1,1v3H14v-3c0-.55-.45-1-1-1h-4c-.55,0-1,.45-1,1v3H4c-.55,0-1,.45-1,1v30c0,.55,.45,1,1,1h3v3c0,.55,.45,1,1,1v17c0,.55,.45,1,1,1h4c.55,0,1-.45,1-1v-17c.55,0,1-.45,1-1v-3H49v3c0,.55,.45,1,1,1v17c0,.55,.45,1,1,1h4c.55,0,1-.45,1-1v-17c.55,0,1-.45,1-1v-3h3c.55,0,1-.45,1-1V8c0-.55-.45-1-1-1Zm-8-2h2v2h-2v-2Zm-42,0h2v2h-2v-2Zm2,54h-2v-16h2v16Zm1-18h-4v-2h4v2Zm41,18h-2v-16h2v16Zm1-18h-4v-2h4v2Zm4-4H5V9H59v28Z"/><path class="cls-4" d="M20.54,12.95c-.36-.27-.84-.27-1.2,0l-9.94,7.46c-.44,.33-.53,.96-.2,1.4,.33,.44,.96,.53,1.4,.2l1.24-.93v11.18c0,.55,.45,1,1,1h14.19c.55,0,1-.45,1-1v-11.18l1.25,.94c.18,.13,.39,.2,.6,.2,.3,0,.6-.14,.8-.4,.33-.44,.24-1.07-.2-1.4l-9.94-7.46Zm-2.6,18.3v-6h4v6h-4Zm8.09,0h-2.09v-7c0-.55-.45-1-1-1h-6c-.55,0-1,.45-1,1v7h-2.09v-11.68l.04-.03,6.05-4.54,6.09,4.57v11.68Z"/><path class="cls-4" d="M54,16h-21c-.55,0-1,.45-1,1s.45,1,1,1h21c.55,0,1-.45,1-1s-.45-1-1-1Z"/><path class="cls-4" d="M54,20h-18c-.55,0-1,.45-1,1s.45,1,1,1h18c.55,0,1-.45,1-1s-.45-1-1-1Z"/><path class="cls-4" d="M54,24h-18c-.55,0-1,.45-1,1s.45,1,1,1h18c.55,0,1-.45,1-1s-.45-1-1-1Z"/><path class="cls-4" d="M54,28h-18c-.55,0-1,.45-1,1s.45,1,1,1h18c.55,0,1-.45,1-1s-.45-1-1-1Z"/></g></svg>