<?xml version="1.0" encoding="UTF-8"?><svg id="Filled_Line" xmlns="http://www.w3.org/2000/svg" viewBox="0 0 64 64"><defs><style>.cls-1{fill:#a26955;}.cls-2{fill:#c3967b;}.cls-3{fill:#b8c3d5;}.cls-4{fill:#9dabc4;}.cls-5{fill:#d3dce5;}.cls-6{fill:#1a2c3d;}</style></defs><g><path class="cls-4" d="M42,4V50H12c-1.1,0-2-.9-2-2V6c0-1.1,.9-2,2-2h30Z"/><polygon class="cls-3" points="42 4 42 14 22 14 42 4"/><path class="cls-5" d="M54,16V58c0,1.1-.9,2-2,2H24c-1.1,0-2-.9-2-2V14h30c1.1,0,2,.9,2,2Z"/><g><polygon class="cls-2" points="45.09 37.38 45.09 24.2 38 18.87 30.9 24.2 30.9 37.38 45.09 37.38"/><rect class="cls-1" x="35" y="29.38" width="6" height="8"/></g></g><g><path class="cls-6" d="M28.66,27.13l1.24-.93v11.18c0,.55,.45,1,1,1h14.19c.55,0,1-.45,1-1v-11.18l1.25,.93c.18,.13,.39,.2,.6,.2,.3,0,.6-.14,.8-.4,.33-.44,.24-1.07-.2-1.4l-9.94-7.46c-.36-.27-.84-.27-1.2,0l-9.94,7.46c-.44,.33-.53,.96-.2,1.4,.33,.44,.96,.53,1.4,.2Zm11.34,9.25h-4v-6h4v6Zm-2-16.25l6.09,4.57v11.68h-2.09v-7c0-.55-.45-1-1-1h-6c-.55,0-1,.45-1,1v7h-2.09v-11.68l6.1-4.57Z"/><path class="cls-6" d="M28,44.12h20c.55,0,1-.45,1-1s-.45-1-1-1H28c-.55,0-1,.45-1,1s.45,1,1,1Z"/><path class="cls-6" d="M28,48.12h20c.55,0,1-.45,1-1s-.45-1-1-1H28c-.55,0-1,.45-1,1s.45,1,1,1Z"/><path class="cls-6" d="M48,50.12H28c-.55,0-1,.45-1,1s.45,1,1,1h20c.55,0,1-.45,1-1s-.45-1-1-1Z"/><path class="cls-6" d="M43,54.12h-10c-.55,0-1,.45-1,1s.45,1,1,1h10c.55,0,1-.45,1-1s-.45-1-1-1Z"/><path class="cls-6" d="M52,13h-9V4c0-.55-.45-1-1-1H12c-1.65,0-3,1.35-3,3V48c0,1.65,1.35,3,3,3h9v7c0,1.65,1.35,3,3,3h28c1.65,0,3-1.35,3-3V16c0-1.65-1.35-3-3-3Zm-25.76,0l14.76-7.38v7.38h-14.76ZM12,49c-.55,0-1-.45-1-1V6c0-.55,.45-1,1-1h25.76L21.55,13.11c-.34,.17-.55,.52-.55,.89V49H12Zm41,9c0,.55-.45,1-1,1H24c-.55,0-1-.45-1-1V15h29c.55,0,1,.45,1,1V58Z"/></g></svg>