<?xml version="1.0" encoding="UTF-8"?><svg id="Filled_Line" xmlns="http://www.w3.org/2000/svg" viewBox="0 0 64 64"><defs><style>.cls-1{fill:#737f9b;}.cls-2{fill:#b8c3d5;}.cls-3{fill:#d3dce5;}.cls-4{fill:#1a2c3d;}.cls-5{fill:#702e24;}.cls-6{fill:#536882;}.cls-7{fill:#894c3d;}.cls-8{fill:#335068;}</style></defs><g><rect class="cls-2" x="8" y="27" width="48" height="33"/><polygon class="cls-5" points="55 15 9 15 4 27 60 27 55 15"/><path class="cls-3" d="M46,16V60H18V16L30.8,6.4c.71-.53,1.69-.53,2.4,0l12.8,9.6Z"/><path class="cls-7" d="M30.8,4.4L12.67,18l2.4,3.2,16.93-12.7,16.93,12.7,2.4-3.2L33.2,4.4c-.71-.53-1.69-.53-2.4,0Z"/><rect class="cls-1" x="15" y="56" width="34" height="4"/><rect class="cls-6" x="26" y="40" width="12" height="16"/><rect class="cls-8" x="24" y="36" width="16" height="4"/><rect class="cls-6" x="26" y="21" width="6" height="6" transform="translate(53 -5) rotate(90)"/><rect class="cls-8" x="32" y="21" width="6" height="6" transform="translate(59 -11) rotate(90)"/></g><g><path class="cls-4" d="M60.92,26.62l-5-12c-.16-.37-.52-.62-.92-.62h-6.98c-.1,0-.2,.02-.29,.05L33.8,3.6c-1.06-.79-2.54-.79-3.6,0l-13.86,10.4h-7.34c-.4,0-.77,.24-.92,.62L3.08,26.62c-.13,.31-.09,.66,.09,.94s.5,.45,.83,.45h3V60c0,.55,.45,1,1,1H56c.55,0,1-.45,1-1V28h3c.33,0,.65-.17,.83-.45s.22-.63,.09-.94ZM31.4,5.2c.35-.27,.85-.27,1.2,0l17.33,13-1.2,1.6L32.6,7.7c-.18-.13-.39-.2-.6-.2s-.42,.07-.6,.2L15.27,19.8l-1.2-1.6L31.4,5.2Zm13.6,49.8h-6v-14h1c.55,0,1-.45,1-1v-4c0-.55-.45-1-1-1H24c-.55,0-1,.45-1,1v4c0,.55,.45,1,1,1h1v14h-6V19.5l13-9.75,13,9.75V55Zm-20-16v-2h14v2h-14Zm2,2h10v14h-10v-14ZM9.67,16h4l-1.6,1.2c-.44,.33-.53,.96-.2,1.4l2.4,3.2c.16,.21,.4,.35,.66,.39,.27,.04,.53-.03,.74-.19l1.33-1v5H5.5l4.17-10Zm-.67,12h8v27h-2c-.55,0-1,.45-1,1v3h-5V28Zm7,31v-2H48v2H16Zm39,0h-5v-3c0-.55-.45-1-1-1h-2V28h8v31Zm-8-33v-5l1.33,1c.17,.13,.38,.2,.6,.2,.05,0,.09,0,.14,0,.26-.04,.5-.18,.66-.39l2.4-3.2c.33-.44,.24-1.07-.2-1.4l-1.6-1.2h4l4.17,10h-11.5Z"/><path class="cls-4" d="M26,20c-.55,0-1,.45-1,1v6c0,.55,.45,1,1,1h12c.55,0,1-.45,1-1v-6c0-.55-.45-1-1-1h-12Zm1,2h4v4h-4v-4Zm10,4h-4v-4h4v4Z"/></g></svg>