<?xml version="1.0" encoding="UTF-8"?><svg id="Filled_Line" xmlns="http://www.w3.org/2000/svg" viewBox="0 0 64 64"><defs><style>.cls-1{fill:#ecaf64;}.cls-2{fill:#a26955;}.cls-3{fill:#c3967b;}.cls-4{fill:#d3dce5;}.cls-5{fill:#1a2c3d;}.cls-6{fill:#894c3d;}</style></defs><g><g><polygon class="cls-3" points="60 38.74 54.29 18.82 40.36 13.78 31.22 25.43 36.93 45.36 60 38.74"/><rect class="cls-2" x="41.54" y="28.32" width="10" height="14" transform="translate(-7.93 14.2) rotate(-16)"/><path class="cls-6" d="M58.31,16.85l-1.43,3.74-16.35-6.23-10.56,13.95-3.19-2.41,11.47-15.15c.54-.71,1.48-.98,2.31-.66l17.75,6.77Z"/></g><path class="cls-1" d="M34.76,26.56c2.83-7.78-1.18-16.39-8.97-19.23s-16.39,1.18-19.23,8.97c-2.23,6.13-.2,12.77,4.56,16.7l-1.8,4.95,1.2,2.56-2.56,1.2,1.2,2.56-2.56,1.2,1.2,2.56-2.56,1.2-1.23,3.39,2.65,7.35,6.75-3.93,7.14-19.61c6.18,.05,12-3.72,14.23-9.86Z"/><circle class="cls-4" cx="23.41" cy="13.91" r="3"/></g><path class="cls-5" d="M60.96,38.46l-4.91-17.12,.47,.18c.51,.19,1.09-.06,1.29-.58l1.43-3.74c.09-.25,.09-.52-.02-.77s-.31-.43-.56-.53l-15.45-5.88c-1.16-2.94-3.48-5.24-6.47-6.33-2.77-1.01-5.76-.87-8.43,.37-1.12,.52-2.12,1.23-2.99,2.06-3.79-1.16-7.81-.9-11.43,.78-3.87,1.81-6.81,5.01-8.27,9.03-2.23,6.12-.49,13,4.33,17.34l-1.56,4.3c-.09,.25-.08,.52,.03,.76l.77,1.66-1.66,.77c-.5,.23-.72,.83-.48,1.33l.77,1.66-1.66,.77c-.5,.23-.72,.83-.48,1.33l.77,1.66-1.66,.77c-.24,.11-.43,.31-.52,.56l-1.23,3.39c-.08,.22-.08,.46,0,.68l2.65,7.35c.1,.28,.32,.5,.6,.6,.11,.04,.23,.06,.34,.06,.17,0,.35-.05,.5-.14l6.75-3.93c.2-.12,.36-.3,.44-.52l6.9-18.96c4.22-.15,8.13-1.97,10.96-4.91l3.77,13.14c.07,.25,.24,.47,.48,.6,.15,.08,.32,.13,.48,.13,.09,0,.19-.01,.28-.04l23.07-6.62c.53-.15,.84-.71,.69-1.24Zm-4.66-19.16l-15.42-5.87c-.41-.16-.88-.02-1.15,.33l-3.4,4.5c-.17-.82-.39-1.63-.68-2.41l3.39-4.49c.27-.35,.75-.49,1.16-.33l16.82,6.4-.72,1.87ZM29.17,5.89c2.18-1.02,4.63-1.13,6.9-.3,1.81,.66,3.32,1.87,4.38,3.43-1.11-.23-2.29,.2-3,1.13l-2.75,3.63c-1.59-2.91-4.07-5.35-7.24-6.83,.53-.41,1.1-.77,1.72-1.05Zm-6.61,6.2c.27-.13,.56-.19,.84-.19,.23,0,.46,.04,.69,.12,1.04,.38,1.57,1.53,1.2,2.56-.38,1.04-1.53,1.57-2.56,1.2-1.04-.38-1.57-1.53-1.2-2.56,.18-.5,.55-.9,1.03-1.13Zm-2.02,23.32c-.43,.02-.8,.26-.95,.66l-7.02,19.27-5.4,3.14-2.12-5.88,.97-2.66,2.19-1.02c.5-.23,.72-.83,.48-1.33l-.77-1.66,1.66-.77c.5-.23,.72-.83,.48-1.33l-.77-1.66,1.66-.77c.5-.23,.72-.83,.48-1.33l-1.02-2.19,1.66-4.56c.15-.4,.02-.84-.3-1.11-4.57-3.77-6.28-10.03-4.26-15.58,2.46-6.75,9.59-10.46,16.41-8.82-.46,.67-.85,1.39-1.15,2.16-.36,.06-.71,.15-1.05,.31-.97,.45-1.7,1.25-2.07,2.26-.37,1-.32,2.09,.13,3.06,.45,.97,1.25,1.7,2.26,2.07,.45,.16,.91,.24,1.36,.24,1.63,0,3.17-1.01,3.76-2.63h0c.74-2.05-.3-4.31-2.32-5.09,.29-.62,.66-1.19,1.08-1.72,3.29,1.33,5.93,3.81,7.44,7.05,1.58,3.39,1.75,7.19,.47,10.71-2.02,5.55-7.33,9.22-13.28,9.2Zm23.8,6.78l-3.31-11.54,7.69-2.21,3.31,11.54-7.69,2.21Zm9.61-2.76l-3.58-12.5c-.07-.25-.24-.47-.48-.6-.23-.13-.5-.16-.76-.09l-9.61,2.76c-.53,.15-.84,.71-.69,1.24l3.58,12.5-4.81,1.38-3.87-13.5c.8-1.13,1.47-2.38,1.96-3.73,.69-1.9,.98-3.85,.95-5.76l4.22-5.58,12.84,4.89,5.05,17.6-4.81,1.38Z"/></svg>