<?xml version="1.0" encoding="UTF-8"?><svg id="Filled_Line" xmlns="http://www.w3.org/2000/svg" viewBox="0 0 64 64"><defs><style>.cls-1{fill:#ecaf64;}.cls-2{fill:#737f9b;}.cls-3{fill:#a26955;}.cls-4{fill:#c3967b;}.cls-5{fill:#b8c3d5;}.cls-6{fill:#9dabc4;}.cls-7{fill:#d3dce5;}.cls-8{fill:#1a2c3d;}.cls-9{fill:#702e24;}.cls-10{fill:#536882;}.cls-11{fill:#894c3d;}</style></defs><g><rect class="cls-5" x="4" y="35.06" width="32" height="16"/><rect class="cls-3" x="6" y="23.06" width="14" height="12"/><rect class="cls-9" x="11" y="23.06" width="4" height="6"/><rect class="cls-4" x="20" y="23.06" width="14" height="12"/><rect class="cls-11" x="13" y="12" width="14" height="11.06"/><rect class="cls-2" x="4" y="47.06" width="32" height="4"/><circle class="cls-10" cx="15" cy="51" r="5"/><path class="cls-6" d="M58.74,37.85l-6.63-2.63-5.38-11.04c-.34-.69-1.03-1.12-1.8-1.12h-10.93s0,28,0,28h25c.55,0,1-.45,1-1v-10.35c0-.82-.5-1.56-1.26-1.86Z"/><path class="cls-7" d="M52.1,35.23h-14.1v-12.17h6.93c.76,0,1.46,.44,1.79,1.12l5.38,11.05Z"/><circle class="cls-10" cx="49" cy="51" r="5"/><rect class="cls-1" x="56" y="41.06" width="4" height="4" transform="translate(116 86.12) rotate(180)"/><rect class="cls-9" x="25" y="23.06" width="4" height="6"/><rect class="cls-9" x="18" y="12" width="4" height="6"/></g><g><circle class="cls-8" cx="15" cy="51" r="2"/><path class="cls-8" d="M59.11,36.92l-6.28-2.48-5.21-10.7c-.5-1.02-1.55-1.68-2.69-1.68H28V12c0-.55-.45-1-1-1H13c-.55,0-1,.45-1,1v10.06H6c-.55,0-1,.45-1,1v11h-1c-.55,0-1,.45-1,1v16c0,.55,.45,1,1,1h5.1c.5,2.8,2.95,4.94,5.9,4.94s5.4-2.14,5.9-4.94h22.2c.5,2.8,2.95,4.94,5.9,4.94s5.4-2.14,5.9-4.94h4.1c1.1,0,2-.9,2-2v-10.35c0-1.22-.76-2.34-1.89-2.79Zm-13.29-12.3l4.68,9.61h-11.5v-10.17h5.93c.38,0,.73,.22,.89,.56Zm-25.6,23.44h12.78v2h-12.08c-.11-.72-.35-1.39-.7-2Zm12.78-14h-12v-10h3v5c0,.55,.45,1,1,1h4c.55,0,1-.45,1-1v-5h3v10Zm-5-10v4h-2v-4h2Zm-7-11.06v4h-2v-4h2Zm-7,0h3v5c0,.55,.45,1,1,1h4c.55,0,1-.45,1-1v-5h3v9.06H14V13Zm-1,11.06h1v4h-2v-4h1Zm-6,0h3v5c0,.55,.45,1,1,1h4c.55,0,1-.45,1-1v-5h3v10H7v-10Zm26,12v10h-14.56s-.02,0-.03,0c-.97-.67-2.14-1.07-3.4-1.07s-2.43,.39-3.4,1.06H5v-10h28ZM5,48.06h4.78c-.34,.61-.58,1.28-.7,2H5v-2Zm10,6.94c-2.21,0-4-1.79-4-4s1.79-4,4-4,4,1.79,4,4-1.79,4-4,4Zm34,0c-2.21,0-4-1.79-4-4s1.79-4,4-4,4,1.79,4,4-1.79,4-4,4Zm5.92-4.94c-.45-2.86-2.93-5.06-5.92-5.06s-5.47,2.2-5.92,5.06h-8.08V24.06h2v11.17c0,.55,.45,1,1,1h13.9l6.47,2.55c.38,.15,.63,.52,.63,.93v.35h-3c-.55,0-1,.45-1,1v4c0,.55,.45,1,1,1h3v4h-4.08Zm4.08-6h-2v-2h2v2Z"/><circle class="cls-8" cx="49" cy="51" r="2"/><path class="cls-8" d="M42,38.23h-4c-.55,0-1,.45-1,1s.45,1,1,1h4c.55,0,1-.45,1-1s-.45-1-1-1Z"/></g></svg>