<?xml version="1.0" encoding="UTF-8"?><svg id="Flat" xmlns="http://www.w3.org/2000/svg" viewBox="0 0 64 64"><defs><style>.cls-1{fill:#85b9db;}.cls-1,.cls-2,.cls-3,.cls-4{stroke-width:0px;}.cls-2{fill:#536882;}.cls-3{fill:#e26677;}.cls-4{fill:#d3dce5;}</style></defs><rect class="cls-4" x="28" y="44.5" width="8" height="13"/><rect class="cls-2" x="26" y="55" width="12" height="5" rx="1" ry="1"/><circle class="cls-2" cx="32" cy="27" r="23"/><circle class="cls-4" cx="32" cy="27" r="19"/><path class="cls-1" d="M46,25.71h-.8c-.22-2.9-1.37-5.54-3.16-7.62l.57-.57c.39-.39.39-1.02,0-1.41s-1.02-.39-1.41,0l-.57.57c-2.08-1.79-4.72-2.94-7.62-3.16v-.8c0-.55-.45-1-1-1s-1,.45-1,1v.8c-2.9.22-5.54,1.37-7.62,3.16l-.57-.57c-.39-.39-1.02-.39-1.41,0s-.39,1.02,0,1.41l.57.57c-1.79,2.08-2.94,4.72-3.16,7.62h-.8c-.55,0-1,.45-1,1s.45,1,1,1h.8c.21,2.82,1.31,5.47,3.16,7.63l-.56.56c-.39.39-.39,1.02,0,1.41.2.2.45.29.71.29s.51-.1.71-.29l1.23-1.23s.07-.1.1-.15c.04-.06.09-.11.12-.18.02-.06.02-.12.03-.18.01-.07.04-.13.04-.2,0-.07-.02-.13-.04-.19-.01-.06-.01-.13-.04-.19-.02-.06-.07-.11-.11-.16-.04-.06-.06-.12-.11-.17-2.13-2.13-3.3-4.96-3.3-7.96,0-6.2,5.05-11.25,11.25-11.25s11.25,5.05,11.25,11.25c0,3-1.17,5.82-3.3,7.96-.05.05-.07.11-.11.17-.04.05-.08.1-.11.16-.02.06-.02.12-.04.19-.01.06-.04.13-.04.19,0,.07.03.13.04.2.01.06.01.12.03.18.03.06.08.12.12.18.03.05.06.11.1.15l1.23,1.23c.2.2.45.29.71.29s.51-.1.71-.29c.39-.39.39-1.02,0-1.41l-.56-.56c1.85-2.15,2.95-4.8,3.16-7.63h.8c.55,0,1-.45,1-1s-.45-1-1-1Z"/><path class="cls-3" d="M29.17,30.83c-.26,0-.51-.1-.71-.29-.39-.39-.39-1.02,0-1.41l8.29-8.29c.39-.39,1.02-.39,1.41,0s.39,1.02,0,1.41l-8.29,8.29c-.2.2-.45.29-.71.29Z"/><circle class="cls-2" cx="32" cy="27" r="2"/><rect class="cls-2" x="27" y="37" width="10" height="4" rx="1" ry="1"/></svg>