<?xml version="1.0" encoding="UTF-8"?><svg id="Flat" xmlns="http://www.w3.org/2000/svg" viewBox="0 0 64 64"><defs><style>.cls-1{fill:#536882;}.cls-1,.cls-2,.cls-3,.cls-4{stroke-width:0px;}.cls-2{fill:#d3dce5;}.cls-3{fill:#325068;}.cls-4{fill:#edae65;}</style></defs><path class="cls-1" d="M33.12,7.31c-14.28,0-25.85,11.57-25.85,25.84s11.57,25.85,25.85,25.85,25.84-11.57,25.84-25.85S47.39,7.31,33.12,7.31ZM46.5,45.64h0c-1.6,1.71-3.5,3.11-5.64,4.1-2.35,1.11-4.97,1.72-7.74,1.72s-5.4-.62-7.75-1.72c-2.14-1-4.04-2.39-5.64-4.09h0c-3.05-3.29-4.92-7.68-4.92-12.5,0-.76.05-1.51.14-2.24.29-2.38,1.03-4.62,2.15-6.62,2.58-4.66,7.13-8.07,12.53-9.1,1.13-.23,2.3-.34,3.49-.34,6.89,0,12.89,3.81,16.01,9.44,1.12,2,1.86,4.24,2.15,6.62.09.73.14,1.48.14,2.24,0,4.82-1.87,9.21-4.92,12.49Z"/><path class="cls-3" d="M51.42,33.15c0,4.82-1.87,9.21-4.92,12.49h0c-1.6,1.71-3.5,3.11-5.64,4.1-2.35,1.11-4.97,1.72-7.74,1.72s-5.4-.62-7.75-1.72c-2.14-1-4.04-2.39-5.64-4.09h0c-3.05-3.29-4.92-7.68-4.92-12.5,0-.76.05-1.51.14-2.24.29-2.38,1.03-4.62,2.15-6.62,2.58-4.66,7.13-8.07,12.53-9.1,1.13-.23,2.3-.34,3.49-.34,6.89,0,12.89,3.81,16.01,9.44,1.12,2,1.86,4.24,2.15,6.62.09.73.14,1.48.14,2.24Z"/><path class="cls-2" d="M45.09,43.7l1.41,1.94h0c-1.6,1.71-3.5,3.11-5.64,4.1l-1.42-1.94c-3.12-4.3-9.53-4.3-12.65,0l-1.42,1.94c-2.14-1-4.04-2.39-5.64-4.09h0s1.42-1.95,1.42-1.95c3.12-4.3,1.14-10.4-3.92-12.05l-2.28-.74c.29-2.38,1.03-4.62,2.15-6.62l2.28.74c5.06,1.64,10.25-2.13,10.25-7.45v-2.39c1.13-.23,2.3-.34,3.49-.34s2.35.11,3.48.33v2.4c0,5.32,5.19,9.09,10.25,7.45l2.28-.74c1.12,2,1.86,4.24,2.15,6.62l-2.28.74c-5.06,1.65-7.04,7.75-3.91,12.05Z"/><circle class="cls-1" cx="33.12" cy="33.15" r="5.23"/><path class="cls-3" d="M34.12,7.33v1.82c0,.56-.45,1-1,1s-1-.44-1-1v-1.82c.33,0,.66-.02,1-.02s.67.01,1,.02Z"/><path class="cls-3" d="M21.62,13.24c-.16.09-.33.13-.5.13-.35,0-.69-.18-.87-.5l-.91-1.58c.56-.36,1.14-.69,1.73-1l.91,1.58c.28.48.11,1.09-.36,1.37Z"/><path class="cls-3" d="M13.2,21.65c-.19.32-.52.5-.87.5-.17,0-.34-.04-.5-.13l-1.58-.91c.31-.6.64-1.17,1.01-1.73l1.57.91c.48.27.64.89.37,1.36Z"/><path class="cls-3" d="M10.12,33.15c0,.56-.45,1-1,1h-1.83c0-.33-.02-.66-.02-1s.01-.67.02-1h1.83c.55,0,1,.45,1,1Z"/><path class="cls-3" d="M21.98,54.44l-.91,1.58c-.59-.31-1.17-.64-1.73-1l.91-1.58c.28-.48.89-.65,1.37-.37.47.28.64.89.36,1.37Z"/><path class="cls-3" d="M34.12,57.15v1.83c-.33.01-.66.02-1,.02s-.67-.01-1-.02v-1.83c0-.55.44-1,1-1s1,.45,1,1Z"/><path class="cls-3" d="M46.89,55.02c-.56.36-1.14.7-1.73,1l-.91-1.58c-.28-.48-.11-1.09.37-1.37.47-.28,1.09-.11,1.36.37l.91,1.58Z"/><path class="cls-3" d="M55.98,45.2c-.31.59-.64,1.17-1,1.73l-1.58-.91c-.48-.28-.64-.89-.37-1.37.28-.47.89-.64,1.37-.36l1.58.91Z"/><path class="cls-3" d="M58.96,33.15c0,.34-.01.67-.02,1h-1.82c-.56,0-1-.44-1-1s.44-1,1-1h1.82c.01.33.02.66.02,1Z"/><path class="cls-3" d="M55.98,21.11l-1.58.91c-.16.09-.33.13-.5.13-.34,0-.68-.18-.87-.5-.27-.47-.11-1.09.37-1.36l1.57-.91c.37.56.7,1.13,1.01,1.73Z"/><path class="cls-4" d="M53.63,10.44l1.87,1.02-1.87,1.02c-1.51.82-2.75,2.06-3.57,3.57l-1.02,1.87-1.02-1.87c-.82-1.51-2.06-2.75-3.57-3.57l-1.87-1.02,1.87-1.02c1.51-.82,2.75-2.06,3.57-3.57l1.02-1.87,1.02,1.87c.82,1.51,2.06,2.75,3.57,3.57Z"/><path class="cls-4" d="M16.09,49.21l1.87,1.02-1.87,1.02c-1.51.82-2.75,2.06-3.57,3.57l-1.02,1.87-1.02-1.87c-.82-1.51-2.06-2.75-3.57-3.57l-1.87-1.02,1.87-1.02c1.51-.82,2.75-2.06,3.57-3.57l1.02-1.87,1.02,1.87c.82,1.51,2.06,2.75,3.57,3.57Z"/></svg>