<?xml version="1.0" encoding="UTF-8"?><svg id="Flat" xmlns="http://www.w3.org/2000/svg" viewBox="0 0 64 64"><defs><style>.cls-1{fill:#536882;}.cls-1,.cls-2,.cls-3{stroke-width:0px;}.cls-2{fill:#d3dce5;}.cls-3{fill:#edae65;}</style></defs><rect class="cls-2" x="14" y="7.64" width="4" height="40.73"/><rect class="cls-2" x="30" y="14.52" width="4" height="31.97"/><path class="cls-2" d="M47,4h2c.55,0,1,.45,1,1v43h-4V5c0-.55.45-1,1-1Z"/><path class="cls-1" d="M14,40h4c.55,0,1,.45,1,1v7h-6v-7c0-.55.45-1,1-1Z"/><rect class="cls-2" x="14" y="49.41" width="4" height="8.17"/><rect class="cls-3" x="11" y="45" width="10" height="6" rx="1" ry="1"/><rect class="cls-3" x="12" y="56" width="8" height="4" rx="1" ry="1"/><rect class="cls-2" x="30" y="49.41" width="4" height="8.17"/><rect class="cls-3" x="27" y="45" width="10" height="6" rx="1" ry="1"/><rect class="cls-3" x="28" y="56" width="8" height="4" rx="1" ry="1"/><rect class="cls-2" x="46" y="49.41" width="4" height="8.17"/><rect class="cls-3" x="43" y="45" width="10" height="6" rx="1" ry="1"/><rect class="cls-3" x="44" y="56" width="8" height="4" rx="1" ry="1"/><rect class="cls-1" x="44" y="17" width="8" height="20" rx="1" ry="1"/><rect class="cls-3" x="44" y="8" width="8" height="4" rx="1" ry="1"/><rect class="cls-3" x="12" y="4" width="8" height="12" rx="1" ry="1"/><rect class="cls-3" x="28" y="4" width="8" height="12" rx="1" ry="1"/></svg>