<?xml version="1.0" encoding="UTF-8"?><svg id="Flat" xmlns="http://www.w3.org/2000/svg" viewBox="0 0 64 64"><defs><style>.cls-1{fill:#759dd1;}.cls-1,.cls-2,.cls-3{stroke-width:0px;}.cls-2{fill:#85b9db;}.cls-3{fill:#d3dce5;}</style></defs><path class="cls-2" d="M44.96,19.45l-5.62-3.52-6.65-2.51-6.2,2.51-7.15,3.58c-1.24.62-2.03,1.89-2.03,3.28v33.54c0,2.03,1.65,3.67,3.67,3.67h16.84c.98,0,1.91-.39,2.6-1.08l5.19-5.19c.69-.69,1.08-1.62,1.08-2.6v-28.57c0-1.27-.65-2.44-1.73-3.11ZM41.18,42.56c0,2.03-1.64,3.67-3.67,3.67s-3.67-1.64-3.67-3.67v-14.69c0-2.03,1.64-3.67,3.67-3.67,1.01,0,1.93.41,2.6,1.07.66.67,1.07,1.59,1.07,2.6v14.69Z"/><path class="cls-3" d="M30.33,4h5.18c1.1,0,2,.9,2,2v6.43h-9.18v-6.43c0-1.1.9-2,2-2Z"/><path class="cls-1" d="M28.49,10.43h8.85c1.1,0,2,.9,2,2v3.51h-12.85v-3.51c0-1.1.9-2,2-2Z"/><path class="cls-1" d="M42.1,49.42v1.33l-4.65,4.65h-15.54v-29.38h7.55c-.13.59-.2,1.2-.2,1.84v14.69c0,4.55,3.71,8.26,8.26,8.26,1.7,0,3.28-.51,4.59-1.4Z"/></svg>