<?xml version="1.0" encoding="UTF-8"?><svg id="Flat" xmlns="http://www.w3.org/2000/svg" viewBox="0 0 64 64"><defs><style>.cls-1{fill:#759dd1;}.cls-1,.cls-2,.cls-3{stroke-width:0px;}.cls-2{fill:#85b9db;}.cls-3{fill:#d3dce5;}</style></defs><path class="cls-3" d="M20,4h5c1.1,0,2,.9,2,2v6h-9v-6c0-1.1.9-2,2-2Z"/><path class="cls-1" d="M29,16h-13v-5c0-.55.45-1,1-1h11c.55,0,1,.45,1,1v5Z"/><rect class="cls-3" x="15" y="19.83" width="34" height="34.33"/><rect class="cls-2" x="13" y="52" width="38" height="8" rx="2" ry="2"/><path class="cls-2" d="M49,9h-12.75c-.68,0-1.32.35-1.69.93l-1.97,3.14c-.37.58-1.01.93-1.69.93h-15.9c-1.1,0-2,.9-2,2v4c0,1.1.9,2,2,2h34c1.1,0,2-.9,2-2v-9c0-1.1-.9-2-2-2ZM46.41,16.41c-.36.37-.86.59-1.41.59h-6c-1.1,0-2-.9-2-2,0-.55.22-1.05.59-1.41.36-.37.86-.59,1.41-.59h6c1.1,0,2,.9,2,2,0,.55-.22,1.05-.59,1.41Z"/><rect class="cls-2" x="22" y="29" width="20" height="16"/></svg>