<?xml version="1.0" encoding="UTF-8"?><svg id="Flat" xmlns="http://www.w3.org/2000/svg" viewBox="0 0 64 64"><defs><style>.cls-1{fill:#85b9db;}.cls-1,.cls-2,.cls-3{stroke-width:0px;}.cls-2{fill:#d3dce5;}.cls-3{fill:#b8c3d5;}</style></defs><path class="cls-2" d="M51.92,44s1.17-5.08-5.16-5.92-8.43-5.08-14.76-5.08c-6.32,0-8.43,4.23-14.76,5.08s-5.16,5.92-5.16,5.92c13.28,4,26.55,4,39.83,0Z"/><path class="cls-2" d="M52.99,57.8c.12,1.18-.78,2.2-1.92,2.2H12.93c-1.14,0-2.04-1.02-1.92-2.2l.77-7.8c13.48-4,26.96-4,40.44,0l.77,7.8Z"/><rect class="cls-1" x="29" y="4" width="6" height="36" rx="3" ry="3"/><path class="cls-3" d="M19,50v10h-2v-10c0-.55.45-1,1-1s1,.45,1,1Z"/><path class="cls-3" d="M26,50v10h-2v-10c0-.55.45-1,1-1s1,.45,1,1Z"/><path class="cls-3" d="M33,50v10h-2v-10c0-.55.45-1,1-1s1,.45,1,1Z"/><path class="cls-3" d="M40,50v10h-2v-10c0-.55.45-1,1-1s1,.45,1,1Z"/><path class="cls-3" d="M47,50v10h-2v-10c0-.55.45-1,1-1s1,.45,1,1Z"/><rect class="cls-1" x="9" y="44" width="46" height="6" rx="1" ry="1"/></svg>