<?xml version="1.0" encoding="UTF-8"?><svg id="Flat" xmlns="http://www.w3.org/2000/svg" viewBox="0 0 64 64"><defs><style>.cls-1{fill:#759dd1;}.cls-1,.cls-2,.cls-3{stroke-width:0px;}.cls-2{fill:#85b9db;}.cls-3{fill:#d3dce5;}</style></defs><path class="cls-3" d="M40.4,21.73h-2.73c-.65,0-1.28-.21-1.8-.6l-2.93-2.2c-1.58-2.8-1.58-5.6,0-8.4l2.93-2.2c.52-.39,1.15-.6,1.8-.6h2.73c1.57,4.27,1.34,9,0,14Z"/><path class="cls-1" d="M31.36,18.93s-.87,3.65.51,7.27c.31.81-.58,1.56-1.33,1.13-1.92-1.11-4.35-3.48-4.62-8.41,1.65-1.55,3.49-1.3,5.44,0Z"/><rect class="cls-3" x="18" y="32.45" width="5.6" height="11.23"/><path class="cls-2" d="M32.93,10.53v8.4h-8.4v15.87h-7.47c-.52-2.13-1-5-.93-8.4.04-2.29.32-4.32.67-6.02.16-.77.02-1.57-.38-2.25l-.47-.79c-.47-.8-.58-1.76-.28-2.64l.67-2c.44-1.29,1.65-2.16,3.01-2.16h13.58Z"/><rect class="cls-2" x="40.4" y="5.87" width="4.67" height="17.73" rx="1" ry="1"/><path class="cls-2" d="M57.2,52.53h-2.8l-2.8-5.6c1.55,0,2.8-1.25,2.8-2.8s-1.25-2.8-2.8-2.8H12.4c-1.55,0-2.8,1.25-2.8,2.8s1.25,2.8,2.8,2.8l-2.8,5.6h-2.8c-1.55,0-2.8,1.25-2.8,2.8s1.25,2.8,2.8,2.8h50.4c1.55,0,2.8-1.25,2.8-2.8s-1.25-2.8-2.8-2.8Z"/><rect class="cls-1" x="6.8" y="46.93" width="50.4" height="5.6" rx="2.8" ry="2.8"/></svg>