<?xml version="1.0" encoding="UTF-8"?><svg id="Flat" xmlns="http://www.w3.org/2000/svg" viewBox="0 0 64 64"><defs><style>.cls-1{fill:#759dd1;}.cls-1,.cls-2,.cls-3,.cls-4,.cls-5{stroke-width:0px;}.cls-2{fill:#85b9db;}.cls-3{fill:#536882;}.cls-4{fill:#d3dce5;}.cls-5{fill:#b8c3d5;}</style></defs><rect class="cls-4" x="42" y="10.15" width="8" height="10.7"/><path class="cls-4" d="M33,22.24c-.55,0-1-.45-1-1v-6.21c0-4.15,3.38-7.53,7.53-7.53h2.47c.55,0,1,.45,1,1s-.45,1-1,1h-2.47c-3.05,0-5.53,2.48-5.53,5.53v6.21c0,.55-.45,1-1,1Z"/><path class="cls-3" d="M42,19.5h8c1.1,0,2,.9,2,2v6h-12v-6c0-1.1.9-2,2-2Z"/><rect class="cls-3" x="40" y="5.5" width="12" height="6" rx="1" ry="1"/><path class="cls-5" d="M52,16.5h-12c-.55,0-1-.45-1-1s.45-1,1-1h12c.55,0,1,.45,1,1s-.45,1-1,1Z"/><rect class="cls-3" x="31" y="20.5" width="4" height="7"/><rect class="cls-3" x="16" y="16.5" width="4" height="10.99"/><circle class="cls-4" cx="18" cy="12.5" r="8"/><path class="cls-5" d="M18,13.5c-.26,0-.51-.1-.71-.29-.39-.39-.39-1.02,0-1.41l2.83-2.83c.39-.39,1.02-.39,1.41,0,.39.39.39,1.02,0,1.41l-2.83,2.83c-.2.2-.45.29-.71.29Z"/><polygon class="cls-4" points="17 53.5 13 53.5 12 45.5 18 45.5 17 53.5"/><circle class="cls-3" cx="15" cy="55.5" r="4"/><polygon class="cls-4" points="47 53.5 51 53.5 52 45.5 46 45.5 47 53.5"/><circle class="cls-3" cx="49" cy="55.5" r="4"/><path class="cls-2" d="M52.84,47.5H11.16c-1.34,0-2.51-.89-2.89-2.17-.67-2.28-1.27-5.28-1.27-8.83,0-2.11.21-5.26,1.29-8.9.37-1.26,1.55-2.1,2.87-2.1h41.68c1.34,0,2.51.89,2.89,2.17.67,2.28,1.27,5.28,1.27,8.83,0,2.11-.21,5.26-1.29,8.9-.37,1.26-1.55,2.1-2.87,2.1Z"/><rect class="cls-1" x="20" y="32.5" width="24" height="8" rx="1" ry="1"/></svg>