<?xml version="1.0" encoding="UTF-8"?><svg id="Flat" xmlns="http://www.w3.org/2000/svg" viewBox="0 0 64 64"><defs><style>.cls-1{fill:#759dd1;}.cls-1,.cls-2,.cls-3,.cls-4,.cls-5{stroke-width:0px;}.cls-2{fill:#85b9db;}.cls-3{fill:#536882;}.cls-4{fill:#d3dce5;}.cls-5{fill:#b8c3d5;}</style></defs><path class="cls-2" d="M33.17,13.35v9.52h-3.82v-9.69h-7.65v9.69h-3.82v-9.52c0-2.2,1.79-4,4-4h7.29c2.21,0,4,1.8,4,4Z"/><polygon class="cls-2" points="43.69 52.36 38.9 46.71 38.9 46.71 38.9 33.51 38.9 24.64 35.08 19.87 15.97 19.87 12.15 24.64 12.15 33.51 12.15 46.71 12.15 46.71 7.09 52 12.15 58 12.15 58 12.15 58.09 38.9 58.09 38.9 58 38.9 58 43.69 52.36"/><path class="cls-4" d="M38.9,24.64v8.87l-7.08,2.55c-.49.2-.87.59-1.06,1.09l-.95,2.5c-.28.75-.99,1.24-1.78,1.24h-5.01c-.79,0-1.5-.49-1.79-1.24l-.94-2.5c-.19-.5-.57-.89-1.06-1.09l-7.08-2.55v-8.87l3.82-4.77h19.11l3.82,4.77Z"/><path class="cls-1" d="M32.21,58.09h-13.38l.65-3.24c.18-.89.96-1.54,1.87-1.54h8.33c.91,0,1.7.64,1.87,1.54l.65,3.24Z"/><circle class="cls-5" cx="25.52" cy="28.47" r="2.87"/><rect class="cls-3" x="4.5" y="44.71" width="7.64" height="15.29" rx="2" ry="2"/><rect class="cls-3" x="38.9" y="44.71" width="7.64" height="15.29" rx="2" ry="2"/><rect class="cls-4" x="52.81" y="27.99" width="3.82" height="15.49" transform="translate(109.44 71.46) rotate(180)"/><path class="cls-3" d="M53.66,47.2h2.13c.49,0,.91-.35.99-.84l.62-3.73c.1-.61-.37-1.16-.99-1.16h-3.37c-.62,0-1.09.55-.99,1.16l.62,3.73c.08.48.5.84.99.84Z"/><path class="cls-2" d="M58.65,12.23l-10.92-7.91c-.88-.58-2.07-.35-2.65.53l-5.86,7.45c-.58.88-.34,2.06.53,2.65l10.19,6.19v6.95c0,1.05.86,1.91,1.91,1.91h5.74c1.05,0,1.91-.86,1.91-1.91v-14.27c0-.64-.32-1.23-.85-1.59ZM44.55,12.54l2.65-3.98,3.15,2.49.3,5.47-6.1-3.98Z"/></svg>