<?xml version="1.0" encoding="UTF-8"?><svg id="Flat" xmlns="http://www.w3.org/2000/svg" viewBox="0 0 64 64"><defs><style>.cls-1{fill:#759dd1;}.cls-1,.cls-2,.cls-3,.cls-4,.cls-5,.cls-6{stroke-width:0px;}.cls-2{fill:#85b9db;}.cls-3{fill:#536882;}.cls-4{fill:#e26677;}.cls-5{fill:#d3dce5;}.cls-6{fill:#edae65;}</style></defs><rect class="cls-5" x="9.17" y="29" width="10.36" height="6"/><path class="cls-2" d="M49.64,39.25c-.99,2.96-2.61,4.28-2.56,4.53l-20.83-9.94v-3.68l20.83-9.94c-.05.25,1.47,2.09,2.56,4.53,1.14,3.58,1.05,10.52,0,14.5Z"/><path class="cls-3" d="M5,27h5c.55,0,1,.45,1,1v8c0,.55-.45,1-1,1h-5"/><path class="cls-6" d="M26.22,35.17l-7,1.56c-.62.14-1.22-.34-1.22-.98v-7.51c0-.64.59-1.11,1.22-.98l7,1.56c.46.1.78.51.78.98v4.4c0,.47-.33.87-.78.98Z"/><path class="cls-1" d="M60,8.36v47.28c-.73.83-1.8,1.36-3,1.36-2.21,0-4-1.79-4-4-2.21,0-4-1.79-4-4,0-.83.25-1.6.69-2.24-1.32-.46-2.33-1.58-2.61-2.98-.05-.25-.08-.51-.08-.78,0-1.73,1.1-3.19,2.64-3.75-2.74-1.27-4.64-4.03-4.64-7.25s1.9-5.98,4.64-7.25c-1.54-.56-2.64-2.02-2.64-3.75,0-.27.03-.53.08-.78.28-1.4,1.29-2.52,2.61-2.98-.44-.64-.69-1.41-.69-2.24,0-2.21,1.79-4,4-4,0-2.21,1.79-4,4-4,1.2,0,2.27.53,3,1.36Z"/><path class="cls-1" d="M37,30.47c-.41,0-.79-.25-.94-.66-.19-.52.08-1.09.59-1.28l4-1.47c.52-.19,1.09.08,1.28.59s-.08,1.09-.59,1.28l-4,1.47c-.11.04-.23.06-.34.06Z"/><path class="cls-1" d="M41,37c-.11,0-.23-.02-.34-.06l-4-1.47c-.52-.19-.78-.76-.59-1.28.19-.52.76-.79,1.28-.59l4,1.47c.52.19.78.76.59,1.28-.15.4-.53.66-.94.66Z"/><path class="cls-4" d="M11.81,19.89c-.16,0-.33-.04-.48-.13-.48-.27-.66-.88-.39-1.36l.78-1.4c.51-.92.48-2.04-.07-2.94-.93-1.51-.97-3.41-.11-4.96l.78-1.4c.27-.48.88-.66,1.36-.39.48.27.66.88.39,1.36l-.78,1.4c-.51.92-.48,2.04.07,2.94.93,1.51.97,3.41.11,4.96l-.78,1.4c-.18.33-.52.51-.88.51Z"/><path class="cls-4" d="M19.63,19.89c-.16,0-.33-.04-.48-.13-.48-.27-.66-.88-.39-1.36l.78-1.4c.51-.92.48-2.04-.07-2.94-.93-1.51-.97-3.41-.11-4.96l.78-1.4c.27-.48.88-.66,1.36-.39.48.27.66.88.39,1.36l-.78,1.4c-.51.92-.48,2.04.07,2.94.93,1.51.97,3.41.11,4.96l-.78,1.4c-.18.33-.52.51-.88.51Z"/><path class="cls-4" d="M27.46,19.89c-.16,0-.33-.04-.49-.13-.48-.27-.66-.88-.39-1.36l.78-1.4c.51-.92.48-2.04-.07-2.93-.93-1.51-.97-3.41-.11-4.96l.78-1.41c.27-.48.88-.66,1.36-.39.48.27.66.88.39,1.36l-.78,1.4c-.51.92-.48,2.04.07,2.93.93,1.51.98,3.41.11,4.96l-.78,1.41c-.18.33-.52.51-.88.51Z"/></svg>