<?xml version="1.0" encoding="UTF-8"?><svg id="Flat" xmlns="http://www.w3.org/2000/svg" viewBox="0 0 64 64"><defs><style>.cls-1{fill:#759dd1;}.cls-1,.cls-2,.cls-3,.cls-4,.cls-5{stroke-width:0px;}.cls-2{fill:#85b9db;}.cls-3{fill:#536882;}.cls-4{fill:#d3dce5;}.cls-5{fill:#edae65;}</style></defs><path class="cls-2" d="M49.64,42.25c-1.02,2.05-1.81,3.94-2.56,4.53l-20.58-9.82.12-3.98,20.46-9.76c1.5.57,2.01,2.78,2.56,4.53.6,2.58.44,11.55,0,14.5Z"/><rect class="cls-4" x="9.1" y="32" width="10.8" height="6"/><path class="cls-3" d="M5,30h5c.55,0,1,.45,1,1v8c0,.55-.45,1-1,1h-5"/><path class="cls-5" d="M27,32.8v4.4c0,.47-.33.87-.78.97l-7,1.56c-.63.14-1.22-.34-1.22-.98v-7.5c0-.64.59-1.12,1.22-.98l7,1.56c.45.1.78.5.78.97Z"/><path class="cls-1" d="M60,11.36v47.28c-.73.83-1.8,1.36-3,1.36-2.21,0-4-1.79-4-4-2.21,0-4-1.79-4-4,0-.83.25-1.6.69-2.24-1.32-.46-2.33-1.58-2.61-2.98-.05-.25-.08-.51-.08-.78,0-1.73,1.1-3.19,2.64-3.75-2.74-1.27-4.64-4.03-4.64-7.25s1.9-5.98,4.64-7.25c-1.54-.56-2.64-2.02-2.64-3.75,0-.27.03-.53.08-.78.28-1.4,1.29-2.52,2.61-2.98-.44-.64-.69-1.41-.69-2.24,0-2.21,1.79-4,4-4,0-2.21,1.79-4,4-4,1.2,0,2.27.53,3,1.36Z"/><path class="cls-1" d="M37,33.47c-.41,0-.79-.25-.94-.66-.19-.52.08-1.09.59-1.28l4-1.47c.52-.19,1.09.08,1.28.59.19.52-.08,1.09-.59,1.28l-4,1.47c-.11.04-.23.06-.34.06Z"/><path class="cls-1" d="M41,40c-.11,0-.23-.02-.34-.06l-4-1.47c-.52-.19-.78-.76-.59-1.28.19-.52.76-.78,1.28-.59l4,1.47c.52.19.78.76.59,1.28-.15.4-.53.66-.94.66Z"/><path class="cls-2" d="M31.76,17.51c-.14-.53-.69-.85-1.22-.71l-2.33.62-2.61-1.5v-1.84l2.61-1.5,2.33.62c.09.02.17.03.26.03.44,0,.85-.29.96-.74.14-.53-.17-1.08-.71-1.22l-.4-.11.51-.29c.48-.28.64-.89.37-1.37-.28-.48-.89-.64-1.37-.37l-.51.29.11-.4c.14-.53-.17-1.08-.71-1.22-.53-.14-1.08.17-1.22.71l-.62,2.33-2.61,1.5-1.6-.92v-3.01l1.71-1.71c.39-.39.39-1.02,0-1.41s-1.02-.39-1.41,0l-.29.29v-.59c0-.55-.45-1-1-1s-1,.45-1,1v.59l-.29-.29c-.39-.39-1.02-.39-1.41,0s-.39,1.02,0,1.41l1.71,1.71v3.01l-1.6.92-2.61-1.5-.62-2.33c-.14-.53-.69-.85-1.22-.71-.53.14-.85.69-.71,1.22l.11.4-.51-.29c-.48-.28-1.09-.11-1.37.37s-.11,1.09.37,1.37l.51.29-.4.11c-.53.14-.85.69-.71,1.22.12.45.52.74.96.74.09,0,.17-.01.26-.03l2.33-.62,2.61,1.5v1.84l-2.61,1.5-2.33-.62c-.53-.14-1.08.17-1.22.71s.17,1.08.71,1.22l.4.11-.51.29c-.48.28-.64.89-.37,1.37.19.32.52.5.87.5.17,0,.34-.04.5-.13l.51-.29-.11.4c-.14.53.17,1.08.71,1.22.09.02.17.03.26.03.44,0,.85-.29.96-.74l.62-2.33,2.61-1.5,1.6.92v3.01l-1.71,1.71c-.39.39-.39,1.02,0,1.41s1.02.39,1.41,0l.29-.29v.59c0,.55.45,1,1,1s1-.45,1-1v-.59l.29.29c.2.2.45.29.71.29s.51-.1.71-.29c.39-.39.39-1.02,0-1.41l-1.71-1.71v-3.01l1.6-.92,2.61,1.5.62,2.33c.12.45.52.74.96.74.09,0,.17-.01.26-.03.53-.14.85-.69.71-1.22l-.11-.4.51.29c.16.09.33.13.5.13.35,0,.68-.18.87-.5.28-.48.11-1.09-.37-1.37l-.51-.29.4-.11c.53-.14.85-.69.71-1.22ZM23.6,15.92l-1.6.92-1.6-.92v-1.85l1.6-.92,1.6.92v1.85Z"/></svg>