<?xml version="1.0" encoding="UTF-8"?><svg id="Flat" xmlns="http://www.w3.org/2000/svg" viewBox="0 0 64 64"><defs><style>.cls-1{fill:#759dd1;}.cls-1,.cls-2,.cls-3,.cls-4,.cls-5,.cls-6{stroke-width:0px;}.cls-2{fill:#85b9db;}.cls-3{fill:#536882;}.cls-4{fill:#d3dce5;}.cls-5{fill:#b8c3d5;}.cls-6{fill:#a26a55;}</style></defs><path class="cls-3" d="M9,45h10v7c0,1.1-.9,2-2,2h-6c-1.1,0-2-.9-2-2v-7h0Z"/><path class="cls-3" d="M45,45h10v7c0,1.1-.9,2-2,2h-6c-1.1,0-2-.9-2-2v-7h0Z"/><path class="cls-4" d="M49.15,17.79l-.76-2.19-.58-1.67c-.48-1.73-2.05-2.93-3.85-2.93h-2.96l-9.91-3.25-8.09,3.25h-2.96c-1.8,0-3.37,1.2-3.85,2.93l-4.19,12.07h40l-2.85-8.21Z"/><path class="cls-1" d="M13,24v2c0,.55-.45,1-1,1h-6c-1.1,0-2-.9-2-2v-3c0-1.1.9-2,2-2h3c2.21,0,4,1.79,4,4Z"/><path class="cls-1" d="M60,22v3c0,1.1-.9,2-2,2h-6c-.55,0-1-.45-1-1v-2c0-2.21,1.79-4,4-4h3c1.1,0,2,.9,2,2Z"/><path class="cls-2" d="M56,42c-16.39,2.68-32.4,2.78-48,0l.73-12.28c.15-2.09,1.89-3.72,3.99-3.72h38.55c2.1,0,3.84,1.62,3.99,3.72l.73,12.28Z"/><rect class="cls-4" x="6" y="42" width="52" height="6" rx="2" ry="2"/><rect class="cls-5" x="23" y="42" width="18" height="6"/><circle class="cls-4" cx="17" cy="34" r="4"/><circle class="cls-4" cx="47" cy="34" r="4"/><path class="cls-6" d="M41,10v1h-18v-1c0-2.21,1.79-4,4-4,.38,0,.74.05,1.09.15.39-1.8,1.99-3.15,3.91-3.15s3.52,1.35,3.91,3.15c.35-.1.71-.15,1.09-.15,2.21,0,4,1.79,4,4Z"/><path class="cls-6" d="M49.15,17.79c-.31.2-.6.45-.84.74-.67.82-.97,1.97-1.85,2.58-.56.39-1.27.49-1.96.46-.58-.03-1.18-.16-1.66-.51-.56-.42-.87-1.09-1.16-1.73-.53-1.15-1.16-2.41-2.34-2.87-.76-.29-1.61-.19-2.4.02-.82.23-1.74.57-2.49.16-.66-.36-.93-1.16-.99-1.91-.07-.74,0-1.5-.21-2.22-.21-.71-1.08-1.51-1.08-1.51h11.79c1.8,0,3.37,1.2,3.85,2.93l.58,1.67.76,2.19Z"/><path class="cls-1" d="M38,33h-12c-.55,0-1-.45-1-1s.45-1,1-1h12c.55,0,1,.45,1,1s-.45,1-1,1Z"/><path class="cls-1" d="M38,37h-12c-.55,0-1-.45-1-1s.45-1,1-1h12c.55,0,1,.45,1,1s-.45,1-1,1Z"/></svg>