<?xml version="1.0" encoding="UTF-8"?><svg id="Flat" xmlns="http://www.w3.org/2000/svg" viewBox="0 0 64 64"><defs><style>.cls-1{fill:#759dd1;}.cls-1,.cls-2,.cls-3,.cls-4,.cls-5,.cls-6{stroke-width:0px;}.cls-2{fill:#85b9db;}.cls-3{fill:#536882;}.cls-4{fill:#d3dce5;}.cls-5{fill:#b8c3d5;}.cls-6{fill:#edae65;}</style></defs><path class="cls-3" d="M53,58h-6c-1.1,0-2-.9-2-2v-4c3.33-2.67,6.67-2.67,10,0v4c0,1.1-.9,2-2,2Z"/><path class="cls-3" d="M17,58h-6c-1.1,0-2-.9-2-2v-4c3.33-2.67,6.67-2.67,10,0v4c0,1.1-.9,2-2,2Z"/><path class="cls-1" d="M13,28v2c0,.55-.45,1-1,1h-6c-1.1,0-2-.9-2-2v-3c0-1.1.9-2,2-2h3c2.21,0,4,1.79,4,4Z"/><path class="cls-1" d="M60,26v3c0,1.1-.9,2-2,2h-6c-.55,0-1-.45-1-1v-2c0-2.21,1.79-4,4-4h3c1.1,0,2,.9,2,2Z"/><path class="cls-2" d="M56,46c-16,3.3-32,3.3-48,0l.73-12.28c.15-2.09,1.89-3.72,3.99-3.72h38.55c2.1,0,3.84,1.62,3.99,3.72l.73,12.28Z"/><rect class="cls-4" x="6" y="46" width="52" height="6" rx="2" ry="2"/><rect class="cls-5" x="23" y="46" width="18" height="6"/><path class="cls-4" d="M52,30H12l4.19-12.07c.48-1.73,2.05-2.93,3.85-2.93h23.92c1.8,0,3.37,1.2,3.85,2.93l.58,1.67,3.61,10.4Z"/><circle class="cls-4" cx="17" cy="38" r="4"/><circle class="cls-4" cx="47" cy="38" r="4"/><path class="cls-1" d="M38,37h-12c-.55,0-1-.45-1-1s.45-1,1-1h12c.55,0,1,.45,1,1s-.45,1-1,1Z"/><path class="cls-1" d="M38,41h-12c-.55,0-1-.45-1-1s.45-1,1-1h12c.55,0,1,.45,1,1s-.45,1-1,1Z"/><path class="cls-6" d="M49.59,18.44l1.87,1.02-1.87,1.02c-1.51.82-2.75,2.06-3.57,3.57l-1.02,1.87-1.02-1.87c-.82-1.51-2.06-2.75-3.57-3.57l-1.87-1.02,1.87-1.02c1.51-.82,2.75-2.06,3.57-3.57l1.02-1.87,1.02,1.87c.82,1.51,2.06,2.75,3.57,3.57Z"/><path class="cls-6" d="M56.71,10.76l1.29.71-1.29.71c-1.04.57-1.9,1.43-2.47,2.47l-.71,1.29-.71-1.29c-.57-1.04-1.43-1.9-2.47-2.47l-1.29-.71,1.29-.71c1.04-.57,1.9-1.43,2.47-2.47l.71-1.29.71,1.29c.57,1.04,1.43,1.9,2.47,2.47Z"/></svg>