<?xml version="1.0" encoding="UTF-8"?><svg id="Flat" xmlns="http://www.w3.org/2000/svg" viewBox="0 0 64 64"><defs><style>.cls-1{fill:#85b9db;}.cls-1,.cls-2,.cls-3{stroke-width:0px;}.cls-2{fill:#536882;}.cls-3{fill:#d3dce5;}</style></defs><path class="cls-3" d="M42.87,34.52l-6.46-17.33c-.72-2.02-2.64-3.38-4.78-3.38h-4.68v-4h4.68c3.84,0,7.28,2.43,8.56,6.05l6.46,17.33c-.43,2.61-1.53,3.48-3.77,1.33Z"/><path class="cls-1" d="M29.95,11.81h0c0,2.21-1.79,4-4,4h-3s-1.45,2.89-1.45,2.89c-.34.68-1.03,1.11-1.79,1.11h-5.76c-2.38-5.71-1.83-10.95,0-16h5.76c.76,0,1.45.43,1.79,1.11l1.45,2.89h3c2.21,0,4,1.79,4,4Z"/><rect class="cls-2" x="8.95" y="3.81" width="5" height="16"/><path class="cls-1" d="M49.98,36.47c-1.87,2.66-4.45,3.37-7.52,2.74l-1.03-3.07c-.19-.52.08-1.09.6-1.28l5.64-2.05c.52-.19,1.09.08,1.28.6l1.03,3.07Z"/><path class="cls-1" d="M52.29,39.89l1.43,3.92c.18.5.16,1.05-.07,1.53l-.67,1.45c-.11.24-.12.5-.04.75l3.16,9.1c.38,1.04-.16,2.19-1.19,2.56l-1.88.68c-1.04.38-2.19-.16-2.56-1.19l-3.16-9.08c-.09-.26-.28-.46-.52-.58l-1.43-.67c-.48-.22-.85-.63-1.03-1.13l-1.43-3.92c2.05-2.92,5.11-4.18,9.4-3.42Z"/><rect class="cls-2" x="39.91" y="37.72" width="14" height="4" rx="1" ry="1" transform="translate(-10.77 18.46) rotate(-20.02)"/></svg>