<?xml version="1.0" encoding="UTF-8"?><svg id="Flat" xmlns="http://www.w3.org/2000/svg" viewBox="0 0 64 64"><defs><style>.cls-1{fill:#759dd1;}.cls-1,.cls-2,.cls-3,.cls-4,.cls-5{stroke-width:0px;}.cls-2{fill:#85b9db;}.cls-3{fill:#536882;}.cls-4{fill:#d3dce5;}.cls-5{fill:#b8c3d5;}</style></defs><path class="cls-3" d="M6,54h4v5c0,.55-.45,1-1,1h-2c-.55,0-1-.45-1-1v-5h0Z"/><path class="cls-3" d="M24,54h4v5c0,.55-.45,1-1,1h-2c-.55,0-1-.45-1-1v-5h0Z"/><path class="cls-4" d="M50,19.75v32.25h-4V19.75c0-2.07-1.68-3.75-3.75-3.75h-.01c-2.07,0-3.75,1.68-3.75,3.75v5.1c0,3.31-1.94,6.32-4.95,7.7l-1.54.7-2,.91c-1.05-1.45-1.03-2.92,0-4.4l2-.91.45-.21c1.24-.57,2.04-1.81,2.04-3.17v-5.72c0-4.28,3.47-7.75,7.75-7.75h.01c4.28,0,7.75,3.47,7.75,7.75Z"/><path class="cls-2" d="M27.36,25l-1.61-6H8.25l-1.61,6-2.64,2v28c0,.55.45,1,1,1h24c.55,0,1-.45,1-1v-28l-2.64-2Z"/><path class="cls-3" d="M22,22h-10c-.55,0-1-.45-1-1v-4.5c0-3.31,2.69-6,6-6s6,2.69,6,6v4.5c0,.55-.45,1-1,1ZM13,20h8v-3.5c0-2.21-1.79-4-4-4s-4,1.79-4,4v3.5Z"/><polygon class="cls-5" points="32 28.85 32 33.25 30 34.16 30 29.76 32 28.85"/><polygon class="cls-4" points="30 27 30 34 4 34 4 27 6.64 25 8.25 19 25.75 19 27.36 25 30 27"/><rect class="cls-5" x="12" y="23.5" width="10" height="6"/><rect class="cls-1" x="9" y="39" width="4" height="4"/><rect class="cls-1" x="17" y="39" width="8" height="12"/><rect class="cls-1" x="9" y="47" width="4" height="4"/><path class="cls-1" d="M60,60h-24l.72-4.33c.16-.96,1-1.67,1.97-1.67h18.61c.98,0,1.81.71,1.97,1.67l.72,4.33Z"/><path class="cls-2" d="M50.79,55.44c-1.17,2.29-4.41,2.29-5.57,0-.07-.14-.14-.29-.21-.44-1.17-2.57-1.1-4.9-1-6h8c.1,1.1.17,3.43-1,6-.07.15-.14.3-.21.44Z"/></svg>