<?xml version="1.0" encoding="UTF-8"?><svg id="Flat" xmlns="http://www.w3.org/2000/svg" viewBox="0 0 64 64"><defs><style>.cls-1{fill:#759dd1;}.cls-1,.cls-2,.cls-3,.cls-4{stroke-width:0px;}.cls-2{fill:#85b9db;}.cls-3{fill:#536882;}.cls-4{fill:#325068;}</style></defs><path class="cls-2" d="M34.82,48.47l-.14.04-7.43,2.06-4.66,1.29-4.48,1.24-1.91-9.38c-.38-1.84-1.16-3.58-2.3-5.07l-1.93-2.54s-3.13-4.16-6.25-8.32c-1.3-1.73-1.69-3.02-1.72-3.92-.03-1.36,1.3-2.36,2.59-1.95.73.23,1.63.78,2.67,1.97.2.24.41.49.62.78.67.89,1.33,1.77,1.97,2.62l-.74-2.65v-.02l-2.58-9.32c-.58-2.09-.49-3.43-.17-4.28.46-1.26,2.04-1.71,3.09-.89.01,0,.02.01.03.02.67.53,1.38,1.53,1.95,3.38l-.59-2.13c-.57-2.08-.48-3.42-.17-4.28,0-.01.01-.02.01-.03.48-1.24,2.04-1.67,3.09-.85.01,0,.02.01.03.02.71.57,1.48,1.67,2.06,3.75l.69,2.51c-.58-2.09-.48-3.43-.17-4.28,0-.01.01-.02.01-.03.48-1.24,2.04-1.67,3.09-.86.01,0,.02.01.03.02.7.57,1.48,1.67,2.06,3.76l1.39,5.01c-.58-2.08-.49-3.42-.17-4.28,0-.01.01-.01.01-.02.47-1.25,2.07-1.69,3.11-.84.71.57,1.47,1.66,2.05,3.72,0,.01,0,.02,0,.03,1.39,5.02,2.78,10.03,2.78,10.03l.35,1.28c.71,2.54.63,5.23-.22,7.72l-1.15,3.39c-.34,1-.37,2.08-.09,3.09l3.18,8.21Z"/><path class="cls-1" d="M27.77,26.3c-.09.02-.18.04-.27.04-.43,0-.84-.29-.96-.74l-5.06-18.25s.02.01.03.02c.7.57,1.48,1.67,2.06,3.76l1.39,5.01c-.58-2.08-.49-3.42-.17-4.28,0-.01.01-.01.01-.02l3.67,13.23c.15.53-.17,1.08-.7,1.23Z"/><path class="cls-1" d="M21.14,21.84c-.09.03-.18.04-.27.04-.44,0-.84-.29-.96-.74l-4.14-14.9s.02.01.03.02c.71.57,1.48,1.67,2.06,3.75l.69,2.51c-.58-2.09-.48-3.43-.17-4.28,0-.01.01-.02.01-.03l3.44,12.4c.15.53-.16,1.08-.69,1.23Z"/><path class="cls-1" d="M16.12,23.23c-.09.02-.18.04-.27.04-.43,0-.84-.29-.96-.74l-3.44-12.4s.02.01.03.02c.67.53,1.38,1.53,1.95,3.38l-.59-2.13c-.57-2.08-.48-3.42-.17-4.28,0-.01.01-.02.01-.03l4.14,14.91c.15.53-.16,1.08-.7,1.23Z"/><path class="cls-1" d="M22.25,35.06c-.13.05-.27.08-.4.08-.39,0-.76-.22-.92-.6-1.77-4.06-5.52-2.89-5.94-2.74-.4.14-.86.01-1.12-.33l-4.78-6.19c-.34-.44-.26-1.05.17-1.39.2.24.41.49.62.78.67.89,1.33,1.77,1.97,2.62l-.74-2.65,3.93,5.07c2.2-.5,5.89-.16,7.72,4.03.22.51-.01,1.1-.51,1.32Z"/><path class="cls-3" d="M36.69,52.48l-9.43,2.62-8.69,2.41c-.54.14-1.09-.17-1.24-.7l-.62-2.25c-.15-.53.17-1.08.7-1.23l5.19-1.44,12.13-3.37.8-.22c.54-.14,1.09.17,1.23.7l.03.09.6,2.16c.15.53-.17,1.08-.7,1.23Z"/><path class="cls-4" d="M36.69,52.48l-9.43,2.62-2.49-.69c-1.19-.33-2.03-1.35-2.17-2.52l12.13-3.37,2.06.57.6,2.16c.15.53-.17,1.08-.7,1.23Z"/><path class="cls-1" d="M34.82,48.47l-7.57,2.1-2.73-.76,3.94-10.17c.15-.6.12-1.23-.08-1.82l-1.15-3.4c-.99-2.88-1.08-5.96-.26-8.9l.35-1.27,2.64-9.53s0,.02,0,.03c1.39,5.02,2.78,10.03,2.78,10.03l.35,1.28c.71,2.54.63,5.23-.22,7.72l-1.15,3.39c-.34,1-.37,2.08-.09,3.09l3.18,8.21Z"/><path class="cls-1" d="M34.68,48.51l-7.43,2.06-4.66,1.29c-.04-.37-.02-.76.09-1.14l.63-2.25c.36-1.3,1.55-2.2,2.89-2.2.27,0,.54.03.8.11l7.68,2.13Z"/><path class="cls-2" d="M58,23.87c-.03.9-.42,2.19-1.72,3.92-3.12,4.16-6.25,8.32-6.25,8.32l-1.93,2.54c-1.14,1.49-1.92,3.23-2.3,5.07l-1.91,9.38-16.71-4.63,3.18-8.21c.28-1.01.25-2.09-.09-3.09l-1.15-3.39c-.85-2.49-.93-5.18-.22-7.72l.35-1.28s1.39-5.01,2.78-10.03c.58-2.08,1.35-3.18,2.06-3.75,1.04-.85,2.64-.41,3.11.84,0,.01.01.01.01.02.32.86.41,2.2-.17,4.28l1.39-5.01c.58-2.09,1.36-3.19,2.06-3.76.01-.01.02-.02.03-.02,1.05-.81,2.61-.38,3.09.86,0,.01.01.02.01.03.31.85.41,2.19-.17,4.28l.69-2.51c.58-2.08,1.35-3.18,2.06-3.75.01-.01.02-.02.03-.02,1.05-.82,2.61-.39,3.09.85,0,.01.01.02.01.03.31.86.4,2.2-.17,4.28l-.59,2.13c.57-1.85,1.28-2.85,1.95-3.38t.02-.02c1.05-.82,2.64-.37,3.1.89.32.85.41,2.19-.17,4.28l-2.63,9.51-.69,2.48c.64-.85,1.3-1.73,1.97-2.62.04-.05.08-.11.13-.16,1.24-1.63,2.32-2.33,3.16-2.59,1.29-.41,2.62.59,2.59,1.95Z"/><path class="cls-1" d="M40.52,7.35l-5.06,18.25c-.12.45-.53.74-.96.74-.09,0-.18-.02-.27-.04-.53-.15-.85-.7-.7-1.23l3.67-13.23s.01.01.01.02c.32.86.41,2.2-.17,4.28l1.39-5.01c.58-2.09,1.36-3.19,2.06-3.76.01-.01.02-.02.03-.02Z"/><path class="cls-1" d="M46.23,6.24l-4.14,14.9c-.12.45-.52.74-.96.74-.09,0-.18-.01-.27-.04-.53-.15-.84-.7-.69-1.23l3.44-12.4s.01.02.01.03c.31.85.41,2.19-.17,4.28l.69-2.51c.58-2.08,1.35-3.18,2.06-3.75.01-.01.02-.02.03-.02Z"/><path class="cls-1" d="M50.54,10.13l-3.43,12.4c-.12.45-.53.74-.96.74-.09,0-.18-.02-.27-.04-.54-.15-.85-.7-.7-1.23l4.14-14.91s.01.02.01.03c.31.86.4,2.2-.17,4.28l-.59,2.13c.57-1.85,1.28-2.85,1.95-3.38t.02-.02Z"/><path class="cls-1" d="M52.48,25.96l-4.35,5.51c-.27.34-.72.47-1.13.33-.41-.15-4.16-1.32-5.93,2.74-.16.38-.53.6-.92.6-.13,0-.27-.03-.4-.08-.5-.22-.73-.81-.51-1.32,1.83-4.2,5.53-4.53,7.73-4.03l3.87-4.9-.69,2.48c.64-.85,1.3-1.73,1.97-2.62.04-.05.08-.11.13-.16.02,0,.04.03.06.04.43.34.51.97.17,1.41Z"/><rect class="cls-3" x="24.55" y="50.74" width="20.81" height="4.34" rx="1" ry="1" transform="translate(15.41 -7.41) rotate(15.5)"/></svg>