<?xml version="1.0" encoding="UTF-8"?><svg id="Flat" xmlns="http://www.w3.org/2000/svg" viewBox="0 0 64 64"><defs><style>.cls-1{fill:#759dd1;}.cls-1,.cls-2,.cls-3,.cls-4{stroke-width:0px;}.cls-2{fill:#85b9db;}.cls-3{fill:#536882;}.cls-4{fill:#d3dce5;}</style></defs><rect class="cls-4" x="13.37" y="41.63" width="18" height="7.73"/><path class="cls-4" d="M46.85,22.36c-.55,0-1-.45-1-1v-6.85c0-2.28,1.85-4.13,4.13-4.13,1.17,0,2.13-.95,2.13-2.13v-4.25c0-.55.45-1,1-1s1,.45,1,1v4.25c0,2.28-1.85,4.13-4.13,4.13-1.17,0-2.13.95-2.13,2.13v6.85c0,.55-.45,1-1,1Z"/><path class="cls-1" d="M45.68,19.36h2.34c.55,0,1,.45,1,1v5.34h-4.34v-5.34c0-.55.45-1,1-1Z"/><path class="cls-3" d="M34.37,39h5c1.1,0,2-.9,2-2v-4.49h-8.5v6.49h1.5Z"/><path class="cls-2" d="M13.37,43v-9.51l2-2.49v-8.5c0-5.25,4.25-9.5,9.5-9.5h0c5.25,0,9.5,4.25,9.5,9.5v1.2s16,0,16,0c1.1,0,2,.9,2,2v6.3c0,1.1-.9,2-2,2h-16v9H13.37Z"/><path class="cls-3" d="M12.37,48h20c1.1,0,2,.9,2,2v6H10.37v-6c0-1.1.9-2,2-2Z"/><path class="cls-2" d="M38.19,60H6.55c-.62,0-1.09-.55-.99-1.16l.53-3.16c.16-.96,1-1.67,1.97-1.67h28.61c.98,0,1.81.71,1.97,1.67l.53,3.16c.1.61-.37,1.16-.99,1.16Z"/><path class="cls-1" d="M22.75,25.43c-.55,0-1-.45-1-1v-5.86c0-.55.45-1,1-1s1,.45,1,1v5.86c0,.55-.45,1-1,1Z"/><path class="cls-1" d="M26.98,25.43c-.55,0-1-.45-1-1v-5.86c0-.55.45-1,1-1s1,.45,1,1v5.86c0,.55-.45,1-1,1Z"/><rect class="cls-1" x="20.9" y="28.98" width="8" height="8" rx="1" ry="1"/></svg>