<?xml version="1.0" encoding="UTF-8"?><svg id="Flat" xmlns="http://www.w3.org/2000/svg" viewBox="0 0 64 64"><defs><style>.cls-1{fill:#85b9db;}.cls-1,.cls-2,.cls-3{stroke-width:0px;}.cls-2{fill:#536882;}.cls-3{fill:#d3dce5;}</style></defs><rect class="cls-3" x="38.66" y="12.1" width="12.75" height="3.91" transform="translate(3.25 35.96) rotate(-45)"/><path class="cls-2" d="M26.93,43.87c-1.85,0-3.18-1.43-3.68-2.32-.27-.48-.1-1.09.38-1.36.48-.27,1.09-.1,1.36.37.04.07.96,1.63,2.4,1.24.53-.15,1.08.17,1.22.71.14.53-.17,1.08-.71,1.22-.34.09-.66.13-.97.13Z"/><path class="cls-2" d="M43.11,20.25l-2.99,2.99c-2.51-.3-4.28-1.36-4.27-4.27l2.99-2.99c.49-.49,1.3-.49,1.79,0l2.48,2.48c.49.49.49,1.3,0,1.79Z"/><path class="cls-2" d="M54.82,8.15l-3.39,4.32c-.39.49-1.11.53-1.55.09l-3.35-3.35c-.44-.44-.4-1.17.09-1.55l4.32-3.39c.41-.33,1.01-.29,1.38.08l2.42,2.42c.37.37.41.96.08,1.38Z"/><path class="cls-1" d="M40.32,23.44l-4.47-4.47-.2-.2c-.39-.39-1.02-.39-1.41,0l-7.93,7.92-3.58-.33c-.62-.06-1.23.16-1.66.6l-11.84,11.83c-.82.82-.82,2.13,0,2.95l1.34,1.34c.37.37.85.58,1.37.61l2.27.12c.84.04,1.57.59,1.85,1.39l4.17,11.88c1.08,3.07,4.99,3.96,7.29,1.66l10.96-10.96c1.26-1.26,1.64-3.15.97-4.8l-5.02-12.24,5.89-5.89c.39-.39.39-1.02,0-1.41ZM35.66,44.72l-10.27,10.27-3.95-11.25,9.81-9.81,4.41,10.79Z"/></svg>