<?xml version="1.0" encoding="UTF-8"?><svg id="Flat" xmlns="http://www.w3.org/2000/svg" viewBox="0 0 64 64"><defs><style>.cls-1{fill:#85b9db;}.cls-1,.cls-2,.cls-3{stroke-width:0px;}.cls-2{fill:#536882;}.cls-3{fill:#d3dce5;}</style></defs><path class="cls-1" d="M28.35,16.98l-13.14,1.27c-3.5.27-6.19,3.19-6.19,6.7v18.56h19.04l2.47-1.83v-22.69c0-1.17-1-2.11-2.18-2.01Z"/><polyline class="cls-3" points="37.69 28.74 51.7 5.74 55.15 7.85 40.76 31.47"/><path class="cls-2" d="M37.62,28.74h.08c1.71,0,3.1,1.39,3.1,3.1v6.74h-6.27v-6.74c0-1.71,1.39-3.1,3.1-3.1Z"/><path class="cls-3" d="M41.87,36.58v6.91c-.63,2.12-3.17,4.82-5.88,5.88h-9v4.43c-7.13,2.6-13.41,3.26-17.97,0v-4.43h-2.14c-1.21,0-2.19-.98-2.19-2.19v-.05c0-1.21.98-2.19,2.19-2.19h2.14v-4.42h19.04l5.31-3.94h8.5Z"/><path class="cls-1" d="M30.24,60H5.77c-.69,0-1.18-.67-.96-1.33l1.02-3.14c.34-1.04,1.3-1.74,2.39-1.74h19.56c1.09,0,2.06.7,2.39,1.74l1.02,3.14c.21.65-.27,1.33-.96,1.33Z"/><path class="cls-1" d="M31.32,44.94v4.43H6.88c-1.21,0-2.19-.98-2.19-2.19v-.05c0-1.21.98-2.19,2.19-2.19h24.44Z"/><circle class="cls-2" cx="41.87" cy="49.37" r="5.88"/><circle class="cls-3" cx="41.87" cy="49.37" r="2.21"/><path class="cls-2" d="M22.61,28.31v12.2h-13.59v-14.23h11.57c1.12,0,2.02.91,2.02,2.03Z"/><path class="cls-3" d="M18.33,32.12h-4.59c-.55,0-1-.45-1-1s.45-1,1-1h4.59c.55,0,1,.45,1,1s-.45,1-1,1Z"/><path class="cls-3" d="M18.33,36.62h-4.59c-.55,0-1-.45-1-1s.45-1,1-1h4.59c.55,0,1,.45,1,1s-.45,1-1,1Z"/><path class="cls-1" d="M51.1,14.39l-3.44-2.13c-.47-.29-.62-.91-.34-1.38l3.83-6.39c.29-.48.92-.64,1.4-.34l3.45,2.12c.47.29.62.91.34,1.38l-3.84,6.4c-.29.48-.92.64-1.4.34Z"/><path class="cls-3" d="M59.31,10.58h-7.09c-.55,0-1-.45-1-1s.45-1,1-1h7.09c.55,0,1,.45,1,1s-.45,1-1,1Z"/></svg>