<?xml version="1.0" encoding="UTF-8"?><svg id="Flat" xmlns="http://www.w3.org/2000/svg" viewBox="0 0 64 64"><defs><style>.cls-1{fill:#85b9db;}.cls-1,.cls-2,.cls-3,.cls-4,.cls-5{stroke-width:0px;}.cls-2{fill:#536882;}.cls-3{fill:#d3dce5;}.cls-4{fill:#a26a55;}.cls-5{fill:#edae65;}</style></defs><path class="cls-5" d="M55,4c-2.76,0-5,2.24-5,5,0-2.76-2.24-5-5-5s-5,2.24-5,5c0-2.76-2.24-5-5-5s-5,2.24-5,5c0-2.76-2.24-5-5-5s-5,2.24-5,5v31h40V9c0-2.76-2.24-5-5-5Z"/><path class="cls-4" d="M55,4h0c2.76,0,5,2.24,5,5v31h-10V9c0-2.76,2.24-5,5-5Z"/><path class="cls-4" d="M35,4h0c2.76,0,5,2.24,5,5v31h-10V9c0-2.76,2.24-5,5-5Z"/><path class="cls-1" d="M31.66,30.61l15.06-2.71c2.15-.39,2.76-3.3.87-4.39-.02-.01-.04-.02-.06-.03-.39-.22-.78-.33-1.13-.39-.47-.08-.85-.46-.9-.94-.08-.8-.4-1.97-1.46-2.77-.56-.42-1.15-.61-1.64-.69-.52-.09-.9-.5-.94-1.03s-.2-1.15-.64-1.75c-.17-.23-.36-.43-.57-.59-1.13-.9-2.82-.48-3.52.79-2.2,3.99-4.49,8.16-6.68,12.15l1.6,2.36Z"/><rect class="cls-3" x="19.82" y="29.08" width="3.82" height="13.88" transform="translate(38.31 -2.64) rotate(54.31)"/><path class="cls-2" d="M31.66,30.2l-1.24-1.73c-.29-.4-.82-.53-1.25-.31l-3.4,1.67c-.55.27-.73.98-.37,1.48l1.97,2.74c.36.5,1.09.56,1.52.12l2.67-2.68c.34-.35.39-.89.1-1.29Z"/><path class="cls-1" d="M20.69,40.3l-3.34-4.66c-.62-.86-1.81-1.05-2.67-.44l-9.83,7.07c-.52.37-.82.98-.79,1.62l-.06,13.48c.04,1.05.92,1.88,1.98,1.84l9.46.41c1.06-.04,1.88-.92,1.84-1.97l-.91-11.89,3.89-2.8c.85-.61,1.05-1.81.43-2.66ZM7.75,55.32l.19-4.01,4.27-3.43.32,7.27-4.78.17Z"/></svg>