<?xml version="1.0" encoding="UTF-8"?><svg id="Flat" xmlns="http://www.w3.org/2000/svg" viewBox="0 0 64 64"><defs><style>.cls-1{fill:#9dabc4;}.cls-2{fill:#325068;}.cls-3{fill:#d3dce5;}.cls-4{fill:#536882;}.cls-5{fill:#78b24c;}</style></defs><path class="cls-1" d="m27.52,33.79l-2.61-2.27-2.54,2.19-2.53-2.19-2.53,2.19-2.53-2.19-2.59,2.24,4.09-9.34c1.48-3.23,5.67-3.23,7.14,0l4.1,9.37Z"/><polygon class="cls-2" points="35.94 53 4 52.47 7.11 45.37 12.18 33.77 12.19 33.76 14.78 31.52 17.31 33.71 19.84 31.52 22.37 33.71 24.91 31.52 27.52 33.79 27.53 33.79 30.98 41.67 33.4 47.21 34.19 49 35.94 53"/><path class="cls-3" d="m51.52,29.79l-2.61-2.27-2.54,2.19-2.53-2.19-2.53,2.19-2.53-2.19-2.58,2.23,4.08-9.33c1.48-3.23,5.67-3.23,7.14,0l4.1,9.37Z"/><polygon class="cls-4" points="59.94 49 27.77 49 36.2 29.75 38.78 27.52 41.31 29.71 43.84 27.52 46.37 29.71 48.91 27.52 51.52 29.79 51.53 29.8 59.94 49"/><path class="cls-5" d="m55,45c-1.64,0-3.09.8-4,2.02-.84-.63-1.87-1.02-3-1.02-1.88,0-3.51,1.05-4.36,2.59-.91-.98-2.2-1.59-3.64-1.59-1.64,0-3.09.8-4,2.03-.91-1.22-2.36-2.03-4-2.03s-3.09.8-4,2.03c-.91-1.22-2.36-2.03-4-2.03-1.44,0-2.73.62-3.64,1.59-.85-1.54-2.47-2.59-4.36-2.59-1.13,0-2.16.39-3,1.02-.91-1.22-2.36-2.02-4-2.02-2.76,0-5,2.24-5,5v10h56v-10c0-2.76-2.24-5-5-5Z"/><path class="cls-3" d="m16.22,9.29c-.83-.4-1.58-.34-2.24-.1,0-.06.02-.12.02-.19,0-1.66-1.34-3-3-3s-3,1.34-3,3c0,.06.02.13.02.19-.66-.24-1.41-.3-2.24.1-1.12.54-1.78,1.72-1.78,2.96h0c0,1.52,1.23,2.75,2.75,2.75h8.51c1.52,0,2.75-1.23,2.75-2.75h0c0-1.24-.66-2.42-1.78-2.96Z"/><path class="cls-3" d="m49.22,6.29c-.83-.4-1.58-.34-2.24-.1,0-.06.02-.12.02-.19,0-1.66-1.34-3-3-3s-3,1.34-3,3c0,.06.02.13.02.19-.66-.24-1.41-.3-2.24.1-1.12.54-1.78,1.72-1.78,2.96h0c0,1.52,1.23,2.75,2.75,2.75h8.51c1.52,0,2.75-1.23,2.75-2.75h0c0-1.24-.66-2.42-1.78-2.96Z"/></svg>