<?xml version="1.0" encoding="UTF-8"?><svg id="Flat" xmlns="http://www.w3.org/2000/svg" viewBox="0 0 64 64"><defs><style>.cls-1{fill:#edae65;}.cls-2{fill:#6581c6;}.cls-3{fill:#d88852;}.cls-4{fill:#536882;}.cls-5{fill:#759dd1;}</style></defs><circle class="cls-1" cx="32" cy="41" r="15"/><path class="cls-5" d="m60,42v8c-.57-.01-1.83-.13-3-1-.44-.33-.77-.69-1-1-.23.31-.56.67-1,1-1.17.87-2.43.99-3,1-.57-.01-1.83-.13-3-1-.44-.33-.77-.69-1-1-.23.31-.56.67-1,1-1.17.87-2.43.99-3,1-.57-.01-1.83-.13-3-1-.44-.33-.77-.69-1-1-.23.31-.56.67-1,1-1.17.87-2.43.99-3,1-.57-.01-1.83-.13-3-1-.44-.33-.77-.69-1-1-.23.31-.56.67-1,1-1.17.87-2.43.99-3,1-.57-.01-1.83-.13-3-1-.44-.33-.77-.69-1-1-.23.31-.56.67-1,1-1.17.87-2.43.99-3,1-.57-.01-1.83-.13-3-1-.44-.33-.77-.69-1-1-.23.31-.56.67-1,1-1.17.87-2.43.99-3,1-.57-.01-1.83-.13-3-1-.44-.33-.77-.69-1-1-.23.31-.56.67-1,1-1.17.87-2.43.99-3,1v-8c.57-.01,1.83-.13,3-1,.44-.33.77-.69,1-1,.23.31.56.67,1,1,1.17.87,2.43.99,3,1,.57-.01,1.83-.13,3-1,.44-.33.77-.69,1-1,.23.31.56.67,1,1,1.17.87,2.43.99,3,1,.57-.01,1.83-.13,3-1,.44-.33.77-.69,1-1,.23.31.56.67,1,1,1.17.87,2.43.99,3,1,.57-.01,1.83-.13,3-1,.44-.33.77-.69,1-1,.23.31.56.67,1,1,1.17.87,2.43.99,3,1,.57-.01,1.83-.13,3-1,.44-.33.77-.69,1-1,.23.31.56.67,1,1,1.17.87,2.43.99,3,1,.57-.01,1.83-.13,3-1,.44-.33.77-.69,1-1,.23.31.56.67,1,1,1.17.87,2.43.99,3,1,.57-.01,1.83-.13,3-1,.44-.33.77-.69,1-1,.23.31.56.67,1,1,1.17.87,2.43.99,3,1Z"/><path class="cls-2" d="m4,58v-8c.57-.01,1.83-.13,3-1,.44-.33.77-.69,1-1,.23.31.56.67,1,1,1.17.87,2.43.99,3,1,.57-.01,1.83-.13,3-1,.44-.33.77-.69,1-1,.23.31.56.67,1,1,1.17.87,2.43.99,3,1,.57-.01,1.83-.13,3-1,.44-.33.77-.69,1-1,.23.31.56.67,1,1,1.17.87,2.43.99,3,1,.57-.01,1.83-.13,3-1,.44-.33.77-.69,1-1,.23.31.56.67,1,1,1.17.87,2.43.99,3,1,.57-.01,1.83-.13,3-1,.44-.33.77-.69,1-1,.23.31.56.67,1,1,1.17.87,2.43.99,3,1,.57-.01,1.83-.13,3-1,.44-.33.77-.69,1-1,.23.31.56.67,1,1,1.17.87,2.43.99,3,1,.57-.01,1.83-.13,3-1,.44-.33.77-.69,1-1,.23.31.56.67,1,1,1.17.87,2.43.99,3,1v8H4Z"/><path class="cls-3" d="m32,23c-.55,0-1-.45-1-1v-4c0-.55.45-1,1-1s1,.45,1,1v4c0,.55-.45,1-1,1Z"/><path class="cls-3" d="m22,25.68c-.35,0-.68-.18-.87-.5l-2-3.46c-.28-.48-.11-1.09.37-1.37.48-.28,1.09-.11,1.37.37l2,3.46c.28.48.11,1.09-.37,1.37-.16.09-.33.13-.5.13Z"/><path class="cls-3" d="m14.68,33c-.17,0-.34-.04-.5-.13l-3.46-2c-.48-.28-.64-.89-.37-1.37.28-.48.89-.64,1.37-.37l3.46,2c.48.28.64.89.37,1.37-.19.32-.52.5-.87.5Z"/><path class="cls-3" d="m42,25.68c-.17,0-.34-.04-.5-.13-.48-.28-.64-.89-.37-1.37l2-3.46c.28-.48.89-.64,1.37-.37.48.28.64.89.37,1.37l-2,3.46c-.19.32-.52.5-.87.5Z"/><path class="cls-3" d="m49.32,33c-.35,0-.68-.18-.87-.5-.28-.48-.11-1.09.37-1.37l3.46-2c.48-.28,1.09-.11,1.37.37.28.48.11,1.09-.37,1.37l-3.46,2c-.16.09-.33.13-.5.13Z"/><path class="cls-4" d="m56.78,12.06c-1.99,0-3.25.83-4,1.88-.75-1.05-2.01-1.88-4-1.88-.55,0-1,.45-1,1s.45,1,1,1c2.21,0,2.79,1.53,2.95,2.44h-.95c-.55,0-1,.45-1,1s.45,1,1,1h4c.55,0,1-.45,1-1s-.45-1-1-1h-.95c.15-.91.73-2.44,2.95-2.44.55,0,1-.45,1-1s-.45-1-1-1Z"/><path class="cls-4" d="m44.67,5c-1.99,0-3.25.83-4,1.88-.75-1.05-2.01-1.88-4-1.88-.55,0-1,.45-1,1s.45,1,1,1c2.81,0,2.99,2.49,3,3h-1c-.55,0-1,.45-1,1s.45,1,1,1h4c.55,0,1-.45,1-1s-.45-1-1-1h-1c0-.51.19-3,3-3,.55,0,1-.45,1-1s-.45-1-1-1Z"/><path class="cls-4" d="m15.22,12.06c-1.99,0-3.25.83-4,1.88-.75-1.05-2.01-1.88-4-1.88-.55,0-1,.45-1,1s.45,1,1,1c2.21,0,2.79,1.53,2.95,2.44h-.95c-.55,0-1,.45-1,1s.45,1,1,1h4c.55,0,1-.45,1-1s-.45-1-1-1h-.95c.15-.91.73-2.44,2.95-2.44.55,0,1-.45,1-1s-.45-1-1-1Z"/><path class="cls-4" d="m27.33,5c-1.99,0-3.25.83-4,1.88-.75-1.05-2.01-1.88-4-1.88-.55,0-1,.45-1,1s.45,1,1,1c2.81,0,2.99,2.49,3,3h-1c-.55,0-1,.45-1,1s.45,1,1,1h4c.55,0,1-.45,1-1s-.45-1-1-1h-1c0-.51.19-3,3-3,.55,0,1-.45,1-1s-.45-1-1-1Z"/></svg>