<?xml version="1.0" encoding="UTF-8"?><svg id="Flat" xmlns="http://www.w3.org/2000/svg" viewBox="0 0 64 64"><defs><style>.cls-1{fill:#edae65;}.cls-2{fill:#d88852;}.cls-3{fill:#78b24c;}.cls-4{fill:#50823f;}</style></defs><path class="cls-2" d="m32,11c-.55,0-1-.45-1-1v-4c0-.55.45-1,1-1s1,.45,1,1v4c0,.55-.45,1-1,1Z"/><path class="cls-2" d="m11,32h-4c-.55,0-1-.45-1-1s.45-1,1-1h4c.55,0,1,.45,1,1s-.45,1-1,1Z"/><path class="cls-2" d="m57,32h-4c-.55,0-1-.45-1-1s.45-1,1-1h4c.55,0,1,.45,1,1s-.45,1-1,1Z"/><path class="cls-2" d="m22,13.68c-.35,0-.68-.18-.87-.5l-2-3.46c-.28-.48-.11-1.09.37-1.37.48-.28,1.09-.11,1.37.37l2,3.46c.28.48.11,1.09-.37,1.37-.16.09-.33.13-.5.13Z"/><path class="cls-2" d="m14.68,21c-.17,0-.34-.04-.5-.13l-3.46-2c-.48-.28-.64-.89-.37-1.37.28-.48.89-.64,1.37-.37l3.46,2c.48.28.64.89.37,1.37-.19.32-.52.5-.87.5Z"/><path class="cls-2" d="m42,13.68c-.17,0-.34-.04-.5-.13-.48-.28-.64-.89-.37-1.37l2-3.46c.28-.48.89-.64,1.37-.37.48.28.64.89.37,1.37l-2,3.46c-.19.32-.52.5-.87.5Z"/><path class="cls-2" d="m49.32,21c-.35,0-.68-.18-.87-.5-.28-.48-.11-1.09.37-1.37l3.46-2c.48-.28,1.09-.11,1.37.37.28.48.11,1.09-.37,1.37l-3.46,2c-.16.09-.33.13-.5.13Z"/><path class="cls-1" d="m47.99,29.7c-.15,8.7-7.25,15.7-15.99,15.7s-15.84-7-15.99-15.7c.15-8.7,7.25-15.7,15.99-15.7s15.84,7,15.99,15.7Z"/><path class="cls-4" d="m60,41h-6.33c-33.67,0-41.67,17-41.67,17h48s0-17.09,0-17Z"/><path class="cls-3" d="m4,41h6.33c33.67,0,41.67,17,41.67,17H4s0-17.09,0-17Z"/></svg>