<?xml version="1.0" encoding="UTF-8"?><svg id="Flat" xmlns="http://www.w3.org/2000/svg" viewBox="0 0 64 64"><defs><style>.cls-1{fill:#edae65;}.cls-2{fill:#b8c3d5;}.cls-3{fill:#536882;}.cls-4{fill:#78b24c;}.cls-5{fill:#50823f;}</style></defs><rect class="cls-1" x="4.03" y="30.83" width="55.97" height="29.17"/><path class="cls-5" d="m26.76,31l13.82-15.84c1.35-1.54,4.37-1.54,5.71,0l13.82,15.84H26.76Z"/><path class="cls-4" d="m3.88,31L22.57,9.56c1.82-2.09,5.91-2.09,7.73,0l18.7,21.43H3.88Z"/><polyline class="cls-3" points="17 60 25.75 31 38.25 31 47 60"/><path class="cls-2" d="m32,39c-.55,0-1-.45-1-1v-3c0-.55.45-1,1-1s1,.45,1,1v3c0,.55-.45,1-1,1Z"/><path class="cls-2" d="m32,46c-.55,0-1-.45-1-1v-3c0-.55.45-1,1-1s1,.45,1,1v3c0,.55-.45,1-1,1Z"/><path class="cls-2" d="m32,53c-.55,0-1-.45-1-1v-3c0-.55.45-1,1-1s1,.45,1,1v3c0,.55-.45,1-1,1Z"/><path class="cls-2" d="m32,60c-.55,0-1-.45-1-1v-3c0-.55.45-1,1-1s1,.45,1,1v3c0,.55-.45,1-1,1Z"/><path class="cls-5" d="m50.99,38.49l-2.21,2.79c-.19.24-.48.38-.78.38s-.59-.14-.78-.38l-2.21-2.79c-.34-.43-.27-1.06.16-1.4.43-.34,1.06-.27,1.4.16l.43.54v-.91c0-.49.45-.88,1-.88s1,.4,1,.88v.91l.43-.54c.34-.43.97-.51,1.4-.16.43.34.51.97.16,1.4Z"/><path class="cls-5" d="m56.83,49.09c.43.34.51.97.16,1.4l-2.21,2.79c-.19.24-.48.38-.78.38s-.59-.14-.78-.38l-2.21-2.79c-.34-.43-.27-1.06.16-1.4.43-.34,1.06-.27,1.4.16l.43.54v-.88c0-.5.45-.91,1-.91s1,.41,1,.91v.88l.43-.54c.34-.43.97-.51,1.4-.16Z"/><path class="cls-5" d="m16.78,41.28c-.19.24-.48.38-.78.38s-.59-.14-.78-.38l-2.21-2.79c-.34-.43-.27-1.06.16-1.4.43-.34,1.06-.27,1.4.16l.43.54v-.93c0-.47.45-.86,1-.86s1,.38,1,.86v.93l.43-.54c.34-.43.97-.51,1.4-.16.43.34.51.97.16,1.4l-2.21,2.79Z"/><path class="cls-5" d="m12.62,49.18c.43.34.51.97.16,1.4l-2,2.52c-.19.24-.48.38-.78.38s-.59-.14-.78-.38l-2-2.52c-.34-.43-.27-1.06.16-1.4.43-.34,1.06-.27,1.4.16l.22.27v-.56c0-.49.45-.88,1-.88s1,.4,1,.88v.56l.22-.27c.34-.43.97-.51,1.4-.16Z"/></svg>