<?xml version="1.0" encoding="UTF-8"?><svg id="Flat" xmlns="http://www.w3.org/2000/svg" viewBox="0 0 64 64"><defs><style>.cls-1{fill:#edae65;}.cls-2{fill:#b8c3d5;}.cls-3{fill:#6581c6;}.cls-4{fill:#d88852;}.cls-5{fill:#e26677;}.cls-6{fill:#d85364;}.cls-7{fill:#759dd1;}.cls-8{fill:#5064aa;}</style></defs><path class="cls-7" d="m60,43v8c-.57-.01-1.83-.13-3-1-.44-.33-.77-.69-1-1-.23.31-.56.67-1,1-1.17.87-2.43.99-3,1-.57-.01-1.83-.13-3-1-.44-.33-.77-.69-1-1-.23.31-.56.67-1,1-1.17.87-2.43.99-3,1-.57-.01-1.83-.13-3-1-.44-.33-.77-.69-1-1-.23.31-.56.67-1,1-1.17.87-2.43.99-3,1-.57-.01-1.83-.13-3-1-.44-.33-.77-.69-1-1-.23.31-.56.67-1,1-1.17.87-2.43.99-3,1-.57-.01-1.83-.13-3-1-.44-.33-.77-.69-1-1-.23.31-.56.67-1,1-1.17.87-2.43.99-3,1-.57-.01-1.83-.13-3-1-.44-.33-.77-.69-1-1-.23.31-.56.67-1,1-1.17.87-2.43.99-3,1-.57-.01-1.83-.13-3-1-.44-.33-.77-.69-1-1-.23.31-.56.67-1,1-1.17.87-2.43.99-3,1v-8c.57-.01,1.83-.13,3-1,.44-.33.77-.69,1-1,.23.31.56.67,1,1,1.17.87,2.43.99,3,1,.57-.01,1.83-.13,3-1,.44-.33.77-.69,1-1,.23.31.56.67,1,1,1.17.87,2.43.99,3,1,.57-.01,1.83-.13,3-1,.44-.33.77-.69,1-1,.23.31.56.67,1,1,1.17.87,2.43.99,3,1,.57-.01,1.83-.13,3-1,.44-.33.77-.69,1-1,.23.31.56.67,1,1,1.17.87,2.43.99,3,1,.57-.01,1.83-.13,3-1,.44-.33.77-.69,1-1,.23.31.56.67,1,1,1.17.87,2.43.99,3,1,.57-.01,1.83-.13,3-1,.44-.33.77-.69,1-1,.23.31.56.67,1,1,1.17.87,2.43.99,3,1,.57-.01,1.83-.13,3-1,.44-.33.77-.69,1-1,.23.31.56.67,1,1,1.17.87,2.43.99,3,1Z"/><path class="cls-3" d="m4,60v-9c.57-.01,1.83-.13,3-1,.44-.33.77-.69,1-1,.23.31.56.67,1,1,1.17.87,2.43.99,3,1,.57-.01,1.83-.13,3-1,.44-.33.77-.69,1-1,.23.31.56.67,1,1,1.17.87,2.43.99,3,1,.57-.01,1.83-.13,3-1,.44-.33.77-.69,1-1,.23.31.56.67,1,1,1.17.87,2.43.99,3,1,.57-.01,1.83-.13,3-1,.44-.33.77-.69,1-1,.23.31.56.67,1,1,1.17.87,2.43.99,3,1,.57-.01,1.83-.13,3-1,.44-.33.77-.69,1-1,.23.31.56.67,1,1,1.17.87,2.43.99,3,1,.57-.01,1.83-.13,3-1,.44-.33.77-.69,1-1,.23.31.56.67,1,1,1.17.87,2.43.99,3,1,.57-.01,1.83-.13,3-1,.44-.33.77-.69,1-1,.23.31.56.67,1,1,1.17.87,2.43.99,3,1v9H4Z"/><path class="cls-2" d="m26.23.96h0c1.1,0,2,.9,2,2v42h-4V2.96c0-1.1.9-2,2-2Z" transform="translate(16.2 -10.43) rotate(32.07)"/><path class="cls-1" d="m4,32h.77c9.84,0,18.66,6.03,22.24,15.2l4.99,12.8H4v-28Z"/><path class="cls-8" d="m30.02,27.7l-9.7-6.08c-.35-.22-.53-.62-.45-1.03l.65-3.57,13.56,8.5-2.93,2.14c-.33.24-.77.26-1.12.04Z"/><path class="cls-6" d="m16.74,19.38l-6.87-4.31c-.37-.23-.55-.69-.43-1.11l.91-3.31,10.17,6.37-2.58,2.26c-.33.29-.82.33-1.19.1Z"/><path class="cls-4" d="m40.47,34.24l-6.87-4.31c-.37-.23-.55-.69-.43-1.11l.91-3.31,10.17,6.37-2.58,2.26c-.33.29-.82.33-1.19.1Z"/><path class="cls-5" d="m35.26,8.56c-1.73.1-5.18.54-8.8,2.74-3.15,1.92-5.01,4.31-5.94,5.72l-10.17-6.37c1.62-1.3,5.51-4.05,11.24-4.76,6.78-.84,11.92,1.7,13.67,2.67Z"/><path class="cls-3" d="m36.63,17.67c-.36,3.67-1.7,6.39-2.56,7.84l-13.55-8.49c.93-1.41,2.79-3.8,5.94-5.72,3.62-2.2,7.07-2.64,8.8-2.74.66,1.6,1.77,4.9,1.37,9.11Z"/><path class="cls-1" d="m44.24,31.89l-10.17-6.38c.86-1.45,2.2-4.17,2.56-7.84.4-4.21-.71-7.51-1.37-9.11,1.64,1.15,6.16,4.66,8.36,11.14,1.86,5.46,1.08,10.17.62,12.19Z"/></svg>