<?xml version="1.0" encoding="UTF-8"?><svg id="Flat" xmlns="http://www.w3.org/2000/svg" viewBox="0 0 64 64"><defs><style>.cls-1{fill:#b8c3d5;}.cls-2{fill:#d3dce5;}.cls-3{fill:#e26677;}.cls-4{fill:#d85364;}.cls-5{fill:#759dd1;}</style></defs><path class="cls-1" d="m8,53v-9c0-.55.45-1,1-1h6c.55,0,1,.45,1,1v9h-8Z"/><path class="cls-1" d="m48,52v-8c0-.55.45-1,1-1h6c.55,0,1,.45,1,1v8h-8Z"/><path class="cls-2" d="m26,29c-.55,0-1-.45-1-1v-14.31c0-.55.45-1,1-1s1,.45,1,1v14.31c0,.55-.45,1-1,1Z"/><path class="cls-2" d="m20,29c-.55,0-1-.45-1-1v-15c0-.55.45-1,1-1s1,.45,1,1v15c0,.55-.45,1-1,1Z"/><path class="cls-2" d="m38,29c-.55,0-1-.45-1-1v-14.31c0-.55.45-1,1-1s1,.45,1,1v14.31c0,.55-.45,1-1,1Z"/><path class="cls-2" d="m44,29c-.55,0-1-.45-1-1v-15c0-.55.45-1,1-1s1,.45,1,1v15c0,.55-.45,1-1,1Z"/><path class="cls-2" d="m32,29c-.55,0-1-.45-1-1v-13c0-.55.45-1,1-1s1,.45,1,1v13c0,.55-.45,1-1,1Z"/><path class="cls-2" d="m5,29c-.55,0-1-.45-1-1v-15.45c0-.55.45-1,1-1s1,.45,1,1v15.45c0,.55-.45,1-1,1Z"/><path class="cls-4" d="m32,15c-3.17,0-6.61,0-11-1-2.65-.6-6.47-1.76-10.74-4.14l1.47-3.72c4.03,2.17,7.67,3.27,10.26,3.86,4.32.98,7.74,1,10,1s5.68-.02,10-1c2.6-.59,6.23-1.69,10.26-3.86l1.47,3.72c-4.27,2.38-8.09,3.54-10.74,4.14-4.39,1-7.83,1-11,1Z"/><path class="cls-4" d="m4,9.19c2.12-.66,4.6-1.62,7.26-3.05l1.48,3.72c-3.29,1.83-6.31,2.94-8.74,3.63v-4.3Z"/><path class="cls-2" d="m59,29c-.55,0-1-.45-1-1v-15.45c0-.55.45-1,1-1s1,.45,1,1v15.45c0,.55-.45,1-1,1Z"/><path class="cls-4" d="m60,9.19c-2.12-.66-4.6-1.62-7.26-3.05l-1.48,3.72c3.29,1.83,6.31,2.94,8.74,3.63v-4.3Z"/><rect class="cls-4" x="4" y="28" width="56" height="4"/><path class="cls-5" d="m4,58v-8c.57-.01,1.83-.13,3-1,.44-.33.77-.69,1-1,.23.31.56.67,1,1,1.17.87,2.43.99,3,1,.57-.01,1.83-.13,3-1,.44-.33.77-.69,1-1,.23.31.56.67,1,1,1.17.87,2.43.99,3,1,.57-.01,1.83-.13,3-1,.44-.33.77-.69,1-1,.23.31.56.67,1,1,1.17.87,2.43.99,3,1,.57-.01,1.83-.13,3-1,.44-.33.77-.69,1-1,.23.31.56.67,1,1,1.17.87,2.43.99,3,1,.57-.01,1.83-.13,3-1,.44-.33.77-.69,1-1,.23.31.56.67,1,1,1.17.87,2.43.99,3,1,.57-.01,1.83-.13,3-1,.44-.33.77-.69,1-1,.23.31.56.67,1,1,1.17.87,2.43.99,3,1,.57-.01,1.83-.13,3-1,.44-.33.77-.69,1-1,.23.31.56.67,1,1,1.17.87,2.43.99,3,1v8H4Z"/><path class="cls-3" d="m11,4h2c.55,0,1,.45,1,1v38h-4V5c0-.55.45-1,1-1Z"/><path class="cls-3" d="m50,4h4v38c0,.55-.45,1-1,1h-2c-.55,0-1-.45-1-1V4h0Z" transform="translate(104 47) rotate(-180)"/></svg>