<?xml version="1.0" encoding="UTF-8"?><svg id="Flat" xmlns="http://www.w3.org/2000/svg" viewBox="0 0 64 64"><defs><style>.cls-1{fill:#edae65;}.cls-2{fill:#84c86c;}.cls-3{fill:#d88852;}.cls-4{fill:#285132;}.cls-5{fill:#78b24c;}.cls-6{fill:#50823f;}</style></defs><path class="cls-4" d="m60,49H18.47c.89-.9,1.81-1.94,2.76-3.13,1.51-1.88,3.11-4.15,4.77-6.87,11-18,34-18,34-18-.09.09,0,28,0,28Z"/><path class="cls-6" d="m4,21s23,0,34,18c1.66,2.72,3.26,4.99,4.77,6.87.95,1.19,1.87,2.23,2.76,3.13H4s.09-27.91,0-28Z"/><path class="cls-5" d="m60,60H18.47c.89-.8,1.81-1.73,2.76-2.79,1.51-1.68,3.11-3.71,4.77-6.13,11-16.07,34-16.07,34-16.07-.09.08,0,25,0,25Z"/><path class="cls-2" d="m4,35s23,0,34,16.07c1.66,2.43,3.26,4.46,4.77,6.13.95,1.06,1.87,1.99,2.76,2.79H4s.09-24.92,0-25Z"/><circle class="cls-1" cx="32" cy="13" r="4"/><path class="cls-3" d="m32,7c-.55,0-1-.45-1-1v-1c0-.55.45-1,1-1s1,.45,1,1v1c0,.55-.45,1-1,1Z"/><path class="cls-3" d="m27.05,9.05c-.26,0-.51-.1-.71-.29l-.71-.71c-.39-.39-.39-1.02,0-1.41s1.02-.39,1.41,0l.71.71c.39.39.39,1.02,0,1.41-.2.2-.45.29-.71.29Z"/><path class="cls-3" d="m25,14h-1c-.55,0-1-.45-1-1s.45-1,1-1h1c.55,0,1,.45,1,1s-.45,1-1,1Z"/><path class="cls-3" d="m26.34,19.66c-.26,0-.51-.1-.71-.29-.39-.39-.39-1.02,0-1.41l.71-.71c.39-.39,1.02-.39,1.41,0s.39,1.02,0,1.41l-.71.71c-.2.2-.45.29-.71.29Z"/><path class="cls-3" d="m32,22c-.55,0-1-.45-1-1v-1c0-.55.45-1,1-1s1,.45,1,1v1c0,.55-.45,1-1,1Z"/><path class="cls-3" d="m37.66,19.66c-.26,0-.51-.1-.71-.29l-.71-.71c-.39-.39-.39-1.02,0-1.41s1.02-.39,1.41,0l.71.71c.39.39.39,1.02,0,1.41-.2.2-.45.29-.71.29Z"/><path class="cls-3" d="m40,14h-1c-.55,0-1-.45-1-1s.45-1,1-1h1c.55,0,1,.45,1,1s-.45,1-1,1Z"/><path class="cls-3" d="m36.95,9.05c-.26,0-.51-.1-.71-.29-.39-.39-.39-1.02,0-1.41l.71-.71c.39-.39,1.02-.39,1.41,0s.39,1.02,0,1.41l-.71.71c-.2.2-.45.29-.71.29Z"/></svg>