<?xml version="1.0" encoding="UTF-8"?><svg id="Flat" xmlns="http://www.w3.org/2000/svg" viewBox="0 0 64 64"><defs><style>.cls-1{fill:#edae65;}.cls-2{fill:#d88852;}.cls-3{fill:#78b24c;}.cls-4{fill:#50823f;}</style></defs><path class="cls-4" d="m5.49,30.33L27.2,6.1c2.56-2.86,7.03-2.86,9.59,0l21.71,24.23c.58.64.12,1.67-.74,1.67H6.24c-.86,0-1.32-1.02-.74-1.67Z"/><path class="cls-3" d="m16,29v1H4v-4c0-.33.04-.65.12-.96.43-1.75,2-3.04,3.88-3.04s3.43,1.28,3.87,3.01c.04-.01.09-.01.13-.01,2.21,0,4,1.79,4,4Z"/><path class="cls-3" d="m48,29v1s12,0,12,0v-4c0-.33-.04-.65-.12-.96-.43-1.75-2-3.04-3.88-3.04s-3.43,1.28-3.87,3.01c-.04-.01-.09-.01-.13-.01-2.21,0-4,1.79-4,4Z"/><rect class="cls-1" x="4" y="30" width="56" height="30"/><path class="cls-2" d="m60,41v-2h-13v-9h-2v9h-12v-9h-2v9h-12v-9h-2v9H4v2h6v8h-6v2h13v9h2v-9h12v9h2v-9h12v9h2v-9h13v-2h-6v-8h6Zm-34,8v-8h12v8h-12Zm-14-8h12v8h-12v-8Zm40,8h-12v-8h12v8Z"/><path class="cls-4" d="m55.99,34.49l-2.21,2.79c-.19.24-.48.38-.78.38s-.59-.14-.78-.38l-2.21-2.79c-.34-.43-.27-1.06.16-1.4.43-.34,1.06-.27,1.4.16l.43.54v-.95c0-.46.45-.84,1-.84s1,.38,1,.84v.95l.43-.54c.34-.43.97-.51,1.4-.16.43.34.51.97.16,1.4Z"/><path class="cls-4" d="m36.17,33.09c.43-.34,1.06-.27,1.4.16l.43.54v-.92c0-.48.45-.86,1-.86s1,.39,1,.86v.92l.43-.54c.34-.43.97-.51,1.4-.16s.51.97.16,1.4l-2.21,2.79c-.19.24-.48.38-.78.38s-.59-.14-.78-.38l-2.21-2.79c-.34-.43-.27-1.06.16-1.4Z"/><path class="cls-4" d="m22.17,33.09c.43-.34,1.06-.27,1.4.16l.43.54v-.92c0-.48.45-.86,1-.86s1,.39,1,.86v.92l.43-.54c.34-.43.97-.51,1.4-.16s.51.97.16,1.4l-2.21,2.79c-.19.24-.48.38-.78.38s-.59-.14-.78-.38l-2.21-2.79c-.34-.43-.27-1.06.16-1.4Z"/><path class="cls-4" d="m11,37.66c-.31,0-.59-.14-.78-.38l-2.21-2.79c-.34-.43-.27-1.06.16-1.4.43-.34,1.06-.27,1.4.16l.43.54v-.92c0-.48.45-.86,1-.86s1,.39,1,.86v.92l.43-.54c.34-.43.97-.51,1.4-.16.43.34.51.97.16,1.4l-2.21,2.79c-.19.24-.48.38-.78.38Z"/><path class="cls-4" d="m18,47.66c-.31,0-.59-.14-.78-.38l-2.21-2.79c-.34-.43-.27-1.06.16-1.4.43-.34,1.06-.27,1.4.16l.43.54v-.9c0-.49.45-.89,1-.89s1,.4,1,.89v.9l.43-.54c.34-.43.97-.5,1.4-.16.43.34.51.97.16,1.4l-2.21,2.79c-.19.24-.48.38-.78.38Z"/><path class="cls-4" d="m34.99,44.49l-2.21,2.79c-.19.24-.48.38-.78.38s-.59-.14-.78-.38l-2.21-2.79c-.34-.43-.27-1.06.16-1.4.43-.34,1.06-.27,1.4.16l.43.54v-.87c0-.51.45-.92,1-.92s1,.41,1,.92v.87l.43-.54c.34-.43.97-.5,1.4-.16.43.34.51.97.16,1.4Z"/><path class="cls-4" d="m48.99,44.49l-2.21,2.79c-.19.24-.48.38-.78.38s-.59-.14-.78-.38l-2.21-2.79c-.34-.43-.27-1.06.16-1.4.43-.34,1.06-.27,1.4.16l.43.54v-.94c0-.47.45-.85,1-.85s1,.38,1,.85v.94l.43-.54c.34-.43.97-.5,1.4-.16.43.34.51.97.16,1.4Z"/><path class="cls-4" d="m55.83,53.09c.43.34.51.97.16,1.4l-2.21,2.79c-.19.24-.48.38-.78.38s-.59-.14-.78-.38l-2.21-2.79c-.34-.43-.27-1.06.16-1.4.43-.34,1.06-.27,1.4.16l.43.54v-.93c0-.48.45-.86,1-.86s1,.39,1,.86v.93l.43-.54c.34-.43.97-.5,1.4-.16Z"/><path class="cls-4" d="m41.99,54.49l-2.21,2.79c-.19.24-.48.38-.78.38s-.59-.14-.78-.38l-2.21-2.79c-.34-.43-.27-1.06.16-1.4.43-.34,1.06-.27,1.4.16l.43.54v-.93c0-.48.45-.86,1-.86s1,.39,1,.86v.93l.43-.54c.34-.43.97-.5,1.4-.16.43.34.51.97.16,1.4Z"/><path class="cls-4" d="m22.17,53.09c.43-.34,1.06-.27,1.4.16l.43.54v-.85c0-.52.45-.94,1-.94s1,.42,1,.94v.85l.43-.54c.34-.43.97-.5,1.4-.16.43.34.51.97.16,1.4l-2.21,2.79c-.19.24-.48.38-.78.38s-.59-.14-.78-.38l-2.21-2.79c-.34-.43-.27-1.06.16-1.4Z"/><path class="cls-4" d="m13.99,54.49l-2.21,2.79c-.19.24-.48.38-.78.38s-.59-.14-.78-.38l-2.21-2.79c-.34-.43-.27-1.06.16-1.4.43-.34,1.06-.27,1.4.16l.43.54v-.89c0-.5.45-.9,1-.9s1,.4,1,.9v.89l.43-.54c.34-.43.97-.5,1.4-.16.43.34.51.97.16,1.4Z"/></svg>