<?xml version="1.0" encoding="UTF-8"?><svg id="Flat" xmlns="http://www.w3.org/2000/svg" viewBox="0 0 64 64"><defs><style>.cls-1{fill:#ecc865;}.cls-2{fill:#edae65;}.cls-3{fill:#d88852;}.cls-4{fill:#c2623e;}.cls-5{fill:#78b24c;}.cls-6{fill:#50823f;}</style></defs><path class="cls-4" d="m25.64,47.96l14.24-22.79c1.39-2.22,4.5-2.22,5.89,0l14.24,22.79H25.64Z"/><path class="cls-3" d="m8.38,46.72l17.31-27.7c1.68-2.7,5.47-2.7,7.15,0l17.31,27.7H8.38Z"/><path class="cls-2" d="m60,37h-6.33c-13.76,0-26.85,5.96-35.89,16.35l-5.78,6.65h48s0-23.09,0-23Z"/><path class="cls-5" d="m15,18h0c1.66,0,3,1.34,3,3v19h-6v-19c0-1.66,1.34-3,3-3Z"/><path class="cls-6" d="m12,32h-4c-2.21,0-4-1.79-4-4v-2c0-1.1.9-2,2-2h0c1.1,0,2,.9,2,2v2h4v4Z"/><path class="cls-6" d="m18,29h4c2.21,0,4-1.79,4-4v-2c0-1.1-.9-2-2-2h0c-1.1,0-2,.9-2,2v2h-4s0,4,0,4Z"/><path class="cls-1" d="m4,37h6.33c13.76,0,26.85,5.96,35.89,16.35l5.78,6.65H4s0-23.09,0-23Z"/><path class="cls-2" d="m15,46h-5c-.55,0-1-.45-1-1s.45-1,1-1h5c.55,0,1,.45,1,1s-.45,1-1,1Z"/><path class="cls-2" d="m25,51h-5c-.55,0-1-.45-1-1s.45-1,1-1h5c.55,0,1,.45,1,1s-.45,1-1,1Z"/><path class="cls-3" d="m51,45h-5c-.55,0-1-.45-1-1s.45-1,1-1h5c.55,0,1,.45,1,1s-.45,1-1,1Z"/><path class="cls-3" d="m55,51h-5c-.55,0-1-.45-1-1s.45-1,1-1h5c.55,0,1,.45,1,1s-.45,1-1,1Z"/><path class="cls-2" d="m37,56h-5c-.55,0-1-.45-1-1s.45-1,1-1h5c.55,0,1,.45,1,1s-.45,1-1,1Z"/><circle class="cls-2" cx="50" cy="12" r="4"/><path class="cls-3" d="m50,6c-.55,0-1-.45-1-1v-1c0-.55.45-1,1-1s1,.45,1,1v1c0,.55-.45,1-1,1Z"/><path class="cls-3" d="m45.05,8.05c-.26,0-.51-.1-.71-.29l-.71-.71c-.39-.39-.39-1.02,0-1.41s1.02-.39,1.41,0l.71.71c.39.39.39,1.02,0,1.41-.2.2-.45.29-.71.29Z"/><path class="cls-3" d="m43,13h-1c-.55,0-1-.45-1-1s.45-1,1-1h1c.55,0,1,.45,1,1s-.45,1-1,1Z"/><path class="cls-3" d="m44.34,18.66c-.26,0-.51-.1-.71-.29-.39-.39-.39-1.02,0-1.41l.71-.71c.39-.39,1.02-.39,1.41,0s.39,1.02,0,1.41l-.71.71c-.2.2-.45.29-.71.29Z"/><path class="cls-3" d="m50,21c-.55,0-1-.45-1-1v-1c0-.55.45-1,1-1s1,.45,1,1v1c0,.55-.45,1-1,1Z"/><path class="cls-3" d="m55.66,18.66c-.26,0-.51-.1-.71-.29l-.71-.71c-.39-.39-.39-1.02,0-1.41s1.02-.39,1.41,0l.71.71c.39.39.39,1.02,0,1.41-.2.2-.45.29-.71.29Z"/><path class="cls-3" d="m58,13h-1c-.55,0-1-.45-1-1s.45-1,1-1h1c.55,0,1,.45,1,1s-.45,1-1,1Z"/><path class="cls-3" d="m54.95,8.05c-.26,0-.51-.1-.71-.29-.39-.39-.39-1.02,0-1.41l.71-.71c.39-.39,1.02-.39,1.41,0s.39,1.02,0,1.41l-.71.71c-.2.2-.45.29-.71.29Z"/></svg>