<?xml version="1.0" encoding="UTF-8"?><svg id="Flat" xmlns="http://www.w3.org/2000/svg" viewBox="0 0 64 64"><defs><style>.cls-1{fill:#edae65;}.cls-2{fill:#6581c6;}.cls-3{fill:#e26677;}.cls-4{fill:#285132;}.cls-5{fill:#78b24c;}.cls-6{fill:#50823f;}</style></defs><path class="cls-3" d="m60.15,3.95v4.68c-8.51.09-21.05,1.99-33.08,10.32-6.41,4.43-11.94,10.26-16.15,16.97l-4.14-2.19c4.56-7.38,10.6-13.77,17.63-18.63C37.38,6.13,50.87,4.04,60.15,3.95Z"/><path class="cls-1" d="m60.15,8.63v4.68c-7.06.08-18.94,1.55-30.42,9.49-7.16,4.96-11.79,10.79-14.65,15.3l-4.16-2.18c4.21-6.71,9.74-12.54,16.15-16.97,12.03-8.33,24.57-10.23,33.08-10.32Z"/><path class="cls-2" d="m60.15,13.31v4.68c-7.19.09-17.7,1.69-27.75,8.65-5.18,3.58-9.67,8.25-13.17,13.66l-4.15-2.2c2.86-4.51,7.49-10.34,14.65-15.3,11.48-7.94,23.36-9.41,30.42-9.49Z"/><path class="cls-4" d="m60,32h-6.33c-33.67,0-41.67,17-41.67,17h48s0-17.09,0-17Z"/><path class="cls-6" d="m4,32h6.33c33.67,0,41.67,17,41.67,17H4s0-17.09,0-17Z"/><rect class="cls-5" x="4" y="46" width="56" height="14"/></svg>