<?xml version="1.0" encoding="UTF-8"?><svg id="Flat" xmlns="http://www.w3.org/2000/svg" viewBox="0 0 64 64"><defs><style>.cls-1{fill:#edae65;}.cls-2{fill:#a26a55;}.cls-3{fill:#d88852;}.cls-4{fill:#e26677;}.cls-5{fill:#285132;}.cls-6{fill:#78b24c;}.cls-7{fill:#50823f;}</style></defs><path class="cls-2" d="m52,41c-.55,0-1-.45-1-1v-11.73c0-.55.45-1,1-1s1,.45,1,1v11.73c0,.55-.45,1-1,1Z"/><path class="cls-2" d="m13,47c-.55,0-1-.45-1-1v-11.73c0-.55.45-1,1-1s1,.45,1,1v11.73c0,.55-.45,1-1,1Z"/><path class="cls-4" d="m59.51,19.46c-.54-1.67-2.1-2.72-3.77-2.71-.51-1.59-1.98-2.75-3.74-2.75s-3.23,1.16-3.74,2.75c-1.67,0-3.23,1.04-3.77,2.71s.1,3.43,1.46,4.41c-.52,1.59,0,3.39,1.41,4.42,1.42,1.03,3.3.96,4.64-.02,1.35.99,3.22,1.06,4.64.02,1.42-1.03,1.93-2.84,1.41-4.42,1.35-.98,2-2.74,1.46-4.41Z"/><circle class="cls-1" cx="52" cy="21.9" r="3"/><path class="cls-6" d="m59,32c-.07,1.74-1,3.34-2.47,4.27-.87.55-1.86.83-2.85.83-.56,0-1.13-.09-1.68-.28-.55.19-1.12.28-1.68.28-.99,0-1.98-.28-2.85-.83-1.47-.93-2.4-2.53-2.47-4.27-.02-.41.23-.8.61-.96,1.6-.68,3.44-.53,4.92.41.58.37,1.08.85,1.47,1.39.39-.54.89-1.02,1.47-1.39.87-.55,1.86-.83,2.85-.83.7,0,1.41.14,2.07.42.38.16.63.55.61.96Z"/><path class="cls-7" d="m60,40h-14.04c-12.34,0-24.12,5.2-32.43,14.33l-1.52,5.67h48s0-20,0-20Z"/><path class="cls-5" d="m51.01,51.49c-.34-.43-.27-1.06.16-1.4.43-.34,1.06-.27,1.41.16l.43.54v-.91c0-.49.45-.88,1-.88s1,.4,1,.88v.91l.43-.54c.34-.43.97-.51,1.41-.16.43.34.5.97.16,1.4l-2.21,2.79c-.19.24-.48.38-.78.38s-.59-.14-.78-.38l-2.21-2.79Z"/><path class="cls-5" d="m46,43c.55,0,1,.4,1,.89v.9l.43-.54c.34-.43.97-.51,1.41-.16.43.34.5.97.16,1.4l-2.21,2.79c-.19.24-.48.38-.78.38s-.59-.14-.78-.38l-2.21-2.79c-.34-.43-.27-1.06.16-1.4.43-.34,1.06-.27,1.41.16l.43.54v-.9c0-.49.45-.89,1-.89Z"/><path class="cls-4" d="m20.51,25.46c-.54-1.67-2.1-2.72-3.77-2.71-.51-1.59-1.98-2.75-3.74-2.75s-3.23,1.16-3.74,2.75c-1.67,0-3.23,1.04-3.77,2.71s.1,3.43,1.46,4.41c-.52,1.59,0,3.39,1.41,4.42,1.42,1.03,3.3.96,4.64-.02,1.35.99,3.22,1.06,4.64.02,1.42-1.03,1.93-2.84,1.41-4.42,1.35-.98,2-2.74,1.46-4.41Z"/><circle class="cls-1" cx="13" cy="27.9" r="3"/><path class="cls-6" d="m20,38c-.07,1.74-1,3.34-2.47,4.27-.87.55-1.86.83-2.85.83-.56,0-1.13-.09-1.68-.28-.55.19-1.12.28-1.68.28-.99,0-1.98-.28-2.85-.83-1.47-.93-2.4-2.53-2.47-4.27-.02-.41.23-.8.61-.96,1.6-.68,3.44-.53,4.92.41.58.37,1.08.85,1.47,1.39.39-.54.89-1.02,1.47-1.39,1.48-.94,3.32-1.09,4.92-.41.38.16.63.55.61.96Z"/><path class="cls-2" d="m34,50c-.55,0-1-.45-1-1v-12.73c0-.55.45-1,1-1s1,.45,1,1v12.73c0,.55-.45,1-1,1Z"/><path class="cls-6" d="m4,45.87h14.04c12.34,0,24.12,3.2,32.43,12.33l1.52,1.67H4v-14Z"/><path class="cls-7" d="m14.83,51.09c.43.34.5.97.16,1.4l-2.21,2.79c-.19.24-.48.38-.78.38s-.59-.14-.78-.38l-2.21-2.79c-.34-.43-.27-1.06.16-1.4.43-.34,1.06-.27,1.41.16l.43.54v-.91c0-.49.45-.88,1-.88s1,.39,1,.88v.91l.43-.54c.34-.43.97-.51,1.41-.16Z"/><path class="cls-7" d="m30.83,53.09c.43.34.5.97.16,1.4l-2.21,2.79c-.19.24-.48.38-.78.38s-.59-.14-.78-.38l-2.21-2.79c-.34-.43-.27-1.06.16-1.4.43-.34,1.06-.27,1.41.16l.43.54v-.92c0-.48.45-.87,1-.87s1,.39,1,.87v.92l.43-.54c.34-.43.97-.51,1.41-.16Z"/><circle class="cls-1" cx="24" cy="12" r="4"/><path class="cls-3" d="m24,6c-.55,0-1-.45-1-1v-1c0-.55.45-1,1-1s1,.45,1,1v1c0,.55-.45,1-1,1Z"/><path class="cls-3" d="m19.05,8.05c-.26,0-.51-.1-.71-.29l-.71-.71c-.39-.39-.39-1.02,0-1.41s1.02-.39,1.41,0l.71.71c.39.39.39,1.02,0,1.41-.2.2-.45.29-.71.29Z"/><path class="cls-3" d="m17,13h-1c-.55,0-1-.45-1-1s.45-1,1-1h1c.55,0,1,.45,1,1s-.45,1-1,1Z"/><path class="cls-3" d="m18.34,18.66c-.26,0-.51-.1-.71-.29-.39-.39-.39-1.02,0-1.41l.71-.71c.39-.39,1.02-.39,1.41,0s.39,1.02,0,1.41l-.71.71c-.2.2-.45.29-.71.29Z"/><path class="cls-3" d="m24,21c-.55,0-1-.45-1-1v-1c0-.55.45-1,1-1s1,.45,1,1v1c0,.55-.45,1-1,1Z"/><path class="cls-3" d="m29.66,18.66c-.26,0-.51-.1-.71-.29l-.71-.71c-.39-.39-.39-1.02,0-1.41s1.02-.39,1.41,0l.71.71c.39.39.39,1.02,0,1.41-.2.2-.45.29-.71.29Z"/><path class="cls-3" d="m32,13h-1c-.55,0-1-.45-1-1s.45-1,1-1h1c.55,0,1,.45,1,1s-.45,1-1,1Z"/><path class="cls-3" d="m28.95,8.05c-.26,0-.51-.1-.71-.29-.39-.39-.39-1.02,0-1.41l.71-.71c.39-.39,1.02-.39,1.41,0s.39,1.02,0,1.41l-.71.71c-.2.2-.45.29-.71.29Z"/><path class="cls-6" d="m41,40c-.07,1.74-1,3.34-2.47,4.27-.87.55-1.86.83-2.85.83-.56,0-1.13-.09-1.68-.28-.55.19-1.12.28-1.68.28-.99,0-1.98-.28-2.85-.83-1.47-.93-2.4-2.53-2.47-4.27-.02-.41.23-.8.61-.96,1.6-.68,3.44-.53,4.92.41.58.37,1.08.85,1.47,1.39.39-.54.89-1.02,1.47-1.39,1.48-.94,3.32-1.09,4.92-.41.38.16.63.55.61.96Z"/><path class="cls-4" d="m41.51,27.46c-.54-1.67-2.1-2.72-3.77-2.71-.51-1.59-1.98-2.75-3.74-2.75s-3.23,1.16-3.74,2.75c-1.67,0-3.23,1.04-3.77,2.71s.1,3.43,1.46,4.41c-.52,1.59,0,3.39,1.41,4.42,1.42,1.03,3.3.96,4.64-.02,1.35.99,3.22,1.06,4.64.02,1.42-1.03,1.93-2.84,1.41-4.42,1.35-.98,2-2.74,1.46-4.41Z"/><circle class="cls-1" cx="34" cy="29.9" r="3"/></svg>