<?xml version="1.0" encoding="UTF-8"?><svg id="Flat" xmlns="http://www.w3.org/2000/svg" viewBox="0 0 64 64"><defs><style>.cls-1{fill:#a26a55;}.cls-2{fill:#285132;}.cls-3{fill:#78b24c;}.cls-4{fill:#50823f;}</style></defs><path class="cls-2" d="m31.9,21.71c-.72-.78-1.17-1.83-1.17-2.98,0-1.79,1.07-3.33,2.61-4.02-.26-.56-.41-1.19-.41-1.85,0-2.2,1.62-4.02,3.72-4.34.33-2.11,2.14-3.72,4.34-3.72s4.02,1.62,4.34,3.72c2.11.33,3.72,2.14,3.72,4.34,0,.66-.15,1.29-.41,1.85,1.54.69,2.61,2.23,2.61,4.02,0,1.15-.45,2.2-1.17,2.98,1.15.79,1.9,2.12,1.9,3.62,0,2.43-1.97,4.4-4.4,4.4-1.01,0-1.95-.35-2.69-.92-.73,1.42-2.21,2.39-3.91,2.39s-3.18-.97-3.91-2.39c-.74.58-1.68.92-2.69.92-2.43,0-4.4-1.97-4.4-4.4,0-1.5.75-2.83,1.9-3.62Z"/><path class="cls-2" d="m13.9,20.71c-.72-.78-1.17-1.83-1.17-2.98,0-1.79,1.07-3.33,2.61-4.02-.26-.56-.41-1.19-.41-1.85,0-2.2,1.62-4.02,3.72-4.34.33-2.11,2.14-3.72,4.34-3.72s4.02,1.62,4.34,3.72c2.11.33,3.72,2.14,3.72,4.34,0,.66-.15,1.29-.41,1.85,1.54.69,2.61,2.23,2.61,4.02,0,1.15-.45,2.2-1.17,2.98,1.15.79,1.9,2.12,1.9,3.62,0,2.43-1.97,4.4-4.4,4.4-1.01,0-1.95-.35-2.69-.92-.73,1.42-2.21,2.39-3.91,2.39s-3.18-.97-3.91-2.39c-.74.58-1.68.92-2.69.92-2.43,0-4.4-1.97-4.4-4.4,0-1.5.75-2.83,1.9-3.62Z"/><rect class="cls-1" x="13" y="35" width="4" height="16"/><path class="cls-4" d="m24.1,27.71c.72-.78,1.17-1.83,1.17-2.98,0-1.79-1.07-3.33-2.61-4.02.26-.56.41-1.19.41-1.85,0-2.2-1.62-4.02-3.72-4.34-.33-2.11-2.14-3.72-4.34-3.72s-4.02,1.62-4.34,3.72c-2.11.33-3.72,2.14-3.72,4.34,0,.66.15,1.29.41,1.85-1.54.69-2.61,2.23-2.61,4.02,0,1.15.45,2.2,1.17,2.98-1.15.79-1.9,2.12-1.9,3.62,0,2.43,1.97,4.4,4.4,4.4,1.01,0,1.95-.35,2.69-.92.73,1.42,2.21,2.39,3.91,2.39s3.18-.97,3.91-2.39c.74.58,1.68.92,2.69.92,2.43,0,4.4-1.97,4.4-4.4,0-1.5-.75-2.83-1.9-3.62Z"/><rect class="cls-1" x="48" y="35" width="4" height="16" transform="translate(100 86) rotate(-180)"/><path class="cls-4" d="m40.9,27.71c-.72-.78-1.17-1.83-1.17-2.98,0-1.79,1.07-3.33,2.61-4.02-.26-.56-.41-1.19-.41-1.85,0-2.2,1.62-4.02,3.72-4.34.33-2.11,2.14-3.72,4.34-3.72s4.02,1.62,4.34,3.72c2.11.33,3.72,2.14,3.72,4.34,0,.66-.15,1.29-.41,1.85,1.54.69,2.61,2.23,2.61,4.02,0,1.15-.45,2.2-1.17,2.98,1.15.79,1.9,2.12,1.9,3.62,0,2.43-1.97,4.4-4.4,4.4-1.01,0-1.95-.35-2.69-.92-.73,1.42-2.21,2.39-3.91,2.39s-3.18-.97-3.91-2.39c-.74.58-1.68.92-2.69.92-2.43,0-4.4-1.97-4.4-4.4,0-1.5.75-2.83,1.9-3.62Z"/><rect class="cls-1" x="30" y="36" width="4" height="16"/><path class="cls-3" d="m41.1,28.71c.72-.78,1.17-1.83,1.17-2.98,0-1.79-1.07-3.33-2.61-4.02.26-.56.41-1.19.41-1.85,0-2.2-1.62-4.02-3.72-4.34-.33-2.11-2.14-3.72-4.34-3.72s-4.02,1.62-4.34,3.72c-2.11.33-3.72,2.14-3.72,4.34,0,.66.15,1.29.41,1.85-1.54.69-2.61,2.23-2.61,4.02,0,1.15.45,2.2,1.17,2.98-1.15.79-1.9,2.12-1.9,3.62,0,2.43,1.97,4.4,4.4,4.4,1.01,0,1.95-.35,2.69-.92.73,1.42,2.21,2.39,3.91,2.39s3.18-.97,3.91-2.39c.74.58,1.68.92,2.69.92,2.43,0,4.4-1.97,4.4-4.4,0-1.5-.75-2.83-1.9-3.62Z"/><path class="cls-3" d="m60,52.15v5.85c0,.55-.45,1-1,1H5c-.55,0-1-.45-1-1v-5.85c0-1.97,1.36-3.76,3.3-4.09,1.75-.3,3.32.55,4.12,1.9.7-.59,1.59-.96,2.58-.96,1.46,0,2.73.79,3.42,1.96.7-.59,1.59-.96,2.58-.96,1.2,0,2.27.54,3,1.38.73-.84,1.8-1.38,3-1.38s2.27.54,3,1.38c.73-.84,1.8-1.38,3-1.38s2.27.54,3,1.38c.73-.84,1.8-1.38,3-1.38s2.27.54,3,1.38c.73-.84,1.8-1.38,3-1.38.99,0,1.88.37,2.58.96.69-1.17,1.96-1.96,3.42-1.96.99,0,1.88.37,2.58.96.8-1.35,2.37-2.2,4.12-1.9,1.94.33,3.3,2.12,3.3,4.09Z"/></svg>