<?xml version="1.0" encoding="UTF-8"?><svg id="Flat" xmlns="http://www.w3.org/2000/svg" viewBox="0 0 64 64"><defs><style>.cls-1{fill:#edae65;}.cls-2{fill:#d88852;}.cls-3{fill:#d3dce5;}.cls-4{fill:#285132;}.cls-5{fill:#78b24c;}.cls-6{fill:#50823f;}</style></defs><path class="cls-6" d="m59.5,34.5v25.5H14.5c6.52-15.15,21.64-25.5,38.38-25.5h6.62Z"/><path class="cls-4" d="m59.5,38v2h-3.27c-14.28,0-27.68,7.44-35.23,19.5h-2.34c7.78-13.26,22.18-21.5,37.57-21.5h3.27Z"/><path class="cls-4" d="m59.5,43v2h-.27c-12.22,0-23.65,5.26-31.56,14.5h-2.58s.06-.08.09-.12c8.31-10.41,20.73-16.38,34.05-16.38h.27Z"/><path class="cls-4" d="m59.5,48.1v2.01c-8.67.56-17.01,3.87-23.72,9.39h-2.97c.05-.09.11-.17.19-.24,7.31-6.6,16.7-10.56,26.5-11.16Z"/><path class="cls-4" d="m59.5,53.39v2.01c-4.57.63-8.96,2-13.07,4.1h-3.86c.08-.14.2-.27.36-.36,5.13-3.05,10.7-4.99,16.57-5.75Z"/><path class="cls-5" d="m50,60H4v-26h6.77c17.11,0,32.57,10.24,39.23,26Z"/><path class="cls-6" d="m45.75,59.99h0s-2.39.01-2.39.01c-7.72-12.54-21.42-20.28-36.01-20.28h-3.34v-2.08h3.34c15.73,0,30.45,8.57,38.4,22.35Z"/><path class="cls-6" d="m39.17,60h-2.64c-8.09-9.61-19.77-15.08-32.26-15.08h-.28v-2.08h.28c13.62,0,26.31,6.21,34.81,17.04.03.04.06.08.09.12Z"/><path class="cls-6" d="m31.28,60h-3.04c-6.86-5.74-15.38-9.18-24.25-9.77v-2.09c10.02.62,19.62,4.74,27.09,11.61.08.07.14.16.19.25Z"/><path class="cls-6" d="m21.31,60h-3.95c-4.2-2.18-8.69-3.61-13.36-4.26v-2.09c6,.79,11.69,2.81,16.94,5.98.16.09.29.23.37.37Z"/><path class="cls-3" d="m17.97,7.48c-.95-.46-1.8-.39-2.56-.12,0-.07.02-.14.02-.22,0-1.89-1.54-3.43-3.43-3.43s-3.43,1.54-3.43,3.43c0,.07.02.14.02.22-.76-.27-1.61-.34-2.56.12-1.28.62-2.03,1.97-2.03,3.39h0c0,1.73,1.41,3.14,3.14,3.14h9.72c1.73,0,3.14-1.41,3.14-3.14h0c0-1.42-.76-2.77-2.03-3.39Z"/><path class="cls-3" d="m57.97,16.48c-.95-.46-1.8-.39-2.56-.12,0-.07.02-.14.02-.22,0-1.89-1.54-3.43-3.43-3.43s-3.43,1.54-3.43,3.43c0,.07.02.14.02.22-.76-.27-1.61-.34-2.56.12-1.28.62-2.03,1.97-2.03,3.39h0c0,1.73,1.41,3.14,3.14,3.14h9.72c1.73,0,3.14-1.41,3.14-3.14h0c0-1.42-.76-2.77-2.03-3.39Z"/><circle class="cls-1" cx="32" cy="13" r="4"/><path class="cls-2" d="m32,7c-.55,0-1-.45-1-1v-1c0-.55.45-1,1-1s1,.45,1,1v1c0,.55-.45,1-1,1Z"/><path class="cls-2" d="m27.05,9.05c-.26,0-.51-.1-.71-.29l-.71-.71c-.39-.39-.39-1.02,0-1.41s1.02-.39,1.41,0l.71.71c.39.39.39,1.02,0,1.41-.2.2-.45.29-.71.29Z"/><path class="cls-2" d="m25,14h-1c-.55,0-1-.45-1-1s.45-1,1-1h1c.55,0,1,.45,1,1s-.45,1-1,1Z"/><path class="cls-2" d="m26.34,19.66c-.26,0-.51-.1-.71-.29-.39-.39-.39-1.02,0-1.41l.71-.71c.39-.39,1.02-.39,1.41,0s.39,1.02,0,1.41l-.71.71c-.2.2-.45.29-.71.29Z"/><path class="cls-2" d="m32,22c-.55,0-1-.45-1-1v-1c0-.55.45-1,1-1s1,.45,1,1v1c0,.55-.45,1-1,1Z"/><path class="cls-2" d="m37.66,19.66c-.26,0-.51-.1-.71-.29l-.71-.71c-.39-.39-.39-1.02,0-1.41s1.02-.39,1.41,0l.71.71c.39.39.39,1.02,0,1.41-.2.2-.45.29-.71.29Z"/><path class="cls-2" d="m40,14h-1c-.55,0-1-.45-1-1s.45-1,1-1h1c.55,0,1,.45,1,1s-.45,1-1,1Z"/><path class="cls-2" d="m36.95,9.05c-.26,0-.51-.1-.71-.29-.39-.39-.39-1.02,0-1.41l.71-.71c.39-.39,1.02-.39,1.41,0s.39,1.02,0,1.41l-.71.71c-.2.2-.45.29-.71.29Z"/></svg>