<?xml version="1.0" encoding="UTF-8"?><svg id="Flat" xmlns="http://www.w3.org/2000/svg" viewBox="0 0 64 64"><defs><style>.cls-1{fill:#a26a55;}.cls-2{fill:#6581c6;}.cls-3{fill:#759dd1;}.cls-4{fill:#78b24c;}.cls-5{fill:#50823f;}</style></defs><path class="cls-4" d="m60,10.01v49.99H4V10.01c1.86-1.27,6.82-4.28,13.62-4,5.74.24,9.92,2.7,11.8,3.99,0,.01.01.01.01.01h7.54s.01-.01.02-.01c1.71-1.3,5.49-3.75,10.67-3.99,6.16-.28,10.65,2.73,12.34,4Z"/><path class="cls-3" d="m38.93,60H15.12c14.51-10.27,16.2-16.46,15.11-20.19-1.84-6.32-12.12-7.47-13.4-13.79-1.22-5.97,6.49-12.06,12.59-16.02h.01c.71-.25,1.7-.52,2.91-.62,2.08-.16,3.75.3,4.65.62-6.16,4.5-12.3,10.29-10.78,15.26,1.92,6.29,14.52,5.87,18.76,13.14,2.27,3.91,2.33,10.35-6.04,21.6Z"/><path class="cls-2" d="m22.79,29.14c-.22,0-.44-.07-.62-.22-1.44-1.15-2.23-2.26-2.47-3.47-.27-1.34.11-2.87,1.15-4.53.29-.47.91-.61,1.38-.32.47.29.61.91.32,1.38-.75,1.19-1.05,2.26-.89,3.07.15.73.71,1.46,1.76,2.31.43.35.5.97.16,1.41-.2.25-.49.37-.78.37Z"/><path class="cls-2" d="m35.84,57.17c-.21,0-.43-.07-.61-.21-.44-.34-.52-.96-.18-1.4,4.93-6.4,6.48-11.27,4.62-14.47-.28-.48-.12-1.09.36-1.37.48-.28,1.09-.12,1.37.36,2.34,4.02.79,9.48-4.76,16.69-.2.26-.49.39-.79.39Z"/><path class="cls-5" d="m56.53,16.42l-.43.54v-.85c0-.52-.45-.94-1-.94s-1,.42-1,.94v.85l-.43-.54c-.34-.43-.97-.51-1.4-.16-.43.34-.51.97-.16,1.4l2.21,2.79c.19.24.48.38.78.38s.59-.14.78-.38l2.21-2.79c.34-.43.27-1.06-.16-1.41-.43-.34-1.06-.27-1.4.16Z"/><path class="cls-5" d="m53.1,36.83c.31,0,.59-.14.78-.38l2.21-2.79c.34-.43.27-1.06-.16-1.4-.43-.34-1.06-.27-1.4.16l-.43.54v-.86c0-.51-.45-.93-1-.93s-1,.42-1,.93v.86l-.42-.54c-.34-.43-.97-.51-1.41-.16-.43.34-.51.97-.16,1.4l2.21,2.79c.19.24.48.38.78.38Z"/><path class="cls-5" d="m56.43,51.25l-.43.54v-.85c0-.52-.45-.94-1-.94s-1,.42-1,.94v.85l-.43-.54c-.34-.43-.97-.51-1.4-.16-.43.34-.51.97-.16,1.4l2.21,2.79c.19.24.48.38.78.38s.59-.14.78-.38l2.21-2.79c.34-.43.27-1.06-.16-1.4-.43-.34-1.06-.27-1.4.16Z"/><path class="cls-5" d="m10.11,52.59l-.43.54v-.91c0-.49-.45-.88-1-.88s-1,.39-1,.88v.91l-.43-.54c-.34-.43-.97-.51-1.4-.16-.43.34-.51.97-.16,1.4l2.21,2.79c.19.24.48.38.78.38s.59-.14.78-.38l2.21-2.79c.34-.43.27-1.06-.16-1.4-.43-.34-1.06-.27-1.4.16Z"/><path class="cls-5" d="m8.69,35c.31,0,.59-.14.78-.38l2.21-2.79c.34-.43.27-1.06-.16-1.4-.43-.34-1.06-.27-1.4.16l-.43.54v-.92c0-.48-.45-.87-1-.87s-1,.39-1,.87v.92l-.43-.54c-.34-.43-.97-.51-1.4-.16-.43.34-.51.97-.16,1.4l2.21,2.79c.19.24.48.38.78.38Z"/><path class="cls-5" d="m12.78,19.49l2.21-2.79c.34-.43.27-1.06-.16-1.41-.43-.34-1.06-.27-1.4.16l-.43.54v-.89c0-.5-.45-.9-1-.9s-1,.4-1,.9v.89l-.43-.54c-.34-.43-.97-.5-1.4-.16-.43.34-.51.97-.16,1.41l2.21,2.79c.19.24.48.38.78.38s.59-.14.78-.38Z"/><ellipse class="cls-5" cx="43" cy="19" rx="4" ry="5"/><path class="cls-1" d="m43,29.6c-.55,0-1-.45-1-1v-7.6c0-.55.45-1,1-1s1,.45,1,1v7.6c0,.55-.45,1-1,1Z"/><ellipse class="cls-5" cx="17" cy="41" rx="4" ry="5"/><path class="cls-1" d="m17,51.6c-.55,0-1-.45-1-1v-7.6c0-.55.45-1,1-1s1,.45,1,1v7.6c0,.55-.45,1-1,1Z"/></svg>