<?xml version="1.0" encoding="UTF-8"?><svg id="Flat" xmlns="http://www.w3.org/2000/svg" viewBox="0 0 64 64"><defs><style>.cls-1{fill:#a26a55;}.cls-2{fill:#6581c6;}.cls-3{fill:#d3dce5;}.cls-4{fill:#536882;}.cls-5{fill:#759dd1;}.cls-6{fill:#78b24c;}</style></defs><rect class="cls-1" x="4" y="20" width="21" height="33"/><rect class="cls-1" x="39" y="20" width="21" height="33"/><path class="cls-5" d="m60,58v-8c-.57-.01-1.83-.13-3-1-.44-.33-.77-.69-1-1-.23.31-.56.67-1,1-1.17.87-2.43.99-3,1-.57-.01-1.83-.13-3-1-.44-.33-.77-.69-1-1-.23.31-.56.67-1,1-1.17.87-2.43.99-3,1-.57-.01-1.83-.13-3-1-.44-.33-.77-.69-1-1-.23.31-.56.67-1,1-1.17.87-2.43.99-3,1-.57-.01-1.83-.13-3-1-.44-.33-.77-.69-1-1-.23.31-.56.67-1,1-1.17.87-2.43.99-3,1-.57-.01-1.83-.13-3-1-.44-.33-.77-.69-1-1-.23.31-.56.67-1,1-1.17.87-2.43.99-3,1-.57-.01-1.83-.13-3-1-.44-.33-.77-.69-1-1-.23.31-.56.67-1,1-1.17.87-2.43.99-3,1-.57-.01-1.83-.13-3-1-.44-.33-.77-.69-1-1-.23.31-.56.67-1,1-1.17.87-2.43.99-3,1v8h56Z"/><path class="cls-5" d="m39,51h-14V8c1.69-.49,4.09-1,7-1,1.76,0,4.21.18,7,1v43Z"/><path class="cls-4" d="m39,14h21V5.57s-3.4,2.06-3.4,2.06c-.36.22-.81.19-1.14-.07l-3.05-2.43c-.26-.2-.6-.27-.91-.18l-3.32.99c-.12.04-.23.1-.33.17l-1.98,1.56c-.25.2-.59.27-.9.18l-2.68-.77c-.19-.06-.4-.05-.59.01l-2.71.9"/><polyline class="cls-6" points="39 20 60 20 60 14 39 14"/><path class="cls-4" d="m25,14H4V5.57s3.4,2.06,3.4,2.06c.36.22.81.19,1.14-.07l3.05-2.43c.26-.2.6-.27.91-.18l3.32.99c.12.04.23.1.33.17l1.98,1.56c.25.2.59.27.9.18l2.68-.77c.19-.06.4-.05.59.01l2.71.9"/><polyline class="cls-6" points="25 20 4 20 4 14 25 14"/><path class="cls-3" d="m42,48.54h0c0,2.12-1.72,3.85-3.85,3.85h-12.31c-2.12,0-3.85-1.72-3.85-3.85h0c0-1.46,1.02-2.68,2.38-3,.32-1.37,1.54-2.38,3-2.38.63,0,1.22.19,1.72.52.42-1.2,1.55-2.06,2.9-2.06s2.48.86,2.9,2.06c.49-.33,1.08-.52,1.72-.52,1.46,0,2.68,1.02,3,2.38,1.37.32,2.38,1.54,2.38,3Z"/><path class="cls-2" d="m29,17.49c-.55,0-1-.45-1-1v-3.49c0-.55.45-1,1-1s1,.45,1,1v3.49c0,.55-.45,1-1,1Z"/><path class="cls-2" d="m29,30.49c-.55,0-1-.45-1-1v-5.49c0-.55.45-1,1-1s1,.45,1,1v5.49c0,.55-.45,1-1,1Z"/><path class="cls-2" d="m35,24.49c-.55,0-1-.45-1-1v-5.49c0-.55.45-1,1-1s1,.45,1,1v5.49c0,.55-.45,1-1,1Z"/><path class="cls-2" d="m35,36.49c-.55,0-1-.45-1-1v-3.49c0-.55.45-1,1-1s1,.45,1,1v3.49c0,.55-.45,1-1,1Z"/></svg>