<?xml version="1.0" encoding="UTF-8"?><svg id="Flat" xmlns="http://www.w3.org/2000/svg" viewBox="0 0 64 64"><defs><style>.cls-1{fill:#edae65;}.cls-2{fill:#b8c3d5;}.cls-3{fill:#d3dce5;}.cls-4{fill:#e26677;}.cls-5{fill:#759dd1;}</style></defs><path class="cls-3" d="m32,7.25c-.55,0-1-.45-1-1v-2.25c0-.55.45-1,1-1s1,.45,1,1v2.25c0,.55-.45,1-1,1Z"/><rect class="cls-3" x="26" y="15" width="12" height="10"/><path class="cls-4" d="m39,14.25c0,.55-.45,1-1,1h-12c-.55,0-1-.45-1-1,0-5.7,4.48-7.88,6.85-8.24.1-.01.2-.01.3,0,2.37.36,6.85,2.54,6.85,8.24Z"/><path class="cls-4" d="m40,15.25h-16c-.55,0-1-.45-1-1s.45-1,1-1h16c.55,0,1,.45,1,1s-.45,1-1,1Z"/><path class="cls-4" d="m37.95,29h-11.89c-.43,0-.81-.28-.95-.68l-.67-2c-.22-.65.27-1.32.95-1.32h13.23c.68,0,1.16.67.95,1.32l-.67,2c-.14.41-.52.68-.95.68Z"/><path class="cls-2" d="m32,19h0c1.1,0,2,.9,2,2v4h-4v-4c0-1.1.9-2,2-2Z"/><polygon class="cls-3" points="37.36 34 26.64 34 27 29 37 29 37.36 34"/><polygon class="cls-4" points="37.73 39 26.27 39 26.64 34 37.36 34 37.73 39"/><polygon class="cls-3" points="38.09 44 25.91 44 26.27 39 37.73 39 38.09 44"/><polygon class="cls-4" points="38.62 51.25 25.38 51.25 25.91 44 38.09 44 38.62 51.25"/><path class="cls-5" d="m60,58v-8c-.57-.01-1.83-.13-3-1-.44-.33-.77-.69-1-1-.23.31-.56.67-1,1-1.17.87-2.43.99-3,1-.57-.01-1.83-.13-3-1-.44-.33-.77-.69-1-1-.23.31-.56.67-1,1-1.17.87-2.43.99-3,1-.57-.01-1.83-.13-3-1-.44-.33-.77-.69-1-1-.23.31-.56.67-1,1-1.17.87-2.43.99-3,1-.57-.01-1.83-.13-3-1-.44-.33-.77-.69-1-1-.23.31-.56.67-1,1-1.17.87-2.43.99-3,1-.57-.01-1.83-.13-3-1-.44-.33-.77-.69-1-1-.23.31-.56.67-1,1-1.17.87-2.43.99-3,1-.57-.01-1.83-.13-3-1-.44-.33-.77-.69-1-1-.23.31-.56.67-1,1-1.17.87-2.43.99-3,1-.57-.01-1.83-.13-3-1-.44-.33-.77-.69-1-1-.23.31-.56.67-1,1-1.17.87-2.43.99-3,1v8h56Z"/><path class="cls-1" d="m49,21h-5c-.55,0-1-.45-1-1s.45-1,1-1h5c.55,0,1,.45,1,1s-.45,1-1,1Z"/><path class="cls-1" d="m43.48,17.5c-.43,0-.82-.28-.96-.71-.16-.53.14-1.09.66-1.25l4.78-1.46c.53-.17,1.09.14,1.25.66s-.14,1.09-.66,1.25l-4.78,1.46c-.1.03-.2.04-.29.04Z"/><path class="cls-1" d="m48.26,25.96c-.1,0-.19-.01-.29-.04l-4.78-1.46c-.53-.16-.83-.72-.66-1.25.16-.53.72-.83,1.25-.66l4.78,1.46c.53.16.83.72.66,1.25-.13.43-.53.71-.96.71Z"/><path class="cls-1" d="m20,21h-5c-.55,0-1-.45-1-1s.45-1,1-1h5c.55,0,1,.45,1,1s-.45,1-1,1Z"/><path class="cls-1" d="m20.52,17.5c-.1,0-.19-.01-.29-.04l-4.78-1.46c-.53-.16-.83-.72-.66-1.25.16-.53.72-.83,1.25-.66l4.78,1.46c.53.16.83.72.66,1.25-.13.43-.53.71-.96.71Z"/><path class="cls-1" d="m15.74,25.96c-.43,0-.82-.28-.96-.71-.16-.53.14-1.09.66-1.25l4.78-1.46c.53-.17,1.09.14,1.25.66s-.14,1.09-.66,1.25l-4.78,1.46c-.1.03-.2.04-.29.04Z"/></svg>