<?xml version="1.0" encoding="UTF-8"?><svg id="Flat" xmlns="http://www.w3.org/2000/svg" viewBox="0 0 64 64"><defs><style>.cls-1{fill:#a26a55;}.cls-2{fill:#b8c3d5;}.cls-3{fill:#9dabc4;}.cls-4{fill:#e26677;}</style></defs><path class="cls-4" d="m47.91,46.78c-4.83,1.3-4.83-5.2-8.78-6.21-2.31-.59-1.83-4.2-4.64-4-3.03.21-1.19,5.58-4.04,5.52-2.63-.06-1.41-5.01-4.05-4.91-2.65.09-2.1,8.03-6.19,8.7-1.54.25-2.23-.67-2.5-1.91h0c.57-1.05,1.12-2.12,1.67-3.23,2.45-4.96,4.13-9.63,5.31-13.71.24-.85,1.03-1.43,1.91-1.43h10.8c.88,0,1.67.58,1.91,1.43,1.18,4.08,2.86,8.75,5.31,13.71,1.05,2.15,2.16,4.16,3.29,6.04Z"/><path class="cls-1" d="m57.72,60H6.28c3.51-3.88,7.68-9.19,11.43-16.03.27,1.24.96,2.16,2.5,1.91,4.09-.67,3.54-8.61,6.19-8.7,2.64-.1,1.42,4.85,4.05,4.91,2.85.06,1.01-5.31,4.04-5.52,2.81-.2,2.33,3.41,4.64,4,3.95,1.01,3.95,7.51,8.78,6.21,3.3,5.5,6.79,9.89,9.81,13.22Z"/><path class="cls-2" d="m52.7,6.6c.75,5.61-5.47,6.63-5.47,6.63-.63,5.24-5.84,4.44-5.84,4.44.35,3.32-3.56,4.12-3.56,4.12v3.81h-11.43v-3.81s-3.91-.8-3.56-4.12c0,0-5.2.8-5.84-4.44,0,0-6.21-1.02-5.47-6.63,0,0-2.13-.92-1.68-2.6h44.53c.45,1.68-1.68,2.6-1.68,2.6Z"/><path class="cls-3" d="m44.14,4.86c.08,1.24-.51,3.09-2.37,3.64-.37,1.53-1.51,3.53-3.99,3.53-.1,0-.2,0-.3-.01-.55-.03-.97-.51-.93-1.06.03-.55.49-.96,1.06-.93,1.92.1,2.28-2.22,2.31-2.49.05-.47.43-.85.91-.89,1.29-.11,1.33-1.31,1.31-1.67-.02-.45.26-.84.65-.98h.72c.34.14.6.46.63.86Z"/><path class="cls-3" d="m26.4,14.62c-.1,0-.2-.01-.29-.04-2.21-.68-2.87-2.58-2.94-3.99-3.17-1.07-3.81-3.96-3.67-5.44.05-.55.53-.96,1.09-.91.55.05.95.53.91,1.08-.02.3-.13,2.89,2.91,3.53.52.11.86.6.78,1.12-.03.21-.23,2.16,1.52,2.69.53.16.83.72.66,1.25-.13.43-.53.71-.96.71Z"/></svg>