<?xml version="1.0" encoding="UTF-8"?><svg id="Flat" xmlns="http://www.w3.org/2000/svg" viewBox="0 0 64 64"><defs><style>.cls-1{fill:#b8c3d5;}.cls-2{fill:#9dabc4;}.cls-3{fill:#78b24c;}</style></defs><path class="cls-1" d="m59.9,54.91c.05.59-.41,1.09-.99,1.09H5.11c-.59,0-1.06-.51-.99-1.1l2.17-20.8c.03-.3.2-.58.46-.74l5.08-3.22c.16-.1.3-.26.38-.44l4.94-11.33c.11-.25.31-.44.57-.54l5.8-2.16c.2-.08.37-.22.49-.4l3.9-6.08c.17-.26.43-.42.73-.46l5.96-.66c.36-.04.72.12.93.42l1.16,1.68h.01l5.64,8.13c.08.12.2.23.33.3l4.99,2.79c.19.1.34.27.43.48l3.3,7.65c.09.22.25.39.46.5l4.36,2.26,1.24.64c.3.16.5.46.54.8l1.91,21.19Z"/><path class="cls-2" d="m21.82,56.03l.67-13.82c.01-.22.1-.44.24-.61l7.87-9.07c.27-.31.69-.42,1.07-.29l6.27,2.11c.31.11.55.36.64.67l1.34,4.72c.07.25.24.47.47.6l2.04,1.15c.28.16.47.44.5.76l1.54,14.01"/><path class="cls-3" d="m56.21,32.28c-2.29,2.05-6.36,1.96-7.55-.25-1.62-3.01-2.21-2.86-6.04-4.48-3.83-1.61-1.45-5.27-4.94-7.15-3.49-1.87-.99-10.23-.99-10.23h.01l5.64,8.13c.08.12.2.23.33.3l4.99,2.79c.19.1.34.27.43.48l3.3,7.65c.09.22.25.39.46.5l4.36,2.26Z"/></svg>