<?xml version="1.0" encoding="UTF-8"?><svg id="Flat" xmlns="http://www.w3.org/2000/svg" viewBox="0 0 64 64"><defs><style>.cls-1{fill:#edae65;}.cls-2{fill:#a26a55;}.cls-3{fill:#b8c3d5;}.cls-4{fill:#d88852;}.cls-5{fill:#78b24c;}.cls-6{fill:#50823f;}</style></defs><path class="cls-3" d="m28,46c-.55,0-1-.45-1-1v-4c0-.55.45-1,1-1s1,.45,1,1v4c0,.55-.45,1-1,1Z"/><path class="cls-3" d="m10,46c-.55,0-1-.45-1-1v-4c0-.55.45-1,1-1s1,.45,1,1v4c0,.55-.45,1-1,1Z"/><path class="cls-3" d="m26,38h-14c-.55,0-1-.45-1-1v-4c0-.55.45-1,1-1h14c.55,0,1,.45,1,1v4c0,.55-.45,1-1,1Zm-13-2h12v-2h-12v2Z"/><rect class="cls-2" x="6" y="36" width="26" height="6" rx="2" ry="2"/><rect class="cls-2" x="8" y="26" width="22" height="8" rx="2" ry="2"/><rect class="cls-2" x="42" y="24" width="4" height="21"/><path class="cls-5" d="m60,46v14c0,.55-.43,1-.97,1H4.97c-.53,0-.97-.45-.97-1v-14c0-.55.43-1,.97-1h54.07c.53,0,.97.45.97,1Z"/><path class="cls-6" d="m14.83,51.09c.43.34.51.97.16,1.4l-2.21,2.79c-.19.24-.48.38-.78.38s-.59-.14-.78-.38l-2.21-2.79c-.34-.43-.27-1.06.16-1.4.43-.35,1.06-.27,1.4.16l.43.54v-.91c0-.49.45-.88,1-.88s1,.4,1,.88v.91l.43-.54c.34-.43.97-.51,1.4-.16Z"/><path class="cls-6" d="m34.83,55.09c.43.34.51.97.16,1.4l-2.21,2.79c-.19.24-.48.38-.78.38s-.59-.14-.78-.38l-2.21-2.79c-.34-.43-.27-1.06.16-1.4.43-.35,1.06-.27,1.4.16l.43.54v-.88c0-.5.45-.91,1-.91s1,.41,1,.91v.88l.43-.54c.34-.43.97-.51,1.4-.16Z"/><path class="cls-6" d="m55.83,51.09c.43.34.51.97.16,1.4l-2.21,2.79c-.19.24-.48.38-.78.38s-.59-.14-.78-.38l-2.21-2.79c-.34-.43-.27-1.06.16-1.4.43-.35,1.06-.27,1.4.16l.43.54v-.91c0-.49.45-.88,1-.88s1,.4,1,.88v.91l.43-.54c.34-.43.97-.51,1.4-.16Z"/><path class="cls-6" d="m40.15,46s.85-6,7.85-6c0,0,1.11-5,5.55-5,0,0,2.45-5,6.45-5v16h-19.85Z"/><circle class="cls-1" cx="21" cy="12" r="4"/><path class="cls-4" d="m21,6c-.55,0-1-.45-1-1v-1c0-.55.45-1,1-1s1,.45,1,1v1c0,.55-.45,1-1,1Z"/><path class="cls-4" d="m16.05,8.05c-.26,0-.51-.1-.71-.29l-.71-.71c-.39-.39-.39-1.02,0-1.41s1.02-.39,1.41,0l.71.71c.39.39.39,1.02,0,1.41-.2.2-.45.29-.71.29Z"/><path class="cls-4" d="m14,13h-1c-.55,0-1-.45-1-1s.45-1,1-1h1c.55,0,1,.45,1,1s-.45,1-1,1Z"/><path class="cls-4" d="m15.34,18.66c-.26,0-.51-.1-.71-.29-.39-.39-.39-1.02,0-1.41l.71-.71c.39-.39,1.02-.39,1.41,0s.39,1.02,0,1.41l-.71.71c-.2.2-.45.29-.71.29Z"/><path class="cls-4" d="m21,21c-.55,0-1-.45-1-1v-1c0-.55.45-1,1-1s1,.45,1,1v1c0,.55-.45,1-1,1Z"/><path class="cls-4" d="m26.66,18.66c-.26,0-.51-.1-.71-.29l-.71-.71c-.39-.39-.39-1.02,0-1.41s1.02-.39,1.41,0l.71.71c.39.39.39,1.02,0,1.41-.2.2-.45.29-.71.29Z"/><path class="cls-4" d="m29,13h-1c-.55,0-1-.45-1-1s.45-1,1-1h1c.55,0,1,.45,1,1s-.45,1-1,1Z"/><path class="cls-4" d="m25.95,8.05c-.26,0-.51-.1-.71-.29-.39-.39-.39-1.02,0-1.41l.71-.71c.39-.39,1.02-.39,1.41,0s.39,1.02,0,1.41l-.71.71c-.2.2-.45.29-.71.29Z"/><path class="cls-6" d="m54,21c0-2.1-1.28-3.85-3.01-4.35,0-.05.01-.1.01-.15,0-2.49-1.79-4.5-4-4.5-1.2,0-2.27.61-3,1.55-.73-.94-1.8-1.55-3-1.55-2.21,0-4,2.01-4,4.5,0,.05.01.1.01.15-1.73.5-3.01,2.25-3.01,4.35s1.28,3.85,3.01,4.35c0,.05-.01.1-.01.15,0,2.49,1.79,4.5,4,4.5,1.2,0,2.27-.61,3-1.55.73.94,1.8,1.55,3,1.55,2.21,0,4-2.01,4-4.5,0-.05-.01-.1-.01-.15,1.73-.5,3.01-2.25,3.01-4.35Z"/></svg>