<?xml version="1.0" encoding="UTF-8"?><svg id="Flat" xmlns="http://www.w3.org/2000/svg" viewBox="0 0 64 64"><defs><style>.cls-1{fill:#b8c3d5;}.cls-2{fill:#6581c6;}.cls-3{fill:#d3dce5;}.cls-4{fill:#759dd1;}</style></defs><polygon class="cls-3" points="48.53 22.36 15.47 22.36 16.74 17.89 20.77 16.43 24.79 9.99 26.43 11.32 27.34 12.07 28.44 10.16 32 4 36.66 12.07 38.05 10.94 39.21 9.99 40.02 11.29 43.23 16.43 47.26 17.89 48.53 22.36"/><path class="cls-1" d="m40.02,11.29l-.84,5.52c-.04.29-.21.54-.46.7l-3.23,2.03-.74,2.82-.02.08c-.11.45-.52.75-.96.75-.09,0-.17-.01-.25-.03-.39-.1-.67-.42-.74-.8-.02-.13-.02-.28.02-.42l.85-3.29c.06-.25.22-.46.44-.6l3.18-1.99.78-5.12,1.16-.95.81,1.3Z"/><path class="cls-1" d="m28.44,17.97c-.15.08-.31.11-.46.11-.36,0-.71-.19-.89-.53l-1.06-2.05c-.1-.18-.13-.39-.11-.6l.51-3.58.91.75,1.1-1.91c.08.17.12.37.09.57l-.58,4.13.92,1.76c.25.49.06,1.1-.43,1.35Z"/><polygon class="cls-4" points="32.4 47.04 32 60 29.51 54.19 26.91 52.91 24.32 54.36 23.13 46.91 17.63 43.34 17.63 35.35 13.23 30.96 13.23 24.83 15.15 22.19 23.41 22.23 26.19 29.51 26.19 36.06 31.04 40.23 32.4 47.04"/><polygon class="cls-2" points="49.81 26.11 47 29.04 45.98 33.26 42.91 35.81 41.64 43.98 37.6 46.7 37.34 50.96 32 60 32.4 47.04 31.04 40.23 26.19 36.06 26.19 29.51 23.41 22.23 48.53 22.36 49.81 26.11"/><path class="cls-4" d="m60,23.36H4c-.55,0-1-.45-1-1s.45-1,1-1h56c.55,0,1,.45,1,1s-.45,1-1,1Z"/></svg>