<?xml version="1.0" encoding="UTF-8"?><svg id="Flat" xmlns="http://www.w3.org/2000/svg" viewBox="0 0 64 64"><defs><style>.cls-1{fill:#a26a55;}.cls-2{fill:#6581c6;}.cls-3{fill:#759dd1;}.cls-4{fill:#78b24c;}</style></defs><path class="cls-4" d="m60,42.41c0,9.14-9.47,16.55-21.15,16.55s-21.16-7.41-21.16-16.55c0-.02,0-.04,0-.06.01-2.87-1.43-5.57-3.99-6.86-5.83-2.94-9.69-8.07-9.69-13.9C4,12.45,13.47,5.04,25.16,5.04s21.15,7.41,21.15,16.55c0,.02,0,.04,0,.05-.01,2.87,1.44,5.57,4,6.86,5.83,2.94,9.69,8.07,9.69,13.91Z"/><path class="cls-3" d="m38.85,53.96c-8.76,0-16.17-5.29-16.17-11.55.02-4.93-2.56-9.27-6.74-11.38-4.35-2.2-6.94-5.72-6.94-9.44,0-6.26,7.4-11.55,16.17-11.55s16.15,5.29,16.15,11.55c-.02,4.92,2.56,9.27,6.74,11.38,4.35,2.19,6.94,5.72,6.94,9.44,0,6.26-7.4,11.55-16.15,11.55Z"/><path class="cls-2" d="m25.61,21.96h-.02c-.93-.02-2.3-.25-3.57-1.2-.14-.1-.27-.21-.4-.33-.13.12-.26.23-.4.33-1.28.95-2.65,1.18-3.57,1.2-.56,0-1.01-.42-1.02-.98-.01-.55.42-1.01.98-1.02.64-.01,1.57-.17,2.43-.8.3-.22.57-.49.8-.8.19-.25.49-.4.8-.4h0c.31,0,.61.15.8.4.23.3.5.57.8.8.85.64,1.79.79,2.43.8.55.01.99.47.98,1.02-.01.54-.46.98-1,.98Z"/><path class="cls-2" d="m33.61,21.96h-.02c-.93-.02-2.3-.25-3.57-1.2-.14-.1-.27-.21-.4-.33-.13.12-.26.23-.4.33-1.28.95-2.65,1.18-3.57,1.2-.57,0-1.01-.42-1.02-.98-.01-.55.42-1.01.98-1.02.64-.01,1.57-.17,2.43-.8.3-.22.57-.49.8-.8.19-.25.49-.4.8-.4h0c.31,0,.61.15.8.4.23.3.5.57.8.8.85.64,1.79.79,2.43.8.55.01.99.47.98,1.02-.01.54-.46.98-1,.98Z"/><path class="cls-2" d="m42.3,44.1h-.02c-.93-.02-2.3-.25-3.57-1.2-.14-.1-.27-.21-.4-.33-.13.12-.26.22-.4.33-1.27.95-2.65,1.18-3.57,1.2-.57-.03-1.01-.42-1.02-.98-.01-.55.42-1.01.98-1.02.64-.01,1.57-.17,2.43-.8.3-.22.57-.49.8-.8.38-.5,1.22-.5,1.6,0,.23.31.5.58.8.8.85.64,1.79.79,2.43.8.55.01.99.47.98,1.02-.01.54-.46.98-1,.98Z"/><path class="cls-2" d="m50.3,44.1h-.02c-.93-.02-2.3-.25-3.57-1.2-.14-.1-.27-.21-.4-.33-.13.12-.26.22-.4.33-1.27.95-2.65,1.18-3.57,1.2-.56-.03-1.01-.42-1.02-.98-.01-.55.42-1.01.98-1.02.64-.01,1.57-.17,2.43-.8.3-.22.57-.49.8-.8.38-.5,1.22-.5,1.6,0,.23.31.5.58.8.8.85.64,1.79.79,2.43.8.55.01.99.47.98,1.02-.01.54-.46.98-1,.98Z"/><path class="cls-2" d="m37.61,34h-.02c-.93-.02-2.3-.25-3.57-1.2-.14-.1-.27-.21-.4-.33-.13.12-.26.23-.4.33-1.27.95-2.65,1.18-3.57,1.2-.57-.01-1.01-.42-1.02-.98-.01-.55.42-1.01.98-1.02.64-.01,1.57-.17,2.43-.8.3-.22.57-.49.8-.8.19-.25.49-.4.8-.4h0c.31,0,.61.15.8.4.23.31.5.58.8.8.85.64,1.79.79,2.43.8.55.01.99.47.98,1.02-.01.54-.46.98-1,.98Z"/><ellipse class="cls-4" cx="7.09" cy="42.94" rx="4" ry="5"/><ellipse class="cls-4" cx="56" cy="17.66" rx="4" ry="5"/><path class="cls-1" d="m56,28.26c-.55,0-1-.45-1-1v-7.6c0-.55.45-1,1-1s1,.45,1,1v7.6c0,.55-.45,1-1,1Z"/><path class="cls-1" d="m7.08,53.53c-.55,0-1-.45-1-1v-7.6c0-.55.45-1,1-1s1,.45,1,1v7.6c0,.55-.45,1-1,1Z"/><path class="cls-4" d="m17.04,55.13c.43.34.5.97.16,1.4l-2.21,2.79c-.19.24-.48.38-.78.38s-.59-.14-.78-.38l-2.21-2.79c-.34-.43-.27-1.06.16-1.4.43-.34,1.06-.27,1.41.16l.43.54v-.86c0-.51.45-.93,1-.93s1,.42,1,.93v.86l.43-.54c.34-.43.97-.51,1.41-.16Z"/><path class="cls-4" d="m45.51,7.66c-.34-.43-.27-1.06.16-1.4.43-.34,1.06-.27,1.4.16l.43.54v-.92c0-.48.45-.86,1-.86s1,.39,1,.86v.92l.43-.54c.34-.43.97-.51,1.4-.16.43.34.51.97.16,1.4l-2.21,2.79c-.19.24-.48.38-.78.38s-.59-.14-.78-.38l-2.21-2.79Z"/></svg>