<?xml version="1.0" encoding="UTF-8"?><svg id="Flat" xmlns="http://www.w3.org/2000/svg" viewBox="0 0 64 64"><defs><style>.cls-1{fill:#edae65;}.cls-2{fill:#a26a55;}.cls-3{fill:#894c3d;}.cls-4{fill:#759dd1;}.cls-5{fill:#78b24c;}.cls-6{fill:#50823f;}</style></defs><path class="cls-2" d="m29.75,46.12l-5.14,2.56-2.27.73c.55-2.71,1.14-7.08.44-12.28-.11-.83-.25-1.67-.44-2.53-.06-.32-.13-.64-.21-.96h-.01c-.09-.4-.18-.79-.3-1.19-.08-.34-.18-.68-.29-1.02-.41-1.33-.88-2.57-1.38-3.71-.14-.31-.28-.61-.42-.91-.16-.33-.31-.65-.47-.96-.9-1.76-1.84-3.24-2.69-4.45-.01,0-.02,0-.02-.02l.41-.47,1.03-1.01.86-.86c.16.16.51.4.68.57,1.13,1.13,2.37,2.54,3.59,4.25.22.31.44.62.66.95.18.27.36.55.55.83.48.78.96,1.6,1.42,2.48.31.59.59,1.18.85,1.77.15.31.28.62.41.93s.25.62.36.93h.01c.47,1.21.85,2.4,1.15,3.54,1.21,4.52,1.3,8.42,1.22,10.83Z"/><path class="cls-6" d="m17.96,20.02l-13.96,1.08c.29-.63,1.08-2.1,2.76-3.22,1.62-1.08,3.21-1.26,3.91-1.31.7-.06,2.3-.13,4.07.69,1.83.85,2.84,2.18,3.22,2.76Z"/><path class="cls-6" d="m17.96,20.02l8-11.49c-.69-.07-2.36-.13-4.18.75-1.75.85-2.72,2.13-3.11,2.71-.41.57-1.27,1.92-1.47,3.85-.19,2.01.44,3.55.75,4.18Z"/><path class="cls-5" d="m17.96,20.02l13.54-3.56c-.48-.5-1.71-1.63-3.66-2.14-1.89-.49-3.45-.14-4.12.05-.68.17-2.21.63-3.61,1.98-1.45,1.41-1.96,2.99-2.14,3.66Z"/><path class="cls-5" d="m17.96,20.02l-9.93,9.87c-.19-.67-.54-2.3.01-4.24.54-1.87,1.63-3.04,2.13-3.53.49-.5,1.67-1.59,3.54-2.11,1.95-.54,3.57-.18,4.24.01Z"/><path class="cls-3" d="m24.33,25.64c-.15.1-.33.16-.52.17-.59.01-1.19.15-1.72.4-.77.35-1.29.86-1.58,1.23-.1.12-.22.21-.36.28-.14-.31-.28-.61-.42-.91-.16-.33-.31-.65-.47-.96.55-.61,1.23-1.11,1.99-1.46.6-.27,1.23-.45,1.87-.53.22.31.44.62.66.95.18.27.36.55.55.83Z"/><path class="cls-2" d="m46.59,16.92c-.86,1.21-1.81,2.7-2.71,4.47-.3.59-.6,1.21-.89,1.87-.5,1.15-.97,2.39-1.38,3.72-.11.34-.21.68-.3,1.02-.2.73-.37,1.44-.51,2.14-1.4,6.61-.57,12.21.1,15.26l-7.51-3.74c-.1-3.01.07-8.37,2.37-14.37.23-.61.49-1.23.78-1.86.26-.59.54-1.18.85-1.77.46-.87.94-1.7,1.43-2.47.39-.63.8-1.23,1.2-1.79h.01c1.39-1.96,2.82-3.52,4.07-4.74l.75.68.51.33.3.26.92.98Z"/><path class="cls-1" d="m11.87,49.99c1.01-3.38,2.85-6.41,5.28-8.84,3.8-3.8,9.05-6.15,14.85-6.15s11.05,2.35,14.85,6.15c2.43,2.43,4.27,5.46,5.28,8.84"/><path class="cls-4" d="m60,58v-8c-.57-.01-1.83-.13-3-1-.44-.33-.77-.69-1-1-.23.31-.56.67-1,1-1.17.87-2.43.99-3,1-.57-.01-1.83-.13-3-1-.44-.33-.77-.69-1-1-.23.31-.56.67-1,1-1.17.87-2.43.99-3,1-.57-.01-1.83-.13-3-1-.44-.33-.77-.69-1-1-.23.31-.56.67-1,1-1.17.87-2.43.99-3,1-.57-.01-1.83-.13-3-1-.44-.33-.77-.69-1-1-.23.31-.56.67-1,1-1.17.87-2.43.99-3,1-.57-.01-1.83-.13-3-1-.44-.33-.77-.69-1-1-.23.31-.56.67-1,1-1.17.87-2.43.99-3,1-.57-.01-1.83-.13-3-1-.44-.33-.77-.69-1-1-.23.31-.56.67-1,1-1.17.87-2.43.99-3,1-.57-.01-1.83-.13-3-1-.44-.33-.77-.69-1-1-.23.31-.56.67-1,1-1.17.87-2.43.99-3,1v8h56Z"/><path class="cls-6" d="m45.18,15.57l13.96,1.08c-.29-.63-1.08-2.1-2.76-3.22-1.62-1.08-3.21-1.26-3.91-1.31-.7-.06-2.3-.13-4.07.69-1.83.85-2.84,2.18-3.22,2.76Z"/><path class="cls-6" d="m45.18,15.57l-8-11.49c.69-.07,2.36-.13,4.18.75,1.75.85,2.72,2.13,3.11,2.71.41.57,1.27,1.92,1.47,3.85.19,2.01-.44,3.55-.75,4.18Z"/><path class="cls-5" d="m45.18,15.57l-13.54-3.56c.48-.5,1.71-1.63,3.66-2.14,1.89-.49,3.45-.14,4.12.05.68.17,2.21.63,3.61,1.98,1.45,1.41,1.96,2.99,2.14,3.66Z"/><path class="cls-5" d="m45.18,15.57l9.93,9.87c.19-.67.54-2.3-.01-4.24-.54-1.87-1.63-3.04-2.13-3.53-.49-.5-1.67-1.59-3.54-2.11-1.95-.54-3.57-.18-4.24.01Z"/><path class="cls-3" d="m43.88,21.39c-.3.59-.6,1.21-.89,1.87-.14-.06-.26-.16-.36-.28-.29-.36-.81-.88-1.58-1.23-.53-.25-1.13-.38-1.72-.4-.19,0-.37-.06-.51-.16.39-.63.8-1.23,1.2-1.79h.01c.64.09,1.27.26,1.85.53.75.35,1.45.85,2,1.46Z"/><path class="cls-3" d="m41.31,28c-.2.73-.37,1.44-.51,2.14-.26-.05-.48-.2-.62-.41-.25-.3-.85-.99-1.92-1.57-.7-.37-1.48-.65-2.33-.82-.06-.01-.12-.03-.17-.05.23-.61.49-1.23.78-1.86.95.21,1.85.53,2.67.97.8.43,1.5.96,2.1,1.6Z"/><path class="cls-3" d="m27.37,31.75s-.1.04-.16.05c-.85.17-1.64.44-2.34.82-1.1.6-1.72,1.32-1.95,1.6-.14.19-.34.33-.58.38-.06-.32-.13-.64-.21-.96h-.01c-.09-.4-.18-.79-.3-1.19.43-.44,1.12-1.05,2.1-1.59.83-.44,1.73-.77,2.68-.97.15.31.28.62.41.93s.25.62.36.93Z"/></svg>