<?xml version="1.0" encoding="UTF-8"?><svg id="Flat" xmlns="http://www.w3.org/2000/svg" viewBox="0 0 64 64"><defs><style>.cls-1{fill:#a26a55;}.cls-2{fill:#b8c3d5;}.cls-3{fill:#d3dce5;}.cls-4{fill:#78b24c;}</style></defs><path class="cls-1" d="m50,41c-.55,0-1-.45-1-1v-7c0-.55.45-1,1-1s1,.45,1,1v7c0,.55-.45,1-1,1Z"/><path class="cls-1" d="m14,47.89c-.55,0-1-.45-1-1v-8.79c0-.55.45-1,1-1s1,.45,1,1v8.79c0,.55-.45,1-1,1Z"/><path class="cls-3" d="m52.96,20.7l1.5,3.05c-1.2.29-2.28.25-2.84.04-.71-.25-.95-.59-1.62-.61-.72-.03-1,.34-1.82.6-.52.16-1.56.22-2.66,0l1.52-3.08h-3.04l3-4.36,3-4.34,3,4.34,3,4.36h-3.04Z"/><path class="cls-4" d="m52.95,26.85l3.05,6.15h-12l3.05-6.15h-3.05l1.38-2.79.14-.28c1.1.22,2.14.16,2.66,0,.82-.26,1.1-.63,1.82-.6.67.02.91.36,1.62.61.56.21,1.64.25,2.84-.04l.28.56h.01l1.25,2.54h-3.05Z"/><path class="cls-2" d="m12,60l1.91-5.27c1.64-4.53,4.53-8.55,8.48-11.31,5.64-3.94,12.41-6.12,19.43-6.12h18.18v22.7H12Z"/><path class="cls-3" d="m16.96,26.7l1.63,3.31c-1.23.21-2.11.07-2.71-.12-.83-.26-1.1-.6-1.88-.62-.83-.02-1.16.35-2.11.6-.54.15-1.36.28-2.48.12l1.63-3.29h-3.04l3-4.36,3-4.34,3,4.34,3,4.36h-3.04Z"/><path class="cls-4" d="m16.95,32.85l3.05,6.15h-12l3.05-6.15h-3.05l1.41-2.86c1.12.16,1.94.03,2.48-.12.95-.25,1.28-.62,2.11-.6.78.02,1.05.36,1.88.62.6.19,1.48.33,2.71.12l1.41,2.84h-3.05Z"/><path class="cls-3" d="m52,60l-3.84-4.58c-6.44-7.69-15.96-12.13-25.99-12.13H4v16.7h48Z"/><circle class="cls-3" cx="37" cy="20.7" r="2"/><circle class="cls-3" cx="27.45" cy="13" r="2"/><circle class="cls-3" cx="40.17" cy="8" r="2"/><circle class="cls-3" cx="57.13" cy="7" r="2"/><circle class="cls-3" cx="27" cy="24.65" r="2"/><circle class="cls-3" cx="8" cy="15" r="2"/><circle class="cls-3" cx="17" cy="7" r="2"/></svg>