<?xml version="1.0" encoding="UTF-8"?><svg id="Flat" xmlns="http://www.w3.org/2000/svg" viewBox="0 0 64 64"><defs><style>.cls-1{fill:#a26a55;}.cls-2{fill:#6581c6;}.cls-3{fill:#d3dce5;}.cls-4{fill:#894c3d;}.cls-5{fill:#759dd1;}.cls-6{fill:#78b24c;}</style></defs><path class="cls-5" d="m60,44v8c-.57-.01-1.83-.13-3-1-.44-.33-.77-.69-1-1-.23.31-.56.67-1,1-1.17.87-2.43.99-3,1-.57-.01-1.83-.13-3-1-.44-.33-.77-.69-1-1-.23.31-.56.67-1,1-1.17.87-2.43.99-3,1-.57-.01-1.83-.13-3-1-.44-.33-.77-.69-1-1-.23.31-.56.67-1,1-1.17.87-2.43.99-3,1-.57-.01-1.83-.13-3-1-.44-.33-.77-.69-1-1-.23.31-.56.67-1,1-1.17.87-2.43.99-3,1-.57-.01-1.83-.13-3-1-.44-.33-.77-.69-1-1-.23.31-.56.67-1,1-1.17.87-2.43.99-3,1-.57-.01-1.83-.13-3-1-.44-.33-.77-.69-1-1-.23.31-.56.67-1,1-1.17.87-2.43.99-3,1-.57-.01-1.83-.13-3-1-.44-.33-.77-.69-1-1-.23.31-.56.67-1,1-1.17.87-2.43.99-3,1v-8c.57-.01,1.83-.13,3-1,.44-.33.77-.69,1-1,.23.31.56.67,1,1,1.17.87,2.43.99,3,1,.57-.01,1.83-.13,3-1,.44-.33.77-.69,1-1,.23.31.56.67,1,1,1.17.87,2.43.99,3,1,.57-.01,1.83-.13,3-1,.44-.33.77-.69,1-1,.23.31.56.67,1,1,1.17.87,2.43.99,3,1,.57-.01,1.83-.13,3-1,.44-.33.77-.69,1-1,.23.31.56.67,1,1,1.17.87,2.43.99,3,1,.57-.01,1.83-.13,3-1,.44-.33.77-.69,1-1,.23.31.56.67,1,1,1.17.87,2.43.99,3,1,.57-.01,1.83-.13,3-1,.44-.33.77-.69,1-1,.23.31.56.67,1,1,1.17.87,2.43.99,3,1,.57-.01,1.83-.13,3-1,.44-.33.77-.69,1-1,.23.31.56.67,1,1,1.17.87,2.43.99,3,1Z"/><path class="cls-3" d="m57.97,13.7c-.95-.46-1.8-.39-2.56-.12,0-.07.02-.14.02-.22,0-1.89-1.54-3.43-3.43-3.43s-3.43,1.54-3.43,3.43c0,.07.02.14.02.22-.76-.27-1.61-.34-2.56.12-1.28.62-2.03,1.97-2.03,3.39h0c0,1.73,1.41,3.14,3.14,3.14h9.72c1.73,0,3.14-1.41,3.14-3.14h0c0-1.42-.76-2.77-2.03-3.39Z"/><path class="cls-3" d="m35.76,6.62c-.95-.46-1.8-.39-2.56-.12,0-.07.02-.14.02-.22,0-1.89-1.54-3.43-3.43-3.43s-3.43,1.54-3.43,3.43c0,.07.02.14.02.22-.76-.27-1.61-.34-2.56.12-1.28.62-2.03,1.97-2.03,3.39h0c0,1.73,1.41,3.14,3.14,3.14h9.72c1.73,0,3.14-1.41,3.14-3.14h0c0-1.42-.76-2.77-2.03-3.39Z"/><path class="cls-6" d="m4,31.94v-7.44h13.62c8.02,0,14.08,4.21,14.08,4.21,0,0-3.49,1.72-7.91,2.95-4.8,1.34-10.67,2.19-13.55,2.15-5.53-.09-6.23,0-6.23,0v-1.87Z"/><path class="cls-1" d="m27.13,41.02v2.98l2.47,2.85.3,5.21-8.09.12-2.13.03-9.52.15-1.5.02-4.66.07v-20.5h3.64l1.54-.91c.86-.51,1.89-.62,2.84-.32l3.79,1.23,2.88-.15,1.98-.1,1.78-.09,9.25-2.89-.93,7.37-3.64,4.93Z"/><path class="cls-4" d="m21.81,52.18l-2.13.03-2.88-7.07c-.04-.1-.07-.2-.08-.31l-.48-5.34c-.01-.14.01-.27.05-.4l2.4-7.29,1.98-.1c.04.18.04.37-.02.55l-2.4,7.27.45,4.97,3.05,7.5c.03.06.05.13.06.19Z"/><path class="cls-4" d="m12.24,38.14l-1.98,3.23,1.22,1.88c.13.21.18.46.14.71l-1.23,7.92c-.03.18-.11.35-.23.48l-1.5.02c-.2-.22-.3-.52-.25-.83l1.18-7.54-1.35-2.08c-.21-.32-.21-.74-.01-1.06l2.3-3.77c.29-.48.9-.62,1.37-.34.48.29.62.91.34,1.38Z"/><path class="cls-2" d="m4,60v-8c.57-.01,1.83-.13,3-1,.44-.33.77-.69,1-1,.23.31.56.67,1,1,1.17.87,2.43.99,3,1,.57-.01,1.83-.13,3-1,.44-.33.77-.69,1-1,.23.31.56.67,1,1,1.17.87,2.43.99,3,1,.57-.01,1.83-.13,3-1,.44-.33.77-.69,1-1,.23.31.56.67,1,1,1.17.87,2.43.99,3,1,.57-.01,1.83-.13,3-1,.44-.33.77-.69,1-1,.23.31.56.67,1,1,1.17.87,2.43.99,3,1,.57-.01,1.83-.13,3-1,.44-.33.77-.69,1-1,.23.31.56.67,1,1,1.17.87,2.43.99,3,1,.57-.01,1.83-.13,3-1,.44-.33.77-.69,1-1,.23.31.56.67,1,1,1.17.87,2.43.99,3,1,.57-.01,1.83-.13,3-1,.44-.33.77-.69,1-1,.23.31.56.67,1,1,1.17.87,2.43.99,3,1v8H4Z"/></svg>