<?xml version="1.0" encoding="UTF-8"?><svg id="Flat" xmlns="http://www.w3.org/2000/svg" viewBox="0 0 64 64"><defs><style>.cls-1{fill:#50823f;}.cls-1,.cls-2,.cls-3,.cls-4{stroke-width:0px;}.cls-2{fill:#d85264;}.cls-3{fill:#d3dce5;}.cls-4{fill:#b8c3d5;}</style></defs><polygon class="cls-4" points="39.64 3.98 12.89 3.98 11.28 9.23 41.25 9.23 39.64 3.98"/><polygon class="cls-4" points="11.28 54.77 12.89 60.02 39.64 60.02 41.25 54.77 11.28 54.77"/><path class="cls-2" d="m41.44,9.23H11.09c-1.85,0-3.36,1.51-3.36,3.36v24.26c0,.56.36,1.05.9,1.21l4.52,1.36c.59.18.64,1,.08,1.25l-4.75,2.12c-.45.2-.75.65-.75,1.15v7.47c0,1.85,1.51,3.36,3.36,3.36h30.35c1.85,0,3.36-1.51,3.36-3.36V12.59c0-1.85-1.51-3.36-3.36-3.36Z"/><path class="cls-3" d="m27.94,9.23h-3.66s8.77,29.67,0,45.53h11.74c5.06-21.59-8.08-45.53-8.08-45.53Z"/><circle class="cls-1" cx="44.27" cy="46.02" r="12"/><path class="cls-3" d="m50.11,46.73c-.53-.16-1.09.14-1.25.67-.6,2.02-2.5,3.42-4.6,3.42-1.45,0-2.79-.68-3.68-1.75l1.19.23c.55.11,1.07-.25,1.17-.79.11-.54-.25-1.07-.79-1.17l-3.26-.63c-.53-.11-1.05.24-1.17.76l-.72,3.24c-.12.54.22,1.07.76,1.19.07.02.15.02.22.02.46,0,.87-.32.98-.78l.16-.72c1.27,1.47,3.13,2.4,5.15,2.4,2.98,0,5.66-1.99,6.52-4.85.16-.53-.14-1.09-.67-1.25Z"/><path class="cls-3" d="m50.77,40.14c-.53-.12-1.07.22-1.19.76l-.16.72c-1.27-1.47-3.13-2.4-5.15-2.4-2.98,0-5.66,1.99-6.52,4.85-.16.53.14,1.09.67,1.25.53.16,1.09-.14,1.25-.67.6-2.01,2.5-3.42,4.6-3.42,1.45,0,2.79.68,3.68,1.75l-1.19-.23c-.54-.1-1.07.25-1.17.79-.1.54.25,1.07.79,1.17l3.26.63c.06.01.13.02.19.02.46,0,.87-.32.98-.78l.72-3.24c.12-.54-.22-1.07-.76-1.19Z"/><path class="cls-3" d="m23.75,32.84l-4.96-4.68,2.95-1.77c.47-.28.63-.9.34-1.37-.28-.48-.9-.63-1.37-.35l-8.88,5.33-4.1-3.52v2.63l3.35,2.88c.19.16.42.24.65.24.18,0,.36-.05.52-.14l4.76-2.86,5.37,5.07c.19.18.44.27.69.27s.53-.11.72-.31c.38-.41.36-1.04-.04-1.42Z"/></svg>