<?xml version="1.0" encoding="UTF-8"?><svg id="Flat" xmlns="http://www.w3.org/2000/svg" viewBox="0 0 64 64"><defs><style>.cls-1{fill:#50823f;}.cls-1,.cls-2,.cls-3,.cls-4{stroke-width:0px;}.cls-2{fill:#d3dce5;}.cls-3{fill:#b8c3d5;}.cls-4{fill:#9eabc4;}</style></defs><path class="cls-3" d="m46.37,23.27c-.04-1.1-.17-2.21-.36-3.29l-2.63-14.7c-.14-.76-.8-1.32-1.58-1.32H13.85c-.75,0-1.4.52-1.57,1.25l-3.12,13.92c-.22.98-.38,1.97-.48,2.97-.06.62.35,1.2.95,1.38l5.06,1.53c.58.18.63.97.08,1.22l-4.75,2.12c-.6.27-.91.93-.75,1.56,1.52,5.88,5.93,12.69,18.16,13.14,0,0,19.7,1.71,18.92-19.8Z"/><circle class="cls-1" cx="43.38" cy="35.2" r="12"/><path class="cls-2" d="m49.23,35.91c-.53-.16-1.09.14-1.25.67-.6,2.02-2.5,3.42-4.6,3.42-1.45,0-2.79-.68-3.68-1.75l1.19.23c.55.1,1.07-.25,1.17-.79.1-.54-.25-1.07-.79-1.17l-3.26-.63c-.53-.1-1.05.24-1.17.76l-.72,3.24c-.12.54.22,1.07.76,1.19.07.02.15.02.22.02.46,0,.87-.32.98-.78l.16-.72c1.27,1.47,3.13,2.4,5.15,2.4,2.98,0,5.66-1.99,6.52-4.85.16-.53-.14-1.09-.67-1.25Z"/><path class="cls-2" d="m49.89,29.31c-.53-.12-1.07.22-1.19.76l-.16.72c-1.27-1.47-3.13-2.4-5.15-2.4-2.98,0-5.66,1.99-6.52,4.85-.16.53.14,1.09.67,1.25.53.16,1.09-.14,1.25-.67.6-2.02,2.5-3.42,4.6-3.42,1.45,0,2.79.68,3.68,1.75l-1.19-.23c-.54-.11-1.07.25-1.17.79-.11.54.25,1.07.79,1.17l3.26.63c.06.01.13.02.19.02.46,0,.87-.32.98-.78l.72-3.24c.12-.54-.22-1.07-.76-1.19Z"/><path class="cls-2" d="m26.76,19.68l-5.15-4.48,2.88-1.88c.46-.31.59-.93.28-1.39-.3-.46-.92-.59-1.38-.29l-8.65,5.69-4.39-3.46-.49,2.16,4.2,3.31c.19.15.4.22.62.22.19,0,.39-.06.55-.17l4.65-3.05,5.57,4.85c.19.16.42.24.65.24.28,0,.56-.11.76-.34.36-.42.32-1.05-.1-1.41Z"/><path class="cls-4" d="m39.2,58.81l-8.18-3.31v-12.56c-2.11.25-3.57.12-3.57.12-1.27-.05-2.43-.18-3.54-.35v12.79l-8.18,3.31c-.66.26-.47,1.24.23,1.24h23c.71,0,.89-.98.23-1.24Z"/></svg>