<?xml version="1.0" encoding="UTF-8"?><svg id="Flat" xmlns="http://www.w3.org/2000/svg" viewBox="0 0 64 64"><defs><style>.cls-1{fill:#50823f;}.cls-1,.cls-2,.cls-3,.cls-4,.cls-5,.cls-6{stroke-width:0px;}.cls-2{fill:#536882;}.cls-3{fill:#d3dce5;}.cls-4{fill:#b8c3d5;}.cls-5{fill:#9eabc4;}.cls-6{fill:#737e9b;}</style></defs><path class="cls-4" d="m49.38,6.64H13.04c-3.11,0-5.65,2.54-5.65,5.65v16.49c0,.48.3.91.75,1.07l3.2,1.18c.46.17.5.8.08,1.03l-3.43,1.87c-.37.2-.6.58-.6,1v3.79h47.64V12.29c0-3.11-2.54-5.65-5.65-5.65Z"/><path class="cls-6" d="m53.56,49.01c5.11-2.49,5.03-7.44,4.77-9.45-.06-.48-.47-.84-.95-.84H5.1c-.57,0-1.05.47-1.07,1.04-.28,6.13,2.19,8.4,3.43,9.14.37.22.78.33,1.21.33h43.87c.35,0,.71-.07,1.03-.22Z"/><path class="cls-2" d="m44.05,38.72l-2.77,4.1c-.37.55-1,.88-1.66.88h-16.81c-.67,0-1.29-.33-1.66-.88l-2.77-4.1h25.68Z"/><path class="cls-3" d="m40.97,6.64l-1.9,3.84c-.26.65-.89,1.08-1.59,1.08h-12.35c-.68,0-1.3-.4-1.57-1.03l-2.12-3.89h19.54Z"/><path class="cls-5" d="m26.11,28.03c-.19.21-.46.32-.73.32-.24,0-.49-.09-.68-.28l-6.47-6.1-5.77,3.46c-.15.1-.33.14-.51.14-.23,0-.46-.08-.65-.24l-3.91-3.35v-2.63l4.66,4,10.64-6.39c.47-.28,1.09-.13,1.37.35.28.47.13,1.09-.34,1.37l-3.71,2.22,6.06,5.72c.4.38.42,1.01.04,1.41Z"/><circle class="cls-1" cx="48" cy="45.36" r="12"/><path class="cls-3" d="m53.85,46.07c-.53-.16-1.09.14-1.25.67-.6,2.02-2.5,3.42-4.6,3.42-1.45,0-2.79-.68-3.68-1.75l1.19.23c.54.11,1.07-.25,1.17-.79.11-.54-.25-1.07-.79-1.17l-3.26-.63c-.53-.1-1.05.23-1.17.76l-.72,3.24c-.12.54.22,1.07.76,1.19.07.02.15.02.22.02.46,0,.87-.32.97-.78l.16-.72c1.27,1.47,3.13,2.4,5.15,2.4,2.98,0,5.66-1.99,6.52-4.85.16-.53-.14-1.09-.67-1.25Z"/><path class="cls-3" d="m54.5,39.48c-.54-.12-1.07.22-1.19.76l-.16.72c-1.27-1.47-3.13-2.4-5.15-2.4-2.98,0-5.66,1.99-6.52,4.85-.16.53.14,1.09.67,1.25.53.16,1.09-.14,1.25-.67.6-2.01,2.5-3.42,4.6-3.42,1.45,0,2.79.68,3.68,1.75l-1.19-.23c-.54-.1-1.07.25-1.17.79s.25,1.07.79,1.17l3.26.63c.06.01.13.02.19.02.46,0,.87-.32.97-.78l.72-3.24c.12-.54-.22-1.07-.76-1.19Z"/></svg>