<?xml version="1.0" encoding="UTF-8"?><svg id="Flat" xmlns="http://www.w3.org/2000/svg" viewBox="0 0 64 64"><defs><style>.cls-1{fill:#77b24c;}.cls-1,.cls-2{stroke-width:0px;}.cls-2{fill:#50823f;}</style></defs><path class="cls-1" d="m19.42,18.14l-11.12,3.75c-.54.18-.57.92-.06,1.16l2.38,1.09-6.08,10.83c-1.47,3.23.51,5.84.51,5.84l7.3,11.15c-.64-1.65.02-3.5.02-3.5l9.83-19.04,2.83,1.29c.51.23,1.05-.28.84-.8l-4.45-10.86c-.32-.78-1.19-1.18-2-.91Z"/><path class="cls-1" d="m28.34,7.28c-1.17-1.78-3.08-1.82-3.43-1.81h13.97s3.27-.22,5.16,2.79l5.47,10.34,1.78-1.12c.63-.4,1.43.18,1.24.91l-2.9,11.13c-.17.67-.84,1.09-1.52.96l-11.29-2.19c-.74-.14-.92-1.11-.28-1.51l2.2-1.39L28.34,7.28Z"/><path class="cls-1" d="m59,40.2c-1.23,1.25-3.17,1.41-3.17,1.41h-19.95s0-2.77,0-2.77c0-.69-.84-1.03-1.32-.52l-7.99,8.51c-.47.5-.47,1.28,0,1.78l7.98,8.52c.47.5,1.32.17,1.32-.52v-2.27s10.92,0,10.92,0c3.55,0,5.1-2.88,5.1-2.88l7.1-11.25Z"/><path class="cls-2" d="m19.42,18.14c.8-.27,1.67.13,2,.91l2.95,7.2,7.94-12.06-3.97-6.91c-1.3-1.97-3.49-1.81-3.49-1.81-2.29,0-3.36,1.93-3.36,1.93l-8.58,12.94,6.52-2.2Z"/><path class="cls-2" d="m26.58,48.61c-.47-.5-.47-1.28,0-1.78l4.91-5.23h-15.57s-3.54,6.87-3.54,6.87c0,0-1.78,4.99,3.35,5.87h16.23s-5.37-5.73-5.37-5.73Z"/><path class="cls-2" d="m59.79,36.14l-7.61-16.42-2.55,9.79c-.17.67-.84,1.09-1.52.96l-5.51-1.07,5.66,12.22h7.59s1.94-.16,3.17-1.41c.8-.81,1.3-2.08.78-4.07Z"/></svg>