<?xml version="1.0" encoding="UTF-8"?><svg id="Flat" xmlns="http://www.w3.org/2000/svg" viewBox="0 0 64 64"><defs><style>.cls-1{fill:#77b24c;}.cls-1,.cls-2,.cls-3,.cls-4{stroke-width:0px;}.cls-2{fill:#50823f;}.cls-3{fill:#325068;}.cls-4{fill:#737e9b;}</style></defs><path class="cls-1" d="m49.41,25.18l-3.72,32.04c-.18,1.59-1.53,2.78-3.13,2.78H15.11c-1.6,0-2.94-1.2-3.13-2.78l-3.72-32.04h41.14Z"/><path class="cls-2" d="m46.12,53.58l-.42,3.63c-.19,1.59-1.53,2.79-3.13,2.79H15.11c-1.59,0-2.94-1.2-3.12-2.79l-.42-3.63h34.55Z"/><path class="cls-3" d="m57.16,55.47c1.29,0,2.34,1.02,2.34,2.27s-1.05,2.27-2.34,2.27h-20.79c-1.29,0-2.34-1.02-2.34-2.27s1.05-2.27,2.34-2.27v-7.91c0-3.64,2.98-6.61,6.61-6.61h7.56c3.64,0,6.61,2.97,6.61,6.61v7.91Z"/><path class="cls-4" d="m50.11,37.08h-6.67c-1.07,0-1.93.87-1.93,1.93s.87,1.93,1.93,1.93h6.67c1.07,0,1.93-.87,1.93-1.93s-.87-1.93-1.93-1.93Z"/><path class="cls-3" d="m43.47,37.08h6.59l1.7-5.76c.14-.48-.22-.95-.71-.95h-8.56c-.5,0-.85.48-.71.95l1.7,5.76Z"/><path class="cls-2" d="m6.42,17.34h44.84c1.06,0,1.92.86,1.92,1.92v3.99c0,1.06-.86,1.92-1.92,1.92H6.42c-1.06,0-1.92-.86-1.92-1.92v-3.99c0-1.06.86-1.92,1.92-1.92Z"/><path class="cls-1" d="m50.24,17.34l-4.36-11.54c-.43-1.09-1.48-1.8-2.65-1.8H14.47c-1.17,0-2.22.71-2.65,1.8l-4.38,11.54h42.8Z"/><path class="cls-2" d="m39.35,4.03v5.06c0,1.01-.82,1.83-1.83,1.83h-17.36c-1.01,0-1.83-.82-1.83-1.83v-5.06h21.01Z"/></svg>