<?xml version="1.0" encoding="UTF-8"?><svg id="Flat" xmlns="http://www.w3.org/2000/svg" viewBox="0 0 64 64"><defs><style>.cls-1{fill:#536882;}.cls-1,.cls-2,.cls-3,.cls-4,.cls-5{stroke-width:0px;}.cls-2{fill:#d85264;}.cls-3{fill:#d3dce5;}.cls-4{fill:#b8c3d5;}.cls-5{fill:#737e9b;}</style></defs><rect class="cls-4" x="8.5" y="19.91" width="28.15" height="23.73" rx="9.84" ry="9.84"/><path class="cls-2" d="m27.14,15.26c.48,0,.86.39.86.86v3.86c-.39-.05-.79-.07-1.19-.07h-8.47c-.4,0-.8.02-1.19.07v-3.86c0-.48.39-.86.86-.86h9.12Z"/><path class="cls-2" d="m36.65,29.75v4.05c0,5.41-4.43,9.84-9.84,9.84h-8.47c-5.41,0-9.84-4.43-9.84-9.84v-4.05c0-.92.13-1.81.37-2.65h27.41c.24.84.37,1.73.37,2.65Z"/><path class="cls-5" d="m58.73,36.2l-6.69,20.58c-.62,1.92-2.41,3.22-4.43,3.22H15.61c-2.02,0-3.8-1.3-4.43-3.22l-6.69-20.58c-.44-1.34.56-2.72,1.98-2.72h50.28c1.41,0,2.41,1.38,1.98,2.72Z"/><path class="cls-1" d="m53.11,53.5l-1.07,3.28c-.62,1.92-2.41,3.22-4.43,3.22H15.61c-2.02,0-3.81-1.3-4.43-3.22l-1.07-3.28h43Z"/><path class="cls-3" d="m49.82,16.31c-4.63,0-8.51,3.21-9.53,7.53v.02c-1.61-1.19-3.6-1.89-5.77-1.89-5.41,0-9.79,4.39-9.79,9.79v1.71h7.41v10.49c0,1.6,1.31,2.91,2.91,2.91h.24c1.6,0,2.91-1.31,2.91-2.91v-4.9c0-1.6,1.31-2.91,2.91-2.91h.12c1.6,0,2.91,1.3,2.91,2.9v1.3c0,1.6,1.31,2.91,2.91,2.91h.44c1.6,0,2.91-1.31,2.91-2.91v-6.87h5.89c2.05-1.79,3.34-4.43,3.34-7.37,0-5.41-4.39-9.79-9.79-9.79Z"/><path class="cls-2" d="m32.53,3H14.6c-2.48,0-4.49,2.01-4.49,4.49v2.96c0,.55.45,1,1,1h21.43c.55,0,1-.45,1-1v-6.45c0-.55-.45-1-1-1Z"/><path class="cls-4" d="m35.68,16.08c-3.63-.46-4.35-3.4-4.49-4.63h-2.02c.17,2.31,1.61,6.02,6.25,6.61.04,0,.09,0,.13,0,.5,0,.93-.37.99-.87.07-.55-.32-1.05-.86-1.12Z"/><rect class="cls-4" x="18.53" y="11.45" width="8.1" height="3.81"/><path class="cls-4" d="m36.39,4.98h-2.86v4.59h2.86c.43,0,.78-.35.78-.78v-3.02c0-.43-.35-.78-.78-.78Z"/></svg>