<?xml version="1.0" encoding="UTF-8"?><svg id="Flat" xmlns="http://www.w3.org/2000/svg" viewBox="0 0 64 64"><defs><style>.cls-1{fill:#50823f;}.cls-1,.cls-2,.cls-3,.cls-4{stroke-width:0px;}.cls-2{fill:#d85264;}.cls-3{fill:#d3dce5;}.cls-4{fill:#eda1a9;}</style></defs><path class="cls-2" d="m41.75,15.2c-4.45-1.41-9.23-.17-13.23,2.91-4.01-3.07-8.79-4.3-13.24-2.88-8.28,2.65-12.23,13.43-8.82,24.09.13.4.27.8.41,1.19.23.63.87,1.01,1.54.97l4.59-.33c.61-.04.96.67.56,1.12l-2.87,3.31c-.46.53-.51,1.31-.1,1.88,4.49,6.13,11.07,9.71,17.03,7.81.32-.1.62-.24.93-.36.31.12.6.26.93.36,8.29,2.63,17.75-5.33,21.13-15.99,3.39-10.66-.58-21.43-8.86-24.07Z"/><path class="cls-3" d="m20.96,34.44c-.2.24-.49.37-.78.37-.22,0-.44-.07-.63-.22l-5.37-4.3-4.2,3c-.17.13-.38.19-.58.19-.21,0-.41-.07-.59-.19l-3.56-2.59c.03-.79.1-1.56.21-2.32l3.94,2.87,7.87-5.63c.45-.32,1.07-.22,1.39.23.32.45.22,1.08-.23,1.4l-2.56,1.83,4.93,3.95c.43.35.5.98.16,1.41Z"/><path class="cls-4" d="m47.2,30.68c-.48,0-.9-.34-.98-.82-1.68-9.38-8.62-9.06-8.92-9.04-.56.04-1.03-.38-1.06-.93-.04-.55.38-1.02.92-1.06.09,0,9.02-.51,11.02,10.69.1.54-.26,1.06-.81,1.16-.06.01-.12.02-.18.02Z"/><path class="cls-1" d="m28.51,18.1c1.11-.85,2.28-1.56,3.48-2.11.52-.61,1.04-1.29,1.51-2.04,2.42-3.78,3.05-7.68,1.41-8.73-1.64-1.05-4.92,1.17-7.34,4.95-1.35,2.12-2.15,4.27-2.29,5.94,1.12.53,2.2,1.2,3.23,1.99Z"/><circle class="cls-1" cx="46.77" cy="47.04" r="12"/><path class="cls-3" d="m52.61,47.75c-.53-.16-1.09.14-1.25.67-.6,2.02-2.5,3.42-4.6,3.42-1.45,0-2.79-.68-3.68-1.75l1.19.23c.54.11,1.07-.25,1.17-.79.11-.54-.25-1.07-.79-1.17l-3.26-.63c-.53-.1-1.05.23-1.17.76l-.72,3.24c-.12.54.22,1.07.76,1.19.07.02.15.02.22.02.46,0,.87-.32.97-.78l.16-.72c1.27,1.47,3.13,2.4,5.15,2.4,2.98,0,5.66-1.99,6.52-4.85.16-.53-.14-1.09-.67-1.25Z"/><path class="cls-3" d="m53.27,41.15c-.54-.12-1.07.22-1.19.76l-.16.72c-1.27-1.47-3.13-2.4-5.15-2.4-2.98,0-5.66,1.99-6.52,4.85-.16.53.14,1.09.67,1.25.53.16,1.09-.14,1.25-.67.6-2.01,2.5-3.42,4.6-3.42,1.45,0,2.79.68,3.68,1.75l-1.19-.23c-.54-.1-1.07.25-1.17.79-.11.54.25,1.07.79,1.17l3.26.63c.06.01.13.02.19.02.46,0,.87-.32.97-.78l.72-3.24c.12-.54-.22-1.07-.76-1.19Z"/></svg>