<?xml version="1.0" encoding="UTF-8"?><svg id="Flat" xmlns="http://www.w3.org/2000/svg" viewBox="0 0 64 64"><defs><style>.cls-1{fill:#77b24c;}.cls-1,.cls-2,.cls-3,.cls-4,.cls-5,.cls-6{stroke-width:0px;}.cls-2{fill:#50823f;}.cls-3{fill:#d3dce5;}.cls-4{fill:#b8c3d5;}.cls-5{fill:#9eabc4;}.cls-6{fill:#737e9b;}</style></defs><path class="cls-1" d="m37.71,9.49H7.01c-1.68,0-3.04,1.36-3.04,3.04v33.67c0,1.68,1.36,3.04,3.04,3.04h33.74V12.53c0-1.68-1.36-3.04-3.04-3.04Z"/><path class="cls-5" d="m59.43,37.69l-5.83-11.34c-.54-1.05-1.62-1.71-2.8-1.71h-10.05v24.6h17c1.26,0,2.28-1.02,2.28-2.28v-6.79c0-.86-.21-1.71-.6-2.48Z"/><path class="cls-4" d="m53.61,26.35c-.54-1.05-1.62-1.71-2.8-1.71h-3.25v8.48c0,.96.78,1.74,1.74,1.74h8.68l-4.37-8.51Z"/><path class="cls-2" d="m40.75,42.55v6.69H7.01c-1.68,0-3.04-1.36-3.04-3.04v-3.65h36.78Z"/><path class="cls-6" d="m50.48,42.23c-3.39,0-6.14,2.75-6.14,6.14s2.75,6.14,6.14,6.14,6.14-2.75,6.14-6.14-2.75-6.14-6.14-6.14Z"/><path class="cls-5" d="m50.48,46.06c-1.28,0-2.31,1.04-2.31,2.31s1.04,2.31,2.31,2.31,2.31-1.04,2.31-2.31-1.03-2.31-2.31-2.31Z"/><path class="cls-6" d="m16.08,42.23c-3.39,0-6.14,2.75-6.14,6.14s2.75,6.14,6.14,6.14,6.14-2.75,6.14-6.14-2.75-6.14-6.14-6.14Z"/><path class="cls-5" d="m16.08,46.06c-1.28,0-2.31,1.04-2.31,2.31s1.04,2.31,2.31,2.31,2.31-1.04,2.31-2.31-1.03-2.31-2.31-2.31Z"/><circle class="cls-2" cx="21.98" cy="26.86" r="12"/><path class="cls-3" d="m27.83,27.57c-.53-.16-1.09.14-1.25.67-.6,2.02-2.5,3.42-4.6,3.42-1.45,0-2.79-.68-3.68-1.75l1.19.23c.54.11,1.07-.25,1.17-.79.11-.54-.25-1.07-.79-1.17l-3.26-.63c-.53-.11-1.05.23-1.17.76l-.72,3.24c-.12.54.22,1.07.76,1.19.07.02.15.02.22.02.46,0,.87-.32.97-.78l.16-.72c1.27,1.47,3.13,2.4,5.15,2.4,2.98,0,5.66-1.99,6.52-4.85.16-.53-.14-1.09-.67-1.25Z"/><path class="cls-3" d="m28.49,20.97c-.54-.12-1.07.22-1.19.76l-.16.72c-1.27-1.47-3.13-2.4-5.15-2.4-2.98,0-5.66,1.99-6.52,4.85-.16.53.14,1.09.67,1.25.53.16,1.09-.14,1.25-.67.6-2.02,2.5-3.42,4.6-3.42,1.45,0,2.79.68,3.68,1.75l-1.19-.23c-.54-.1-1.07.25-1.17.79s.25,1.07.79,1.17l3.26.63c.06.01.13.02.19.02.46,0,.87-.32.97-.78l.72-3.24c.12-.54-.22-1.07-.76-1.19Z"/></svg>