<?xml version="1.0" encoding="UTF-8"?><svg id="Flat" xmlns="http://www.w3.org/2000/svg" viewBox="0 0 64 64"><defs><style>.cls-1{fill:#536882;}.cls-1,.cls-2,.cls-3,.cls-4,.cls-5{stroke-width:0px;}.cls-2{fill:#d85264;}.cls-3{fill:#9eabc4;}.cls-4{fill:#737e9b;}.cls-5{fill:#ecc865;}</style></defs><path class="cls-4" d="m24.1,16.24h12.03l3.01-10.22c.3-1.01-.46-2.02-1.51-2.02h-15.03c-1.05,0-1.81,1.01-1.51,2.02l3.01,10.22Z"/><path class="cls-4" d="m46.08,60H11.15c-2.35,0-4.27-1.86-4.27-4.14s1.92-4.14,4.27-4.14v-16.37c0-6.63,5.43-12.06,12.07-12.06h13.8c6.63,0,12.06,5.43,12.06,12.06v16.37s-2.99,8.27-2.99,8.27"/><path class="cls-1" d="m36.21,16.24h-12.17c-1.95,0-3.53,1.58-3.53,3.53s1.58,3.53,3.53,3.53h12.17c1.95,0,3.53-1.58,3.53-3.53s-1.58-3.53-3.53-3.53Z"/><path class="cls-2" d="m37.74,56.94s3.78,4.18,10.56,2.76c0,0,6.05-.78,8.35-7.11,0,0,2.12-5.64-2.68-12.11-.4-.55-1.3-.35-1.38.33-.13.97-.56,2.11-1.69,3.01-.34.27-.86.06-.92-.38-.23-1.7-1.05-5.5-3.98-9.09-.44-.53-1.31-.24-1.35.45-.07,1.45-.42,3.5-1.62,5.48,0,0-1.53,2.22-2.47,4.6-.16.4-.68.49-.96.17-.45-.52-1.01-1.36-1.36-2.5-.2-.66-1.09-.75-1.41-.14-1.56,3.04-3.73,9.28.9,14.53Z"/><path class="cls-5" d="m48.46,59.55l-.24.17c-1.53.31-2.9.34-4.11.19-.14-.11-.22-.19-.22-.19-5.42-5.44-1.73-11.06.17-13.29.31-.36.91-.16.93.32.07,1.4.44,3.46,1.98,3.77,0,0,.98-.26,1.64-1.44.19-.34.67-.4.9-.07,1.26,1.82,3.86,6.67-1.05,10.54Z"/><path class="cls-3" d="m31.11,16.24v-5.52c0-.55-.45-1-1-1s-1,.45-1,1v5.52h2Z"/></svg>