<?xml version="1.0" encoding="UTF-8"?><svg id="Flat" xmlns="http://www.w3.org/2000/svg" viewBox="0 0 64 64"><defs><style>.cls-1{fill:#d68076;}.cls-1,.cls-2,.cls-3,.cls-4,.cls-5{stroke-width:0px;}.cls-2{fill:#b74846;}.cls-3{fill:#325068;}.cls-4{fill:#737e9b;}.cls-5{fill:#ecc865;}</style></defs><path class="cls-4" d="m37.2,40.7l-12.2-1.7-12.2,1.7c-1.43.2-2.8.69-4.04,1.43h0c-2.95,1.78-4.76,4.98-4.76,8.43v9.44s21,0,21,0h21v-9.44c0-3.45-1.81-6.65-4.76-8.43h0c-1.24-.74-2.61-1.23-4.04-1.43Z"/><path class="cls-2" d="m19,33v7.91c0,1.3.65,2.52,1.74,3.24,2.58,1.72,5.95,1.72,8.53,0,1.08-.72,1.74-1.94,1.74-3.24v-7.91h-12Z"/><path class="cls-3" d="m25,4c-7.73,0-14,6.27-14,14v5h28v-5c0-7.73-6.27-14-14-14Z"/><path class="cls-2" d="m38,20h-3v6h3c1.66,0,3-1.34,3-3s-1.34-3-3-3Z"/><path class="cls-2" d="m12,20c-1.66,0-3,1.34-3,3s1.34,3,3,3h3v-6h-3Z"/><path class="cls-1" d="m35.52,20c-3.72,0-7.36-1.04-10.52-3-3.16,1.96-6.8,3-10.52,3h-1.48v5.6c0,6.61,5.17,12.28,11.78,12.4,6.73.12,12.22-5.3,12.22-12v-6h-1.48Z"/><path class="cls-5" d="m40.22,41.59v18.41H9.82v-18.43c.94-.44,1.95-.73,2.98-.87l3.05-.42v7.74c0,1.65,1.33,2.98,2.98,2.98h12.34c1.64,0,2.98-1.33,2.98-2.98v-7.74l3.05.42c1.05.15,2.07.44,3.02.89Z"/><path class="cls-3" d="m57.66,55.46c1.29,0,2.34,1.02,2.34,2.27s-1.05,2.27-2.34,2.27h-20.79c-1.29,0-2.34-1.02-2.34-2.27s1.05-2.27,2.34-2.27v-7.91c0-3.64,2.98-6.61,6.61-6.61h7.56c3.64,0,6.61,2.97,6.61,6.61v7.91Z"/><path class="cls-4" d="m50.61,37.08h-6.67c-1.07,0-1.93.87-1.93,1.93s.87,1.93,1.93,1.93h6.67c1.07,0,1.93-.87,1.93-1.93s-.87-1.93-1.93-1.93Z"/><path class="cls-2" d="m19.93,56.83h-4.23c-.55,0-1-.45-1-1s.45-1,1-1h4.23c.55,0,1,.45,1,1s-.45,1-1,1Z"/><path class="cls-3" d="m50.56,37.08l1.64-5.58c.17-.57-.26-1.13-.85-1.13h-8.19c-.59,0-1.01.57-.85,1.13l1.64,5.58h6.59Z"/></svg>