<?xml version="1.0" encoding="UTF-8"?><svg id="Flat" xmlns="http://www.w3.org/2000/svg" viewBox="0 0 64 64"><defs><style>.cls-1{fill:#77b24c;}.cls-1,.cls-2,.cls-3,.cls-4{stroke-width:0px;}.cls-2{fill:#50823f;}.cls-3{fill:#d85264;}.cls-4{fill:#ecc865;}</style></defs><path class="cls-1" d="m21.34,18.86l4.41,10.77c.26.63-.39,1.24-1,.96l-2.55-1.16-9.83,19.04s-.66,1.85-.02,3.5l-7.3-11.15s-1.98-2.61-.51-5.84l6.08-10.83-2.1-.96c-.62-.28-.57-1.17.07-1.39l11.03-3.72c.69-.23,1.44.11,1.71.78Z"/><path class="cls-1" d="m28.34,7.28c-1.17-1.78-3.08-1.82-3.43-1.81h13.97s3.27-.22,5.16,2.79l5.47,10.34,1.95-1.23c.57-.36,1.29.17,1.12.82l-2.94,11.27c-.18.7-.88,1.14-1.59,1l-11.43-2.22c-.66-.13-.83-1-.26-1.37l2.37-1.49L28.34,7.28Z"/><path class="cls-1" d="m59,40.2c-1.23,1.25-3.17,1.41-3.17,1.41h-23.95s0-2.81,0-2.81c0-.68-.83-1.01-1.29-.51l-7.97,8.48c-.5.53-.5,1.35,0,1.88l7.96,8.49c.46.49,1.29.17,1.29-.51v-2.31s14.92,0,14.92,0c3.55,0,5.1-2.88,5.1-2.88l7.1-11.25Z"/><path class="cls-2" d="m19.63,18.07c.69-.23,1.44.11,1.71.78l3.03,7.39,7.94-12.06-3.97-6.91c-1.3-1.97-3.49-1.81-3.49-1.81-2.29,0-3.36,1.93-3.36,1.93l-8.58,12.94,6.72-2.27Z"/><path class="cls-2" d="m59.79,36.14l-7.61-16.42-2.54,9.73c-.18.7-.88,1.14-1.59,1l-5.46-1.06,5.66,12.22h7.59s1.94-.16,3.17-1.41c.8-.81,1.3-2.08.78-4.07Z"/><path class="cls-2" d="m22.62,48.66c-.5-.53-.5-1.35,0-1.88l4.86-5.18h-11.57s-3.54,6.87-3.54,6.87c0,0-1.78,4.99,3.35,5.87h12.23s-5.32-5.68-5.32-5.68Z"/><circle class="cls-4" cx="48" cy="48" r="12"/><path class="cls-3" d="m54.39,43.66l-1.63-1.63c-.33-.33-.86-.33-1.19,0l-3.57,3.57-3.57-3.57c-.33-.33-.86-.33-1.19,0l-1.63,1.63c-.33.33-.33.86,0,1.19l3.57,3.57-3.57,3.57c-.33.33-.33.86,0,1.19l1.63,1.63c.33.33.86.33,1.19,0l3.57-3.57,3.57,3.57c.33.33.86.33,1.19,0l1.63-1.63c.33-.33.33-.86,0-1.19l-3.57-3.57,3.57-3.57c.33-.33.33-.86,0-1.19Z"/></svg>