<?xml version="1.0" encoding="UTF-8"?><svg id="Flat" xmlns="http://www.w3.org/2000/svg" viewBox="0 0 64 64"><defs><style>.cls-1{fill:#77b24c;}.cls-1,.cls-2,.cls-3{stroke-width:0px;}.cls-2{fill:#50823f;}.cls-3{fill:#d3dce5;}</style></defs><circle class="cls-3" cx="32" cy="32" r="28"/><path class="cls-1" d="m31.45,34.96c0,2.51-2.1,4.56-4.67,4.56h-7.22c-1.86,0-3.37,1.48-3.37,3.29s1.51,3.3,3.37,3.3h2.38c1.97,0,3.58,1.57,3.58,3.49s-1.61,3.5-3.58,3.5h-8.34c-5.88-5.13-9.6-12.68-9.6-21.1,0-.54.02-1.07.05-1.6h22.73c2.57,0,4.67,2.05,4.67,4.56Z"/><path class="cls-1" d="m54.45,15.26v11.4c0,2.57-2.05,4.67-4.56,4.67s-4.56-2.1-4.56-4.67v-7.56c0-1.86-1.49-3.37-3.3-3.37s-3.29,1.51-3.29,3.37v2.38c0,1.97-1.57,3.57-3.49,3.57s-3.5-1.6-3.5-3.57V4.01c.08-.01.17-.01.25-.01,9.18,0,17.34,4.43,22.45,11.26Z"/><path class="cls-1" d="m38.8,59.58c3.91.29,17.39,0,14.63-18.43-.1-.66-.67-1.16-1.34-1.17-4.17-.07-18,.99-14.54,18.5.12.61.63,1.06,1.25,1.1Z"/><path class="cls-2" d="m46.68,49.11c-1.7,3.29-5.31,7.76-7.63,10.49-.09-.01-.17-.01-.25-.02-.61-.05-1.13-.5-1.25-1.11-.01-.06-.02-.12-.03-.18,2.27-2.66,5.79-7.01,7.38-10.1.26-.49.86-.68,1.35-.43.49.26.68.86.43,1.35Z"/><path class="cls-1" d="m22.63,20.86c.65-3.87,1.57-17.32-17.04-16.23-.67.04-1.21.56-1.28,1.23-.45,4.15-.64,18.02,17.11,16.15.61-.06,1.11-.54,1.21-1.15Z"/><path class="cls-2" d="m22.66,20.7c0,.06-.02.11-.03.16-.1.61-.6,1.08-1.21,1.14-.09.01-.18.02-.27.03-3.31-4.28-8.66-9.44-8.72-9.5-.4-.38-.41-1.02-.03-1.41.39-.4,1.02-.41,1.42-.03.25.24,5.44,5.25,8.84,9.61Z"/></svg>