<?xml version="1.0" encoding="UTF-8"?><svg id="Flat" xmlns="http://www.w3.org/2000/svg" viewBox="0 0 64 64"><defs><style>.cls-1{fill:#77b24c;}.cls-1,.cls-2,.cls-3{stroke-width:0px;}.cls-2{fill:#50823f;}.cls-3{fill:#d3dce5;}</style></defs><path class="cls-1" d="m53.4,17.34l-4.36-11.54c-.43-1.09-1.48-1.8-2.65-1.8h-28.76c-1.17,0-2.22.71-2.65,1.8l-4.38,11.54h42.8Z"/><path class="cls-1" d="m52.57,25.18l-3.72,32.04c-.18,1.59-1.53,2.78-3.13,2.78h-27.46c-1.6,0-2.94-1.2-3.13-2.78l-3.72-32.04h41.14Z"/><path class="cls-3" d="m26.63,48.05h-3.14c-1.8,0-3.26-1.46-3.26-3.26v-11.24c0-1.8,1.46-3.26,3.26-3.26h3.14c1.8,0,3.26,1.46,3.26,3.26v11.24c0,1.8-1.46,3.26-3.26,3.26Zm-3.14-15.77c-.7,0-1.26.57-1.26,1.26v11.24c0,.7.57,1.26,1.26,1.26h3.14c.7,0,1.26-.57,1.26-1.26v-11.24c0-.7-.57-1.26-1.26-1.26h-3.14Z"/><path class="cls-3" d="m34.38,47.62c-.16,0-.33-.04-.48-.12-.48-.27-.66-.87-.39-1.36l8.05-14.65c.27-.48.87-.66,1.36-.4.48.27.66.87.39,1.36l-8.05,14.65c-.18.33-.52.52-.88.52Z"/><path class="cls-3" d="m34.75,36.55c-1.64,0-2.98-1.34-2.98-2.98s1.34-2.98,2.98-2.98,2.98,1.34,2.98,2.98-1.34,2.98-2.98,2.98Zm0-3.96c-.54,0-.98.44-.98.98s.44.98.98.98.98-.44.98-.98-.44-.98-.98-.98Z"/><path class="cls-3" d="m42.43,46.9c-1.64,0-2.98-1.34-2.98-2.98s1.34-2.98,2.98-2.98,2.98,1.34,2.98,2.98-1.34,2.98-2.98,2.98Zm0-3.96c-.54,0-.98.44-.98.98s.44.98.98.98.98-.44.98-.98-.44-.98-.98-.98Z"/><path class="cls-2" d="m49.27,53.58l-.42,3.64c-.18,1.58-1.52,2.78-3.12,2.78h-27.46c-1.6,0-2.94-1.2-3.12-2.78l-.42-3.64h34.54Z"/><path class="cls-2" d="m42.51,4v5.09c0,1.01-.82,1.83-1.83,1.83h-17.36c-1.01,0-1.83-.82-1.83-1.83v-5.09h21.02Z"/><rect class="cls-2" x="7.66" y="17.34" width="48.68" height="7.84" rx="1.92" ry="1.92"/></svg>