<?xml version="1.0" encoding="UTF-8"?><svg id="Flat" xmlns="http://www.w3.org/2000/svg" viewBox="0 0 64 64"><defs><style>.cls-1{fill:#50823f;}.cls-1,.cls-2,.cls-3,.cls-4{stroke-width:0px;}.cls-2{fill:#d3dce5;}.cls-3{fill:#b8c3d5;}.cls-4{fill:#9eabc4;}</style></defs><path class="cls-3" d="m47.31,16.06l-11.52-11.39c-.43-.43-1.02-.67-1.62-.67H10.53c-1.95,0-3.53,1.58-3.53,3.53v28.16c0,.53.35.99.85,1.15l5.85,1.78c.65.2.67,1.12.02,1.34l-5.9,1.96c-.49.16-.82.62-.82,1.14v13.41c0,1.95,1.58,3.53,3.53,3.53h33.94c1.95,0,3.53-1.58,3.53-3.53V17.7c0-.62-.25-1.21-.69-1.64Z"/><path class="cls-4" d="m47.78,16.74h-11.15c-.84,0-1.52-.68-1.52-1.52V4.2c.25.11.49.27.69.47l11.51,11.39c.2.2.36.43.47.68Z"/><path class="cls-2" d="m24.91,32.52c-.2.2-.46.31-.73.31-.24,0-.49-.09-.68-.27l-5.38-5.07-4.76,2.86c-.16.09-.34.14-.51.14-.24,0-.47-.08-.65-.24l-5.2-4.46v-2.62l5.95,5.09,8.88-5.32c.47-.29,1.08-.14,1.37.34.28.47.13,1.09-.34,1.37l-2.95,1.77,4.96,4.68c.4.38.42,1.02.04,1.42Z"/><path class="cls-4" d="m48,53.02v3.45c0,1.95-1.58,3.53-3.53,3.53H10.53c-1.95,0-3.53-1.58-3.53-3.53v-3.45h41Z"/><circle class="cls-1" cx="45" cy="43" r="12"/><path class="cls-2" d="m50.85,43.71c-.53-.16-1.09.14-1.25.67-.6,2.01-2.5,3.42-4.6,3.42-1.45,0-2.79-.68-3.68-1.75l1.19.23c.54.11,1.07-.25,1.17-.79s-.25-1.07-.79-1.17l-3.26-.63c-.53-.1-1.05.24-1.17.76l-.72,3.24c-.12.54.22,1.07.76,1.19.07.02.15.02.22.02.46,0,.87-.32.98-.78l.16-.72c1.27,1.47,3.13,2.4,5.15,2.4,2.98,0,5.66-1.99,6.52-4.85.16-.53-.14-1.09-.67-1.25Z"/><path class="cls-2" d="m51.5,37.12c-.54-.12-1.07.22-1.19.76l-.16.72c-1.27-1.47-3.13-2.4-5.15-2.4-2.98,0-5.66,1.99-6.52,4.85-.16.53.14,1.09.67,1.25.53.16,1.09-.14,1.25-.67.6-2.01,2.5-3.42,4.6-3.42,1.45,0,2.79.68,3.68,1.75l-1.19-.23c-.54-.1-1.07.25-1.17.79-.1.54.25,1.07.79,1.17l3.26.63c.06.01.13.02.19.02.46,0,.87-.32.98-.78l.72-3.24c.12-.54-.22-1.07-.76-1.19Z"/></svg>