<?xml version="1.0" encoding="UTF-8"?><svg id="Flat" xmlns="http://www.w3.org/2000/svg" viewBox="0 0 64 64"><defs><style>.cls-1{fill:#77b24c;}.cls-1,.cls-2,.cls-3,.cls-4,.cls-5,.cls-6{stroke-width:0px;}.cls-2{fill:#50823f;}.cls-3{fill:#d3dce5;}.cls-4{fill:#b8c3d5;}.cls-5{fill:#a26a55;}.cls-6{fill:#9eabc4;}</style></defs><path class="cls-4" d="m53.23,52.08s7.4-15.37-3.22-28.86l-.16-.17-35.71-.02-.14.19c-10.62,13.49-3.22,28.86-3.22,28.86-1.97,0-3.59,1.61-3.59,3.59v.71c0,1.97,1.61,3.59,3.59,3.59h42.45c1.97,0,3.59-1.61,3.59-3.59v-.71c0-1.97-1.61-3.59-3.59-3.59Z"/><path class="cls-5" d="m45.3,8.06s-2.94-1.23-5.89.98c0,0-1.05-5.04-7.43-5-6.37.04-7.4,5-7.4,5-2.95-2.21-5.89-.98-5.89-.98-3.66,1.54-4.68,5.1-4.97,7.13l36.55.02c-.28-2.03-1.3-5.61-4.97-7.15Z"/><circle class="cls-2" cx="32" cy="40.93" r="12"/><path class="cls-3" d="m37.85,41.64c-.53-.16-1.09.14-1.25.67-.6,2.01-2.5,3.42-4.6,3.42-1.45,0-2.79-.68-3.68-1.75l1.19.23c.55.11,1.07-.25,1.17-.79.1-.54-.25-1.07-.79-1.17l-3.26-.63c-.53-.1-1.05.24-1.17.76l-.72,3.24c-.12.54.22,1.07.76,1.19.07.02.15.02.22.02.46,0,.87-.32.98-.78l.16-.72c1.27,1.47,3.13,2.4,5.15,2.4,2.98,0,5.66-1.99,6.52-4.85.16-.53-.14-1.09-.67-1.25Z"/><path class="cls-3" d="m38.5,35.05c-.54-.12-1.07.22-1.19.76l-.16.72c-1.27-1.47-3.13-2.4-5.15-2.4-2.98,0-5.66,1.99-6.52,4.85-.16.53.14,1.09.67,1.25.53.16,1.09-.14,1.25-.67.6-2.01,2.5-3.42,4.6-3.42,1.45,0,2.79.68,3.68,1.75l-1.19-.23c-.54-.11-1.07.25-1.17.79-.1.54.25,1.07.79,1.17l3.26.63c.06.01.13.02.19.02.46,0,.87-.32.98-.78l.72-3.24c.12-.54-.22-1.07-.76-1.19Z"/><path class="cls-1" d="m34.64,17.54c2.75-.08,10.96-1.25,8.29-12.64-.12-.52-.61-.87-1.15-.83-2.88.24-11.31,1.87-8.24,12.68.14.48.59.8,1.09.78Z"/><path class="cls-2" d="m39.29,10.43c-.89,2.17-2.95,5.15-4.39,7.1-.09,0-.18.01-.26.01-.5.01-.96-.3-1.1-.78-.05-.19-.1-.37-.15-.55,1.37-1.86,3.26-4.61,4.05-6.54.21-.51.79-.75,1.3-.54.52.2.76.79.55,1.3Z"/><path class="cls-6" d="m51.68,15.22l-39.35-.02c-2.17,0-3.92,1.76-3.92,3.92s1.76,3.92,3.92,3.92l39.35.02c2.17,0,3.92-1.76,3.92-3.92s-1.76-3.92-3.92-3.92Z"/></svg>