<?xml version="1.0" encoding="UTF-8"?><svg id="Flat" xmlns="http://www.w3.org/2000/svg" viewBox="0 0 64 64"><defs><style>.cls-1{fill:#50823f;}.cls-1,.cls-2,.cls-3,.cls-4,.cls-5{stroke-width:0px;}.cls-2{fill:#d85264;}.cls-3{fill:#d3dce5;}.cls-4{fill:#b8c3d5;}.cls-5{fill:#9eabc4;}</style></defs><path class="cls-4" d="m35.67,18.79v-7.83h-14.33v7.83c-8.08,2.93-13.85,10.67-13.85,19.76,0,1.01.07,2,.21,2.97.1.68.63,1.21,1.31,1.28l6.11.62c.64.07.82.92.25,1.23l-4.45,2.44c-.73.4-.98,1.32-.56,2.04,3.88,6.65,11.29,10.98,19.67,10.39,10.15-.72,18.47-8.87,19.39-19,.9-9.92-5.11-18.58-13.76-21.72Z"/><path class="cls-2" d="m36.33,36.33h-5.77v-5.77c0-.53-.43-.96-.96-.96h-2.63c-.53,0-.96.43-.96.96v5.77h-5.77c-.53,0-.96.43-.96.96v2.63c0,.53.43.96.96.96h5.77v5.77c0,.53.43.96.96.96h2.63c.53,0,.96-.43.96-.96v-5.77s5.77,0,5.77,0c.53,0,.96-.43.96-.96v-2.63c0-.53-.43-.96-.96-.96Z"/><rect class="cls-5" x="17.74" y="4.1" width="21.53" height="6.87" rx="1.75" ry="1.75"/><path class="cls-3" d="m19.54,29.1l3.53-2.7c.44-.33.52-.96.19-1.4-.34-.44-.97-.52-1.41-.19l-8,6.13-3.75-2.55c-.32.59-.62,1.2-.89,1.82l4.11,2.79c.17.11.37.17.56.17.22,0,.43-.07.61-.21l3.4-2.6,3.61,2.71c.18.14.39.2.6.2.31,0,.61-.14.8-.4.33-.44.24-1.07-.2-1.4l-3.16-2.37Z"/><circle class="cls-1" cx="44.51" cy="47.9" r="12"/><path class="cls-3" d="m50.35,48.61c-.53-.16-1.09.14-1.25.67-.6,2.02-2.5,3.42-4.6,3.42-1.45,0-2.79-.68-3.68-1.75l1.19.23c.54.11,1.07-.25,1.17-.79.11-.54-.25-1.07-.79-1.17l-3.26-.63c-.53-.11-1.05.23-1.17.76l-.72,3.24c-.12.54.22,1.07.76,1.19.07.02.15.02.22.02.46,0,.87-.32.97-.78l.16-.72c1.27,1.47,3.13,2.4,5.15,2.4,2.98,0,5.66-1.99,6.52-4.85.16-.53-.14-1.09-.67-1.25Z"/><path class="cls-3" d="m51.01,42.02c-.54-.12-1.07.22-1.19.76l-.16.72c-1.27-1.47-3.13-2.4-5.15-2.4-2.98,0-5.66,1.99-6.52,4.85-.16.53.14,1.09.67,1.25.53.16,1.09-.14,1.25-.67.6-2.02,2.5-3.42,4.6-3.42,1.45,0,2.79.68,3.68,1.75l-1.19-.23c-.54-.1-1.07.25-1.17.79s.25,1.07.79,1.17l3.26.63c.06.01.13.02.19.02.46,0,.87-.32.97-.78l.72-3.24c.12-.54-.22-1.07-.76-1.19Z"/></svg>