<?xml version="1.0" encoding="UTF-8"?><svg id="Flat" xmlns="http://www.w3.org/2000/svg" viewBox="0 0 64 64"><defs><style>.cls-1{fill:#d3dce5;}.cls-1,.cls-2,.cls-3,.cls-4,.cls-5{stroke-width:0px;}.cls-2{fill:#d68076;}.cls-3{fill:#325068;}.cls-4{fill:#737e9b;}.cls-5{fill:#ecc865;}</style></defs><path class="cls-5" d="m51.7,29.3l-15.78-6.7c-.96-.41-2-.62-3.05-.62h-15.03c-3.05,0-5.82,1.78-7.09,4.55l-6.44,14.08c-.78,1.7-.03,3.7,1.67,4.48h0c1.7.78,3.71.03,4.48-1.67l5.19-11.46v14.73h18.8v-17.36l14.6,6.2c1.72.73,3.7-.07,4.43-1.79.73-1.72-.07-3.7-1.79-4.43Z"/><path class="cls-4" d="m15.65,46.69v11.96c0,.74.6,1.35,1.35,1.35h16.11c.74,0,1.35-.6,1.35-1.35v-11.96s-18.8,0-18.8,0Z"/><path class="cls-3" d="m25.05,51.61c-.55,0-1,.45-1,1v7.39s1.99,0,1.99,0v-7.38c.01-.56-.43-1-.99-1.01Z"/><path class="cls-3" d="m25.89,4h-1.75c-4.42,0-8,3.58-8,8v3.26c0,.43.35.79.79.79h16.18c.43,0,.79-.35.79-.79v-3.26c0-4.42-3.58-8-8-8Z"/><path class="cls-2" d="m31.75,14.14h-.06c-2.36,0-4.67-.66-6.67-1.9-2,1.24-4.31,1.9-6.67,1.9h-.06c-.48,0-.87.39-.87.87v2.61c0,4.17,3.21,7.8,7.38,7.92,4.31.13,7.84-3.33,7.84-7.61v-2.93c0-.48-.39-.87-.87-.87Z"/><path class="cls-1" d="m58.65,42.54h-15.25c-.7,0-1.23.64-1.09,1.33l2.9,14.72c.08.8.75,1.4,1.55,1.4h8.54c.8,0,1.47-.61,1.55-1.4l2.9-14.72c.14-.69-.39-1.33-1.09-1.33Z"/><circle class="cls-4" cx="53.36" cy="41.67" r="2.64"/><circle class="cls-4" cx="50.27" cy="50.95" r="2.64"/></svg>