<?xml version="1.0" encoding="UTF-8"?><svg id="Flat" xmlns="http://www.w3.org/2000/svg" viewBox="0 0 64 64"><defs><style>.cls-1{fill:#77b24c;}.cls-1,.cls-2,.cls-3,.cls-4{stroke-width:0px;}.cls-2{fill:#50823f;}.cls-3{fill:#325068;}.cls-4{fill:#737e9b;}</style></defs><path class="cls-1" d="m8.58,18.97l2.72,37.75c.18,1.87,1.76,3.3,3.64,3.3h29.5c1.88,0,3.46-1.43,3.64-3.3l2.72-37.75H8.58Z"/><path class="cls-2" d="m29.7,25.14c-1.23,0-2.23,1-2.23,2.23v22.56c0,1.23,1,2.23,2.23,2.23s2.23-1,2.23-2.23v-22.56c0-1.23-1-2.23-2.23-2.23Z"/><path class="cls-2" d="m39.64,25.14c-1.23,0-2.23,1-2.23,2.23v22.56c0,1.23,1,2.23,2.23,2.23s2.23-1,2.23-2.23v-22.56c0-1.23-1-2.23-2.23-2.23Z"/><path class="cls-2" d="m19.75,25.14c-1.23,0-2.23,1-2.23,2.23v22.56c0,1.23,1,2.23,2.23,2.23s2.23-1,2.23-2.23v-22.56c0-1.23-1-2.23-2.23-2.23Z"/><path class="cls-3" d="m56.86,55.47c1.29,0,2.34,1.02,2.34,2.27s-1.05,2.27-2.34,2.27h-20.79c-1.29,0-2.34-1.02-2.34-2.27s1.05-2.27,2.34-2.27v-7.91c0-3.64,2.98-6.61,6.61-6.61h7.56c3.64,0,6.61,2.97,6.61,6.61v7.91Z"/><path class="cls-4" d="m49.81,37.08h-6.67c-1.07,0-1.93.87-1.93,1.93s.87,1.93,1.93,1.93h6.67c1.07,0,1.93-.87,1.93-1.93s-.87-1.93-1.93-1.93Z"/><path class="cls-2" d="m50.27,11.12h-10.79v-5.08c0-1.68-1.37-3.05-3.05-3.05h-13.46c-1.68,0-3.05,1.37-3.05,3.05v5.08h-10.79c-2.37,0-4.32,1.94-4.32,4.32v1.48c0,1.13.92,2.05,2.05,2.05h45.68c1.13,0,2.05-.92,2.05-2.05v-1.48c0-2.37-1.94-4.32-4.32-4.32Zm-28.36-5.08c0-.58.47-1.05,1.05-1.05h13.46c.58,0,1.05.47,1.05,1.05v5.08h-15.56v-5.08Z"/><path class="cls-3" d="m49.76,37.08l1.76-5.96c.11-.38-.17-.76-.56-.76h-8.98c-.39,0-.68.38-.56.76l1.76,5.96h6.59Z"/></svg>