<?xml version="1.0" encoding="UTF-8"?><svg id="Flat" xmlns="http://www.w3.org/2000/svg" viewBox="0 0 64 64"><defs><style>.cls-1{fill:#77b24c;}.cls-1,.cls-2,.cls-3,.cls-4{stroke-width:0px;}.cls-2{fill:#50823f;}.cls-3{fill:#536882;}.cls-4{fill:#737e9b;}</style></defs><path class="cls-1" d="m58.55,41.17c-3.29-.77-3.77-4.12-7.9-4.12-4.66,0-4.67,4.28-9.33,4.28s-4.66-4.28-9.33-4.28-4.66,4.28-9.33,4.28-4.66-4.28-9.33-4.28c-4.13,0-4.6,3.35-7.89,4.12-.83.19-1.43.91-1.43,1.76v15.53c0,.85.69,1.54,1.54,1.54h52.9c.85,0,1.54-.69,1.54-1.54v-15.53c0-.85-.6-1.57-1.43-1.76Z"/><rect class="cls-3" x="4.02" y="6.77" width="13.27" height="22.52"/><rect class="cls-4" x="17.3" y="4" width="8.89" height="28.06" rx="1.87" ry="1.87"/><path class="cls-2" d="m26.33,9.62h-.14v16.92h.74c2.76,0,5,2.24,5,5v5.51h.07c4.66,0,4.66,4.28,9.33,4.28,3.72,0,4.47-2.73,7-3.83v-5.88c0-12.15-9.85-22-22-22Z"/><path class="cls-2" d="m50.66,47.55c-4.67,0-4.67,4.28-9.33,4.28s-4.67-4.28-9.33-4.28-4.67,4.28-9.33,4.28-4.66-4.28-9.33-4.28-4.66,4.28-9.33,4.28v6.63c0,.85.69,1.54,1.54,1.54h52.9c.85,0,1.54-.69,1.54-1.54v-6.63c-4.67,0-4.67-4.28-9.33-4.28Z"/><path class="cls-1" d="m42.72,24.37c-2.6-7.96-9.39-9.15-9.68-9.19-.54-.09-1.05.28-1.14.82-.09.54.28,1.06.82,1.15.24.04,5.89,1.07,8.1,7.84.14.42.53.69.95.69.1,0,.21-.02.31-.05.52-.17.81-.74.64-1.26Z"/></svg>