<?xml version="1.0" encoding="UTF-8"?><svg id="Flat" xmlns="http://www.w3.org/2000/svg" viewBox="0 0 64 64"><defs><style>.cls-1{fill:#50823f;}.cls-1,.cls-2,.cls-3,.cls-4{stroke-width:0px;}.cls-2{fill:#d85264;}.cls-3{fill:#d3dce5;}.cls-4{fill:#b8c3d5;}</style></defs><path class="cls-2" d="m44.05,9.61h-18.81c-.51,0-1,.2-1.36.56l-12.22,12.22c-.39.39-.61.92-.61,1.47v15.96c0,.57.37,1.07.92,1.23l4.47,1.35c.59.18.64.99.08,1.25l-4.7,2.1c-.46.21-.76.67-.76,1.18v8.88c0,2.31,1.89,4.19,4.19,4.19h32.86c2.31,0,4.19-1.89,4.19-4.19V17.86c0-4.54-3.71-8.25-8.25-8.25Zm1.94,11.81c0,1.19-.97,2.16-2.16,2.16h-22.54c-.61,0-.92-.74-.49-1.17l6.62-6.71c.33-.34.79-.53,1.26-.53h15.15c1.19,0,2.16.97,2.16,2.16v4.09Z"/><path class="cls-2" d="m18.79,7.35l-2.52-2.52c-.37-.37-.98-.37-1.35,0L6.37,13.38c-.37.37-.37.98,0,1.35l2.52,2.52c.37.37.98.37,1.35,0l4.24-4.24,4.31-4.31c.37-.37.37-.98,0-1.35Z"/><rect class="cls-4" x="11.95" y="12.31" width="8.39" height="4.64" transform="translate(-5.62 15.7) rotate(-45)"/><path class="cls-4" d="m52.3,53.02v2.79c0,2.3-1.88,4.19-4.19,4.19H15.25c-2.31,0-4.2-1.89-4.2-4.19v-2.79h41.25Z"/><circle class="cls-1" cx="48" cy="48" r="12"/><path class="cls-3" d="m53.85,48.71c-.53-.15-1.09.14-1.25.67-.6,2.01-2.5,3.42-4.6,3.42-1.45,0-2.79-.68-3.68-1.75l1.19.23c.55.11,1.07-.25,1.17-.79.1-.54-.25-1.07-.79-1.17l-3.26-.63c-.53-.1-1.05.24-1.17.76l-.72,3.24c-.12.54.22,1.07.76,1.19.07.02.15.02.22.02.46,0,.87-.32.98-.78l.16-.72c1.27,1.47,3.13,2.4,5.15,2.4,2.98,0,5.66-1.99,6.52-4.85.16-.53-.14-1.09-.67-1.25Z"/><path class="cls-3" d="m54.5,42.12c-.54-.12-1.07.22-1.19.76l-.16.72c-1.27-1.47-3.13-2.4-5.15-2.4-2.98,0-5.66,1.99-6.52,4.85-.16.53.14,1.09.67,1.25.53.16,1.09-.14,1.25-.67.6-2.01,2.5-3.42,4.6-3.42,1.45,0,2.79.68,3.68,1.75l-1.19-.23c-.54-.11-1.07.25-1.17.79-.1.54.25,1.07.79,1.17l3.26.63c.06.01.13.02.19.02.46,0,.87-.32.98-.78l.72-3.24c.12-.54-.22-1.07-.76-1.19Z"/><path class="cls-3" d="m27.33,37.12l-4.96-4.68,2.94-1.77c.48-.29.63-.9.35-1.37-.29-.48-.9-.63-1.37-.35l-8.88,5.33-4.36-3.74v2.64l3.6,3.09c.19.16.42.24.66.24.17,0,.35-.05.51-.14l4.76-2.86,5.37,5.07c.2.18.44.27.69.27.27,0,.53-.11.73-.32.38-.4.36-1.03-.04-1.41Z"/></svg>