<?xml version="1.0" encoding="UTF-8"?><svg id="Flat" xmlns="http://www.w3.org/2000/svg" viewBox="0 0 64 64"><defs><style>.cls-1{fill:#77b24c;}.cls-1,.cls-2,.cls-3{stroke-width:0px;}.cls-2{fill:#536882;}.cls-3{fill:#d3dce5;}</style></defs><circle class="cls-3" cx="32" cy="32" r="28.02"/><path class="cls-1" d="m27.45,45.54c0,2.52-2.11,4.57-4.67,4.57h-12.17c-4.13-4.89-6.63-11.2-6.63-18.11,0-1.57.13-3.11.38-4.61h13.57c1.97,0,3.58,1.58,3.58,3.5s-1.61,3.5-3.58,3.5h-2.39c-1.85,0-3.37,1.48-3.37,3.29s1.52,3.3,3.37,3.3h7.24c2.56,0,4.67,2.05,4.67,4.56Z"/><path class="cls-1" d="m58.47,22.81v4.85c0,2.57-2.05,4.67-4.56,4.67s-4.57-2.1-4.57-4.67v-7.57c0-1.86-1.48-3.38-3.3-3.38s-3.29,1.52-3.29,3.38v2.38c0,1.97-1.58,3.58-3.5,3.58s-3.5-1.61-3.5-3.58V4.23c10.6,1.41,19.32,8.75,22.72,18.58Z"/><path class="cls-1" d="m38.86,34.25h-4.24c-1.44,0-2.62,1.18-2.62,2.62s1.18,2.62,2.62,2.62h4.24c1.44,0,2.62-1.18,2.62-2.62s-1.18-2.62-2.62-2.62Z"/><path class="cls-2" d="m56.08,52.19h-.54c-.35-4.35-3.99-7.78-8.43-7.78s-8.08,3.42-8.43,7.78h-.54c-2.16,0-3.92,1.75-3.92,3.92s1.75,3.92,3.92,3.92h17.94c2.16,0,3.92-1.75,3.92-3.92s-1.75-3.92-3.92-3.92Z"/><path class="cls-2" d="m7.92,11.77h2.54c.35-4.35,3.99-7.78,8.43-7.78s8.08,3.42,8.43,7.78h.54c2.16,0,3.92,1.75,3.92,3.92s-1.75,3.92-3.92,3.92H7.92c-2.16,0-3.92-1.75-3.92-3.92s1.75-3.92,3.92-3.92Z"/></svg>