<?xml version="1.0" encoding="UTF-8"?><svg id="Flat" xmlns="http://www.w3.org/2000/svg" viewBox="0 0 64 64"><defs><style>.cls-1{fill:#d68076;}.cls-1,.cls-2,.cls-3{stroke-width:0px;}.cls-2{fill:#eeae65;}.cls-3{fill:#ecc865;}</style></defs><rect class="cls-1" x="8.62" y="48.58" width="16.66" height="11.42"/><rect class="cls-1" x="38.71" y="48.57" width="16.66" height="11.42"/><path class="cls-3" d="m26.57,36.85c2.95-3.42,3.28-7.52,3.28-7.52v-8.31s0-3.03-2.52-3c0,0-2.35-.14-2.74,2.3v-10.19s.01-2.7-2.47-2.91c0,0-2.22-.03-2.71,2.02v-1.78c-.04-3.54-2.49-3.46-2.49-3.46-2.82,0-2.78,3.59-2.78,3.59v.84c-.34-2.36-2.7-2.4-2.7-2.4-2.49.21-2.47,2.91-2.47,2.91v6.07c-.33-2.49-2.54-2.45-2.54-2.45-2.7,0-2.43,3.37-2.43,3.37v13.74c.56,3.33,1.82,5.71,3.34,7.41.73.81,1.11,1.87,1.11,2.96v4.71c-.89.24-1.54,1.08-1.46,2.07.09,1.04,1.04,1.79,2.08,1.79h15.69c1.04,0,1.99-.76,2.08-1.79.09-.99-.56-1.83-1.46-2.07v-4.85c0-1.13.45-2.19,1.19-3.04Z"/><path class="cls-2" d="m8.97,15v13.6s-1.35-.21-1.35-2.28v-13.45c.58.31,1.19.92,1.35,2.13Z"/><path class="cls-2" d="m14.14,8.43v17.38s-1.35-.22-1.35-2.28V6.41c.6.32,1.19.92,1.35,2.02Z"/><path class="cls-2" d="m19.41,7.46v16.13c-.03.91-.35,1.43-.67,1.72-.33.31-.67.37-.67.37V4.35c.64.4,1.31,1.26,1.34,3.11Z"/><path class="cls-2" d="m24.59,10.12v15.62c-.01.09-.02.19-.04.27-.26,1.42-1.28,1.58-1.28,1.58V7.57c1.31.77,1.32,2.52,1.32,2.55Z"/><path class="cls-3" d="m38.62,39.89v4.85c-.89.24-1.54,1.08-1.46,2.07.09,1.04,1.04,1.79,2.08,1.79h15.69c1.04,0,1.99-.76,2.08-1.79.09-.99-.56-1.83-1.46-2.07v-4.71c0-1.09.39-2.15,1.11-2.96,1.52-1.7,2.78-4.08,3.34-7.41v-13.74s.26-3.37-2.43-3.37c0,0-2.21-.04-2.54,2.45v-6.07s.01-2.7-2.47-2.91c0,0-2.36.04-2.7,2.4v-.84s.04-3.59-2.78-3.59c0,0-2.44-.08-2.49,3.46v1.78c-.49-2.05-2.71-2.02-2.71-2.02-2.49.21-2.47,2.91-2.47,2.91v10.19c-.39-2.44-2.74-2.3-2.74-2.3-2.52-.03-2.52,3-2.52,3v8.31s.33,4.1,3.28,7.52c.74.85,1.19,1.92,1.19,3.04Z"/><path class="cls-2" d="m55.03,15v13.6s1.35-.21,1.35-2.28v-13.45c-.58.31-1.19.92-1.35,2.13Z"/><path class="cls-2" d="m49.86,8.43v17.38s1.35-.22,1.35-2.28V6.41c-.6.32-1.19.92-1.35,2.02Z"/><path class="cls-2" d="m44.59,7.46v16.13c.03.91.35,1.43.67,1.72.33.31.67.37.67.37V4.35c-.64.4-1.31,1.26-1.34,3.11Z"/><path class="cls-2" d="m39.41,10.12v15.62c.01.09.02.19.04.27.26,1.42,1.28,1.58,1.28,1.58V7.57c-1.31.77-1.32,2.52-1.32,2.55Z"/></svg>