<?xml version="1.0" encoding="UTF-8"?><svg id="Outline" xmlns="http://www.w3.org/2000/svg" viewBox="0 0 64 64"><defs><style>.cls-1{stroke-width:0px;}</style></defs><path class="cls-1" d="m32.93,27.38c0-1.78-1.45-3.23-3.23-3.23s-3.23,1.45-3.23,3.23v22.56c0,1.78,1.45,3.23,3.23,3.23s3.23-1.45,3.23-3.23v-22.56Zm-2,22.56c0,.68-.55,1.23-1.23,1.23s-1.23-.55-1.23-1.23v-22.56c0-.68.55-1.23,1.23-1.23s1.23.55,1.23,1.23v22.56Zm-11.18-25.79c-1.78,0-3.23,1.45-3.23,3.23v22.56c0,1.78,1.45,3.23,3.23,3.23s3.23-1.45,3.23-3.23v-22.56c0-1.78-1.45-3.23-3.23-3.23Zm1.23,25.79c0,.68-.55,1.23-1.23,1.23s-1.23-.55-1.23-1.23v-22.56c0-.68.55-1.23,1.23-1.23s1.23.55,1.23,1.23v22.56Zm35.88,11.07c1.84,0,3.34-1.47,3.34-3.27,0-1.46-.98-2.7-2.34-3.12v-7.06c0-3.43-2.29-6.34-5.41-7.28.18-.38.3-.81.3-1.26,0-1.18-.71-2.2-1.72-2.66l1.68-5.7c.09-.3.03-.63-.16-.88-.19-.25-.49-.4-.8-.4h-.68l.68-9.4h.79c1.68,0,3.05-1.37,3.05-3.05v-1.48c0-2.93-2.38-5.32-5.31-5.32h-10.79v-4.08c0-1.68-1.37-3.05-3.05-3.05h-13.46c-1.68,0-3.05,1.37-3.05,3.05v4.08h-10.79c-2.93,0-5.32,2.38-5.32,5.32v1.48c0,1.68,1.37,3.05,3.05,3.05h.8l2.66,36.85c.24,2.4,2.23,4.2,4.64,4.2l41.91-.02Zm-6.89-29.63s.02,0,.02,0c0,0,0,0,0,0h.41l-1.39,4.71h-1.55v-2.02c0-.55-.45-1-1-1s-1,.45-1,1v2.02h-1.55l-1.39-4.71h7.44Zm-9.09-1.93c-.19.06-.36.16-.49.33-.19.25-.25.58-.16.88l.65,2.19v4.32c-.41.51-.67,1.14-.67,1.85,0,.45.11.87.29,1.26-.75.23-1.45.56-2.08.99v-13.89c0-.68.55-1.23,1.23-1.23s1.23.55,1.23,1.23v2.07Zm1.33,9.57c0-.51.42-.93.93-.93h6.67c.51,0,.93.42.93.93s-.42.93-.93.93h-6.67c-.51,0-.93-.42-.93-.93ZM21.91,6.04c0-.58.47-1.05,1.05-1.05h13.46c.58,0,1.05.47,1.05,1.05v4.08h-15.56v-4.08ZM5.8,16.92v-1.48c0-1.83,1.49-3.32,3.32-3.32h41.15c1.83,0,3.31,1.49,3.31,3.32v1.48c0,.58-.47,1.05-1.05,1.05H6.86c-.58,0-1.05-.47-1.05-1.05Zm6.5,39.73l-2.64-36.68h40.08l-.68,9.4h-6.18v-1.99c0-1.78-1.45-3.23-3.23-3.23s-3.23,1.45-3.23,3.23v15.88c-.84,1.22-1.34,2.71-1.34,4.3v7.06c-1.36.42-2.34,1.66-2.34,3.12,0,.46.1.89.27,1.28H14.95c-1.37,0-2.51-1.03-2.64-2.37Zm37.94-14.7c3.09,0,5.61,2.52,5.61,5.61v7.91c0,.55.45,1,1,1,.74,0,1.34.57,1.34,1.27s-.6,1.27-1.34,1.27h-20.79c-.74,0-1.34-.57-1.34-1.27s.6-1.27,1.34-1.27c.55,0,1-.45,1-1v-7.91c0-3.09,2.52-5.61,5.61-5.61h7.56Z"/></svg>