<?xml version="1.0" encoding="UTF-8"?><svg id="Line" xmlns="http://www.w3.org/2000/svg" viewBox="0 0 64 64"><path d="m56,21.9c0-2.21-1.79-4-4-4s-4,1.79-4,4,1.79,4,4,4,4-1.79,4-4Zm-6,0c0-1.1.9-2,2-2s2,.9,2,2-.9,2-2,2-2-.9-2-2Zm10,17.1h-7v-1.97c.23.03.45.07.68.07.99,0,1.98-.28,2.85-.83,1.48-.93,2.4-2.53,2.47-4.27.02-.42-.23-.8-.61-.96-1.6-.68-3.44-.53-4.92.41,0,0,0,0,0,0-.17.1-.32.22-.47.34v-1.95c.44.12.89.19,1.34.19,1.01,0,2.02-.31,2.89-.94,1.55-1.12,2.28-3.01,1.95-4.87,1.36-1.3,1.88-3.26,1.29-5.08-.59-1.82-2.16-3.1-4.03-3.36-.82-1.7-2.52-2.79-4.44-2.79s-3.62,1.1-4.44,2.79c-1.86.25-3.44,1.54-4.03,3.36-.59,1.82-.07,3.78,1.29,5.08-.33,1.85.4,3.74,1.95,4.87,1.25.91,2.8,1.15,4.23.74v1.95c-.15-.12-.31-.24-.47-.34,0,0,0,0,0,0-1.48-.93-3.31-1.08-4.92-.41-.38.16-.63.55-.61.96.07,1.74,1,3.34,2.47,4.27.87.55,1.86.83,2.85.83.23,0,.45-.04.68-.07v1.97h-5.04c-1.74,0-3.48.13-5.2.33-.1-.12-.22-.22-.37-.29-1.6-.68-3.44-.53-4.92.41-.17.1-.32.22-.47.34v-1.95c1.43.4,2.98.17,4.23-.74,1.55-1.12,2.28-3.01,1.95-4.87,1.36-1.3,1.88-3.26,1.29-5.08-.59-1.82-2.16-3.1-4.03-3.36-.82-1.7-2.52-2.79-4.44-2.79s-3.62,1.1-4.44,2.79c-1.86.25-3.44,1.54-4.03,3.36-.59,1.82-.07,3.78,1.29,5.08-.33,1.85.4,3.74,1.95,4.87.86.63,1.87.94,2.89.94.45,0,.9-.07,1.34-.19v1.95c-.15-.12-.31-.24-.47-.34-1.48-.94-3.32-1.09-4.92-.41-.38.16-.63.55-.61.96.04,1.01.38,1.97.94,2.78-1.61.7-3.19,1.51-4.71,2.41-1.68-.13-3.4-.2-5.18-.2h-4.04v-1.97c.23.03.45.07.68.07.99,0,1.98-.28,2.85-.83,1.48-.93,2.4-2.53,2.47-4.27.02-.42-.23-.8-.61-.96-1.6-.68-3.44-.53-4.92.41-.17.1-.32.22-.47.34v-1.95c1.43.4,2.98.17,4.23-.74,1.55-1.12,2.28-3.01,1.95-4.87,1.36-1.3,1.88-3.26,1.29-5.08-.59-1.82-2.16-3.1-4.03-3.36-.82-1.7-2.52-2.79-4.44-2.79s-3.62,1.1-4.44,2.79c-1.86.25-3.44,1.54-4.03,3.36-.59,1.82-.07,3.78,1.29,5.08-.33,1.85.4,3.74,1.95,4.87.86.63,1.87.94,2.89.94.45,0,.9-.07,1.34-.19v1.95c-.15-.12-.31-.24-.47-.34-1.48-.94-3.32-1.09-4.92-.41-.38.16-.63.55-.61.96.07,1.74,1,3.34,2.47,4.27.87.55,1.86.83,2.85.83.23,0,.45-.04.68-.07v1.97H4c-.55,0-1,.45-1,1v14c0,.55.45,1,1,1h56c.55,0,1-.45,1-1v-20c0-.55-.45-1-1-1Zm-5.46-5.86c.7-.45,1.54-.61,2.34-.47-.22.78-.72,1.47-1.42,1.92-.7.45-1.54.6-2.34.47.22-.78.72-1.47,1.42-1.92Zm-6,1.45c-.7-.45-1.21-1.13-1.42-1.92.8-.14,1.64.02,2.34.47.7.45,1.21,1.13,1.42,1.92-.8.13-1.64-.02-2.34-.47Zm-.6-7.1c-1.03-.75-1.45-2.08-1.05-3.3.14-.41-.01-.87-.36-1.12-1.05-.75-1.48-2.08-1.09-3.29.39-1.21,1.52-2.02,2.8-2.02,0,0,0,0,.01,0,.43,0,.82-.28.95-.69.4-1.23,1.52-2.05,2.79-2.05s2.4.83,2.79,2.05c.13.41.52.69.95.69,0,0,0,0,.01,0,1.29,0,2.41.81,2.8,2.02.39,1.21-.04,2.53-1.09,3.29-.35.25-.5.71-.36,1.12.4,1.23-.02,2.55-1.05,3.3-1.03.75-2.42.74-3.46-.02-.05-.03-.1-.05-.15-.08-.03-.01-.05-.03-.08-.04-.12-.05-.24-.08-.36-.08s-.25.03-.36.08c-.03.01-.05.03-.08.04-.05.03-.1.04-.15.08-1.04.76-2.43.77-3.46.02Zm-32.4,11.66h0c.7-.45,1.54-.61,2.34-.47-.22.78-.72,1.47-1.42,1.92-.7.45-1.54.6-2.34.47.22-.78.72-1.47,1.42-1.92Zm-6,1.45c-.7-.45-1.21-1.13-1.42-1.92.8-.14,1.64.02,2.34.47h0c.7.45,1.21,1.13,1.42,1.92-.8.13-1.64-.02-2.34-.47Zm-.6-7.1c-1.03-.75-1.45-2.08-1.05-3.3.14-.41-.01-.87-.36-1.12-1.05-.75-1.48-2.08-1.09-3.29.39-1.21,1.52-2.02,2.8-2.02,0,0,0,0,.01,0,.43,0,.82-.28.95-.69.4-1.23,1.52-2.05,2.79-2.05s2.4.83,2.79,2.05c.13.41.52.69.95.69,0,0,0,0,.01,0,1.29,0,2.41.81,2.8,2.02.39,1.21-.04,2.53-1.09,3.29-.35.25-.5.71-.36,1.12.4,1.23-.02,2.55-1.05,3.3-1.03.75-2.42.74-3.46-.02-.05-.03-.1-.05-.15-.08-.03-.01-.05-.03-.08-.04-.23-.09-.49-.09-.72,0-.03.01-.05.03-.08.04-.05.02-.1.04-.15.08-1.04.76-2.43.77-3.46.02Zm27.6,7.66h0c.7-.45,1.54-.61,2.34-.47-.22.78-.72,1.47-1.42,1.92-.7.45-1.54.6-2.34.47.22-.78.72-1.47,1.42-1.92Zm-6.6-5.66c-1.03-.75-1.45-2.08-1.05-3.3.14-.41-.01-.87-.36-1.12-1.05-.75-1.48-2.08-1.09-3.29.39-1.21,1.52-2.02,2.8-2.02h.01c.43,0,.82-.28.95-.69.4-1.23,1.52-2.05,2.79-2.05s2.4.83,2.79,2.05c.13.41.52.69.95.69h.01c1.29,0,2.41.81,2.8,2.02.39,1.21-.04,2.53-1.09,3.29-.35.25-.5.71-.36,1.12.4,1.23-.02,2.55-1.05,3.3-1.03.75-2.42.74-3.46-.02-.05-.03-.1-.05-.15-.08-.03-.01-.05-.03-.08-.04-.23-.09-.49-.09-.72,0-.03.01-.05.03-.08.04-.05.02-.1.04-.15.08-1.04.76-2.43.77-3.46.02Zm1.51,5.66h0c.7.45,1.21,1.13,1.42,1.92-.8.13-1.64-.02-2.34-.47-.7-.45-1.21-1.13-1.42-1.92.8-.14,1.64.02,2.34.47Zm-1.95,3.16c.86.53,1.83.81,2.81.81.23,0,.45-.04.68-.07v1.81c-2.01-.54-4.11-.96-6.31-1.26.92-.47,1.87-.89,2.82-1.28Zm-24.51,14.71v-12h13.04c13.78,0,24.44,4.04,31.69,12H5Zm54,0h-6.56l-1.23-1.35c-4.31-4.73-9.73-8.15-16.22-10.23v-2.39c.23.03.45.07.68.07.99,0,1.98-.28,2.85-.83,1.09-.69,1.87-1.74,2.24-2.93,1.71-.21,3.45-.34,5.19-.34h13.04v18ZM17,27.9c0-2.21-1.79-4-4-4s-4,1.79-4,4,1.79,4,4,4,4-1.79,4-4Zm-6,0c0-1.1.9-2,2-2s2,.9,2,2-.9,2-2,2-2-.9-2-2Zm27,2c0-2.21-1.79-4-4-4s-4,1.79-4,4,1.79,4,4,4,4-1.79,4-4Zm-6,0c0-1.1.9-2,2-2s2,.9,2,2-.9,2-2,2-2-.9-2-2Zm19.01,21.6c-.34-.43-.27-1.06.16-1.4.43-.34,1.06-.27,1.41.16l.43.54v-.91c0-.49.45-.88,1-.88s1,.4,1,.88v.91l.43-.54c.34-.43.97-.51,1.41-.16.43.34.5.97.16,1.4l-2.21,2.79c-.19.24-.48.38-.78.38s-.59-.14-.78-.38l-2.21-2.79Zm-5.01-8.49c.55,0,1,.4,1,.89v.9l.43-.54c.34-.43.97-.51,1.41-.16.43.34.5.97.16,1.4l-2.21,2.79c-.19.24-.48.38-.78.38s-.59-.14-.78-.38l-2.21-2.79c-.34-.43-.27-1.06.16-1.4.43-.34,1.06-.27,1.41.16l.43.54v-.9c0-.49.45-.89,1-.89Zm-31.17,8.09c.43.34.5.97.16,1.4l-2.21,2.79c-.19.24-.48.38-.78.38s-.59-.14-.78-.38l-2.21-2.79c-.34-.43-.27-1.06.16-1.4.43-.34,1.06-.27,1.41.16l.43.54v-.91c0-.49.45-.88,1-.88s1,.39,1,.88v.91l.43-.54c.34-.43.97-.51,1.41-.16Zm16,2c.43.34.5.97.16,1.4l-2.21,2.79c-.19.24-.48.38-.78.38s-.59-.14-.78-.38l-2.21-2.79c-.34-.43-.27-1.06.16-1.4.43-.34,1.06-.27,1.41.16l.43.54v-.92c0-.48.45-.87,1-.87s1,.39,1,.87v.92l.43-.54c.34-.43.97-.51,1.41-.16Zm-6.83-36.09c2.76,0,5-2.24,5-5s-2.24-5-5-5-5,2.24-5,5,2.24,5,5,5Zm0-8c1.65,0,3,1.35,3,3s-1.35,3-3,3-3-1.35-3-3,1.35-3,3-3Zm-1-4v-1c0-.55.45-1,1-1s1,.45,1,1v1c0,.55-.45,1-1,1s-1-.45-1-1Zm-5.36,2.05c-.39-.39-.39-1.02,0-1.41s1.02-.39,1.41,0l.71.71c.39.39.39,1.02,0,1.41-.2.2-.45.29-.71.29s-.51-.1-.71-.29l-.71-.71Zm-2.64,4.95c0-.55.45-1,1-1h1c.55,0,1,.45,1,1s-.45,1-1,1h-1c-.55,0-1-.45-1-1Zm4.76,4.24c.39.39.39,1.02,0,1.41l-.71.71c-.2.2-.45.29-.71.29s-.51-.1-.71-.29c-.39-.39-.39-1.02,0-1.41l.71-.71c.39-.39,1.02-.39,1.41,0Zm4.24,1.76c.55,0,1,.45,1,1v1c0,.55-.45,1-1,1s-1-.45-1-1v-1c0-.55.45-1,1-1Zm5.66-1.76l.71.71c.39.39.39,1.02,0,1.41-.2.2-.45.29-.71.29s-.51-.1-.71-.29l-.71-.71c-.39-.39-.39-1.02,0-1.41s1.02-.39,1.41,0Zm1.34-5.24h1c.55,0,1,.45,1,1s-.45,1-1,1h-1c-.55,0-1-.45-1-1s.45-1,1-1Zm-2.76-3.24c-.39-.39-.39-1.02,0-1.41l.71-.71c.39-.39,1.02-.39,1.41,0s.39,1.02,0,1.41l-.71.71c-.2.2-.45.29-.71.29s-.51-.1-.71-.29Z"/></svg>