<?xml version="1.0" encoding="UTF-8"?><svg id="Line" xmlns="http://www.w3.org/2000/svg" viewBox="0 0 96 96"><defs><style>.cls-1{stroke-width:0px;}</style></defs><path class="cls-1" d="M87.26,40.05l-5.36-.44c-.57-.05-1.03.36-1.08.91-.05.55.36,1.03.91,1.08l5.36.44c1.14.09,1.99,1.1,1.9,2.23-.09,1.07-1,1.91-2.07,1.91-.04,0-.08,0-.16,0l-20.09-1.65.28-4.13,5.82.47c.55.04,1.03-.37,1.08-.92s-.37-1.03-.92-1.08l-13.15-1.07c-.39-.03-.75.08-1.05.27l-5.96-.07c-1.16-.04-2.3.12-3.4.45l-11.79-18.33c-3.23-5.05-8.2-8.68-14.01-10.23l-4.71-1.26c-.4-.11-.82.04-1.06.37-.24.33-.26.78-.04,1.12l14.57,23.34L6.29,25.46c-.39-.12-.82.01-1.08.33-.26.32-.29.77-.09,1.12l2.42,4.23c2.98,5.21,7.77,9.09,13.48,10.92l18.41,5.92h0s0,0,0,0l1.94.61c-.02,1.1.12,2.21.43,3.26l1.6,5.76c-.12.35-.12.72,0,1.08l9.2,25.99c.36,1.03,1.1,1.85,2.09,2.32.56.26,1.15.4,1.75.4.46,0,.92-.08,1.36-.24,1.03-.36,1.85-1.1,2.32-2.09s.53-2.09.16-3.11l-9.2-25.98c-.12-.32-.32-.6-.6-.79l-1.38-5.14.7-.91c.4-.28.77-.62,1.08-1.02l2.05-2.55,5.29.02c.25.2.54.34.88.37l27.44,2.25c.12.01.24.02.36.02,2.11,0,3.9-1.65,4.07-3.75.18-2.23-1.49-4.2-3.72-4.39ZM60.07,39.84l4.89.39-.28,4.14-5.04-.41.43-4.12ZM20.8,11.24l2.27.6c5.32,1.42,9.88,4.75,12.84,9.38l10.73,16.68-11.37-3.51-14.46-23.15ZM9.29,30.15l-1.16-2.03,37.77,11.65-7.74,2.97c-.6.23-1.06.74-1.23,1.37-.08.32-.09.65-.02.96l-15.27-4.91c-5.24-1.68-9.62-5.24-12.35-10.01ZM58.33,84.2c-.24.5-.66.88-1.18,1.06-.52.18-1.08.16-1.58-.08s-.88-.66-1.06-1.18l-6.75-19.05,3.93-1.33,6.73,19c.18.52.16,1.08-.08,1.58ZM51.01,61.73l-3.93,1.33-1.64-4.62,3.88-1.48,1.69,4.77ZM47.2,50.61l1.22,4.53-3.29,1.17-1.39-5.02c-.2-.67-.31-1.37-.34-2.07l1.96.61c.5.16,1.01.23,1.51.23.09,0,.17-.01.26-.01,0,.19.02.38.08.56ZM51.3,44.32l-1.98,2.54c-.79,1.02-2.14,1.44-3.37,1.06l-5.92-1.86-1.15-1.46,10.44-4.01c1.01-.39,2.06-.58,3.15-.58.09,0,5.47.06,5.47.06l-.28,3.48h-4.63c-.67-.05-1.3.24-1.71.77ZM75.44,40.09c.05-.55.52-.97,1.08-.91l1.8.15c.55.05.96.53.91,1.08-.04.52-.48.92-1,.92-.03,0-.06,0-.08,0l-1.8-.15c-.55-.05-.96-.53-.91-1.08Z"/></svg>