<?xml version="1.0" encoding="UTF-8"?><svg id="Line" xmlns="http://www.w3.org/2000/svg" viewBox="0 0 64 64"><path d="m60.8,10.61c-.33.44-.96.53-1.4.2-2.03-1.53-6.25-4.05-11.69-3.8-4.41.2-7.85,2.1-10,3.7-.04.04-.08.07-.12.1-7.89,5.76-11.5,10.65-10.43,14.15.82,2.69,4.11,4.02,7.91,5.57,3.97,1.61,8.46,3.44,10.76,7.37,3.25,5.58.94,13.55-6.87,23.71-.2.26-.49.39-.79.39-.21,0-.43-.07-.61-.21-.44-.34-.52-.96-.18-1.4,7.27-9.45,9.53-16.67,6.73-21.48-1.95-3.35-5.93-4.96-9.78-6.53-4.1-1.66-7.97-3.24-9.07-6.83-1.29-4.22,1.81-9.16,9.46-15.08-.76-.11-1.54-.15-2.3-.09-.87.07-1.73.25-2.55.54-8.72,5.66-12.89,10.81-12.05,14.91.57,2.8,3.3,4.52,6.2,6.34,3.04,1.92,6.18,3.89,7.18,7.36,1.74,5.98-3.8,13.28-16.95,22.29-.17.12-.37.18-.56.18-.32,0-.63-.15-.83-.43-.31-.46-.2-1.08.26-1.39,12.17-8.35,17.6-15.11,16.16-20.09-.8-2.74-3.49-4.44-6.33-6.23-3.12-1.97-6.35-4-7.09-7.64-.98-4.82,2.97-10.27,11.74-16.2-2.39-1.42-5.8-2.84-10.01-3.01-6.07-.25-10.76,2.29-13.02,3.83-.45.31-1.08.19-1.39-.26-.31-.46-.19-1.08.26-1.39,2.46-1.68,7.57-4.45,14.23-4.17,5.23.22,9.31,2.19,11.92,3.91.87-.27,1.76-.46,2.67-.53,1.52-.12,3.07.07,4.54.51,2.39-1.72,6.08-3.67,10.81-3.89,6.07-.28,10.75,2.51,12.98,4.2.44.33.53.96.2,1.4Zm-38.58,10c-.47-.29-1.09-.15-1.38.32-1.03,1.66-1.42,3.18-1.15,4.53.25,1.21,1.03,2.31,2.47,3.47.18.15.41.22.62.22.29,0,.58-.13.78-.37.35-.43.28-1.06-.16-1.41-1.05-.85-1.61-1.58-1.76-2.31-.17-.81.14-1.88.89-3.07.29-.47.15-1.09-.32-1.38Zm19.17,19.48c-.28-.48-.89-.64-1.37-.36-.48.28-.64.89-.36,1.37,1.86,3.2.31,8.06-4.62,14.47-.34.44-.25,1.07.18,1.4.18.14.4.21.61.21.3,0,.6-.13.79-.39,5.55-7.21,7.1-12.67,4.76-16.69Zm16.13-23.66l-.43.54v-.85c0-.52-.45-.94-1-.94s-1,.42-1,.94v.85l-.43-.54c-.34-.43-.97-.51-1.4-.16-.43.34-.51.97-.16,1.4l2.21,2.79c.19.24.48.38.78.38s.59-.14.78-.38l2.21-2.79c.34-.43.27-1.06-.16-1.41-.43-.34-1.06-.27-1.4.16Zm-15.53,12.17v-3.72c-2.28-.56-4-2.98-4-5.88,0-3.31,2.24-6,5-6s5,2.69,5,6c0,2.9-1.72,5.32-4,5.88v3.72c0,.55-.45,1-1,1s-1-.45-1-1Zm0-5.84v-1.75c0-.55.45-1,1-1s1,.45,1,1v1.75c1.16-.55,2-2.02,2-3.75,0-2.21-1.35-4-3-4s-3,1.79-3,4c0,1.74.84,3.2,2,3.75Zm-30,18.25c0-3.31,2.24-6,5-6s5,2.69,5,6c0,2.9-1.72,5.32-4,5.88v3.72c0,.55-.45,1-1,1s-1-.45-1-1v-3.72c-2.28-.56-4-2.98-4-5.88Zm2,0c0,1.74.84,3.2,2,3.75v-1.75c0-.55.45-1,1-1s1,.45,1,1v1.75c1.16-.55,2-2.02,2-3.75,0-2.21-1.35-4-3-4s-3,1.79-3,4Zm39.1-4.17c.31,0,.59-.14.78-.38l2.21-2.79c.34-.43.27-1.06-.16-1.4-.43-.34-1.06-.27-1.4.16l-.43.54v-.86c0-.51-.45-.93-1-.93s-1,.42-1,.93v.86l-.42-.54c-.34-.43-.97-.51-1.41-.16-.43.34-.51.97-.16,1.4l2.21,2.79c.19.24.48.38.78.38Zm3.32,14.42l-.43.54v-.85c0-.52-.45-.94-1-.94s-1,.42-1,.94v.85l-.43-.54c-.34-.43-.97-.51-1.4-.16-.43.34-.51.97-.16,1.4l2.21,2.79c.19.24.48.38.78.38s.59-.14.78-.38l2.21-2.79c.34-.43.27-1.06-.16-1.4-.43-.34-1.06-.27-1.4.16Zm-46.31,1.34l-.43.54v-.91c0-.49-.45-.88-1-.88s-1,.39-1,.88v.91l-.43-.54c-.34-.43-.97-.51-1.4-.16-.43.34-.51.97-.16,1.4l2.21,2.79c.19.24.48.38.78.38s.59-.14.78-.38l2.21-2.79c.34-.43.27-1.06-.16-1.4-.43-.34-1.06-.27-1.4.16Zm-2.43-17.59c.31,0,.59-.14.78-.38l2.21-2.79c.34-.43.27-1.06-.16-1.4-.43-.34-1.06-.27-1.4.16l-.43.54v-.92c0-.48-.45-.87-1-.87s-1,.39-1,.87v.92l-.43-.54c-.34-.43-.97-.51-1.4-.16-.43.34-.51.97-.16,1.4l2.21,2.79c.19.24.48.38.78.38Zm5.1-15.51l2.21-2.79c.34-.43.27-1.06-.16-1.41-.43-.34-1.06-.27-1.4.16l-.43.54v-.89c0-.5-.45-.9-1-.9s-1,.4-1,.9v.89l-.43-.54c-.34-.43-.97-.5-1.4-.16-.43.34-.51.97-.16,1.41l2.21,2.79c.19.24.48.38.78.38s.59-.14.78-.38Z"/></svg>