<?xml version="1.0" encoding="UTF-8"?><svg id="Line" xmlns="http://www.w3.org/2000/svg" viewBox="0 0 64 64"><defs><style>.cls-1{stroke-width:0px;}</style></defs><path class="cls-1" d="M31.44,32.95c-.33-.06-.67.04-.9.27l-9.81,9.81c-.27.27-.36.68-.24,1.04l3.95,11.25c.11.32.39.57.72.64.07.02.15.03.22.03.26,0,.52-.1.71-.29l10.27-10.27c.29-.29.37-.71.22-1.09l-4.42-10.79c-.13-.31-.4-.54-.73-.6ZM25.81,53.16l-3.22-9.16,1.44-1.44c.68.68,1.67,1.31,2.9,1.31.31,0,.64-.04.97-.13.53-.14.85-.69.71-1.22-.14-.53-.69-.85-1.22-.71-.86.23-1.53-.23-1.94-.66l5.45-5.45,3.59,8.78-8.68,8.67ZM55.44,6.07l-2.42-2.42c-.73-.73-1.89-.8-2.7-.16l-4.32,3.39c-.46.36-.74.9-.78,1.48-.02.38.07.75.25,1.08l-5.25,5.25c-.74-.15-1.54.04-2.09.59l-2.38,2.38c-.73-.32-1.62-.19-2.22.41l-7.59,7.59-3.12-.29c-.92-.09-1.81.24-2.46.89l-11.84,11.84c-.58.58-.9,1.36-.9,2.18s.32,1.6.9,2.18l1.34,1.34c.54.54,1.25.86,2.02.9l2.27.12c.44.02.82.31.96.72l4.17,11.88c.62,1.77,2.08,3.07,3.91,3.49.4.09.81.14,1.22.14,1.42,0,2.79-.56,3.82-1.59l10.96-10.96c1.55-1.55,2.01-3.86,1.18-5.89l-4.76-11.63,5.42-5.42c.6-.6.73-1.49.41-2.22l2.38-2.38h0c.43-.43.66-1,.66-1.6,0-.17-.02-.34-.06-.5l5.23-5.23c.29.16.62.25.96.25.04,0,.08,0,.12,0,.58-.04,1.12-.32,1.48-.78l3.39-4.32c.64-.81.57-1.97-.16-2.7ZM33.72,30.03c-.29.29-.37.71-.22,1.09l5.02,12.24c.52,1.28.23,2.74-.75,3.71l-10.96,10.96c-.84.84-2.03,1.18-3.18.92-1.15-.26-2.08-1.09-2.47-2.2l-4.17-11.88c-.42-1.18-1.49-1.99-2.75-2.06h0l-2.27-.12c-.27-.01-.52-.13-.71-.32l-1.35-1.35c-.2-.2-.32-.48-.32-.76s.11-.56.32-.77l11.84-11.84c.2-.2.48-.32.76-.32.03,0,.07,0,.1,0l3.58.33c.3.03.59-.08.8-.29l7.92-7.92,4.67,4.67-5.89,5.89ZM42.4,19.54l-2.28,2.28-2.86-2.86,2.28-2.28c.13-.13.25-.13.38,0l2.48,2.48c.06.06.08.14.08.19s-.01.12-.08.19ZM43.25,17.19l-1.35-1.35,4.92-4.92,1.35,1.35-4.92,4.92ZM50.58,11.85l-3.34-3.41,4.37-3.38,2.42,2.42s.02.04,0,.05l-3.45,4.32Z"/></svg>