<?xml version="1.0" encoding="UTF-8"?><svg id="Line" xmlns="http://www.w3.org/2000/svg" viewBox="0 0 64 64"><path d="m57,3c-1.86,0-3.41,1.28-3.86,3h-17.14v-1c0-1.1-.9-2-2-2h-4c-1.1,0-2,.9-2,2v1H10.86c-.45-1.72-2-3-3.86-3-2.21,0-4,1.79-4,4s1.79,4,4,4c1.86,0,3.41-1.28,3.86-3h10.15c-5.08,2.72-8.62,7.94-8.97,14h-1.04c-1.1,0-2,.9-2,2v4c0,1.1.9,2,2,2h4c1.1,0,2-.9,2-2v-4c0-1.1-.9-2-2-2h-.95c.5-7.47,6.48-13.45,13.95-13.95v.95c0,1.1.9,2,2,2h4c1.1,0,2-.9,2-2v-.95c7.47.5,13.45,6.48,13.95,13.95h-.95c-1.1,0-2,.9-2,2v4c0,1.1.9,2,2,2h4c1.1,0,2-.9,2-2v-4c0-1.1-.9-2-2-2h-1.04c-.35-6.06-3.89-11.28-8.97-14h10.15c.45,1.72,2,3,3.86,3,2.21,0,4-1.79,4-4s-1.79-4-4-4ZM7,9c-1.1,0-2-.9-2-2s.9-2,2-2,2,.9,2,2-.9,2-2,2Zm8,19h-4v-4h4v4Zm15-19v-4h4v4s-4,0-4,0Zm23,19h-4v-4h4v4Zm4-19c-1.1,0-2-.9-2-2s.9-2,2-2,2,.9,2,2-.9,2-2,2Zm-19.82,6.22c-.31-.74-1.04-1.22-1.84-1.22h-6.68c-.8,0-1.53.48-1.83,1.19l-10.79,23.07c-.19.46-.21.96-.03,1.49l5.53,13.25h-.55c-1.1,0-2,.9-2,2v4c0,1.1.9,2,2,2h22c1.1,0,2-.9,2-2v-4c0-1.1-.9-2-2-2h-.55l5.55-13.31c.16-.47.14-.98-.06-1.47l-10.76-23.01Zm-5.18,20.78c1.1,0,2,.9,2,2s-.9,2-2,2-2-.9-2-2,.9-2,2-2Zm11,23h-22v-4h22v4Zm-2.71-6l-16.6-.06-5.81-13.87,10.79-23.07h2.34v18.14c-1.72.45-3,2-3,3.86,0,2.21,1.79,4,4,4s4-1.79,4-4c0-1.86-1.28-3.41-3-3.86v-18.12h2.35s10.78,22.96,10.78,22.96l-5.84,14.02Z"/></svg>