<?xml version="1.0" encoding="UTF-8"?><svg id="Line" xmlns="http://www.w3.org/2000/svg" viewBox="0 0 64 64"><path d="m59.43,4.23c-.31-.75-1.04-1.23-1.85-1.23H5c-1.1,0-2,.9-2,2v52.59c0,.81.48,1.54,1.23,1.85.25.1.51.15.77.15.52,0,1.03-.2,1.41-.59l2.29-2.29L56.71,8.71l2.29-2.29c.57-.57.74-1.43.43-2.18Zm-4.14,3.06s0,0,0,0L7.29,55.29s-.01.02-.02.03l-2.27,2.27s0,0,0,0v-4.59h1c.55,0,1-.45,1-1s-.45-1-1-1h-1v-4h1c.55,0,1-.45,1-1s-.45-1-1-1h-1v-4h1c.55,0,1-.45,1-1s-.45-1-1-1h-1v-4h1c.55,0,1-.45,1-1s-.45-1-1-1h-1v-4h1c.55,0,1-.45,1-1s-.45-1-1-1h-1v-4h1c.55,0,1-.45,1-1s-.45-1-1-1h-1v-4h1c.55,0,1-.45,1-1s-.45-1-1-1h-1v-4h1c.55,0,1-.45,1-1s-.45-1-1-1h-1v-4h4v1c0,.55.45,1,1,1s1-.45,1-1v-1h4v1c0,.55.45,1,1,1s1-.45,1-1v-1h4v1c0,.55.45,1,1,1s1-.45,1-1v-1h4v1c0,.55.45,1,1,1s1-.45,1-1v-1h4v1c0,.55.45,1,1,1s1-.45,1-1v-1h4v1c0,.55.45,1,1,1s1-.45,1-1v-1h4v1c0,.55.45,1,1,1s1-.45,1-1v-1h4v1c0,.55.45,1,1,1s1-.45,1-1v-1h4.59l-2.29,2.29Zm-14.61,3.71H12c-.55,0-1,.45-1,1v28.69c0,.4.24.77.62.92.12.05.25.08.38.08.26,0,.52-.1.71-.29l28.69-28.69c.29-.29.37-.72.22-1.09-.15-.37-.52-.62-.92-.62Zm-27.69,27.27V13h25.27l-25.27,25.27Z"/></svg>