<?xml version="1.0" encoding="UTF-8"?><svg id="Line" xmlns="http://www.w3.org/2000/svg" viewBox="0 0 64 64"><path d="m60.73,10.9c0-2.04-.79-3.95-2.23-5.39-1.44-1.44-3.35-2.23-5.39-2.23s-3.95.79-5.39,2.23l-1.8,1.8c-.69-.21-1.5-.06-2.03.47l-3.27,3.27c-.38.38-.59.88-.59,1.41,0,.22.04.43.11.62l-31.46,31.46c-.1.1-.17.21-.22.34l-5.15,13.05c-.34.8-.17,1.7.45,2.32.41.41.95.62,1.49.62.27,0,.54-.05.8-.16l13.08-5.16c.13-.05.24-.13.34-.22l31.46-31.46c.2.07.41.11.62.11.53,0,1.04-.21,1.41-.59l3.27-3.27c.38-.38.59-.88.59-1.41,0-.22-.04-.43-.11-.62l1.79-1.79c1.44-1.44,2.23-3.35,2.23-5.39ZM10.79,45.26l30.6-30.6,3.27,3.27-30.6,30.6-3.27-3.27Zm-1.04,1.78l7.21,7.21-4.69,1.85-4.37-4.37,1.85-4.69Zm-4.47,11.83s-.06.03-.12-.02c-.05-.05-.03-.09-.01-.14l1.95-4.94,3.15,3.15-4.97,1.96Zm13.47-5.65l-3.27-3.27,30.6-30.6,3.27,3.27-30.6,30.6Zm32.8-31.23h0s0,0,0,0l-9.52-9.52,3.27-3.27,9.52,9.52-3.27,3.27Zm3.9-5.47l-7.96-7.96,1.64-1.64c1.06-1.06,2.48-1.65,3.98-1.65s2.92.59,3.98,1.65,1.65,2.48,1.65,3.98-.59,2.92-1.65,3.98l-1.64,1.64Z"/></svg>