<?xml version="1.0" encoding="UTF-8"?><svg id="Line" xmlns="http://www.w3.org/2000/svg" viewBox="0 0 64 64"><path d="m53,4H14c-1.65,0-3,1.35-3,3v2c-1.65,0-3,1.35-3,3s1.35,3,3,3v4c-1.65,0-3,1.35-3,3s1.35,3,3,3v4c-1.65,0-3,1.35-3,3s1.35,3,3,3v4c-1.65,0-3,1.35-3,3s1.35,3,3,3v4c-1.65,0-3,1.35-3,3s1.35,3,3,3v2c0,1.65,1.35,3,3,3h39c1.65,0,3-1.35,3-3V7c0-1.65-1.35-3-3-3ZM10,12c0-.55.45-1,1-1h2c.55,0,1,.45,1,1s-.45,1-1,1h-2c-.55,0-1-.45-1-1Zm0,10c0-.55.45-1,1-1h2c.55,0,1,.45,1,1s-.45,1-1,1h-2c-.55,0-1-.45-1-1Zm0,10c0-.55.45-1,1-1h2c.55,0,1,.45,1,1s-.45,1-1,1h-2c-.55,0-1-.45-1-1Zm0,10c0-.55.45-1,1-1h2c.55,0,1,.45,1,1s-.45,1-1,1h-2c-.55,0-1-.45-1-1Zm0,10c0-.55.45-1,1-1h2c.55,0,1,.45,1,1s-.45,1-1,1h-2c-.55,0-1-.45-1-1Zm3,5v-2c1.65,0,3-1.35,3-3s-1.35-3-3-3v-4c1.65,0,3-1.35,3-3s-1.35-3-3-3v-4c1.65,0,3-1.35,3-3s-1.35-3-3-3v-4c1.65,0,3-1.35,3-3s-1.35-3-3-3v-4c1.65,0,3-1.35,3-3s-1.35-3-3-3v-2c0-.55.45-1,1-1h4v52h-4c-.55,0-1-.45-1-1ZM20,6h26v52h-26V6Zm28,52V6h2v52h-2Zm6-1c0,.55-.45,1-1,1h-1V6h1c.55,0,1,.45,1,1v50Zm-13-48h-16c-1.1,0-2,.9-2,2v18c0,1.1.9,2,2,2h16c1.1,0,2-.9,2-2V11c0-1.1-.9-2-2-2Zm-16,20V11h16v18s-16,0-16,0Zm14-14c0,.55-.45,1-1,1h-10c-.55,0-1-.45-1-1s.45-1,1-1h10c.55,0,1,.45,1,1Zm0,5c0,.55-.45,1-1,1h-10c-.55,0-1-.45-1-1s.45-1,1-1h10c.55,0,1,.45,1,1Zm0,5c0,.55-.45,1-1,1h-10c-.55,0-1-.45-1-1s.45-1,1-1h10c.55,0,1,.45,1,1Z"/></svg>