<?xml version="1.0" encoding="UTF-8"?><svg id="Line" xmlns="http://www.w3.org/2000/svg" viewBox="0 0 64 64"><path d="m46,25c1.1,0,2-.9,2-2v-2c0-1.1-.9-2-2-2h-.55c-1.37-1.64-3.03-3.05-4.96-4.15-1.09-.63-2.27-1.15-3.5-1.57V5c0-1.1-.9-2-2-2h-6c-1.1,0-2,.9-2,2v8.28c-1.23.42-2.4.94-3.5,1.57-1.93,1.11-3.59,2.51-4.96,4.15h-.55c-1.1,0-2,.9-2,2v2c0,1.1.9,2,2,2v30c-1.1,0-2,.9-2,2v2c0,1.1.9,2,2,2h28c1.1,0,2-.9,2-2v-2c0-1.1-.9-2-2-2v-30Zm-26,8h24v14h-24v-14ZM29,5h6v3h-1c-.55,0-1,.45-1,1s.45,1,1,1h1v3h-6V5Zm-4.5,11.58c1.13-.65,2.36-1.18,3.65-1.58h7.7c1.29.4,2.52.93,3.65,1.58,1.2.69,2.29,1.5,3.25,2.42h-21.5c.96-.92,2.05-1.73,3.25-2.42Zm-6.5,4.42h28v2s-28,0-28,0v-2Zm26,4v6h-24v-6h24Zm2,34h-28v-2h28v2Zm-26-4v-6h24v6h-24Zm11.26-19.67c-.54.61-3.26,3.73-3.26,5.67,0,2.21,1.79,4,4,4s4-1.79,4-4c0-1.94-2.71-5.06-3.26-5.67-.38-.42-1.11-.42-1.49,0Zm.74,7.67c-1.1,0-2-.9-2-2,0-.64.94-2.13,2-3.45,1.06,1.33,2,2.83,2,3.45,0,1.1-.9,2-2,2Z"/></svg>