<?xml version="1.0" encoding="UTF-8"?><svg id="Line" xmlns="http://www.w3.org/2000/svg" viewBox="0 0 64 64"><path d="m49,24h-3.45l2.59-7.11c3.03-3.52,2.63-5.05,1.66-6.96-.26-.52-.52-1.02-.64-1.65-.21-1.07.25-2.44.45-2.87.18-.4.11-.88-.21-1.17-.32-.29-.77-.35-1.15-.14-.09.04-.24.07-.43.13-1.47.4-4.91,1.34-6.75,4.92-1.13,2.19-.82,4.17-.51,5.19l-3.52,9.67h-1.03v-11.82l2.43-6.48c.23-.61.14-1.3-.23-1.84-.37-.54-.99-.86-1.64-.86h-9.11c-.66,0-1.27.32-1.64.86-.37.54-.46,1.23-.23,1.84l2.43,6.48v11.82h-1l-3.64-9.98c.06-4.67-1.23-5.58-3.21-6.43-.54-.23-1.05-.45-1.55-.85-.85-.68-1.37-2.03-1.5-2.49-.12-.42-.48-.74-.91-.76-.43-.02-.82.22-.97.63-.05.09-.14.21-.25.37-.87,1.25-2.89,4.18-2.01,8.11.54,2.4,2.06,3.72,2.94,4.3l2.58,7.1h-3.49c-1.1,0-2,.9-2,2v4c0,1.1.9,2,2,2h1v27c0,1.65,1.35,3,3,3h26c1.65,0,3-1.35,3-3v-27h1c1.1,0,2-.9,2-2v-4c0-1.1-.9-2-2-2Zm-6.16-13.94c1.1-2.14,2.96-3.08,4.37-3.57-.12.66-.17,1.43-.02,2.17.18.91.53,1.61.82,2.17.62,1.21.97,1.92-1.08,4.39l-4.52-1.65c-.19-.76-.32-2.06.43-3.51Zm-.63,5.57l3.76,1.37-2.55,7h-4.26l3.05-8.37Zm-13.21-10.63v1c0,.55.45,1,1,1s1-.45,1-1v-1h2v1c0,.55.45,1,1,1s1-.45,1-1v-1h1.56l-2.25,6h-4.61l-2.25-6h1.56Zm1,8h4v11h-4v-11Zm-15.08-.84c-.53-2.35.29-4.27,1.05-5.54.34.58.79,1.2,1.38,1.67.72.58,1.44.89,2.02,1.14,1.25.53,1.97.84,2,4.05l-4.52,1.65c-.63-.46-1.57-1.37-1.93-2.97Zm3.09,4.68l3.75-1.37,3.11,8.53h-4.25l-2.61-7.16Zm27.99,42.16c0,.55-.45,1-1,1h-26c-.55,0-1-.45-1-1v-27h28v27ZM15,30v-4h34v4s-34,0-34,0Z"/></svg>