<?xml version="1.0" encoding="UTF-8"?><svg id="Line" xmlns="http://www.w3.org/2000/svg" viewBox="0 0 64 64"><path d="m60.12,24.29L41.71,5.88c-1.13-1.13-3.11-1.13-4.24,0L3.88,39.47c-1.17,1.17-1.17,3.07,0,4.24l17,17c.19.19.44.29.71.29h32.41c.55,0,1-.45,1-1s-.45-1-1-1h-24.34l30.46-30.46c1.17-1.17,1.17-3.07,0-4.24Zm-19.77,21.19l-19.83-19.83,3.14-3.14,19.83,19.83-3.14,3.14Zm-18.35,13.52L5.29,42.29c-.39-.39-.39-1.02,0-1.41l13.81-13.81,19.83,19.83-12.1,12.1h-4.83Zm36.71-31.88l-13.81,13.81-19.83-19.83,13.81-13.81c.39-.39,1.02-.39,1.41,0l18.41,18.41c.39.39.39,1.02,0,1.41Z"/></svg>