<?xml version="1.0" encoding="UTF-8"?><svg id="Line" xmlns="http://www.w3.org/2000/svg" viewBox="0 0 64 64"><path d="m54,11h-15v-2c0-1.1-.9-2-2-2h-2v-2c0-1.1-.9-2-2-2h-2c-1.1,0-2,.9-2,2v2h-2c-1.1,0-2,.9-2,2v2h-15c-1.65,0-3,1.35-3,3v28c0,1.65,1.35,3,3,3h8c0,1.1.9,2,2,2h.76l-2.74,12.79c-.12.54.23,1.07.77,1.19.54.12,1.07-.23,1.19-.77l2.83-13.21h1.95l-2.74,12.79c-.12.54.23,1.07.77,1.19.07.02.14.02.21.02.46,0,.88-.32.98-.79l2.83-13.21h2.19v13c0,.55.45,1,1,1s1-.45,1-1v-13h2v13c0,.55.45,1,1,1s1-.45,1-1v-13h2.19l2.83,13.21c.12.54.64.88,1.19.77.54-.12.88-.65.77-1.19l-2.74-12.79h1.95l2.83,13.21c.1.47.51.79.98.79.07,0,.14,0,.21-.02.54-.12.88-.65.77-1.19l-2.74-12.79h.76c1.1,0,2-.9,2-2h8c1.65,0,3-1.35,3-3V14c0-1.65-1.35-3-3-3Zm-23-6h2v2h-2v-2Zm-4,4h10v2h-10v-2Zm-7,36v-2h24v2s-24,0-24,0Zm35-3c0,.55-.45,1-1,1h-8c0-1.1-.9-2-2-2h-24c-1.1,0-2,.9-2,2h-8c-.55,0-1-.45-1-1V14c0-.55.45-1,1-1h44c.55,0,1,.45,1,1v28Z"/></svg>