<?xml version="1.0" encoding="UTF-8"?><svg id="Line" xmlns="http://www.w3.org/2000/svg" viewBox="0 0 64 64"><path d="m52,36h-3.33l-3.3-21.04c.93-.17,1.64-.99,1.64-1.96v-2c0-1.1-.9-2-2-2h-.57l-.65-4.14c-.18-1.1-1.18-1.82-2.29-1.67l-1.98.31c-.53.09-.99.37-1.3.8-.31.43-.44.96-.35,1.49l.5,3.21h-3.35v-4c0-1.1-.9-2-2-2h-2c-1.1,0-2,.9-2,2v4h-4.35l.5-3.2c.09-.53-.04-1.06-.35-1.49-.31-.43-.78-.72-1.31-.8l-1.98-.31c-1.1-.16-2.1.57-2.28,1.67l-.66,4.18c-.89.2-1.57,1-1.57,1.95v2c0,.61.28,1.14.7,1.51l-3.37,21.49h-2.33c-1.1,0-2,.9-2,2v4c0,1.1.9,2,2,2h1.08l-2.23,14.2c-.18,1.09.56,2.12,1.66,2.3l1.98.31c.1.01.2.02.3.02.98,0,1.82-.7,1.98-1.7l2.38-15.14h9.85v15c0,1.1.9,2,2,2h2c1.1,0,2-.9,2-2v-15h8.85l2.38,15.14c.16.99,1,1.69,1.99,1.69.1,0,.2,0,.31-.02l1.98-.31c1.09-.18,1.83-1.21,1.66-2.29l-2.23-14.21h2.08c1.1,0,2-.9,2-2v-4c0-1.1-.9-2-2-2Zm-21,0V15h2v21h-2Zm-10.59,0l3.3-21h5.29v21h-8.59Zm14.59-21h4.29l3.3,21h-7.59V15Zm9.61,21l-3.3-21h2.03l3.3,21h-2.03Zm.39-23h-26v-2h26v2Zm-5.18-7.52l1.98-.3.6,3.83h-2.03l-.55-3.52Zm-8.83-.48h2v4h-2v-4Zm-9.8.17l1.97.32-.55,3.51h-2.02l.6-3.83Zm-1.55,9.83h2.03l-3.3,21h-2.03l3.29-21Zm-4.86,43.83l-1.97-.32,2.28-14.52h2.02l-2.33,14.83Zm18.2.17h-2v-15h2v15Zm17.17-.48l-1.98.3-2.33-14.83h2.03l2.28,14.52ZM12,42v-4h40v4s-40,0-40,0Z"/></svg>