<?xml version="1.0" encoding="UTF-8"?><svg id="Line" xmlns="http://www.w3.org/2000/svg" viewBox="0 0 64 64"><path d="m60.39,5.47l-1.86-1.86c-.68-.68-1.78-.81-2.57-.31l-16.91,9.83c-.87.51-1.45,1.4-1.57,2.4l-.65,5.88c-.03.3.07.6.29.82l.07.07-5.74,5.74c-.69-.21-1.49-.06-2.02.47l-1.84,1.84c-.68-.24-1.45-.13-2.02.36l-18.97,15.34c-6.41,5.43-2.25,13.11-2.21,13.18.09.16.23.3.39.39.04.02,2.52,1.36,5.64,1.36,2.4,0,5.2-.79,7.56-3.59l15.32-18.94c.5-.59.61-1.36.37-2.04l1.84-1.84c.38-.38.59-.88.59-1.42,0-.21-.04-.42-.11-.61l5.73-5.73.07.07c.19.19.44.29.71.29.04,0,.07,0,.11,0l5.89-.65c1-.12,1.89-.7,2.4-1.57l9.81-16.88c.52-.82.39-1.92-.29-2.6Zm-20.18,16.63c.39-.39,1.02-.39,1.41,0l.27.27c.39.39.39,1.02,0,1.41l-7.18,7.18-1.69-1.69,7.18-7.18Zm-8.47,15.08l-15.31,18.94c-3.9,4.61-9.19,2.48-10.43,1.88-.59-1.24-2.73-6.53,1.87-10.42l18.97-15.34s.09-.03.13,0l4.78,4.78s.04.09,0,.15Zm.65-2.33l-3.24-3.24,1.69-1.69,3.24,3.24-1.69,1.69ZM58.97,7.04l-9.83,16.91c-.19.33-.53.55-.9.59l-4.82.53c1.05-1.18,1.02-2.98-.11-4.11l-.27-.27c-1.13-1.13-2.93-1.16-4.11-.11l.53-4.81c.04-.37.26-.71.59-.9l16.94-9.85s.09-.02.12,0l1.86,1.86s.03.08,0,.15ZM8.42,51.06c-1.25,1.25-1.25,3.27,0,4.52.62.62,1.44.93,2.26.93s1.64-.31,2.26-.93c1.25-1.25,1.25-3.27,0-4.52-1.25-1.25-3.27-1.25-4.52,0Zm3.1,3.1c-.47.46-1.22.46-1.69,0-.47-.46-.47-1.22,0-1.69.23-.23.54-.35.84-.35s.61.12.84.35c.47.46.47,1.22,0,1.69Z"/></svg>