<?xml version="1.0" encoding="UTF-8"?><svg id="Line" xmlns="http://www.w3.org/2000/svg" viewBox="0 0 64 64"><path d="m54,11h-15v-2c0-1.1-.9-2-2-2h-2v-2c0-1.1-.9-2-2-2h-2c-1.1,0-2,.9-2,2v2h-2c-1.1,0-2,.9-2,2v2h-15c-1.65,0-3,1.35-3,3v28c0,1.65,1.35,3,3,3h8c0,1.1.9,2,2,2h.76l-2.74,12.79c-.12.54.23,1.07.77,1.19.54.12,1.07-.23,1.19-.77l2.83-13.21h1.95l-2.74,12.79c-.12.54.23,1.07.77,1.19.07.02.14.02.21.02.46,0,.88-.32.98-.79l2.83-13.21h2.19v13c0,.55.45,1,1,1s1-.45,1-1v-13h2v13c0,.55.45,1,1,1s1-.45,1-1v-13h2.19l2.83,13.21c.12.54.64.89,1.19.77.54-.12.88-.65.77-1.19l-2.74-12.79h1.95l2.83,13.21c.1.47.51.79.98.79.07,0,.14,0,.21-.02.54-.12.88-.65.77-1.19l-2.74-12.79h.76c1.1,0,2-.9,2-2h8c1.65,0,3-1.35,3-3V14c0-1.65-1.35-3-3-3Zm-13.49,25.63c-.27,1.97-.92,3.41-1.5,4.37h-4.65c1.51-1.23,2.69-2.6,3.52-4.09.83-1.48,1.07-2.94,1.12-3.91h1.36c.17.77.36,2.11.15,3.63Zm.17-5.63H10.1c2.07-2.2,6.81-6,14.9-6s13.27,3.77,15.67,6Zm2.8,0c-.48-.56-1.48-1.64-3.02-2.83,2.06-1.08,6.79-2.99,14.54-3.15v5.98h-11.53ZM31,5h2v2h-2v-2Zm-4,4h10v2h-10v-2Zm-17,4h44c.55,0,1,.45,1,1v9.02c-9.45.18-14.68,2.83-16.36,3.87-3.12-1.99-7.65-3.89-13.64-3.89-8.41,0-13.51,3.73-16,6.24v-15.24c0-.55.45-1,1-1Zm0,30c-.55,0-1-.45-1-1v-9h27.99c-.06.74-.25,1.83-.87,2.93-1.06,1.92-2.83,3.62-5.26,5.07h-10.87c-1.1,0-2,.9-2,2h-8Zm10,2v-2h24v2s-24,0-24,0Zm34-2h-8c0-1.1-.9-2-2-2h-2.74c.6-1.24,1.03-2.62,1.23-4.09.21-1.56.07-2.95-.1-3.91h12.61v9c0,.55-.45,1-1,1Zm-15-21c1.65,0,3-1.35,3-3s-1.35-3-3-3-3,1.35-3,3,1.35,3,3,3Zm0-4c.55,0,1,.45,1,1s-.45,1-1,1-1-.45-1-1,.45-1,1-1Z"/></svg>