<?xml version="1.0" encoding="UTF-8"?><svg id="Line" xmlns="http://www.w3.org/2000/svg" viewBox="0 0 64 64"><path d="m59,15h-9.75l-13.37-7.08c.07-.3.12-.6.12-.92,0-2.21-1.79-4-4-4s-4,1.79-4,4c0,.32.05.62.12.92l-13.37,7.08H5c-1.1,0-2,.9-2,2v42c0,1.1.9,2,2,2h54c1.1,0,2-.9,2-2V17c0-1.1-.9-2-2-2Zm-9.95,2c.13,1.43.54,2.78,1.16,4H13.79c.63-1.22,1.03-2.57,1.16-4h34.1Zm2.47,36H12.48c-.45-.54-.94-1.03-1.48-1.48v-27.04c.54-.45,1.03-.94,1.48-1.48h39.04c.45.54.94,1.03,1.48,1.48v27.04c-.54.45-1.03.94-1.48,1.48Zm-42.52-2.79c-1.22-.63-2.57-1.03-4-1.16v-22.1c1.43-.13,2.78-.54,4-1.16v24.43Zm41.21,4.79c-.63,1.22-1.03,2.57-1.16,4H14.95c-.13-1.43-.54-2.78-1.16-4h36.43Zm4.79-29.21c1.22.63,2.57,1.03,4,1.16v22.1c-1.43.13-2.78.54-4,1.16v-24.43Zm4-8.79v7.94c-4.17-.46-7.48-3.78-7.94-7.94h7.94Zm-27-12c1.1,0,2,.9,2,2s-.9,2-2,2-2-.9-2-2,.9-2,2-2Zm-2.94,4.69c.73.8,1.77,1.31,2.94,1.31s2.21-.51,2.94-1.31l10.03,5.31h-25.95l10.03-5.31Zm-24.06,7.31h7.94c-.46,4.17-3.78,7.48-7.94,7.94v-7.94Zm0,42v-7.94c4.17.46,7.48,3.78,7.94,7.94h-7.94Zm46.06,0c.46-4.17,3.78-7.48,7.94-7.94v7.94h-7.94ZM9,20c0,.55-.45,1-1,1s-1-.45-1-1,.45-1,1-1,1,.45,1,1Zm46,0c0-.55.45-1,1-1s1,.45,1,1-.45,1-1,1-1-.45-1-1ZM9,56c0,.55-.45,1-1,1s-1-.45-1-1,.45-1,1-1,1,.45,1,1Zm48,0c0,.55-.45,1-1,1s-1-.45-1-1,.45-1,1-1,1,.45,1,1Z"/></svg>