<?xml version="1.0" encoding="UTF-8"?><svg id="Line" xmlns="http://www.w3.org/2000/svg" viewBox="0 0 64 64"><path d="m57.83,40.59c-.87-2.73-2.9-4.87-5.59-5.88-.5-.19-.99-.39-1.45-.6-3.23-1.47-5.08-3.52-5.07-5.62,0-2.12,1.9-4.18,5.2-5.65.41-.18.84-.36,1.27-.52,1.79-.68,3.15-2.21,3.62-4.09.47-1.9,0-3.91-1.29-5.36-5.51-6.26-13.44-9.85-21.77-9.85s-15.69,3.34-21.16,9.17c-5.54,5.91-8.3,13.63-7.78,21.75.93,14.35,12.44,25.96,26.78,27,.7.05,1.4.08,2.1.08,9.55,0,18.62-4.73,24.03-12.68,1.55-2.27,1.96-5.09,1.12-7.73Zm-2.77,6.61c-5.49,8.06-14.58,12.45-24.33,11.73-13.35-.97-24.06-11.78-24.92-25.14-.49-7.56,2.09-14.75,7.24-20.25,5.09-5.43,12.27-8.54,19.7-8.54s15.14,3.34,20.27,9.17c.85.96,1.16,2.29.85,3.56-.32,1.27-1.18,2.26-2.38,2.71-.47.18-.93.37-1.38.57-4.04,1.81-6.37,4.53-6.38,7.47-.01,2.92,2.26,5.63,6.24,7.45.51.23,1.04.45,1.58.66,2.11.79,3.7,2.47,4.38,4.61.65,2.05.34,4.24-.86,6Zm-24.91-30.19c.3.21.64.29.96.29.59,0,1.15-.25,1.38-.36.19-.09.41-.1.6-.03,1.11.41,1.96.37,2.53-.11,1.24-1.03,1.83-2.6,1.57-4.2-.3-1.85-1.79-3.37-3.63-3.69-1.33-.23-2.68.12-3.7.98-1.02.86-1.61,2.11-1.61,3.45,0,1.46.71,2.83,1.9,3.67Zm.99-5.59c.46-.38,1.01-.58,1.6-.58.15,0,.31.01.46.04,1,.18,1.84,1.03,2,2.04.14.86-.16,1.7-.79,2.27-.09,0-.29-.03-.65-.16-.69-.25-1.43-.22-2.11.09-.24.11-.4.15-.48.17-.59-.47-.94-1.19-.94-1.95s.33-1.44.89-1.92Zm-11.59,11.88c.25,0,.51-.02.76-.07.68-.12,1.22-.69,1.61-1.71.08-.2.22-.36.4-.45,1.07-.5,1.65-1.13,1.71-1.87.15-1.6-.55-3.13-1.86-4.08-1.52-1.1-3.65-1.11-5.18-.04-1.11.78-1.81,1.98-1.92,3.31-.12,1.33.36,2.63,1.3,3.57.85.85,2,1.32,3.18,1.32Zm-1.42-6.57c.41-.29.91-.43,1.41-.43s1.03.15,1.45.46c.7.51,1.09,1.31,1.05,2.16-.07.06-.23.19-.57.35-.66.31-1.17.86-1.43,1.56-.09.25-.17.39-.22.46-.75.09-1.5-.18-2.04-.72-.52-.52-.79-1.25-.72-1.99.06-.75.45-1.4,1.08-1.85Zm-.38,17.86c.61-.85.1-1.97-.07-2.34-.09-.19-.1-.41-.03-.6.4-1.11.37-1.96-.11-2.53-1.03-1.24-2.61-1.83-4.2-1.57-1.85.3-3.37,1.79-3.69,3.63-.23,1.33.12,2.68.98,3.7.86,1.02,2.11,1.61,3.45,1.61,1.46,0,2.83-.71,3.67-1.9Zm-3.67-.1c-.74,0-1.44-.33-1.92-.89-.48-.58-.68-1.31-.54-2.07.18-1,1.03-1.84,2.04-2,.14-.02.28-.03.42-.03.71,0,1.38.29,1.85.82,0,.09-.03.29-.16.65-.25.68-.22,1.43.09,2.11.11.24.15.4.17.48-.47.59-1.19.94-1.95.94Zm9.2,8.33c-.2-.08-.36-.22-.45-.4-.5-1.07-1.13-1.65-1.87-1.71-1.61-.14-3.13.55-4.08,1.86-1.1,1.52-1.12,3.65-.04,5.18.78,1.11,1.98,1.81,3.31,1.92.13.01.26.02.39.02,1.19,0,2.33-.47,3.18-1.32,1.03-1.03,1.5-2.5,1.25-3.94-.12-.68-.69-1.22-1.71-1.61Zm-.96,4.13c-.52.52-1.25.79-1.99.72-.75-.06-1.4-.45-1.85-1.08-.58-.83-.57-2.03.02-2.86.48-.67,1.23-1.05,2.04-1.05.04,0,.08,0,.12,0,.06.07.19.23.35.57.31.66.86,1.17,1.56,1.43.25.09.39.17.46.22.08.75-.18,1.5-.72,2.04Zm14.03.03c-.85-.61-1.97-.1-2.34.07-.19.09-.41.1-.6.03-1.11-.4-1.96-.37-2.53.11-1.24,1.03-1.83,2.6-1.57,4.2.3,1.85,1.79,3.37,3.63,3.69.27.05.53.07.8.07,1.06,0,2.08-.37,2.9-1.05,1.02-.86,1.61-2.11,1.61-3.45,0-1.46-.71-2.83-1.9-3.67Zm-.99,5.59c-.58.48-1.31.68-2.07.54-1-.18-1.84-1.03-2-2.04-.14-.86.16-1.7.79-2.27.09,0,.29.03.65.16.69.25,1.43.22,2.11-.09.24-.11.4-.15.48-.17.59.47.94,1.19.94,1.95s-.33,1.44-.89,1.92Zm7.59-12.39c-2.21,2.21-2.21,5.8,0,8.01,1.1,1.1,2.56,1.66,4.01,1.66s2.9-.55,4.01-1.66c2.21-2.21,2.21-5.8,0-8.01-2.21-2.21-5.8-2.21-8.01,0Zm6.6,6.6c-1.43,1.43-3.76,1.43-5.19,0s-1.43-3.76,0-5.19c.71-.71,1.65-1.07,2.59-1.07s1.88.36,2.59,1.07c1.43,1.43,1.43,3.76,0,5.19Z"/></svg>