<?xml version="1.0" encoding="UTF-8"?><svg id="Line" xmlns="http://www.w3.org/2000/svg" viewBox="0 0 64 64"><path d="m58.55,21.53c-6.91-9.22-15.39-5.52-26.6.71-.84.46-1.65.82-2.45,1.1-.29-1.94-1.16-5.31-3.81-8.31-.65-.73-1.55-1.14-2.54-1.14-1.11,0-2.14.51-2.81,1.4-.99,1.31-.92,3.14.16,4.36,1.38,1.56,1.89,3.3,2.08,4.38-1.42-.15-2.8-.43-4.17-.72-4.54-.93-8.84-1.81-12.73,2.86-5.94,7.13-.37,14.3,1,15.87v5.04c0,1.65,1.35,3,3,3h43.01c1.65,0,3-1.35,3-3v-5.06c1.52-1.87,9.19-12.06,2.85-20.5Zm-36.61-5.03c.54-.71,1.68-.79,2.25-.14,2.44,2.77,3.16,5.88,3.36,7.52-.49.1-.97.16-1.45.21,0,0,0,0,0,0h-1.48c-.18-1.31-.77-3.67-2.62-5.75-.45-.51-.48-1.28-.06-1.83Zm-14.72,10.97c3.13-3.75,6.51-3.06,10.79-2.18,4.31.88,9.18,1.88,14.9-1.29,10.97-6.09,18.06-9.22,24.03-1.26,5.28,7.04-1.26,16.08-2.73,17.94H8.13c-1.23-1.38-5.83-7.29-.9-13.2Zm46.48,19.63c0,.55-.45,1-1,1H9.7c-.55,0-1-.45-1-1v-4.42h45.01v4.42Z"/></svg>