<?xml version="1.0" encoding="UTF-8"?><svg id="Line" xmlns="http://www.w3.org/2000/svg" viewBox="0 0 64 64"><path d="m58.72,3.6c-.16-.36-.52-.6-.92-.6-7.27,0-12.59,1.83-15.82,5.43-2.51,2.8-3.07,5.95-3.17,7.73-.43.05-.84.23-1.17.56l-3.08,3.08c-.38.38-.58.88-.58,1.41,0,.12.01.23.03.34-1.68.96-3.24,2.11-4.63,3.43-2.36,2.25-15.35,17.78-22.89,26.84-1.85,2.23-1.7,5.46.35,7.52,1.08,1.08,2.52,1.63,3.95,1.63,1.29,0,2.59-.44,3.63-1.34,3.27-2.81,7.6-6.38,11.78-9.84,6.86-5.67,13.34-11.02,15.09-12.92,1.3-1.41,2.44-2.96,3.41-4.62.11.02.23.03.35.03.53,0,1.04-.21,1.41-.59l3.08-3.08c.39-.39.58-.9.58-1.41,2.63-.74,4.97-2.63,6.29-5.14,1.46-2.79,1.47-5.91.03-8.79-2.03-4.05,2.05-8.57,2.09-8.62.27-.29.34-.72.18-1.08Zm-2.95,1.46c-1.3,2.04-2.88,5.6-1.11,9.13.39.79.64,1.6.76,2.41-.43-.34-.9-.81-1.41-1.32-1.59-1.59-3.58-.66-5.04.03-1.84.86-2.01.74-2.27.23-1.13-2.25-3.2-3.45-4.5-4.01.34-.6.76-1.21,1.29-1.8,2.54-2.81,6.66-4.39,12.27-4.69Zm-15.95,30.47c-1.67,1.8-8.39,7.36-14.9,12.74-4.19,3.46-8.52,7.04-11.81,9.86-1.41,1.21-3.55,1.13-4.87-.19-1.32-1.32-1.41-3.39-.22-4.82,6.04-7.27,20.35-24.42,22.73-26.67,1.32-1.25,2.79-2.34,4.38-3.24l7.93,7.93c-.92,1.58-2,3.06-3.24,4.39Zm5.23-5.23h0s0,0,0,0l-9.08-9.08,3.08-3.08,9.08,9.08-3.08,3.08Zm4.1-4.89l-8.35-8.35c-.01-.62.03-2.04.59-3.69,1.01.43,2.68,1.36,3.53,3.07,1.21,2.41,3.52,1.33,4.9.68,1.48-.69,2.24-.96,2.78-.42.96.96,1.82,1.81,2.8,2.21-.13.77-.37,1.52-.75,2.24-1.14,2.17-3.21,3.76-5.49,4.25Z"/></svg>