<?xml version="1.0" encoding="UTF-8"?><svg id="Line" xmlns="http://www.w3.org/2000/svg" viewBox="0 0 64 64"><path d="m51.81,3.5c-.21-.36-.61-.56-1.02-.49-12.99,1.98-17.44,7.75-18.96,11.19-.17-.2-.41-.33-.67-.36-.34-.03-.69.12-.9.4-5.8,7.78-2.71,13.43-1.65,14.96-.13.46-.25.93-.36,1.41h-9.1c-1.1,0-2,.9-2,2v3.33c0,1.1.9,2,2,2h.66v1.1c0,1.34-1,2.47-2.33,2.64l-2.26.28c-1.44.18-2.5,1.45-2.43,2.9l.71,13.53c.08,1.47,1.29,2.63,2.77,2.63h23.26c1.48,0,2.69-1.15,2.77-2.63l.71-13.53c.08-1.45-.99-2.72-2.43-2.9l-2.26-.28c-1.33-.17-2.33-1.3-2.33-2.64v-1.1h.66c1.1,0,2-.9,2-2v-3.33c0-1.1-.9-2-2-2h-6.36c.08-.32.16-.65.25-.96,10.79-4.61,13.63-11.14,13.75-11.42.13-.31.09-.66-.09-.94-.06-.09-.14-.17-.22-.24l.52-.24c.28-.13.49-.38.56-.68,1.12-4.68,6.59-11.43,6.64-11.5.26-.32.3-.77.09-1.13ZM15.47,43.92l2.26-.28c2.33-.29,4.08-2.28,4.08-4.62v-1.1h5.28c-.11,1.34-.18,2.72-.18,4.12v4.78h-12l-.11-2.09c-.02-.4.28-.76.68-.81Zm24.07,15.08h-23.26c-.41,0-.75-.32-.77-.73l-.5-9.45h25.8l-.5,9.45c-.02.41-.36.73-.77.73Zm-1.45-15.36l2.26.28c.4.05.7.41.68.81h0s-.11,2.09-.11,2.09h-12.01v-4.78c0-1.4.07-2.78.19-4.12h4.92v1.1c0,2.34,1.75,4.33,4.08,4.62Zm-1.42-7.72h-17.53v-3.33h17.53v3.33Zm6.58-20.74l-3.81,1.73c-.43.19-.66.66-.56,1.12.1.46.5.79.97.79h1.79c-1.28,1.89-4.28,5.36-10.29,8.26,3.92-10.96,11.21-15.9,11.29-15.95.46-.3.59-.92.28-1.39-.3-.46-.92-.59-1.38-.29-.34.23-8,5.38-12.12,17.09-.77-1.9-1.29-5.28,1.47-9.72l.25.53c.19.41.64.63,1.08.55.44-.08.78-.45.82-.9,0-.09.93-8.49,15.53-11.58-1.73,2.38-4.37,6.37-5.33,9.74Z"/></svg>