<?xml version="1.0" encoding="UTF-8"?><svg id="Line" xmlns="http://www.w3.org/2000/svg" viewBox="0 0 64 64"><path d="m38,5.05v-.05c0-1.1-.9-2-2-2h-8c-1.1,0-2,.9-2,2v.05C15.44,5.59,7,14.33,7,25.02v6.98c0,1.65,1.35,3,3,3h4v23c0,1.65,1.35,3,3,3h30c1.65,0,3-1.35,3-3v-23h4c1.65,0,3-1.35,3-3v-6.98c0-10.69-8.44-19.43-19-19.97Zm-10-.05h8v2s-8,0-8,0v-2Zm23,20v4h-9v-4h9Zm-11,12c0,1.1-.9,2-2,2s-2-.9-2-2v-2c0-2.21-1.79-4-4-4s-4,1.79-4,4v6c0,1.1-.9,2-2,2s-2-.9-2-2v-16h16v12Zm-18-8h-9v-4h9v4Zm26,29c0,.55-.45,1-1,1h-30c-.55,0-1-.45-1-1v-27h6v10c0,2.21,1.79,4,4,4s4-1.79,4-4v-6c0-1.1.9-2,2-2s2,.9,2,2v2c0,2.21,1.79,4,4,4s4-1.79,4-4v-6h6v27Zm7-26c0,.55-.45,1-1,1h-4v-2h1c1.1,0,2-.9,2-2v-4c0-1.1-.9-2-2-2H13c-1.1,0-2,.9-2,2v4c0,1.1.9,2,2,2h1v2h-4c-.55,0-1-.45-1-1v-6.98c0-9.59,7.54-17.44,17.01-17.97.03,1.08.91,1.95,1.99,1.95h8c1.08,0,1.97-.87,1.99-1.95,9.46.53,17.01,8.38,17.01,17.97v6.98Z"/></svg>