<?xml version="1.0" encoding="UTF-8"?><svg id="Outline" xmlns="http://www.w3.org/2000/svg" viewBox="0 0 64 64"><defs><style>.cls-1{stroke-width:0px;}</style></defs><path class="cls-1" d="m38.79,21.68c-.45-.3-1.05-.19-1.37.25l-4.39,6.15c-.33-.09-.67-.15-1.03-.15s-.69.06-1.02.15l-4.39-6.15c-.31-.44-.92-.55-1.37-.25-3.14,2.08-5.13,5.41-5.47,9.14-.05.52.32,1,.84,1.08l7.51,1.18c.2.7.56,1.33,1.07,1.83l-2.89,6.87c-.21.49.01,1.06.5,1.29,1.66.78,3.41,1.17,5.22,1.17,1.96,0,3.84-.46,5.6-1.36.47-.24.67-.82.46-1.3l-3.09-6.83c.44-.47.76-1.05.94-1.68l7.51-1.18c.52-.08.89-.55.84-1.08-.34-3.73-2.33-7.07-5.47-9.14Zm-4.72,10.32c0,1.14-.93,2.07-2.07,2.07s-2.07-.93-2.07-2.07.93-2.07,2.07-2.07,2.07.93,2.07,2.07Zm-8.52-8.09l3.67,5.14c-.56.53-.97,1.22-1.16,2l-6.19-.98c.44-2.43,1.74-4.61,3.68-6.16Zm2.97,17.72l2.41-5.73c.35.1.7.16,1.08.16.44,0,.86-.09,1.26-.22l2.56,5.66c-2.32.94-4.94.99-7.31.12Zm7.43-10.58c-.19-.78-.59-1.46-1.16-2l3.67-5.14c1.93,1.55,3.23,3.73,3.67,6.16l-6.19.98Zm21.25.96c0-1.9-1.38-3.47-3.19-3.79V10.65c1.81-.32,3.19-1.89,3.19-3.79,0-2.13-1.73-3.86-3.86-3.86l-42.67-.02c-2.13,0-3.86,1.73-3.86,3.86,0,1.9,1.38,3.47,3.19,3.79v17.56c-1.81.32-3.19,1.89-3.19,3.79s1.38,3.47,3.19,3.79v17.56c-1.81.32-3.19,1.89-3.19,3.79,0,2.13,1.73,3.86,3.86,3.86l42.67.02c2.13,0,3.86-1.73,3.86-3.86,0-1.9-1.38-3.47-3.19-3.79v-17.56c1.81-.32,3.19-1.89,3.19-3.79ZM12,53.28v-17.43h4.18c1.74,7.13,8.16,12.45,15.82,12.45s14.08-5.31,15.82-12.44h4.18v17.43H12ZM52,10.72v17.43h-4.18c-1.74-7.13-8.16-12.45-15.82-12.45s-14.08,5.31-15.82,12.44h-4.18V10.71h40Zm-5.7,21.28c0,7.88-6.41,14.3-14.3,14.3s-14.3-6.41-14.3-14.3,6.41-14.3,14.3-14.3,14.3,6.41,14.3,14.3Zm8.89,0c0,1.02-.83,1.86-1.86,1.86h-5.15c.07-.61.11-1.23.11-1.86s-.04-1.24-.11-1.85h5.15c1.02,0,1.86.83,1.86,1.86ZM8.81,6.85c0-1.02.83-1.86,1.86-1.86l42.67.02c1.02,0,1.86.83,1.86,1.86s-.83,1.86-1.86,1.86l-42.67-.02h0c-1.02,0-1.86-.83-1.86-1.86Zm0,25.14c0-1.02.83-1.86,1.86-1.86h5.15c-.07.61-.11,1.23-.11,1.86s.04,1.24.11,1.85h-5.15c-1.02,0-1.86-.84-1.86-1.86Zm46.38,25.16c0,1.02-.83,1.86-1.86,1.86l-42.67-.02h0c-1.02,0-1.86-.83-1.86-1.86s.83-1.86,1.86-1.86l42.67.02c1.02,0,1.86.83,1.86,1.86Z"/></svg>