<?xml version="1.0" encoding="UTF-8"?><svg id="Outline" xmlns="http://www.w3.org/2000/svg" viewBox="0 0 64 64"><defs><style>.cls-1{stroke-width:0px;}</style></defs><path class="cls-1" d="m54.52,47.32c-.86,2.85-3.54,4.85-6.52,4.85-2.02,0-3.88-.93-5.15-2.4l-.16.72c-.1.47-.52.78-.97.78-.07,0-.15,0-.22-.02-.54-.12-.88-.66-.76-1.19l.72-3.24c.12-.53.63-.87,1.17-.76l3.26.63c.54.1.9.63.79,1.17-.1.54-.63.9-1.17.79l-1.19-.23c.9,1.07,2.23,1.75,3.68,1.75,2.11,0,4-1.41,4.6-3.42.16-.53.71-.83,1.25-.67.53.16.83.72.67,1.25Zm-.01-7.84c-.54-.12-1.07.22-1.19.76l-.16.72c-1.27-1.47-3.13-2.4-5.15-2.4-2.98,0-5.66,1.99-6.52,4.85-.16.53.14,1.09.67,1.25.53.16,1.09-.14,1.25-.67.6-2.01,2.5-3.42,4.6-3.42,1.45,0,2.79.68,3.68,1.75l-1.19-.23c-.54-.1-1.07.25-1.17.79s.25,1.07.79,1.17l3.26.63c.06.01.13.02.19.02.46,0,.87-.32.97-.78l.72-3.24c.12-.54-.22-1.07-.76-1.19Zm6.5,5.88c0,7.17-5.83,13-13,13-5.44,0-10.11-3.37-12.04-8.13H8.14c-.1,0-.19-.01-.28-.04-.21-.06-5.25-1.65-4.83-10.5.05-1.11.96-1.97,2.07-1.97h1.29v-3.47c0-.37.2-.7.52-.88l3.19-1.73-3.05-1.12c-.39-.14-.66-.52-.66-.94V12.29c0-3.67,2.98-6.65,6.65-6.65h36.33c3.67,0,6.65,2.98,6.65,6.65v22.87c3.02,2.38,4.97,6.07,4.97,10.2ZM22.95,7.64l1.71,3.92h13.3l1.55-3.92h-16.55Zm-14.56,30.09h29.11c2.37-3.24,6.18-5.36,10.5-5.36,2.18,0,4.23.54,6.03,1.49V12.29c0-2.57-2.09-4.65-4.65-4.65h-7.72l-2.09,5.29c-.15.38-.52.63-.93.63h-14.64c-.4,0-.76-.24-.92-.6l-2.31-5.32h-7.73c-2.57,0-4.65,2.09-4.65,4.65v7.91l3.66,3.14,10.63-6.38c.47-.29,1.09-.13,1.37.34.28.47.13,1.09-.34,1.37l-3.71,2.22,6.06,5.72c.4.38.42,1.01.04,1.41-.2.21-.46.31-.73.31-.25,0-.49-.09-.69-.27l-6.47-6.1-5.77,3.46c-.16.1-.34.14-.51.14-.23,0-.46-.08-.65-.24l-2.91-2.49v6.04l4.47,1.64c.37.14.62.47.65.87.03.39-.17.76-.52.95l-4.6,2.51v2.88Zm27.91,2h-16.04l2.01,2.97h13.01c.22-1.04.57-2.04,1.03-2.97Zm-.97,8.51c-.21-.93-.33-1.89-.33-2.87,0-.22.02-.44.03-.67h-13.29c-.33,0-.64-.17-.83-.44l-3.06-4.53H5.1c-.38,6.61,2.58,8.24,3.22,8.51h27.01Zm23.67-2.87c0-6.07-4.93-11-11-11s-11,4.93-11,11,4.93,11,11,11,11-4.93,11-11Z"/></svg>