<?xml version="1.0" encoding="UTF-8"?><svg id="Outline" xmlns="http://www.w3.org/2000/svg" viewBox="0 0 64 64"><defs><style>.cls-1{stroke-width:0px;}</style></defs><path class="cls-1" d="m15.72,55.34h15.79s3.63,3.88,3.63,3.88c.19.21.46.32.73.32.12,0,.25-.02.37-.07.38-.15.63-.52.63-.93v-3.2s9.92,0,9.92,0h0c4.1,0,5.9-3.27,5.94-3.35l7.06-11.19c1.97-2.61.88-5.08.88-5.08l-7.46-16.09.79-3.01c.1-.4-.05-.82-.38-1.06-.33-.24-.78-.26-1.12-.04l-2.64,1.66-5-9.45c-2.19-3.47-5.91-3.26-6.01-3.25h-13.85c-2.93-.12-4.37,2.38-4.37,2.38l-8.39,12.65-5.77,1.95c-.39.13-.66.49-.68.9-.02.41.21.79.58.96l2.83,1.29-5.58,9.96c-1.62,3.56.33,6.46.59,6.82l7.25,11.07s1.46,2.73,4.24,2.88Zm43.12-18.86c.33,1.33.15,2.32-.55,3.03-.93.95-2.48,1.11-2.46,1.11h-6.95s-4.57-9.87-4.57-9.87l4.8.93c.06.01.13.02.19.02.45,0,.85-.3.97-.75l2.16-8.28,6.4,13.81Zm-22.58-.49c-.38-.15-.82-.05-1.1.25l-4.11,4.37h-13.5s5.09-9.87,5.09-9.87l3.4,1.55c.37.17.81.1,1.11-.19.29-.28.39-.72.23-1.1l-1.9-4.64,6.76-10.26,5.14,8.94-3.16,1.99c-.35.22-.53.63-.45,1.03.08.4.39.72.79.8l7.32,1.42,4.78,10.33h-9.8s0-3.7,0-3.7c0-.41-.25-.78-.63-.93Zm-7.27-29.51h9.95c.11,0,2.71-.12,4.21,2.25l5.47,10.34c.13.25.36.43.63.5.27.07.56.03.79-.12l1.41-.89-2.86,10.99-11.15-2.16,1.83-1.15c.45-.29.6-.88.33-1.34L29.21,6.79l-.21-.31Zm-1.5,1.34l3.65,6.35-6.56,9.96-2.8-6.83c-.2-.49-.75-.74-1.25-.57l-5.18,1.75,7.01-10.57s.81-1.42,2.49-1.42c1.87-.03,2.64,1.34,2.64,1.34ZM5.85,40.21c-.07-.09-1.59-2.2-.43-4.75l6.08-10.83c.14-.24.17-.53.08-.8-.09-.27-.28-.48-.54-.6l-1.52-.69,10.76-3.63,4.3,10.51-1.97-.9c-.48-.22-1.06-.02-1.3.45l-9.83,19.04s-.13.28-.17.53l-5.46-8.33Zm7.45,8.64l3.23-6.25h12.65s-4.16,4.43-4.16,4.43c-.36.38-.36.98,0,1.37l4.63,4.94h-13.83c-3.96-.65-2.51-4.48-2.51-4.48Zm22.58,4.48c-.55,0-1,.45-1,1v1.67s-7.77-8.28-7.77-8.28l7.77-8.27v2.16c0,.27.1.52.29.71.19.19.44.29.71.29h20.03s.18-.01.42-.05l-5.31,8.42c-.05.1-1.34,2.36-4.22,2.36h-10.93Z"/></svg>