<?xml version="1.0" encoding="UTF-8"?><svg id="Outline" xmlns="http://www.w3.org/2000/svg" viewBox="0 0 64 64"><defs><style>.cls-1{stroke-width:0px;}</style></defs><path class="cls-1" d="m58.16,54.62v-7.06c0-3.43-2.28-6.33-5.41-7.28.18-.38.29-.81.29-1.26,0-1.18-.71-2.2-1.72-2.66l1.68-5.7c.09-.3.03-.63-.16-.88-.19-.25-.49-.4-.8-.4h-2.11l.37-3.19h.96c1.61,0,2.92-1.31,2.92-2.92v-3.99c0-1.61-1.31-2.92-2.92-2.92h-.33l-4.12-10.91c-.58-1.48-1.99-2.44-3.58-2.44H14.47c-1.59,0-2.99.95-3.58,2.44l-4.14,10.9h-.33c-1.61,0-2.92,1.31-2.92,2.92v3.99c0,1.61,1.31,2.92,2.92,2.92h.96l3.61,31.15c.24,2.09,2.01,3.67,4.12,3.67h21.24s.01,0,.02,0h20.79c1.84,0,3.34-1.47,3.34-3.27,0-1.46-.98-2.7-2.34-3.12Zm-8.05-16.54c.51,0,.93.42.93.93s-.42.93-.93.93h-6.67c-.51,0-.93-.42-.93-.93s.42-.93.93-.93h6.67Zm-.79-2h-1.55v-2.02c0-.55-.45-1-1-1s-1,.45-1,1v2.02h-1.55l-1.39-4.71h7.88l-1.39,4.71ZM19.33,5h19.01v4.09c0,.46-.37.83-.83.83h-17.36c-.46,0-.83-.37-.83-.83v-4.09Zm-6.58,1.17c.28-.71.96-1.17,1.72-1.17h2.86v4.09c0,1.56,1.27,2.83,2.83,2.83h17.36c1.56,0,2.83-1.27,2.83-2.83v-4.09h2.88c.76,0,1.44.46,1.71,1.16l3.85,10.19H8.89l3.86-10.18Zm-7.25,17.09v-3.99c0-.51.41-.92.92-.92h43.81s0,0,0,0c0,0,0,0,0,0h1.02c.51,0,.92.41.92.92v3.99c0,.51-.41.92-.92.92H6.42c-.51,0-.92-.41-.92-.92Zm3.89,2.92h38.9l-.37,3.19h-6.43c-.32,0-.61.15-.8.4-.19.25-.25.58-.16.88l1.68,5.7c-1.01.47-1.71,1.48-1.71,2.66,0,.45.1.88.29,1.26-3.13.94-5.41,3.85-5.41,7.28v5.02H12.46l-3.06-26.4Zm3.59,30.92l-.29-2.52h22.69v.04c-1.35.42-2.34,1.66-2.34,3.12,0,.45.09.88.26,1.27H15.11c-1.09,0-2.01-.82-2.13-1.9Zm44.18,1.9h-20.79c-.74,0-1.34-.57-1.34-1.27s.6-1.27,1.34-1.27c.55,0,1-.45,1-1v-7.91c0-3.09,2.52-5.61,5.61-5.61h7.56c3.09,0,5.61,2.52,5.61,5.61v7.91c0,.55.45,1,1,1,.74,0,1.34.57,1.34,1.27s-.6,1.27-1.34,1.27Z"/></svg>