<?xml version="1.0" encoding="UTF-8"?><svg id="Outline" xmlns="http://www.w3.org/2000/svg" viewBox="0 0 64 64"><defs><style>.cls-1{stroke-width:0px;}</style></defs><path class="cls-1" d="m58.22,32.86c1.53-1.9,2.39-4.27,2.39-6.75,0-5.95-4.84-10.79-10.79-10.79-4.57,0-8.54,2.82-10.1,6.99-1.56-.86-3.34-1.33-5.2-1.33-.43,0-.86.03-1.28.08-1.26-.94-2.71-1.58-4.23-1.9v-3.89c0-.55-.45-1-1-1h-.43v-2.81h1.6c.17,2.31,1.61,6.02,6.25,6.61.04,0,.09,0,.13,0,.5,0,.93-.37.99-.87.07-.55-.32-1.05-.86-1.12-3.63-.46-4.35-3.4-4.49-4.63h1.34c.51,0,.92-.39.98-.88h3.67c.55,0,1-.45,1-1v-4.59c0-.55-.45-1-1-1h-3.65c-.01-.54-.45-.97-.99-.97H14.6c-2.48,0-4.49,2.01-4.49,4.49v2.96c0,.55.45,1,1,1h6.37v2.81h-.33c-.55,0-1,.45-1,1v3.88c-4.93,1.02-8.65,5.39-8.65,10.62v2.72h-1.03c-1,0-1.9.46-2.49,1.27-.59.81-.75,1.81-.44,2.76l6.69,20.58c.76,2.34,2.92,3.91,5.38,3.91h32c2.46,0,4.62-1.57,5.38-3.91l6.69-20.58c.31-.95.15-1.95-.44-2.76-.28-.38-.63-.67-1.02-.89Zm-15.6-4.52c.21.51.8.75,1.31.53.51-.21.75-.8.53-1.31-.69-1.62-1.74-3.01-3.04-4.09,1.14-3.66,4.5-6.16,8.39-6.16,4.85,0,8.79,3.95,8.79,8.79,0,2.41-1,4.71-2.75,6.37h-5.49c-.55,0-1,.45-1,1v6.87c0,1.05-.86,1.91-1.91,1.91h-.44c-1.05,0-1.91-.86-1.91-1.91v-1.3c0-1.04-.41-2.02-1.15-2.76-.74-.74-1.72-1.14-2.76-1.14h-.12c-2.15,0-3.9,1.76-3.9,3.91v4.9c0,1.05-.86,1.91-1.91,1.91h-.24c-1.05,0-1.91-.86-1.91-1.91v-10.49c0-.55-.45-1-1-1h-6.41v-.71c0-4.85,3.95-8.79,8.79-8.79,3.54,0,6.72,2.11,8.1,5.37Zm-6.44-19.78h-2.64v-2.59h2.64v2.59Zm-24.07-1.07c0-1.37,1.12-2.49,2.49-2.49h16.94v4.45H12.11v-1.96Zm7.37,3.96h6.1v2.81h-6.1v-2.81Zm-1.33,4.81h8.85v2.66c-.06,0-.13,0-.19,0h-8.47c-.07,0-.13,0-.19,0v-2.66Zm.19,4.65h8.47c1.31,0,2.56.29,3.72.83-2.16.86-3.97,2.4-5.18,4.36h-15.04c1.39-3.05,4.47-5.19,8.04-5.19Zm-8.84,8.84c0-.57.06-1.12.16-1.65h14.71c-.42,1.15-.65,2.38-.65,3.67v.71h-14.22v-2.72Zm41.59,26.72c-.49,1.51-1.89,2.53-3.48,2.53H15.61c-1.59,0-2.99-1.02-3.48-2.53l-.64-1.98h40.24l-.64,1.98Zm6.69-20.58l-5.4,16.61H10.84l-5.39-16.61c-.11-.33-.05-.68.15-.97.21-.28.52-.44.87-.44h24.67v9.49c0,2.15,1.75,3.91,3.91,3.91h.24c2.15,0,3.91-1.75,3.91-3.91v-4.9c0-1.05.86-1.91,1.91-1.91h.12s0,0,0,0c.5,0,.98.2,1.34.56.36.36.56.84.56,1.34v1.3c0,2.15,1.75,3.91,3.91,3.91h.44c2.15,0,3.91-1.75,3.91-3.91v-5.87h5.37c.35,0,.67.16.87.44.21.28.26.63.15.97Z"/></svg>