<?xml version="1.0" encoding="UTF-8"?><svg id="Outline" xmlns="http://www.w3.org/2000/svg" viewBox="0 0 64 64"><defs><style>.cls-1{stroke-width:0px;}</style></defs><path class="cls-1" d="m36.24,19.88c-.04-.55.38-1.02.92-1.06.09,0,9.02-.51,11.02,10.69.1.54-.26,1.06-.81,1.16-.06.01-.12.02-.18.02-.48,0-.9-.34-.98-.82-1.68-9.38-8.62-9.06-8.92-9.04-.56.04-1.03-.38-1.06-.93Zm23.53,27.15c0,7.17-5.83,13-13,13-3.73,0-7.08-1.59-9.46-4.11-2.78.99-5.58,1.09-8.14.28-.21-.07-.42-.15-.62-.23-.21.08-.41.17-.63.23-1.18.38-2.4.56-3.62.56-5.4,0-11.08-3.54-15.22-9.74-.25-.37-.22-.87.08-1.21l3.15-3.63-4.95.36c-.43.02-.83-.22-1-.61-.33-.78-.61-1.56-.85-2.31-3.57-11.16.67-22.53,9.46-25.34,3.05-.98,6.35-.78,9.53.44.37-1.6,1.15-3.39,2.23-5.08,2.8-4.38,6.54-6.64,8.72-5.25.63.4,1.07,1.08,1.26,1.94.43,1.95-.38,4.88-2.1,7.73,2.51-.6,5.06-.57,7.44.19,7.63,2.43,11.94,11.25,10.45,21.14,4.3,2.12,7.27,6.54,7.27,11.65ZM26.36,15.56c.73.38,1.45.8,2.15,1.3.92-.65,1.86-1.19,2.83-1.65.47-.56.92-1.16,1.33-1.8,1.83-2.86,2.37-5.41,2.09-6.66-.08-.34-.21-.57-.38-.69-.87-.55-3.62.98-5.96,4.65-1.06,1.66-1.79,3.39-2.05,4.85Zm9.61,38.71c-1.39-2.07-2.2-4.56-2.2-7.23,0-7.17,5.83-13,13-13,1.33,0,2.62.2,3.83.58,1.14-8.72-2.59-16.38-9.15-18.46-3.94-1.25-8.43-.25-12.32,2.75-.36.28-.86.28-1.22,0-3.9-2.99-8.39-3.98-12.33-2.72-5.13,1.64-8.46,6.71-9.18,12.88l3.01,2.18,7.86-5.62c.45-.32,1.07-.22,1.4.23.32.45.22,1.07-.23,1.4l-2.56,1.83,4.93,3.95c.43.35.5.98.15,1.41-.2.25-.49.37-.78.37-.22,0-.44-.07-.62-.22l-5.37-4.31-4.2,3.01c-.17.12-.38.19-.58.19s-.41-.06-.59-.19l-2.57-1.87c-.02,2.45.35,5.02,1.17,7.59.16.48.33.98.53,1.49l6.63-.48c.4-.02.78.19.97.55.18.36.13.8-.14,1.1l-4.22,4.88c4.55,6.43,10.83,9.47,16.15,7.76.21-.07.4-.15.6-.23l.26-.11c.24-.1.51-.1.75,0l.26.11c.19.08.39.16.59.23,1.97.63,4.05.61,6.2-.03Zm21.8-7.23c0-6.07-4.93-11-11-11s-11,4.93-11,11,4.93,11,11,11,11-4.93,11-11Zm-5.15.71c-.53-.16-1.09.14-1.25.67-.6,2.02-2.5,3.42-4.6,3.42-1.45,0-2.79-.68-3.68-1.75l1.19.23c.54.11,1.07-.25,1.17-.79.11-.54-.25-1.07-.79-1.17l-3.26-.63c-.53-.1-1.05.23-1.17.76l-.72,3.24c-.12.54.22,1.07.76,1.19.07.02.15.02.22.02.46,0,.87-.32.97-.78l.16-.72c1.27,1.47,3.13,2.4,5.15,2.4,2.98,0,5.66-1.99,6.52-4.85.16-.53-.14-1.09-.67-1.25Zm.66-6.59c-.54-.12-1.07.22-1.19.76l-.16.72c-1.27-1.47-3.13-2.4-5.15-2.4-2.98,0-5.66,1.99-6.52,4.85-.16.53.14,1.09.67,1.25.53.16,1.09-.14,1.25-.67.6-2.01,2.5-3.42,4.6-3.42,1.45,0,2.79.68,3.68,1.75l-1.19-.23c-.54-.1-1.07.25-1.17.79-.11.54.25,1.07.79,1.17l3.26.63c.06.01.13.02.19.02.46,0,.87-.32.97-.78l.72-3.24c.12-.54-.22-1.07-.76-1.19Z"/></svg>