<?xml version="1.0" encoding="UTF-8"?><svg id="Outline" xmlns="http://www.w3.org/2000/svg" viewBox="0 0 64 64"><defs><style>.cls-1{stroke-width:0px;}</style></defs><path class="cls-1" d="m23.49,48.05h3.14c1.8,0,3.26-1.46,3.26-3.26v-11.24c0-1.8-1.46-3.26-3.26-3.26h-3.14c-1.8,0-3.26,1.46-3.26,3.26v11.24c0,1.8,1.46,3.26,3.26,3.26Zm-1.26-14.5c0-.7.57-1.26,1.26-1.26h3.14c.7,0,1.26.57,1.26,1.26v11.24c0,.7-.57,1.26-1.26,1.26h-3.14c-.7,0-1.26-.57-1.26-1.26v-11.24Zm11.28,12.59l8.05-14.65c.27-.48.87-.66,1.36-.4.48.27.66.87.39,1.36l-8.05,14.65c-.18.33-.52.52-.88.52-.16,0-.33-.04-.48-.12-.48-.27-.66-.87-.39-1.36Zm1.24-9.59c1.64,0,2.98-1.34,2.98-2.98s-1.34-2.98-2.98-2.98-2.98,1.34-2.98,2.98,1.34,2.98,2.98,2.98Zm0-3.96c.54,0,.98.44.98.98s-.44.98-.98.98-.98-.44-.98-.98.44-.98.98-.98Zm4.71,11.33c0,1.64,1.34,2.98,2.98,2.98s2.98-1.34,2.98-2.98-1.34-2.98-2.98-2.98-2.98,1.34-2.98,2.98Zm3.96,0c0,.54-.44.98-.98.98s-.98-.44-.98-.98.44-.98.98-.98.98.44.98.98Zm11.01-27.58h-.33l-4.12-10.91c-.58-1.48-1.99-2.43-3.58-2.43h-28.76c-1.59,0-2.99.95-3.58,2.44l-4.14,10.9h-.33c-1.61,0-2.92,1.31-2.92,2.92v3.99c0,1.61,1.31,2.92,2.92,2.92h.96l3.61,31.15c.24,2.09,2.01,3.67,4.12,3.67h27.46c2.11,0,3.88-1.58,4.12-3.67l3.61-31.15h.96c1.61,0,2.92-1.31,2.92-2.92v-3.99c0-1.61-1.31-2.92-2.92-2.92ZM22.49,5h19.01v4.09c0,.46-.37.83-.83.83h-17.36c-.46,0-.83-.37-.83-.83v-4.09Zm-6.58,1.17c.28-.71.96-1.17,1.72-1.17h2.86v4.09c0,1.56,1.27,2.83,2.83,2.83h17.36c1.56,0,2.83-1.27,2.83-2.83v-4.09h2.88c.76,0,1.44.46,1.71,1.16l3.85,10.19H12.05l3.86-10.18Zm29.81,52.83h-27.46c-1.09,0-2.01-.82-2.13-1.9l-.29-2.52h32.31l-.29,2.52c-.13,1.08-1.04,1.9-2.13,1.9Zm2.66-6.42H15.61l-3.06-26.4h38.9l-3.06,26.4Zm6.96-29.32c0,.51-.41.92-.92.92H9.58c-.51,0-.92-.41-.92-.92v-3.99c0-.51.41-.92.92-.92h44.84c.51,0,.92.41.92.92v3.99Z"/></svg>