<?xml version="1.0" encoding="UTF-8"?><svg id="Outline" xmlns="http://www.w3.org/2000/svg" viewBox="0 0 64 64"><defs><style>.cls-1{stroke-width:0px;}</style></defs><path class="cls-1" d="m26.05,52.62v7.39c-.01.55-.46,1-1.01,1h0c-.55,0-1-.45-1-1v-7.39c.01-.55.46-1,1.01-1h0c.55,0,1,.45,1,1Zm34.14-11.05c-.55-.11-1.07.25-1.17.79l-3.17,16.15c-.03.29-.27.5-.55.5h-8.54c-.29,0-.52-.22-.57-.6l-3.16-16.05c-.11-.54-.63-.9-1.17-.79-.54.11-.89.63-.79,1.17l3.14,15.96c.13,1.31,1.22,2.31,2.54,2.31h8.54c1.32,0,2.41-.99,2.53-2.21l3.16-16.05c.11-.54-.25-1.07-.79-1.17Zm-6.84-3.54c2.01,0,3.64,1.63,3.64,3.64s-1.63,3.64-3.64,3.64-3.64-1.63-3.64-3.64,1.63-3.64,3.64-3.64Zm0,2c-.91,0-1.64.74-1.64,1.64s.74,1.64,1.64,1.64,1.64-.74,1.64-1.64-.74-1.64-1.64-1.64Zm.55,10.92c0,2.01-1.63,3.64-3.64,3.64s-3.64-1.63-3.64-3.64,1.63-3.64,3.64-3.64,3.64,1.63,3.64,3.64Zm-2,0c0-.91-.74-1.64-1.64-1.64s-1.64.74-1.64,1.64.74,1.64,1.64,1.64,1.64-.74,1.64-1.64Zm-16.46,9.05c0,.55-.45,1-1,1s-1-.45-1-1v-12.3s-16.8,0-16.8,0v12.3c0,.55-.45,1-1,1s-1-.45-1-1v-23.4s-3.28,7.25-3.28,7.25c-.49,1.07-1.36,1.88-2.46,2.29-1.1.41-2.29.37-3.35-.12-2.2-1.01-3.17-3.61-2.16-5.81l6.44-14.08c1.32-2.88,4.1-4.8,7.21-5.08-.41-1.03-.65-2.16-.65-3.34v-.65h-.27c-.55,0-1-.45-1-1v-4.04c0-4.96,4.04-9,9-9h1.75c4.96,0,9,4.04,9,9v4.04c0,.55-.45,1-1,1h-.27v.9c0,1.06-.2,2.08-.56,3.04,1.12.02,2.21.25,3.24.69l15.79,6.7c2.22.94,3.27,3.52,2.32,5.75-.46,1.08-1.31,1.91-2.39,2.35-1.08.44-2.28.43-3.35-.03l-13.21-5.6v29.16Zm-10.56-35.44c1.75.03,3.48-.64,4.75-1.89s1.98-2.93,1.98-4.72v-2.8c-2.32-.01-4.59-.61-6.61-1.74-2.02,1.13-4.29,1.73-6.61,1.74v2.55c0,3.72,2.91,6.79,6.49,6.86Zm-7.75-12.56v1.2c.09-.02.17-.05.27-.05h.94c2.17,0,4.3-.61,6.14-1.75.32-.2.73-.2,1.05,0,1.85,1.15,3.97,1.75,6.14,1.75h.94c.1,0,.18.03.27.05v-1.2c0-3.86-3.14-7-7-7h-1.75c-3.86,0-7,3.14-7,7Zm32.31,22.6c.59.25,1.24.25,1.82.02.59-.24,1.05-.69,1.3-1.28.51-1.21-.05-2.61-1.26-3.12l-15.79-6.7c-.84-.36-1.74-.54-2.65-.54h-.88c-.28.39-.59.76-.94,1.11-1.62,1.59-3.76,2.46-6.03,2.46-.05,0-.11,0-.16,0-2.74-.05-5.17-1.45-6.72-3.57h-.3c-2.65,0-5.08,1.56-6.18,3.97l-6.44,14.08c-.55,1.19-.02,2.61,1.17,3.16.58.26,1.23.29,1.82.07s1.07-.66,1.33-1.24l5.19-11.46c.19-.43.66-.67,1.12-.56.46.1.79.51.79.98v13.73h16.8v-16.36c0-.34.17-.65.45-.83.28-.18.63-.22.94-.09l14.6,6.2Z"/></svg>