<?xml version="1.0" encoding="UTF-8"?><svg id="Outline" xmlns="http://www.w3.org/2000/svg" viewBox="0 0 64 64"><defs><style>.cls-1{stroke-width:0px;}</style></defs><path class="cls-1" d="m59.99,40.33c-1.94,0-2.89-.87-3.99-1.88-1.23-1.13-2.62-2.4-5.34-2.4-.49,0-.92.05-1.33.13v-4.55c0-12.39-9.85-22.52-22.13-22.98v-2.77c0-1.58-1.29-2.87-2.87-2.87h-5.15c-1.55,0-2.81,1.23-2.86,2.77H4.02c-.55,0-1,.45-1,1s.45,1,1,1h12.28v20.52H4.02c-.55,0-1,.45-1,1s.45,1,1,1h12.29c.06,1.54,1.31,2.77,2.86,2.77h5.15c1.58,0,2.87-1.29,2.87-2.87v-2.62c2.08.14,3.74,1.86,3.74,3.97v4.59c-2.04.28-3.22,1.36-4.27,2.32-1.1,1.01-2.04,1.88-3.99,1.88s-2.89-.87-3.99-1.88c-1.23-1.12-2.62-2.4-5.34-2.4s-4.11,1.28-5.34,2.4c-1.1,1.01-2.05,1.88-3.99,1.88-.55,0-1,.45-1,1v18.67c0,.27.1.52.29.71s.44.29.71.29h55.98c.55,0,1-.45,1-1v-18.67c0-.55-.45-1-1-1Zm-34.8-10.14c0,.48-.39.87-.87.87h-5.15c-.48,0-.87-.39-.87-.87V5.87c0-.48.39-.87.87-.87h5.15c.48,0,.87.39.87.87v24.32Zm2-4.63v-14.89c11.18.46,20.13,9.67,20.13,20.96v5.27c-.79.45-1.42,1.02-2.01,1.56-1.1,1.01-2.05,1.88-3.99,1.88s-2.89-.87-3.99-1.88c-1.08-.99-2.29-2.09-4.41-2.35v-4.57c0-3.22-2.55-5.85-5.74-5.99Zm-17.84,14.37c1.1-1.01,2.05-1.88,3.99-1.88s2.89.87,3.99,1.88c1.23,1.12,2.62,2.4,5.34,2.4s4.11-1.28,5.34-2.4c1.1-1.01,2.05-1.88,3.99-1.88s2.89.87,3.99,1.88c1.23,1.12,2.62,2.4,5.34,2.4s4.11-1.28,5.34-2.4c1.1-1.01,2.05-1.88,3.99-1.88s2.89.87,3.99,1.88c1.07.98,2.26,2.07,4.34,2.34v8.46c-1.3-.25-2.1-.96-2.99-1.78-1.23-1.13-2.62-2.4-5.34-2.4s-4.11,1.28-5.34,2.4c-1.1,1.01-2.05,1.88-3.99,1.88s-2.89-.87-3.99-1.88c-1.23-1.12-2.62-2.4-5.34-2.4s-4.11,1.28-5.34,2.4c-1.1,1.01-2.05,1.88-3.99,1.88s-2.89-.87-3.99-1.88c-1.23-1.12-2.62-2.4-5.34-2.4s-4.11,1.28-5.34,2.4c-.89.82-1.69,1.53-2.99,1.78v-8.46c2.08-.27,3.27-1.36,4.34-2.34Zm-4.34,19.07v-6.24c2.08-.27,3.27-1.36,4.34-2.34,1.1-1.01,2.05-1.88,3.99-1.88s2.89.87,3.99,1.88c1.23,1.12,2.62,2.4,5.34,2.4s4.11-1.28,5.34-2.4c1.1-1.01,2.05-1.88,3.99-1.88s2.89.87,3.99,1.88c1.23,1.12,2.62,2.4,5.34,2.4s4.11-1.28,5.34-2.4c1.1-1.01,2.05-1.88,3.99-1.88s2.89.87,3.99,1.88c1.07.98,2.26,2.07,4.34,2.34v6.24H5.01ZM31.9,16c.09-.54.61-.91,1.14-.82.29.05,7.08,1.23,9.68,9.19.17.53-.12,1.09-.64,1.26-.1.03-.21.05-.31.05-.42,0-.81-.27-.95-.69-2.21-6.77-7.86-7.8-8.1-7.84-.54-.09-.91-.61-.82-1.15Z"/></svg>