<?xml version="1.0" encoding="UTF-8"?><svg id="Outline" xmlns="http://www.w3.org/2000/svg" viewBox="0 0 64 64"><defs><style>.cls-1{stroke-width:0px;}</style></defs><path class="cls-1" d="m38.86,40.49c2,0,3.62-1.62,3.62-3.62s-1.62-3.62-3.62-3.62h-4.24c-2,0-3.62,1.62-3.62,3.62s1.62,3.62,3.62,3.62h4.24Zm-5.86-3.62c0-.89.73-1.62,1.62-1.62h4.24c.89,0,1.62.73,1.62,1.62s-.73,1.62-1.62,1.62h-4.24c-.89,0-1.62-.73-1.62-1.62Zm23.42,14.33c-.15-.84-.42-1.65-.78-2.4,3.51-4.93,5.38-10.72,5.38-16.8,0-16-13.02-29.02-29.02-29.02-2.87,0-5.71.44-8.45,1.27-1.38-.79-2.98-1.25-4.66-1.25-4.58,0-8.5,3.35-9.31,7.78h-1.66c-2.71,0-4.92,2.21-4.92,4.92,0,1.86,1.05,3.47,2.59,4.3-1.73,3.78-2.61,7.81-2.61,12,0,16,13.02,29.02,29.02,29.02,1.45,0,2.92-.12,4.37-.34.55.21,1.15.34,1.77.34h17.94c2.71,0,4.92-2.21,4.92-4.92s-2.02-4.73-4.58-4.91Zm1.05-28.21v4.67c0,2.02-1.6,3.67-3.57,3.67s-3.57-1.65-3.57-3.67v-7.57c0-2.41-1.93-4.37-4.3-4.37s-4.3,1.96-4.3,4.37v2.39c0,1.42-1.12,2.58-2.5,2.58s-2.5-1.16-2.5-2.58V5.4c9.63,1.72,17.51,8.55,20.72,17.59ZM7.92,12.77h2.54c.52,0,.95-.4,1-.92.31-3.84,3.58-6.86,7.43-6.86s7.12,3.01,7.43,6.86c.04.52.48.92,1,.92h.54c1.61,0,2.92,1.31,2.92,2.92s-1.31,2.92-2.92,2.92H7.92c-1.61,0-2.92-1.31-2.92-2.92s1.31-2.92,2.92-2.92Zm-2.7,15.62h12.71c1.42,0,2.58,1.12,2.58,2.5s-1.16,2.5-2.58,2.5h-2.39c-2.41,0-4.37,1.93-4.37,4.3s1.96,4.3,4.37,4.3h7.23c2.02,0,3.67,1.6,3.67,3.57s-1.65,3.57-3.67,3.57h-11.68c-3.83-4.66-6.12-10.62-6.12-17.11,0-1.22.09-2.42.25-3.61Zm7.69,22.72h9.86c3.13,0,5.67-2.5,5.67-5.57s-2.54-5.57-5.67-5.57h-7.23c-1.31,0-2.37-1.03-2.37-2.3s1.06-2.3,2.37-2.3h2.39c2.52,0,4.58-2.02,4.58-4.5s-2.05-4.5-4.58-4.5H5.57c.42-2,1.08-3.94,1.96-5.82.13.01.26.04.39.04h19.94c2.71,0,4.92-2.21,4.92-4.92s-2.02-4.73-4.58-4.91c-.35-1.95-1.31-3.68-2.65-5.02,2.11-.52,4.27-.79,6.46-.79.93,0,1.85.05,2.75.14v17.36c0,2.52,2.02,4.58,4.5,4.58s4.5-2.05,4.5-4.58v-2.39c0-1.31,1.03-2.37,2.3-2.37s2.3,1.06,2.3,2.37v7.57c0,3.13,2.5,5.67,5.57,5.67,2.23,0,4.15-1.35,5.04-3.28.05.64.08,1.29.08,1.95,0,5.39-1.58,10.53-4.55,14.97-1.75-2.17-4.42-3.56-7.36-3.56-4.58,0-8.51,3.35-9.31,7.79-2.55.18-4.58,2.31-4.58,4.91,0,1.06.34,2.03.91,2.83-.72.06-1.43.09-2.14.09-7.44,0-14.2-3.03-19.09-7.91Zm43.17,7.91h-17.94c-1.61,0-2.92-1.31-2.92-2.92s1.31-2.92,2.92-2.92h.54c.52,0,.96-.4,1-.92.31-3.84,3.58-6.86,7.43-6.86s7.12,3.01,7.43,6.86c.04.52.48.92,1,.92h.54c1.61,0,2.92,1.31,2.92,2.92s-1.31,2.92-2.92,2.92Z"/></svg>