<?xml version="1.0" encoding="UTF-8"?><svg id="Outline" xmlns="http://www.w3.org/2000/svg" viewBox="0 0 64 64"><defs><style>.cls-1{stroke-width:0px;}</style></defs><path class="cls-1" d="m58.38,48.07c-.95-.33-1.64-.96-2.37-1.63-1.23-1.13-2.62-2.4-5.34-2.4-.26,0-.5.02-.74.04v-12.17c0-5.59-3.92-10.26-9.15-11.46.51-.69.81-1.53.81-2.45,0-1.86-1.24-3.42-2.93-3.95l2.9-9.85c.09-.3.03-.63-.16-.88-.19-.25-.49-.4-.8-.4h-17.18c-.32,0-.61.15-.8.4-.19.25-.25.58-.16.88l2.9,9.85c-1.69.52-2.93,2.08-2.93,3.94,0,.92.31,1.76.82,2.45-5.24,1.19-9.16,5.87-9.16,11.46v12.17c-.24-.02-.48-.04-.75-.04-2.72,0-4.11,1.28-5.34,2.4-.73.67-1.42,1.3-2.37,1.63-1.57.54-2.62,1.98-2.62,3.57v5.3c0,2.27,1.84,4.11,4.11,4.11h49.78c2.27,0,4.11-1.84,4.11-4.11v-5.3c0-1.6-1.05-3.03-2.62-3.57ZM39.25,4.94l-2.63,8.93h-3.62v-3.92c0-.55-.45-1-1-1s-1,.45-1,1v3.92h-3.62l-2.63-8.93h14.5Zm-12.68,10.93h10.86c1.18,0,2.15.96,2.15,2.15s-.96,2.15-2.15,2.15h-10.86c-1.18,0-2.15-.96-2.15-2.15s.96-2.15,2.15-2.15Zm-10.49,16.06c0-5.38,4.38-9.76,9.76-9.76h12.31c5.38,0,9.76,4.38,9.76,9.76v12.67c-1.08.48-1.87,1.19-2.59,1.85-1.1,1.01-2.05,1.88-3.99,1.88s-2.89-.87-3.99-1.88c-1.23-1.13-2.62-2.4-5.34-2.4s-4.11,1.28-5.34,2.4c-1.1,1.01-2.05,1.88-3.99,1.88s-2.89-.87-3.99-1.88c-.73-.67-1.52-1.38-2.6-1.85v-12.67Zm42.92,25.03c0,1.17-.95,2.11-2.11,2.11H7.11c-1.17,0-2.11-.95-2.11-2.11v-5.3c0-.75.5-1.42,1.28-1.68,1.34-.46,2.26-1.3,3.07-2.04,1.1-1.01,2.05-1.88,3.99-1.88s2.89.87,3.99,1.88c1.23,1.13,2.62,2.4,5.34,2.4s4.11-1.28,5.34-2.4c1.1-1.01,2.05-1.88,3.99-1.88s2.89.87,3.99,1.88c1.23,1.13,2.62,2.4,5.34,2.4s4.12-1.28,5.34-2.4c1.1-1.01,2.05-1.88,3.99-1.88s2.89.87,3.99,1.88c.81.74,1.73,1.58,3.07,2.04.77.27,1.28.93,1.28,1.68v5.3Zm-5.12-33.96c1.95-3.27.19-5.05.17-5.07-.39-.39-.4-1.02-.01-1.41.39-.39,1.02-.4,1.41-.01.12.12,2.89,2.92.16,7.5-.09.17-1,2,.8,3.42.44.34.51.97.17,1.4-.2.25-.49.38-.79.38-.21,0-.43-.07-.61-.21-2.57-2-1.98-4.8-1.31-5.99Zm-45.51.97c-2.71-4.55.06-7.35.18-7.47.39-.39,1.03-.38,1.41.01.38.39.38,1.02,0,1.41-.09.09-1.74,1.88.15,5.06.68,1.22,1.27,4.01-1.29,6.02-.18.14-.4.21-.61.21-.3,0-.59-.13-.79-.38-.34-.44-.26-1.06.17-1.4,1.81-1.41.9-3.24.79-3.45Zm38.51-12.08c1.91-3.21.24-5.01.16-5.08-.38-.39-.38-1.02,0-1.41.39-.39,1.01-.39,1.4,0,.12.12,2.89,2.92.16,7.5-.09.17-1,2.01.8,3.42.44.34.51.97.17,1.4-.2.25-.49.38-.79.38-.21,0-.43-.07-.61-.21-2.57-2-1.98-4.79-1.31-5.99Zm-31.51.97c-2.71-4.55.06-7.35.18-7.47.39-.39,1.03-.38,1.41.01.38.39.38,1.02,0,1.41-.09.09-1.74,1.88.15,5.06.68,1.22,1.27,4.02-1.29,6.02-.18.14-.4.21-.61.21-.3,0-.59-.13-.79-.38-.34-.44-.26-1.06.17-1.4,1.81-1.41.9-3.24.79-3.45Z"/></svg>