<?xml version="1.0" encoding="UTF-8"?><svg id="Flat" xmlns="http://www.w3.org/2000/svg" viewBox="0 0 64 64"><defs><style>.cls-1{fill:#85b9db;}.cls-1,.cls-2,.cls-3{stroke-width:0px;}.cls-2{fill:#536882;}.cls-3{fill:#b8c3d5;}</style></defs><path class="cls-2" d="m56,18.85v22.43c0,.43-.28.81-.68.95l-14.45,4.82c-1.84.61-3.77-.66-3.94-2.59l-.27-3.19c-.11-1.21-.66-2.28-1.5-3.04-.83-.77-1.94-1.23-3.15-1.23-2.42,0-4.44,1.85-4.65,4.27l-.27,3.19c-.17,1.93-2.1,3.2-3.94,2.59l-14.45-4.82c-.41-.14-.68-.52-.68-.95v-22.43c0-.49.35-.91.83-.99,6.58-1.06,14.39-1.86,23.17-1.86,6.63,0,14.46.45,23.15,1.86.49.08.85.5.85.99Z"/><path class="cls-1" d="m12,39.12v-17.69c6.62-.95,13.33-1.43,20-1.43s13.39.48,20,1.43v17.69l-11.2,3.73-.17-1.92c-.2-2.21-1.19-4.21-2.8-5.66-1.56-1.45-3.65-2.26-5.83-2.26-4.53,0-8.24,3.41-8.63,7.92l-.17,1.93-11.2-3.73Z"/><path class="cls-3" d="m56,22h3c.55,0,1,.45,1,1v14c0,.55-.45,1-1,1h-3v-16h0Z"/><path class="cls-3" d="m4,22h3c.55,0,1,.45,1,1v14c0,.55-.45,1-1,1h-3v-16h0Z" transform="translate(12 60) rotate(-180)"/></svg>