<?xml version="1.0" encoding="UTF-8"?><svg id="Flat" xmlns="http://www.w3.org/2000/svg" viewBox="0 0 64 64"><defs><style>.cls-1{fill:#85b9db;}.cls-1,.cls-2,.cls-3,.cls-4,.cls-5{stroke-width:0px;}.cls-2{fill:#536882;}.cls-3{fill:#d3dce5;}.cls-4{fill:#b8c3d5;}.cls-5{fill:#325068;}</style></defs><rect class="cls-2" x="30" y="14" width="4" height="9"/><path class="cls-2" d="m4.28,16.98c-.49,0-.92-.36-.99-.86-.08-.55.3-1.05.85-1.13l55.43-7.96c.55-.08,1.05.3,1.13.85.08.55-.3,1.05-.85,1.13L4.43,16.97s-.1.01-.14.01Z"/><rect class="cls-4" x="25" y="9" width="14" height="6" rx="1" ry="1" transform="translate(-1.38 4.67) rotate(-8.17)"/><path class="cls-4" d="m27,22h10c.55,0,1,.45,1,1v3h-12v-3c0-.55.45-1,1-1Z"/><path class="cls-2" d="m55,43c0,1.24-.03,2.57-.1,4-.15,3.37-.53,7.23-1.3,11.44-.17.91-.87,1.56-1.66,1.56H12.07c-.81,0-1.5-.65-1.67-1.58-.59-3.21-1.1-7.06-1.31-11.42-.06-1.29-.09-2.62-.09-4,0-3.35.19-7.42.84-12,.16-1.12.34-2.27.56-3.44.17-.91.87-1.56,1.66-1.56h39.87c.81,0,1.5.65,1.67,1.58.2,1.07.38,2.21.55,3.42.5,3.48.85,7.52.85,12Z"/><rect class="cls-1" x="24" y="31" width="16" height="15.7"/><rect class="cls-5" x="24" y="46.7" width="16" height="13.3"/><path class="cls-1" d="m55,43c0,1.24-.03,2.57-.1,4h-8.9v-16h8.15c.5,3.48.85,7.52.85,12Z"/><path class="cls-1" d="m18,31v16h-8.91c-.06-1.29-.09-2.62-.09-4,0-3.35.19-7.42.84-12h8.16Z"/><path class="cls-3" d="m30,52h-2c-.55,0-1-.45-1-1s.45-1,1-1h2c.55,0,1,.45,1,1s-.45,1-1,1Z"/></svg>