<?xml version="1.0" encoding="UTF-8"?><svg id="Flat" xmlns="http://www.w3.org/2000/svg" viewBox="0 0 64 64"><defs><style>.cls-1{fill:#78b24c;}.cls-1,.cls-2,.cls-3,.cls-4{stroke-width:0px;}.cls-2{fill:#50823f;}.cls-3{fill:#894c3d;}.cls-4{fill:#a26a55;}</style></defs><rect class="cls-3" x="43.55" y="36.92" width="5.48" height="18.27"/><path class="cls-2" d="m60,43.4c-1.79.34-5.78.81-9.96-1.35-.34-.17-.65-.34-.95-.53l-1.92,3.05c-.42.66-1.32.66-1.74,0l-1.92-3.05c-.3.18-.61.35-.95.53-4.19,2.16-8.17,1.69-9.96,1.35,2.36-1.81,5.7-4.84,8.72-9.45,2.68-4.09,4.15-7.99,4.99-10.8.83,2.81,2.31,6.71,4.99,10.8,3.02,4.62,6.36,7.65,8.72,9.45Z"/><path class="cls-2" d="m60,34.49c-1.79.34-5.78.81-9.96-1.35-.34-.17-.65-.34-.95-.53l-1.92,3.05c-.42.66-1.32.66-1.74,0l-1.92-3.05c-.3.18-.61.35-.95.53-4.19,2.16-8.17,1.69-9.96,1.35,2.36-1.81,5.7-4.84,8.72-9.45,2.68-4.09,4.15-7.99,4.99-10.8.83,2.81,2.31,6.71,4.99,10.8,3.02,4.62,6.36,7.65,8.72,9.45Z"/><path class="cls-2" d="m57.89,24.61c-2-1.45-4.83-3.87-7.38-7.57-2.26-3.27-3.51-6.4-4.22-8.65-.71,2.25-1.96,5.37-4.22,8.65-2.55,3.69-5.38,6.11-7.38,7.57,1.52.27,4.89.64,8.43-1.08,1.34-.65,2.39-1.45,3.16-2.16.78.71,1.82,1.51,3.16,2.16,3.54,1.72,6.92,1.35,8.43,1.08Z"/><rect class="cls-3" x="14.96" y="36.92" width="5.48" height="18.27" transform="translate(35.41 92.11) rotate(-180)"/><path class="cls-2" d="m4,43.4c1.79.34,5.78.81,9.96-1.35.34-.17.65-.34.95-.53l1.92,3.05c.42.66,1.32.66,1.74,0l1.92-3.05c.3.18.61.35.95.53,4.19,2.16,8.17,1.69,9.96,1.35-2.36-1.81-5.7-4.84-8.72-9.45-2.68-4.09-4.15-7.99-4.99-10.8-.83,2.81-2.31,6.71-4.99,10.8-3.02,4.62-6.36,7.65-8.72,9.45Z"/><path class="cls-2" d="m4,34.49c1.79.34,5.78.81,9.96-1.35.34-.17.65-.34.95-.53l1.92,3.05c.42.66,1.32.66,1.74,0l1.92-3.05c.3.18.61.35.95.53,4.19,2.16,8.17,1.69,9.96,1.35-2.36-1.81-5.7-4.84-8.72-9.45-2.68-4.09-4.15-7.99-4.99-10.8-.83,2.81-2.31,6.71-4.99,10.8-3.02,4.62-6.36,7.65-8.72,9.45Z"/><path class="cls-2" d="m6.11,24.61c2-1.45,4.83-3.87,7.38-7.57,2.26-3.27,3.51-6.4,4.22-8.65.71,2.25,1.96,5.37,4.22,8.65,2.55,3.69,5.38,6.11,7.38,7.57-1.52.27-4.89.64-8.43-1.08-1.34-.65-2.39-1.45-3.16-2.16-.78.71-1.82,1.51-3.16,2.16-3.54,1.72-6.92,1.35-8.43,1.08Z"/><polygon class="cls-4" points="35.28 60 32 60 28.72 60 28.72 38.13 35.28 38.13 35.28 60"/><path class="cls-1" d="m48.4,45.89c-2.14.41-6.91.97-11.92-1.61-.4-.21-.78-.41-1.14-.63l-2.3,3.65c-.5.79-1.58.79-2.08,0l-2.3-3.65c-.35.22-.73.42-1.14.63-5.01,2.59-9.78,2.03-11.92,1.61,2.83-2.16,6.83-5.79,10.43-11.32,3.2-4.9,4.97-9.56,5.97-12.93,1,3.37,2.76,8.03,5.97,12.93,3.61,5.53,7.61,9.15,10.43,11.32Z"/><path class="cls-1" d="m48.4,35.23c-2.14.41-6.91.97-11.92-1.61-.4-.21-.78-.41-1.14-.63l-2.3,3.65c-.5.79-1.58.79-2.08,0l-2.3-3.65c-.35.22-.73.42-1.14.63-5.01,2.59-9.78,2.03-11.92,1.61,2.83-2.16,6.83-5.79,10.43-11.32,3.2-4.9,4.97-9.56,5.97-12.93,1,3.37,2.76,8.03,5.97,12.93,3.61,5.53,7.61,9.15,10.43,11.32Z"/><path class="cls-1" d="m45.88,23.4c-2.39-1.74-5.78-4.63-8.83-9.05-2.71-3.92-4.2-7.65-5.05-10.35-.85,2.69-2.34,6.43-5.05,10.35-3.06,4.42-6.44,7.32-8.83,9.05,1.82.33,5.85.77,10.09-1.29,1.61-.78,2.86-1.74,3.79-2.59.93.85,2.18,1.81,3.79,2.59,4.24,2.06,8.28,1.62,10.09,1.29Z"/></svg>