<?xml version="1.0" encoding="UTF-8"?><svg id="Flat" xmlns="http://www.w3.org/2000/svg" viewBox="0 0 64 64"><defs><style>.cls-1{fill:#894c3d;}.cls-1,.cls-2,.cls-3,.cls-4,.cls-5{stroke-width:0px;}.cls-2{fill:#702e24;}.cls-3{fill:#e26677;}.cls-4{fill:#a26a55;}.cls-5{fill:#edae65;}</style></defs><rect class="cls-5" x="4" y="4" width="56" height="6" rx="1" ry="1"/><rect class="cls-5" x="4" y="54" width="56" height="6" rx="1" ry="1"/><polygon class="cls-4" points="54.75 16 9.25 16 6 10 58 10 54.75 16"/><rect class="cls-1" x="9" y="16" width="46" height="38"/><path class="cls-2" d="m21,24h22c2.21,0,4,1.79,4,4v26h-30v-26c0-2.21,1.79-4,4-4Z"/><path class="cls-3" d="m35.42,53.45c-3.28,1.15-7.36.5-9.66-2.11-1.24-1.4-1.89-2.83-1.37-6.2,1.02-6.6-.52-7.62-.52-7.62,0,0,2.91.75,4.54,4.98,0,0,.39-2.1.33-4.76s1.33-6.95,4.12-8.2c0,0-1.02,4.79.63,6.3,2.4,2.19,3.11,4.55,2.92,6.45,0,0,1.75-1.79,1.8-4.17,0,0,5.81,12.3-2.79,15.32Z"/><path class="cls-5" d="m33.97,52.06c-1.89.66-4.23.29-5.55-1.21-.71-.81-1.09-1.63-.79-3.57.58-3.79-.3-4.38-.3-4.38,0,0,1.67.43,2.61,2.86,0,0,.23-1.21.19-2.74s.77-3.99,2.37-4.71c0,0-.59,2.75.36,3.62,1.38,1.26,1.79,2.61,1.68,3.71,0,0,1.01-1.03,1.04-2.4,0,0,3.34,7.07-1.6,8.81Z"/></svg>