<?xml version="1.0" encoding="UTF-8"?><svg id="Flat" xmlns="http://www.w3.org/2000/svg" viewBox="0 0 64 64"><defs><style>.cls-1{fill:#759dd1;}.cls-1,.cls-2,.cls-3,.cls-4{stroke-width:0px;}.cls-2{fill:#85b9db;}.cls-3{fill:#6581c6;}.cls-4{fill:#fff;}</style></defs><path class="cls-4" d="m38.24,11c0,.54-.54,1-.68,1.49s.1,1.18-.16,1.63-.96.58-1.33.95-.5,1.07-.95,1.33-1.12.02-1.63.16-.95.67-1.49.67-1-.54-1.49-.68-1.18.1-1.63-.16-.58-.96-.95-1.33-1.07-.5-1.33-.95-.02-1.12-.16-1.63-.67-.95-.67-1.49.54-1,.68-1.49-.1-1.18.16-1.63.96-.58,1.33-.95.5-1.07.95-1.33,1.12-.02,1.63-.16.95-.67,1.49-.67,1,.54,1.49.68,1.18-.1,1.63.16.58.96.95,1.33,1.07.5,1.33.95.02,1.12.16,1.63.67.95.67,1.49Z"/><path class="cls-2" d="m38.24,11c0,.54-.54,1-.68,1.49s.1,1.18-.16,1.63-.96.58-1.33.95-.5,1.07-.95,1.33-1.12.02-1.63.16-.95.67-1.49.67-1-.54-1.49-.68-1.18.1-1.63-.16-.58-.96-.95-1.33-1.07-.5-1.33-.95-.02-1.12-.16-1.63-.67-.95-.67-1.49.54-1,.68-1.49-.1-1.18.16-1.63.96-.58,1.33-.95.5-1.07.95-1.33,1.12-.02,1.63-.16.95-.67,1.49-.67,1,.54,1.49.68,1.18-.1,1.63.16.58.96.95,1.33,1.07.5,1.33.95.02,1.12.16,1.63.67.95.67,1.49Z"/><path class="cls-1" d="m57.93,49H6.07c-.19-2.78-.39-17.15,5.4-25.41,3.33-4.75,7.5-7.85,11.25-9.85,1.12-.6,2.28-1.08,3.47-1.44,1.09-.35,2.21-.59,3.34-.73.49-.07.98-.11,1.47-.13.67-.04,1.33-.04,2,0,.49.02.98.06,1.47.13,1.13.14,2.25.38,3.34.73,1.19.36,2.35.84,3.47,1.44,3.75,2,7.92,5.1,11.25,9.85,5.79,8.26,5.59,22.63,5.4,25.41Z"/><path class="cls-3" d="m49.95,49v.04c-.02.54-.46.96-.99.96h-.05c-.54-.03-.96-.47-.95-1v-.04c.19-4.42-.04-17.51-3.45-24.95-1.8-3.93-4.18-7.13-7.07-9.5-3.41-2.78-7.47-2.78-10.88,0-2.89,2.37-5.27,5.57-7.07,9.5-3.41,7.44-3.64,20.53-3.45,24.95v.04c.01.53-.41.97-.95,1-.55.01-1.02-.4-1.04-.96v-.04c-.21-4.59.05-18.04,3.62-25.83,1.93-4.2,4.49-7.64,7.63-10.21.29-.24.59-.46.89-.66,1.09-.35,2.21-.59,3.34-.73,1.64-.21,3.3-.21,4.94,0,1.13.14,2.25.38,3.34.73.3.2.6.42.89.66,3.14,2.57,5.7,6.01,7.63,10.21,3.57,7.79,3.83,21.24,3.62,25.83Z"/><path class="cls-3" d="m40.98,49v.02c-.01.55-.46.98-1,.98h-.02c-.54-.01-.98-.46-.98-1v-.02c.09-4.45-.02-17.66-1.64-25.18-.86-3.97-1.98-7.18-3.35-9.56-.67-1.16-1.39-1.82-1.99-1.82s-1.32.66-1.99,1.82c-1.37,2.38-2.49,5.59-3.35,9.56-1.62,7.52-1.73,20.73-1.64,25.18v.02c0,.54-.44.99-.98,1-.53,0-1.01-.43-1.02-.98v-.02c-.09-4.54.02-17.92,1.69-25.62.89-4.17,2.1-7.58,3.57-10.14.42-.72.84-1.27,1.25-1.67,1.64-.21,3.3-.21,4.94,0,.41.4.83.95,1.25,1.67,1.47,2.56,2.68,5.97,3.57,10.14,1.67,7.7,1.78,21.09,1.69,25.62Z"/><path class="cls-3" d="m33,11.44v37.56c0,.55-.45,1-1,1s-1-.45-1-1V11.44c.67-.04,1.33-.04,2,0Z"/><rect class="cls-2" x="4" y="49" width="56" height="10" rx="2" ry="2"/><path class="cls-1" d="m12,49v5c0,.55-.45,1-1,1s-1-.45-1-1v-5h2Z"/><path class="cls-1" d="m18,49v5c0,.55-.45,1-1,1s-1-.45-1-1v-5h2Z"/><path class="cls-1" d="m24,49v5c0,.55-.45,1-1,1s-1-.45-1-1v-5h2Z"/><path class="cls-1" d="m30,49v5c0,.55-.45,1-1,1s-1-.45-1-1v-5h2Z"/><path class="cls-1" d="m36,49v5c0,.55-.45,1-1,1s-1-.45-1-1v-5h2Z"/><path class="cls-1" d="m42,49v5c0,.55-.45,1-1,1s-1-.45-1-1v-5h2Z"/><path class="cls-1" d="m48,49v5c0,.55-.45,1-1,1s-1-.45-1-1v-5h2Z"/><path class="cls-1" d="m54,49v5c0,.55-.45,1-1,1s-1-.45-1-1v-5h2Z"/></svg>