<?xml version="1.0" encoding="UTF-8"?><svg id="Flat" xmlns="http://www.w3.org/2000/svg" viewBox="0 0 64 64"><defs><style>.cls-1{fill:#894c3d;}.cls-1,.cls-2,.cls-3{stroke-width:0px;}.cls-2{fill:#d3dce5;}.cls-3{fill:#a26a55;}</style></defs><rect class="cls-3" x="14" y="21" width="36" height="6" rx="1" ry="1"/><path class="cls-1" d="m47,21h-30l1.36-4.63c.24-.82.91-1.37,1.67-1.37h23.93c.76,0,1.43.55,1.67,1.37l1.36,4.63Z"/><path class="cls-2" d="m42.47,60h-20.93c-.97,0-1.79-.79-1.87-1.83l-2.67-31.17h30l-2.67,31.17c-.08,1.03-.89,1.83-1.87,1.83Z"/><polygon class="cls-3" points="46.32 35 45.13 49 18.87 49 17.68 35 46.32 35"/><path class="cls-2" d="m23.68,11.17c-.18,0-.37-.05-.54-.16-.47-.3-.6-.91-.31-1.38l.74-1.17c.11-.18.06-.42-.12-.53-.54-.34-.91-.87-1.05-1.49-.14-.62-.03-1.26.31-1.8l.74-1.17c.3-.47.91-.6,1.38-.31.47.3.6.91.31,1.38l-.74,1.17c-.07.12-.06.23-.05.29.01.06.05.17.17.24,1.11.71,1.44,2.18.74,3.29l-.74,1.17c-.19.3-.51.46-.85.46Z"/><path class="cls-2" d="m31.68,11.17c-.18,0-.37-.05-.54-.16-.47-.3-.6-.91-.31-1.38l.74-1.17c.11-.18.06-.42-.12-.53-.54-.34-.91-.87-1.05-1.49-.14-.62-.03-1.26.31-1.8l.74-1.17c.3-.47.91-.6,1.38-.31.47.3.6.91.31,1.38l-.74,1.17c-.07.12-.06.23-.05.29.01.06.05.17.17.24,1.11.71,1.44,2.18.74,3.29l-.74,1.17c-.19.3-.51.46-.85.46Z"/><path class="cls-2" d="m39.68,11.17c-.18,0-.37-.05-.54-.16-.47-.3-.6-.91-.31-1.38l.74-1.17c.11-.18.06-.42-.12-.53-.54-.34-.91-.87-1.05-1.49-.14-.62-.03-1.26.31-1.8l.74-1.17c.3-.47.91-.6,1.38-.31.47.3.6.91.31,1.38l-.74,1.17c-.07.12-.06.23-.05.29.01.06.05.17.17.24,1.11.71,1.44,2.18.74,3.29l-.74,1.17c-.19.3-.51.46-.85.46Z"/><circle class="cls-1" cx="32" cy="42" r="3"/></svg>