<?xml version="1.0" encoding="UTF-8"?><svg id="Flat" xmlns="http://www.w3.org/2000/svg" viewBox="0 0 64 64"><defs><style>.cls-1{fill:#50823f;}.cls-1,.cls-2,.cls-3,.cls-4,.cls-5{stroke-width:0px;}.cls-2{fill:#894c3d;}.cls-3{fill:#85b9db;}.cls-4{fill:#d3dce5;}.cls-5{fill:#a26a55;}</style></defs><rect class="cls-2" x="10" y="56" width="44" height="4" rx="1" ry="1"/><circle class="cls-3" cx="32" cy="28" r="24"/><polyline class="cls-5" points="33.87 42.64 33.87 32.72 33.87 29.5 30.13 29.5 30.13 32.72 30.13 42.18"/><path class="cls-4" d="m53.57,38.52c-3.69,7.56-11.26,12.95-20.26,13.44-8.19.45-15.65-3.26-20.31-9.3,0,0,6-4.66,16-1.66s16.15-3.95,24.57-2.48Z"/><polygon class="cls-5" points="51 56 13 56 16.17 46 47.83 46 51 56"/><path class="cls-1" d="m41.37,33.94c-1.23.23-3.95.56-6.81-.92-.23-.12-.45-.23-.65-.36l-1.32,2.08c-.29.45-.9.45-1.19,0l-1.32-2.08c-.2.13-.42.24-.65.36-2.86,1.48-5.59,1.16-6.81.92,1.62-1.24,3.9-3.31,5.96-6.47,1.83-2.8,2.84-5.47,3.41-7.39.57,1.92,1.58,4.59,3.41,7.39,2.06,3.16,4.35,5.23,5.96,6.47Z"/><path class="cls-1" d="m41.37,27.84c-1.23.23-3.95.56-6.81-.92-.23-.12-.45-.23-.65-.36l-1.32,2.08c-.29.45-.9.45-1.19,0l-1.32-2.08c-.2.13-.42.24-.65.36-2.86,1.48-5.59,1.16-6.81.92,1.62-1.24,3.9-3.31,5.96-6.47,1.83-2.8,2.84-5.47,3.41-7.39.57,1.92,1.58,4.59,3.41,7.39,2.06,3.16,4.35,5.23,5.96,6.47Z"/><path class="cls-1" d="m39.93,21.09c-1.37-.99-3.3-2.65-5.05-5.17-1.55-2.24-2.4-4.37-2.88-5.91-.48,1.54-1.34,3.68-2.88,5.91-1.75,2.53-3.68,4.18-5.05,5.17,1.04.19,3.34.44,5.77-.74.92-.45,1.63-.99,2.16-1.48.53.49,1.24,1.03,2.16,1.48,2.42,1.18,4.73.93,5.77.74Z"/><circle class="cls-4" cx="16" cy="26" r="2"/><circle class="cls-4" cx="23" cy="13" r="2"/><circle class="cls-4" cx="49" cy="26" r="2"/><circle class="cls-4" cx="44" cy="15" r="2"/></svg>