<?xml version="1.0" encoding="UTF-8"?><svg id="Flat" xmlns="http://www.w3.org/2000/svg" viewBox="0 0 64 64"><defs><style>.cls-1{fill:#536882;}.cls-1,.cls-2,.cls-3,.cls-4,.cls-5,.cls-6{stroke-width:0px;}.cls-2{fill:#e26677;}.cls-3{fill:#d3dce5;}.cls-4{fill:#b8c3d5;}.cls-5{fill:#6581c6;}.cls-6{fill:#edae65;}</style></defs><path class="cls-1" d="m28.01,61c-1.32,0-2.6-.52-3.54-1.46-.94-.94-1.46-2.2-1.46-3.54v-2.8c0-.55.45-1,1-1s1,.45,1,1v2.8c0,.79.32,1.57.88,2.12.7.7,1.72,1.01,2.72.82,1.26-.24,2.4-1.73,2.4-3.11V12.2c0-.55.45-1,1-1s1,.45,1,1v43.63c0,2.37-1.8,4.65-4.02,5.08-.32.06-.65.09-.97.09Z"/><path class="cls-2" d="m32,16.8c-1.79,1.4-4.68,4.03-6.86,8.23-2.94,5.68-2.91,10.99-2.74,13.37-.81-.61-3.41-2.4-7.2-2.4-1.01,0-4.17.13-7.2,2.4.59-6.68,3.06-10.44,5.15-12.97,7.13-8.63,18.85-8.63,18.85-8.63Z"/><path class="cls-6" d="m41.6,38.4c-1.6-.85-5.01-2.4-9.6-2.4-1.81,0-5.55.24-9.6,2.4-.17-2.38-.2-7.69,2.74-13.37,2.18-4.2,5.07-6.83,6.86-8.23,1.79,1.4,4.68,4.03,6.86,8.23,2.94,5.68,2.91,10.99,2.74,13.37Z"/><path class="cls-5" d="m56,38.4c-.81-.61-3.41-2.4-7.2-2.4-1.01,0-4.17.13-7.2,2.4.17-2.38.2-7.69-2.74-13.37-2.18-4.2-5.07-6.83-6.86-8.23,0,0,21.6,0,24,21.6Z"/><circle class="cls-3" cx="8" cy="17" r="2"/><circle class="cls-3" cx="19" cy="12" r="2"/><path class="cls-4" d="m19,6.97c-.55,0-1-.45-1-1v-1.97c0-.55.45-1,1-1s1,.45,1,1v1.97c0,.55-.45,1-1,1Z"/><path class="cls-4" d="m8,11.97c-.55,0-1-.45-1-1v-2.97c0-.55.45-1,1-1s1,.45,1,1v2.97c0,.55-.45,1-1,1Z"/><circle class="cls-3" cx="56" cy="17" r="2"/><circle class="cls-3" cx="45" cy="12" r="2"/><path class="cls-4" d="m45,6.97c-.55,0-1-.45-1-1v-1.97c0-.55.45-1,1-1s1,.45,1,1v1.97c0,.55-.45,1-1,1Z"/><path class="cls-4" d="m56,11.97c-.55,0-1-.45-1-1v-3.97c0-.55.45-1,1-1s1,.45,1,1v3.97c0,.55-.45,1-1,1Z"/></svg>