<?xml version="1.0" encoding="UTF-8"?><svg id="Flat" xmlns="http://www.w3.org/2000/svg" viewBox="0 0 64 64"><defs><style>.cls-1{fill:#759dd1;}.cls-1,.cls-2,.cls-3,.cls-4,.cls-5{stroke-width:0px;}.cls-2{fill:#5064aa;}.cls-3{fill:#85b9db;}.cls-4{fill:#d3dce5;}.cls-5{fill:#6581c6;}</style></defs><path class="cls-3" d="m60,34v18H4v-18c0-1.71.15-3.38.45-5,.12-.67.26-1.34.43-2,.55-2.1,1.33-4.11,2.32-6,.36-.68.74-1.35,1.17-2,4.95-7.81,13.69-13,23.63-13,7.73,0,14.73,3.14,19.8,8.2,1.45,1.45,2.74,3.06,3.83,4.8.43.65.81,1.32,1.17,2,.99,1.89,1.77,3.9,2.32,6,.17.66.31,1.33.43,2,.3,1.62.45,3.29.45,5Z"/><path class="cls-1" d="m60,37v-2h-9v-6h8.55c-.12-.67-.26-1.34-.43-2h-6.12v-6h3.8c-.36-.68-.74-1.35-1.17-2H8.37c-.43.65-.81,1.32-1.17,2h3.8v6h-6.12c-.17.66-.31,1.33-.43,2h8.55v6H4v2h6v6h-6v2h8v7h2v-7h36v7h2v-7h8v-2h-6v-6h6Zm-9-10h-8v-6h8v6Zm-19,0h-9v-6h8v5c0,.55.45,1,1,1s1-.45,1-1v-5h8v6h-9Zm-19-6h8v6h-8v-6Zm2,8h34v6H15v-6Zm37,14H12v-6h40v6Z"/><path class="cls-5" d="m32,26h0c6.62,0,12,5.38,12,12v14h-24v-14c0-6.62,5.38-12,12-12Z"/><path class="cls-2" d="m32,31h0c3.86,0,7,3.14,7,7v14h-14v-14c0-3.86,3.14-7,7-7Z"/><path class="cls-4" d="m50.52,13h-.52c-1.66,0-3,1.34-3,3v2.83c0,1.6-1.18,3.05-2.78,3.16-.92.07-1.75-.28-2.34-.87-.54-.54-.88-1.29-.88-2.12v-2.83c0-1.6-1.18-3.05-2.78-3.16-.92-.07-1.75.28-2.34.87-.54.54-.88,1.29-.88,2.12v1.83c0,1.6-1.18,3.05-2.78,3.16-.92.07-1.75-.28-2.34-.87-.54-.54-.88-1.29-.88-2.12v-.77c0-1.79-1.47-3.37-3.25-3.22-.73.06-1.38.38-1.87.87-.54.54-.88,1.29-.88,2.12v4.83c0,1.6-1.18,3.05-2.78,3.16-.92.07-1.75-.28-2.34-.87-.54-.54-.88-1.29-.88-2.12v-6c0-1.66-1.34-3-3-3h-.52c4.94-4.35,11.42-7,18.52-7s13.58,2.65,18.52,7Z"/></svg>