<?xml version="1.0" encoding="UTF-8"?><svg id="Flat" xmlns="http://www.w3.org/2000/svg" viewBox="0 0 64 64"><defs><style>.cls-1{fill:#85b9db;}.cls-1,.cls-2,.cls-3,.cls-4,.cls-5{stroke-width:0px;}.cls-2{fill:#d86c66;}.cls-3{fill:#d85364;}.cls-4{fill:#d3dce5;}.cls-5{fill:#b8c3d5;}</style></defs><path class="cls-2" d="m10,9h44c1.1,0,2,.9,2,2v6H8v-6c0-1.1.9-2,2-2Z"/><path class="cls-2" d="m19,13c0,.55-.45,1-1,1-2.24,0-4-2.2-4-5h2c0,1.63.92,3,2,3,.55,0,1,.45,1,1Z"/><path class="cls-2" d="m32,13c0,.55-.45,1-1,1-2.24,0-4-2.2-4-5h2c0,1.63.92,3,2,3,.55,0,1,.45,1,1Z"/><path class="cls-2" d="m45,13c0,.55-.45,1-1,1-2.24,0-4-2.2-4-5h2c0,1.63.92,3,2,3,.55,0,1,.45,1,1Z"/><path class="cls-4" d="m8,17h48v38c0,1.1-.9,2-2,2H10c-1.1,0-2-.9-2-2V17h0Z"/><path class="cls-5" d="m22,9h-2c0-1.63-.92-3-2-3s-2,1.37-2,3,.92,3,2,3c.55,0,1,.45,1,1s-.45,1-1,1c-2.24,0-4-2.2-4-5s1.76-5,4-5,4,2.2,4,5Z"/><path class="cls-3" d="m18,15c-.55,0-1-.45-1-1v-2c0-.55.45-1,1-1s1,.45,1,1v2c0,.55-.45,1-1,1Z"/><path class="cls-5" d="m35,9h-2c0-1.63-.92-3-2-3s-2,1.37-2,3,.92,3,2,3c.55,0,1,.45,1,1s-.45,1-1,1c-2.24,0-4-2.2-4-5s1.76-5,4-5,4,2.2,4,5Z"/><path class="cls-3" d="m31,15c-.55,0-1-.45-1-1v-2c0-.55.45-1,1-1s1,.45,1,1v2c0,.55-.45,1-1,1Z"/><path class="cls-5" d="m48,9h-2c0-1.63-.92-3-2-3s-2,1.37-2,3,.92,3,2,3c.55,0,1,.45,1,1s-.45,1-1,1c-2.24,0-4-2.2-4-5s1.76-5,4-5,4,2.2,4,5Z"/><path class="cls-3" d="m44,15c-.55,0-1-.45-1-1v-2c0-.55.45-1,1-1s1,.45,1,1v2c0,.55-.45,1-1,1Z"/><path class="cls-1" d="m32,52.69c-.55,0-1-.45-1-1v-11.44c0-.55.45-1,1-1s1,.45,1,1v11.44c0,.55-.45,1-1,1Z"/><path class="cls-1" d="m32,34.75c-.55,0-1-.45-1-1v-11.44c0-.55.45-1,1-1s1,.45,1,1v11.44c0,.55-.45,1-1,1Z"/><path class="cls-1" d="m32,29.61c-.26,0-.51-.1-.71-.29l-4.2-4.2c-.39-.39-.39-1.02,0-1.41s1.02-.39,1.41,0l3.49,3.49,3.49-3.49c.39-.39,1.02-.39,1.41,0s.39,1.02,0,1.41l-4.2,4.2c-.2.2-.45.29-.71.29Z"/><path class="cls-1" d="m36.2,50.59c-.26,0-.51-.1-.71-.29l-3.49-3.49-3.49,3.49c-.39.39-1.02.39-1.41,0s-.39-1.02,0-1.41l4.2-4.2c.39-.39,1.02-.39,1.41,0l4.2,4.2c.39.39.39,1.02,0,1.41-.2.2-.45.29-.71.29Z"/><path class="cls-1" d="m34.82,36.38c-.35,0-.68-.18-.87-.5-.28-.48-.11-1.09.37-1.37l4.34-2.5s.07-.05.11-.07l5.45-3.14c.48-.28,1.09-.11,1.37.37.28.48.11,1.09-.37,1.37l-5.34,3.08s-.07.05-.11.07l-4.45,2.57c-.16.09-.33.13-.5.13Z"/><path class="cls-1" d="m19.28,45.34c-.35,0-.68-.18-.87-.5-.28-.48-.11-1.09.37-1.37l5.34-3.08s.07-.05.11-.07l4.45-2.57c.48-.28,1.09-.11,1.37.37.28.48.11,1.09-.37,1.37l-4.34,2.5s-.07.05-.11.07l-5.45,3.14c-.16.09-.33.13-.5.13Z"/><path class="cls-1" d="m23.2,47.93c-.09,0-.17-.01-.26-.03-.53-.14-.85-.69-.71-1.22l1.28-4.77-4.77-1.28c-.53-.14-.85-.69-.71-1.22.14-.53.69-.85,1.22-.71l5.73,1.54c.53.14.85.69.71,1.22l-1.54,5.73c-.12.45-.52.74-.97.74Z"/><path class="cls-1" d="m45,35.34c-.09,0-.17-.01-.26-.03l-5.73-1.54c-.53-.14-.85-.69-.71-1.22l1.54-5.73c.14-.53.69-.85,1.22-.71.53.14.85.69.71,1.22l-1.28,4.77,4.77,1.28c.53.14.85.69.71,1.22-.12.45-.52.74-.97.74Z"/><path class="cls-1" d="m29.18,36.38c-.17,0-.34-.04-.5-.13l-4.45-2.57s-.08-.05-.11-.08l-5.34-3.08c-.48-.28-.64-.89-.37-1.37.28-.48.89-.64,1.37-.37l5.45,3.14s.08.05.11.08l4.34,2.5c.48.28.64.89.37,1.37-.19.32-.52.5-.87.5Z"/><path class="cls-1" d="m44.72,45.34c-.17,0-.34-.04-.5-.13l-5.45-3.14s-.08-.05-.11-.08l-4.34-2.5c-.48-.28-.64-.89-.37-1.37.27-.48.89-.64,1.37-.37l4.45,2.57s.08.05.11.08l5.34,3.08c.48.28.64.89.37,1.37-.19.32-.52.5-.87.5Z"/><path class="cls-1" d="m40.8,47.93c-.44,0-.85-.29-.97-.74l-1.54-5.73c-.14-.53.17-1.08.71-1.22l5.73-1.54c.53-.14,1.08.17,1.22.71s-.17,1.08-.71,1.22l-4.77,1.28,1.28,4.77c.14.53-.17,1.08-.71,1.22-.09.02-.17.03-.26.03Z"/><path class="cls-1" d="m19,35.34c-.44,0-.85-.29-.97-.74-.14-.53.17-1.08.71-1.22l4.77-1.28-1.28-4.77c-.14-.53.17-1.08.71-1.22.54-.15,1.08.17,1.22.71l1.54,5.73c.14.53-.17,1.08-.71,1.22l-5.73,1.54c-.09.02-.17.03-.26.03Z"/><path class="cls-1" d="m32,41.25c-.17,0-.35-.04-.5-.13l-2.81-1.62c-.31-.18-.5-.51-.5-.87v-3.25c0-.36.19-.69.5-.87l2.81-1.62c.31-.18.69-.18,1,0l2.81,1.62c.31.18.5.51.5.87v3.25c0,.36-.19.69-.5.87l-2.81,1.62c-.15.09-.33.13-.5.13Zm-1.81-3.2l1.81,1.05,1.81-1.05v-2.1l-1.81-1.05-1.81,1.05v2.1Zm4.63.58h0,0Z"/></svg>