<?xml version="1.0" encoding="UTF-8"?><svg id="Flat" xmlns="http://www.w3.org/2000/svg" viewBox="0 0 64 64"><defs><style>.cls-1{fill:#85b9db;}.cls-1,.cls-2,.cls-3,.cls-4,.cls-5,.cls-6,.cls-7{stroke-width:0px;}.cls-2{fill:#536882;}.cls-3{fill:#d3dce5;}.cls-4{fill:#c2623e;}.cls-5{fill:#d88852;}.cls-6{fill:#737f9b;}.cls-7{fill:#edae65;}</style></defs><polyline class="cls-3" points="14 15 10 15 10 10.62 14 10.62"/><polyline class="cls-3" points="50 15 54 15 54 10.62 50 10.62"/><rect class="cls-7" x="3" y="7" width="8" height="12" rx="2" ry="2"/><rect class="cls-7" x="53" y="7" width="8" height="12" rx="2" ry="2"/><path class="cls-7" d="m12,25h40c1.66,0,3,1.34,3,3v11H9v-11c0-1.66,1.34-3,3-3Z"/><circle class="cls-3" cx="48" cy="32" r="3"/><circle class="cls-3" cx="16" cy="32" r="3"/><path class="cls-7" d="m50,8v1H14v-1c0-2.21,1.79-4,4-4h28c2.21,0,4,1.79,4,4Z"/><rect class="cls-1" x="14" y="9" width="36" height="16"/><path class="cls-5" d="m25,23h14c1.1,0,2,.9,2,2v14h-18v-14c0-1.1.9-2,2-2Z"/><path class="cls-4" d="m32,36c-.55,0-1-.45-1-1v-8c0-.55.45-1,1-1s1,.45,1,1v8c0,.55-.45,1-1,1Z"/><path class="cls-4" d="m36,36c-.55,0-1-.45-1-1v-8c0-.55.45-1,1-1s1,.45,1,1v8c0,.55-.45,1-1,1Z"/><path class="cls-4" d="m28,36c-.55,0-1-.45-1-1v-8c0-.55.45-1,1-1s1,.45,1,1v8c0,.55-.45,1-1,1Z"/><polygon class="cls-6" points="59 39 57.71 43 6.29 43 5 39 59 39"/><path class="cls-2" d="m7.32,52.78c.69-2.15.69-4.41,0-6.56l-1.03-3.22h51.42l-1.03,3.22c-.69,2.15-.69,4.41,0,6.56l2.32,7.22H5l2.32-7.22Z"/><path class="cls-3" d="m46.53,53.29c0-2.47-2-4.47-4.47-4.47-1.7,0-3.15.96-3.91,2.35-.76-1.39-2.22-2.35-3.91-2.35-1.41,0-2.65.66-3.46,1.68-.63-.35-1.35-.56-2.12-.56-1.1,0-2.1.41-2.88,1.08-.78-1.31-2.19-2.19-3.83-2.19-2.47,0-4.47,2-4.47,4.47-2.47,0-4.47,2-4.47,4.47v2.24h38v-2.24c0-2.47-2-4.47-4.47-4.47Z"/></svg>