<?xml version="1.0" encoding="UTF-8"?><svg id="Flat" xmlns="http://www.w3.org/2000/svg" viewBox="0 0 64 64"><defs><style>.cls-1{fill:#894c3d;}.cls-1,.cls-2,.cls-3,.cls-4{stroke-width:0px;}.cls-2{fill:#d3dce5;}.cls-3{fill:#a26a55;}.cls-4{fill:#edae65;}</style></defs><path class="cls-3" d="m58,45.82v9.18H10V12h28v17.24c0,5.39,4.37,9.76,9.76,9.76h3.43c3.77,0,6.82,3.05,6.82,6.82Z"/><path class="cls-4" d="m26,12v15c0,4.42-3.58,8-8,8s-8-3.58-8-8v-15"/><path class="cls-2" d="m43.96,9.64c-.28,2.27-2.16,4.11-4.44,4.34-.94.09-1.84-.07-2.62-.43-.57-.26-1.24-.26-1.81,0-.63.29-1.34.45-2.09.45s-1.47-.16-2.1-.46c-.56-.26-1.23-.26-1.79,0-.64.3-1.35.46-2.1.46s-1.47-.16-2.1-.46c-.56-.26-1.23-.26-1.79,0-.64.3-1.35.46-2.1.46s-1.47-.16-2.1-.46c-.56-.26-1.23-.26-1.79,0-.64.3-1.35.46-2.1.46s-1.46-.16-2.09-.45c-.57-.26-1.24-.27-1.81,0-.78.36-1.68.52-2.62.43-2.27-.23-4.16-2.07-4.44-4.34-.38-3.04,1.99-5.64,4.96-5.64.75,0,1.47.16,2.1.46.56.26,1.23.26,1.79,0,.64-.3,1.35-.46,2.1-.46s1.47.16,2.1.46c.56.26,1.23.26,1.79,0,.64-.3,1.35-.46,2.1-.46s1.47.16,2.1.46c.56.26,1.23.26,1.79,0,.64-.3,1.35-.46,2.1-.46s1.47.16,2.1.46c.56.26,1.23.26,1.79,0,.64-.3,1.35-.46,2.1-.46s1.47.16,2.1.46c.56.26,1.23.26,1.79,0,.64-.3,1.35-.46,2.1-.46,2.97,0,5.34,2.59,4.96,5.64Z"/><path class="cls-1" d="m58,55v5h-5.95l-1.39-1.23c-.38-.33-.95-.33-1.32,0l-1.39,1.23h-3.9l-1.39-1.23c-.38-.33-.95-.33-1.32,0l-1.39,1.23h-3.9l-1.39-1.23c-.38-.33-.95-.33-1.32,0l-1.39,1.23h-3.9l-1.39-1.23c-.38-.33-.95-.33-1.32,0l-1.39,1.23h-3.9l-1.39-1.23c-.38-.33-.95-.33-1.32,0l-1.39,1.23h-5.95v-5h48Z"/><path class="cls-4" d="m10,45h0c5.52,0,10,4.48,10,10h-10v-10h0Z"/><path class="cls-1" d="m40,19h-6c-.55,0-1-.45-1-1s.45-1,1-1h6c.55,0,1,.45,1,1s-.45,1-1,1Z"/><path class="cls-1" d="m40,24h-6c-.55,0-1-.45-1-1s.45-1,1-1h6c.55,0,1,.45,1,1s-.45,1-1,1Z"/><path class="cls-1" d="m40,29h-6c-.55,0-1-.45-1-1s.45-1,1-1h6c.55,0,1,.45,1,1s-.45,1-1,1Z"/><path class="cls-1" d="m40,34h-6c-.55,0-1-.45-1-1s.45-1,1-1h6c.55,0,1,.45,1,1s-.45,1-1,1Z"/></svg>