<?xml version="1.0" encoding="UTF-8"?><svg id="Flat" xmlns="http://www.w3.org/2000/svg" viewBox="0 0 64 64"><defs><style>.cls-1{fill:#85b9db;}.cls-1,.cls-2,.cls-3{stroke-width:0px;}.cls-2{fill:#536882;}.cls-3{fill:#d3dce5;}</style></defs><path class="cls-3" d="m59.16,47.14l.27.61c1.91,4.29-1.23,9.13-5.93,9.13H5.08c-.6,0-1.08-.48-1.08-1.08v-2.16c0-.6.48-1.08,1.08-1.08h4.33v-7.34h4.33v5.17c0,1.19.97,2.16,2.16,2.16h20.55c1.19,0,2.16-.97,2.16-2.16v-3.24h4.33v3.24c0,1.19.97,2.16,2.16,2.16h8.7c1.53,0,2.58-1.55,2.01-2.97l-.98-2.44h4.33Z"/><path class="cls-1" d="m59.16,38.66v3.42h-19.89c-1.86,0-3.7-.38-5.41-1.11l-10.42-4.46c-1.71-.73-3.55-1.1-5.41-1.1H4.18v-4.81c0-1.94.34-3.86,1.01-5.68.64-1.75.97-3.61.97-5.49v-11.23c0-.59.49-1.08,1.08-1.08h18.73c.44,0,.84.27,1,.68,1.49,3.77,4.54,9.92,10.56,15.55,6.2,5.79,12.89,8.53,17.55,9.86,2.43.69,4.08,2.92,4.08,5.45Z"/><path class="cls-2" d="m59.16,42.08v5.06h-20.79c-1.27,0-2.53-.24-3.71-.71l-14.44-5.78v5.25H6.35l-2.17-10.49h13.85c1.86,0,3.7.37,5.41,1.1l10.42,4.46c1.71.73,3.55,1.11,5.41,1.11h19.89Z"/><path class="cls-3" d="m25.67,14.12c-.42,0-.81-.27-.95-.68-.17-.52.11-1.09.63-1.27l3.25-1.08c.53-.18,1.09.11,1.26.63.17.52-.11,1.09-.63,1.27l-3.25,1.08c-.11.04-.21.05-.32.05Z"/><path class="cls-3" d="m28.59,18.67c-.42,0-.81-.27-.95-.68-.17-.52.11-1.09.63-1.26l3.12-1.04c.53-.18,1.09.11,1.26.63.17.52-.11,1.09-.63,1.26l-3.12,1.04c-.11.04-.21.05-.32.05Z"/><path class="cls-3" d="m31.76,22.81c-.38,0-.74-.22-.91-.58-.23-.5-.01-1.1.49-1.33l2.95-1.36c.5-.23,1.1-.01,1.33.49.23.5.01,1.1-.49,1.33l-2.95,1.36c-.14.06-.28.09-.42.09Z"/><path class="cls-3" d="m35.2,26.65c-.34,0-.67-.17-.86-.48-.28-.47-.13-1.09.34-1.37l2.93-1.76c.47-.29,1.09-.13,1.37.34.28.47.13,1.09-.34,1.37l-2.93,1.76c-.16.1-.34.14-.51.14Z"/><path class="cls-3" d="m39.69,30.05c-.28,0-.56-.12-.76-.35-.36-.42-.31-1.05.11-1.41l2.38-2.02c.42-.36,1.05-.31,1.41.11s.31,1.05-.11,1.41l-2.38,2.02c-.19.16-.42.24-.65.24Z"/><path class="cls-3" d="m44.85,32.94c-.22,0-.44-.07-.63-.22-.43-.35-.49-.98-.15-1.41l1.74-2.14c.35-.43.98-.49,1.41-.15.43.35.49.98.15,1.41l-1.74,2.14c-.2.24-.49.37-.78.37Z"/></svg>