<?xml version="1.0" encoding="UTF-8"?><svg id="Flat" xmlns="http://www.w3.org/2000/svg" viewBox="0 0 64 64"><defs><style>.cls-1{fill:#536882;}.cls-1,.cls-2,.cls-3,.cls-4{stroke-width:0px;}.cls-2{fill:#d3dce5;}.cls-3{fill:#c3967b;}.cls-4{fill:#b8c3d5;}</style></defs><path class="cls-2" d="m7,59.5c-.04-2.77.28-6.71,2-11,.23-.58.58-1.3.92-1.97.72-1.41,1.08-2.97,1.08-4.56v-15.97c0-11.39,8.86-21.09,20.24-21.49,11.95-.42,21.76,9.13,21.76,20.99v16.47c0,1.58.36,3.15,1.08,4.56.34.67.69,1.39.92,1.97,1.72,4.29,2.04,8.23,2,11"/><path class="cls-4" d="m28,36.5l-2.57,8.43c-.33,1.08-1.53,1.08-1.86,0l-2.57-8.43h7Z"/><path class="cls-4" d="m36,36.5l2.57,8.43c.33,1.08,1.53,1.08,1.86,0l2.57-8.43h-7Z"/><path class="cls-3" d="m45.03,30.64v2.88c0,2.52-2.05,4.57-4.57,4.57h-2.96c-1.72,0-3.64-.95-4.7-2.35-.41-.54-1.19-.54-1.6,0-1.06,1.4-2.98,2.35-4.7,2.35h-2.96c-2.52,0-4.57-2.05-4.57-4.57v-2.88c0-2.05,1.68-3.72,3.72-3.72h18.61c2.05,0,3.72,1.68,3.72,3.72Z"/><path class="cls-1" d="m35.64,27.95l-1.36,2.36c-1.01,1.76-3.55,1.76-4.56,0l-1.36-2.36c-1.01-1.76.25-3.95,2.28-3.95h2.73c2.03,0,3.29,2.19,2.28,3.95Z"/><ellipse class="cls-1" cx="24" cy="18" rx="2.25" ry="3"/><ellipse class="cls-1" cx="40" cy="18" rx="2.25" ry="3"/><path class="cls-4" d="m18.98,59.5c2.04-4.97,7.1-8.5,13.02-8.5s10.98,3.53,13.03,8.5"/><path class="cls-1" d="m42.81,33c-.46,0-.87-.32-.97-.78-.12-.54.22-1.07.76-1.19.9-.2,1.83-.31,2.75-.32,1.03,0,2.06.1,3.07.32.54.12.88.66.76,1.19-.12.54-.66.88-1.19.76-.86-.19-1.71-.28-2.61-.27-.78,0-1.57.1-2.34.27-.07.02-.15.02-.22.02Z"/><path class="cls-1" d="m42.31,29.77c-.35,0-.68-.18-.87-.5-.28-.48-.11-1.09.36-1.37.8-.46,1.65-.84,2.53-1.13.98-.32,2-.53,3.03-.61.56-.05,1.03.36,1.08.91.05.55-.36,1.03-.91,1.08-.87.07-1.74.25-2.57.52-.75.24-1.47.57-2.15.96-.16.09-.33.13-.5.13Z"/><path class="cls-1" d="m47.5,37.68c-.17,0-.33-.04-.49-.13-.76-.43-1.58-.77-2.42-1.02-.75-.22-1.53-.36-2.31-.41-.55-.04-.96-.52-.92-1.07s.52-.96,1.07-.92c.92.07,1.84.23,2.72.49.99.29,1.95.69,2.85,1.2.48.27.65.88.38,1.36-.18.33-.52.51-.87.51Z"/><path class="cls-1" d="m21.19,33c-.07,0-.15,0-.22-.02-.77-.17-1.55-.26-2.34-.27-.87,0-1.75.08-2.61.27-.54.12-1.07-.22-1.19-.76s.22-1.07.76-1.19c1.01-.23,2.06-.33,3.07-.32.92.01,1.85.12,2.75.32.54.12.88.66.76,1.19-.1.46-.52.78-.97.78Z"/><path class="cls-1" d="m21.69,29.77c-.17,0-.34-.04-.5-.13-.68-.39-1.4-.72-2.15-.96-.83-.27-1.7-.45-2.57-.52-.55-.05-.96-.53-.91-1.08.04-.55.52-.97,1.08-.91,1.03.09,2.05.29,3.03.61.88.29,1.73.67,2.53,1.13.48.28.64.89.36,1.37-.19.32-.52.5-.87.5Z"/><path class="cls-1" d="m16.5,37.68c-.35,0-.69-.18-.87-.51-.27-.48-.1-1.09.38-1.36.9-.51,1.86-.91,2.85-1.2.89-.25,1.8-.42,2.72-.49.55-.04,1.03.37,1.07.92s-.37,1.03-.92,1.07c-.78.06-1.56.2-2.31.41-.84.24-1.66.58-2.42,1.02-.16.09-.32.13-.49.13Z"/></svg>