<?xml version="1.0" encoding="UTF-8"?><svg id="Flat" xmlns="http://www.w3.org/2000/svg" viewBox="0 0 64 64"><defs><style>.cls-1{fill:#894c3d;}.cls-1,.cls-2,.cls-3{stroke-width:0px;}.cls-2{fill:#d3dce5;}.cls-3{fill:#a26a55;}</style></defs><path class="cls-1" d="m47.94,56c-3.6,1.22-9.12,2.62-15.94,2.62-6.82,0-12.34-1.4-15.94-2.62,0,0,2.66-18.7,1.9-22.53h27.77l2.22,22.53Z"/><path class="cls-1" d="m29,4h6c1.1,0,2,.9,2,2v4h-10v-4c0-1.1.9-2,2-2Z"/><path class="cls-3" d="m9.86,59.57h0c-1.84-.96-2.65-3.18-1.83-5.09s1.54-3.92,2.12-5.94c1.11-3.9,1.73-7.94,1.85-12.01l8,.22c-.13,4.74-.86,9.44-2.15,13.99-.66,2.32-1.48,4.61-2.44,6.84s-3.47,3.08-5.55,1.99Z"/><path class="cls-3" d="m54.14,59.57h0c1.84-.96,2.65-3.18,1.83-5.09s-1.54-3.92-2.12-5.94c-1.11-3.9-1.73-7.94-1.85-12.01l-8,.22c.13,4.74.86,9.44,2.15,13.99.66,2.32,1.48,4.61,2.44,6.84s3.47,3.08,5.55,1.99Z"/><path class="cls-3" d="m24,8h16c5.52,0,10,4.48,10,10v14H14v-14c0-5.52,4.48-10,10-10Z"/><path class="cls-2" d="m51.02,25.09c-1.11-.19-2.16-.06-3.11.29-.59.22-1.22.23-1.81,0-.65-.25-1.36-.38-2.1-.38s-1.45.14-2.1.38c-.58.22-1.21.22-1.79,0-.65-.25-1.36-.38-2.1-.38-1.09,0-2.12.3-3,.81-.88-.51-1.91-.81-3-.81-.74,0-1.45.14-2.1.38-.58.22-1.21.22-1.79,0-.65-.25-1.36-.38-2.1-.38s-1.45.14-2.1.38c-.58.22-1.21.22-1.79,0-.65-.25-1.36-.38-2.1-.38s-1.45.14-2.1.38c-.59.22-1.22.22-1.81,0-.95-.35-2-.48-3.11-.29-2.6.44-4.65,2.62-4.94,5.24-.4,3.62,2.43,6.68,5.96,6.68.74,0,1.45-.14,2.1-.38.58-.22,1.21-.22,1.79,0,.65.25,1.36.38,2.1.38s1.45-.14,2.1-.38c.58-.22,1.21-.22,1.79,0,.65.25,1.36.38,2.1.38s1.45-.14,2.1-.38c.58-.22,1.21-.22,1.79,0,.65.25,1.36.38,2.1.38s1.45-.14,2.1-.38c.58-.22,1.21-.22,1.79,0,.65.25,1.36.38,2.1.38s1.45-.14,2.1-.38c.58-.22,1.21-.22,1.79,0,.65.25,1.36.38,2.1.38s1.45-.14,2.1-.38c.58-.22,1.21-.22,1.79,0,.65.25,1.36.38,2.1.38,3.54,0,6.36-3.06,5.96-6.68-.29-2.62-2.34-4.8-4.94-5.24Z"/></svg>