<?xml version="1.0" encoding="UTF-8"?><svg id="Flat" xmlns="http://www.w3.org/2000/svg" viewBox="0 0 64 64"><defs><style>.cls-1{fill:#536882;}.cls-1,.cls-2,.cls-3,.cls-4,.cls-5{stroke-width:0px;}.cls-2{fill:#e26677;}.cls-3{fill:#d85364;}.cls-4{fill:#d3dce5;}.cls-5{fill:#a26a55;}</style></defs><path class="cls-5" d="m48.23,35.22c-.2,0-.4-.06-.57-.18-.45-.32-.56-.94-.25-1.39l10.77-15.37c.32-.45.94-.56,1.39-.25.45.32.56.94.25,1.39l-10.77,15.37c-.2.28-.5.43-.82.43Z"/><path class="cls-5" d="m55,25.56c-.49,0-.92-.36-.99-.86-.08-.55.3-1.05.85-1.13l4-.56c.55-.08,1.05.3,1.13.85s-.3,1.05-.85,1.13l-4,.56s-.09,0-.14,0Z"/><path class="cls-5" d="m53,28.41c-.46,0-.87-.31-.97-.78l-1-4.41c-.12-.54.22-1.07.75-1.2.54-.12,1.07.22,1.2.75l1,4.41c.12.54-.22,1.07-.75,1.2-.07.02-.15.02-.22.02Z"/><path class="cls-5" d="m15.77,35.22c-.32,0-.63-.15-.82-.43l-10.77-15.37c-.32-.45-.21-1.08.25-1.39.45-.32,1.08-.21,1.39.25l10.77,15.37c.32.45.21,1.08-.25,1.39-.17.12-.37.18-.57.18Z"/><path class="cls-5" d="m9,25.56s-.09,0-.14,0l-4-.56c-.55-.08-.93-.58-.85-1.13.08-.55.58-.93,1.13-.85l4,.56c.55.08.93.58.85,1.13-.07.5-.5.86-.99.86Z"/><path class="cls-5" d="m11,28.41c-.07,0-.15,0-.22-.02-.54-.12-.88-.66-.75-1.2l1-4.41c.12-.54.66-.88,1.2-.75.54.12.88.66.75,1.2l-1,4.41c-.1.46-.52.78-.97.78Z"/><path class="cls-4" d="m50,42c0,9.94-8.06,18-18,18s-18-8.06-18-18c0-4.13,1.4-7.94,3.74-10.98,3.63,3.69,8.67,5.98,14.26,5.98s10.63-2.29,14.26-5.98c2.34,3.04,3.74,6.85,3.74,10.98Z"/><path class="cls-3" d="m44.02,43v2.53c0,.55-.45,1-1,1s-1-.45-1-1v-1.53h-2v1.53c0,.55-.45,1-1,1s-1-.45-1-1v-2.33c-.01-.06-.02-.13-.02-.2v-9.66l6-1.62v11.08c.01.06.02.13.02.2Z"/><path class="cls-2" d="m46.26,31.02c-3.63,3.69-8.67,5.98-14.26,5.98s-10.63-2.29-14.26-5.98c3.29-4.27,8.45-7.02,14.26-7.02s10.97,2.75,14.26,7.02Z"/><circle class="cls-4" cx="32" cy="17" r="13"/><circle class="cls-1" cx="32" cy="42.34" r="1"/><circle class="cls-1" cx="32" cy="48.34" r="1"/><circle class="cls-1" cx="32" cy="54.34" r="1"/><path class="cls-2" d="m30.81,21.63l-3.22-1.21c-.79-.3-.79-1.41,0-1.7l3.22-1.21c1.42-.53,3.01.45,3.04,1.97,0,.02,0,.03,0,.05,0,.03,0,.06,0,.08-.01,1.54-1.6,2.57-3.04,2.03Z"/><path class="cls-1" d="m27,15.22c-.55,0-1-.45-1-1v-2c0-.55.45-1,1-1s1,.45,1,1v2c0,.55-.45,1-1,1Z"/><path class="cls-1" d="m37,15.22c-.55,0-1-.45-1-1v-2c0-.55.45-1,1-1s1,.45,1,1v2c0,.55-.45,1-1,1Z"/></svg>