<?xml version="1.0" encoding="UTF-8"?><svg id="Flat" xmlns="http://www.w3.org/2000/svg" viewBox="0 0 64 64"><defs><style>.cls-1{fill:#d3dce5;}.cls-1,.cls-2,.cls-3,.cls-4,.cls-5{stroke-width:0px;}.cls-2{fill:#d88852;}.cls-3{fill:#b8c3d5;}.cls-4{fill:#a26a55;}.cls-5{fill:#edae65;}</style></defs><path class="cls-2" d="m53.56,18h-12.56v22l6.86-1.91c3.29-.91,6.08-2.87,8.04-5.45,1.96-2.58,3.1-5.78,3.1-9.2,0-3.01-2.43-5.44-5.44-5.44Zm-6.77,16.24l-1.79.5v-12.74h8.56c.8,0,1.44.64,1.44,1.44,0,5.02-3.38,9.46-8.21,10.8Z"/><rect class="cls-1" x="5" y="52" width="42" height="4" rx="1" ry="1"/><path class="cls-3" d="m40.77,60H11.23c-.32,0-.62-.21-.76-.55l-1.47-3.45h34l-1.47,3.45c-.14.34-.44.55-.76.55Z"/><path class="cls-5" d="m9,16h34c1.1,0,2,.9,2,2v15c0,10.49-8.51,19-19,19h0c-10.49,0-19-8.51-19-19v-15c0-1.1.9-2,2-2Z"/><path class="cls-1" d="m17.68,11.08c-.18,0-.37-.05-.54-.16-.47-.3-.6-.91-.31-1.38l.74-1.17c.08-.12.06-.23.05-.29-.01-.06-.05-.17-.17-.24-.54-.34-.91-.87-1.05-1.5-.14-.62-.03-1.26.32-1.8l.74-1.17c.3-.47.92-.6,1.38-.31.47.3.6.91.31,1.38l-.74,1.17c-.08.12-.06.23-.05.29.01.06.05.17.17.24.54.34.91.87,1.05,1.5.14.62.03,1.26-.32,1.8l-.74,1.17c-.19.3-.51.46-.85.46Z"/><path class="cls-1" d="m25.68,11.08c-.18,0-.37-.05-.54-.16-.47-.3-.6-.91-.31-1.38l.74-1.17c.08-.12.06-.23.05-.29-.01-.06-.05-.17-.17-.24-.54-.34-.91-.87-1.05-1.5-.14-.62-.03-1.26.32-1.8l.74-1.17c.3-.47.92-.6,1.38-.31.47.3.6.91.31,1.38l-.74,1.17c-.08.12-.06.23-.05.29.01.06.05.17.17.24.54.34.91.87,1.05,1.5.14.62.03,1.26-.32,1.8l-.74,1.17c-.19.3-.51.46-.85.46Z"/><path class="cls-1" d="m33.68,11.08c-.18,0-.37-.05-.54-.16-.47-.3-.6-.91-.31-1.38l.74-1.17c.08-.12.06-.23.05-.29-.01-.06-.05-.17-.17-.24-.54-.34-.91-.87-1.05-1.5-.14-.62-.03-1.26.32-1.8l.74-1.17c.3-.47.92-.6,1.38-.31s.6.91.31,1.38l-.74,1.17c-.08.12-.06.23-.05.29.01.06.05.17.17.24.54.34.91.87,1.05,1.5.14.62.03,1.26-.32,1.8l-.74,1.17c-.19.3-.51.46-.85.46Z"/><path class="cls-4" d="m45,18v3h-9c-.83,0-1.58.34-2.12.88-.54.54-.88,1.29-.88,2.12v3.83c0,1.6-1.18,3.05-2.78,3.16-.92.07-1.75-.28-2.34-.87-.54-.54-.88-1.29-.88-2.12v-2.77c0-1.8-1.48-3.38-3.28-3.22-.72.07-1.36.38-1.84.87-.54.54-.88,1.29-.88,2.12v7.83c0,1.6-1.18,3.05-2.78,3.16-.92.07-1.75-.28-2.34-.87-.54-.54-.88-1.29-.88-2.12v-9c0-1.66-1.34-3-3-3h-5v-3c0-1.1.9-2,2-2h34c1.1,0,2,.9,2,2Z"/></svg>