<?xml version="1.0" encoding="UTF-8"?><svg id="Flat" xmlns="http://www.w3.org/2000/svg" viewBox="0 0 64 64"><defs><style>.cls-1{fill:#d3dce5;}.cls-1,.cls-2,.cls-3{stroke-width:0px;}.cls-2{fill:#a26a55;}.cls-3{fill:#edae65;}</style></defs><path class="cls-3" d="m32.29,44.49c-3.08,3.61-8.48,4.07-12.11,1.02,1.12-2.5,2.81-5.4,5.2-8.03,1.9-2.07,4.1-3.75,6.09-5,3.47,3.11,3.85,8.44.82,12.01Z"/><path class="cls-2" d="m31.47,32.48c-1.99,1.25-4.19,2.93-6.09,5-2.39,2.63-4.08,5.53-5.2,8.03-.02-.01-.03-.03-.05-.04l-5.19-4.41v-4.86c0-3.65-2.95-6.6-6.59-6.6h-.92V9.75h17.25v13.4c0,2.25.99,4.39,2.7,5.84l3.93,3.34c.06.05.11.1.16.15Z"/><path class="cls-1" d="m24.06,4.07c-.84-.14-1.64-.06-2.36.19-.55.19-1.14.2-1.69,0-.49-.17-1.01-.26-1.56-.26s-1.07.09-1.56.26c-.55.19-1.13.19-1.68,0-.49-.17-1.01-.26-1.56-.26s-1.07.09-1.56.26c-.55.19-1.14.19-1.69,0-.72-.25-1.53-.33-2.36-.19-2.07.35-3.72,2.09-3.94,4.18-.32,2.89,1.94,5.33,4.76,5.33.55,0,1.07-.09,1.56-.26.55-.19,1.13-.19,1.68,0,.49.17,1.01.26,1.56.26s1.07-.09,1.56-.26c.55-.19,1.13-.19,1.68,0,.49.17,1.01.26,1.56.26s1.07-.09,1.56-.26c.55-.19,1.13-.19,1.68,0,.49.17,1.01.26,1.56.26,2.83,0,5.08-2.44,4.76-5.33-.23-2.09-1.87-3.83-3.94-4.18Z"/><path class="cls-3" d="m24.68,16.76v2c-.64.03-.96.21-1.4.45-.57.32-1.27.71-2.58.71s-2.02-.39-2.59-.71c-.48-.27-.82-.46-1.6-.46s-1.14.19-1.62.46c-.56.32-1.27.71-2.57.71s-2.02-.39-2.59-.71c-.47-.27-.82-.46-1.6-.46-.21,0-.4.02-.56.04-.05.01-.09.01-.14.01v-2.01c.21-.03.44-.04.7-.04,1.3,0,2.01.4,2.58.71.47.27.82.46,1.61.46s1.12-.19,1.6-.46c.57-.31,1.28-.71,2.59-.71s2.01.4,2.57.71c.48.27.82.46,1.62.46s1.13-.19,1.61-.46c.53-.29,1.19-.66,2.34-.7h.03Z"/><path class="cls-3" d="m24.68,20.82v2c-.64.03-.96.21-1.4.45-.57.31-1.27.71-2.58.71s-2.02-.4-2.59-.71c-.48-.27-.82-.46-1.6-.46s-1.14.19-1.62.46c-.56.31-1.27.71-2.57.71s-2.02-.4-2.59-.71c-.47-.27-.82-.46-1.6-.46-.21,0-.4.01-.56.04-.05.01-.09.01-.14.01v-2.01c.21-.03.44-.04.7-.04,1.3,0,2.01.39,2.58.71.47.27.82.46,1.61.46s1.12-.19,1.6-.46c.57-.32,1.28-.71,2.59-.71s2.01.39,2.57.71c.48.27.82.46,1.62.46s1.13-.19,1.61-.46c.53-.29,1.19-.66,2.34-.7h.03Z"/><path class="cls-3" d="m14.94,36.2v4.86l-4.81-4.09c-1.71-1.46-2.7-3.59-2.7-5.84v-1.53h.92c3.64,0,6.59,2.95,6.59,6.6Z"/><path class="cls-3" d="m57.87,56.96c-3.06,3.6-8.44,4.06-12.07,1.05,1.13-2.51,2.76-5.42,5.16-8.06,1.91-2.08,4.05-3.79,6.05-5.04,3.51,3.11,3.9,8.46.86,12.05Z"/><path class="cls-2" d="m57.01,44.91c-2,1.25-4.14,2.96-6.05,5.04-2.4,2.64-4.03,5.55-5.16,8.06-.03-.02-.06-.04-.09-.07l-5.18-4.4v-4.87c0-3.64-2.96-6.6-6.6-6.6h-.92v-19.85h17.26v13.41c0,2.24.98,4.38,2.69,5.84l3.93,3.33s.08.07.12.11Z"/><path class="cls-1" d="m49.65,16.54c-.84-.14-1.64-.06-2.36.19-.55.19-1.14.2-1.69,0-.49-.17-1.01-.26-1.56-.26s-1.07.09-1.56.26c-.55.19-1.13.19-1.68,0-.49-.17-1.01-.26-1.56-.26s-1.07.09-1.56.26c-.55.19-1.14.19-1.69,0-.72-.25-1.53-.33-2.36-.19-2.07.35-3.72,2.09-3.94,4.18-.32,2.89,1.94,5.33,4.76,5.33.55,0,1.07-.09,1.56-.26.55-.19,1.13-.19,1.68,0,.49.17,1.01.26,1.56.26s1.07-.09,1.56-.26c.55-.19,1.13-.19,1.68,0,.49.17,1.01.26,1.56.26s1.07-.09,1.56-.26c.55-.19,1.13-.19,1.68,0,.49.17,1.01.26,1.56.26,2.83,0,5.08-2.44,4.76-5.33-.23-2.09-1.87-3.83-3.94-4.18Z"/><path class="cls-3" d="m50.27,29.23v2c-.65.04-.97.21-1.41.45-.57.32-1.27.71-2.58.71s-2.02-.39-2.59-.71c-.48-.26-.82-.46-1.6-.46s-1.14.2-1.62.46c-.56.32-1.27.71-2.57.71s-2.02-.39-2.59-.71c-.47-.26-.82-.46-1.6-.46-.21,0-.4.02-.55.04-.05,0-.1,0-.15,0v-2c.21-.03.44-.05.7-.05,1.3,0,2.01.4,2.58.71.47.27.82.46,1.61.46s1.13-.19,1.6-.45c.57-.32,1.28-.72,2.59-.72s2.01.4,2.57.71c.48.27.83.46,1.62.46s1.13-.19,1.61-.45c.53-.3,1.19-.66,2.34-.71h.04Z"/><path class="cls-3" d="m50.27,33.29v2c-.65.04-.97.2-1.41.45-.57.32-1.27.71-2.58.71s-2.02-.39-2.59-.71c-.48-.27-.82-.46-1.6-.46s-1.14.19-1.62.46c-.56.32-1.27.71-2.57.71s-2.02-.39-2.59-.71c-.47-.27-.82-.46-1.6-.46-.21,0-.4.02-.55.04-.05,0-.1,0-.15,0v-2c.21-.03.44-.05.7-.05,1.3,0,2.01.4,2.58.71.47.27.82.46,1.61.46s1.13-.19,1.6-.45c.57-.32,1.28-.72,2.59-.72s2.01.4,2.57.71c.48.27.83.46,1.62.46s1.13-.19,1.61-.46c.53-.29,1.19-.66,2.34-.7h.04Z"/><path class="cls-3" d="m40.53,48.67v4.87l-4.82-4.1c-1.71-1.46-2.7-3.59-2.7-5.84v-1.53h.92c3.64,0,6.6,2.96,6.6,6.6Z"/></svg>