<?xml version="1.0" encoding="UTF-8"?><svg id="Flat" xmlns="http://www.w3.org/2000/svg" viewBox="0 0 64 64"><defs><style>.cls-1{fill:#d88852;}.cls-1,.cls-2,.cls-3{stroke-width:0px;}.cls-2{fill:#a26a55;}.cls-3{fill:#edae65;}</style></defs><path class="cls-3" d="m4.61,49.1l-.22,2.65c-.04.49.31.92.8.97l2.41.27,2.41.27c.49.05.93-.29.99-.78l.32-2.45"/><path class="cls-2" d="m59.95,49.16c-2.7.29-5.41.58-8.11.87l-4.01-14.26.07,17.87h-31.8l.07-17.87-4.01,14.26c-2.7-.29-5.41-.58-8.11-.87-.21-5.24.16-13.45,3.6-22.73.66-1.75,1.36-3.4,2.1-4.94,2.92-6.08,9.24-9.92,16.15-9.92h12.2c6.91,0,13.23,3.84,16.15,9.92.74,1.54,1.44,3.19,2.1,4.94,3.44,9.28,3.81,17.49,3.6,22.73Z"/><path class="cls-3" d="m59.39,49.1l.22,2.65c.04.49-.31.92-.8.97l-2.41.27-2.41.27c-.49.05-.93-.29-.99-.78l-.32-2.45"/><path class="cls-3" d="m16.67,53.64h30.66v2.61c0,.55-.45,1-1,1h-28.66c-.55,0-1-.45-1-1v-2.61h0Z"/><path class="cls-3" d="m42.82,8.75v3.41h-21.64v-3.41c0-1.1.89-2,2-2h17.64c1.11,0,2,.9,2,2Z"/><rect class="cls-1" x="25.59" y="6.75" width="2" height="5.41"/><rect class="cls-1" x="31" y="6.75" width="2" height="5.41"/><rect class="cls-1" x="36.41" y="6.75" width="2" height="5.41"/><path class="cls-3" d="m57.94,31.4c-3.3,1.07-6.63,1.92-9.93,2.55-5.31,1.03-10.66,1.55-16.01,1.55s-10.7-.52-16.01-1.55c-3.3-.63-6.63-1.48-9.93-2.55.17-.63.35-1.27.55-1.92h.03c3.22,1.05,6.5,1.89,9.73,2.51,10.37,2.01,20.89,2.01,31.26,0,3.23-.62,6.51-1.46,9.73-2.5h.03c.2.64.38,1.28.55,1.91Z"/><path class="cls-3" d="m15.56,37.95l-.55,1.94c-3.37-.65-6.81-1.52-10.23-2.6.1-.65.22-1.31.36-1.98l.11.04c3.4,1.07,6.81,1.94,10.16,2.58l.15.02Z"/><path class="cls-3" d="m47.84,38.06v2.03c-5.25.94-10.54,1.41-15.84,1.41s-10.59-.47-15.85-1.42v-2.03s.18.03.18.03c10.4,1.89,20.94,1.89,31.33.01l.18-.03Z"/><path class="cls-3" d="m59.22,37.29c-3.42,1.08-6.86,1.95-10.23,2.6l-.55-1.94.19-.03c3.33-.64,6.74-1.5,10.12-2.57l.11-.04c.14.67.26,1.33.36,1.98Z"/></svg>