<?xml version="1.0" encoding="UTF-8"?><svg id="Flat" xmlns="http://www.w3.org/2000/svg" viewBox="0 0 64 64"><defs><style>.cls-1{fill:#536882;}.cls-1,.cls-2,.cls-3,.cls-4{stroke-width:0px;}.cls-2{fill:#d3dce5;}.cls-3{fill:#a26a55;}.cls-4{fill:#edae65;}</style></defs><path class="cls-1" d="m32,59.45h0c4.8-1.75,8-6.31,8-11.42v-8.03s-8,0-8,0h-8v8.03c0,5.11,3.2,9.68,8,11.42h0s0,0,0,0Z"/><path class="cls-3" d="m34,11.44v28.56h-4V11.44c.58.39,1.29.56,2,.56s1.42-.18,2-.56Z"/><path class="cls-4" d="m32.73,47.27l-.73.73-.73-.73c-.81-.81-1.27-1.91-1.27-3.06v-9.21h4v9.21c0,1.15-.46,2.25-1.27,3.06Z"/><path class="cls-4" d="m39,4h-14c-.55,0-1,.45-1,1v2.55c0,1.67.47,3.27,1.32,4.63.84,1.37,2.06,2.51,3.56,3.26.36.18.73.32,1.12.41.41.1.83.15,1.25.15h1.5c.42,0,.84-.05,1.25-.15.39-.09.76-.23,1.12-.41,2.99-1.5,4.88-4.55,4.88-7.89v-2.55c0-.55-.45-1-1-1Zm-4.66,7.19c-.11.09-.22.18-.34.25-.58.38-1.29.56-2,.56s-1.42-.17-2-.56c-.12-.07-.23-.16-.34-.25-.93-.8-1.52-1.94-1.64-3.19h7.96c-.12,1.25-.71,2.38-1.64,3.19Z"/><path class="cls-2" d="m46.53,55.2c0-1.77-2-3.2-4.47-3.2-1.7,0-3.15.68-3.91,1.68-.76-1-2.22-1.68-3.91-1.68-1.41,0-2.65.47-3.46,1.2-.63-.25-1.35-.4-2.12-.4-1.1,0-2.1.3-2.88.77-.78-.94-2.19-1.57-3.83-1.57-2.47,0-4.47,1.43-4.47,3.2-2.47,0-4.47,1.43-4.47,3.2v1.6h38v-1.6c0-1.77-2-3.2-4.47-3.2Z"/></svg>