<?xml version="1.0" encoding="UTF-8"?><svg id="Flat" xmlns="http://www.w3.org/2000/svg" viewBox="0 0 64 64"><defs><style>.cls-1{fill:#536882;}.cls-1,.cls-2,.cls-3{stroke-width:0px;}.cls-2{fill:#d3dce5;}.cls-3{fill:#6581c6;}</style></defs><path class="cls-3" d="m7.74,56.26c-2.9-2.9-4.11-6.86-3.63-10.64.44-3.45,2.44-6.51,5.27-8.53,4.59-3.28,9.75-7.46,15-12.71,3.93-3.93,8.33-8.88,12.68-14.95,1.58-2.21,3.76-3.98,6.35-4.81,1.12-.36,2.41-.61,3.85-.61,3.26,0,6.52,1.24,9.01,3.73,2.9,2.9,4.11,6.86,3.63,10.64-.44,3.45-2.44,6.51-5.27,8.53-4.59,3.28-9.75,7.46-15,12.71-3.77,3.77-7.99,8.49-12.17,14.24-1.57,2.16-3.76,3.83-6.3,4.67-5.06,1.67-10.29.86-13.42-2.27Z"/><path class="cls-2" d="m58.15,23.18c-.91,1.45-2.11,2.72-3.53,3.73-.2.14-.4.29-.61.44l-6.76-10.61-10.61-6.75c.15-.19.28-.38.42-.57,1.02-1.42,2.28-2.66,3.75-3.58l10.6,6.75,6.74,10.59Z"/><path class="cls-2" d="m25.65,55.88c-1.29,1.18-2.81,2.1-4.49,2.65-.18.06-.36.12-.55.17l-5.94-9.37-9.92-6.31c.68-1.8,1.79-3.44,3.21-4.77l10.87,6.92,6.82,10.71Z"/><path class="cls-1" d="m39.27,30.24l-5.32-3.6c-1.6-1.08-2.08-3.21-1.1-4.87h0c.98-1.66,3.08-2.27,4.8-1.4l5.73,2.91c1.88.95,2.56,3.29,1.49,5.11l-.41.69c-1.07,1.81-3.45,2.35-5.19,1.17Z"/><polygon class="cls-2" points="42.25 22.71 38.23 29.53 35.37 27.6 39.31 21.21 42.25 22.71"/><path class="cls-1" d="m30.25,39.27l-3.6-5.32c-1.08-1.6-3.21-2.08-4.87-1.1h0c-1.66.98-2.27,3.08-1.4,4.8l2.91,5.73c.95,1.88,3.29,2.56,5.11,1.49l.69-.41c1.81-1.07,2.35-3.45,1.17-5.19Z"/><polygon class="cls-2" points="29.54 38.22 22.71 42.24 21.15 39.18 27.61 35.37 29.54 38.22"/></svg>