<?xml version="1.0" encoding="UTF-8"?><svg id="Flat" xmlns="http://www.w3.org/2000/svg" viewBox="0 0 64 64"><defs><style>.cls-1{fill:#536882;}.cls-1,.cls-2,.cls-3,.cls-4{stroke-width:0px;}.cls-2{fill:#e26677;}.cls-3{fill:#d85364;}.cls-4{fill:#d3dce5;}</style></defs><path class="cls-4" d="m5.91,45.64c-.44,0-.88-.12-1.28-.37l-1.17-.74c-.47-.3-.6-.91-.31-1.38.3-.47.91-.61,1.38-.31l1.17.74c.12.08.23.06.29.05.06-.01.17-.05.24-.17.34-.54.87-.91,1.49-1.05.62-.14,1.26-.03,1.8.32l1.17.74c.47.3.6.91.31,1.38-.3.47-.91.61-1.38.31l-1.17-.74c-.12-.07-.23-.06-.29-.05-.06.01-.17.05-.24.17-.46.71-1.23,1.11-2.02,1.11Z"/><path class="cls-4" d="m5.91,37.64c-.44,0-.88-.12-1.28-.37l-1.17-.74c-.47-.3-.6-.91-.31-1.38.3-.47.91-.61,1.38-.31l1.17.74c.12.07.23.07.29.05.06-.01.17-.05.24-.17.34-.54.87-.91,1.49-1.05.62-.14,1.26-.03,1.8.32l1.17.74c.47.3.6.91.31,1.38-.3.47-.91.61-1.38.31l-1.17-.74c-.12-.07-.23-.06-.29-.05-.06.01-.17.05-.24.17-.46.71-1.23,1.11-2.02,1.11Z"/><path class="cls-4" d="m5.91,29.64c-.44,0-.88-.12-1.28-.37l-1.17-.74c-.47-.3-.6-.91-.31-1.38.3-.47.91-.61,1.38-.31l1.17.74c.12.07.23.07.29.05.06-.01.17-.05.24-.17.34-.54.87-.91,1.49-1.05.62-.14,1.26-.03,1.8.32l1.17.74c.47.3.6.91.31,1.38-.3.47-.91.61-1.38.31l-1.17-.74c-.12-.07-.23-.06-.29-.05-.06.01-.17.05-.24.17-.46.71-1.23,1.11-2.02,1.11Z"/><path class="cls-4" d="m58.09,45.64c-.79,0-1.56-.39-2.02-1.11-.08-.12-.18-.16-.24-.17-.06-.01-.17-.02-.29.05l-1.17.74c-.47.3-1.08.16-1.38-.31-.3-.47-.16-1.08.31-1.38l1.17-.74c.54-.34,1.18-.46,1.8-.32.62.14,1.15.51,1.5,1.05.07.12.18.16.24.17.06.01.17.02.29-.05l1.17-.74c.46-.3,1.08-.16,1.38.31s.16,1.08-.31,1.38l-1.17.74c-.4.25-.84.37-1.28.37Z"/><path class="cls-4" d="m58.09,37.64c-.79,0-1.56-.39-2.02-1.11-.08-.12-.18-.16-.24-.17-.06-.01-.17-.02-.29.05l-1.17.74c-.47.29-1.08.16-1.38-.31-.3-.47-.16-1.08.31-1.38l1.17-.74c.54-.34,1.18-.45,1.8-.32s1.15.51,1.5,1.05c.07.12.18.16.24.17.06.01.17.02.29-.05l1.17-.74c.46-.3,1.08-.16,1.38.31s.16,1.08-.31,1.38l-1.17.74c-.4.25-.84.37-1.28.37Z"/><path class="cls-4" d="m58.09,29.64c-.79,0-1.56-.39-2.02-1.11-.08-.12-.18-.16-.24-.17-.06-.01-.17-.02-.29.05l-1.17.74c-.47.3-1.08.16-1.38-.31-.3-.47-.16-1.08.31-1.38l1.17-.74c.54-.34,1.18-.45,1.8-.32s1.15.51,1.5,1.05c.07.12.18.16.24.17.06.01.17.02.29-.05l1.17-.74c.46-.3,1.08-.16,1.38.31s.16,1.08-.31,1.38l-1.17.74c-.4.25-.84.37-1.28.37Z"/><rect class="cls-1" x="12" y="55" width="40" height="5" rx="1" ry="1"/><path class="cls-4" d="m49,55H15c-.59-5.76-.98-12.12-1-19-.02-7.27.38-13.96,1-20h34c.62,6.04,1.02,12.73,1,20-.02,6.88-.41,13.24-1,19Z"/><path class="cls-1" d="m49,16H15l1.72-10.33c.16-.96,1-1.67,1.97-1.67h26.61c.98,0,1.81.71,1.97,1.67l1.72,10.33Z"/><circle class="cls-4" cx="22" cy="10" r="2"/><circle class="cls-4" cx="31" cy="10" r="2"/><path class="cls-4" d="m44,9h-6c-.55,0-1-.45-1-1s.45-1,1-1h6c.55,0,1,.45,1,1s-.45,1-1,1Z"/><path class="cls-4" d="m44,13h-6c-.55,0-1-.45-1-1s.45-1,1-1h6c.55,0,1,.45,1,1s-.45,1-1,1Z"/><rect class="cls-2" x="19" y="21" width="26" height="29"/><path class="cls-3" d="m24,47c-.55,0-1-.45-1-1v-21c0-.55.45-1,1-1s1,.45,1,1v21c0,.55-.45,1-1,1Z"/><path class="cls-3" d="m28,47c-.55,0-1-.45-1-1v-21c0-.55.45-1,1-1s1,.45,1,1v21c0,.55-.45,1-1,1Z"/><path class="cls-3" d="m32,47c-.55,0-1-.45-1-1v-21c0-.55.45-1,1-1s1,.45,1,1v21c0,.55-.45,1-1,1Z"/><path class="cls-3" d="m36,47c-.55,0-1-.45-1-1v-21c0-.55.45-1,1-1s1,.45,1,1v21c0,.55-.45,1-1,1Z"/><path class="cls-3" d="m40,47c-.55,0-1-.45-1-1v-21c0-.55.45-1,1-1s1,.45,1,1v21c0,.55-.45,1-1,1Z"/></svg>