<?xml version="1.0" encoding="UTF-8"?><svg id="Glyph" xmlns="http://www.w3.org/2000/svg" viewBox="0 0 64 64"><defs><style>.cls-1{stroke-width:0px;}</style></defs><path class="cls-1" d="m24.28,9.23s8.78,29.68,0,45.54h-13.19c-1.85,0-3.36-1.51-3.36-3.36v-7.47c0-.49.3-.95.75-1.15l4.75-2.12c.56-.25.51-1.07-.08-1.25l-4.52-1.36c-.53-.16-.9-.65-.9-1.21v-7.74l3.35,2.88c.19.16.42.24.65.24.18,0,.36-.05.52-.14l4.76-2.86,5.37,5.07c.19.18.44.27.69.27s.53-.11.72-.31c.38-.41.36-1.04-.04-1.42l-4.96-4.68,2.95-1.77c.47-.28.63-.9.34-1.37-.28-.48-.9-.63-1.37-.35l-8.88,5.33-4.1-3.52v-13.89c0-1.85,1.51-3.36,3.36-3.36h13.19Z"/><path class="cls-1" d="m44.8,12.59v19.44c-.18-.01-.35-.01-.53-.01-2.93,0-5.66.91-7.91,2.45-2.26-14.01-8.42-25.24-8.42-25.24h13.5c1.85,0,3.36,1.51,3.36,3.36Z"/><polygon class="cls-1" points="40.64 7.23 11.89 7.23 12.89 3.98 39.64 3.98 40.64 7.23"/><path class="cls-1" d="m39.86,59.31l-.22.71H12.89l-1-3.25h23.42c1.33,1.11,2.87,1.98,4.55,2.54Z"/><path class="cls-1" d="m44.27,34.02c-6.63,0-12,5.37-12,12s5.37,12,12,12,12-5.37,12-12-5.37-12-12-12Zm6.52,13.96c-.86,2.85-3.54,4.85-6.52,4.85-2.02,0-3.88-.93-5.15-2.4l-.16.72c-.1.47-.52.78-.98.78-.07,0-.15,0-.22-.02-.54-.12-.88-.65-.76-1.19l.72-3.24c.12-.53.63-.87,1.17-.76l3.26.63c.54.1.9.63.79,1.17-.1.54-.62.9-1.17.79l-1.19-.23c.9,1.07,2.23,1.75,3.68,1.75,2.1,0,4-1.41,4.6-3.42.16-.53.72-.83,1.25-.67.53.16.83.72.67,1.25Zm.75-6.65l-.72,3.24c-.1.46-.52.78-.98.78-.06,0-.13,0-.19-.02l-3.26-.63c-.54-.11-.9-.63-.79-1.17.11-.54.63-.89,1.17-.79l1.19.23c-.9-1.07-2.23-1.75-3.68-1.75-2.1,0-4,1.41-4.6,3.42-.16.53-.71.83-1.25.67-.53-.16-.83-.72-.67-1.25.86-2.85,3.54-4.85,6.52-4.85,2.02,0,3.88.93,5.15,2.4l.16-.72c.12-.54.66-.87,1.19-.76.54.12.88.65.76,1.19Z"/></svg>