<?xml version="1.0" encoding="UTF-8"?><svg id="Glyph" xmlns="http://www.w3.org/2000/svg" viewBox="0 0 64 64"><defs><style>.cls-1{stroke-width:0px;}</style></defs><path class="cls-1" d="m29.38,35.19c0-7.72,6.28-14,14-14,.98,0,1.93.1,2.85.29-.06-.51-.13-1.01-.22-1.52l-2.63-14.7c-.14-.76-.8-1.32-1.58-1.32H13.85c-.75,0-1.4.52-1.57,1.25l-1.98,8.86.04-.2,4.39,3.46,8.65-5.69c.46-.3,1.08-.17,1.38.29.31.46.18,1.08-.28,1.39l-2.88,1.88,5.15,4.48c.42.36.46.99.1,1.41-.2.23-.48.34-.76.34-.23,0-.46-.08-.65-.24l-5.57-4.85-4.65,3.05c-.16.11-.36.17-.55.17-.22,0-.43-.07-.62-.22l-4.19-3.31-.69,3.09c-.22.98-.38,1.97-.48,2.97-.06.62.35,1.2.95,1.38l5.06,1.53c.58.18.63.97.08,1.22l-4.75,2.12c-.6.27-.91.93-.75,1.56,1.52,5.88,5.93,12.69,18.16,13.14,0,0,1.77.15,4.22-.21-1.45-2.2-2.3-4.83-2.3-7.66Z"/><path class="cls-1" d="m43.38,23.2c-6.63,0-12,5.37-12,12s5.37,12,12,12,12-5.37,12-12-5.37-12-12-12Zm6.52,13.96c-.86,2.85-3.54,4.85-6.52,4.85-2.02,0-3.88-.93-5.15-2.4l-.16.72c-.1.47-.52.78-.98.78-.07,0-.15,0-.22-.02-.54-.12-.88-.65-.76-1.19l.72-3.24c.12-.53.63-.86,1.17-.76l3.26.63c.54.11.9.63.79,1.17-.11.54-.63.9-1.17.79l-1.19-.23c.9,1.07,2.23,1.75,3.68,1.75,2.1,0,4-1.41,4.6-3.42.16-.53.72-.83,1.25-.67.53.16.83.72.67,1.25Zm.75-6.65l-.72,3.24c-.1.46-.52.78-.98.78-.06,0-.13,0-.19-.02l-3.26-.63c-.54-.1-.9-.63-.79-1.17.1-.54.63-.9,1.17-.79l1.19.23c-.9-1.07-2.23-1.75-3.68-1.75-2.1,0-4,1.41-4.6,3.42-.16.53-.72.83-1.25.67-.53-.16-.83-.72-.67-1.25.86-2.85,3.54-4.85,6.52-4.85,2.02,0,3.88.93,5.15,2.4l.16-.72c.12-.54.66-.88,1.19-.76.54.12.88.65.76,1.19Z"/><path class="cls-1" d="m39.2,58.81l-8.18-3.31v-10.55c-1.03.11-1.91.14-2.56.14-.75,0-1.19-.04-1.19-.04-1.2-.04-2.3-.16-3.37-.32v10.76l-8.18,3.31c-.66.26-.47,1.24.23,1.24h23c.71,0,.89-.98.23-1.24Z"/></svg>