<?xml version="1.0" encoding="UTF-8"?><svg id="Glyph" xmlns="http://www.w3.org/2000/svg" viewBox="0 0 64 64"><defs><style>.cls-1{stroke-width:0px;}</style></defs><path class="cls-1" d="m16.97,29.14c-.18.93-.27,1.88-.27,2.86s.09,1.93.27,2.85h-6.31c-1.57,0-2.85-1.28-2.85-2.86s1.28-2.85,2.85-2.85h6.31Z"/><path class="cls-1" d="m56.19,32.01c0,1.58-1.28,2.85-2.85,2.85h-6.31c.18-.93.27-1.88.27-2.86s-.09-1.93-.27-2.85h6.31c1.57,0,2.85,1.28,2.85,2.86Z"/><path class="cls-1" d="m53.34,4.01l-42.67-.02c-1.58,0-2.86,1.28-2.86,2.86s1.28,2.86,2.86,2.86l42.67.02c1.58,0,2.86-1.28,2.86-2.86s-1.28-2.86-2.86-2.86Z"/><path class="cls-1" d="m53,11.72v15.43h-6.49c-2.02-6.07-7.76-10.45-14.51-10.45s-12.48,4.37-14.51,10.44h-6.49v-15.43h42Z"/><path class="cls-1" d="m53,36.86v15.43H11v-15.44h6.49c2.02,6.07,7.76,10.45,14.51,10.45s12.48-4.37,14.51-10.44h6.49Z"/><path class="cls-1" d="m53.34,54.29l-42.67-.02c-1.58,0-2.86,1.28-2.86,2.86s1.28,2.86,2.86,2.86l42.67.02c1.58,0,2.86-1.28,2.86-2.86s-1.28-2.86-2.86-2.86Z"/><path class="cls-1" d="m35.07,32c0,.07-.02.14-.02.2l7.51-1.18c.39-.06.67-.42.61-.81-.46-2.96-2.06-5.54-4.34-7.27-.32-.24-.78-.16-1.02.17l-4.41,6.18c.99.51,1.67,1.53,1.67,2.72Z"/><path class="cls-1" d="m33.75,34.51c-.5.35-1.1.56-1.75.56-.59,0-1.15-.18-1.62-.47l-2.9,6.91c-.15.37.01.81.38.95,1.28.51,2.67.79,4.13.79,1.6,0,3.12-.34,4.5-.94.36-.16.52-.6.35-.96l-3.09-6.84Z"/><path class="cls-1" d="m28.93,32c0-1.19.69-2.21,1.68-2.72l-4.41-6.18c-.23-.33-.7-.41-1.02-.17-2.29,1.73-3.89,4.31-4.35,7.28-.06.39.22.75.61.81l7.51,1.18c0-.07-.02-.13-.02-.2Z"/></svg>