<?xml version="1.0" encoding="UTF-8"?><svg id="Glyph" xmlns="http://www.w3.org/2000/svg" viewBox="0 0 64 64"><defs><style>.cls-1{stroke-width:0px;}</style></defs><path class="cls-1" d="m55.03,12.29v20.97c-2.07-1.21-4.47-1.9-7.03-1.9-4.46,0-8.45,2.1-11.01,5.36H7.39v-1.79c0-.42.23-.8.6-1l3.42-1.87c.43-.23.39-.86-.07-1.03l-3.2-1.18c-.45-.16-.75-.59-.75-1.07v-6.8l3.91,3.35c.19.16.42.24.65.24.18,0,.36-.04.51-.14l5.77-3.46,6.47,6.1c.19.19.44.28.68.28.27,0,.54-.11.73-.32.38-.4.36-1.03-.04-1.41l-6.06-5.72,3.71-2.22c.47-.28.62-.9.34-1.37-.28-.48-.9-.63-1.37-.35l-10.64,6.39-4.66-4v-7.06c0-3.11,2.54-5.65,5.65-5.65h6.39c0,.33.08.66.24.96l2.09,3.82c.61,1.31,1.92,2.14,3.36,2.14h12.36c1.5,0,2.83-.88,3.41-2.26l1.87-3.77c.14-.28.2-.59.2-.89h6.42c3.11,0,5.65,2.54,5.65,5.65Z"/><path class="cls-1" d="m34.55,49.24H8.66c-.42,0-.84-.11-1.21-.33-1.24-.75-3.71-3.01-3.43-9.14.03-.58.5-1.05,1.08-1.05h11.28c0,.39.11.78.33,1.12l2.78,4.1c.74,1.1,1.98,1.76,3.32,1.76h11.2c.02,1.23.21,2.41.54,3.54Z"/><path class="cls-1" d="m35.67,38.72c-.81,1.52-1.36,3.2-1.57,4.98h-11.29c-.67,0-1.29-.33-1.67-.88l-2.77-4.1h17.3Z"/><path class="cls-1" d="m40.97,6.64l-1.9,3.84c-.26.65-.89,1.08-1.59,1.08h-12.35c-.68,0-1.3-.4-1.57-1.03l-2.12-3.89h19.54Z"/><path class="cls-1" d="m48,33.36c-6.63,0-12,5.37-12,12s5.37,12,12,12,12-5.37,12-12-5.37-12-12-12Zm6.52,13.96c-.86,2.85-3.54,4.85-6.52,4.85-2.02,0-3.88-.93-5.15-2.4l-.16.72c-.1.47-.52.78-.97.78-.07,0-.15,0-.22-.02-.54-.12-.88-.66-.76-1.19l.72-3.24c.12-.53.63-.87,1.17-.76l3.26.63c.54.1.9.63.79,1.17-.1.54-.63.9-1.17.79l-1.19-.23c.9,1.07,2.23,1.75,3.68,1.75,2.11,0,4-1.41,4.6-3.42.16-.53.71-.83,1.25-.67.53.16.83.72.67,1.25Zm.74-6.65l-.72,3.24c-.1.46-.52.78-.97.78-.06,0-.13,0-.19-.02l-3.26-.63c-.54-.11-.9-.63-.79-1.17s.63-.89,1.17-.79l1.19.23c-.9-1.07-2.23-1.75-3.68-1.75-2.1,0-4,1.41-4.6,3.42-.16.53-.71.83-1.25.67-.53-.16-.83-.72-.67-1.25.86-2.85,3.54-4.85,6.52-4.85,2.02,0,3.88.93,5.15,2.4l.16-.72c.12-.54.66-.88,1.19-.76.54.12.88.65.76,1.19Z"/></svg>