<?xml version="1.0" encoding="UTF-8"?><svg id="Glyph" xmlns="http://www.w3.org/2000/svg" viewBox="0 0 64 64"><defs><style>.cls-1{stroke-width:0px;}</style></defs><path class="cls-1" d="m34.37,51.58v-4.03c.01-3.81,2.5-7.05,5.94-8.17-.5-.66-.8-1.48-.8-2.37,0-1.04.41-1.97,1.07-2.68l-.72-2.44c-.25-.83-.08-1.73.43-2.42.52-.69,1.34-1.1,2.2-1.1h6.55l.14-1.19H8.5l2.84,24.42c.07,0,.15-.02.23-.02h22.8Z"/><path class="cls-1" d="m34.37,53.95v-.37H11.57l.42,3.63c.18,1.59,1.53,2.79,3.12,2.79h17.59c-.42-.66-.66-1.44-.66-2.27,0-1.64.95-3.07,2.33-3.78Z"/><path class="cls-1" d="m57.16,55.47v-7.91c0-3.64-2.98-6.61-6.61-6.61h-7.56c-3.64,0-6.61,2.97-6.61,6.61v7.91c-1.29,0-2.34,1.02-2.34,2.27s1.05,2.27,2.34,2.27h20.79c1.29,0,2.34-1.02,2.34-2.27s-1.05-2.27-2.34-2.27Z"/><path class="cls-1" d="m41.51,37.01c0,1.07.87,1.93,1.93,1.93h6.67c1.07,0,1.93-.87,1.93-1.93,0-.89-.6-1.62-1.41-1.85l1.13-3.84c.14-.48-.22-.95-.71-.95h-8.56c-.5,0-.85.48-.71.95l1.13,3.84c-.81.23-1.4.97-1.4,1.85Z"/><path class="cls-1" d="m6.42,17.34h44.84c1.06,0,1.92.86,1.92,1.92v3.99c0,1.06-.86,1.92-1.92,1.92H6.42c-1.06,0-1.92-.86-1.92-1.92v-3.99c0-1.06.86-1.92,1.92-1.92Z"/><path class="cls-1" d="m45.88,5.8c-.43-1.09-1.48-1.8-2.65-1.8h-1.88s0,.02,0,.03v5.06c0,2.11-1.72,3.83-3.83,3.83h-17.36c-2.11,0-3.83-1.72-3.83-3.83v-5.06s0-.02,0-.03h-1.87c-1.16,0-2.21.71-2.64,1.8l-3.63,9.54h41.28l-3.6-9.54Z"/><path class="cls-1" d="m20.16,10.92h17.36c1.01,0,1.83-.82,1.83-1.83v-5.06h-21.01v5.06c0,1.01.82,1.83,1.83,1.83Z"/></svg>