<?xml version="1.0" encoding="UTF-8"?><svg id="Glyph" xmlns="http://www.w3.org/2000/svg" viewBox="0 0 64 64"><defs><style>.cls-1{stroke-width:0px;}</style></defs><path class="cls-1" d="m30.56,20.66c-.84-.35-1.74-.58-2.68-.69.04,0,.08,0,.12,0v-3.86c0-.48-.39-.86-.86-.86h-9.12c-.48,0-.86.39-.86.86v3.86c.39-.05.79-.07,1.19-.07-3.73,0-6.99,2.11-8.66,5.19h15.11c1.39-2.03,3.41-3.6,5.77-4.44Z"/><path class="cls-1" d="m23.68,27.1h-14.81c-.24.84-.37,1.73-.37,2.65v1.73h14.23c.03-1.56.37-3.03.95-4.38Z"/><path class="cls-1" d="m56.78,33.48h-4.4v6.87c0,2.71-2.2,4.91-4.91,4.91h-.44c-2.71,0-4.91-2.2-4.91-4.91v-1.3c0-.5-.41-.9-.91-.9h-.11c-.49,0-.91.42-.91.91v4.91c0,2.7-2.2,4.9-4.91,4.9h-.24c-2.7,0-4.9-2.2-4.9-4.9v-10.29c0-.07-.01-.13-.01-.2h-5.4s-.02,0-.03,0H6.47c-1.41,0-2.41,1.38-1.98,2.72l5.01,15.41c.2-.06.4-.11.61-.11h43c.21,0,.41.04.61.11l5.01-15.41c.43-1.33-.55-2.7-1.95-2.72Z"/><path class="cls-1" d="m11.18,56.78c.62,1.92,2.41,3.22,4.43,3.22h32c2.02,0,3.81-1.3,4.43-3.22l1.07-3.28H10.11l1.07,3.28Z"/><path class="cls-1" d="m24.73,31.48h7.4v2h.01v10.49c0,1.59,1.3,2.9,2.9,2.9h.24c1.6,0,2.91-1.31,2.91-2.9v-4.91c0-1.6,1.31-2.91,2.91-2.91h.11c1.6,0,2.91,1.3,2.91,2.9v1.3c0,1.6,1.31,2.91,2.91,2.91h.44c1.6,0,2.91-1.31,2.91-2.91v-8.87h7.62c1.02-1.54,1.61-3.38,1.61-5.37,0-5.41-4.39-9.8-9.79-9.8-4.64,0-8.52,3.22-9.54,7.54-1.62-1.18-3.61-1.88-5.76-1.88-5.32,0-9.65,4.23-9.79,9.51Z"/><path class="cls-1" d="m11.11,11.45h7.42v1.81h8.1v-1.81h2.55c.17,2.31,1.61,6.02,6.25,6.61.04,0,.09,0,.13,0,.5,0,.93-.37.99-.87.07-.55-.32-1.05-.86-1.12-3.63-.46-4.35-3.4-4.49-4.63h1.34c.55,0,1-.45,1-1v-.88h2.86c.43,0,.78-.35.78-.78v-3.02c0-.43-.35-.78-.78-.78h-2.86v-.97c0-.55-.45-1-1-1H14.6c-2.48,0-4.49,2.01-4.49,4.49v2.96c0,.55.45,1,1,1Z"/></svg>