<?xml version="1.0" encoding="UTF-8"?><svg id="Glyph" xmlns="http://www.w3.org/2000/svg" viewBox="0 0 64 64"><defs><style>.cls-1{stroke-width:0px;}</style></defs><path class="cls-1" d="m5.32,29.57s0-.03,0-.04c0,.01,0,.03,0,.04Z"/><path class="cls-1" d="m41.75,15.2c-4.45-1.42-9.23-.18-13.24,2.9-4.01-3.07-8.79-4.3-13.24-2.87-5.36,1.71-8.89,6.86-9.79,13.16l3.92,2.86,7.87-5.63c.45-.32,1.07-.22,1.39.23.32.45.22,1.08-.23,1.4l-2.56,1.83,4.93,3.95c.43.35.5.98.16,1.41-.2.24-.49.37-.78.37-.22,0-.44-.07-.63-.22l-5.37-4.3-4.2,3c-.17.13-.38.19-.58.19-.21,0-.41-.07-.59-.19l-3.54-2.58c-.11,2.77.25,5.69,1.19,8.6.13.4.26.8.41,1.19.23.63.87,1.01,1.53.96l4.6-.33c.6-.04.96.67.56,1.13l-2.87,3.31c-.46.53-.51,1.31-.09,1.88,4.49,6.13,11.07,9.71,17.03,7.8.32-.1.61-.23.92-.36.31.13.61.26.93.36,2,.64,4.06.66,6.09.17-1.76-2.34-2.8-5.24-2.8-8.38,0-7.72,6.28-14,14-14,1.73,0,3.4.32,4.93.9.85-8.71-3.06-16.55-9.95-18.74Zm5.63,15.47c-.06.01-.12.01-.18.01-.47,0-.89-.34-.98-.82-1.68-9.38-8.63-9.06-8.92-9.04-.56.04-1.02-.39-1.06-.94-.04-.54.37-1.02.92-1.06.09-.01,9.03-.51,11.03,10.69.1.54-.27,1.06-.81,1.16Z"/><path class="cls-1" d="m46.77,35.04c-6.63,0-12,5.37-12,12s5.37,12,12,12,12-5.37,12-12-5.37-12-12-12Zm6.52,13.96c-.86,2.85-3.54,4.85-6.52,4.85-2.02,0-3.88-.93-5.15-2.4l-.16.72c-.1.47-.52.78-.97.78-.07,0-.15,0-.22-.02-.54-.12-.88-.66-.76-1.19l.72-3.24c.12-.53.63-.87,1.17-.76l3.26.63c.54.1.9.63.79,1.17-.11.54-.63.9-1.17.79l-1.19-.23c.9,1.07,2.23,1.75,3.68,1.75,2.11,0,4-1.41,4.6-3.42.16-.53.71-.83,1.25-.67.53.16.83.72.67,1.25Zm.74-6.65l-.72,3.24c-.1.46-.52.78-.97.78-.06,0-.13,0-.19-.02l-3.26-.63c-.54-.11-.9-.63-.79-1.17.11-.54.63-.89,1.17-.79l1.19.23c-.9-1.07-2.23-1.75-3.68-1.75-2.1,0-4,1.41-4.6,3.42-.16.53-.71.83-1.25.67-.53-.16-.83-.72-.67-1.25.86-2.85,3.54-4.85,6.52-4.85,2.02,0,3.88.93,5.15,2.4l.16-.72c.12-.54.66-.87,1.19-.76.54.12.88.65.76,1.19Z"/><path class="cls-1" d="m28.51,15.65c1.76-1.17,3.6-2,5.48-2.5,2.01-3.51,2.45-6.96.92-7.93-1.64-1.05-4.92,1.17-7.34,4.95-.86,1.34-1.49,2.7-1.87,3.94.95.43,1.9.93,2.81,1.54Z"/></svg>