<?xml version="1.0" encoding="UTF-8"?><svg id="Glyph" xmlns="http://www.w3.org/2000/svg" viewBox="0 0 64 64"><defs><style>.cls-1{stroke-width:0px;}</style></defs><path class="cls-1" d="m59.43,37.69l-5.83-11.34c-.54-1.05-1.62-1.71-2.8-1.71h-8.05v24.6h.64c.43,3.53,3.44,6.27,7.08,6.27s6.65-2.74,7.08-6.27h.19c1.26,0,2.28-1.02,2.28-2.28v-6.79c0-.86-.21-1.71-.6-2.48Zm-11.87-11.05h3.25c.43,0,.83.24,1.02.63l3.9,7.6h-6.43c-.96,0-1.74-.78-1.74-1.74v-6.48Zm2.92,26.88c-2.84,0-5.14-2.31-5.14-5.15s2.31-5.14,5.14-5.14,5.14,2.31,5.14,5.14-2.31,5.15-5.14,5.15Z"/><path class="cls-1" d="m50.48,46.06c-1.28,0-2.31,1.04-2.31,2.31s1.04,2.31,2.31,2.31,2.31-1.04,2.31-2.31-1.03-2.31-2.31-2.31Z"/><path class="cls-1" d="m16.08,41.23c-1.54,0-2.96.49-4.13,1.32H3.97v3.65c0,1.68,1.36,3.04,3.04,3.04h1.99c.43,3.53,3.44,6.27,7.08,6.27s6.65-2.74,7.08-6.27h17.58v-6.69h-20.54c-1.17-.83-2.59-1.32-4.13-1.32Zm0,12.29c-2.84,0-5.14-2.31-5.14-5.15s2.31-5.14,5.14-5.14,5.14,2.31,5.14,5.14-2.31,5.15-5.14,5.15Z"/><path class="cls-1" d="m16.08,46.06c-1.28,0-2.31,1.04-2.31,2.31s1.04,2.31,2.31,2.31,2.31-1.04,2.31-2.31-1.03-2.31-2.31-2.31Z"/><path class="cls-1" d="m37.71,9.49H7.01c-1.68,0-3.04,1.36-3.04,3.04v28.02s0,0,0,0h36.78s0,0,0,0V12.53c0-1.68-1.36-3.04-3.04-3.04Zm-15.73,29.37c-6.63,0-12-5.37-12-12s5.37-12,12-12,12,5.37,12,12-5.37,12-12,12Z"/><path class="cls-1" d="m27.83,27.57c-.53-.16-1.09.14-1.25.67-.6,2.02-2.5,3.42-4.6,3.42-1.45,0-2.79-.68-3.68-1.75l1.19.23c.54.11,1.07-.25,1.17-.79.11-.54-.25-1.07-.79-1.17l-3.26-.63c-.53-.11-1.05.23-1.17.76l-.72,3.24c-.12.54.22,1.07.76,1.19.07.02.15.02.22.02.46,0,.87-.32.97-.78l.16-.72c1.27,1.47,3.13,2.4,5.15,2.4,2.98,0,5.66-1.99,6.52-4.85.16-.53-.14-1.09-.67-1.25Z"/><path class="cls-1" d="m28.49,20.97c-.54-.12-1.07.22-1.19.76l-.16.72c-1.27-1.47-3.13-2.4-5.15-2.4-2.98,0-5.66,1.99-6.52,4.85-.16.53.14,1.09.67,1.25.53.16,1.09-.14,1.25-.67.6-2.02,2.5-3.42,4.6-3.42,1.45,0,2.79.68,3.68,1.75l-1.19-.23c-.54-.1-1.07.25-1.17.79s.25,1.07.79,1.17l3.26.63c.06.01.13.02.19.02.46,0,.87-.32.97-.78l.72-3.24c.12-.54-.22-1.07-.76-1.19Z"/></svg>