<?xml version="1.0" encoding="UTF-8"?><svg id="Glyph" xmlns="http://www.w3.org/2000/svg" viewBox="0 0 64 64"><defs><style>.cls-1{stroke-width:0px;}</style></defs><path class="cls-1" d="m36.21,14.24h-12.17c-1.95,0-3.53,1.58-3.53,3.53s1.58,3.53,3.53,3.53h12.17c1.95,0,3.53-1.58,3.53-3.53s-1.58-3.53-3.53-3.53Z"/><path class="cls-1" d="m36.26,58.29c-3.94-4.47-4.37-10.58-1.19-16.79.47-.92,1.41-1.5,2.45-1.5s1.99.58,2.46,1.49c.64-1.18,1.22-2.05,1.38-2.29.97-1.64,1.25-3.35,1.31-4.5.07-1.47,1.29-2.62,2.77-2.62.82,0,1.6.37,2.12,1.01.58.71,1.08,1.42,1.52,2.13-.09-6.56-5.47-11.9-12.05-11.9h-13.8c-6.63,0-12.06,5.43-12.06,12.06v16.37c-2.35,0-4.27,1.86-4.27,4.14s1.92,4.14,4.27,4.14h27.28c-1.36-.84-2.11-1.64-2.17-1.71Z"/><path class="cls-1" d="m53.97,40.48c-.4-.55-1.3-.35-1.38.33-.13.97-.56,2.11-1.69,3.01-.34.27-.86.06-.92-.38-.23-1.7-1.05-5.5-3.98-9.09-.44-.53-1.31-.24-1.35.45-.07,1.45-.42,3.5-1.62,5.48,0,0-1.53,2.22-2.47,4.6-.16.4-.68.49-.96.17-.45-.52-1.01-1.36-1.36-2.5-.2-.66-1.09-.75-1.41-.14-1.56,3.04-3.73,9.28.9,14.53,0,0,2.25,2.47,6.36,2.96-.14-.11-.22-.19-.22-.19-5.42-5.44-1.73-11.06.17-13.29.31-.36.91-.16.93.32.07,1.4.44,3.46,1.98,3.77,0,0,.98-.26,1.64-1.44.19-.34.67-.4.9-.07,1.26,1.82,3.86,6.67-1.05,10.54l-.24.17s.05,0,.08-.01c0,0,6.05-.78,8.35-7.11,0,0,2.12-5.64-2.68-12.11Z"/><path class="cls-1" d="m37.63,4h-15.03c-1.05,0-1.81,1.01-1.51,2.02l1.87,6.33c.35-.07.72-.11,1.09-.11h5.07v-4.52c0-.55.45-1,1-1s1,.45,1,1v4.52h5.1c.36,0,.72.04,1.07.11l1.86-6.33c.3-1.01-.46-2.02-1.51-2.02Z"/></svg>