<?xml version="1.0" encoding="UTF-8"?><svg id="Glyph" xmlns="http://www.w3.org/2000/svg" viewBox="0 0 64 64"><defs><style>.cls-1{stroke-width:0px;}</style></defs><path class="cls-1" d="m49.06,3.99h-5.44c-.76,0-1.37.61-1.37,1.37l-.02,14.89c0,.85-.68,1.53-1.53,1.53h-2.88c-.49,0-.94-.29-1.14-.74l-1.39-3.1c-.27-.59-.86-.97-1.51-.97h-10.28c-.63,0-1.21.37-1.48.94l-1.49,3.15c-.21.44-.65.72-1.14.72h-2.88c-.85,0-1.54-.68-1.54-1.53l.02-14.89c0-.76-.62-1.37-1.38-1.37h-5.43c-1.19,0-2.16.97-2.16,2.16v25.54s3.93,3.38,3.93,3.38l8.88-5.33c.47-.28,1.08-.13,1.37.35.28.47.13,1.08-.34,1.37l-2.95,1.77,4.96,4.68c.4.38.42,1.01.04,1.41-.2.21-.46.32-.73.32-.24,0-.49-.09-.68-.28l-5.37-5.06-4.77,2.85c-.16.1-.34.15-.51.15-.24,0-.47-.09-.65-.24l-3.19-2.73v6.74l7.15,1.89-7.16,2.8v3.9h26.1c-.07-.54-.1-1.09-.1-1.65,0-7.72,6.28-14,14-14,1.84,0,3.6.36,5.21,1.01V6.15c0-1.19-.96-2.16-2.15-2.16Zm-18.44,18.78h-4.04c-.55,0-1-.45-1-1s.45-1,1-1h4.04c.55,0,1,.44,1,1s-.45,1-1,1Z"/><path class="cls-1" d="m35.46,57.21H9.89c-2.14,0-3.89-1.75-3.89-3.89v-1.66h26.49c.56,2.09,1.59,3.98,2.97,5.55Z"/><path class="cls-1" d="m46,36.01c-6.63,0-12,5.37-12,12s5.37,12,12,12,12-5.37,12-12-5.37-12-12-12Zm6.52,13.95c-.86,2.85-3.54,4.85-6.52,4.85-2.02,0-3.88-.93-5.15-2.4l-.16.72c-.1.47-.52.78-.98.78-.07,0-.15,0-.22-.02-.54-.12-.88-.65-.76-1.19l.72-3.24c.12-.53.64-.87,1.17-.76l3.26.63c.54.11.9.63.79,1.17-.1.54-.63.9-1.17.79l-1.19-.23c.9,1.07,2.23,1.75,3.68,1.75,2.1,0,4-1.41,4.6-3.42.16-.53.72-.83,1.25-.67.53.16.83.72.67,1.25Zm.75-6.64l-.72,3.24c-.1.46-.52.78-.98.78-.06,0-.13,0-.19-.02l-3.26-.63c-.54-.1-.9-.63-.79-1.17.11-.54.63-.9,1.17-.79l1.19.23c-.9-1.07-2.23-1.75-3.68-1.75-2.1,0-4,1.41-4.6,3.42-.16.53-.72.83-1.25.67-.53-.16-.83-.72-.67-1.25.86-2.85,3.54-4.85,6.52-4.85,2.02,0,3.88.93,5.15,2.4l.16-.72c.12-.54.66-.88,1.19-.76.54.12.88.65.76,1.19Z"/></svg>