<?xml version="1.0" encoding="UTF-8"?><svg id="Glyph" xmlns="http://www.w3.org/2000/svg" viewBox="0 0 64 64"><defs><style>.cls-1{stroke-width:0px;}</style></defs><path class="cls-1" d="m12,26h.02c.14,4.95,2.94,9.27,6.98,11.46v3.45c0,1.31.65,2.52,1.74,3.25,2.58,1.72,5.94,1.72,8.52,0,1.09-.73,1.74-1.94,1.74-3.25v-3.37c1.13-.59,2.17-1.34,3.11-2.26,2.51-2.46,3.89-5.76,3.89-9.28,1.66,0,3-1.34,3-3,0-1.3-.84-2.4-2-2.82v-2.18c0-7.73-6.27-14-14-14s-14,6.27-14,14v2.18c-1.17.4-2,1.51-2,2.82,0,1.66,1.34,3,3,3Zm13-9c3.16,1.96,6.8,3,10.52,3h.48v6c0,2.98-1.17,5.76-3.29,7.85-2.12,2.08-4.98,3.18-7.91,3.15-5.95-.11-10.79-5.22-10.79-11.4v-5.6h.48c3.72,0,7.36-1.04,10.52-3Z"/><path class="cls-1" d="m36.45,42.61c.46-.65,1.01-1.24,1.63-1.75-.29-.07-.58-.13-.87-.17l-4.2-.59v.8c0,1.97-.98,3.81-2.63,4.91-1.6,1.07-3.46,1.63-5.37,1.63s-3.77-.56-5.37-1.63c-1.65-1.1-2.63-2.94-2.63-4.91v-.8l-4.2.59c-1.43.2-2.8.69-4.04,1.43-2.95,1.78-4.76,4.98-4.76,8.43v9.44h5.82v-16.17c1-.6,2.09-.99,3.25-1.15l2.07-.29c.14.72.38,1.42.71,2.07v3.56c0,1.65,1.33,2.98,2.98,2.98h12.34c1.64,0,2.98-1.33,2.98-2.98v-3.56c.33-.65.57-1.35.71-2.07l1.59.22Z"/><path class="cls-1" d="m57.66,55.46v-7.91c0-3.64-2.98-6.61-6.61-6.61h-7.56c-3.64,0-6.61,2.97-6.61,6.61v7.91c-1.29,0-2.34,1.02-2.34,2.27s1.05,2.27,2.34,2.27h20.79c1.29,0,2.34-1.02,2.34-2.27s-1.05-2.27-2.34-2.27Z"/><path class="cls-1" d="m42.01,37.01c0,1.07.87,1.93,1.93,1.93h6.67c1.07,0,1.93-.87,1.93-1.93,0-.89-.6-1.62-1.41-1.85l1.08-3.66c.17-.57-.26-1.13-.85-1.13h-8.19c-.59,0-1.01.57-.85,1.13l1.08,3.66c-.81.23-1.4.97-1.4,1.85Z"/><path class="cls-1" d="m19.93,54.83h-4.23c-.55,0-1,.45-1,1s.45,1,1,1h4.23c.55,0,1-.45,1-1s-.45-1-1-1Z"/></svg>