<?xml version="1.0" encoding="UTF-8"?><svg id="Glyph" xmlns="http://www.w3.org/2000/svg" viewBox="0 0 64 64"><defs><style>.cls-1{stroke-width:0px;}</style></defs><path class="cls-1" d="m35.2,42.33s-.01,0-.02-.02c-.19-.18-.29-.44-.29-.7v-2.17l-7.78,8.28,7.77,8.28v-1.67c0-.28.12-.53.3-.72-.76-1.72-1.18-3.61-1.18-5.61s.43-3.94,1.2-5.67Zm-10.19,6.07c-.36-.38-.36-.98,0-1.37l4.17-4.43h-12.65l-3.23,6.26s-1.45,3.82,2.51,4.48h13.83l-4.63-4.94Zm-4.73-29.49l-10.76,3.63,1.52.69c.25.12.45.33.53.6.09.27.06.56-.07.8l-6.08,10.83c-1.16,2.55.37,4.66.43,4.75l5.46,8.33c.05-.25.17-.53.17-.53l9.83-19.04c.25-.48.82-.68,1.31-.45l1.96.9-4.3-10.51Zm7.21-11.1s-.77-1.37-2.64-1.34c-1.68,0-2.48,1.41-2.49,1.42l-7.01,10.57,5.18-1.75c.5-.16,1.05.08,1.25.57l2.8,6.84,6.56-9.96-3.65-6.35Zm22.55,11.63c-.24.15-.53.19-.8.12s-.49-.25-.62-.5l-5.47-10.34c-1.5-2.37-4.11-2.25-4.21-2.24h-9.95s.22.31.22.31l10.39,18.09c.27.46.12,1.06-.33,1.34l-1.83,1.16,11.14,2.16,2.87-10.99-1.41.89Zm8.8,17.04l-6.4-13.81-2.16,8.28c-.12.45-.52.75-.97.75-.06,0-.12-.01-.19-.02l-4.8-.93,1.58,3.41c.69-.11,1.39-.16,2.1-.16,4.28,0,8.12,1.93,10.68,4.97.37-.65.42-1.47.16-2.49Z"/><path class="cls-1" d="m48,36c-6.63,0-12,5.37-12,12s5.37,12,12,12,12-5.37,12-12-5.37-12-12-12Zm6.39,16c.33.33.33.86,0,1.19l-1.63,1.63c-.33.33-.86.33-1.19,0l-3.57-3.57-3.57,3.57c-.33.33-.86.33-1.19,0l-1.63-1.63c-.33-.33-.33-.86,0-1.19l3.57-3.57-3.57-3.57c-.33-.33-.33-.86,0-1.19l1.63-1.63c.33-.33.86-.33,1.19,0l3.57,3.57,3.57-3.57c.33-.33.86-.33,1.19,0l1.63,1.63c.33.33.33.86,0,1.19l-3.57,3.57,3.57,3.57Z"/></svg>