<?xml version="1.0" encoding="UTF-8"?><svg id="Glyph" xmlns="http://www.w3.org/2000/svg" viewBox="0 0 64 64"><defs><style>.cls-1{stroke-width:0px;}</style></defs><path class="cls-1" d="m52.09,39.97c-4.16-.07-17.95.99-14.56,18.41,0-.03-.01-.07-.02-.1,2.27-2.66,5.79-7.01,7.38-10.1.26-.49.86-.68,1.35-.43.49.26.68.86.43,1.35-1.7,3.29-5.3,7.75-7.62,10.48,4.2.26,17.08-.39,14.38-18.45-.1-.66-.67-1.16-1.34-1.17Z"/><path class="cls-1" d="m60,32c0-15.46-12.54-28-28-28-4.14,0-8.07.91-11.61,2.52.44.39.85.81,1.24,1.26.08.09.14.19.22.28,3.05-1.3,6.4-2.03,9.91-2.06v15.47c0,1.97,1.57,3.57,3.5,3.57s3.49-1.6,3.49-3.57v-2.38c0-1.86,1.48-3.37,3.29-3.37s3.3,1.51,3.3,3.37v7.56c0,2.57,2.05,4.67,4.56,4.67s4.56-2.1,4.56-4.67v-7.75c2.25,3.85,3.55,8.32,3.55,13.09,0,3.85-.85,7.51-2.36,10.81.14,1.41.17,2.74.12,4.01,2.69-4.3,4.24-9.37,4.24-14.82Z"/><path class="cls-1" d="m35.41,57.77c-1.12.15-2.26.23-3.41.23-5.66,0-10.89-1.82-15.16-4.9h5.1c1.97,0,3.58-1.58,3.58-3.5s-1.61-3.49-3.58-3.49h-2.38c-1.86,0-3.37-1.48-3.37-3.3s1.51-3.29,3.37-3.29h7.22c2.57,0,4.67-2.05,4.67-4.56s-2.1-4.56-4.67-4.56H6.05c.19-3.16.95-6.16,2.18-8.92-.58-.39-1.1-.85-1.6-1.33-1.68,3.6-2.63,7.61-2.63,11.85,0,15.46,12.54,28,28,28,1.32,0,2.62-.1,3.9-.28-.14-.27-.25-.56-.31-.86-.07-.37-.12-.73-.18-1.09Z"/><path class="cls-1" d="m21.15,22.03c-3.31-4.28-8.66-9.44-8.72-9.5-.4-.38-.41-1.02-.03-1.41.39-.4,1.02-.41,1.42-.03.25.24,5.44,5.25,8.84,9.6.64-4.07,1.3-17.14-17.07-16.07-.67.04-1.21.56-1.28,1.23-.44,4.12-.63,17.86,16.84,16.17Z"/><polygon class="cls-1" points="22.63 20.85 22.63 20.86 22.63 20.86 22.63 20.85"/></svg>