<?xml version="1.0" encoding="UTF-8"?><svg id="Glyph" xmlns="http://www.w3.org/2000/svg" viewBox="0 0 64 64"><defs><style>.cls-1{stroke-width:0px;}</style></defs><path class="cls-1" d="m52.64,15.34H11.36l3.62-9.54c.44-1.09,1.48-1.8,2.65-1.8h1.86v5.09c0,2.11,1.72,3.83,3.83,3.83h17.36c2.11,0,3.83-1.72,3.83-3.83v-5.09h1.88c1.17,0,2.22.71,2.65,1.8l3.6,9.54Z"/><circle class="cls-1" cx="34.75" cy="33.57" r=".98"/><rect class="cls-1" x="22.23" y="32.28" width="5.66" height="13.77" rx="1.26" ry="1.26"/><circle class="cls-1" cx="42.43" cy="43.92" r=".98"/><path class="cls-1" d="m11.66,27.18l2.84,24.41c.07-.01.15-.01.23-.01h34.54c.08,0,.16,0,.23.01l2.84-24.41H11.66Zm18.23,17.61c0,1.8-1.46,3.26-3.26,3.26h-3.14c-1.8,0-3.26-1.46-3.26-3.26v-11.24c0-1.8,1.46-3.26,3.26-3.26h3.14c1.8,0,3.26,1.46,3.26,3.26v11.24Zm1.87-11.22c0-1.64,1.34-2.98,2.98-2.98s2.98,1.34,2.98,2.98-1.34,2.98-2.98,2.98-2.98-1.34-2.98-2.98Zm2.62,14.04c-.16,0-.33-.04-.48-.12-.48-.27-.66-.87-.39-1.36l8.05-14.65c.27-.48.87-.66,1.36-.4.48.27.66.87.39,1.36l-8.05,14.65c-.18.33-.52.52-.88.52Zm8.05-.72c-1.64,0-2.98-1.34-2.98-2.98s1.34-2.98,2.98-2.98,2.98,1.34,2.98,2.98-1.34,2.98-2.98,2.98Z"/><path class="cls-1" d="m49.27,53.58l-.42,3.64c-.18,1.58-1.52,2.78-3.12,2.78h-27.46c-1.6,0-2.94-1.2-3.12-2.78l-.42-3.64h34.54Z"/><path class="cls-1" d="m42.51,4v5.09c0,1.01-.82,1.83-1.83,1.83h-17.36c-1.01,0-1.83-.82-1.83-1.83v-5.09h21.02Z"/><rect class="cls-1" x="7.66" y="17.34" width="48.68" height="7.84" rx="1.92" ry="1.92"/></svg>