<?xml version="1.0" encoding="UTF-8"?><svg id="Glyph" xmlns="http://www.w3.org/2000/svg" viewBox="0 0 64 64"><defs><style>.cls-1{stroke-width:0px;}</style></defs><path class="cls-1" d="m47.78,16.74h-11.15c-.84,0-1.52-.68-1.52-1.52V4.2c.25.11.49.27.69.47l11.51,11.39c.2.2.36.43.47.68Z"/><path class="cls-1" d="m48,18.71v10.61c-.97-.21-1.97-.32-3-.32-7.72,0-14,6.28-14,14,0,2.98.94,5.75,2.53,8.02H7v-7.96c0-.52.33-.98.82-1.14l5.9-1.96c.65-.22.64-1.14-.02-1.34l-5.85-1.78c-.5-.16-.85-.62-.85-1.15v-9.9l5.2,4.46c.18.16.41.24.65.24.17,0,.35-.05.51-.14l4.76-2.86,5.38,5.07c.19.18.44.27.68.27.27,0,.53-.11.73-.31.38-.4.36-1.04-.04-1.42l-4.96-4.68,2.95-1.77c.47-.28.62-.9.34-1.37-.29-.48-.9-.63-1.37-.34l-8.88,5.32-5.95-5.09V7.53c0-1.95,1.58-3.53,3.53-3.53h22.6c0,.07-.02.13-.02.2v11.02c0,1.94,1.58,3.52,3.52,3.52h11.15c.08,0,.15-.02.22-.03Z"/><path class="cls-1" d="m47.99,56.68c-.11,1.85-1.64,3.32-3.52,3.32H10.53c-1.95,0-3.53-1.58-3.53-3.53v-3.45h28.23c2.53,2.46,5.97,3.98,9.77,3.98,1.03,0,2.03-.11,2.99-.32Z"/><path class="cls-1" d="m45,31c-6.63,0-12,5.37-12,12s5.37,12,12,12,12-5.37,12-12-5.37-12-12-12Zm6.52,13.96c-.86,2.85-3.54,4.85-6.52,4.85-2.02,0-3.88-.93-5.15-2.4l-.16.72c-.1.47-.52.78-.98.78-.07,0-.15,0-.22-.02-.54-.12-.88-.65-.76-1.19l.72-3.24c.12-.53.63-.87,1.17-.76l3.26.63c.54.1.9.63.79,1.17s-.63.9-1.17.79l-1.19-.23c.9,1.07,2.23,1.75,3.68,1.75,2.1,0,4-1.41,4.6-3.42.16-.53.72-.83,1.25-.67.53.16.83.72.67,1.25Zm.75-6.65l-.72,3.24c-.1.46-.52.78-.98.78-.06,0-.13,0-.19-.02l-3.26-.63c-.54-.1-.9-.63-.79-1.17.11-.54.63-.9,1.17-.79l1.19.23c-.9-1.07-2.23-1.75-3.68-1.75-2.1,0-4,1.41-4.6,3.42-.16.53-.72.83-1.25.67-.53-.16-.83-.72-.67-1.25.86-2.85,3.54-4.85,6.52-4.85,2.02,0,3.88.93,5.15,2.4l.16-.72c.12-.54.66-.88,1.19-.76.54.12.88.65.76,1.19Z"/></svg>