<?xml version="1.0" encoding="UTF-8"?><svg id="Glyph" xmlns="http://www.w3.org/2000/svg" viewBox="0 0 64 64"><defs><style>.cls-1{stroke-width:0px;}</style></defs><path class="cls-1" d="m53.23,52.08s6.74-14.01-1.9-27.02l-38.64-.02c-8.67,13.01-1.92,27.04-1.92,27.04-1.97,0-3.58,1.62-3.58,3.59v.71c0,1.97,1.61,3.59,3.58,3.59h42.46c1.97,0,3.58-1.62,3.58-3.59v-.71c0-1.97-1.61-3.59-3.58-3.59Zm-21.23.85c-6.63,0-12-5.37-12-12s5.37-12,12-12,12,5.37,12,12-5.37,12-12,12Z"/><path class="cls-1" d="m37.85,41.64c-.53-.16-1.09.14-1.25.67-.6,2.01-2.5,3.42-4.6,3.42-1.45,0-2.79-.68-3.68-1.75l1.19.23c.55.11,1.07-.25,1.17-.79.1-.54-.25-1.07-.79-1.17l-3.26-.63c-.53-.1-1.05.24-1.17.76l-.72,3.24c-.12.54.22,1.07.76,1.19.07.02.15.02.22.02.46,0,.87-.32.98-.78l.16-.72c1.27,1.47,3.13,2.4,5.15,2.4,2.98,0,5.66-1.99,6.52-4.85.16-.53-.14-1.09-.67-1.25Z"/><path class="cls-1" d="m38.5,35.05c-.54-.12-1.07.22-1.19.76l-.16.72c-1.27-1.47-3.13-2.4-5.15-2.4-2.98,0-5.66,1.99-6.52,4.85-.16.53.14,1.09.67,1.25.53.16,1.09-.14,1.25-.67.6-2.01,2.5-3.42,4.6-3.42,1.45,0,2.79.68,3.68,1.75l-1.19-.23c-.54-.11-1.07.25-1.17.79-.1.54.25,1.07.79,1.17l3.26.63c.06.01.13.02.19.02.46,0,.87-.32.98-.78l.72-3.24c.12-.54-.22-1.07-.76-1.19Z"/><path class="cls-1" d="m34.78,4.42c-.82.59-1.58,1.33-2.22,2.25-1.24,1.8-1.78,3.99-1.63,6.53H14.19c.61-1.89,1.88-4.03,4.51-5.14,0,0,2.94-1.23,5.89.98,0,0,1.02-4.95,7.39-5,1.09,0,2.01.14,2.8.38Z"/><path class="cls-1" d="m44.74,13.21c.56-1.48.79-3.18.68-5.09,2.55,1.12,3.8,3.25,4.4,5.09h-5.08Z"/><path class="cls-1" d="m34.28,17.49s-.06-.03-.09-.04c.03.01.06.03.09.04Z"/><path class="cls-1" d="m42.59,13.21h-4.76c.6-.98,1.11-1.94,1.46-2.78.21-.51-.03-1.1-.55-1.3-.51-.21-1.09.03-1.3.54-.42,1.03-1.16,2.3-1.96,3.53h-2.56c-.46-7.62,6.33-8.92,8.86-9.13.54-.04,1.03.31,1.15.83.89,3.79.57,6.45-.34,8.31Z"/><path class="cls-1" d="m51.68,15.22l-39.35-.02c-2.17,0-3.92,1.76-3.92,3.92s1.76,3.92,3.92,3.92l39.35.02c2.17,0,3.92-1.76,3.92-3.92s-1.76-3.92-3.92-3.92Z"/></svg>