<?xml version="1.0" encoding="UTF-8"?><svg id="Glyph" xmlns="http://www.w3.org/2000/svg" viewBox="0 0 64 64"><defs><style>.cls-1{stroke-width:0px;}</style></defs><rect class="cls-1" x="17.74" y="4.1" width="21.53" height="6.87" rx="1.75" ry="1.75"/><path class="cls-1" d="m9.46,29.71c.14-.31.29-.62.45-.92-.16.3-.31.61-.45.92Z"/><path class="cls-1" d="m35.67,18.79v-5.83h-14.33v5.83c-4.8,1.74-8.78,5.2-11.22,9.61l3.73,2.54,8-6.13c.44-.33,1.07-.25,1.41.19.33.44.25,1.07-.19,1.4l-3.53,2.7,3.16,2.37c.44.33.53.96.2,1.4-.19.26-.49.4-.8.4-.21,0-.42-.06-.6-.2l-3.61-2.71-3.4,2.6c-.18.14-.39.21-.61.21-.19,0-.39-.06-.56-.17l-4.1-2.78c-1.1,2.55-1.73,5.37-1.73,8.33,0,1.01.08,2,.22,2.97.09.68.63,1.21,1.31,1.27l6.11.62c.64.07.81.92.25,1.23l-4.45,2.44c-.73.4-.98,1.33-.56,2.05,3.88,6.64,11.29,10.98,19.67,10.38,1.83-.13,3.6-.5,5.27-1.08-2.94-2.56-4.8-6.33-4.8-10.53,0-2.56.69-4.95,1.89-7.02h-1.84v5.77c0,.53-.43.96-.96.96h-2.63c-.53,0-.96-.43-.96-.96v-5.77h-5.76c-.53,0-.96-.43-.96-.96v-2.63c0-.53.43-.96.96-.96h5.76v-5.77c0-.53.43-.96.96-.96h2.63c.53,0,.96.43.96.96v5.77h5.77c.09,0,.17.01.25.04,2.25-1.56,4.99-2.47,7.93-2.47,1.63,0,3.2.28,4.66.8-1.37-7.38-6.59-13.4-13.5-15.91Z"/><path class="cls-1" d="m44.51,35.9c-6.63,0-12,5.37-12,12s5.37,12,12,12,12-5.37,12-12-5.37-12-12-12Zm6.52,13.96c-.86,2.85-3.54,4.85-6.52,4.85-2.02,0-3.88-.93-5.15-2.4l-.16.72c-.1.47-.52.78-.97.78-.07,0-.15,0-.22-.02-.54-.12-.88-.65-.76-1.19l.72-3.24c.12-.53.63-.87,1.17-.76l3.26.63c.54.11.9.63.79,1.17-.11.54-.63.9-1.17.79l-1.19-.23c.9,1.07,2.23,1.75,3.68,1.75,2.1,0,4-1.41,4.6-3.42.16-.53.71-.83,1.25-.67.53.16.83.72.67,1.25Zm.75-6.64l-.72,3.24c-.1.46-.52.78-.97.78-.06,0-.13,0-.19-.02l-3.26-.63c-.54-.1-.9-.63-.79-1.17s.63-.89,1.17-.79l1.19.23c-.9-1.07-2.23-1.75-3.68-1.75-2.1,0-4,1.41-4.6,3.42-.16.53-.72.83-1.25.67-.53-.16-.83-.72-.67-1.25.86-2.85,3.54-4.85,6.52-4.85,2.02,0,3.88.93,5.15,2.4l.16-.72c.12-.54.66-.88,1.19-.76.54.12.88.65.76,1.19Z"/></svg>