<?xml version="1.0" encoding="UTF-8"?><svg id="Glyph" xmlns="http://www.w3.org/2000/svg" viewBox="0 0 64 64"><defs><style>.cls-1{stroke-width:0px;}</style></defs><path class="cls-1" d="m15.65,58.65c0,.74.6,1.35,1.35,1.35h7.04v-7.39c.01-.55.46-1,1.01-1,.56.01,1,.45,1,1.01v7.38s7.06,0,7.06,0c.74,0,1.35-.6,1.35-1.35v-11.96s-18.8,0-18.8,0v11.96Z"/><path class="cls-1" d="m16.41,15.84v1.79c0,4.78,3.74,8.79,8.34,8.92.09,0,.18,0,.27,0,2.25,0,4.37-.86,5.99-2.43,1.69-1.64,2.61-3.83,2.61-6.18v-2.11c.16-.14.27-.35.27-.58v-3.26c0-4.42-3.58-8-8-8h-1.75c-4.42,0-8,3.58-8,8v3.26c0,.23.11.44.27.58Zm15.22,2.11c0,1.8-.71,3.49-2.01,4.74s-3.02,1.93-4.81,1.86c-3.53-.1-6.4-3.21-6.4-6.92v-2.49c2.32-.01,4.59-.61,6.61-1.74,2,1.12,4.25,1.72,6.61,1.74v2.81Z"/><circle class="cls-1" cx="53.36" cy="41.67" r="2.64"/><path class="cls-1" d="m58.65,42.54h-.74c-.41,2.14-2.29,3.77-4.55,3.77s-4.14-1.63-4.55-3.77h-5.4c-.7,0-1.23.64-1.09,1.33l2.9,14.72c.08.8.75,1.4,1.55,1.4h8.54c.8,0,1.47-.61,1.55-1.4l2.9-14.72c.14-.69-.39-1.33-1.09-1.33Zm-8.38,11.05c-1.46,0-2.64-1.18-2.64-2.64s1.18-2.64,2.64-2.64,2.64,1.18,2.64,2.64-1.18,2.64-2.64,2.64Z"/><path class="cls-1" d="m34.45,44.69v-15.36l14.61,6.2c1.72.73,3.7-.08,4.43-1.8.73-1.72-.07-3.7-1.79-4.43l-15.79-6.7c-.38-.16-.78-.29-1.18-.39-.54,1.25-1.33,2.38-2.33,3.35-1.99,1.93-4.61,3-7.38,3h-.31c-4.05-.13-7.55-2.65-9.23-6.2-2.06.65-3.8,2.15-4.73,4.18l-6.44,14.08c-.78,1.7-.03,3.7,1.67,4.48.45.21.93.31,1.4.31,1.28,0,2.51-.74,3.08-1.98l5.19-11.46v12.72h18.8Z"/></svg>