<?xml version="1.0" encoding="UTF-8"?><svg id="Glyph" xmlns="http://www.w3.org/2000/svg" viewBox="0 0 64 64"><defs><style>.cls-1{stroke-width:0px;}</style></defs><path class="cls-1" d="m56.86,55.47v-7.91c0-3.64-2.98-6.61-6.61-6.61h-7.56c-3.64,0-6.61,2.97-6.61,6.61v7.91c-1.29,0-2.34,1.02-2.34,2.27s1.05,2.27,2.34,2.27h20.79c1.29,0,2.34-1.02,2.34-2.27s-1.05-2.27-2.34-2.27Z"/><path class="cls-1" d="m34.07,53.95v-6.39c0-2.76,1.31-5.21,3.34-6.79v-13.39c0-1.23,1-2.23,2.23-2.23s2.23,1,2.23,2.23v1.01s.07-.01.1-.01h8.16l.53-7.4H8.73l2.58,35.75c.18,1.87,1.76,3.3,3.64,3.3h17.47c-.43-.66-.69-1.44-.69-2.28,0-1.64.95-3.07,2.34-3.79Zm-12.09-4.01c0,1.23-1,2.23-2.23,2.23s-2.23-1-2.23-2.23v-22.56c0-1.23,1-2.23,2.23-2.23s2.23,1,2.23,2.23v22.56Zm9.95,0c0,1.23-1,2.23-2.23,2.23s-2.23-1-2.23-2.23v-22.56c0-1.23,1-2.23,2.23-2.23s2.23,1,2.23,2.23v22.56Z"/><path class="cls-1" d="m54.59,16.91v-1.48c0-2.37-1.94-4.32-4.32-4.32h-10.79v-5.08c0-1.68-1.37-3.05-3.05-3.05h-13.46c-1.68,0-3.05,1.37-3.05,3.05v5.08h-10.79c-2.37,0-4.32,1.94-4.32,4.32v1.48c0,1.13.92,2.05,2.05,2.05h45.68c1.13,0,2.05-.92,2.05-2.05Zm-17.11-5.8h-15.56v-5.08c0-.58.47-1.05,1.05-1.05h13.46c.58,0,1.05.47,1.05,1.05v5.08Z"/><path class="cls-1" d="m41.2,37.01c0,1.07.87,1.93,1.93,1.93h6.67c1.07,0,1.93-.87,1.93-1.93,0-.89-.6-1.62-1.41-1.85l1.19-4.04c.11-.38-.17-.76-.56-.76h-8.98c-.39,0-.68.38-.56.76l1.19,4.04c-.81.23-1.4.97-1.4,1.85Z"/></svg>