<?xml version="1.0" encoding="UTF-8"?><svg id="Glyph" xmlns="http://www.w3.org/2000/svg" viewBox="0 0 64 64"><defs><style>.cls-1{stroke-width:0px;}</style></defs><rect class="cls-1" x="4.02" y="6.77" width="11.28" height="22.52"/><rect class="cls-1" x="17.3" y="4" width="8.89" height="28.06" rx="1.87" ry="1.87"/><path class="cls-1" d="m7.33,49.21c1.23-1.12,2.9-2.67,6.01-2.67s4.8,1.54,6.02,2.67c1.06.97,1.76,1.61,3.31,1.61s2.25-.64,3.31-1.61c1.23-1.13,2.91-2.67,6.02-2.67s4.79,1.54,6.01,2.67c1.06.97,1.76,1.62,3.32,1.62s2.25-.64,3.31-1.61c1.23-1.13,2.91-2.67,6.02-2.67s4.79,1.54,6.01,2.67c1.06.97,1.76,1.61,3.32,1.62v-7.9c0-.85-.6-1.57-1.43-1.76-3.29-.77-3.77-4.12-7.9-4.12-4.66,0-4.67,4.28-9.33,4.28s-4.66-4.28-9.33-4.28-4.66,4.28-9.33,4.28-4.66-4.28-9.33-4.28c-4.13,0-4.6,3.35-7.89,4.12-.83.19-1.43.91-1.43,1.76v7.9c1.56,0,2.26-.64,3.32-1.62Z"/><path class="cls-1" d="m50.66,48.55c-4.67,0-4.67,4.28-9.33,4.28s-4.67-4.28-9.33-4.28-4.67,4.28-9.33,4.28-4.66-4.28-9.33-4.28-4.66,4.28-9.33,4.28v5.63c0,.85.69,1.54,1.54,1.54h52.9c.85,0,1.54-.69,1.54-1.54v-5.63c-4.67,0-4.67-4.28-9.33-4.28Z"/><path class="cls-1" d="m28.19,9.7v17c2.15.56,3.74,2.51,3.74,4.84v3.52s.04-.01.07-.01c3.11,0,4.79,1.54,6.01,2.67,1.06.97,1.76,1.61,3.32,1.61s2.25-.64,3.31-1.61c.88-.81,2-1.81,3.69-2.33v-3.77c0-11.52-8.86-20.98-20.14-21.92Zm13.89,15.93c-.1.03-.21.05-.31.05-.42,0-.81-.27-.95-.69-2.21-6.77-7.86-7.8-8.1-7.84-.54-.09-.91-.61-.82-1.15.09-.54.61-.91,1.14-.82.29.05,7.08,1.23,9.68,9.19.17.53-.12,1.09-.64,1.26Z"/></svg>