<?xml version="1.0" encoding="UTF-8"?><svg id="Glyph" xmlns="http://www.w3.org/2000/svg" viewBox="0 0 64 64"><defs><style>.cls-1{stroke-width:0px;}</style></defs><path class="cls-1" d="m18.79,8.7c.37-.37.37-.98,0-1.35l-2.52-2.52c-.37-.37-.98-.37-1.35,0L6.37,13.38c-.37.37-.37.98,0,1.35l2.52,2.52c.37.37.98.37,1.35,0l4.24-4.24,4.31-4.31Z"/><path class="cls-1" d="m34.93,53.02H11.05v2.79c0,2.3,1.89,4.19,4.2,4.19h25.54c-2.65-1.6-4.73-4.05-5.86-6.98Z"/><path class="cls-1" d="m48,36c-6.63,0-12,5.37-12,12s5.37,12,12,12,12-5.37,12-12-5.37-12-12-12Zm6.52,13.96c-.86,2.85-3.54,4.85-6.52,4.85-2.02,0-3.88-.93-5.15-2.4l-.16.72c-.1.47-.52.78-.98.78-.07,0-.15,0-.22-.02-.54-.12-.88-.65-.76-1.19l.72-3.24c.12-.53.63-.87,1.17-.76l3.26.63c.54.1.9.63.79,1.17-.11.54-.63.9-1.17.79l-1.19-.23c.9,1.07,2.23,1.75,3.68,1.75,2.1,0,4-1.41,4.6-3.42.16-.53.72-.83,1.25-.67.53.16.83.72.67,1.25Zm.75-6.65l-.72,3.24c-.1.46-.52.78-.98.78-.06,0-.13,0-.19-.02l-3.26-.63c-.54-.1-.9-.63-.79-1.17.1-.54.63-.9,1.17-.79l1.19.23c-.9-1.07-2.23-1.75-3.68-1.75-2.1,0-4,1.41-4.6,3.42-.16.53-.72.83-1.25.67-.53-.16-.83-.72-.67-1.25.86-2.85,3.54-4.85,6.52-4.85,2.02,0,3.88.93,5.15,2.4l.16-.72c.12-.54.66-.88,1.19-.76.54.12.88.65.76,1.19Z"/><path class="cls-1" d="m18.88,11.44l-5.93,5.93,1.87,1.86-3.16,3.15c-.39.39-.61.92-.61,1.47v6.68l4.36,3.74,8.88-5.33c.47-.28,1.08-.13,1.37.35.28.47.13,1.08-.35,1.37l-2.94,1.77,4.96,4.68c.4.38.42,1.01.04,1.41-.2.21-.46.32-.73.32-.25,0-.49-.09-.69-.27l-5.37-5.07-4.76,2.86c-.16.09-.34.14-.51.14-.24,0-.47-.08-.66-.24l-3.6-3.09v6.64c0,.57.38,1.07.92,1.23l4.47,1.35c.59.18.64,1,.08,1.25l-4.7,2.1c-.47.21-.77.67-.77,1.18v4.09h23.28c-.22-.97-.33-1.98-.33-3.02,0-7.72,6.28-14,14-14,1.5,0,2.94.24,4.3.68v-16.82c0-4.54-3.71-8.25-8.25-8.25h-18.81c-.51,0-1,.21-1.36.57l-3.13,3.13-1.87-1.87Zm8.53,4.26c.34-.34.79-.53,1.27-.53h15.15c1.19,0,2.16.97,2.16,2.16v4.09c0,1.19-.97,2.16-2.16,2.16h-22.54c-.61,0-.92-.74-.49-1.17l6.61-6.71Z"/></svg>