<?xml version="1.0" encoding="UTF-8"?><svg id="Glyph" xmlns="http://www.w3.org/2000/svg" viewBox="0 0 64 64"><defs><style>.cls-1{stroke-width:0px;}</style></defs><path class="cls-1" d="m34.62,34.25c-1.44,0-2.62,1.18-2.62,2.62s1.18,2.62,2.62,2.62h4.24c1.44,0,2.62-1.18,2.62-2.62s-1.18-2.62-2.62-2.62h-4.24Z"/><path class="cls-1" d="m56.08,52.19h-.54c-.35-4.35-3.99-7.78-8.43-7.78s-8.08,3.42-8.43,7.78h-.54c-2.16,0-3.92,1.75-3.92,3.92s1.75,3.92,3.92,3.92h17.94c2.16,0,3.92-1.75,3.92-3.92s-1.75-3.92-3.92-3.92Z"/><path class="cls-1" d="m27.38,6.39c1.5-.27,3.04-.42,4.62-.42,1.27,0,2.52.1,3.75.27v16.22c0,1.97,1.58,3.58,3.5,3.58s3.5-1.61,3.5-3.58v-2.38c0-1.86,1.48-3.38,3.29-3.38s3.3,1.52,3.3,3.38v7.57c0,2.57,2.06,4.67,4.57,4.67,1.75,0,3.25-1.03,4.02-2.51.06.72.1,1.44.1,2.18,0,4.87-1.35,9.44-3.69,13.34.51.49.97,1.02,1.37,1.6,2.73-4.33,4.32-9.45,4.32-14.94,0-15.48-12.55-28.02-28.02-28.02-2.12,0-4.19.24-6.18.69.58.52,1.1,1.1,1.55,1.73Z"/><path class="cls-1" d="m32,58.02c-7.32,0-13.93-3.04-18.66-7.91h9.44c2.56,0,4.67-2.05,4.67-4.57s-2.11-4.56-4.67-4.56h-7.24c-1.85,0-3.37-1.48-3.37-3.3s1.52-3.29,3.37-3.29h2.39c1.97,0,3.58-1.58,3.58-3.5s-1.61-3.5-3.58-3.5H6.4c.36-2.01.95-3.95,1.75-5.78h-.23c-.64,0-1.25-.1-1.83-.29-1.36,3.29-2.11,6.9-2.11,10.68,0,15.48,12.55,28.02,28.02,28.02.56,0,1.12-.02,1.67-.05-.49-.57-.88-1.23-1.13-1.96-.18,0-.36.01-.55.01Z"/><path class="cls-1" d="m7.92,19.61h19.94c2.16,0,3.92-1.75,3.92-3.92s-1.75-3.92-3.92-3.92h-.54c-.35-4.35-3.99-7.78-8.43-7.78s-8.08,3.42-8.43,7.78h-2.54c-2.16,0-3.92,1.75-3.92,3.92s1.75,3.92,3.92,3.92Z"/></svg>