<?xml version="1.0" encoding="UTF-8"?><svg id="Glyph" xmlns="http://www.w3.org/2000/svg" viewBox="0 0 64 64"><defs><style>.cls-1{stroke-width:0px;}</style></defs><path class="cls-1" d="m37.43,12.86h-10.86c-1.74,0-3.15,1.41-3.15,3.15s1.41,3.15,3.15,3.15h10.86c1.74,0,3.15-1.41,3.15-3.15s-1.41-3.15-3.15-3.15Z"/><path class="cls-1" d="m19.35,45.71c1.06.97,1.76,1.61,3.31,1.61s2.25-.64,3.31-1.61c1.23-1.12,2.91-2.67,6.02-2.67s4.79,1.54,6.02,2.67c1.06.97,1.76,1.61,3.31,1.61s2.26-.64,3.32-1.61c.97-.89,2.24-2.03,4.27-2.47v-11.31c0-5.92-4.85-10.76-10.77-10.76h-12.31c-5.92,0-10.76,4.84-10.76,10.76v11.31c2.03.44,3.3,1.58,4.27,2.47Z"/><path class="cls-1" d="m58.05,49.02c-2.84-.98-3.48-3.98-7.38-3.98-4.67,0-4.67,4.28-9.33,4.28s-4.67-4.28-9.33-4.28-4.67,4.28-9.33,4.28-4.67-4.28-9.33-4.28c-3.91,0-4.54,3-7.38,3.98-1.14.39-1.95,1.42-1.95,2.63v5.31c0,1.72,1.39,3.11,3.11,3.11h49.78c1.72,0,3.11-1.39,3.11-3.11v-5.31c0-1.21-.81-2.23-1.95-2.63Z"/><path class="cls-1" d="m55.61,23.99c2.73-4.58-.04-7.38-.16-7.5-.39-.39-1.03-.38-1.41.01-.39.39-.38,1.03.01,1.41.02.02,1.78,1.8-.17,5.07-.67,1.2-1.26,3.99,1.31,5.99.18.14.4.21.61.21.3,0,.59-.13.79-.38.34-.44.26-1.06-.17-1.4-1.81-1.41-.9-3.24-.8-3.42Z"/><path class="cls-1" d="m9.96,17.91c.39-.39.39-1.01,0-1.41-.39-.4-1.02-.4-1.41-.01-.12.12-2.89,2.92-.18,7.47.11.2,1.02,2.04-.79,3.45-.44.34-.51.97-.17,1.4.2.25.49.38.79.38.21,0,.43-.07.61-.21,2.57-2,1.98-4.8,1.29-6.02-1.89-3.17-.24-4.96-.15-5.06Z"/><path class="cls-1" d="m48.45,5.38c-.39-.38-1.01-.38-1.4,0-.39.39-.39,1.02,0,1.41.07.07,1.75,1.87-.16,5.08-.67,1.2-1.26,3.99,1.31,5.99.18.14.4.21.61.21.3,0,.59-.13.79-.38.34-.44.26-1.06-.17-1.4-1.81-1.41-.9-3.24-.8-3.42,2.73-4.58-.04-7.38-.16-7.5Z"/><path class="cls-1" d="m16.96,6.8c.39-.39.39-1.01,0-1.41-.39-.4-1.02-.4-1.41-.01-.12.12-2.89,2.92-.18,7.47.11.2,1.02,2.04-.79,3.45-.44.34-.51.97-.17,1.4.2.25.49.38.79.38.21,0,.43-.07.61-.21,2.57-2,1.98-4.8,1.29-6.02-1.89-3.17-.24-4.96-.15-5.06Z"/><path class="cls-1" d="m25.49,10.98c.35-.08.71-.12,1.08-.12h4.43v-2.92c0-.55.45-1,1-1s1,.45,1,1v2.92h4.43c.37,0,.73.04,1.08.12l1.68-5.71c.2-.67-.3-1.33-1-1.33h-14.4c-.69,0-1.19.67-1,1.33l1.68,5.71Z"/></svg>