<?xml version="1.0" encoding="UTF-8"?><svg id="Glyph" xmlns="http://www.w3.org/2000/svg" viewBox="0 0 64 64"><defs><style>.cls-1{stroke-width:0px;}</style></defs><path class="cls-1" d="m9.62,60v-10.39h14.66v10.39h-14.66Zm16.19-23.8c-.92,1.07-1.43,2.38-1.43,3.7v4.85c0,.45.3.85.74.97.39.1.76.49.72,1.01-.04.43-.42.77-.89.85H8.88c-.47-.08-.85-.42-.89-.85-.04-.53.33-.91.72-1.01.44-.12.74-.51.74-.97v-4.71c0-1.35-.49-2.64-1.37-3.63-1.57-1.75-2.61-4.05-3.09-6.83v-13.73c-.03-.34.02-1.43.51-1.96.14-.15.38-.34.94-.34.31,0,1.36.11,1.51,1.67,0,.01,0,.02,0,.03v6.72c0,.55.45,1,1,1s1-.45,1-1v-13.03c0-.29.09-1.75,1.5-1.91.26.02,1.45.17,1.67,1.5v11.91c0,.55.45,1,1,1s1-.45,1-1V7.58c0-.4.12-1.58.72-2.18.27-.27.6-.4,1.09-.4,0,0,.43.02.8.37.42.4.64,1.13.66,2.1v12.98c0,.55.45,1,1,1s1-.45,1-1v-10.67s0,0,0-.01c.19-1.34,1.36-1.52,1.68-1.54,1.41.16,1.49,1.61,1.5,1.91v15.9c0,.55.45,1,1,1s1-.45,1-1v-5.6c.25-1.36,1.35-1.43,1.75-1.41.54.04.76.18.91.32.48.47.59,1.38.6,1.69v8.23s-.35,3.83-3.03,6.95Z"/><path class="cls-1" d="m39.71,60v-10.39h14.66v10.39h-14.66ZM59,15.93v13.65c-.48,2.78-1.52,5.07-3.09,6.83-.88.99-1.37,2.27-1.37,3.63v4.71c0,.45.3.85.74.97.39.1.76.49.72,1.01-.04.43-.42.77-.89.85h-16.07c-.47-.08-.85-.42-.89-.85-.04-.53.33-.91.72-1.01.44-.12.74-.51.74-.97v-4.85c0-1.32-.51-2.63-1.43-3.7-2.67-3.1-3.03-6.87-3.03-6.87v-8.31c0-.31.12-1.22.6-1.69.14-.14.38-.29.98-.32.14,0,1.42-.04,1.68,1.42v5.6c0,.55.45,1,1,1s1-.45,1-1v-15.9c0-.29.09-1.75,1.5-1.91.34.02,1.49.21,1.68,1.54,0,0,0,0,0,.01v10.66c0,.55.45,1,1,1s1-.45,1-1V7.47c.03-2.33,1.23-2.47,1.49-2.47.45,0,.79.13,1.06.4.6.6.73,1.78.72,2.19v12.85c0,.55.45,1,1,1s1-.45,1-1v-11.9c.21-1.3,1.35-1.48,1.67-1.5,1.41.16,1.5,1.61,1.5,1.91v13.03c0,.55.45,1,1,1s1-.45,1-1v-6.72s0-.02,0-.03c.15-1.55,1.24-1.66,1.53-1.67.54,0,.79.19.92.34.49.53.54,1.62.51,2.03Z"/></svg>