<svg id="Layer_1" data-name="Layer 1" xmlns="http://www.w3.org/2000/svg" viewBox="0 0 469.7755 288.0254">
  <g id="tagline">
    <g id="logoMark">
      <polygon id="logoMark_PathItem_" data-name="logoMark &lt;PathItem&gt;" points="411.278 66.351 411.278 71.424 401.854 71.424 397.937 78.207 397.138 79.588 395.678 82.116 391.578 89.212 385.715 89.212 390.762 80.474 391.978 78.372 393.481 75.775 398.918 66.351 411.278 66.351" style="fill: #fff"/>
      <polygon id="logoMark_PathItem_2" data-name="logoMark &lt;PathItem&gt;" points="441.896 89.212 436.033 89.212 425.757 71.424 416.49 71.424 416.49 66.351 428.693 66.351 441.896 89.212" style="fill: #fff"/>
      <polygon id="logoMark_PathItem_3" data-name="logoMark &lt;PathItem&gt;" points="441.757 95.292 434.704 107.505 434.122 108.521 433.522 109.563 428.693 117.919 416.49 117.919 416.49 112.846 425.757 112.846 430.135 105.264 430.465 104.69 430.474 104.673 435.894 95.292 441.757 95.292" style="fill: #fff"/>
      <path id="logoMark_CompoundPathItem_" data-name="logoMark &lt;CompoundPathItem&gt;" d="M435.8356,53.77h-43.88l-9.16,15.86-3.18,5.51-.8,1.39-8.8,15.24,21.94,38h43.88l5.86-10.14,1.89-3.28,1.33-2.3,12.86-22.28Zm13.85,42-9.1,15.76-1.09,1.88-.93,1.62-5.62,9.74h-38.1l-19.05-33,8.09-14.02,1.18-2.04,2.28-3.95,7.5-12.99h38.1l19.05,33-2.1,3.64Z" style="fill: #fff"/>
      <polygon id="logoMark_PathItem_4" data-name="logoMark &lt;PathItem&gt;" points="411.278 112.846 411.278 117.919 398.918 117.919 385.855 95.292 391.718 95.292 401.854 112.846 411.278 112.846" style="fill: #fff"/>
      <polygon id="logoMark_PathItem_5" data-name="logoMark &lt;PathItem&gt;" points="430.896 93.41 430.896 93.77 430.686 93.77 430.896 93.41" style="fill: #fff"/>
    </g>
    <polygon id="tagline_PathItem_" data-name="tagline &lt;PathItem&gt;" points="281 196.025 237 276.025 84 276.025 12 145.025 86.186 12 235 12.025 280 92.025 247.636 91.77 221 44.025 102 44.025 47 145.025 103 245.025 219 244.025 246 196.025 281 196.025" style="fill: #fff"/>
    <g id="type">
      <path id="type_CompoundPathItem_" data-name="type &lt;CompoundPathItem&gt;" d="M92.6861,179.7773a1.5468,1.5468,0,0,1-.4189-1.1465V108.967a1.4409,1.4409,0,0,1,1.5612-1.5569h16.428a1.4409,1.4409,0,0,1,1.5612,1.5569v69.6638a1.4414,1.4414,0,0,1-1.5612,1.5611H93.8284A1.5448,1.5448,0,0,1,92.6861,179.7773Z" style="fill: #fff"/>
      <path id="type_CompoundPathItem_2" data-name="type &lt;CompoundPathItem&gt;" d="M165.1017,107.8247a1.5449,1.5449,0,0,1,1.1423-.4146h16.4281a1.4408,1.4408,0,0,1,1.5611,1.5569v69.6638a1.4413,1.4413,0,0,1-1.5611,1.5611h-15.7a2.0367,2.0367,0,0,1-1.87-1.0407l-21.213-35.3523c-.14-.2073-.2792-.2919-.4146-.2581-.14.0339-.2073.19-.2073.47l.2073,34.62a1.4414,1.4414,0,0,1-1.5612,1.5611h-16.428a1.4414,1.4414,0,0,1-1.5612-1.5611V108.967a1.4409,1.4409,0,0,1,1.5612-1.5569h15.7a2.0365,2.0365,0,0,1,1.87,1.0408l21.1073,35.348c.14.2115.2792.2962.4188.2623.1354-.0338.2074-.19.2074-.47l-.1058-34.6246A1.5437,1.5437,0,0,1,165.1017,107.8247Z" style="fill: #fff"/>
      <path id="type_CompoundPathItem_3" data-name="type &lt;CompoundPathItem&gt;" d="M208.6086,178.1654a23.0147,23.0147,0,0,1-10.1369-8.1612,21.393,21.393,0,0,1-3.5877-12.2692V156.28a1.4413,1.4413,0,0,1,1.5612-1.5612H212.56a1.436,1.436,0,0,1,1.5612,1.5612v.6219q0,2.9129,3.0673,5.1446a13.5292,13.5292,0,0,0,8.1611,2.2381q3.8458,0,5.5127-1.612a4.9057,4.9057,0,0,0,1.6627-3.5877,3.6952,3.6952,0,0,0-2.0815-3.4311,44.6787,44.6787,0,0,0-7.59-2.805l-3.0123-.8335a55.6125,55.6125,0,0,1-17.2615-8.3176q-6.9681-5.1975-6.9681-15.0785a19.7,19.7,0,0,1,3.5369-11.5923,22.6274,22.6274,0,0,1,9.7223-7.7465,34.3,34.3,0,0,1,13.8811-2.7034,35.0023,35.0023,0,0,1,14.71,3.0165,24.8146,24.8146,0,0,1,10.3992,8.525,21.66,21.66,0,0,1,3.795,12.5823v.935a1.4413,1.4413,0,0,1-1.5611,1.5611h-16.115a1.4468,1.4468,0,0,1-1.5612-1.5611V131.53a7.551,7.551,0,0,0-2.805-5.665,10.8845,10.8845,0,0,0-7.59-2.5469,9.0154,9.0154,0,0,0-5.25,1.35,4.3225,4.3225,0,0,0-1.925,3.7442,4.1666,4.1666,0,0,0,1.4046,3.1731,14.595,14.595,0,0,0,4.3154,2.4961q2.9064,1.1931,8.94,3.0673.8313.3111,7.3319,2.2339a22.5117,22.5117,0,0,1,10.8646,6.9681,18.0172,18.0172,0,0,1,4.3661,12.2142,20.4236,20.4236,0,0,1-3.5327,12.0111,22.5011,22.5011,0,0,1-9.8788,7.7465,37.4273,37.4273,0,0,1-14.7654,2.7035A37.9285,37.9285,0,0,1,208.6086,178.1654Z" style="fill: #fff"/>
      <path id="type_CompoundPathItem_4" data-name="type &lt;CompoundPathItem&gt;" d="M316.458,107.8247a1.5584,1.5584,0,0,1,.4147,1.1423v13.7246a1.4356,1.4356,0,0,1-1.557,1.5612H297.8469a.46.46,0,0,0-.52.52v53.8576a1.436,1.436,0,0,1-1.5611,1.5611H279.3373a1.4355,1.4355,0,0,1-1.5569-1.5611V124.7732a.46.46,0,0,0-.52-.52H260.3116a1.4415,1.4415,0,0,1-1.5612-1.5612V108.967a1.4409,1.4409,0,0,1,1.5612-1.5569h55.0041A1.5582,1.5582,0,0,1,316.458,107.8247Z" style="fill: #fff"/>
      <path id="type_CompoundPathItem_5" data-name="type &lt;CompoundPathItem&gt;" d="M360.4126,178.8423l-2.2846-8.11q-.2094-.4188-.52-.4188H335.5653q-.3173,0-.52.4188l-2.2888,8.11a1.62,1.62,0,0,1-1.7685,1.35H313.21q-1.8721,0-1.3539-1.7684l21.9408-69.7653a1.6908,1.6908,0,0,1,1.7684-1.2481h22.0423a1.6922,1.6922,0,0,1,1.7642,1.2481l21.9408,69.7653a1.4793,1.4793,0,0,1,.1057.6261q0,1.1424-1.4554,1.1423H362.181A1.6178,1.6178,0,0,1,360.4126,178.8423ZM340.033,155.34H353.03c.4189,0,.5542-.2073.4189-.6219l-6.655-23.29c-.072-.2074-.1735-.3131-.3131-.3131s-.2454.1057-.3131.3131l-6.5492,23.29C339.5507,155.1331,339.6861,155.34,340.033,155.34Z" style="fill: #fff"/>
    </g>
  </g>
</svg>
