<?xml version="1.0" encoding="UTF-8"?><svg id="Greeny" xmlns="http://www.w3.org/2000/svg" xmlns:xlink="http://www.w3.org/1999/xlink" viewBox="0 0 96 96"><defs><style>.cls-1{fill:none;}.cls-1,.cls-2,.cls-3,.cls-4,.cls-5,.cls-6,.cls-7,.cls-8,.cls-9{stroke-width:0px;}.cls-2{fill:url(#New_Pattern_Swatch_3);}.cls-3{fill:url(#New_Pattern_Swatch_2);}.cls-4{fill:url(#New_Pattern_Swatch_4);}.cls-5{fill:url(#New_Pattern_Swatch_1);}.cls-6{fill:#2faf96;}.cls-7{fill:#1feab0;}.cls-8{fill:#b3ffde;}.cls-9{fill:#008887;}</style><pattern id="New_Pattern_Swatch_2" x="0" y="0" width="112.22" height="112.22" patternTransform="translate(-204 -1992)" patternUnits="userSpaceOnUse" viewBox="0 0 112.22 112.22"><rect class="cls-1" width="112.22" height="112.22"/><rect class="cls-7" x="0" width="112.22" height="112.22"/></pattern><pattern id="New_Pattern_Swatch_3" x="0" y="0" width="112.22" height="112.22" patternTransform="translate(-208 -1996)" patternUnits="userSpaceOnUse" viewBox="0 0 112.22 112.22"><rect class="cls-1" width="112.22" height="112.22"/><rect class="cls-8" width="112.22" height="112.22"/></pattern><pattern id="New_Pattern_Swatch_4" x="0" y="0" width="112.22" height="112.22" patternTransform="translate(-204 -1992)" patternUnits="userSpaceOnUse" viewBox="0 0 112.22 112.22"><rect class="cls-1" width="112.22" height="112.22"/><rect class="cls-9" width="112.22" height="112.22"/></pattern><pattern id="New_Pattern_Swatch_1" x="0" y="0" width="112.22" height="112.22" patternTransform="translate(-204 -1992)" patternUnits="userSpaceOnUse" viewBox="0 0 112.22 112.22"><rect class="cls-1" width="112.22" height="112.22"/><rect class="cls-6" width="112.22" height="112.22"/></pattern></defs><path class="cls-3" d="M71,53.68l-2.13,31.97c-.16,2.45-2.2,4.35-4.65,4.35H31.78c-2.35,0-4.32-1.74-4.62-4.05,0-.1-.02-.2-.03-.3l-2.13-31.97h46Z"/><path class="cls-2" d="M66.73,53.68l-1.53,22.99c-.35,5.25-4.71,9.33-9.98,9.33h-27.44c-.21,0-.42-.01-.62-.05,0-.1-.02-.2-.03-.3l-2.13-31.97h41.73Z"/><path class="cls-4" d="M71.29,28.46c-.55,0-1-.45-1-1v-10.56s-43.77,2.99-43.77,2.99l.59,4.36c.07.55-.31,1.05-.86,1.13-.55.07-1.05-.31-1.13-.86l-.74-5.42c-.04-.27.04-.55.22-.77.17-.21.43-.35.71-.37l45.89-3.14c.27-.02.55.08.75.27.2.19.32.45.32.73v11.63c.01.55-.43,1-.99,1h0ZM70.67,44.13l.93-6.88c.04-.27-.04-.55-.22-.77-.17-.21-.43-.35-.71-.37l-45.89-3.14c-.27-.02-.55.08-.75.27-.2.19-.32.46-.32.74v10c-.01.55.43,1,.99,1h0c.55,0,1-.45,1-1v-8.94s43.77,2.99,43.77,2.99l-.79,5.82c-.07.55.31,1.05.86,1.12.05,0,.09,0,.14,0,.49,0,.92-.36.99-.87ZM27.44,34.18h0M70.73,72.81l.12-1.8c.04-.55-.38-1.03-.93-1.06-.54-.05-1.03.38-1.06.93l-.12,1.8c-.04.55.38,1.03.93,1.06.02,0,.04,0,.07,0,.52,0,.96-.41,1-.93ZM69.87,85.72l.62-9.31c.04-.55-.38-1.03-.93-1.06-.55-.05-1.03.38-1.06.93l-.62,9.31c-.12,1.92-1.73,3.42-3.65,3.42H31.78c-1.92,0-3.53-1.5-3.65-3.42l-2.06-30.9h43.86l-.84,12.59c-.04.55.38,1.03.93,1.06.55.04,1.03-.38,1.06-.93l.91-13.66c.02-.28-.08-.55-.27-.75-.19-.2-.45-.32-.73-.32H25c-.28,0-.54.11-.73.32-.19.2-.29.47-.27.75l2.13,31.97c.19,2.96,2.67,5.28,5.65,5.28h32.44c2.97,0,5.45-2.32,5.65-5.28Z"/><rect class="cls-5" x="19.16" y="43" width="57.68" height="11.68" rx="3" ry="3"/><path class="cls-5" d="M76.97,13.44c.05.8-.21,1.57-.73,2.18-.53.6-1.26.96-2.06,1.02l-51.57,3.51c-.07.01-.14.01-.2.01-.73,0-1.42-.26-1.97-.74-.61-.53-.97-1.26-1.02-2.06l-.39-5.67c-.05-.8.21-1.57.73-2.18.53-.6,1.26-.96,2.06-1.02l51.57-3.51c.8-.06,1.57.21,2.17.73.61.53.97,1.26,1.02,2.06l.39,5.67Z"/><path class="cls-5" d="M76.97,29.85l-.39,5.67c-.05.8-.41,1.53-1.02,2.06-.55.48-1.24.74-1.97.74-.06,0-.13-.01-.2-.01l-51.57-3.51c-.8-.06-1.53-.42-2.06-1.03-.52-.6-.78-1.37-.73-2.17l.39-5.67c.05-.8.41-1.53,1.02-2.06.6-.53,1.37-.79,2.17-.73l51.57,3.51c.8.06,1.53.42,2.06,1.02.52.61.78,1.38.73,2.18Z"/></svg>