<?xml version="1.0" encoding="UTF-8"?><svg id="Greeny" xmlns="http://www.w3.org/2000/svg" xmlns:xlink="http://www.w3.org/1999/xlink" viewBox="0 0 96 96"><defs><style>.cls-1{fill:none;}.cls-1,.cls-2,.cls-3,.cls-4,.cls-5,.cls-6,.cls-7,.cls-8,.cls-9,.cls-10,.cls-11{stroke-width:0px;}.cls-2{fill:url(#New_Pattern_Swatch_3);}.cls-3{fill:url(#New_Pattern_Swatch_2);}.cls-4{fill:url(#New_Pattern_Swatch_4);}.cls-5{fill:url(#New_Pattern_Swatch_1);}.cls-6{fill:url(#New_Pattern_Swatch_3-2);}.cls-7{fill:url(#New_Pattern_Swatch_3-3);}.cls-8{fill:#2faf96;}.cls-9{fill:#1feab0;}.cls-10{fill:#b3ffde;}.cls-11{fill:#008887;}</style><pattern id="New_Pattern_Swatch_2" x="0" y="0" width="112.22" height="112.22" patternTransform="translate(-596 -1992)" patternUnits="userSpaceOnUse" viewBox="0 0 112.22 112.22"><rect class="cls-1" width="112.22" height="112.22"/><rect class="cls-9" x="0" width="112.22" height="112.22"/></pattern><pattern id="New_Pattern_Swatch_3" x="0" y="0" width="112.22" height="112.22" patternTransform="translate(-600 -1996)" patternUnits="userSpaceOnUse" viewBox="0 0 112.22 112.22"><rect class="cls-1" width="112.22" height="112.22"/><rect class="cls-10" width="112.22" height="112.22"/></pattern><pattern id="New_Pattern_Swatch_3-2" patternTransform="translate(-596 -1992)" xlink:href="#New_Pattern_Swatch_3"/><pattern id="New_Pattern_Swatch_3-3" patternTransform="translate(-596 -1992)" xlink:href="#New_Pattern_Swatch_3"/><pattern id="New_Pattern_Swatch_1" x="0" y="0" width="112.22" height="112.22" patternTransform="translate(-596 -1992)" patternUnits="userSpaceOnUse" viewBox="0 0 112.22 112.22"><rect class="cls-1" width="112.22" height="112.22"/><rect class="cls-8" width="112.22" height="112.22"/></pattern><pattern id="New_Pattern_Swatch_4" x="0" y="0" width="112.22" height="112.22" patternTransform="translate(-596 -1992)" patternUnits="userSpaceOnUse" viewBox="0 0 112.22 112.22"><rect class="cls-1" width="112.22" height="112.22"/><rect class="cls-11" width="112.22" height="112.22"/></pattern></defs><path class="cls-3" d="M90,64.59v21.2c0,.56-.45,1-1,1H7c-.55,0-1-.44-1-1v-21.2c0-.55.45-1,1-1h22.58c1.9,8.42,9.42,14.7,18.42,14.7s16.52-6.28,18.42-14.7h22.58c.55,0,1,.45,1,1Z"/><path class="cls-2" d="M86,63.59v9.2c0,5.53-4.48,10-10,10H6v-18.2c0-.55.45-1,1-1h22.58c1.9,8.42,9.42,14.7,18.42,14.7s16.52-6.28,18.42-14.7h19.58Z"/><path class="cls-6" d="M62.44,31.75c-.22-.51-.81-.73-1.32-.51-.98.43-1.98.55-2.98.38-.63-2.26-1.77-3.76-3.42-4.44-3.14-1.29-6.78,1.01-6.93,1.1-.31.2-.48.55-.46.91.02.36.24.68.56.84.76.36.99.68,1.42,1.26.43.59,1.03,1.4,2.36,2.44.91.71,1.85.98,2.72.98,1.29,0,2.43-.57,3.19-1.15.46.09.93.15,1.39.15,1,0,1.99-.21,2.96-.64.51-.23.74-.82.51-1.32ZM52.9,32.15c-1.11-.87-1.57-1.5-1.98-2.05-.21-.28-.41-.55-.66-.81,1.04-.41,2.48-.77,3.7-.26,1.04.43,1.79,1.45,2.25,3.06-.66.46-1.99,1.09-3.31.06Z"/><path class="cls-7" d="M76.52,31.19l-16.84-21.62c-.34-.43-.97-.51-1.4-.17l-28.25,22c-.43.34-.51.97-.17,1.4l12.52,16.08c4.4.54,6.86.85,11.26,1.4l22.7-17.69c.44-.34.52-.97.18-1.4ZM56.91,18.84l9.94,12.77-13.9,10.83-9.95-12.77,13.91-10.83Z"/><ellipse class="cls-5" cx="50.78" cy="56.81" rx="3.22" ry="1.92" transform="translate(-25.04 64.37) rotate(-53.9)"/><ellipse class="cls-5" cx="42.82" cy="63.59" rx="1.92" ry="3.22" transform="translate(-33.66 68.88) rotate(-60)"/><ellipse class="cls-5" cx="52.18" cy="69.16" rx="3.22" ry="1.92" transform="translate(-32.37 50.25) rotate(-40.36)"/><circle class="cls-5" cx="42.55" cy="55.65" r="1.05"/><circle class="cls-5" cx="53.88" cy="62.54" r="1.05"/><circle class="cls-5" cx="44.27" cy="70.21" r="1.05"/><path class="cls-4" d="M90,71.69c.55,0,1-.45,1-1v-6.1c0-1.1-.9-2-2-2h-22.58c-.47,0-.87.32-.98.78-1.85,8.2-9.02,13.92-17.44,13.92s-15.6-5.72-17.44-13.92c-.11-.46-.51-.78-.98-.78H7c-1.1,0-2,.9-2,2v21.2c0,1.1.9,2,2,2h82c1.1,0,2-.9,2-2v-6.1c0-.55-.45-1-1-1s-1,.45-1,1v6.1H7v-21.2h21.8c2.32,8.7,10.11,14.7,19.2,14.7s16.88-6,19.2-14.7h21.8v6.1c0,.55.45,1,1,1ZM62.44,31.75c-.22-.51-.81-.73-1.32-.51-.98.43-1.98.55-2.98.38-.63-2.26-1.77-3.76-3.42-4.44-3.14-1.29-6.78,1.01-6.93,1.1-.31.2-.48.55-.46.91.02.36.24.68.56.84.76.36.99.68,1.42,1.26.43.59,1.03,1.4,2.36,2.44.91.71,1.85.98,2.72.98,1.29,0,2.43-.57,3.19-1.15.46.09.93.15,1.39.15,1,0,1.99-.21,2.96-.64.51-.23.74-.82.51-1.32ZM52.9,32.15c-1.11-.87-1.57-1.5-1.98-2.05-.21-.28-.41-.55-.66-.81,1.04-.41,2.48-.77,3.7-.26,1.04.43,1.79,1.45,2.25,3.06-.66.46-1.99,1.09-3.31.06ZM62.44,31.75c-.22-.51-.81-.73-1.32-.51-.98.43-1.98.55-2.98.38-.63-2.26-1.77-3.76-3.42-4.44-3.14-1.29-6.78,1.01-6.93,1.1-.31.2-.48.55-.46.91.02.36.24.68.56.84.76.36.99.68,1.42,1.26.43.59,1.03,1.4,2.36,2.44.91.71,1.85.98,2.72.98,1.29,0,2.43-.57,3.19-1.15.46.09.93.15,1.39.15,1,0,1.99-.21,2.96-.64.51-.23.74-.82.51-1.32ZM52.9,32.15c-1.11-.87-1.57-1.5-1.98-2.05-.21-.28-.41-.55-.66-.81,1.04-.41,2.48-.77,3.7-.26,1.04.43,1.79,1.45,2.25,3.06-.66.46-1.99,1.09-3.31.06ZM68.43,30.38l-9.95-12.77c-.32-.42-.8-.69-1.33-.75-.53-.07-1.05.07-1.47.4l-13.9,10.83c-.43.33-.7.8-.76,1.33-.07.53.08,1.06.41,1.48l9.94,12.77c.4.5.99.77,1.58.77.43,0,.87-.14,1.23-.42l13.9-10.83c.42-.33.69-.8.76-1.33.06-.53-.08-1.06-.41-1.48ZM52.95,42.44l-9.95-12.77,13.91-10.83,9.94,12.77-13.9,10.83ZM54.72,27.18c-3.14-1.29-6.78,1.01-6.93,1.1-.31.2-.48.55-.46.91.02.36.24.68.56.84.76.36.99.68,1.42,1.26.43.59,1.03,1.4,2.36,2.44.91.71,1.85.98,2.72.98,1.29,0,2.43-.57,3.19-1.15.46.09.93.15,1.39.15,1,0,1.99-.21,2.96-.64.51-.23.74-.82.51-1.32-.22-.51-.81-.73-1.32-.51-.98.43-1.98.55-2.98.38-.63-2.26-1.77-3.76-3.42-4.44ZM52.9,32.15c-1.11-.87-1.57-1.5-1.98-2.05-.21-.28-.41-.55-.66-.81,1.04-.41,2.48-.77,3.7-.26,1.04.43,1.79,1.45,2.25,3.06-.66.46-1.99,1.09-3.31.06ZM68.43,30.38l-9.95-12.77c-.32-.42-.8-.69-1.33-.75-.53-.07-1.05.07-1.47.4l-13.9,10.83c-.43.33-.7.8-.76,1.33-.07.53.08,1.06.41,1.48l9.94,12.77c.4.5.99.77,1.58.77.43,0,.87-.14,1.23-.42l13.9-10.83c.42-.33.69-.8.76-1.33.06-.53-.08-1.06-.41-1.48ZM52.95,42.44l-9.95-12.77,13.91-10.83,9.94,12.77-13.9,10.83ZM54.72,27.18c-3.14-1.29-6.78,1.01-6.93,1.1-.31.2-.48.55-.46.91.02.36.24.68.56.84.76.36.99.68,1.42,1.26.43.59,1.03,1.4,2.36,2.44.91.71,1.85.98,2.72.98,1.29,0,2.43-.57,3.19-1.15.46.09.93.15,1.39.15,1,0,1.99-.21,2.96-.64.51-.23.74-.82.51-1.32-.22-.51-.81-.73-1.32-.51-.98.43-1.98.55-2.98.38-.63-2.26-1.77-3.76-3.42-4.44ZM52.9,32.15c-1.11-.87-1.57-1.5-1.98-2.05-.21-.28-.41-.55-.66-.81,1.04-.41,2.48-.77,3.7-.26,1.04.43,1.79,1.45,2.25,3.06-.66.46-1.99,1.09-3.31.06ZM77.31,30.57l-16.84-21.61c-.68-.87-1.94-1.03-2.81-.35l-28.24,22c-.87.68-1.03,1.94-.35,2.81l12.52,16.07c.17.21.41.35.67.38l11.26,1.4s.08.01.12.01c.22,0,.44-.08.61-.22l22.71-17.68c.42-.33.69-.8.75-1.33.07-.53-.08-1.06-.4-1.48ZM42.92,47.94l-12.27-15.75,28.24-22,16.84,21.61-22.38,17.43-10.43-1.29ZM68.43,30.38l-9.95-12.77c-.32-.42-.8-.69-1.33-.75-.53-.07-1.05.07-1.47.4l-13.9,10.83c-.43.33-.7.8-.76,1.33-.07.53.08,1.06.41,1.48l9.94,12.77c.4.5.99.77,1.58.77.43,0,.87-.14,1.23-.42l13.9-10.83c.42-.33.69-.8.76-1.33.06-.53-.08-1.06-.41-1.48ZM52.95,42.44l-9.95-12.77,13.91-10.83,9.94,12.77-13.9,10.83ZM54.72,27.18c-3.14-1.29-6.78,1.01-6.93,1.1-.31.2-.48.55-.46.91.02.36.24.68.56.84.76.36.99.68,1.42,1.26.43.59,1.03,1.4,2.36,2.44.91.71,1.85.98,2.72.98,1.29,0,2.43-.57,3.19-1.15.46.09.93.15,1.39.15,1,0,1.99-.21,2.96-.64.51-.23.74-.82.51-1.32-.22-.51-.81-.73-1.32-.51-.98.43-1.98.55-2.98.38-.63-2.26-1.77-3.76-3.42-4.44ZM52.9,32.15c-1.11-.87-1.57-1.5-1.98-2.05-.21-.28-.41-.55-.66-.81,1.04-.41,2.48-.77,3.7-.26,1.04.43,1.79,1.45,2.25,3.06-.66.46-1.99,1.09-3.31.06ZM62.44,31.75c-.22-.51-.81-.73-1.32-.51-.98.43-1.98.55-2.98.38-.63-2.26-1.77-3.76-3.42-4.44-3.14-1.29-6.78,1.01-6.93,1.1-.31.2-.48.55-.46.91.02.36.24.68.56.84.76.36.99.68,1.42,1.26.43.59,1.03,1.4,2.36,2.44.91.71,1.85.98,2.72.98,1.29,0,2.43-.57,3.19-1.15.46.09.93.15,1.39.15,1,0,1.99-.21,2.96-.64.51-.23.74-.82.51-1.32ZM52.9,32.15c-1.11-.87-1.57-1.5-1.98-2.05-.21-.28-.41-.55-.66-.81,1.04-.41,2.48-.77,3.7-.26,1.04.43,1.79,1.45,2.25,3.06-.66.46-1.99,1.09-3.31.06ZM62.44,31.75c-.22-.51-.81-.73-1.32-.51-.98.43-1.98.55-2.98.38-.63-2.26-1.77-3.76-3.42-4.44-3.14-1.29-6.78,1.01-6.93,1.1-.31.2-.48.55-.46.91.02.36.24.68.56.84.76.36.99.68,1.42,1.26.43.59,1.03,1.4,2.36,2.44.91.71,1.85.98,2.72.98,1.29,0,2.43-.57,3.19-1.15.46.09.93.15,1.39.15,1,0,1.99-.21,2.96-.64.51-.23.74-.82.51-1.32ZM52.9,32.15c-1.11-.87-1.57-1.5-1.98-2.05-.21-.28-.41-.55-.66-.81,1.04-.41,2.48-.77,3.7-.26,1.04.43,1.79,1.45,2.25,3.06-.66.46-1.99,1.09-3.31.06ZM68.43,30.38l-9.95-12.77c-.32-.42-.8-.69-1.33-.75-.53-.07-1.05.07-1.47.4l-13.9,10.83c-.43.33-.7.8-.76,1.33-.07.53.08,1.06.41,1.48l9.94,12.77c.4.5.99.77,1.58.77.43,0,.87-.14,1.23-.42l13.9-10.83c.42-.33.69-.8.76-1.33.06-.53-.08-1.06-.41-1.48ZM52.95,42.44l-9.95-12.77,13.91-10.83,9.94,12.77-13.9,10.83ZM54.72,27.18c-3.14-1.29-6.78,1.01-6.93,1.1-.31.2-.48.55-.46.91.02.36.24.68.56.84.76.36.99.68,1.42,1.26.43.59,1.03,1.4,2.36,2.44.91.71,1.85.98,2.72.98,1.29,0,2.43-.57,3.19-1.15.46.09.93.15,1.39.15,1,0,1.99-.21,2.96-.64.51-.23.74-.82.51-1.32-.22-.51-.81-.73-1.32-.51-.98.43-1.98.55-2.98.38-.63-2.26-1.77-3.76-3.42-4.44ZM52.9,32.15c-1.11-.87-1.57-1.5-1.98-2.05-.21-.28-.41-.55-.66-.81,1.04-.41,2.48-.77,3.7-.26,1.04.43,1.79,1.45,2.25,3.06-.66.46-1.99,1.09-3.31.06ZM62.44,31.75c-.22-.51-.81-.73-1.32-.51-.98.43-1.98.55-2.98.38-.63-2.26-1.77-3.76-3.42-4.44-3.14-1.29-6.78,1.01-6.93,1.1-.31.2-.48.55-.46.91.02.36.24.68.56.84.76.36.99.68,1.42,1.26.43.59,1.03,1.4,2.36,2.44.91.71,1.85.98,2.72.98,1.29,0,2.43-.57,3.19-1.15.46.09.93.15,1.39.15,1,0,1.99-.21,2.96-.64.51-.23.74-.82.51-1.32ZM52.9,32.15c-1.11-.87-1.57-1.5-1.98-2.05-.21-.28-.41-.55-.66-.81,1.04-.41,2.48-.77,3.7-.26,1.04.43,1.79,1.45,2.25,3.06-.66.46-1.99,1.09-3.31.06ZM62.44,31.75c-.22-.51-.81-.73-1.32-.51-.98.43-1.98.55-2.98.38-.63-2.26-1.77-3.76-3.42-4.44-3.14-1.29-6.78,1.01-6.93,1.1-.31.2-.48.55-.46.91.02.36.24.68.56.84.76.36.99.68,1.42,1.26.43.59,1.03,1.4,2.36,2.44.91.71,1.85.98,2.72.98,1.29,0,2.43-.57,3.19-1.15.46.09.93.15,1.39.15,1,0,1.99-.21,2.96-.64.51-.23.74-.82.51-1.32ZM52.9,32.15c-1.11-.87-1.57-1.5-1.98-2.05-.21-.28-.41-.55-.66-.81,1.04-.41,2.48-.77,3.7-.26,1.04.43,1.79,1.45,2.25,3.06-.66.46-1.99,1.09-3.31.06ZM62.44,31.75c-.22-.51-.81-.73-1.32-.51-.98.43-1.98.55-2.98.38-.63-2.26-1.77-3.76-3.42-4.44-3.14-1.29-6.78,1.01-6.93,1.1-.31.2-.48.55-.46.91.02.36.24.68.56.84.76.36.99.68,1.42,1.26.43.59,1.03,1.4,2.36,2.44.91.71,1.85.98,2.72.98,1.29,0,2.43-.57,3.19-1.15.46.09.93.15,1.39.15,1,0,1.99-.21,2.96-.64.51-.23.74-.82.51-1.32ZM52.9,32.15c-1.11-.87-1.57-1.5-1.98-2.05-.21-.28-.41-.55-.66-.81,1.04-.41,2.48-.77,3.7-.26,1.04.43,1.79,1.45,2.25,3.06-.66.46-1.99,1.09-3.31.06ZM68.43,30.38l-9.95-12.77c-.32-.42-.8-.69-1.33-.75-.53-.07-1.05.07-1.47.4l-13.9,10.83c-.43.33-.7.8-.76,1.33-.07.53.08,1.06.41,1.48l9.94,12.77c.4.5.99.77,1.58.77.43,0,.87-.14,1.23-.42l13.9-10.83c.42-.33.69-.8.76-1.33.06-.53-.08-1.06-.41-1.48ZM52.95,42.44l-9.95-12.77,13.91-10.83,9.94,12.77-13.9,10.83ZM54.72,27.18c-3.14-1.29-6.78,1.01-6.93,1.1-.31.2-.48.55-.46.91.02.36.24.68.56.84.76.36.99.68,1.42,1.26.43.59,1.03,1.4,2.36,2.44.91.71,1.85.98,2.72.98,1.29,0,2.43-.57,3.19-1.15.46.09.93.15,1.39.15,1,0,1.99-.21,2.96-.64.51-.23.74-.82.51-1.32-.22-.51-.81-.73-1.32-.51-.98.43-1.98.55-2.98.38-.63-2.26-1.77-3.76-3.42-4.44ZM52.9,32.15c-1.11-.87-1.57-1.5-1.98-2.05-.21-.28-.41-.55-.66-.81,1.04-.41,2.48-.77,3.7-.26,1.04.43,1.79,1.45,2.25,3.06-.66.46-1.99,1.09-3.31.06ZM62.44,31.75c-.22-.51-.81-.73-1.32-.51-.98.43-1.98.55-2.98.38-.63-2.26-1.77-3.76-3.42-4.44-3.14-1.29-6.78,1.01-6.93,1.1-.31.2-.48.55-.46.91.02.36.24.68.56.84.76.36.99.68,1.42,1.26.43.59,1.03,1.4,2.36,2.44.91.71,1.85.98,2.72.98,1.29,0,2.43-.57,3.19-1.15.46.09.93.15,1.39.15,1,0,1.99-.21,2.96-.64.51-.23.74-.82.51-1.32ZM52.9,32.15c-1.11-.87-1.57-1.5-1.98-2.05-.21-.28-.41-.55-.66-.81,1.04-.41,2.48-.77,3.7-.26,1.04.43,1.79,1.45,2.25,3.06-.66.46-1.99,1.09-3.31.06ZM90,73.29c-.55,0-1,.45-1,1v1.8c0,.55.45,1,1,1s1-.45,1-1v-1.8c0-.55-.45-1-1-1Z"/></svg>