<?xml version="1.0" encoding="UTF-8"?><svg id="Greeny" xmlns="http://www.w3.org/2000/svg" xmlns:xlink="http://www.w3.org/1999/xlink" viewBox="0 0 96 96"><defs><style>.cls-1{fill:none;}.cls-1,.cls-2,.cls-3,.cls-4,.cls-5,.cls-6,.cls-7,.cls-8,.cls-9,.cls-10{stroke-width:0px;}.cls-2{fill:url(#New_Pattern_Swatch_3);}.cls-3{fill:url(#New_Pattern_Swatch_2);}.cls-4{fill:url(#New_Pattern_Swatch_4);}.cls-5{fill:url(#New_Pattern_Swatch_1);}.cls-6{fill:url(#New_Pattern_Swatch_3-2);}.cls-7{fill:#2faf96;}.cls-8{fill:#1feab0;}.cls-9{fill:#b3ffde;}.cls-10{fill:#008887;}</style><pattern id="New_Pattern_Swatch_4" x="0" y="0" width="112.22" height="112.22" patternTransform="translate(-792 -1992)" patternUnits="userSpaceOnUse" viewBox="0 0 112.22 112.22"><rect class="cls-1" width="112.22" height="112.22"/><rect class="cls-10" width="112.22" height="112.22"/></pattern><pattern id="New_Pattern_Swatch_2" x="0" y="0" width="112.22" height="112.22" patternTransform="translate(-792 -1992)" patternUnits="userSpaceOnUse" viewBox="0 0 112.22 112.22"><rect class="cls-1" width="112.22" height="112.22"/><rect class="cls-8" x="0" width="112.22" height="112.22"/></pattern><pattern id="New_Pattern_Swatch_3" x="0" y="0" width="112.22" height="112.22" patternTransform="translate(-796 -1996)" patternUnits="userSpaceOnUse" viewBox="0 0 112.22 112.22"><rect class="cls-1" width="112.22" height="112.22"/><rect class="cls-9" width="112.22" height="112.22"/></pattern><pattern id="New_Pattern_Swatch_3-2" patternTransform="translate(-795 -1995)" xlink:href="#New_Pattern_Swatch_3"/><pattern id="New_Pattern_Swatch_1" x="0" y="0" width="112.22" height="112.22" patternTransform="translate(-792 -1992)" patternUnits="userSpaceOnUse" viewBox="0 0 112.22 112.22"><rect class="cls-1" width="112.22" height="112.22"/><rect class="cls-7" width="112.22" height="112.22"/></pattern></defs><path class="cls-4" d="M16,80c-.07,0-.14,0-.22-.02-.54-.12-.88-.65-.76-1.19l4-18c.12-.54.66-.88,1.19-.76.54.12.88.65.76,1.19l-4,18c-.1.47-.52.78-.98.78Z"/><path class="cls-4" d="M28,80c-.07,0-.14,0-.22-.02-.54-.12-.88-.65-.76-1.19l4-18c.12-.54.66-.88,1.19-.76.54.12.88.65.76,1.19l-4,18c-.1.47-.52.78-.98.78Z"/><path class="cls-4" d="M40,80c-.07,0-.14,0-.22-.02-.54-.12-.88-.65-.76-1.19l4-18c.12-.54.66-.88,1.19-.76.54.12.88.65.76,1.19l-4,18c-.1.47-.52.78-.98.78Z"/><path class="cls-4" d="M52,80c-.07,0-.14,0-.22-.02-.54-.12-.88-.65-.76-1.19l4-18c.12-.54.66-.88,1.19-.76.54.12.88.65.76,1.19l-4,18c-.1.47-.52.78-.98.78Z"/><path class="cls-4" d="M64,80c-.07,0-.14,0-.22-.02-.54-.12-.88-.65-.76-1.19l4-18c.12-.54.66-.88,1.19-.76.54.12.88.65.76,1.19l-4,18c-.1.47-.52.78-.98.78Z"/><path class="cls-4" d="M76,80c-.07,0-.14,0-.22-.02-.54-.12-.88-.65-.76-1.19l4-18c.12-.54.66-.88,1.19-.76.54.12.88.65.76,1.19l-4,18c-.1.47-.52.78-.98.78Z"/><rect class="cls-3" x="6" y="43" width="84" height="18"/><path class="cls-2" d="M86,43v4c0,5.52-4.48,10-10,10H6v-14h80Z"/><path class="cls-3" d="M89,18H7c-.55,0-1,.45-1,1v6h84v-6c0-.55-.45-1-1-1ZM89,24H7v-5h82v5Z"/><path class="cls-6" d="M86.65,18c-.12.35-.28.68-.46,1H7v3h-1v-3c0-.55.45-1,1-1h79.65Z"/><path class="cls-4" d="M17.5,32h-3c-.55,0-1-.45-1-1s.45-1,1-1h3c.55,0,1,.45,1,1s-.45,1-1,1Z"/><path class="cls-4" d="M25.5,37h-3c-.55,0-1-.45-1-1s.45-1,1-1h3c.55,0,1,.45,1,1s-.45,1-1,1Z"/><path class="cls-4" d="M33.5,32h-3c-.55,0-1-.45-1-1s.45-1,1-1h3c.55,0,1,.45,1,1s-.45,1-1,1Z"/><path class="cls-4" d="M41.5,37h-3c-.55,0-1-.45-1-1s.45-1,1-1h3c.55,0,1,.45,1,1s-.45,1-1,1Z"/><path class="cls-4" d="M49.5,32h-3c-.55,0-1-.45-1-1s.45-1,1-1h3c.55,0,1,.45,1,1s-.45,1-1,1Z"/><path class="cls-4" d="M57.5,37h-3c-.55,0-1-.45-1-1s.45-1,1-1h3c.55,0,1,.45,1,1s-.45,1-1,1Z"/><path class="cls-4" d="M65.5,32h-3c-.55,0-1-.45-1-1s.45-1,1-1h3c.55,0,1,.45,1,1s-.45,1-1,1Z"/><path class="cls-4" d="M73.5,37h-3c-.55,0-1-.45-1-1s.45-1,1-1h3c.55,0,1,.45,1,1s-.45,1-1,1Z"/><path class="cls-4" d="M81.5,32h-3c-.55,0-1-.45-1-1s.45-1,1-1h3c.55,0,1,.45,1,1s-.45,1-1,1Z"/><path class="cls-4" d="M90,50.1c-.55,0-1,.45-1,1v1.8c0,.55.45,1,1,1s1-.45,1-1v-1.8c0-.55-.45-1-1-1ZM80.49,55.93c-.03-.52-.46-.93-.99-.93s-1,.45-1,1c0,.23.08.45.22.62.18.23.46.38.78.38.55,0,1-.45,1-1,0-.02,0-.05-.01-.07ZM83.5,48c-.55,0-1,.45-1,1s.45,1,1,1,1-.45,1-1-.45-1-1-1ZM66.5,54c-.55,0-1,.45-1,1s.45,1,1,1,1-.45,1-1-.45-1-1-1ZM47.5,55c-.55,0-1,.45-1,1s.45,1,1,1,1-.45,1-1-.45-1-1-1ZM34.5,55c-.55,0-1,.45-1,1s.45,1,1,1,1-.45,1-1-.45-1-1-1ZM18.5,55c-.55,0-1,.45-1,1s.45,1,1,1,1-.45,1-1-.45-1-1-1ZM70.5,47c-.55,0-1,.45-1,1s.45,1,1,1,1-.45,1-1-.45-1-1-1ZM57.5,49c-.55,0-1,.45-1,1s.45,1,1,1,1-.45,1-1-.45-1-1-1ZM40.5,48c-.55,0-1,.45-1,1s.45,1,1,1,1-.45,1-1-.45-1-1-1ZM26.5,50c-.55,0-1,.45-1,1s.45,1,1,1,1-.45,1-1-.45-1-1-1ZM12.5,50c-.55,0-1,.45-1,1s.45,1,1,1,1-.45,1-1-.45-1-1-1ZM90,48.5c.55,0,1-.45,1-1v-28.5c0-1.1-.9-2-2-2H7c-1.1,0-2,.9-2,2v59c0,1.1.9,2,2,2h82c1.1,0,2-.9,2-2v-21.5c0-.55-.45-1-1-1s-1,.45-1,1v3.5H7v-16h82v3.5c0,.55.45,1,1,1ZM7,19h82v5H7v-5ZM7,26h82v16H7v-16ZM89,78H7v-16h82v16Z"/><path class="cls-5" d="M91,19v7H5v-7c0-1.1.9-2,2-2h82c1.1,0,2,.9,2,2Z"/></svg>