<?xml version="1.0" encoding="UTF-8"?><svg id="Greeny" xmlns="http://www.w3.org/2000/svg" xmlns:xlink="http://www.w3.org/1999/xlink" viewBox="0 0 96 96"><defs><style>.cls-1{fill:none;}.cls-1,.cls-2,.cls-3,.cls-4,.cls-5,.cls-6,.cls-7,.cls-8,.cls-9,.cls-10{stroke-width:0px;}.cls-2{fill:url(#New_Pattern_Swatch_3);}.cls-3{fill:url(#New_Pattern_Swatch_2);}.cls-4{fill:url(#New_Pattern_Swatch_4);}.cls-5{fill:url(#New_Pattern_Swatch_1);}.cls-6{fill:url(#New_Pattern_Swatch_3-2);}.cls-7{fill:#2faf96;}.cls-8{fill:#1feab0;}.cls-9{fill:#b3ffde;}.cls-10{fill:#008887;}</style><pattern id="New_Pattern_Swatch_2" x="0" y="0" width="112.22" height="112.22" patternTransform="translate(-988 -1992)" patternUnits="userSpaceOnUse" viewBox="0 0 112.22 112.22"><rect class="cls-1" width="112.22" height="112.22"/><rect class="cls-8" x="0" width="112.22" height="112.22"/></pattern><pattern id="New_Pattern_Swatch_3" x="0" y="0" width="112.22" height="112.22" patternTransform="translate(-991 -1994)" patternUnits="userSpaceOnUse" viewBox="0 0 112.22 112.22"><rect class="cls-1" width="112.22" height="112.22"/><rect class="cls-9" width="112.22" height="112.22"/></pattern><pattern id="New_Pattern_Swatch_3-2" patternTransform="translate(-985 -1994)" xlink:href="#New_Pattern_Swatch_3"/><pattern id="New_Pattern_Swatch_1" x="0" y="0" width="112.22" height="112.22" patternTransform="translate(-988 -1992)" patternUnits="userSpaceOnUse" viewBox="0 0 112.22 112.22"><rect class="cls-1" width="112.22" height="112.22"/><rect class="cls-7" width="112.22" height="112.22"/></pattern><pattern id="New_Pattern_Swatch_4" x="0" y="0" width="112.22" height="112.22" patternTransform="translate(-988 -1992)" patternUnits="userSpaceOnUse" viewBox="0 0 112.22 112.22"><rect class="cls-1" width="112.22" height="112.22"/><rect class="cls-10" width="112.22" height="112.22"/></pattern></defs><path class="cls-3" d="M56.46,42.41s-.09-.46-.18-1.25c-.43-3.67-.97-14.59,6.76-20.36,7.33-5.47,17.84-4.13,23.8-6.4,1.29-.49,2.37-1.15,3.16-2.09,0,0,1.15,40.46-33.54,30.1Z"/><path class="cls-2" d="M86.84,14.4c-.77,9.65-5.27,32.63-30.56,26.76-.43-3.67-.97-14.59,6.76-20.36,7.33-5.47,17.84-4.13,23.8-6.4Z"/><path class="cls-3" d="M39.72,36.7c-.09.79-.18,1.25-.18,1.25C4.85,48.32,6,7.86,6,7.86c.79.94,1.87,1.6,3.16,2.08,5.96,2.27,16.47.93,23.8,6.4,7.73,5.78,7.19,16.68,6.76,20.36Z"/><path class="cls-6" d="M39.72,36.7C14.42,42.58,9.93,19.59,9.16,9.94c5.96,2.27,16.47.93,23.8,6.4,7.73,5.78,7.19,16.68,6.76,20.36Z"/><path class="cls-5" d="M38.73,82.05h-2.74c-.55,0-1-.45-1-1s.45-1,1-1h2.74c.55,0,1,.45,1,1s-.45,1-1,1Z"/><path class="cls-5" d="M60.08,82.05h-2.74c-.55,0-1-.45-1-1s.45-1,1-1h2.74c.55,0,1,.45,1,1s-.45,1-1,1Z"/><path class="cls-5" d="M49.62,77.15h-2.74c-.55,0-1-.45-1-1s.45-1,1-1h2.74c.55,0,1,.45,1,1s-.45,1-1,1Z"/><path class="cls-4" d="M91,12.28c-.01-.41-.28-.78-.67-.92-.39-.14-.83-.02-1.09.3-1.87,2.22-5.88,2.72-10.53,3.29-5.35.66-11.41,1.41-16.27,5.04-9.03,6.74-7.42,19.77-7.03,22.21-2.87,3.9-5.44,8.96-6.98,15.42-1.28-8.64-4.34-15.1-7.84-19.86.39-2.4,2.02-15.47-7.03-22.23-4.85-3.62-10.91-4.37-16.26-5.03-4.65-.57-8.66-1.07-10.53-3.29-.27-.32-.7-.44-1.09-.3-.39.14-.66.5-.67.92-.02.81-.44,19.93,10.94,28.66,3.61,2.77,8,4.16,13.1,4.16,3.12,0,6.52-.54,10.17-1.58,4.26,5.92,7.8,14.65,7.85,27.29-3.23.32-5.98,2.38-7.17,5.38-1.07-.46-2.22-.69-3.38-.69-3.62,0-6.78,2.21-8.06,5.5-1.32-.52-2.76-.7-4.22-.52-4.3.53-7.54,4.33-7.54,8.84v1.24c0,1.67,1.36,3.04,3.04,3.04h56.39c1.67,0,3.04-1.36,3.04-3.04v-1.25c0-4.57-3.31-8.37-7.7-8.84-1.41-.15-2.79.04-4.07.54-1.28-3.29-4.43-5.5-8.05-5.5-1.17,0-2.33.24-3.39.69-1.15-2.89-3.77-4.93-6.85-5.35.76-10.23,4.01-17.6,7.8-22.83,3.61,1.02,6.96,1.54,10.05,1.54,5.41,0,10.01-1.56,13.73-4.68.42-.35.48-.98.12-1.41-.35-.42-.98-.48-1.41-.12-5.16,4.32-12.28,5.31-21.17,2.97,6.11-7.45,13.01-9.82,13.13-9.86.52-.17.81-.73.64-1.26-.17-.52-.73-.81-1.26-.64-.12.04-7.16,2.43-13.56,9.9-.33-4.22-.19-13.43,6.46-18.39,4.43-3.31,10.21-4.02,15.31-4.66,3.97-.49,7.52-.93,10.01-2.46-.17,3.63-.92,11.2-4.26,17.61-.25.49-.06,1.09.42,1.35.49.25,1.09.06,1.35-.43,4.8-9.21,4.54-20.27,4.52-20.74ZM17.17,34.91C8.74,28.44,7.29,15.22,7.05,10.04c2.49,1.52,6.04,1.96,10,2.45,5.1.63,10.88,1.35,15.31,4.65,6.66,4.98,6.8,14.2,6.46,18.41-6.39-7.47-13.43-9.87-13.56-9.92-.53-.17-1.09.12-1.26.64-.17.52.12,1.09.64,1.26.51.16,7.28,2.5,13.26,9.83-8.62,2.3-15.59,1.48-20.73-2.46ZM54.39,73.41c.08.31.3.57.59.69.3.12.63.1.91-.07,1.03-.64,2.23-.98,3.45-.98,3.1,0,5.75,2.11,6.46,5.13.07.31.28.56.57.69.29.13.62.11.89-.05,1.22-.7,2.56-.97,3.98-.82,3.32.36,5.92,3.37,5.92,6.85v1.25c0,.57-.47,1.04-1.04,1.04H19.73c-.57,0-1.04-.47-1.04-1.04v-1.24c0-3.5,2.49-6.44,5.79-6.85.29-.04.57-.05.86-.05,1.14,0,2.25.29,3.23.86.27.16.61.18.9.05.29-.13.5-.38.58-.69.71-3.02,3.37-5.13,6.48-5.13,1.22,0,2.41.34,3.46.98.27.17.61.19.91.07.3-.12.51-.38.59-.69.71-3,3.36-5.1,6.45-5.1s5.74,2.1,6.46,5.11ZM84.28,34.87c.45.32.55.95.23,1.4-.4.56-.77,1.03-1.14,1.46-.18.23-.47.39-.79.39-.55,0-1-.44-1-1,0-.24.09-.48.25-.67.34-.39.67-.82,1.05-1.35.32-.45.94-.55,1.4-.23Z"/></svg>