<?xml version="1.0" encoding="UTF-8"?><svg id="Greeny" xmlns="http://www.w3.org/2000/svg" xmlns:xlink="http://www.w3.org/1999/xlink" viewBox="0 0 96 96"><defs><style>.cls-1{fill:none;}.cls-1,.cls-2,.cls-3,.cls-4,.cls-5,.cls-6,.cls-7,.cls-8,.cls-9,.cls-10{stroke-width:0px;}.cls-2{fill:url(#New_Pattern_Swatch_3);}.cls-3{fill:url(#New_Pattern_Swatch_2);}.cls-4{fill:url(#New_Pattern_Swatch_4);}.cls-5{fill:url(#New_Pattern_Swatch_1);}.cls-6{fill:url(#New_Pattern_Swatch_3-2);}.cls-7{fill:#2faf96;}.cls-8{fill:#1feab0;}.cls-9{fill:#b3ffde;}.cls-10{fill:#008887;}</style><pattern id="New_Pattern_Swatch_2" x="0" y="0" width="112.22" height="112.22" patternTransform="translate(-204 -2188)" patternUnits="userSpaceOnUse" viewBox="0 0 112.22 112.22"><rect class="cls-1" width="112.22" height="112.22"/><rect class="cls-8" x="0" width="112.22" height="112.22"/></pattern><pattern id="New_Pattern_Swatch_3" x="0" y="0" width="112.22" height="112.22" patternTransform="translate(-208 -2188)" patternUnits="userSpaceOnUse" viewBox="0 0 112.22 112.22"><rect class="cls-1" width="112.22" height="112.22"/><rect class="cls-9" width="112.22" height="112.22"/></pattern><pattern id="New_Pattern_Swatch_4" x="0" y="0" width="112.22" height="112.22" patternTransform="translate(-204 -2188)" patternUnits="userSpaceOnUse" viewBox="0 0 112.22 112.22"><rect class="cls-1" width="112.22" height="112.22"/><rect class="cls-10" width="112.22" height="112.22"/></pattern><pattern id="New_Pattern_Swatch_1" x="0" y="0" width="112.22" height="112.22" patternTransform="translate(-204 -2188)" patternUnits="userSpaceOnUse" viewBox="0 0 112.22 112.22"><rect class="cls-1" width="112.22" height="112.22"/><rect class="cls-7" width="112.22" height="112.22"/></pattern><pattern id="New_Pattern_Swatch_3-2" patternTransform="translate(-204 -2188)" xlink:href="#New_Pattern_Swatch_3"/></defs><path class="cls-3" d="M42.93,72.15l-19.08-19.08c-.87-.88-2.3-.88-3.17,0l-.41.42-6.17,6.16c-5.05,5.05-7.79,11.83-7.79,18.79,0,2.33.31,4.69.94,7,.44,1.61,1.7,2.87,3.31,3.31,1.64.45,3.31.73,4.97.86,6.62.51,13.22-1.48,18.46-5.62.43-.33.84-.67,1.24-1.04.39-.33.76-.69,1.12-1.05l1.6-1.6,4.98-4.98c.88-.87.88-2.3,0-3.17ZM31.01,61.64l3.35,3.35-1.29,1.3-3.11,3.11c-1.68,1.67-3.9,2.78-6.24,3.12-.08.01-.15-.03-.18-.06-.03-.03-.07-.09-.06-.18.34-2.34,1.45-4.56,3.12-6.24l3.11-3.11,1.3-1.29Z"/><path class="cls-2" d="M34.86,79.39l-2.51,2.51c-2.96,2.96-6.52,5.13-10.37,6.41-2.08.7-4.25,1.14-6.45,1.3-1.66-.13-3.33-.41-4.97-.86-1.61-.44-2.87-1.7-3.31-3.31-.63-2.31-.94-4.67-.94-7,0-6.96,2.74-13.74,7.79-18.79l6.17-6.16.7.7,7.33,7.33,1.41,1.41-3.11,3.11c-1.67,1.68-2.78,3.9-3.12,6.24-.01.09.03.15.06.18.03.03.1.07.18.06,2.34-.34,4.56-1.45,6.24-3.12l3.11-3.11,1.41,1.41.38.38c3.13,3.12,3.13,8.19,0,11.31Z"/><path class="cls-4" d="M67.49,33.28l-4.77-4.77c-.39-.39-1.03-.39-1.42,0l-30.3,30.3-6.44-6.44c-1.22-1.24-3.38-1.23-4.59-.01l-6.58,6.58c-5.21,5.22-8.08,12.14-8.08,19.5,0,2.45.33,4.89.98,7.26.53,1.95,2.06,3.48,4.01,4.01,2.41.66,4.87.99,7.3.99,5.76,0,11.41-1.82,16.18-5.3.45-.33.54-.95.22-1.4h-.01c-.33-.45-.94-.54-1.39-.22-3.2,2.35-6.83,3.87-10.62,4.53-3.65.65-7.45.49-11.16-.52-1.26-.35-2.26-1.35-2.61-2.61-.6-2.2-.9-4.47-.9-6.74,0-6.83,2.66-13.25,7.5-18.08l6.16-6.17.42-.42c.46-.46,1.28-.47,1.75.01l6.45,6.45-1.29,1.29-3.11,3.11c-1.98,1.98-3.29,4.6-3.69,7.37-.1.69.13,1.38.63,1.87.42.42.97.65,1.55.65.11,0,.21-.01.32-.02,2.77-.4,5.39-1.71,7.37-3.69l4.4-4.4,6.46,6.45c.23.23.36.54.36.88s-.13.64-.37.87l-3.14,3.14c-.39.39-.39,1.03,0,1.42.39.39,1.03.39,1.42,0l3.13-3.14c.62-.61.96-1.42.96-2.29s-.34-1.69-.95-2.3l-6.45-6.45,30.3-30.29c.39-.39.39-1.03,0-1.42ZM29.96,69.4c-1.68,1.67-3.9,2.78-6.24,3.12-.08.01-.15-.03-.18-.06-.03-.03-.07-.09-.06-.18.34-2.34,1.45-4.56,3.12-6.24l3.11-3.11,1.3-1.29,3.35,3.35-1.29,1.3-3.11,3.11ZM35.78,63.58l-3.36-3.36,29.59-29.59,3.36,3.36-29.59,29.59ZM37.95,80.3c-.39-.39-1.03-.39-1.42,0l-.89.89c-.11.11-.22.22-.33.32-.42.35-.47.98-.11,1.41.01.01.02.02.03.03.19.21.46.32.73.32.23,0,.46-.08.65-.24.15-.12.3-.27.45-.42l.89-.89c.39-.39.39-1.03,0-1.42Z"/><path class="cls-5" d="M89.74,25.16l-4.4,4.4c-1.95,1.95-4.88,2.59-7.46,1.62l-3.84-1.45-4.97,4.97c-.41.41-.96.62-1.5.62s-1.09-.21-1.5-.62l-4.77-4.77c-.83-.83-.83-2.17,0-3l4.97-4.97-1.45-3.84c-.97-2.58-.33-5.51,1.62-7.46l4.4-4.4c1.26-1.27,3.32-1.26,4.59,0l14.31,14.31c1.26,1.26,1.26,3.33,0,4.59Z"/><polygon class="cls-6" points="84.26 22.87 80.75 26.38 72.65 23.35 69.62 15.25 73.13 11.74 84.26 22.87"/><path class="cls-4" d="M80.75,27.38c-.12,0-.24-.02-.35-.06l-8.09-3.04c-.27-.1-.48-.31-.58-.58l-3.04-8.09c-.14-.37-.05-.78.23-1.06l3.52-3.52c.38-.38,1.04-.38,1.41,0l11.13,11.13c.39.39.39,1.02,0,1.41l-3.52,3.52c-.19.19-.45.29-.71.29ZM73.43,22.57l7.06,2.65,2.35-2.35-9.71-9.71-2.35,2.35,2.65,7.06Z"/></svg>