<?xml version="1.0" encoding="UTF-8"?><svg id="Greeny" xmlns="http://www.w3.org/2000/svg" xmlns:xlink="http://www.w3.org/1999/xlink" viewBox="0 0 96 96"><defs><style>.cls-1{fill:none;}.cls-1,.cls-2,.cls-3,.cls-4,.cls-5,.cls-6,.cls-7{stroke-width:0px;}.cls-2{fill:url(#New_Pattern_Swatch_3);}.cls-3{fill:url(#New_Pattern_Swatch_4);}.cls-4{fill:url(#New_Pattern_Swatch_1);}.cls-5{fill:#2faf96;}.cls-6{fill:#b3ffde;}.cls-7{fill:#008887;}</style><pattern id="New_Pattern_Swatch_3" x="0" y="0" width="112.22" height="112.22" patternTransform="translate(-400 -2188)" patternUnits="userSpaceOnUse" viewBox="0 0 112.22 112.22"><rect class="cls-1" width="112.22" height="112.22"/><rect class="cls-6" width="112.22" height="112.22"/></pattern><pattern id="New_Pattern_Swatch_4" x="0" y="0" width="112.22" height="112.22" patternTransform="translate(-400 -2188)" patternUnits="userSpaceOnUse" viewBox="0 0 112.22 112.22"><rect class="cls-1" width="112.22" height="112.22"/><rect class="cls-7" width="112.22" height="112.22"/></pattern><pattern id="New_Pattern_Swatch_1" x="0" y="0" width="112.22" height="112.22" patternTransform="translate(-400 -2188)" patternUnits="userSpaceOnUse" viewBox="0 0 112.22 112.22"><rect class="cls-1" width="112.22" height="112.22"/><rect class="cls-5" width="112.22" height="112.22"/></pattern></defs><path class="cls-2" d="M17.79,77.37v-23.16c0-.75.61-1.36,1.36-1.36h10.77c.08,0,.17,0,.25.02l49.17,9.3c.64.12,1.11.68,1.11,1.34v13.86H17.79Z"/><path class="cls-2" d="M76.01,45.51l-4.43-9.86c-.22-.48-.68-.79-1.2-.81l-24.54-.75c-.49-.02-.95.23-1.21.66l-3.46,5.78c-.19.31-.24.68-.16,1.03l1.43,5.67,26.24,4.98c.39.07.8-.03,1.12-.29l5.83-4.8c.48-.39.63-1.05.38-1.61ZM47.32,42.05l-.02-.08,1.08-1.8,18.91.58,1.79,3.99-1.42,1.17-20.34-3.86Z"/><path class="cls-3" d="M70.91,43.92l-1.79-3.99c-.31-.69-1-1.15-1.77-1.18l-18.91-.58c-.72-.02-1.4.35-1.78.97l-1.07,1.8c-.28.46-.36,1-.23,1.51l.18.71c.09.38.4.67.78.74l20.97,3.97c.12.03.25.04.37.04.46,0,.91-.16,1.27-.46l1.42-1.17c.7-.57.93-1.54.56-2.36ZM67.66,45.91l-20.34-3.86-.02-.08,1.08-1.8,18.91.58,1.79,3.99-1.42,1.17ZM61.39,62.98c-.55,0-1,.45-1,1v8.78c0,.55.45,1,1,1s1-.45,1-1v-8.78c0-.55-.45-1-1-1ZM54.58,62.98c-.55,0-1,.45-1,1v8.78c0,.55.45,1,1,1s1-.45,1-1v-8.78c0-.55-.45-1-1-1ZM47.77,62.98c-.56,0-1,.45-1,1v8.78c0,.55.44,1,1,1s1-.45,1-1v-8.78c0-.55-.45-1-1-1ZM70.93,76.37h-12.8c-.55,0-1,.45-1,1s.45,1,1,1h12.8c.55,0,1-.45,1-1s-.45-1-1-1ZM49.13,76.37h-9.84c-.55,0-1,.45-1,1s.45,1,1,1h9.84c.55,0,1-.45,1-1s-.45-1-1-1ZM54.53,76.37h-1.8c-.55,0-1,.45-1,1s.45,1,1,1h1.8c.55,0,1-.45,1-1s-.45-1-1-1ZM70.91,43.92l-1.79-3.99c-.31-.69-1-1.15-1.77-1.18l-18.91-.58c-.72-.02-1.4.35-1.78.97l-1.07,1.8c-.28.46-.36,1-.23,1.51l.18.71c.09.38.4.67.78.74l20.97,3.97c.12.03.25.04.37.04.46,0,.91-.16,1.27-.46l1.42-1.17c.7-.57.93-1.54.56-2.36ZM67.66,45.91l-20.34-3.86-.02-.08,1.08-1.8,18.91.58,1.79,3.99-1.42,1.17ZM79.54,61.19l-13.12-2.48.92-5.74,1.15.22c.15.03.3.04.44.04.55,0,1.07-.18,1.5-.54l5.84-4.8c.82-.67,1.09-1.82.65-2.79l-4.43-9.86c-.37-.82-1.19-1.37-2.08-1.4l-24.54-.75c-.84-.04-1.65.41-2.09,1.14l-3.47,5.79c-.32.53-.42,1.18-.27,1.79l1.43,5.67c.1.38.4.66.78.74l1.84.34-.92,5.75-12.81-2.42c-.14-.03-.29-.05-.43-.05h-2.59V17.83c0-1.56-.98-2.96-2.41-3.49l-5.51-2.22-9.41-3.8c-.94-.34-1.95-.3-2.85.12-.9.42-1.59,1.17-1.93,2.1-.71,1.93.29,4.07,2.18,4.77l9.18,3.74h0s3.31,1.35,3.31,1.35v31.44h-.74c-1.31,0-2.37,1.06-2.37,2.37v16.75h2v-16.75c0-.2.17-.37.37-.37h10.83s49.18,9.31,49.18,9.31c.17.04.29.19.29.36v4.32h2v-4.32c0-1.13-.81-2.11-1.92-2.32ZM16.42,16.83l-8.29-3.39c-.89-.33-1.35-1.32-1.02-2.21.32-.89,1.32-1.35,2.18-1.04l8.45,3.41-1.32,3.23ZM25.34,51.84h-3.44V19.73c0-.4-.25-.77-.63-.92l-3-1.23,1.33-3.23,4.61,1.86c.68.25,1.13.9,1.13,1.62v34.01ZM42.02,41.05l3.47-5.79c.07-.11.19-.18.32-.18l24.54.76c.14.01.26.09.32.22l4.43,9.86c.06.15.02.33-.1.43l-5.84,4.8c-.08.07-.19.1-.3.08l-25.61-4.86-1.27-5.05c-.02-.09,0-.19.04-.27ZM64.46,58.34l-19.32-3.66.92-5.74,19.31,3.66-.91,5.74ZM45.54,43.16c.09.38.4.67.78.74l20.97,3.97c.12.03.25.04.37.04.46,0,.91-.16,1.27-.46l1.42-1.17c.7-.57.93-1.54.56-2.36l-1.79-3.99c-.31-.69-1-1.15-1.77-1.18l-18.91-.58c-.72-.02-1.4.35-1.78.97l-1.07,1.8c-.28.46-.36,1-.23,1.51l.18.71ZM48.38,40.17l18.91.58,1.79,3.99-1.42,1.17-20.34-3.86-.02-.08,1.08-1.8Z"/><circle class="cls-4" cx="80.46" cy="77.37" r="9.54"/><circle class="cls-2" cx="80.46" cy="77.37" r="4.09"/><circle class="cls-4" cx="27.33" cy="74.64" r="12.26"/><circle class="cls-2" cx="27.33" cy="74.64" r="4.89"/><path class="cls-3" d="M80.46,82.45c-2.81,0-5.09-2.28-5.09-5.09s2.28-5.09,5.09-5.09,5.09,2.28,5.09,5.09-2.28,5.09-5.09,5.09ZM80.46,74.28c-1.7,0-3.09,1.38-3.09,3.09s1.38,3.09,3.09,3.09,3.09-1.38,3.09-3.09-1.38-3.09-3.09-3.09ZM27.33,80.53c-3.25,0-5.89-2.64-5.89-5.89s2.64-5.89,5.89-5.89,5.89,2.64,5.89,5.89-2.64,5.89-5.89,5.89ZM27.33,70.75c-2.15,0-3.89,1.75-3.89,3.89s1.75,3.89,3.89,3.89,3.89-1.75,3.89-3.89-1.75-3.89-3.89-3.89Z"/></svg>