<?xml version="1.0" encoding="UTF-8"?><svg id="Greeny" xmlns="http://www.w3.org/2000/svg" xmlns:xlink="http://www.w3.org/1999/xlink" viewBox="0 0 96 96"><defs><style>.cls-1{fill:none;}.cls-1,.cls-2,.cls-3,.cls-4,.cls-5,.cls-6,.cls-7,.cls-8,.cls-9,.cls-10,.cls-11,.cls-12{stroke-width:0px;}.cls-2{fill:url(#New_Pattern_Swatch_3);}.cls-3{fill:url(#New_Pattern_Swatch_2);}.cls-4{fill:url(#New_Pattern_Swatch_4);}.cls-5{fill:url(#New_Pattern_Swatch_1);}.cls-6{fill:url(#New_Pattern_Swatch_3-4);}.cls-7{fill:url(#New_Pattern_Swatch_3-2);}.cls-8{fill:url(#New_Pattern_Swatch_3-3);}.cls-9{fill:#2faf96;}.cls-10{fill:#1feab0;}.cls-11{fill:#b3ffde;}.cls-12{fill:#008887;}</style><pattern id="New_Pattern_Swatch_2" x="0" y="0" width="112.22" height="112.22" patternTransform="translate(-596 -2188)" patternUnits="userSpaceOnUse" viewBox="0 0 112.22 112.22"><rect class="cls-1" width="112.22" height="112.22"/><rect class="cls-10" x="0" width="112.22" height="112.22"/></pattern><pattern id="New_Pattern_Swatch_3" x="0" y="0" width="112.22" height="112.22" patternTransform="translate(-598 -2190)" patternUnits="userSpaceOnUse" viewBox="0 0 112.22 112.22"><rect class="cls-1" width="112.22" height="112.22"/><rect class="cls-11" width="112.22" height="112.22"/></pattern><pattern id="New_Pattern_Swatch_3-2" patternTransform="translate(-596 -2188)" xlink:href="#New_Pattern_Swatch_3"/><pattern id="New_Pattern_Swatch_3-3" patternTransform="translate(-596 -2188)" xlink:href="#New_Pattern_Swatch_3"/><pattern id="New_Pattern_Swatch_3-4" patternTransform="translate(-596 -2188)" xlink:href="#New_Pattern_Swatch_3"/><pattern id="New_Pattern_Swatch_4" x="0" y="0" width="112.22" height="112.22" patternTransform="translate(-596 -2188)" patternUnits="userSpaceOnUse" viewBox="0 0 112.22 112.22"><rect class="cls-1" width="112.22" height="112.22"/><rect class="cls-12" width="112.22" height="112.22"/></pattern><pattern id="New_Pattern_Swatch_1" x="0" y="0" width="112.22" height="112.22" patternTransform="translate(-596 -2188)" patternUnits="userSpaceOnUse" viewBox="0 0 112.22 112.22"><rect class="cls-1" width="112.22" height="112.22"/><rect class="cls-9" width="112.22" height="112.22"/></pattern></defs><path class="cls-3" d="M58,9.75v18.67h-10.97c-1.36,0-2.51-.9-2.89-2.14-.09-.28-.14-.58-.14-.9v-12.6c0-1.67,1.36-3.03,3.03-3.03h10.97Z"/><path class="cls-2" d="M56,9.75v6.67c0,5.52-4.48,10-10,10h-.97c-.31,0-.61-.05-.89-.14-.09-.28-.14-.58-.14-.9v-12.6c0-1.67,1.36-3.03,3.03-3.03h8.97Z"/><path class="cls-3" d="M44,13v12.17h-8.29c-1.46,0-2.7-.92-3.17-2.21-.14-.37-.21-.76-.21-1.17v-5.41c0-1.87,1.51-3.38,3.38-3.38h8.29Z"/><path class="cls-2" d="M42,13v1.88c0,4.57-3.71,8.29-8.29,8.29-.41,0-.8-.07-1.17-.21-.14-.37-.21-.76-.21-1.17v-5.41c0-1.87,1.51-3.38,3.38-3.38h6.29Z"/><path class="cls-7" d="M15.33,70.25h0c0-1.93,1.57-3.5,3.5-3.5h58.33c1.93,0,3.5,1.57,3.5,3.5h0c0,1.93-1.57,3.5-3.5,3.5H18.83c-1.93,0-3.5-1.57-3.5-3.5Z"/><path class="cls-8" d="M6,84.25h0c0-1.93,1.57-3.5,3.5-3.5h77c1.93,0,3.5,1.57,3.5,3.5h0c0,1.93-1.57,3.5-3.5,3.5H9.5c-1.93,0-3.5-1.57-3.5-3.5Z"/><path class="cls-6" d="M32.33,15.58h-3.62c-1.86,0-3.38,1.51-3.38,3.38h0c0,.73-.29,1.42-.8,1.93-1.28,1.27-3.65,4.77-3.85,13.34-.02.65.52,1.19,1.17,1.19h.21c1.78,0,3.28-1.32,3.5-3.09.49-3.8,2.01-9.74,6.77-9.74v-7Z"/><path class="cls-4" d="M49.1,9.75c0-.55.45-1,1-1h1.8c.55,0,1,.45,1,1s-.45,1-1,1h-1.8c-.55,0-1-.45-1-1ZM91,84.25c0,2.48-2.02,4.5-4.5,4.5H9.5c-2.48,0-4.5-2.02-4.5-4.5s2.02-4.5,4.5-4.5h.93c-.48-.72-.76-1.58-.76-2.5,0-2.48,2.02-4.5,4.5-4.5h.93c-.48-.72-.76-1.58-.76-2.5,0-2.48,2.02-4.5,4.5-4.5h4.89v-4.67c0-4.96,4.04-9,9-9h.95c.55,0,1-.45,1-1v-4c0-.55.45-1,1-1h7c.55,0,1,.45,1,1v5c0,4.96-4.04,9-9,9h-.95c-.55,0-1,.45-1,1v3.67h44.45c2.48,0,4.5,2.02,4.5,4.5,0,.92-.28,1.78-.76,2.5h.93c2.48,0,4.5,2.02,4.5,4.5,0,.92-.28,1.78-.76,2.5h.93c2.48,0,4.5,2.02,4.5,4.5ZM25.72,65.75h5v-3.67c0-1.65,1.35-3,3-3h.95c3.86,0,7-3.14,7-7v-4h-5v3c0,1.65-1.35,3-3,3h-.95c-3.86,0-7,3.14-7,7v4.67ZM18.83,72.75h58.33c1.38,0,2.5-1.12,2.5-2.5s-1.12-2.5-2.5-2.5H18.83c-1.38,0-2.5,1.12-2.5,2.5s1.12,2.5,2.5,2.5ZM14.17,79.75h67.67c1.38,0,2.5-1.12,2.5-2.5s-1.12-2.5-2.5-2.5H14.17c-1.38,0-2.5,1.12-2.5,2.5s1.12,2.5,2.5,2.5ZM89,84.25c0-1.38-1.12-2.5-2.5-2.5H9.5c-1.38,0-2.5,1.12-2.5,2.5s1.12,2.5,2.5,2.5h77c1.38,0,2.5-1.12,2.5-2.5ZM20.29,35.76c-.41-.42-.63-.97-.61-1.55.21-8.83,2.69-12.58,4.14-14.03.33-.33.51-.76.51-1.22,0-2.41,1.96-4.38,4.38-4.38h3.02c.69-1.52,2.21-2.58,3.98-2.58h7.37c.32-1.61,1.58-2.89,3.25-3.19.55-.1,1.06.27,1.16.81s-.27,1.06-.81,1.16c-.97.17-1.67,1.01-1.67,2v12.6c0,1.12.91,2.04,2.03,2.04h9.97V10.75h-1.5c-.55,0-1-.45-1-1s.45-1,1-1h2.5c.55,0,1,.45,1,1v18.67c0,.55-.45,1-1,1h-10.97c-1.41,0-2.64-.73-3.36-1.82v13.65c0,.55-.45,1-1,1h-7c-.55,0-1-.45-1-1v-15.22c-1.29-.32-2.36-1.21-2.91-2.39-3.59.51-4.8,5.67-5.2,8.82-.29,2.26-2.22,3.96-4.5,3.96h-.21c-.58,0-1.15-.24-1.55-.66ZM41.67,26.17h-5v14.08h5v-14.08ZM33.33,16.38v5.42c0,1.31,1.07,2.38,2.38,2.38h7.29v-10.17h-7.29c-1.31,0-2.38,1.07-2.38,2.38ZM21.68,34.25c0,.05.02.09.05.11.02.02.06.05.12.05h.21c1.27,0,2.35-.95,2.51-2.22.8-6.28,3.19-9.97,6.76-10.54v-5.08h-2.62c-1.31,0-2.38,1.07-2.38,2.38,0,1-.39,1.94-1.1,2.64-1,1-3.35,4.22-3.55,12.66Z"/><rect class="cls-5" x="57" y="5.25" width="9" height="27.67" rx="3" ry="3"/><rect class="cls-5" x="33.5" y="40.25" width="11.33" height="7.83" rx="2" ry="2"/></svg>