<?xml version="1.0" encoding="UTF-8"?><svg id="Greeny" xmlns="http://www.w3.org/2000/svg" xmlns:xlink="http://www.w3.org/1999/xlink" viewBox="0 0 96 96"><defs><style>.cls-1{fill:none;}.cls-1,.cls-2,.cls-3,.cls-4,.cls-5,.cls-6,.cls-7,.cls-8{stroke-width:0px;}.cls-2{fill:url(#New_Pattern_Swatch_3);}.cls-3{fill:url(#New_Pattern_Swatch_2);}.cls-4{fill:url(#New_Pattern_Swatch_4);}.cls-5{fill:url(#New_Pattern_Swatch_3-2);}.cls-6{fill:#1feab0;}.cls-7{fill:#b3ffde;}.cls-8{fill:#008887;}</style><pattern id="New_Pattern_Swatch_2" x="0" y="0" width="112.22" height="112.22" patternTransform="translate(-792 -2188)" patternUnits="userSpaceOnUse" viewBox="0 0 112.22 112.22"><rect class="cls-1" width="112.22" height="112.22"/><rect class="cls-6" x="0" width="112.22" height="112.22"/></pattern><pattern id="New_Pattern_Swatch_3" x="0" y="0" width="112.22" height="112.22" patternTransform="translate(-793 -2185)" patternUnits="userSpaceOnUse" viewBox="0 0 112.22 112.22"><rect class="cls-1" width="112.22" height="112.22"/><rect class="cls-7" width="112.22" height="112.22"/></pattern><pattern id="New_Pattern_Swatch_3-2" patternTransform="translate(-789 -2189)" xlink:href="#New_Pattern_Swatch_3"/><pattern id="New_Pattern_Swatch_4" x="0" y="0" width="112.22" height="112.22" patternTransform="translate(-792 -2188)" patternUnits="userSpaceOnUse" viewBox="0 0 112.22 112.22"><rect class="cls-1" width="112.22" height="112.22"/><rect class="cls-8" width="112.22" height="112.22"/></pattern></defs><path class="cls-3" d="M89.89,60.99c-1.2-3.82-4.2-7.41-7.69-10.33-.41-.35-.83-.68-1.25-1-1.02-.8-2.07-1.53-3.12-2.19-.46-.29-.92-.57-1.38-.83-1.44-.83-2.84-1.52-4.13-2.04-5.12-2.06-10.75-6.98-13.83-9.92-1.53-1.47-3.63-2.2-5.75-1.99l-14.57,1.47c-2.44.24-4.18,2.34-4.1,4.68,0,.34.05.69.14,1.04l1.52,5.68c.23.87.97,1.51,1.86,1.61,4.74.52,8.27-.85,10.29-2,1.35-.77,3-.81,4.37-.07l34.56,18.47c.67.36,1.37.33,1.95.04.9-.43,1.49-1.48,1.13-2.62ZM41.84,41.41c-.47.47-1.24.47-1.71,0-.47-.47-.47-1.24,0-1.71.24-.24.55-.36.86-.36s.62.12.85.36c.47.47.47,1.24,0,1.71Z"/><path class="cls-2" d="M88.39,62.67c-2.9-6.81-11.19-12.7-17.07-15.07-2.47-.99-5.06-2.66-7.42-4.44-1.81-1.35-3.48-2.79-4.87-4.05-.56-.51-1.08-.99-1.54-1.43-1.53-1.47-3.63-2.2-5.75-1.99l-14.57,1.47c-.75.08-1.43.32-2.01.7-.42.27-.79.6-1.09.98,0,.34.05.69.14,1.04l1.52,5.68c.23.87.97,1.51,1.86,1.61,4.74.52,8.27-.85,10.29-2,1.35-.77,3-.81,4.37-.07l34.56,18.47c.67.36,1.37.33,1.95.04-.11-.32-.23-.63-.37-.94ZM40.13,39.7c.24-.24.55-.36.86-.36s.62.12.85.36c.47.47.47,1.24,0,1.71-.47.47-1.24.47-1.71,0-.47-.47-.47-1.24,0-1.71Z"/><path class="cls-3" d="M63.61,88.76c-.44.9-1.49,1.49-2.62,1.13-7.36-2.32-13.87-11.3-16.4-17.57-2.06-5.11-6.98-10.74-9.91-13.82-1.47-1.53-2.21-3.63-1.99-5.74l.91-9.12,2.85.55,9.6,1.86c-.28.71-.59,1.33-.89,1.84-.77,1.35-.81,3-.06,4.37l18.47,34.55c.36.67.33,1.38.04,1.95Z"/><path class="cls-5" d="M63.61,88.76c-7.2-2.5-13.53-11.28-16.02-17.44-2.06-5.11-6.98-10.74-9.91-13.82-1.47-1.53-2.21-3.63-1.99-5.74l.76-7.57,9.6,1.86c-.28.71-.59,1.33-.89,1.84-.77,1.35-.81,3-.06,4.37l18.47,34.55c.36.67.33,1.38.04,1.95Z"/><path class="cls-4" d="M43.26,38.28c-.63-.62-1.46-.94-2.28-.94s-1.64.32-2.27.94c-1.25,1.25-1.25,3.29,0,4.54.63.63,1.45.94,2.28.94s1.64-.31,2.27-.94c1.25-1.25,1.25-3.29,0-4.54ZM41.84,41.41c-.47.47-1.24.47-1.71,0-.47-.47-.47-1.24,0-1.71.24-.24.55-.36.86-.36s.62.12.85.36c.47.47.47,1.24,0,1.71ZM80.74,48.24c-.5-.36-1.01-.71-1.51-1.05-.46-.31-1.08-.19-1.39.27,0,0,0,.01-.01.01-.3.46-.18,1.07.28,1.38.48.32.97.65,1.45,1.01.18.13.38.19.59.19.3,0,.59-.13.8-.39t.01-.02c.32-.44.23-1.07-.22-1.4ZM43.26,38.28c-.63-.62-1.46-.94-2.28-.94s-1.64.32-2.27.94c-1.25,1.25-1.25,3.29,0,4.54.63.63,1.45.94,2.28.94s1.64-.31,2.27-.94c1.25-1.25,1.25-3.29,0-4.54ZM41.84,41.41c-.47.47-1.24.47-1.71,0-.47-.47-.47-1.24,0-1.71.24-.24.55-.36.86-.36s.62.12.85.36c.47.47.47,1.24,0,1.71ZM90.84,60.69c-1.07-3.38-3.56-6.88-7.22-10.13-.41-.36-1.04-.33-1.41.09h-.01c-.35.42-.32,1.04.1,1.41,3.38,3.01,5.68,6.2,6.64,9.23.22.71-.23,1.15-.37,1.27-.04.03-.1.08-.18.11-.23.14-.64.27-1.11.02l-9.89-5.28c-.3-3.51-2.14-6.16-5.67-8.06-3.16-1.71-5.83-3.84-7.82-6.19-1.38-1.61-2.44-3.32-3.15-5.08,3.13,2.71,7.3,5.88,11.2,7.45,1.01.4,2.07.91,3.15,1.5.49.26,1.08.08,1.35-.39.01,0,.01-.01.01-.01.26-.48.08-1.09-.4-1.36-1.14-.63-2.28-1.17-3.37-1.6-5.01-2.02-10.61-6.95-13.51-9.71-1.74-1.68-4.13-2.5-6.54-2.27l-8.52.86L23.69,5.61c-.48-.62-1.31-.79-1.99-.4-.68.38-.96,1.19-.67,1.91l9.45,23.36L7.12,21.03c-.72-.3-1.53-.01-1.91.67-.39.68-.22,1.51.4,1.99l26.94,20.42-.86,8.55c-.24,2.4.58,4.78,2.26,6.53,2.77,2.91,7.71,8.53,9.71,13.5,2.38,5.89,8.88,15.59,17.03,18.16.32.1.64.15.96.15.93,0,1.83-.41,2.44-1.15.84-1.01.98-2.36.36-3.51l-13.85-25.91c2.12-1.06,4.05-2.42,5.73-4.1,1.68-1.68,3.04-3.61,4.1-5.72l25.91,13.84c.48.26.99.39,1.5.39.72,0,1.42-.25,2.01-.74,1-.83,1.39-2.17.99-3.41ZM70.77,51.1c2.91,1.58,4.01,3.47,4.43,5.14l-14.62-7.82s-.08-.05-.12-.07l-7.73-4.13c-1.68-.9-3.67-.87-5.34.08-.59.33-1.15.6-1.72.82-2.47,1.01-5.15,1.37-7.97,1.06-.48-.06-.88-.41-1-.88l-1.52-5.67c-.16-.6-.16-1.21-.02-1.77.28-1.18,1.15-2.17,2.38-2.55.02-.01.51-.13.73-.15l14.57-1.47c1.82-.18,3.63.44,4.96,1.71.05.05.11.11.17.16.2,1.2.56,2.38,1.06,3.55,1.96,4.66,6.12,8.97,11.74,11.99ZM24.17,9.57l17.62,23.22-3.72.38c-.21.02-.43.07-.64.12l-4.37-1.77-8.89-21.95ZM9.57,24.18l25.44,10.29c-1.58,1.34-2.33,3.51-1.77,5.67l.67,2.5L9.57,24.18ZM62.69,87.28c.34.64-.02,1.15-.13,1.29-.12.14-.57.59-1.27.37-6.63-2.09-13.07-10.32-15.77-17-1.54-3.8-4.55-7.85-7.45-11.19,4.33,1.73,8.4,5.64,11.27,10.97,1.91,3.53,4.56,5.37,8.06,5.68l5.29,9.88ZM56.23,75.2c-1.66-.42-3.56-1.52-5.13-4.43-3.79-7.03-9.58-11.78-15.55-12.81l-.15-.15c-1.28-1.33-1.9-3.14-1.72-4.95l.73-7.33.35.26v.02c.34,1.26,1.43,2.21,2.72,2.35,2.27.25,4.53.1,6.66-.44-.79,1.6-.77,3.45.07,5.01l12.02,22.47ZM54.91,54.92c-1.54,1.54-3.31,2.78-5.26,3.75l-3.68-6.89c-.57-1.06-.55-2.33.06-3.39.29-.49.54-1.03.78-1.58.51-.23,1.03-.47,1.57-.77,1.07-.61,2.33-.63,3.4-.06l6.89,3.68c-.96,1.94-2.21,3.71-3.76,5.26ZM40.98,37.34c-.82,0-1.64.32-2.27.94-1.25,1.25-1.25,3.29,0,4.54.63.63,1.45.94,2.28.94s1.64-.31,2.27-.94c1.25-1.25,1.25-3.29,0-4.54-.63-.62-1.46-.94-2.28-.94ZM41.84,41.41c-.47.47-1.24.47-1.71,0-.47-.47-.47-1.24,0-1.71.24-.24.55-.36.86-.36s.62.12.85.36c.47.47.47,1.24,0,1.71Z"/></svg>