<?xml version="1.0" encoding="UTF-8"?><svg id="Greeny" xmlns="http://www.w3.org/2000/svg" xmlns:xlink="http://www.w3.org/1999/xlink" viewBox="0 0 96 96"><defs><style>.cls-1{fill:none;}.cls-1,.cls-2,.cls-3,.cls-4,.cls-5,.cls-6,.cls-7,.cls-8,.cls-9,.cls-10,.cls-11,.cls-12{stroke-width:0px;}.cls-2{fill:url(#New_Pattern_Swatch_3);}.cls-3{fill:url(#New_Pattern_Swatch_2);}.cls-4{fill:url(#New_Pattern_Swatch_4);}.cls-5{fill:url(#New_Pattern_Swatch_1);}.cls-6{fill:url(#New_Pattern_Swatch_3-2);}.cls-7{fill:url(#New_Pattern_Swatch_3-3);}.cls-8{fill:url(#New_Pattern_Swatch_2-2);}.cls-9{fill:#2faf96;}.cls-10{fill:#1feab0;}.cls-11{fill:#b3ffde;}.cls-12{fill:#008887;}</style><pattern id="New_Pattern_Swatch_4" x="0" y="0" width="112.22" height="112.22" patternTransform="translate(-194.87 -2383.81)" patternUnits="userSpaceOnUse" viewBox="0 0 112.22 112.22"><rect class="cls-1" width="112.22" height="112.22"/><rect class="cls-12" width="112.22" height="112.22"/></pattern><pattern id="New_Pattern_Swatch_2" x="0" y="0" width="112.22" height="112.22" patternTransform="translate(-195.87 -2381.81)" patternUnits="userSpaceOnUse" viewBox="0 0 112.22 112.22"><rect class="cls-1" width="112.22" height="112.22"/><rect class="cls-10" x="0" width="112.22" height="112.22"/></pattern><pattern id="New_Pattern_Swatch_3" x="0" y="0" width="112.22" height="112.22" patternTransform="translate(-193.87 -2382.81)" patternUnits="userSpaceOnUse" viewBox="0 0 112.22 112.22"><rect class="cls-1" width="112.22" height="112.22"/><rect class="cls-11" width="112.22" height="112.22"/></pattern><pattern id="New_Pattern_Swatch_3-2" patternTransform="translate(-204 -2384)" xlink:href="#New_Pattern_Swatch_3"/><pattern id="New_Pattern_Swatch_1" x="0" y="0" width="112.22" height="112.22" patternTransform="translate(-194.87 -2383.81)" patternUnits="userSpaceOnUse" viewBox="0 0 112.22 112.22"><rect class="cls-1" width="112.22" height="112.22"/><rect class="cls-9" width="112.22" height="112.22"/></pattern><pattern id="New_Pattern_Swatch_2-2" patternTransform="translate(-194.87 -2383.81)" xlink:href="#New_Pattern_Swatch_2"/><pattern id="New_Pattern_Swatch_3-3" patternTransform="translate(-195.87 -2381.81)" xlink:href="#New_Pattern_Swatch_3"/></defs><path class="cls-4" d="M58.08,39.85l.84-.54-12.21-18.98c-3.23-5.05-8.2-8.68-14.01-10.23l-4.71-1.26c-.4-.11-.82.04-1.06.37-.24.33-.26.78-.04,1.12l14.57,23.34-26.04-8.03c-.39-.12-.82.01-1.08.33-.26.32-.29.77-.09,1.12l2.42,4.23c2.98,5.21,7.77,9.09,13.48,10.92l18.41,5.92.61-1.9-18.41-5.92c-5.24-1.68-9.62-5.24-12.35-10.01l-1.16-2.03,40.53,12.5.29-.96ZM29.93,11.43l2.27.6c5.32,1.42,9.88,4.75,12.84,9.38l10.73,16.68-11.37-3.51-14.46-23.15Z"/><path class="cls-3" d="M68.66,83.5c0,.76-.29,1.5-.81,2.06-.32.37-.74.66-1.24.83-1.6.57-3.35-.27-3.92-1.87l-9.21-25.98c-.12-.35.06-.73.41-.85l1.58-.56,2.96-1.05c.34-.12.72.06.85.41l9.2,25.98c.12.34.18.69.18,1.03Z"/><path class="cls-2" d="M68.66,83.5c0,.76-.29,1.5-.81,2.06-1.36.12-2.68-.69-3.16-2.04l-9.21-25.98c-.05-.14-.05-.28,0-.41l2.96-1.05c.34-.12.72.06.85.41l9.2,25.98c.12.34.18.69.18,1.03Z"/><path class="cls-4" d="M69.42,82.14l-9.2-25.99c-.12-.32-.33-.6-.6-.79l-1.38-5.14.69-.91.09-.11-1.59-1.21-.77,1.01c-.28.36-.42.8-.42,1.24,0,.19.03.38.08.56l1.22,4.53-3.29,1.17-1.39-5.02c-.2-.67-.32-1.37-.35-2.08-.02-.42-.01-.84.03-1.25l-1.99-.21c-.03.28-.04.56-.05.84-.02,1.1.13,2.22.43,3.25l1.6,5.76c-.11.35-.12.73,0,1.08l9.2,25.99c.37,1.02,1.11,1.85,2.09,2.31.56.27,1.15.4,1.75.4.46,0,.92-.08,1.36-.23,1.03-.37,1.85-1.11,2.32-2.09.47-.98.53-2.09.16-3.11ZM67.45,84.39c-.2.43-.54.77-.97.97-.07.04-.14.07-.21.09-.52.19-1.08.16-1.58-.08-.5-.24-.88-.66-1.06-1.18l-6.75-19.06,1.15-.39,2.78-.93,6.73,18.99c.18.53.15,1.09-.09,1.59ZM55.71,58.19l2.74-1.04,1.69,4.77-2.77.94-1.16.39-1.64-4.62,1.14-.44Z"/><path class="cls-6" d="M57.54,55.33l-3.29,1.17-1.39-5.02c-.2-.67-.32-1.37-.35-2.08l1.97.62c.5.16,1,.23,1.51.23.08,0,.17,0,.25-.01,0,.19.03.38.08.56l1.22,4.53Z"/><path class="cls-5" d="M69.27,39.38l-.07.65-.11,1.07-.33,3.05-.07.7c-.01.1-.03.2-.08.29-.14.36-.5.61-.91.61h-.35l-5.27-.02-2.05,2.55c-.32.41-.69.76-1.1,1.03-.79.57-1.73.89-2.69.93-.08.01-.17.01-.25.01-.51,0-1.01-.07-1.51-.23l-1.97-.62-2.01-.62-1.93-.61h-.01c-.38-.12-.7-.34-.95-.65l-1.16-1.43c-.2-.24-.34-.53-.4-.84-.08-.31-.08-.64.01-.96.17-.62.63-1.13,1.23-1.37l7.75-2.97,2.69-1.03c.26-.1.51-.19.77-.27,1.1-.33,2.24-.48,3.41-.44l5.92.07h.45c.28,0,.55.12.74.33.1.12.18.27.21.42.04.11.05.23.04.35Z"/><path class="cls-8" d="M99.12,44.55c-.07.81-.44,1.52-1,2.03-.55.5-1.28.8-2.07.8-.08,0-.16,0-.24-.01l-27.48-2.25c-.37-.03-.64-.35-.61-.71l.28-3.4.11-1.4c.03-.37.35-.64.72-.61l27.48,2.24c1.69.14,2.95,1.62,2.81,3.31Z"/><path class="cls-7" d="M98.12,46.55v.03c-.55.5-1.28.8-2.07.8-.08,0-.16,0-.24-.01l-27.48-2.25c-.37-.03-.64-.35-.61-.71l.28-3.4,27.31,2.23c1.69.14,2.95,1.62,2.81,3.31Z"/><path class="cls-4" d="M96.39,40.24l-5.36-.44c-.57-.05-1.03.36-1.08.91-.05.55.36,1.03.91,1.08l5.36.44c1.14.09,1.99,1.1,1.9,2.23-.09,1.07-1,1.91-2.07,1.91-.04,0-.08,0-.16,0l-20.09-1.65.28-4.13,5.82.47c.55.04,1.03-.37,1.08-.92s-.37-1.03-.92-1.08l-6.69-.54s-.09-.02-.14-.02l-6.32-.51c-.61-.05-1.17.22-1.47.66-.19.24-.3.54-.33.86l-.39,4.8s0,.17,0,.2c0,.04,0,.09,0,.13.1.78.72,1.38,1.52,1.46l27.44,2.25c.12.01.24.02.36.02,2.11,0,3.9-1.65,4.07-3.75.18-2.23-1.49-4.2-3.72-4.39ZM69.08,40.02l5,.4-.28,4.14-5.06-.41.34-4.13ZM84.57,40.28c.05-.55.52-.97,1.08-.91l1.8.15c.55.05.96.53.91,1.08-.04.52-.48.92-1,.92-.03,0-.06,0-.08,0l-1.8-.15c-.55-.05-.96-.53-.91-1.08Z"/></svg>