<?xml version="1.0" encoding="UTF-8"?><svg id="Greeny" xmlns="http://www.w3.org/2000/svg" xmlns:xlink="http://www.w3.org/1999/xlink" viewBox="0 0 96 96"><defs><style>.cls-1{fill:none;}.cls-1,.cls-2,.cls-3,.cls-4,.cls-5,.cls-6,.cls-7,.cls-8,.cls-9,.cls-10{stroke-width:0px;}.cls-2{fill:url(#New_Pattern_Swatch_3);}.cls-3{fill:url(#New_Pattern_Swatch_2);}.cls-4{fill:url(#New_Pattern_Swatch_4);}.cls-5{fill:url(#New_Pattern_Swatch_1);}.cls-6{fill:url(#New_Pattern_Swatch_3-2);}.cls-7{fill:#2faf96;}.cls-8{fill:#1feab0;}.cls-9{fill:#b3ffde;}.cls-10{fill:#008887;}</style><pattern id="New_Pattern_Swatch_1" x="0" y="0" width="112.22" height="112.22" patternTransform="translate(-400 -2384)" patternUnits="userSpaceOnUse" viewBox="0 0 112.22 112.22"><rect class="cls-1" width="112.22" height="112.22"/><rect class="cls-7" width="112.22" height="112.22"/></pattern><pattern id="New_Pattern_Swatch_2" x="0" y="0" width="112.22" height="112.22" patternTransform="translate(-400 -2384)" patternUnits="userSpaceOnUse" viewBox="0 0 112.22 112.22"><rect class="cls-1" width="112.22" height="112.22"/><rect class="cls-8" x="0" width="112.22" height="112.22"/></pattern><pattern id="New_Pattern_Swatch_3" x="0" y="0" width="112.22" height="112.22" patternTransform="translate(-405 -2389)" patternUnits="userSpaceOnUse" viewBox="0 0 112.22 112.22"><rect class="cls-1" width="112.22" height="112.22"/><rect class="cls-9" width="112.22" height="112.22"/></pattern><pattern id="New_Pattern_Swatch_4" x="0" y="0" width="112.22" height="112.22" patternTransform="translate(-400 -2384)" patternUnits="userSpaceOnUse" viewBox="0 0 112.22 112.22"><rect class="cls-1" width="112.22" height="112.22"/><rect class="cls-10" width="112.22" height="112.22"/></pattern><pattern id="New_Pattern_Swatch_3-2" patternTransform="translate(-400 -2384)" xlink:href="#New_Pattern_Swatch_3"/></defs><path class="cls-5" d="M90.38,41.45c-2.74,11.42-8.68,23.68-8.93,24.2-.17.34-.52.56-.9.56-.06,0-.12-.01-.19-.02-.44-.08-.77-.45-.81-.9l-.87-10.7c-.02-.16.01-.31.07-.46,2.1-5.18,3.7-10,4.74-14.34,1.37-5.68-.64-11.52-5.26-15.25-2.77-2.24-6-3.42-9.35-3.42-2.17,0-4.31.49-6.35,1.47-7.03,3.37-10.88,8.85-12.55,11.82-.16.28-.45.47-.77.5l-5.99.61c-.35.04-.69-.11-.9-.39-.21-.29-.26-.66-.12-.98,1.17-2.84,5.88-12.5,17.28-17.95,2.96-1.42,6.11-2.14,9.35-2.14,4.98,0,9.9,1.77,13.85,4.97,6.76,5.47,9.71,14.06,7.7,22.42Z"/><path class="cls-3" d="M61,51.56c-.38-.47-1.19-.47-1.57,0-.66.83-3.96,5.07-3.96,7.37,0,2.62,2.13,4.74,4.74,4.74s4.75-2.12,4.75-4.74c0-2.3-3.3-6.54-3.96-7.37ZM60.21,61.67c-1.51,0-2.74-1.23-2.74-2.74,0-.98,1.42-3.29,2.74-5.1,1.33,1.81,2.75,4.12,2.75,5.1,0,1.51-1.23,2.74-2.75,2.74Z"/><path class="cls-3" d="M78.2,36.25c-.11-1.32-1.21-2.33-2.54-2.33h-30.89c-1.33,0-2.43,1.01-2.54,2.33l-.08.99-.13,1.62-.31,3.8-.13,1.6-2.57,31.68-.18,2.25c-.12,1.48,1.05,2.75,2.54,2.75h37.69c1.49,0,2.66-1.27,2.54-2.75l-3.4-41.94ZM69.42,69.77h-18.41c-.1,0-.16-.04-.2-.08-.03-.04-.08-.11-.07-.21l1.96-24.15c.01-.14.13-.24.27-.24h14.49c.14,0,.26.1.27.24l1.96,24.15c.01.1-.04.17-.07.21-.04.04-.1.08-.2.08Z"/><path class="cls-2" d="M61,51.56c-.38-.47-1.19-.47-1.57,0-.66.83-3.96,5.07-3.96,7.37,0,2.62,2.13,4.74,4.74,4.74s4.75-2.12,4.75-4.74c0-2.3-3.3-6.54-3.96-7.37ZM60.21,61.67c-1.51,0-2.74-1.23-2.74-2.74,0-.98,1.42-3.29,2.74-5.1,1.33,1.81,2.75,4.12,2.75,5.1,0,1.51-1.23,2.74-2.75,2.74Z"/><path class="cls-2" d="M75.94,65.13l-2.44-30.21-.08-1h-28.65c-1.33,0-2.43,1.01-2.54,2.33l-.08.99-.13,1.62-.31,3.8-.13,1.6-2.57,31.68h26.97c5.84,0,10.44-4.98,9.96-10.81ZM50.74,69.48l1.96-24.15c.01-.14.13-.24.27-.24h14.49c.14,0,.26.1.27.24l1.96,24.15c.01.1-.04.17-.07.21-.04.04-.1.08-.2.08h-18.41c-.1,0-.16-.04-.2-.08-.03-.04-.08-.11-.07-.21Z"/><path class="cls-4" d="M79.2,36.17c-.16-1.85-1.68-3.25-3.54-3.25h-30.89c-1.86,0-3.38,1.4-3.54,3.33h0c0,.54.4.96.92.99,0,.01.03.01.04.01.56.03.99-.38,1.04-.92.06-.8.73-1.41,1.54-1.41h30.89c.81,0,1.48.61,1.54,1.41l3.4,41.94c.04.44-.1.85-.4,1.17-.3.32-.7.5-1.14.5h-37.69c-.44,0-.84-.18-1.14-.5-.29-.32-.44-.73-.4-1.17l.19-2.33,2.48-30.6c.04-.55-.37-1.03-.92-1.08-.57-.05-1.03.37-1.08.92l-.23,2.9-8.57,5.28-8.16-8.16-1.34-8.04c-.14-.85-.74-1.53-1.55-1.79-.81-.26-1.7-.05-2.3.56l-12.68,12.68c-.61.6-.82,1.48-.56,2.3.26.81.95,1.4,1.79,1.55l8.04,1.33,23,23-.11,1.32c-.08.98.26,1.96.93,2.69.67.72,1.62,1.14,2.61,1.14h37.69c.99,0,1.94-.42,2.61-1.14.67-.73,1.01-1.71.93-2.69l-3.4-41.94ZM7.23,50.48c-.14-.02-.19-.11-.22-.18-.02-.07-.03-.18.07-.28l12.68-12.68c.07-.06.13-.08.19-.08.03,0,.06.01.09.01.07.03.16.08.18.22l1.31,7.84-6.46,6.46-7.84-1.31ZM38.15,74.18l-21.32-21.33,5.77-5.76,16.42,16.42-.87,10.67ZM33.15,54.82l6.92-4.27-.84,10.34-6.08-6.07ZM42.02,38.86c-.55-.04-1.03.37-1.08.92l-.15,1.8c-.04.55.37,1.03.92,1.08h.08c.52,0,.95-.39,1-.92l.15-1.8c.04-.55-.37-1.03-.92-1.08ZM61,51.56c-.38-.47-1.19-.47-1.57,0-.66.83-3.96,5.07-3.96,7.37,0,2.62,2.13,4.74,4.74,4.74s4.75-2.12,4.75-4.74c0-2.3-3.3-6.54-3.96-7.37ZM60.21,61.67c-1.51,0-2.74-1.23-2.74-2.74,0-.98,1.42-3.29,2.74-5.1,1.33,1.81,2.75,4.12,2.75,5.1,0,1.51-1.23,2.74-2.75,2.74ZM61,51.56c-.38-.47-1.19-.47-1.57,0-.66.83-3.96,5.07-3.96,7.37,0,2.62,2.13,4.74,4.74,4.74s4.75-2.12,4.75-4.74c0-2.3-3.3-6.54-3.96-7.37ZM60.21,61.67c-1.51,0-2.74-1.23-2.74-2.74,0-.98,1.42-3.29,2.74-5.1,1.33,1.81,2.75,4.12,2.75,5.1,0,1.51-1.23,2.74-2.75,2.74ZM61,51.56c-.38-.47-1.19-.47-1.57,0-.66.83-3.96,5.07-3.96,7.37,0,2.62,2.13,4.74,4.74,4.74s4.75-2.12,4.75-4.74c0-2.3-3.3-6.54-3.96-7.37ZM60.21,61.67c-1.51,0-2.74-1.23-2.74-2.74,0-.98,1.42-3.29,2.74-5.1,1.33,1.81,2.75,4.12,2.75,5.1,0,1.51-1.23,2.74-2.75,2.74ZM61,51.56c-.38-.47-1.19-.47-1.57,0-.66.83-3.96,5.07-3.96,7.37,0,2.62,2.13,4.74,4.74,4.74s4.75-2.12,4.75-4.74c0-2.3-3.3-6.54-3.96-7.37ZM60.21,61.67c-1.51,0-2.74-1.23-2.74-2.74,0-.98,1.42-3.29,2.74-5.1,1.33,1.81,2.75,4.12,2.75,5.1,0,1.51-1.23,2.74-2.75,2.74ZM61,51.56c-.38-.47-1.19-.47-1.57,0-.66.83-3.96,5.07-3.96,7.37,0,2.62,2.13,4.74,4.74,4.74s4.75-2.12,4.75-4.74c0-2.3-3.3-6.54-3.96-7.37ZM60.21,61.67c-1.51,0-2.74-1.23-2.74-2.74,0-.98,1.42-3.29,2.74-5.1,1.33,1.81,2.75,4.12,2.75,5.1,0,1.51-1.23,2.74-2.75,2.74ZM69.72,45.17c-.09-1.17-1.09-2.08-2.26-2.08h-14.49c-1.17,0-2.17.91-2.26,2.08l-1.96,24.15c-.05.63.16,1.26.59,1.72.43.47,1.04.73,1.67.73h18.41c.63,0,1.24-.26,1.67-.73.43-.46.64-1.09.59-1.72l-1.96-24.15ZM69.62,69.69s-.1.08-.2.08h-18.41c-.1,0-.16-.04-.2-.08-.03-.04-.08-.11-.07-.21l1.96-24.15c.01-.14.13-.24.27-.24h14.49c.14,0,.26.1.27.24l1.96,24.15c.01.1-.04.17-.07.21ZM59.43,51.56c-.66.83-3.96,5.07-3.96,7.37,0,2.62,2.13,4.74,4.74,4.74s4.75-2.12,4.75-4.74c0-2.3-3.3-6.54-3.96-7.37-.38-.47-1.19-.47-1.57,0ZM60.21,61.67c-1.51,0-2.74-1.23-2.74-2.74,0-.98,1.42-3.29,2.74-5.1,1.33,1.81,2.75,4.12,2.75,5.1,0,1.51-1.23,2.74-2.75,2.74ZM61,51.56c-.38-.47-1.19-.47-1.57,0-.66.83-3.96,5.07-3.96,7.37,0,2.62,2.13,4.74,4.74,4.74s4.75-2.12,4.75-4.74c0-2.3-3.3-6.54-3.96-7.37ZM60.21,61.67c-1.51,0-2.74-1.23-2.74-2.74,0-.98,1.42-3.29,2.74-5.1,1.33,1.81,2.75,4.12,2.75,5.1,0,1.51-1.23,2.74-2.75,2.74ZM61,51.56c-.38-.47-1.19-.47-1.57,0-.66.83-3.96,5.07-3.96,7.37,0,2.62,2.13,4.74,4.74,4.74s4.75-2.12,4.75-4.74c0-2.3-3.3-6.54-3.96-7.37ZM60.21,61.67c-1.51,0-2.74-1.23-2.74-2.74,0-.98,1.42-3.29,2.74-5.1,1.33,1.81,2.75,4.12,2.75,5.1,0,1.51-1.23,2.74-2.75,2.74ZM61,51.56c-.38-.47-1.19-.47-1.57,0-.66.83-3.96,5.07-3.96,7.37,0,2.62,2.13,4.74,4.74,4.74s4.75-2.12,4.75-4.74c0-2.3-3.3-6.54-3.96-7.37ZM60.21,61.67c-1.51,0-2.74-1.23-2.74-2.74,0-.98,1.42-3.29,2.74-5.1,1.33,1.81,2.75,4.12,2.75,5.1,0,1.51-1.23,2.74-2.75,2.74Z"/><polygon class="cls-6" points="39.02 63.51 38.15 74.18 16.83 52.85 22.6 47.09 39.02 63.51"/></svg>