<?xml version="1.0" encoding="UTF-8"?><svg id="Greeny" xmlns="http://www.w3.org/2000/svg" xmlns:xlink="http://www.w3.org/1999/xlink" viewBox="0 0 96 96"><defs><style>.cls-1{fill:none;}.cls-1,.cls-2,.cls-3,.cls-4,.cls-5,.cls-6,.cls-7,.cls-8,.cls-9{stroke-width:0px;}.cls-2{fill:url(#New_Pattern_Swatch_3);}.cls-3{fill:url(#New_Pattern_Swatch_2);}.cls-4{fill:url(#New_Pattern_Swatch_4);}.cls-5{fill:url(#New_Pattern_Swatch_1);}.cls-6{fill:#2faf96;}.cls-7{fill:#1feab0;}.cls-8{fill:#b3ffde;}.cls-9{fill:#008887;}</style><pattern id="New_Pattern_Swatch_1" x="0" y="0" width="112.22" height="112.22" patternTransform="translate(-596 -2384)" patternUnits="userSpaceOnUse" viewBox="0 0 112.22 112.22"><rect class="cls-1" width="112.22" height="112.22"/><rect class="cls-6" width="112.22" height="112.22"/></pattern><pattern id="New_Pattern_Swatch_2" x="0" y="0" width="112.22" height="112.22" patternTransform="translate(-596 -2384)" patternUnits="userSpaceOnUse" viewBox="0 0 112.22 112.22"><rect class="cls-1" width="112.22" height="112.22"/><rect class="cls-7" x="0" width="112.22" height="112.22"/></pattern><pattern id="New_Pattern_Swatch_3" x="0" y="0" width="112.22" height="112.22" patternTransform="translate(-599 -2385)" patternUnits="userSpaceOnUse" viewBox="0 0 112.22 112.22"><rect class="cls-1" width="112.22" height="112.22"/><rect class="cls-8" width="112.22" height="112.22"/></pattern><pattern id="New_Pattern_Swatch_4" x="0" y="0" width="112.22" height="112.22" patternTransform="translate(-596 -2384)" patternUnits="userSpaceOnUse" viewBox="0 0 112.22 112.22"><rect class="cls-1" width="112.22" height="112.22"/><rect class="cls-9" width="112.22" height="112.22"/></pattern></defs><path class="cls-5" d="M41,75.33c-.53-.17-1.09.12-1.26.65l-1.46,4.56c-1.98-1.27-3.93-2.63-5.8-4.09l2.68-4.4c.29-.47.14-1.09-.33-1.38s-1.09-.14-1.37.33l-2.55,4.17c-1.72-1.41-3.38-2.89-4.97-4.44l3.53-3.53c.39-.39.39-1.02,0-1.41s-1.02-.39-1.41,0l-3.54,3.54c-1.55-1.59-3.05-3.27-4.48-5.02l4.18-2.54c.47-.29.62-.9.33-1.38-.29-.47-.9-.62-1.37-.33l-4.39,2.68c-1.45-1.87-2.82-3.81-4.09-5.81l3.37-1.08s.07-.02.1-.03l1.1-.35c.53-.17.82-.73.65-1.26-.17-.53-.73-.82-1.26-.65l-1.02.32s-.07.02-.1.03l-9.41,3c-.25.08-.46.26-.58.5l-1.56,3.02c-.25.49-.06,1.09.43,1.35.15.08.3.11.46.11.36,0,.71-.2.89-.54l1.37-2.66,3.59-1.14c1.34,2.14,2.8,4.23,4.34,6.23l-4.74,2.89c-.23.14-.39.36-.45.62l-.81,3.31c-.13.54.2,1.08.73,1.21.08.02.16.03.24.03.45,0,.86-.31.97-.76l.71-2.91,4.6-2.8c1.52,1.87,3.13,3.68,4.79,5.38l-4.42,4.42c-.19.19-.29.44-.29.71v3.41c0,.55.45,1,1,1s1-.45,1-1v-2.99l4.12-4.12c1.7,1.66,3.49,3.25,5.34,4.76l-3.02,4.95c-.14.23-.18.5-.12.76l.8,3.32c.11.46.52.77.97.77.08,0,.16,0,.24-.03.54-.13.87-.67.74-1.21l-.7-2.92,2.68-4.39c2.01,1.55,4.09,3,6.22,4.34l-1.28,3.99c-.08.25-.06.53.06.76l1.57,3.03c.18.34.53.54.89.54.15,0,.31-.04.46-.11.49-.25.68-.86.43-1.35l-1.38-2.66,3.24-10.13c.17-.53-.12-1.09-.65-1.26Z"/><path class="cls-3" d="M53.25,48.6l-5.75,4.47c-.53.42-.88,1.04-.95,1.71l-2.25,21.75c-.09.88-1.07,1.37-1.83.9-.53-.34-1.08-.69-1.65-1.07-3.66-2.43-7.84-5.65-12.05-9.86-3.26-3.26-7.21-7.79-10.93-13.7-.47-.75.02-1.74.91-1.83l21.74-2.25c.68-.07,1.3-.41,1.71-.95l4.44-5.7.04-.05c.44-.57,1.29-.62,1.8-.11l4.89,4.89c.51.51.46,1.35-.12,1.8Z"/><path class="cls-2" d="M50.25,47.6l-5.75,4.47c-.53.42-.88,1.04-.95,1.71l-2.25,21.75c-.04.36-.22.65-.48.83-3.66-2.43-7.84-5.65-12.05-9.86-3.26-3.26-7.21-7.79-10.93-13.7-.47-.75.02-1.74.91-1.83l21.74-2.25c.68-.07,1.3-.41,1.71-.95l4.44-5.7,3.73,3.73c.51.51.46,1.35-.12,1.8Z"/><path class="cls-4" d="M46.4,65.95l-.18,1.83c-.05.52-.49.9-.99.9-.03,0-.07,0-.1,0-.55-.05-.95-.54-.9-1.09l.18-1.83c.05-.55.54-.95,1.09-.9.55.05.95.54.9,1.09ZM89.12,10.98l-35.07,35.07.04.04c.45.45.68,1.06.64,1.69-.04.63-.35,1.22-.85,1.61l-5.75,4.47c-.32.25-.53.63-.57,1.03l-.77,7.43c-.06.55-.56.94-1.1.89-.55-.06-.95-.55-.89-1.1l.77-7.43c.1-.93.58-1.8,1.32-2.39l5.76-4.48c.07-.05.08-.11.08-.15,0-.04,0-.1-.06-.15l-4.89-4.89c-.06-.06-.12-.06-.16-.06-.04,0-.1.02-.14.07l-4.48,5.75c-.56.74-1.44,1.23-2.4,1.33l-21.74,2.25c-.1,0-.15.07-.17.12-.03.07-.03.13,0,.19.34.55.69,1.09,1.04,1.61.03.03.05.06.07.1,1.45,2.16,3.02,4.29,4.67,6.31,1.62,1.95,3.3,3.8,5,5.5,1.71,1.71,3.5,3.34,5.48,4.98,2.03,1.68,4.15,3.25,6.3,4.68.61.41,1.19.78,1.75,1.14.06.03.12.04.19,0,.05-.02.1-.07.11-.16l.54-5.21c.06-.55.54-.94,1.1-.89.55.06.95.55.89,1.1l-.54,5.21c-.08.76-.53,1.41-1.22,1.75-.31.15-.64.23-.97.23-.4,0-.8-.11-1.16-.33-.58-.37-1.18-.75-1.8-1.17-2.2-1.46-4.37-3.08-6.46-4.8-2.03-1.68-3.87-3.35-5.62-5.1-1.75-1.75-3.47-3.65-5.13-5.65-1.67-2.05-3.26-4.19-4.72-6.37-.03-.03-.06-.07-.08-.11-.37-.57-.76-1.15-1.13-1.75-.4-.65-.44-1.44-.11-2.13.34-.69,1-1.15,1.77-1.23l21.74-2.25c.41-.04.78-.25,1.02-.56l4.49-5.76c.38-.49.96-.8,1.6-.84.63-.04,1.25.19,1.7.64l.03.03L84.29,6.16c1.33-1.33,3.49-1.33,4.82,0,.64.64,1,1.5,1,2.41s-.35,1.77-1,2.41ZM88.11,8.57c0-.38-.15-.73-.41-1-.55-.55-1.45-.55-1.99,0l-35.07,35.07,1.99,1.99L87.7,9.57c.27-.27.41-.62.41-1Z"/></svg>