<?xml version="1.0" encoding="UTF-8"?><svg id="Greeny" xmlns="http://www.w3.org/2000/svg" xmlns:xlink="http://www.w3.org/1999/xlink" viewBox="0 0 96 96"><defs><style>.cls-1{fill:none;}.cls-1,.cls-2,.cls-3,.cls-4,.cls-5,.cls-6,.cls-7,.cls-8,.cls-9{stroke-width:0px;}.cls-2{fill:url(#New_Pattern_Swatch_3);}.cls-3{fill:url(#New_Pattern_Swatch_2);}.cls-4{fill:url(#New_Pattern_Swatch_4);}.cls-5{fill:url(#New_Pattern_Swatch_1);}.cls-6{fill:#2faf96;}.cls-7{fill:#1feab0;}.cls-8{fill:#b3ffde;}.cls-9{fill:#008887;}</style><pattern id="New_Pattern_Swatch_2" x="0" y="0" width="112.22" height="112.22" patternTransform="translate(-792 -2384)" patternUnits="userSpaceOnUse" viewBox="0 0 112.22 112.22"><rect class="cls-1" width="112.22" height="112.22"/><rect class="cls-7" x="0" width="112.22" height="112.22"/></pattern><pattern id="New_Pattern_Swatch_3" x="0" y="0" width="112.22" height="112.22" patternTransform="translate(-797 -2386)" patternUnits="userSpaceOnUse" viewBox="0 0 112.22 112.22"><rect class="cls-1" width="112.22" height="112.22"/><rect class="cls-8" width="112.22" height="112.22"/></pattern><pattern id="New_Pattern_Swatch_1" x="0" y="0" width="112.22" height="112.22" patternTransform="translate(-792 -2384)" patternUnits="userSpaceOnUse" viewBox="0 0 112.22 112.22"><rect class="cls-1" width="112.22" height="112.22"/><rect class="cls-6" width="112.22" height="112.22"/></pattern><pattern id="New_Pattern_Swatch_4" x="0" y="0" width="112.22" height="112.22" patternTransform="translate(-792 -2384)" patternUnits="userSpaceOnUse" viewBox="0 0 112.22 112.22"><rect class="cls-1" width="112.22" height="112.22"/><rect class="cls-9" width="112.22" height="112.22"/></pattern></defs><path class="cls-3" d="M57.8,54.97c-.3-.2-.69-.23-1.01-.07-1.46.72-2.29.69-3.56.66-1.3-.03-2.91-.08-5.64.61-4.53,1.13-5.56,5.32-5.49,7.84-1.98,1.62-3.32,3.74-3.97,6.31-.13.54.19,1.08.73,1.21.08.02.16.03.24.03.45,0,.86-.3.97-.75.53-2.1,1.6-3.82,3.18-5.15,1.97.86,3.79,1.32,5.45,1.32,1.48,0,2.83-.35,4.05-1.04,4.76-2.72,5.45-9.76,5.48-10.05.03-.36-.14-.72-.43-.92ZM51.75,64.2c-1.98,1.13-4.55,1.02-7.65-.34,0-1.36.35-4.85,3.97-5.75,2.47-.62,3.87-.58,5.11-.55.92.02,1.76.05,2.77-.21-.45,2.01-1.58,5.35-4.2,6.85Z"/><path class="cls-3" d="M75.05,35.37h-1s-3.45-.04-3.45-.04l-48.5-.47h-1c-1.65,5.46-3.42,13.76-3.05,23.89.2,5.84,1.07,14.19,2.1,19.68.32,1.79,0,3.67-.89,5.19-.51.85-.74,1.91-.55,3.05.04.28.12.56.22.82.41,1.15,1.29,2.05,2.36,2.37,1.37.41,2.67-.12,3.52-1.15,1.28-1.56,3.05-2.47,4.9-2.23,6.7.89,12.84,1.21,18.29,1.21,6.56,0,12.61-.46,18.03-1.17.11-.01.22-.03.32-.04,1.39-.19,2.72.29,3.83,1.2.35.29.68.63.98,1,.81,1.02,2.09,1.56,3.46,1.22,1.32-.35,2.37-1.59,2.65-3.1.23-1.21-.01-2.35-.56-3.24-.9-1.48-1.18-3.36-.86-5.13.84-4.48,1.58-10.87,1.92-16.25.04-.54.07-1.08.09-1.6.04-.63.07-1.24.09-1.83.02-.66.04-1.32.04-1.97.01-.55.01-1.08,0-1.6-.09-8.22-1.53-15.01-2.94-19.81ZM48.17,48.52c8.08,0,14.65,6.58,14.65,14.66s-6.57,14.65-14.65,14.65-14.66-6.57-14.66-14.65,6.57-14.66,14.66-14.66Z"/><path class="cls-2" d="M57.8,54.97c-.3-.2-.69-.23-1.01-.07-1.46.72-2.29.69-3.56.66-1.3-.03-2.91-.08-5.64.61-4.53,1.13-5.56,5.32-5.49,7.84-1.98,1.62-3.32,3.74-3.97,6.31-.13.54.19,1.08.73,1.21.08.02.16.03.24.03.45,0,.86-.3.97-.75.53-2.1,1.6-3.82,3.18-5.15,1.97.86,3.79,1.32,5.45,1.32,1.48,0,2.83-.35,4.05-1.04,4.76-2.72,5.45-9.76,5.48-10.05.03-.36-.14-.72-.43-.92ZM51.75,64.2c-1.98,1.13-4.55,1.02-7.65-.34,0-1.36.35-4.85,3.97-5.75,2.47-.62,3.87-.58,5.11-.55.92.02,1.76.05,2.77-.21-.45,2.01-1.58,5.35-4.2,6.85Z"/><path class="cls-2" d="M72.95,56.75c.32-8.71-.94-16.06-2.35-21.42l-48.5-.47h-1c-1.65,5.46-3.42,13.76-3.05,23.89.2,5.84,1.07,14.19,2.1,19.68.32,1.79,0,3.67-.89,5.19-.51.85-.74,1.91-.55,3.05.04.28.12.56.22.82.31-.2.59-.43.83-.72.01-.02.03-.04.05-.06,1.28-1.56,3.05-2.47,4.9-2.23,6.7.89,12.84,1.21,18.29,1.21,6.69,0,12.84-.48,18.35-1.21,1.35-.18,2.66.27,3.75,1.15.33.25.64.55.93.89.11-.01.22-.03.32-.04,1.39-.19,2.72.29,3.83,1.2.31-.15.59-.34.85-.58.62-.58,1.07-1.39,1.24-2.3.23-1.21-.01-2.35-.56-3.24-.9-1.48-1.18-3.36-.86-5.13,1.03-5.49,1.9-13.84,2.1-19.68ZM48.17,77.83c-8.09,0-14.66-6.57-14.66-14.65s6.57-14.66,14.66-14.66,14.65,6.58,14.65,14.66-6.57,14.65-14.65,14.65Z"/><circle class="cls-5" cx="46" cy="21.56" r="1"/><circle class="cls-5" cx="37.1" cy="22.56" r="1"/><circle class="cls-5" cx="41.54" cy="16.68" r="1"/><circle class="cls-5" cx="51.8" cy="18.7" r="1"/><circle class="cls-5" cx="52.8" cy="13.49" r="1"/><circle class="cls-5" cx="57.8" cy="18.7" r="1"/><circle class="cls-5" cx="57.8" cy="24.54" r="1"/><circle class="cls-5" cx="51.46" cy="25.54" r="1"/><circle class="cls-5" cx="46.43" cy="12" r="1"/><circle class="cls-5" cx="41.54" cy="25.54" r="1"/><path class="cls-4" d="M58.24,10.68c-2.6-3.63-6.32-5.71-10.18-5.71h-.01c-3.86,0-7.58,2.08-10.18,5.71l-12,16.67,1.62,1.16,12-16.67c2.26-3.14,5.3-4.88,8.57-4.87,3.26,0,6.3,1.73,8.56,4.87l12.22,16.95,1.62-1.17-12.22-16.94ZM78.01,56.78h-.03c-.54,0-.98.43-1,.97l-.03.96c-.01.26-.02.53-.04.8-.04.55.38,1.03.93,1.07h.07c.52,0,.96-.4,1-.93.02-.29.03-.58.04-.87l.03-.97c.02-.55-.41-1.01-.97-1.03ZM76.83,78.61c.78-4.14,1.49-10.03,1.87-15.36.04-.55-.38-1.03-.93-1.07-.54-.05-1.03.38-1.07.93-.37,5.26-1.07,11.06-1.83,15.14-.38,2.06-.01,4.19.99,5.83.45.73.6,1.63.43,2.54-.21,1.13-.99,2.06-1.91,2.31-.91.23-1.82-.1-2.44-.88-.29-.35-.59-.67-.91-.95-1.42-1.26-3.12-1.85-4.81-1.61-.37.05-.75.1-1.12.14-11.66,1.45-23.6,1.41-35.26-.14-2.12-.28-4.23.67-5.8,2.58-.66.8-1.56,1.1-2.46.83-.88-.26-1.58-1.09-1.82-2.13-.03-.09-.05-.18-.06-.27-.15-.85,0-1.67.42-2.37,1.01-1.7,1.38-3.84,1.01-5.88-1-5.35-1.88-13.56-2.08-19.54-.3-8.05.72-15.98,3.01-23.57.03-.1.04-.18.04-.28.01-.43-.27-.84-.71-.97-.53-.16-1.09.14-1.25.67-2.35,7.81-3.39,15.96-3.09,24.22.21,6.07,1.1,14.4,2.12,19.83.28,1.56,0,3.21-.77,4.5-.65,1.09-.9,2.41-.68,3.72.3,1.89,1.62,3.49,3.28,3.99,1.67.5,3.42-.07,4.58-1.48,1.13-1.37,2.6-2.05,4-1.87,12.2,1.62,24.7,1.62,36.91,0,1.37-.19,2.79.48,3.89,1.83.86,1.09,2.12,1.7,3.44,1.7.35,0,.7-.04,1.06-.13,1.69-.45,3.02-1.98,3.37-3.88.27-1.4.02-2.8-.69-3.95-.75-1.23-1.01-2.85-.73-4.43ZM76.01,35.09c-.16-.53-.71-.84-1.24-.68-.44.13-.72.52-.72.95,0,.09.01.19.04.29,1.76,5.98,2.73,12.23,2.88,18.55.01.55.46.98,1,.98h.02c.56-.01.99-.47.98-1.02-.16-6.51-1.15-12.92-2.96-19.07ZM57.8,54.97c-.3-.2-.69-.23-1.01-.07-1.46.72-2.29.69-3.56.66-1.3-.03-2.91-.08-5.64.61-4.53,1.13-5.56,5.32-5.49,7.84-1.98,1.62-3.32,3.74-3.97,6.31-.13.54.19,1.08.73,1.21.08.02.16.03.24.03.45,0,.86-.3.97-.75.53-2.1,1.6-3.82,3.18-5.15,1.97.86,3.79,1.32,5.45,1.32,1.48,0,2.83-.35,4.05-1.04,4.76-2.72,5.45-9.76,5.48-10.05.03-.36-.14-.72-.43-.92ZM51.75,64.2c-1.98,1.13-4.55,1.02-7.65-.34,0-1.36.35-4.85,3.97-5.75,2.47-.62,3.87-.58,5.11-.55.92.02,1.76.05,2.77-.21-.45,2.01-1.58,5.35-4.2,6.85ZM57.8,54.97c-.3-.2-.69-.23-1.01-.07-1.46.72-2.29.69-3.56.66-1.3-.03-2.91-.08-5.64.61-4.53,1.13-5.56,5.32-5.49,7.84-1.98,1.62-3.32,3.74-3.97,6.31-.13.54.19,1.08.73,1.21.08.02.16.03.24.03.45,0,.86-.3.97-.75.53-2.1,1.6-3.82,3.18-5.15,1.97.86,3.79,1.32,5.45,1.32,1.48,0,2.83-.35,4.05-1.04,4.76-2.72,5.45-9.76,5.48-10.05.03-.36-.14-.72-.43-.92ZM51.75,64.2c-1.98,1.13-4.55,1.02-7.65-.34,0-1.36.35-4.85,3.97-5.75,2.47-.62,3.87-.58,5.11-.55.92.02,1.76.05,2.77-.21-.45,2.01-1.58,5.35-4.2,6.85ZM57.8,54.97c-.3-.2-.69-.23-1.01-.07-1.46.72-2.29.69-3.56.66-1.3-.03-2.91-.08-5.64.61-4.53,1.13-5.56,5.32-5.49,7.84-1.98,1.62-3.32,3.74-3.97,6.31-.13.54.19,1.08.73,1.21.08.02.16.03.24.03.45,0,.86-.3.97-.75.53-2.1,1.6-3.82,3.18-5.15,1.97.86,3.79,1.32,5.45,1.32,1.48,0,2.83-.35,4.05-1.04,4.76-2.72,5.45-9.76,5.48-10.05.03-.36-.14-.72-.43-.92ZM51.75,64.2c-1.98,1.13-4.55,1.02-7.65-.34,0-1.36.35-4.85,3.97-5.75,2.47-.62,3.87-.58,5.11-.55.92.02,1.76.05,2.77-.21-.45,2.01-1.58,5.35-4.2,6.85ZM48.17,46.52c-9.19,0-16.66,7.48-16.66,16.66s7.47,16.65,16.66,16.65,16.65-7.47,16.65-16.65-7.47-16.66-16.65-16.66ZM48.17,77.83c-8.09,0-14.66-6.57-14.66-14.65s6.57-14.66,14.66-14.66,14.65,6.58,14.65,14.66-6.57,14.65-14.65,14.65ZM57.8,54.97c-.3-.2-.69-.23-1.01-.07-1.46.72-2.29.69-3.56.66-1.3-.03-2.91-.08-5.64.61-4.53,1.13-5.56,5.32-5.49,7.84-1.98,1.62-3.32,3.74-3.97,6.31-.13.54.19,1.08.73,1.21.08.02.16.03.24.03.45,0,.86-.3.97-.75.53-2.1,1.6-3.82,3.18-5.15,1.97.86,3.79,1.32,5.45,1.32,1.48,0,2.83-.35,4.05-1.04,4.76-2.72,5.45-9.76,5.48-10.05.03-.36-.14-.72-.43-.92ZM51.75,64.2c-1.98,1.13-4.55,1.02-7.65-.34,0-1.36.35-4.85,3.97-5.75,2.47-.62,3.87-.58,5.11-.55.92.02,1.76.05,2.77-.21-.45,2.01-1.58,5.35-4.2,6.85ZM57.8,54.97c-.3-.2-.69-.23-1.01-.07-1.46.72-2.29.69-3.56.66-1.3-.03-2.91-.08-5.64.61-4.53,1.13-5.56,5.32-5.49,7.84-1.98,1.62-3.32,3.74-3.97,6.31-.13.54.19,1.08.73,1.21.08.02.16.03.24.03.45,0,.86-.3.97-.75.53-2.1,1.6-3.82,3.18-5.15,1.97.86,3.79,1.32,5.45,1.32,1.48,0,2.83-.35,4.05-1.04,4.76-2.72,5.45-9.76,5.48-10.05.03-.36-.14-.72-.43-.92ZM51.75,64.2c-1.98,1.13-4.55,1.02-7.65-.34,0-1.36.35-4.85,3.97-5.75,2.47-.62,3.87-.58,5.11-.55.92.02,1.76.05,2.77-.21-.45,2.01-1.58,5.35-4.2,6.85Z"/><path class="cls-5" d="M79.29,33.98c-.74,1.15-1.88,1.94-3.22,2.21-8.91,1.81-18.02,2.73-27.08,2.73s-18.16-.92-27.07-2.73c-1.34-.27-2.49-1.06-3.23-2.21-.73-1.15-.97-2.52-.65-3.85.62-2.64,3.19-4.29,5.84-3.75,16.53,3.37,33.7,3.37,50.23,0,2.65-.53,5.22,1.11,5.84,3.75.31,1.33.08,2.7-.66,3.85Z"/></svg>