<?xml version="1.0" encoding="UTF-8"?><svg id="Greeny" xmlns="http://www.w3.org/2000/svg" xmlns:xlink="http://www.w3.org/1999/xlink" viewBox="0 0 96 96"><defs><style>.cls-1{fill:none;}.cls-1,.cls-2,.cls-3,.cls-4,.cls-5,.cls-6,.cls-7,.cls-8,.cls-9{stroke-width:0px;}.cls-2{fill:url(#New_Pattern_Swatch_3);}.cls-3{fill:url(#New_Pattern_Swatch_2);}.cls-4{fill:url(#New_Pattern_Swatch_4);}.cls-5{fill:url(#New_Pattern_Swatch_1);}.cls-6{fill:#2faf96;}.cls-7{fill:#1feab0;}.cls-8{fill:#b3ffde;}.cls-9{fill:#008887;}</style><pattern id="New_Pattern_Swatch_2" x="0" y="0" width="112.22" height="112.22" patternTransform="translate(-988 -2384)" patternUnits="userSpaceOnUse" viewBox="0 0 112.22 112.22"><rect class="cls-1" width="112.22" height="112.22"/><rect class="cls-7" x="0" width="112.22" height="112.22"/></pattern><pattern id="New_Pattern_Swatch_3" x="0" y="0" width="112.22" height="112.22" patternTransform="translate(-993 -2389)" patternUnits="userSpaceOnUse" viewBox="0 0 112.22 112.22"><rect class="cls-1" width="112.22" height="112.22"/><rect class="cls-8" width="112.22" height="112.22"/></pattern><pattern id="New_Pattern_Swatch_4" x="0" y="0" width="112.22" height="112.22" patternTransform="translate(-988 -2384)" patternUnits="userSpaceOnUse" viewBox="0 0 112.22 112.22"><rect class="cls-1" width="112.22" height="112.22"/><rect class="cls-9" width="112.22" height="112.22"/></pattern><pattern id="New_Pattern_Swatch_1" x="0" y="0" width="112.22" height="112.22" patternTransform="translate(-988 -2384)" patternUnits="userSpaceOnUse" viewBox="0 0 112.22 112.22"><rect class="cls-1" width="112.22" height="112.22"/><rect class="cls-6" width="112.22" height="112.22"/></pattern></defs><path class="cls-3" d="M79.44,59.18s-.03-.13-.07-.39c-.12-.62-.35-1.94-.63-3.78-.07-.5-.15-1.05-.22-1.63-1.28-9.41-2.84-28.12,2.74-39.47h-42.47c1.18,4.69,6.97,30.18-3.07,42.02-11.08,13.05-26.17,6.29-26.17,19.34v8.33h35.55c2.8,0,5.54-.91,7.79-2.6l5.01-3.79c2.25-1.69,4.97-2.61,7.79-2.61h13.64s1.77-6.88.37-14.22c-.08-.4-.16-.8-.26-1.2ZM46.15,39.58c.67,0,1.32.23,1.85.65l3.62,2.89c.88.7,1.98,1.08,3.1,1.08h10.05c1.31,0,2.54-.5,3.47-1.41l2.42-2.36c.52-.52,1.21-.82,1.94-.85h3.75c.06,1.77.15,3.47.26,5.11h-3.88c-1.3,0-2.53.5-3.47,1.41l-2.42,2.36c-.56.55-1.29.85-2.07.85h-10.05c-.67,0-1.32-.23-1.85-.65l-3.62-2.88c-.88-.7-1.98-1.09-3.1-1.09h-4.48c.32-1.67.54-3.38.67-5.11h3.81Z"/><path class="cls-2" d="M65.17,69.6h-4.48c-2.82,0-5.54.92-7.79,2.61l-5.01,3.79c-2.25,1.69-4.99,2.6-7.79,2.6H9.55v-3.33c0-13.05,15.09-6.29,26.17-19.34,10.04-11.84,4.25-37.33,3.07-42.02h35.57c-2.1,7.27-2.3,16.13-1.88,23.68.04.68.08,1.34.12,1.99-.73.03-1.42.33-1.94.85l-2.42,2.36c-.93.91-2.16,1.41-3.47,1.41h-10.05c-1.12,0-2.22-.38-3.1-1.08l-3.62-2.89c-.53-.42-1.18-.65-1.85-.65h-3.81c-.13,1.73-.35,3.44-.67,5.11h4.48c1.12,0,2.22.39,3.1,1.09l3.62,2.88c.53.42,1.18.65,1.85.65h10.05c.78,0,1.51-.3,2.07-.85l2.42-2.36c.94-.91,2.17-1.41,3.47-1.41h.33c.08.69.16,1.36.24,2,.56,4.54,1.14,7.49,1.14,7.49.39,1.64.61,3.27.72,4.83.39,5.74-4.23,10.59-9.99,10.59Z"/><path class="cls-4" d="M79.89,55.85c-.09-.55-.6-.92-1.14-.84h-.01c-.54.1-.91.6-.83,1.14.11.72.21,1.33.29,1.81.09.49.51.84.99.84.05,0,.11,0,.17-.01h.01c.53-.1.9-.61.81-1.16-.08-.47-.18-1.08-.29-1.78ZM81.7,13.01c-.5-.24-1.09-.04-1.34.46-.07.15-.14.29-.2.44-3.12,6.64-3.95,15.52-3.85,23.67h-3.58c-.08,0-.17,0-.25,0-1.22.06-2.35.56-3.22,1.41l-2.42,2.36c-.55.54-1.29.84-2.07.84h-10.05c-.67,0-1.33-.23-1.85-.64l-3.62-2.89c-.88-.7-1.98-1.09-3.1-1.09h-3.69c.42-10.23-1.83-20.39-2.64-23.67-.02-.09-.04-.17-.06-.24-.14-.54-.68-.86-1.21-.73-.54.14-.86.68-.73,1.21,1.22,4.87,6.83,29.7-2.86,41.13-4.95,5.83-10.61,7.52-15.62,9.01-5.79,1.74-10.79,3.23-10.79,10.98v12.11c0,2,1.64,3.64,3.65,3.64h39.9c.71,0,1.39-.2,1.98-.59l6.68-4.32c.4-.26.89-.33,1.35-.2.46.14.84.46,1.04.9l.95,2.08c.59,1.29,1.89,2.13,3.31,2.13h9.27c2.01,0,3.65-1.64,3.65-3.64v-12.65c.23-.95,1.56-6.89.53-13.52-.09-.55-.6-.92-1.14-.84t-.02,0c-.54.09-.9.6-.82,1.13.82,5.3.02,10.25-.35,12.09h-12.84c-3.04,0-5.94.97-8.39,2.81l-5.01,3.79c-2.06,1.55-4.61,2.4-7.19,2.4H10.55v-7.33c0-6.26,3.73-7.37,9.37-9.06,5-1.5,11.24-3.36,16.56-9.63,2.33-2.74,3.83-6.17,4.76-9.89h4.91c.67,0,1.32.23,1.85.65l3.63,2.88c.87.7,1.97,1.09,3.09,1.09h10.05c1.3,0,2.53-.5,3.47-1.41l2.42-2.36c.56-.55,1.3-.85,2.07-.85h4.04c.19,2.14.41,4.12.63,5.83.06.5.49.87.99.87.04,0,.08,0,.13-.01.55-.07.93-.57.86-1.12-1.23-9.54-2.51-27.15,2.78-37.91.24-.49.04-1.09-.46-1.34ZM78.33,87.38c0,.9-.74,1.64-1.65,1.64h-9.27c-.64,0-1.23-.38-1.49-.96l-.95-2.08c-.44-.97-1.28-1.69-2.3-1.99-1.02-.3-2.11-.14-3,.44l-6.68,4.33c-.26.17-.57.26-.89.26H12.2c-.91,0-1.65-.74-1.65-1.64v-2.78h34.55c3.01,0,5.99-.99,8.39-2.8l5.01-3.79c2.1-1.58,4.59-2.41,7.19-2.41h12.64v11.78ZM72.73,44.69c-1.3,0-2.53.5-3.47,1.41l-2.42,2.36c-.56.55-1.29.85-2.07.85h-10.05c-.67,0-1.32-.23-1.85-.65l-3.62-2.88c-.88-.7-1.98-1.09-3.1-1.09h-4.48c.32-1.67.54-3.38.67-5.11h3.81c.67,0,1.32.23,1.85.65l3.62,2.89c.88.7,1.98,1.08,3.1,1.08h10.05c1.31,0,2.54-.5,3.47-1.41l2.42-2.36c.52-.52,1.21-.82,1.94-.85h3.75c.06,1.77.15,3.47.26,5.11h-3.88Z"/><path class="cls-5" d="M87.45,7.98v3.93c0,1.66-1.35,3-3,3h-48.9c-1.65,0-3-1.34-3-3v-3.93c0-1.65,1.35-3,3-3h48.9c1.65,0,3,1.35,3,3Z"/></svg>