<?xml version="1.0" encoding="UTF-8"?><svg id="Greeny" xmlns="http://www.w3.org/2000/svg" xmlns:xlink="http://www.w3.org/1999/xlink" viewBox="0 0 96 96"><defs><style>.cls-1{fill:none;}.cls-1,.cls-2,.cls-3,.cls-4,.cls-5,.cls-6,.cls-7,.cls-8,.cls-9{stroke-width:0px;}.cls-2{fill:url(#New_Pattern_Swatch_3);}.cls-3{fill:url(#New_Pattern_Swatch_2);}.cls-4{fill:url(#New_Pattern_Swatch_4);}.cls-5{fill:url(#New_Pattern_Swatch_1);}.cls-6{fill:#2faf96;}.cls-7{fill:#1feab0;}.cls-8{fill:#b3ffde;}.cls-9{fill:#008887;}</style><pattern id="New_Pattern_Swatch_1" x="0" y="0" width="112.22" height="112.22" patternTransform="translate(-204 -2580)" patternUnits="userSpaceOnUse" viewBox="0 0 112.22 112.22"><rect class="cls-1" width="112.22" height="112.22"/><rect class="cls-6" width="112.22" height="112.22"/></pattern><pattern id="New_Pattern_Swatch_3" x="0" y="0" width="112.22" height="112.22" patternTransform="translate(-207 -2583)" patternUnits="userSpaceOnUse" viewBox="0 0 112.22 112.22"><rect class="cls-1" width="112.22" height="112.22"/><rect class="cls-8" width="112.22" height="112.22"/></pattern><pattern id="New_Pattern_Swatch_2" x="0" y="0" width="112.22" height="112.22" patternTransform="translate(-204 -2580)" patternUnits="userSpaceOnUse" viewBox="0 0 112.22 112.22"><rect class="cls-1" width="112.22" height="112.22"/><rect class="cls-7" x="0" width="112.22" height="112.22"/></pattern><pattern id="New_Pattern_Swatch_4" x="0" y="0" width="112.22" height="112.22" patternTransform="translate(-204 -2580)" patternUnits="userSpaceOnUse" viewBox="0 0 112.22 112.22"><rect class="cls-1" width="112.22" height="112.22"/><rect class="cls-9" width="112.22" height="112.22"/></pattern></defs><path class="cls-5" d="M73.41,39.22c-1.14,1.39-2.82,2.19-4.62,2.19-.48,0-.89-.34-.98-.8l-2.67-13.36h-9.51c-.55-.01-1-.46-1-1.01v-6.07c0-.55.45-1,1-1h11.86c2.4,0,4.48,1.71,4.95,4.06l2.21,11.03c.35,1.76-.1,3.57-1.24,4.96Z"/><path class="cls-2" d="M60.69,40.41h-20.24l1.1-5.27c.1-.47.51-.81.99-.81h16.06c.48,0,.89.34.99.81l1.1,5.27Z"/><path class="cls-3" d="M69.8,62.15v21.78c0,3.35-2.72,6.07-6.07,6.07h-26.32c-2.45,0-4.56-1.45-5.52-3.55-.35-.77-.55-1.62-.55-2.52v-21.78h38.46Z"/><path class="cls-2" d="M66.8,62.15v14.85c0,5.52-4.48,10-10,10h-22.39c-.9,0-1.75-.2-2.52-.55-.35-.77-.55-1.62-.55-2.52v-21.78h35.46Z"/><rect class="cls-2" x="46.51" y="19.14" width="8.12" height="8.12"/><path class="cls-4" d="M36.39,25.23v-4.05c0-.55-.45-1-1-1h-7.08c-.55,0-1,.45-1,1v4.05c0,.55.45,1,1,1h7.08c.55,0,1-.45,1-1ZM34.39,24.23h-5.08v-2.05h5.08v2.05ZM70.8,72.6v1.8c0,.55-.45,1-1,1s-1-.45-1-1v-1.8c0-.55.45-1,1-1s1,.45,1,1ZM68.21,46.4c-1.6-2.74-3.89-5.01-6.63-6.62l-1.01-4.84c-.19-.93-1.02-1.6-1.97-1.6h-.08l-.63-4.35c-.11-.73-.6-1.32-1.25-1.58v-8.27c0-1.1-.9-2-2-2h-1.04v-7.09c0-.55-.45-1-1-1h-4.05c-.55,0-1,.45-1,1v7.09h-1.04c-1.1,0-2,.9-2,2v.03h-4.06c-.55,0-1,.45-1,1v6.07c0,.55.45,1,1,1h4.06v.17c-.65.26-1.15.85-1.25,1.58l-.63,4.35h-.08c-.95,0-1.78.67-1.97,1.6l-1.01,4.84c-5.7,3.35-9.22,9.48-9.22,16.11v28.04c0,3.9,3.17,7.07,7.07,7.07h26.32c3.9,0,7.07-3.17,7.07-7.07v-5.93c0-.55-.45-1-1-1s-1,.45-1,1v5.93c0,2.8-2.27,5.07-5.07,5.07h-26.32c-2.8,0-5.07-2.27-5.07-5.07v-20.78h3.66v17.85c0,.55.45,1,1,1h4c.55,0,1-.45,1-1s-.45-1-1-1h-3v-10h3c.55,0,1-.45,1-1s-.45-1-1-1h-3v-4.85h30.8v5.85c0,.55.45,1,1,1s1-.45,1-1v-13.11c0-3.35-.9-6.63-2.59-9.49ZM49.55,11.05h2.05v6.09h-2.05v-6.09ZM54.63,19.14v8.12h-8.12v-8.12h8.12ZM41.45,25.24v-4.07h3.06v4.07h-3.06ZM45.25,29.26h10.66s.59,4.07.59,4.07h-11.85l.6-4.07ZM42.54,35.34h16.08s.85,4.07.85,4.07h-17.78l.86-4.07ZM38,61.15v-3.15h3c.55,0,1-.45,1-1s-.45-1-1-1h-4c-.55,0-1,.45-1,1v4.15h-3.66v-5.26c0-5.98,3.2-11.5,8.37-14.48h19.71c2.51,1.44,4.6,3.52,6.06,6.01,1.51,2.55,2.31,5.48,2.31,8.47v5.26h-30.8Z"/><path class="cls-5" d="M41.45,19.14v8.12c0,1.11-.9,2-2,2h-3.06c-1.1,0-2-.89-2-2v-8.12c0-1.1.9-2,2-2h3.06c1.1,0,2,.9,2,2Z"/><path class="cls-5" d="M29.31,19.16v8.09c0,.31-.14.59-.38.78-.18.15-.4.22-.62.22-.08,0-.15,0-.22-.02l-6.07-1.35c-.46-.1-.79-.51-.79-.98v-5.39c0-.47.33-.88.79-.98l6.07-1.35c.3-.06.6.01.84.2.24.19.38.47.38.78Z"/><path class="cls-5" d="M55.92,10.27c-.38.5-.96.78-1.59.78h-7.52c-.63,0-1.21-.28-1.59-.78-.38-.49-.52-1.12-.37-1.72l.51-2.03c.23-.89,1.03-1.52,1.95-1.52h6.52c.92,0,1.73.63,1.95,1.52l.51,2.03c.15.6.01,1.23-.37,1.72Z"/></svg>