<?xml version="1.0" encoding="UTF-8"?><svg id="Greeny" xmlns="http://www.w3.org/2000/svg" xmlns:xlink="http://www.w3.org/1999/xlink" viewBox="0 0 96 96"><defs><style>.cls-1{fill:none;}.cls-1,.cls-2,.cls-3,.cls-4,.cls-5,.cls-6,.cls-7,.cls-8,.cls-9{stroke-width:0px;}.cls-2{fill:url(#New_Pattern_Swatch_3);}.cls-3{fill:url(#New_Pattern_Swatch_2);}.cls-4{fill:url(#New_Pattern_Swatch_4);}.cls-5{fill:url(#New_Pattern_Swatch_1);}.cls-6{fill:#2faf96;}.cls-7{fill:#1feab0;}.cls-8{fill:#b3ffde;}.cls-9{fill:#008887;}</style><pattern id="New_Pattern_Swatch_1" x="0" y="0" width="112.22" height="112.22" patternTransform="translate(-400 -2580)" patternUnits="userSpaceOnUse" viewBox="0 0 112.22 112.22"><rect class="cls-1" width="112.22" height="112.22"/><rect class="cls-6" width="112.22" height="112.22"/></pattern><pattern id="New_Pattern_Swatch_2" x="0" y="0" width="112.22" height="112.22" patternTransform="translate(-400 -2580)" patternUnits="userSpaceOnUse" viewBox="0 0 112.22 112.22"><rect class="cls-1" width="112.22" height="112.22"/><rect class="cls-7" x="0" width="112.22" height="112.22"/></pattern><pattern id="New_Pattern_Swatch_3" x="0" y="0" width="112.22" height="112.22" patternTransform="translate(-405 -2580)" patternUnits="userSpaceOnUse" viewBox="0 0 112.22 112.22"><rect class="cls-1" width="112.22" height="112.22"/><rect class="cls-8" width="112.22" height="112.22"/></pattern><pattern id="New_Pattern_Swatch_4" x="0" y="0" width="112.22" height="112.22" patternTransform="translate(-400 -2580)" patternUnits="userSpaceOnUse" viewBox="0 0 112.22 112.22"><rect class="cls-1" width="112.22" height="112.22"/><rect class="cls-9" width="112.22" height="112.22"/></pattern></defs><path class="cls-5" d="M83.79,86.47l-.07.25-2.06,2.05c-1.25,1.25-2.9,1.93-4.65,1.93h-.13c-1.82-.03-3.49-.79-4.73-2.12-2.57-2.78-6.02-6.03-8.01-7.57-5.71-4.41-12.14-11.14-20.87-21.82-2.72-3.33-6.24-6.08-9-8.11l-19.22-16.28-3.82-3.82c-1.95-1.95-1.95-5.12,0-7.07l2.02-2.02c1.92-1.92,4.97-1.97,6.95-.12l.4.38c.97.9,1.96,1.83,2.98,2.79l19.74,18.81c7.4,7.32,12.71,13.13,16.25,17.78,4.88,6.43,10.8,10,15.55,12.86,5.8,3.5,10.37,6.26,8.67,12.08Z"/><path class="cls-3" d="M55.48,36.47c-3.36,1.86-6.9,3.99-10.54,6.42-4.55,3.05-8.6,6.12-12.15,9.08-1.43,1.18-3.49,1.11-4.83-.14-.04-.03-.07-.06-.1-.09l-1.3-1.3-10.98-10.98c-1.42-1.42-1.44-3.71-.04-5.15,2.78-2.83,5.76-6.28,8.65-10.44,2.48-3.56,4.47-7.01,6.07-10.23.32-.62.61-1.23.89-1.83,2.17.82,4.89,2.07,7.79,3.94,2.23,1.44,4.58,3.25,6.86,5.53,2.4,2.4,6.86,7.44,9.67,15.18h.01Z"/><path class="cls-2" d="M45.2,37.84c-.61,1.51-1.72,2.75-3.09,3.63-.72.47-1.44.94-2.17,1.42-4.48,3-8.47,6.02-11.98,8.94-.04-.03-.07-.06-.1-.09l-1.3-1.3-10.98-10.98c-1.42-1.42-1.44-3.71-.04-5.15,2.78-2.83,5.76-6.28,8.65-10.44,2.48-3.56,4.47-7.01,6.07-10.23,1.17.59,2.41,1.29,3.68,2.11,2.23,1.44,4.58,3.25,6.86,5.53,1.04,1.04,2.47,2.58,3.99,4.62,0,.01.01.01.01.02.95,1.31,1.49,2.87,1.53,4.49.06,2.48-.2,5.14-1.13,7.43Z"/><path class="cls-4" d="M23.7,46.16c.39.39.39,1.02,0,1.41-.2.2-.45.29-.71.29s-.51-.1-.71-.29l-1.27-1.27c-.39-.39-.39-1.02,0-1.41s1.02-.39,1.41,0l1.27,1.27ZM60.88,34.74c-5.28,2.67-10.46,5.69-15.38,8.98l-.39.26c-.64.44-1.28.87-1.91,1.31-2.75,1.92-5.34,3.86-7.7,5.77-.65.51-1.27,1.03-1.89,1.53l-.19.15c-.87.72-1.92,1.08-2.98,1.08-1.2,0-2.39-.46-3.3-1.37l-2.32-2.32c-.39-.39-.39-1.02,0-1.41s1.02-.39,1.41,0l2.32,2.32c.98.98,2.52,1.05,3.58.17l.19-.15c.63-.52,1.26-1.04,1.91-1.55,2.39-1.93,5.02-3.9,7.81-5.84.64-.44,1.28-.88,1.93-1.32l.39-.27c3.19-2.13,6.49-4.13,9.85-6.02-2.54-6.57-6.33-11.26-9.13-14.06-3.81-3.81-8.45-6.86-13.46-8.9-1.9,3.95-4.12,7.77-6.62,11.35-.43.63-.87,1.23-1.31,1.82-2.18,2.97-4.62,5.84-7.23,8.52l-.23.23c-1,1.03-.98,2.71.04,3.73l3.59,3.59c.39.39.39,1.02,0,1.41s-1.02.39-1.41,0l-3.59-3.59c-1.8-1.79-1.82-4.74-.05-6.55l.23-.23c2.54-2.61,4.91-5.4,7.04-8.31.43-.58.85-1.17,1.27-1.78,2.62-3.76,4.94-7.76,6.88-11.91.74-1.58,1.45-3.25,2.11-4.95.44-1.11,1.65-1.68,2.77-1.3,4.32,1.45,10.71,4.4,16.57,10.25,4.66,4.66,8.21,10.43,10.29,16.68.35,1.04-.13,2.19-1.11,2.68ZM60.09,32.7c-2.5-7.54-6.72-12.81-9.81-15.9-5.58-5.57-11.67-8.39-15.79-9.77-.11-.04-.23.02-.27.14-.55,1.4-1.14,2.77-1.74,4.11,5.22,2.14,10.06,5.33,14.03,9.3,4.1,4.1,7.35,9.09,9.48,14.48,1.32-.72,2.65-1.42,3.99-2.09.1-.05.15-.16.11-.26Z"/></svg>