<?xml version="1.0" encoding="UTF-8"?><svg id="Greeny" xmlns="http://www.w3.org/2000/svg" xmlns:xlink="http://www.w3.org/1999/xlink" viewBox="0 0 96 96"><defs><style>.cls-1{fill:none;}.cls-1,.cls-2,.cls-3,.cls-4,.cls-5,.cls-6,.cls-7,.cls-8,.cls-9,.cls-10{stroke-width:0px;}.cls-2{fill:url(#New_Pattern_Swatch_3);}.cls-3{fill:url(#New_Pattern_Swatch_2);}.cls-4{fill:url(#New_Pattern_Swatch_4);}.cls-5{fill:url(#New_Pattern_Swatch_1);}.cls-6{fill:url(#New_Pattern_Swatch_3-2);}.cls-7{fill:#2faf96;}.cls-8{fill:#1feab0;}.cls-9{fill:#b3ffde;}.cls-10{fill:#008887;}</style><pattern id="New_Pattern_Swatch_3" x="0" y="0" width="112.22" height="112.22" patternTransform="translate(-596 -2580)" patternUnits="userSpaceOnUse" viewBox="0 0 112.22 112.22"><rect class="cls-1" width="112.22" height="112.22"/><rect class="cls-9" width="112.22" height="112.22"/></pattern><pattern id="New_Pattern_Swatch_1" x="0" y="0" width="112.22" height="112.22" patternTransform="translate(-596 -2580)" patternUnits="userSpaceOnUse" viewBox="0 0 112.22 112.22"><rect class="cls-1" width="112.22" height="112.22"/><rect class="cls-7" width="112.22" height="112.22"/></pattern><pattern id="New_Pattern_Swatch_4" x="0" y="0" width="112.22" height="112.22" patternTransform="translate(-596 -2580)" patternUnits="userSpaceOnUse" viewBox="0 0 112.22 112.22"><rect class="cls-1" width="112.22" height="112.22"/><rect class="cls-10" width="112.22" height="112.22"/></pattern><pattern id="New_Pattern_Swatch_2" x="0" y="0" width="112.22" height="112.22" patternTransform="translate(-596 -2580)" patternUnits="userSpaceOnUse" viewBox="0 0 112.22 112.22"><rect class="cls-1" width="112.22" height="112.22"/><rect class="cls-8" x="0" width="112.22" height="112.22"/></pattern><pattern id="New_Pattern_Swatch_3-2" patternTransform="translate(-599 -2583)" xlink:href="#New_Pattern_Swatch_3"/></defs><path class="cls-2" d="M81.06,9.01c-.34-.35-.72-.67-1.13-.95l-.18-.12c-4.33-2.98-10.2-2.48-13.97,1.18l-11.63,11.3,7.04,7.25c3.04,3.12,8.04,3.19,11.17.16l8.54-8.31c2.94-2.86,3.01-7.57.16-10.51ZM78.11,16.65l-8.54,8.31c-1.54,1.5-4.01,1.46-5.51-.08l-4.25-4.38,8.76-8.51c2.41-2.35,6.14-2.66,8.91-.76l.19.13c1.78,1.23,2,3.78.44,5.29Z"/><path class="cls-5" d="M64.77,19.86l-2.09-2.15,5.02-4.88,2.09,2.15c.38.4.38,1.03-.02,1.41l-3.59,3.48c-.4.38-1.03.38-1.41-.02Z"/><path class="cls-4" d="M78.23,10.54l-.18-.13c-3.15-2.17-7.44-1.81-10.18.86l-8.76,8.51c-.4.38-.4,1.02-.02,1.41l4.25,4.38c.96.99,2.23,1.48,3.51,1.48s2.46-.46,3.41-1.38l8.55-8.31c.96-.93,1.44-2.22,1.33-3.55-.11-1.33-.81-2.52-1.91-3.28ZM77.42,15.94l-8.55,8.31c-1.14,1.11-2.98,1.09-4.09-.06l-3.56-3.66,8.04-7.82c2.06-2,5.28-2.28,7.66-.65l.18.13c.6.41.98,1.07,1.05,1.8.06.73-.2,1.44-.73,1.95ZM81.78,8.32c-.39-.4-.82-.76-1.29-1.08l-.17-.12c-4.72-3.25-11.13-2.7-15.24,1.29L31.22,41.31c-.19.18-.3.44-.3.7,0,.27.1.52.28.71l4.18,4.3c.2.2.46.3.72.3s.5-.09.7-.28l21.52-20.91,2.17,2.23c1.65,1.7,3.87,2.66,6.25,2.69.04,0,.09,0,.13,0,2.33,0,4.52-.89,6.19-2.51l8.55-8.3c3.33-3.24,3.42-8.59.18-11.92ZM36.12,44.91l-2.79-2.87,20.8-20.21,2.79,2.87-20.8,20.21ZM80.21,18.8l-8.55,8.3c-1.29,1.26-3,1.95-4.8,1.95-.03,0-.07,0-.1,0-1.84-.03-3.56-.77-4.85-2.08l-6.35-6.53,10.91-10.6c3.43-3.33,8.77-3.78,12.71-1.07l.17.12c.35.24.68.52.98.83,2.47,2.54,2.41,6.62-.14,9.09Z"/><path class="cls-5" d="M37.39,46.99c-.01.53-.23,1.03-.61,1.41l-4.16,4.04c-.19.18-.44.28-.7.28-.07,0-.14-.01-.21-.02l-9.38-2.03c-.36-.08-.65-.35-.75-.7-.1-.36,0-.74.26-1l7.96-7.75c.39-.37.91-.55,1.42-.57.54.01,1.04.23,1.42.61l4.18,4.3c.37.39.57.89.57,1.43Z"/><path class="cls-3" d="M36.35,71.88c.07.59-.4,1.12-1,1.12h-17.75c-.6,0-1.06-.51-1-1.11.06-.49.13-1.13.21-1.89.51-4.57,1.46-13.31,2.02-18.41.16-1.39,1.47-2.35,2.85-2.07l9.31,1.9c.07.01.13.03.2.05,1.62.41,2.84,1.75,3.08,3.41l2.08,17Z"/><path class="cls-6" d="M22.19,70h-5.38c.51-4.57,1.46-13.31,2.02-18.41.16-1.39,1.47-2.35,2.85-2.07l9.31,1.9c.07.01.13.03.2.05.03.13.06.27.08.41l.84,6.91c.73,5.96-3.92,11.21-9.92,11.21Z"/><path class="cls-4" d="M34.91,60.12c.55-.07,1.05.32,1.11.87l.22,1.79c.07.55-.32,1.05-.87,1.11-.04,0-.08,0-.12,0-.5,0-.93-.37-.99-.88l-.22-1.79c-.07-.55.32-1.05.87-1.11ZM48.48,72v12.29c0,1.69-1.2,3.15-2.86,3.48l-2.95.59c-.06.01-.13.02-.2.02-.23,0-.45-.08-.63-.23-.23-.19-.37-.47-.37-.77v-8.38h-12v3c0,.55-.45,1-1,1s-1-.45-1-1v-3h-2v3c0,.55-.45,1-1,1s-1-.45-1-1v-3h-11c-1.1,0-2-.9-2-2v-2.95c0-1.65.97-3.14,2.47-3.8l2.97-1.31c.5-4.56,1.32-12.03,1.85-16.84l.07-.62c.11-.95.61-1.81,1.38-2.36.76-.56,1.74-.77,2.67-.58l9.31,1.9c2.12.43,3.76,2.16,4.07,4.3l.32,2.67c.07.55-.32,1.05-.87,1.11-.54.07-1.05-.32-1.11-.87l-.32-2.65c-.19-1.28-1.19-2.34-2.49-2.6l-9.31-1.9c-.39-.08-.77,0-1.09.24-.32.23-.52.58-.56.97l-.07.61c-.66,6.05-1.79,16.32-2.16,19.68h17.76s-.65-5.39-.65-5.39c-.07-.55.32-1.05.87-1.11.54-.08,1.05.32,1.11.87l.32,2.63h8.48c1.65,0,3,1.35,3,3ZM46.48,72c0-.55-.45-1-1-1h-8.23l.09.76c.07.57-.11,1.14-.49,1.57-.38.43-.93.68-1.5.68h-17.75c-.57,0-1.11-.24-1.49-.66-.38-.42-.56-.99-.51-1.55.02-.16.04-.36.06-.55l-1.91.84c-.78.34-1.27,1.11-1.27,1.97v2.95h29c1.1,0,2,.9,2,2v7.16l1.75-.35c.72-.15,1.25-.79,1.25-1.52v-12.29ZM28.48,85c-.55,0-1,.45-1,1v2c0,.55-.45,1-1,1s-1-.45-1-1v-2c0-.55-.45-1-1-1s-1,.45-1,1v2c0,1.65,1.35,3,3,3s3-1.35,3-3v-2c0-.55-.45-1-1-1Z"/><path class="cls-5" d="M39.48,84c0,1.65-1.34,3-3,3h-20c-1.65,0-3-1.35-3-3s1.35-3,3-3h20c1.66,0,3,1.35,3,3Z"/></svg>