<?xml version="1.0" encoding="UTF-8"?><svg id="Greeny" xmlns="http://www.w3.org/2000/svg" xmlns:xlink="http://www.w3.org/1999/xlink" viewBox="0 0 96 96"><defs><style>.cls-1{fill:none;}.cls-1,.cls-2,.cls-3,.cls-4,.cls-5,.cls-6,.cls-7,.cls-8,.cls-9{stroke-width:0px;}.cls-2{fill:url(#New_Pattern_Swatch_3);}.cls-3{fill:url(#New_Pattern_Swatch_2);}.cls-4{fill:url(#New_Pattern_Swatch_4);}.cls-5{fill:url(#New_Pattern_Swatch_1);}.cls-6{fill:#2faf96;}.cls-7{fill:#1feab0;}.cls-8{fill:#b3ffde;}.cls-9{fill:#008887;}</style><pattern id="New_Pattern_Swatch_4" x="0" y="0" width="112.22" height="112.22" patternTransform="translate(-792 -2580)" patternUnits="userSpaceOnUse" viewBox="0 0 112.22 112.22"><rect class="cls-1" width="112.22" height="112.22"/><rect class="cls-9" width="112.22" height="112.22"/></pattern><pattern id="New_Pattern_Swatch_2" x="0" y="0" width="112.22" height="112.22" patternTransform="translate(-792 -2580)" patternUnits="userSpaceOnUse" viewBox="0 0 112.22 112.22"><rect class="cls-1" width="112.22" height="112.22"/><rect class="cls-7" x="0" width="112.22" height="112.22"/></pattern><pattern id="New_Pattern_Swatch_3" x="0" y="0" width="112.22" height="112.22" patternTransform="translate(-796 -2584)" patternUnits="userSpaceOnUse" viewBox="0 0 112.22 112.22"><rect class="cls-1" width="112.22" height="112.22"/><rect class="cls-8" width="112.22" height="112.22"/></pattern><pattern id="New_Pattern_Swatch_1" x="0" y="0" width="112.22" height="112.22" patternTransform="translate(-792 -2580)" patternUnits="userSpaceOnUse" viewBox="0 0 112.22 112.22"><rect class="cls-1" width="112.22" height="112.22"/><rect class="cls-6" width="112.22" height="112.22"/></pattern></defs><path class="cls-4" d="M90.84,24.42c-.28-.35-.76-.48-1.17-.3-.21.09-3.87,1.71-7.22,6.46-1.06-3.55-2.65-6.82-2.73-6.99-.17-.35-.52-.58-.93-.56-.39.01-.74.25-.89.61-.79,1.89-1.46,3.92-1.95,5.54-.88-1.07-1.75-1.94-2.56-2.64.19-.31.39-.61.61-.92.26-.36.25-.86-.02-1.21-.28-.35-.76-.48-1.17-.3-.03.01-.63.27-1.53.85-.86-.55-1.44-.81-1.54-.85-.41-.18-.9-.05-1.17.3-.28.35-.29.85-.02,1.21.22.29.42.61.62.93-1.69,1.47-3.58,3.6-5.2,6.59.66-2.84,1.65-5.5,3.14-7.52.27-.36.26-.86-.02-1.21-.28-.35-.76-.48-1.17-.3-.28.12-3.94,1.74-7.27,6.46-1.05-3.78-2.83-7.45-2.92-7.64-.17-.35-.5-.57-.93-.56-.39.01-.74.25-.89.61-.76,1.81-1.41,3.76-1.94,5.49-3.57-6.16-7.98-8.17-8.26-8.29-.41-.18-.9-.06-1.18.29-.28.35-.29.85-.02,1.22,1.93,2.62,3.01,6.32,3.62,9.93-1.48-2.35-3.08-4.03-4.46-5.21.17-.27.34-.54.53-.8.27-.36.26-.86-.02-1.21-.28-.35-.75-.48-1.17-.31-.07.03-.6.26-1.42.78-.8-.5-1.33-.74-1.43-.78-.41-.18-.9-.05-1.17.3-.28.35-.29.85-.02,1.21.19.26.37.53.55.81-1.74,1.49-3.69,3.66-5.35,6.73.66-2.84,1.65-5.52,3.14-7.54.27-.36.26-.86-.02-1.21s-.76-.48-1.17-.3c-.27.11-3.61,1.59-6.81,5.83-1.01-4-3-8.09-3.1-8.29-.17-.35-.55-.56-.93-.56-.39.01-.74.25-.89.61-.92,2.19-1.71,4.66-2.28,6.65-3.56-6.07-7.92-8.06-8.19-8.18-.41-.18-.9-.06-1.18.29-.28.35-.29.85-.02,1.22,1.93,2.62,3.01,6.32,3.62,9.93-3.5-5.54-7.67-7.39-7.97-7.52-.41-.18-.9-.05-1.17.3-.28.35-.29.85-.02,1.21,5.7,7.73,4.17,24.91,4.15,25.08l1.99.19c.06-.64,1.24-13.81-2.47-22.74,3.42,3.01,8.31,9.6,8.31,22.64h2c0-5.68-.9-10.21-2.21-13.82-.23-3.79-.86-8.55-2.47-12.55,2.82,2.64,6.59,7.78,7.84,16.95-.59,2.73-.95,5.84-.95,9.42h2c0-13.04,4.89-19.63,8.31-22.65-3.72,8.93-2.54,22.1-2.47,22.74l1.99-.19c0-.08-.33-3.7-.14-8.35,1.48-7.32,4.7-11.64,7.46-14.11,0,.01.01.02.02.03-3.66,8.96-2.49,22.05-2.44,22.61l1.99-.19c-.01-.12-1-11.13,1.53-19.51,2.52,8.36,1.54,19.37,1.53,19.51l1.99.19c.06-.64,1.24-13.81-2.47-22.74,3.42,3.01,8.31,9.6,8.31,22.64h2c0-5.68-.9-10.21-2.21-13.82-.23-3.79-.86-8.55-2.47-12.55,2.82,2.64,6.59,7.78,7.84,16.95-.59,2.73-.95,5.84-.95,9.42h2c0-13.04,4.89-19.63,8.31-22.65-3.72,8.93-2.54,22.1-2.48,22.74l1.99-.19c0-.08-.33-3.71-.14-8.36,1.46-7.21,4.6-11.5,7.3-13.97.02.05.04.1.07.15-3.54,8.95-2.39,21.81-2.33,22.37l1.99-.19c-.01-.12-.97-10.82,1.43-19.16,2.39,8.31,1.44,19.02,1.42,19.16l1.99.19c.06-.64,1.23-13.73-2.44-22.66,3.42,3.07,8.28,9.7,8.28,22.56h2c0-4.98-.69-9.08-1.75-12.45,1.71-5.05,4.31-8.23,6.39-10.1-3.67,8.92-2.5,22.01-2.43,22.64l1.99-.19c-.02-.17-1.55-17.35,4.15-25.08.27-.36.26-.86-.02-1.21ZM21.43,30.98c.41-1.55,1.08-3.93,1.92-6.28.84,2,1.97,5.03,2.37,7.58-.81,1.37-1.57,2.96-2.23,4.79-.55-2.31-1.27-4.33-2.06-6.09ZM53.29,31.07c.35-1.26.91-3.15,1.6-5.09.78,1.84,1.8,4.57,2.26,6.99-.67,1.21-1.29,2.57-1.84,4.1-.54-2.27-1.24-4.26-2.02-6ZM77.44,31.2c.33-1.16.83-2.83,1.45-4.57.7,1.66,1.6,4.03,2.11,6.25-.44.8-.87,1.68-1.27,2.62-.7-1.64-1.48-3.07-2.29-4.3Z"/><path class="cls-3" d="M89,56.45v17.44c0,.56-.45,1-1,1H8c-.55,0-1-.44-1-1v-17.44h82Z"/><path class="cls-2" d="M85,56.45v4.44c0,5.53-4.48,10-10,10H7v-14.44h78Z"/><path class="cls-4" d="M17.5,64.17h-3c-.55,0-1-.45-1-1s.45-1,1-1h3c.55,0,1,.45,1,1s-.45,1-1,1ZM26.5,68.17c0-.55-.45-1-1-1h-3c-.55,0-1,.45-1,1s.45,1,1,1h3c.55,0,1-.45,1-1ZM34.5,63.17c0-.55-.45-1-1-1h-3c-.55,0-1,.45-1,1s.45,1,1,1h3c.55,0,1-.45,1-1ZM42.5,68.17c0-.55-.45-1-1-1h-3c-.55,0-1,.45-1,1s.45,1,1,1h3c.55,0,1-.45,1-1ZM50.5,63.17c0-.55-.45-1-1-1h-3c-.55,0-1,.45-1,1s.45,1,1,1h3c.55,0,1-.45,1-1ZM58.5,68.17c0-.55-.45-1-1-1h-3c-.55,0-1,.45-1,1s.45,1,1,1h3c.55,0,1-.45,1-1ZM66.5,63.17c0-.55-.45-1-1-1h-3c-.55,0-1,.45-1,1s.45,1,1,1h3c.55,0,1-.45,1-1ZM74.5,68.17c0-.55-.45-1-1-1h-3c-.55,0-1,.45-1,1s.45,1,1,1h3c.55,0,1-.45,1-1ZM82.5,63.17c0-.55-.45-1-1-1h-3c-.55,0-1,.45-1,1s.45,1,1,1h3c.55,0,1-.45,1-1ZM90,66.57v-1.8c0-.55-.45-1-1-1s-1,.45-1,1v1.8c0,.55.45,1,1,1s1-.45,1-1ZM90,73.89v-3.72c0-.55-.45-1-1-1s-1,.45-1,1v3.72H8v-16.44h80v3.72c0,.55.45,1,1,1s1-.45,1-1v-5.72H6v18.44c0,1.1.9,2,2,2h80c1.1,0,2-.9,2-2Z"/><path class="cls-5" d="M90,51.81v5.64H6v-5.64c0-1.1.9-2,2-2h80c1.1,0,2,.9,2,2Z"/></svg>