<?xml version="1.0" encoding="UTF-8"?><svg id="Greeny" xmlns="http://www.w3.org/2000/svg" xmlns:xlink="http://www.w3.org/1999/xlink" viewBox="0 0 96 96"><defs><style>.cls-1{fill:none;}.cls-1,.cls-2,.cls-3,.cls-4,.cls-5,.cls-6,.cls-7,.cls-8,.cls-9{stroke-width:0px;}.cls-2{fill:url(#New_Pattern_Swatch_3);}.cls-3{fill:url(#New_Pattern_Swatch_2);}.cls-4{fill:url(#New_Pattern_Swatch_4);}.cls-5{fill:url(#New_Pattern_Swatch_1);}.cls-6{fill:#2faf96;}.cls-7{fill:#1feab0;}.cls-8{fill:#b3ffde;}.cls-9{fill:#008887;}</style><pattern id="New_Pattern_Swatch_4" x="0" y="0" width="112.22" height="112.22" patternTransform="translate(-988 -2580)" patternUnits="userSpaceOnUse" viewBox="0 0 112.22 112.22"><rect class="cls-1" width="112.22" height="112.22"/><rect class="cls-9" width="112.22" height="112.22"/></pattern><pattern id="New_Pattern_Swatch_2" x="0" y="0" width="112.22" height="112.22" patternTransform="translate(-988 -2580)" patternUnits="userSpaceOnUse" viewBox="0 0 112.22 112.22"><rect class="cls-1" width="112.22" height="112.22"/><rect class="cls-7" x="0" width="112.22" height="112.22"/></pattern><pattern id="New_Pattern_Swatch_3" x="0" y="0" width="112.22" height="112.22" patternTransform="translate(-992 -2584)" patternUnits="userSpaceOnUse" viewBox="0 0 112.22 112.22"><rect class="cls-1" width="112.22" height="112.22"/><rect class="cls-8" width="112.22" height="112.22"/></pattern><pattern id="New_Pattern_Swatch_1" x="0" y="0" width="112.22" height="112.22" patternTransform="translate(-988 -2580)" patternUnits="userSpaceOnUse" viewBox="0 0 112.22 112.22"><rect class="cls-1" width="112.22" height="112.22"/><rect class="cls-6" width="112.22" height="112.22"/></pattern></defs><path class="cls-4" d="M48,5c-13.07,0-23.7,10.63-23.7,23.7v10.22c0,.55.45,1,1,1h45.41c.55,0,1-.45,1-1v-10.22c0-13.07-10.63-23.7-23.7-23.7ZM31.97,37.92v-8.65c0-4.74,1.96-9.26,5.38-12.41,3.29-3.03,7.54-4.5,11.97-4.13,8.24.68,14.7,7.69,14.7,15.97v9.22H31.97ZM69.7,37.92h-3.68v-9.22c0-9.31-7.26-17.2-16.54-17.97-5-.41-9.79,1.24-13.49,4.65-3.83,3.53-6.02,8.59-6.02,13.88v8.65h-3.68v-9.22c0-11.97,9.74-21.7,21.7-21.7s21.7,9.74,21.7,21.7v9.22Z"/><path class="cls-3" d="M70.7,45.73v38.27c0,3.31-2.68,6-6,6H31.3c-2.72,0-5-1.8-5.74-4.26-.17-.55-.26-1.14-.26-1.74v-38.27h45.4Z"/><path class="cls-2" d="M66.7,45.73v30.27c0,5.52-4.47,10-10,10h-29.4c-.6,0-1.19-.09-1.74-.26-.17-.55-.26-1.14-.26-1.74v-38.27h41.4Z"/><path class="cls-4" d="M71.7,72.6v1.8c0,.55-.45,1-1,1s-1-.45-1-1v-1.8c0-.55.45-1,1-1s1,.45,1,1ZM71.7,69c0,.55-.45,1-1,1s-1-.45-1-1v-3.53H26.3v18.53c0,2.76,2.24,5,5,5h33.4c2.76,0,5-2.24,5-5v-6c0-.55.45-1,1-1s1,.45,1,1v6c0,3.86-3.14,7-7,7H31.3c-3.86,0-7-3.14-7-7v-38.27c0-.55.45-1,1-1h45.4c.55,0,1,.45,1,1v23.27ZM26.3,57.22h43.4v-4.25H26.3v4.25ZM26.3,46.73v4.23h43.4v-4.23H26.3ZM69.7,63.47v-4.26H26.3v4.26h43.4Z"/><rect class="cls-5" x="20.89" y="37.92" width="54.22" height="8.81" rx="3" ry="3"/></svg>