<?xml version="1.0" encoding="UTF-8"?><svg id="Greeny" xmlns="http://www.w3.org/2000/svg" xmlns:xlink="http://www.w3.org/1999/xlink" viewBox="0 0 96 96"><defs><style>.cls-1{fill:none;}.cls-1,.cls-2,.cls-3,.cls-4,.cls-5,.cls-6,.cls-7,.cls-8,.cls-9,.cls-10,.cls-11{stroke-width:0px;}.cls-2{fill:url(#New_Pattern_Swatch_3);}.cls-3{fill:url(#New_Pattern_Swatch_2);}.cls-4{fill:url(#New_Pattern_Swatch_4);}.cls-5{fill:url(#New_Pattern_Swatch_1);}.cls-6{fill:url(#New_Pattern_Swatch_3-2);}.cls-7{fill:url(#New_Pattern_Swatch_2-2);}.cls-8{fill:#2faf96;}.cls-9{fill:#1feab0;}.cls-10{fill:#b3ffde;}.cls-11{fill:#008887;}</style><pattern id="New_Pattern_Swatch_2" x="0" y="0" width="112.22" height="112.22" patternTransform="translate(-204 -2776)" patternUnits="userSpaceOnUse" viewBox="0 0 112.22 112.22"><rect class="cls-1" width="112.22" height="112.22"/><rect class="cls-9" x="0" width="112.22" height="112.22"/></pattern><pattern id="New_Pattern_Swatch_3" x="0" y="0" width="112.22" height="112.22" patternTransform="translate(-208 -2779)" patternUnits="userSpaceOnUse" viewBox="0 0 112.22 112.22"><rect class="cls-1" width="112.22" height="112.22"/><rect class="cls-10" width="112.22" height="112.22"/></pattern><pattern id="New_Pattern_Swatch_1" x="0" y="0" width="112.22" height="112.22" patternTransform="translate(-204 -2776)" patternUnits="userSpaceOnUse" viewBox="0 0 112.22 112.22"><rect class="cls-1" width="112.22" height="112.22"/><rect class="cls-8" width="112.22" height="112.22"/></pattern><pattern id="New_Pattern_Swatch_4" x="0" y="0" width="112.22" height="112.22" patternTransform="translate(-204 -2776)" patternUnits="userSpaceOnUse" viewBox="0 0 112.22 112.22"><rect class="cls-1" width="112.22" height="112.22"/><rect class="cls-11" width="112.22" height="112.22"/></pattern><pattern id="New_Pattern_Swatch_2-2" patternTransform="translate(-208 -2779)" xlink:href="#New_Pattern_Swatch_2"/><pattern id="New_Pattern_Swatch_3-2" patternTransform="translate(-215 -2779)" xlink:href="#New_Pattern_Swatch_3"/></defs><path class="cls-3" d="M68.99,36.36c-.04-.45-.09-.89-.14-1.33-.03-.23-.06-.46-.09-.69-.05-.44-.12-.89-.19-1.32-.47-2.9-1.21-5.6-2.25-8.02-.2-.5-.42-.99-.67-1.46-.57-1.17-1.23-2.26-1.96-3.27-.34-.46-.69-.91-1.06-1.33-1.4-1.62-3.03-2.96-4.92-3.99-2.69-1.46-5.89-2.27-9.63-2.27-4.14,0-7.61.99-10.46,2.75-5.45,3.37-9.28,9.8-10.44,17.62-.05.34-.1.68-.14,1.02-.04.33-.07.66-.1.99-.03.4-.06.79-.08,1.19-.06,1.08-.06,2.18-.02,3.29,0,.13,0,.27.02.4.04.81.59,1.51,1.36,1.77,4.62,1.57,11.47,3.28,19.86,3.28s15.12-1.68,19.74-3.24c.83-.28,1.39-1.07,1.36-1.94-.03-1.17-.09-2.32-.19-3.45ZM67.5,40.8c-12.57,4.25-26.4,4.23-38.96-.04-.39-.13-.66-.48-.68-.87v-.07c-.06-1.09-.06-2.16-.01-3.22,6.51,2.23,13.31,3.36,20.23,3.36,4.35,0,8.66-.45,12.88-1.34,2.38-.5,4.73-1.14,7.05-1.92.09,1.02.15,2.07.17,3.14.02.43-.26.82-.68.96Z"/><path class="cls-2" d="M63.17,36.05c-.58.98-1.33,1.85-2.21,2.57-4.22.89-8.53,1.34-12.88,1.34-6.92,0-13.72-1.13-20.23-3.36-.05,1.06-.05,2.13.01,3.22-.35-.09-.69-.18-1.02-.28-.04-1.11-.04-2.21.02-3.29.02-.4.05-.79.08-1.19.03-.33.06-.66.1-.99.04-.34.09-.68.14-1.02,1.16-7.82,4.99-14.25,10.44-17.62,2.85-1.76,6.32-2.75,10.46-2.75,3.74,0,6.94.81,9.63,2.27.85.85,1.62,1.78,2.31,2.79,2.16,3.14,3.6,7.04,4.4,11.41.46,2.47-.05,4.9-1.25,6.9Z"/><path class="cls-5" d="M55.73,83.48c-.09.42-.44.74-.87.79-.27.03-.55.05-.82.05-1.96,0-3.86-.82-5.19-2.28-.32-.35-.6-.72-.84-1.12-.24.4-.52.77-.84,1.12-1.34,1.46-3.23,2.28-5.2,2.28-.27,0-.55-.02-.82-.05-.43-.05-.78-.37-.86-.79-.46-2.22.18-4.53,1.7-6.19,1.52-1.66,3.77-2.49,6.02-2.23,2.24-.26,4.49.57,6.02,2.23,1.52,1.66,2.15,3.97,1.7,6.19Z"/><path class="cls-4" d="M69.59,33.13c-.41-2.74-1.07-5.27-1.96-7.57-.19-.52-.78-.77-1.29-.57-.01,0-.01.01-.02.01-.5.21-.75.77-.55,1.28.96,2.5,1.64,5.3,2.02,8.37-1.52.54-3.06,1-4.62,1.4-4.92,1.27-9.97,1.91-15.09,1.91-6.87,0-13.63-1.16-20.09-3.43.84-8.03,4.51-14.76,10.16-18.25,2.79-1.73,6.13-2.6,9.93-2.6,4.77,0,8.78,1.36,11.94,4.06.42.36.83.74,1.22,1.15.37.39,1,.41,1.39.05l.02-.02c.4-.38.41-1.02.03-1.41-3.72-3.87-8.63-5.83-14.6-5.83-4.17,0-7.87.98-10.98,2.9-2.95,1.82-5.41,4.43-7.27,7.61-1.86,3.17-3.12,6.91-3.68,10.98-14.42,2.43-21.54,5.89-21.13,10.29.19,2.13,2.31,4.11,5.82,5.8.4,3.86,3.88,25.06,31.63,27.55,1.75.17,3.59.25,5.54.25s3.79-.08,5.54-.24c27.78-2.51,31.22-23.75,31.62-27.57,3.51-1.69,5.62-3.67,5.81-5.8.01-.12.02-.24.02-.36,0-4.27-7.21-7.61-21.41-9.96ZM48.08,39.96c4.35,0,8.66-.45,12.88-1.34,2.38-.5,4.73-1.14,7.05-1.92.09,1.02.15,2.07.17,3.14.02.43-.26.82-.68.96-12.57,4.25-26.4,4.23-38.96-.04-.39-.13-.66-.48-.68-.87v-.07c-.06-1.09-.06-2.16-.01-3.22,6.51,2.23,13.31,3.36,20.23,3.36ZM49.48,75.05c-.48,0-.97.01-1.47.01s-.98-.01-1.47-.01c-28.01-.63-32.78-19.19-33.59-24.87,7.92,3.13,20.9,5.05,35.03,4.74,1,.03,1.99.04,2.98.04,13,0,24.74-1.88,32.1-4.79-.8,5.67-5.56,24.25-33.58,24.88ZM47.98,52.92c-24.04.55-40.59-5.45-40.97-9.64-.21-2.3,4.68-5.58,18.91-8.04-.12,1.55-.14,3.13-.06,4.75.06,1.2.88,2.28,2.04,2.67,6.51,2.21,13.3,3.33,20.18,3.33s13.59-1.11,20.06-3.29c1.25-.42,2.08-1.62,2.04-2.91-.04-1.59-.14-3.12-.31-4.59,14.38,2.45,19.33,5.75,19.12,8.07-.39,4.3-16.55,10.19-41.01,9.65ZM66.07,22.19c-.32-.6-.65-1.14-.99-1.65-.31-.46-.93-.58-1.39-.27s-.58.94-.27,1.39.6.93.89,1.47c.18.34.52.53.88.53.16,0,.31-.04.46-.12h0c.49-.26.67-.87.41-1.35Z"/><path class="cls-7" d="M69.87,35.2c.06.48.1.97.14,1.46.09,1.02.14,2.06.17,3.13.04,1.29-.79,2.49-2.04,2.91-6.47,2.18-13.22,3.29-20.06,3.29s-13.67-1.12-20.18-3.33c-1.16-.39-1.98-1.47-2.04-2.67-.08-1.62-.06-3.2.06-4.75-14.23,2.46-19.12,5.74-18.91,8.04.35,3.88,14.6,9.33,35.82,9.66.42.01.85.01,1.27.01.71,0,1.42,0,2.12-.02.59,0,1.16,0,1.76-.01,24.46.54,40.62-5.35,41.01-9.65.21-2.32-4.74-5.62-19.12-8.07ZM20.06,43.7c-.19.18-.44.27-.68.27-.27,0-.54-.11-.73-.32l-1.38-1.47c-.38-.4-.36-1.03.05-1.41.4-.38,1.03-.36,1.41.04l1.37,1.47c.38.4.36,1.04-.04,1.42ZM40.94,50.22c-.18.13-.39.2-.6.2-.3,0-.6-.14-.8-.4l-1.21-1.6c-.33-.45-.25-1.07.19-1.41.45-.33,1.07-.24,1.4.2l1.22,1.61c.33.44.24,1.06-.2,1.4ZM78.78,43.59l-1.26,1.57c-.19.25-.48.38-.78.38-.22,0-.44-.07-.62-.22-.43-.35-.5-.98-.16-1.41l1.26-1.57c.34-.43.97-.5,1.4-.16.44.35.51.98.16,1.41ZM54.86,48.82l1.22-1.61c.33-.44.95-.53,1.4-.2.44.34.52.96.19,1.41l-1.21,1.6c-.2.26-.5.4-.8.4-.21,0-.42-.07-.6-.2-.44-.34-.53-.96-.2-1.4Z"/><path class="cls-6" d="M81.99,43.27c-.37,4.11-15.18,9.68-37.89,9.68-.42,0-.85,0-1.27-.01-21.22-.33-35.47-5.78-35.82-9.66-.21-2.3,4.68-5.58,18.91-8.04-.12,1.55-.14,3.13-.06,4.75.06,1.2.88,2.28,2.04,2.67,6.51,2.21,13.3,3.33,20.18,3.33s13.59-1.11,20.06-3.29c1.25-.42,2.08-1.62,2.04-2.91-.03-1.07-.08-2.11-.17-3.13,8.92,2.2,12.15,4.73,11.98,6.61Z"/><path class="cls-5" d="M20.06,43.7c-.19.18-.44.27-.68.27-.27,0-.54-.11-.73-.32l-1.38-1.47c-.38-.4-.36-1.03.05-1.41.4-.38,1.03-.36,1.41.04l1.37,1.47c.38.4.36,1.04-.04,1.42Z"/><path class="cls-5" d="M57.67,48.42l-1.21,1.6c-.2.26-.5.4-.8.4-.21,0-.42-.07-.6-.2-.44-.34-.53-.96-.2-1.4l1.22-1.61c.33-.44.95-.53,1.4-.2.44.34.52.96.19,1.41Z"/><path class="cls-5" d="M40.94,50.22c-.18.13-.39.2-.6.2-.3,0-.6-.14-.8-.4l-1.21-1.6c-.33-.45-.25-1.07.19-1.41.45-.33,1.07-.24,1.4.2l1.22,1.61c.33.44.24,1.06-.2,1.4Z"/><path class="cls-5" d="M78.78,43.59l-1.26,1.57c-.19.25-.48.38-.78.38-.22,0-.44-.07-.62-.22-.43-.35-.5-.98-.16-1.41l1.26-1.57c.34-.43.97-.5,1.4-.16.44.35.51.98.16,1.41Z"/><path class="cls-5" d="M50.93,28.54c-.29,0-.58-.12-.77-.37l-1.27-1.56c-.35-.43-.29-1.06.14-1.41.43-.35,1.06-.29,1.41.14l1.27,1.56c.35.43.29,1.06-.14,1.41-.19.15-.41.23-.63.23Z"/><path class="cls-5" d="M42.83,33.51c-.27,0-.53-.11-.73-.32l-1.38-1.47c-.38-.4-.36-1.04.05-1.41.4-.37,1.04-.36,1.41.05l1.38,1.47c.38.4.36,1.04-.05,1.41-.19.18-.44.27-.68.27Z"/><path class="cls-5" d="M56.24,23.3c-.16,0-.32-.04-.47-.12-.49-.26-.67-.87-.41-1.35l.94-1.78c.26-.49.86-.67,1.35-.41.49.26.67.87.41,1.35l-.94,1.78c-.18.34-.53.53-.88.53Z"/><path class="cls-5" d="M42.6,21.23c-.36,0-.71-.2-.89-.54l-.92-1.79c-.25-.49-.06-1.09.43-1.35s1.09-.06,1.35.43l.92,1.79c.25.49.06,1.09-.43,1.35-.15.08-.3.11-.46.11Z"/><path class="cls-5" d="M57.91,33.58c-.21,0-.42-.07-.6-.2-.44-.33-.53-.96-.19-1.4l1.21-1.61c.33-.44.96-.53,1.4-.2.44.33.53.96.19,1.4l-1.21,1.61c-.2.26-.5.4-.8.4Z"/><path class="cls-5" d="M35.16,28.55c-.22,0-.44-.07-.62-.22-.43-.34-.5-.97-.16-1.41l1.26-1.57c.35-.43.97-.5,1.41-.16.43.34.5.97.16,1.41l-1.26,1.57c-.2.25-.49.38-.78.38Z"/></svg>