<?xml version="1.0" encoding="UTF-8"?><svg id="Greeny" xmlns="http://www.w3.org/2000/svg" xmlns:xlink="http://www.w3.org/1999/xlink" viewBox="0 0 96 96"><defs><style>.cls-1{fill:none;}.cls-1,.cls-2,.cls-3,.cls-4,.cls-5,.cls-6,.cls-7,.cls-8,.cls-9,.cls-10,.cls-11{stroke-width:0px;}.cls-2{fill:url(#New_Pattern_Swatch_3);}.cls-3{fill:url(#New_Pattern_Swatch_2);}.cls-4{fill:url(#New_Pattern_Swatch_4);}.cls-5{fill:url(#New_Pattern_Swatch_1);}.cls-6{fill:url(#New_Pattern_Swatch_3-2);}.cls-7{fill:url(#New_Pattern_Swatch_3-3);}.cls-8{fill:#2faf96;}.cls-9{fill:#1feab0;}.cls-10{fill:#b3ffde;}.cls-11{fill:#008887;}</style><pattern id="New_Pattern_Swatch_2" x="0" y="0" width="112.22" height="112.22" patternTransform="translate(-400 -2776)" patternUnits="userSpaceOnUse" viewBox="0 0 112.22 112.22"><rect class="cls-1" width="112.22" height="112.22"/><rect class="cls-9" x="0" width="112.22" height="112.22"/></pattern><pattern id="New_Pattern_Swatch_3" x="0" y="0" width="112.22" height="112.22" patternTransform="translate(-404 -2779)" patternUnits="userSpaceOnUse" viewBox="0 0 112.22 112.22"><rect class="cls-1" width="112.22" height="112.22"/><rect class="cls-10" width="112.22" height="112.22"/></pattern><pattern id="New_Pattern_Swatch_3-2" patternTransform="translate(-433.43 -2787.47)" xlink:href="#New_Pattern_Swatch_3"/><pattern id="New_Pattern_Swatch_3-3" patternTransform="translate(-462.96 -2779)" xlink:href="#New_Pattern_Swatch_3"/><pattern id="New_Pattern_Swatch_4" x="0" y="0" width="112.22" height="112.22" patternTransform="translate(-400 -2776)" patternUnits="userSpaceOnUse" viewBox="0 0 112.22 112.22"><rect class="cls-1" width="112.22" height="112.22"/><rect class="cls-11" width="112.22" height="112.22"/></pattern><pattern id="New_Pattern_Swatch_1" x="0" y="0" width="112.22" height="112.22" patternTransform="translate(-400 -2776)" patternUnits="userSpaceOnUse" viewBox="0 0 112.22 112.22"><rect class="cls-1" width="112.22" height="112.22"/><rect class="cls-8" width="112.22" height="112.22"/></pattern></defs><path class="cls-3" d="M55.2,66.88c.34-1.98.66-4.01.97-6.08.52-3.51.99-7.15,1.39-10.92.29-2.73.54-5.41.74-8.02.02-.27.03-.54.03-.8,0-2.15-.67-4.16-1.81-5.82-1.09-1.59-2.62-2.86-4.42-3.64-1.26-.54-2.64-.84-4.1-.84s-2.84.3-4.1.84c-1.8.78-3.33,2.05-4.42,3.64-1.29,1.86-1.97,4.17-1.78,6.62.2,2.61.45,5.29.74,8.02.64,5.99,1.45,11.66,2.36,17"/><path class="cls-3" d="M87.33,49.05c0,.26-.01.51-.03.77-.19,2.49-.42,5.04-.7,7.65-.39,3.59-.84,7.06-1.33,10.41-.32,2.17-.66,4.29-1.02,6.35l-14.09-3.33c-.11-.71-.23-1.42-.33-2.14-.56-3.62-1.04-7.39-1.47-11.29-.27-2.61-.51-5.16-.7-7.65-.18-2.34.47-4.54,1.69-6.32,1.05-1.51,2.51-2.73,4.22-3.46,1.2-.52,2.52-.81,3.91-.81s2.59.26,3.74.74c.06.02.11.05.17.07,1.71.73,3.17,1.95,4.22,3.46,1.08,1.58,1.72,3.5,1.72,5.55Z"/><path class="cls-2" d="M83.33,46.05c0,.26-.01.51-.03.77-.19,2.49-.42,5.04-.7,7.65-.39,3.59-.84,7.06-1.33,10.41,0,.02-.01.04-.01.07-.5,3.39-3.82,5.62-7.16,4.83l-4.08-.97c-.07-.01-.13-.03-.19-.05-.56-3.62-1.04-7.39-1.47-11.29-.27-2.61-.51-5.16-.7-7.65-.18-2.34.47-4.54,1.69-6.32,1.05-1.51,2.51-2.73,4.22-3.46,1.2-.52,2.52-.81,3.91-.81s2.59.26,3.74.74c.13.17.26.35.39.53,1.08,1.58,1.72,3.5,1.72,5.55Z"/><path class="cls-6" d="M53.9,37.58c0,.26-.01.51-.03.77-.19,2.49-.42,5.04-.7,7.65-.39,3.59-.84,7.06-1.33,10.41,0,.02-.01.04-.01.07-.5,3.39-3.82,5.62-7.16,4.83l-4.08-.97c-.07-.01-.13-.03-.19-.05-.56-3.62-1.04-7.39-1.47-11.29-.27-2.61-.51-5.16-.7-7.65-.18-2.34.47-4.54,1.69-6.32,1.05-1.51,2.51-2.73,4.22-3.46,1.2-.52,2.52-.81,3.91-.81s2.59.26,3.74.74c.13.17.26.35.39.53,1.08,1.58,1.72,3.5,1.72,5.55Z"/><path class="cls-3" d="M11.75,74.23c-.36-2.06-.7-4.18-1.02-6.35-.49-3.35-.94-6.82-1.33-10.41-.28-2.61-.51-5.16-.7-7.65-.02-.26-.03-.51-.03-.77,0-2.05.64-3.97,1.72-5.55,1.05-1.51,2.51-2.73,4.22-3.46,1.2-.52,2.52-.81,3.91-.81s2.71.29,3.91.81c1.71.73,3.17,1.95,4.22,3.46,1.22,1.78,1.87,3.98,1.69,6.32-.19,2.49-.43,5.04-.7,7.65-.51,4.68-1.11,9.16-1.8,13.43"/><path class="cls-7" d="M24.37,46.05c0,.26-.01.51-.03.77-.19,2.49-.42,5.04-.7,7.65-.39,3.59-.84,7.06-1.33,10.41,0,.02-.01.04-.01.07-.5,3.39-3.82,5.62-7.16,4.83l-4.08-.97c-.07-.01-.13-.03-.19-.05-.56-3.62-1.04-7.39-1.47-11.29-.27-2.61-.51-5.16-.7-7.65-.18-2.34.47-4.54,1.69-6.32,1.05-1.51,2.51-2.73,4.22-3.46,1.2-.52,2.52-.81,3.91-.81s2.59.26,3.74.74c.13.17.26.35.39.53,1.08,1.58,1.72,3.5,1.72,5.55Z"/><path class="cls-4" d="M57.48,18.11c-.91-.3-1.81-.39-2.67-.33-.53-3.27-3.37-5.78-6.8-5.78-1.85,0-3.6.72-4.9,2.04-1.03,1.04-1.68,2.34-1.91,3.74-.86-.06-1.76.04-2.68.34-1.91.64-3.43,2.07-4.19,3.93-.76,1.86-.67,3.95.24,5.73l3.76,7.41c-1.23,2.01-1.81,4.38-1.63,6.75.19,2.52.44,5.23.74,8.05.6,5.62,1.4,11.36,2.37,17.06l1.97-.34c-.74-4.37-1.38-8.76-1.91-13.1h6.16c.55,0,1-.45,1-1s-.45-1-1-1h-6.39c-.07-.61-.15-1.23-.21-1.83-.3-2.8-.55-5.49-.74-7.99-.17-2.12.4-4.24,1.61-5.98.99-1.45,2.37-2.59,3.99-3.29,2.35-1.01,5.07-1.01,7.41,0,1.62.7,3,1.84,3.99,3.29,1.07,1.56,1.63,3.37,1.63,5.25,0,.24,0,.48-.03.72-.04.53-.09,1.08-.13,1.63h-7.81c-.55,0-1,.45-1,1s.45,1,1,1h7.63c-.13,1.41-.27,2.87-.43,4.36-.35,3.3-.78,6.67-1.27,10.03h-5.93c-.55,0-1,.45-1,1s.45,1,1,1h5.64c-.25,1.66-.51,3.3-.79,4.91l1.97.34c.34-1.99.66-4.02.97-6.1.54-3.67,1.01-7.36,1.4-10.96.3-2.82.55-5.53.74-8.05.02-.3.03-.59.03-.88,0-2.08-.58-4.1-1.66-5.87l3.76-7.4c.91-1.79,1-3.88.25-5.73-.76-1.86-2.29-3.29-4.2-3.93ZM39.67,33.4l-3.32-6.53c-.65-1.27-.71-2.75-.17-4.07.54-1.32,1.62-2.34,2.97-2.79.7-.23,1.39-.3,2.02-.24,0,.04.01.09.02.13l1.63,11.14c-1.18.61-2.25,1.39-3.14,2.36ZM44.71,30.25l-1.56-10.63c-.03-.24-.06-.45-.06-.7-.01-1.3.49-2.54,1.42-3.47.93-.93,2.16-1.45,3.48-1.45,2.7,0,4.9,2.19,4.9,4.93,0,.24-.02.45-.06.69l-1.56,10.63c-2.14-.64-4.43-.64-6.57,0ZM59.65,26.88l-3.32,6.53c-.89-.97-1.96-1.75-3.14-2.36l1.63-11.14s0-.09.02-.13c.63-.06,1.32.01,2.01.24,1.35.45,2.44,1.47,2.98,2.79.54,1.32.47,2.8-.18,4.07ZM86.72,64.7c-.15,1.12-.3,2.23-.46,3.32-.32,2.18-.67,4.32-1.02,6.38-.08.49-.51.83-.98.83-.06,0-.11,0-.17-.01-.54-.1-.91-.61-.81-1.16.29-1.67.57-3.41.84-5.17h-5.32c-.55,0-1-.45-1-1s.45-1,1-1h5.62c.11-.81.23-1.62.34-2.45.07-.55.58-.93,1.12-.86.55.07.93.58.86,1.12ZM87.4,59.29l-.21,1.8c-.06.51-.49.88-.99.88-.04,0-.08,0-.12,0-.55-.06-.94-.56-.88-1.11l.21-1.8c.06-.55.56-.94,1.11-.88.55.06.94.56.88,1.11ZM90.56,30.91c-.73-1.78-2.19-3.16-4.03-3.78-.85-.28-1.71-.37-2.52-.32-.52-3.12-3.25-5.51-6.53-5.51-1.78,0-3.45.7-4.71,1.96-.98.99-1.6,2.22-1.83,3.55-.81-.05-1.66.04-2.53.32-1.83.62-3.3,1.99-4.02,3.78-.73,1.78-.64,3.79.23,5.5l3.57,7.03c-1.16,1.93-1.71,4.19-1.54,6.45.17,2.28.4,4.79.7,7.69l.09.84c.07.6.13,1.19.21,1.77.44,3.75.95,7.4,1.51,10.87.08.49.5.84.99.84.05,0,.11,0,.16-.01.55-.09.92-.6.83-1.15-.5-3.09-.95-6.34-1.36-9.67h5.82c.55,0,1-.45,1-1s-.45-1-1-1h-6.06c-.03-.29-.07-.58-.1-.87l-.09-.83c-.3-2.86-.52-5.36-.7-7.62-.16-2.04.37-4,1.51-5.67.97-1.39,2.28-2.47,3.8-3.11,2.22-.96,4.79-.97,7.03,0,1.51.65,2.83,1.72,3.79,3.1,1.01,1.48,1.55,3.2,1.55,4.99,0,.23,0,.46-.03.7-.04.5-.08,1.01-.12,1.51h-7.4c-.55,0-1,.45-1,1s.45,1,1,1h7.22c-.07.74-.14,1.47-.21,2.21-.06.55.34,1.04.89,1.1.56.05,1.04-.34,1.1-.89.2-1.94.37-3.89.51-5.78.02-.29.03-.56.03-.85,0-1.98-.54-3.9-1.57-5.6l3.57-7.03c.88-1.72.96-3.72.24-5.51ZM69.55,41.68l-3.13-6.17c-.61-1.2-.67-2.6-.16-3.84.51-1.25,1.53-2.21,2.8-2.63.65-.21,1.29-.28,1.87-.23,0,.03,0,.06,0,.09l1.55,10.59c-1.09.56-2.09,1.29-2.93,2.2ZM74.39,38.69l-1.48-10.08c-.03-.22-.06-.43-.06-.66-.01-1.23.47-2.39,1.34-3.28.87-.88,2.04-1.37,3.28-1.37,2.55,0,4.63,2.06,4.63,4.65,0,.22-.02.43-.05.65l-1.48,10.09c-2.01-.6-4.18-.6-6.19,0ZM88.54,35.51l-3.13,6.17c-.85-.91-1.84-1.64-2.93-2.2l1.55-10.59s0-.06,0-.08c.59-.05,1.22.02,1.86.23,1.28.43,2.3,1.39,2.81,2.63.51,1.24.45,2.64-.17,3.84ZM27.57,27.13c-.85-.28-1.71-.37-2.52-.32-.22-1.33-.85-2.57-1.83-3.55-1.25-1.26-2.92-1.96-4.71-1.96-3.27,0-5.98,2.37-6.52,5.51-.81-.05-1.67.04-2.53.32-1.83.62-3.3,1.99-4.02,3.78-.73,1.78-.64,3.79.23,5.5l3.57,7.03c-1.03,1.69-1.57,3.62-1.57,5.6,0,.29.01.56.03.85.2,2.6.43,5.18.7,7.68.37,3.41.82,6.92,1.33,10.45.32,2.18.67,4.32,1.02,6.38l1.97-.34c-.29-1.67-.57-3.41-.84-5.17h5.32c.55,0,1-.45,1-1s-.45-1-1-1h-5.61c-.46-3.21-.87-6.42-1.21-9.52-.14-1.35-.28-2.72-.4-4.11h7.23c.55,0,1-.45,1-1s-.45-1-1-1h-7.39c-.04-.5-.09-1.01-.13-1.51-.02-.24-.03-.46-.03-.69,0-1.78.53-3.51,1.54-4.98.97-1.39,2.28-2.47,3.8-3.11,2.22-.96,4.79-.97,7.03,0,1.51.65,2.83,1.72,3.79,3.11,1.15,1.68,1.67,3.64,1.52,5.68-.17,2.27-.4,4.76-.7,7.62-.06.57-.13,1.14-.2,1.71h-6.05c-.55,0-1,.45-1,1s.45,1,1,1h5.82c-.41,3.34-.86,6.58-1.36,9.67l1.97.32c.69-4.26,1.3-8.8,1.81-13.49.3-2.88.53-5.39.7-7.67.17-2.26-.38-4.52-1.54-6.45l3.57-7.03c.88-1.72.96-3.72.23-5.51-.73-1.79-2.19-3.16-4.03-3.78ZM10.59,41.68l-3.13-6.17c-.61-1.2-.67-2.6-.16-3.84.51-1.25,1.53-2.21,2.8-2.63.65-.21,1.29-.28,1.87-.23,0,.03,0,.06,0,.09l1.55,10.59c-1.09.56-2.08,1.29-2.93,2.2ZM15.43,38.69l-1.48-10.08c-.03-.22-.05-.43-.05-.71,0-2.54,2.08-4.6,4.63-4.6,1.24,0,2.41.49,3.28,1.37.88.88,1.35,2.05,1.34,3.29,0,.22-.02.43-.05.65l-1.48,10.09c-2.01-.6-4.18-.6-6.19,0ZM29.58,35.51l-3.13,6.17c-.85-.91-1.84-1.64-2.93-2.2l1.55-10.59s0-.05,0-.08c.59-.05,1.22.02,1.86.23,1.28.43,2.3,1.39,2.81,2.63.51,1.24.45,2.64-.17,3.84Z"/><path class="cls-5" d="M90.35,80.51v1.49c0,1.1-.9,2-2,2H7.65c-1.1,0-2-.9-2-2v-1.49c0-3.94,2.97-7.17,6.76-7.36.95-.05,1.89.09,2.77.41,1.27-2.15,3.58-3.49,6.12-3.49,1.14,0,2.25.27,3.25.78,1.34-1.7,3.4-2.73,5.6-2.73.9,0,1.79.17,2.62.5,1.32-1.95,3.5-3.13,5.9-3.13,1.35,0,2.66.39,3.8,1.1,1.34-1.65,3.37-2.64,5.53-2.64s4.19.99,5.53,2.64c1.14-.71,2.45-1.1,3.8-1.1,2.4,0,4.58,1.18,5.9,3.13.83-.33,1.72-.5,2.62-.5,2.2,0,4.26,1.03,5.6,2.73,1-.51,2.11-.78,3.25-.78,2.54,0,4.85,1.34,6.12,3.49.88-.32,1.82-.46,2.77-.41,1.89.09,3.59.95,4.8,2.27,1.22,1.33,1.96,3.12,1.96,5.09Z"/></svg>