<?xml version="1.0" encoding="UTF-8"?><svg id="Greeny" xmlns="http://www.w3.org/2000/svg" xmlns:xlink="http://www.w3.org/1999/xlink" viewBox="0 0 96 96"><defs><style>.cls-1{fill:none;}.cls-1,.cls-2,.cls-3,.cls-4,.cls-5,.cls-6,.cls-7,.cls-8,.cls-9,.cls-10,.cls-11{stroke-width:0px;}.cls-2{fill:url(#New_Pattern_Swatch_3);}.cls-3{fill:url(#New_Pattern_Swatch_2);}.cls-4{fill:url(#New_Pattern_Swatch_4);}.cls-5{fill:url(#New_Pattern_Swatch_1);}.cls-6{fill:url(#New_Pattern_Swatch_3-2);}.cls-7{fill:url(#New_Pattern_Swatch_3-3);}.cls-8{fill:#2faf96;}.cls-9{fill:#1feab0;}.cls-10{fill:#b3ffde;}.cls-11{fill:#008887;}</style><pattern id="New_Pattern_Swatch_3" x="0" y="0" width="112.22" height="112.22" patternTransform="translate(-596 -2776)" patternUnits="userSpaceOnUse" viewBox="0 0 112.22 112.22"><rect class="cls-1" width="112.22" height="112.22"/><rect class="cls-10" width="112.22" height="112.22"/></pattern><pattern id="New_Pattern_Swatch_2" x="0" y="0" width="112.22" height="112.22" patternTransform="translate(-596 -2776)" patternUnits="userSpaceOnUse" viewBox="0 0 112.22 112.22"><rect class="cls-1" width="112.22" height="112.22"/><rect class="cls-9" x="0" width="112.22" height="112.22"/></pattern><pattern id="New_Pattern_Swatch_3-2" patternTransform="translate(-600 -2780)" xlink:href="#New_Pattern_Swatch_3"/><pattern id="New_Pattern_Swatch_3-3" patternTransform="translate(-600 -2779)" xlink:href="#New_Pattern_Swatch_3"/><pattern id="New_Pattern_Swatch_4" x="0" y="0" width="112.22" height="112.22" patternTransform="translate(-596 -2776)" patternUnits="userSpaceOnUse" viewBox="0 0 112.22 112.22"><rect class="cls-1" width="112.22" height="112.22"/><rect class="cls-11" width="112.22" height="112.22"/></pattern><pattern id="New_Pattern_Swatch_1" x="0" y="0" width="112.22" height="112.22" patternTransform="translate(-596 -2776)" patternUnits="userSpaceOnUse" viewBox="0 0 112.22 112.22"><rect class="cls-1" width="112.22" height="112.22"/><rect class="cls-8" width="112.22" height="112.22"/></pattern></defs><path class="cls-2" d="M44.28,10.8c-2.97-2.96-7.07-4.8-11.6-4.8-9.06,0-16.4,7.34-16.4,16.4v2.34h32.8v-2.34c0-4.53-1.84-8.63-4.8-11.6ZM17.28,23.74s.03-2.24.07-2.68h30.66c.04.44.07,2.68.07,2.68h-30.8Z"/><path class="cls-3" d="M53.17,58.61s-.07-.05-.11-.07c-1.55-.93-3.27-1.54-5.07-1.79l-8.78-1.23v1.5c0,1.3-.65,2.51-1.73,3.24-2.85,1.9-6.75,1.9-9.59,0-1.09-.73-1.74-1.94-1.74-3.24v-1.5l-8.79,1.23c-1.79.25-3.51.86-5.06,1.79-1.86,1.12-3.35,2.68-4.38,4.51-1.03,1.82-1.6,3.91-1.6,6.07v20.88h52.72v-20.88c0-4.29-2.22-8.26-5.87-10.51ZM15.68,58.15c.59-.18,1.2-.32,1.82-.41l2.18-.3v13.56h-4v-12.85ZM49.68,89H15.68v-16h34v16ZM49.68,71h-4v-13.56l2.17.3c.63.09,1.23.23,1.83.41v12.85Z"/><path class="cls-6" d="M54.17,60.6c-.26-.69-.6-1.36-1-1.99-.03-.02-.07-.05-.11-.07-1.55-.93-3.27-1.54-5.07-1.79l-8.78-1.23v1.5c0,1.3-.65,2.51-1.73,3.24-2.85,1.9-6.75,1.9-9.59,0-1.09-.73-1.74-1.94-1.74-3.24v-1.5l-8.79,1.23c-1.79.25-3.51.86-5.06,1.79-1.86,1.12-3.35,2.68-4.38,4.51-1.03,1.82-1.6,3.91-1.6,6.07v16.88h9.36v-13h34v11.86c.72-.38,1.4-.85,2-1.39,2.06-1.83,3.36-4.5,3.36-7.47v-10.88c0-1.57-.3-3.1-.87-4.52ZM19.68,71h-4v-12.85c.59-.18,1.2-.32,1.82-.41l2.18-.3v13.56ZM49.68,71h-4v-13.56l2.17.3c.63.09,1.23.23,1.83.41v12.85Z"/><path class="cls-3" d="M86.52,39.15c-1.96-3.39-4.77-6.27-8.24-8.34,0-.01-.01-.01-.01-.01-.12-.07-.24-.14-.36-.21-1.28-.73-2.84-.73-4.12,0-7.28,4.16-11.77,11.9-11.77,20.28v11.18c0,1.09.89,1.97,1.98,1.97h23.7c1.09,0,1.98-.88,1.98-1.97v-11.18c0-4.19-1.12-8.22-3.16-11.72ZM77.81,63.02h-3.92v-6.35c0-2.06.68-4.1,1.91-5.74h.1c1.23,1.64,1.91,3.68,1.91,5.74v6.35Z"/><path class="cls-7" d="M85.68,47.87v4.15c0,3.87-2.44,7.17-5.87,8.43-.63.25-1.3.41-2,.5v-4.28c0-2.06-.68-4.1-1.91-5.74h-.1c-1.23,1.64-1.91,3.68-1.91,5.74v4.35h-11.87v-10.15c0-8.38,4.49-16.12,11.77-20.28,1.28-.73,2.84-.73,4.12,0,.12.07.24.14.36.21,0,0,.01,0,.01.01,1.14,1.07,2.16,2.25,3.05,3.51.43.59.83,1.2,1.19,1.83,2.04,3.5,3.16,7.53,3.16,11.72Z"/><path class="cls-4" d="M59.04,73.38c.55,0,1-.45,1-1v-3.26c0-4.65-2.48-9.03-6.47-11.44-1.68-1.01-3.51-1.65-5.44-1.92l-6.92-.97v-2.89c.97-.61,1.88-1.32,2.72-2.14,2.86-2.81,4.52-6.5,4.76-10.46h.3c1.27,0,2.46-.49,3.38-1.4.9-.91,1.39-2.1,1.39-3.37,0-2.62-2.14-4.76-4.77-4.76H16.36c-2.62,0-4.76,2.14-4.76,4.76,0,1.27.49,2.46,1.39,3.38.9.9,2.1,1.39,3.37,1.39h.33c.47,5.23,3.34,9.79,7.46,12.49v3l-6.93.97c-1.93.27-3.76.92-5.44,1.92-1.97,1.19-3.6,2.88-4.73,4.88s-1.73,4.27-1.73,6.56v20.88c0,.55.45,1,1,1h52.72c.55,0,1-.45,1-1v-8.62c0-.55-.45-1-1-1s-1,.45-1,1v7.62h-6.36v-30.06c.29.14.58.29.86.46.58.35,1.13.75,1.63,1.2,2.42,2.13,3.87,5.25,3.87,8.52v3.26c0,.55.45,1,1,1ZM48.74,31.77h.25c1.53,0,2.77,1.24,2.77,2.76,0,.74-.29,1.44-.8,1.96-.53.52-1.23.81-1.97.81h-.25v-5.53ZM16.62,37.3h-.26c-.74,0-1.43-.29-1.95-.8-.52-.53-.81-1.23-.81-1.97,0-1.52,1.24-2.76,2.76-2.76h.26v5.53ZM18.62,37.8v-6.75h28.12v7.25c0,3.8-1.5,7.37-4.21,10.03-2.72,2.67-6.32,4.11-10.12,4.03-7.6-.14-13.79-6.67-13.79-14.56ZM39.21,52.96v4.06c0,1.3-.65,2.51-1.73,3.24-2.85,1.9-6.75,1.9-9.59,0-1.09-.73-1.74-1.94-1.74-3.24v-4.11c1.91.89,4.02,1.41,6.23,1.45h.3c2.29,0,4.5-.49,6.53-1.4ZM21.68,57.16l2.47-.35v.21c0,1.97.98,3.8,2.63,4.9,1.75,1.17,3.79,1.79,5.9,1.79s4.15-.62,5.91-1.79c1.64-1.1,2.62-2.93,2.62-4.9v-.21l2.47.35v13.84h-22v-13.84ZM15.68,58.15c.59-.18,1.2-.32,1.82-.41l2.18-.3v13.56h-4v-12.85ZM13.68,89h-6.36v-19.88c0-1.95.51-3.88,1.47-5.58.96-1.7,2.35-3.13,4.02-4.14.29-.17.58-.32.87-.47v30.07ZM49.68,89H15.68v-16h34v16ZM49.68,71h-4v-13.56l2.17.3c.63.09,1.23.23,1.83.41v12.85ZM59.04,74.98c-.55,0-1,.45-1,1v1.8c0,.55.45,1,1,1s1-.45,1-1v-1.8c0-.55-.45-1-1-1ZM32.68,5c-9.6,0-17.4,7.81-17.4,17.4v2.34c0,.56.45,1,1,1h32.8c.55,0,1-.44,1-1v-2.34c0-9.59-7.81-17.4-17.4-17.4ZM32.68,7c7.34,0,13.49,5.17,15.02,12.06h-30.05c1.54-6.89,7.69-12.06,15.03-12.06ZM17.28,23.74s.03-2.24.07-2.68h30.66c.04.44.07,2.68.07,2.68h-30.8ZM78.41,29.73c-1.58-.9-3.54-.91-5.12,0-7.57,4.32-12.27,12.42-12.27,21.14v11.18c0,1.64,1.34,2.97,2.98,2.97h7.89v24.85c0,.55.44,1,1,1h5.92c.55,0,1-.45,1-1v-24.85h7.89c1.64,0,2.98-1.33,2.98-2.97v-11.18c0-8.72-4.7-16.82-12.27-21.14ZM88.68,62.05c0,.54-.44.97-.98.97h-7.89v-6.35c0-2.49-.82-4.95-2.31-6.94-.39-.53-.99-.83-1.65-.83s-1.26.3-1.65.83c-1.49,1.99-2.31,4.45-2.31,6.94v6.35h-7.89c-.54,0-.98-.43-.98-.97v-11.18c0-8,4.32-15.44,11.27-19.41.96-.55,2.16-.55,3.12,0,1.42.81,2.73,1.77,3.92,2.86,4.62,4.18,7.35,10.19,7.35,16.55v11.18ZM73.89,56.67c0-2.06.68-4.1,1.91-5.74h.1c1.23,1.64,1.91,3.68,1.91,5.74v6.35h-3.92v-6.35ZM77.81,88.87h-3.92v-23.85h3.92v23.85Z"/><path class="cls-5" d="M55.68,26.74v1.86c0,1.65-1.35,3-3,3H12.68c-1.66,0-3-1.35-3-3v-1.86c0-1.65,1.34-3,3-3h40c1.65,0,3,1.35,3,3Z"/></svg>