<?xml version="1.0" encoding="UTF-8"?><svg id="Greeny" xmlns="http://www.w3.org/2000/svg" xmlns:xlink="http://www.w3.org/1999/xlink" viewBox="0 0 96 96"><defs><style>.cls-1{fill:none;}.cls-1,.cls-2,.cls-3,.cls-4,.cls-5,.cls-6,.cls-7,.cls-8,.cls-9,.cls-10{stroke-width:0px;}.cls-2{fill:url(#New_Pattern_Swatch_3);}.cls-3{fill:url(#New_Pattern_Swatch_2);}.cls-4{fill:url(#New_Pattern_Swatch_4);}.cls-5{fill:url(#New_Pattern_Swatch_1);}.cls-6{fill:url(#New_Pattern_Swatch_3-2);}.cls-7{fill:#2faf96;}.cls-8{fill:#1feab0;}.cls-9{fill:#b3ffde;}.cls-10{fill:#008887;}</style><pattern id="New_Pattern_Swatch_1" x="0" y="0" width="112.22" height="112.22" patternTransform="translate(-792 -2776)" patternUnits="userSpaceOnUse" viewBox="0 0 112.22 112.22"><rect class="cls-1" width="112.22" height="112.22"/><rect class="cls-7" width="112.22" height="112.22"/></pattern><pattern id="New_Pattern_Swatch_2" x="0" y="0" width="112.22" height="112.22" patternTransform="translate(-792 -2776)" patternUnits="userSpaceOnUse" viewBox="0 0 112.22 112.22"><rect class="cls-1" width="112.22" height="112.22"/><rect class="cls-8" x="0" width="112.22" height="112.22"/></pattern><pattern id="New_Pattern_Swatch_3" x="0" y="0" width="112.22" height="112.22" patternTransform="translate(-796 -2778)" patternUnits="userSpaceOnUse" viewBox="0 0 112.22 112.22"><rect class="cls-1" width="112.22" height="112.22"/><rect class="cls-9" width="112.22" height="112.22"/></pattern><pattern id="New_Pattern_Swatch_3-2" patternTransform="translate(-795 -2778.66)" xlink:href="#New_Pattern_Swatch_3"/><pattern id="New_Pattern_Swatch_4" x="0" y="0" width="112.22" height="112.22" patternTransform="translate(-792 -2776)" patternUnits="userSpaceOnUse" viewBox="0 0 112.22 112.22"><rect class="cls-1" width="112.22" height="112.22"/><rect class="cls-10" width="112.22" height="112.22"/></pattern></defs><path class="cls-5" d="M25.56,44.97v6.08c0,.48-.35.9-.82.98-.06.01-5.32,1-7.97,3.76-.19.2-.45.31-.72.31-.05,0-.09,0-.14-.01-.32-.05-.6-.24-.74-.52-.57-1.07-1.1-3.26.09-5.13l-3.77-1.5c-.38-.15-.63-.52-.63-.93s.25-.78.63-.93l3.77-1.5c-1.19-1.86-.66-4.06-.09-5.12.14-.29.42-.48.74-.53.32-.04.64.07.86.3,2.65,2.76,7.91,3.75,7.97,3.76.47.09.82.5.82.98Z"/><path class="cls-5" d="M85.14,48.01c0,.41-.25.78-.63.93l-3.77,1.5c1.19,1.87.66,4.06.09,5.13-.14.28-.42.47-.74.52-.05.01-.09.01-.14.01-.27,0-.53-.11-.72-.31-2.65-2.76-7.91-3.75-7.97-3.76-.47-.08-.82-.5-.82-.98v-6.08c0-.48.35-.89.82-.98.06-.01,5.32-1,7.97-3.76.22-.23.54-.34.86-.3.32.05.6.24.74.53.57,1.06,1.1,3.26-.09,5.12l3.77,1.5c.38.15.63.52.63.93Z"/><path class="cls-3" d="M58.74,16.74v.98h-21.48v-.98c0-.34.02-.68.05-1.02.51-5.45,5.1-9.72,10.69-9.72.92,0,1.82.12,2.68.34h.01c1.88.49,3.57,1.47,4.9,2.81,1.95,1.94,3.15,4.63,3.15,7.59Z"/><path class="cls-2" d="M54.74,14.74c0,.54-.43.98-.97.98h-16.46c.51-5.45,5.1-9.72,10.69-9.72.92,0,1.82.12,2.68.34h.01c.32.26.62.52.9.81,1.95,1.94,3.15,4.63,3.15,7.59Z"/><path class="cls-3" d="M70.47,43.14h-16.96c-.37,0-.7.2-.88.53-.47.89-1.58,2.54-4.63,2.54s-4.16-1.65-4.63-2.54c-.18-.33-.51-.53-.88-.53h-16.96c-.53,0-.97.44-.97.98v7.79c0,.53.44.97.97.97h6.75c1.12,0,2.01.93,1.96,2.05l-.77,18.74-.07,1.64c-.03.56.42,1.02.96,1.02h3.03l1.69-2.66.16-.26.16.26,1.67,2.66h20.57c.54,0,.99-.46.96-1.02l-.25-6.17-.07-1.6-.16-3.79-.06-1.61-.3-7.21c-.05-1.12.84-2.05,1.96-2.05h6.75c.53,0,.97-.44.97-.97v-7.79c0-.54-.44-.98-.97-.98ZM55.76,56.1h.35v4.07c0,.7-.57,1.27-1.28,1.27h-2.79c-.7,0-1.27-.57-1.27-1.27v-4.07h1.26l1.03,1.21c.18.22.44.35.73.35.28.04.55-.1.75-.3l1.22-1.26Z"/><path class="cls-6" d="M53.51,43.14c-.37,0-.7.2-.88.53-.47.89-1.58,2.54-4.63,2.54s-4.16-1.65-4.63-2.54c-.18-.33-.51-.53-.88-.53h-16.96c-.53,0-.97.44-.97.98v7.79c0,.53.44.97.97.97h6.75c1.12,0,2.01.93,1.96,2.05l-.77,18.74h19.72c.96,0,1.9-.23,2.73-.71,3.1-1.81,3.42-5.22,3.42-6.57,0-.36-.02-.58-.02-.58l-.56-13.54c-.05-1.12.84-2.05,1.96-2.05h7.72v-7.08h-14.93ZM50.77,60.17v-4.07h1.26l1.03,1.21c.18.22.44.35.73.35.28.04.55-.1.75-.3l1.22-1.26h.35v4.07c0,.7-.57,1.27-1.28,1.27h-2.79c-.7,0-1.27-.57-1.27-1.27Z"/><path class="cls-4" d="M57.11,54.1h-1.77c-.27,0-.53.11-.72.3l-.75.78-.62-.73c-.19-.22-.47-.35-.76-.35h-2.72c-.56,0-1,.45-1,1v5.07c0,1.8,1.46,3.27,3.27,3.27h2.79c1.81,0,3.28-1.47,3.28-3.27v-5.07c0-.55-.45-1-1-1ZM56.11,60.17c0,.7-.57,1.27-1.28,1.27h-2.79c-.7,0-1.27-.57-1.27-1.27v-4.07h1.26l1.03,1.21c.18.22.44.35.73.35.28.04.55-.1.75-.3l1.22-1.26h.35v4.07ZM66.05,15.9c-.42-.36-1.05-.31-1.41.11l-1.77,2.09c-.36.42-.31,1.05.11,1.41.19.16.42.24.65.24.28,0,.56-.12.76-.36l1.78-2.08c.35-.42.3-1.05-.12-1.41ZM48,5c-3.23,0-6.17,1.31-8.29,3.44l-1.79-1.57c-.42-.37-1.05-.33-1.42.09-.36.42-.32,1.05.1,1.41l1.82,1.6c-.18.26-.35.52-.51.79l-2.16-.6c-.53-.15-1.08.16-1.23.69-.15.54.16,1.09.69,1.24l1.82.5c-.49,1.3-.77,2.69-.77,4.15v.98c0,.55.44,1,1,1h21.48c.56,0,1-.45,1-1v-.98c0-6.47-5.26-11.74-11.74-11.74ZM38.26,16.72c.01-5.36,4.37-9.72,9.74-9.72s9.73,4.36,9.74,9.72h-19.48ZM62.45,13.29c-.56-.09-1.07.27-1.16.82l-.51,2.98c-.09.54.27,1.06.82,1.15.05.01.11.01.17.01.48,0,.9-.34.98-.83l.51-2.97c.1-.55-.27-1.07-.81-1.16ZM63.16,64.71c-.03-.56-.5-.99-1.04-.96-.56.03-.98.49-.96,1.04l.08,1.79c.03.54.47.96,1,.96h.05c.55-.03.97-.49.95-1.04l-.08-1.79ZM70.47,42.14h-16.96c-.63,0-1.2.31-1.58.81v-3.43c4.55-1.62,7.81-5.96,7.81-11.06v-4.88c0-.55-.44-1-1-1h-21.48c-.56,0-1,.45-1,1v4.88c0,5.1,3.26,9.44,7.81,11.06v3.43c-.38-.5-.95-.81-1.58-.81h-16.96c-1.09,0-1.97.89-1.97,1.98v7.79c0,1.09.88,1.97,1.97,1.97h6.75c.27,0,.51.11.7.3.18.19.27.44.26.71l-.84,20.37c-.03.53.17,1.07.54,1.46s.89.61,1.42.61h3.03c.34,0,.66-.18.84-.46l1.01-1.58.98,1.57c.19.29.51.47.85.47h3v11.67c0,1.1.9,2,2,2h3.86c1.1,0,2-.9,2-2v-11.67h9.71c.53,0,1.05-.22,1.42-.61s.57-.93.54-1.45l-.21-5.17c-.02-.55-.46-1-1.04-.96-.55.02-.98.49-.96,1.04l.25,5.15h-20.02l-1.04-1.66-.49-.79c-.18-.29-.5-.47-.85-.47s-.66.18-.84.47l-.5.79-1.06,1.66-2.44.02.07-1.68.77-18.7c.04-.81-.25-1.59-.82-2.18-.56-.59-1.32-.91-2.14-.91l-6.72.03-.03-7.77h16.96c1.07,2.04,2.93,3.07,5.51,3.07s4.44-1.03,5.51-3.07l14.93-.02h2l.03,7.76h-6.75c-.82,0-1.58.32-2.14.91-.57.59-.86,1.37-.82,2.18l.26,6.21c.02.55.5,1,1.04.96.55-.02.98-.49.96-1.04l-.26-6.21c-.01-.27.08-.52.26-.71.19-.19.43-.3.7-.3h6.75c1.09,0,1.97-.88,1.97-1.97v-7.79c0-1.09-.88-1.98-1.97-1.98ZM38.26,28.46v-3.88h19.48v3.88c0,5.38-4.37,9.75-9.74,9.75s-9.74-4.37-9.74-9.75ZM49.93,44.87c-.51.21-1.13.34-1.93.34s-1.42-.13-1.93-.34v-4.66h3.86v4.66ZM49.93,89h-3.86v-11.67h3.86v11.67Z"/><rect class="cls-5" x="31.37" y="16.72" width="33.26" height="7.86" rx="3.01" ry="3.01"/></svg>