<?xml version="1.0" encoding="UTF-8"?><svg id="Greeny" xmlns="http://www.w3.org/2000/svg" xmlns:xlink="http://www.w3.org/1999/xlink" viewBox="0 0 96 96"><defs><style>.cls-1{fill:none;}.cls-1,.cls-2,.cls-3,.cls-4,.cls-5,.cls-6,.cls-7,.cls-8,.cls-9,.cls-10{stroke-width:0px;}.cls-2{fill:url(#New_Pattern_Swatch_3);}.cls-3{fill:url(#New_Pattern_Swatch_2);}.cls-4{fill:url(#New_Pattern_Swatch_4);}.cls-5{fill:url(#New_Pattern_Swatch_1);}.cls-6{fill:url(#New_Pattern_Swatch_3-2);}.cls-7{fill:#2faf96;}.cls-8{fill:#1feab0;}.cls-9{fill:#b3ffde;}.cls-10{fill:#008887;}</style><pattern id="New_Pattern_Swatch_2" x="0" y="0" width="112.22" height="112.22" patternTransform="translate(-988 -2776)" patternUnits="userSpaceOnUse" viewBox="0 0 112.22 112.22"><rect class="cls-1" width="112.22" height="112.22"/><rect class="cls-8" x="0" width="112.22" height="112.22"/></pattern><pattern id="New_Pattern_Swatch_3" x="0" y="0" width="112.22" height="112.22" patternTransform="translate(-992 -2778)" patternUnits="userSpaceOnUse" viewBox="0 0 112.22 112.22"><rect class="cls-1" width="112.22" height="112.22"/><rect class="cls-9" width="112.22" height="112.22"/></pattern><pattern id="New_Pattern_Swatch_3-2" patternTransform="translate(-994 -2780)" xlink:href="#New_Pattern_Swatch_3"/><pattern id="New_Pattern_Swatch_4" x="0" y="0" width="112.22" height="112.22" patternTransform="translate(-988 -2776)" patternUnits="userSpaceOnUse" viewBox="0 0 112.22 112.22"><rect class="cls-1" width="112.22" height="112.22"/><rect class="cls-10" width="112.22" height="112.22"/></pattern><pattern id="New_Pattern_Swatch_1" x="0" y="0" width="112.22" height="112.22" patternTransform="translate(-988 -2776)" patternUnits="userSpaceOnUse" viewBox="0 0 112.22 112.22"><rect class="cls-1" width="112.22" height="112.22"/><rect class="cls-7" width="112.22" height="112.22"/></pattern></defs><path class="cls-3" d="M76.49,41.79c-.39-.36-.8-.7-1.23-1.02-1.01-.77-2.1-1.42-3.27-1.94-.47-.22-.96-.41-1.45-.58t-.02-.01c-.05-.02-.11-.04-.16-.05-1.68-.58-3.49-.88-5.37-.88-1.53,0-3.02.2-4.43.59-2.46.66-4.71,1.86-6.59,3.47l-.7,1.09-4,6.22-.64,1c-.24.85-.42,1.73-.52,2.63-.04.3-.06.61-.08.91-.04.59.41,1.09,1,1.09h31.93c.59,0,1.04-.5,1-1.09-.29-4.52-2.34-8.56-5.47-11.43ZM65.99,45.15c0-.91.74-1.66,1.66-1.66s1.66.75,1.66,1.66-.75,1.66-1.66,1.66-1.66-.74-1.66-1.66ZM59.94,39.15c.16.55.24,1.11.24,1.68,0,2.56-1.57,4.84-3.86,5.8-.22-1.68-.61-3.32-1.17-4.91,1.43-1.12,3.06-1.99,4.79-2.57ZM73.26,53.3c.07-.42.18-.83.33-1.22.63-1.65,1.93-2.98,3.58-3.63.71-.28,1.48-.43,2.3-.43.09,0,.15.02.24.02.7,1.66,1.14,3.44,1.25,5.27h-7.7Z"/><path class="cls-2" d="M76.89,46.45c-.09-.32-.19-.62-.3-.9-.09-.22-.19-.43-.28-.63-.18-.36-.36-.72-.56-1.05-.01-.02-.02-.04-.03-.05-.65-1.12-1.43-2.17-2.31-3.11-.47-.51-.98-.99-1.52-1.43-.43-.37-.88-.71-1.35-1.03t-.02-.01c-.05-.02-.11-.04-.16-.05-1.68-.58-3.49-.88-5.37-.88-1.53,0-3.02.2-4.43.59-2.46.66-4.71,1.86-6.59,3.47l-.7,1.09-4,6.22-.64,1c-.24.85-.42,1.73-.52,2.63h22.93c.14,0,.27,0,.4-.01.82-.01,1.53-.09,2.15-.22.63-1.65,1.93-2.98,3.58-3.63.03-.67-.09-1.36-.28-2ZM67.65,46.81c-.92,0-1.66-.74-1.66-1.66s.74-1.66,1.66-1.66,1.66.75,1.66,1.66-.75,1.66-1.66,1.66ZM59.94,39.15c.16.55.24,1.11.24,1.68,0,2.56-1.57,4.84-3.86,5.8-.22-1.68-.61-3.32-1.17-4.91,1.43-1.12,3.06-1.99,4.79-2.57Z"/><path class="cls-3" d="M53.16,39.55c-2.33-4.74-6.24-8.55-11.05-10.74-1.14-.53-2.33-.96-3.56-1.29-1.91-.52-3.92-.79-5.98-.79-11.31,0-20.72,8.18-22.61,18.95-.15.83-.26,1.67-.31,2.53-.05.8.56,1.47,1.35,1.47h43.11c.8,0,1.41-.67,1.35-1.47-.18-3.09-.99-6.02-2.3-8.66ZM29.57,36.25c0,1.42-1.17,2.59-2.6,2.59s-2.59-1.17-2.59-2.59,1.16-2.6,2.59-2.6,2.6,1.17,2.6,2.6ZM37.96,44.23c0,.61-.5,1.11-1.11,1.11s-1.11-.5-1.11-1.11.5-1.1,1.11-1.1,1.11.49,1.11,1.1ZM39.15,28.74c1.84.57,3.57,1.38,5.17,2.4,3.12,1.98,5.71,4.73,7.51,8.04-1.01.57-2.12.94-3.28,1.08-.33.04-.67.06-1.01.06-4.87,0-8.83-3.96-8.83-8.84,0-.94.15-1.86.44-2.74ZM11,48.68c-.12,0-.2-.06-.25-.11-.04-.04-.11-.14-.1-.29h0c.06-.89.17-1.75.33-2.6.31-1.68.83-3.3,1.5-4.82.17-.02.35-.02.54-.02,3.43,0,6.41,1.97,7.88,4.84.47.92.78,1.93.9,3h-10.8Z"/><path class="cls-6" d="M48.55,40.26c-.33.04-.67.06-1.01.06-4.87,0-8.83-3.96-8.83-8.84,0-.94.15-1.86.44-2.74,1.84.57,3.57,1.38,5.17,2.4-.68-.83-1.42-1.61-2.21-2.33-1.14-.53-2.33-.96-3.56-1.29-1.91-.52-3.92-.79-5.98-.79-11.31,0-20.72,8.18-22.61,18.95h1.02c.31-1.68.83-3.3,1.5-4.82.17-.02.35-.02.54-.02,3.43,0,6.41,1.97,7.88,4.84h20.56c4.4,0,6.27-1.49,6.87-3.39.21-.65.26-1.34.22-2.03ZM26.97,38.84c-1.43,0-2.59-1.17-2.59-2.59s1.16-2.6,2.59-2.6,2.6,1.17,2.6,2.6-1.17,2.59-2.6,2.59ZM36.85,45.34c-.61,0-1.11-.5-1.11-1.11s.5-1.1,1.11-1.1,1.11.49,1.11,1.1-.5,1.11-1.11,1.11Z"/><path class="cls-4" d="M36.85,41.13c-1.71,0-3.11,1.39-3.11,3.1,0,.52.13,1.02.36,1.45.52.99,1.56,1.66,2.75,1.66s2.23-.67,2.75-1.66c.23-.43.36-.93.36-1.45,0-1.71-1.4-3.1-3.11-3.1ZM36.85,43.13c.61,0,1.11.49,1.11,1.1s-.5,1.11-1.11,1.11-1.11-.5-1.11-1.11.5-1.1,1.11-1.1ZM26.97,31.65c-2.53,0-4.59,2.06-4.59,4.6s2.06,4.59,4.59,4.59,4.6-2.06,4.6-4.59-2.06-4.6-4.6-4.6ZM26.97,38.84c-1.43,0-2.59-1.17-2.59-2.59s1.16-2.6,2.59-2.6,2.6,1.17,2.6,2.6-1.17,2.59-2.6,2.59ZM67.65,41.49c-2.02,0-3.66,1.64-3.66,3.66s1.64,3.66,3.66,3.66,3.66-1.64,3.66-3.66-1.64-3.66-3.66-3.66ZM67.65,46.81c-.92,0-1.66-.74-1.66-1.66s.74-1.66,1.66-1.66,1.66.75,1.66,1.66-.75,1.66-1.66,1.66ZM75.01,39.36c-.52-.35-1.08-.69-1.66-.99-.49-.25-1.09-.06-1.35.43,0,.01-.01.02-.01.03-.07.14-.1.3-.1.45.01.35.21.69.54.87.34.17.67.36.98.56.17.1.32.2.48.31.17.11.36.17.56.17.31,0,.61-.14.81-.42.01,0,.01-.01.02-.02.31-.45.19-1.08-.27-1.39ZM36.85,41.13c-1.71,0-3.11,1.39-3.11,3.1,0,.52.13,1.02.36,1.45.52.99,1.56,1.66,2.75,1.66s2.23-.67,2.75-1.66c.23-.43.36-.93.36-1.45,0-1.71-1.4-3.1-3.11-3.1ZM36.85,43.13c.61,0,1.11.49,1.11,1.1s-.5,1.11-1.11,1.11-1.11-.5-1.11-1.11.5-1.1,1.11-1.1ZM26.97,31.65c-2.53,0-4.59,2.06-4.59,4.6s2.06,4.59,4.59,4.59,4.6-2.06,4.6-4.59-2.06-4.6-4.6-4.6ZM26.97,38.84c-1.43,0-2.59-1.17-2.59-2.59s1.16-2.6,2.59-2.6,2.6,1.17,2.6,2.6-1.17,2.59-2.6,2.59ZM26.97,31.65c-2.53,0-4.59,2.06-4.59,4.6s2.06,4.59,4.59,4.59,4.6-2.06,4.6-4.59-2.06-4.6-4.6-4.6ZM26.97,38.84c-1.43,0-2.59-1.17-2.59-2.59s1.16-2.6,2.59-2.6,2.6,1.17,2.6,2.6-1.17,2.59-2.6,2.59ZM36.85,41.13c-1.71,0-3.11,1.39-3.11,3.1,0,.52.13,1.02.36,1.45.52.99,1.56,1.66,2.75,1.66s2.23-.67,2.75-1.66c.23-.43.36-.93.36-1.45,0-1.71-1.4-3.1-3.11-3.1ZM36.85,43.13c.61,0,1.11.49,1.11,1.1s-.5,1.11-1.11,1.11-1.11-.5-1.11-1.11.5-1.1,1.11-1.1ZM36.85,41.13c-1.71,0-3.11,1.39-3.11,3.1,0,.52.13,1.02.36,1.45.52.99,1.56,1.66,2.75,1.66s2.23-.67,2.75-1.66c.23-.43.36-.93.36-1.45,0-1.71-1.4-3.1-3.11-3.1ZM36.85,43.13c.61,0,1.11.49,1.11,1.1s-.5,1.11-1.11,1.11-1.11-.5-1.11-1.11.5-1.1,1.11-1.1ZM26.97,31.65c-2.53,0-4.59,2.06-4.59,4.6s2.06,4.59,4.59,4.59,4.6-2.06,4.6-4.59-2.06-4.6-4.6-4.6ZM26.97,38.84c-1.43,0-2.59-1.17-2.59-2.59s1.16-2.6,2.59-2.6,2.6,1.17,2.6,2.6-1.17,2.59-2.6,2.59ZM26.97,31.65c-2.53,0-4.59,2.06-4.59,4.6s2.06,4.59,4.59,4.59,4.6-2.06,4.6-4.59-2.06-4.6-4.6-4.6ZM26.97,38.84c-1.43,0-2.59-1.17-2.59-2.59s1.16-2.6,2.59-2.6,2.6,1.17,2.6,2.6-1.17,2.59-2.6,2.59ZM36.85,41.13c-1.71,0-3.11,1.39-3.11,3.1,0,.52.13,1.02.36,1.45.52.99,1.56,1.66,2.75,1.66s2.23-.67,2.75-1.66c.23-.43.36-.93.36-1.45,0-1.71-1.4-3.1-3.11-3.1ZM36.85,43.13c.61,0,1.11.49,1.11,1.1s-.5,1.11-1.11,1.11-1.11-.5-1.11-1.11.5-1.1,1.11-1.1ZM36.85,41.13c-1.71,0-3.11,1.39-3.11,3.1,0,.52.13,1.02.36,1.45.52.99,1.56,1.66,2.75,1.66s2.23-.67,2.75-1.66c.23-.43.36-.93.36-1.45,0-1.71-1.4-3.1-3.11-3.1ZM36.85,43.13c.61,0,1.11.49,1.11,1.1s-.5,1.11-1.11,1.11-1.11-.5-1.11-1.11.5-1.1,1.11-1.1ZM26.97,31.65c-2.53,0-4.59,2.06-4.59,4.6s2.06,4.59,4.59,4.59,4.6-2.06,4.6-4.59-2.06-4.6-4.6-4.6ZM26.97,38.84c-1.43,0-2.59-1.17-2.59-2.59s1.16-2.6,2.59-2.6,2.6,1.17,2.6,2.6-1.17,2.59-2.6,2.59ZM26.97,31.65c-2.53,0-4.59,2.06-4.59,4.6s2.06,4.59,4.59,4.59,4.6-2.06,4.6-4.59-2.06-4.6-4.6-4.6ZM26.97,38.84c-1.43,0-2.59-1.17-2.59-2.59s1.16-2.6,2.59-2.6,2.6,1.17,2.6,2.6-1.17,2.59-2.6,2.59ZM36.85,41.13c-1.71,0-3.11,1.39-3.11,3.1,0,.52.13,1.02.36,1.45.52.99,1.56,1.66,2.75,1.66s2.23-.67,2.75-1.66c.23-.43.36-.93.36-1.45,0-1.71-1.4-3.1-3.11-3.1ZM36.85,43.13c.61,0,1.11.49,1.11,1.1s-.5,1.11-1.11,1.11-1.11-.5-1.11-1.11.5-1.1,1.11-1.1ZM36.85,41.13c-1.71,0-3.11,1.39-3.11,3.1,0,.52.13,1.02.36,1.45.52.99,1.56,1.66,2.75,1.66s2.23-.67,2.75-1.66c.23-.43.36-.93.36-1.45,0-1.71-1.4-3.1-3.11-3.1ZM36.85,43.13c.61,0,1.11.49,1.11,1.1s-.5,1.11-1.11,1.11-1.11-.5-1.11-1.11.5-1.1,1.11-1.1ZM26.97,31.65c-2.53,0-4.59,2.06-4.59,4.6s2.06,4.59,4.59,4.59,4.6-2.06,4.6-4.59-2.06-4.6-4.6-4.6ZM26.97,38.84c-1.43,0-2.59-1.17-2.59-2.59s1.16-2.6,2.59-2.6,2.6,1.17,2.6,2.6-1.17,2.59-2.6,2.59ZM77.93,41.79c-.39-.39-1.02-.4-1.42-.02l-.02.02c-.37.39-.37,1.01,0,1.4.85.87,1.58,1.84,2.2,2.87-.62.06-1.23.19-1.8.39-2.69.87-4.76,3.09-5.45,5.85-.09.32-.16.66-.2,1l-22.21-.02c.02-.32.05-.65.1-.97.07-.55.17-1.09.3-1.63h4.68c.66,0,1.27-.26,1.72-.74.31-.34.52-.77.6-1.22,3.37-1.08,5.75-4.28,5.75-7.89,0-.76-.11-1.5-.31-2.21,2.38-.48,4.95-.4,7.27.24.52.15,1.08-.15,1.22-.67t.01-.02c.15-.54-.16-1.09-.69-1.23-3.01-.84-6.4-.83-9.38-.01-2.13.58-4.15,1.57-5.92,2.87-.11-.23-.21-.46-.33-.69-3.04-6.2-8.6-10.78-15.24-12.55-1.99-.55-4.1-.83-6.24-.83-12.62,0-23.12,9.84-23.91,22.41-.05.67.18,1.32.63,1.8.45.48,1.06.74,1.71.74h16.56c.14,2.96.94,11.86,5.43,18.73l1.68-1.1c-4.2-6.41-4.97-14.77-5.11-17.63h5.88c-.39,3.57-.22,11.41,7.21,17.3l1.24-1.56c-6.83-5.43-6.81-12.66-6.44-15.74h9.93c-.17.82-.3,1.65-.35,2.47-.04.56.16,1.12.54,1.53.38.4.9.63,1.46.63h12.11c.22,2.19.1,6.79-3.88,10.48l1.36,1.46c4.5-4.17,4.75-9.33,4.52-11.94h3.8c-.15,2.58-.89,9.21-4.55,13.81l.78.62v1c.3,0,.59-.14.78-.38,4.06-5.09,4.84-12.35,4.99-15.05h12.02c.56,0,1.08-.23,1.46-.63.38-.41.58-.97.54-1.52-.27-4.25-2.05-8.29-5.03-11.37ZM10.65,48.28h0c.06-.89.17-1.75.33-2.6.31-1.68.83-3.3,1.5-4.82.17-.02.35-.02.54-.02,3.43,0,6.41,1.97,7.88,4.84.47.92.78,1.93.9,3h-10.8c-.12,0-.2-.06-.25-.11-.04-.04-.11-.14-.1-.29ZM32.57,27.73c1.58,0,3.14.17,4.64.5-.33,1.05-.5,2.14-.5,3.25,0,5.98,4.86,10.84,10.83,10.84.27,0,.53-.01.79-.03,1.55-.11,3.03-.54,4.37-1.28.21.48.4.96.57,1.45.66,1.86,1.07,3.81,1.2,5.82.01.15-.06.25-.1.29-.05.05-.13.11-.26.11h-30.3c-.1-1.05-.34-2.06-.72-3-1.54-3.86-5.24-6.64-9.61-6.82,3.79-6.66,10.95-11.13,19.09-11.13ZM39.15,28.74c1.84.57,3.57,1.38,5.17,2.4,3.12,1.98,5.71,4.73,7.51,8.04-1.01.57-2.12.94-3.28,1.08-.33.04-.67.06-1.01.06-4.87,0-8.83-3.96-8.83-8.84,0-.94.15-1.86.44-2.74ZM59.94,39.15c.16.55.24,1.11.24,1.68,0,2.56-1.57,4.84-3.86,5.8-.22-1.68-.61-3.32-1.17-4.91,1.43-1.12,3.06-1.99,4.79-2.57ZM73.26,53.3c.07-.42.18-.83.33-1.22.63-1.65,1.93-2.98,3.58-3.63.71-.28,1.48-.43,2.3-.43.09,0,.15.02.24.02.7,1.66,1.14,3.44,1.25,5.27h-7.7ZM36.85,47.34c1.19,0,2.23-.67,2.75-1.66.23-.43.36-.93.36-1.45,0-1.71-1.4-3.1-3.11-3.1s-3.11,1.39-3.11,3.1c0,.52.13,1.02.36,1.45.52.99,1.56,1.66,2.75,1.66ZM36.85,43.13c.61,0,1.11.49,1.11,1.1s-.5,1.11-1.11,1.11-1.11-.5-1.11-1.11.5-1.1,1.11-1.1ZM26.97,40.84c2.54,0,4.6-2.06,4.6-4.59s-2.06-4.6-4.6-4.6-4.59,2.06-4.59,4.6,2.06,4.59,4.59,4.59ZM26.97,33.65c1.43,0,2.6,1.17,2.6,2.6s-1.17,2.59-2.6,2.59-2.59-1.17-2.59-2.59,1.16-2.6,2.59-2.6ZM26.97,31.65c-2.53,0-4.59,2.06-4.59,4.6s2.06,4.59,4.59,4.59,4.6-2.06,4.6-4.59-2.06-4.6-4.6-4.6ZM26.97,38.84c-1.43,0-2.59-1.17-2.59-2.59s1.16-2.6,2.59-2.6,2.6,1.17,2.6,2.6-1.17,2.59-2.6,2.59ZM36.85,41.13c-1.71,0-3.11,1.39-3.11,3.1,0,.52.13,1.02.36,1.45.52.99,1.56,1.66,2.75,1.66s2.23-.67,2.75-1.66c.23-.43.36-.93.36-1.45,0-1.71-1.4-3.1-3.11-3.1ZM36.85,43.13c.61,0,1.11.49,1.11,1.1s-.5,1.11-1.11,1.11-1.11-.5-1.11-1.11.5-1.1,1.11-1.1ZM36.85,41.13c-1.71,0-3.11,1.39-3.11,3.1,0,.52.13,1.02.36,1.45.52.99,1.56,1.66,2.75,1.66s2.23-.67,2.75-1.66c.23-.43.36-.93.36-1.45,0-1.71-1.4-3.1-3.11-3.1ZM36.85,43.13c.61,0,1.11.49,1.11,1.1s-.5,1.11-1.11,1.11-1.11-.5-1.11-1.11.5-1.1,1.11-1.1ZM26.97,31.65c-2.53,0-4.59,2.06-4.59,4.6s2.06,4.59,4.59,4.59,4.6-2.06,4.6-4.59-2.06-4.6-4.6-4.6ZM26.97,38.84c-1.43,0-2.59-1.17-2.59-2.59s1.16-2.6,2.59-2.6,2.6,1.17,2.6,2.6-1.17,2.59-2.6,2.59ZM26.97,31.65c-2.53,0-4.59,2.06-4.59,4.6s2.06,4.59,4.59,4.59,4.6-2.06,4.6-4.59-2.06-4.6-4.6-4.6ZM26.97,38.84c-1.43,0-2.59-1.17-2.59-2.59s1.16-2.6,2.59-2.6,2.6,1.17,2.6,2.6-1.17,2.59-2.6,2.59ZM36.85,41.13c-1.71,0-3.11,1.39-3.11,3.1,0,.52.13,1.02.36,1.45.52.99,1.56,1.66,2.75,1.66s2.23-.67,2.75-1.66c.23-.43.36-.93.36-1.45,0-1.71-1.4-3.1-3.11-3.1ZM36.85,43.13c.61,0,1.11.49,1.11,1.1s-.5,1.11-1.11,1.11-1.11-.5-1.11-1.11.5-1.1,1.11-1.1ZM36.85,41.13c-1.71,0-3.11,1.39-3.11,3.1,0,.52.13,1.02.36,1.45.52.99,1.56,1.66,2.75,1.66s2.23-.67,2.75-1.66c.23-.43.36-.93.36-1.45,0-1.71-1.4-3.1-3.11-3.1ZM36.85,43.13c.61,0,1.11.49,1.11,1.1s-.5,1.11-1.11,1.11-1.11-.5-1.11-1.11.5-1.1,1.11-1.1ZM26.97,31.65c-2.53,0-4.59,2.06-4.59,4.6s2.06,4.59,4.59,4.59,4.6-2.06,4.6-4.59-2.06-4.6-4.6-4.6ZM26.97,38.84c-1.43,0-2.59-1.17-2.59-2.59s1.16-2.6,2.59-2.6,2.6,1.17,2.6,2.6-1.17,2.59-2.6,2.59ZM26.97,31.65c-2.53,0-4.59,2.06-4.59,4.6s2.06,4.59,4.59,4.59,4.6-2.06,4.6-4.59-2.06-4.6-4.6-4.6ZM26.97,38.84c-1.43,0-2.59-1.17-2.59-2.59s1.16-2.6,2.59-2.6,2.6,1.17,2.6,2.6-1.17,2.59-2.6,2.59ZM36.85,41.13c-1.71,0-3.11,1.39-3.11,3.1,0,.52.13,1.02.36,1.45.52.99,1.56,1.66,2.75,1.66s2.23-.67,2.75-1.66c.23-.43.36-.93.36-1.45,0-1.71-1.4-3.1-3.11-3.1ZM36.85,43.13c.61,0,1.11.49,1.11,1.1s-.5,1.11-1.11,1.11-1.11-.5-1.11-1.11.5-1.1,1.11-1.1ZM36.85,41.13c-1.71,0-3.11,1.39-3.11,3.1,0,.52.13,1.02.36,1.45.52.99,1.56,1.66,2.75,1.66s2.23-.67,2.75-1.66c.23-.43.36-.93.36-1.45,0-1.71-1.4-3.1-3.11-3.1ZM36.85,43.13c.61,0,1.11.49,1.11,1.1s-.5,1.11-1.11,1.11-1.11-.5-1.11-1.11.5-1.1,1.11-1.1ZM26.97,31.65c-2.53,0-4.59,2.06-4.59,4.6s2.06,4.59,4.59,4.59,4.6-2.06,4.6-4.59-2.06-4.6-4.6-4.6ZM26.97,38.84c-1.43,0-2.59-1.17-2.59-2.59s1.16-2.6,2.59-2.6,2.6,1.17,2.6,2.6-1.17,2.59-2.6,2.59Z"/><path class="cls-5" d="M90.35,80.51v1.49c0,1.1-.9,2-2,2H7.65c-1.1,0-2-.9-2-2v-1.49c0-3.94,2.97-7.17,6.76-7.36.95-.05,1.89.09,2.76.41,1.28-2.15,3.58-3.49,6.13-3.49,1.14,0,2.25.27,3.25.78,1.34-1.7,3.41-2.73,5.6-2.73.9,0,1.79.17,2.62.5,1.32-1.95,3.5-3.13,5.9-3.13,1.34,0,2.66.39,3.8,1.1,1.34-1.65,3.37-2.64,5.53-2.64s4.19.99,5.53,2.64c1.14-.71,2.46-1.1,3.8-1.1,2.4,0,4.58,1.18,5.9,3.13.83-.33,1.72-.5,2.62-.5,2.19,0,4.26,1.03,5.6,2.73,1-.51,2.11-.78,3.25-.78,2.55,0,4.85,1.34,6.13,3.49.87-.32,1.81-.46,2.76-.41,1.89.09,3.59.95,4.8,2.27,1.22,1.33,1.96,3.12,1.96,5.09Z"/></svg>