<?xml version="1.0" encoding="UTF-8"?><svg id="Filled_Line" xmlns="http://www.w3.org/2000/svg" viewBox="0 0 64 64"><defs><style>.cls-1{fill:#9dabc4;}.cls-2{fill:#325068;}.cls-3{fill:#d3dce5;}.cls-4{fill:#1a2c3d;}.cls-5{fill:#536882;}.cls-6{fill:#78b24c;}</style></defs><path class="cls-1" d="m27.52,33.79l-2.61-2.27-2.54,2.19-2.53-2.19-2.53,2.19-2.53-2.19-2.59,2.24,4.09-9.34c1.48-3.23,5.67-3.23,7.14,0l4.1,9.37Z"/><polygon class="cls-2" points="35.94 53 4 52.47 7.11 45.37 12.18 33.77 12.19 33.76 14.78 31.52 17.31 33.71 19.84 31.52 22.37 33.71 24.91 31.52 27.52 33.79 27.53 33.79 30.98 41.67 33.4 47.21 34.19 49 35.94 53"/><path class="cls-3" d="m51.52,29.79l-2.61-2.27-2.54,2.19-2.53-2.19-2.53,2.19-2.53-2.19-2.58,2.23,4.08-9.33c1.48-3.23,5.67-3.23,7.14,0l4.1,9.37Z"/><polygon class="cls-5" points="59.94 49 27.77 49 36.2 29.75 38.78 27.52 41.31 29.71 43.84 27.52 46.37 29.71 48.91 27.52 51.52 29.79 51.53 29.8 59.94 49"/><path class="cls-6" d="m55,45c-1.64,0-3.09.8-4,2.02-.84-.63-1.87-1.02-3-1.02-1.88,0-3.51,1.05-4.36,2.59-.91-.98-2.2-1.59-3.64-1.59-1.64,0-3.09.8-4,2.03-.91-1.22-2.36-2.03-4-2.03s-3.09.8-4,2.03c-.91-1.22-2.36-2.03-4-2.03-1.44,0-2.73.62-3.64,1.59-.85-1.54-2.47-2.59-4.36-2.59-1.13,0-2.16.39-3,1.02-.91-1.22-2.36-2.02-4-2.02-2.76,0-5,2.24-5,5v10h56v-10c0-2.76-2.24-5-5-5Z"/><path class="cls-3" d="m16.22,9.29c-.83-.4-1.58-.34-2.24-.1,0-.06.02-.12.02-.19,0-1.66-1.34-3-3-3s-3,1.34-3,3c0,.06.02.13.02.19-.66-.24-1.41-.3-2.24.1-1.12.54-1.78,1.72-1.78,2.96h0c0,1.52,1.23,2.75,2.75,2.75h8.51c1.52,0,2.75-1.23,2.75-2.75h0c0-1.24-.66-2.42-1.78-2.96Z"/><path class="cls-3" d="m49.22,6.29c-.83-.4-1.58-.34-2.24-.1,0-.06.02-.12.02-.19,0-1.66-1.34-3-3-3s-3,1.34-3,3c0,.06.02.13.02.19-.66-.24-1.41-.3-2.24.1-1.12.54-1.78,1.72-1.78,2.96h0c0,1.52,1.23,2.75,2.75,2.75h8.51c1.52,0,2.75-1.23,2.75-2.75h0c0-1.24-.66-2.42-1.78-2.96Z"/><path class="cls-4" d="m60.06,46.79s0,0,0-.01l-11.73-26.77c-.84-1.85-2.56-3.01-4.47-3.01h0c-1.92,0-3.63,1.15-4.49,3.02l-8.39,19.16-6.65-15.17c-.84-1.85-2.56-3.01-4.47-3.01h0c-1.92,0-3.63,1.15-4.49,3.02l-9.02,20.61c-1.98.98-3.34,3.02-3.34,5.37v10c0,.55.45,1,1,1h56c.55,0,1-.45,1-1v-10c0-1.18-.35-2.28-.94-3.21Zm-23-16.51c.08-.04.15-.07.22-.13l1.5-1.3,1.88,1.63c.19.16.42.25.66.25s.47-.08.66-.25l1.87-1.63,1.87,1.63c.38.33.93.33,1.31,0l1.88-1.63,1.55,1.34c.06.05.13.08.2.11l6.12,13.97c-.56-.17-1.16-.27-1.77-.27-1.59,0-3.07.62-4.18,1.72-.87-.47-1.83-.72-2.82-.72-1.76,0-3.41.79-4.54,2.11-1.01-.72-2.2-1.11-3.46-1.11-1.5,0-2.91.55-4,1.54-1.09-.99-2.5-1.54-4-1.54-.69,0-1.35.13-1.98.35l7.04-16.08Zm4.13-9.44c.53-1.15,1.52-1.84,2.66-1.84h0c1.14,0,2.13.69,2.65,1.82l2.5,5.71c-.26-.03-.54.04-.75.23l-1.88,1.63-1.88-1.63c-.38-.33-.94-.33-1.31,0l-1.87,1.63-1.87-1.63c-.21-.18-.48-.25-.74-.23l2.49-5.69Zm-24,4c.53-1.15,1.52-1.84,2.66-1.84h0c1.14,0,2.13.69,2.65,1.82l2.5,5.71c-.26-.03-.54.04-.75.23l-1.88,1.63-1.88-1.63c-.38-.33-.94-.33-1.31,0l-1.87,1.63-1.87-1.63c-.21-.18-.48-.25-.74-.23l2.49-5.69Zm-4.13,9.44c.08-.04.15-.07.22-.13l1.5-1.3,1.88,1.63c.19.16.42.25.66.25s.47-.08.66-.25l1.87-1.63,1.87,1.63c.38.33.93.33,1.31,0l1.88-1.63,1.55,1.34c.06.05.13.08.2.11l3.23,7.37-2.4,5.49c-1.01-.73-2.21-1.16-3.49-1.16s-2.45.39-3.46,1.11c-1.13-1.32-2.78-2.11-4.54-2.11-.99,0-1.95.25-2.82.72-1.12-1.1-2.6-1.72-4.18-1.72-.07,0-.14,0-.2.01l4.26-9.74Zm45.94,24.73H5v-9c0-2.21,1.79-4,4-4,1.26,0,2.43.59,3.2,1.62.16.21.4.35.66.39.27.04.53-.03.74-.19.71-.54,1.54-.82,2.4-.82,1.44,0,2.77.8,3.48,2.08.15.28.43.47.75.51.31.04.63-.08.85-.31.77-.82,1.8-1.28,2.91-1.28,1.26,0,2.43.59,3.2,1.62.38.51,1.23.51,1.6,0,.77-1.03,1.94-1.62,3.2-1.62s2.43.59,3.2,1.62c.38.51,1.23.51,1.6,0,.77-1.03,1.94-1.62,3.2-1.62,1.11,0,2.14.45,2.91,1.28.22.23.54.35.85.31.32-.04.6-.23.75-.51.71-1.28,2.04-2.08,3.48-2.08.86,0,1.69.28,2.4.82.21.16.48.23.74.19.26-.04.5-.18.66-.39.77-1.03,1.93-1.62,3.2-1.62,2.21,0,4,1.79,4,4v9ZM6.75,16h8.51c2.07,0,3.75-1.68,3.75-3.75,0-1.66-.92-3.18-2.35-3.86h0c-.58-.28-1.18-.41-1.78-.39-.44-1.72-2.01-3-3.87-3s-3.43,1.28-3.87,3c-.6-.02-1.2.11-1.78.39-1.43.69-2.35,2.2-2.35,3.86,0,2.07,1.68,3.75,3.75,3.75Zm-.53-5.81c.27-.13.52-.19.78-.19.22,0,.44.04.68.13.32.12.67.06.94-.14s.42-.53.4-.86c0-.03-.01-.1-.02-.13,0-1.1.9-2,2-2s2,.9,2,1.97c0,.03-.02.13-.02.16-.02.34.13.66.4.86.27.2.62.25.94.14.53-.19.98-.17,1.46.06.74.36,1.22,1.17,1.22,2.06,0,.96-.78,1.75-1.75,1.75H6.75c-.96,0-1.75-.78-1.75-1.75,0-.9.48-1.71,1.22-2.06Zm33.53,2.81h8.51c2.07,0,3.75-1.68,3.75-3.75,0-1.66-.92-3.18-2.35-3.86h0c-.58-.28-1.18-.41-1.78-.39-.44-1.72-2.01-3-3.87-3s-3.43,1.28-3.87,3c-.61-.02-1.2.11-1.78.39-1.43.69-2.35,2.2-2.35,3.86,0,2.07,1.68,3.75,3.75,3.75Zm-.53-5.81c.27-.13.52-.19.78-.19.22,0,.44.04.68.13.32.12.67.06.94-.14s.42-.53.4-.86c0-.03-.01-.1-.02-.13,0-1.1.9-2,2-2s2,.9,2,1.97c0,.03-.02.13-.02.16-.02.34.13.66.4.86.27.2.62.25.94.14.53-.19.98-.17,1.46.06.74.36,1.22,1.17,1.22,2.06,0,.96-.78,1.75-1.75,1.75h-8.51c-.96,0-1.75-.78-1.75-1.75,0-.9.48-1.71,1.22-2.06Z"/></svg>