<?xml version="1.0" encoding="UTF-8"?><svg id="Filled_Line" xmlns="http://www.w3.org/2000/svg" viewBox="0 0 64 64"><defs><style>.cls-1{fill:#edae65;}.cls-2{fill:#6581c6;}.cls-3{fill:#1a2c3d;}.cls-4{fill:#759dd1;}</style></defs><circle class="cls-1" cx="32" cy="41" r="15"/><path class="cls-4" d="m60,42v8c-.57-.01-1.83-.13-3-1-.44-.33-.77-.69-1-1-.23.31-.56.67-1,1-1.17.87-2.43.99-3,1-.57-.01-1.83-.13-3-1-.44-.33-.77-.69-1-1-.23.31-.56.67-1,1-1.17.87-2.43.99-3,1-.57-.01-1.83-.13-3-1-.44-.33-.77-.69-1-1-.23.31-.56.67-1,1-1.17.87-2.43.99-3,1-.57-.01-1.83-.13-3-1-.44-.33-.77-.69-1-1-.23.31-.56.67-1,1-1.17.87-2.43.99-3,1-.57-.01-1.83-.13-3-1-.44-.33-.77-.69-1-1-.23.31-.56.67-1,1-1.17.87-2.43.99-3,1-.57-.01-1.83-.13-3-1-.44-.33-.77-.69-1-1-.23.31-.56.67-1,1-1.17.87-2.43.99-3,1-.57-.01-1.83-.13-3-1-.44-.33-.77-.69-1-1-.23.31-.56.67-1,1-1.17.87-2.43.99-3,1v-8c.57-.01,1.83-.13,3-1,.44-.33.77-.69,1-1,.23.31.56.67,1,1,1.17.87,2.43.99,3,1,.57-.01,1.83-.13,3-1,.44-.33.77-.69,1-1,.23.31.56.67,1,1,1.17.87,2.43.99,3,1,.57-.01,1.83-.13,3-1,.44-.33.77-.69,1-1,.23.31.56.67,1,1,1.17.87,2.43.99,3,1,.57-.01,1.83-.13,3-1,.44-.33.77-.69,1-1,.23.31.56.67,1,1,1.17.87,2.43.99,3,1,.57-.01,1.83-.13,3-1,.44-.33.77-.69,1-1,.23.31.56.67,1,1,1.17.87,2.43.99,3,1,.57-.01,1.83-.13,3-1,.44-.33.77-.69,1-1,.23.31.56.67,1,1,1.17.87,2.43.99,3,1,.57-.01,1.83-.13,3-1,.44-.33.77-.69,1-1,.23.31.56.67,1,1,1.17.87,2.43.99,3,1Z"/><path class="cls-2" d="m60,50v8h-3.3c-.1-.06-.2-.13-.3-.2-.14-.1-.27-.21-.4-.33-.13.12-.26.23-.4.33-.1.07-.2.14-.3.2h-6.6c-.1-.06-.2-.13-.3-.2-.14-.1-.27-.21-.4-.33-.13.12-.26.23-.4.33-.1.07-.2.14-.3.2h-6.6c-.1-.06-.2-.13-.3-.2-.14-.1-.27-.21-.4-.33-.13.12-.26.23-.4.33-.1.07-.2.14-.3.2h-6.6c-.1-.06-.2-.13-.3-.2-.14-.1-.27-.21-.4-.33-.13.12-.26.23-.4.33-.1.07-.2.14-.3.2h-6.6c-.1-.06-.2-.13-.3-.2-.14-.1-.27-.21-.4-.33-.13.12-.26.23-.4.33-.1.07-.2.14-.3.2h-6.6c-.1-.06-.2-.13-.3-.2-.14-.1-.27-.21-.4-.33-.13.12-.26.23-.4.33-.1.07-.2.14-.3.2h-6.6c-.1-.06-.2-.13-.3-.2-.14-.1-.27-.21-.4-.33-.13.12-.26.23-.4.33-.1.07-.2.14-.3.2h-3.3v-8c.57-.01,1.83-.13,3-1,.44-.33.77-.69,1-1,.23.31.56.67,1,1,1.17.87,2.43.99,3,1,.57-.01,1.83-.13,3-1,.44-.33.77-.69,1-1,.23.31.56.67,1,1,1.17.87,2.43.99,3,1,.57-.01,1.83-.13,3-1,.44-.33.77-.69,1-1,.23.31.56.67,1,1,1.17.87,2.43.99,3,1,.57-.01,1.83-.13,3-1,.44-.33.77-.69,1-1,.23.31.56.67,1,1,1.17.87,2.43.99,3,1,.57-.01,1.83-.13,3-1,.44-.33.77-.69,1-1,.23.31.56.67,1,1,1.17.87,2.43.99,3,1,.57-.01,1.83-.13,3-1,.44-.33.77-.69,1-1,.23.31.56.67,1,1,1.17.87,2.43.99,3,1,.57-.01,1.83-.13,3-1,.44-.33.77-.69,1-1,.23.31.56.67,1,1,1.17.87,2.43.99,3,1Z"/><path class="cls-3" d="m27.33,5c-1.99,0-3.24.83-4,1.88-.75-1.05-2-1.88-4-1.88-.55,0-1,.45-1,1s.45,1,1,1c2.82,0,2.99,2.49,3,3h-1c-.55,0-1,.45-1,1s.45,1,1,1h4c.55,0,1-.45,1-1s-.45-1-1-1h-1c.01-.51.19-3,3-3,.55,0,1-.45,1-1s-.45-1-1-1Zm-12.11,7.06c-2,0-3.25.83-4,1.88-.76-1.05-2.01-1.88-4-1.88-.56,0-1,.45-1,1s.44,1,1,1c2.21,0,2.79,1.53,2.94,2.44h-.94c-.56,0-1,.45-1,1s.44,1,1,1h4c.55,0,1-.45,1-1s-.45-1-1-1h-.95c.15-.91.73-2.44,2.95-2.44.55,0,1-.45,1-1s-.45-1-1-1Zm29.45-7.06c-2,0-3.25.83-4,1.88-.76-1.05-2.01-1.88-4-1.88-.55,0-1,.45-1,1s.45,1,1,1c2.81,0,2.99,2.49,3,3h-1c-.55,0-1,.45-1,1s.45,1,1,1h4c.55,0,1-.45,1-1s-.45-1-1-1h-1c.01-.51.18-3,3-3,.55,0,1-.45,1-1s-.45-1-1-1Zm12.11,7.06c-1.99,0-3.24.83-4,1.88-.75-1.05-2-1.88-4-1.88-.55,0-1,.45-1,1s.45,1,1,1c2.22,0,2.8,1.53,2.95,2.44h-.95c-.55,0-1,.45-1,1s.45,1,1,1h4c.56,0,1-.45,1-1s-.44-1-1-1h-.94c.15-.91.73-2.44,2.94-2.44.56,0,1-.45,1-1s-.44-1-1-1Zm-3.13,17.44c-.28-.48-.89-.64-1.37-.37l-3.46,2c-.48.28-.64.89-.37,1.37.19.32.53.5.87.5.17,0,.34-.04.5-.13l3.46-2c.48-.28.65-.89.37-1.37Zm-9.15-9.15c-.48-.28-1.09-.11-1.37.37l-2,3.46c-.27.48-.11,1.09.37,1.37.16.09.33.13.5.13.34,0,.68-.18.87-.5l2-3.46c.27-.48.11-1.09-.37-1.37Zm-29.32,10.78l-3.46-2c-.49-.27-1.1-.11-1.37.37-.28.48-.11,1.09.37,1.37l3.46,2c.16.09.33.13.5.13.34,0,.68-.18.87-.5.27-.48.11-1.09-.37-1.37Zm7.69-6.95l-2-3.46c-.28-.48-.89-.65-1.37-.37-.48.28-.64.89-.37,1.37l2,3.46c.19.32.53.5.87.5.17,0,.34-.04.5-.13.48-.28.64-.89.37-1.37Zm9.13-7.18c-.55,0-1,.45-1,1v4c0,.55.45,1,1,1s1-.45,1-1v-4c0-.55-.45-1-1-1Zm28.02,40h-.02c-.63-.02-1.56-.18-2.4-.8-.3-.23-.57-.49-.8-.8-.38-.5-1.22-.5-1.6,0-.23.31-.5.57-.8.8-.85.63-1.79.78-2.38.8-.63-.02-1.57-.17-2.42-.8-.3-.23-.57-.49-.8-.8-.38-.5-1.22-.5-1.6,0-.23.31-.5.57-.8.8-.85.63-1.79.78-2.38.8-.63-.02-1.57-.17-2.42-.8-.3-.23-.57-.49-.8-.8-.38-.5-1.22-.5-1.6,0-.23.31-.5.57-.8.8-.85.63-1.79.78-2.38.8-.63-.02-1.57-.17-2.42-.8-.1-.08-.21-.16-.3-.26-.18-.16-.35-.34-.5-.54-.38-.5-1.22-.5-1.6,0-.15.2-.32.38-.5.54-.09.1-.2.18-.3.26-.85.63-1.79.78-2.38.8-.63-.02-1.57-.17-2.42-.8-.3-.23-.57-.49-.8-.8-.38-.5-1.22-.5-1.6,0-.23.31-.5.57-.8.8-.85.63-1.79.78-2.38.8-.63-.02-1.57-.17-2.42-.8-.3-.23-.57-.49-.8-.8-.38-.5-1.22-.5-1.6,0-.23.31-.5.57-.8.8-.85.63-1.79.78-2.38.8-.63-.02-1.57-.17-2.42-.8-.3-.23-.57-.49-.8-.8-.38-.5-1.22-.5-1.6,0-.23.31-.5.57-.8.8-.84.62-1.77.78-2.4.8h-.02c-.56.01-.99.47-.98,1.02.01.56.47,1.01,1.02.98.86-.02,2.09-.22,3.28-1,.1-.06.2-.13.3-.2.14-.1.27-.21.4-.33.13.12.26.23.4.33.1.07.2.14.3.2,1.19.78,2.43.98,3.32,1,.86-.02,2.09-.22,3.28-1,.1-.06.2-.13.3-.2.14-.1.27-.21.4-.33.13.12.26.23.4.33.1.07.2.14.3.2,1.19.78,2.43.98,3.32,1,.86-.02,2.09-.22,3.28-1,.1-.06.2-.13.3-.2.14-.1.27-.21.4-.33.13.12.26.23.4.33.1.07.2.14.3.2,1.19.78,2.43.98,3.32,1,.86-.02,2.09-.22,3.28-1,.1-.06.2-.13.3-.2.14-.1.27-.21.4-.33.13.12.26.23.4.33.1.07.2.14.3.2,1.19.78,2.43.98,3.32,1,.86-.02,2.09-.22,3.28-1,.1-.06.2-.13.3-.2.14-.1.27-.21.4-.33.13.12.26.23.4.33.1.07.2.14.3.2,1.19.78,2.43.98,3.32,1,.86-.02,2.09-.22,3.28-1,.1-.06.2-.13.3-.2.14-.1.27-.21.4-.33.13.12.26.23.4.33.1.07.2.14.3.2,1.19.78,2.43.98,3.32,1,.86-.02,2.09-.22,3.28-1,.1-.06.2-.13.3-.2.14-.1.27-.21.4-.33.13.12.26.23.4.33.1.07.2.14.3.2,1.19.78,2.42.98,3.28,1h.02c.54,0,.99-.43,1-.98.01-.55-.42-1.01-.98-1.02Zm0-8h-.02c-.63-.02-1.56-.18-2.4-.8-.3-.23-.57-.49-.8-.8-.38-.5-1.22-.5-1.6,0-.23.31-.5.57-.8.8-.85.63-1.79.78-2.38.8-.63-.02-1.57-.17-2.42-.8-.3-.23-.57-.49-.8-.8-.38-.5-1.22-.5-1.6,0-.23.31-.5.57-.8.8-.56.41-1.15.62-1.66.72h-.01c-.27.05-.51.07-.71.08-.63-.02-1.57-.17-2.42-.8-.3-.23-.57-.49-.8-.8-.38-.5-1.22-.5-1.6,0-.23.31-.5.57-.8.8-.85.63-1.79.78-2.38.8-.63-.02-1.57-.17-2.42-.8-.3-.23-.57-.49-.8-.8-.38-.5-1.22-.5-1.6,0-.23.31-.5.57-.8.8-.85.63-1.79.78-2.38.8-.63-.02-1.57-.17-2.42-.8-.3-.23-.57-.49-.8-.8-.38-.5-1.22-.5-1.6,0-.23.31-.5.57-.8.8-.85.63-1.79.78-2.38.8-.22-.01-.48-.03-.76-.09-.52-.09-1.11-.3-1.66-.71-.3-.23-.57-.49-.8-.8-.38-.5-1.22-.5-1.6,0-.23.31-.5.57-.8.8-.85.63-1.79.78-2.38.8-.63-.02-1.57-.17-2.42-.8-.3-.23-.57-.49-.8-.8-.38-.5-1.22-.5-1.6,0-.23.31-.5.57-.8.8-.84.62-1.77.78-2.4.8h-.02c-.56.01-.99.47-.98,1.02.01.55.46.99,1,.98h.02c.93-.02,2.3-.25,3.58-1.2.14-.1.27-.21.4-.33.13.12.26.23.4.33,1.28.95,2.65,1.18,3.62,1.2.93-.02,2.3-.25,3.58-1.2.14-.1.27-.21.4-.33.13.12.26.23.4.33,1.28.95,2.65,1.18,3.62,1.2.23,0,.49-.02.76-.06.84-.12,1.86-.42,2.82-1.14.14-.1.27-.21.4-.33.13.12.26.23.4.33,1.28.95,2.65,1.18,3.62,1.2.93-.02,2.3-.25,3.58-1.2.14-.1.27-.21.4-.33.13.12.26.23.4.33,1.28.95,2.65,1.18,3.62,1.2.93-.02,2.3-.25,3.58-1.2.14-.1.27-.21.4-.33.13.12.26.23.4.33.96.71,1.96,1.02,2.82,1.14h.01c.28.04.55.06.79.06.93-.02,2.3-.25,3.58-1.2.14-.1.27-.21.4-.33.13.12.26.23.4.33,1.28.95,2.65,1.18,3.62,1.2.93-.02,2.3-.25,3.58-1.2.14-.1.27-.21.4-.33.13.12.26.23.4.33,1.28.95,2.65,1.18,3.58,1.2h.02c.54,0,.99-.43,1-.98.01-.55-.42-1.01-.98-1.02Zm0-8c-.63-.02-1.57-.17-2.42-.8-.3-.23-.57-.49-.8-.8-.38-.5-1.22-.5-1.6,0-.23.31-.5.57-.8.8-.85.63-1.79.78-2.38.8-.63-.02-1.57-.17-2.42-.8-.3-.23-.57-.49-.8-.8-.22-.29-.58-.39-.93-.35-.97-7.9-7.71-14.05-15.87-14.05s-14.9,6.15-15.87,14.05c-.35-.04-.71.06-.93.35-.23.31-.5.57-.8.8-.85.63-1.79.78-2.38.8-.63-.02-1.57-.17-2.42-.8-.3-.23-.57-.49-.8-.8-.38-.5-1.22-.5-1.6,0-.23.31-.5.57-.8.8-.85.63-1.79.78-2.42.8-.56.01-.99.47-.98,1.02.01.55.46.98,1,.98h.02c.93-.02,2.3-.25,3.58-1.2.14-.1.27-.21.4-.33.13.12.26.23.4.33,1.28.95,2.65,1.18,3.62,1.2.93-.02,2.3-.25,3.58-1.2.14-.1.27-.21.4-.33.13.12.26.23.4.33.22.16.44.3.66.42,1.08.6,2.16.76,2.96.78.93-.02,2.3-.25,3.58-1.2.14-.1.27-.21.4-.33.13.12.26.23.4.33,1.28.95,2.65,1.18,3.62,1.2.93-.02,2.3-.25,3.58-1.2.14-.1.27-.21.4-.33.13.12.26.23.4.33,1.28.95,2.65,1.18,3.62,1.2.93-.02,2.3-.25,3.58-1.2.14-.1.27-.21.4-.33.13.12.26.23.4.33,1.28.95,2.65,1.18,3.62,1.2.77-.02,1.84-.18,2.92-.78.22-.12.44-.26.66-.42.14-.1.27-.21.4-.33.13.12.26.23.4.33,1.28.95,2.65,1.18,3.62,1.2.93-.02,2.3-.25,3.58-1.2.14-.1.27-.21.4-.33.13.12.26.23.4.33,1.28.95,2.65,1.18,3.58,1.2h.02c.54,0,.99-.43,1-.98.01-.55-.42-1.01-.98-1.02Zm-16,0c-.63-.02-1.57-.17-2.42-.8-.3-.23-.57-.49-.8-.8-.38-.5-1.22-.5-1.6,0-.23.31-.5.57-.8.8-.85.63-1.79.78-2.38.8-.63-.02-1.57-.17-2.42-.8-.3-.23-.57-.49-.8-.8-.38-.5-1.22-.5-1.6,0-.23.31-.5.57-.8.8-.85.63-1.79.78-2.38.8-.63-.02-1.57-.17-2.42-.8-.3-.23-.57-.49-.8-.8-.38-.5-1.22-.5-1.6,0-.23.31-.5.57-.8.8-.85.63-1.79.78-2.38.8-.53-.01-1.27-.14-1.99-.54.29-7.47,6.43-13.46,13.97-13.46s13.68,5.99,13.97,13.46c-.72.4-1.46.53-1.95.54Z"/></svg>