<?xml version="1.0" encoding="UTF-8"?><svg id="Filled_Line" xmlns="http://www.w3.org/2000/svg" viewBox="0 0 64 64"><defs><style>.cls-1{fill:#6581c6;}.cls-2{fill:#d3dce5;}.cls-3{fill:#1a2c3d;}.cls-4{fill:#759dd1;}.cls-5{fill:#5064aa;}</style></defs><path class="cls-4" d="m60,35v8c-.57-.01-1.83-.13-3-1-.44-.33-.77-.69-1-1-.23.31-.56.67-1,1-1.17.87-2.43.99-3,1-.57-.01-1.83-.13-3-1-.44-.33-.77-.69-1-1-.23.31-.56.67-1,1-1.17.87-2.43.99-3,1-.57-.01-1.83-.13-3-1-.44-.33-.77-.69-1-1-.23.31-.56.67-1,1-1.17.87-2.43.99-3,1-.57-.01-1.83-.13-3-1-.44-.33-.77-.69-1-1-.23.31-.56.67-1,1-1.17.87-2.43.99-3,1-.57-.01-1.83-.13-3-1-.44-.33-.77-.69-1-1-.23.31-.56.67-1,1-1.17.87-2.43.99-3,1-.57-.01-1.83-.13-3-1-.44-.33-.77-.69-1-1-.23.31-.56.67-1,1-1.17.87-2.43.99-3,1-.57-.01-1.83-.13-3-1-.44-.33-.77-.69-1-1-.23.31-.56.67-1,1-1.17.87-2.43.99-3,1v-8c.57-.01,1.83-.13,3-1,.44-.33.77-.69,1-1,.23.31.56.67,1,1,1.17.87,2.43.99,3,1,.57-.01,1.83-.13,3-1,.44-.33.77-.69,1-1,.23.31.56.67,1,1,1.17.87,2.43.99,3,1,.57-.01,1.83-.13,3-1,.44-.33.77-.69,1-1,.23.31.56.67,1,1,1.17.87,2.43.99,3,1,.57-.01,1.83-.13,3-1,.44-.33.77-.69,1-1,.23.31.56.67,1,1,1.17.87,2.43.99,3,1,.57-.01,1.83-.13,3-1,.44-.33.77-.69,1-1,.23.31.56.67,1,1,1.17.87,2.43.99,3,1,.57-.01,1.83-.13,3-1,.44-.33.77-.69,1-1,.23.31.56.67,1,1,1.17.87,2.43.99,3,1,.57-.01,1.83-.13,3-1,.44-.33.77-.69,1-1,.23.31.56.67,1,1,1.17.87,2.43.99,3,1Z"/><path class="cls-1" d="m60,43v8c-.57-.01-1.83-.13-3-1-.44-.33-.77-.69-1-1-.23.31-.56.67-1,1-1.17.87-2.43.99-3,1-.57-.01-1.83-.13-3-1-.44-.33-.77-.69-1-1-.23.31-.56.67-1,1-1.17.87-2.43.99-3,1-.57-.01-1.83-.13-3-1-.44-.33-.77-.69-1-1-.23.31-.56.67-1,1-1.17.87-2.43.99-3,1-.57-.01-1.83-.13-3-1-.44-.33-.77-.69-1-1-.23.31-.56.67-1,1-1.17.87-2.43.99-3,1-.57-.01-1.83-.13-3-1-.44-.33-.77-.69-1-1-.23.31-.56.67-1,1-1.17.87-2.43.99-3,1-.57-.01-1.83-.13-3-1-.44-.33-.77-.69-1-1-.23.31-.56.67-1,1-1.17.87-2.43.99-3,1-.57-.01-1.83-.13-3-1-.44-.33-.77-.69-1-1-.23.31-.56.67-1,1-1.17.87-2.43.99-3,1v-8c.57-.01,1.83-.13,3-1,.44-.33.77-.69,1-1,.23.31.56.67,1,1,1.17.87,2.43.99,3,1,.57-.01,1.83-.13,3-1,.44-.33.77-.69,1-1,.23.31.56.67,1,1,1.17.87,2.43.99,3,1,.57-.01,1.83-.13,3-1,.44-.33.77-.69,1-1,.23.31.56.67,1,1,1.17.87,2.43.99,3,1,.57-.01,1.83-.13,3-1,.44-.33.77-.69,1-1,.23.31.56.67,1,1,1.17.87,2.43.99,3,1,.57-.01,1.83-.13,3-1,.44-.33.77-.69,1-1,.23.31.56.67,1,1,1.17.87,2.43.99,3,1,.57-.01,1.83-.13,3-1,.44-.33.77-.69,1-1,.23.31.56.67,1,1,1.17.87,2.43.99,3,1,.57-.01,1.83-.13,3-1,.44-.33.77-.69,1-1,.23.31.56.67,1,1,1.17.87,2.43.99,3,1Z"/><path class="cls-5" d="m60,51v8h-3.3c-.1-.06-.2-.13-.3-.2-.14-.1-.27-.21-.4-.33-.13.12-.26.23-.4.33-.1.07-.2.14-.3.2h-6.6c-.1-.06-.2-.13-.3-.2-.14-.1-.27-.21-.4-.33-.13.12-.26.23-.4.33-.1.07-.2.14-.3.2h-6.6c-.1-.06-.2-.13-.3-.2-.14-.1-.27-.21-.4-.33-.13.12-.26.23-.4.33-.1.07-.2.14-.3.2h-6.6c-.1-.06-.2-.13-.3-.2-.14-.1-.27-.21-.4-.33-.13.12-.26.23-.4.33-.1.07-.2.14-.3.2h-6.6c-.1-.06-.2-.13-.3-.2-.14-.1-.27-.21-.4-.33-.13.12-.26.23-.4.33-.1.07-.2.14-.3.2h-6.6c-.1-.06-.2-.13-.3-.2-.14-.1-.27-.21-.4-.33-.13.12-.26.23-.4.33-.1.07-.2.14-.3.2h-6.6c-.1-.06-.2-.13-.3-.2-.14-.1-.27-.21-.4-.33-.13.12-.26.23-.4.33-.1.07-.2.14-.3.2h-3.3v-8c.57-.01,1.83-.13,3-1,.44-.33.77-.69,1-1,.23.31.56.67,1,1,1.17.87,2.43.99,3,1,.57-.01,1.83-.13,3-1,.44-.33.77-.69,1-1,.23.31.56.67,1,1,1.17.87,2.43.99,3,1,.57-.01,1.83-.13,3-1,.44-.33.77-.69,1-1,.23.31.56.67,1,1,1.17.87,2.43.99,3,1,.57-.01,1.83-.13,3-1,.44-.33.77-.69,1-1,.23.31.56.67,1,1,1.17.87,2.43.99,3,1,.57-.01,1.83-.13,3-1,.44-.33.77-.69,1-1,.23.31.56.67,1,1,1.17.87,2.43.99,3,1,.57-.01,1.83-.13,3-1,.44-.33.77-.69,1-1,.23.31.56.67,1,1,1.17.87,2.43.99,3,1,.57-.01,1.83-.13,3-1,.44-.33.77-.69,1-1,.23.31.56.67,1,1,1.17.87,2.43.99,3,1Z"/><path class="cls-2" d="m58.12,15.73c-.43-.73-1.05-1.33-1.83-1.7-1.16-.56-2.2-.48-3.13-.15.01-.09.03-.17.03-.26,0-2.32-1.88-4.19-4.19-4.19s-4.19,1.87-4.19,4.19c0,.09.02.17.03.26-.93-.33-1.97-.41-3.13.15-1.56.75-2.49,2.4-2.49,4.13,0,1.06.43,2.02,1.12,2.72.7.69,1.66,1.12,2.72,1.12h11.88c2.12,0,3.84-1.72,3.84-3.84,0-.86-.23-1.71-.66-2.43Z"/><path class="cls-2" d="m20.63,8.18c-1.05-.51-2.01-.43-2.84-.13,0-.08.02-.16.02-.24,0-2.1-1.71-3.81-3.81-3.81s-3.81,1.71-3.81,3.81c0,.08.02.16.02.24-.83-.3-1.79-.38-2.84.13-1.42.68-2.26,2.19-2.26,3.76,0,.96.39,1.84,1.02,2.47s1.51,1.02,2.47,1.02h10.8c1.93,0,3.49-1.56,3.49-3.49,0-1.57-.84-3.08-2.26-3.76Z"/><path class="cls-3" d="m21.06,7.28c-.63-.31-1.28-.47-1.95-.47-.13,0-.27.01-.4.02-.46-2.19-2.39-3.83-4.71-3.83s-4.25,1.64-4.71,3.83c-.8-.07-1.59.08-2.35.45-1.72.83-2.83,2.66-2.83,4.66,0,2.48,2.01,4.49,4.49,4.49h10.8c2.48,0,4.49-2.01,4.49-4.49,0-2-1.11-3.83-2.83-4.66Zm-1.66,7.15h-10.8c-1.37,0-2.49-1.12-2.49-2.49,0-1.24.67-2.36,1.7-2.86.37-.18.73-.27,1.11-.27.31,0,.62.06.95.18.32.12.67.06.94-.14s.42-.52.4-.86c0-.06-.01-.12-.02-.18,0-1.55,1.26-2.81,2.81-2.81s2.81,1.26,2.81,2.81c-.01.06-.02.12-.02.18-.02.34.13.66.4.86s.62.26.94.14c.73-.27,1.39-.24,2.06.09,1.03.5,1.7,1.62,1.7,2.86,0,1.37-1.12,2.49-2.49,2.49Zm37.33-1.31c-.69-.33-1.39-.5-2.11-.5-.17,0-.35.01-.52.03-.46-2.4-2.57-4.22-5.1-4.22s-4.64,1.82-5.1,4.22c-.9-.1-1.77.06-2.63.47-1.85.9-3.05,2.88-3.05,5.04,0,2.67,2.17,4.84,4.84,4.84h11.88c2.67,0,4.84-2.17,4.84-4.84,0-2.16-1.2-4.14-3.05-5.04Zm-1.79,7.88h-11.88c-1.56,0-2.84-1.27-2.84-2.84,0-1.4.76-2.67,1.92-3.23.43-.21.84-.31,1.27-.31.35,0,.71.07,1.08.2.32.12.68.07.95-.14.27-.2.42-.52.39-.86,0-.06-.01-.12-.02-.2,0-1.76,1.43-3.19,3.19-3.19s3.19,1.43,3.19,3.21c-.01.06-.02.12-.02.18-.03.34.12.66.39.86.27.21.63.26.95.14.83-.3,1.57-.27,2.35.11,1.16.56,1.92,1.83,1.92,3.23,0,1.57-1.28,2.84-2.84,2.84Zm5.08,37h-.02c-.63-.01-1.56-.18-2.4-.8-.3-.23-.57-.49-.8-.8-.38-.5-1.22-.5-1.6,0-.23.31-.5.57-.8.8-.85.63-1.79.79-2.38.8-.63-.01-1.57-.17-2.42-.8-.3-.23-.57-.49-.8-.8-.38-.5-1.22-.5-1.6,0-.23.31-.5.57-.8.8-.85.63-1.79.79-2.38.8-.63-.01-1.57-.17-2.42-.8-.3-.23-.57-.49-.8-.8-.38-.5-1.22-.5-1.6,0-.23.31-.5.57-.8.8-.85.63-1.79.79-2.38.8-.63-.01-1.57-.17-2.42-.8-.3-.23-.57-.49-.8-.8-.38-.5-1.22-.5-1.6,0-.23.31-.5.57-.8.8-.85.63-1.79.79-2.38.8-.63-.01-1.57-.17-2.42-.8-.3-.23-.57-.49-.8-.8-.38-.5-1.22-.5-1.6,0-.23.31-.5.57-.8.8-.85.63-1.79.79-2.38.8-.63-.01-1.57-.17-2.42-.8-.3-.23-.57-.49-.8-.8-.38-.5-1.22-.5-1.6,0-.23.31-.5.57-.8.8-.85.63-1.79.79-2.38.8-.63-.01-1.57-.17-2.42-.8-.3-.23-.57-.49-.8-.8-.38-.5-1.22-.5-1.6,0-.23.31-.5.57-.8.8-.84.62-1.77.79-2.4.8h-.02c-.56.01-.99.47-.98,1.02.01.56.43,1.01,1.02.98.86-.02,2.09-.22,3.28-1,.1-.06.2-.13.3-.2.14-.1.27-.21.4-.33.13.12.26.23.4.33.1.07.2.14.3.2,1.19.78,2.43.98,3.32,1,.86-.02,2.09-.22,3.28-1,.1-.06.2-.13.3-.2.14-.1.27-.21.4-.33.13.12.26.23.4.33.1.07.2.14.3.2,1.19.78,2.43.98,3.32,1,.86-.02,2.09-.22,3.28-1,.1-.06.2-.13.3-.2.14-.1.27-.21.4-.33.13.12.26.23.4.33.1.07.2.14.3.2,1.19.78,2.43.98,3.32,1,.86-.02,2.09-.22,3.28-1,.1-.06.2-.13.3-.2.14-.1.27-.21.4-.33.13.12.26.23.4.33.1.07.2.14.3.2,1.19.78,2.43.98,3.32,1,.86-.02,2.09-.22,3.28-1,.1-.06.2-.13.3-.2.14-.1.27-.21.4-.33.13.12.26.23.4.33.1.07.2.14.3.2,1.19.78,2.43.98,3.32,1,.86-.02,2.09-.22,3.28-1,.1-.06.2-.13.3-.2.14-.1.27-.21.4-.33.13.12.26.23.4.33.1.07.2.14.3.2,1.19.78,2.43.98,3.32,1,.86-.02,2.09-.22,3.28-1,.1-.06.2-.13.3-.2.14-.1.27-.21.4-.33.13.12.26.23.4.33.1.07.2.14.3.2,1.19.78,2.42.98,3.28,1h.02c.54,0,.99-.43,1-.98.01-.55-.42-1.01-.98-1.02Zm0-8h-.02c-.63-.01-1.56-.18-2.4-.8-.3-.23-.57-.49-.8-.8-.38-.5-1.22-.5-1.6,0-.23.31-.5.57-.8.8-.85.63-1.79.79-2.38.8-.63-.01-1.57-.17-2.42-.8-.3-.23-.57-.49-.8-.8-.38-.5-1.22-.5-1.6,0-.23.31-.5.57-.8.8-.85.63-1.79.79-2.38.8-.63-.01-1.57-.17-2.42-.8-.3-.23-.57-.49-.8-.8-.38-.5-1.22-.5-1.6,0-.23.31-.5.57-.8.8-.85.63-1.79.79-2.38.8-.63-.01-1.57-.17-2.42-.8-.3-.23-.57-.49-.8-.8-.38-.5-1.22-.5-1.6,0-.23.31-.5.57-.8.8-.85.63-1.79.79-2.38.8-.63-.01-1.57-.17-2.42-.8-.3-.23-.57-.49-.8-.8-.38-.5-1.22-.5-1.6,0-.23.31-.5.57-.8.8-.85.63-1.79.79-2.38.8-.63-.01-1.57-.17-2.42-.8-.3-.23-.57-.49-.8-.8-.38-.5-1.22-.5-1.6,0-.23.31-.5.57-.8.8-.85.63-1.79.79-2.38.8-.63-.01-1.57-.17-2.42-.8-.3-.23-.57-.49-.8-.8-.38-.5-1.22-.5-1.6,0-.23.31-.5.57-.8.8-.84.62-1.77.79-2.4.8h-.02c-.56.01-.99.47-.98,1.02.01.55.42,1,1,.98h.02c.93-.02,2.3-.25,3.58-1.2.14-.1.27-.21.4-.33.13.12.26.23.4.33,1.28.95,2.65,1.18,3.62,1.2.93-.02,2.3-.25,3.58-1.2.14-.1.27-.21.4-.33.13.12.26.23.4.33,1.28.95,2.65,1.18,3.62,1.2.93-.02,2.3-.25,3.58-1.2.14-.1.27-.21.4-.33.13.12.26.23.4.33,1.28.95,2.65,1.18,3.62,1.2.93-.02,2.3-.25,3.58-1.2.14-.1.27-.21.4-.33.13.12.26.23.4.33,1.28.95,2.65,1.18,3.62,1.2.93-.02,2.3-.25,3.58-1.2.14-.1.27-.21.4-.33.13.12.26.23.4.33,1.28.95,2.65,1.18,3.62,1.2.93-.02,2.3-.25,3.58-1.2.14-.1.27-.21.4-.33.13.12.26.23.4.33,1.28.95,2.65,1.18,3.62,1.2.93-.02,2.3-.25,3.58-1.2.14-.1.27-.21.4-.33.13.12.26.23.4.33,1.28.95,2.65,1.18,3.58,1.2h.02c.54,0,.99-.43,1-.98.01-.55-.42-1.01-.98-1.02Zm0-8h-.02c-.63-.01-1.56-.18-2.4-.8-.3-.23-.57-.49-.8-.8-.38-.5-1.22-.5-1.6,0-.23.31-.5.57-.8.8-.85.63-1.79.79-2.38.8-.63-.01-1.57-.17-2.42-.8-.3-.23-.57-.49-.8-.8-.38-.5-1.22-.5-1.6,0-.23.31-.5.57-.8.8-.85.63-1.79.79-2.38.8-.63-.01-1.57-.17-2.42-.8-.3-.23-.57-.49-.8-.8-.38-.5-1.22-.5-1.6,0-.23.31-.5.57-.8.8-.85.63-1.79.79-2.38.8-.63-.01-1.57-.17-2.42-.8-.3-.23-.57-.49-.8-.8-.38-.5-1.22-.5-1.6,0-.23.31-.5.57-.8.8-.85.63-1.79.79-2.38.8-.63-.01-1.57-.17-2.42-.8-.3-.23-.57-.49-.8-.8-.38-.5-1.22-.5-1.6,0-.23.31-.5.57-.8.8-.85.63-1.79.79-2.38.8-.63-.01-1.57-.17-2.42-.8-.3-.23-.57-.49-.8-.8-.38-.5-1.22-.5-1.6,0-.23.31-.5.57-.8.8-.85.63-1.79.79-2.38.8-.63-.01-1.57-.17-2.42-.8-.3-.23-.57-.49-.8-.8-.38-.5-1.22-.5-1.6,0-.23.31-.5.57-.8.8-.84.62-1.77.79-2.4.8h-.02c-.56.01-.99.47-.98,1.02.01.55.42.99,1,.98h.02c.93-.02,2.3-.25,3.58-1.2.14-.1.27-.21.4-.33.13.12.26.23.4.33,1.28.95,2.65,1.18,3.62,1.2.93-.02,2.3-.25,3.58-1.2.14-.1.27-.21.4-.33.13.12.26.23.4.33,1.28.95,2.65,1.18,3.62,1.2.93-.02,2.3-.25,3.58-1.2.14-.1.27-.21.4-.33.13.12.26.23.4.33,1.28.95,2.65,1.18,3.62,1.2.93-.02,2.3-.25,3.58-1.2.14-.1.27-.21.4-.33.13.12.26.23.4.33,1.28.95,2.65,1.18,3.62,1.2.93-.02,2.3-.25,3.58-1.2.14-.1.27-.21.4-.33.13.12.26.23.4.33,1.28.95,2.65,1.18,3.62,1.2.93-.02,2.3-.25,3.58-1.2.14-.1.27-.21.4-.33.13.12.26.23.4.33,1.28.95,2.65,1.18,3.62,1.2.93-.02,2.3-.25,3.58-1.2.14-.1.27-.21.4-.33.13.12.26.23.4.33,1.28.95,2.65,1.18,3.58,1.2h.02c.54,0,.99-.43,1-.98.01-.55-.42-1.01-.98-1.02Zm0-8c-.63-.01-1.57-.17-2.42-.8-.3-.23-.57-.49-.8-.8-.38-.5-1.22-.5-1.6,0-.23.31-.5.57-.8.8-.85.63-1.79.79-2.38.8-.63-.01-1.57-.17-2.42-.8-.3-.23-.57-.49-.8-.8-.38-.5-1.22-.5-1.6,0-.23.31-.5.57-.8.8-.85.63-1.79.79-2.38.8-.63-.01-1.57-.17-2.42-.8-.3-.23-.57-.49-.8-.8-.38-.5-1.22-.5-1.6,0-.23.31-.5.57-.8.8-.85.63-1.79.79-2.38.8-.63-.01-1.57-.17-2.42-.8-.3-.23-.57-.49-.8-.8-.38-.5-1.22-.5-1.6,0-.23.31-.5.57-.8.8-.85.63-1.79.79-2.38.8-.63-.01-1.57-.17-2.42-.8-.3-.23-.57-.49-.8-.8-.38-.5-1.22-.5-1.6,0-.23.31-.5.57-.8.8-.85.63-1.79.79-2.38.8-.63-.01-1.57-.17-2.42-.8-.3-.23-.57-.49-.8-.8-.38-.5-1.22-.5-1.6,0-.23.31-.5.57-.8.8-.85.63-1.79.79-2.38.8-.63-.01-1.57-.17-2.42-.8-.3-.23-.57-.49-.8-.8-.38-.5-1.22-.5-1.6,0-.23.31-.5.57-.8.8-.85.63-1.79.79-2.42.8-.56.01-.99.47-.98,1.02.01.55.42.98,1,.98h.02c.93-.02,2.3-.25,3.58-1.2.14-.1.27-.21.4-.33.13.12.26.23.4.33,1.28.95,2.65,1.18,3.62,1.2.93-.02,2.3-.25,3.58-1.2.14-.1.27-.21.4-.33.13.12.26.23.4.33,1.28.95,2.65,1.18,3.62,1.2.93-.02,2.3-.25,3.58-1.2.14-.1.27-.21.4-.33.13.12.26.23.4.33,1.28.95,2.65,1.18,3.62,1.2.93-.02,2.3-.25,3.58-1.2.14-.1.27-.21.4-.33.13.12.26.23.4.33,1.28.95,2.65,1.18,3.62,1.2.93-.02,2.3-.25,3.58-1.2.14-.1.27-.21.4-.33.13.12.26.23.4.33,1.28.95,2.65,1.18,3.62,1.2.93-.02,2.3-.25,3.58-1.2.14-.1.27-.21.4-.33.13.12.26.23.4.33,1.28.95,2.65,1.18,3.62,1.2.93-.02,2.3-.25,3.58-1.2.14-.1.27-.21.4-.33.13.12.26.23.4.33,1.28.95,2.65,1.18,3.58,1.2h.02c.54,0,.99-.43,1-.98.01-.55-.42-1.01-.98-1.02Z"/></svg>