<?xml version="1.0" encoding="UTF-8"?><svg id="Filled_Line" xmlns="http://www.w3.org/2000/svg" viewBox="0 0 64 64"><defs><style>.cls-1{fill:#edae65;}.cls-2{fill:#b8c3d5;}.cls-3{fill:#6581c6;}.cls-4{fill:#d88852;}.cls-5{fill:#e26677;}.cls-6{fill:#d85364;}.cls-7{fill:#1a2c3d;}.cls-8{fill:#759dd1;}.cls-9{fill:#5064aa;}</style></defs><path class="cls-8" d="m60,43v8c-.57-.01-1.83-.13-3-1-.44-.33-.77-.69-1-1-.23.31-.56.67-1,1-1.17.87-2.43.99-3,1-.57-.01-1.83-.13-3-1-.44-.33-.77-.69-1-1-.23.31-.56.67-1,1-1.17.87-2.43.99-3,1-.57-.01-1.83-.13-3-1-.44-.33-.77-.69-1-1-.23.31-.56.67-1,1-1.17.87-2.43.99-3,1-.57-.01-1.83-.13-3-1-.44-.33-.77-.69-1-1-.23.31-.56.67-1,1-1.17.87-2.43.99-3,1-.57-.01-1.83-.13-3-1-.44-.33-.77-.69-1-1-.23.31-.56.67-1,1-1.17.87-2.43.99-3,1-.57-.01-1.83-.13-3-1-.44-.33-.77-.69-1-1-.23.31-.56.67-1,1-1.17.87-2.43.99-3,1-.57-.01-1.83-.13-3-1-.44-.33-.77-.69-1-1-.23.31-.56.67-1,1-1.17.87-2.43.99-3,1v-8c.57-.01,1.83-.13,3-1,.44-.33.77-.69,1-1,.23.31.56.67,1,1,1.17.87,2.43.99,3,1,.57-.01,1.83-.13,3-1,.44-.33.77-.69,1-1,.23.31.56.67,1,1,1.17.87,2.43.99,3,1,.57-.01,1.83-.13,3-1,.44-.33.77-.69,1-1,.23.31.56.67,1,1,1.17.87,2.43.99,3,1,.57-.01,1.83-.13,3-1,.44-.33.77-.69,1-1,.23.31.56.67,1,1,1.17.87,2.43.99,3,1,.57-.01,1.83-.13,3-1,.44-.33.77-.69,1-1,.23.31.56.67,1,1,1.17.87,2.43.99,3,1,.57-.01,1.83-.13,3-1,.44-.33.77-.69,1-1,.23.31.56.67,1,1,1.17.87,2.43.99,3,1,.57-.01,1.83-.13,3-1,.44-.33.77-.69,1-1,.23.31.56.67,1,1,1.17.87,2.43.99,3,1Z"/><path class="cls-3" d="m60,51v9h-.02c-.75-.01-2.22-.19-3.58-1.2-.14-.1-.27-.21-.4-.33-.13.12-.26.23-.4.33-1.36,1.01-2.83,1.19-3.58,1.2-.79-.01-2.26-.19-3.62-1.2-.14-.1-.27-.21-.4-.33-.13.12-.26.23-.4.33-1.36,1.01-2.83,1.19-3.58,1.2-.79-.01-2.26-.19-3.62-1.2-.14-.1-.27-.21-.4-.33-.13.12-.26.23-.4.33-1.36,1.01-2.83,1.19-3.58,1.2-.74-.01-2.06-.17-3.34-1.02l.25.66c.05.12.07.24.07.36H4v-9c.18,0,.44-.02.75-.07.08-.02.16-.03.25-.05.16-.03.33-.08.51-.13.03,0,.06-.01.09-.02.1-.04.2-.08.3-.12.11-.04.21-.09.32-.14.11-.05.23-.11.34-.18.15-.09.29-.18.44-.29.44-.33.77-.69,1-1,.23.31.56.67,1,1,1.17.87,2.43.99,3,1,.57-.01,1.83-.13,3-1,.44-.33.77-.69,1-1,.23.31.56.67,1,1,1.17.87,2.43.99,3,1,.57-.01,1.83-.13,3-1,.44-.33.77-.69,1-1,.23.31.56.67,1,1,.14.1.27.19.41.27.24.14.47.26.7.35.01.01.03.01.04.01.07.03.15.05.21.08.07.02.14.04.2.06.14.05.28.08.41.11.15.03.3.05.43.07.24.04.45.05.6.05.13,0,.29-.01.48-.03.02,0,.04,0,.06-.01.1,0,.2-.02.32-.05.09-.02.18-.03.28-.06.02,0,.04,0,.06-.01.14-.03.29-.08.44-.13.11-.04.22-.08.33-.13.12-.04.23-.1.34-.16.23-.11.46-.25.69-.42.44-.33.77-.69,1-1,.23.31.56.67,1,1,1.17.87,2.43.99,3,1,.57-.01,1.83-.13,3-1,.44-.33.77-.69,1-1,.23.31.56.67,1,1,1.17.87,2.43.99,3,1,.57-.01,1.83-.13,3-1,.44-.33.77-.69,1-1,.23.31.56.67,1,1,1.17.87,2.43.99,3,1,.57-.01,1.83-.13,3-1,.44-.33.77-.69,1-1,.23.31.56.67,1,1,1.17.87,2.43.99,3,1Z"/><path class="cls-2" d="m26.23.96h0c1.1,0,2,.9,2,2v42h-4V2.96c0-1.1.9-2,2-2Z" transform="translate(16.2 -10.43) rotate(32.07)"/><path class="cls-1" d="m4,32h.77c9.84,0,18.66,6.03,22.24,15.2l4.99,12.8H4v-28Z"/><path class="cls-9" d="m30.02,27.7l-9.7-6.08c-.35-.22-.53-.62-.45-1.03l.65-3.57,13.56,8.5-2.93,2.14c-.33.24-.77.26-1.12.04Z"/><path class="cls-6" d="m16.74,19.38l-6.87-4.31c-.37-.23-.55-.69-.43-1.11l.91-3.31,10.17,6.37-2.58,2.26c-.33.29-.82.33-1.19.1Z"/><path class="cls-4" d="m40.47,34.24l-6.87-4.31c-.37-.23-.55-.69-.43-1.11l.91-3.31,10.17,6.37-2.58,2.26c-.33.29-.82.33-1.19.1Z"/><path class="cls-5" d="m35.26,8.56c-1.73.1-5.18.54-8.8,2.74-3.15,1.92-5.01,4.31-5.94,5.72l-10.17-6.37c1.62-1.3,5.51-4.05,11.24-4.76,6.78-.84,11.92,1.7,13.67,2.67Z"/><path class="cls-3" d="m36.63,17.67c-.36,3.67-1.7,6.39-2.56,7.84l-13.55-8.49c.93-1.41,2.79-3.8,5.94-5.72,3.62-2.2,7.07-2.64,8.8-2.74.66,1.6,1.77,4.9,1.37,9.11Z"/><path class="cls-1" d="m44.24,31.89l-10.17-6.38c.86-1.45,2.2-4.17,2.56-7.84.4-4.21-.71-7.51-1.37-9.11,1.64,1.15,6.16,4.66,8.36,11.14,1.86,5.46,1.08,10.17.62,12.19Z"/><path class="cls-7" d="m32,50.47c.13.12.26.23.4.33,1.36,1.01,2.83,1.19,3.62,1.2.75-.01,2.22-.19,3.58-1.2.14-.1.27-.21.4-.33.13.12.26.23.4.33,1.36,1.01,2.83,1.19,3.62,1.2.75-.01,2.22-.19,3.58-1.2.14-.1.27-.21.4-.33.13.12.26.23.4.33,1.36,1.01,2.83,1.19,3.62,1.2.75-.01,2.22-.19,3.58-1.2.14-.1.27-.21.4-.33.13.12.26.23.4.33,1.36,1.01,2.83,1.19,3.58,1.2h.02c.54,0,.99-.44,1-.98.01-.56-.43-1.01-.98-1.02h-.02c-.52-.01-1.5-.13-2.4-.8-.39-.29-.65-.59-.8-.8-.37-.5-1.23-.5-1.6,0-.15.21-.41.51-.8.8-.91.68-1.9.79-2.38.8-.52-.01-1.51-.12-2.42-.8-.39-.29-.65-.59-.8-.8-.37-.5-1.23-.5-1.6,0-.15.21-.41.51-.8.8-.91.68-1.9.79-2.38.8-.52-.01-1.51-.12-2.42-.8-.39-.29-.65-.59-.8-.8-.37-.5-1.23-.5-1.6,0-.15.21-.41.51-.8.8-.91.68-1.9.79-2.38.8-.52-.01-1.51-.12-2.42-.8-.39-.29-.65-.59-.8-.8-.37-.5-1.23-.5-1.6,0-.15.21-.41.51-.79.79-.45.33-.9.52-1.3.63l-1.17-2.99c-.41-1.05-.9-2.06-1.44-3.04.61.16,1.14.2,1.52.21.75-.01,2.22-.19,3.58-1.2.14-.1.27-.21.4-.33.13.12.26.23.4.33,1.36,1.01,2.83,1.19,3.62,1.2.75-.01,2.22-.19,3.58-1.2.14-.1.27-.21.4-.33.13.12.26.23.4.33,1.36,1.01,2.83,1.19,3.62,1.2.75-.01,2.22-.19,3.58-1.2.14-.1.27-.21.4-.33.13.12.26.23.4.33,1.36,1.01,2.83,1.19,3.62,1.2.75-.01,2.22-.19,3.58-1.2.14-.1.27-.21.4-.33.13.12.26.23.4.33,1.36,1.01,2.83,1.19,3.58,1.2h.02c.54,0,.99-.44,1-.98.01-.56-.43-1.01-.98-1.02-.52-.01-1.51-.12-2.42-.8-.39-.29-.65-.59-.8-.8-.37-.5-1.23-.5-1.6,0-.15.21-.41.51-.8.8-.91.68-1.9.79-2.38.8-.52-.01-1.51-.12-2.42-.8-.39-.29-.65-.59-.8-.8-.37-.5-1.23-.5-1.6,0-.15.21-.41.51-.8.8-.91.68-1.9.79-2.38.8-.52-.01-1.51-.12-2.42-.8-.39-.29-.65-.59-.8-.8-.37-.5-1.23-.5-1.6,0-.15.21-.41.51-.8.8-.91.68-1.9.79-2.38.8-.52-.01-1.51-.12-2.42-.8-.39-.29-.65-.59-.8-.8-.37-.5-1.23-.5-1.6,0-.15.21-.41.51-.8.8-.91.68-1.9.79-2.38.8-.52-.01-1.51-.12-2.42-.8-.39-.29-.65-.59-.8-.8-.19-.25-.52-.39-.8-.4-.02,0-.04.01-.06.01-.9-1.09-1.89-2.1-2.95-3.01l6.2-9.9,2.3,1.44c.33.21.7.31,1.06.31.42,0,.83-.13,1.18-.39l.62-.45-.15.55c-.24.86.11,1.75.87,2.22l6.87,4.31c.32.2.69.3,1.06.3.48,0,.95-.16,1.32-.49l2.58-2.26c.16-.14.27-.33.32-.53.67-2.96,1.1-7.58-.65-12.74-1.54-4.52-4.19-7.71-6.42-9.76l1.25-2.01c.3-.48.45-1.03.45-1.58,0-1.04-.53-2-1.4-2.54-.68-.43-1.48-.57-2.26-.39-.79.18-1.45.65-1.88,1.33l-1.25,2c-2.82-1.12-6.84-2.11-11.59-1.52-5.41.67-9.37,3.07-11.75,4.97-.16.13-.28.31-.34.51l-.91,3.31c-.23.86.12,1.75.87,2.23l6.87,4.3c.75.47,1.73.39,2.38-.19l.43-.37-.14.75c-.14.81.21,1.62.91,2.05l2.31,1.45-6.1,9.75c-3.4-1.71-7.22-2.66-11.23-2.66h-.77c-.55,0-1,.45-1,1v28c0,.55.45,1,1,1h28c.33,0,.64-.16.83-.44.11-.17.17-.36.17-.56,0-.12-.02-.24-.07-.36l-.25-.66c1.28.85,2.6,1.01,3.34,1.02.75-.01,2.22-.19,3.58-1.2.14-.1.27-.21.4-.33.13.12.26.23.4.33,1.36,1.01,2.83,1.19,3.62,1.2.75-.01,2.22-.19,3.58-1.2.14-.1.27-.21.4-.33.13.12.26.23.4.33,1.36,1.01,2.83,1.19,3.62,1.2.75-.01,2.22-.19,3.58-1.2.14-.1.27-.21.4-.33.13.12.26.23.4.33,1.36,1.01,2.83,1.19,3.58,1.2h.02c.54,0,.99-.44,1-.98.01-.56-.43-1.01-.98-1.02h-.02c-.52-.01-1.5-.13-2.4-.8-.39-.29-.65-.59-.8-.8-.37-.5-1.23-.5-1.6,0-.15.21-.41.51-.8.8-.91.68-1.9.79-2.38.8-.52-.01-1.51-.12-2.42-.8-.39-.29-.65-.59-.8-.8-.37-.5-1.23-.5-1.6,0-.15.21-.41.51-.8.8-.91.68-1.9.79-2.38.8-.52-.01-1.51-.12-2.42-.8-.39-.29-.65-.59-.8-.8-.37-.5-1.23-.5-1.6,0-.15.21-.41.51-.8.8-.91.68-1.9.79-2.38.8-.52-.01-1.51-.12-2.42-.8-.39-.29-.65-.59-.8-.8-.28-.38-.82-.47-1.24-.28l-1.73-4.43c.56-.17,1.17-.45,1.77-.89.14-.1.27-.21.4-.33Zm-27,8.53v-26c3.89.03,7.59,1.03,10.82,2.81,1.18.65,2.29,1.4,3.33,2.23,1.42,1.16,2.71,2.49,3.83,3.97,1.26,1.67,2.31,3.53,3.1,5.55l1.32,3.39,3.14,8.05H5ZM36.63,5.04c.26-.06.52-.02.75.13.29.18.47.5.47.85,0,.19-.05.37-.15.53l-1.1,1.76c-.27-.21-.53-.4-.76-.57-.03-.02-.06-.04-.1-.06-.25-.14-.53-.29-.83-.44l1.1-1.76c.14-.23.36-.38.62-.44Zm5.94,26.98l-1.57,1.38-6.87-4.31.55-2.01,7.89,4.94Zm-15.59-19.86c1.73-1.05,3.43-1.69,4.96-2.07.97-.25,1.87-.39,2.66-.48.27.74.53,1.62.73,2.6h0c.33,1.55.5,3.36.3,5.37-.22,2.26-.9,4.48-1.94,6.51l-4.16-2.61-3.4-2.12-4.16-2.61c1.37-1.83,3.07-3.41,5.01-4.59Zm-5.74,6.49l3.83,2.4,3.39,2.13,3.83,2.4-1.74,1.27-3.15-1.97-3.39-2.13-3.16-1.98.39-2.12Zm22.3,11.61l-8.13-5.09c1.2-2.3,1.97-4.83,2.21-7.4.23-2.37,0-4.49-.4-6.27,1.95,1.88,4.14,4.66,5.45,8.52,1.35,3.97,1.29,7.58.87,10.24Zm-11.76-22.19c-1.79.42-3.8,1.13-5.84,2.38-2.2,1.34-4.13,3.15-5.67,5.23l-8.15-5.1c2.21-1.54,5.43-3.18,9.59-3.7,4.05-.5,7.52.25,10.07,1.19Zm-20.82,4.14l7.89,4.94-1.57,1.38-6.88-4.31.56-2.01Zm12.84,12.77l1.69,1.06-6.08,9.71c-.54-.4-1.09-.77-1.66-1.12l6.05-9.65Z"/></svg>