<?xml version="1.0" encoding="UTF-8"?><svg id="Filled_Line" xmlns="http://www.w3.org/2000/svg" viewBox="0 0 64 64"><defs><style>.cls-1{fill:#b8c3d5;}.cls-2{fill:#e26677;}.cls-3{fill:#d85364;}.cls-4{fill:#1a2c3d;}.cls-5{fill:#759dd1;}</style></defs><path class="cls-1" d="m8,53v-9c0-.55.45-1,1-1h6c.55,0,1,.45,1,1v9h-8Z"/><path class="cls-1" d="m48,52v-8c0-.55.45-1,1-1h6c.55,0,1,.45,1,1v8h-8Z"/><path class="cls-3" d="m32,15c-3.17,0-6.61,0-11-1-2.65-.6-6.47-1.76-10.74-4.14l1.47-3.72c4.03,2.17,7.67,3.27,10.26,3.86,4.32.98,7.74,1,10,1s5.68-.02,10-1c2.6-.59,6.23-1.69,10.26-3.86l1.47,3.72c-4.27,2.38-8.09,3.54-10.74,4.14-4.39,1-7.83,1-11,1Z"/><path class="cls-3" d="m4,9.19c2.12-.66,4.6-1.62,7.26-3.05l1.48,3.72c-3.29,1.83-6.31,2.94-8.74,3.63v-4.3Z"/><path class="cls-3" d="m60,9.19c-2.12-.66-4.6-1.62-7.26-3.05l-1.48,3.72c3.29,1.83,6.31,2.94,8.74,3.63v-4.3Z"/><rect class="cls-3" x="4" y="28" width="56" height="4"/><path class="cls-5" d="m60,50v8h-3.3c-.1-.06-.2-.13-.3-.2-.14-.1-.27-.21-.4-.33-.13.12-.26.23-.4.33-.1.07-.2.14-.3.2h-6.6c-.1-.06-.2-.13-.3-.2-.14-.1-.27-.21-.4-.33-.13.12-.26.23-.4.33-.1.07-.2.14-.3.2h-6.6c-.1-.06-.2-.13-.3-.2-.14-.1-.27-.21-.4-.33-.13.12-.26.23-.4.33-.1.07-.2.14-.3.2h-6.6c-.1-.06-.2-.13-.3-.2-.14-.1-.27-.21-.4-.33-.13.12-.26.23-.4.33-.1.07-.2.14-.3.2h-6.6c-.1-.06-.2-.13-.3-.2-.14-.1-.27-.21-.4-.33-.13.12-.26.23-.4.33-.1.07-.2.14-.3.2h-6.6c-.1-.06-.2-.13-.3-.2-.14-.1-.27-.21-.4-.33-.13.12-.26.23-.4.33-.1.07-.2.14-.3.2h-6.6c-.1-.06-.2-.13-.3-.2-.14-.1-.27-.21-.4-.33-.13.12-.26.23-.4.33-.1.07-.2.14-.3.2h-3.3v-8c.57-.01,1.83-.13,3-1,.44-.33.77-.69,1-1,.23.31.56.67,1,1,1.17.87,2.43.99,3,1,.57-.01,1.83-.13,3-1,.44-.33.77-.69,1-1,.23.31.56.67,1,1,1.17.87,2.43.99,3,1,.57-.01,1.83-.13,3-1,.44-.33.77-.69,1-1,.23.31.56.67,1,1,1.17.87,2.43.99,3,1,.57-.01,1.83-.13,3-1,.44-.33.77-.69,1-1,.23.31.56.67,1,1,1.17.87,2.43.99,3,1,.57-.01,1.83-.13,3-1,.44-.33.77-.69,1-1,.23.31.56.67,1,1,1.17.87,2.43.99,3,1,.57-.01,1.83-.13,3-1,.44-.33.77-.69,1-1,.23.31.56.67,1,1,1.17.87,2.43.99,3,1,.57-.01,1.83-.13,3-1,.44-.33.77-.69,1-1,.23.31.56.67,1,1,1.17.87,2.43.99,3,1Z"/><path class="cls-2" d="m11,4h2c.55,0,1,.45,1,1v38h-4V5c0-.55.45-1,1-1Z"/><path class="cls-2" d="m50,4h4v38c0,.55-.45,1-1,1h-2c-.55,0-1-.45-1-1V4h0Z" transform="translate(104 47) rotate(-180)"/><path class="cls-4" d="m60.02,57h-.02c-.63-.02-1.56-.18-2.4-.8-.3-.23-.57-.49-.8-.8-.38-.5-1.22-.5-1.6,0-.23.31-.5.57-.8.8-.85.63-1.79.78-2.38.8-.63-.02-1.57-.17-2.42-.8-.3-.23-.57-.49-.8-.8-.38-.5-1.22-.5-1.6,0-.23.31-.5.57-.8.8-.85.63-1.79.78-2.38.8-.63-.02-1.57-.17-2.42-.8-.3-.23-.57-.49-.8-.8-.38-.5-1.22-.5-1.6,0-.23.31-.5.57-.8.8-.85.63-1.79.78-2.38.8-.63-.02-1.57-.17-2.42-.8-.3-.23-.57-.49-.8-.8-.38-.5-1.22-.5-1.6,0-.23.31-.5.57-.8.8-.85.63-1.79.78-2.38.8-.63-.02-1.57-.17-2.42-.8-.3-.23-.57-.49-.8-.8-.38-.5-1.22-.5-1.6,0-.23.31-.5.57-.8.8-.85.63-1.79.78-2.38.8-.63-.02-1.57-.17-2.42-.8-.3-.23-.57-.49-.8-.8-.38-.5-1.22-.5-1.6,0-.23.31-.5.57-.8.8-.85.63-1.79.78-2.38.8-.63-.02-1.57-.17-2.42-.8-.3-.23-.57-.49-.8-.8-.38-.5-1.22-.5-1.6,0-.23.31-.5.57-.8.8-.84.62-1.77.78-2.4.8h-.02c-.56.01-.99.47-.98,1.02.01.56.47,1,1.02.98.86-.02,2.09-.22,3.28-1,.1-.06.2-.13.3-.2.14-.1.27-.21.4-.33.13.12.26.23.4.33.1.07.2.14.3.2,1.19.78,2.43.98,3.32,1,.86-.02,2.09-.22,3.28-1,.1-.06.2-.13.3-.2.14-.1.27-.21.4-.33.13.12.26.23.4.33.1.07.2.14.3.2,1.19.78,2.43.98,3.32,1,.86-.02,2.09-.22,3.28-1,.1-.06.2-.13.3-.2.14-.1.27-.21.4-.33.13.12.26.23.4.33.1.07.2.14.3.2,1.19.78,2.43.98,3.32,1,.86-.02,2.09-.22,3.28-1,.1-.06.2-.13.3-.2.14-.1.27-.21.4-.33.13.12.26.23.4.33.1.07.2.14.3.2,1.19.78,2.43.98,3.32,1,.86-.02,2.09-.22,3.28-1,.1-.06.2-.13.3-.2.14-.1.27-.21.4-.33.13.12.26.23.4.33.1.07.2.14.3.2,1.19.78,2.43.98,3.32,1,.86-.02,2.09-.22,3.28-1,.1-.06.2-.13.3-.2.14-.1.27-.21.4-.33.13.12.26.23.4.33.1.07.2.14.3.2,1.19.78,2.43.98,3.32,1,.86-.02,2.09-.22,3.28-1,.1-.06.2-.13.3-.2.14-.1.27-.21.4-.33.13.12.26.23.4.33.1.07.2.14.3.2,1.19.78,2.42.98,3.28,1h.02c.54,0,.99-.43,1-.98.01-.55-.42-1.01-.98-1.02Zm-.02-24c.55,0,1-.45,1-1s-.45-1-1-1h-5v-2h5c.55,0,1-.45,1-1s-.45-1-1-1v-12.51c.44,0,.84-.29.96-.73.15-.53-.16-1.08-.69-1.23-.09-.03-.18-.05-.27-.08-1.67-.49-3.35-1.11-5-1.85v-2.24c1.53.69,3.11,1.29,4.71,1.79.09.03.19.04.29.04.43,0,.82-.28.96-.71.16-.52-.14-1.08-.67-1.25-1.8-.55-3.57-1.26-5.29-2.08v-1.15c0-1.1-.9-2-2-2h-2c-1.1,0-2,.9-2,2v1.61c-2.33,1.03-4.75,1.85-7.22,2.41-4.3.98-7.73.98-9.78.98s-5.48,0-9.78-.98c-2.47-.56-4.89-1.38-7.22-2.41v-1.61c0-1.1-.9-2-2-2h-2c-1.1,0-2,.9-2,2v1.15c-1.72.82-3.49,1.53-5.29,2.08-.53.17-.83.73-.67,1.25.14.43.53.71.96.71.1,0,.2-.01.29-.04,1.6-.5,3.18-1.1,4.71-1.79v2.24c-1.65.74-3.33,1.36-5,1.85-.09.03-.18.05-.27.08-.53.15-.84.7-.69,1.23.12.44.52.73.96.73v12.51c-.55,0-1,.45-1,1s.45,1,1,1h5v2h-5c-.55,0-1,.45-1,1s.45,1,1,1h5v9c-1.1,0-2,.9-2,2v3.63c-.18.21-.38.4-.6.57-.85.63-1.79.78-2.42.8-.56.01-.99.47-.98,1.02.01.55.46.97,1,.98h.02c.93-.02,2.3-.25,3.58-1.2.14-.1.27-.21.4-.33.13.12.26.23.4.33,1.28.95,2.65,1.18,3.62,1.2.93-.02,2.3-.25,3.58-1.2.14-.1.27-.21.4-.33.13.12.26.23.4.33,1.28.95,2.65,1.18,3.62,1.2.93-.02,2.3-.25,3.58-1.2.14-.1.27-.21.4-.33.13.12.26.23.4.33,1.28.95,2.65,1.18,3.62,1.2.93-.02,2.3-.25,3.58-1.2.14-.1.27-.21.4-.33.13.12.26.23.4.33,1.28.95,2.65,1.18,3.62,1.2.93-.02,2.3-.25,3.58-1.2.14-.1.27-.21.4-.33.13.12.26.23.4.33,1.28.95,2.65,1.18,3.62,1.2.93-.02,2.3-.25,3.58-1.2.14-.1.27-.21.4-.33.13.12.26.23.4.33,1.28.95,2.65,1.18,3.62,1.2.93-.02,2.3-.25,3.58-1.2.14-.1.27-.21.4-.33.13.12.26.23.4.33,1.28.95,2.65,1.18,3.58,1.2h.02c.54,0,.99-.43,1-.98.01-.55-.42-1.01-.98-1.02-.63-.02-1.57-.17-2.42-.8-.22-.17-.42-.36-.6-.57v-3.63c0-1.1-.9-2-2-2v-9h5Zm-7.98,16c-.63-.02-1.57-.17-2.42-.8-.22-.17-.42-.36-.6-.57v-3.63h6v3.63c-.18.21-.38.4-.6.57-.85.63-1.79.78-2.38.8Zm-5.02-1.37c-.18.21-.38.4-.6.57-.85.63-1.79.78-2.38.8-.63-.02-1.57-.17-2.42-.8-.3-.23-.57-.49-.8-.8-.38-.5-1.22-.5-1.6,0-.23.31-.5.57-.8.8-.85.63-1.79.78-2.38.8-.63-.02-1.57-.17-2.42-.8-.3-.23-.57-.49-.8-.8-.38-.5-1.22-.5-1.6,0-.23.31-.5.57-.8.8-.85.63-1.79.78-2.38.8-.63-.02-1.57-.17-2.42-.8-.3-.23-.57-.49-.8-.8-.38-.5-1.22-.5-1.6,0-.23.31-.5.57-.8.8-.85.63-1.79.78-2.38.8-.63-.02-1.57-.17-2.42-.8-.22-.17-.42-.36-.6-.57v-3.63c0-1.1-.9-2-2-2v-9h34v9c-1.1,0-2,.9-2,2v3.63Zm-34.98,1.37c-.63-.02-1.57-.17-2.42-.8-.22-.17-.42-.36-.6-.57v-3.63h6v3.63c-.18.21-.38.4-.6.57-.85.63-1.79.78-2.38.8Zm-1.02-44h2v37h-2V5Zm40,0h2v37h-2V5Zm7,22h-3v-14.21c.99.42,2,.79,3,1.13v13.08Zm-9,2v2H15v-2h34Zm-34-2v-13.81c1.32.52,2.66.97,4,1.34v12.47h-4Zm6,0v-11.98c1.42.32,2.75.53,4,.67v11.31h-4Zm6,0v-11.12c1.42.09,2.75.11,4,.12v11h-4Zm6,0v-11c1.25-.01,2.58-.03,4-.12v11.12h-4Zm6,0v-11.31c1.25-.14,2.58-.35,4-.67v11.98h-4Zm6,0v-12.47c1.34-.37,2.68-.82,4-1.34v13.81h-4Zm4-18.21v2.25c-2.04.84-4.13,1.51-6.22,1.98-4.28.98-7.59.98-10.78.98s-6.5,0-10.78-.98c-2.09-.47-4.18-1.14-6.22-1.98v-2.25c2.2.92,4.47,1.66,6.78,2.19,4.52,1.02,8.09,1.02,10.22,1.02s5.7,0,10.22-1.02c2.31-.53,4.58-1.27,6.78-2.19ZM6,13.92c1-.34,2.01-.71,3-1.13v14.21h-3v-13.08Z"/></svg>