<?xml version="1.0" encoding="UTF-8"?><svg id="Filled_Line" xmlns="http://www.w3.org/2000/svg" viewBox="0 0 64 64"><defs><style>.cls-1{fill:#edae65;}.cls-2{fill:#84c86c;}.cls-3{fill:#1a2c3d;}.cls-4{fill:#285132;}.cls-5{fill:#78b24c;}.cls-6{fill:#50823f;}</style></defs><path class="cls-4" d="m60,49H18.47c.89-.9,1.81-1.94,2.76-3.13,1.51-1.88,3.11-4.15,4.77-6.87,11-18,34-18,34-18-.09.09,0,28,0,28Z"/><path class="cls-6" d="m4,21s23,0,34,18c1.66,2.72,3.26,4.99,4.77,6.87.95,1.19,1.87,2.23,2.76,3.13H4s.09-27.91,0-28Z"/><path class="cls-5" d="m60,60H18.47c.89-.8,1.81-1.73,2.76-2.79,1.51-1.68,3.11-3.71,4.77-6.13,11-16.07,34-16.07,34-16.07-.09.08,0,25,0,25Z"/><path class="cls-2" d="m4,35s23,0,34,16.07c1.66,2.43,3.26,4.46,4.77,6.13.95,1.06,1.87,1.99,2.76,2.79H4s.09-24.92,0-25Z"/><circle class="cls-1" cx="32" cy="13" r="4"/><path class="cls-3" d="m61,21.1c.02-.16,0-.33-.07-.48-.15-.37-.52-.62-.92-.62-.67,0-16.22.13-28.02,10.4-11.85-10.25-27.79-10.4-27.98-10.4-.4,0-.77.24-.92.62-.06.16-.09.32-.07.48.02.65.03,29.41,0,38.89,0,.27.1.52.29.71.19.19.44.29.71.29h56c.27,0,.52-.11.71-.29.19-.19.29-.44.29-.71-.03-9.48-.03-38.24,0-38.89Zm-1.98.94c-.05,1.65-.05,5-.04,11.99-2.9.13-11.4.85-19.84,4.9-.04-.07-.09-.14-.13-.21l-.14-.23c-1.58-2.58-3.41-4.79-5.38-6.7,9.56-8.2,21.98-9.53,25.53-9.74Zm-21.86,17.49l.15.24s.03.05.05.07c-1.82.98-3.61,2.13-5.32,3.46-10.17-7.97-23.23-9.11-26.99-9.27,0-6.99,0-10.34-.04-11.99,4.46.26,22.86,2.27,32.16,17.49ZM5,59c.05-14.77.07-20.59-.02-22.96,4.46.23,22.9,2.02,32.19,15.6,1.6,2.33,3.23,4.43,4.85,6.24.35.39.7.77,1.04,1.13H5Zm53.99,0h-13.06c-.79-.73-1.6-1.55-2.42-2.46-1.56-1.74-3.14-3.77-4.69-6.03-1.55-2.26-3.32-4.2-5.22-5.89,9.55-7.23,21.87-8.4,25.41-8.58-.09,2.38-.07,8.19-.02,22.97Zm-27-41c2.76,0,5-2.24,5-5s-2.24-5-5-5-5,2.24-5,5,2.24,5,5,5Zm0-8c1.65,0,3,1.35,3,3s-1.35,3-3,3-3-1.35-3-3,1.35-3,3-3Zm-1-4v-1c0-.55.45-1,1-1s1,.45,1,1v1c0,.55-.45,1-1,1s-1-.45-1-1Zm-5.36,2.05c-.39-.39-.39-1.02,0-1.41s1.02-.39,1.41,0l.71.71c.39.39.39,1.02,0,1.41-.2.2-.45.29-.71.29s-.51-.1-.71-.29l-.71-.71Zm-2.64,4.95c0-.55.45-1,1-1h1c.55,0,1,.45,1,1s-.45,1-1,1h-1c-.55,0-1-.45-1-1Zm4.76,4.24c.39.39.39,1.02,0,1.41l-.71.71c-.2.2-.45.29-.71.29s-.51-.1-.71-.29c-.39-.39-.39-1.02,0-1.41l.71-.71c.39-.39,1.02-.39,1.41,0Zm4.24,1.76c.55,0,1,.45,1,1v1c0,.55-.45,1-1,1s-1-.45-1-1v-1c0-.55.45-1,1-1Zm5.66-1.76l.71.71c.39.39.39,1.02,0,1.41-.2.2-.45.29-.71.29s-.51-.1-.71-.29l-.71-.71c-.39-.39-.39-1.02,0-1.41s1.02-.39,1.41,0Zm1.34-5.24h1c.55,0,1,.45,1,1s-.45,1-1,1h-1c-.55,0-1-.45-1-1s.45-1,1-1Zm-2.76-3.24c-.39-.39-.39-1.02,0-1.41l.71-.71c.39-.39,1.02-.39,1.41,0s.39,1.02,0,1.41l-.71.71c-.2.2-.45.29-.71.29s-.51-.1-.71-.29Z"/></svg>