<?xml version="1.0" encoding="UTF-8"?><svg id="Filled_Line" xmlns="http://www.w3.org/2000/svg" viewBox="0 0 64 64"><defs><style>.cls-1{fill:#edae65;}.cls-2{fill:#d3dce5;}.cls-3{fill:#1a2c3d;}.cls-4{fill:#78b24c;}.cls-5{fill:#50823f;}</style></defs><path class="cls-5" d="m59.5,34.5v25.5H14.5c6.52-15.15,21.64-25.5,38.38-25.5h6.62Z"/><path class="cls-4" d="m50,60H4v-26h6.77c17.11,0,32.57,10.24,39.23,26Z"/><path class="cls-2" d="m17.97,7.48c-.95-.46-1.8-.39-2.56-.12,0-.07.02-.14.02-.22,0-1.89-1.54-3.43-3.43-3.43s-3.43,1.54-3.43,3.43c0,.07.02.14.02.22-.76-.27-1.61-.34-2.56.12-1.28.62-2.03,1.97-2.03,3.39h0c0,1.73,1.41,3.14,3.14,3.14h9.72c1.73,0,3.14-1.41,3.14-3.14h0c0-1.42-.76-2.77-2.03-3.39Z"/><path class="cls-2" d="m57.97,16.48c-.95-.46-1.8-.39-2.56-.12,0-.07.02-.14.02-.22,0-1.89-1.54-3.43-3.43-3.43s-3.43,1.54-3.43,3.43c0,.07.02.14.02.22-.76-.27-1.61-.34-2.56.12-1.28.62-2.03,1.97-2.03,3.39h0c0,1.73,1.41,3.14,3.14,3.14h9.72c1.73,0,3.14-1.41,3.14-3.14h0c0-1.42-.76-2.77-2.03-3.39Z"/><circle class="cls-1" cx="32" cy="13" r="4"/><path class="cls-3" d="m60,33h-6.77c-7.41,0-14.73,1.92-21.2,5.52-6.36-3.55-13.64-5.52-21.26-5.52h-6.77c-.55,0-1,.45-1,1v26c0,.55.45,1,1,1h56c.55,0,1-.45,1-1v-26c0-.55-.45-1-1-1Zm-12.71,19.78c3.77-1.44,7.7-2.33,11.71-2.64v3.33c-3.34.47-6.62,1.34-9.78,2.6-.6-1.13-1.25-2.22-1.94-3.29Zm11.71-9.78c-5.8.03-11.42,1.19-16.73,3.44-.95-.99-1.94-1.93-2.97-2.83,5.3-2.36,11.12-3.62,16.93-3.62h2.77v3.01Zm0,2v3.14c-4.42.33-8.74,1.32-12.87,2.95-.77-1.06-1.58-2.09-2.43-3.07,4.87-1.97,10.01-2.99,15.3-3.01Zm-5.77-10.01h5.77v3h-2.77c-6.42,0-12.85,1.46-18.65,4.21-1.14-.89-2.32-1.72-3.55-2.49,5.92-3.08,12.51-4.72,19.19-4.72Zm-14.73,24c-8.26-10.11-20.43-15.93-33.5-15.99v-3.01h2.77c14.09,0,27.28,7.24,34.89,19h-4.16Zm-7.8,0c-7.14-6.33-16.22-10.16-25.7-10.86v-3.13c11.91.06,23.04,5.13,30.89,13.99h-5.18Zm-9.88,0c-4.91-2.88-10.23-4.74-15.82-5.53v-3.32c8.22.63,16.11,3.74,22.58,8.85h-6.76Zm-15.82,0v-3.51c4.02.6,7.89,1.77,11.55,3.51H5Zm40.03,0c-7.85-12.96-22.07-21-37.26-21h-2.77v-3h5.77c16.24,0,30.87,9.37,37.69,24h-3.43Zm5.62,0c-.17-.38-.34-.76-.52-1.14,2.87-1.12,5.84-1.92,8.87-2.37v3.5h-8.35ZM7.14,15h9.72c2.28,0,4.14-1.86,4.14-4.14,0-1.84-1.02-3.52-2.6-4.29-.68-.33-1.37-.47-2.08-.42-.45-1.97-2.21-3.44-4.32-3.44s-3.87,1.47-4.32,3.44c-.71-.05-1.41.1-2.08.42-1.58.76-2.6,2.44-2.6,4.29,0,2.28,1.86,4.14,4.14,4.14Zm-.67-6.62c.32-.15.64-.23.96-.23.27,0,.54.05.82.16.32.11.67.06.94-.14.27-.2.42-.52.4-.86,0-.03-.02-.13-.02-.16,0-1.34,1.09-2.43,2.43-2.43s2.43,1.09,2.43,2.41c0,.03-.02.15-.02.18-.02.34.13.66.4.86.27.2.62.25.94.14.63-.23,1.2-.21,1.78.08.89.43,1.47,1.41,1.47,2.49,0,1.18-.96,2.14-2.14,2.14H7.14c-1.18,0-2.14-.96-2.14-2.14,0-1.08.58-2.05,1.47-2.49Zm40.67,15.62h9.72c2.28,0,4.14-1.86,4.14-4.14,0-1.84-1.02-3.52-2.6-4.29-.68-.33-1.37-.47-2.08-.42-.45-1.97-2.21-3.44-4.32-3.44s-3.87,1.47-4.32,3.44c-.72-.05-1.41.1-2.08.42-1.58.76-2.6,2.44-2.6,4.29,0,2.28,1.86,4.14,4.14,4.14Zm-.67-6.62c.32-.15.64-.23.96-.23.27,0,.54.05.82.16.32.11.67.06.94-.14.27-.2.42-.52.4-.86,0-.03-.02-.13-.02-.16,0-1.34,1.09-2.43,2.43-2.43s2.43,1.09,2.43,2.41c0,.03-.02.15-.02.18-.02.34.13.66.4.86.27.2.62.25.94.14.63-.23,1.2-.21,1.78.08.89.43,1.47,1.41,1.47,2.49,0,1.18-.96,2.14-2.14,2.14h-9.72c-1.18,0-2.14-.96-2.14-2.14,0-1.08.58-2.05,1.47-2.49Zm-14.47.62c2.76,0,5-2.24,5-5s-2.24-5-5-5-5,2.24-5,5,2.24,5,5,5Zm0-8c1.65,0,3,1.35,3,3s-1.35,3-3,3-3-1.35-3-3,1.35-3,3-3Zm-1-4v-1c0-.55.45-1,1-1s1,.45,1,1v1c0,.55-.45,1-1,1s-1-.45-1-1Zm-5.36,2.05c-.39-.39-.39-1.02,0-1.41s1.02-.39,1.41,0l.71.71c.39.39.39,1.02,0,1.41-.2.2-.45.29-.71.29s-.51-.1-.71-.29l-.71-.71Zm-2.64,4.95c0-.55.45-1,1-1h1c.55,0,1,.45,1,1s-.45,1-1,1h-1c-.55,0-1-.45-1-1Zm4.76,4.24c.39.39.39,1.02,0,1.41l-.71.71c-.2.2-.45.29-.71.29s-.51-.1-.71-.29c-.39-.39-.39-1.02,0-1.41l.71-.71c.39-.39,1.02-.39,1.41,0Zm4.24,1.76c.55,0,1,.45,1,1v1c0,.55-.45,1-1,1s-1-.45-1-1v-1c0-.55.45-1,1-1Zm5.66-1.76l.71.71c.39.39.39,1.02,0,1.41-.2.2-.45.29-.71.29s-.51-.1-.71-.29l-.71-.71c-.39-.39-.39-1.02,0-1.41s1.02-.39,1.41,0Zm1.34-5.24h1c.55,0,1,.45,1,1s-.45,1-1,1h-1c-.55,0-1-.45-1-1s.45-1,1-1Zm-2.76-3.24c-.39-.39-.39-1.02,0-1.41l.71-.71c.39-.39,1.02-.39,1.41,0s.39,1.02,0,1.41l-.71.71c-.2.2-.45.29-.71.29s-.51-.1-.71-.29Z"/></svg>