<?xml version="1.0" encoding="UTF-8"?><svg id="Filled_Line" xmlns="http://www.w3.org/2000/svg" viewBox="0 0 64 64"><defs><style>.cls-1{fill:#a26a55;}.cls-2{fill:#d3dce5;}.cls-3{fill:#1a2c3d;}.cls-4{fill:#536882;}.cls-5{fill:#759dd1;}.cls-6{fill:#78b24c;}</style></defs><rect class="cls-1" x="4" y="20" width="21" height="33"/><rect class="cls-1" x="39" y="20" width="21" height="33"/><path class="cls-5" d="m60,50v8h-3.3c-.1-.06-.2-.13-.3-.2-.14-.1-.27-.21-.4-.33-.13.12-.26.23-.4.33-.1.07-.2.14-.3.2h-6.6c-.1-.06-.2-.13-.3-.2-.14-.1-.27-.21-.4-.33-.13.12-.26.23-.4.33-.1.07-.2.14-.3.2h-6.6c-.1-.06-.2-.13-.3-.2-.14-.1-.27-.21-.4-.33-.13.12-.26.23-.4.33-.1.07-.2.14-.3.2h-6.6c-.1-.06-.2-.13-.3-.2-.14-.1-.27-.21-.4-.33-.13.12-.26.23-.4.33-.1.07-.2.14-.3.2h-6.6c-.1-.06-.2-.13-.3-.2-.14-.1-.27-.21-.4-.33-.13.12-.26.23-.4.33-.1.07-.2.14-.3.2h-6.6c-.1-.06-.2-.13-.3-.2-.14-.1-.27-.21-.4-.33-.13.12-.26.23-.4.33-.1.07-.2.14-.3.2h-6.6c-.1-.06-.2-.13-.3-.2-.14-.1-.27-.21-.4-.33-.13.12-.26.23-.4.33-.1.07-.2.14-.3.2h-3.3v-8c.57-.01,1.83-.13,3-1,.44-.33.77-.69,1-1,.23.31.56.67,1,1,1.17.87,2.43.99,3,1,.57-.01,1.83-.13,3-1,.44-.33.77-.69,1-1,.23.31.56.67,1,1,1.17.87,2.43.99,3,1,.43-.01,1.25-.08,2.13-.49.29-.13.58-.29.87-.51.01-.01.03-.02.04-.03.42-.32.74-.67.96-.97.23.31.56.67,1,1,1.17.87,2.43.99,3,1,.57-.01,1.83-.13,3-1,.44-.33.77-.69,1-1,.23.31.56.67,1,1,1.17.87,2.43.99,3,1,.57-.01,1.83-.13,3-1,.44-.33.77-.69,1-1,.22.3.54.65.96.97,0,.01.03.02.04.03.29.22.58.38.87.51.88.41,1.7.48,2.13.49.57-.01,1.83-.13,3-1,.44-.33.77-.69,1-1,.23.31.56.67,1,1,1.17.87,2.43.99,3,1,.57-.01,1.83-.13,3-1,.44-.33.77-.69,1-1,.23.31.56.67,1,1,1.17.87,2.43.99,3,1Z"/><path class="cls-5" d="m39,51h-14V8c1.69-.49,4.09-1,7-1,1.76,0,4.21.18,7,1v43Z"/><path class="cls-4" d="m39,14h21V5.57s-3.4,2.06-3.4,2.06c-.36.22-.81.19-1.14-.07l-3.05-2.43c-.26-.2-.6-.27-.91-.18l-3.32.99c-.12.04-.23.1-.33.17l-1.98,1.56c-.25.2-.59.27-.9.18l-2.68-.77c-.19-.06-.4-.05-.59.01l-2.71.9v6Z"/><rect class="cls-6" x="39" y="14" width="21" height="6"/><path class="cls-4" d="m25,14H4V5.57s3.4,2.06,3.4,2.06c.36.22.81.19,1.14-.07l3.05-2.43c.26-.2.6-.27.91-.18l3.32.99c.12.04.23.1.33.17l1.98,1.56c.25.2.59.27.9.18l2.68-.77c.19-.06.4-.05.59.01l2.71.9v6Z"/><rect class="cls-6" x="4" y="14" width="21" height="6"/><path class="cls-2" d="m42,48.54h0c0,2.12-1.72,3.85-3.85,3.85h-12.31c-2.12,0-3.85-1.72-3.85-3.85h0c0-1.46,1.02-2.68,2.38-3,.32-1.37,1.54-2.38,3-2.38.63,0,1.22.19,1.72.52.42-1.2,1.55-2.06,2.9-2.06s2.48.86,2.9,2.06c.49-.33,1.08-.52,1.72-.52,1.46,0,2.68,1.02,3,2.38,1.37.32,2.38,1.54,2.38,3Z"/><path class="cls-3" d="m35,31c-.55,0-1,.45-1,1v3.49c0,.55.45,1,1,1s1-.45,1-1v-3.49c0-.55-.45-1-1-1Zm0-14c-.55,0-1,.45-1,1v5.49c0,.55.45,1,1,1s1-.45,1-1v-5.49c0-.55-.45-1-1-1Zm-6,6c-.55,0-1,.45-1,1v5.49c0,.55.45,1,1,1s1-.45,1-1v-5.49c0-.55-.45-1-1-1Zm0-11c-.55,0-1,.45-1,1v3.49c0,.55.45,1,1,1s1-.45,1-1v-3.49c0-.55-.45-1-1-1Zm6,19c-.55,0-1,.45-1,1v3.49c0,.55.45,1,1,1s1-.45,1-1v-3.49c0-.55-.45-1-1-1Zm0-14c-.55,0-1,.45-1,1v5.49c0,.55.45,1,1,1s1-.45,1-1v-5.49c0-.55-.45-1-1-1Zm-6,6c-.55,0-1,.45-1,1v5.49c0,.55.45,1,1,1s1-.45,1-1v-5.49c0-.55-.45-1-1-1Zm0-11c-.55,0-1,.45-1,1v3.49c0,.55.45,1,1,1s1-.45,1-1v-3.49c0-.55-.45-1-1-1Zm0,0c-.55,0-1,.45-1,1v3.49c0,.55.45,1,1,1s1-.45,1-1v-3.49c0-.55-.45-1-1-1Zm0,11c-.55,0-1,.45-1,1v5.49c0,.55.45,1,1,1s1-.45,1-1v-5.49c0-.55-.45-1-1-1Zm6-6c-.55,0-1,.45-1,1v5.49c0,.55.45,1,1,1s1-.45,1-1v-5.49c0-.55-.45-1-1-1Zm0,14c-.55,0-1,.45-1,1v3.49c0,.55.45,1,1,1s1-.45,1-1v-3.49c0-.55-.45-1-1-1Zm0,0c-.55,0-1,.45-1,1v3.49c0,.55.45,1,1,1s1-.45,1-1v-3.49c0-.55-.45-1-1-1Zm0-14c-.55,0-1,.45-1,1v5.49c0,.55.45,1,1,1s1-.45,1-1v-5.49c0-.55-.45-1-1-1Zm-6,6c-.55,0-1,.45-1,1v5.49c0,.55.45,1,1,1s1-.45,1-1v-5.49c0-.55-.45-1-1-1Zm0-11c-.55,0-1,.45-1,1v3.49c0,.55.45,1,1,1s1-.45,1-1v-3.49c0-.55-.45-1-1-1Zm0,0c-.55,0-1,.45-1,1v3.49c0,.55.45,1,1,1s1-.45,1-1v-3.49c0-.55-.45-1-1-1Zm0,11c-.55,0-1,.45-1,1v5.49c0,.55.45,1,1,1s1-.45,1-1v-5.49c0-.55-.45-1-1-1Zm6-6c-.55,0-1,.45-1,1v5.49c0,.55.45,1,1,1s1-.45,1-1v-5.49c0-.55-.45-1-1-1Zm0,14c-.55,0-1,.45-1,1v3.49c0,.55.45,1,1,1s1-.45,1-1v-3.49c0-.55-.45-1-1-1Zm0,0c-.55,0-1,.45-1,1v3.49c0,.55.45,1,1,1s1-.45,1-1v-3.49c0-.55-.45-1-1-1Zm0-14c-.55,0-1,.45-1,1v5.49c0,.55.45,1,1,1s1-.45,1-1v-5.49c0-.55-.45-1-1-1Zm-6,6c-.55,0-1,.45-1,1v5.49c0,.55.45,1,1,1s1-.45,1-1v-5.49c0-.55-.45-1-1-1Zm0-11c-.55,0-1,.45-1,1v3.49c0,.55.45,1,1,1s1-.45,1-1v-3.49c0-.55-.45-1-1-1Zm0,0c-.55,0-1,.45-1,1v3.49c0,.55.45,1,1,1s1-.45,1-1v-3.49c0-.55-.45-1-1-1Zm0,11c-.55,0-1,.45-1,1v5.49c0,.55.45,1,1,1s1-.45,1-1v-5.49c0-.55-.45-1-1-1Zm6-6c-.55,0-1,.45-1,1v5.49c0,.55.45,1,1,1s1-.45,1-1v-5.49c0-.55-.45-1-1-1Zm0,14c-.55,0-1,.45-1,1v3.49c0,.55.45,1,1,1s1-.45,1-1v-3.49c0-.55-.45-1-1-1Zm0,0c-.55,0-1,.45-1,1v3.49c0,.55.45,1,1,1s1-.45,1-1v-3.49c0-.55-.45-1-1-1Zm0-14c-.55,0-1,.45-1,1v5.49c0,.55.45,1,1,1s1-.45,1-1v-5.49c0-.55-.45-1-1-1Zm-6,6c-.55,0-1,.45-1,1v5.49c0,.55.45,1,1,1s1-.45,1-1v-5.49c0-.55-.45-1-1-1Zm0-11c-.55,0-1,.45-1,1v3.49c0,.55.45,1,1,1s1-.45,1-1v-3.49c0-.55-.45-1-1-1Zm31,9c.55,0,1-.45,1-1s-.45-1-1-1h-20v-4h20c.55,0,1-.45,1-1s-.45-1-1-1h-20v-4.28l2.02-.67,2.68.77c.62.18,1.29.05,1.79-.35l1.98-1.57,3.31-.98,3.05,2.43c.65.52,1.57.58,2.29.14l2.88-1.74.52-.32c.47-.29.62-.9.33-1.37-.28-.48-.9-.63-1.37-.34l-3.4,2.06-3.05-2.43c-.51-.41-1.19-.54-1.82-.35l-3.31.99c-.25.07-.47.19-.67.34l-1.98,1.57-2.68-.78c-.39-.11-.8-.1-1.18.03l-2.43.81c-4.48-1.25-9.33-1.27-13.92,0l-2.43-.81c-.38-.13-.79-.14-1.19-.03l-2.67.78-1.98-1.56c-.2-.16-.42-.28-.67-.35l-3.31-.99c-.63-.19-1.31-.06-1.82.35l-3.05,2.43-3.4-2.06c-.47-.29-1.09-.14-1.37.34-.29.47-.14,1.08.33,1.37l.52.32,2.88,1.74c.72.43,1.64.38,2.29-.14l3.05-2.43,3.31.98,1.98,1.57c.5.4,1.18.53,1.79.35l2.68-.77,2.02.67v4.28H4c-.55,0-1,.45-1,1s.45,1,1,1h20v4H4c-.55,0-1,.45-1,1s.45,1,1,1h20v22.97c-.16.24-.31.49-.41.77-1.55.6-2.59,2.09-2.59,3.8,0,.1.02.2.03.3-.4.11-.76.15-1.01.16-.52-.01-1.51-.12-2.42-.8-.38-.29-.65-.59-.8-.8-.37-.5-1.23-.5-1.6,0-.15.21-.42.51-.8.8-.91.68-1.9.79-2.38.8-.52-.01-1.51-.12-2.42-.8-.38-.29-.65-.59-.8-.8-.37-.5-1.23-.5-1.6,0-.15.21-.42.51-.8.8-.9.67-1.88.79-2.4.8h-.02c-.55.01-.99.46-.98,1.02.01.54.46.98,1,.98h.02c.75-.01,2.22-.19,3.58-1.2.14-.1.27-.21.4-.33.13.12.26.23.4.33,1.36,1.01,2.83,1.19,3.62,1.2.75-.01,2.22-.19,3.58-1.2.14-.1.27-.21.4-.33.13.12.26.23.4.33,1.36,1.01,2.83,1.19,3.62,1.2.4-.01.95-.07,1.55-.23.52.99,1.38,1.79,2.42,2.23.57.24,1.2.38,1.86.38h12.3c.66,0,1.29-.14,1.86-.38,1.04-.44,1.9-1.24,2.42-2.23.61.16,1.16.22,1.59.23.75-.01,2.22-.19,3.58-1.2.14-.1.27-.21.4-.33.13.12.26.23.4.33,1.36,1.01,2.83,1.19,3.62,1.2.75-.01,2.22-.19,3.58-1.2.14-.1.27-.21.4-.33.13.12.26.23.4.33,1.36,1.01,2.83,1.19,3.58,1.2h.02c.54,0,.99-.44,1-.98.01-.56-.43-1.01-.98-1.02h-.02c-.52-.01-1.5-.13-2.4-.8-.38-.29-.65-.59-.8-.8-.37-.5-1.23-.5-1.6,0-.15.21-.42.51-.8.8-.91.68-1.9.79-2.38.8-.52-.01-1.51-.12-2.42-.8-.38-.29-.65-.59-.8-.8-.37-.5-1.23-.5-1.6,0-.15.21-.42.51-.8.8-.91.68-1.9.79-2.38.8-.27-.01-.64-.05-1.05-.16.01-.1.03-.2.03-.3,0-1.71-1.04-3.2-2.59-3.8-.1-.28-.25-.53-.41-.77v-22.97h20Zm-19.04,27.97c-.16,1.08-.94,1.96-1.96,2.28-.27.09-.55.13-.85.13h-12.3c-.3,0-.58-.04-.85-.13-1.02-.32-1.8-1.2-1.96-2.28-.03-.14-.04-.28-.04-.43,0-.98.66-1.81,1.61-2.03.14-.03.28-.09.39-.19.18-.13.31-.33.36-.56.22-.94,1.05-1.61,2.02-1.61.42,0,.82.13,1.16.36.26.17.58.22.88.11.29-.09.52-.32.62-.62.29-.83,1.08-1.38,1.96-1.38s1.67.55,1.96,1.38c.1.3.33.53.62.62.3.11.62.06.88-.11.34-.23.74-.36,1.16-.36.97,0,1.8.67,2.02,1.61.05.23.18.43.36.56.11.1.25.16.39.19.95.22,1.61,1.05,1.61,2.03,0,.15-.01.29-.04.43ZM26,8.76c3.96-1.02,8.13-1,12,0v33.64c-.43-.15-.9-.25-1.38-.25-.44,0-.87.07-1.28.21-.75-1.07-1.99-1.74-3.34-1.74s-2.59.67-3.34,1.74c-.41-.14-.84-.21-1.28-.21-.48,0-.95.1-1.38.25V8.76Zm9,27.73c.55,0,1-.45,1-1v-3.49c0-.55-.45-1-1-1s-1,.45-1,1v3.49c0,.55.45,1,1,1Zm0-12c.55,0,1-.45,1-1v-5.49c0-.55-.45-1-1-1s-1,.45-1,1v5.49c0,.55.45,1,1,1Zm-6,6c.55,0,1-.45,1-1v-5.49c0-.55-.45-1-1-1s-1,.45-1,1v5.49c0,.55.45,1,1,1Zm0-13c.55,0,1-.45,1-1v-3.49c0-.55-.45-1-1-1s-1,.45-1,1v3.49c0,.55.45,1,1,1Zm0-5.49c-.55,0-1,.45-1,1v3.49c0,.55.45,1,1,1s1-.45,1-1v-3.49c0-.55-.45-1-1-1Zm0,11c-.55,0-1,.45-1,1v5.49c0,.55.45,1,1,1s1-.45,1-1v-5.49c0-.55-.45-1-1-1Zm6-6c-.55,0-1,.45-1,1v5.49c0,.55.45,1,1,1s1-.45,1-1v-5.49c0-.55-.45-1-1-1Zm0,14c-.55,0-1,.45-1,1v3.49c0,.55.45,1,1,1s1-.45,1-1v-3.49c0-.55-.45-1-1-1Zm0,0c-.55,0-1,.45-1,1v3.49c0,.55.45,1,1,1s1-.45,1-1v-3.49c0-.55-.45-1-1-1Zm0-14c-.55,0-1,.45-1,1v5.49c0,.55.45,1,1,1s1-.45,1-1v-5.49c0-.55-.45-1-1-1Zm-6,6c-.55,0-1,.45-1,1v5.49c0,.55.45,1,1,1s1-.45,1-1v-5.49c0-.55-.45-1-1-1Zm0-11c-.55,0-1,.45-1,1v3.49c0,.55.45,1,1,1s1-.45,1-1v-3.49c0-.55-.45-1-1-1Zm0,0c-.55,0-1,.45-1,1v3.49c0,.55.45,1,1,1s1-.45,1-1v-3.49c0-.55-.45-1-1-1Zm0,11c-.55,0-1,.45-1,1v5.49c0,.55.45,1,1,1s1-.45,1-1v-5.49c0-.55-.45-1-1-1Zm6-6c-.55,0-1,.45-1,1v5.49c0,.55.45,1,1,1s1-.45,1-1v-5.49c0-.55-.45-1-1-1Zm0,14c-.55,0-1,.45-1,1v3.49c0,.55.45,1,1,1s1-.45,1-1v-3.49c0-.55-.45-1-1-1Zm0,0c-.55,0-1,.45-1,1v3.49c0,.55.45,1,1,1s1-.45,1-1v-3.49c0-.55-.45-1-1-1Zm0-14c-.55,0-1,.45-1,1v5.49c0,.55.45,1,1,1s1-.45,1-1v-5.49c0-.55-.45-1-1-1Zm-6,6c-.55,0-1,.45-1,1v5.49c0,.55.45,1,1,1s1-.45,1-1v-5.49c0-.55-.45-1-1-1Zm0-11c-.55,0-1,.45-1,1v3.49c0,.55.45,1,1,1s1-.45,1-1v-3.49c0-.55-.45-1-1-1Zm0,0c-.55,0-1,.45-1,1v3.49c0,.55.45,1,1,1s1-.45,1-1v-3.49c0-.55-.45-1-1-1Zm0,11c-.55,0-1,.45-1,1v5.49c0,.55.45,1,1,1s1-.45,1-1v-5.49c0-.55-.45-1-1-1Zm6-6c-.55,0-1,.45-1,1v5.49c0,.55.45,1,1,1s1-.45,1-1v-5.49c0-.55-.45-1-1-1Zm0,14c-.55,0-1,.45-1,1v3.49c0,.55.45,1,1,1s1-.45,1-1v-3.49c0-.55-.45-1-1-1Zm0,0c-.55,0-1,.45-1,1v3.49c0,.55.45,1,1,1s1-.45,1-1v-3.49c0-.55-.45-1-1-1Zm0-14c-.55,0-1,.45-1,1v5.49c0,.55.45,1,1,1s1-.45,1-1v-5.49c0-.55-.45-1-1-1Zm-6,6c-.55,0-1,.45-1,1v5.49c0,.55.45,1,1,1s1-.45,1-1v-5.49c0-.55-.45-1-1-1Zm0-11c-.55,0-1,.45-1,1v3.49c0,.55.45,1,1,1s1-.45,1-1v-3.49c0-.55-.45-1-1-1Zm31.02,45h-.02c-.63-.01-1.56-.18-2.4-.8-.3-.22-.57-.49-.8-.8-.38-.5-1.22-.5-1.6,0-.23.31-.5.58-.8.8-.85.63-1.79.79-2.38.8-.63-.01-1.57-.17-2.42-.8-.3-.22-.57-.49-.8-.8-.38-.5-1.22-.5-1.6,0-.23.31-.5.58-.8.8-.85.63-1.79.79-2.38.8-.63-.01-1.57-.17-2.42-.8-.3-.22-.57-.49-.8-.8-.38-.5-1.22-.5-1.6,0-.23.31-.5.58-.8.8-.85.63-1.79.79-2.38.8-.63-.01-1.57-.17-2.42-.8-.3-.22-.57-.49-.8-.8-.38-.5-1.22-.5-1.6,0-.23.31-.5.58-.8.8-.85.63-1.79.79-2.38.8-.63-.01-1.57-.17-2.42-.8-.3-.22-.57-.49-.8-.8-.38-.5-1.22-.5-1.6,0-.23.31-.5.58-.8.8-.85.63-1.79.79-2.38.8-.63-.01-1.57-.17-2.42-.8-.3-.22-.57-.49-.8-.8-.38-.5-1.22-.5-1.6,0-.23.31-.5.58-.8.8-.85.63-1.79.79-2.38.8-.63-.01-1.57-.17-2.42-.8-.3-.22-.57-.49-.8-.8-.38-.5-1.22-.5-1.6,0-.23.31-.5.58-.8.8-.84.62-1.77.79-2.4.8h-.02c-.56.01-.99.47-.98,1.02.01.56.46.99,1.02.98.86-.02,2.09-.22,3.28-1,.1-.06.2-.13.3-.2.14-.1.27-.21.4-.33.13.12.26.23.4.33.1.07.2.14.3.2,1.19.78,2.43.98,3.32,1,.86-.02,2.09-.22,3.28-1,.1-.06.2-.13.3-.2.14-.1.27-.21.4-.33.13.12.26.23.4.33.1.07.2.14.3.2,1.19.78,2.43.98,3.32,1,.86-.02,2.09-.22,3.28-1,.1-.06.2-.13.3-.2.14-.1.27-.21.4-.33.13.12.26.23.4.33.1.07.2.14.3.2,1.19.78,2.43.98,3.32,1,.86-.02,2.09-.22,3.28-1,.1-.06.2-.13.3-.2.14-.1.27-.21.4-.33.13.12.26.23.4.33.1.07.2.14.3.2,1.19.78,2.43.98,3.32,1,.86-.02,2.09-.22,3.28-1,.1-.06.2-.13.3-.2.14-.1.27-.21.4-.33.13.12.26.23.4.33.1.07.2.14.3.2,1.19.78,2.43.98,3.32,1,.86-.02,2.09-.22,3.28-1,.1-.06.2-.13.3-.2.14-.1.27-.21.4-.33.13.12.26.23.4.33.1.07.2.14.3.2,1.19.78,2.43.98,3.32,1,.86-.02,2.09-.22,3.28-1,.1-.06.2-.13.3-.2.14-.1.27-.21.4-.33.13.12.26.23.4.33.1.07.2.14.3.2,1.19.78,2.42.98,3.28,1h.02c.54,0,.99-.43,1-.98.01-.55-.42-1.01-.98-1.02Z"/></svg>