<?xml version="1.0" encoding="UTF-8"?><svg id="Filled_Line" xmlns="http://www.w3.org/2000/svg" viewBox="0 0 64 64"><defs><style>.cls-1{fill:#b8c3d5;}.cls-2{fill:#d3dce5;}.cls-3{fill:#e26677;}.cls-4{fill:#1a2c3d;}.cls-5{fill:#759dd1;}</style></defs><rect class="cls-2" x="26" y="15" width="12" height="10"/><path class="cls-3" d="m39,14.25c0,.55-.45,1-1,1h-12c-.55,0-1-.45-1-1,0-5.7,4.48-7.88,6.85-8.24.1-.01.2-.01.3,0,2.37.36,6.85,2.54,6.85,8.24Z"/><path class="cls-3" d="m40,15.25h-16c-.55,0-1-.45-1-1s.45-1,1-1h16c.55,0,1,.45,1,1s-.45,1-1,1Z"/><path class="cls-3" d="m37.95,29h-11.89c-.43,0-.81-.28-.95-.68l-.67-2c-.22-.65.27-1.32.95-1.32h13.23c.68,0,1.16.67.95,1.32l-.67,2c-.14.41-.52.68-.95.68Z"/><path class="cls-1" d="m32,19h0c1.1,0,2,.9,2,2v4h-4v-4c0-1.1.9-2,2-2Z"/><polygon class="cls-2" points="37.36 34 26.64 34 27 29 37 29 37.36 34"/><polygon class="cls-3" points="37.73 39 26.27 39 26.64 34 37.36 34 37.73 39"/><polygon class="cls-2" points="38.09 44 25.91 44 26.27 39 37.73 39 38.09 44"/><polygon class="cls-3" points="38.62 51.25 25.38 51.25 25.91 44 38.09 44 38.62 51.25"/><path class="cls-5" d="m60,50v8h-3.3c-.1-.06-.2-.13-.3-.2-.14-.1-.27-.21-.4-.33-.13.12-.26.23-.4.33-.1.07-.2.14-.3.2h-6.6c-.1-.06-.2-.13-.3-.2-.14-.1-.27-.21-.4-.33-.13.12-.26.23-.4.33-.1.07-.2.14-.3.2h-6.6c-.1-.06-.2-.13-.3-.2-.14-.1-.27-.21-.4-.33-.13.12-.26.23-.4.33-.1.07-.2.14-.3.2h-6.6c-.1-.06-.2-.13-.3-.2-.14-.1-.27-.21-.4-.33-.13.12-.26.23-.4.33-.1.07-.2.14-.3.2h-6.6c-.1-.06-.2-.13-.3-.2-.14-.1-.27-.21-.4-.33-.13.12-.26.23-.4.33-.1.07-.2.14-.3.2h-6.6c-.1-.06-.2-.13-.3-.2-.14-.1-.27-.21-.4-.33-.13.12-.26.23-.4.33-.1.07-.2.14-.3.2h-6.6c-.1-.06-.2-.13-.3-.2-.14-.1-.27-.21-.4-.33-.13.12-.26.23-.4.33-.1.07-.2.14-.3.2h-3.3v-8c.57-.01,1.83-.13,3-1,.44-.33.77-.69,1-1,.23.31.56.67,1,1,1.17.87,2.43.99,3,1,.57-.01,1.83-.13,3-1,.44-.33.77-.69,1-1,.23.31.56.67,1,1,1.17.87,2.43.99,3,1,.57-.01,1.83-.13,3-1,.44-.33.77-.69,1-1,.23.31.56.67,1,1,.17.13.35.24.52.33,1.01.57,1.99.66,2.48.67.57-.01,1.83-.13,3-1,.44-.33.77-.69,1-1,.23.31.56.67,1,1,1.17.87,2.43.99,3,1,.49-.01,1.47-.1,2.48-.67.17-.09.35-.2.52-.33.44-.33.77-.69,1-1,.23.31.56.67,1,1,1.17.87,2.43.99,3,1,.57-.01,1.83-.13,3-1,.44-.33.77-.69,1-1,.23.31.56.67,1,1,1.17.87,2.43.99,3,1,.57-.01,1.83-.13,3-1,.44-.33.77-.69,1-1,.23.31.56.67,1,1,1.17.87,2.43.99,3,1Z"/><path class="cls-4" d="m21.48,23.21c-.16-.53-.72-.83-1.25-.66l-4.78,1.46c-.53.16-.83.72-.67,1.24.14.43.53.71.96.71.1,0,.2,0,.29-.04l4.78-1.46c.53-.16.83-.72.67-1.25Zm-.67-7.67l-4.78-1.46c-.53-.16-1.09.14-1.25.67-.16.52.14,1.08.67,1.24l4.78,1.46c.1.03.2.05.29.05.43,0,.83-.28.96-.71.16-.53-.14-1.09-.67-1.25Zm-.81,3.46h-5c-.55,0-1,.45-1,1s.45,1,1,1h5c.55,0,1-.45,1-1s-.45-1-1-1Zm28.55,5.01l-4.78-1.46c-.53-.17-1.09.13-1.25.66-.16.53.14,1.09.67,1.25l4.78,1.46c.1.03.19.04.29.04.43,0,.82-.28.96-.71.16-.52-.14-1.08-.67-1.24Zm.67-9.26c-.16-.53-.72-.83-1.25-.67l-4.78,1.46c-.53.16-.83.72-.67,1.25.13.43.53.71.96.71.09,0,.19-.02.29-.05l4.78-1.46c.53-.16.83-.72.67-1.24Zm-.22,4.25h-5c-.55,0-1,.45-1,1s.45,1,1,1h5c.55,0,1-.45,1-1s-.45-1-1-1Zm11.02,38h-.02c-.63-.01-1.56-.18-2.4-.8-.3-.22-.57-.49-.8-.8-.38-.5-1.22-.5-1.6,0-.23.31-.5.58-.8.8-.85.63-1.79.79-2.38.8-.63-.01-1.57-.17-2.42-.8-.3-.22-.57-.49-.8-.8-.38-.5-1.22-.5-1.6,0-.23.31-.5.58-.8.8-.85.63-1.79.79-2.38.8-.63-.01-1.57-.17-2.42-.8-.3-.22-.57-.49-.8-.8-.38-.5-1.22-.5-1.6,0-.23.31-.5.58-.8.8-.85.63-1.79.79-2.38.8-.63-.01-1.57-.17-2.42-.8-.3-.22-.57-.49-.8-.8-.38-.5-1.22-.5-1.6,0-.23.31-.5.58-.8.8-.85.63-1.79.79-2.38.8-.63-.01-1.57-.17-2.42-.8-.3-.22-.57-.49-.8-.8-.38-.5-1.22-.5-1.6,0-.23.31-.5.58-.8.8-.85.63-1.79.79-2.38.8-.63-.01-1.57-.17-2.42-.8-.3-.22-.57-.49-.8-.8-.38-.5-1.22-.5-1.6,0-.23.31-.5.58-.8.8-.85.63-1.79.79-2.38.8-.63-.01-1.57-.17-2.42-.8-.3-.22-.57-.49-.8-.8-.38-.5-1.22-.5-1.6,0-.23.31-.5.58-.8.8-.84.62-1.77.79-2.4.8h-.02c-.56.01-.99.47-.98,1.02.01.56.47.99,1.02.98.86-.02,2.09-.22,3.28-1,.1-.06.2-.13.3-.2.14-.1.27-.21.4-.33.13.12.26.23.4.33.1.07.2.14.3.2,1.19.78,2.43.98,3.32,1,.86-.02,2.09-.22,3.28-1,.1-.06.2-.13.3-.2.14-.1.27-.21.4-.33.13.12.26.23.4.33.1.07.2.14.3.2,1.19.78,2.43.98,3.32,1,.86-.02,2.09-.22,3.28-1,.1-.06.2-.13.3-.2.14-.1.27-.21.4-.33.13.12.26.23.4.33.1.07.2.14.3.2,1.19.78,2.43.98,3.32,1,.86-.02,2.09-.22,3.28-1,.1-.06.2-.13.3-.2.14-.1.27-.21.4-.33.13.12.26.23.4.33.1.07.2.14.3.2,1.19.78,2.43.98,3.32,1,.86-.02,2.09-.22,3.28-1,.1-.06.2-.13.3-.2.14-.1.27-.21.4-.33.13.12.26.23.4.33.1.07.2.14.3.2,1.19.78,2.43.98,3.32,1,.86-.02,2.09-.22,3.28-1,.1-.06.2-.13.3-.2.14-.1.27-.21.4-.33.13.12.26.23.4.33.1.07.2.14.3.2,1.19.78,2.43.98,3.32,1,.86-.02,2.09-.22,3.28-1,.1-.06.2-.13.3-.2.14-.1.27-.21.4-.33.13.12.26.23.4.33.1.07.2.14.3.2,1.19.78,2.42.98,3.28,1h.02c.54,0,.99-.43,1-.98.01-.55-.42-1.01-.98-1.02Zm0-8c-.63-.01-1.57-.17-2.42-.8-.3-.22-.57-.49-.8-.8-.38-.5-1.22-.5-1.6,0-.23.31-.5.58-.8.8-.85.63-1.79.79-2.38.8-.63-.01-1.57-.17-2.42-.8-.3-.22-.57-.49-.8-.8-.38-.5-1.22-.5-1.6,0-.23.31-.5.58-.8.8-.85.63-1.79.79-2.38.8-.63-.01-1.57-.17-2.42-.8-.3-.22-.57-.49-.8-.8-.31-.41-.92-.47-1.34-.21l-1.38-17.21c.8-.06,1.51-.57,1.76-1.35l.67-2c.2-.6.1-1.28-.27-1.8-.3-.41-.75-.69-1.24-.78v-8.8h1c.55,0,1-.45,1-1s-.45-1-1-1h-1.05v-.03c-.03-.24-.06-.47-.1-.69-.03-.16-.06-.31-.1-.47-.03-.12-.06-.25-.09-.37,0-.02,0-.05-.02-.07-.06-.2-.13-.4-.2-.59-.17-.44-.37-.85-.6-1.22-.11-.19-.23-.37-.36-.54-.06-.09-.12-.17-.19-.25-.06-.08-.13-.16-.2-.24-.12-.14-.25-.28-.37-.4-.1-.11-.21-.2-.31-.3-.12-.11-.25-.22-.38-.32-.11-.09-.23-.18-.35-.26-.12-.09-.25-.18-.38-.26-.15-.1-.31-.2-.47-.28-.08-.05-.17-.09-.25-.14-.12-.06-.23-.12-.35-.17-.11-.05-.23-.09-.34-.14-.15-.07-.3-.12-.45-.17-.15-.05-.3-.1-.44-.14v-2.2c0-.55-.45-1-1-1s-1,.45-1,1v2.2c-.14.04-.29.09-.44.14-.15.05-.3.1-.45.17-.11.05-.23.09-.34.14-.12.05-.23.11-.35.17-.08.05-.17.09-.25.14-.16.08-.32.18-.47.28-.13.08-.26.17-.38.26-.12.08-.24.17-.35.26-.13.1-.26.21-.38.32-.1.1-.21.19-.31.3-.12.12-.25.26-.37.4-.07.08-.14.16-.2.24-.07.08-.13.16-.19.25-.13.17-.25.35-.36.54-.23.37-.43.78-.6,1.22-.07.19-.14.39-.19.59-.05.14-.09.29-.12.44-.04.16-.07.31-.1.47-.04.22-.07.45-.1.69v.03h-1.05c-.55,0-1,.45-1,1s.45,1,1,1h1v8.8c-.49.09-.94.37-1.24.78-.37.52-.47,1.2-.27,1.8l.67,2c.25.78.96,1.29,1.76,1.35l-1.38,17.21c-.42-.26-1.03-.2-1.34.21-.23.31-.5.58-.8.8-.85.63-1.79.79-2.38.8-.63-.01-1.57-.17-2.42-.8-.3-.22-.57-.49-.8-.8-.38-.5-1.22-.5-1.6,0-.23.31-.5.58-.8.8-.85.63-1.79.79-2.38.8-.63-.01-1.57-.17-2.42-.8-.3-.22-.57-.49-.8-.8-.38-.5-1.22-.5-1.6,0-.23.31-.5.58-.8.8-.85.63-1.79.79-2.42.8-.56.01-.99.47-.98,1.02.01.55.46.97,1,.98h.02c.93-.02,2.3-.25,3.58-1.2.14-.1.27-.21.4-.33.13.12.26.23.4.33,1.28.95,2.65,1.18,3.62,1.2.93-.02,2.3-.25,3.58-1.2.14-.1.27-.21.4-.33.13.12.26.23.4.33,1.28.95,2.65,1.18,3.62,1.2.93-.02,2.3-.25,3.58-1.2.14-.1.27-.21.4-.33.13.12.26.23.4.33.34.25.69.46,1.04.62.95.44,1.87.57,2.58.58.93-.02,2.3-.25,3.58-1.2.14-.1.27-.21.4-.33.13.12.26.23.4.33,1.28.95,2.65,1.18,3.62,1.2.68-.01,1.6-.14,2.54-.58.35-.16.7-.37,1.04-.62.14-.1.27-.21.4-.33.13.12.26.23.4.33,1.28.95,2.65,1.18,3.62,1.2.93-.02,2.3-.25,3.58-1.2.14-.1.27-.21.4-.33.13.12.26.23.4.33,1.28.95,2.65,1.18,3.62,1.2.93-.02,2.3-.25,3.58-1.2.14-.1.27-.21.4-.33.13.12.26.23.4.33,1.28.95,2.65,1.18,3.58,1.2h.02c.54,0,.99-.43,1-.98.01-.55-.42-1.01-.98-1.02Zm-27.22-1.6c-.38-.5-1.22-.5-1.6,0-.23.31-.5.58-.8.8-.85.63-1.79.79-2.38.8-.43-.01-1-.1-1.59-.34l.29-3.66h10.56l.29,3.66c-.58.24-1.15.33-1.55.34-.63-.01-1.57-.17-2.42-.8-.3-.22-.57-.49-.8-.8Zm4.32-4.4h-10.24l.24-3h9.76l.24,3Zm-.4-5h-9.44l.24-3h8.96l.24,3Zm-9.04-5l.24-3h8.16l.24,3h-8.64Zm5.32-12v3h-2v-3c0-.55.45-1,1-1s1,.45,1,1Zm-6-5h10v8h-2v-3c0-1.65-1.35-3-3-3s-3,1.35-3,3v3h-2v-8Zm11.61,10l-.66,2h-11.9l-.66-2h13.22Zm-6.61-17.98c.81.17,4.42,1.15,4.94,5.23h-9.88c.52-4.08,4.14-5.06,4.94-5.23Z"/></svg>