<?xml version="1.0" encoding="UTF-8"?><svg id="Filled_Line" xmlns="http://www.w3.org/2000/svg" viewBox="0 0 64 64"><defs><style>.cls-1{fill:#b8c3d5;}.cls-2{fill:#9dabc4;}.cls-3{fill:#1a2c3d;}.cls-4{fill:#78b24c;}</style></defs><path class="cls-1" d="m59.9,54.91c.05.59-.41,1.09-.99,1.09H5.11c-.59,0-1.06-.51-.99-1.1l2.17-20.8c.03-.3.2-.58.46-.74l5.08-3.22c.16-.1.3-.26.38-.44l4.94-11.33c.11-.25.31-.44.57-.54l5.8-2.16c.2-.08.37-.22.49-.4l3.9-6.08c.17-.26.43-.42.73-.46l5.96-.66c.36-.04.72.12.93.42l1.16,1.68h.01l5.64,8.13c.08.12.2.23.33.3l4.99,2.79c.19.1.34.27.43.48l3.3,7.65c.09.22.25.39.46.5l4.36,2.26,1.24.64c.3.16.5.46.54.8l1.91,21.19Z"/><path class="cls-2" d="m21.82,56.03l.67-13.82c.01-.22.1-.44.24-.61l7.87-9.07c.27-.31.69-.42,1.07-.29l6.27,2.11c.31.11.55.36.64.67l1.34,4.72c.07.25.24.47.47.6l2.04,1.15c.28.16.47.44.5.76l1.54,14.01"/><path class="cls-4" d="m56.21,32.28c-2.29,2.05-6.36,1.96-7.55-.25-1.62-3.01-2.21-2.86-6.04-4.48-3.83-1.61-1.45-5.27-4.94-7.15-3.49-1.87-.99-10.23-.99-10.23h.01l5.64,8.13c.08.12.2.23.33.3l4.99,2.79c.19.1.34.27.43.48l3.3,7.65c.09.22.25.39.46.5l4.36,2.26Z"/><path class="cls-3" d="m58.98,33.6c-.08-.67-.48-1.25-1.08-1.57l-5.6-2.91-3.3-7.65c-.18-.42-.49-.76-.86-.96l-4.99-2.79-6.81-9.81c-.42-.6-1.13-.92-1.86-.84l-5.98.66c-.6.08-1.11.4-1.44.91l-3.9,6.08-5.81,2.16c-.51.2-.91.58-1.13,1.07l-4.94,11.32-5.07,3.21c-.52.32-.87.88-.93,1.49l-2.17,20.79c-.07.56.11,1.12.49,1.54.38.43.93.67,1.5.67h53.8c.55,0,1.09-.23,1.46-.64.38-.41.57-.97.52-1.53l-1.91-21.22Zm-16.8-14.13l4.99,2.79,3.29,7.63c.18.44.5.79.92,1.01l2.8,1.45c-.88.36-1.89.49-2.79.33-.51-.09-1.44-.36-1.86-1.13-1.56-2.9-2.45-3.26-5.1-4.34-.42-.17-.9-.36-1.44-.59-1.51-.63-1.73-1.59-2.04-2.91-.32-1.37-.73-3.08-2.81-4.2-1.68-.9-1.46-4.4-1-6.94l4.35,6.27c.17.26.42.48.67.62Zm-19.31,35.53l.61-12.74,7.88-9.07,6.27,2.11,1.34,4.72c.14.51.49.94.94,1.2l2.04,1.15,1.39,12.63h-20.47Zm36.04,0h-13.56s-1.41-12.84-1.41-12.84c-.07-.64-.45-1.21-1.01-1.53l-2.04-1.15-1.34-4.72c-.18-.63-.66-1.14-1.29-1.35l-6.27-2.11c-.77-.26-1.62-.03-2.15.58l-7.87,9.07c-.29.34-.47.77-.49,1.21l-.62,12.84H5.11s2.17-20.8,2.17-20.8l5.07-3.22c.33-.21.6-.52.77-.89l4.94-11.33,5.82-2.17c.39-.16.72-.42.96-.79l3.9-6.08,5.96-.67.9,1.29c-.54,1.99-2.1,8.95,1.6,10.93,1.29.7,1.52,1.67,1.81,2.9.34,1.46.77,3.27,3.21,4.29.55.23,1.03.43,1.46.6,2.49,1.01,2.87,1.16,4.09,3.43.61,1.12,1.77,1.89,3.27,2.15.37.07.75.1,1.14.1,1.47,0,2.96-.47,4.13-1.29l.67.35,1.91,21.19,1-.09-.99.09Z"/></svg>