<?xml version="1.0" encoding="UTF-8"?><svg id="Filled_Line" xmlns="http://www.w3.org/2000/svg" viewBox="0 0 64 64"><defs><style>.cls-1{fill:#1a2c3d;}.cls-2{fill:#759dd1;}.cls-3{fill:#78b24c;}</style></defs><path class="cls-3" d="m60,42.41c0,9.14-9.47,16.55-21.15,16.55s-21.16-7.41-21.16-16.55c0-.02,0-.04,0-.06.01-2.87-1.43-5.57-3.99-6.86-5.83-2.94-9.69-8.07-9.69-13.9C4,12.45,13.47,5.04,25.16,5.04s21.15,7.41,21.15,16.55c0,.02,0,.04,0,.05-.01,2.87,1.44,5.57,4,6.86,5.83,2.94,9.69,8.07,9.69,13.91Z"/><path class="cls-2" d="m38.85,53.96c-8.76,0-16.17-5.29-16.17-11.55.02-4.93-2.56-9.27-6.74-11.38-4.35-2.2-6.94-5.72-6.94-9.44,0-6.26,7.4-11.55,16.17-11.55s16.15,5.29,16.15,11.55c-.02,4.92,2.56,9.27,6.74,11.38,4.35,2.19,6.94,5.72,6.94,9.44,0,6.26-7.4,11.55-16.15,11.55Z"/><ellipse class="cls-3" cx="7.09" cy="42.94" rx="4" ry="5"/><ellipse class="cls-3" cx="56" cy="17.66" rx="4" ry="5"/><path class="cls-1" d="m50.76,27.61c-2.14-1.08-3.46-3.37-3.45-6.02,0-9.68-9.94-17.55-22.15-17.55S3,11.91,3,21.59c0,6.03,3.83,11.56,10.24,14.8,2.14,1.08,3.46,3.36,3.44,6.03,0,9.68,9.94,17.55,22.17,17.55s22.15-7.87,22.15-17.55c0-6.03-3.83-11.57-10.24-14.8Zm-11.92,30.35c-11.12,0-20.17-6.98-20.16-15.6.01-3.36-1.73-6.34-4.54-7.76-5.72-2.89-9.14-7.75-9.14-13.01,0-8.57,9.05-15.55,20.17-15.55s20.15,6.98,20.15,15.6c-.01,3.37,1.73,6.34,4.54,7.76,5.72,2.89,9.14,7.75,9.14,13.01,0,8.57-9.04,15.55-20.15,15.55Zm9.66-25.89c-3.84-1.94-6.21-5.96-6.19-10.49,0-6.8-7.86-12.55-17.15-12.55s-17.17,5.75-17.17,12.55c0,4.1,2.8,7.96,7.49,10.33,3.84,1.94,6.21,5.96,6.19,10.49,0,6.8,7.86,12.55,17.17,12.55s17.15-5.75,17.15-12.55c0-4.11-2.8-7.97-7.49-10.34Zm-9.66,20.89c-8.22,0-15.17-4.83-15.17-10.55.02-5.29-2.77-10-7.29-12.28-4-2.02-6.39-5.22-6.39-8.55,0-5.72,6.94-10.55,15.17-10.55s15.15,4.83,15.15,10.55c-.02,5.29,2.77,10,7.29,12.28,4,2.02,6.39,5.21,6.39,8.55,0,5.72-6.94,10.55-15.15,10.55Zm-9.64-32.2c-1.28.95-2.65,1.18-3.57,1.2,0,0,0,0-.01,0,0,0,0,0-.01,0h-.02c-.93-.02-2.3-.25-3.57-1.2-.14-.1-.27-.21-.4-.33-.13.12-.26.23-.4.33-1.28.95-2.65,1.18-3.57,1.2-.56,0-1.01-.42-1.02-.98-.01-.55.42-1.01.98-1.02.64-.01,1.57-.17,2.43-.8.3-.22.57-.49.8-.8.19-.25.49-.4.8-.4h0c.31,0,.61.15.8.4.23.3.5.57.8.8.84.63,1.77.78,2.4.8.64-.02,1.56-.17,2.4-.8.3-.22.57-.49.8-.8.19-.25.49-.4.8-.4h0c.31,0,.61.15.8.4.23.3.5.57.8.8.85.64,1.79.79,2.43.8.55.01.99.47.98,1.02-.01.54-.46.98-1,.98h-.02c-.93-.02-2.3-.25-3.57-1.2-.14-.1-.27-.21-.4-.33-.13.12-.26.23-.4.33Zm22.09,22.36c-.01.54-.46.98-1,.98h-.02c-.93-.02-2.3-.25-3.57-1.2-.14-.1-.27-.21-.4-.33-.13.12-.26.22-.4.33-1.27.95-2.65,1.18-3.57,1.2,0,0,0,0-.01,0,0,0,0,0-.01,0h-.02c-.93-.02-2.3-.25-3.57-1.2-.14-.1-.27-.21-.4-.33-.13.12-.26.22-.4.33-1.27.95-2.65,1.18-3.57,1.2-.57-.03-1.01-.42-1.02-.98-.01-.55.42-1.01.98-1.02.64-.01,1.57-.17,2.43-.8.3-.22.57-.49.8-.8.38-.5,1.22-.5,1.6,0,.23.31.5.58.8.8.84.63,1.77.78,2.4.8.64-.02,1.56-.17,2.4-.8.3-.22.57-.49.8-.8.38-.5,1.22-.5,1.6,0,.23.31.5.58.8.8.85.64,1.79.79,2.43.8.55.01.99.47.98,1.02Zm-17.69-10.65c-.13.12-.26.23-.4.33-1.27.95-2.65,1.18-3.57,1.2-.57-.01-1.01-.42-1.02-.98-.01-.55.42-1.01.98-1.02.64-.01,1.57-.17,2.43-.8.3-.22.57-.49.8-.8.19-.25.49-.4.8-.4h0c.31,0,.61.15.8.4.23.31.5.58.8.8.85.64,1.79.79,2.43.8.55.01.99.47.98,1.02-.01.54-.46.98-1,.98h-.02c-.93-.02-2.3-.25-3.57-1.2-.14-.1-.27-.21-.4-.33Zm-21.52,10.46c0-3.31-2.24-6-5-6s-5,2.69-5,6c0,2.9,1.72,5.32,4,5.88v3.72c0,.55.45,1,1,1s1-.45,1-1v-3.72c2.28-.56,4-2.98,4-5.88Zm-4,3.75v-1.75c0-.55-.45-1-1-1s-1,.45-1,1v1.75c-1.16-.55-2-2.02-2-3.75,0-2.21,1.35-4,3-4s3,1.79,3,4c0,1.74-.84,3.2-2,3.75Zm46.92-23.15v3.72c0,.55.45,1,1,1s1-.45,1-1v-3.72c2.28-.56,4-2.98,4-5.88,0-3.31-2.24-6-5-6s-5,2.69-5,6c0,2.9,1.72,5.32,4,5.88Zm1-9.88c1.65,0,3,1.79,3,4,0,1.74-.84,3.2-2,3.75v-1.75c0-.55-.45-1-1-1s-1,.45-1,1v1.75c-1.16-.55-2-2.02-2-3.75,0-2.21,1.35-4,3-4ZM17.04,55.13c.43.34.5.97.16,1.4l-2.21,2.79c-.19.24-.48.38-.78.38s-.59-.14-.78-.38l-2.21-2.79c-.34-.43-.27-1.06.16-1.4.43-.34,1.06-.27,1.41.16l.43.54v-.86c0-.51.45-.93,1-.93s1,.42,1,.93v.86l.43-.54c.34-.43.97-.51,1.41-.16ZM45.51,7.66c-.34-.43-.27-1.06.16-1.4.43-.34,1.06-.27,1.4.16l.43.54v-.92c0-.48.45-.86,1-.86s1,.39,1,.86v.92l.43-.54c.34-.43.97-.51,1.4-.16.43.34.51.97.16,1.4l-2.21,2.79c-.19.24-.48.38-.78.38s-.59-.14-.78-.38l-2.21-2.79Z"/></svg>