<?xml version="1.0" encoding="UTF-8"?><svg id="Filled_Line" xmlns="http://www.w3.org/2000/svg" viewBox="0 0 64 64"><defs><style>.cls-1{fill:#edae65;}.cls-2{fill:#a26a55;}.cls-3{fill:#1a2c3d;}.cls-4{fill:#759dd1;}.cls-5{fill:#78b24c;}.cls-6{fill:#50823f;}</style></defs><path class="cls-2" d="m29.75,46.12l-5.14,2.56-2.27.73c.55-2.71,1.14-7.08.44-12.28-.11-.83-.25-1.67-.44-2.53-.06-.32-.13-.64-.21-.96h-.01c-.09-.4-.18-.79-.3-1.19-.08-.34-.18-.68-.29-1.02-.41-1.33-.88-2.57-1.38-3.71-.14-.31-.28-.61-.42-.91-.16-.33-.31-.65-.47-.96-.9-1.76-1.84-3.24-2.69-4.45-.01,0-.02,0-.02-.02l.48-.44,1.05-.95.96-.87c.16.16.32.32.49.49,1.13,1.13,2.37,2.54,3.59,4.25.22.31.44.62.66.95.18.27.36.55.55.83.48.78.96,1.6,1.42,2.48.31.59.59,1.18.85,1.77.15.31.28.62.41.93s.25.62.36.93h.01c.47,1.21.85,2.4,1.15,3.54,1.21,4.52,1.3,8.42,1.22,10.83Z"/><path class="cls-6" d="m17.96,20.02l-13.96,1.08c.29-.63,1.08-2.1,2.76-3.22,1.62-1.08,3.21-1.26,3.91-1.31.7-.06,2.3-.13,4.07.69,1.83.85,2.84,2.18,3.22,2.76Z"/><path class="cls-6" d="m17.96,20.02l8-11.49c-.69-.07-2.36-.13-4.18.75-1.75.85-2.72,2.13-3.11,2.71-.41.57-1.27,1.92-1.47,3.85-.19,2.01.44,3.55.75,4.18Z"/><path class="cls-5" d="m17.96,20.02l13.54-3.56c-.48-.5-1.71-1.63-3.66-2.14-1.89-.49-3.45-.14-4.12.05-.68.17-2.21.63-3.61,1.98-1.45,1.41-1.96,2.99-2.14,3.66Z"/><path class="cls-5" d="m17.96,20.02l-9.93,9.87c-.19-.67-.54-2.3.01-4.24.54-1.87,1.63-3.04,2.13-3.53.49-.5,1.67-1.59,3.54-2.11,1.95-.54,3.57-.18,4.24.01Z"/><path class="cls-2" d="m46.59,16.92c-.86,1.21-1.81,2.7-2.71,4.47-.3.59-.6,1.21-.89,1.87-.5,1.15-.97,2.39-1.38,3.72-.11.34-.21.68-.3,1.02-.2.73-.37,1.44-.51,2.14-1.4,6.61-.57,12.21.1,15.26l-7.51-3.74c-.1-3.01.07-8.37,2.37-14.37.23-.61.49-1.23.78-1.86.26-.59.54-1.18.85-1.77.46-.87.94-1.7,1.43-2.47.39-.63.8-1.23,1.2-1.79h.01c1.39-1.96,2.82-3.52,4.07-4.74l2.49,2.26Z"/><path class="cls-1" d="m11.87,49.99c1.01-3.38,2.85-6.41,5.28-8.84,3.8-3.8,9.05-6.15,14.85-6.15s11.05,2.35,14.85,6.15c2.43,2.43,4.27,5.46,5.28,8.84H11.87Z"/><path class="cls-4" d="m60,50v8h-3.3c-.1-.06-.2-.13-.3-.2-.14-.1-.27-.21-.4-.33-.13.12-.26.23-.4.33-.1.07-.2.14-.3.2h-6.6c-.1-.06-.2-.13-.3-.2-.14-.1-.27-.21-.4-.33-.13.12-.26.23-.4.33-.1.07-.2.14-.3.2h-6.6c-.1-.06-.2-.13-.3-.2-.14-.1-.27-.21-.4-.33-.13.12-.26.23-.4.33-.1.07-.2.14-.3.2h-6.6c-.1-.06-.2-.13-.3-.2-.14-.1-.27-.21-.4-.33-.13.12-.26.23-.4.33-.1.07-.2.14-.3.2h-6.6c-.1-.06-.2-.13-.3-.2-.14-.1-.27-.21-.4-.33-.13.12-.26.23-.4.33-.1.07-.2.14-.3.2h-6.6c-.1-.06-.2-.13-.3-.2-.14-.1-.27-.21-.4-.33-.13.12-.26.23-.4.33-.1.07-.2.14-.3.2h-6.6c-.1-.06-.2-.13-.3-.2-.14-.1-.27-.21-.4-.33-.13.12-.26.23-.4.33-.1.07-.2.14-.3.2h-3.3v-8c.57-.01,1.83-.13,3-1,.44-.33.77-.69,1-1,.23.31.56.67,1,1,1.09.81,2.26.97,2.87.99.05.01.09.01.13.01.07,0,.15,0,.24-.01.64-.04,1.74-.23,2.76-.99.44-.33.77-.69,1-1,.23.31.56.67,1,1,1.02.76,2.12.95,2.76.99.09.01.17.01.24.01s.15,0,.24-.01c.51-.03,1.29-.16,2.1-.58h0c.22-.11.44-.25.66-.41.44-.33.77-.69,1-1,.16.21.36.44.61.68.12.1.25.21.39.32,1.02.76,2.12.95,2.76.99.09.01.17.01.24.01s.15,0,.24-.01c.64-.04,1.74-.23,2.76-.99.44-.33.77-.69,1-1,.23.31.56.67,1,1,1.02.76,2.12.95,2.76.99.09.01.17.01.24.01s.15,0,.24-.01c.64-.04,1.74-.23,2.76-.99.44-.33.77-.69,1-1,.23.31.56.67,1,1,1.02.76,2.12.95,2.76.99.09.01.17.01.24.01s.15,0,.24-.01c.64-.04,1.74-.23,2.76-.99.44-.33.77-.69,1-1,.23.31.56.67,1,1,1.02.76,2.12.95,2.76.99.09.01.17.01.24.01.04,0,.08,0,.13-.01.61-.02,1.78-.18,2.87-.99.44-.33.77-.69,1-1,.23.31.56.67,1,1,1.17.87,2.43.99,3,1Z"/><path class="cls-6" d="m45.18,15.57l13.96,1.08c-.29-.63-1.08-2.1-2.76-3.22-1.62-1.08-3.21-1.26-3.91-1.31-.7-.06-2.3-.13-4.07.69-1.83.85-2.84,2.18-3.22,2.76Z"/><path class="cls-6" d="m45.18,15.57l-8-11.49c.69-.07,2.36-.13,4.18.75,1.75.85,2.72,2.13,3.11,2.71.41.57,1.27,1.92,1.47,3.85.19,2.01-.44,3.55-.75,4.18Z"/><path class="cls-5" d="m45.18,15.57l-13.54-3.56c.48-.5,1.71-1.63,3.66-2.14,1.89-.49,3.45-.14,4.12.05.68.17,2.21.63,3.61,1.98,1.45,1.41,1.96,2.99,2.14,3.66Z"/><path class="cls-5" d="m45.18,15.57l9.93,9.87c.19-.67.54-2.3-.01-4.24-.54-1.87-1.63-3.04-2.13-3.53-.49-.5-1.67-1.59-3.54-2.11-1.95-.54-3.57-.18-4.24.01Z"/><path class="cls-3" d="m60.02,57h-.02c-.63-.01-1.56-.18-2.4-.8-.3-.22-.57-.49-.8-.8-.38-.5-1.22-.5-1.6,0-.23.31-.5.58-.8.8-.85.63-1.79.79-2.38.8-.63-.01-1.57-.17-2.42-.8-.3-.22-.57-.49-.8-.8-.38-.5-1.22-.5-1.6,0-.23.31-.5.58-.8.8-.85.63-1.79.79-2.38.8-.63-.01-1.57-.17-2.42-.8-.3-.22-.57-.49-.8-.8-.38-.5-1.22-.5-1.6,0-.23.31-.5.58-.8.8-.85.63-1.79.79-2.38.8-.63-.01-1.57-.17-2.42-.8-.3-.22-.57-.49-.8-.8-.38-.5-1.22-.5-1.6,0-.23.31-.5.58-.8.8-.85.63-1.79.79-2.38.8-.63-.01-1.57-.17-2.42-.8-.3-.22-.57-.49-.8-.8-.38-.5-1.22-.5-1.6,0-.23.31-.5.58-.8.8-.85.63-1.79.79-2.38.8-.63-.01-1.57-.17-2.42-.8-.3-.22-.57-.49-.8-.8-.38-.5-1.22-.5-1.6,0-.23.31-.5.58-.8.8-.85.63-1.79.79-2.38.8-.63-.01-1.57-.17-2.42-.8-.3-.22-.57-.49-.8-.8-.38-.5-1.22-.5-1.6,0-.23.31-.5.58-.8.8-.84.62-1.77.79-2.4.8h-.02c-.56.01-.99.47-.98,1.02.01.55.46.98,1,.98h.02c.86-.02,2.09-.22,3.28-1,.1-.06.2-.13.3-.2.14-.1.27-.21.4-.33.13.12.26.23.4.33.1.07.2.14.3.2,1.19.78,2.43.98,3.32,1,.86-.02,2.09-.22,3.28-1,.1-.06.2-.13.3-.2.14-.1.27-.21.4-.33.13.12.26.23.4.33.1.07.2.14.3.2,1.19.78,2.43.98,3.32,1,.86-.02,2.09-.22,3.28-1,.1-.06.2-.13.3-.2.14-.1.27-.21.4-.33.13.12.26.23.4.33.1.07.2.14.3.2,1.19.78,2.43.98,3.32,1,.86-.02,2.09-.22,3.28-1,.1-.06.2-.13.3-.2.14-.1.27-.21.4-.33.13.12.26.23.4.33.1.07.2.14.3.2,1.19.78,2.43.98,3.32,1,.86-.02,2.09-.22,3.28-1,.1-.06.2-.13.3-.2.14-.1.27-.21.4-.33.13.12.26.23.4.33.1.07.2.14.3.2,1.19.78,2.43.98,3.32,1,.86-.02,2.09-.22,3.28-1,.1-.06.2-.13.3-.2.14-.1.27-.21.4-.33.13.12.26.23.4.33.1.07.2.14.3.2,1.19.78,2.43.98,3.32,1,.86-.02,2.09-.22,3.28-1,.1-.06.2-.13.3-.2.14-.1.27-.21.4-.33.13.12.26.23.4.33.1.07.2.14.3.2,1.19.78,2.42.98,3.28,1,.54-.03,1.01-.42,1.02-.98.01-.55-.42-1.01-.98-1.02Zm0-8c-.63-.01-1.57-.17-2.42-.8-.3-.22-.57-.49-.8-.8-.38-.5-1.22-.5-1.6,0-.23.31-.5.58-.8.8-.53.4-1.09.59-1.58.7-1.09-3.17-2.89-6.08-5.26-8.46-1.9-1.9-4.1-3.38-6.47-4.46.12-2.97.61-5.9,1.48-8.7.95-3.08,2.36-6.01,4.17-8.76l7.67,7.62c.19.19.44.29.7.29.09,0,.17-.01.26-.03.34-.09.61-.35.71-.69.25-.89.58-2.69-.02-4.79-.39-1.38-1.14-2.64-2.12-3.67l5.12.39s.05,0,.08,0c.32,0,.63-.16.82-.43.2-.29.24-.67.09-.99-.39-.84-1.31-2.43-3.12-3.64-1.29-.86-2.82-1.37-4.37-1.47-1.58-.15-3.16.13-4.58.78-.38.18-.71.37-1.03.58.01-.38.01-.77-.03-1.19-.15-1.55-.72-3.05-1.63-4.31-.89-1.32-2.1-2.37-3.5-3.05-1.96-.95-3.79-.94-4.71-.84-.36.03-.66.25-.81.57-.15.33-.12.7.09.99l2.94,4.22c-1.41-.32-2.87-.32-4.25.03-2.1.55-3.49,1.75-4.13,2.41-.25.26-.34.63-.24.97.09.34.36.6.71.69l10.35,2.73c-2.05,2.28-3.82,4.79-5.24,7.5-1.76,3.39-2.96,7.04-3.6,10.84-.3-.01-.6-.04-.9-.04-.93,0-1.85.08-2.76.19-.37-1.26-.79-2.52-1.31-3.75-.37-.91-.81-1.85-1.29-2.78-.63-1.19-1.31-2.34-2.03-3.41-.98-1.46-2.05-2.83-3.19-4.1l10.33-2.72c.35-.09.61-.35.71-.7.1-.34,0-.7-.24-.96-.64-.67-2.03-1.86-4.14-2.41-1.38-.36-2.85-.36-4.24-.03l2.94-4.22c.21-.29.24-.67.09-.99s-.46-.54-.81-.58c-.91-.09-2.75-.1-4.71.84-1.4.69-2.61,1.74-3.48,3.03-.93,1.29-1.5,2.79-1.65,4.34-.04.41-.04.81-.03,1.18-.32-.2-.66-.4-1.03-.57-1.42-.66-3-.93-4.55-.78-1.58.1-3.11.6-4.41,1.47-1.81,1.21-2.72,2.8-3.11,3.63-.15.33-.11.7.09.99.19.27.49.43.82.43h.08l5.12-.4c-.99,1.05-1.73,2.3-2.12,3.68-.6,2.09-.27,3.89-.02,4.78.1.34.37.61.71.7.09.02.17.03.26.03.26,0,.51-.1.7-.29l7.69-7.64c.91,1.39,1.72,2.82,2.41,4.28s1.28,2.97,1.74,4.49c.23.73.42,1.44.57,2.12.01.04.03.08.04.12.21.86.36,1.72.5,2.59-1.91,1.01-3.67,2.32-5.24,3.88-2.37,2.38-4.17,5.29-5.26,8.45-.5-.1-1.05-.3-1.58-.69-.3-.22-.57-.49-.8-.8-.38-.5-1.22-.5-1.6,0-.23.31-.5.58-.8.8-.85.63-1.79.79-2.42.8-.56.01-.99.47-.98,1.02.01.55.46.98,1,.98h.02c.93-.02,2.3-.25,3.58-1.2.14-.1.27-.21.4-.33.13.12.26.23.4.33,1.28.95,2.65,1.18,3.62,1.2.86-.02,2.1-.22,3.3-1.01.09-.06.19-.12.28-.19.14-.1.27-.21.4-.33.13.12.26.23.4.33.1.07.19.14.29.19,1.19.79,2.43.99,3.33,1.01.86-.02,2.1-.22,3.3-1.01.09-.06.19-.12.28-.19.14-.1.27-.21.4-.33.13.12.26.23.4.33.1.07.19.14.29.19,1.19.79,2.43.99,3.33,1.01.86-.02,2.1-.22,3.3-1.01.09-.06.19-.12.28-.19.14-.1.27-.21.4-.33.13.12.26.23.4.33.1.07.19.14.29.19,1.19.79,2.43.99,3.33,1.01.86-.02,2.1-.22,3.3-1.01.09-.06.19-.12.28-.19.14-.1.27-.21.4-.33.13.12.26.23.4.33.1.07.19.14.29.19,1.19.79,2.43.99,3.33,1.01.86-.02,2.1-.22,3.3-1.01.09-.06.19-.12.28-.19.14-.1.27-.21.4-.33.13.12.26.23.4.33.1.07.19.14.29.19,1.19.79,2.43.99,3.33,1.01.93-.02,2.3-.25,3.58-1.2.14-.1.27-.21.4-.33.13.12.26.23.4.33,1.28.95,2.65,1.18,3.58,1.2h.02c.53-.01.99-.43,1-.98.01-.55-.42-1.01-.98-1.02Zm-10.42-.8c-.3-.22-.57-.49-.8-.8-.38-.5-1.22-.5-1.6,0-.23.31-.5.58-.8.8-.85.63-1.79.79-2.38.8-.63-.01-1.57-.17-2.42-.8-.3-.22-.57-.49-.8-.8-.38-.5-1.22-.5-1.6,0-.23.31-.5.58-.8.8-.85.63-1.79.79-2.38.8-.63-.01-1.57-.17-2.42-.8-.3-.22-.57-.49-.8-.8-.38-.5-1.22-.5-1.6,0-.23.31-.5.58-.8.8-.85.63-1.79.79-2.38.8-.63-.01-1.57-.17-2.42-.8h0c-.3-.23-.56-.49-.79-.8-.38-.5-1.22-.5-1.6,0-.18.24-.38.46-.61.64-.06.06-.12.11-.19.16-.85.63-1.79.79-2.38.8-.63-.01-1.57-.17-2.42-.8-.3-.22-.57-.49-.8-.8-.38-.5-1.22-.5-1.6,0-.23.31-.5.58-.8.8-.34.25-.69.41-1.03.54,1-2.57,2.53-4.92,4.49-6.88,1.5-1.5,3.2-2.74,5.04-3.68,1.84-.94,3.81-1.59,5.87-1.92,1.06-.17,2.14-.26,3.23-.26.54,0,1.08.02,1.62.07,2.08.16,4.1.65,6,1.43.02.01.04.01.05.02.12.05.25.1.37.16,2.25.98,4.32,2.39,6.1,4.18,1.96,1.95,3.49,4.31,4.49,6.87-.34-.12-.69-.28-1.03-.53ZM7.31,18.71c1.01-.67,2.19-1.06,3.45-1.14.22-.02.44-.03.66-.03,1,0,2,.21,2.89.63.38.17.7.37,1,.58-.58.03-1.21.11-1.86.3-.39.11-.78.25-1.15.41l-6.38.49c.36-.42.82-.85,1.39-1.24Zm16.69-9.1l-3.66,5.25c-.33.24-.65.5-.94.78-.49.48-.88.97-1.2,1.45-.02-.36-.03-.74.01-1.14.12-1.2.56-2.37,1.3-3.4.69-1.02,1.63-1.84,2.71-2.37.62-.3,1.23-.47,1.78-.57Zm3.58,5.68c.67.18,1.25.44,1.73.71l-8.98,2.37,1.43-2.05c.66-.44,1.41-.78,2.22-.98.62-.18,1.26-.26,1.9-.26.57,0,1.15.07,1.7.21Zm-18.58,10.63c.33-1.16.98-2.22,1.89-3.1.57-.58,1.24-1.05,1.95-1.4l2.49-.19-6.59,6.54c.01-.56.07-1.18.26-1.85Zm9.57-5.02l.65-.17c1,1.04,1.95,2.16,2.83,3.36-.27.08-.54.18-.8.3-.44.2-.87.46-1.25.77-.65-1.24-1.34-2.46-2.13-3.63l.7-.63Zm3.52,5.31c.37-.17.77-.27,1.18-.33.56.86,1.1,1.76,1.59,2.7.28.53.53,1.06.77,1.58-.6.19-1.17.41-1.71.7-.5.27-.92.56-1.27.84-.05-.19-.11-.37-.16-.56-.43-1.4-.97-2.78-1.58-4.13.29-.28.68-.57,1.18-.8Zm1.47,9.46c-.1-.59-.22-1.18-.35-1.77.32-.35.86-.85,1.66-1.28.47-.25.99-.44,1.52-.6.33.83.61,1.67.86,2.51-1.26.27-2.5.65-3.69,1.14Zm14.72-11.55c.48-.92,1.02-1.82,1.59-2.7.41.06.81.16,1.18.33.51.23.89.53,1.19.81-.61,1.35-1.15,2.72-1.59,4.13-.05.18-.1.38-.15.57-.4-.32-.82-.61-1.29-.86-.53-.29-1.1-.51-1.7-.7.24-.53.5-1.06.77-1.58Zm2.64-18.39c1.08.52,2.02,1.34,2.73,2.39.72,1,1.16,2.17,1.28,3.37.04.41.03.78.01,1.15-.32-.49-.71-.98-1.2-1.46-.3-.28-.61-.54-.94-.78l-3.66-5.25c.55.1,1.15.28,1.78.58Zm11.49,7.39c1.23.07,2.41.47,3.41,1.13.58.39,1.04.82,1.4,1.24l-6.38-.49c-.38-.16-.76-.3-1.15-.41-.66-.18-1.28-.27-1.86-.3.3-.2.62-.4.99-.57,1.1-.51,2.32-.72,3.59-.6Zm-7.83,3.32l.69.63c-.79,1.17-1.48,2.39-2.13,3.63-.39-.3-.81-.56-1.26-.77-.25-.12-.52-.21-.79-.29.87-1.18,1.82-2.3,2.84-3.37l.65.17Zm3.23.33l2.48.2c.72.35,1.4.82,1.98,1.41.89.86,1.53,1.93,1.87,3.08.19.67.25,1.3.26,1.85l-6.59-6.54Zm-8.62-5.88c.79.2,1.53.54,2.19.98l1.43,2.04-8.98-2.36c.48-.28,1.06-.54,1.73-.71,1.16-.31,2.41-.29,3.63.05Zm-.93,17.27c.8.44,1.35.93,1.67,1.28-.42,1.89-.68,3.81-.8,5.76-1.37-.47-2.78-.8-4.23-.99.39-2.29,1.01-4.51,1.83-6.65.54.16,1.06.35,1.53.6Z"/></svg>