<?xml version="1.0" encoding="UTF-8"?><svg id="Filled_Line" xmlns="http://www.w3.org/2000/svg" viewBox="0 0 64 64"><defs><style>.cls-1{fill:#a26a55;}.cls-2{fill:#b8c3d5;}.cls-3{fill:#d3dce5;}.cls-4{fill:#1a2c3d;}.cls-5{fill:#78b24c;}</style></defs><path class="cls-1" d="m50,41c-.55,0-1-.45-1-1v-7c0-.55.45-1,1-1s1,.45,1,1v7c0,.55-.45,1-1,1Z"/><path class="cls-1" d="m14,47.89c-.55,0-1-.45-1-1v-8.79c0-.55.45-1,1-1s1,.45,1,1v8.79c0,.55-.45,1-1,1Z"/><path class="cls-3" d="m52.96,20.7l1.5,3.05c-1.2.29-2.28.25-2.84.04-.71-.25-.95-.59-1.62-.61-.72-.03-1,.34-1.82.6-.52.16-1.56.22-2.66,0l1.52-3.08h-3.04l3-4.36,3-4.34,3,4.34,3,4.36h-3.04Z"/><path class="cls-5" d="m52.95,26.85l3.05,6.15h-12l3.05-6.15h-3.05l1.38-2.79.14-.28c1.1.22,2.14.16,2.66,0,.82-.26,1.1-.63,1.82-.6.67.02.91.36,1.62.61.56.21,1.64.25,2.84-.04l.28.56h.01l1.25,2.54h-3.05Z"/><path class="cls-2" d="m12,60l1.91-5.27c1.64-4.53,4.53-8.55,8.48-11.31,5.64-3.94,12.41-6.12,19.43-6.12h18.18v22.7H12Z"/><path class="cls-3" d="m16.96,26.7l1.63,3.31c-1.23.21-2.11.07-2.71-.12-.83-.26-1.1-.6-1.88-.62-.83-.02-1.16.35-2.11.6-.54.15-1.36.28-2.48.12l1.63-3.29h-3.04l3-4.36,3-4.34,3,4.34,3,4.36h-3.04Z"/><path class="cls-5" d="m16.95,32.85l3.05,6.15h-12l3.05-6.15h-3.05l1.41-2.86c1.12.16,1.94.03,2.48-.12.95-.25,1.28-.62,2.11-.6.78.02,1.05.36,1.88.62.6.19,1.48.33,2.71.12l1.41,2.84h-3.05Z"/><path class="cls-3" d="m52,60l-3.84-4.58c-6.44-7.69-15.96-12.13-25.99-12.13H4v16.7h48Z"/><circle class="cls-3" cx="37" cy="20.7" r="2"/><circle class="cls-3" cx="27.45" cy="13" r="2"/><circle class="cls-3" cx="40.17" cy="8" r="2"/><circle class="cls-3" cx="57.13" cy="7" r="2"/><circle class="cls-3" cx="27" cy="24.65" r="2"/><circle class="cls-3" cx="8" cy="15" r="2"/><circle class="cls-3" cx="17" cy="7" r="2"/><path class="cls-4" d="m60,36.3h-9v-2.3h5c.35,0,.67-.18.85-.47s.2-.66.05-.97l-2.33-4.71h1.44c.35,0,.67-.18.85-.47s.2-.66.05-.97l-2.33-4.71h1.43c.37,0,.71-.21.88-.53.17-.33.15-.73-.06-1.03l-6-8.7c-.37-.54-1.27-.54-1.64,0l-6,8.7c-.21.31-.23.7-.06,1.03.17.33.51.53.88.53h1.43l-2.33,4.71c-.15.31-.14.68.05.97s.5.47.85.47h1.44l-2.33,4.71c-.15.31-.14.68.05.97s.5.47.85.47h5v2.3h-7.18c-7.01,0-13.76,2.08-19.55,6-.03,0-.06,0-.09,0h-7.18v-2.3h5c.35,0,.67-.18.85-.47s.2-.66.05-.97l-2.33-4.71h1.44c.35,0,.67-.18.85-.47.18-.29.2-.66.05-.97l-2.32-4.71h1.43c.37,0,.71-.21.88-.54.17-.33.15-.73-.06-1.03l-6-8.7c-.38-.54-1.27-.54-1.65,0l-6,8.7c-.21.31-.23.7-.06,1.03.17.33.51.54.88.54h1.43l-2.32,4.71c-.15.31-.14.68.05.97.18.29.5.47.85.47h1.44l-2.33,4.71c-.15.31-.14.68.05.97s.5.47.85.47h5v2.3H4c-.55,0-1,.45-1,1v16.7c0,.55.45,1,1,1h56c.55,0,1-.45,1-1v-22.7c0-.55-.45-1-1-1Zm-10-22.54l4.1,5.94h-1.14c-.35,0-.67.18-.85.47-.18.29-.2.66-.05.97l.92,1.87c-.37,0-.71-.05-1.02-.16-.21-.08-.37-.17-.52-.25-.34-.18-.76-.41-1.41-.43-.66-.04-1.14.2-1.54.39-.17.08-.36.18-.62.26-.26.08-.54.13-.84.14l.9-1.82c.15-.31.14-.68-.05-.97-.18-.29-.5-.47-.85-.47h-1.14l4.1-5.94Zm-2.1,12.56c-.18-.29-.5-.47-.85-.47h-1.44l.46-.94c.85.1,1.66.05,2.4-.18.38-.12.67-.26.9-.37.31-.15.41-.19.6-.19.17,0,.25.04.52.19.22.12.46.25.79.37.52.19,1.09.29,1.68.29.32,0,.64-.04.98-.09l.45.92h-1.44c-.35,0-.67.18-.85.47s-.2.66-.05.97l2.33,4.71h-8.78l2.33-4.71c.15-.31.14-.68-.05-.97Zm-33.9-6.56l4.1,5.94h-1.13c-.35,0-.67.18-.85.47-.18.29-.2.66-.05.97l.96,1.95c-.3-.02-.59-.07-.85-.16-.26-.08-.46-.18-.64-.26-.39-.18-.82-.39-1.52-.41-.7,0-1.2.18-1.63.36-.21.09-.45.19-.77.27-.19.05-.4.07-.61.09l.92-1.86c.15-.31.14-.68-.05-.97-.18-.29-.5-.47-.85-.47h-1.13l4.1-5.94Zm-2.1,12.56c-.18-.29-.5-.47-.85-.47h-1.44l.39-.8c.76.04,1.48-.03,2.14-.21.44-.11.76-.25,1.02-.36.37-.15.51-.23.81-.21.27,0,.41.07.72.22.25.12.52.24.89.36.57.18,1.18.27,1.84.27.2,0,.4-.01.6-.03l.38.76h-1.44c-.35,0-.67.18-.85.47s-.2.66-.05.97l2.33,4.71h-8.78l2.33-4.71c.15-.31.14-.68-.05-.97Zm-6.9,26.68v-14.7h8.99s0,0,0,0,0,0,0,0h8.17c9.76,0,18.95,4.29,25.22,11.77l2.46,2.93H5Zm54,0h-6.53l-3.54-4.22c-5.87-7.01-14.16-11.37-23.15-12.29,4.89-2.74,10.37-4.19,16.04-4.19h17.18v20.7Zm-22-35.3c1.65,0,3-1.35,3-3s-1.35-3-3-3-3,1.35-3,3,1.35,3,3,3Zm0-4c.55,0,1,.45,1,1s-.45,1-1,1-1-.45-1-1,.45-1,1-1Zm-9.55-3.7c1.65,0,3-1.35,3-3s-1.35-3-3-3-3,1.35-3,3,1.35,3,3,3Zm0-4c.55,0,1,.45,1,1s-.45,1-1,1-1-.45-1-1,.45-1,1-1Zm12.72-1c1.65,0,3-1.35,3-3s-1.35-3-3-3-3,1.35-3,3,1.35,3,3,3Zm0-4c.55,0,1,.45,1,1s-.45,1-1,1-1-.45-1-1,.45-1,1-1Zm16.96,3c1.65,0,3-1.35,3-3s-1.35-3-3-3-3,1.35-3,3,1.35,3,3,3Zm0-4c.55,0,1,.45,1,1s-.45,1-1,1-1-.45-1-1,.45-1,1-1Zm-30.13,21.65c1.65,0,3-1.35,3-3s-1.35-3-3-3-3,1.35-3,3,1.35,3,3,3Zm0-4c.55,0,1,.45,1,1s-.45,1-1,1-1-.45-1-1,.45-1,1-1Zm-19-5.65c1.65,0,3-1.35,3-3s-1.35-3-3-3-3,1.35-3,3,1.35,3,3,3Zm0-4c.55,0,1,.45,1,1s-.45,1-1,1-1-.45-1-1,.45-1,1-1Zm9-4c1.65,0,3-1.35,3-3s-1.35-3-3-3-3,1.35-3,3,1.35,3,3,3Zm0-4c.55,0,1,.45,1,1s-.45,1-1,1-1-.45-1-1,.45-1,1-1Z"/></svg>