<?xml version="1.0" encoding="UTF-8"?><svg id="Filled_Line" xmlns="http://www.w3.org/2000/svg" viewBox="0 0 64 64"><defs><style>.cls-1{fill:#a26a55;}.cls-2{fill:#6581c6;}.cls-3{fill:#d3dce5;}.cls-4{fill:#1a2c3d;}.cls-5{fill:#759dd1;}.cls-6{fill:#78b24c;}</style></defs><path class="cls-5" d="m60,44v8c-.57-.01-1.83-.13-3-1-.44-.33-.77-.69-1-1-.23.31-.56.67-1,1-1.17.87-2.43.99-3,1-.57-.01-1.83-.13-3-1-.44-.33-.77-.69-1-1-.23.31-.56.67-1,1-1.17.87-2.43.99-3,1-.57-.01-1.83-.13-3-1-.44-.33-.77-.69-1-1-.23.31-.56.67-1,1-1.17.87-2.43.99-3,1-.57-.01-1.83-.13-3-1-.44-.33-.77-.69-1-1-.23.31-.56.67-1,1-1.17.87-2.43.99-3,1-.57-.01-1.83-.13-3-1-.44-.33-.77-.69-1-1-.23.31-.56.67-1,1-1.17.87-2.43.99-3,1-.57-.01-1.83-.13-3-1-.44-.33-.77-.69-1-1-.23.31-.56.67-1,1-1.17.87-2.43.99-3,1-.57-.01-1.83-.13-3-1-.44-.33-.77-.69-1-1-.23.31-.56.67-1,1-1.17.87-2.43.99-3,1v-8c.57-.01,1.83-.13,3-1,.44-.33.77-.69,1-1,.23.31.56.67,1,1,1.17.87,2.43.99,3,1,.57-.01,1.83-.13,3-1,.44-.33.77-.69,1-1,.23.31.56.67,1,1,1.17.87,2.43.99,3,1,.57-.01,1.83-.13,3-1,.44-.33.77-.69,1-1,.23.31.56.67,1,1,1.17.87,2.43.99,3,1,.57-.01,1.83-.13,3-1,.44-.33.77-.69,1-1,.23.31.56.67,1,1,1.17.87,2.43.99,3,1,.57-.01,1.83-.13,3-1,.44-.33.77-.69,1-1,.23.31.56.67,1,1,1.17.87,2.43.99,3,1,.57-.01,1.83-.13,3-1,.44-.33.77-.69,1-1,.23.31.56.67,1,1,1.17.87,2.43.99,3,1,.57-.01,1.83-.13,3-1,.44-.33.77-.69,1-1,.23.31.56.67,1,1,1.17.87,2.43.99,3,1Z"/><path class="cls-3" d="m57.97,13.7c-.95-.45-1.81-.39-2.56-.11,0-.07.02-.14.02-.22,0-1.89-1.54-3.43-3.43-3.43s-3.43,1.54-3.43,3.43c0,.08.02.15.02.22-.75-.28-1.61-.34-2.56.11-1.27.62-2.03,1.97-2.03,3.39,0,.87.35,1.65.92,2.22s1.36.92,2.22.92h9.72c1.73,0,3.14-1.41,3.14-3.14,0-1.42-.76-2.77-2.03-3.39Z"/><path class="cls-3" d="m35.76,6.62c-.95-.46-1.81-.39-2.56-.12,0-.07.02-.14.02-.21,0-1.9-1.54-3.43-3.43-3.43s-3.43,1.53-3.43,3.43c0,.07.02.14.02.21-.75-.27-1.61-.34-2.55.12-1.28.61-2.04,1.97-2.04,3.38,0,.87.35,1.66.92,2.22.57.57,1.35.92,2.22.92h9.72c1.74,0,3.14-1.4,3.14-3.14,0-1.41-.76-2.77-2.03-3.38Z"/><path class="cls-6" d="m4,31.94v-7.44h13.62c8.02,0,14.08,4.21,14.08,4.21,0,0-3.49,1.72-7.91,2.95-4.8,1.34-10.67,2.19-13.55,2.15-5.53-.09-6.23,0-6.23,0v-1.87Z"/><path class="cls-1" d="m27.13,41.02v2.98l2.47,2.85.3,5.21-8.09.12-2.13.03-9.52.15-1.5.02-4.66.07v-20.5h3.64l1.54-.91c.86-.51,1.89-.62,2.84-.32l3.79,1.23,2.88-.15,1.98-.1,1.78-.09,9.25-2.89-.93,7.37-3.64,4.93Z"/><path class="cls-2" d="m60,52v8h-3.3c-.1-.06-.2-.13-.3-.2-.14-.1-.27-.21-.4-.33-.13.12-.26.23-.4.33-.1.07-.2.14-.3.2h-6.6c-.1-.06-.2-.13-.3-.2-.14-.1-.27-.21-.4-.33-.13.12-.26.23-.4.33-.1.07-.2.14-.3.2h-6.6c-.1-.06-.2-.13-.3-.2-.14-.1-.27-.21-.4-.33-.13.12-.26.23-.4.33-.1.07-.2.14-.3.2h-6.6c-.1-.06-.2-.13-.3-.2-.14-.1-.27-.21-.4-.33-.13.12-.26.23-.4.33-.1.07-.2.14-.3.2h-6.6c-.1-.06-.2-.13-.3-.2-.14-.1-.27-.21-.4-.33-.13.12-.26.23-.4.33-.1.07-.2.14-.3.2h-6.6c-.1-.06-.2-.13-.3-.2-.14-.1-.27-.21-.4-.33-.13.12-.26.23-.4.33-.1.07-.2.14-.3.2h-6.6c-.1-.06-.2-.13-.3-.2-.14-.1-.27-.21-.4-.33-.13.12-.26.23-.4.33-.1.07-.2.14-.3.2h-3.3v-8c.57-.01,1.83-.13,3-1,.44-.33.77-.69,1-1,.23.31.56.67,1,1,1.17.87,2.43.99,3,1,.57-.01,1.83-.13,3-1,.44-.33.77-.69,1-1,.23.31.56.67,1,1,1.17.87,2.43.99,3,1,.57-.01,1.83-.13,3-1,.44-.33.77-.69,1-1,.23.31.56.67,1,1,1.17.87,2.43.99,3,1,.04,0,.09,0,.14-.01.05,0,.1,0,.16-.01.34-.02.78-.08,1.28-.25.1-.03.19-.07.29-.11.23-.09.47-.2.71-.34.14-.08.28-.18.42-.28.44-.33.77-.69,1-1,.23.31.56.67,1,1,1.17.87,2.43.99,3,1,.57-.01,1.83-.13,3-1,.44-.33.77-.69,1-1,.23.31.56.67,1,1,1.17.87,2.43.99,3,1,.57-.01,1.83-.13,3-1,.44-.33.77-.69,1-1,.23.31.56.67,1,1,1.17.87,2.43.99,3,1,.57-.01,1.83-.13,3-1,.44-.33.77-.69,1-1,.23.31.56.67,1,1,1.17.87,2.43.99,3,1Z"/><path class="cls-4" d="m36.19,5.72c-.68-.33-1.37-.47-2.08-.43-.45-1.96-2.22-3.43-4.32-3.43s-3.87,1.47-4.32,3.43c-.71-.04-1.4.1-2.08.43-1.58.76-2.6,2.44-2.6,4.28,0,2.29,1.86,4.14,4.14,4.14h9.72c2.28,0,4.14-1.85,4.14-4.14,0-1.84-1.02-3.52-2.6-4.28Zm-1.54,6.42h-9.72c-1.18,0-2.14-.96-2.14-2.14,0-1.08.58-2.05,1.47-2.48.32-.16.64-.23.96-.23.27,0,.54.05.82.15.32.12.68.06.95-.14.26-.2.41-.53.39-.87,0-.02-.01-.12-.02-.14,0-1.34,1.09-2.43,2.43-2.43s2.43,1.09,2.43,2.42c0,.02-.02.13-.02.15-.02.34.13.67.4.87.27.2.62.26.94.14.64-.23,1.19-.21,1.78.08.89.43,1.47,1.4,1.47,2.48,0,1.18-.96,2.14-2.14,2.14Zm23.75.66c-.68-.32-1.37-.47-2.08-.42-.45-1.97-2.22-3.44-4.32-3.44s-3.87,1.47-4.32,3.44c-.71-.05-1.4.1-2.08.42-1.58.76-2.6,2.45-2.6,4.29,0,2.28,1.86,4.14,4.14,4.14h9.72c2.28,0,4.14-1.86,4.14-4.14,0-1.84-1.02-3.53-2.6-4.29Zm-1.54,6.43h-9.72c-1.18,0-2.14-.96-2.14-2.14,0-1.08.58-2.05,1.47-2.49.32-.15.63-.23.96-.23.26,0,.54.05.82.16.32.11.67.06.94-.14.27-.2.42-.52.4-.85,0-.03-.01-.14-.02-.17,0-1.34,1.09-2.43,2.43-2.43s2.43,1.09,2.43,2.42c-.01.02-.02.15-.02.18-.02.33.13.65.4.85.27.2.62.25.94.14.63-.23,1.2-.21,1.78.07.89.44,1.47,1.41,1.47,2.49,0,1.18-.96,2.14-2.14,2.14Zm3.16,39.77h-.02c-.63-.01-1.56-.18-2.4-.8-.3-.22-.57-.49-.8-.8-.38-.5-1.22-.5-1.6,0-.23.31-.5.58-.8.8-.85.63-1.79.79-2.38.8-.63-.01-1.57-.17-2.42-.8-.3-.22-.57-.49-.8-.8-.38-.5-1.22-.5-1.6,0-.23.31-.5.58-.8.8-.85.63-1.79.79-2.38.8-.63-.01-1.57-.17-2.42-.8-.3-.22-.57-.49-.8-.8-.38-.5-1.22-.5-1.6,0-.23.31-.5.58-.8.8-.85.63-1.79.79-2.38.8-.63-.01-1.57-.17-2.42-.8-.3-.22-.57-.49-.8-.8-.38-.5-1.22-.5-1.6,0-.23.31-.5.58-.8.8-.85.63-1.79.79-2.38.8-.63-.01-1.57-.17-2.42-.8-.3-.22-.57-.49-.8-.8-.38-.5-1.22-.5-1.6,0-.23.31-.5.58-.8.8-.85.63-1.79.79-2.38.8-.63-.01-1.57-.17-2.42-.8-.3-.22-.57-.49-.8-.8-.38-.5-1.22-.5-1.6,0-.23.31-.5.58-.8.8-.85.63-1.79.79-2.38.8-.63-.01-1.57-.17-2.42-.8-.3-.22-.57-.49-.8-.8-.38-.5-1.22-.5-1.6,0-.23.31-.5.58-.8.8-.84.62-1.77.79-2.4.8h-.02c-.56.01-.99.47-.98,1.02.01.55.46.98,1,.98h.02c.86-.02,2.09-.22,3.28-1,.1-.06.2-.13.3-.2.14-.1.27-.21.4-.33.13.12.26.23.4.33.1.07.2.14.3.2,1.19.78,2.43.98,3.32,1,.86-.02,2.09-.22,3.28-1,.1-.06.2-.13.3-.2.14-.1.27-.21.4-.33.13.12.26.23.4.33.1.07.2.14.3.2,1.19.78,2.43.98,3.32,1,.86-.02,2.09-.22,3.28-1,.1-.06.2-.13.3-.2.14-.1.27-.21.4-.33.13.12.26.23.4.33.1.07.2.14.3.2,1.19.78,2.43.98,3.32,1,.86-.02,2.09-.22,3.28-1,.1-.06.2-.13.3-.2.14-.1.27-.21.4-.33.13.12.26.23.4.33.1.07.2.14.3.2,1.19.78,2.43.98,3.32,1,.86-.02,2.09-.22,3.28-1,.1-.06.2-.13.3-.2.14-.1.27-.21.4-.33.13.12.26.23.4.33.1.07.2.14.3.2,1.19.78,2.43.98,3.32,1,.86-.02,2.09-.22,3.28-1,.1-.06.2-.13.3-.2.14-.1.27-.21.4-.33.13.12.26.23.4.33.1.07.2.14.3.2,1.19.78,2.43.98,3.32,1,.86-.02,2.09-.22,3.28-1,.1-.06.2-.13.3-.2.14-.1.27-.21.4-.33.13.12.26.23.4.33.1.07.2.14.3.2,1.19.78,2.42.98,3.28,1h.02c.54,0,.99-.43,1-.98.01-.55-.42-1.01-.98-1.02Zm0-8h-.02c-.63-.01-1.56-.18-2.4-.8-.3-.22-.57-.49-.8-.8-.38-.5-1.22-.5-1.6,0-.23.31-.5.58-.8.8-.85.63-1.79.79-2.38.8-.63-.01-1.57-.17-2.42-.8-.3-.22-.57-.49-.8-.8-.38-.5-1.22-.5-1.6,0-.23.31-.5.58-.8.8-.85.63-1.79.79-2.38.8-.63-.01-1.57-.17-2.42-.8-.3-.22-.57-.49-.8-.8-.38-.5-1.22-.5-1.6,0-.23.31-.5.58-.8.8-.85.63-1.79.79-2.38.8-.63-.01-1.57-.17-2.42-.8-.3-.22-.57-.49-.8-.8-.38-.5-1.22-.5-1.6,0-.13.17-.26.32-.41.46l-.2-3.07c-.01-.22-.09-.43-.24-.59l-1.15-1.34c.72-.14,1.58-.45,2.4-1.06.14-.1.27-.21.4-.33.13.12.26.23.4.33,1.36,1.01,2.83,1.19,3.62,1.2.75-.01,2.22-.19,3.58-1.2.14-.1.27-.21.4-.33.13.12.26.23.4.33,1.36,1.01,2.83,1.19,3.62,1.2.75-.01,2.22-.19,3.58-1.2.14-.1.27-.21.4-.33.13.12.26.23.4.33,1.36,1.01,2.83,1.19,3.62,1.2.75-.01,2.22-.19,3.58-1.2.14-.1.27-.21.4-.33.13.12.26.23.4.33,1.36,1.01,2.83,1.19,3.58,1.2h.02c.54,0,.99-.44,1-.98.01-.56-.43-1.01-.98-1.02-.52-.01-1.51-.12-2.42-.8-.38-.29-.64-.59-.8-.8-.38-.5-1.22-.5-1.6,0-.16.21-.42.51-.8.8-.91.68-1.9.79-2.38.8-.52-.01-1.51-.12-2.42-.8-.38-.29-.64-.59-.8-.8-.38-.5-1.22-.5-1.6,0-.16.21-.42.51-.8.8-.91.68-1.9.79-2.38.8-.52-.01-1.51-.12-2.42-.8-.38-.29-.64-.59-.8-.8-.38-.5-1.22-.5-1.6,0-.16.21-.42.51-.8.8-.91.68-1.9.79-2.38.8-.52-.01-1.51-.12-2.42-.8-.38-.29-.64-.59-.8-.8-.38-.5-1.22-.5-1.6,0-.16.21-.42.51-.8.8-.84.63-1.75.77-2.27.79v-1.64l3.44-4.67c.11-.14.17-.3.19-.47l.93-7.37s.01-.09.01-.13c0-.33-.16-.64-.43-.82-.26-.18-6.41-4.39-14.65-4.39H4c-.55,0-1,.45-1,1v27.51h0c0,.14.03.25.07.36t.01.02c.07.16.18.29.33.39.16.13.36.22.59.22h.02c.69-.01,1.61-.14,2.56-.59.34-.16.68-.36,1.02-.61.14-.1.27-.21.4-.33.13.12.26.23.4.33.31.23.63.42.94.57.98.48,1.95.61,2.68.63.74-.02,1.77-.17,2.8-.71h.06c.26-.14.46-.3.72-.49.14-.1.27-.21.4-.33.13.12.26.23.4.33.24.18.48.33.72.45,1.06.58,2.11.73,2.9.75.79-.02,1.91-.19,3.02-.84.19-.1.37-.22.56-.36.14-.1.27-.21.4-.33.13.12.26.23.4.33.17.13.34.24.51.33h.06c1.13.68,2.21.85,3.05.87.93-.02,2.3-.25,3.58-1.2.14-.1.27-.21.4-.33.13.12.26.23.4.33,1.28.95,2.65,1.18,3.62,1.2.93-.02,2.3-.25,3.58-1.2.14-.1.27-.21.4-.33.13.12.26.23.4.33,1.28.95,2.65,1.18,3.62,1.2.93-.02,2.3-.25,3.58-1.2.14-.1.27-.21.4-.33.13.12.26.23.4.33,1.28.95,2.65,1.18,3.62,1.2.93-.02,2.3-.25,3.58-1.2.14-.1.27-.21.4-.33.13.12.26.23.4.33,1.28.95,2.65,1.18,3.58,1.2h.02c.54,0,.99-.43,1-.98.01-.55-.42-1.01-.98-1.02Zm-45.62-.8c-.85.63-1.79.79-2.38.8-.41-.01-.95-.09-1.51-.31l1.11-6.71v-.02c.04-.25-.01-.5-.14-.71l-1.22-1.88,1.98-3.23c.28-.47.14-1.09-.34-1.38-.47-.28-1.08-.14-1.37.34l-2.3,3.77c-.2.32-.2.74.01,1.06l.62.95h0s.73,1.13.73,1.13l-.88,5.32c-.41-.41-1.16-.4-1.51.07-.23.31-.5.58-.8.8-.46.34-.95.54-1.4.65v-17.9h2.64c.18,0,.35-.05.51-.14l1.54-.91c.61-.36,1.35-.44,2.02-.23l3.79,1.23c.12.04.24.05.36.05l2.5-.13-.03.09-2.04,6.18c-.04.13-.06.26-.05.4l.28,3.09h0s.2,2.25.2,2.25c.01.11.04.21.08.31l2.51,5.78c-.53-.1-1.14-.29-1.71-.72-.3-.22-.57-.49-.8-.8-.38-.5-1.22-.5-1.6,0-.23.31-.5.58-.8.8ZM5,25.5h12.62c5.03,0,9.29,1.75,11.61,2.94l-6.96,2.18-6.33.32-3.62-1.17c-1.22-.39-2.55-.24-3.65.41l-1.3.77h-2.37v-5.45Zm17.4,24.7c-.33.24-.67.4-1,.52l-2.7-6.23-.06-.69-.39-4.28,2.25-6.81,2-.1c.08-.01.17-.02.25-.05l7.76-2.42-.7,5.57-3.49,4.72c-.12.17-.19.38-.19.59v2.98c0,.24.08.47.24.65l2.25,2.6.23,3.64c-.31.07-.6.1-.83.11-.63-.01-1.57-.17-2.42-.8-.3-.22-.57-.49-.8-.8-.38-.5-1.22-.5-1.6,0-.23.31-.5.58-.8.8Z"/></svg>