<?xml version="1.0" encoding="UTF-8"?>
<svg id="Filled_Line" xmlns="http://www.w3.org/2000/svg" viewBox="0 0 64 64">
  <defs>
    <style>
      .cls-1 {
        fill: #9eabc4;
      }

      .cls-2 {
        fill: #737e9b;
      }

      .cls-3 {
        fill: #1a2c3d;
      }

      .cls-4 {
        fill: #536882;
      }
    </style>
  </defs>
  <path class="cls-4" d="M32,37.279c-3.529,0-6.391,2.861-6.391,6.391v9.939c0,3.529,2.861,6.391,6.391,6.391s6.391-2.861,6.391-6.391v-9.939c0-3.529-2.861-6.391-6.391-6.391Z"/>
  <g>
    <path class="cls-1" d="M58.3,31.61c0,1.88-2.16,3.41-8.68,3.41-4.07,0-9.36-.6-12.76-1.51.32-.82.5-1.74.5-2.71,0-.41-.03-.81-.1-1.2,3.41-.85,8.45-1.4,12.36-1.4,6.52,0,8.68,1.53,8.68,3.41Z"/>
    <path class="cls-1" d="M27.14,33.51c-3.4.91-8.69,1.51-12.76,1.51-6.52,0-8.68-1.53-8.68-3.41s2.16-3.41,8.68-3.41c3.91,0,8.95.55,12.36,1.4-.07.39-.1.79-.1,1.2,0,.97.18,1.89.5,2.71Z"/>
  </g>
  <circle class="cls-4" cx="32" cy="19.291" r="5.021"/>
  <ellipse class="cls-4" cx="32" cy="30.796" rx="5.361" ry="6.483"/>
  <path class="cls-2" d="M38.39,48.5v5.11c0,.24-.01.47-.04.7h-12.7c-.03-.23-.04-.46-.04-.7v-5.11h12.78Z"/>
  <path class="cls-2" d="M38.31,42.7h-12.62c.46-3.07,3.11-5.42,6.31-5.42,1.76,0,3.36.72,4.52,1.87.94.94,1.59,2.17,1.79,3.55Z"/>
  <path class="cls-3" d="M37.426,34.68c3.391.796,8.244,1.34,12.196,1.34,6.421,0,9.677-1.484,9.677-4.41s-3.256-4.41-9.677-4.41c-3.725,0-8.23.478-11.6,1.208-.111-.387-.245-.761-.406-1.116l7.719-6.78c.256-.225.38-.565.329-.902l-1.356-8.923c-.083-.546-.594-.92-1.139-.838-.546.083-.921.593-.838,1.139l1.274,8.382-7.06,6.201c-.389-.469-.832-.873-1.314-1.209,1.674-1.071,2.791-2.939,2.791-5.069,0-2.979-2.176-5.453-5.021-5.931V4c0-.552-.448-1-1-1s-1,.448-1,1v9.36c-2.845.479-5.021,2.952-5.021,5.931,0,2.131,1.122,3.994,2.797,5.065-.484.337-.929.743-1.32,1.214l-7.06-6.201,1.274-8.382c.083-.546-.292-1.056-.838-1.139-.547-.083-1.056.292-1.139.838l-1.356,8.923c-.051.337.073.677.329.902l7.719,6.78c-.161.356-.295.73-.406,1.116-3.37-.73-7.874-1.208-11.6-1.208-6.421,0-9.677,1.484-9.677,4.41s3.256,4.41,9.677,4.41c3.952,0,8.805-.543,12.196-1.34.514.99,1.215,1.827,2.048,2.445-.323.168-.632.354-.926.566h-7.022c-.29,0-.565.125-.755.344l-6.044,6.955c-.362.417-.318,1.048.099,1.411.189.165.423.245.655.245.279,0,.558-.117.755-.344l5.745-6.61h4.673c-.726,1.127-1.167,2.452-1.185,3.886l-3.851,1.577c-.311.127-.538.402-.603.732l-1.557,7.926-6.249,5.432c-.417.362-.461.994-.099,1.411.198.228.476.344.755.344.232,0,.466-.081.656-.245l6.507-5.657c.167-.146.282-.344.325-.562l1.52-7.734,2.587-1.059v7.868c0,4.075,3.315,7.39,7.391,7.39s7.391-3.315,7.391-7.39v-7.868l2.587,1.059,1.52,7.734c.043.218.158.416.325.562l6.507,5.657c.189.165.423.245.656.245.279,0,.558-.117.755-.344.362-.417.318-1.049-.099-1.411l-6.249-5.432-1.557-7.926c-.065-.33-.292-.605-.603-.732l-3.851-1.577c-.018-1.434-.458-2.759-1.185-3.886h4.673l5.745,6.61c.198.228.476.344.755.344.232,0,.466-.081.655-.245.417-.362.461-.994.099-1.411l-6.044-6.955c-.19-.219-.465-.344-.755-.344h-7.02c-.294-.212-.603-.399-.927-.567.833-.618,1.533-1.455,2.047-2.444ZM49.622,29.2c4.807,0,7.677.901,7.677,2.41s-2.87,2.41-7.677,2.41c-3.723,0-8.264-.495-11.498-1.229.15-.636.237-1.304.237-1.996,0-.138-.011-.273-.018-.41,3.22-.706,7.701-1.186,11.279-1.186ZM27.979,19.292c0-2.217,1.804-4.021,4.021-4.021s4.021,1.804,4.021,4.021-1.804,4.021-4.021,4.021-4.021-1.804-4.021-4.021ZM14.378,34.02c-4.807,0-7.677-.901-7.677-2.41s2.87-2.41,7.677-2.41c3.579,0,8.06.481,11.279,1.186-.006.137-.018.272-.018.41,0,.692.087,1.359.237,1.996-3.234.733-7.776,1.229-11.498,1.229ZM27.64,30.796c0-3.023,1.956-5.483,4.36-5.483s4.36,2.46,4.36,5.483-1.956,5.483-4.36,5.483-4.36-2.46-4.36-5.483ZM37.391,47.502h-10.781v-3.806h10.781v3.806ZM37.391,53.308h-10.781v-3.805h10.781v3.805ZM32,59c-2.375,0-4.374-1.555-5.09-3.692h10.18c-.716,2.137-2.715,3.692-5.09,3.692ZM37.005,41.697h-10.009c.79-1.997,2.73-3.417,5.005-3.417s4.214,1.421,5.005,3.417Z"/>
</svg>