<?xml version="1.0" encoding="UTF-8"?>
<svg id="Filled_Line" xmlns="http://www.w3.org/2000/svg" viewBox="0 0 64 64">
  <defs>
    <style>
      .cls-1 {
        fill: #d85264;
      }

      .cls-2 {
        fill: #737e9b;
      }

      .cls-3 {
        fill: #1a2c3d;
      }

      .cls-4 {
        fill: #d3dce5;
      }

      .cls-5 {
        fill: #536882;
      }
    </style>
  </defs>
  <circle class="cls-4" cx="32" cy="32" r="28"/>
  <path class="cls-5" d="M32,22.624c-5.586,0-10.114,7.565-10.114,13.151s4.528,10.114,10.114,10.114,10.114-4.528,10.114-10.114-4.528-13.151-10.114-13.151Z"/>
  <path class="cls-2" d="M32,22.62c-3.41,0-6.42,2.82-8.25,6.29,2.15,1.98,5.06,3.19,8.25,3.19s6.09-1.21,8.25-3.18c-1.82-3.48-4.84-6.3-8.25-6.3Z"/>
  <path class="cls-1" d="M32,4c-15.464,0-28,12.536-28,28s12.536,28,28,28,28-12.536,28-28S47.464,4,32,4ZM8.675,32c0-12.882,10.443-23.325,23.325-23.325,5.634,0,10.801,1.998,14.833,5.323L14.001,46.836c-3.327-4.032-5.326-9.201-5.326-14.836ZM32,55.325c-5.615,0-10.765-1.985-14.79-5.29L50.033,17.206c3.306,4.026,5.292,9.177,5.292,14.794,0,12.882-10.443,23.325-23.325,23.325Z"/>
  <path class="cls-5" d="M27.807,24.083c1.279-.903,2.695-1.459,4.193-1.459s2.913.555,4.191,1.458l.011-.007c.12-.401.185-.825.185-1.265,0-2.423-1.964-4.388-4.388-4.388s-4.387,1.964-4.388,4.388c0,.44.065.864.185,1.265l.01.008Z"/>
  <path class="cls-3" d="M32,3C16.01,3,3,16.01,3,32s13.009,29,29,29,29-13.009,29-29S47.99,3,32,3ZM32,59c-14.888,0-27-12.112-27-27S17.112,5,32,5s27,12.112,27,27-12.112,27-27,27ZM47.832,13.95c-.014-.281-.146-.544-.363-.724-4.339-3.58-9.833-5.552-15.469-5.552-13.413,0-24.325,10.912-24.325,24.325,0,5.637,1.973,11.132,5.554,15.473.18.217.442.349.724.362.016,0,.032,0,.048,0,.265,0,.519-.105.707-.293L47.54,14.705c.199-.199.305-.473.292-.755ZM32,19.423c1.737,0,3.155,1.318,3.349,3.003-1.095-.53-2.215-.802-3.349-.802-1.182,0-2.303.289-3.347.788.2-1.679,1.616-2.99,3.347-2.99ZM32,23.625c.982,0,1.969.285,2.946.848l-6.121,6.122c-1.372-.426-2.641-1.126-3.741-2.06,1.707-2.797,4.228-4.91,6.916-4.91ZM22.886,35.776c0-1.751.465-3.654,1.251-5.425.95.75,1.991,1.372,3.109,1.823l-4.309,4.31c-.019-.236-.051-.473-.051-.708ZM37.316,22.102c-.079-.595-.251-1.156-.509-1.674l1.403-1.684c.239-.287.299-.684.153-1.028l-1.306-3.101c-.214-.509-.8-.749-1.31-.533-.509.214-.748.801-.533,1.31l1.07,2.54-.723.868c-.952-.846-2.191-1.376-3.561-1.376s-2.61.53-3.561,1.376l-.723-.868,1.07-2.54c.214-.509-.024-1.095-.533-1.31-.51-.215-1.095.024-1.31.533l-1.306,3.101c-.146.344-.086.741.153,1.028l1.403,1.684c-.359.722-.58,1.523-.58,2.383,0,.289.028.576.073.859-1.761,1.421-3.197,3.441-4.203,5.604l-2.967-2.338.908-5.975c.083-.546-.292-1.056-.838-1.139-.545-.083-1.056.292-1.139.838l-.995,6.55c-.054.356.087.713.37.936l3.882,3.059c-.403,1.205-.664,2.408-.766,3.539h-1.052l-4.137-4.761c-.361-.417-.994-.461-1.411-.099-.417.362-.461.994-.099,1.411l4.437,5.105c.19.219.465.344.755.344h1.526c.045.496.124.991.237,1.485l-7.101,7.102c-2.855-3.834-4.416-8.526-4.416-13.331,0-12.31,10.015-22.325,22.325-22.325,4.803,0,9.494,1.56,13.328,4.414l-8.012,8.013ZM50.806,16.572c-.179-.218-.442-.35-.724-.364-.28-.013-.557.092-.756.292l-25.412,25.416h0s0,0,0,0l-7.411,7.412c-.2.2-.306.474-.292.756.014.282.146.545.364.724,4.333,3.558,9.811,5.517,15.425,5.517,13.413,0,24.325-10.912,24.325-24.325,0-5.615-1.96-11.095-5.52-15.428ZM44.484,26.925l-2.952,2.326c-.222-.475-.473-.938-.735-1.393l3.324-3.325.363,2.391ZM36.331,32.326c1.259-.457,2.454-1.111,3.514-1.942.807,1.809,1.27,3.715,1.27,5.392,0,5.025-4.089,9.114-9.114,9.114-2.231,0-4.322-.793-5.982-2.25l10.312-10.314ZM18.717,49.943l5.89-5.891c2.029,1.812,4.668,2.838,7.394,2.838,4.107,0,7.692-2.245,9.616-5.566l1.67.596.424,4.709c.017.184.084.359.194.508l1.824,2.448c-3.79,2.965-8.555,4.739-13.729,4.739-4.782,0-9.457-1.549-13.283-4.382ZM47.251,48.282l-1.574-2.113-.456-5.065c-.035-.388-.292-.721-.66-.852l-2.103-.751c.314-.878.525-1.803.607-2.767h1.505c.29,0,.565-.126.755-.345l4.437-5.104c.362-.417.318-1.048-.099-1.411-.417-.363-1.05-.318-1.411.099l-4.138,4.76h-1.048c-.101-1.144-.368-2.347-.767-3.541l3.879-3.057c.282-.223.423-.58.37-.936l-.672-4.423,4.063-4.064c2.834,3.827,4.385,8.503,4.385,13.287,0,6.417-2.725,12.206-7.074,16.282Z"/>
</svg>