<?xml version="1.0" encoding="UTF-8"?>
<svg id="Filled_Line" xmlns="http://www.w3.org/2000/svg" viewBox="0 0 64 64">
  <defs>
    <style>
      .cls-1 {
        fill: #737e9b;
      }

      .cls-2 {
        fill: #1a2c3d;
      }

      .cls-3 {
        fill: #d3dce5;
      }

      .cls-4 {
        fill: #536882;
      }
    </style>
  </defs>
  <path class="cls-1" d="M48.676,39.692c.398-.902.622-1.897.622-2.946,0-4.04-3.276-7.316-7.316-7.316-2.596,0-4.87,1.356-6.169,3.394-9.333-4.543-15.81-4.701-15.81-4.701-8.701,0-15.773,6.972-15.935,15.634-.167,8.932,7.419,16.242,16.353,16.242h36.942c1.405,0,2.573-1.085,2.659-2.488.257-4.179-.693-12.658-11.346-17.82Z"/>
  <path class="cls-4" d="M41.983,33.364c-1.868,0-3.382,1.514-3.382,3.382s1.514,3.382,3.382,3.382,3.382-1.514,3.382-3.382-1.514-3.382-3.382-3.382Z"/>
  <path class="cls-3" d="M43.984,34.325c6.938-6.937,6.938-18.185,0-25.121-6.937-6.937-18.184-6.938-25.123,0-5.63,5.631-6.689,14.103-3.178,20.803l-2.677,8.29c-.375,1.161.723,2.259,1.884,1.883l8.288-2.677c6.703,3.511,15.176,2.453,20.806-3.178Z"/>
  <path class="cls-4" d="M30.112,10.538c-4.441.508-8.081,4.039-8.705,8.465-.539,3.825,1.091,7.309,3.839,9.401v2.821c0,.676.548,1.224,1.224,1.224h9.617c.676,0,1.224-.548,1.224-1.224v-2.803c2.408-1.823,3.964-4.712,3.964-7.966,0-5.902-5.121-10.609-11.162-9.918Z"/>
  <g>
    <path class="cls-3" d="M27.373,18.748c-1.268,0-2.296,1.028-2.296,2.296s1.028,2.296,2.296,2.296,2.296-1.028,2.296-2.296-1.028-2.296-2.296-2.296Z"/>
    <path class="cls-3" d="M35.206,18.748c-1.268,0-2.296,1.028-2.296,2.296s1.028,2.296,2.296,2.296,2.296-1.028,2.296-2.296-1.028-2.296-2.296-2.296Z"/>
  </g>
  <path class="cls-2" d="M52.707,47.487l-1.601,1.601,1.601,1.601c.391.391.391,1.023,0,1.414-.195.195-.451.293-.707.293s-.512-.098-.707-.293l-1.601-1.601-1.601,1.601c-.195.195-.451.293-.707.293s-.512-.098-.707-.293c-.391-.391-.391-1.023,0-1.414l1.601-1.601-1.601-1.601c-.391-.391-.391-1.023,0-1.414s1.023-.391,1.414,0l1.601,1.601,1.601-1.601c.391-.391,1.023-.391,1.414,0s.391,1.023,0,1.414ZM20.304,20.456c0-6.057,4.928-10.985,10.985-10.985s10.985,4.928,10.985,10.985c0,3.303-1.438,6.354-3.965,8.449v3.544c0,.552-.447,1-1,1h-12.064c-.552,0-1-.448-1-1v-3.563c-2.511-2.096-3.941-5.14-3.941-8.43ZM22.304,20.456c0,2.829,1.293,5.436,3.547,7.153.248.189.394.483.394.795v3.044h1.928v-2.571c0-.552.448-1,1-1s1,.448,1,1v2.571h2.232v-2.571c0-.552.448-1,1-1s1,.448,1,1v2.571h1.904v-3.027c0-.313.146-.608.396-.797,2.268-1.716,3.568-4.329,3.568-7.168,0-4.954-4.031-8.985-8.985-8.985s-8.985,4.031-8.985,8.985ZM27.373,24.34c-1.817,0-3.296-1.479-3.296-3.295s1.479-3.296,3.296-3.296,3.295,1.479,3.295,3.296-1.479,3.295-3.295,3.295ZM27.373,22.34c.714,0,1.295-.581,1.295-1.295s-.581-1.296-1.295-1.296-1.296.582-1.296,1.296.582,1.295,1.296,1.295ZM31.91,21.044c0-1.817,1.479-3.296,3.296-3.296s3.295,1.479,3.295,3.296-1.479,3.295-3.295,3.295-3.296-1.479-3.296-3.295ZM33.91,21.044c0,.714.581,1.295,1.296,1.295s1.295-.581,1.295-1.295-.581-1.296-1.295-1.296-1.296.582-1.296,1.296ZM60.959,57.574c-.118,1.921-1.725,3.426-3.657,3.426H20.36c-4.658,0-9.216-1.923-12.507-5.276-3.208-3.269-4.929-7.525-4.846-11.985.075-3.99,1.546-7.7,3.998-10.603-.627-.558-1.477-1.409-2.153-2.461-1.271-1.975-1.295-4.595-.062-6.677,1.003-1.694,2.511-2.689,4.359-2.878.034-.003.067-.005.102-.005h3.411c.157-4.631,2.028-9.153,5.493-12.619,7.317-7.316,19.222-7.315,26.537,0,3.545,3.543,5.497,8.255,5.497,13.268,0,3.247-.831,6.362-2.373,9.122,1.547,1.553,2.422,3.644,2.422,5.861,0,.839-.125,1.662-.372,2.456,10.282,5.375,11.378,13.772,11.094,18.372ZM16.569,29.542c.125.238.148.516.066.771l-2.677,8.29c-.084.261.057.439.121.504.065.064.244.206.504.121l8.288-2.677c.257-.081.534-.058.771.066,6.532,3.421,14.42,2.215,19.634-2.999,3.167-3.167,4.911-7.376,4.911-11.854s-1.744-8.688-4.911-11.854c-3.268-3.268-7.561-4.902-11.854-4.902s-8.586,1.634-11.854,4.902c-5.214,5.215-6.419,13.104-2.999,19.633ZM44.017,35.654c-1.182,1.075-2.469,1.98-3.833,2.705.439.48,1.057.769,1.737.769,1.313,0,2.382-1.068,2.382-2.382,0-.384-.106-.755-.286-1.092ZM6.533,29.593c.574.893,1.324,1.63,1.853,2.095,1.554-1.451,3.39-2.619,5.445-3.413-.627-1.684-1.011-3.419-1.14-5.16h-3.387c-1.187.136-2.126.776-2.794,1.903-.85,1.436-.841,3.231.023,4.575ZM48.18,40.592c-.484-.235-.696-.811-.479-1.303.356-.809.537-1.665.537-2.543,0-1.529-.555-2.976-1.537-4.113-.384.538-.8,1.056-1.244,1.556.542.742.848,1.632.848,2.558,0,2.416-1.966,4.382-4.382,4.382-1.45,0-2.785-.742-3.591-1.91-.623.248-1.257.457-1.899.635,1.107,1.953,3.19,3.209,5.49,3.209.553,0,1,.448,1,1s-.447,1-1,1c-3.231,0-6.127-1.886-7.493-4.756-3.771.612-7.727.065-11.336-1.725l-7.895,2.55c-.254.082-.515.122-.772.122-.65,0-1.284-.255-1.761-.732-.666-.666-.9-1.636-.61-2.532l2.54-7.865c-5.655,2.165-9.473,7.539-9.588,13.652-.073,3.919,1.444,7.665,4.273,10.547,2.917,2.973,6.956,4.677,11.08,4.677h7.296c-.279-1.364-1.398-3.834-5.826-4.738-.391-.08-.697-.385-.779-.776s.077-.793.404-1.022c.198-.142,4.919-3.639,2.527-11.311-.165-.527.13-1.088.657-1.252.525-.165,1.088.129,1.252.657,1.975,6.333-.263,10.32-1.895,12.222,4.365,1.503,5.42,4.586,5.67,6.221h9.683c-.155-.934-.581-1.689-1.306-2.201-.508-.358-1.16-.548-1.888-.548h-3.502c-.552,0-1-.448-1-1s.448-1,1-1h3.502c1.143,0,2.194.316,3.042.915.888.627,1.939,1.8,2.174,3.834h15.93c.878,0,1.607-.68,1.661-1.548.26-4.219-.795-12.02-10.783-16.859Z"/>
</svg>