<?xml version="1.0" encoding="UTF-8"?>
<svg id="Filled_Line" xmlns="http://www.w3.org/2000/svg" viewBox="0 0 64 64">
  <defs>
    <style>
      .cls-1 {
        fill: #894c3d;
      }

      .cls-2 {
        fill: #1a2c3d;
      }

      .cls-3 {
        fill: #702e24;
      }
    </style>
  </defs>
  <ellipse class="cls-3" cx="32" cy="38.654" rx="8.948" ry="21.282"/>
  <path class="cls-1" d="M32,17.37c-3.14,0-5.91,3.86-7.51,9.7,2.34.83,4.87,1.29,7.51,1.29s5.17-.46,7.51-1.29c-1.6-5.84-4.37-9.7-7.51-9.7Z"/>
  <path class="cls-3" d="M32,17.372c1.354,0,2.632.736,3.782,2.016.323-.604.523-1.283.523-2.016,0-2.378-1.928-4.306-4.305-4.306s-4.306,1.928-4.306,4.306c0,.733.2,1.412.523,2.016,1.15-1.28,2.429-2.016,3.782-2.016Z"/>
  <path class="cls-2" d="M44.884,40.831c.289,0,.564-.125.755-.344l6.246-7.187c.362-.417.318-1.048-.099-1.411-.416-.361-1.048-.318-1.411.099l-5.947,6.843h-2.481c0-.059.002-.117.002-.177,0-1.975-.11-3.881-.316-5.693l5.264-4.148c.282-.223.424-.58.369-.936l-1.401-9.222c-.083-.546-.593-.923-1.139-.838-.546.083-.921.593-.838,1.139l1.313,8.646-3.89,3.066c-.815-4.889-2.363-8.909-4.362-11.428.236-.606.357-1.232.357-1.868,0-1.727-.842-3.249-2.123-4.218.485-1.311,2.714-6.278,9.186-8.127.531-.152.839-.705.688-1.236-.152-.532-.709-.838-1.236-.687-7.067,2.019-9.715,7.331-10.438,9.168-.443-.121-.901-.206-1.382-.206s-.939.085-1.382.206c-.723-1.837-3.371-7.149-10.438-9.168-.527-.152-1.084.155-1.236.687-.151.531.156,1.084.688,1.236,6.474,1.85,8.701,6.817,9.186,8.127-1.281.969-2.123,2.491-2.123,4.218,0,.636.12,1.262.357,1.868-1.999,2.518-3.547,6.539-4.362,11.428l-3.89-3.066,1.313-8.646c.083-.546-.292-1.056-.838-1.139-.547-.084-1.056.292-1.139.838l-1.401,9.222c-.055.356.087.713.369.936l5.264,4.148c-.206,1.812-.316,3.718-.316,5.693,0,.059.002.118.002.177h-2.481l-5.947-6.843c-.363-.417-.994-.46-1.411-.099-.417.362-.461.994-.099,1.411l6.246,7.187c.19.219.466.344.755.344h2.982c.066,1.589.203,3.124.404,4.59l-3.235,1.155c-.367.131-.625.464-.66.852l-.652,7.246-2.408,3.232c-.33.443-.238,1.069.204,1.399.18.134.389.198.597.198.306,0,.606-.139.803-.402l2.577-3.458c.11-.148.178-.324.194-.508l.62-6.891,2.284-.815c1.493,8.012,4.994,13.507,9.174,13.507s7.681-5.495,9.174-13.507l2.284.815.62,6.891c.017.184.084.359.194.508l2.577,3.458c.196.263.497.402.803.402.208,0,.417-.064.597-.198.442-.33.534-.957.204-1.399l-2.408-3.232-.652-7.246c-.035-.388-.293-.721-.66-.852l-3.235-1.155c.202-1.466.339-3.001.404-4.59h2.982ZM25.75,26.291c1.552-4.969,3.946-7.919,6.25-7.919s4.698,2.951,6.25,7.919c-4.02,1.388-8.48,1.388-12.5,0ZM32,14.065c1.822,0,3.306,1.483,3.306,3.306,0,.068-.022.134-.026.202-1.023-.776-2.125-1.201-3.279-1.201s-2.256.425-3.279,1.201c-.005-.067-.026-.134-.026-.202,0-1.823,1.483-3.306,3.306-3.306ZM24.052,38.654c0-3.952.441-7.471,1.162-10.434,1.866.634,3.804.999,5.786,1.091v29.422c-3.519-1.26-6.948-8.998-6.948-20.08ZM33,58.733v-29.422c1.982-.092,3.92-.458,5.786-1.091.721,2.963,1.162,6.482,1.162,10.434,0,11.081-3.429,18.819-6.948,20.08Z"/>
</svg>