<?xml version="1.0" encoding="UTF-8"?>
<svg id="Filled_Line" xmlns="http://www.w3.org/2000/svg" viewBox="0 0 64 64">
  <defs>
    <style>
      .cls-1 {
        fill: #737e9b;
      }

      .cls-2 {
        fill: #1a2c3d;
      }

      .cls-3 {
        fill: #536882;
      }
    </style>
  </defs>
  <path class="cls-1" d="M48.615,32.389c.398-.902.622-1.897.622-2.946,0-4.041-3.275-7.316-7.316-7.316-2.596,0-4.87,1.356-6.169,3.394-9.333-4.543-15.81-4.7-15.81-4.7-8.701,0-15.773,6.972-15.935,15.634-.167,8.932,7.419,16.242,16.353,16.242h36.942c1.405,0,2.573-1.085,2.659-2.488.257-4.179-.693-12.658-11.346-17.82Z"/>
  <circle class="cls-3" cx="41.922" cy="29.443" r="3.382"/>
  <path class="cls-3" d="M49.465,39.146c-1.526,0-2.763,1.237-2.763,2.763s1.237,2.763,2.763,2.763,2.763-1.237,2.763-2.763-1.237-2.763-2.763-2.763Z"/>
  <path class="cls-2" d="M35.427,24.257c-9.009-4.232-15.196-4.43-15.485-4.437-4.433,0-8.49,1.754-11.526,4.591-.53-.463-1.298-1.213-1.883-2.122-.864-1.344-.873-3.14-.023-4.575.667-1.127,1.607-1.767,2.794-1.903h9.667c.247,0,6.061-.048,7.368-4.208.166-.527-.127-1.088-.654-1.254-.525-.163-1.088.127-1.254.654-.867,2.759-5.416,2.808-5.46,2.808h-9.721c-.034,0-.068.002-.102.005-1.849.189-3.356,1.185-4.359,2.878-1.233,2.082-1.208,4.702.062,6.677.684,1.064,1.545,1.923,2.174,2.48-2.438,2.876-3.943,6.565-4.019,10.584-.083,4.46,1.637,8.717,4.845,11.985,3.292,3.354,7.85,5.276,12.508,5.276h36.942c1.933,0,3.539-1.505,3.657-3.427.283-4.6-.812-12.997-11.094-18.372.248-.795.373-1.617.373-2.456,0-4.585-3.731-8.23-8.316-8.316-4.11-.077-6.494,3.13-6.494,3.13ZM41.921,23.126c3.482-.019,6.316,2.833,6.316,6.316,0,.878-.181,1.733-.538,2.543-.217.493-.005,1.069.479,1.303,9.988,4.84,11.044,12.64,10.784,16.858-.054.869-.783,1.55-1.661,1.55h-15.93c-.235-2.034-1.286-3.207-2.173-3.834-.846-.599-1.898-.915-3.043-.915h-3.502c-.552,0-1,.447-1,1s.448,1,1,1h3.502c.729,0,1.381.189,1.888.548.724.512,1.151,1.267,1.306,2.201h-9.683c-.25-1.635-1.305-4.719-5.67-6.222,1.632-1.901,3.869-5.889,1.895-12.222-.164-.527-.725-.82-1.252-.657-.527.164-.821.725-.657,1.252,2.392,7.672-2.329,11.168-2.527,11.311-.327.229-.486.632-.404,1.022s.388.695.779.775c4.429.905,5.547,3.375,5.826,4.739h-7.296c-4.124,0-8.163-1.705-11.08-4.678-2.829-2.882-4.346-6.628-4.272-10.547.151-8.079,6.851-14.652,14.91-14.652.061.002,5.968.217,14.454,4.159-.487,1.056-.766,2.227-.766,3.464,0,4.585,3.731,8.316,8.316,8.316.552,0,1-.447,1-1s-.448-1-1-1c-3.483,0-6.316-2.833-6.316-6.316,0-1.253.371-2.419,1.003-3.402,0,0,1.599-2.894,5.313-2.914ZM41.921,25.06c-2.417,0-4.382,1.966-4.382,4.382s1.966,4.381,4.382,4.381,4.382-1.965,4.382-4.381-1.966-4.382-4.382-4.382ZM41.921,31.824c-1.313,0-2.382-1.068-2.382-2.382s1.069-2.382,2.382-2.382,2.382,1.069,2.382,2.382-1.068,2.382-2.382,2.382ZM49.465,38.146c-2.075,0-3.763,1.688-3.763,3.763s1.688,3.763,3.763,3.763,3.763-1.688,3.763-3.763-1.688-3.763-3.763-3.763ZM49.465,43.671c-.972,0-1.763-.791-1.763-1.763s.791-1.763,1.763-1.763,1.763.791,1.763,1.763-.791,1.763-1.763,1.763Z"/>
</svg>