<?xml version="1.0" encoding="UTF-8"?>
<svg id="Filled_Line" xmlns="http://www.w3.org/2000/svg" viewBox="0 0 64 64">
  <defs>
    <style>
      .cls-1 {
        fill: #77b24c;
      }

      .cls-2 {
        fill: #eeae65;
      }

      .cls-3 {
        fill: #275132;
      }

      .cls-4 {
        fill: #1a2c3d;
      }

      .cls-5 {
        fill: #d88852;
      }
    </style>
  </defs>
  <path class="cls-1" d="M46.952,38.992c.773-.773,1.719-1.264,2.713-1.477.539-.116.858-.63.73-1.167-.426-1.785.055-3.741,1.448-5.135.504-.504,1.081-.886,1.698-1.151.494-.212.739-.752.55-1.255-.838-2.239-.362-4.857,1.439-6.658.97-.97,2.177-1.552,3.434-1.755.435-.07.76-.448.797-.887.503-5.993-.076-10.982-.386-13.048-.093-.622-.551-1.133-1.161-1.287C38.389.155,23.912,12.392,23.912,12.392,6.188,27.333,8.776,45.14,10.277,51.055c.306,1.205,1.327,2.101,2.566,2.207,15.378,1.305,25.82-1.604,32.883-6.536.409-.286.519-.836.282-1.275-1.118-2.071-.805-4.709.944-6.459Z"/>
  <path class="cls-3" d="M4.793,58.111c-1.034-1.034-.997-2.721.081-3.709L41.847,20.336c1.454-1.257,3.435.751,2.158,2.188L9.66,59.219c-.991,1.063-2.666,1.093-3.694.065l-1.172-1.172Z"/>
  <path class="cls-2" d="M10.252,27.818c-1.927,0-3.49,1.562-3.49,3.49s1.562,3.49,3.49,3.49,3.49-1.562,3.49-3.49-1.562-3.49-3.49-3.49Z"/>
  <circle class="cls-5" cx="12" cy="26.15" r="4.004"/>
  <path class="cls-2" d="M14.636,16.762c-2.211,0-4.004,1.793-4.004,4.004s1.793,4.004,4.004,4.004,4.004-1.793,4.004-4.004-1.793-4.004-4.004-4.004Z"/>
  <path class="cls-5" d="M18.137,12.293c-2.211,0-4.004,1.793-4.004,4.004s1.793,4.004,4.004,4.004,4.004-1.793,4.004-4.004-1.793-4.004-4.004-4.004Z"/>
  <circle class="cls-2" cx="23.053" cy="11.705" r="4.591" transform="translate(-2.073 5.61) rotate(-13.283)"/>
  <path class="cls-4" d="M60.186,5.241c-.073-.37-.348-.667-.711-.769-14.089-3.944-25.625.664-31.749,4.17-.292-.444-.646-.843-1.049-1.188,1.489-1.43,1.689-3.263,1.698-3.358.053-.546-.345-1.03-.891-1.087-.535-.051-1.036.341-1.099.886-.008.07-.211,1.581-1.594,2.498-.547-.18-1.13-.28-1.737-.28-2.967,0-5.394,2.324-5.574,5.246-2.349.313-4.174,2.246-4.315,4.644-2.065.633-3.531,2.541-3.531,4.762,0,.328.036.646.097.956-1.644.842-2.733,2.538-2.733,4.428,0,.627.129,1.222.341,1.775-.984.843-1.574,2.067-1.574,3.382,0,1.968,1.281,3.625,3.047,4.23-1.001,5.629-.562,10.499.075,13.809l-4.687,4.318c-.724.664-1.135,1.571-1.156,2.553-.021.982.35,1.905,1.044,2.601l1.172,1.172c.675.676,1.568,1.046,2.521,1.046.021,0,.043,0,.064,0,.977-.017,1.881-.42,2.546-1.133l5.119-5.47c1.494.081,2.957.128,4.383.128,11.29,0,20.421-2.542,27.187-7.577.215-.159.356-.398.394-.664.037-.265-.034-.534-.197-.746-1.358-1.771-1.193-4.296.385-5.874.829-.829,1.935-1.293,3.111-1.307.339-.004.653-.18.835-.468.181-.287.203-.646.06-.955-.792-1.698-.437-3.728.885-5.049.602-.602,1.361-1.017,2.198-1.2.312-.068.571-.281.7-.573.129-.292.11-.627-.049-.904-1.196-2.072-.852-4.699.838-6.388.931-.93,2.172-1.477,3.497-1.539.496-.023.899-.407.948-.9.827-8.349-.442-14.901-.497-15.176ZM23.053,8.114c1.98,0,3.591,1.611,3.591,3.591s-1.611,3.592-3.591,3.592-3.592-1.611-3.592-3.592,1.611-3.591,3.592-3.591ZM17.706,13.337c.506,1.654,1.761,2.98,3.366,3.591-.291,1.354-1.495,2.373-2.934,2.373-1.511,0-2.753-1.126-2.961-2.581,0-.009.003-.016.002-.025,0-.008-.006-.013-.007-.021-.016-.125-.038-.248-.038-.377,0-1.508,1.121-2.748,2.572-2.96ZM13.462,18.033c.647,1.737,2.225,3.002,4.129,3.213-.232,1.428-1.463,2.524-2.955,2.524-1.656,0-3.004-1.348-3.004-3.004,0-1.221.748-2.274,1.83-2.733ZM10.5,23.577c.901,1.322,2.418,2.193,4.136,2.193.112,0,.217-.026.327-.033.019.137.041.274.041.413,0,1.656-1.348,3.004-3.004,3.004s-3.004-1.348-3.004-3.004c0-1.077.595-2.047,1.504-2.574ZM7.763,31.308c0-.625.254-1.206.67-1.657.909.926,2.17,1.504,3.567,1.504.246,0,.481-.038.717-.073.007.075.025.15.025.226,0,1.373-1.117,2.489-2.49,2.489s-2.49-1.117-2.49-2.489ZM8.928,58.537c-.293.313-.69.491-1.12.498-.409.051-.832-.155-1.136-.459l-1.172-1.172c-.305-.306-.468-.712-.458-1.143.009-.432.189-.83.51-1.124L42.502,21.092c.331-.286.604-.104.736.029.133.134.312.409.036.719L8.928,58.537ZM58.766,19.413c-1.49.25-2.867.954-3.942,2.029-2.038,2.037-2.656,5.063-1.675,7.701-.749.321-1.432.782-2.013,1.363-1.593,1.592-2.217,3.894-1.721,6.039-1.193.263-2.289.859-3.17,1.74-2.038,2.038-2.449,5.167-1.117,7.639-6.854,4.77-16.202,6.98-27.822,6.589l4.783-5.111c.031.027.081.046.18.046.029,0,.059,0,.088-.004l11.484-1.006c.551-.048.957-.533.909-1.083s-.535-.961-1.083-.909l-9.598.841,5.72-6.111c.025.003.043.01.078.01.026,0,.053,0,.079-.003l9.545-.75c.551-.043.962-.524.919-1.075s-.531-.958-1.075-.919l-7.538.592,5.074-5.421,7.015-.461c.552-.037.969-.513.933-1.063-.037-.552-.517-.971-1.063-.933l-4.884.321,5.882-6.285c1.038-1.167.74-2.63-.09-3.471-.829-.842-2.289-1.158-3.492-.117l-6.02,5.547.284-4.316c.036-.551-.381-1.027-.933-1.063-.542-.037-1.026.381-1.063.933l-.422,6.413-5.407,4.981.538-6.843c.043-.551-.368-1.032-.918-1.076-.552-.043-1.032.368-1.076.918l-.707,8.993-6.074,5.596.767-8.765c.048-.55-.359-1.036-.909-1.083-.552-.055-1.036.358-1.083.909l-.958,10.952-6.554,6.038c-.48-3.091-.694-7.264.168-11.993,1.024-.127,1.947-.581,2.638-1.279.456.241,1.013.438,1.626.438.278,0,.564-.039.853-.132.526-.168.816-.73.648-1.257-.168-.525-.729-.818-1.257-.648-.283.092-.586.007-.83-.107.157-.457.261-.939.261-1.449,0-.312-.034-.621-.1-.926.426-.267.801-.599,1.128-.978.434.21.949.373,1.507.373.277,0,.564-.039.853-.131.526-.168.816-.73.648-1.257-.168-.526-.73-.816-1.257-.648-.262.085-.54.017-.775-.084.152-.478.257-.977.257-1.505,0-.322-.033-.64-.094-.952.364-.188.701-.416,1.006-.683.516.459,1.222.856,2.077.856.552,0,1-.448,1-1s-.448-1-1-1c-.352,0-.654-.24-.858-.455.274-.571.437-1.198.476-1.862.545-.17,1.05-.421,1.499-.754.52.477,1.246.898,2.127.898.552,0,1-.448,1-1s-.448-1-1-1c-.316,0-.595-.195-.796-.39.272-.465.489-.966.599-1.511.004,0,.009,0,.013,0,.845,0,1.644-.194,2.363-.531.524.516,1.286.996,2.229.996.552,0,1-.448,1-1s-.448-1-1-1c-.206,0-.393-.085-.556-.197.961-1.005,1.556-2.363,1.556-3.86,0-.414-.049-.817-.134-1.206,5.69-3.302,16.529-7.761,29.818-4.266.274,1.718.961,6.913.438,13.179Z"/>
</svg>