<?xml version="1.0" encoding="UTF-8"?>
<svg id="Filled_Line" xmlns="http://www.w3.org/2000/svg" viewBox="0 0 64 64">
  <defs>
    <style>
      .cls-1 {
        fill: #d85264;
      }

      .cls-2 {
        fill: #894c3d;
      }

      .cls-3 {
        fill: #1a2c3d;
      }

      .cls-4 {
        fill: #a26a55;
      }

      .cls-5 {
        fill: #d3dce5;
      }
    </style>
  </defs>
  <circle class="cls-5" cx="32" cy="32" r="28"/>
  <path class="cls-4" d="M32,16.452c-2.076,0-3.759,1.683-3.759,3.759s1.683,3.759,3.759,3.759,3.759-1.683,3.759-3.759-1.683-3.759-3.759-3.759Z"/>
  <ellipse class="cls-4" cx="32" cy="42.078" rx="5.78" ry="8.401"/>
  <ellipse class="cls-4" cx="32" cy="28.823" rx="4.013" ry="4.853"/>
  <path class="cls-2" d="M36.94,37.73h-9.87c1-2.43,2.83-4.05,4.93-4.05s3.93,1.62,4.94,4.05Z"/>
  <path class="cls-2" d="M37.78,42.08c0,1.59-.3,3.07-.84,4.34h-9.88c-.54-1.27-.84-2.75-.84-4.34h11.56Z"/>
  <path class="cls-1" d="M32,4c-15.464,0-28,12.536-28,28s12.536,28,28,28,28-12.536,28-28S47.464,4,32,4ZM8.675,32c0-12.882,10.443-23.325,23.325-23.325,5.634,0,10.801,1.998,14.833,5.323L14.001,46.836c-3.327-4.032-5.326-9.201-5.326-14.836ZM32,55.325c-5.615,0-10.765-1.985-14.79-5.29L50.033,17.206c3.306,4.026,5.292,9.177,5.292,14.794,0,12.882-10.443,23.325-23.325,23.325Z"/>
  <path class="cls-3" d="M32,3C16.01,3,3,16.01,3,32s13.01,29,29,29,29-13.01,29-29S47.99,3,32,3ZM32,59c-14.888,0-27-12.112-27-27S17.112,5,32,5s27,12.112,27,27-12.112,27-27,27ZM47.832,13.95c-.014-.282-.146-.544-.362-.724-4.341-3.58-9.835-5.552-15.47-5.552-13.413,0-24.325,10.912-24.325,24.325,0,5.637,1.973,11.131,5.555,15.473.18.217.442.349.724.362.016,0,.032,0,.048,0,.265,0,.52-.104.707-.293L47.54,14.705c.199-.199.306-.474.292-.755ZM32,17.452c1.521,0,2.759,1.238,2.759,2.759s-1.237,2.759-2.759,2.759-2.759-1.238-2.759-2.759,1.237-2.759,2.759-2.759ZM28.987,28.823c0-2.125,1.352-3.853,3.013-3.853.616,0,1.214.264,1.72.729l-4.515,4.516c-.141-.442-.217-.909-.217-1.393ZM42.066,17.351l-.605-3.981c-.083-.546-.595-.923-1.139-.838-.546.083-.921.593-.838,1.139l.826,5.436-5.181,5.182c-.099-.095-.201-.185-.305-.27,1.167-.868,1.934-2.245,1.934-3.808,0-1.003-.316-1.932-.848-2.7l.8-.96c.239-.287.298-.684.153-1.028l-.946-2.246c-.215-.51-.803-.748-1.311-.533-.509.214-.747.801-.533,1.31l.71,1.685-.342.41c-.716-.432-1.546-.696-2.442-.696s-1.726.264-2.442.696l-.342-.41.71-1.685c.214-.509-.024-1.095-.533-1.31-.508-.214-1.096.023-1.311.533l-.946,2.246c-.145.344-.086.741.153,1.028l.8.96c-.532.768-.848,1.697-.848,2.7,0,1.555.76,2.925,1.917,3.794-.136.11-.259.239-.385.364l-5.191-4.559.933-6.139c.083-.546-.292-1.056-.838-1.139-.549-.084-1.056.292-1.139.838l-1.015,6.68c-.052.337.072.677.328.902l5.758,5.057c-.253.535-.432,1.121-.531,1.741h-3.556c-.186,0-.367.052-.525.149l-4.524,2.794c-.47.291-.615.907-.325,1.376.188.306.517.475.852.475.18,0,.36-.048.524-.149l4.283-2.645h3.249c.095.682.295,1.335.594,1.942l-4.154,1.7c-.312.128-.537.403-.603.733l-.587,2.99-8.214,8.215c-2.855-3.835-4.417-8.527-4.417-13.331,0-12.31,10.015-22.325,22.325-22.325,4.803,0,9.493,1.56,13.328,4.414l-3.262,3.262ZM50.806,16.572c-.179-.218-.441-.35-.724-.364-.283-.006-.557.092-.756.292L16.503,49.328c-.199.199-.306.475-.292.756.014.282.146.545.364.724,4.334,3.559,9.812,5.518,15.425,5.518,13.413,0,24.325-10.912,24.325-24.325,0-5.614-1.96-11.094-5.52-15.428ZM35.265,36.731h-3.339l1.616-1.616c.652.353,1.237.903,1.724,1.616ZM29.926,38.731h6.312c.244.728.41,1.517.485,2.347h-9.144l2.346-2.347ZM36.24,45.424h-8.481c-.245-.725-.412-1.516-.489-2.346h9.458c-.076.83-.244,1.621-.489,2.346ZM35.262,47.424c-.862,1.264-2.014,2.056-3.262,2.056s-2.4-.792-3.262-2.056h6.524ZM32,54.325c-4.781,0-9.456-1.549-13.283-4.383l6.574-6.575c.456,4.575,3.287,8.113,6.709,8.113,3.738,0,6.78-4.218,6.78-9.401,0-3.65-1.5-6.879-3.776-8.426l.248-.248,3.996,1.636,1.11,5.655c.043.219.157.416.325.562l4.872,4.235c.189.164.423.245.656.245.279,0,.557-.116.755-.344.362-.417.318-1.049-.099-1.411l-4.613-4.01-1.148-5.848c-.065-.33-.291-.605-.603-.733l-3.719-1.522,2.119-2.12h1.289l4.283,2.645c.164.101.345.149.524.149.335,0,.663-.168.852-.475.29-.47.145-1.086-.325-1.376l-4.524-2.794c-.054-.033-.114-.053-.172-.076l9.109-9.11c2.835,3.828,4.385,8.504,4.385,13.287,0,12.311-10.015,22.325-22.325,22.325Z"/>
</svg>