<?xml version="1.0" encoding="UTF-8"?>
<svg id="Filled_Line" xmlns="http://www.w3.org/2000/svg" viewBox="0 0 64 64">
  <defs>
    <style>
      .cls-1 {
        fill: #737e9b;
      }

      .cls-2 {
        fill: #1a2c3d;
      }

      .cls-3 {
        fill: #d3dce5;
      }

      .cls-4 {
        fill: #536882;
      }
    </style>
  </defs>
  <rect class="cls-3" x="13.386" y="20.724" width="37.229" height="32.701"/>
  <path class="cls-4" d="M53.885,19.804l-1.312-3.953c-.337-1.016-1.288-1.702-2.359-1.702H13.785c-1.071,0-2.021.686-2.358,1.702l-1.312,3.953c-.15.453.187.92.664.92h42.443c.477,0,.814-.467.664-.919Z"/>
  <rect class="cls-4" x="10.355" y="53.425" width="43.289" height="6.575" rx="1.793" ry="1.793"/>
  <g>
    <rect class="cls-1" x="35.206" y="20.724" width="4.499" height="32.701"/>
    <rect class="cls-1" x="46.116" y="20.724" width="4.499" height="32.701"/>
    <rect class="cls-1" x="24.296" y="20.724" width="4.499" height="32.701"/>
    <rect class="cls-1" x="13.386" y="20.724" width="4.499" height="32.701"/>
  </g>
  <path class="cls-1" d="M32.129,9.681h-.258c-1.063,0-1.924.862-1.924,1.924v2.543h4.107v-2.543c0-1.063-.862-1.924-1.924-1.924Z"/>
  <path class="cls-2" d="M55.14,20.409l-1.617-4.873c-.475-1.428-1.804-2.387-3.308-2.387h-15.037c1.5-1.036,2.404-2.724,2.404-4.567,0-3.078-2.504-5.582-5.582-5.582s-5.582,2.504-5.582,5.582c0,1.843.904,3.531,2.404,4.567h-15.037c-1.504,0-2.833.959-3.308,2.387l-1.617,4.873c-.101.305-.05.64.139.9.188.26.489.415.811.415h2.576v5.623h-2.206c-.553,0-1,.448-1,1s.447,1,1,1h2.206v6.728h-2.206c-.553,0-1,.447-1,1s.447,1,1,1h2.206v6.729h-2.206c-.553,0-1,.447-1,1s.447,1,1,1h2.206v5.622h-.238c-1.539,0-2.792,1.253-2.792,2.793v2.989c0,1.54,1.253,2.793,2.792,2.793h39.705c1.539,0,2.792-1.253,2.792-2.793v-2.989c0-1.54-1.253-2.793-2.792-2.793h-.238v-5.622h2.206c.553,0,1-.447,1-1s-.447-1-1-1h-2.206v-6.729h2.206c.553,0,1-.447,1-1s-.447-1-1-1h-2.206v-6.728h2.206c.553,0,1-.448,1-1s-.447-1-1-1h-2.206v-5.623h2.576c.321,0,.623-.154.811-.415.188-.261.239-.596.139-.9ZM33.054,13.149h-2.107v-1.543c0-.51.415-.925.925-.925h.258c.51,0,.925.415.925.925v1.543ZM32,5c1.976,0,3.582,1.606,3.582,3.582,0,.769-.255,1.493-.695,2.091-.392-1.154-1.474-1.991-2.758-1.991h-.258c-1.284,0-2.366.838-2.758,1.991-.44-.598-.695-1.321-.695-2.091,0-1.975,1.606-3.582,3.582-3.582ZM14.386,21.724h2.498v5.623h-2.498v-5.623ZM40.704,52.425v-5.622h4.412v5.622h-4.412ZM29.794,38.074h4.412v6.729h-4.412v-6.729ZM27.794,44.803h-2.498v-6.729h2.498v6.729ZM36.206,38.074h2.498v6.729h-2.498v-6.729ZM36.206,36.074v-6.728h2.498v6.728h-2.498ZM34.206,36.074h-4.412v-6.728h4.412v6.728ZM27.794,36.074h-2.498v-6.728h2.498v6.728ZM23.296,36.074h-4.412v-6.728h4.412v6.728ZM23.296,38.074v6.729h-4.412v-6.729h4.412ZM23.296,46.803v5.622h-4.412v-5.622h4.412ZM25.296,46.803h2.498v5.622h-2.498v-5.622ZM29.794,46.803h4.412v5.622h-4.412v-5.622ZM36.206,46.803h2.498v5.622h-2.498v-5.622ZM40.704,44.803v-6.729h4.412v6.729h-4.412ZM40.704,36.074v-6.728h4.412v6.728h-4.412ZM40.704,27.347v-5.623h4.412v5.623h-4.412ZM38.704,27.347h-2.498v-5.623h2.498v5.623ZM34.206,27.347h-4.412v-5.623h4.412v5.623ZM27.794,27.347h-2.498v-5.623h2.498v5.623ZM23.296,27.347h-4.412v-5.623h4.412v5.623ZM14.386,29.347h2.498v6.728h-2.498v-6.728ZM14.386,38.074h2.498v6.729h-2.498v-6.729ZM14.386,46.803h2.498v5.622h-2.498v-5.622ZM52.645,55.218v2.989c0,.438-.355.793-.792.793H12.147c-.437,0-.792-.355-.792-.793v-2.989c0-.438.355-.793.792-.793h39.705c.437,0,.792.355.792.793ZM49.614,52.425h-2.498v-5.622h2.498v5.622ZM49.614,44.803h-2.498v-6.729h2.498v6.729ZM49.614,36.074h-2.498v-6.728h2.498v6.728ZM49.614,27.347h-2.498v-5.623h2.498v5.623ZM11.195,19.724l1.181-3.557c.202-.608.769-1.018,1.409-1.018h36.43c.641,0,1.207.409,1.409,1.017l1.181,3.558H11.195Z"/>
</svg>