<?xml version="1.0" encoding="UTF-8"?>
<svg id="Filled_Line" xmlns="http://www.w3.org/2000/svg" viewBox="0 0 64 64">
  <defs>
    <style>
      .cls-1 {
        fill: #eeae65;
      }

      .cls-2 {
        fill: #e88490;
      }

      .cls-3 {
        fill: #d85264;
      }

      .cls-4 {
        fill: #1a2c3d;
      }

      .cls-5 {
        fill: #d3dce5;
      }

      .cls-6 {
        fill: #d88852;
      }
    </style>
  </defs>
  <rect class="cls-6" x="4" y="50.7" width="56" height="9.3" rx="2.282" ry="2.282"/>
  <path class="cls-1" d="M53.053,47.385h-14.749c-1.321,0-2.505.989-2.574,2.308-.074,1.407,1.045,2.571,2.436,2.571h5.451c.785,0,1.422.637,1.422,1.422l.033,1.379c0,1.321.989,2.505,2.308,2.574,1.407.074,2.571-1.045,2.571-2.436l-.033-1.517c0-.786.637-1.422,1.422-1.422h1.574c1.321,0,2.505-.989,2.574-2.308.074-1.407-1.045-2.571-2.436-2.571Z"/>
  <path class="cls-3" d="M48.326,44.655l-6.67-7.939-4.942,4.942,7.939,6.669c1.014,1.014,2.658,1.014,3.672,0s1.014-2.658,0-3.672Z"/>
  <path class="cls-2" d="M42.78,33.365l-3.482-3.482-9.416,9.416,3.482,3.482c.615.615,1.613.615,2.229,0l7.188-7.187c.615-.615.615-1.613,0-2.229Z"/>
  <path class="cls-5" d="M41.181,22.233L23.589,4.64c-.855-.855-2.24-.855-3.095,0l-15.855,15.855c-.855.855-.855,2.24,0,3.095l17.592,17.593c1.592,1.592,4.174,1.593,5.767,0l13.183-13.183c1.592-1.592,1.592-4.174,0-5.766Z"/>
  <rect class="cls-3" x="10.35" y="16.106" width="26.799" height="15.288" transform="translate(-9.838 23.75) rotate(-45)"/>
  <path class="cls-4" d="M33.91,18.616c0,.634-.247,1.229-.695,1.677l-.754.756c-.463.462-1.07.693-1.678.693s-1.214-.231-1.676-.693c-.391-.39-.391-1.023,0-1.414.391-.391,1.024-.391,1.415,0,.144.144.38.146.526,0l.754-.756c.095-.095.109-.205.109-.263s-.014-.168-.108-.263l-2.655-2.655c-.145-.145-.381-.145-.526,0l-.754.756c-.096.095-.109.205-.109.263s.014.168.108.262l.286.287.075-.075c.391-.391,1.023-.391,1.414,0s.391,1.023,0,1.414l-.782.782c-.188.188-.442.293-.707.293s-.52-.105-.708-.293l-.993-.993c-.448-.447-.694-1.043-.694-1.677s.247-1.229.695-1.678l.754-.755c.926-.924,2.43-.924,3.354,0l2.655,2.655c.448.447.695,1.043.695,1.677ZM24.894,18.011c-.391-.391-1.023-.391-1.414,0l-1.648,1.648c-.391.391-.391,1.023,0,1.414s1.023.391,1.414,0l.941-.941,3.888,3.888c.195.195.451.293.707.293s.512-.098.707-.293c.391-.391.391-1.023,0-1.414l-4.595-4.595ZM16.759,26.146c-.391-.391-1.023-.391-1.414,0l-2.031,2.031c-.391.391-.391,1.023,0,1.414s1.023.391,1.414,0l1.324-1.324.884.884-1.324,1.324c-.391.391-.391,1.023,0,1.414.195.195.451.293.707.293s.512-.098.707-.293l1.324-1.324.883.883-1.324,1.324c-.391.391-.391,1.023,0,1.414.195.195.451.293.707.293s.512-.098.707-.293l2.031-2.031c.391-.391.391-1.023,0-1.414l-4.595-4.595ZM22.449,22.396c-.896-.896-2.458-.896-3.354,0l-.755.755c-.448.447-.695,1.043-.695,1.677s.247,1.229.695,1.677l3.625,3.625c.195.195.451.293.707.293s.512-.098.707-.293c.391-.391.391-1.023,0-1.414l-3.625-3.625c-.094-.095-.108-.205-.108-.263s.014-.168.109-.263l.756-.755c.19-.19.335-.188.525,0l3.625,3.624c.391.391,1.023.391,1.414,0s.391-1.023,0-1.414l-3.625-3.624ZM61,52.981v4.737c0,1.81-1.472,3.281-3.282,3.281H6.282c-1.81,0-3.282-1.472-3.282-3.281v-4.737c0-1.81,1.472-3.281,3.282-3.281h28.453c0-.02-.004-.039-.003-.06.096-1.825,1.666-3.255,3.573-3.255h2.487l-4.018-3.373-.474.474c-.486.487-1.133.755-1.821.755h0c-.688,0-1.335-.269-1.821-.755l-2.775-2.774-1.177,1.177c-.99.989-2.29,1.484-3.59,1.484s-2.601-.495-3.591-1.485L3.933,24.296c-.603-.602-.934-1.402-.934-2.255s.332-1.651.934-2.254L19.787,3.933c1.243-1.244,3.266-1.244,4.509,0l17.592,17.593c.959.959,1.487,2.234,1.487,3.591s-.528,2.631-1.487,3.59l-1.176,1.176,2.776,2.775c1.003,1.005,1.003,2.639,0,3.644l-.475.475,6.079,7.236c.644.642.97,1.5.991,2.374h2.971c.939,0,1.849.391,2.496,1.072.583.615.895,1.404.924,2.242h1.245c1.81,0,3.282,1.472,3.282,3.281ZM19.68,37.217l17.536-17.535-9.398-9.398L10.283,27.818l9.398,9.398ZM5.347,22.882l3.522,3.522L26.404,8.869l-3.522-3.523c-.232-.231-.536-.348-.84-.348s-.608.116-.84.348l-15.854,15.854c-.225.225-.348.523-.348.841s.124.615.348.84ZM40.474,27.292c.581-.581.901-1.354.901-2.176s-.32-1.596-.901-2.177l-1.843-1.844-17.536,17.535,1.844,1.844c1.2,1.201,3.152,1.2,4.353,0l13.183-13.184ZM34.885,42.073l7.188-7.187c.224-.225.224-.591,0-.815l-2.775-2.775-.853.853,1.253,1.254c.391.391.391,1.023,0,1.414-.195.195-.451.293-.707.293s-.512-.098-.707-.293l-1.253-1.254-1.027,1.027,1.254,1.254c.391.391.391,1.023,0,1.414-.195.195-.451.293-.707.293s-.512-.098-.707-.293l-1.254-1.254-1.027,1.027,1.254,1.253c.391.391.391,1.023,0,1.414-.195.195-.452.293-.708.293s-.512-.098-.707-.293l-1.254-1.253-.853.853,2.775,2.775c.109.109.253.169.407.169h0c.153,0,.298-.06.407-.169ZM38.193,41.594l7.104,5.968c.686.68,1.699.679,2.322.059.623-.622.623-1.636,0-2.258l-6.026-7.167-3.4,3.399ZM36.729,49.746c-.011.21.024.412.098.601.047.12.113.227.186.327.021.028.041.056.064.083.08.094.168.181.268.251.012.008.025.013.037.021.095.062.199.111.307.149.031.011.062.021.094.029.123.034.251.058.384.058h5.452c1.335,0,2.422,1.087,2.422,2.422l.033,1.354c0,.854.611,1.561,1.361,1.6.386.025.78-.118,1.069-.393.29-.275.449-.646.449-1.045l-.033-1.495c0-1.356,1.086-2.443,2.422-2.443h1.573c.151,0,.298-.025.441-.066.015-.004.029-.008.044-.012.441-.139.817-.456.986-.867.003-.007.008-.012.011-.018.05-.127.087-.258.094-.398.021-.401-.119-.781-.393-1.069-.275-.29-.646-.449-1.045-.449h-3.515c-.143.229-.306.449-.505.648-.701.701-1.623,1.052-2.543,1.052s-1.842-.351-2.543-1.052l-.773-.648h-4.87c-.829,0-1.536.61-1.576,1.36ZM59,52.981c0-.706-.575-1.281-1.282-1.281h-1.813c-.317.467-.748.849-1.256,1.12-.037.02-.076.038-.114.057-.148.073-.3.137-.459.189-.119.04-.24.076-.364.104-.068.015-.135.027-.204.038-.195.033-.392.055-.593.055h-1.573c-.233,0-.422.189-.422.422l.033,1.495c0,.961-.391,1.87-1.072,2.517-.169.16-.351.299-.543.42-.044.028-.093.046-.139.072-.152.086-.306.167-.469.228-.059.022-.121.034-.182.053-.153.048-.306.093-.466.119-.08.013-.162.015-.243.023-.108.01-.214.031-.324.031-.062,0-.124-.002-.186-.005-1.826-.097-3.256-1.666-3.256-3.573l-.033-1.354c0-.257-.19-.446-.422-.446h-5.452c-.21,0-.416-.026-.618-.064-.045-.008-.09-.016-.135-.026-.19-.043-.375-.1-.553-.174-.05-.021-.096-.046-.145-.068-.141-.066-.276-.141-.406-.225-.047-.03-.096-.056-.141-.089-.148-.106-.284-.227-.413-.354-.026-.026-.057-.044-.083-.071-.023-.024-.038-.053-.06-.077-.117-.13-.229-.267-.326-.415H6.282c-.707,0-1.282.575-1.282,1.281v4.737c0,.706.575,1.281,1.282,1.281h51.437c.707,0,1.282-.575,1.282-1.281v-4.737Z"/>
</svg>