<?xml version="1.0" encoding="UTF-8"?>
<svg id="Filled_Line" xmlns="http://www.w3.org/2000/svg" viewBox="0 0 64 64">
  <defs>
    <style>
      .cls-1 {
        fill: #737e9b;
      }

      .cls-2 {
        fill: #1a2c3d;
      }

      .cls-3 {
        fill: #536882;
      }
    </style>
  </defs>
  <path class="cls-3" d="M32,16.56c-9.199,0-16.657,12.459-16.657,21.659s7.458,16.657,16.657,16.657,16.657-7.458,16.657-16.657-7.458-21.659-16.657-21.659Z"/>
  <path class="cls-1" d="M32,16.56c-5.61,0-10.58,4.64-13.6,10.35,3.54,3.25,8.33,5.25,13.6,5.25s10.05-1.99,13.6-5.25c-3.02-5.71-7.99-10.35-13.6-10.35Z"/>
  <path class="cls-3" d="M25.086,18.951c2.107-1.489,4.446-2.391,6.914-2.391s4.811.904,6.918,2.395l.002-.005c.198-.66.305-1.359.305-2.083,0-3.991-3.235-7.226-7.226-7.226s-7.226,3.235-7.226,7.226c0,.724.106,1.423.305,2.083l.008.002Z"/>
  <path class="cls-2" d="M52.702,39.15c.289,0,.564-.125.755-.344l7.307-8.407c.362-.417.318-1.049-.099-1.411-.416-.36-1.048-.319-1.411.099l-7.008,8.063h-2.625c-.126-2.115-.616-4.416-1.418-6.704l6.749-5.319c.282-.223.424-.58.369-.936l-1.64-10.787c-.083-.546-.595-.922-1.139-.838-.546.083-.921.593-.838,1.139l1.552,10.212-5.814,4.582c-1.677-3.889-4.23-7.56-7.402-9.992.109-.539.185-1.086.185-1.642,0-1.464-.389-2.837-1.062-4.029l2.568-3.082c.239-.287.298-.684.153-1.028l-2.151-5.106c-.215-.51-.804-.745-1.311-.533-.509.215-.747.801-.533,1.311l1.915,4.545-1.869,2.244c-1.498-1.565-3.603-2.546-5.935-2.546s-4.437.981-5.935,2.546l-1.869-2.244,1.915-4.545c.214-.51-.024-1.096-.533-1.311-.507-.212-1.096.023-1.311.533l-2.151,5.106c-.145.345-.086.741.153,1.028l2.568,3.082c-.673,1.192-1.062,2.565-1.062,4.029,0,.555.076,1.102.185,1.641-3.175,2.435-5.731,6.111-7.407,10.004l-5.809-4.578,1.552-10.212c.083-.546-.292-1.056-.838-1.139-.546-.084-1.056.292-1.139.838l-1.64,10.787c-.055.355.087.713.369.936l6.745,5.315c-.801,2.289-1.291,4.591-1.415,6.707h-2.624l-7.008-8.063c-.363-.417-.994-.459-1.411-.099-.417.362-.461.994-.099,1.411l7.307,8.407c.19.219.466.344.755.344h3.093c.106,1.979.528,3.873,1.235,5.628l-3.937,1.406c-.367.131-.625.464-.66.852l-.768,8.523-2.845,3.818c-.33.443-.238,1.069.204,1.399.18.134.389.198.597.198.306,0,.606-.139.803-.402l3.014-4.045c.11-.148.178-.324.194-.508l.735-8.168,3.507-1.253c2.992,5.51,8.83,9.26,15.529,9.26s12.568-3.772,15.552-9.308l3.642,1.301.735,8.168c.017.184.084.359.194.508l3.014,4.045c.196.264.497.402.803.402.208,0,.417-.064.597-.198.442-.33.534-.956.204-1.399l-2.845-3.818-.768-8.523c-.035-.388-.293-.721-.66-.852l-4.076-1.456c.698-1.746,1.114-3.627,1.218-5.594h3.092ZM25.774,16.866c0-3.433,2.793-6.226,6.226-6.226s6.226,2.793,6.226,6.226c0,.138-.021.273-.03.41-1.903-1.083-3.983-1.717-6.196-1.717s-4.293.634-6.196,1.717c-.009-.137-.03-.272-.03-.41ZM32,17.56c4.795,0,9.281,3.872,12.212,8.897-3.362,3.026-7.662,4.701-12.212,4.701s-8.849-1.675-12.212-4.701c2.931-5.025,7.417-8.897,12.212-8.897ZM32,53.875c-8.634,0-15.657-7.023-15.657-15.656,0-3.217.923-6.739,2.479-9.949,3.673,3.15,8.296,4.888,13.178,4.888s9.504-1.738,13.178-4.888c1.556,3.211,2.479,6.732,2.479,9.949,0,8.633-7.023,15.656-15.657,15.656Z"/>
</svg>