<?xml version="1.0" encoding="UTF-8"?>
<svg id="Filled_Line" xmlns="http://www.w3.org/2000/svg" viewBox="0 0 64 64">
  <defs>
    <style>
      .cls-1 {
        fill: #9eabc4;
      }

      .cls-2 {
        fill: #77b24c;
      }

      .cls-3 {
        fill: #737e9b;
      }

      .cls-4 {
        fill: #1a2c3d;
      }

      .cls-5 {
        fill: #d3dce5;
      }

      .cls-6 {
        fill: #536882;
      }
    </style>
  </defs>
  <path class="cls-2" d="M47.054,9.536h-18.572c-.665,0-1.302.264-1.773.734l-11.921,11.921c-.47.47-.734,1.108-.734,1.773v31.768c0,2.306,1.887,4.193,4.193,4.193h32.864c2.306,0,4.193-1.887,4.193-4.193V17.786c0-4.537-3.712-8.25-8.25-8.25ZM48.993,20.343c0,1.19-.974,2.164-2.164,2.164h-22.615c-.574,0-.857-.697-.447-1.098l5.946-5.802c.338-.33.791-.514,1.263-.514h15.853c1.19,0,2.164.974,2.164,2.164v3.086Z"/>
  <path class="cls-1" d="M21.745,7.225l-2.424-2.424c-.4-.4-1.049-.4-1.449,0l-8.451,8.451c-.4.4-.4,1.049,0,1.449l2.424,2.424c.4.4,1.049.4,1.449,0l4.192-4.192,4.259-4.259c.4-.4.4-1.049,0-1.449Z"/>
  <path class="cls-5" d="M35.21,26.533c-7.993,0-14.474,6.477-14.474,14.47s6.48,14.47,14.474,14.47,14.47-6.48,14.47-14.47-6.48-14.47-14.47-14.47Z"/>
  <path class="cls-6" d="M35.208,35.828c-3.055,0-5.532,4.138-5.532,7.194s2.477,5.533,5.532,5.533,5.532-2.477,5.532-5.533-2.477-7.194-5.532-7.194Z"/>
  <path class="cls-3" d="M32.349,37.084c.835-.763,1.811-1.256,2.859-1.256s2.025.494,2.86,1.257l.004-.006c.236-.449.369-.96.369-1.502,0-1.786-1.448-3.233-3.233-3.233s-3.233,1.448-3.233,3.233c0,.542.133,1.053.369,1.502l.005.005Z"/>
  <rect class="cls-5" x="14.945" y="12.239" width="8.39" height="4.639" transform="translate(-4.688 17.8) rotate(-45.003)"/>
  <path class="cls-4" d="M22.642,23.507h24.187c1.745,0,3.164-1.419,3.164-3.164v-3.086c0-1.745-1.419-3.164-3.164-3.164h-16.589c-.261,0-.512.102-.698.284l-7.598,7.414c-.291.284-.381.716-.228,1.093s.52.623.926.623ZM30.646,16.093h16.182c.642,0,1.164.522,1.164,1.164v3.086c0,.642-.522,1.164-1.164,1.164h-21.73l5.548-5.414ZM47.054,8.536h-19.61c-.265,0-.52.105-.707.293l-2.99,2.989-1.867-1.867,1.296-1.296c.391-.391.391-1.023,0-1.414l-3.873-3.873c-.391-.391-1.023-.391-1.414,0L7.989,13.27c-.391.391-.391,1.023,0,1.414l3.873,3.873c.195.195.451.293.707.293s.512-.098.707-.293l1.258-1.258,1.866,1.867-3.052,3.052c-.188.188-.293.441-.293.707v32.807c0,2.863,2.33,5.192,5.193,5.192h32.864c2.863,0,5.193-2.329,5.193-5.192V17.786c0-5.101-4.149-9.25-9.25-9.25ZM12.569,16.436l-2.459-2.459,8.486-8.486,2.459,2.459-8.486,8.486ZM15.948,15.885l4.519-4.519,1.867,1.867-4.519,4.519-1.866-1.867ZM54.304,55.731c0,1.761-1.432,3.192-3.193,3.192H18.248c-1.761,0-3.193-1.432-3.193-3.192V23.339l12.803-12.803h19.196c3.998,0,7.25,3.252,7.25,7.25v37.945ZM35.201,25.532c-8.532,0-15.474,6.939-15.474,15.47s6.941,15.471,15.474,15.471,15.47-6.94,15.47-15.471-6.94-15.47-15.47-15.47ZM35.201,27.532c3.354,0,6.418,1.24,8.779,3.276l-4.568,4.568c-.046-.954-.408-1.818-.985-2.505l.518-.622c.239-.287.298-.684.153-1.028l-.714-1.695c-.214-.509-.802-.746-1.31-.533-.509.215-.748.801-.533,1.311l.478,1.134-.195.234c-.501-.209-1.049-.327-1.625-.327s-1.124.117-1.625.326l-.194-.234.478-1.134c.215-.509-.024-1.096-.533-1.311-.51-.213-1.096.024-1.31.533l-.715,1.695c-.146.345-.086.741.153,1.028l.518.621c-.618.736-1.006,1.673-1.006,2.707,0,.427.072.85.198,1.256-.34.368-.652.771-.932,1.203l-1.844-.524-.721-2.955c-.131-.537-.672-.863-1.209-.734-.536.131-.865.672-.734,1.209l.859,3.521c.085.35.352.626.698.725l2.025.576c-.226.579-.402,1.174-.509,1.767l-2.203.258c-.34.04-.637.252-.785.562l-.956,1.995c-.239.498-.028,1.095.47,1.334.14.066.287.098.432.098.373,0,.73-.209.902-.568l.718-1.498,1.323-.155c.065.686.236,1.341.497,1.949l-4.19,4.19c-2.037-2.361-3.278-5.426-3.278-8.781,0-7.427,6.044-13.47,13.474-13.47ZM30.667,43.021c0-2.704,2.198-6.193,4.532-6.193.684,0,1.355.305,1.963.797l-6.381,6.381c-.071-.318-.115-.646-.115-.985ZM35.199,33.344c1.174,0,2.129.914,2.216,2.066-.693-.364-1.436-.582-2.216-.582s-1.524.218-2.216.582c.087-1.152,1.042-2.066,2.216-2.066ZM31.722,45.894l6.761-6.761c.758,1.175,1.248,2.617,1.248,3.889,0,2.5-2.033,4.533-4.533,4.533-1.404,0-2.645-.655-3.477-1.661ZM39.928,37.688l2.698-2.698-.616,2.522-1.844.524c-.077-.118-.157-.234-.239-.348ZM35.201,54.473c-3.355,0-6.42-1.24-8.781-3.276l2.369-2.37-.153,2.434c-.035.551.384,1.025.935,1.061.021,0,.043.002.064.002.523,0,.964-.407.997-.938l.217-3.436.031-.041c1.153,1.02,2.663,1.646,4.32,1.646s3.167-.625,4.32-1.646l.031.041.216,3.436c.033.53.474.938.997.938.021,0,.042,0,.064-.002.551-.035.97-.51.935-1.061l-.235-3.732c-.012-.193-.081-.38-.196-.535l-.502-.674c.47-.8.779-1.706.871-2.675l1.323.155.717,1.498c.172.359.53.568.902.568.145,0,.292-.031.431-.098.498-.239.709-.836.47-1.334l-.955-1.995c-.148-.31-.444-.521-.785-.562l-2.203-.258c-.107-.593-.283-1.187-.509-1.767l2.025-.576c.346-.099.613-.375.698-.725l.859-3.521c.131-.537-.198-1.078-.734-1.209-.048-.012-.094-.001-.142-.005l1.595-1.595c2.036,2.361,3.277,5.426,3.277,8.78,0,7.428-6.042,13.471-13.47,13.471Z"/>
</svg>