<?xml version="1.0" encoding="UTF-8"?>
<svg id="Filled_Line" xmlns="http://www.w3.org/2000/svg" viewBox="0 0 64 64">
  <defs>
    <style>
      .cls-1 {
        fill: #9eabc4;
      }

      .cls-2 {
        fill: #d85264;
      }

      .cls-3 {
        fill: #737e9b;
      }

      .cls-4 {
        fill: #1a2c3d;
      }

      .cls-5 {
        fill: #d3dce5;
      }

      .cls-6 {
        fill: #536882;
      }
    </style>
  </defs>
  <circle class="cls-5" cx="32" cy="32" r="28"/>
  <g>
    <path class="cls-1" d="M50.69,29.54c0,1.34-1.53,2.43-6.16,2.43-3.08,0-7.15-.48-9.52-1.2.48-.74.77-1.67.79-2.67,2.42-.59,5.97-.98,8.73-.98,4.63,0,6.16,1.09,6.16,2.42Z"/>
    <path class="cls-1" d="M28.99,30.77c-2.37.72-6.44,1.2-9.52,1.2-4.63,0-6.16-1.09-6.16-2.43,0-1.33,1.53-2.42,6.16-2.42,2.76,0,6.31.39,8.73.98.02,1,.31,1.93.79,2.67Z"/>
  </g>
  <rect class="cls-6" x="27.457" y="33.574" width="9.085" height="16.15" rx="4.365" ry="4.365"/>
  <path class="cls-6" d="M32,16.219c-1.971,0-3.569,1.598-3.569,3.569s1.598,3.569,3.569,3.569,3.569-1.598,3.569-3.569-1.598-3.569-3.569-3.569Z"/>
  <ellipse class="cls-6" cx="32" cy="27.966" rx="3.81" ry="4.609"/>
  <path class="cls-3" d="M36.51,37.43h-9.02c.25-2.17,2.09-3.86,4.33-3.86h.36c2.24,0,4.08,1.69,4.33,3.86Z"/>
  <path class="cls-3" d="M36.54,41.55v3.81c0,.11,0,.22-.01.32h-9.06c-.01-.1-.01-.21-.01-.32v-3.81h9.08Z"/>
  <path class="cls-2" d="M32,4c-15.464,0-28,12.536-28,28s12.536,28,28,28,28-12.536,28-28S47.464,4,32,4ZM8.675,32c0-12.882,10.443-23.325,23.325-23.325,5.634,0,10.801,1.998,14.833,5.323L14.001,46.836c-3.327-4.032-5.326-9.201-5.326-14.836ZM32,55.325c-5.615,0-10.765-1.985-14.79-5.29L50.033,17.206c3.306,4.026,5.292,9.177,5.292,14.794,0,12.882-10.443,23.325-23.325,23.325Z"/>
  <path class="cls-4" d="M32,3C16.01,3,3,16.01,3,32s13.009,29,29,29,29-13.01,29-29S47.99,3,32,3ZM32,59c-14.888,0-27-12.112-27-27S17.112,5,32,5s27,12.112,27,27-12.112,27-27,27ZM47.832,13.95c-.014-.281-.146-.544-.363-.724-4.341-3.58-9.835-5.552-15.469-5.552-13.413,0-24.325,10.912-24.325,24.325,0,5.637,1.973,11.132,5.554,15.473.18.217.442.349.724.362.016,0,.032,0,.048,0,.265,0,.519-.104.707-.293L47.54,14.705c.199-.199.306-.474.292-.755ZM27.273,28.918c.061.409.153.807.289,1.187-2.258.507-5.485.863-8.088.863-3.814,0-5.168-.768-5.168-1.425s1.354-1.424,5.168-1.424c2.461,0,5.546.322,7.799.798ZM32,17.219c1.417,0,2.569,1.152,2.569,2.569s-1.152,2.569-2.569,2.569-2.569-1.152-2.569-2.569,1.153-2.569,2.569-2.569ZM33.978,25.44l-4.363,4.364c-.267-.556-.426-1.184-.426-1.838,0-1.989,1.261-3.608,2.811-3.608.749,0,1.454.398,1.978,1.083ZM41.53,17.887l-.509-2.249c-.122-.54-.658-.875-1.196-.755-.539.122-.877.657-.755,1.196l.788,3.48-4.465,4.466c-.195-.231-.404-.439-.627-.625,1.089-.836,1.804-2.137,1.804-3.613,0-2.175-1.531-3.993-3.569-4.451v-3.337c0-.553-.448-1-1-1s-1,.447-1,1v3.337c-2.039.458-3.569,2.276-3.569,4.451,0,1.475.714,2.775,1.802,3.611-.169.139-.329.289-.481.452l-4.655-4.089.833-3.682c.122-.539-.216-1.074-.755-1.196-.537-.121-1.074.217-1.196.755l-.964,4.262c-.081.357.041.73.316.972l5.329,4.68c-.171.416-.289.864-.368,1.328-2.349-.463-5.335-.76-7.817-.76-4.756,0-7.168,1.152-7.168,3.424s2.412,3.425,7.168,3.425c2.469,0,5.399-.292,7.717-.739l-1.349,1.349h-1.893c-.29,0-.565.126-.755.344l-4.296,4.943c-.362.417-.318,1.049.099,1.411.028.024.063.034.093.055l-4.999,5c-2.855-3.835-4.416-8.527-4.416-13.331,0-12.311,10.015-22.325,22.325-22.325,4.802,0,9.492,1.561,13.328,4.414l-3.798,3.798ZM50.806,16.571c-.179-.218-.441-.351-.724-.364-.279-.013-.557.092-.756.292L16.503,49.328c-.2.199-.306.475-.292.756.014.282.146.545.364.724,4.333,3.559,9.811,5.518,15.425,5.518,13.413,0,24.325-10.912,24.325-24.325,0-5.614-1.96-11.094-5.52-15.429ZM40.286,28.369c1.473-.159,2.966-.249,4.241-.249,3.814,0,5.168.767,5.168,1.424s-1.354,1.425-5.168,1.425c-1.952,0-4.298-.2-6.317-.523l2.076-2.076ZM30.232,38.425h5.311v2.127h-7.085v-.352l1.775-1.775ZM35.543,44.679h-7.085v-2.127h7.085v2.127ZM35.272,46.679c-.514,1.201-1.707,2.046-3.094,2.046h-.355c-1.387,0-2.58-.845-3.094-2.046h6.544ZM35.184,36.425h-2.952l1.48-1.48c.645.328,1.155.849,1.472,1.48ZM32,54.325c-4.782,0-9.457-1.549-13.283-4.383l1.433-1.433,3.467-1.933c.257-.143.438-.392.495-.681l.33-1.679,2.016-2.017v3.159c0,2.958,2.407,5.365,5.365,5.365h.355c2.958,0,5.365-2.407,5.365-5.365v-5.338l1.296.531,1.05,5.344c.057.289.237.538.494.681l3.626,2.021c.154.086.321.127.486.127.351,0,.691-.185.874-.513.27-.482.097-1.092-.386-1.36l-3.222-1.796-1.064-5.418c-.065-.33-.291-.605-.603-.733l-2.558-1.048c-.012-.812-.205-1.584-.544-2.278h2.602l3.997,4.6c.198.228.476.344.755.344.233,0,.467-.081.656-.245.417-.362.461-.994.099-1.411l-4.296-4.943c-.19-.218-.466-.344-.755-.344h-4.74c-.046-.033-.099-.056-.146-.087l1.326-1.326c2.396.491,5.475.805,8.035.805,4.756,0,7.168-1.152,7.168-3.425s-2.412-3.424-7.168-3.424c-.641,0-1.339.024-2.056.064l7.47-7.471c2.835,3.828,4.385,8.504,4.385,13.287,0,12.311-10.015,22.325-22.325,22.325Z"/>
</svg>