<?xml version="1.0" encoding="UTF-8"?>
<svg id="Filled_Line" xmlns="http://www.w3.org/2000/svg" viewBox="0 0 64 64">
  <defs>
    <style>
      .cls-1 {
        fill: #eeae65;
      }

      .cls-2 {
        fill: #737e9b;
      }

      .cls-3 {
        fill: #1a2c3d;
      }

      .cls-4 {
        fill: #536882;
      }
    </style>
  </defs>
  <path class="cls-2" d="M55.315,8.685c-7.408-7.408-20.963-5.864-30.276,3.449-9.313,9.313-10.857,22.868-3.449,30.276,7.408,7.408,20.963,5.864,30.276-3.449,9.313-9.313,10.857-22.868,3.449-30.276ZM48.773,35.57c-7.376,7.376-17.909,8.801-23.527,3.183-5.618-5.618-4.193-16.151,3.183-23.527,7.376-7.376,17.909-8.801,23.527-3.183,5.618,5.618,4.193,16.151-3.183,23.527Z"/>
  <path class="cls-2" d="M16.004,43.485l-11.469,11.469c-.295.295-.295.773,0,1.069l3.443,3.443c.295.295.773.295,1.069,0l11.469-11.469-4.512-4.511Z"/>
  <path class="cls-4" d="M21.59,42.41c-1.141-1.141-2.043-2.44-2.764-3.834l-3.098,3.098c-.424.424-.424,1.111,0,1.535l5.063,5.063c.424.424,1.111.424,1.535,0l3.098-3.098c-1.394-.721-2.694-1.623-3.835-2.764Z"/>
  <path class="cls-1" d="M12.317,4.634l-4.896,8.79c-.213.382.063.852.5.852h3.655s-1.825,6.659-1.825,6.659c-.116.425.402.733.719.427l9.971-9.59c.267-.257.085-.707-.285-.707h-4.521s3.775-6.283,3.775-6.283c.206-.344-.041-.781-.442-.781h-5.573c-.448,0-.86.242-1.078.634Z"/>
  <path class="cls-1" d="M47.538,34.086l-6.254,11.23c-.287.515.085,1.148.675,1.148h4.476s-2.216,8.085-2.216,8.085c-.164.6.567,1.035,1.015.603l11.902-11.447c.474-.456.151-1.258-.507-1.258h-5.117s4.466-7.435,4.466-7.435c.37-.617-.074-1.402-.793-1.402h-6.839c-.336,0-.645.182-.808.475Z"/>
  <path class="cls-3" d="M6.947,15.275h3.318l-1.896,6.914c-.118.435.067.895.454,1.124.158.095.335.141.511.141.252,0,.502-.096.693-.279l11.842-11.39c.294-.283.387-.716.234-1.095-.152-.378-.52-.626-.928-.626h-3.773l3.334-5.55c.186-.309.19-.693.013-1.007-.177-.313-.51-.508-.87-.508h-7.21c-.362,0-.697.196-.874.514l-5.723,10.275c-.172.31-.168.688.012.993s.508.493.862.493ZM13.258,5h4.854l-3.334,5.55c-.186.309-.19.693-.013,1.007.177.313.51.508.87.508h3.059l-7.435,7.15,1.282-4.675c.082-.301.02-.623-.17-.871s-.483-.394-.795-.394h-2.929l4.609-8.275ZM58.443,41.448h-5.164l4.398-7.322c.186-.309.19-.693.013-1.007-.025-.044-.059-.079-.089-.118,4.971-8.917,4.391-19.052-1.58-25.023C48.234.19,34.019,1.74,24.332,11.427c-7.956,7.956-10.409,18.959-6.724,26.954l-2.587,2.586c-.663.663-.776,1.659-.359,2.447l-11.368,11.367c-.391.391-.391,1.023,0,1.414.195.195.451.293.707.293s.512-.098.707-.293l11.297-11.296,3.097,3.097-11.296,11.297c-.391.391-.391,1.023,0,1.414.195.195.451.293.707.293s.512-.098.707-.293l11.367-11.368c.304.161.636.251.972.251.534,0,1.068-.204,1.475-.61l2.584-2.584c2.394,1.111,5.072,1.697,7.914,1.697,2.069,0,4.221-.319,6.4-.93.186.189.441.301.713.301h4.48s-2.458,8.967-2.458,8.967c-.118.435.067.895.454,1.124.158.095.335.141.511.141.252,0,.502-.096.693-.279l14.812-14.247c.294-.283.387-.716.234-1.095-.152-.378-.52-.626-.928-.626ZM21.619,47.565c-.033.033-.088.033-.121,0l-5.063-5.063c-.033-.033-.033-.088,0-.121l2.166-2.166c.646,1.037,1.396,2.016,2.282,2.902.882.882,1.855,1.639,2.894,2.291l-2.158,2.158ZM22.297,41.703c-3.363-3.363-4.876-8.194-4.26-13.604.626-5.494,3.364-10.914,7.709-15.259,8.909-8.908,21.856-10.452,28.861-3.448,5.462,5.462,5.805,14.944.914,23.219h-3.026c5.03-7.373,5.198-16.245.168-21.275-2.538-2.538-6.008-3.732-9.751-3.695-.007-.019-.006-.019-.013,0-5.1.055-10.707,2.409-15.177,6.878-7.754,7.754-9.183,18.942-3.184,24.941,2.475,2.475,5.876,3.712,9.588,3.712,2.678,0,5.517-.654,8.287-1.942l-2.078,3.73c-6.993,2.266-13.716,1.066-18.039-3.258ZM24.237,23.153l2.355,2.355-3.765,3.765c.08-1.992.553-4.073,1.409-6.12ZM52.788,27.984l-2.475-2.475,3.782-3.782.235.235c-.136,1.965-.658,4.01-1.541,6.022ZM42.281,20.305l-3.829,3.829-3.828-3.828,3.829-3.829,3.828,3.828ZM39.867,15.063l3.782-3.782,3.828,3.828-3.782,3.782-3.828-3.828ZM37.038,25.548l-3.789,3.789-3.828-3.828,3.789-3.789,3.828,3.828ZM31.835,30.751l-3.782,3.782-3.828-3.828,3.782-3.782,3.828,3.828ZM33.249,32.165l3.79,3.79-3.782,3.782-3.789-3.79,3.782-3.782ZM34.663,30.751l3.789-3.789,3.79,3.79-3.79,3.789-3.79-3.79ZM39.866,25.548l3.829-3.829,3.79,3.79-3.829,3.828-3.79-3.79ZM45.109,20.305l3.782-3.782,3.79,3.79-3.782,3.782-3.79-3.79ZM54.095,18.899l-3.79-3.79,1.608-1.608c1.219,1.494,1.972,3.31,2.281,5.299l-.099.099ZM48.891,13.695l-3.828-3.828.1-.1c1.996.307,3.817,1.083,5.333,2.324l-1.604,1.604ZM42.024,9.657l.21.21-3.782,3.782-2.452-2.452c2.008-.885,4.053-1.403,6.023-1.54ZM34.122,12.147l2.916,2.916-3.829,3.829-3.494-3.494c1.386-1.297,2.871-2.383,4.407-3.25ZM28.313,16.823l3.483,3.483-3.789,3.789-2.846-2.846c.834-1.539,1.889-3.03,3.151-4.427ZM26.639,35.947l-1.345,1.345c-1.157-1.413-1.901-3.095-2.245-4.935l3.59,3.59ZM28.053,37.361l3.582,3.582c-1.849-.346-3.535-1.085-4.935-2.229l1.353-1.353ZM34.677,41.158l-.007-.007,3.782-3.782,2.379,2.379c-2.074.868-4.163,1.336-6.154,1.409ZM44.251,37.931c-.5.325-1.005.62-1.513.896l-2.872-2.872,3.79-3.789,2.445,2.445-1.85,3.32ZM47.803,32.611c-.237,0-.458.091-.635.238l-2.098-2.098,3.829-3.828,2.945,2.945c-.528.936-1.136,1.853-1.827,2.744h-2.214ZM45.556,53.457l1.844-6.728c.082-.301.02-.623-.17-.871-.188-.248-.482-.394-.795-.394h-4.09s6.046-10.854,6.046-10.854h6.662l-4.398,7.322c-.186.309-.19.693-.013,1.007s.51.508.87.508h4.449l-10.405,10.009Z"/>
</svg>