<?xml version="1.0" encoding="UTF-8"?><svg id="Line" xmlns="http://www.w3.org/2000/svg" viewBox="0 0 96 96"><defs><style>.cls-1{stroke-width:0px;}</style></defs><path class="cls-1" d="M79.96,25.11c.55-.1,1.06.27,1.16.82l.31,1.8c.09.54-.27,1.06-.82,1.16-.06.01-.11.01-.17.01-.48,0-.9-.34-.98-.83l-.31-1.8c-.09-.54.27-1.06.82-1.16ZM73.54,22.71l1.45,12.13c.06.54-.11,1.08-.47,1.49-.37.42-.92.66-1.49.66H22.97c-.57,0-1.11-.24-1.49-.66-.36-.41-.54-.95-.47-1.49l1.45-12.13c.12-.97.96-1.71,1.96-1.71h47.17c1,0,1.84.73,1.96,1.71ZM73.03,35l-1.47-12.05-47.14.05-1.41,12h50.02ZM88,56h-.21l2.95,22.64c.1.87-.18,1.72-.75,2.36-.57.63-1.38,1-2.23,1H8.24c-.85,0-1.66-.36-2.23-1-.57-.64-.85-1.49-.75-2.34l2.96-22.66h-.21c-1.65,0-3-1.35-3-3v-6c0-1.3.84-2.4,2-2.82v-5.18c0-1.65,1.35-3,3-3h3.16l3.07-17.85c.41-2.4,2.48-4.15,4.93-4.15h53.7c2.44,0,4.51,1.75,4.93,4.15l.72,4.18c.09.54-.27,1.06-.82,1.15-.55.1-1.06-.27-1.16-.82l-.72-4.18c-.25-1.44-1.49-2.49-2.95-2.49H21.15c-1.46,0-2.71,1.05-2.95,2.49l-3.21,18.68c-.08.48-.5.83-.99.83h-4c-.55,0-1,.45-1,1v5h78v-5c0-.55-.45-1-1-1h-4c-.49,0-.9-.35-.99-.83l-.95-5.5c-.09-.54.27-1.06.81-1.16.55-.1,1.06.27,1.16.81l.81,4.67h3.16c1.65,0,3,1.35,3,3v5.18c1.16.41,2,1.51,2,2.82v6c0,1.65-1.35,3-3,3ZM8,54h80c.55,0,1-.45,1-1v-6c0-.55-.45-1-1-1H8c-.55,0-1,.45-1,1v6c0,.55.45,1,1,1ZM8.24,80h6.85l2.36-24h-7.23l-2.99,22.9c-.03.27.06.55.26.77.19.21.46.33.74.33ZM17.1,80h7.96l1.62-24h-7.22l-2.36,24ZM27.07,80h8.96l.81-24h-8.15l-1.62,24ZM38.03,80h8.97v-24h-8.15l-.81,24ZM57.97,80l-.81-24h-8.15v24h8.97ZM68.93,80l-1.62-24h-8.15l.81,24h8.96ZM78.9,80l-2.36-24h-7.22l1.62,24h7.96ZM85.77,56h-7.23l2.36,24h6.85c.29,0,.55-.12.74-.33.2-.22.29-.5.25-.79l-2.98-22.88Z"/></svg>