<?xml version="1.0" encoding="UTF-8"?><svg id="Line" xmlns="http://www.w3.org/2000/svg" viewBox="0 0 96 96"><defs><style>.cls-1{stroke-width:0px;}</style></defs><path class="cls-1" d="M91,43.1v1.8c0,.55-.45,1-1,1s-1-.45-1-1v-1.8c0-.55.45-1,1-1s1,.45,1,1ZM91,38v1.5c0,.55-.45,1-1,1s-1-.45-1-1v-1.5c0-8.27-6.73-15-15-15h-36.31c-.86,3.13-3.72,5.44-7.12,5.44-1.14,0-2.24-.26-3.25-.75-1.4,1.74-3.48,2.75-5.75,2.75-.74,0-1.47-.11-2.18-.33-1.03,2.9-3.79,4.9-6.95,4.9-1.78,0-3.41-.63-4.68-1.68-.5,1.5-.75,3.06-.75,4.68v20c0,8.27,6.73,15,15,15h36.31c.86-3.13,3.72-5.44,7.12-5.44,1.14,0,2.24.26,3.25.75,1.4-1.74,3.48-2.75,5.75-2.75.74,0,1.47.11,2.18.33,1.03-2.9,3.79-4.9,6.95-4.9,1.78,0,3.41.63,4.68,1.68.5-1.5.75-3.06.75-4.68v-9.5c0-.55.45-1,1-1s1,.45,1,1v9.5c0,2.21-.43,4.34-1.25,6.35.76,1.16,1.21,2.55,1.21,4.04,0,2.06-.88,4.03-2.38,5.42.36.88.55,1.84.55,2.8,0,4.08-3.32,7.39-7.39,7.39-1.15,0-2.26-.26-3.28-.77-1.38,1.94-3.6,3.12-6.03,3.12-2.81,0-5.31-1.55-6.57-4.01-.15,0-.29.01-.43.01-4.06,0-7.37-3.29-7.39-7.35H22c-9.37,0-17-7.63-17-17v-20c0-2.21.43-4.34,1.25-6.35-.76-1.16-1.21-2.55-1.21-4.04,0-2.06.88-4.03,2.38-5.42-.36-.88-.55-1.84-.55-2.8,0-4.08,3.32-7.39,7.39-7.39,1.15,0,2.26.26,3.28.77,1.38-1.94,3.6-3.12,6.03-3.12,2.81,0,5.31,1.55,6.57,4.01.15,0,.29-.01.43-.01,4.06,0,7.37,3.29,7.39,7.35h36.05c9.37,0,17,7.63,17,17ZM60.04,74.96c0,2.97,2.42,5.39,5.39,5.39.27,0,.56-.03.88-.08.05,0,.11-.01.16-.01.41,0,.78.25.93.64.81,2.1,2.78,3.45,5.03,3.45,2.03,0,3.86-1.12,4.79-2.93.13-.26.37-.44.65-.51.28-.07.57-.02.81.15.9.62,1.96.95,3.05.95,2.97,0,5.39-2.42,5.39-5.39,0-.9-.23-1.8-.66-2.59-.24-.44-.12-.99.28-1.29,1.4-1.03,2.21-2.61,2.21-4.34,0-2.97-2.42-5.39-5.39-5.39-2.6,0-4.83,1.86-5.3,4.42-.06.31-.25.57-.54.71-.28.14-.61.14-.89,0-.76-.38-1.57-.57-2.4-.57-1.89,0-3.61.97-4.6,2.59-.14.23-.37.4-.64.46-.27.06-.54,0-.77-.15-.89-.59-1.92-.91-2.99-.91-2.97,0-5.39,2.42-5.39,5.39ZM35.96,21.04c0-2.97-2.42-5.39-5.39-5.39-.27,0-.56.03-.88.08-.47.07-.93-.18-1.1-.63-.81-2.1-2.78-3.45-5.02-3.45-2.03,0-3.86,1.12-4.79,2.93-.13.26-.37.44-.65.51-.28.07-.57.02-.81-.15-.9-.62-1.96-.95-3.05-.95-2.97,0-5.39,2.42-5.39,5.39,0,.9.23,1.8.66,2.59.24.44.12.99-.28,1.29-1.4,1.03-2.21,2.61-2.21,4.34,0,2.97,2.42,5.39,5.39,5.39,2.6,0,4.83-1.86,5.3-4.42.06-.31.25-.57.54-.71.28-.14.61-.14.89,0,.76.38,1.57.57,2.4.57,1.89,0,3.61-.97,4.6-2.59.14-.23.37-.4.64-.46.27-.06.54,0,.77.15.89.59,1.92.91,2.99.91,2.97,0,5.39-2.42,5.39-5.39ZM64,33c8.27,0,15,6.73,15,15s-6.73,15-15,15h-32c-8.27,0-15-6.73-15-15s6.73-15,15-15h32ZM64,35h-32c-7.17,0-13,5.83-13,13s5.83,13,13,13h32c7.17,0,13-5.83,13-13s-5.83-13-13-13Z"/></svg>