<?xml version="1.0" encoding="UTF-8"?><svg id="Line" xmlns="http://www.w3.org/2000/svg" viewBox="0 0 96 96"><defs><style>.cls-1{stroke-width:0px;}</style></defs><path class="cls-1" d="M74.1,50.82c-.1-1.58-1.41-2.82-2.99-2.82h-16.1v-3c0-1.4-.97-2.57-2.27-2.9l.62-9.54c.04-.55-.38-1.03-.93-1.06-.54-.03-1.03.38-1.06.93l-.62,9.56h-7.46l-1.82-28.07c-.1-1.56.43-3.04,1.5-4.17,1.06-1.13,2.5-1.75,4.05-1.75,3.07,0,5.56,2.5,5.56,5.57,0,.12,0,.23,0,.36l-.62,9.51c-.04.55.38,1.03.93,1.06.56.04,1.03-.38,1.06-.93l.62-9.51c.01-.16.01-.33.01-.49,0-4.17-3.39-7.57-7.56-7.57-2.11,0-4.07.85-5.51,2.39-1.45,1.54-2.17,3.55-2.04,5.67l1.82,28.05c-1.3.33-2.27,1.5-2.27,2.9v3h-16.1c-1.6,0-2.91,1.25-2.99,2.8l-3.79,38.05c-.04.82.26,1.63.82,2.22s1.36.94,2.18.94h1.09c.89,0,1.68-.39,2.23-1h49.14c.55.61,1.34,1,2.22,1h1.09c.82,0,1.61-.34,2.18-.93.56-.59.86-1.4.82-2.27l-3.79-37.98ZM41,45c0-.55.45-1,1-1h10c.55,0,1,.45,1,1v3h-12v-3ZM23.23,89l4.63-32h38.27l4.63,32H23.23ZM75.62,89.69c-.19.2-.45.31-.73.31h-1.09c-.51,0-.94-.38-1-.93l-4.81-33.21c-.07-.49-.49-.86-.99-.86H27c-.5,0-.92.36-.99.86l-4.81,33.25c-.05.51-.48.89-.99.89h-1.09c-.28,0-.53-.11-.73-.31-.19-.2-.29-.46-.28-.69l3.79-38.05c.03-.53.47-.95,1-.95h48.21c.53,0,.97.42,1,.95,0,.02,0,.03,0,.05l3.79,37.95c.01.28-.08.54-.27.74ZM44,13c0,1.65,1.35,3,3,3s3-1.35,3-3-1.35-3-3-3-3,1.35-3,3ZM48,13c0,.55-.45,1-1,1s-1-.45-1-1,.45-1,1-1,1,.45,1,1ZM53.7,27.17l-.12,1.8c-.04.53-.48.93-1,.93-.02,0-.04,0-.07,0-.55-.04-.97-.51-.93-1.06l.12-1.8c.04-.55.52-.97,1.06-.93.55.04.97.51.93,1.06Z"/></svg>