<?xml version="1.0" encoding="UTF-8"?><svg id="Line" xmlns="http://www.w3.org/2000/svg" viewBox="0 0 96 96"><defs><style>.cls-1{stroke-width:0px;}</style></defs><path class="cls-1" d="M91,9c0-1.07-.42-2.07-1.17-2.83-1.56-1.56-4.09-1.56-5.66,0l-40.01,40.01h0c-.78-.78-2.05-.78-2.83,0l-2.12,2.12-7.78-7.78c-1.13-1.13-3.11-1.13-4.24,0l-1.41,1.41-.16-.16c-.55-.56-1.35-.77-2.07-.56l-1.36.39c-.31.09-.6.26-.83.49l-2.66,2.66s-.07.1-.1.15l-13.16,10.3c-.43.34-.7.86-.74,1.42-.04.6.19,1.2.63,1.63l32.39,32.39c.41.41.95.64,1.51.64.04,0,.08,0,.12,0,.56-.03,1.08-.3,1.42-.74l10.3-13.16c.05-.03.11-.06.15-.1l2.66-2.66c.23-.23.4-.52.49-.83l.39-1.36c.21-.72,0-1.52-.56-2.07l-.16-.16,1.41-1.41c1.17-1.17,1.17-3.07,0-4.24l-7.78-7.78,2.12-2.12c.78-.78.78-2.05,0-2.83h0s13.9-13.89,13.9-13.89c.39-.39.39-1.02,0-1.41s-1.02-.39-1.41,0l-13.9,13.89-2.83-2.83L78.52,14.66l2.83,2.83-12.68,12.68c-.39.39-.39,1.02,0,1.41s1.02.39,1.41,0l19.75-19.75c.76-.76,1.17-1.76,1.17-2.83ZM27.9,78l-4.24-4.24,11.31-11.31,3.78,3.78-10.81,11.72s-.03.03-.05.05ZM33.56,61.03l-11.31,11.31-4.24-4.24s.03-.03.05-.05l11.72-10.81,3.78,3.78ZM28.36,55.83l-11.66,10.75s-.07.07-.11.11l-4.25-4.25s.01-.01.02-.02l12.21-10.38,3.78,3.78ZM33.58,83.64s-.01.02-.02.02l-4.25-4.25s.08-.08.11-.11l10.75-11.66,3.78,3.78-10.37,12.21ZM6.69,56.79s0,0,0,0l12.69-9.93,3.78,3.78-12.09,10.27s-.09.09-.13.14l-4.18-4.18s-.05-.07-.06-.07ZM39.25,89.3s-.05,0-.1-.05h0s-4.18-4.18-4.18-4.18c.05-.05.1-.08.14-.13l10.27-12.09,3.78,3.78-9.9,12.67ZM52.48,73.22l-1.95,1.95-29.7-29.7,1.93-1.93,1.35-.39s.06,0,.1.05l28.6,28.6s.05.09.05.1l-.38,1.33ZM54.06,67.39l-1.41,1.41-25.46-25.46,1.41-1.41c.38-.38,1.04-.38,1.41,0l24.04,24.04c.39.39.39,1.02,0,1.41ZM46.28,55.37l-5.66-5.66,2.12-2.12,5.66,5.66-2.12,2.12ZM88.41,10.41l-5.66,5.66-2.83-2.83,5.66-5.66c.78-.78,2.05-.78,2.83,0,.37.37.59.89.59,1.41s-.21,1.04-.59,1.41ZM67.54,32.72c.39.39.39,1.02,0,1.41l-1.28,1.27c-.2.19-.45.29-.7.29s-.51-.1-.71-.3c-.39-.39-.39-1.02,0-1.41l1.28-1.27c.39-.39,1.02-.39,1.41,0Z"/></svg>