<?xml version="1.0" encoding="UTF-8"?><svg id="Line" xmlns="http://www.w3.org/2000/svg" viewBox="0 0 96 96"><defs><style>.cls-1{stroke-width:0px;}</style></defs><path class="cls-1" d="M19,67c-.55,0-1,.45-1,1v14c0,.55.45,1,1,1h20c.55,0,1-.45,1-1v-14c0-.55-.45-1-1-1h-20ZM38,81h-18v-12h18v12ZM22,72c0-.55.45-1,1-1h2c.55,0,1,.45,1,1s-.45,1-1,1h-2c-.55,0-1-.45-1-1ZM22,75c0-.55.45-1,1-1h2c.55,0,1,.45,1,1s-.45,1-1,1h-2c-.55,0-1-.45-1-1ZM22,78c0-.55.45-1,1-1h2c.55,0,1,.45,1,1s-.45,1-1,1h-2c-.55,0-1-.45-1-1ZM29,79h6c.55,0,1-.45,1-1v-6c0-.55-.45-1-1-1h-6c-.55,0-1,.45-1,1v6c0,.55.45,1,1,1ZM30,73h4v4h-4v-4ZM90.35,5.71c-.38-.45-.94-.71-1.53-.71h-23.64c-.59,0-1.15.26-1.53.71-.38.45-.54,1.04-.45,1.62l.67,4c.16.97.99,1.67,1.97,1.67h6.15v3c0,1.1.9,2,2,2v24c0,4.96-4.04,9-9,9s-9-4.04-9-9v-9c0-8.27-6.73-15-15-15s-15,6.73-15,15v7c-1.1,0-2,.9-2,2v3.29c-6.83,1.35-12,7.38-12,14.59v15.3c-.31-.11-.65-.18-1-.18h-3c-1.65,0-3,1.35-3,3v10c0,1.65,1.35,3,3,3h3c1.3,0,2.4-.84,2.82-2h30.37c.41,1.16,1.51,2,2.82,2h3c1.65,0,3-1.35,3-3v-10c0-1.65-1.35-3-3-3h-3c-.35,0-.69.07-1,.18v-1.68c0-.55-.45-1-1-1s-1,.45-1,1v13.5H14v-24.49h30v1.99c0,.55.45,1,1,1s1-.45,1-1v-4.62c0-7.22-5.17-13.25-12-14.59v-3.29c0-1.1-.9-2-2-2v-7c0-4.96,4.04-9,9-9s9,4.04,9,9v9c0,8.27,6.73,15,15,15s15-6.73,15-15v-24c1.1,0,2-.9,2-2v-3h6.15c.98,0,1.81-.7,1.97-1.67l.67-4c.1-.58-.07-1.17-.45-1.62ZM47,77h3c.55,0,1,.45,1,1v10c0,.55-.45,1-1,1h-3c-.55,0-1-.45-1-1v-10c0-.55.45-1,1-1ZM11,89h-3c-.55,0-1-.45-1-1v-10c0-.55.45-1,1-1h3c.55,0,1,.45,1,1v10c0,.55-.45,1-1,1ZM44,59.88v.63H14v-.63c0-7.1,5.78-12.88,12.88-12.88h4.24c7.1,0,12.88,5.78,12.88,12.88ZM26,45v-3h6v3h-6ZM78,42c0,7.17-5.83,13-13,13s-13-5.83-13-13v-9c0-6.07-4.93-11-11-11s-11,4.93-11,11v7h-2v-7c0-7.17,5.83-13,13-13s13,5.83,13,13v9c0,6.07,4.93,11,11,11s11-4.93,11-11v-24h2v24ZM80,16h-6v-3h6v3ZM88.15,11h-22.31s-.67-4-.67-4h23.64s-.67,4-.67,4ZM46,68.1v1.8c0,.55-.45,1-1,1s-1-.45-1-1v-1.8c0-.55.45-1,1-1s1,.45,1,1Z"/></svg>