<?xml version="1.0" encoding="UTF-8"?><svg id="Line" xmlns="http://www.w3.org/2000/svg" viewBox="0 0 96 96"><defs><style>.cls-1{stroke-width:0px;}</style></defs><path class="cls-1" d="M74.69,74.03c-.69-2.48-2.93-4.22-5.56-4.22-.51,0-1,.07-1.49.2-1.05-1.65-2.88-2.68-4.88-2.68s-3.83,1.03-4.88,2.68c-.48-.13-.98-.2-1.49-.2-.11,0-.21.02-.31.03.34-1.73.59-3.47.76-5.26.58-.26,1.03-.78,1.16-1.46l.6-3.22c.24-1.31-.04-2.64-.8-3.74-.76-1.1-1.9-1.84-3.21-2.08l-2.05-.38,3.07-16.59c.1-.54-.26-1.06-.8-1.17-.55-.1-1.06.26-1.17.8l-3.07,16.59-5.01-.93,4.23-22.88s.03-.12.03-.13l3.83-20.73c.1-.52.39-.98.83-1.28.44-.3.97-.42,1.5-.32l1.08.2c.52.1.98.39,1.28.83s.41.97.32,1.5l-3.38,18.27c-.1.54.26,1.06.8,1.17.54.1,1.06-.26,1.17-.8l3.38-18.27c.19-1.05-.03-2.11-.64-2.99-.6-.88-1.52-1.47-2.57-1.66l-1.08-.2c-1.05-.19-2.11.03-2.99.64-.88.6-1.47,1.52-1.66,2.57l-3.44,18.57-.38,2.12s-.02.11-.03.12l-4.24,22.91-2.06-.38c-2.71-.5-5.32,1.3-5.83,4.01l-.6,3.22c-.1.53.02,1.06.32,1.5.11.15.24.28.38.4-1.3,3.18-6.8,14.61-19.49,16.86-.79.15-1.44.71-1.69,1.47-.25.76-.08,1.57.47,2.15,2.47,2.67,6.69,6.29,12.8,8.37,3.49,1.18,6.81,1.6,9.77,1.6,3.12,0,5.84-.47,7.97-1.01,1.6-.42,2.94-1.43,3.77-2.85.48-.81.97-1.7,1.45-2.62.05.02.1.05.15.07.85,2.2,2.99,3.7,5.38,3.7.51,0,1-.07,1.49-.2,1.05,1.65,2.87,2.68,4.88,2.68s3.83-1.03,4.88-2.68c.48.13.98.2,1.49.2,2.4,0,4.54-1.5,5.39-3.7,2.27-.82,3.81-2.97,3.81-5.43s-1.47-4.5-3.64-5.36ZM37.67,56.02c.27-1.44,1.53-2.46,2.95-2.46.18,0,.36.02.55.05l13.06,2.41c.79.15,1.47.59,1.93,1.25s.62,1.46.48,2.25l-.59,3.22h0s0,0,0,0l-18.96-3.5.6-3.22ZM47.69,86.35c-.56.95-1.5,1.65-2.56,1.93-2.45.63-5.76,1.15-9.55.87,3.43-2.24,8.85-7.13,10.46-16.3.1-.54-.27-1.06-.81-1.16-.55-.09-1.06.27-1.16.81-1.97,11.23-10.11,15.44-11.8,16.21-1.22-.23-2.47-.55-3.74-.99-1.56-.53-2.98-1.17-4.28-1.87,3.64-1.33,10.6-5,14.15-14.35.2-.52-.06-1.09-.58-1.29-.52-.2-1.09.06-1.29.58-3.98,10.5-12.59,13.2-14.57,13.69-2.31-1.54-4.12-3.19-5.4-4.58-.02-.02-.07-.07-.04-.17.02-.05.06-.11.15-.13,14.01-2.49,19.74-14.85,21.05-18.21l17.12,3.16c-.19,1.98-.49,3.9-.9,5.81-1.49.7-2.64,2.01-3.09,3.66-2.17.86-3.64,2.99-3.64,5.36,0,1.7.75,3.24,1.96,4.31-.49.94-.98,1.83-1.47,2.65ZM73.49,83.04c-.35.09-.62.36-.72.7-.45,1.63-1.94,2.77-3.63,2.77-.54,0-1.06-.11-1.56-.34-.25-.11-.53-.12-.78-.02-.25.1-.45.29-.56.54-.59,1.4-1.96,2.3-3.48,2.3s-2.88-.9-3.48-2.3c-.11-.25-.31-.44-.56-.54-.12-.05-.24-.07-.36-.07-.14,0-.28.03-.41.09-.5.23-1.02.34-1.56.34-1.69,0-3.18-1.14-3.63-2.77-.1-.35-.37-.62-.72-.7-1.68-.42-2.85-1.93-2.85-3.65s1.14-3.18,2.76-3.63c.37-.1.65-.42.72-.8.3-1.83,1.87-3.15,3.72-3.15.54,0,1.06.11,1.56.34.25.11.52.12.78.02.25-.1.45-.29.56-.54.59-1.4,1.96-2.3,3.48-2.3s2.88.9,3.48,2.3c.1.25.31.44.56.54.25.1.53.09.78-.02.5-.22,1.02-.34,1.56-.34,1.85,0,3.42,1.33,3.72,3.15.06.38.34.7.72.8,1.63.45,2.76,1.95,2.76,3.63s-1.17,3.23-2.85,3.65ZM80.2,54.66c-.61-1.89-2.37-3.22-4.41-3.22-1.86,0-3.5,1.1-4.24,2.75-2.48.1-4.46,2.15-4.46,4.65s2.09,4.65,4.65,4.65c.38,0,.76-.05,1.12-.14.83.68,1.84,1.04,2.92,1.04.86,0,1.69-.24,2.42-.7.47.16.96.24,1.44.24,2.56,0,4.65-2.09,4.65-4.65,0-2.38-1.8-4.35-4.11-4.62ZM79.66,61.93c-.38,0-.77-.09-1.14-.27-.35-.17-.76-.12-1.06.13-.34.28-.9.61-1.66.61s-1.42-.3-1.94-.86c-.19-.21-.46-.32-.73-.32-.13,0-.25.02-.38.07-.32.13-.66.2-1,.2-1.46,0-2.65-1.19-2.65-2.65s1.19-2.65,2.65-2.65c.1,0,.19.02.37.04.51.07.99-.26,1.11-.76.29-1.2,1.34-2.03,2.57-2.03,1.33,0,2.46,1,2.61,2.34.06.53.54.91,1.07.88.06,0,.11-.01.21-.02,1.45,0,2.63,1.2,2.63,2.65s-1.19,2.65-2.65,2.65ZM55.78,30.61c.54.1.9.62.8,1.17l-.33,1.77c-.09.48-.51.82-.98.82-.06,0-.12,0-.18-.02-.54-.1-.9-.62-.8-1.17l.33-1.77c.1-.54.62-.9,1.17-.8Z"/></svg>