<?xml version="1.0" encoding="UTF-8"?><svg id="Line" xmlns="http://www.w3.org/2000/svg" viewBox="0 0 96 96"><defs><style>.cls-1{stroke-width:0px;}</style></defs><path class="cls-1" d="M76.6,55.1v1.8c0,.55-.45,1-1,1s-1-.45-1-1v-1.8c0-.55.45-1,1-1s1,.45,1,1ZM76.6,44.56v6.94c0,.55-.45,1-1,1s-1-.45-1-1v-6.94c0-6.38-2.94-12.39-7.86-16.06,0,0-.08-.06-.09-.06-1.45-1.07-2.98-1.99-4.59-2.77-2.54-1.22-5.48-1.87-8.52-1.87h-22.39c-5.38,0-9.76,4.38-9.76,9.76v45.68c0,5.38,4.38,9.76,9.76,9.76h33.68c5.38,0,9.76-4.38,9.76-9.76v-18.74c0-.55.45-1,1-1s1,.45,1,1v18.74c0,6.48-5.28,11.76-11.76,11.76H31.16c-6.48,0-11.76-5.28-11.76-11.76v-45.68c0-5.32,3.55-9.81,8.4-11.26v-4.5c0-1.1.9-2,2-2h.4v-7.8c0-1.65,1.35-3,3-3h12.8c1.65,0,3,1.35,3,3v7.8h.4c1.1,0,2,.9,2,2v4h2.15c3.33,0,6.58.72,9.38,2.07,1.73.83,3.36,1.82,4.86,2.93,0,0,.08.06.09.07,5.48,4.08,8.71,10.69,8.71,17.7ZM32.2,15.8h14.8v-7.8c0-.55-.45-1-1-1h-12.8c-.55,0-1,.45-1,1v7.8ZM49.4,21.8v-4h-19.6v4h19.6ZM68.98,59.79c.26.19.42.49.42.81v19.28c0,2.16-2.05,3.92-4.56,3.92H31.16c-2.52,0-4.56-1.76-4.56-3.92v-37.37c0-2.16,2.05-3.92,4.56-3.92h8.7c.5,0,.92.37.99.86,1.71,11.83,12.02,20.74,23.98,20.74,1.1,0,2.19-.18,3.24-.55.31-.1.64-.06.91.13ZM67.4,61.92c-.84.19-1.7.28-2.56.28-12.66,0-23.61-9.23-25.82-21.6h-7.85c-1.39,0-2.56.88-2.56,1.92v37.37c0,1.04,1.17,1.92,2.56,1.92h33.67c1.39,0,2.56-.88,2.56-1.92v-17.96ZM69.4,50.44c0,2.52-2.05,4.56-4.56,4.56-10.5,0-19.04-8.54-19.04-19.04v-2.4c0-2.52,2.05-4.56,4.56-4.56h3.19c2.26,0,4.42.47,6.26,1.36,1.3.63,2.55,1.38,3.71,2.24l.1.08c3.62,2.7,5.77,7.14,5.77,11.89v5.88ZM67.4,44.56c0-4.12-1.86-7.96-4.97-10.28l-.1-.07c-1.06-.78-2.2-1.47-3.39-2.04-1.57-.76-3.43-1.16-5.39-1.16h-3.19c-1.41,0-2.56,1.15-2.56,2.56v2.4c0,9.4,7.64,17.04,17.04,17.04,1.41,0,2.56-1.15,2.56-2.56v-5.88Z"/></svg>