<?xml version="1.0" encoding="UTF-8"?><svg id="Line" xmlns="http://www.w3.org/2000/svg" viewBox="0 0 96 96"><defs><style>.cls-1{stroke-width:0px;}</style></defs><path class="cls-1" d="M25.19,76.6c.41.37.44,1,.06,1.41l-.13.14c-.38.41-.75.82-1.1,1.2-.2.21-.46.32-.73.32-.24,0-.49-.09-.68-.27-.4-.38-.43-1.01-.05-1.41.35-.38.71-.78,1.09-1.19l.13-.14c.37-.41,1-.44,1.41-.06ZM49.76,14.91c.11.04.23.06.35.06.41,0,.79-.25.94-.65.56-1.51,1.45-2.9,2.57-4.02,3.04-3.04,7.47-4.08,11.56-2.71.53.18,1.09-.11,1.27-.63s-.11-1.09-.63-1.27c-4.81-1.61-10.03-.39-13.61,3.19-1.32,1.32-2.37,2.96-3.03,4.74-.19.52.07,1.09.59,1.29ZM28.43,44.72c.1,0,.21-.02.32-.05.52-.18.81-.74.63-1.27-1.37-4.09-.33-8.52,2.71-11.56,1.12-1.12,2.51-2.01,4.02-2.57.52-.19.78-.77.59-1.29-.19-.52-.77-.78-1.29-.59-1.77.66-3.41,1.71-4.74,3.03-3.58,3.58-4.8,8.8-3.19,13.61.14.42.53.68.95.68ZM68.02,59.3c-.52-.19-1.09.07-1.29.59-.56,1.51-1.45,2.9-2.57,4.02-3.04,3.04-7.47,4.08-11.56,2.71-.52-.17-1.09.11-1.27.63-.18.52.11,1.09.63,1.27,1.4.47,2.84.7,4.26.7,3.45,0,6.81-1.35,9.35-3.89,1.32-1.32,2.37-2.96,3.03-4.74.19-.52-.07-1.09-.59-1.29ZM90.3,30.19c-.18-.52-.75-.8-1.27-.63-.52.18-.81.74-.63,1.27,1.37,4.09.33,8.52-2.71,11.56-1.12,1.12-2.51,2.01-4.02,2.57-.52.19-.78.77-.59,1.29.15.4.53.65.94.65.12,0,.23-.02.35-.06,1.77-.66,3.41-1.71,4.74-3.03,3.58-3.58,4.8-8.8,3.19-13.61ZM82.92,39.61c-1.36,1.36-3.15,2.11-5.04,2.13-.03,1.89-.77,3.68-2.13,5.04-1.36,1.36-3.15,2.11-5.04,2.13-.03,1.89-.77,3.68-2.13,5.04-1.36,1.36-3.15,2.11-5.04,2.13-.03,1.89-.77,3.68-2.13,5.04-1.39,1.39-3.23,2.15-5.19,2.15-1.63,0-3.17-.52-4.44-1.5-.08.08-.15.16-.23.24-1.39,1.39-3.23,2.15-5.19,2.15s-3.81-.76-5.19-2.15c-.35-.35-.67-.74-.93-1.15l-5.47,5.47s0,0,0,0c-1.05,1.34-1.76,2.32-2.38,3.18-1.07,1.49-2,2.77-4.12,5.15-.16.18-.33.37-.49.55l-.08.09c-.37.41-1,.45-1.41.08-.41-.37-.45-1-.08-1.41l.08-.09c.15-.17.31-.35.47-.53,2.06-2.32,2.91-3.5,4-5,.52-.72,1.1-1.52,1.88-2.54l-2.44-2.44c-1.02.78-1.82,1.36-2.54,1.88-1.5,1.08-2.69,1.94-5,3.99-.23.21-5.98,5.41-7.85,7.27-1.72,1.71-3.39,3.49-5.51,5.8-1.13,1.23-1.09,3.13.09,4.31,1.18,1.18,3.07,1.22,4.31.09,2.47-2.27,4.4-4.09,6.42-6.14.39-.39,1.02-.4,1.41-.01.39.39.4,1.02.01,1.41-2.04,2.07-4.07,3.98-6.5,6.21-.99.9-2.23,1.35-3.46,1.35-1.31,0-2.61-.5-3.61-1.5-1.94-1.94-2-5.04-.15-7.07,2.14-2.33,3.82-4.13,5.57-5.86,1.89-1.88,7.69-7.13,7.92-7.34,2.39-2.12,3.67-3.05,5.16-4.12.87-.63,1.85-1.34,3.18-2.38,0,0,0,0,0,0l5.47-5.47c-.41-.27-.79-.58-1.15-.93-1.39-1.39-2.15-3.23-2.15-5.19s.76-3.81,2.15-5.19c.08-.08.16-.16.24-.23-.97-1.27-1.5-2.82-1.5-4.44,0-1.96.76-3.81,2.15-5.19,1.36-1.36,3.15-2.11,5.04-2.13.02-1.89.77-3.68,2.13-5.04,1.36-1.36,3.15-2.11,5.04-2.13.02-1.89.77-3.68,2.13-5.04,1.36-1.36,3.15-2.11,5.04-2.13.03-1.89.77-3.68,2.13-5.04,2.62-2.62,6.76-2.84,9.64-.65.08-.08.15-.16.23-.24,2.86-2.86,7.52-2.86,10.38,0,1.36,1.36,2.11,3.15,2.13,5.04,1.89.02,3.68.77,5.04,2.13,2.86,2.86,2.86,7.52,0,10.38-.08.08-.16.15-.24.23.97,1.27,1.5,2.81,1.5,4.44,0,1.96-.76,3.81-2.15,5.19ZM39.31,58.96c-.19-.63-.29-1.29-.3-1.97-.67,0-1.33-.11-1.97-.3l-5.36,5.36,2.27,2.27,5.36-5.36ZM81.51,38.2c1.01-1.01,1.56-2.35,1.56-3.78s-.56-2.77-1.56-3.78c0,.01-.05-.03-.09-.07-.21-.21-.32-.5-.29-.8.03-.3.18-.57.43-.74.35-.24.62-.46.86-.7,2.08-2.08,2.08-5.47,0-7.56-1.2-1.2-2.85-1.74-4.55-1.49-.31.05-.63-.06-.85-.28-.22-.22-.33-.54-.28-.85.25-1.7-.29-3.36-1.49-4.55-2.08-2.08-5.47-2.08-7.56,0-.24.24-.46.51-.7.86-.17.24-.44.4-.73.43-.29.02-.59-.08-.8-.29-.04-.04-.1-.12-.13-.16-2.03-2.02-5.42-2.02-7.5.06-1.2,1.2-1.74,2.86-1.48,4.55.05.31-.06.63-.28.85-.22.22-.54.33-.85.28-1.7-.26-3.36.29-4.55,1.49-1.2,1.2-1.74,2.86-1.49,4.55.05.31-.06.63-.28.85-.23.22-.54.33-.85.28-1.7-.25-3.36.29-4.55,1.49-1.2,1.2-1.74,2.86-1.49,4.55.05.31-.06.63-.28.85-.22.22-.54.33-.85.28-1.7-.25-3.36.29-4.55,1.49-1.01,1.01-1.56,2.35-1.56,3.78s.56,2.77,1.56,3.78c0-.01.05.03.1.08.21.21.32.5.29.8-.03.3-.18.56-.43.73-.35.24-.62.46-.86.7-1.01,1.01-1.56,2.35-1.56,3.78s.56,2.77,1.56,3.78c1.2,1.2,2.86,1.74,4.55,1.49.05,0,.1-.01.15-.01.26,0,.52.1.71.29.22.22.33.54.28.85-.25,1.7.29,3.36,1.49,4.55,1.01,1.01,2.35,1.56,3.78,1.56s2.77-.56,3.78-1.56c.24-.24.46-.51.7-.86.17-.24.43-.4.73-.43.3-.03.58.08.8.28.04.04.11.12.14.17.96.95,2.3,1.5,3.72,1.5s2.77-.56,3.78-1.56c1.2-1.2,1.74-2.86,1.48-4.55-.05-.31.06-.63.28-.85.22-.22.54-.33.85-.28,1.7.25,3.36-.29,4.55-1.49,1.2-1.2,1.74-2.86,1.49-4.55-.05-.31.06-.63.28-.85.22-.22.54-.33.85-.28,1.7.25,3.36-.29,4.55-1.49,1.2-1.2,1.74-2.86,1.48-4.55-.05-.31.06-.63.28-.85.22-.22.54-.33.85-.28,1.7.25,3.36-.29,4.55-1.49Z"/></svg>