<?xml version="1.0" encoding="UTF-8"?><svg id="Line" xmlns="http://www.w3.org/2000/svg" viewBox="0 0 96 96"><defs><style>.cls-1{stroke-width:0px;}</style></defs><path class="cls-1" d="M72.62,44.8c.39.39.39,1.02,0,1.41l-1.28,1.27c-.2.19-.45.29-.7.29s-.51-.1-.71-.3c-.39-.39-.39-1.02,0-1.41l1.28-1.27c.39-.39,1.02-.39,1.41,0ZM90.99,45.73c-.14.42-.53.68-.95.68-.11,0-.21-.02-.32-.05-4.12-1.4-4.61-2.9-4.82-4.71-.08-.65-.14-1.17-.62-1.74-1.56-1.83-3.06-1.83-3.6-1.76l-5.52,5.52c-.39.39-1.02.39-1.41,0s-.39-1.02,0-1.41l11.34-11.34c1.17-1.17,1.17-3.07,0-4.25l-16.96-16.96c-1.17-1.17-3.08-1.17-4.25,0l-3.47,3.47c2.65,2.65,1.84,5.31,1.81,5.43-.14.43-.53.7-.95.7-.1,0-.2-.02-.3-.05-.52-.17-.81-.72-.65-1.24.03-.09.43-1.68-1.31-3.42l-29.04,29.04c-1.17,1.17-1.17,3.07,0,4.25l16.96,16.96c1.17,1.17,3.08,1.17,4.25,0l9.87-9.86c-1.06-1.43-2.3-1.51-2.31-1.51-.55,0-.99-.46-.99-1.02,0-.55.48-1.01,1.01-.98.11,0,2.09.07,3.71,2.08l4.93-4.93c.39-.39,1.02-.39,1.41,0,.39.39.39,1.02,0,1.41l-5.29,5.29c.04.08.08.16.11.25.51,1.26.3,2.23.14,3.01-.23,1.11-.4,1.92,2.33,3.99.44.33.52.96.19,1.4-.2.26-.5.39-.8.39-.21,0-.42-.07-.6-.2-3.46-2.63-3.45-4.21-3.07-6,.09-.44.16-.83.11-1.25l-9.34,9.34c-.97.97-2.25,1.46-3.53,1.46s-2.56-.49-3.54-1.46l-1.18-1.18-2.59,2.59c-.57.57-1.32.88-2.12.88s-1.55-.31-2.12-.88l-1.65-1.65-1.7,1.7c-1.3,1.3-2.45,2.86-3.41,4.64-1.98,3.66-4.46,7-7.38,9.92-2.52,2.52-5.35,4.71-8.42,6.53-1.11.66-2.35.99-3.56.99-1.28,0-2.54-.37-3.59-1.1-2.83-1.96-3.66-5.68-1.92-8.63,1.86-3.16,4.1-6.06,6.66-8.63,2.93-2.93,6.26-5.41,9.9-7.38,1.79-.97,3.36-2.12,4.66-3.41l1.7-1.7-1.65-1.65c-1.17-1.17-1.17-3.07,0-4.24l2.59-2.59-1.17-1.17c-1.95-1.96-1.94-5.13,0-7.07l6.48-6.48c-.16-.62-.72-1.89-2.74-2.74-.69-.29-1.2-.19-1.85-.07-1.79.35-3.37.33-5.95-3.17-.33-.44-.23-1.07.21-1.4.44-.33,1.07-.23,1.4.21,2.03,2.77,2.84,2.61,3.95,2.39.78-.15,1.75-.34,3,.19,1.99.84,2.99,2.04,3.5,3.05l20.57-20.57c-.1-.01-.19-.03-.3-.04-1.81-.21-3.31-.7-4.71-4.82-.18-.52.1-1.09.63-1.27.52-.18,1.09.1,1.27.63,1.1,3.25,1.92,3.35,3.05,3.48.5.06,1.08.13,1.7.39l3.7-3.7c1.95-1.94,5.12-1.94,7.07,0l2.12,2.12,3.53-3.53c1.17-1.17,3.07-1.17,4.24,0l8.48,8.48c1.17,1.17,1.17,3.07,0,4.24l-3.53,3.53,2.12,2.12c1.94,1.96,1.94,5.13,0,7.07l-4.02,4.02c1,.29,2.18.92,3.32,2.27.88,1.03.99,2.02,1.08,2.81.13,1.13.23,1.95,3.48,3.05.52.18.8.75.63,1.27ZM34.42,64.6l-4.24-4.24-1.7,1.7c-1.44,1.44-3.16,2.7-5.12,3.76-3.47,1.87-6.64,4.24-9.44,7.03-2.44,2.44-4.58,5.21-6.35,8.23-1.2,2.05-.63,4.61,1.34,5.98,1.41.98,3.38.99,4.99.04,2.93-1.73,5.63-3.83,8.03-6.23,2.79-2.79,5.15-5.97,7.04-9.46,1.05-1.94,2.31-3.66,3.75-5.1l1.7-1.7ZM28.53,54.47c-.19.19-.29.44-.29.71s.1.52.29.71l10.37,10.37h0c.38.38,1.03.38,1.41,0l2.59-2.59-11.78-11.78-2.59,2.59ZM82.96,21.71l3.53-3.53c.39-.39.39-1.02,0-1.41l-8.48-8.48c-.39-.39-1.03-.39-1.42,0l-3.53,3.53,9.9,9.9ZM58.25,32.68c-1.11.24-1.92.4-3.99-2.33-.33-.44-.96-.53-1.4-.19-.44.33-.52.96-.19,1.4,2.63,3.46,4.21,3.45,6,3.07.64-.14,1.15-.25,1.85.04,2.7,1.08,2.84,2.95,2.85,3.06.02.54.46.97,1,.97h.01c.55,0,.99-.46.99-1.02,0-.13-.1-3.26-4.1-4.87-1.26-.51-2.23-.3-3.01-.14ZM13.14,80.23l-1.79,1.79c-.39.39-.39,1.02,0,1.41.2.2.45.29.71.29s.51-.1.71-.29l1.79-1.79c.39-.39.39-1.02,0-1.41s-1.02-.39-1.41,0Z"/></svg>