<?xml version="1.0" encoding="UTF-8"?><svg id="Line" xmlns="http://www.w3.org/2000/svg" viewBox="0 0 96 96"><defs><style>.cls-1{stroke-width:0px;}</style></defs><path class="cls-1" d="M70.24,38.36c0-.55.45-1,1-1h1.8c.55,0,1,.45,1,1s-.45,1-1,1h-1.8c-.55,0-1-.45-1-1ZM90.83,44.59v27.19c0,1.1-.9,2-2,2h-4.82l-4.24,4.88c-.19.22-.46.34-.75.34H16.99c-.29,0-.57-.13-.75-.34l-4.24-4.88h-4.82c-1.1,0-2-.9-2-2v-27.19c0-1.1.9-2,2-2h4.85l4.6-4.91c.19-.2.45-.32.73-.32h13.97c-1.48-5.89-2.79-12.27-2.99-16.92-.05-1.29.5-2.48,1.53-3.26,1.03-.79,2.37-1.03,3.61-.64l3.25,1.02c1.82.57,3.81.52,5.6-.15l1.97-.73c2.4-.89,5.04-.89,7.43,0l1.96.73c1.79.67,3.78.72,5.61.15l3.24-1.02c1.23-.39,2.58-.15,3.61.64,1.03.79,1.58,1.98,1.53,3.26-.2,4.66-1.51,11.03-2.99,16.92h2.96c.55,0,1,.45,1,1s-.45,1-1,1h-3.47c-.59,2.27-1.19,4.41-1.74,6.32h4.57c1.65,0,3,1.35,3,3v8.54c0,1.65-1.35,3-3,3H29c-1.65,0-3-1.35-3-3v-8.54c0-1.65,1.35-3,3-3h4.57c-.55-1.91-1.15-4.05-1.74-6.32h-14.04l-4.33,4.62v26.11l2.78-3.2c.19-.22.46-.34.75-.34h62.03c.29,0,.57.13.75.34l2.78,3.2v-26.11l-4.33-4.62h-1.58c-.55,0-1-.45-1-1s.45-1,1-1h2.01c.28,0,.54.11.73.32l4.6,4.91h4.85c1.1,0,2,.9,2,2ZM61.84,47.68c-.54,1.81-1,3.29-1.31,4.27h1.46c.55,0,1,.45,1,1s-.45,1-1,1h-28c-.55,0-1-.45-1-1s.45-1,1-1h1.46c-.31-.98-.77-2.46-1.31-4.27h-5.16c-.55,0-1,.45-1,1v8.54c0,.55.45,1,1,1h38c.55,0,1-.45,1-1v-8.54c0-.55-.45-1-1-1h-5.16ZM30.33,20.35c.41,9.72,6.04,27.85,7.23,31.6h20.87c1.19-3.75,6.82-21.88,7.23-31.6.03-.63-.25-1.21-.75-1.59-.52-.4-1.17-.51-1.79-.32l-3.24,1.02c-2.25.7-4.7.64-6.9-.18l-1.96-.73c-1.95-.72-4.09-.73-6.04,0l-1.97.73c-2.21.82-4.66.88-6.9.18l-3.25-1.02c-.62-.19-1.27-.08-1.79.32-.5.39-.78.97-.75,1.59ZM7.17,71.77h4.27v-27.19h-4.27v27.19ZM82.23,72.77l-3.67-4.23H17.44l-3.67,4.23,3.67,4.23h61.12l3.67-4.23ZM88.83,71.77v-27.19h-4.27v27.19h4.27ZM47.73,44.38c.55,0,1-.45,1-1v-16.29c0-.55-.45-1-1-1s-1,.45-1,1v16.29c0,.55.45,1,1,1ZM54.42,44.37s.09,0,.13,0c.5,0,.93-.37.99-.87l2.09-16.29c.07-.55-.32-1.05-.87-1.12-.55-.07-1.05.32-1.12.86l-2.09,16.29c-.07.55.32,1.05.87,1.12ZM40.92,44.38s.08,0,.13,0c.55-.07.94-.57.87-1.12l-2.09-16.29c-.07-.55-.57-.94-1.12-.86-.55.07-.94.57-.87,1.12l2.09,16.29c.07.5.5.87.99.87Z"/></svg>