<?xml version="1.0" encoding="UTF-8"?><svg id="Line" xmlns="http://www.w3.org/2000/svg" viewBox="0 0 96 96"><defs><style>.cls-1{stroke-width:0px;}</style></defs><path class="cls-1" d="M51.24,39.89c-.04-.55.38-1.03.93-1.07.6-.04,1.22-.07,1.83-.09.56-.02,1.01.41,1.03.97s-.41,1.01-.97,1.03c-.59.02-1.19.05-1.77.09-.02,0-.05,0-.07,0-.52,0-.96-.4-1-.93ZM55.41,47.55h3.75c3.65,0,6.95,2.33,8.21,5.8.66,1.81.44,3.75-.58,5.38-.62,1-1.2,2.01-1.72,3.05-1.71,3.36-5.03,5.45-8.68,5.45H24.16c-.36,0-.7-.2-.87-.51-.18-.32-.17-.71.03-1.01l.34-.55c6.88-11.02,18.75-17.6,31.75-17.6ZM51.42,65.24v-3.63c0-.55-.45-1-1-1h-9.26c-.55,0-1,.45-1,1v3.63h11.26ZM25.99,65.24h12.17v-3.63c0-1.65,1.35-3,3-3h9.26c1.65,0,3,1.35,3,3v3.63h2.96c2.89,0,5.53-1.67,6.9-4.36.55-1.08,1.15-2.15,1.8-3.18.71-1.13.86-2.43.44-3.58-1-2.76-3.54-4.56-6.35-4.56h-3.75c-11.91,0-22.82,5.84-29.42,15.68ZM75.68,26.87c-1.12,1.28-1.31,3.06-1.31,4.11h1.37c1.1,0,2,.9,2,2v5.74h1.44c1.6,0,2.96,1.2,3.18,2.78.2,1.51.49,3.06.87,4.61.88,3.51,2.2,6.91,3.94,10.11.44.82.31,1.77-.32,2.44-1.4,1.46-2.66,3.07-3.74,4.79-2.02,3.23-3.38,6.8-4.08,10.63h2.34c1.65,0,3,1.35,3,3v1.53c0,1.65-1.35,3-3,3H8c-1.65,0-3-1.35-3-3v-1.53c0-1.53,1.15-2.78,2.63-2.96l8.53-13.65c7.18-11.48,18.96-19.22,32.33-21.24.54-.08,1.06.29,1.14.84.08.55-.29,1.06-.84,1.14-12.79,1.93-24.06,9.34-30.93,20.32l-7.84,12.55h66.97c.72-4.21,2.21-8.14,4.43-11.69,1.16-1.84,2.5-3.57,3.99-5.11.03-.03.03-.07,0-.11-1.81-3.34-3.2-6.9-4.12-10.58-.4-1.62-.71-3.25-.91-4.82-.08-.6-.59-1.05-1.2-1.05h-21.54c-.55,0-1-.45-1-1s.45-1,1-1h11.47v-5.74c0-1.1.9-2,2-2h1.26c0-1.36.26-3.65,1.79-5.41,1.34-1.54,3.32-2.33,5.89-2.33,6.85,0,8.89-7.76,8.98-8.09.14-.54.68-.86,1.21-.72.54.13.86.68.73,1.21-.02.1-2.5,9.6-10.92,9.6-1.96,0-3.43.55-4.38,1.63ZM81.37,76.08H8.21s0,0,0,0h-.2c-.55,0-1,.45-1,1v1.53c0,.55.45,1,1,1h73.37c.55,0,1-.45,1-1v-1.53c0-.55-.45-1-1-1ZM75.74,32.97h-4.63v5.74h4.63v-5.74Z"/></svg>