<?xml version="1.0" encoding="UTF-8"?><svg id="Line" xmlns="http://www.w3.org/2000/svg" viewBox="0 0 96 96"><defs><style>.cls-1{stroke-width:0px;}</style></defs><path class="cls-1" d="M80.5,48.1v1.8c0,.55-.45,1-1,1s-1-.45-1-1v-1.8c0-.55.45-1,1-1s1,.45,1,1ZM80.5,44.5c0,.55-.45,1-1,1s-1-.45-1-1V12.73H17.5v70.54h61v-29.77c0-.55.45-1,1-1s1,.45,1,1v29.77h.86c1.1,0,2,.9,2,2v3.73c0,1.1-.9,2-2,2H14.64c-1.1,0-2-.9-2-2v-3.73c0-1.1.9-2,2-2h.86V12.73h-.86c-1.1,0-2-.9-2-2v-3.73c0-1.1.9-2,2-2h66.73c1.1,0,2,.9,2,2v3.73c0,1.1-.9,2-2,2h-.86v31.77ZM14.64,10.73h66.73v-3.73H14.64v3.73ZM81.36,85.27H14.64v3.73h66.73v-3.73ZM45.14,46.14h-22.91c-.55,0-1-.45-1-1v-27.68c0-.55.45-1,1-1h22.91c.55,0,1,.45,1,1v27.68c0,.55-.45,1-1,1ZM44.14,18.45h-20.91v25.68h20.91v-25.68ZM27.13,66.38c.26,0,.51-.1.71-.29l6.75-6.75c.39-.39.39-1.02,0-1.41s-1.02-.39-1.41,0l-6.75,6.75c-.39.39-.39,1.02,0,1.41.2.2.45.29.71.29ZM29.12,71.49c.2.2.45.29.71.29s.51-.1.71-.29l9.45-9.45c.39-.39.39-1.02,0-1.41s-1.02-.39-1.41,0l-9.45,9.45c-.39.39-.39,1.02,0,1.41ZM45.18,50.86v27.68c0,.55-.45,1-1,1h-21.95c-.55,0-1-.45-1-1v-27.68c0-.55.45-1,1-1h21.95c.55,0,1,.45,1,1ZM43.18,51.86h-19.95v25.68h19.95v-25.68ZM56.24,32.97c.26,0,.51-.1.71-.29l6.75-6.75c.39-.39.39-1.02,0-1.41s-1.02-.39-1.41,0l-6.75,6.75c-.39.39-.39,1.02,0,1.41.2.2.45.29.71.29ZM58.24,38.08c.2.2.45.29.71.29s.51-.1.71-.29l9.45-9.45c.39-.39.39-1.02,0-1.41s-1.02-.39-1.41,0l-9.45,9.45c-.39.39-.39,1.02,0,1.41ZM74.77,45.14c0,.55-.45,1-1,1h-22.91c-.55,0-1-.45-1-1v-27.68c0-.55.45-1,1-1h22.91c.55,0,1,.45,1,1v27.68ZM72.77,18.45h-20.91v25.68h20.91v-25.68ZM26,26.52c0-.37.2-.7.52-.88l1.1-.6c.72-.4,1.32-.99,1.71-1.71l.6-1.1c.18-.32.51-.52.88-.52s.7.2.88.52l.6,1.1c.4.72.99,1.32,1.71,1.71l1.1.6c.32.18.52.51.52.88s-.2.7-.52.88l-1.1.6c-.72.4-1.32.99-1.71,1.71l-.6,1.1c-.18.32-.51.52-.88.52s-.7-.2-.88-.52l-.6-1.1c-.4-.72-.99-1.32-1.71-1.71l-1.1-.6c-.32-.18-.52-.51-.52-.88ZM29.04,26.52c.71.47,1.31,1.07,1.78,1.78.47-.71,1.07-1.31,1.78-1.78-.71-.47-1.31-1.07-1.78-1.78-.47.71-1.07,1.31-1.78,1.78ZM35.06,32.87l.6-1.1c.35-.64,1.4-.64,1.75,0l.6,1.1c.4.72.99,1.32,1.71,1.71l1.1.6c.32.18.52.51.52.88s-.2.7-.52.88l-1.1.6c-.72.4-1.32.99-1.71,1.71l-.6,1.1c-.18.32-.51.52-.88.52s-.7-.2-.88-.52l-.6-1.1c-.4-.72-.99-1.32-1.71-1.71l-1.1-.6c-.32-.18-.52-.51-.52-.88s.2-.7.52-.88l1.1-.6c.72-.4,1.32-.99,1.71-1.71ZM34.77,36.07c.71.47,1.31,1.07,1.78,1.78.47-.71,1.07-1.31,1.78-1.78-.71-.47-1.31-1.07-1.78-1.78-.47.71-1.07,1.31-1.78,1.78ZM55.11,59.93c0-.37.2-.7.52-.88l1.1-.6c.72-.4,1.32-.99,1.71-1.71l.6-1.1c.35-.64,1.4-.64,1.75,0l.6,1.1c.4.72.99,1.32,1.71,1.71l1.1.6c.32.18.52.51.52.88s-.2.7-.52.88l-1.1.6c-.72.4-1.32.99-1.71,1.71l-.6,1.1c-.18.32-.51.52-.88.52s-.7-.2-.88-.52l-.6-1.1c-.4-.72-.99-1.32-1.71-1.71l-1.1-.6c-.32-.18-.52-.51-.52-.88ZM58.15,59.93c.71.47,1.31,1.07,1.78,1.78.47-.71,1.07-1.31,1.78-1.78-.71-.47-1.31-1.07-1.78-1.78-.47.71-1.07,1.31-1.78,1.78ZM64.18,66.28l.6-1.1c.18-.32.51-.52.88-.52s.7.2.88.52l.6,1.1c.4.72.99,1.32,1.71,1.71,0,0,0,0,0,0l1.1.6c.32.18.52.51.52.88s-.2.7-.52.88l-1.1.6c-.72.4-1.32.99-1.71,1.71l-.6,1.1c-.18.32-.51.52-.88.52s-.7-.2-.88-.52l-.6-1.1c-.4-.72-.99-1.32-1.71-1.71l-1.1-.6c-.32-.18-.52-.51-.52-.88s.2-.7.52-.88l1.1-.6c.73-.4,1.32-.99,1.71-1.71ZM63.88,69.48c.71.47,1.31,1.07,1.78,1.78.47-.71,1.07-1.31,1.78-1.78-.71-.47-1.31-1.07-1.78-1.78-.47.71-1.07,1.31-1.78,1.78ZM74.77,50.86v27.68c0,.55-.45,1-1,1h-21.95c-.55,0-1-.45-1-1v-27.68c0-.55.45-1,1-1h21.95c.55,0,1,.45,1,1ZM72.77,51.86h-19.95v25.68h19.95v-25.68Z"/></svg>