<?xml version="1.0" encoding="UTF-8"?><svg id="Line" xmlns="http://www.w3.org/2000/svg" viewBox="0 0 96 96"><defs><style>.cls-1{stroke-width:0px;}</style></defs><path class="cls-1" d="M75,44V6c0-.55-.45-1-1-1s-1,.45-1,1v38H23V6c0-.55-.45-1-1-1s-1,.45-1,1v38c-1.1,0-2,.9-2,2v4c0,1.1.9,2,2,2h1v5c0,1.65,1.35,3,3,3h13v3.38c0,1.99,1.11,3.79,2.9,4.68l1.08.54c1.21.6,1.96,1.87,1.9,3.23l-.7,14.17v.16c0,2.67,2.17,4.84,4.83,4.84,1.33,0,2.56-.53,3.48-1.49.92-.96,1.4-2.22,1.34-3.56l-.22-4.5c-.03-.55-.5-.99-1.05-.95-.55.03-.98.5-.95,1.05l.22,4.49c.03.78-.25,1.52-.79,2.09-.54.56-1.26.87-2.04.87-1.56,0-2.83-1.27-2.83-2.84v-.11s.7-14.12.7-14.12c.1-2.15-1.08-4.16-3-5.11l-1.07-.54c-1.11-.55-1.8-1.66-1.8-2.9v-6.38h16v6.38c0,1.23-.69,2.34-1.8,2.9l-1.07.54c-1.92.96-3.1,2.96-3,5.11l.03.62c.03.55.5.98,1.05.95.55-.03.98-.5.95-1.05l-.03-.62c-.06-1.36.68-2.62,1.9-3.23l1.07-.54c1.79-.9,2.9-2.69,2.9-4.68v-3.38h13c1.65,0,3-1.35,3-3v-5h1c1.1,0,2-.9,2-2v-4c0-1.1-.9-2-2-2ZM72,57c0,.55-.45,1-1,1h-13v-1c0-1.1-.9-2-2-2h-16c-1.1,0-2,.9-2,2v1h-13c-.55,0-1-.45-1-1v-5h48v5ZM21,50v-4h54v4s-54,0-54,0ZM31,35V6c0-.55.45-1,1-1s1,.45,1,1v29c0,.55-.45,1-1,1s-1-.45-1-1ZM39,35V12c0-.55.45-1,1-1s1,.45,1,1v23c0,.55-.45,1-1,1s-1-.45-1-1ZM47,35V6c0-.55.45-1,1-1s1,.45,1,1v29c0,.55-.45,1-1,1s-1-.45-1-1ZM55,35V12c0-.55.45-1,1-1s1,.45,1,1v23c0,.55-.45,1-1,1s-1-.45-1-1ZM63,35V6c0-.55.45-1,1-1s1,.45,1,1v29c0,.55-.45,1-1,1s-1-.45-1-1ZM34.27,72.05l-1.7-.93c-1.2-.66-2.19-1.64-2.84-2.84l-.93-1.7c-.35-.64-1.4-.64-1.75,0l-.93,1.7c-.66,1.2-1.64,2.19-2.84,2.84l-1.7.93c-.32.18-.52.51-.52.88s.2.7.52.88l1.7.93c1.2.66,2.19,1.64,2.84,2.84l.93,1.7c.18.32.51.52.88.52s.7-.2.88-.52l.93-1.7c.66-1.2,1.64-2.19,2.84-2.84l1.7-.93c.32-.17.52-.51.52-.88s-.2-.7-.52-.88ZM31.62,72.98c-1.54.84-2.8,2.1-3.64,3.64l-.05.09-.05-.09c-.84-1.54-2.1-2.8-3.64-3.64l-.09-.05.09-.05c1.54-.84,2.8-2.1,3.64-3.64l.05-.09.05.09c.84,1.54,2.1,2.8,3.64,3.64h0s.09.05.09.05l-.09.05ZM72.28,78.05l-1.7-.93c-1.2-.66-2.19-1.64-2.84-2.84l-.93-1.7c-.35-.64-1.4-.64-1.75,0l-.93,1.7c-.66,1.2-1.64,2.19-2.84,2.84l-1.7.93c-.32.18-.52.51-.52.88s.2.7.52.88l1.7.93c1.2.66,2.19,1.64,2.84,2.84l.93,1.7c.18.32.51.52.88.52s.7-.2.88-.52l.93-1.7c.66-1.2,1.64-2.19,2.84-2.84l1.7-.93c.32-.17.52-.51.52-.88s-.2-.7-.52-.88ZM69.62,78.98c-1.54.84-2.8,2.1-3.64,3.64l-.05.09-.05-.09c-.84-1.54-2.1-2.8-3.64-3.64l-.09-.05.09-.05c1.54-.84,2.8-2.1,3.64-3.64l.05-.09.05.09c.84,1.54,2.1,2.8,3.64,3.64h0s.09.05.09.05l-.09.05ZM52.34,76.05l.09,1.8c.03.55-.4,1.02-.95,1.05-.02,0-.03,0-.05,0-.53,0-.97-.42-1-.95l-.09-1.8c-.03-.55.4-1.02.95-1.05.54-.03,1.02.4,1.05.95Z"/></svg>