<?xml version="1.0" encoding="UTF-8"?><svg id="Line" xmlns="http://www.w3.org/2000/svg" viewBox="0 0 96 96"><defs><style>.cls-1{stroke-width:0px;}</style></defs><path class="cls-1" d="M89,71.77h-4.46c-1.1,0-2,.9-2,2v.15h-6.56c.63-.84,1.03-1.87,1.03-3v-.62c0-2.76-2.24-5-5-5h-3.56c.63-.84,1.03-1.87,1.03-3v-.62c0-2.76-2.24-5-5-5h-25.15v-15.47c.63-.34,1.07-.99,1.07-1.76v-6.89l3.16-1.05c1.98-.66,3.31-2.5,3.31-4.59v-2.67l5.54,1.85v.43c0,1.1.9,2,2,2h3.38c1.1,0,2-.9,2-2v-15.23c0-1.1-.9-2-2-2h-3.38c-1.1,0-2,.9-2,2v.43l-5.62,1.87h-18.3c-1.65,0-3,1.35-3,3v4.62c0,1.36.92,2.5,2.16,2.86v3.4c0,.55.45,1,1,1s1-.45,1-1v-3.27h8.76v15.23h-8.76v-2.96c0-.55-.45-1-1-1s-1,.45-1,1v2.96c0,.77.44,1.43,1.07,1.76v15.47h-3.62c-2.76,0-5,2.24-5,5v.62c0,1.13.39,2.16,1.03,3h-3.56c-2.76,0-5,2.24-5,5v.62c0,1.13.39,2.16,1.03,3h-3.56c-2.76,0-5,2.24-5,5v.62c0,2.76,2.24,5,5,5h72.54v.15c0,1.1.9,2,2,2h4.46c1.1,0,2-.9,2-2v-10.92c0-1.1-.9-2-2-2ZM44.85,26.93c0,1.22-.78,2.3-1.94,2.69l-2.52.84v-6.23h4.46v2.7ZM54.38,11.31h3.38v15.23s-3.38,0-3.38,0v-15.23ZM52.38,24l-4.46-1.49v-7.17l4.46-1.49v10.15ZM27.46,16.62c0-.55.45-1,1-1h17.46v6.62h-17.46c-.55,0-1-.45-1-1v-4.62ZM30.69,41.46h6.62v15.23h-6.62v-15.23ZM22.08,62.31v-.62c0-1.65,1.35-3,3-3h39.38c1.65,0,3,1.35,3,3v.62c0,1.65-1.35,3-3,3H25.08c-1.65,0-3-1.35-3-3ZM14.54,70.92v-.62c0-1.65,1.35-3,3-3h54.46c1.65,0,3,1.35,3,3v.62c0,1.65-1.35,3-3,3H17.54c-1.65,0-3-1.35-3-3ZM10,82.54c-1.65,0-3-1.35-3-3v-.62c0-1.65,1.35-3,3-3h72.54v6.62H10ZM84.54,84.69v-10.92h4.46v10.92s-4.46,0-4.46,0ZM27.62,32.9v-1.8c0-.55.45-1,1-1s1,.45,1,1v1.8c0,.55-.45,1-1,1s-1-.45-1-1Z"/></svg>