<?xml version="1.0" encoding="UTF-8"?><svg id="Line" xmlns="http://www.w3.org/2000/svg" viewBox="0 0 96 96"><defs><style>.cls-1{stroke-width:0px;}</style></defs><path class="cls-1" d="M78.55,29.43c-.43-.35-.5-.98-.15-1.41.35-.43.98-.5,1.41-.15.54.43,1,.85,1.43,1.26.39.39.4,1.02.02,1.41-.2.2-.46.3-.71.3s-.5-.09-.7-.28c-.38-.37-.81-.75-1.29-1.14ZM70,40c-2.76,0-5-2.24-5-5s2.24-5,5-5,5,2.24,5,5-2.24,5-5,5ZM73,35c0-1.65-1.35-3-3-3s-3,1.35-3,3,1.35,3,3,3,3-1.35,3-3ZM53,52c0,2.76-2.24,5-5,5s-5-2.24-5-5,2.24-5,5-5,5,2.24,5,5ZM51,52c0-1.65-1.35-3-3-3s-3,1.35-3,3,1.35,3,3,3,3-1.35,3-3ZM34,41.17c-2.76,0-5-2.24-5-5s2.24-5,5-5,5,2.24,5,5-2.24,5-5,5ZM37,36.17c0-1.65-1.35-3-3-3s-3,1.35-3,3,1.35,3,3,3,3-1.35,3-3ZM70.89,49.79c.59.89.8,1.96.58,3-.21,1.05-.82,1.95-1.71,2.54-.66.44-1.42.67-2.2.67-.27,0-.54-.03-.81-.08-1.05-.21-1.95-.82-2.54-1.71-.59-.89-.8-1.96-.58-3.01.21-1.05.82-1.95,1.71-2.54.89-.59,1.96-.8,3.01-.58,1.05.21,1.95.82,2.54,1.71ZM67.96,50.04c-.13-.03-.27-.04-.4-.04-.93,0-1.77.65-1.96,1.6-.11.52,0,1.06.29,1.5s.75.75,1.27.86c.52.11,1.06,0,1.5-.29.45-.29.75-.75.86-1.27h0c.22-1.08-.48-2.14-1.56-2.36ZM53.36,41c-.27,0-.54-.03-.81-.08-1.05-.21-1.95-.82-2.54-1.71-.59-.89-.8-1.96-.58-3.01.44-2.16,2.56-3.56,4.72-3.12,1.05.21,1.95.82,2.54,1.71.59.89.8,1.96.58,3-.21,1.05-.82,1.95-1.71,2.54-.66.44-1.42.67-2.2.67ZM54.45,38.67c.45-.29.75-.75.86-1.27h0c.11-.52,0-1.06-.29-1.5-.29-.45-.75-.75-1.27-.86-.13-.03-.27-.04-.4-.04-.93,0-1.77.65-1.96,1.6-.11.52,0,1.06.29,1.5.29.45.75.75,1.27.86.52.11,1.06,0,1.5-.29ZM33.34,52.79c.59.89.8,1.96.58,3.01-.21,1.05-.82,1.95-1.71,2.54-.66.44-1.42.67-2.2.67-.27,0-.54-.03-.81-.08-1.05-.21-1.95-.82-2.54-1.71-.59-.89-.8-1.96-.58-3.01.44-2.16,2.55-3.56,4.72-3.12,1.05.21,1.95.82,2.54,1.71ZM31.67,53.9c-.29-.45-.75-.75-1.27-.86-.13-.03-.27-.04-.4-.04-.93,0-1.77.65-1.96,1.6-.22,1.08.48,2.14,1.56,2.36,1.08.22,2.14-.48,2.36-1.56.11-.52,0-1.06-.29-1.5ZM22.42,42.62c.59.89.8,1.96.58,3.01-.21,1.05-.82,1.95-1.71,2.54-.66.44-1.42.66-2.2.66-.27,0-.54-.03-.81-.08-1.05-.21-1.95-.82-2.54-1.71-.59-.89-.8-1.96-.58-3.01.21-1.05.82-1.95,1.71-2.54.89-.59,1.96-.79,3.01-.58,1.05.21,1.95.82,2.54,1.71ZM20.75,43.72c-.29-.45-.75-.75-1.27-.86-.13-.03-.27-.04-.4-.04-.39,0-.77.11-1.1.33-.45.29-.75.75-.86,1.27-.11.52,0,1.06.29,1.5.29.45.75.75,1.27.86.52.11,1.06,0,1.5-.29.45-.29.75-.75.86-1.27.11-.52,0-1.06-.29-1.5ZM88.62,77.75c.36.88.55,1.84.55,2.8,0,4.08-3.32,7.39-7.39,7.39-1.15,0-2.26-.26-3.28-.77-1.37,1.94-3.6,3.12-6.02,3.12-2.81,0-5.31-1.55-6.57-4.01-.15,0-.29.01-.43.01-4.08,0-7.39-3.32-7.39-7.39,0-.48.05-.94.14-1.39-7.63-1.52-15.33-1.36-22.89.53-1.73.42-3.51.64-5.31.64-.23,0-.46,0-.68,0-11.36-.34-20.71-9.48-21.3-20.81-.13-2.43,0-11.74,0-11.74-.17-3.41.46-6.8,1.81-9.9-2.82-1.04-4.84-3.75-4.84-6.93,0-2.06.88-4.03,2.38-5.42-.36-.88-.55-1.84-.55-2.8,0-4.08,3.32-7.39,7.39-7.39,1.15,0,2.26.26,3.28.77,1.38-1.94,3.6-3.12,6.02-3.12,2.81,0,5.31,1.55,6.57,4.01.15,0,.29-.01.43-.01,4.08,0,7.39,3.32,7.39,7.39,0,.52-.05,1.02-.16,1.51,7.39,1.67,15.13,1.53,22.46-.47,5.52-1.48,11.43-.76,16.36,1.94.48.27.66.87.4,1.36-.18.33-.52.52-.88.52-.16,0-.33-.04-.48-.12-4.49-2.45-9.87-3.1-14.88-1.76-7.72,2.1-15.89,2.24-23.67.43-1.24,2.36-3.71,3.98-6.55,3.98-1.14,0-2.24-.26-3.25-.75-1.4,1.74-3.48,2.75-5.75,2.75-.74,0-1.47-.11-2.18-.33-1.03,2.9-3.79,4.9-6.95,4.9-.19,0-.37-.01-.55-.03-1.35,2.93-1.98,6.17-1.81,9.42.53,10.31,9.04,18.62,19.36,18.92,1.86.06,3.69-.14,5.45-.58,8.61-2.14,17.71-2.14,26.32,0,1.76.44,3.59.64,5.45.58,9.68-.29,17.76-7.61,19.17-17.01-2.65-.12-4.78-2.3-4.78-4.98,0-2.34,1.62-4.29,3.79-4.84-.64-1.77-1.53-3.46-2.68-5.02-.33-.44-.23-1.07.21-1.4.44-.33,1.07-.23,1.4.21,3,4.07,4.5,9.12,4.24,14.21-.01.24-.06.7-.06.7,0,.35.19,8.55.06,10.99-.13,2.62-.74,5.16-1.8,7.55,2.81,1.05,4.82,3.75,4.82,6.92,0,2.06-.88,4.03-2.38,5.42ZM11.3,34.56s.01,0,.02,0c.35.07.7.11,1.07.11,2.6,0,4.83-1.86,5.3-4.42.06-.31.25-.57.54-.72.28-.14.61-.14.89,0,.76.38,1.57.57,2.4.57,1.89,0,3.61-.97,4.6-2.59.14-.23.37-.4.64-.46.26-.06.54,0,.77.15.89.59,1.92.91,2.99.91,2.97,0,5.39-2.42,5.39-5.39s-2.42-5.39-5.39-5.39c-.27,0-.56.03-.88.08-.46.07-.92-.18-1.1-.63-.81-2.1-2.78-3.45-5.03-3.45-2.03,0-3.86,1.12-4.79,2.93-.13.26-.37.44-.65.51-.28.07-.58.02-.81-.15-.9-.62-1.96-.95-3.05-.95-2.97,0-5.39,2.42-5.39,5.39,0,.9.23,1.8.66,2.59.24.44.12.99-.28,1.29-1.4,1.03-2.21,2.61-2.21,4.34,0,2.6,1.85,4.77,4.3,5.28ZM85.97,46c.1-2.04-.11-4.02-.59-5.93-1.36.29-2.38,1.49-2.38,2.93,0,1.64,1.36,3,2.97,3ZM58.87,75.59c1.22-2.42,3.71-4.09,6.6-4.09,1.14,0,2.24.26,3.25.75,1.39-1.74,3.48-2.75,5.75-2.75.74,0,1.47.11,2.18.33,1.04-2.9,3.79-4.89,6.96-4.89.19,0,.37.01.55.03,1.07-2.28,1.69-4.7,1.82-7.22.04-.76.05-2.13.04-3.65-3.4,7.4-10.81,12.63-19.34,12.89-.23,0-.46,0-.68,0-1.81,0-3.59-.22-5.31-.65-8.29-2.06-17.06-2.06-25.36,0-1.93.49-3.96.7-5.99.64-8.56-.25-15.97-5.51-19.36-12.94,0,1.57.02,2.96.06,3.69.53,10.3,9.04,18.61,19.36,18.91,1.85.06,3.68-.14,5.45-.57,7.94-1.98,16.01-2.14,24.03-.5ZM86.79,76.67c1.4-1.03,2.21-2.61,2.21-4.34,0-2.97-2.42-5.39-5.39-5.39-2.6,0-4.83,1.86-5.3,4.42-.06.31-.25.57-.54.71-.28.14-.61.14-.89,0-.76-.38-1.57-.57-2.4-.57-1.89,0-3.61.97-4.6,2.59-.14.23-.37.4-.64.46-.27.06-.54,0-.77-.14-.89-.59-1.92-.91-2.99-.91-2.97,0-5.39,2.42-5.39,5.39s2.42,5.39,5.39,5.39c.27,0,.56-.03.88-.08.05,0,.11-.01.17-.01.41,0,.78.25.93.64.81,2.1,2.78,3.45,5.03,3.45,2.03,0,3.86-1.12,4.79-2.93.13-.26.37-.44.65-.51.28-.07.58-.02.81.15.9.62,1.96.95,3.05.95,2.97,0,5.39-2.42,5.39-5.39,0-.91-.23-1.8-.66-2.59-.24-.44-.12-.99.28-1.29Z"/></svg>