<?xml version="1.0" encoding="UTF-8"?><svg id="Line" xmlns="http://www.w3.org/2000/svg" viewBox="0 0 96 96"><defs><style>.cls-1{stroke-width:0px;}</style></defs><path class="cls-1" d="M89.33,64.81c-.26-.49-.87-.67-1.36-.4-.48.26-.66.87-.4,1.36,2.76,5.07,1.36,11.52-3.27,15-4.84,3.64-11.78,2.94-15.81-1.58-.73-.83-1.33-1.73-1.79-2.68-2.43-4.97-5.93-9.14-10.39-12.39-.85-.62-1.62-1.37-2.31-2.23-3.75-4.76-3.21-11.73,1.21-15.85,2.39-2.23,5.5-3.34,8.75-3.14,3.25.2,6.19,1.69,8.27,4.18.67.8,1.23,1.69,1.67,2.64,1.73,3.77,4.31,7.21,7.45,9.97.42.36,1.05.32,1.41-.09.36-.42.32-1.05-.09-1.41-1.59-1.39-3.01-2.97-4.24-4.68.28-1.89.43-3.79.43-5.66,0-20.36-16.57-36.93-36.93-36.93S5,27.48,5,47.84s16.57,36.94,36.93,36.94c6.83,0,13.47-1.88,19.26-5.43.45.09.91.15,1.38.15,1.06,0,2.13-.25,3.1-.76.39.62.83,1.22,1.33,1.78,2.69,3.02,6.48,4.58,10.29,4.58,2.88,0,5.78-.89,8.21-2.73,5.42-4.08,7.06-11.63,3.83-17.56ZM59.87,41.3c-.51-1.26-1.39-2.33-2.55-3.09-3.09-1.99-7.22-1.1-9.23,2.01-.05.08-.1.17-.15.26-2.43-.21-4.83.94-6.18,3.03-1.16,1.81-1.36,4.03-.61,5.99-.83.51-1.54,1.21-2.09,2.06-.96,1.5-1.29,3.28-.91,5.02.38,1.74,1.41,3.23,2.9,4.19.71.45,1.49.77,2.31.93.34,1.79,1.4,3.38,2.94,4.38.76.49,1.6.81,2.47.96-.36,1.6-.1,3.29.69,4.71-2.43.76-4.94,1.17-7.52,1.17-13.82,0-25.07-11.25-25.07-25.07s11.25-25.06,25.07-25.06c11.31,0,21.2,7.65,24.16,18.42-.66-.14-1.32-.24-2-.29-1.44-.09-2.86.05-4.22.39ZM41.93,82.78c-19.26,0-34.93-15.67-34.93-34.94S22.67,12.91,41.93,12.91s34.93,15.67,34.93,34.93c0,.99-.05,2-.13,3-.36-.64-.71-1.3-1.01-1.96-.52-1.11-1.17-2.14-1.95-3.08-1.49-1.78-3.36-3.12-5.46-3.95-2.77-12.24-13.76-21.07-26.38-21.07-14.93,0-27.07,12.14-27.07,27.06s12.14,27.07,27.07,27.07c3.04,0,6-.52,8.85-1.5,1.5,1.38,3.52,1.98,5.51,1.67.33.93.86,1.77,1.57,2.48.31.31.66.59,1.01.83-5.16,2.87-10.98,4.4-16.94,4.4ZM59.27,76.14c-.67-.67-1.11-1.51-1.28-2.44-.05-.28-.22-.53-.47-.68-.25-.15-.55-.18-.82-.09-1.68.54-3.49.11-4.73-1.14-1.36-1.34-1.74-3.42-.97-5.17.19-.42.06-.92-.31-1.2l-.07-.05c-.19-.16-.41-.23-.67-.25-.91.03-1.8-.24-2.57-.73-1.25-.81-2.03-2.14-2.12-3.64-.03-.5-.43-.9-.92-.93-.78-.06-1.55-.31-2.2-.73-1.05-.67-1.77-1.71-2.03-2.93s-.04-2.47.64-3.51c.52-.8,1.25-1.42,2.11-1.77.27-.11.47-.33.57-.6.09-.27.06-.57-.08-.82-.87-1.52-.83-3.39.11-4.86,1.04-1.61,3-2.43,4.86-2.03.46.09.93-.14,1.12-.57.11-.25.23-.49.36-.7,1.4-2.17,4.3-2.79,6.46-1.39.78.5,1.37,1.22,1.74,2.05-1.5.62-2.89,1.5-4.12,2.64-5.18,4.83-5.81,12.98-1.42,18.55.8,1.01,1.71,1.88,2.7,2.61,4.07,2.97,7.28,6.75,9.56,11.24-1.76.91-3.97.6-5.42-.84ZM84.33,62.01c-.45-.33-.54-.95-.22-1.4.32-.45.95-.54,1.4-.22.54.39,1.04.83,1.5,1.32.38.4.37,1.03-.03,1.41-.19.19-.44.28-.69.28-.26,0-.53-.1-.72-.31-.38-.4-.8-.76-1.24-1.08ZM34.31,40.4c-1.75,0-3.18,1.43-3.18,3.18s1.43,3.18,3.18,3.18,3.18-1.43,3.18-3.18-1.43-3.18-3.18-3.18ZM34.31,44.76c-.65,0-1.18-.53-1.18-1.18s.53-1.18,1.18-1.18,1.18.53,1.18,1.18-.53,1.18-1.18,1.18ZM39.93,30.51c-1.75,0-3.18,1.43-3.18,3.18s1.43,3.18,3.18,3.18,3.18-1.43,3.18-3.18-1.43-3.18-3.18-3.18ZM39.93,34.87c-.65,0-1.18-.53-1.18-1.18s.53-1.18,1.18-1.18,1.18.53,1.18,1.18-.53,1.18-1.18,1.18Z"/></svg>