<?xml version="1.0" encoding="UTF-8"?><svg id="Line" xmlns="http://www.w3.org/2000/svg" viewBox="0 0 96 96"><defs><style>.cls-1{stroke-width:0px;}</style></defs><path class="cls-1" d="M69.24,13.76l-2-4c-.85-1.7-2.57-2.76-4.47-2.76h-5.95c-.41-1.16-1.51-2-2.82-2h-12c-1.65,0-3,1.35-3,3v4c0,1.65,1.35,3,3,3h2v5h-1c-1.65,0-3,1.35-3,3v5.39c-6.23,1.02-11,6.42-11,12.93v42.68c0,3.86,3.14,7,7,7h24c3.86,0,7-3.14,7-7v-19.5c0-.55-.45-1-1-1s-1,.45-1,1v10.5H31v-31h34v11.5c0,.55.45,1,1,1s1-.45,1-1v-14.18c0-6.51-4.77-11.91-11-12.93v-5.39c0-1.65-1.35-3-3-3h-1v-5h2c1.3,0,2.4-.84,2.82-2h5.33l1.72,3.45c.24.48.65.83,1.16,1,.21.07.42.1.63.1.31,0,.61-.07.89-.21l1.79-.89c.99-.49,1.39-1.7.89-2.68ZM65,77v7c0,2.76-2.24,5-5,5h-24c-2.76,0-5-2.24-5-5v-7h34ZM65,41.32v.68H31v-.68c0-6.13,4.99-11.12,11.12-11.12h11.76c6.13,0,11.12,4.99,11.12,11.12ZM54,23v5h-12v-5c0-.55.45-1,1-1h10c.55,0,1,.45,1,1ZM50,20h-4v-5h4v5ZM54,13h-12c-.55,0-1-.45-1-1v-4c0-.55.45-1,1-1h12c.55,0,1,.45,1,1v4c0,.55-.45,1-1,1ZM65.66,15.55h0s-2-4-2-4c-.17-.34-.52-.55-.89-.55h-5.76v-2h5.76c1.14,0,2.17.64,2.68,1.66l2,4-1.79.9ZM47.18,51.43c-.53.77-5.18,7.58-5.18,10.57,0,3.31,2.69,6,6,6s6-2.69,6-6c0-2.99-4.65-9.8-5.18-10.57-.37-.54-1.27-.54-1.65,0ZM52,62c0,2.21-1.79,4-4,4s-4-1.79-4-4c0-1.54,2.2-5.43,4-8.2,1.8,2.77,4,6.66,4,8.2ZM67,59.1v1.8c0,.55-.45,1-1,1s-1-.45-1-1v-1.8c0-.55.45-1,1-1s1,.45,1,1Z"/></svg>