<?xml version="1.0" encoding="UTF-8"?><svg id="Line" xmlns="http://www.w3.org/2000/svg" viewBox="0 0 96 96"><defs><style>.cls-1{stroke-width:0px;}</style></defs><path class="cls-1" d="M66,5h-21c-7.17,0-13,5.83-13,13v2.42c-.89.52-1.5,1.48-1.5,2.58v3.13c-4.99,2.14-8.5,7.1-8.5,12.87v2h-1c-1.65,0-3,1.35-3,3v2c0,1.65,1.35,3,3,3h30c1.65,0,3-1.35,3-3v-2c0-1.65-1.35-3-3-3h-1v-2c0-.55-.03-1.09-.1-1.62-.07-.55-.57-.95-1.11-.87-.55.07-.94.57-.87,1.11.05.45.08.91.08,1.38v2h-24v-2c0-6.62,5.38-12,12-12,3.01,0,5.89,1.12,8.1,3.16.41.38,1.04.35,1.41-.06.37-.41.35-1.04-.06-1.41-1.18-1.08-2.52-1.93-3.96-2.54v-3.14c0-1.11-.61-2.06-1.5-2.58v-2.42c0-2.76,2.24-5,5-5h21c2.76,0,5,2.24,5,5v45h-4v-2c0-1.1-.9-2-2-2h-2c-1.1,0-2,.9-2,2v10c0,1.1.9,2,2,2h2c1.1,0,2-.9,2-2v-2h4v21c0,.55.45,1,1,1h6c.55,0,1-.45,1-1V18c0-7.17-5.83-13-13-13ZM51,43c.55,0,1,.45,1,1v2c0,.55-.45,1-1,1h-30c-.55,0-1-.45-1-1v-2c0-.55.45-1,1-1h30ZM63,71v-10h2v10s-2,0-2,0ZM70,67h-3v-2h3v2ZM36,25c-1.21,0-2.38.17-3.5.46v-2.46c0-.55.45-1,1-1h5c.55,0,1,.45,1,1v2.46c-1.13-.29-2.31-.46-3.5-.46ZM77,89h-4V18c0-3.86-3.14-7-7-7h-21c-3.86,0-7,3.14-7,7v2h-4v-2c0-6.07,4.93-11,11-11h21c6.07,0,11,4.93,11,11v71ZM48.03,31.86c.33.53.64,1.13.9,1.76.21.51-.03,1.09-.54,1.3-.12.05-.25.08-.38.08-.39,0-.77-.23-.93-.62-.22-.53-.47-1.02-.74-1.46-.29-.47-.15-1.08.32-1.38.47-.29,1.08-.15,1.38.32ZM37,54v2c0,.55-.45,1-1,1s-1-.45-1-1v-2c0-.55.45-1,1-1s1,.45,1,1ZM37,61v2c0,.55-.45,1-1,1s-1-.45-1-1v-2c0-.55.45-1,1-1s1,.45,1,1ZM37,68v2c0,.55-.45,1-1,1s-1-.45-1-1v-2c0-.55.45-1,1-1s1,.45,1,1ZM37,75v2c0,.55-.45,1-1,1s-1-.45-1-1v-2c0-.55.45-1,1-1s1,.45,1,1ZM29.74,53.98l-.41,1.96c-.1.47-.51.79-.98.79-.07,0-.14,0-.21-.02-.54-.12-.89-.65-.77-1.19l.41-1.96c.11-.54.64-.89,1.19-.77.54.11.89.65.77,1.19ZM28.29,60.83l-.41,1.96c-.1.47-.51.79-.98.79-.07,0-.14,0-.21-.02-.54-.12-.89-.65-.77-1.19l.41-1.96c.11-.54.64-.88,1.19-.77.54.11.89.65.77,1.19ZM26.84,67.68l-.41,1.96c-.1.47-.51.79-.98.79-.07,0-.14,0-.21-.02-.54-.12-.89-.65-.77-1.19l.41-1.96c.11-.54.64-.89,1.19-.77.54.11.89.65.77,1.19ZM25.39,74.52l-.41,1.96c-.1.47-.52.79-.98.79-.07,0-.14,0-.21-.02-.54-.11-.89-.65-.77-1.19l.41-1.96c.12-.54.65-.88,1.19-.77.54.11.89.65.77,1.19ZM43.86,56.71c-.07.01-.14.02-.21.02-.46,0-.88-.32-.98-.79l-.41-1.96c-.11-.54.23-1.07.77-1.19.54-.11,1.07.23,1.19.77l.41,1.96c.11.54-.23,1.07-.77,1.19ZM45.31,63.56c-.07.01-.14.02-.21.02-.46,0-.88-.32-.98-.79l-.41-1.96c-.11-.54.23-1.07.77-1.19.54-.11,1.07.23,1.19.77l.41,1.96c.11.54-.23,1.07-.77,1.19ZM46.76,70.4c-.07.01-.14.02-.21.02-.46,0-.88-.32-.98-.79l-.41-1.96c-.11-.54.23-1.07.77-1.19.54-.11,1.07.23,1.19.77l.41,1.96c.11.54-.23,1.07-.77,1.19ZM48.98,76.07c.11.54-.23,1.07-.77,1.19-.07.01-.14.02-.21.02-.46,0-.88-.32-.98-.79l-.41-1.96c-.11-.54.23-1.07.77-1.19.54-.11,1.07.23,1.19.77l.41,1.96Z"/></svg>