<?xml version="1.0" encoding="UTF-8"?><svg id="Line" xmlns="http://www.w3.org/2000/svg" viewBox="0 0 96 96"><defs><style>.cls-1{stroke-width:0px;}</style></defs><path class="cls-1" d="M66,64.1v1.8c0,.55-.45,1-1,1s-1-.45-1-1v-1.8c0-.55.45-1,1-1s1,.45,1,1ZM70,7v6.34c0,1.1-.9,2-2,2h-5.92l-2.47.56c.15,2.06.64,5.64,2.19,7.85.57.83.43,1.95-.31,2.61l-.8.73c-.36.34-.85.53-1.35.53-.06,0-.11,0-.17,0-.57-.05-1.09-.34-1.44-.79-2.26-3.02-3.33-7.09-3.79-9.51-1.79.79-3.08,2.43-3.4,4.42l-.36,2.28c1.02.09,1.83.94,1.83,1.98v5c0,1.1-.9,2-2,2v1.75c0,1.65.89,3.17,2.32,3.97l4.92,2.77c5.4,3.04,8.76,8.78,8.76,14.97v4.04c0,.55-.45,1-1,1s-1-.45-1-1v-4.04c0-.83-.08-1.65-.21-2.46h-30.76c-.02.3-.03.6-.03.9v21.1h31v-6.5c0-.55.45-1,1-1s1,.45,1,1v14.5c0,3.86-3.14,7-7,7h-21c-3.86,0-7-3.14-7-7v-29.1c0-.63.05-1.26.11-1.88,0,0,0-.06,0-.09.31-2.7,1.24-5.28,2.76-7.56l4.35-6.53c.5-.75.76-1.62.76-2.53v-3.32c-1.1,0-2-.9-2-2v-5c0-1.06.83-1.92,1.87-1.99l-.11-.88c-.37-2.93-2.87-5.13-5.82-5.13h-1.18c-.68,0-1.31-.34-1.68-.91s-.43-1.28-.15-1.9l.86-1.92c2.23-5.02,7.22-8.26,12.71-8.26h24.5c1.1,0,2,.9,2,2ZM33,78v6c0,2.76,2.24,5,5,5h21c2.76,0,5-2.24,5-5v-6h-31ZM48,34.75v-1.75h-7v3.32c0,1.31-.38,2.56-1.1,3.64l-4.35,6.53c-1.12,1.68-1.88,3.56-2.26,5.52h30.03c-1.13-3.66-3.62-6.83-7.06-8.77l-4.92-2.77c-2.06-1.15-3.34-3.34-3.34-5.71ZM50,31v-5h-11v5h11ZM54.58,15l6.42-1.46v-6.54h-17.5c-4.7,0-8.98,2.78-10.89,7.08l-.86,1.92h1.18c3.96,0,7.31,2.96,7.8,6.89l.14,1.11h7.26l.41-2.58c.51-3.19,2.87-5.71,6.02-6.43ZM57.64,16.35l-1.78.4c.41,2.21,1.38,6.09,3.46,8.87l.83-.74c-1.73-2.46-2.31-6.22-2.51-8.53ZM68,13.34v-6.34h-5v6.34h5Z"/></svg>