<?xml version="1.0" encoding="UTF-8"?><svg id="Line" xmlns="http://www.w3.org/2000/svg" viewBox="0 0 96 96"><defs><style>.cls-1{stroke-width:0px;}</style></defs><path class="cls-1" d="M85.45,73.73c.96-1.06,1.55-2.47,1.55-4.02,0-1.73-.73-3.28-1.9-4.38,2.28-.85,3.9-3.05,3.9-5.62,0-3.31-2.69-6-6-6h-10.36l-3.65-41.72c-.09-.97-.88-1.7-1.86-1.7H28.87c-.97,0-1.77.73-1.86,1.71l-1,11.42c-.05.55.36,1.04.91,1.08.55.05,1.04-.36,1.08-.91l.99-11.3h34.33l-4.97,56.85h-5.79l.67-7.57c.02-.28-.07-.56-.26-.76-.19-.21-.46-.32-.74-.32h-20.77c-.52,0-.95.4-1,.91l-.68,7.75h-5.79l3.21-36.55c.05-.55-.36-1.04-.91-1.08-.55-.05-1.04.36-1.08.91l-1.87,21.3h-6.36c-3.31,0-6,2.69-6,6,0,1.54.58,2.94,1.53,4h-1.53c-3.31,0-6,2.69-6,6s2.69,6,6,6h1.53c-.95,1.06-1.53,2.46-1.53,4,0,3.31,2.69,6,6,6h68c3.31,0,6-2.69,6-6s-2.45-5.75-5.55-5.98ZM65.34,12.29h1.67l4.98,56.85h-5.78l-.68-7.74c-.04-.52-.48-.91-1-.91h-3.41l4.22-48.19ZM85,83.71H17c-2.21,0-4-1.79-4-4s1.79-4,4-4c.55,0,1-.45,1-1s-.45-1-1-1h-6c-2.21,0-4-1.79-4-4s1.79-4,4-4h6c.55,0,1-.45,1-1s-.45-1-1-1c-2.21,0-4-1.79-4-4s1.79-4,4-4h6.18l-1.18,13.41c-.04.52.14,1.03.49,1.42.35.38.85.6,1.38.6h6.05c.96,0,1.77-.75,1.86-1.7l.61-6.96h18.76l-.58,6.64c-.04.52.14,1.04.49,1.42.35.38.85.6,1.36.6h6.06c.95,0,1.77-.75,1.86-1.7l.61-6.95h2.67l.61,6.95c.08.97.88,1.7,1.86,1.7h6.05c.52,0,1.02-.22,1.38-.61.35-.38.53-.9.48-1.42l-1.17-13.4h10.18c2.21,0,4,1.79,4,4s-1.79,4-4,4h-2c-.55,0-1,.45-1,1s.45,1,1,1c2.21,0,4,1.79,4,4s-1.79,4-4,4c-.55,0-1,.45-1,1s.45,1,1,1h4c2.21,0,4,1.79,4,4s-1.79,4-4,4ZM25.53,28.81l.16-1.8c.05-.55.53-.96,1.08-.91.55.05.96.53.91,1.08l-.16,1.8c-.05.52-.48.91-1,.91-.03,0-.06,0-.09,0-.55-.05-.96-.53-.91-1.08ZM36.71,35.65h14.99c1,0,1.91-.52,2.45-1.38.52-.83.58-1.82.17-2.65l-6.36-12.98c-.4-.83-1.21-1.36-2.14-1.42-1.02-.07-2.01.43-2.59,1.31l-8.63,12.98h0c-.57.86-.64,1.94-.17,2.81.45.84,1.3,1.34,2.28,1.34ZM36.27,32.61l8.63-12.98c.22-.33.55-.43.79-.42.15,0,.36.07.48.3l6.36,12.98c.15.3,0,.6-.07.71-.17.28-.46.44-.76.44h-14.99c-.3,0-.45-.16-.52-.29-.12-.22-.09-.51.08-.76ZM43.81,27.64l.38-4.33c.05-.55.53-.97,1.08-.91.55.05.96.53.91,1.08l-.38,4.33c-.05.52-.48.91-1,.91-.03,0-.06,0-.09,0-.55-.05-.96-.53-.91-1.08ZM43.64,31.19c.04-.48.46-.87.94-.87s.83.39.79.87c-.04.48-.46.87-.94.87s-.83-.39-.79-.87ZM34.08,40.58h19.04c.55,0,1,.45,1,1s-.45,1-1,1h-19.04c-.55,0-1-.45-1-1s.45-1,1-1ZM32.54,47.12h20.37c.55,0,1,.45,1,1s-.45,1-1,1h-20.37c-.55,0-1-.45-1-1s.45-1,1-1ZM31.97,53.6h20.37c.55,0,1,.45,1,1s-.45,1-1,1h-20.37c-.55,0-1-.45-1-1s.45-1,1-1Z"/></svg>