<?xml version="1.0" encoding="UTF-8"?><svg id="Line" xmlns="http://www.w3.org/2000/svg" viewBox="0 0 96 96"><defs><style>.cls-1{stroke-width:0px;}</style></defs><path class="cls-1" d="M84.8,6.5h-14.45c-3.88,0-7.41,2.29-8.99,5.84l-.59,1.32c-.23.52-.18,1.12.13,1.6s.84.77,1.41.77h.81c1.86,0,3.44,1.39,3.67,3.24l.06.5c-.61.34-1.02.99-1.02,1.73v3h-.16c-2.8,0-5.08,2.28-5.08,5.07v5.93h-5.77v-10.18c0-2.93-2.18-5.36-5-5.76v-4.06c1.1,0,2-.9,2-2v-4c0-1.1-.9-2-2-2h-8c-1.1,0-2,.9-2,2v4c0,1.1.9,2,2,2v4.06c-2.82.4-5,2.83-5,5.76v10.18h-.52c-1.65,0-3,1.35-3,3v4c0,1.65,1.35,3,3,3v29.5h-6.26V31c0-2.21-1.79-4-4-4s-4,1.79-4,4v44h-9c-1.65,0-3,1.35-3,3v3.94l-.85,6.81c-.07.57.11,1.14.48,1.57s.93.68,1.5.68h66.12c2.76,0,5-2.24,5-5v-12.5c0-.55-.45-1-1-1s-1,.45-1,1v12.5c0,1.65-1.35,3-3,3h-34.4c0-.08,0-.17,0-.25l-.85-6.81v-3.94c0-1.65-1.35-3-3-3h-.74v-29.5h10v11c0,1.65,1.35,3,3,3h16c1.65,0,3-1.35,3-3v-11h10v19c0,.55.45,1,1,1s1-.45,1-1v-19c1.65,0,3-1.35,3-3v-4c0-1.65-1.35-3-3-3h-1.24v-5.93c0-2.8-2.28-5.07-5.08-5.07h-.16v-3c0-.57-.25-1.09-.64-1.45l.28-1.73c.18-1.15.87-2.21,1.77-2.84.23,1.49.8,3.72,2.19,4.86.19.15.41.23.63.23.29,0,.58-.12.77-.37.35-.43.29-1.06-.14-1.41-.94-.77-1.37-2.78-1.54-4.05l1.96-.54h3.67c1.1,0,2-.9,2-2v-3.71c0-1.1-.9-2-2-2ZM24.06,31c0-1.1.9-2,2-2s2,.9,2,2v44h-4V31ZM11.95,83h5.55l-.38,6h-5.93l.75-6ZM19.5,83h5.56v6h-5.94l.38-6ZM27.06,89v-6h5.56l.38,6h-5.94ZM40.93,89h-5.93l-.38-6h5.55l.75,6ZM40.06,78v3H12.06v-3c0-.55.45-1,1-1h26c.55,0,1,.45,1,1ZM68.32,52.5h-18v-15h18v15ZM44.6,35.5c-.18-.3-.27-.65-.27-1,0-1.1.9-2,2-2s2,.9,2,2c0,.36-.1.7-.27,1h-3.45ZM41.84,9.5h8v4s-8,0-8,0v-4ZM42.66,21.5h.18c.55,0,1-.45,1-1v-5h4v5c0,.55.45,1,1,1h.18c2.11,0,3.82,1.71,3.82,3.82v.18h-14v-.18c0-2.11,1.71-3.82,3.82-3.82ZM38.84,27.5h14v8h-2.66c.08-.33.14-.66.14-1,0-2.21-1.79-4-4-4s-4,1.79-4,4c0,.34.06.67.14,1h-3.62v-8ZM36.32,43.5c-.55,0-1-.45-1-1v-4c0-.55.45-1,1-1h12v6h-12ZM67.32,57.5h-16c-.55,0-1-.45-1-1v-2h18v2c0,.55-.45,1-1,1ZM83.32,38.5v4c0,.55-.45,1-1,1h-12v-6h12c.55,0,1,.45,1,1ZM79.08,29.57v5.93h-16.47v-5.93c0-1.7,1.38-3.07,3.08-3.07h10.32c1.7,0,3.08,1.38,3.08,3.07ZM67.84,24.5v-3h6v3h-6ZM73.51,18l-.24,1.5h-4.42l-.06-.49c-.36-2.84-2.79-4.99-5.65-4.99h-.32l.39-.87c1.26-2.83,4.07-4.65,7.16-4.65h9.66v3.94l-2.14.58c-2.18.5-3.98,2.54-4.37,4.98ZM82.01,12.21v-3.71h2.79v3.71s-2.79,0-2.79,0ZM82.32,68.1v1.8c0,.55-.45,1-1,1s-1-.45-1-1v-1.8c0-.55.45-1,1-1s1,.45,1,1Z"/></svg>