<?xml version="1.0" encoding="UTF-8"?><svg id="Line" xmlns="http://www.w3.org/2000/svg" viewBox="0 0 96 96"><defs><style>.cls-1{stroke-width:0px;}</style></defs><path class="cls-1" d="M90,9h-15.36c-.55,0-1,.45-1,1s.45,1,1,1h14.36v10h-38v-3.38c0-3.65,2.97-6.62,6.62-6.62h8.02c.55,0,1-.45,1-1s-.45-1-1-1h-8.02c-4.75,0-8.62,3.87-8.62,8.62v4.38c0,.55.45,1,1,1h5v4c0,1.08.86,1.95,1.93,1.99l-.56,7.9c-.68.2-1.33.53-1.9.99l-10.39,8.52c-.26-1.45-1.12-2.72-2.36-3.51-1.92-1.21-4.38-1.06-6.13.38l-12.71,10.42c-1.21.99-2.74,1.54-4.3,1.54H6c-.55,0-1,.45-1,1s.45,1,1,1h12.57c2.02,0,4-.71,5.57-1.99l12.71-10.42c1.09-.89,2.61-.98,3.8-.23.78.5,1.31,1.27,1.47,2.18s-.06,1.82-.63,2.55l-5.93,7.67c-.23.3-.27.71-.11,1.05.17.34.52.56.9.56h22.09c1.72,0,3.16,1.24,3.27,2.82.06.88-.26,1.75-.89,2.38-.58.58-1.34.9-2.15.9h-16.2c-.55,0-1,.45-1,1s.45,1,1,1h21.37c1.72,0,3.16,1.24,3.27,2.82.06.88-.26,1.75-.89,2.38-.58.58-1.34.9-2.15.9h-21.6c-.55,0-1,.45-1,1s.45,1,1,1h16.2c1.68,0,3.05,1.37,3.05,3.05,0,.81-.32,1.58-.9,2.15s-1.34.89-2.15.89h-20.25c-.55,0-1,.45-1,1s.45,1,1,1h12.15c1.68,0,3.05,1.37,3.05,3.05,0,.81-.32,1.58-.9,2.15s-1.34.89-2.15.89h-16.33c-3.27,0-6.47-.89-9.27-2.57l-3.22-1.94c-2.44-1.46-5.23-2.24-8.07-2.24h-7.67c-.55,0-1,.45-1,1s.45,1,1,1h7.67c2.48,0,4.91.67,7.04,1.95l3.23,1.94c3.11,1.87,6.67,2.86,10.3,2.86h16.33c1.35,0,2.61-.53,3.57-1.48.96-.96,1.48-2.22,1.48-3.57,0-.12-.02-.23-.03-.35h13.87c1.34,0,2.64-.54,3.57-1.48.96-.96,1.48-2.22,1.48-3.57,0-1.14-.38-2.2-1.03-3.05h4.08c1.34,0,2.61-.53,3.56-1.48.95-.93,1.49-2.23,1.49-3.57,0-1.14-.38-2.2-1.03-3.05h1.38c1.35,0,2.62-.52,3.57-1.48,1.04-1.05,1.57-2.48,1.47-3.94-.19-2.62-2.51-4.68-5.27-4.68h-1.15c.74-.97,1.1-2.18,1.02-3.42-.18-2.62-2.5-4.68-5.27-4.68h-7.49l-.79-22.21c1.09-.02,1.96-.91,1.96-2v-4h19c.55,0,1-.45,1-1v-12c0-.55-.45-1-1-1ZM43.06,50.54c.32-.41.56-.86.75-1.34l11.92-9.78c.15-.12.31-.22.47-.32l-.63,8.76c-1.85.71-3.43,2.06-4.39,3.86-3.28,0-6.23,1.95-7.58,4.89h-5.23l4.68-6.06ZM67.62,73.32c1.04-1.04,1.57-2.47,1.47-3.94-.19-2.62-2.5-4.68-5.26-4.68h-1.15c.74-.97,1.1-2.18,1.01-3.42-.19-2.62-2.5-4.68-5.26-4.68h-12.55c1.16-1.76,3.14-2.89,5.32-2.89.06,0,.12.01.19.02.12.02.23.03.35.04.45.02.81-.22.97-.61,1.01-2.36,3.32-3.88,5.88-3.88s4.99,1.61,5.95,4.1c.18.48.71.74,1.2.6.66-.19,1.21-.27,1.72-.27,3.52,0,6.39,2.87,6.39,6.39,0,1.38-.45,2.71-1.31,3.83-.27.36-.27.85,0,1.21.85,1.13,1.31,2.45,1.31,3.83,0,3.52-2.87,6.39-6.39,6.39-.97,0-1.91-.22-2.76-.63,1.1-.14,2.12-.62,2.92-1.42ZM71.6,82.71c-.56.57-1.34.89-2.15.89h-14.43c-.13-.25-.28-.48-.44-.7h4.08c1.35,0,2.61-.53,3.57-1.48s1.48-2.22,1.48-3.57c0-.12-.02-.23-.03-.35h5.77c1.68,0,3.05,1.37,3.05,3.05,0,.81-.32,1.57-.9,2.16ZM79.7,74.6c-.58.58-1.34.9-2.15.9h-4.82c1.8-1.46,2.98-3.64,3.1-6.1h1.72c1.68,0,3.05,1.37,3.05,3.05,0,.81-.33,1.59-.9,2.15ZM82.72,61.31c1.72,0,3.16,1.24,3.27,2.82.06.89-.25,1.74-.89,2.38-.57.57-1.33.89-2.15.89h-7.27c-.2-1-.56-1.97-1.12-2.85.63-1,1.04-2.09,1.2-3.24h6.96ZM80.59,56.03c.06.89-.26,1.76-.89,2.38-.58.58-1.34.9-2.15.9h-1.74c-.24-2.53-1.61-4.73-3.59-6.1h5.1c1.73,0,3.16,1.24,3.27,2.82ZM65.65,51.21c-1.51-2.42-4.13-3.92-7.06-3.92-.33,0-.65.03-.97.07l1.31-18.36h8.1l.8,22.21h-2.18ZM69,27h-12v-4h12v4ZM68.24,10c0-.55.45-1,1-1h1.8c.55,0,1,.45,1,1s-.45,1-1,1h-1.8c-.55,0-1-.45-1-1Z"/></svg>