<?xml version="1.0" encoding="UTF-8"?><svg id="Line" xmlns="http://www.w3.org/2000/svg" viewBox="0 0 96 96"><defs><style>.cls-1{stroke-width:0px;}</style></defs><path class="cls-1" d="M44.27,81.65h-8.39v-3.25c0-1.1-.9-2-2-2h-.09V9c-.01-2.21-1.8-4-4-4h-.31c-2.2,0-3.99,1.79-3.99,4v67.4h-.11c-1.1,0-2,.9-2,2v3.25h-8.39c-1.65,0-3.05,1.08-3.34,2.6l-.86,5.6c-.04.29.04.58.23.8.19.22.47.35.76.35h35.7c.29,0,.57-.13.76-.35.19-.22.27-.51.23-.8l-.86-5.63c-.28-1.49-1.68-2.57-3.33-2.57ZM29.47,7h.31c1.1,0,1.99.9,1.99,2v18.59s-4.29,0-4.29,0V9c0-1.1.89-2,1.99-2ZM27.48,29.59h4.29v46.81s-4.29,0-4.29,0V29.59ZM25.38,78.4h8.5v3.25h-8.5v-3.25ZM12.94,89l.68-4.41c.1-.54.69-.94,1.37-.94h29.29c.68,0,1.26.4,1.36.91l.68,4.44H12.94ZM84.62,57.02c-.35-2.53-2.31-4.53-4.81-4.93-.45-2.77-2.86-4.89-5.76-4.89-1.61,0-3.13.68-4.21,1.84-1.09-1.16-2.61-1.84-4.22-1.84-.71,0-1.39.13-2.05.38-1.07-1.02-2.48-1.59-3.98-1.59-3.21,0-5.83,2.61-5.83,5.82,0,.21.01.41.04.62-1.92.77-3.29,2.52-3.58,4.59-.37.36-.6.87-.6,1.42v4.3c0,1.1.9,2,2,2h.18l1.87,23.4c.13,1.6,1.49,2.85,3.09,2.85h21.33c1.6,0,2.96-1.25,3.09-2.85l.61-7.57c.04-.55-.37-1.03-.92-1.08-.56-.04-1.03.37-1.08.92l-.61,7.57c-.05.57-.53,1.01-1.09,1.01h-21.33c-.57,0-1.05-.44-1.09-1.01l-1.85-23.24h27.23l-.53,6.67c-.04.55.37,1.03.92,1.08.57.05,1.03-.37,1.08-.92l.55-6.83h.17c1.1,0,2-.9,2-2v-4.3c0-.56-.23-1.07-.61-1.43ZM55.18,54.1c.27-.06.51-.23.65-.47.14-.24.18-.53.1-.8-.11-.38-.17-.71-.17-1.03,0-2.11,1.72-3.82,3.83-3.82,1.15,0,2.23.52,2.96,1.43.3.38.84.49,1.27.25.57-.31,1.17-.47,1.8-.47,1.39,0,2.67.77,3.34,2.01.17.32.51.52.88.52s.7-.2.88-.52c.68-1.24,1.95-2.01,3.33-2.01,2.11,0,3.83,1.71,3.83,3.82,0,.55.45,1,1,1,1.62,0,3.01,1,3.56,2.43h-30.03c.46-1.17,1.48-2.08,2.77-2.35ZM51.62,62.75v-4.28s.03-.01.05-.02h31.5s.02,0,.02,0c0,0,.02,0,.03.01v4.28s-31.6,0-31.6,0ZM82.22,75.18l-.14,1.8c-.04.52-.48.92-1,.92-.03,0-.05,0-.08,0-.55-.04-.96-.52-.92-1.07l.14-1.8c.04-.55.5-.96,1.07-.92.55.04.96.52.92,1.07ZM69.53,44.8c1.71,0,3.1-1.39,3.1-3.1s-1.39-3.1-3.1-3.1-3.1,1.39-3.1,3.1,1.39,3.1,3.1,3.1ZM69.53,40.6c.61,0,1.1.49,1.1,1.1s-.49,1.1-1.1,1.1-1.1-.49-1.1-1.1.49-1.1,1.1-1.1ZM77.92,40.6c1.71,0,3.1-1.39,3.1-3.1s-1.39-3.1-3.1-3.1-3.1,1.39-3.1,3.1,1.39,3.1,3.1,3.1ZM77.92,36.4c.61,0,1.1.49,1.1,1.1s-.49,1.1-1.1,1.1-1.1-.49-1.1-1.1.49-1.1,1.1-1.1Z"/></svg>