<?xml version="1.0" encoding="UTF-8"?>
<svg id="Flat" xmlns="http://www.w3.org/2000/svg" viewBox="0 0 64 64">
  <defs>
    <style>
      .cls-1 {
        fill: #9eabc4;
      }

      .cls-2 {
        fill: #737e9b;
      }

      .cls-3 {
        fill: #536882;
      }
    </style>
  </defs>
  <path class="cls-1" d="M32,15.46c.343,0,.896-.373,1-1.089V4c0-.552-.448-1-1-1s-1,.448-1,1v10.37c0,.65.657,1.089,1,1.089Z"/>
  <path class="cls-1" d="M50.03,46.4c-.19.17-.43.25-.66.25-.28,0-.56-.12-.75-.35l-5.75-6.61h-5.87c-1.609.084-2.405-.786-2.77-2h9.1c.29,0,.56.13.75.35l6.04,6.95c.37.42.32,1.05-.09,1.41Z"/>
  <path class="cls-1" d="M51.74,60.66c-.2.22-.48.34-.75.34-.24,0-.47-.08-.66-.25l-6.51-5.65c-.17-.15-.28-.35-.32-.56l-1.52-7.74-3.59-1.47-1.029-1.231c0-.17,1.019-.769,1.009-.939l4.86,1.99c.31.13.54.41.61.74l1.55,7.92,6.25,5.43c.42.37.46,1,.1,1.42Z"/>
  <path class="cls-1" d="M29.77,37.69c.072,1.524-1.206,1.91-2.77,2h-5.87l-5.75,6.61c-.19.23-.47.35-.75.35-.23,0-.47-.08-.66-.25-.41-.36-.46-.99-.09-1.41l6.04-6.95c.19-.22.46-.35.75-.35h9.1Z"/>
  <path class="cls-1" d="M25.63,43.16c-.01.17.835.522.835.692l-.855,1.478-3.59,1.47-1.52,7.74c-.04.21-.15.41-.32.56l-6.51,5.65c-.19.17-.42.25-.66.25-.28,0-.55-.12-.75-.34-.36-.42-.32-1.05.1-1.42l6.25-5.43,1.55-7.92c.07-.33.3-.61.61-.74l4.86-1.99Z"/>
  <g>
    <path class="cls-1" d="M45.34,20.51l-8.52,7.48c-1.292.008-2.14-.278-1.02-1.76l7.8-6.86-1.27-8.38c-.08-.55.29-1.06.84-1.14.54-.08,1.05.29,1.14.84l1.35,8.92c.06.34-.07.68-.32.9Z"/>
    <path class="cls-1" d="M28.2,26.23c.692,1.291-.027,1.632-1.02,1.76l-8.52-7.48c-.25-.22-.38-.56-.32-.9l1.35-8.92c.09-.55.59-.93,1.14-.84.55.08.92.59.84,1.14l-1.27,8.38,7.8,6.86Z"/>
  </g>
  <path class="cls-3" d="M32,37.279c-3.529,0-6.391,2.861-6.391,6.391v9.939c0,3.529,2.861,6.391,6.391,6.391s6.391-2.861,6.391-6.391v-9.939c0-3.529-2.861-6.391-6.391-6.391Z"/>
  <g>
    <path class="cls-1" d="M58.3,31.61c0,1.88-2.16,3.41-8.68,3.41-4.07,0-9.36-.6-12.76-1.51-.868-.505-.558-1.744-.558-2.714,0-.41,1.028-.806.958-1.196,3.41-.85,8.45-1.4,12.36-1.4,6.52,0,8.68,1.53,8.68,3.41Z"/>
    <path class="cls-1" d="M27.14,33.51c-3.4.91-8.69,1.51-12.76,1.51-6.52,0-8.68-1.53-8.68-3.41s2.16-3.41,8.68-3.41c3.91,0,8.95.55,12.36,1.4-.07.39.957.786.957,1.196,0,.97-.877,1.894-.557,2.714Z"/>
  </g>
  <circle class="cls-3" cx="32" cy="19.291" r="5.021"/>
  <ellipse class="cls-3" cx="32" cy="30.796" rx="5.361" ry="6.483"/>
  <path class="cls-2" d="M38.39,48.5v5.11c0,.24-.01.47-.04.7h-12.7c-.03-.23-.04-.46-.04-.7v-5.11h12.78Z"/>
  <path class="cls-2" d="M38.31,42.7h-12.62c.46-3.07,3.11-5.42,6.31-5.42,1.76,0,3.36.72,4.52,1.87.94.94,1.59,2.17,1.79,3.55Z"/>
</svg>