<?xml version="1.0" encoding="UTF-8"?>
<svg id="Flat" xmlns="http://www.w3.org/2000/svg" viewBox="0 0 64 64">
  <defs>
    <style>
      .cls-1 {
        fill: #9eabc4;
      }

      .cls-2 {
        fill: #d85264;
      }

      .cls-3 {
        fill: #737e9b;
      }

      .cls-4 {
        fill: #d3dce5;
      }

      .cls-5 {
        fill: #536882;
      }
    </style>
  </defs>
  <circle class="cls-4" cx="32" cy="32" r="28"/>
  <g>
    <path class="cls-1" d="M38.21,18.74l-2.11,2.53c-.24-.67-.65-1.25-1.17-1.72l1.35-1.62-1.07-2.54c-.21-.51.03-1.09.54-1.31.51-.21,1.09.03,1.31.54l1.3,3.1c.15.34.09.74-.15,1.02Z"/>
    <path class="cls-1" d="M29.07,19.55c-.52.47-.93,1.05-1.17,1.72l-2.11-2.53c-.24-.28-.3-.68-.15-1.02l1.3-3.1c.22-.51.8-.75,1.31-.54.51.22.75.8.54,1.31l-1.07,2.54,1.35,1.62Z"/>
  </g>
  <path class="cls-1" d="M46.18,28.14l-4.71,3.71c-.2-.66-.45-1.32-.74-1.97l3.75-2.95-.9-5.98c-.09-.55.29-1.06.84-1.14.54-.08,1.05.29,1.13.84l1,6.55c.05.36-.09.71-.37.94Z"/>
  <path class="cls-1" d="M49.76,31.29l-4.43,5.1c-.19.22-.47.34-.76.34h-2.5c.03-.31.04-.63.04-.95,0-.34-.02-.69-.05-1.05h2.05l4.14-4.76c.36-.41,1-.46,1.41-.09.42.36.46.99.1,1.41Z"/>
  <path class="cls-1" d="M23.27,29.89c-.29.64-.54,1.3-.75,1.96l-4.7-3.7c-.28-.23-.42-.58-.37-.94l1-6.55c.08-.55.59-.92,1.13-.84.55.08.93.59.84,1.14l-.9,5.98,3.75,2.95Z"/>
  <path class="cls-1" d="M21.89,35.78c0,.32.02.65.04.96h-2.5c-.29,0-.57-.12-.76-.34l-4.43-5.11c-.36-.41-.32-1.04.1-1.41.41-.36,1.05-.31,1.41.1l4.13,4.76h2.06c-.03.35-.05.7-.05,1.04Z"/>
  <path class="cls-1" d="M23.35,41.01v.01l-2.54.9-.42,4.71c-.02.18-.09.36-.2.51l-1.83,2.45c-.19.27-.5.41-.8.41-.21,0-.42-.07-.6-.2-.44-.33-.53-.96-.2-1.4l1.66-2.23.46-5.07c.03-.38.29-.72.66-.85l2.94-1.05c.23.63.52,1.24.87,1.81Z"/>
  <path class="cls-1" d="M47.13,49.8c-.18.13-.38.2-.59.2-.31,0-.61-.14-.81-.41l-1.83-2.45c-.11-.15-.17-.33-.19-.51l-.42-4.71-2.62-.93c.34-.57.63-1.18.86-1.82l3.03,1.08c.37.13.63.47.66.85l.46,5.07,1.66,2.23c.33.44.24,1.07-.21,1.4Z"/>
  <path class="cls-5" d="M32,22.624c-5.586,0-10.114,7.565-10.114,13.151s4.528,10.114,10.114,10.114,10.114-4.528,10.114-10.114-4.528-13.151-10.114-13.151Z"/>
  <path class="cls-3" d="M32,22.62c-3.41,0-6.42,2.82-8.25,6.29,2.15,1.98,5.06,3.19,8.25,3.19s6.09-1.21,8.25-3.18c-1.82-3.48-4.84-6.3-8.25-6.3Z"/>
  <path class="cls-2" d="M32,4c-15.464,0-28,12.536-28,28s12.536,28,28,28,28-12.536,28-28S47.464,4,32,4ZM8.675,32c0-12.882,10.443-23.325,23.325-23.325,5.634,0,10.801,1.998,14.833,5.323L14.001,46.836c-3.327-4.032-5.326-9.201-5.326-14.836ZM32,55.325c-5.615,0-10.765-1.985-14.79-5.29L50.033,17.206c3.306,4.026,5.292,9.177,5.292,14.794,0,12.882-10.443,23.325-23.325,23.325Z"/>
  <path class="cls-5" d="M27.807,24.083c1.279-.903,2.695-1.459,4.193-1.459s2.913.555,4.191,1.458l.011-.007c.12-.401.185-.825.185-1.265,0-2.423-1.964-4.388-4.388-4.388s-4.387,1.964-4.388,4.388c0,.44.065.864.185,1.265l.01.008Z"/>
</svg>