<?xml version="1.0" encoding="UTF-8"?>
<svg id="Flat" xmlns="http://www.w3.org/2000/svg" viewBox="0 0 64 64">
  <defs>
    <style>
      .cls-1 {
        fill: #737e9b;
      }

      .cls-2 {
        fill: #d3dce5;
      }

      .cls-3 {
        fill: #536882;
      }
    </style>
  </defs>
  <path class="cls-3" d="M9.366,23.114h4.353c.563-.666.942-1.333-.034-2h-4.373c-.034,0-.068.002-.102.005-1.849.189-3.356,1.185-4.359,2.878-1.233,2.082-1.208,4.702.062,6.677,1.106,1.719,2.677,2.918,2.921,3.098,1.362.474,1.923.091,1.404-1.441l-.147-.117c-.015-.011-1.519-1.103-2.496-2.622-.864-1.344-.873-3.14-.023-4.575.667-1.127,1.607-1.767,2.794-1.903Z"/>
  <path class="cls-1" d="M48.676,39.692c.398-.902.622-1.897.622-2.946,0-4.04-3.276-7.316-7.316-7.316-2.596,0-4.87,1.356-6.169,3.394-9.333-4.543-15.81-4.701-15.81-4.701-8.701,0-15.773,6.972-15.935,15.634-.167,8.932,7.419,16.242,16.353,16.242h36.942c1.405,0,2.573-1.085,2.659-2.488.257-4.179-.693-12.658-11.346-17.82Z"/>
  <path class="cls-3" d="M41.983,33.364c-1.868,0-3.382,1.514-3.382,3.382s1.514,3.382,3.382,3.382,3.382-1.514,3.382-3.382-1.514-3.382-3.382-3.382Z"/>
  <path class="cls-3" d="M29.801,60.003h-1.99c.01-.25.19-4.49-5.92-5.74-.39-.08-.7-.39-.78-.78s.08-.79.41-1.02c.19-.14,4.91-3.64,2.52-11.31-.16-.53.13-1.09.66-1.25.53-.17,1.09.13,1.25.65,1.98,6.34-.26,10.32-1.89,12.23,5.68,1.95,5.76,6.6,5.74,7.22Z"/>
  <path class="cls-3" d="M41.481,59.513v.49h-2v-.45c-.05-1.2-.51-2.14-1.38-2.75-.5-.36-1.16-.55-1.88-.55h-3.51c-.55,0-1-.45-1-1s.45-1,1-1h3.51c1.14,0,2.19.31,3.04.91.96.68,2.13,1.99,2.22,4.35Z"/>
  <path class="cls-3" d="M35.811,32.823c-.68,1.18-1.03,2.52-1.03,3.92,0,4.56,3.25,8,7.56,8,.55,0,1,.45,1,1,0,.56-.45,1-1,1-5.45,0-9.56-4.3-9.56-10,0-1.69.42-3.32,1.2-4.77l1.83.85Z"/>
  <path class="cls-3" d="M51.106,49.088l1.601-1.601c.391-.391.391-1.023,0-1.414s-1.023-.391-1.414,0l-1.601,1.601-1.601-1.601c-.391-.391-1.023-.391-1.414,0s-.391,1.023,0,1.414l1.601,1.601-1.601,1.601c-.391.391-.391,1.023,0,1.414.195.195.451.293.707.293s.512-.098.707-.293l1.601-1.601,1.601,1.601c.195.195.451.293.707.293s.512-.098.707-.293c.391-.391.391-1.023,0-1.414l-1.601-1.601Z"/>
  <path class="cls-2" d="M43.984,34.325c6.938-6.937,6.938-18.185,0-25.121-6.937-6.937-18.184-6.938-25.123,0-5.63,5.631-6.689,14.103-3.178,20.803l-2.677,8.29c-.375,1.161.723,2.259,1.884,1.883l8.288-2.677c6.703,3.511,15.176,2.453,20.806-3.178Z"/>
  <path class="cls-3" d="M30.112,10.538c-4.441.508-8.081,4.039-8.705,8.465-.539,3.825,1.091,7.309,3.839,9.401v2.821c0,.676.548,1.224,1.224,1.224h9.617c.676,0,1.224-.548,1.224-1.224v-2.803c2.408-1.823,3.964-4.712,3.964-7.966,0-5.902-5.121-10.609-11.162-9.918Z"/>
  <g>
    <path class="cls-2" d="M27.373,18.748c-1.268,0-2.296,1.028-2.296,2.296s1.028,2.296,2.296,2.296,2.296-1.028,2.296-2.296-1.028-2.296-2.296-2.296Z"/>
    <path class="cls-2" d="M35.206,18.748c-1.268,0-2.296,1.028-2.296,2.296s1.028,2.296,2.296,2.296,2.296-1.028,2.296-2.296-1.028-2.296-2.296-2.296Z"/>
  </g>
  <g>
    <path class="cls-2" d="M33.41,27.88c-.56,0-1,.45-1,1v3.57h2v-3.57c0-.55-.45-1-1-1Z"/>
    <path class="cls-2" d="M29.17,27.88c-.55,0-1,.45-1,1v3.57h2v-3.57c0-.55-.44-1-1-1Z"/>
  </g>
</svg>