<?xml version="1.0" encoding="UTF-8"?>
<svg id="Flat" xmlns="http://www.w3.org/2000/svg" viewBox="0 0 64 64">
  <defs>
    <style>
      .cls-1 {
        fill: #894c3d;
      }

      .cls-2 {
        fill: #a26a55;
      }

      .cls-3 {
        fill: #702e24;
      }
    </style>
  </defs>
  <g>
    <path class="cls-2" d="M44.37,5.03c-6.84,1.95-9.24,8.19-9.55,9.09-1.344.533-1.905.147-1.8-.92.66-1.77,3.45-7.99,10.8-10.1.53-.15,1.08.16,1.24.69.15.53-.16,1.08-.69,1.24Z"/>
    <path class="cls-2" d="M30.93,13.21c-.405.897-.994,1.273-1.79.95-.12-.35-.7-1.96-2-3.77-1.47-2.03-3.84-4.31-7.51-5.36-.53-.16-.84-.71-.69-1.24.16-.53.71-.84,1.24-.69,7.37,2.11,10.11,8.36,10.75,10.11Z"/>
  </g>
  <path class="cls-3" d="M32,20.93c1.354,0,2.632-2.822,3.782-1.542.323-.604.523-1.283.523-2.016,0-2.378-1.928-4.306-4.305-4.306s-4.306,1.928-4.306,4.306c0,.733.2,1.412.523,2.016,1.15-1.28,2.429,1.542,3.782,1.542Z"/>
  <g>
    <g>
      <path class="cls-2" d="M23.59,31.38c1.286,1.165,1.215,1.954-.29,2.32l-6.2-4.89c-.28-.22-.42-.58-.37-.93l1.41-9.23c.08-.54.59-.92,1.13-.83.55.08.93.59.84,1.14l-1.31,8.64,4.79,3.78Z"/>
      <path class="cls-2" d="M23.1,40.83h-3.98c-.29,0-.57-.12-.76-.34l-6.24-7.19c-.37-.42-.32-1.05.09-1.41.42-.36,1.05-.32,1.41.1l5.95,6.84h3.48c1.009.669.925,1.339.05,2Z"/>
      <path class="cls-2" d="M23.78,47.09l-3.24,1.15-.62,6.89c-.01.19-.08.36-.19.51l-2.58,3.46c-.2.26-.5.4-.8.4-.21,0-.42-.06-.6-.2-.44-.33-.53-.95-.2-1.39l2.41-3.24.65-7.24c.03-.39.29-.72.66-.85l4.19-1.5c1.122.282,1.472.852.32,2.01Z"/>
    </g>
    <g>
      <path class="cls-2" d="M46.9,28.81l-6.2,4.89c-.819-.516-.928-1.292-.29-2.32l4.79-3.78-1.31-8.64c-.09-.55.29-1.06.84-1.14.54-.09,1.05.29,1.13.83l1.41,9.23c.05.35-.09.71-.37.93Z"/>
      <path class="cls-2" d="M51.88,33.3l-6.24,7.19c-.19.22-.47.34-.76.34h-3.98c-.913-.715-.919-1.386.05-2h3.48l5.95-6.84c.36-.42.99-.46,1.41-.1.41.36.46.99.09,1.41Z"/>
      <path class="cls-2" d="M48.25,59.3c-.18.14-.39.2-.6.2-.3,0-.6-.14-.8-.4l-2.58-3.46c-.11-.15-.18-.32-.19-.51l-.62-6.89-3.24-1.15c-.703-.86-.653-1.543.32-2.01l4.19,1.5c.37.13.63.46.66.85l.65,7.24,2.41,3.24c.33.44.24,1.06-.2,1.39Z"/>
    </g>
  </g>
  <ellipse class="cls-3" cx="32" cy="38.654" rx="8.948" ry="21.282"/>
  <path class="cls-1" d="M32,17.37c-3.14,0-5.91,3.86-7.51,9.7,2.34.83,4.87,1.29,7.51,1.29s5.17-.46,7.51-1.29c-1.6-5.84-4.37-9.7-7.51-9.7Z"/>
  <path class="cls-1" d="M32,28.36c-.337,0-.667-.029-1-.043v31.483c.33.1.66.14,1,.14s.67-.04,1-.14v-31.483c-.333.015-.663.043-1,.043Z"/>
</svg>