<?xml version="1.0" encoding="UTF-8"?>
<svg id="Flat" xmlns="http://www.w3.org/2000/svg" viewBox="0 0 64 64">
  <defs>
    <style>
      .cls-1 {
        fill: #9eabc4;
      }

      .cls-2 {
        fill: #d85264;
      }

      .cls-3 {
        fill: #737e9b;
      }

      .cls-4 {
        fill: #d3dce5;
      }

      .cls-5 {
        fill: #536882;
      }
    </style>
  </defs>
  <circle class="cls-4" cx="32" cy="32" r="24"/>
  <path class="cls-4" d="M58.581,17.739h-1.82c-.783,0-1.418-.635-1.418-1.418v-7.665h-7.665c-.783,0-1.418-.635-1.418-1.418v-1.82c0-.783.635-1.418,1.418-1.418h10.903c.783,0,1.418.635,1.418,1.418v10.903c0,.783-.635,1.418-1.418,1.418Z"/>
  <path class="cls-4" d="M5.419,17.738h1.82c.783,0,1.418-.635,1.418-1.418v-7.665h7.665c.783,0,1.418-.635,1.418-1.418v-1.82c0-.783-.635-1.418-1.418-1.418H5.419c-.783,0-1.418.635-1.418,1.418v10.903c0,.783.635,1.418,1.418,1.418Z"/>
  <path class="cls-4" d="M58.581,46.261h-1.82c-.783,0-1.418.635-1.418,1.418v7.665h-7.665c-.783,0-1.418.635-1.418,1.418v1.82c0,.783.635,1.418,1.418,1.418h10.903c.783,0,1.418-.635,1.418-1.418v-10.903c0-.783-.635-1.418-1.418-1.418Z"/>
  <path class="cls-4" d="M5.419,46.262h1.82c.783,0,1.418.635,1.418,1.418v7.665h7.665c.783,0,1.418.635,1.418,1.418v1.82c0,.783-.635,1.418-1.418,1.418H5.419c-.783,0-1.418-.635-1.418-1.418v-10.903c0-.783.635-1.418,1.418-1.418Z"/>
  <path class="cls-2" d="M32,57c-13.785,0-25-11.215-25-25S18.215,7,32,7s25,11.215,25,25-11.215,25-25,25ZM32,9c-12.683,0-23,10.318-23,23s10.317,23,23,23,23-10.318,23-23-10.317-23-23-23Z"/>
  <path class="cls-2" d="M60,33h-7.9c-.553,0-1-.448-1-1s.447-1,1-1h7.9c.553,0,1,.448,1,1s-.447,1-1,1Z"/>
  <path class="cls-2" d="M11.9,33h-7.9c-.553,0-1-.448-1-1s.447-1,1-1h7.9c.553,0,1,.448,1,1s-.447,1-1,1Z"/>
  <path class="cls-2" d="M32,12.9c-.553,0-1-.448-1-1v-7.9c0-.552.447-1,1-1s1,.448,1,1v7.9c0,.552-.447,1-1,1Z"/>
  <path class="cls-2" d="M32,61c-.553,0-1-.448-1-1v-7.9c0-.552.447-1,1-1s1,.448,1,1v7.9c0,.552-.447,1-1,1Z"/>
  <g>
    <path class="cls-1" d="M38.21,16.44l-2.11,2.53c-.24-.67-.64-1.26-1.17-1.72l1.35-1.63-1.07-2.54c-.21-.5.03-1.09.54-1.31.5-.21,1.09.03,1.31.54l1.3,3.1c.15.34.09.74-.15,1.03Z"/>
    <path class="cls-1" d="M29.07,17.25c-.53.46-.93,1.05-1.17,1.72l-2.11-2.53c-.24-.29-.3-.69-.15-1.03l1.3-3.1c.22-.51.81-.75,1.31-.54.51.22.75.81.54,1.31l-1.07,2.54,1.35,1.63Z"/>
  </g>
  <path class="cls-1" d="M46.18,25.83l-4.71,3.71c-.2-.66-.45-1.32-.74-1.96l3.75-2.96-.9-5.98c-.09-.54.29-1.05.84-1.14.54-.08,1.05.3,1.13.84l1,6.55c.05.36-.09.72-.37.94Z"/>
  <path class="cls-1" d="M49.76,28.98l-4.43,5.1c-.2.22-.47.35-.76.35h-2.5c.02-.31.04-.64.04-.96,0-.34-.02-.69-.05-1.04h2.05l4.14-4.76c.37-.42,1-.46,1.41-.1.42.36.46.99.1,1.41Z"/>
  <path class="cls-1" d="M23.27,27.59c-.29.64-.54,1.29-.75,1.95l-4.7-3.7c-.28-.22-.42-.58-.37-.94l1-6.55c.08-.54.59-.92,1.13-.84.55.09.93.6.84,1.14l-.9,5.98,3.75,2.96Z"/>
  <path class="cls-1" d="M21.89,33.47c0,.33.02.65.05.97h-2.51c-.29,0-.56-.13-.76-.35l-4.43-5.1c-.36-.42-.32-1.05.1-1.41.41-.36,1.04-.32,1.41.1l4.14,4.76h2.05c-.03.35-.05.69-.05,1.03Z"/>
  <path class="cls-1" d="M23.35,38.71l-2.54.9-.42,4.71c-.02.19-.09.36-.2.51l-1.83,2.46c-.19.26-.5.4-.8.4-.21,0-.42-.07-.6-.2-.44-.33-.53-.95-.2-1.4l1.66-2.23.46-5.06c.03-.39.29-.72.66-.86l2.94-1.05c.23.64.52,1.25.87,1.82Z"/>
  <path class="cls-1" d="M47.13,47.49c-.18.13-.38.2-.59.2-.31,0-.61-.14-.81-.4l-1.83-2.46c-.11-.15-.17-.32-.19-.51l-.42-4.71-2.62-.93c.34-.57.63-1.18.86-1.82l3.03,1.08c.37.14.63.47.66.86l.46,5.06,1.66,2.23c.33.45.24,1.07-.21,1.4Z"/>
  <path class="cls-5" d="M32,20.317c-5.586,0-10.114,7.565-10.114,13.151s4.528,10.114,10.114,10.114,10.114-4.528,10.114-10.114-4.528-13.151-10.114-13.151Z"/>
  <path class="cls-3" d="M40.28,26.67c-2.17,1.94-5.08,3.12-8.28,3.12s-6.11-1.18-8.28-3.12c1.82-3.5,4.85-6.35,8.28-6.35s6.46,2.85,8.28,6.35Z"/>
  <path class="cls-5" d="M27.807,21.776c1.279-.904,2.695-1.459,4.193-1.459s2.918.557,4.198,1.463l.005-.012c.12-.401.185-.825.185-1.265,0-2.423-1.964-4.387-4.388-4.387s-4.387,1.964-4.388,4.387c0,.44.065.864.185,1.265l.01.008Z"/>
</svg>