<?xml version="1.0" encoding="UTF-8"?>
<svg id="Flat" xmlns="http://www.w3.org/2000/svg" viewBox="0 0 64 64">
  <defs>
    <style>
      .cls-1 {
        fill: #894c3d;
      }

      .cls-2 {
        fill: #a26a55;
      }
    </style>
  </defs>
  <g>
    <path class="cls-1" d="M38.73,8.29l-2.12,2.54c-.971.102-1.656-.141-1.43-1.39l1.63-1.97-1.2-2.83c-.21-.51.03-1.1.54-1.31.5-.22,1.09.02,1.31.53l1.43,3.4c.14.34.08.74-.16,1.03Z"/>
    <path class="cls-1" d="M28.82,9.44c.171,1.016.085,1.829-1.43,1.39l-2.12-2.54c-.24-.29-.3-.69-.16-1.03l1.43-3.4c.22-.51.81-.75,1.31-.53.51.21.75.8.54,1.31l-1.2,2.83,1.63,1.97Z"/>
  </g>
  <g>
    <g>
      <path class="cls-1" d="M47.02,14.89l-9.78,8.6c-1.047.129-1.598-.26-1.12-1.68l9.17-8.06-1.45-9.57c-.09-.55.29-1.06.83-1.14.55-.08,1.06.29,1.14.84l1.54,10.11c.05.34-.07.68-.33.9Z"/>
      <path class="cls-1" d="M52.44,19.86l-6.85,7.88c-.19.22-.47.34-.76.34h-6.81c.03-.29-.639-.589-.639-.889,0-.38.669-.751.619-1.111h6.38l6.55-7.53c.36-.42.99-.47,1.41-.1.41.36.46.99.1,1.41Z"/>
      <path class="cls-1" d="M54.27,51.94c-.2.22-.48.34-.76.34-.23,0-.46-.08-.65-.24l-7.38-6.41c-.17-.15-.28-.35-.32-.57l-1.74-8.83-7.77-3.18c-.069-.685.209-1.301,1.31-1.63l7.72,3.16c.31.13.54.41.6.74l1.77,9.02,7.12,6.19c.41.36.46.99.1,1.41Z"/>
    </g>
    <g>
      <path class="cls-1" d="M27.89,21.81c.348,1.369-.331,1.604-1.13,1.68l-9.78-8.6c-.26-.22-.38-.56-.33-.9l1.54-10.11c.08-.55.59-.92,1.14-.84.54.08.92.59.83,1.14l-1.45,9.57,9.18,8.06Z"/>
      <path class="cls-1" d="M26.812,27.191c0,.3-.862.599-.832.889h-6.81c-.29,0-.57-.12-.76-.34l-6.85-7.88c-.36-.42-.31-1.05.1-1.41.42-.37,1.05-.32,1.41.1l6.55,7.53h6.38c-.05.36.812.731.812,1.111Z"/>
      <path class="cls-1" d="M28.35,33.05l-7.77,3.18-1.74,8.83c-.04.22-.15.42-.32.57l-7.38,6.41c-.19.16-.42.24-.65.24-.28,0-.56-.12-.76-.34-.36-.42-.31-1.05.1-1.41l7.12-6.19,1.77-9.02c.06-.33.29-.61.6-.74l7.72-3.16c.981.32,1.295.933,1.31,1.63Z"/>
    </g>
  </g>
  <circle class="cls-2" cx="32" cy="14.156" r="5.689"/>
  <ellipse class="cls-2" cx="32" cy="47.254" rx="8.748" ry="12.716"/>
  <ellipse class="cls-2" cx="32" cy="27.191" rx="6.074" ry="7.346"/>
  <path class="cls-1" d="M39.49,40.68h-14.98c1.53-3.68,4.31-6.14,7.49-6.14s5.96,2.46,7.49,6.14Z"/>
  <path class="cls-1" d="M23.25,47.25c0,2.41.46,4.66,1.26,6.58h14.98c.8-1.92,1.26-4.17,1.26-6.58h-17.5Z"/>
</svg>