<?xml version="1.0" encoding="UTF-8"?>
<svg id="Flat" xmlns="http://www.w3.org/2000/svg" viewBox="0 0 64 64">
  <defs>
    <style>
      .cls-1 {
        fill: #eeae65;
      }

      .cls-2 {
        fill: #a26a55;
      }

      .cls-3 {
        fill: #b8c3d5;
      }

      .cls-4 {
        fill: #d3dce5;
      }

      .cls-5 {
        fill: #d88852;
      }
    </style>
  </defs>
  <rect class="cls-2" x="10.738" y="4" width="42.524" height="56.001" rx="5.791" ry="5.791"/>
  <path class="cls-4" d="M31,24.238v21.953c0,.552.447,1,1,1s1-.448,1-1v-21.953h-2Z"/>
  <path class="cls-4" d="M45.581,56.186h-27.162c-2.238,0-4.059-1.82-4.059-4.058v-15.257c0-2.237,1.82-4.058,4.059-4.058h27.162c2.238,0,4.059,1.82,4.059,4.058v15.257c0,2.237-1.82,4.058-4.059,4.058ZM18.419,34.814c-1.135,0-2.059.923-2.059,2.058v15.257c0,1.135.924,2.058,2.059,2.058h27.162c1.135,0,2.059-.923,2.059-2.058v-15.257c0-1.135-.924-2.058-2.059-2.058h-27.162Z"/>
  <path class="cls-3" d="M32,30.404c-1.114,0-2.017.903-2.017,2.017v2.785c0,1.114.903,2.017,2.017,2.017s2.017-.903,2.017-2.017v-2.785c0-1.114-.903-2.017-2.017-2.017Z"/>
  <path class="cls-4" d="M36.035,30.404c-1.114,0-2.017.903-2.017,2.017v2.785c0,1.114.903,2.017,2.017,2.017s2.017-.903,2.017-2.017v-2.785c0-1.114-.903-2.017-2.017-2.017Z"/>
  <path class="cls-3" d="M23.931,30.404c-1.114,0-2.017.903-2.017,2.017v2.785c0,1.114.903,2.017,2.017,2.017s2.017-.903,2.017-2.017v-2.785c0-1.114-.903-2.017-2.017-2.017Z"/>
  <path class="cls-4" d="M27.965,30.404c-1.114,0-2.017.903-2.017,2.017v2.785c0,1.114.903,2.017,2.017,2.017s2.017-.903,2.017-2.017v-2.785c0-1.114-.903-2.017-2.017-2.017Z"/>
  <path class="cls-3" d="M40.069,30.404c-1.114,0-2.017.903-2.017,2.017v2.785c0,1.114.903,2.017,2.017,2.017s2.017-.903,2.017-2.017v-2.785c0-1.114-.903-2.017-2.017-2.017Z"/>
  <path class="cls-1" d="M37.69,24.215c0-2.088,1.692-3.78,3.78-3.78.008,0,.016.002.024.002v-10.34c0-.521-.422-.943-.943-.943h-17.102c-.521,0-.943.422-.943.943v1.912c1.552.165,2.765,1.463,2.765,3.058,0,1.595-1.213,2.893-2.765,3.058v5.168c0,.521.422.943.943.943h14.244c0-.008-.002-.015-.002-.023Z"/>
  <path class="cls-5" d="M30.232,16.444c-1.326,0-2.4,1.075-2.4,2.4,0,1.326,1.075,2.4,2.401,2.4s2.4-1.075,2.4-2.4c0-1.326-1.075-2.4-2.4-2.4Z"/>
  <path class="cls-5" d="M35.733,12.074c-1.047,0-1.895.848-1.895,1.895,0,1.047.849,1.895,1.895,1.895s1.895-.848,1.895-1.895c0-1.047-.849-1.895-1.895-1.895Z"/>
</svg>