<?xml version="1.0" encoding="UTF-8"?>
<svg id="Flat" xmlns="http://www.w3.org/2000/svg" viewBox="0 0 64 64">
  <defs>
    <style>
      .cls-1 {
        fill: #d85264;
      }

      .cls-2 {
        fill: #737e9b;
      }

      .cls-3 {
        fill: #d3dce5;
      }

      .cls-4 {
        fill: #536882;
      }
    </style>
  </defs>
  <circle class="cls-3" cx="32" cy="32" r="28"/>
  <path class="cls-2" d="M42.55,30.247c.253-.573.395-1.205.395-1.871,0-2.565-2.08-4.645-4.645-4.645-1.648,0-3.092.861-3.917,2.155-5.926-2.885-10.039-2.985-10.039-2.985-5.524,0-10.015,4.427-10.118,9.927-.106,5.671,4.711,10.313,10.383,10.313h23.456c.892,0,1.634-.689,1.688-1.579.163-2.654-.44-8.037-7.204-11.315Z"/>
  <path class="cls-4" d="M28.93,43.14c.02-.32.03-2.57-3.46-3.28-.39-.08-.7-.39-.78-.78-.08-.39.08-.79.4-1.02.12-.08,2.9-2.18,1.47-6.78-.16-.52.13-1.09.66-1.25.53-.16,1.09.13,1.25.66,1.18,3.78.07,6.31-.96,7.7,2.8,1.19,3.49,3.49,3.42,4.75h-2Z"/>
  <path class="cls-4" d="M43.09,34.538c-.969,0-1.754.785-1.754,1.754s.785,1.754,1.754,1.754,1.754-.785,1.754-1.754-.785-1.754-1.754-1.754Z"/>
  <path class="cls-4" d="M38.52,42.8v.34h-2v-.3c-.03-.71-.3-1.25-.8-1.61-.37-.25-.8-.31-1.1-.31h-2.37c-.56,0-1-.45-1-1s.44-1,1-1h2.37c.84,0,1.62.24,2.25.68.71.5,1.57,1.46,1.65,3.2Z"/>
  <path class="cls-4" d="M39.12,33.31c0,.55-.45,1-1,1-3.47,0-6.3-2.83-6.3-6.3,0-1.06.27-2.07.74-2.95.58.25,1.19.52,1.82.83-.36.62-.56,1.35-.56,2.12,0,2.37,1.93,4.3,4.3,4.3.55,0,1,.44,1,1Z"/>
  <path class="cls-1" d="M32,4c-15.464,0-28,12.536-28,28s12.536,28,28,28,28-12.536,28-28S47.464,4,32,4ZM8.675,32c0-12.882,10.443-23.325,23.325-23.325,5.634,0,10.801,1.998,14.833,5.323L14.001,46.836c-3.327-4.032-5.326-9.201-5.326-14.836ZM32,55.325c-5.615,0-10.765-1.985-14.79-5.29L50.033,17.206c3.306,4.026,5.292,9.177,5.292,14.794,0,12.882-10.443,23.325-23.325,23.325Z"/>
  <path class="cls-4" d="M16.393,26.777c.415-.528.88-1.014,1.39-1.45l-.156-.124c-.009-.006-.909-.664-1.491-1.567-.475-.738-.478-1.728-.007-2.521.363-.614.849-.951,1.481-1.029h6.116c.168,0,4.117-.033,5.026-2.928.165-.527-.128-1.088-.654-1.253-.531-.168-1.09.128-1.254.655-.462,1.47-3.095,1.526-3.118,1.526h-6.172c-.034,0-.068.002-.102.005-1.294.132-2.348.826-3.045,2.004-.853,1.439-.835,3.253.046,4.624.741,1.152,1.795,1.953,1.938,2.058Z"/>
</svg>