<?xml version="1.0" encoding="UTF-8"?>
<svg id="Flat" xmlns="http://www.w3.org/2000/svg" viewBox="0 0 64 64">
  <defs>
    <style>
      .cls-1 {
        fill: #737e9b;
      }

      .cls-2 {
        fill: #536882;
      }
    </style>
  </defs>
  <path class="cls-2" d="M7.773,26.469c1.068.589,2.059,1.012,1.404-1.441l-.147-.117c-.015-.011-1.519-1.103-2.496-2.622-.864-1.344-.873-3.14-.023-4.575.667-1.127,1.607-1.767,2.794-1.903h9.667c.247,0,6.061-.048,7.368-4.208.166-.527-.127-1.088-.654-1.254-.525-.163-1.088.127-1.254.654-.867,2.759-5.416,2.808-5.46,2.808h-9.721c-.034,0-.068.002-.102.005-1.849.189-3.356,1.185-4.359,2.878-1.233,2.082-1.208,4.702.062,6.677,1.106,1.719,2.677,2.918,2.921,3.098Z"/>
  <path class="cls-1" d="M48.615,32.389c.398-.902.622-1.897.622-2.946,0-4.041-3.275-7.316-7.316-7.316-2.596,0-4.87,1.356-6.169,3.394-9.333-4.543-15.81-4.7-15.81-4.7-8.701,0-15.773,6.972-15.935,15.634-.167,8.932,7.419,16.242,16.353,16.242h36.942c1.405,0,2.573-1.085,2.659-2.488.257-4.179-.693-12.658-11.346-17.82Z"/>
  <circle class="cls-2" cx="41.922" cy="29.443" r="3.382"/>
  <path class="cls-2" d="M29.74,52.7h-1.99c.01-.25.19-4.49-5.92-5.74-.39-.08-.7-.39-.78-.78s.08-.79.41-1.02c.19-.14,4.91-3.64,2.52-11.31-.16-.53.13-1.09.66-1.25.53-.17,1.09.13,1.25.65,1.98,6.34-.26,10.32-1.89,12.23,5.68,1.95,5.76,6.6,5.74,7.22Z"/>
  <path class="cls-2" d="M49.465,39.146c-1.526,0-2.763,1.237-2.763,2.763s1.237,2.763,2.763,2.763,2.763-1.237,2.763-2.763-1.237-2.763-2.763-2.763Z"/>
  <path class="cls-2" d="M41.42,52.21v.49h-2v-.45c-.05-1.2-.51-2.14-1.38-2.75-.5-.36-1.16-.55-1.88-.55h-3.51c-.55,0-1-.45-1-1s.45-1,1-1h3.51c1.14,0,2.19.31,3.04.91.96.68,2.13,1.99,2.22,4.35Z"/>
  <path class="cls-2" d="M35.75,25.52c-.68,1.18-1.03,2.52-1.03,3.92,0,4.56,3.25,8,7.56,8,.55,0,1,.45,1,1,0,.56-.45,1-1,1-5.45,0-9.56-4.3-9.56-10,0-1.69.42-3.32,1.2-4.77l1.83.85Z"/>
</svg>