<?xml version="1.0" encoding="UTF-8"?>
<svg id="Flat" xmlns="http://www.w3.org/2000/svg" viewBox="0 0 64 64">
  <defs>
    <style>
      .cls-1 {
        fill: #77b24c;
      }

      .cls-2 {
        fill: #eeae65;
      }

      .cls-3 {
        fill: #275132;
      }

      .cls-4 {
        fill: #50823f;
      }

      .cls-5 {
        fill: #c2623e;
      }

      .cls-6 {
        fill: #d88852;
      }
    </style>
  </defs>
  <path class="cls-1" d="M46.952,38.992c.773-.773,1.719-1.264,2.713-1.477.539-.116.858-.63.73-1.167-.426-1.785.055-3.741,1.448-5.135.504-.504,1.081-.886,1.698-1.151.494-.212.739-.752.55-1.255-.838-2.239-.362-4.857,1.439-6.658.97-.97,2.177-1.552,3.434-1.755.435-.07.76-.448.797-.887.503-5.993-.076-10.982-.386-13.048-.093-.622-.551-1.133-1.161-1.287C38.389.155,23.912,12.392,23.912,12.392,6.188,27.333,8.776,45.14,10.277,51.055c.306,1.205,1.327,2.101,2.566,2.207,15.378,1.305,25.82-1.604,32.883-6.536.409-.286.519-.836.282-1.275-1.118-2.071-.805-4.709.944-6.459Z"/>
  <path class="cls-5" d="M24.125,9.087c-.387,0-.755-.226-.918-.603-.22-.507.013-1.096.52-1.315,2.055-.89,2.673-3.374,2.679-3.399.129-.536.666-.868,1.203-.741.536.126.869.661.745,1.197-.033.142-.839,3.483-3.832,4.778-.129.056-.264.083-.397.083Z"/>
  <path class="cls-5" d="M27.646,17.762c-.043,0-.087-.002-.13-.008-2.097-.273-3.23-2.301-3.277-2.387-.266-.485-.088-1.092.396-1.357.486-.264,1.089-.088,1.355.392.018.031.711,1.229,1.783,1.369.548.071.934.573.863,1.121-.065.504-.496.871-.99.871Z"/>
  <path class="cls-5" d="M23.238,21.197c-.052,0-.104-.004-.156-.012-2.118-.331-3.128-2.18-3.17-2.259-.26-.487-.077-1.093.411-1.353.484-.262,1.087-.079,1.35.404.017.03.611,1.059,1.719,1.232.546.085.919.597.833,1.142-.077.494-.502.846-.986.846Z"/>
  <path class="cls-5" d="M19.993,25.371c-1.792,0-2.909-1.453-3.287-2.311-.222-.505.007-1.095.513-1.318.505-.221,1.091.006,1.315.507.016.033.535,1.122,1.458,1.122.552,0,1,.448,1,1s-.448,1-1,1Z"/>
  <path class="cls-5" d="M17.172,29.788c-1.291,0-2.348-.76-2.833-1.304-.368-.412-.333-1.044.08-1.412.41-.367,1.039-.332,1.407.074.043.046.813.852,1.718.587.529-.157,1.086.146,1.242.676.156.53-.146,1.086-.676,1.242-.322.095-.636.137-.937.137Z"/>
  <path class="cls-5" d="M15.015,34.886c-1.741,0-2.913-1.265-2.97-1.326-.371-.409-.341-1.042.067-1.413.408-.369,1.036-.341,1.407.062.041.044.847.871,1.871.634.533-.124,1.075.211,1.199.75.125.538-.211,1.075-.749,1.199-.287.066-.563.095-.826.095Z"/>
  <g>
    <path class="cls-4" d="M35.43,20.83l-.38,5.77-2.13,1.97.52-7.87c.03-.55.52-.97,1.06-.93.55.03.97.51.93,1.06Z"/>
    <path class="cls-4" d="M44.82,30.08c.03.56-.38,1.03-.94,1.07l-8.47.56,2-2.14,6.34-.42c.55-.04,1.03.38,1.07.93Z"/>
  </g>
  <g>
    <path class="cls-4" d="M20.14,30.92l-.9,10.24-2.19,2.02,1.1-12.44c.04-.55.53-.96,1.08-.9.55.04.96.53.91,1.08Z"/>
    <path class="cls-4" d="M34.75,45.36c.05.55-.36,1.03-.91,1.08l-13.31,1.16,2.05-2.18,11.09-.97c.54-.06,1.03.36,1.08.91Z"/>
  </g>
  <g>
    <path class="cls-4" d="M28.15,25.25l-.66,8.31-2.16,1.99.82-10.45c.05-.56.54-.97,1.08-.92.55.04.96.52.92,1.07Z"/>
    <path class="cls-4" d="M40.41,37.36c.04.55-.37,1.03-.92,1.07l-11.2.88,2.03-2.16,9.01-.71c.55-.04,1.04.37,1.08.92Z"/>
  </g>
  <path class="cls-3" d="M4.793,58.111c-1.034-1.034-.997-2.721.081-3.709L41.847,20.336c1.454-1.257,3.435.751,2.158,2.188L9.66,59.219c-.991,1.063-2.666,1.093-3.694.065l-1.172-1.172Z"/>
  <path class="cls-2" d="M10.252,27.818c-1.927,0-3.49,1.562-3.49,3.49s1.562,3.49,3.49,3.49,3.49-1.562,3.49-3.49-1.562-3.49-3.49-3.49Z"/>
  <circle class="cls-6" cx="12" cy="26.15" r="4.004"/>
  <path class="cls-2" d="M14.636,16.762c-2.211,0-4.004,1.793-4.004,4.004s1.793,4.004,4.004,4.004,4.004-1.793,4.004-4.004-1.793-4.004-4.004-4.004Z"/>
  <path class="cls-6" d="M18.137,12.293c-2.211,0-4.004,1.793-4.004,4.004s1.793,4.004,4.004,4.004,4.004-1.793,4.004-4.004-1.793-4.004-4.004-4.004Z"/>
  <circle class="cls-2" cx="23.053" cy="11.705" r="4.591" transform="translate(-2.073 5.61) rotate(-13.283)"/>
</svg>