<?xml version="1.0" encoding="UTF-8"?>
<svg id="Flat" xmlns="http://www.w3.org/2000/svg" viewBox="0 0 64 64">
  <defs>
    <style>
      .cls-1 {
        fill: #d85264;
      }

      .cls-2 {
        fill: #894c3d;
      }

      .cls-3 {
        fill: #a26a55;
      }

      .cls-4 {
        fill: #d3dce5;
      }
    </style>
  </defs>
  <circle class="cls-4" cx="32" cy="32" r="28"/>
  <g>
    <path class="cls-2" d="M36.71,16.55l-1.47,1.76c-.34-.58-.83-1.07-1.43-1.4l.97-1.17-.71-1.69c-.21-.51.03-1.09.54-1.31.51-.21,1.09.03,1.31.54l.94,2.24c.15.35.09.74-.15,1.03Z"/>
    <path class="cls-2" d="M30.19,16.91c-.6.33-1.09.82-1.43,1.4l-1.47-1.76c-.24-.29-.3-.68-.15-1.03l.94-2.24c.22-.51.8-.75,1.31-.54.51.22.75.8.54,1.31l-.71,1.69.97,1.17Z"/>
  </g>
  <path class="cls-2" d="M42.15,20.95l-6.54,5.75c-.27-.67-.66-1.24-1.13-1.68l5.94-5.21-.93-6.14c-.09-.55.29-1.05.83-1.14.55-.08,1.06.29,1.14.84l1.02,6.68c.05.34-.08.68-.33.9Z"/>
  <path class="cls-2" d="M45.85,32.07c-.18.31-.51.47-.85.47-.18,0-.36-.04-.52-.14l-4.29-2.65h-4.25c.04-.3.07-.61.07-.93,0-.37-.03-.73-.1-1.07h4.57c.18,0,.37.05.52.15l4.53,2.79c.47.29.61.91.32,1.38Z"/>
  <path class="cls-2" d="M46.97,45.39c-.2.23-.48.35-.76.35-.23,0-.46-.08-.65-.25l-4.88-4.23c-.16-.15-.28-.35-.32-.56l-1.11-5.66-5.13-2.1c.54-.4.99-.96,1.32-1.62l5.06,2.07c.32.13.54.41.61.74l1.15,5.84,4.61,4.01c.42.37.46,1,.1,1.41Z"/>
  <path class="cls-2" d="M29.52,25.02c-.47.44-.86,1.01-1.13,1.68l-6.54-5.75c-.25-.22-.38-.56-.33-.9l1.02-6.68c.08-.55.59-.92,1.14-.84.54.09.92.59.83,1.14l-.93,6.14,5.94,5.21Z"/>
  <path class="cls-2" d="M27.99,28.82c0,.32.03.63.07.93h-4.25l-4.29,2.65c-.16.1-.34.14-.52.14-.34,0-.67-.16-.85-.47-.29-.47-.15-1.09.32-1.38l4.53-2.79c.15-.1.34-.15.52-.15h4.57c-.07.34-.1.7-.1,1.07Z"/>
  <path class="cls-2" d="M29.88,32.94l-5.13,2.1-1.11,5.66c-.04.21-.16.41-.32.56l-4.88,4.23c-.19.17-.42.25-.65.25-.28,0-.56-.12-.76-.35-.36-.41-.32-1.04.1-1.41l4.61-4.01,1.15-5.84c.07-.33.29-.61.61-.74l5.06-2.07c.33.66.78,1.22,1.32,1.62Z"/>
  <path class="cls-3" d="M32,16.452c-2.076,0-3.759,1.683-3.759,3.759s1.683,3.759,3.759,3.759,3.759-1.683,3.759-3.759-1.683-3.759-3.759-3.759Z"/>
  <ellipse class="cls-3" cx="32" cy="42.078" rx="5.78" ry="8.401"/>
  <ellipse class="cls-3" cx="32" cy="28.823" rx="4.013" ry="4.853"/>
  <path class="cls-2" d="M36.94,37.73h-9.87c1-2.43,2.83-4.05,4.93-4.05s3.93,1.62,4.94,4.05Z"/>
  <path class="cls-2" d="M37.78,42.08c0,1.59-.3,3.07-.84,4.34h-9.88c-.54-1.27-.84-2.75-.84-4.34h11.56Z"/>
  <path class="cls-1" d="M32,4c-15.464,0-28,12.536-28,28s12.536,28,28,28,28-12.536,28-28S47.464,4,32,4ZM8.675,32c0-12.882,10.443-23.325,23.325-23.325,5.634,0,10.801,1.998,14.833,5.323L14.001,46.836c-3.327-4.032-5.326-9.201-5.326-14.836ZM32,55.325c-5.615,0-10.765-1.985-14.79-5.29L50.033,17.206c3.306,4.026,5.292,9.177,5.292,14.794,0,12.882-10.443,23.325-23.325,23.325Z"/>
</svg>