<?xml version="1.0" encoding="UTF-8"?>
<svg id="Flat" xmlns="http://www.w3.org/2000/svg" viewBox="0 0 64 64">
  <defs>
    <style>
      .cls-1 {
        fill: #737e9b;
      }

      .cls-2 {
        fill: #d3dce5;
      }

      .cls-3 {
        fill: #536882;
      }
    </style>
  </defs>
  <path class="cls-2" d="M32,14.164c-3.078,0-5.582-2.504-5.582-5.582s2.504-5.582,5.582-5.582,5.582,2.504,5.582,5.582-2.504,5.582-5.582,5.582ZM32,5c-1.976,0-3.582,1.606-3.582,3.582s1.606,3.582,3.582,3.582,3.582-1.607,3.582-3.582-1.606-3.582-3.582-3.582Z"/>
  <path class="cls-1" d="M32.129,9.681h-.258c-1.063,0-1.924.862-1.924,1.924v2.543c1.369,1.825,2.738,1.825,4.107,0v-2.543c0-1.063-.862-1.924-1.924-1.924Z"/>
  <rect class="cls-2" x="13.386" y="17.436" width="37.229" height="39.276"/>
  <path class="cls-3" d="M53.885,19.804l-1.312-3.953c-.337-1.016-1.288-1.702-2.359-1.702H13.785c-1.071,0-2.021.686-2.358,1.702l-1.312,3.953c-.15.453.187.92.664.92h42.443c.477,0,.814-.467.664-.919Z"/>
  <rect class="cls-3" x="10.355" y="53.425" width="43.289" height="6.575" rx="1.793" ry="1.793"/>
  <g>
    <rect class="cls-1" x="35.206" y="20.724" width="4.499" height="32.701"/>
    <rect class="cls-1" x="46.116" y="20.724" width="4.499" height="32.701"/>
    <rect class="cls-1" x="24.296" y="20.724" width="4.499" height="32.701"/>
    <rect class="cls-1" x="13.386" y="20.724" width="4.499" height="32.701"/>
  </g>
  <g>
    <path class="cls-3" d="M53.82,36.074H10.18c-.553,0-1,.447-1,1s.447,1,1,1h43.641c.553,0,1-.447,1-1s-.447-1-1-1Z"/>
    <path class="cls-3" d="M10.18,29.347h43.641c.553,0,1-.448,1-1s-.447-1-1-1H10.18c-.553,0-1,.448-1,1s.447,1,1,1Z"/>
    <path class="cls-3" d="M53.82,44.803H10.18c-.553,0-1,.447-1,1s.447,1,1,1h43.641c.553,0,1-.447,1-1s-.447-1-1-1Z"/>
  </g>
</svg>