<?xml version="1.0" encoding="UTF-8"?>
<svg id="Flat" xmlns="http://www.w3.org/2000/svg" viewBox="0 0 64 64">
  <defs>
    <style>
      .cls-1 {
        fill: #d85264;
      }

      .cls-2 {
        fill: #894c3d;
      }

      .cls-3 {
        fill: #a26a55;
      }

      .cls-4 {
        fill: #702e24;
      }

      .cls-5 {
        fill: #d3dce5;
      }
    </style>
  </defs>
  <circle class="cls-5" cx="32" cy="32" r="28"/>
  <g>
    <path class="cls-3" d="M40.69,14.17c-4.37,1.25-6.03,5.05-6.4,6.05-.55-.52-1.14-.86-1.76-.98.65-1.58,2.73-5.59,7.61-6.99.53-.15,1.08.16,1.24.69.15.53-.16,1.08-.69,1.23Z"/>
    <path class="cls-3" d="M31.48,19.24c-.62.11-1.22.45-1.77.98-.37-1-2.03-4.8-6.4-6.05-.53-.15-.84-.7-.69-1.23.16-.53.71-.84,1.24-.69,4.89,1.4,6.98,5.42,7.62,6.99Z"/>
  </g>
  <g>
    <g>
      <path class="cls-3" d="M26.2,28.57c-.12.74-.22,1.52-.29,2.32l-4.46-3.52c-.28-.22-.43-.58-.37-.93l.97-6.42c.09-.54.6-.92,1.14-.84.55.09.92.6.84,1.14l-.89,5.84,3.06,2.41Z"/>
      <path class="cls-3" d="M25.82,35.8h-2.78c-.29,0-.57-.13-.76-.34l-4.34-5c-.37-.42-.32-1.05.1-1.42.41-.36,1.04-.31,1.41.1l4.04,4.66h2.28v.18c0,.62.02,1.22.05,1.82Z"/>
      <path class="cls-3" d="M26.34,40.15l-2.03.72-.41,4.6c-.02.19-.08.36-.19.51l-1.8,2.41c-.19.26-.49.4-.8.4-.21,0-.42-.06-.6-.2-.44-.33-.53-.95-.2-1.4l1.62-2.18.45-4.95c.04-.39.29-.72.66-.85l2.98-1.07c.09.7.19,1.37.32,2.01Z"/>
    </g>
    <g>
      <path class="cls-3" d="M42.55,27.37l-4.46,3.52c-.07-.8-.17-1.57-.29-2.31l3.06-2.42-.89-5.84c-.08-.54.29-1.05.84-1.14.55-.08,1.05.3,1.14.84l.97,6.42c.06.35-.09.71-.37.93Z"/>
      <path class="cls-3" d="M46.06,30.46l-4.34,5c-.19.21-.47.34-.76.34h-2.78c.03-.6.05-1.2.05-1.82v-.18h2.28l4.04-4.66c.37-.41,1-.46,1.41-.1.42.37.47,1,.1,1.42Z"/>
      <path class="cls-3" d="M43.49,48.59c-.18.14-.39.2-.6.2-.31,0-.61-.14-.8-.4l-1.8-2.41c-.11-.15-.17-.32-.19-.51l-.41-4.6-2.03-.72c.13-.64.23-1.31.32-2.01l2.98,1.07c.37.13.62.46.66.85l.45,4.95,1.62,2.18c.33.45.24,1.07-.2,1.4Z"/>
    </g>
  </g>
  <ellipse class="cls-4" cx="32" cy="33.981" rx="6.225" ry="14.806"/>
  <path class="cls-2" d="M37.44,26.74c-1.69.61-3.53.94-5.44.94s-3.75-.33-5.44-.94c1.07-4.51,3.11-7.56,5.44-7.56s4.37,3.05,5.44,7.56Z"/>
  <path class="cls-2" d="M32,27.68c-.337,0-.668-.023-1-.043v20.963c.33.13.66.19,1,.19s.67-.06,1-.19v-20.963c-.332.02-.663.043-1,.043Z"/>
  <path class="cls-1" d="M32,4c-15.464,0-28,12.536-28,28s12.536,28,28,28,28-12.536,28-28S47.464,4,32,4ZM8.675,32c0-12.882,10.443-23.325,23.325-23.325,5.634,0,10.801,1.998,14.833,5.323L14.001,46.836c-3.327-4.032-5.326-9.201-5.326-14.836ZM32,55.325c-5.615,0-10.765-1.985-14.79-5.29L50.033,17.206c3.306,4.026,5.292,9.177,5.292,14.794,0,12.882-10.443,23.325-23.325,23.325Z"/>
</svg>