<?xml version="1.0" encoding="UTF-8"?>
<svg id="Flat" xmlns="http://www.w3.org/2000/svg" viewBox="0 0 64 64">
  <defs>
    <style>
      .cls-1 {
        fill: #eeae65;
      }

      .cls-2 {
        fill: #e88490;
      }

      .cls-3 {
        fill: #d85264;
      }

      .cls-4 {
        fill: #d3dce5;
      }

      .cls-5 {
        fill: #d88852;
      }
    </style>
  </defs>
  <rect class="cls-5" x="4" y="50.7" width="56" height="9.3" rx="2.282" ry="2.282"/>
  <path class="cls-1" d="M53.053,47.385h-14.749c-1.321,0-2.505.989-2.574,2.308-.074,1.407,1.045,2.571,2.436,2.571h5.451c.785,0,1.422.637,1.422,1.422l.033,1.379c0,1.321.989,2.505,2.308,2.574,1.407.074,2.571-1.045,2.571-2.436l-.033-1.517c0-.786.637-1.422,1.422-1.422h1.574c1.321,0,2.505-.989,2.574-2.308.074-1.407-1.045-2.571-2.436-2.571Z"/>
  <path class="cls-3" d="M48.326,44.655l-6.67-7.939c-3.342-.293-4.543,1.866-4.942,4.942l7.939,6.669c1.014,1.014,2.658,1.014,3.672,0s1.014-2.658,0-3.672Z"/>
  <path class="cls-2" d="M42.78,33.365l-3.482-3.482c-5.985-.161-7.983,4.3-9.416,9.416l3.482,3.482c.615.615,1.613.615,2.229,0l7.188-7.187c.615-.615.615-1.613,0-2.229Z"/>
  <path class="cls-4" d="M41.181,22.233L23.589,4.64c-.855-.855-2.24-.855-3.095,0l-15.855,15.855c-.855.855-.855,2.24,0,3.095l17.592,17.593c1.592,1.592,4.174,1.593,5.767,0l13.183-13.183c1.592-1.592,1.592-4.174,0-5.766Z"/>
  <rect class="cls-3" x="10.35" y="16.106" width="26.799" height="15.288" transform="translate(-9.838 23.75) rotate(-45)"/>
  <path class="cls-3" d="M37.26,37.26c-.2.19-.45.29-.71.29s-.51-.1-.71-.29l-1.96-1.96,1.42-1.42,1.96,1.96c.39.4.39,1.03,0,1.42Z"/>
  <path class="cls-3" d="M34.82,39.7c-.2.19-.46.29-.71.29-.26,0-.51-.1-.71-.29l-1.96-1.96,1.42-1.41,1.96,1.96c.39.39.39,1.02,0,1.41Z"/>
  <path class="cls-3" d="M39.7,34.82c-.2.19-.45.29-.71.29s-.51-.1-.71-.29l-1.96-1.96,1.42-1.42,1.96,1.96c.39.39.39,1.03,0,1.42Z"/>
  <g>
    <path class="cls-4" d="M33.215,16.939l-2.655-2.655c-.924-.924-2.428-.924-3.354,0l-.754.755c-.449.448-.695,1.044-.695,1.678s.247,1.229.694,1.677l.993.993c.188.188.442.293.708.293s.52-.105.707-.293l.782-.782c.391-.391.391-1.023,0-1.414s-1.023-.391-1.414,0l-.075.075-.286-.287c-.095-.094-.108-.204-.108-.262s.014-.168.109-.263l.754-.756c.146-.145.382-.145.526,0l2.655,2.655c.094.095.108.205.108.263s-.014.168-.109.263l-.754.756c-.146.146-.382.144-.526,0-.391-.391-1.024-.391-1.415,0-.39.391-.39,1.024,0,1.414.462.462,1.069.693,1.676.693s1.215-.231,1.678-.693l.754-.756c.448-.447.695-1.043.695-1.677s-.247-1.229-.695-1.677Z"/>
    <path class="cls-4" d="M24.894,18.011c-.391-.391-1.023-.391-1.414,0l-1.648,1.648c-.391.391-.391,1.023,0,1.414s1.023.391,1.414,0l.941-.941,3.888,3.888c.195.195.451.293.707.293s.512-.098.707-.293c.391-.391.391-1.023,0-1.414l-4.595-4.595Z"/>
    <path class="cls-4" d="M16.759,26.146c-.391-.391-1.023-.391-1.414,0l-2.031,2.031c-.391.391-.391,1.023,0,1.414s1.023.391,1.414,0l1.324-1.324.884.884-1.324,1.324c-.391.391-.391,1.023,0,1.414.195.195.451.293.707.293s.512-.098.707-.293l1.324-1.324.883.883-1.324,1.324c-.391.391-.391,1.023,0,1.414.195.195.451.293.707.293s.512-.098.707-.293l2.031-2.031c.391-.391.391-1.023,0-1.414l-4.595-4.595Z"/>
    <path class="cls-4" d="M22.449,22.396c-.896-.896-2.458-.896-3.354,0l-.755.755c-.448.447-.695,1.043-.695,1.677s.247,1.229.695,1.677l3.625,3.625c.195.195.451.293.707.293s.512-.098.707-.293c.391-.391.391-1.023,0-1.414l-3.625-3.625c-.094-.095-.108-.205-.108-.263s.014-.168.109-.263l.756-.755c.19-.19.335-.188.525,0l3.625,3.624c.391.391,1.023.391,1.414,0s.391-1.023,0-1.414l-3.625-3.624Z"/>
  </g>
</svg>