<?xml version="1.0" encoding="UTF-8"?>
<svg id="Flat" xmlns="http://www.w3.org/2000/svg" viewBox="0 0 64 64">
  <defs>
    <style>
      .cls-1 {
        fill: #9eabc4;
      }

      .cls-2 {
        fill: #737e9b;
      }

      .cls-3 {
        fill: #536882;
      }
    </style>
  </defs>
  <g>
    <path class="cls-1" d="M41.73,9.76l-3.26,3.9c-.83-.11-1.551-.382-1.18-1.7l2.51-3.02-1.91-4.54c-.21-.51.02-1.1.53-1.31.51-.21,1.1.02,1.31.53l2.15,5.11c.15.34.09.74-.15,1.03Z"/>
    <path class="cls-1" d="M26.71,11.96c.399,1.05-.096,1.571-1.18,1.7l-3.26-3.9c-.24-.29-.3-.69-.15-1.03l2.15-5.11c.21-.51.8-.74,1.31-.53.51.21.74.8.53,1.31l-1.91,4.54,2.51,3.02Z"/>
  </g>
  <path class="cls-3" d="M25.086,18.951c2.107-1.489,4.446.716,6.914.716s4.811-2.204,6.918-.713l.002-.005c.198-.66.305-1.359.305-2.083,0-3.991-3.235-7.226-7.226-7.226s-7.226,3.235-7.226,7.226c0,.724.106,1.423.305,2.083l.008.002Z"/>
  <path class="cls-1" d="M54.95,25.13l-7.56,5.96c-.85-.084-1.173-.678-.74-1.97l6.61-5.2-1.55-10.21c-.09-.55.29-1.06.83-1.14.55-.09,1.06.29,1.14.84l1.64,10.78c.06.36-.09.72-.37.94Z"/>
  <path class="cls-1" d="M60.76,30.4l-7.3,8.41c-.19.22-.47.34-.76.34h-4.07c.02-.31-.56-.545-.56-.855,0-.35.58-.785.55-1.145h3.63l7-8.06c.37-.42,1-.46,1.42-.1.41.36.46.99.09,1.41Z"/>
  <path class="cls-1" d="M17.34,29.14c.76,1.446.084,1.767-.74,1.96l-7.55-5.96c-.28-.22-.43-.58-.37-.93l1.64-10.79c.08-.54.59-.92,1.14-.84.54.09.92.6.83,1.14l-1.55,10.21,6.6,5.21Z"/>
  <path class="cls-1" d="M16.687,38.234c0,.32-1.337.616-1.317.936h-4.07c-.29,0-.57-.13-.76-.35l-7.3-8.4c-.37-.42-.32-1.05.09-1.42.42-.36,1.05-.31,1.42.1l7,8.07h3.62c-.02.35,1.317.715,1.317,1.064Z"/>
  <path class="cls-1" d="M17.36,46.18l-4.4,1.67-.73,8.19c-.02.18-.09.36-.2.5l-3.01,4.05c-.2.26-.5.4-.8.4-.21,0-.42-.06-.6-.2-.44-.33-.53-.95-.2-1.4l2.84-3.81.77-8.53c.03-.38.28-.71.64-.84l4.84-1.85c.841.138,1.132.728.85,1.82Z"/>
  <path class="cls-1" d="M56.54,60.79c-.18.14-.39.2-.6.2-.31,0-.61-.14-.8-.4l-3.02-4.05c-.11-.14-.17-.32-.19-.5l-.74-8.17-4.58-1.64c-.23-.888-.053-1.561.85-1.81l5.01,1.78c.37.13.62.46.66.85l.77,8.53,2.84,3.81c.33.45.24,1.07-.2,1.4Z"/>
  <path class="cls-3" d="M32,16.56c-9.199,0-16.657,12.459-16.657,21.659s7.458,16.657,16.657,16.657,16.657-7.458,16.657-16.657-7.458-21.659-16.657-21.659Z"/>
  <path class="cls-2" d="M32,16.56c-5.61,0-10.58,4.64-13.6,10.35,3.54,3.25,8.33,5.25,13.6,5.25s10.05-1.99,13.6-5.25c-3.02-5.71-7.99-10.35-13.6-10.35Z"/>
</svg>