<?xml version="1.0" encoding="UTF-8"?>
<svg id="Flat" xmlns="http://www.w3.org/2000/svg" viewBox="0 0 64 64">
  <defs>
    <style>
      .cls-1 {
        fill: #eeae65;
      }

      .cls-2 {
        fill: #d85264;
      }

      .cls-3 {
        fill: #894c3d;
      }

      .cls-4 {
        fill: #a26a55;
      }

      .cls-5 {
        fill: #d88852;
      }
    </style>
  </defs>
  <path class="cls-5" d="M20.857,13.538c-.511,0-.947-.39-.995-.907-.017-.161-.398-3.521-3.837-5.025-.506-.221-.737-.811-.515-1.316.221-.506.81-.74,1.317-.516,4.557,1.992,5.01,6.485,5.027,6.676.049.55-.357,1.035-.907,1.085-.03.003-.061.004-.09.004Z"/>
  <path class="cls-5" d="M27.503,13.538c-.03,0-.06,0-.09-.004-.55-.05-.956-.535-.907-1.085.017-.19.47-4.684,5.028-6.676.505-.225,1.095.01,1.316.516.222.506-.009,1.096-.516,1.316-3.484,1.523-3.833,4.987-3.836,5.021-.047.521-.483.911-.995.911Z"/>
  <circle class="cls-5" cx="39.907" cy="45.9" r="7.504"/>
  <circle class="cls-1" cx="32.997" cy="45.282" r="8.059" transform="translate(-21.466 58.439) rotate(-67.5)"/>
  <circle class="cls-5" cx="27.628" cy="41.749" r="8.059"/>
  <circle class="cls-1" cx="24.938" cy="36.074" r="8.059"/>
  <circle class="cls-5" cx="24.219" cy="29.164" r="8.059"/>
  <circle class="cls-1" cx="24.219" cy="20.28" r="9.051"/>
  <path class="cls-3" d="M58.298,47.128c-13.691,7.435-22.767-.306-29.298,12.846h29.274c.953,0,1.726-.773,1.726-1.726v-10.12c0-.872-.935-1.417-1.702-1Z"/>
  <path class="cls-4" d="M5.562,49.994c-.915.203-1.562,1.011-1.562,1.948v6.243c0,.988.801,1.788,1.788,1.788h41.212c-8.244-16.185-34.719-11.472-41.438-9.98Z"/>
  <path class="cls-2" d="M16.922,4.026c-1.336,0-2.42,1.083-2.42,2.42s1.083,2.42,2.42,2.42,2.42-1.083,2.42-2.42-1.083-2.42-2.42-2.42Z"/>
  <path class="cls-2" d="M31.439,4.026c-1.336,0-2.42,1.083-2.42,2.42s1.083,2.42,2.42,2.42,2.42-1.083,2.42-2.42-1.083-2.42-2.42-2.42Z"/>
  <path class="cls-5" d="M27.283,20.146c-.552,0-1-.447-1-1v-1.474c0-.553.448-1,1-1s1,.447,1,1v1.474c0,.553-.448,1-1,1Z"/>
  <path class="cls-5" d="M21.156,20.146c-.552,0-1-.447-1-1v-1.474c0-.553.448-1,1-1s1,.447,1,1v1.474c0,.553-.448,1-1,1Z"/>
</svg>