<?xml version="1.0" encoding="UTF-8"?>
<svg id="Flat" xmlns="http://www.w3.org/2000/svg" viewBox="0 0 64 64">
  <defs>
    <style>
      .cls-1 {
        fill: #9eabc4;
      }

      .cls-2 {
        fill: #d85264;
      }

      .cls-3 {
        fill: #737e9b;
      }

      .cls-4 {
        fill: #d3dce5;
      }

      .cls-5 {
        fill: #536882;
      }
    </style>
  </defs>
  <circle class="cls-4" cx="32" cy="32" r="28"/>
  <g>
    <path class="cls-1" d="M50.69,29.54c0,1.34-1.53,2.43-6.16,2.43-3.08,0-7.15-.48-9.52-1.2.48-.74.77-1.67.79-2.67,2.42-.59,5.97-.98,8.73-.98,4.63,0,6.16,1.09,6.16,2.42Z"/>
    <path class="cls-1" d="M28.99,30.77c-2.37.72-6.44,1.2-9.52,1.2-4.63,0-6.16-1.09-6.16-2.43,0-1.33,1.53-2.42,6.16-2.42,2.76,0,6.31.39,8.73.98.02,1,.31,1.93.79,2.67Z"/>
  </g>
  <g>
    <path class="cls-1" d="M41.67,20.87l-6.13,5.39c-.23-.68-.58-1.28-1.03-1.75l5.39-4.75-.83-3.68c-.12-.54.22-1.07.76-1.2.53-.12,1.07.22,1.19.76l.97,4.26c.08.36-.04.73-.32.97Z"/>
    <path class="cls-1" d="M29.49,24.51c-.45.47-.8,1.07-1.03,1.75l-6.13-5.39c-.27-.24-.4-.61-.32-.97l.97-4.26c.12-.54.66-.88,1.19-.76.54.13.88.66.76,1.2l-.83,3.68,5.39,4.75Z"/>
  </g>
  <path class="cls-1" d="M45,40.28c-.19.16-.42.24-.65.24-.28,0-.56-.11-.76-.34l-4-4.6h-3.75c-.73-1.15-1.99-1.93-3.44-2h7.65c.29,0,.57.12.76.34l4.29,4.95c.36.41.32,1.04-.1,1.41Z"/>
  <path class="cls-1" d="M45.37,48.21c-.18.33-.52.51-.87.51-.17,0-.34-.04-.49-.12l-3.63-2.02c-.25-.15-.43-.4-.49-.68l-1.05-5.35-2.3-.94v-1.67c0-.17-.01-.34-.03-.5l3.58,1.46c.32.13.54.41.61.74l1.06,5.42,3.22,1.79c.49.27.66.88.39,1.36Z"/>
  <path class="cls-1" d="M31.07,33.64c-1.22.21-2.27.93-2.91,1.94h-3.76l-3.99,4.6c-.2.23-.48.34-.76.34-.23,0-.46-.08-.65-.24-.42-.37-.46-1-.1-1.41l4.29-4.95c.19-.22.47-.34.76-.34h6.79c.12,0,.23.02.33.06Z"/>
  <path class="cls-1" d="M27.49,37.44c-.02.16-.03.33-.03.5v1.67l-2.3.94-1.05,5.35c-.06.28-.24.53-.49.68l-3.63,2.02c-.15.08-.32.12-.48.12-.36,0-.7-.18-.88-.51-.27-.48-.09-1.09.39-1.36l3.22-1.79,1.06-5.42c.07-.33.29-.61.61-.74l3.58-1.46Z"/>
  <rect class="cls-5" x="27.457" y="33.574" width="9.085" height="16.15" rx="4.365" ry="4.365"/>
  <path class="cls-5" d="M32,16.219c-1.971,0-3.569,1.598-3.569,3.569s1.598,3.569,3.569,3.569,3.569-1.598,3.569-3.569-1.598-3.569-3.569-3.569Z"/>
  <ellipse class="cls-5" cx="32" cy="27.966" rx="3.81" ry="4.609"/>
  <path class="cls-3" d="M36.51,37.43h-9.02c.25-2.17,2.09-3.86,4.33-3.86h.36c2.24,0,4.08,1.69,4.33,3.86Z"/>
  <path class="cls-3" d="M36.54,41.55v3.81c0,.11,0,.22-.01.32h-9.06c-.01-.1-.01-.21-.01-.32v-3.81h9.08Z"/>
  <path class="cls-2" d="M32,4c-15.464,0-28,12.536-28,28s12.536,28,28,28,28-12.536,28-28S47.464,4,32,4ZM8.675,32c0-12.882,10.443-23.325,23.325-23.325,5.634,0,10.801,1.998,14.833,5.323L14.001,46.836c-3.327-4.032-5.326-9.201-5.326-14.836ZM32,55.325c-5.615,0-10.765-1.985-14.79-5.29L50.033,17.206c3.306,4.026,5.292,9.177,5.292,14.794,0,12.882-10.443,23.325-23.325,23.325Z"/>
  <path class="cls-1" d="M32,16.219c.35,0,.681.066,1,.16v-4.378c0-.553-.448-1-1-1s-1,.447-1,1v4.378c.319-.094.65-.16,1-.16Z"/>
</svg>