<?xml version="1.0" encoding="UTF-8"?>
<svg id="Flat" xmlns="http://www.w3.org/2000/svg" viewBox="0 0 64 64">
  <defs>
    <style>
      .cls-1 {
        fill: #eeae65;
      }

      .cls-2 {
        fill: #737e9b;
      }

      .cls-3 {
        fill: #d3dce5;
      }

      .cls-4 {
        fill: #536882;
      }
    </style>
  </defs>
  <g>
    <path class="cls-3" d="M52.586,30.612c.998.058,2.086.24.967-1.861l-3.243-3.243,3.781-3.782,1.168,1.168c.995-1.726,1.538-3.405-.197-4.968l-.971.972-3.788-3.788,2.313-2.313c-.213-.256.226-1.163-.012-1.402s-1.146.201-1.402-.012l-2.313,2.313-3.828-3.828.946-.946c-1.555-1.675-3.206-1.672-4.901-.182l1.127,1.128-3.782,3.782-3.203-3.203c-1.138-.709-1.674-.223-1.861.967l3.65,3.65-3.828,3.828-4.201-4.201c-.192.18-1.244-.549-1.432-.361-.289.289.3,1.488.029,1.787l4.19,4.19-3.789,3.789-3.577-3.577c-1.62.101-1.994.706-.944,1.884l3.107,3.107-3.782,3.782-.909-.909c-1.63,2.078-1.228,3.444.224,4.423l.685-.685,3.829,3.829-2.052,2.052c.213.256-.146,1.498.092,1.737s1.066-.536,1.322-.323l2.052-2.052,3.789,3.789-.71.71c.802,1.718,2.364,1.675,4.487.238l-.948-.948,3.781-3.782,3.146,3.146c1.21.713,1.944.579,1.884-.944l-3.616-3.617,3.789-3.79,4.229,4.229c.298-.271,1.093.474,1.382.185.188-.188-.137-1.395.044-1.587l-4.241-4.241,3.828-3.829,3.69,3.69ZM43.648,11.282l3.828,3.828-3.782,3.782-3.828-3.828,3.782-3.782ZM38.452,16.477l3.828,3.828-3.828,3.829-3.828-3.828,3.828-3.828ZM33.21,21.72l3.828,3.828-3.789,3.789-3.828-3.828,3.789-3.789ZM24.224,30.705l3.782-3.782,3.828,3.829-3.782,3.782-3.828-3.828ZM33.256,39.737l-3.789-3.789,3.782-3.782,3.789,3.789-3.781,3.782ZM38.451,34.541l-3.789-3.789,3.789-3.789,3.788,3.789-3.789,3.79ZM43.654,29.337l-3.788-3.788,3.828-3.829,3.788,3.788-3.828,3.829ZM45.108,20.306l3.782-3.782,3.788,3.788-3.781,3.782-3.788-3.788Z"/>
    <path class="cls-2" d="M16.004,43.485l-11.469,11.469c-.295.295-.295.773,0,1.069l3.443,3.443c.295.295.773.295,1.069,0l11.469-11.469c-.296-2.518-1.51-4.266-4.512-4.511Z"/>
    <path class="cls-4" d="M22.781,41.219c-1.141-1.141-3.234-1.249-3.955-2.643l-3.098,3.098c-.424.424-.424,1.111,0,1.535l5.063,5.063c.424.424,1.111.424,1.535,0l3.098-3.098c-1.394-.721-1.503-2.814-2.644-3.955Z"/>
    <path class="cls-2" d="M55.315,8.685c-7.408-7.408-20.963-5.864-30.276,3.449-9.313,9.313-10.857,22.868-3.449,30.276,7.408,7.408,20.963,5.864,30.276-3.449,9.313-9.313,10.857-22.868,3.449-30.276ZM48.773,35.57c-7.376,7.376-17.909,8.801-23.527,3.183-5.618-5.618-4.193-16.151,3.183-23.527,7.376-7.376,17.909-8.801,23.527-3.183,5.618,5.618,4.193,16.151-3.183,23.527Z"/>
  </g>
  <path class="cls-1" d="M12.317,4.634l-4.896,8.79c-.213.382.063.852.5.852h3.655s-1.825,6.659-1.825,6.659c-.116.425.402.733.719.427l9.971-9.59c.267-.257.085-.707-.285-.707h-4.521s3.775-6.283,3.775-6.283c.206-.344-.041-.781-.442-.781h-5.573c-.448,0-.86.242-1.078.634Z"/>
  <path class="cls-1" d="M47.538,34.086l-6.254,11.23c-.287.515.085,1.148.675,1.148h4.476s-2.216,8.085-2.216,8.085c-.164.6.567,1.035,1.015.603l11.902-11.447c.474-.456.151-1.258-.507-1.258h-5.117s4.466-7.435,4.466-7.435c.37-.617-.074-1.402-.793-1.402h-6.839c-.336,0-.645.182-.808.475Z"/>
</svg>