<?xml version="1.0" encoding="UTF-8"?>
<svg id="Flat" xmlns="http://www.w3.org/2000/svg" viewBox="0 0 64 64">
  <defs>
    <style>
      .cls-1 {
        fill: #9eabc4;
      }

      .cls-2 {
        fill: #d85264;
      }

      .cls-3 {
        fill: #737e9b;
      }

      .cls-4 {
        fill: #d3dce5;
      }

      .cls-5 {
        fill: #536882;
      }
    </style>
  </defs>
  <path class="cls-1" d="M38.549,4.021h-3.129c-.925,0-1.675.75-1.675,1.675v8.277h6.479V5.696c0-.925-.75-1.675-1.675-1.675Z"/>
  <path class="cls-5" d="M30.765,18.671h12.44c.304,0,.603.022.899.056v-5.682c0-1.144-.928-2.072-2.072-2.072h-10.094c-1.144,0-2.072.928-2.072,2.072v5.682c.295-.034.594-.056.899-.056Z"/>
  <rect class="cls-1" x="22.974" y="27.16" width="28.021" height="30.428"/>
  <rect class="cls-5" x="20.51" y="24.76" width="32.949" height="4.698" rx="2.072" ry="2.072"/>
  <rect class="cls-5" x="20.51" y="55.29" width="32.949" height="4.698" rx="2.072" ry="2.072"/>
  <path class="cls-1" d="M43.205,15.671h-12.44c-4.303,0-7.791,3.488-7.791,7.791v1.299c9.596,2.058,18.965,2.294,28.021,0v-1.299c0-4.303-3.488-7.791-7.791-7.791Z"/>
  <path class="cls-5" d="M40.22,6.5v2h-2.38c-.56,0-1-.45-1-1,0-.56.44-1,1-1h2.38Z"/>
  <path class="cls-5" d="M46.538,34.916c-4.119,0-7.458,3.339-7.458,7.458h0c0,4.119,3.339,7.458,7.458,7.458h4.458v-14.915h-4.458Z"/>
  <path class="cls-4" d="M46.345,6.578c-.496,0-.926-.368-.991-.872-.07-.548.316-1.049.864-1.12l12.227-1.574c.562-.061,1.05.317,1.12.864.07.548-.316,1.049-.864,1.12l-12.227,1.574c-.044.005-.087.008-.129.008Z"/>
  <path class="cls-4" d="M58.573,11.578c-.042,0-.085-.003-.129-.008l-12.227-1.574c-.548-.071-.935-.572-.864-1.12.071-.547.559-.924,1.12-.864l12.227,1.574c.548.071.935.572.864,1.12-.065.504-.495.872-.991.872Z"/>
  <g>
    <path class="cls-4" d="M19.902,31.056c-7.993,0-14.474,6.477-14.474,14.47s6.48,14.47,14.474,14.47,14.47-6.48,14.47-14.47-6.48-14.47-14.47-14.47Z"/>
    <g>
      <path class="cls-1" d="M23.64,36.771l-1.16,1.39c-.4-.54-.97-.95-1.63-1.15l.87-1.05-.48-1.14c-.21-.5.03-1.09.53-1.31.51-.21,1.1.03,1.31.54l.72,1.69c.14.35.08.75-.16,1.03Z"/>
      <path class="cls-1" d="M18.95,37.011c-.66.2-1.23.61-1.64,1.15l-1.16-1.39c-.23-.29-.29-.68-.15-1.03l.72-1.69c.21-.51.8-.75,1.3-.54.51.22.75.81.54,1.31l-.48,1.14.87,1.05Z"/>
    </g>
    <path class="cls-1" d="M29.77,50.291c-.13.07-.28.1-.43.1-.37,0-.73-.21-.9-.57l-.72-1.5-2.32-.27c.02-.17.03-.34.03-.51,0-.49-.06-1.01-.19-1.53l3.26.39c.35.04.64.25.79.56l.96,2c.23.49.02,1.09-.48,1.33Z"/>
    <g>
      <path class="cls-1" d="M29.38,39.551l-.86,3.52c-.09.35-.36.63-.7.73l-3.01.85c-.25-.63-.58-1.24-.97-1.8l2.87-.82.72-2.95c.13-.54.67-.87,1.21-.74.54.14.87.68.74,1.21Z"/>
      <path class="cls-1" d="M15.96,42.851c-.39.56-.72,1.17-.97,1.8l-3.01-.85c-.34-.1-.61-.38-.7-.73l-.86-3.52c-.13-.53.2-1.07.74-1.21.53-.13,1.08.2,1.21.74l.72,2.95,2.87.82Z"/>
    </g>
    <path class="cls-1" d="M14.37,47.541c0,.17.01.34.03.51l-2.32.27-.72,1.5c-.17.36-.53.57-.9.57-.15,0-.3-.03-.44-.1-.49-.24-.7-.84-.47-1.33l.96-2c.15-.31.44-.52.79-.56l3.26-.39c-.13.52-.19,1.04-.19,1.53Z"/>
    <path class="cls-1" d="M16.18,51.631l-.63.84-.22,3.44c-.03.53-.47.94-.99.94-.03,0-.05-.01-.07-.01-.55-.03-.97-.51-.93-1.06l.23-3.73c.01-.19.08-.38.2-.53l1.16-1.56c.3.64.73,1.21,1.25,1.67Z"/>
    <path class="cls-1" d="M26.46,55.781c.04.55-.38,1.03-.93,1.06-.02,0-.04.01-.07.01-.52,0-.96-.41-.99-.94l-.22-3.44-.63-.84c.52-.46.95-1.03,1.25-1.67l1.16,1.56c.12.15.19.34.2.53l.23,3.73Z"/>
    <path class="cls-5" d="M19.9,40.352c-3.055,0-5.532,4.138-5.532,7.194s2.477,5.533,5.532,5.533,5.532-2.477,5.532-5.533-2.477-7.194-5.532-7.194Z"/>
    <path class="cls-3" d="M17.041,41.608c.835-.763,1.811-1.256,2.859-1.256s2.025.494,2.86,1.257l.004-.006c.236-.449.369-.96.369-1.502,0-1.786-1.448-3.233-3.233-3.233s-3.233,1.448-3.233,3.233c0,.542.133,1.053.369,1.502l.005.005Z"/>
    <path class="cls-2" d="M19.902,30.056c-8.532,0-15.474,6.939-15.474,15.47s6.941,15.471,15.474,15.471,15.47-6.94,15.47-15.471-6.939-15.47-15.47-15.47ZM19.902,32.056c3.354,0,6.418,1.24,8.778,3.276l-18.974,18.975c-2.037-2.361-3.278-5.426-3.278-8.781,0-7.427,6.044-13.47,13.474-13.47ZM19.902,58.996c-3.355,0-6.421-1.24-8.782-3.276l18.974-18.975c2.036,2.361,3.277,5.426,3.277,8.78,0,7.428-6.043,13.471-13.47,13.471Z"/>
  </g>
</svg>