<?xml version="1.0" encoding="UTF-8"?><svg id="Gyph" xmlns="http://www.w3.org/2000/svg" viewBox="0 0 64 64"><defs><style>.cls-1{stroke-width:0px;}</style></defs><path class="cls-1" d="M44.45,12.48c1.51.82,2.75,2.06,3.57,3.57l1.02,1.87,1.02-1.87c.82-1.51,2.06-2.75,3.57-3.57l1.87-1.02-1.87-1.02c-1.51-.82-2.75-2.06-3.57-3.57l-1.02-1.87-1.02,1.87c-.82,1.51-2.06,2.75-3.57,3.57l-1.87,1.02,1.87,1.02Z"/><path class="cls-1" d="M56.12,33.15c0-.55.44-1,1-1h1.81c-.15-3.98-1.2-7.72-2.95-11.04l-1.58.91c-.16.09-.33.13-.5.13-.34,0-.68-.18-.87-.5-.27-.47-.11-1.09.37-1.36l1.57-.91h.01c-.74-1.18-1.59-2.29-2.51-3.33-.24.3-.47.62-.66.97l-1.02,1.86c-.35.64-1.02,1.04-1.75,1.04s-1.41-.4-1.76-1.04l-1.02-1.86c-.64-1.18-1.6-2.14-2.77-2.78l-1.87-1.02c-.64-.35-1.04-1.03-1.04-1.76s.4-1.4,1.04-1.75l1.03-.57c-2.66-1.05-5.53-1.69-8.53-1.8v1.81c0,.56-.45,1-1,1s-1-.44-1-1v-1.81c-3.98.15-7.73,1.2-11.05,2.95l.91,1.58c.28.48.11,1.09-.36,1.37-.16.09-.33.13-.5.13-.35,0-.69-.18-.87-.5l-.91-1.58c-3.27,2.06-6.04,4.83-8.1,8.1.01,0,.01-.01.02-.01l1.57.91c.48.27.64.89.37,1.36-.19.32-.52.5-.87.5-.17,0-.34-.04-.5-.13l-1.58-.91c-.87,1.66-1.57,3.43-2.07,5.27-.5,1.85-.8,3.78-.88,5.77h1.82c.55,0,1,.45,1,1s-.45,1-1,1h-1.82c.12,3.29.86,6.42,2.1,9.28l.35-.62c.35-.64,1.02-1.04,1.75-1.04s1.4.4,1.75,1.04l1.03,1.87c.64,1.17,1.6,2.13,2.77,2.77l1.87,1.03c.64.35,1.04,1.02,1.04,1.75s-.4,1.41-1.04,1.76l-1.87,1.02c-.09.05-.17.11-.26.17.81.66,1.66,1.28,2.55,1.84l.91-1.58c.28-.48.89-.65,1.37-.37.47.28.64.89.36,1.37l-.91,1.58c1.66.88,3.43,1.58,5.28,2.08,1.85.5,3.78.8,5.77.87v-1.82c0-.55.44-1,1-1s1,.45,1,1v1.82c3.98-.15,7.71-1.2,11.04-2.95l-.91-1.58c-.28-.48-.11-1.09.37-1.37.47-.28,1.09-.11,1.36.37l.91,1.58c3.26-2.06,6.03-4.83,8.09-8.09l-1.58-.91c-.48-.28-.64-.89-.37-1.37.28-.47.89-.64,1.37-.36l1.58.91c.88-1.66,1.58-3.43,2.08-5.28s.8-3.78.87-5.77h-1.81c-.56,0-1-.44-1-1ZM36.6,15.19c5.4,1.04,9.95,4.44,12.53,9.1l-2.28.74c-5.06,1.64-10.25-2.13-10.25-7.45v-2.39ZM33.12,27.92c2.88,0,5.23,2.34,5.23,5.23s-2.35,5.23-5.23,5.23-5.24-2.34-5.24-5.23,2.35-5.23,5.24-5.23ZM29.63,15.19v2.39c0,5.32-5.19,9.09-10.25,7.45l-2.28-.74c2.58-4.66,7.13-8.07,12.53-9.1ZM21.15,43.7l-1.42,1.94c-3.05-3.28-4.92-7.67-4.92-12.49,0-.76.05-1.51.14-2.24l2.28.74c5.06,1.65,7.04,7.75,3.92,12.05ZM33.12,51.46c-2.77,0-5.4-.62-7.75-1.72l1.42-1.94c3.12-4.3,9.53-4.3,12.65,0l1.42,1.94c-2.35,1.11-4.97,1.72-7.74,1.72ZM46.5,45.64l-1.41-1.94c-3.13-4.3-1.15-10.4,3.91-12.05l2.28-.74c.09.73.14,1.48.14,2.24,0,4.82-1.87,9.21-4.92,12.49Z"/><path class="cls-1" d="M16.09,49.21c-1.51-.82-2.75-2.06-3.57-3.57l-1.02-1.87-1.02,1.87c-.82,1.51-2.06,2.75-3.57,3.57l-1.87,1.02,1.87,1.02c1.51.82,2.75,2.06,3.57,3.57l1.02,1.87,1.02-1.87c.82-1.51,2.06-2.75,3.57-3.57l1.87-1.02-1.87-1.02Z"/></svg>