<?xml version="1.0" encoding="UTF-8"?><svg id="Gyph" xmlns="http://www.w3.org/2000/svg" viewBox="0 0 64 64"><defs><style>.cls-1{stroke-width:0px;}</style></defs><path class="cls-1" d="M50,5c0-.55-.45-1-1-1h-2c-.55,0-1,.45-1,1v1h4v-1Z"/><rect class="cls-1" x="46" y="14" width="4" height="1"/><rect class="cls-1" x="46" y="39" width="4" height="4"/><path class="cls-1" d="M13,41v2h6v-2c0-.55-.45-1-1-1h-4c-.55,0-1,.45-1,1Z"/><rect class="cls-1" x="11" y="45" width="10" height="6" rx="1" ry="1"/><path class="cls-1" d="M19,56h-1v-3h-4v3h-1c-.55,0-1,.45-1,1v2c0,.55.45,1,1,1h6c.55,0,1-.45,1-1v-2c0-.55-.45-1-1-1Z"/><rect class="cls-1" x="27" y="45" width="10" height="6" rx="1" ry="1"/><path class="cls-1" d="M35,56h-1v-3h-4v3h-1c-.55,0-1,.45-1,1v2c0,.55.45,1,1,1h6c.55,0,1-.45,1-1v-2c0-.55-.45-1-1-1Z"/><rect class="cls-1" x="43" y="45" width="10" height="6" rx="1" ry="1"/><path class="cls-1" d="M51,56h-1v-3h-4v3h-1c-.55,0-1,.45-1,1v2c0,.55.45,1,1,1h6c.55,0,1-.45,1-1v-2c0-.55-.45-1-1-1Z"/><rect class="cls-1" x="44" y="17" width="8" height="20" rx="1" ry="1"/><rect class="cls-1" x="44" y="8" width="8" height="4" rx="1" ry="1"/><rect class="cls-1" x="14" y="18" width="4" height="20"/><rect class="cls-1" x="12" y="4" width="8" height="12" rx="1" ry="1"/><rect class="cls-1" x="30" y="18" width="4" height="25"/><rect class="cls-1" x="28" y="4" width="8" height="12" rx="1" ry="1"/></svg>