<?xml version="1.0" encoding="UTF-8"?><svg id="Gyph" xmlns="http://www.w3.org/2000/svg" viewBox="0 0 64 64"><defs><style>.cls-1{stroke-width:0px;}</style></defs><path class="cls-1" d="M52.21,22.92l-4.51,5.73c-.15.21-.29.35-.37.43l-12.92,12.91c-.75.74-1.73,1.15-2.78,1.15-1.27,0-2.47-.62-3.21-1.66-1.1-1.53-.88-3.74.51-5.13,0,0,12.78-12.79,12.79-12.8l4.69-5.99-5.96,4.72s-12.8,12.78-12.8,12.78c-.77.78-1.83,1.22-2.91,1.22-.81,0-1.58-.24-2.23-.7-.93-.67-1.53-1.72-1.63-2.87-.1-1.16.3-2.29,1.12-3.12l13.1-13.08c.04-.05.09-.09.14-.13l.18-.15,5.72-4.48-.99-.89c-.19-.19-.34-.41-.44-.65l-3.97,1.63-19.16,19.16c-.37.37-.37.99,0,1.37l15.05,15.05c.38.37,1,.37,1.37,0l19.16-19.16,1.64-3.96c-.24-.1-.46-.25-.65-.44l-.94-.94Z"/><path class="cls-1" d="M41.56,9.45l.98.98c.82.82.74,2.18-.17,2.89l-5.68,4.45c-.06.05-.12.1-.18.15l-13.09,13.08c-.82.83-.74,2.24.26,2.95.78.56,1.88.38,2.56-.3l12.76-12.75c.05-.06.11-.11.17-.16l6.33-4.95c.75-.59,1.81-.54,2.51.11.02.01.03.02.05.04.02.02.03.03.04.05.35.37.52.84.52,1.32,0,.42-.13.84-.41,1.19l-4.95,6.33c-.05.06-.1.12-.16.17l-12.75,12.76c-.68.68-.86,1.78-.3,2.56.71,1,2.12,1.08,2.95.26l12.92-12.92c.06-.06.11-.11.15-.18l4.61-5.85c.71-.91,2.06-1,2.88-.18l1,1,2.39-5.82-9.58-9.58-5.81,2.4Z"/><path class="cls-1" d="M15.24,37.82c-.39.39-.39,1.02,0,1.41l9.53,9.53c.39.39,1.02.39,1.41,0l1.98-1.98-10.94-10.94-1.98,1.98Z"/><path class="cls-1" d="M22.7,49.51l-1.99,1.99c-.39.39-1.02.39-1.41,0l-1.35-1.35-4.79,4.79.66.66c.39.39.39,1.03,0,1.42l-2.69,2.69c-.39.39-1.02.39-1.41,0l-5.43-5.43c-.39-.39-.39-1.02,0-1.41l2.69-2.69c.39-.39,1.03-.39,1.42,0l.66.66,4.79-4.79-1.35-1.35c-.39-.39-.39-1.02,0-1.41l1.99-1.99,8.21,8.21Z"/><path class="cls-1" d="M59.66,12.5l-8.16-8.16c-.39-.39-1.02-.39-1.42,0l-1.3,1.3,9.58,9.58,1.3-1.3c.39-.4.39-1.03,0-1.42Z"/></svg>