<?xml version="1.0" encoding="UTF-8"?><svg id="Gyph" xmlns="http://www.w3.org/2000/svg" viewBox="0 0 64 64"><defs><style>.cls-1{stroke-width:0px;}</style></defs><path class="cls-1" d="M39.34,13.93s0,0,0,0v-1.5c0-1.1-.9-2-2-2h-8.85c-1.1,0-2,.9-2,2v1.5h12.85Z"/><path class="cls-1" d="M44.96,19.45l-5.62-3.52h-12.85l-7.15,3.58c-1.24.62-2.03,1.89-2.03,3.28v33.54c0,2.03,1.65,3.67,3.67,3.67h16.84c.98,0,1.91-.39,2.6-1.08l5.19-5.19c.69-.69,1.08-1.62,1.08-2.6v-28.57c0-1.27-.65-2.44-1.73-3.11ZM33.84,27.87c0-2.03,1.64-3.67,3.67-3.67,1.01,0,1.93.41,2.6,1.07.66.67,1.07,1.59,1.07,2.6v14.69c0,2.03-1.64,3.67-3.67,3.67s-3.67-1.64-3.67-3.67v-14.69ZM42.1,50.76l-4.65,4.65h-15.54v-29.38h7.55c-.13.59-.2,1.2-.2,1.84v14.69c0,4.55,3.71,8.26,8.26,8.26,1.7,0,3.28-.51,4.59-1.4v1.33Z"/><path class="cls-1" d="M28.49,8.43h8.85c.06,0,.11.01.16.02v-2.44c0-1.1-.9-2-2-2h-5.18c-1.1,0-2,.9-2,2v2.44c.06,0,.11-.02.16-.02Z"/></svg>