<?xml version="1.0" encoding="UTF-8"?><svg id="Gyph" xmlns="http://www.w3.org/2000/svg" viewBox="0 0 64 64"><defs><style>.cls-1{stroke-width:0px;}</style></defs><rect class="cls-1" x="13" y="52" width="38" height="8" rx="2" ry="2"/><path class="cls-1" d="M49,9h-12.75c-.68,0-1.32.35-1.69.93l-1.97,3.14c-.37.58-1.01.93-1.69.93h-15.9c-1.1,0-2,.9-2,2v4c0,1.1.9,2,2,2h34c1.1,0,2-.9,2-2v-9c0-1.1-.9-2-2-2ZM46.41,16.41c-.36.37-.86.59-1.41.59h-6c-1.1,0-2-.9-2-2,0-.55.22-1.05.59-1.41.36-.37.86-.59,1.41-.59h6c1.1,0,2,.9,2,2,0,.55-.22,1.05-.59,1.41Z"/><path class="cls-1" d="M15,24v26h34v-26H15ZM42,45h-20v-16h20v16Z"/><path class="cls-1" d="M27,8v-2c0-1.1-.9-2-2-2h-5c-1.1,0-2,.9-2,2v2h9Z"/><path class="cls-1" d="M29,12v-1c0-.55-.45-1-1-1h-11c-.55,0-1,.45-1,1v1h13Z"/></svg>