<?xml version="1.0" encoding="UTF-8"?><svg id="Gyph" xmlns="http://www.w3.org/2000/svg" viewBox="0 0 64 64"><defs><style>.cls-1{stroke-width:0px;}</style></defs><path class="cls-1" d="M27,37v-2.97c-3.08,1.31-5.43,3.47-9.76,4.05-3.67.48-4.81,2.4-5.13,3.92h19.89c-2.76,0-5-2.24-5-5Z"/><path class="cls-1" d="M46.76,38.08c-4.33-.58-6.68-2.74-9.76-4.05v2.97c0,2.76-2.24,5-5,5h19.89c-.32-1.52-1.46-3.44-5.13-3.92Z"/><path class="cls-1" d="M32,40c1.66,0,3-1.34,3-3V7c0-1.66-1.34-3-3-3s-3,1.34-3,3v30c0,1.66,1.34,3,3,3Z"/><rect class="cls-1" x="33" y="52" width="5" height="8"/><rect class="cls-1" x="26" y="52" width="5" height="8"/><rect class="cls-1" x="19" y="52" width="5" height="8"/><rect class="cls-1" x="40" y="52" width="5" height="8"/><path class="cls-1" d="M47,52v8h4.07c1.14,0,2.04-1.02,1.92-2.2l-.57-5.8h-5.42Z"/><path class="cls-1" d="M11.01,57.8c-.12,1.18.78,2.2,1.92,2.2h4.07v-8h-5.42l-.57,5.8Z"/><rect class="cls-1" x="9" y="44" width="46" height="6" rx="1" ry="1"/></svg>