<?xml version="1.0" encoding="UTF-8"?><svg id="Gyph" xmlns="http://www.w3.org/2000/svg" viewBox="0 0 64 64"><defs><style>.cls-1{stroke-width:0px;}</style></defs><path class="cls-1" d="M16.42,18.13c.4.68.54,1.48.38,2.25-.35,1.7-.63,3.73-.67,6.02-.06,3.4.41,6.27.93,8.4h7.47v-15.87h8.4v-8.4h-13.58c-1.36,0-2.58.87-3.01,2.16l-.67,2c-.3.88-.19,1.84.28,2.64l.47.79Z"/><rect class="cls-1" x="40.4" y="5.87" width="4.67" height="17.73" rx="1" ry="1"/><path class="cls-1" d="M12.4,45.93h39.2c.99,0,1.8-.81,1.8-1.8s-.81-1.8-1.8-1.8h-28v-5.53h-5.6v5.53h-5.6c-.99,0-1.8.81-1.8,1.8s.81,1.8,1.8,1.8Z"/><path class="cls-1" d="M57.2,53.53H6.8c-.99,0-1.8.81-1.8,1.8s.81,1.8,1.8,1.8h50.4c.99,0,1.8-.81,1.8-1.8s-.81-1.8-1.8-1.8Z"/><path class="cls-1" d="M9.6,51.53h44.8c.99,0,1.8-.81,1.8-1.8s-.81-1.8-1.8-1.8H9.6c-.99,0-1.8.81-1.8,1.8s.81,1.8,1.8,1.8Z"/><path class="cls-1" d="M34.53,20.13l1.34,1c.52.39,1.15.6,1.8.6h.73V7.73h-.73c-.65,0-1.28.21-1.8.6l-1.34,1c.25.33.41.75.41,1.2v8.4c0,.45-.15.86-.41,1.2Z"/><path class="cls-1" d="M26.53,20.93v1.36c.9,2.72,2.59,4.23,4.01,5.04.75.43,1.64-.33,1.33-1.13-.74-1.94-.83-3.88-.75-5.27h-4.58Z"/></svg>