<?xml version="1.0" encoding="UTF-8"?><svg id="Gyph" xmlns="http://www.w3.org/2000/svg" viewBox="0 0 64 64"><defs><style>.cls-1{stroke-width:0px;}</style></defs><path class="cls-1" d="M24.31,16h1.69v4.01c.06-.01.13-.01.19-.01h11.62c.06,0,.13,0,.19.01v-4.01h1.69c.66,0,1.14-.63.96-1.26l-1.09-4c-.12-.44-.51-.74-.96-.74h-1.6v-5c0-.55-.45-1-1-1h-8c-.55,0-1,.45-1,1v5h-1.6c-.45,0-.85.3-.96.74l-1.09,4c-.17.64.31,1.26.96,1.26Z"/><path class="cls-1" d="M37.81,40h-11.62c-.06,0-.13,0-.19-.01v4.01h-2c-.55,0-1,.45-1,1v1h18v-1c0-.55-.45-1-1-1h-2v-4.01c-.06.01-.13.01-.19.01Z"/><path class="cls-1" d="M43,48h-22c-.55,0-1,.45-1,1s.45,1,1,1h22c.55,0,1-.45,1-1s-.45-1-1-1Z"/><path class="cls-1" d="M43,52h-22c-.55,0-1,.45-1,1s.45,1,1,1h22c.55,0,1-.45,1-1s-.45-1-1-1Z"/><path class="cls-1" d="M43,56h-22c-.55,0-1,.45-1,1s.45,1,1,1h2v1c0,.55.45,1,1,1h16c.55,0,1-.45,1-1v-1h2c.55,0,1-.45,1-1s-.45-1-1-1Z"/><path class="cls-1" d="M47.14,23.92c-.55-.07-1.05.3-1.13.85-.08.55.3,1.05.85,1.13,2.82.4,4.15.83,4.75,1.1-.6.27-1.93.7-4.76,1.1-1.1.17-2.36.31-3.85.44v-3.87c0-.41-.25-.78-.63-.93l-4.19-1.68c-.12-.05-.24-.07-.37-.07h-11.61c-.13,0-.25.02-.37.07l-4.19,1.68c-.38.15-.63.52-.63.93v3.87c-1.49-.13-2.75-.28-3.86-.45-2.82-.4-4.15-.83-4.75-1.1.6-.27,1.93-.7,4.75-1.1.55-.08.93-.58.85-1.13-.08-.55-.59-.93-1.13-.85-6.03.86-6.86,1.99-6.86,3.08s.83,2.22,6.85,3.08c1.17.18,2.49.33,4.06.47.39.04.82.06,1.23.09h0c2.88.22,6.1.35,9.44.36l-.29-.29c-.39-.39-.39-1.02,0-1.41s1.02-.39,1.41,0l1.68,1.68c2.71-.04,5.3-.16,7.65-.35h0c.35-.03.71-.05,1.05-.08,1.57-.14,2.89-.29,4.05-.47,6.03-.86,6.86-1.99,6.86-3.08s-.83-2.22-6.86-3.08Z"/><path class="cls-1" d="M31.59,33c-3.78-.01-7.43-.16-10.59-.44v2.76c0,.41.25.78.63.93l4.19,1.68c.12.05.24.07.37.07h11.61c.13,0,.25-.02.37-.07l4.19-1.68c.38-.15.63-.52.63-.93v-2.76c-2.59.23-5.51.37-8.56.42l-1.73,1.73c-.2.2-.45.29-.71.29s-.51-.1-.71-.29c-.39-.39-.39-1.02,0-1.41l.3-.3Z"/></svg>