<?xml version="1.0" encoding="UTF-8"?><svg id="Gyph" xmlns="http://www.w3.org/2000/svg" viewBox="0 0 64 64"><defs><style>.cls-1{stroke-width:0px;}</style></defs><path class="cls-1" d="M42,18.5v1c-1.1,0-2,.9-2,2v2h12v-2c0-1.1-.9-2-2-2v-1h-8Z"/><path class="cls-1" d="M35,20.5h-1.05c.02-.08.05-.16.05-.26v-5.21c0-3.05,2.48-5.53,5.53-5.53h.47v1c0,.55.45,1,1,1h1v3h-2c-.55,0-1,.45-1,1s.45,1,1,1h12c.55,0,1-.45,1-1s-.45-1-1-1h-2v-3h1c.55,0,1-.45,1-1v-4c0-.55-.45-1-1-1h-10c-.55,0-1,.45-1,1v1h-.47c-4.15,0-7.53,3.38-7.53,7.53v5.21c0,.09.03.17.05.26h-1.05v3h4v-3Z"/><path class="cls-1" d="M16,20.24v3.26h4v-3.26c3.45-.89,6-4.01,6-7.74,0-4.42-3.58-8-8-8s-8,3.58-8,8c0,3.73,2.55,6.85,6,7.74ZM17.29,11.79l2.83-2.83c.39-.39,1.02-.39,1.41,0,.39.39.39,1.02,0,1.41l-2.83,2.83c-.2.2-.45.29-.71.29s-.51-.1-.71-.29c-.39-.39-.39-1.02,0-1.41Z"/><path class="cls-1" d="M55.73,27.67c-.38-1.29-1.55-2.17-2.89-2.17H11.16c-1.31,0-2.49.85-2.87,2.1-1.08,3.63-1.29,6.78-1.29,8.9,0,3.54.6,6.55,1.27,8.83.38,1.29,1.55,2.17,2.89,2.17h1.09l.45,3.59c-1.6.84-2.7,2.49-2.7,4.41,0,2.76,2.24,5,5,5s5-2.24,5-5c0-1.92-1.1-3.58-2.7-4.41l.45-3.59h28.5l.45,3.59c-1.6.84-2.7,2.49-2.7,4.41,0,2.76,2.24,5,5,5s5-2.24,5-5c0-1.92-1.1-3.58-2.7-4.41l.45-3.59h1.09c1.31,0,2.49-.85,2.87-2.1,1.08-3.63,1.29-6.78,1.29-8.9,0-3.54-.6-6.55-1.27-8.83ZM15,58.5c-1.65,0-3-1.35-3-3s1.35-3,3-3,3,1.35,3,3-1.35,3-3,3ZM49,58.5c-1.65,0-3-1.35-3-3s1.35-3,3-3,3,1.35,3,3-1.35,3-3,3ZM44,39.5c0,.55-.45,1-1,1h-22c-.55,0-1-.45-1-1v-6c0-.55.45-1,1-1h22c.55,0,1,.45,1,1v6Z"/></svg>