<?xml version="1.0" encoding="UTF-8"?><svg id="Gyph" xmlns="http://www.w3.org/2000/svg" viewBox="0 0 64 64"><defs><style>.cls-1{stroke-width:0px;}</style></defs><path class="cls-1" d="M36,11c0-.55-.45-1-1-1h-12c-.55,0-1,.45-1,1v3h14v-3Z"/><path class="cls-1" d="M43.36,18.63l-7.36-2.63h-14l-4.48,4.48c-2.25,2.25-3.52,5.31-3.52,8.5v27.02c0,2.21,1.79,4,4,4h28c2.21,0,4-1.79,4-4v-27.95c0-4.23-2.66-8-6.64-9.42ZM45,55h-26v-26.02c0-1.85.75-3.66,2.05-4.96l3.02-3.02h6.06v7.33c0,5.92,2.45,11.66,6.71,15.76,1.46,1.4,3.36,2.17,5.37,2.17.99,0,1.93-.18,2.79-.52v9.26ZM45,38.49c0,2.44-2.93,3.69-4.7,2-1.65-1.59-2.94-3.48-3.82-5.55s-1.35-4.32-1.35-6.61v-7.33l6.55,2.34c1.99.71,3.32,2.6,3.32,4.71v10.44Z"/><path class="cls-1" d="M34,5c0-.55-.45-1-1-1h-8c-.55,0-1,.45-1,1v3h10v-3Z"/></svg>