<?xml version="1.0" encoding="UTF-8"?><svg id="Gyph" xmlns="http://www.w3.org/2000/svg" viewBox="0 0 64 64"><defs><style>.cls-1{stroke-width:0px;}</style></defs><path class="cls-1" d="M29.69,53.31h-8.33c-.91,0-1.7.64-1.87,1.54l-.65,3.24h13.38l-.65-3.24c-.18-.89-.96-1.54-1.87-1.54Z"/><path class="cls-1" d="M33.17,19.87v-6.52c0-2.2-1.79-4-4-4h-7.29c-2.21,0-4,1.8-4,4v6.52h-1.91l-3.82,4.77v8.87l7.08,2.55c.49.2.87.59,1.06,1.09l.94,2.5c.29.75,1,1.24,1.79,1.24h5.01c.79,0,1.5-.49,1.78-1.24l.95-2.5c.19-.5.57-.89,1.06-1.09l7.08-2.55v-8.87l-3.82-4.77h-1.91ZM25.52,31.33c-1.58,0-2.87-1.28-2.87-2.87s1.28-2.87,2.87-2.87,2.87,1.28,2.87,2.87-1.28,2.87-2.87,2.87ZM21.7,19.87v-6.69h7.65v6.69h-7.65Z"/><rect class="cls-1" x="4.5" y="44.71" width="5.64" height="15.29" rx="2" ry="2"/><rect class="cls-1" x="40.9" y="44.71" width="5.64" height="15.29" rx="2" ry="2"/><path class="cls-1" d="M56.41,41.47h.22v-9.47h-3.82v9.47h.22c-.62,0-1.09.55-.99,1.16l.62,3.73c.08.48.5.84.99.84h2.13c.49,0,.91-.35.99-.84l.62-3.73c.1-.61-.37-1.16-.99-1.16Z"/><path class="cls-1" d="M58.65,12.23l-10.92-7.91c-.88-.58-2.07-.35-2.65.53l-5.86,7.45c-.58.88-.34,2.06.53,2.65l10.19,6.19v6.95c0,1.05.86,1.91,1.91,1.91h5.74c1.05,0,1.91-.86,1.91-1.91v-14.27c0-.64-.32-1.23-.85-1.59ZM44.55,12.54l2.65-3.98,3.15,2.49.3,5.47-6.1-3.98Z"/><path class="cls-1" d="M31.68,40.36c-.56,1.51-2.03,2.53-3.65,2.53h-5.01c-1.63,0-3.06-.99-3.66-2.52l-.93-2.47-6.28-2.26v22.45h4.69c0-.13,0-.26.03-.39l.65-3.24c.36-1.82,1.98-3.14,3.83-3.14h8.33c1.86,0,3.47,1.32,3.84,3.15l.65,3.24c.03.13.03.26.03.39h4.69v-22.45l-6.29,2.26-.94,2.46Z"/></svg>