<?xml version="1.0" encoding="UTF-8"?><svg id="Gyph" xmlns="http://www.w3.org/2000/svg" viewBox="0 0 64 64"><defs><style>.cls-1{stroke-width:0px;}</style></defs><path class="cls-1" d="M13.35,13.02c-.55-.89-.58-2.02-.07-2.94l.78-1.4c.27-.48.09-1.09-.39-1.36-.48-.27-1.09-.1-1.36.39l-.78,1.4c-.86,1.55-.82,3.45.11,4.96.55.89.58,2.02.07,2.94l-.78,1.4c-.27.48-.09,1.09.39,1.36.15.09.32.13.48.13.35,0,.69-.19.88-.51l.78-1.4c.86-1.55.82-3.45-.11-4.96Z"/><path class="cls-1" d="M18.76,18.41c-.27.48-.09,1.09.39,1.36.15.09.32.13.48.13.35,0,.69-.19.88-.51l.78-1.4c.86-1.55.82-3.45-.11-4.96-.55-.89-.58-2.02-.07-2.94l.78-1.4c.27-.48.09-1.09-.39-1.36-.48-.27-1.09-.1-1.36.39l-.78,1.4c-.86,1.55-.82,3.45.11,4.96.55.89.58,2.02.07,2.94l-.78,1.4Z"/><path class="cls-1" d="M29,13.02c-.55-.89-.58-2.02-.07-2.93l.78-1.4c.27-.48.09-1.09-.39-1.36-.48-.27-1.09-.1-1.36.39l-.78,1.41c-.86,1.55-.82,3.45.11,4.96.55.89.58,2.02.07,2.93l-.78,1.4c-.27.48-.09,1.09.39,1.36.15.09.32.13.49.13.35,0,.69-.19.88-.51l.78-1.41c.86-1.55.82-3.45-.11-4.96Z"/><path class="cls-1" d="M10,27h-5v10h5c.55,0,1-.45,1-1v-8c0-.55-.45-1-1-1Z"/><path class="cls-1" d="M26.22,28.83l-7-1.56c-.62-.14-1.22.34-1.22.98v.75h-5v6h5v.75c0,.64.59,1.11,1.22.98l7-1.56c.46-.1.78-.51.78-.98v-4.4c0-.47-.33-.87-.78-.98Z"/><path class="cls-1" d="M57,7c-2.21,0-4,1.79-4,4-2.21,0-4,1.79-4,4,0,.83.25,1.6.69,2.24-1.32.46-2.33,1.58-2.61,2.98-.05.25-.08.51-.08.78,0,1.73,1.1,3.19,2.64,3.75-2.74,1.27-4.64,4.03-4.64,7.25s1.9,5.98,4.64,7.25c-1.54.56-2.64,2.02-2.64,3.75,0,.27.03.53.08.78.28,1.4,1.29,2.52,2.61,2.98-.44.64-.69,1.41-.69,2.24,0,2.21,1.79,4,4,4,0,2.21,1.79,4,4,4,1.2,0,2.27-.53,3-1.36V8.36c-.73-.83-1.8-1.36-3-1.36Z"/><path class="cls-1" d="M46.25,24.64c-.75-.97-1.18-2.17-1.23-3.44l-16.16,7.71c.09.28.14.58.14.89v4.4c0,.31-.05.61-.14.89l16.16,7.71c.04-1.27.48-2.47,1.23-3.44-2.03-1.87-3.24-4.53-3.24-7.36s1.22-5.49,3.25-7.36ZM41.94,36.34c-.15.4-.53.66-.94.66-.11,0-.23-.02-.34-.06l-4-1.47c-.52-.19-.78-.76-.59-1.28.19-.52.76-.79,1.28-.59l4,1.47c.52.19.78.76.59,1.28ZM41.34,28.94l-4,1.47c-.11.04-.23.06-.34.06-.41,0-.79-.25-.94-.66-.19-.52.08-1.09.59-1.28l4-1.47c.52-.19,1.09.08,1.28.59s-.08,1.09-.59,1.28Z"/></svg>