<?xml version="1.0" encoding="UTF-8"?><svg id="Gyph" xmlns="http://www.w3.org/2000/svg" viewBox="0 0 64 64"><defs><style>.cls-1{stroke-width:0px;}</style></defs><path class="cls-1" d="M29.76,20.97l-.11-.4.51.29c.16.09.33.13.5.13.35,0,.68-.18.87-.5.28-.48.11-1.09-.37-1.37l-.51-.29.4-.11c.53-.14.85-.69.71-1.22-.14-.53-.69-.85-1.22-.71l-2.33.62-2.61-1.5v-1.84l2.61-1.5,2.33.62c.09.02.17.03.26.03.44,0,.85-.29.96-.74.14-.53-.17-1.08-.71-1.22l-.4-.11.51-.29c.48-.28.64-.89.37-1.37-.28-.48-.89-.64-1.37-.37l-.51.29.11-.4c.14-.53-.17-1.08-.71-1.22-.53-.14-1.08.17-1.22.71l-.62,2.33-2.61,1.5-1.6-.92v-3.01l1.71-1.71c.39-.39.39-1.02,0-1.41s-1.02-.39-1.41,0l-.29.29v-.59c0-.55-.45-1-1-1s-1,.45-1,1v.59l-.29-.29c-.39-.39-1.02-.39-1.41,0s-.39,1.02,0,1.41l1.71,1.71v3.01l-1.6.92-2.61-1.5-.62-2.33c-.14-.53-.69-.85-1.22-.71-.53.14-.85.69-.71,1.22l.11.4-.51-.29c-.48-.28-1.09-.11-1.37.37s-.11,1.09.37,1.37l.51.29-.4.11c-.53.14-.85.69-.71,1.22.12.45.52.74.96.74.09,0,.17-.01.26-.03l2.33-.62,2.61,1.5v1.84l-2.61,1.5-2.33-.62c-.53-.14-1.08.17-1.22.71s.17,1.08.71,1.22l.4.11-.51.29c-.48.28-.64.89-.37,1.37.19.32.52.5.87.5.17,0,.34-.04.5-.13l.51-.29-.11.4c-.14.53.17,1.08.71,1.22.09.02.17.03.26.03.44,0,.85-.29.96-.74l.62-2.33,2.61-1.5,1.6.92v3.01l-1.71,1.71c-.39.39-.39,1.02,0,1.41s1.02.39,1.41,0l.29-.29v.59c0,.55.45,1,1,1s1-.45,1-1v-.59l.29.29c.2.2.45.29.71.29s.51-.1.71-.29c.39-.39.39-1.02,0-1.41l-1.71-1.71v-3.01l1.6-.92,2.61,1.5.62,2.33c.12.45.52.74.96.74.09,0,.17-.01.26-.03.53-.14.85-.69.71-1.22ZM23.6,15.92l-1.6.92-1.6-.92v-1.85l1.6-.92,1.6.92v1.85Z"/><path class="cls-1" d="M10,30h-5v10h5c.55,0,1-.45,1-1v-8c0-.55-.45-1-1-1Z"/><path class="cls-1" d="M26.22,31.83l-7-1.56c-.62-.14-1.22.34-1.22.98v.75h-5v6h5v.75c0,.64.59,1.11,1.22.98l7-1.56c.46-.1.78-.51.78-.98v-4.4c0-.47-.33-.87-.78-.98Z"/><path class="cls-1" d="M57,10c-2.21,0-4,1.79-4,4-2.21,0-4,1.79-4,4,0,.83.25,1.6.69,2.24-1.32.46-2.33,1.58-2.61,2.98-.05.25-.08.51-.08.78,0,1.73,1.1,3.19,2.64,3.75-2.74,1.27-4.64,4.03-4.64,7.25s1.9,5.98,4.64,7.25c-1.54.56-2.64,2.02-2.64,3.75,0,.27.03.53.08.78.28,1.4,1.29,2.52,2.61,2.98-.44.64-.69,1.41-.69,2.24,0,2.21,1.79,4,4,4,0,2.21,1.79,4,4,4,1.2,0,2.27-.53,3-1.36V11.36c-.73-.83-1.8-1.36-3-1.36Z"/><path class="cls-1" d="M46.25,27.64c-.75-.97-1.18-2.17-1.23-3.44l-16.16,7.71c.09.28.14.58.14.89v4.4c0,.31-.05.61-.14.89l16.16,7.71c.04-1.27.48-2.47,1.23-3.44-2.03-1.87-3.24-4.53-3.24-7.36s1.22-5.49,3.25-7.36ZM41.94,39.34c-.15.4-.53.66-.94.66-.11,0-.23-.02-.34-.06l-4-1.47c-.52-.19-.78-.76-.59-1.28.19-.52.76-.79,1.28-.59l4,1.47c.52.19.78.76.59,1.28ZM41.34,31.94l-4,1.47c-.11.04-.23.06-.34.06-.41,0-.79-.25-.94-.66-.19-.52.08-1.09.59-1.28l4-1.47c.52-.19,1.09.08,1.28.59s-.08,1.09-.59,1.28Z"/></svg>