<?xml version="1.0" encoding="UTF-8"?><svg id="Gyph" xmlns="http://www.w3.org/2000/svg" viewBox="0 0 64 64"><defs><style>.cls-1{stroke-width:0px;}</style></defs><path class="cls-1" d="M58,20h-3c-1.98,0-3.61,1.43-3.93,3.32l-1.22-3.51s0,0,0,0c-.14.17-.29.45-.46.74-.24.43-.53.92-.92,1.39l.72,2.06H14.81l3.27-9.41s.03-.08.04-.12c.24-.86,1.03-1.46,1.92-1.46h13.31c.08.57.05,1.16.11,1.73.06.75.33,1.55.99,1.91.75.41,1.67.07,2.49-.16.79-.21,1.64-.31,2.4-.02,1.18.46,1.81,1.72,2.34,2.87.29.64.6,1.31,1.16,1.73.48.35,1.08.48,1.66.51.69.03,1.4-.07,1.96-.46.88-.61,1.18-1.76,1.85-2.58.24-.29.53-.54.84-.74l-.76-2.19-.58-1.67c-.48-1.73-2.05-2.93-3.85-2.93h-2.96v-1c0-2.21-1.79-4-4-4-.38,0-.74.05-1.09.15-.39-1.8-1.99-3.15-3.91-3.15s-3.52,1.35-3.91,3.15c-.35-.1-.71-.15-1.09-.15-2.21,0-4,1.79-4,4v1h-2.96c-1.8,0-3.37,1.2-3.85,2.93l-3.26,9.39c-.33-1.88-1.96-3.32-3.93-3.32h-3c-1.1,0-2,.9-2,2v3c0,1.1.9,2,2,2h4.09c-.77.67-1.28,1.63-1.36,2.72l-.62,10.28h47.76l-.62-10.28c-.08-1.09-.59-2.04-1.36-2.72h4.09c1.1,0,2-.9,2-2v-3c0-1.1-.9-2-2-2ZM17,38c-2.21,0-4-1.79-4-4s1.79-4,4-4,4,1.79,4,4-1.79,4-4,4ZM38,37h-12c-.55,0-1-.45-1-1s.45-1,1-1h12c.55,0,1,.45,1,1s-.45,1-1,1ZM38,33h-12c-.55,0-1-.45-1-1s.45-1,1-1h12c.55,0,1,.45,1,1s-.45,1-1,1ZM47,38c-2.21,0-4-1.79-4-4s1.79-4,4-4,4,1.79,4,4-1.79,4-4,4Z"/><path class="cls-1" d="M56,42h-13v6h2v4c0,1.1.9,2,2,2h6c1.1,0,2-.9,2-2v-4h1c1.1,0,2-.9,2-2v-2c0-1.1-.9-2-2-2Z"/><path class="cls-1" d="M6,44v2c0,1.1.9,2,2,2h1v4c0,1.1.9,2,2,2h6c1.1,0,2-.9,2-2v-4h2v-6h-13c-1.1,0-2,.9-2,2Z"/><rect class="cls-1" x="23" y="42" width="18" height="6"/></svg>