<?xml version="1.0" encoding="UTF-8"?><svg id="Gyph" xmlns="http://www.w3.org/2000/svg" viewBox="0 0 64 64"><defs><style>.cls-1{stroke-width:0px;}</style></defs><path class="cls-1" d="M58,24h-3c-1.98,0-3.61,1.43-3.93,3.32l-1.52-4.39c-.6.48-1.11,1.06-1.52,1.71l1.17,3.36H14.81l3.27-9.41s.03-.08.04-.12c.24-.86,1.03-1.46,1.92-1.46h18.83l.58-.32c.78-.43,1.46-1.01,2.02-1.68h-21.43c-1.8,0-3.37,1.2-3.85,2.93l-3.26,9.39c-.33-1.88-1.96-3.32-3.93-3.32h-3c-1.1,0-2,.9-2,2v3c0,1.1.9,2,2,2h4.09c-.77.67-1.28,1.63-1.36,2.72l-.62,10.28h47.76l-.62-10.28c-.08-1.09-.59-2.04-1.36-2.72h4.09c1.1,0,2-.9,2-2v-3c0-1.1-.9-2-2-2ZM17,42c-2.21,0-4-1.79-4-4s1.79-4,4-4,4,1.79,4,4-1.79,4-4,4ZM38,41h-12c-.55,0-1-.45-1-1s.45-1,1-1h12c.55,0,1,.45,1,1s-.45,1-1,1ZM38,37h-12c-.55,0-1-.45-1-1s.45-1,1-1h12c.55,0,1,.45,1,1s-.45,1-1,1ZM47,42c-2.21,0-4-1.79-4-4s1.79-4,4-4,4,1.79,4,4-1.79,4-4,4Z"/><path class="cls-1" d="M6,48v2c0,1.1.9,2,2,2h1v4c0,1.1.9,2,2,2h6c1.1,0,2-.9,2-2v-4h2v-6h-13c-1.1,0-2,.9-2,2Z"/><path class="cls-1" d="M56,46h-13v6h2v4c0,1.1.9,2,2,2h6c1.1,0,2-.9,2-2v-4h1c1.1,0,2-.9,2-2v-2c0-1.1-.9-2-2-2Z"/><rect class="cls-1" x="23" y="46" width="18" height="6"/><path class="cls-1" d="M38.54,19.46l1.87,1.02c1.51.82,2.75,2.06,3.57,3.57l1.02,1.87,1.02-1.87c.82-1.51,2.06-2.75,3.57-3.57l1.87-1.02-1.87-1.02c-1.51-.82-2.75-2.06-3.57-3.57l-1.02-1.87-1.02,1.87c-.82,1.51-2.06,2.75-3.57,3.57l-1.87,1.02Z"/><path class="cls-1" d="M52.83,14.63l.71,1.29.71-1.29c.57-1.04,1.43-1.9,2.47-2.47l1.29-.71-1.29-.71c-1.04-.57-1.9-1.43-2.47-2.47l-.71-1.29-.71,1.29c-.57,1.04-1.43,1.9-2.47,2.47l-1.29.71,1.29.71c1.04.57,1.9,1.43,2.47,2.47Z"/></svg>