<?xml version="1.0" encoding="UTF-8"?><svg id="Gyph" xmlns="http://www.w3.org/2000/svg" viewBox="0 0 64 64"><defs><style>.cls-1{stroke-width:0px;}</style></defs><rect class="cls-1" x="8.95" y="3.81" width="5" height="16"/><path class="cls-1" d="M45.94,31.31l-5.76-15.45c-1.28-3.62-4.72-6.05-8.56-6.05h-2.23c-.69-1.19-1.97-2-3.45-2h-3l-1.45-2.89c-.34-.68-1.03-1.11-1.79-1.11h-3.76v16h3.76c.76,0,1.45-.43,1.79-1.11l1.45-2.89h3c1.48,0,2.75-.81,3.45-2h2.23c2.15,0,4.07,1.36,4.78,3.38l5.77,15.48,3.76-1.37Z"/><path class="cls-1" d="M53.23,39.55l-11.28,4.11c-.51.19-1.09-.08-1.28-.6l-.68-1.88c-.19-.52.08-1.09.59-1.28l1.88-.69-1.02-3.07c-.19-.51.08-1.09.6-1.28l5.63-2.05c.52-.19,1.1.08,1.28.59l1.03,3.07,1.88-.68c.52-.19,1.09.08,1.28.6l.69,1.88c.19.51-.08,1.09-.6,1.28Z"/><path class="cls-1" d="M56.1,56.63l-3.16-9.1c-.09-.25-.07-.51.04-.75l.67-1.45c.22-.48.25-1.03.07-1.53l-.74-2.04-9.4,3.42.74,2.04c.18.5.55.9,1.03,1.13l1.43.67c.25.11.43.32.52.58l3.16,9.08c.38,1.04,1.53,1.57,2.56,1.19l1.88-.68c1.04-.38,1.57-1.53,1.19-2.56Z"/></svg>