<?xml version="1.0" encoding="UTF-8"?><svg id="Gyph" xmlns="http://www.w3.org/2000/svg" viewBox="0 0 64 64"><defs><style>.cls-1{stroke-width:0px;}</style></defs><path class="cls-1" d="M25.75,19h-2.75v-2.5c0-3.31-2.69-6-6-6s-6,2.69-6,6v2.5h-2.75l-1.61,6-2.64,2v5h26v-5l-2.64-2-1.61-6ZM13,16.5c0-2.21,1.79-4,4-4s4,1.79,4,4v2.5h-8v-2.5ZM22,29.5h-10v-6h10v6Z"/><path class="cls-1" d="M4,55c0,.55.45,1,1,1h1v3c0,.55.45,1,1,1h2c.55,0,1-.45,1-1v-3h14v3c0,.55.45,1,1,1h2c.55,0,1-.45,1-1v-3h1c.55,0,1-.45,1-1v-21H4v21ZM17,39h8v12h-8v-12ZM9,39h4v4h-4v-4ZM9,47h4v4h-4v-4Z"/><path class="cls-1" d="M59.28,55.67c-.16-.96-1-1.67-1.97-1.67h-3.81c-.17.6-.39,1.21-.67,1.83-.08.18-.17.35-.25.52-.88,1.73-2.63,2.81-4.57,2.81s-3.69-1.08-4.57-2.81c-.08-.17-.17-.34-.25-.52-.28-.62-.5-1.23-.67-1.83h-3.81c-.98,0-1.81.71-1.97,1.67l-.72,4.33h24l-.72-4.33Z"/><path class="cls-1" d="M38.49,19.75c0-2.07,1.68-3.75,3.75-3.75h.01c2.07,0,3.75,1.68,3.75,3.75v29.25h-2c-.1,1.1-.17,3.43,1,6,.07.15.14.3.21.44,1.17,2.29,4.41,2.29,5.57,0,.07-.14.14-.29.21-.44,1.17-2.57,1.1-4.9,1-6h-2v-29.25c0-4.28-3.47-7.75-7.75-7.75h-.01c-4.28,0-7.75,3.47-7.75,7.75v5.72c0,1.36-.8,2.6-2.04,3.17l-.45.21v4.4l1.54-.7c3.01-1.38,4.95-4.39,4.95-7.7v-5.1Z"/></svg>