<?xml version="1.0" encoding="UTF-8"?><svg id="Gyph" xmlns="http://www.w3.org/2000/svg" viewBox="0 0 64 64"><defs><style>.cls-1{stroke-width:0px;}</style></defs><path class="cls-1" d="M25.73,12.2c.11-.29.35-.51.66-.6.32-.09.64-.03.89.18.48.39,1.17,1.26,1.72,3.24l.96,3.46-1.66,5.99-2.38-8.57s0-.02,0-.03v-.04c-.55-1.96-.41-3.05-.19-3.63ZM14.7,38.04l-1.93-2.54s-3.13-4.16-6.25-8.32c-1.22-1.62-1.5-2.72-1.52-3.34,0-.32.14-.62.4-.82.26-.19.58-.25.89-.15.59.18,1.56.75,2.79,2.4l1.97,2.62s0,0,.01,0c0,0,0,0,0,0l2.81,3.56c.26.34.72.46,1.12.32.42-.15,4.16-1.32,5.94,2.74.16.38.53.6.92.6.13,0,.27-.03.4-.08.51-.22.74-.81.52-1.32-1.83-4.2-5.53-4.53-7.73-4.03l-2.27-2.88-3.27-11.8c-.55-1.99-.41-3.09-.19-3.67.11-.3.35-.52.67-.61.32-.09.64-.02.89.18.44.35,1.07,1.13,1.61,2.89,0,0,0,0,0,0l2.42,8.71c.12.44.53.73.96.73.09,0,.18-.01.27-.04.53-.15.84-.7.7-1.23l-3.01-10.86c-.54-1.98-.41-3.09-.2-3.67.11-.3.35-.52.67-.61.32-.09.64-.02.9.18.48.39,1.17,1.26,1.72,3.24l3.01,10.87c.12.44.53.73.96.73.09,0,.18-.01.27-.04.53-.15.84-.7.7-1.23l-2.34-8.43c-.52-1.92-.38-3.01-.17-3.59.11-.3.36-.53.68-.61.32-.09.64-.02.88.17.49.4,1.18,1.28,1.73,3.25l1.38,4.97s0,.01,0,.02c0,0,0,.02,0,.03l2.55,9.19c.12.44.53.73.96.73.09,0,.18-.01.27-.04.02,0,.03-.02.05-.02-.62,2.59-.51,5.29.35,7.82l1.15,3.4c.28.81.3,1.67.1,2.41l-2.87,7.41c-.46-.09-.93-.02-1.34.22-.46.26-.8.69-.94,1.21l-.49,1.76-4.91,1.36-1.7-8.33c-.41-2-1.27-3.89-2.48-5.47ZM18.29,56.54l-.62-2.25,6.21-1.72c.26.41.65.73,1.15.87l2.22.61-8.96,2.48ZM43.7,56.54l-18.12-5.02.62-2.25,18.13,5.02-.62,2.25ZM55.48,27.2l-6.24,8.31-1.93,2.53c-1.22,1.61-2.08,3.5-2.49,5.48l-1.69,8.33-14.61-4.05,2.81-7.27c.34-1.21.3-2.49-.1-3.68l-1.15-3.39c-.79-2.31-.86-4.78-.2-7.13l3.13-11.3c.55-1.98,1.24-2.86,1.72-3.25.25-.2.57-.27.89-.18.32.09.56.31.67.61.21.58.35,1.69-.19,3.66l-2.55,9.2c-.15.53.16,1.08.7,1.23.09.02.18.04.27.04.44,0,.84-.29.96-.73l3.94-14.2c.55-1.98,1.24-2.86,1.72-3.25.25-.2.57-.26.89-.18.32.09.56.31.67.61.21.58.35,1.69-.19,3.66h0s-2.32,8.36-2.32,8.36c-.15.53.16,1.08.7,1.23.09.02.18.04.27.04.44,0,.84-.29.96-.73l3.01-10.86c.55-1.98,1.24-2.86,1.72-3.25.25-.2.57-.27.89-.18.32.09.56.31.67.61.21.58.35,1.69-.2,3.67l-3.01,10.86c-.15.53.16,1.08.7,1.23.09.02.18.04.27.04.44,0,.84-.29.96-.73l2.32-8.36c.55-1.98,1.24-2.86,1.72-3.25.25-.2.57-.26.89-.18.32.09.56.31.67.61.21.58.35,1.69-.2,3.67l-3.27,11.8-2.27,2.88c-2.21-.5-5.9-.17-7.73,4.03-.22.51,0,1.1.52,1.32.13.06.27.08.4.08.39,0,.75-.22.92-.6,1.77-4.06,5.52-2.89,5.94-2.75.4.14.86.02,1.12-.32,0,0,2.82-3.58,2.82-3.58l1.97-2.62c1.23-1.64,2.2-2.21,2.79-2.4.3-.1.63-.04.89.16.26.2.41.49.4.81-.02.63-.29,1.72-1.52,3.35Z"/></svg>