<?xml version="1.0" encoding="UTF-8"?><svg id="Gyph" xmlns="http://www.w3.org/2000/svg" viewBox="0 0 64 64"><defs><style>.cls-1{stroke-width:0px;}</style></defs><path class="cls-1" d="M53.11,3c-.55,0-1,.45-1,1v4.25c0,1.17-.95,2.13-2.13,2.13-2.28,0-4.13,1.85-4.13,4.13v4.85s0,0,0,0h-.17c-.55,0-1,.45-1,1v3.34h-10.31v-1.2c0-5.25-4.25-9.5-9.5-9.5h0c-5.25,0-9.5,4.25-9.5,9.5v8.5l-2,2.49v12.51h18v-3h3v-9h16c1.1,0,2-.9,2-2v-6.3c0-1.1-.9-2-2-2h-1.35v-3.34c0-.55-.45-1-1-1h-.17s0,0,0,0v-4.85c0-1.17.95-2.13,2.13-2.13,2.28,0,4.13-1.85,4.13-4.13v-4.25c0-.55-.45-1-1-1ZM25.98,18.57c0-.55.45-1,1-1s1,.45,1,1v5.86c0,.55-.45,1-1,1s-1-.45-1-1v-5.86ZM21.75,18.57c0-.55.45-1,1-1s1,.45,1,1v5.86c0,.55-.45,1-1,1s-1-.45-1-1v-5.86ZM20.9,29.98c0-.55.45-1,1-1h6c.55,0,1,.45,1,1v6c0,.55-.45,1-1,1h-6c-.55,0-1-.45-1-1v-6Z"/><path class="cls-1" d="M36.37,39h3c1.1,0,2-.9,2-2v-1h-5v3Z"/><path class="cls-1" d="M34.37,50c0-1.1-.9-2-2-2H12.37c-1.1,0-2,.9-2,2v2h24v-2Z"/><path class="cls-1" d="M36.67,54H8.06c-.98,0-1.81.71-1.97,1.67l-.53,3.16c-.1.61.37,1.16.99,1.16h31.64c.62,0,1.09-.55.99-1.16l-.53-3.16c-.16-.96-1-1.67-1.97-1.67Z"/></svg>