<?xml version="1.0" encoding="UTF-8"?><svg id="Gyph" xmlns="http://www.w3.org/2000/svg" viewBox="0 0 64 64"><defs><style>.cls-1{stroke-width:0px;}</style></defs><path class="cls-1" d="M35.85,18.97l-.2-.2c-.39-.39-1.02-.39-1.41,0l-7.93,7.92-3.58-.33c-.62-.06-1.23.16-1.66.6l-11.84,11.83c-.82.82-.82,2.13,0,2.95l1.34,1.34c.37.37.85.58,1.37.61l2.27.12c.84.04,1.57.59,1.85,1.39l4.17,11.88c1.08,3.07,4.99,3.96,7.29,1.66l10.96-10.96c1.26-1.26,1.64-3.15.97-4.8l-5.02-12.24,5.89-5.89c.39-.39.39-1.02,0-1.41l-4.47-4.47ZM35.66,44.72l-10.27,10.27-3.95-11.25,1.95-1.95c.58.88,1.84,2.08,3.53,2.08.31,0,.64-.04.97-.13.53-.14.85-.69.71-1.22-.14-.53-.69-.85-1.22-.71-1.44.38-2.36-1.18-2.4-1.24-.04-.08-.11-.13-.17-.19l6.44-6.44,4.41,10.79Z"/><path class="cls-1" d="M54.73,6.77l-2.42-2.42c-.37-.37-.96-.41-1.38-.08l-4.32,3.39c-.49.39-.53,1.11-.09,1.55l.29.29-4.93,4.93c.05.05.11.08.16.13l2.48,2.48s.08.11.13.16l4.93-4.93.29.29c.44.44,1.17.4,1.55-.09l3.39-4.32c.33-.41.29-1.01-.08-1.38Z"/><path class="cls-1" d="M40.63,15.98c-.49-.49-1.3-.49-1.79,0l-1.58,1.58,4.27,4.27,1.58-1.58c.49-.49.49-1.3,0-1.79l-2.48-2.48Z"/></svg>