<?xml version="1.0" encoding="UTF-8"?><svg id="Gyph" xmlns="http://www.w3.org/2000/svg" viewBox="0 0 64 64"><defs><style>.cls-1{stroke-width:0px;}</style></defs><path class="cls-1" d="M30.18,55.53c-.34-1.04-1.3-1.74-2.39-1.74H8.22c-1.09,0-2.06.7-2.39,1.74l-1.02,3.14c-.21.65.27,1.33.96,1.33h24.48c.69,0,1.18-.67.96-1.33l-1.02-3.14Z"/><path class="cls-1" d="M31.32,44.94v4.43h-4.33v2.43H9.02v-2.43h-2.14c-1.21,0-2.19-.98-2.19-2.19v-.05c0-1.21.98-2.19,2.19-2.19h24.44Z"/><path class="cls-1" d="M41.87,42.49h0v-5.91h-8.5l-5.31,3.94H9.02v2.42h22.3c1.1,0,2,.9,2,2v4.43h1.67c0,3.79,3.09,6.88,6.88,6.88s6.88-3.09,6.88-6.88-3.09-6.88-6.88-6.88ZM41.87,54.25c-2.69,0-4.88-2.19-4.88-4.88s2.19-4.88,4.88-4.88,4.88,2.19,4.88,4.88-2.19,4.88-4.88,4.88Z"/><path class="cls-1" d="M41.87,47.16c-1.22,0-2.21.99-2.21,2.21s.99,2.21,2.21,2.21,2.21-.99,2.21-2.21-.99-2.21-2.21-2.21Z"/><path class="cls-1" d="M24.61,28.31v10.21h2.79l3.13-2.32v-17.21c0-1.17-1-2.11-2.18-2.01l-13.14,1.27c-3.27.25-5.84,2.83-6.16,6.03h11.54c2.22,0,4.02,1.81,4.02,4.03Z"/><path class="cls-1" d="M22.61,28.31c0-1.12-.9-2.03-2.02-2.03h-11.57v12.24h13.59v-10.21ZM18.33,35.62h-4.59c-.55,0-1-.45-1-1s.45-1,1-1h4.59c.55,0,1,.45,1,1s-.45,1-1,1ZM18.33,31.12h-4.59c-.55,0-1-.45-1-1s.45-1,1-1h4.59c.55,0,1,.45,1,1s-.45,1-1,1Z"/><path class="cls-1" d="M40.79,31.84v2.74h-6.26v-2.74c0-1.71,1.38-3.1,3.09-3.1h.08c1.71,0,3.09,1.39,3.09,3.1Z"/><path class="cls-1" d="M46.67,14l-7.85,12.88c1.41.33,2.58,1.22,3.27,2.41l8.02-13.17s-.05-.02-.07-.04l-3.38-2.09Z"/><path class="cls-1" d="M59.31,8.58h-3.53l.56-.93c.29-.48.13-1.09-.34-1.38l-3.45-2.12c-.48-.29-1.11-.14-1.4.34l-3.83,6.39c-.28.47-.14,1.09.34,1.38l3.44,2.13c.48.3,1.11.14,1.4-.34l.88-1.47h-1.16c-.55,0-1-.45-1-1s.45-1,1-1h7.09c.55,0,1-.45,1-1s-.45-1-1-1Z"/></svg>