<?xml version="1.0" encoding="UTF-8"?><svg id="Gyph" xmlns="http://www.w3.org/2000/svg" viewBox="0 0 64 64"><defs><style>.cls-1{stroke-width:0px;}</style></defs><rect class="cls-1" x="24" y="4" width="36" height="4" rx="1" ry="1"/><rect class="cls-1" x="24" y="46" width="36" height="4" rx="1" ry="1"/><path class="cls-1" d="M45.5,23.14c-.08-.8-.4-1.97-1.46-2.77-.56-.42-1.15-.61-1.64-.69-.52-.09-.9-.5-.94-1.03-.04-.51-.2-1.15-.64-1.75-.17-.23-.36-.43-.57-.59-1.13-.9-2.82-.48-3.52.79-1.89,3.44-3.79,6.89-5.68,10.33.39.21.73.5.99.87l1.24,1.73c.26.37.42.78.5,1.19l12.92-2.32c2.15-.39,2.76-3.3.87-4.39-.02-.01-.04-.02-.06-.03-.39-.22-.78-.33-1.13-.39-.47-.08-.85-.46-.9-.94Z"/><path class="cls-1" d="M27.37,35.05c.36.5,1.09.56,1.52.12l2.67-2.68c.34-.35.39-.89.1-1.29l-1.24-1.73c-.29-.4-.82-.53-1.25-.31l-3.4,1.67c-.55.27-.73.98-.37,1.48l-.13-.18-5.74,4.12,2.23,3.11,5.74-4.13-.13-.18Z"/><path class="cls-1" d="M17.35,36.64c-.62-.86-1.81-1.05-2.67-.44l-9.83,7.07c-.52.37-.82.98-.79,1.62l-.06,13.48c.04,1.05.92,1.88,1.98,1.84l9.46.41c1.06-.04,1.88-.92,1.84-1.97l-.91-11.89,3.89-2.8c.85-.61,1.05-1.81.43-2.66l-3.34-4.66ZM7.75,56.32l.19-4.01,4.27-3.43.32,7.27-4.78.17Z"/><path class="cls-1" d="M47.91,20.29c.2.2.45.29.71.29s.51-.1.71-.29l2.99-2.99c.39-.39.39-1.02,0-1.41s-1.02-.39-1.41,0l-2.99,2.99c-.39.39-.39,1.02,0,1.41Z"/><path class="cls-1" d="M47.87,14.67l-1.18,1.18c-.39.39-.39,1.02,0,1.41.2.2.45.29.71.29s.51-.1.71-.29l1.18-1.18c.39-.39.39-1.02,0-1.41s-1.02-.39-1.41,0Z"/><path class="cls-1" d="M28.18,37.47c-.11,0-.23,0-.34-.02l-2.84,2.04v4.51h34V10H25v18.98l3.29-1.61c.2-.1.42-.18.65-.23l.06-.11v-15.02h11v2c.54.15,1.05.39,1.5.75.36.29.67.61.93.97.46.63.78,1.36.94,2.13.22.06.43.16.63.24v-6.09h11v30h-11v-10.58l-4,.72v9.86h-11v-4.66c-.26.07-.53.13-.82.13Z"/></svg>