<?xml version="1.0" encoding="UTF-8"?><svg id="Gyph" xmlns="http://www.w3.org/2000/svg" viewBox="0 0 64 64"><defs><style>.cls-1{stroke-width:0px;}</style></defs><path class="cls-1" d="M58.56,20.21l-20.38-14.82-1.18-.86-1.18.86-20.38,14.82c-.89.65-1.09,1.9-.44,2.79.65.89,1.9,1.09,2.79.44l19.21-13.97,19.21,13.97c.89.65,2.14.45,2.79-.44.65-.89.45-2.14-.44-2.79Z"/><path class="cls-1" d="M47.64,23.51s-.04-.02-.06-.03c-.39-.22-.78-.33-1.13-.39-.47-.08-.85-.46-.9-.94-.08-.8-.4-1.97-1.46-2.77-.56-.42-1.15-.61-1.64-.69-.52-.09-.9-.5-.94-1.03-.04-.51-.2-1.15-.64-1.75-.17-.23-.36-.43-.57-.59-1.13-.9-2.82-.48-3.52.79-1.89,3.44-3.79,6.89-5.68,10.33.39.21.73.5.99.87l1.24,1.73c.26.37.42.78.5,1.19l12.92-2.32c2.15-.39,2.76-3.3.87-4.39Z"/><path class="cls-1" d="M30.48,28.47c-.29-.4-.82-.53-1.25-.31l-3.4,1.67c-.55.27-.73.98-.37,1.48l-.13-.18-5.74,4.12,2.23,3.11,5.74-4.13-.13-.18c.36.5,1.09.56,1.52.12l2.67-2.68c.34-.35.39-.89.1-1.29l-1.24-1.73Z"/><path class="cls-1" d="M20.32,42.96c.85-.61,1.05-1.81.43-2.66l-3.34-4.66c-.62-.86-1.81-1.05-2.67-.44l-9.83,7.07c-.52.37-.82.98-.79,1.62l-.06,13.48c.04,1.05.92,1.88,1.98,1.84l9.46.41c1.06-.04,1.88-.92,1.84-1.97l-.91-11.89,3.89-2.8ZM7.81,55.32l.19-4.01,4.27-3.43.32,7.27-4.78.17Z"/><path class="cls-1" d="M24.89,28.03l3.4-1.67c.2-.1.42-.18.65-.23l6.04-11c.69-1.25,1.91-2.08,3.29-2.27l-1.27-.92-17,12.36v8.14l3.28-2.36s.01-.07.02-.1c.21-.86.79-1.58,1.58-1.96Z"/><path class="cls-1" d="M28.18,36.47c-.11,0-.23,0-.34-.02l-5.03,3.61c.23.62.3,1.3.19,1.98-.17,1.04-.73,1.94-1.58,2.55l-1.43,1.03v.39h11v-11.11l-.69.7c-.55.56-1.31.88-2.12.88Z"/><path class="cls-1" d="M47.38,21.26c.37.11.74.26,1.08.45.06.03.11.07.17.1,1.54.92,2.33,2.65,2.01,4.44-.33,1.87-1.73,3.29-3.58,3.62l-4.07.73v15.4h11v-21.69l-7.97-5.8c.67.76,1.13,1.68,1.35,2.75Z"/></svg>