<?xml version="1.0" encoding="UTF-8"?><svg id="Gyph" xmlns="http://www.w3.org/2000/svg" viewBox="0 0 64 64"><defs><style>.cls-1{stroke-width:0px;}</style></defs><path class="cls-1" d="M55,5c-2.21,0-4,1.79-4,4v30h8V9c0-2.21-1.79-4-4-4ZM41,30.96v8.04h8v-9.98c-.55.42-1.2.72-1.93.85l-6.07,1.09ZM45,5c-2.21,0-4,1.79-4,4v4.41c.17.1.34.21.5.34.35.28.67.61.93.96.46.64.78,1.36.94,2.14.69.19,1.31.5,1.87.93,1.11.85,1.84,2.04,2.14,3.48.38.11.74.26,1.09.45.06.03.11.06.17.1.13.08.25.16.36.25v-13.06c0-2.21-1.79-4-4-4ZM32.97,32.9l-1.97,1.98v4.12h8v-7.68l-5.59,1.01c-.12.2-.26.4-.44.57ZM35,5c-2.21,0-4,1.79-4,4v13.38l3.98-7.24c.78-1.43,2.27-2.31,3.89-2.31h.13v-3.83c0-2.21-1.79-4-4-4ZM27.84,36.45l-3.55,2.55h4.71v-2.64c-.26.07-.54.11-.82.11-.11,0-.22-.01-.34-.02ZM25,5c-2.21,0-4,1.79-4,4v22.74l2.28-1.64s0-.07.02-.1c.22-.86.8-1.58,1.59-1.97l3.4-1.66c.2-.11.42-.18.65-.24l.06-.11V9c0-2.21-1.79-4-4-4Z"/><path class="cls-1" d="M47.64,23.51s-.04-.02-.06-.03c-.39-.22-.78-.33-1.13-.39-.47-.08-.85-.46-.9-.94-.08-.8-.4-1.97-1.46-2.77-.56-.42-1.15-.61-1.64-.69-.52-.09-.9-.5-.94-1.03-.04-.51-.2-1.15-.64-1.75-.17-.23-.36-.43-.57-.59-1.13-.9-2.82-.48-3.52.79-1.89,3.44-3.79,6.89-5.68,10.33.39.21.73.5.99.87l1.24,1.73c.26.37.42.78.5,1.19l12.92-2.32c2.15-.39,2.76-3.3.87-4.39Z"/><path class="cls-1" d="M30.48,28.47c-.29-.4-.82-.53-1.25-.31l-3.4,1.67c-.55.27-.73.98-.37,1.48l-.13-.18-5.74,4.12,2.23,3.11,5.74-4.13-.13-.18c.36.5,1.09.56,1.52.12l2.67-2.68c.34-.35.39-.89.1-1.29l-1.24-1.73Z"/><path class="cls-1" d="M17.41,35.64c-.62-.86-1.81-1.05-2.67-.44l-9.83,7.07c-.52.37-.82.98-.79,1.62l-.06,13.48c.04,1.05.92,1.88,1.98,1.84l9.46.41c1.06-.04,1.88-.92,1.84-1.97l-.91-11.89,3.89-2.8c.85-.61,1.05-1.81.43-2.66l-3.34-4.66ZM7.81,55.32l.19-4.01,4.27-3.43.32,7.27-4.78.17Z"/></svg>