<?xml version="1.0" encoding="UTF-8"?><svg id="Flat" xmlns="http://www.w3.org/2000/svg" viewBox="0 0 64 64"><defs><style>.cls-1{fill:#6581c6;}.cls-2{fill:#d3dce5;}</style></defs><path class="cls-2" d="m29,8H10c-.55,0-1-.45-1-1s.45-1,1-1h19c.55,0,1,.45,1,1s-.45,1-1,1Z"/><path class="cls-2" d="m54,8h-19c-.55,0-1-.45-1-1s.45-1,1-1h19c.55,0,1,.45,1,1s-.45,1-1,1Z"/><path class="cls-2" d="m29,58H10c-.55,0-1-.45-1-1s.45-1,1-1h19c.55,0,1,.45,1,1s-.45,1-1,1Z"/><path class="cls-2" d="m54,58h-19c-.55,0-1-.45-1-1s.45-1,1-1h19c.55,0,1,.45,1,1s-.45,1-1,1Z"/><path class="cls-2" d="m7,30c-.55,0-1-.45-1-1V10c0-.55.45-1,1-1s1,.45,1,1v19c0,.55-.45,1-1,1Z"/><path class="cls-2" d="m7,55c-.55,0-1-.45-1-1v-19c0-.55.45-1,1-1s1,.45,1,1v19c0,.55-.45,1-1,1Z"/><path class="cls-2" d="m57,30c-.55,0-1-.45-1-1V10c0-.55.45-1,1-1s1,.45,1,1v19c0,.55-.45,1-1,1Z"/><path class="cls-2" d="m57,55c-.55,0-1-.45-1-1v-19c0-.55.45-1,1-1s1,.45,1,1v19c0,.55-.45,1-1,1Z"/><rect class="cls-1" x="29" y="4" width="6" height="6" rx="1" ry="1"/><rect class="cls-1" x="4" y="4" width="6" height="6" rx="1" ry="1"/><rect class="cls-1" x="54" y="4" width="6" height="6" rx="1" ry="1"/><rect class="cls-1" x="29" y="54" width="6" height="6" rx="1" ry="1"/><rect class="cls-1" x="4" y="54" width="6" height="6" rx="1" ry="1"/><rect class="cls-1" x="54" y="54" width="6" height="6" rx="1" ry="1"/><rect class="cls-1" x="4" y="29" width="6" height="6" rx="1" ry="1"/><rect class="cls-1" x="54" y="29" width="6" height="6" rx="1" ry="1"/><circle class="cls-1" cx="32" cy="32" r="7"/><path class="cls-2" d="m32,35c-.55,0-1-.45-1-1v-4.43c0-.55.45-1,1-1s1,.45,1,1v4.43c0,.55-.45,1-1,1Z"/><path class="cls-2" d="m34.21,32.79h-4.43c-.55,0-1-.45-1-1s.45-1,1-1h4.43c.55,0,1,.45,1,1s-.45,1-1,1Z"/></svg>