<?xml version="1.0" encoding="UTF-8"?><svg id="Flat" xmlns="http://www.w3.org/2000/svg" viewBox="0 0 64 64"><defs><style>.cls-1{fill:#edae65;}.cls-2{fill:#d88852;}.cls-3{fill:#d3dce5;}.cls-4{fill:#e26677;}.cls-5{fill:#d85364;}</style></defs><path class="cls-3" d="m22,22h20c2.21,0,4,1.79,4,4v32c0,1.1-.9,2-2,2h-24c-1.1,0-2-.9-2-2V26c0-2.21,1.79-4,4-4Z"/><path class="cls-4" d="m42,18v4h-20v-4c0-1.1.9-2,2-2h16c1.1,0,2,.9,2,2Z"/><path class="cls-1" d="m37,16h-10l2.33-11.2c.1-.46.51-.8.98-.8h3.37c.47,0,.88.33.98.8l2.33,11.2Z"/><path class="cls-5" d="m27,16v2c0,.55-.45,1-1,1s-1-.45-1-1v-2h2Z"/><path class="cls-5" d="m31,16v2c0,.55-.45,1-1,1s-1-.45-1-1v-2h2Z"/><path class="cls-5" d="m35,16v2c0,.55-.45,1-1,1s-1-.45-1-1v-2h2Z"/><path class="cls-5" d="m39,16v2c0,.55-.45,1-1,1s-1-.45-1-1v-2h2Z"/><path class="cls-1" d="m41,32v22c0,.55-.45,1-1,1h-16c-.55,0-1-.45-1-1v-22c0-.55.45-1,1-1h3.1c.46-2.28,2.48-4,4.9-4,1.38,0,2.63.56,3.54,1.46.68.68,1.16,1.56,1.36,2.54h3.1c.55,0,1,.45,1,1Z"/><path class="cls-2" d="m36,38h-8c-.55,0-1-.45-1-1s.45-1,1-1h8c.55,0,1,.45,1,1s-.45,1-1,1Z"/><path class="cls-2" d="m36,44h-8c-.55,0-1-.45-1-1s.45-1,1-1h8c.55,0,1,.45,1,1s-.45,1-1,1Z"/><path class="cls-2" d="m36,50h-8c-.55,0-1-.45-1-1s.45-1,1-1h8c.55,0,1,.45,1,1s-.45,1-1,1Z"/></svg>