<?xml version="1.0" encoding="UTF-8"?><svg id="Flat" xmlns="http://www.w3.org/2000/svg" viewBox="0 0 64 64"><defs><style>.cls-1{fill:#edae65;}.cls-2{fill:#6581c6;}.cls-3{fill:#d88852;}.cls-4{fill:#d3dce5;}.cls-5{fill:#536882;}</style></defs><path class="cls-4" d="m13,24c-.55,0-1-.45-1-1,0-6.49,3.65-12.13,9-15h-11c-.55,0-1-.45-1-1s.45-1,1-1h19c.55,0,1,.45,1,1s-.45,1-1,1c-8.27,0-15,6.73-15,15,0,.55-.45,1-1,1Z"/><path class="cls-4" d="m51,24c-.55,0-1-.45-1-1,0-8.27-6.73-15-15-15-.55,0-1-.45-1-1s.45-1,1-1h19c.55,0,1,.45,1,1s-.45,1-1,1h-11c5.35,2.87,9,8.51,9,15,0,.55-.45,1-1,1Z"/><rect class="cls-5" x="20" y="54" width="24" height="6" rx="1" ry="1"/><rect class="cls-2" x="29" y="4" width="6" height="6" rx="1" ry="1"/><rect class="cls-2" x="10" y="23" width="6" height="6" rx="1" ry="1"/><circle class="cls-2" cx="7" cy="7" r="3"/><rect class="cls-2" x="48" y="23" width="6" height="6" rx="1" ry="1" transform="translate(102 52) rotate(-180)"/><circle class="cls-2" cx="57" cy="7" r="3"/><path class="cls-1" d="m47.05,39.36l-5.82,13.97c-.14.4-.52.67-.94.67h-16.58c-.42,0-.8-.27-.94-.67l-5.82-13.97c-.08-.23-.08-.49.02-.71l10.77-23.04c.16-.37.52-.61.92-.61h6.68c.4,0,.76.24.92.61l10.77,23.04c.1.22.1.48.02.71Z"/><path class="cls-3" d="m33,15v20c0,.55-.45,1-1,1s-1-.45-1-1V15h2Z"/><circle class="cls-3" cx="32" cy="38" r="3"/></svg>