<?xml version="1.0" encoding="UTF-8"?><svg id="Flat" xmlns="http://www.w3.org/2000/svg" viewBox="0 0 64 64"><defs><style>.cls-1{fill:#edae65;}.cls-2{fill:#d88852;}.cls-3{fill:#c2623e;}.cls-4{fill:#e26677;}</style></defs><path class="cls-3" d="m29,21h6v38c0,.55-.45,1-1,1h-4c-.55,0-1-.45-1-1V21h0Z"/><rect class="cls-4" x="12" y="4" width="40" height="8" rx="2" ry="2"/><path class="cls-1" d="m50.94,60h-4c-.53,0-.97-.41-1-.94l-2.38-38.06h-23.12l-2.38,38.06c-.03.53-.47.94-1,.94h-4c-.58,0-1.03-.49-1-1.06l2.93-46.94h34l2.93,46.94c.04.58-.42,1.06-1,1.06Z"/><polygon class="cls-2" points="44.97 43.5 19.03 43.5 19.41 37.5 44.59 37.5 44.97 43.5"/></svg>