<?xml version="1.0" encoding="UTF-8"?><svg id="Flat" xmlns="http://www.w3.org/2000/svg" viewBox="0 0 64 64"><defs><style>.cls-1{fill:#edae65;}.cls-2{fill:#d88852;}.cls-3{fill:#d3dce5;}</style></defs><path class="cls-1" d="m58.29,5.71L5.71,58.29c-.63.63-1.71.19-1.71-.7V5c0-.55.45-1,1-1h52.59c.89,0,1.33,1.08.7,1.71Z"/><polygon class="cls-3" points="12 12 40.69 12 12 40.69 12 12"/><path class="cls-2" d="m9,6c0,.55.45,1,1,1s1-.45,1-1v-2h-2v2Z"/><path class="cls-2" d="m6,9h-2v2h2c.55,0,1-.45,1-1s-.45-1-1-1Z"/><path class="cls-2" d="m6,15h-2v2h2c.55,0,1-.45,1-1s-.45-1-1-1Z"/><path class="cls-2" d="m6,21h-2v2h2c.55,0,1-.45,1-1s-.45-1-1-1Z"/><path class="cls-2" d="m6,27h-2v2h2c.55,0,1-.45,1-1s-.45-1-1-1Z"/><path class="cls-2" d="m6,33h-2v2h2c.55,0,1-.45,1-1s-.45-1-1-1Z"/><path class="cls-2" d="m6,39h-2v2h2c.55,0,1-.45,1-1s-.45-1-1-1Z"/><path class="cls-2" d="m6,45h-2v2h2c.55,0,1-.45,1-1s-.45-1-1-1Z"/><path class="cls-2" d="m6,51h-2v2h2c.55,0,1-.45,1-1s-.45-1-1-1Z"/><path class="cls-2" d="m15,6c0,.55.45,1,1,1s1-.45,1-1v-2h-2v2Z"/><path class="cls-2" d="m21,6c0,.55.45,1,1,1s1-.45,1-1v-2h-2v2Z"/><path class="cls-2" d="m27,6c0,.55.45,1,1,1s1-.45,1-1v-2h-2v2Z"/><path class="cls-2" d="m33,6c0,.55.45,1,1,1s1-.45,1-1v-2h-2v2Z"/><path class="cls-2" d="m39,6c0,.55.45,1,1,1s1-.45,1-1v-2h-2v2Z"/><path class="cls-2" d="m45,6c0,.55.45,1,1,1s1-.45,1-1v-2h-2v2Z"/><path class="cls-2" d="m51,4v2c0,.55.45,1,1,1s1-.45,1-1v-2h-2Z"/></svg>