<?xml version="1.0" encoding="UTF-8"?><svg id="Flat" xmlns="http://www.w3.org/2000/svg" viewBox="0 0 64 64"><defs><style>.cls-1{fill:#edae65;}.cls-2{fill:#a26a55;}.cls-3{fill:#6581c6;}.cls-4{fill:#d88852;}.cls-5{fill:#d3dce5;}.cls-6{fill:#e26677;}.cls-7{fill:#d85364;}.cls-8{fill:#78b24c;}</style></defs><path class="cls-1" d="m50,14c0-4,4-9,4-9,0,0,4,5,4,9"/><rect class="cls-5" x="6" y="5" width="36" height="54" rx="2" ry="2"/><circle class="cls-6" cx="32" cy="15" r="5"/><circle class="cls-7" cx="32" cy="32" r="5"/><circle class="cls-8" cx="32" cy="49" r="5"/><circle class="cls-3" cx="16" cy="15" r="5"/><circle class="cls-1" cx="16" cy="32" r="5"/><circle class="cls-4" cx="16" cy="49" r="5"/><path class="cls-2" d="m51,19h6v37c0,1.66-1.34,3-3,3h0c-1.66,0-3-1.34-3-3V19h0Z"/><polygon class="cls-5" points="57 19 51 19 50 14 58 14 57 19"/></svg>