<?xml version="1.0" encoding="UTF-8"?><svg id="Flat" xmlns="http://www.w3.org/2000/svg" viewBox="0 0 64 64"><defs><style>.cls-1{fill:#e5c1a2;}.cls-2{fill:#edae65;}.cls-3{fill:#d88852;}.cls-4{fill:#d3dce5;}.cls-5{fill:#e26677;}.cls-6{fill:#536882;}</style></defs><rect class="cls-3" x="9.77" y="32.97" width="45.28" height="6.62" transform="translate(-16.16 33.54) rotate(-45)"/><rect class="cls-2" x="5.08" y="28.28" width="45.28" height="6.63" transform="translate(-14.22 28.86) rotate(-45)"/><rect class="cls-4" x="40.69" y="12.27" width="15.46" height="6.63" rx="1" ry="1" transform="translate(25.2 -29.67) rotate(45)"/><path class="cls-5" d="m54.27,4.76h0c3.66,0,6.63,2.97,6.63,6.63v3.31h-13.25v-3.31c0-3.66,2.97-6.63,6.63-6.63Z" transform="translate(22.77 -35.53) rotate(45)"/><path class="cls-6" d="m12.03,57.28l-6.37,2.51c-.91.39-1.84-.54-1.45-1.45l2.51-6.37,5.31,5.31Z"/><polygon class="cls-1" points="18.74 54.63 12.03 57.28 6.72 51.97 9.37 45.26 18.74 54.63"/></svg>