<?xml version="1.0" encoding="UTF-8"?><svg id="Flat" xmlns="http://www.w3.org/2000/svg" viewBox="0 0 64 64"><defs><style>.cls-1{fill:#edae65;}.cls-2{fill:#b8c3d5;}.cls-3{fill:#d88852;}.cls-4{fill:#d3dce5;}.cls-5{fill:#536882;}</style></defs><path class="cls-1" d="m19,5h34c1.1,0,2,.9,2,2v50c0,1.1-.9,2-2,2H19V5h0Z"/><path class="cls-3" d="m14,5h5v54h-5c-1.1,0-2-.9-2-2V7c0-1.1.9-2,2-2Z"/><rect class="cls-5" x="9" y="10" width="6" height="4" rx="2" ry="2"/><rect class="cls-5" x="9" y="20" width="6" height="4" rx="2" ry="2"/><rect class="cls-5" x="9" y="30" width="6" height="4" rx="2" ry="2"/><rect class="cls-5" x="9" y="40" width="6" height="4" rx="2" ry="2"/><rect class="cls-5" x="9" y="50" width="6" height="4" rx="2" ry="2"/><rect class="cls-5" x="47" y="5" width="4" height="54"/><rect class="cls-4" x="24" y="10" width="18" height="20" rx="1" ry="1"/><path class="cls-2" d="m38,16h-10c-.55,0-1-.45-1-1s.45-1,1-1h10c.55,0,1,.45,1,1s-.45,1-1,1Z"/><path class="cls-2" d="m38,21h-10c-.55,0-1-.45-1-1s.45-1,1-1h10c.55,0,1,.45,1,1s-.45,1-1,1Z"/><path class="cls-2" d="m38,26h-10c-.55,0-1-.45-1-1s.45-1,1-1h10c.55,0,1,.45,1,1s-.45,1-1,1Z"/></svg>