<?xml version="1.0" encoding="UTF-8"?><svg id="Flat" xmlns="http://www.w3.org/2000/svg" viewBox="0 0 64 64"><defs><style>.cls-1{fill:#edae65;}.cls-2{fill:#b8c3d5;}.cls-3{fill:#d3dce5;}.cls-4{fill:#e26677;}</style></defs><rect class="cls-1" x="19" y="24" width="26" height="32"/><rect class="cls-3" x="17" y="20" width="30" height="4" rx="1" ry="1"/><rect class="cls-3" x="19" y="32" width="26" height="16"/><rect class="cls-3" x="17" y="56" width="30" height="4" rx="1" ry="1"/><path class="cls-3" d="m36,5v9h-8V5c0-.55.45-1,1-1h6c.55,0,1,.45,1,1Z"/><path class="cls-2" d="m36,8v2h-2c-.55,0-1-.45-1-1s.45-1,1-1h2Z"/><path class="cls-4" d="m45,20h-26c.91-1.16,2.49-2.85,5-4.29,1.46-.84,2.86-1.37,4-1.71h8c1.14.35,2.54.88,4,1.71,2.51,1.43,4.09,3.12,5,4.29Z"/><path class="cls-4" d="m35,41c0,1.66-1.34,3-3,3s-3-1.34-3-3,3-5,3-5c0,0,3,3.34,3,5Z"/></svg>