<?xml version="1.0" encoding="UTF-8"?><svg id="Flat" xmlns="http://www.w3.org/2000/svg" viewBox="0 0 64 64"><defs><style>.cls-1{fill:#edae65;}.cls-2{fill:#a26a55;}.cls-3{fill:#d88852;}.cls-4{fill:#e26677;}</style></defs><rect class="cls-2" x="39.07" y="14.96" width="6" height="13.79" transform="translate(10.01 -13.07) rotate(20)"/><path class="cls-1" d="m41.61,14.34c-.26-.71-.77-2.59.34-4.74,2-3.89,6.21-4.3,6.74-4.61,0,0-.84,1.85-.52,3.48.56,2.85,3.16,3.26-.93,7.93l-5.64-2.05Z"/><rect class="cls-2" x="18.9" y="14.79" width="6" height="13.79" transform="translate(-6.1 8.8) rotate(-20)"/><path class="cls-1" d="m16.73,16.24c-.65-.38-2.25-1.49-2.78-3.85-.96-4.27,1.99-7.29,2.2-7.86,0,0,.55,1.96,1.84,3,2.26,1.83,4.52.46,4.39,6.67l-5.64,2.05Z"/><rect class="cls-1" x="14" y="25" width="36" height="6" rx="1" ry="1"/><path class="cls-4" d="m17,31h30v28c0,1.1-.9,2-2,2h-26c-1.1,0-2-.9-2-2v-28h0Z"/><rect class="cls-2" x="29" y="12" width="6" height="13"/><path class="cls-1" d="m37.49,5.35l-2.49,6.65h-6l-2.49-6.65c-.25-.65.23-1.35.93-1.35h9.12c.7,0,1.18.7.93,1.35Z"/><path class="cls-3" d="m31,4v2c0,.55-.45,1-1,1s-1-.45-1-1v-2h2Z"/><path class="cls-3" d="m35,4v2c0,.55-.45,1-1,1s-1-.45-1-1v-2h2Z"/></svg>