<?xml version="1.0" encoding="UTF-8"?><svg id="Flat" xmlns="http://www.w3.org/2000/svg" viewBox="0 0 64 64"><defs><style>.cls-1{fill:#edae65;}.cls-2{fill:#b8c3d5;}.cls-3{fill:#d3dce5;}.cls-4{fill:#e26677;}</style></defs><path class="cls-2" d="m54,61h-26.76c-.55,0-1-.45-1-1s.45-1,1-1h26.76c.55,0,1,.45,1,1s-.45,1-1,1Z"/><path class="cls-3" d="m41.05,47.61l-13.1,13.1c-.19.18-.44.29-.71.29h-5.65c-.27,0-.52-.11-.71-.29L3.88,43.71c-1.17-1.17-1.17-3.08,0-4.25l14.51-14.51c.39-.39,1.03-.39,1.42,0l21.24,21.24c.39.39.39,1.03,0,1.42Z"/><path class="cls-4" d="m60.12,28.54l-14.51,14.52c-.19.18-.44.29-.71.29s-.52-.11-.71-.29l-21.24-21.24c-.39-.39-.39-1.03,0-1.42l14.51-14.52c1.17-1.17,3.08-1.17,4.25,0l18.41,18.41c1.17,1.17,1.17,3.08,0,4.25Z"/><rect class="cls-1" x="27.78" y="17.98" width="8.44" height="32.05" transform="translate(-14.67 32.59) rotate(-45)"/></svg>