<?xml version="1.0" encoding="UTF-8"?><svg id="Flat" xmlns="http://www.w3.org/2000/svg" viewBox="0 0 64 64"><defs><style>.cls-1{fill:#edae65;}.cls-2{fill:#a26a55;}.cls-3{fill:#d3dce5;}.cls-4{fill:#e26677;}.cls-5{fill:#536882;}</style></defs><path class="cls-3" d="m29,37.15c-.55,0-1-.45-1-1v-2.27c0-1.41.96-2.62,2.34-2.93l27.9-5.58c.44-.1.76-.5.76-.97v-11.4c0-.55-.45-1-1-1h-4c-.55,0-1-.45-1-1s.45-1,1-1h4c1.65,0,3,1.35,3,3v11.4c0,1.41-.96,2.62-2.34,2.93l-27.9,5.58c-.44.1-.76.5-.76.97v2.27c0,.55-.45,1-1,1Z"/><rect class="cls-3" x="8" y="4" width="42" height="14" rx="2" ry="2"/><path class="cls-5" d="m5,8h3v6h-3c-.55,0-1-.45-1-1v-4c0-.55.45-1,1-1Z"/><path class="cls-5" d="m51,8h3v6h-3c-.55,0-1-.45-1-1v-4c0-.55.45-1,1-1Z" transform="translate(104 22) rotate(-180)"/><path class="cls-1" d="m28,37h2c.55,0,1,.45,1,1v3h-4v-3c0-.55.45-1,1-1Z"/><path class="cls-2" d="m27,41h4c.55,0,1,.45,1,1v15c0,1.66-1.34,3-3,3h0c-1.66,0-3-1.34-3-3v-15c0-.55.45-1,1-1Z"/><path class="cls-4" d="m38,4v7c0,1.66-1.34,3-3,3s-3-1.34-3-3v8c0,1.66-1.34,3-3,3s-3-1.34-3-3v-9c0,1.66-1.34,3-3,3s-3-1.34-3-3v-6h18Z"/></svg>