<?xml version="1.0" encoding="UTF-8"?><svg id="Flat" xmlns="http://www.w3.org/2000/svg" viewBox="0 0 64 64"><defs><style>.cls-1{fill:#edae65;}.cls-2{fill:#d3dce5;}.cls-3{fill:#e26677;}.cls-4{fill:#536882;}</style></defs><rect class="cls-4" x="13" y="10" width="12" height="6" rx="1" ry="1"/><rect class="cls-2" x="16" y="16" width="6" height="5"/><polygon class="cls-4" points="27 27 11 27 16 21 22 21 27 27"/><polygon class="cls-2" points="29 55 9 55 11 27 27 27 29 55"/><path class="cls-4" d="m9,55h20v4c0,.55-.45,1-1,1H10c-.55,0-1-.45-1-1v-4h0Z"/><path class="cls-3" d="m22,43c0,1.66-1.34,3-3,3s-3-1.34-3-3,3-6,3-6c0,0,3,4.34,3,6Z"/><path class="cls-2" d="m42,16h4c.55,0,1,.45,1,1v4h-6v-4c0-.55.45-1,1-1Z"/><polygon class="cls-4" points="52 27 36 27 41 21 47 21 52 27"/><polygon class="cls-2" points="54 55 34 55 36 27 52 27 54 55"/><path class="cls-4" d="m34,55h20v4c0,.55-.45,1-1,1h-18c-.55,0-1-.45-1-1v-4h0Z"/><path class="cls-1" d="m47,43c0,1.66-1.34,3-3,3s-3-1.34-3-3,3-6,3-6c0,0,3,4.34,3,6Z"/><path class="cls-1" d="m59,17.26h-.92c-3.54,0-6.43-2.88-6.43-6.43,0-1.56-1.27-2.83-2.83-2.83s-2.83,1.27-2.83,2.83v5.17h-4v-5.17c0-3.77,3.06-6.83,6.83-6.83s6.83,3.06,6.83,6.83c0,1.34,1.09,2.43,2.43,2.43h.92"/></svg>