<?xml version="1.0" encoding="UTF-8"?><svg id="Flat" xmlns="http://www.w3.org/2000/svg" viewBox="0 0 64 64"><defs><style>.cls-1{fill:#edae65;}.cls-2{fill:#b8c3d5;}.cls-3{fill:#d3dce5;}.cls-4{fill:#78b24c;}.cls-5{fill:#50823f;}</style></defs><path class="cls-3" d="m7,52h50c.55,0,1,.45,1,1v3H6v-3c0-.55.45-1,1-1Z"/><rect class="cls-2" x="4" y="56" width="56" height="4" rx="1" ry="1"/><path class="cls-3" d="m4,14h56v5c0,.55-.45,1-1,1H5c-.55,0-1-.45-1-1v-5h0Z"/><polygon class="cls-2" points="60 14 4 14 32 4 60 14"/><rect class="cls-3" x="10" y="26" width="6" height="20"/><path class="cls-2" d="m8,20h10v5c0,.55-.45,1-1,1h-8c-.55,0-1-.45-1-1v-5h0Z"/><path class="cls-2" d="m9,46h8c.55,0,1,.45,1,1v5h-10v-5c0-.55.45-1,1-1Z"/><rect class="cls-3" x="48" y="26" width="6" height="20" transform="translate(102 72) rotate(-180)"/><path class="cls-2" d="m47,20h8c.55,0,1,.45,1,1v5h-10v-5c0-.55.45-1,1-1Z" transform="translate(102 46) rotate(-180)"/><path class="cls-2" d="m46,46h10v5c0,.55-.45,1-1,1h-8c-.55,0-1-.45-1-1v-5h0Z" transform="translate(102 98) rotate(-180)"/><rect class="cls-3" x="22" y="26" width="20" height="20" rx="1.54" ry="1.54"/><path class="cls-5" d="m42,41.25v3.21c0,.85-.69,1.54-1.54,1.54h-10.92l6.58-9.67c.61-.9,1.93-.9,2.54,0l3.35,4.92Z"/><path class="cls-4" d="m37.05,46h-13.51c-.85,0-1.54-.69-1.54-1.54v-2.48l4.88-7.18c.61-.9,1.93-.9,2.54,0l7.62,11.21Z"/><circle class="cls-1" cx="33.54" cy="32.15" r=".77"/></svg>