<?xml version="1.0" encoding="UTF-8"?><svg id="Flat" xmlns="http://www.w3.org/2000/svg" viewBox="0 0 64 64"><defs><style>.cls-1{fill:#a26a55;}.cls-2{fill:#d3dce5;}.cls-3{fill:#894c3d;}</style></defs><polyline class="cls-3" points="30 60 30 46 34 46 34 60"/><polyline class="cls-3" points="19 60 22 46 26 46 23 60"/><polyline class="cls-3" points="45 60 42 46 38 46 41 60"/><rect class="cls-2" x="8" y="12" width="48" height="32" rx="2" ry="2"/><path class="cls-1" d="m27,8h10c.55,0,1,.45,1,1v3h-12v-3c0-.55.45-1,1-1Z"/><rect class="cls-1" x="19" y="42" width="26" height="4" rx="1" ry="1"/><path class="cls-3" d="m31,4h2c.55,0,1,.45,1,1v3h-4v-3c0-.55.45-1,1-1Z"/></svg>