<?xml version="1.0" encoding="UTF-8"?><svg id="Flat" xmlns="http://www.w3.org/2000/svg" viewBox="0 0 64 64"><defs><style>.cls-1{fill:#edae65;}.cls-2{fill:#a26a55;}.cls-3{fill:#b8c3d5;}.cls-4{fill:#d3dce5;}.cls-5{fill:#894c3d;}</style></defs><path class="cls-4" d="m42.47,26.18l-4.65-4.65.65-5.88c.08-.69.48-1.3,1.08-1.65l16.91-9.83c.43-.28,1-.21,1.36.15l1.86,1.86c.36.36.43.93.15,1.36l-9.83,16.91c-.35.6-.96,1-1.65,1.08l-5.88.65Z"/><path class="cls-3" d="m37.62,19.61h.39c1.1,0,2,.9,2,2v11.16h-4.39v-11.16c0-1.1.9-2,2-2Z" transform="translate(29.59 -19.07) rotate(45)"/><path class="cls-1" d="m29.32,30.19h4.58c.55,0,1,.45,1,1v3.39h-6.58v-3.39c0-.55.45-1,1-1Z" transform="translate(32.16 -12.87) rotate(45)"/><path class="cls-2" d="m5.25,58.75s6.98,3.88,11.94-1.98l15.33-18.96c.37-.44.34-1.08-.06-1.48l-4.78-4.78c-.4-.4-1.05-.43-1.48-.06l-18.96,15.33c-5.86,4.96-1.98,11.94-1.98,11.94h0"/><circle class="cls-5" cx="10.68" cy="53.32" r="2.19"/></svg>