<?xml version="1.0" encoding="UTF-8"?><svg id="Flat" xmlns="http://www.w3.org/2000/svg" viewBox="0 0 64 64"><defs><style>.cls-1{fill:#edae65;}.cls-2{fill:#a26a55;}.cls-3{fill:#d3dce5;}.cls-4{fill:#536882;}.cls-5{fill:#894c3d;}.cls-6{fill:#78b24c;}.cls-7{fill:#50823f;}</style></defs><path class="cls-3" d="m54,12H10c-1.1,0-2,.9-2,2v18s5-8,17-8c6.09,0,10.64,2.06,13.63,4.09h.02c.32-.25,5.73-4.09,17.35-4.09v-10c0-1.1-.9-2-2-2Zm-15,9c-1.1,0-2-.9-2-2s.9-2,2-2,2,.9,2,2-.9,2-2,2Z"/><path class="cls-7" d="m56,24v8h-13s-1.46-1.94-4.37-3.91h.02c.32-.25,5.73-4.09,17.35-4.09Z"/><path class="cls-1" d="m37,36.42c-3.08,5.54-10.43,7.58-10.43,7.58H10c-1.1,0-2-.9-2-2v-10h30s.24,2.2-1,4.42Z"/><path class="cls-1" d="m56,32v10c0,1.1-.9,2-2,2h-16.27s3.07-2.15,3.77-7.23c.36-2.63-.37-4.77-.37-4.77h14.87Z"/><path class="cls-4" d="m41.5,36.77c-.7,5.08-3.77,7.23-3.77,7.23h-11.16s7.35-2.04,10.43-7.58c1.24-2.22,1-4.42,1-4.42h3.13s.73,2.14.37,4.77Z"/><path class="cls-2" d="m27,8h10c.55,0,1,.45,1,1v3h-12v-3c0-.55.45-1,1-1Z"/><rect class="cls-2" x="19" y="42" width="26" height="4" rx="1" ry="1"/><path class="cls-5" d="m31,4h2c.55,0,1,.45,1,1v3h-4v-3c0-.55.45-1,1-1Z"/><polyline class="cls-5" points="30 60 30 46 34 46 34 60"/><polyline class="cls-5" points="19 60 22 46 26 46 23 60"/><polyline class="cls-5" points="45 60 42 46 38 46 41 60"/><path class="cls-6" d="m43,32H8s5-8,17-8c6.09,0,10.64,2.06,13.63,4.09,2.91,1.97,4.37,3.91,4.37,3.91Z"/><circle class="cls-1" cx="39" cy="19" r="2"/></svg>