<?xml version="1.0" encoding="UTF-8"?><svg id="Flat" xmlns="http://www.w3.org/2000/svg" viewBox="0 0 64 64"><defs><style>.cls-1{fill:#edae65;}.cls-2{fill:#a26a55;}.cls-3{fill:#d88852;}.cls-4{fill:#d3dce5;}</style></defs><path class="cls-4" d="m15,17c-.36,0-.71-.19-.88-.53-.26-.49-.07-1.09.42-1.35L31.53,6.12c.49-.26,1.09-.07,1.35.42.26.49.07,1.09-.42,1.35l-17,9c-.15.08-.31.12-.47.12Z"/><path class="cls-4" d="m49,17c-.16,0-.32-.04-.47-.12L31.53,7.88c-.49-.26-.67-.86-.42-1.35.26-.49.86-.67,1.35-.42l17,9c.49.26.67.86.42,1.35-.18.34-.53.53-.88.53Z"/><rect class="cls-2" x="4" y="16" width="56" height="44" rx="1" ry="1"/><rect class="cls-4" x="16" y="16" width="32" height="44" transform="translate(70 6) rotate(90)"/><path class="cls-1" d="m5,16h9c0,5.52-4.48,10-10,10h0v-9c0-.55.45-1,1-1Z"/><path class="cls-1" d="m50,16h0c5.52,0,10,4.48,10,10h-9c-.55,0-1-.45-1-1v-9h0Z" transform="translate(110 42) rotate(180)"/><path class="cls-1" d="m4,50h0c5.52,0,10,4.48,10,10H5c-.55,0-1-.45-1-1v-9h0Z"/><path class="cls-1" d="m51,50h9c0,5.52-4.48,10-10,10h0v-9c0-.55.45-1,1-1Z" transform="translate(110 110) rotate(180)"/><circle class="cls-3" cx="8" cy="20" r="1"/><circle class="cls-3" cx="56" cy="20" r="1"/><circle class="cls-3" cx="8" cy="56" r="1"/><circle class="cls-3" cx="56" cy="56" r="1"/><circle class="cls-1" cx="32" cy="7" r="3"/></svg>