<?xml version="1.0" encoding="UTF-8"?><svg id="Flat" xmlns="http://www.w3.org/2000/svg" viewBox="0 0 64 64"><defs><style>.cls-1{fill:#edae65;}.cls-2{fill:#b8c3d5;}.cls-3{fill:#6581c6;}.cls-4{fill:#d88852;}.cls-5{fill:#d3dce5;}.cls-6{fill:#e26677;}.cls-7{fill:#78b24c;}</style></defs><path class="cls-5" d="m55.89,47.76c-5.4,7.92-14.77,12.93-25.23,12.17-13.81-1-24.96-12.26-25.85-26.07C3.76,17.56,16.68,4,32.75,4c8.37,0,15.89,3.68,21.02,9.51,2.25,2.56,1.25,6.66-1.93,7.86-.46.17-.9.35-1.33.54-7.65,3.41-7.75,9.62-.14,13.1.49.22.99.43,1.52.63,4.91,1.84,6.95,7.78,3.99,12.11Z"/><path class="cls-7" d="m36.2,12.75c.21,1.31-.31,2.52-1.22,3.27-.35.29-1.03.13-1.55-.06-.44-.16-.93-.13-1.35.06-.46.21-1.04.39-1.35.17-.9-.63-1.48-1.68-1.48-2.86,0-2.14,1.92-3.83,4.13-3.44,1.43.25,2.59,1.43,2.82,2.86Z"/><path class="cls-6" d="m21.58,15.95c1.08.78,1.56,2,1.45,3.18-.04.45-.64.82-1.14,1.05-.43.2-.75.56-.91,1-.18.47-.46,1.01-.84,1.07-1.08.18-2.23-.14-3.07-.97-1.51-1.51-1.35-4.07.49-5.36,1.19-.83,2.85-.82,4.02.03Z"/><path class="cls-4" d="m13.5,28.55c1.31-.21,2.52.31,3.27,1.22.29.35.13,1.03-.06,1.55-.16.44-.13.93.06,1.35.21.46.39,1.04.17,1.35-.63.9-1.68,1.48-2.86,1.48-2.14,0-3.83-1.92-3.44-4.13.25-1.43,1.43-2.59,2.86-2.82Z"/><path class="cls-1" d="m17.7,43.17c.78-1.08,2-1.56,3.18-1.45.45.04.82.64,1.05,1.14.2.43.56.75,1,.91.47.18,1.01.46,1.07.84.18,1.08-.14,2.23-.97,3.07-1.51,1.51-4.07,1.35-5.36-.49-.83-1.19-.82-2.85.03-4.02Z"/><path class="cls-3" d="m30.29,51.25c-.21-1.31.31-2.52,1.22-3.27.35-.29,1.03-.13,1.55.06.44.16.93.13,1.35-.06.46-.21,1.04-.39,1.35-.17.9.63,1.48,1.68,1.48,2.86,0,2.14-1.92,3.83-4.13,3.44-1.43-.25-2.59-1.43-2.82-2.86Z"/><circle class="cls-2" cx="46.95" cy="44.2" r="4.67"/></svg>