<?xml version="1.0" encoding="UTF-8"?><svg id="Flat" xmlns="http://www.w3.org/2000/svg" viewBox="0 0 64 64"><defs><style>.cls-1{fill:#e26677;}.cls-2{fill:#d85364;}</style></defs><path class="cls-2" d="m28.66,25.12l-4.93.15c0-.16-.06-3.55-2.46-6.26-.77-.87-.81-2.17-.11-3.1h0c.93-1.23,2.78-1.36,3.8-.2,3.72,4.2,3.71,9.17,3.71,9.41Z"/><path class="cls-1" d="m54.71,41.67H7.7s-7.42-7.42-1.24-14.84c6.81-8.17,14.84,2.47,25.98-3.71s18.87-9.59,25.32-.99-3.05,19.54-3.05,19.54Z"/><path class="cls-2" d="m7.7,41.67h47.01v5.42c0,1.1-.9,2-2,2H9.7c-1.1,0-2-.9-2-2v-5.42h0Z"/></svg>