<?xml version="1.0" encoding="UTF-8"?><svg id="Flat" xmlns="http://www.w3.org/2000/svg" viewBox="0 0 64 64"><defs><style>.cls-1{fill:#edae65;}.cls-2{fill:#a26a55;}.cls-3{fill:#d3dce5;}.cls-4{fill:#e26677;}</style></defs><rect class="cls-3" x="34.64" y="21.05" width="14.83" height="6.36" rx="1" ry="1" transform="translate(29.45 -22.64) rotate(45)"/><path class="cls-1" d="m39.82,17.49s-1.5-13.49,17.98-13.49c0,0-4.62,5-2.25,9.74,3,5.99-1.5,11.99-6.74,12.74l-8.99-8.99Z"/><path class="cls-4" d="m56.5,18.15c-1.07-.04-2.03-1-3.19-2.16-2.25-2.25-5.99,3-7.49,0s-5.01-3.9-5.01-3.9c1.64-3.75,5.95-8.09,16.99-8.09,0,0-4.62,5.01-2.25,9.74.75,1.5,1.03,3,.94,4.41Z"/><path class="cls-2" d="m7.54,58.65h0c-1.68-1.68-1.8-4.35-.29-6.17,6.03-7.26,20.39-24.46,22.81-26.76,1.87-1.78,3.75-2.96,5.24-3.75l8.99,8.99c-.83,1.54-2.03,3.39-3.75,5.24-2.78,3.01-18.25,15.35-26.79,22.68-1.82,1.56-4.53,1.45-6.22-.24Z"/></svg>