<?xml version="1.0" encoding="UTF-8"?><svg id="Flat" xmlns="http://www.w3.org/2000/svg" viewBox="0 0 64 64"><defs><style>.cls-1{fill:#edae65;}.cls-2{fill:#b8c3d5;}.cls-3{fill:#d88852;}.cls-4{fill:#d3dce5;}.cls-5{fill:#536882;}</style></defs><path class="cls-4" d="m42.02,44.79l-.16,3.03H13.95l-.16-3.03c-.05-.93.63-1.74,1.55-1.86l2.26-.28c1.83-.23,3.2-1.79,3.2-3.63v-2.1h14.2v2.1c0,1.84,1.38,3.4,3.21,3.63l2.26.28c.92.12,1.6.93,1.55,1.86Z"/><path class="cls-3" d="m29.66,28.94s-4.99-5.54,1.39-14.1l1,2.09s.9-10.18,18.88-12.93c0,0-5.65,6.93-6.84,11.89l-4.24,1.93h3.53s-2.75,6.6-13.72,11.11Z"/><path class="cls-1" d="m27.9,48.82c-.55,0-1-.45-1-1v-5.78c0-22.67,14.05-32.19,14.65-32.58.46-.3,1.08-.17,1.38.28.3.46.18,1.08-.28,1.38-.14.09-13.75,9.36-13.75,30.91v5.78c0,.55-.45,1-1,1Z"/><rect class="cls-2" x="18.14" y="31.6" width="19.53" height="5.33" rx="1" ry="1"/><path class="cls-5" d="m41.86,47.82l-.55,10.5c-.05.94-.83,1.68-1.78,1.68h-23.26c-.94,0-1.72-.74-1.77-1.68l-.55-10.5h27.91Z"/></svg>