<?xml version="1.0" encoding="UTF-8"?><svg id="Flat" xmlns="http://www.w3.org/2000/svg" viewBox="0 0 64 64"><defs><style>.cls-1{fill:#edae65;}.cls-2{fill:#b8c3d5;}.cls-3{fill:#d3dce5;}.cls-4{fill:#e26677;}.cls-5{fill:#536882;}</style></defs><path class="cls-5" d="m15,35h-5c-1.65,0-3-1.35-3-3v-6.98C7,13.99,15.97,5.01,27,5h0c.55,0,1,.45,1,1,0,.55-.45,1-1,1-9.93,0-18,8.09-18,18.02v6.98c0,.55.45,1,1,1h5c.55,0,1,.45,1,1s-.45,1-1,1Z"/><path class="cls-5" d="m54,35h-5c-.55,0-1-.45-1-1s.45-1,1-1h5c.55,0,1-.45,1-1v-6.98c0-9.93-8.08-18.01-18-18.02-.55,0-1-.45-1-1,0-.55.45-1,1-1h0c11.03.01,20,8.99,20,20.02v6.98c0,1.65-1.35,3-3,3Z"/><rect class="cls-2" x="12" y="24" width="40" height="6" rx="1" ry="1"/><path class="cls-3" d="m15,30h34v28c0,1.1-.9,2-2,2h-30c-1.1,0-2-.9-2-2v-28h0Z"/><rect class="cls-1" x="27" y="4" width="10" height="4" rx="1" ry="1"/><path class="cls-4" d="m41,30v7c0,1.66-1.34,3-3,3h0c-1.66,0-3-1.34-3-3v-2c0-1.66-1.34-3-3-3h0c-1.66,0-3,1.34-3,3v6c0,1.66-1.34,3-3,3h0c-1.66,0-3-1.34-3-3v-17s18,0,18,0v6Z"/></svg>