<?xml version="1.0" encoding="UTF-8"?><svg id="Flat" xmlns="http://www.w3.org/2000/svg" viewBox="0 0 64 64"><defs><style>.cls-1{fill:#edae65;}.cls-2{fill:#a26a55;}.cls-3{fill:#b74846;}.cls-4{fill:#d3dce5;}.cls-5{fill:#d68076;}.cls-6{fill:#e26677;}.cls-7{fill:#d85364;}.cls-8{fill:#536882;}</style></defs><path class="cls-7" d="m26.25,9.09s-.09,0-.14,0c-.54-.08-.92-.58-.85-1.12,0-.02.2-1.75-1-2.81-.42-.36-.46-1-.09-1.41.36-.41,1-.46,1.41-.09,2.03,1.78,1.68,4.47,1.66,4.58-.07.5-.5.86-.99.86Z"/><path class="cls-1" d="m41.2,45.7l-12.2-1.7-12.2,1.7c-1.43.2-2.8.69-4.04,1.43h0c-2.95,1.78-4.76,4.98-4.76,8.43v4.44s21,0,21,0h21v-4.44c0-3.45-1.81-6.65-4.76-8.43h0c-1.24-.74-2.61-1.23-4.04-1.43Z"/><path class="cls-3" d="m35,38v7.91c0,1.3-.65,2.52-1.74,3.24h0c-2.58,1.72-5.95,1.72-8.53,0h0c-1.08-.72-1.74-1.94-1.74-3.24v-7.91h12Z"/><path class="cls-8" d="m29,9h0c7.73,0,14,6.27,14,14v5H15v-5c0-7.73,6.27-14,14-14Z"/><path class="cls-6" d="m40.35,16.36c-2.48.94-6.41,2.1-11.35,2.16-5.35.06-9.59-1.19-12.15-2.16-.29-.54-2.69-4.94-.62-7.42,3.41-4.09,7.42,1.24,12.99-1.86,5.57-3.09,9.43-4.79,12.66-.49s-1.52,9.77-1.52,9.77Z"/><path class="cls-3" d="m39,25h3c1.66,0,3,1.34,3,3h0c0,1.66-1.34,3-3,3h-3v-6h0Z"/><path class="cls-3" d="m13,25h3c1.66,0,3,1.34,3,3h0c0,1.66-1.34,3-3,3h-3v-6h0Z" transform="translate(32 56) rotate(180)"/><path class="cls-5" d="m41,25h-1.48c-3.72,0-7.36-1.04-10.52-3h0s0,0,0,0c-3.16,1.96-6.8,3-10.52,3h-1.48v5.6c0,6.61,5.17,12.28,11.78,12.4,6.73.12,12.22-5.3,12.22-12v-6Z"/><rect class="cls-2" x="49" y="41" width="6" height="17"/><path class="cls-4" d="m49,41c-.49-.58-1.6-2.17-1.3-4.57.55-4.34,4.36-6.17,4.76-6.64,0,0-.15,2.02.7,3.45,1.5,2.49,4.09,1.98,1.84,7.77h-6Z"/><path class="cls-5" d="m50,48h3c2.21,0,4,1.79,4,4v4c0,2.21-1.79,4-4,4h-3c-1.1,0-2-.9-2-2v-8c0-1.1.9-2,2-2Z"/></svg>