<?xml version="1.0" encoding="UTF-8"?><svg id="Filled_Line" xmlns="http://www.w3.org/2000/svg" viewBox="0 0 64 64"><defs><style>.cls-1{fill:#6581c6;}.cls-2{fill:#1a2c3d;}</style></defs><rect class="cls-1" x="29" y="4" width="6" height="6" rx="1" ry="1"/><rect class="cls-1" x="4" y="4" width="6" height="6" rx="1" ry="1"/><rect class="cls-1" x="54" y="4" width="6" height="6" rx="1" ry="1"/><rect class="cls-1" x="29" y="54" width="6" height="6" rx="1" ry="1"/><rect class="cls-1" x="4" y="54" width="6" height="6" rx="1" ry="1"/><rect class="cls-1" x="54" y="54" width="6" height="6" rx="1" ry="1"/><rect class="cls-1" x="4" y="29" width="6" height="6" rx="1" ry="1"/><rect class="cls-1" x="54" y="29" width="6" height="6" rx="1" ry="1"/><circle class="cls-1" cx="32" cy="32" r="7"/><path class="cls-2" d="m59,11c1.1,0,2-.9,2-2v-4c0-1.1-.9-2-2-2h-4c-1.1,0-2,.9-2,2v1h-17v-1c0-1.1-.9-2-2-2h-4c-1.1,0-2,.9-2,2v1H11v-1c0-1.1-.9-2-2-2h-4c-1.1,0-2,.9-2,2v4c0,1.1.9,2,2,2h1v17h-1c-1.1,0-2,.9-2,2v4c0,1.1.9,2,2,2h1v17h-1c-1.1,0-2,.9-2,2v4c0,1.1.9,2,2,2h4c1.1,0,2-.9,2-2v-1h17v1c0,1.1.9,2,2,2h4c1.1,0,2-.9,2-2v-1h17v1c0,1.1.9,2,2,2h4c1.1,0,2-.9,2-2v-4c0-1.1-.9-2-2-2h-1v-17h1c1.1,0,2-.9,2-2v-4c0-1.1-.9-2-2-2h-1V11h1Zm-4-6h4v4s-4,0-4,0v-4Zm-25,0h4v4s-4,0-4,0v-4Zm-25,0h4v4s-4,0-4,0v-4Zm0,25h4v4s-4,0-4,0v-4Zm0,29v-4h4v4s-4,0-4,0Zm25,0v-4h4v4s-4,0-4,0Zm29,0h-4v-4h4v4Zm0-25h-4v-4h4v4Zm-3-6h-1c-1.1,0-2,.9-2,2v4c0,1.1.9,2,2,2h1v17h-1c-1.1,0-2,.9-2,2v1h-17v-1c0-1.1-.9-2-2-2h-4c-1.1,0-2,.9-2,2v1H11v-1c0-1.1-.9-2-2-2h-1v-17h1c1.1,0,2-.9,2-2v-4c0-1.1-.9-2-2-2h-1V11h1c1.1,0,2-.9,2-2v-1h17v1c0,1.1.9,2,2,2h4c1.1,0,2-.9,2-2v-1h17v1c0,1.1.9,2,2,2h1v17Zm-24-4c-4.41,0-8,3.59-8,8s3.59,8,8,8,8-3.59,8-8-3.59-8-8-8Zm0,14c-3.31,0-6-2.69-6-6s2.69-6,6-6,6,2.69,6,6-2.69,6-6,6Zm3.21-6.21c0,.55-.45,1-1,1h-1.21v1.21c0,.55-.45,1-1,1s-1-.45-1-1v-1.21h-1.21c-.55,0-1-.45-1-1s.45-1,1-1h1.21v-1.21c0-.55.45-1,1-1s1,.45,1,1v1.21h1.21c.55,0,1,.45,1,1Z"/></svg>