<?xml version="1.0" encoding="UTF-8"?><svg id="Filled_Line" xmlns="http://www.w3.org/2000/svg" viewBox="0 0 64 64"><defs><style>.cls-1{fill:#edae65;}.cls-2{fill:#d3dce5;}.cls-3{fill:#e26677;}.cls-4{fill:#1a2c3d;}</style></defs><path class="cls-2" d="m22,22h20c2.21,0,4,1.79,4,4v32c0,1.1-.9,2-2,2h-24c-1.1,0-2-.9-2-2V26c0-2.21,1.79-4,4-4Z"/><path class="cls-3" d="m42,18v4h-20v-4c0-1.1.9-2,2-2h16c1.1,0,2,.9,2,2Z"/><path class="cls-1" d="m37,16h-10l2.33-11.2c.1-.46.51-.8.98-.8h3.37c.47,0,.88.33.98.8l2.33,11.2Z"/><path class="cls-1" d="m41,32v22c0,.55-.45,1-1,1h-16c-.55,0-1-.45-1-1v-22c0-.55.45-1,1-1h3.1c.46-2.28,2.48-4,4.9-4,1.38,0,2.63.56,3.54,1.46.68.68,1.16,1.56,1.36,2.54h3.1c.55,0,1,.45,1,1Z"/><path class="cls-4" d="m43,21.1v-3.1c0-1.65-1.35-3-3-3h-2.19l-2.17-10.41c-.19-.92-1.02-1.59-1.96-1.59h-3.37c-.94,0-1.77.67-1.96,1.59l-2.17,10.41h-2.19c-1.65,0-3,1.35-3,3v3.1c-2.28.46-4,2.48-4,4.9v32c0,1.65,1.35,3,3,3h24c1.65,0,3-1.35,3-3V26c0-2.41-1.72-4.43-4-4.9ZM30.31,5h3.37l2.08,10h-7.54l2.08-10Zm-7.31,13c0-.55.45-1,1-1h1v1c0,.55.45,1,1,1s1-.45,1-1v-1h2v1c0,.55.45,1,1,1s1-.45,1-1v-1h2v1c0,.55.45,1,1,1s1-.45,1-1v-1h2v1c0,.55.45,1,1,1s1-.45,1-1v-1h1c.55,0,1,.45,1,1v3h-18v-3Zm22,40c0,.55-.45,1-1,1h-24c-.55,0-1-.45-1-1V26c0-1.65,1.35-3,3-3h20c1.65,0,3,1.35,3,3v32Zm-5-28h-2.34c-.3-.85-.78-1.61-1.42-2.25-1.14-1.13-2.65-1.75-4.24-1.75-2.56,0-4.83,1.64-5.66,4h-2.34c-1.1,0-2,.9-2,2v22c0,1.1.9,2,2,2h16c1.1,0,2-.9,2-2v-22c0-1.1-.9-2-2-2Zm0,24h-16v-22h3.1c.48,0,.89-.34.98-.8.37-1.85,2.02-3.2,3.92-3.2,1.07,0,2.07.42,2.83,1.17.55.55.93,1.26,1.09,2.03.1.47.5.8.98.8h3.1s0,22,0,22Zm-3-17c0,.55-.45,1-1,1h-8c-.55,0-1-.45-1-1s.45-1,1-1h8c.55,0,1,.45,1,1Zm0,6c0,.55-.45,1-1,1h-8c-.55,0-1-.45-1-1s.45-1,1-1h8c.55,0,1,.45,1,1Zm0,6c0,.55-.45,1-1,1h-8c-.55,0-1-.45-1-1s.45-1,1-1h8c.55,0,1,.45,1,1Z"/></svg>