<?xml version="1.0" encoding="UTF-8"?><svg id="Filled_Line" xmlns="http://www.w3.org/2000/svg" viewBox="0 0 64 64"><defs><style>.cls-1{fill:#edae65;}.cls-2{fill:#d88852;}.cls-3{fill:#c2623e;}.cls-4{fill:#e26677;}.cls-5{fill:#1a2c3d;}</style></defs><path class="cls-3" d="m29,21h6v38c0,.55-.45,1-1,1h-4c-.55,0-1-.45-1-1V21h0Z"/><rect class="cls-4" x="12" y="4" width="40" height="8" rx="2" ry="2"/><path class="cls-1" d="m50.94,60h-4c-.53,0-.97-.41-1-.94l-2.38-38.06h-23.12l-2.38,38.06c-.03.53-.47.94-1,.94h-4c-.58,0-1.03-.49-1-1.06l2.93-46.94h34l2.93,46.94c.04.58-.42,1.06-1,1.06Z"/><polygon class="cls-2" points="44.97 43.5 19.03 43.5 19.41 37.5 44.59 37.5 44.97 43.5"/><path class="cls-5" d="m53,10v-4c0-1.65-1.35-3-3-3H14c-1.65,0-3,1.35-3,3v4c0,1.63,1.31,2.96,2.94,2.99l-2.87,45.88c-.03.55.16,1.09.54,1.49.38.4.91.63,1.46.63h4c1.05,0,1.93-.82,2-1.88l.92-14.62h8.03v14.5c0,1.1.9,2,2,2h4c1.1,0,2-.9,2-2v-14.5h8.03l.92,14.63c.07,1.05.94,1.87,2,1.87h4c.55,0,1.08-.23,1.46-.63.38-.4.57-.95.54-1.49l-2.87-45.88c1.62-.03,2.94-1.36,2.94-2.99Zm-10.38,12l.91,14.5h-7.53v-14.5h6.62Zm-8.62,14.5h-4v-14.5h4v14.5Zm-6,0h-7.53l.91-14.5h6.62v14.5Zm6,22.5h-4v-14.5h4v14.5Zm-13.9-16.5l.25-4h23.3l.25,4h-23.81Zm26.84,16.5l-2.38-38.06c-.03-.53-.47-.94-1-.94h-23.12c-.53,0-.96.41-1,.94l-2.38,38.06h-4l2.88-46h32.12l2.88,46h-4Zm4.06-49c0,.55-.45,1-1,1H14c-.55,0-1-.45-1-1v-4c0-.55.45-1,1-1h36c.55,0,1,.45,1,1v4Z"/></svg>