<?xml version="1.0" encoding="UTF-8"?><svg id="Filled_Line" xmlns="http://www.w3.org/2000/svg" viewBox="0 0 64 64"><defs><style>.cls-1{fill:#edae65;}.cls-2{fill:#a26a55;}.cls-3{fill:#6581c6;}.cls-4{fill:#d88852;}.cls-5{fill:#d3dce5;}.cls-6{fill:#e26677;}.cls-7{fill:#d85364;}.cls-8{fill:#1a2c3d;}.cls-9{fill:#78b24c;}</style></defs><path class="cls-1" d="m50,14c0-4,4-9,4-9,0,0,4,5,4,9"/><rect class="cls-5" x="6" y="5" width="36" height="54" rx="2" ry="2"/><circle class="cls-6" cx="32" cy="15" r="5"/><circle class="cls-7" cx="32" cy="32" r="5"/><circle class="cls-9" cx="32" cy="49" r="5"/><circle class="cls-3" cx="16" cy="15" r="5"/><circle class="cls-1" cx="16" cy="32" r="5"/><circle class="cls-4" cx="16" cy="49" r="5"/><path class="cls-2" d="m51,19h6v37c0,1.66-1.34,3-3,3h0c-1.66,0-3-1.34-3-3V19h0Z"/><polygon class="cls-5" points="57 19 51 19 50 14 58 14 57 19"/><path class="cls-8" d="m40,4H8c-1.65,0-3,1.35-3,3v50c0,1.65,1.35,3,3,3h32c1.65,0,3-1.35,3-3V7c0-1.65-1.35-3-3-3Zm1,53c0,.55-.45,1-1,1H8c-.55,0-1-.45-1-1V7c0-.55.45-1,1-1h32c.55,0,1,.45,1,1v50Zm-9-48c-3.31,0-6,2.69-6,6s2.69,6,6,6,6-2.69,6-6-2.69-6-6-6Zm0,10c-2.21,0-4-1.79-4-4s1.79-4,4-4,4,1.79,4,4-1.79,4-4,4Zm0,7c-3.31,0-6,2.69-6,6s2.69,6,6,6,6-2.69,6-6-2.69-6-6-6Zm0,10c-2.21,0-4-1.79-4-4s1.79-4,4-4,4,1.79,4,4-1.79,4-4,4Zm0,7c-3.31,0-6,2.69-6,6s2.69,6,6,6,6-2.69,6-6-2.69-6-6-6Zm0,10c-2.21,0-4-1.79-4-4s1.79-4,4-4,4,1.79,4,4-1.79,4-4,4ZM16,9c-3.31,0-6,2.69-6,6s2.69,6,6,6,6-2.69,6-6-2.69-6-6-6Zm0,10c-2.21,0-4-1.79-4-4s1.79-4,4-4,4,1.79,4,4-1.79,4-4,4Zm0,7c-3.31,0-6,2.69-6,6s2.69,6,6,6,6-2.69,6-6-2.69-6-6-6Zm0,10c-2.21,0-4-1.79-4-4s1.79-4,4-4,4,1.79,4,4-1.79,4-4,4Zm0,7c-3.31,0-6,2.69-6,6s2.69,6,6,6,6-2.69,6-6-2.69-6-6-6Zm0,10c-2.21,0-4-1.79-4-4s1.79-4,4-4,4,1.79,4,4-1.79,4-4,4ZM59,14c0-4.3-4.05-9.41-4.22-9.62-.38-.47-1.18-.47-1.56,0-.17.22-4.22,5.32-4.22,9.62,0,.04.01.17.02.2l.98,4.9v36.9c0,2.21,1.79,4,4,4s4-1.79,4-4V19.1l.98-4.9s.02-.16.02-.2Zm-7.78,1h5.56l-.6,3h-4.36l-.6-3Zm2.78-8.3c.97,1.41,2.53,3.97,2.91,6.3h-5.83c.38-2.33,1.95-4.9,2.91-6.3Zm2,49.3c0,1.1-.9,2-2,2s-2-.9-2-2V20h4v36Z"/></svg>