<?xml version="1.0" encoding="UTF-8"?><svg id="Filled_Line" xmlns="http://www.w3.org/2000/svg" viewBox="0 0 64 64"><defs><style>.cls-1{fill:#edae65;}.cls-2{fill:#d88852;}.cls-3{fill:#d3dce5;}.cls-4{fill:#1a2c3d;}.cls-5{fill:#536882;}</style></defs><path class="cls-1" d="m19,5h34c1.1,0,2,.9,2,2v50c0,1.1-.9,2-2,2H19V5h0Z"/><path class="cls-2" d="m14,5h5v54h-5c-1.1,0-2-.9-2-2V7c0-1.1.9-2,2-2Z"/><rect class="cls-5" x="9" y="10" width="6" height="4" rx="2" ry="2"/><rect class="cls-5" x="9" y="20" width="6" height="4" rx="2" ry="2"/><rect class="cls-5" x="9" y="30" width="6" height="4" rx="2" ry="2"/><rect class="cls-5" x="9" y="40" width="6" height="4" rx="2" ry="2"/><rect class="cls-5" x="9" y="50" width="6" height="4" rx="2" ry="2"/><rect class="cls-5" x="47" y="5" width="4" height="54"/><rect class="cls-3" x="24" y="10" width="18" height="20" rx="1" ry="1"/><path class="cls-4" d="m53,4H14c-1.65,0-3,1.35-3,3v2c-1.65,0-3,1.35-3,3s1.35,3,3,3v4c-1.65,0-3,1.35-3,3s1.35,3,3,3v4c-1.65,0-3,1.35-3,3s1.35,3,3,3v4c-1.65,0-3,1.35-3,3s1.35,3,3,3v4c-1.65,0-3,1.35-3,3s1.35,3,3,3v2c0,1.65,1.35,3,3,3h39c1.65,0,3-1.35,3-3V7c0-1.65-1.35-3-3-3ZM10,12c0-.55.45-1,1-1h2c.55,0,1,.45,1,1s-.45,1-1,1h-2c-.55,0-1-.45-1-1Zm0,10c0-.55.45-1,1-1h2c.55,0,1,.45,1,1s-.45,1-1,1h-2c-.55,0-1-.45-1-1Zm0,10c0-.55.45-1,1-1h2c.55,0,1,.45,1,1s-.45,1-1,1h-2c-.55,0-1-.45-1-1Zm0,10c0-.55.45-1,1-1h2c.55,0,1,.45,1,1s-.45,1-1,1h-2c-.55,0-1-.45-1-1Zm0,10c0-.55.45-1,1-1h2c.55,0,1,.45,1,1s-.45,1-1,1h-2c-.55,0-1-.45-1-1Zm3,5v-2c1.65,0,3-1.35,3-3s-1.35-3-3-3v-4c1.65,0,3-1.35,3-3s-1.35-3-3-3v-4c1.65,0,3-1.35,3-3s-1.35-3-3-3v-4c1.65,0,3-1.35,3-3s-1.35-3-3-3v-4c1.65,0,3-1.35,3-3s-1.35-3-3-3v-2c0-.55.45-1,1-1h4v52h-4c-.55,0-1-.45-1-1ZM20,6h26v52h-26V6Zm28,52V6h2v52h-2Zm6-1c0,.55-.45,1-1,1h-1V6h1c.55,0,1,.45,1,1v50Zm-13-48h-16c-1.1,0-2,.9-2,2v18c0,1.1.9,2,2,2h16c1.1,0,2-.9,2-2V11c0-1.1-.9-2-2-2Zm-16,20V11h16v18s-16,0-16,0Zm14-14c0,.55-.45,1-1,1h-10c-.55,0-1-.45-1-1s.45-1,1-1h10c.55,0,1,.45,1,1Zm0,5c0,.55-.45,1-1,1h-10c-.55,0-1-.45-1-1s.45-1,1-1h10c.55,0,1,.45,1,1Zm0,5c0,.55-.45,1-1,1h-10c-.55,0-1-.45-1-1s.45-1,1-1h10c.55,0,1,.45,1,1Z"/></svg>