<?xml version="1.0" encoding="UTF-8"?><svg id="Filled_Line" xmlns="http://www.w3.org/2000/svg" viewBox="0 0 64 64"><defs><style>.cls-1{fill:#edae65;}.cls-2{fill:#d3dce5;}.cls-3{fill:#e26677;}.cls-4{fill:#1a2c3d;}</style></defs><rect class="cls-1" x="19" y="24" width="26" height="32"/><rect class="cls-2" x="17" y="20" width="30" height="4" rx="1" ry="1"/><rect class="cls-2" x="19" y="32" width="26" height="16"/><rect class="cls-2" x="17" y="56" width="30" height="4" rx="1" ry="1"/><path class="cls-2" d="m36,5v9h-8V5c0-.55.45-1,1-1h6c.55,0,1,.45,1,1Z"/><path class="cls-3" d="m45,20h-26c.91-1.16,2.49-2.85,5-4.29,1.46-.84,2.86-1.37,4-1.71h8c1.14.35,2.54.88,4,1.71,2.51,1.43,4.09,3.12,5,4.29Z"/><path class="cls-3" d="m35,41c0,1.66-1.34,3-3,3s-3-1.34-3-3,3-5,3-5c0,0,3,3.34,3,5Z"/><path class="cls-4" d="m46,25c1.1,0,2-.9,2-2v-2c0-1.1-.9-2-2-2h-.55c-1.37-1.64-3.03-3.05-4.96-4.15-1.09-.63-2.27-1.15-3.5-1.57V5c0-1.1-.9-2-2-2h-6c-1.1,0-2,.9-2,2v8.28c-1.23.42-2.4.94-3.5,1.57-1.93,1.11-3.59,2.51-4.96,4.15h-.55c-1.1,0-2,.9-2,2v2c0,1.1.9,2,2,2v30c-1.1,0-2,.9-2,2v2c0,1.1.9,2,2,2h28c1.1,0,2-.9,2-2v-2c0-1.1-.9-2-2-2v-30Zm-26,8h24v14h-24v-14ZM29,5h6v3h-1c-.55,0-1,.45-1,1s.45,1,1,1h1v3h-6V5Zm-4.5,11.58c1.13-.65,2.36-1.18,3.65-1.58h7.7c1.29.4,2.52.93,3.65,1.58,1.2.69,2.29,1.5,3.25,2.42h-21.5c.96-.92,2.05-1.73,3.25-2.42Zm-6.5,4.42h28v2s-28,0-28,0v-2Zm26,4v6h-24v-6h24Zm2,34h-28v-2h28v2Zm-26-4v-6h24v6h-24Zm11.26-19.67c-.54.61-3.26,3.73-3.26,5.67,0,2.21,1.79,4,4,4s4-1.79,4-4c0-1.94-2.71-5.06-3.26-5.67-.38-.42-1.11-.42-1.49,0Zm.74,7.67c-1.1,0-2-.9-2-2,0-.64.94-2.13,2-3.45,1.06,1.33,2,2.83,2,3.45,0,1.1-.9,2-2,2Z"/></svg>