<?xml version="1.0" encoding="UTF-8"?><svg id="Filled_Line" xmlns="http://www.w3.org/2000/svg" viewBox="0 0 64 64"><defs><style>.cls-1{fill:#edae65;}.cls-2{fill:#d3dce5;}.cls-3{fill:#e26677;}.cls-4{fill:#1a2c3d;}</style></defs><path class="cls-2" d="m41.05,47.61l-13.1,13.1c-.19.18-.44.29-.71.29h-5.65c-.27,0-.52-.11-.71-.29L3.88,43.71c-1.17-1.17-1.17-3.08,0-4.25l14.51-14.51c.39-.39,1.03-.39,1.42,0l21.24,21.24c.39.39.39,1.03,0,1.42Z"/><path class="cls-3" d="m60.12,28.54l-14.51,14.52c-.19.18-.44.29-.71.29s-.52-.11-.71-.29l-21.24-21.24c-.39-.39-.39-1.03,0-1.42l14.51-14.52c1.17-1.17,3.08-1.17,4.25,0l18.41,18.41c1.17,1.17,1.17,3.08,0,4.25Z"/><rect class="cls-1" x="27.78" y="17.98" width="8.44" height="32.05" transform="translate(-14.67 32.59) rotate(-45)"/><path class="cls-4" d="m60.12,24.29L41.71,5.88c-1.13-1.13-3.11-1.13-4.24,0L3.88,39.47c-1.17,1.17-1.17,3.07,0,4.24l17,17c.19.19.44.29.71.29h32.41c.55,0,1-.45,1-1s-.45-1-1-1h-24.34l30.46-30.46c1.17-1.17,1.17-3.07,0-4.24Zm-19.77,21.19l-19.83-19.83,3.14-3.14,19.83,19.83-3.14,3.14Zm-18.35,13.52L5.29,42.29c-.39-.39-.39-1.02,0-1.41l13.81-13.81,19.83,19.83-12.1,12.1h-4.83Zm36.71-31.88l-13.81,13.81-19.83-19.83,13.81-13.81c.39-.39,1.02-.39,1.41,0l18.41,18.41c.39.39.39,1.02,0,1.41Z"/></svg>