<?xml version="1.0" encoding="UTF-8"?><svg id="Filled_Line" xmlns="http://www.w3.org/2000/svg" viewBox="0 0 64 64"><defs><style>.cls-1{fill:#edae65;}.cls-2{fill:#a26a55;}.cls-3{fill:#d3dce5;}.cls-4{fill:#e26677;}.cls-5{fill:#1a2c3d;}.cls-6{fill:#536882;}</style></defs><rect class="cls-3" x="8" y="4" width="42" height="14" rx="2" ry="2"/><path class="cls-6" d="m5,8h3v6h-3c-.55,0-1-.45-1-1v-4c0-.55.45-1,1-1Z"/><path class="cls-6" d="m51,8h3v6h-3c-.55,0-1-.45-1-1v-4c0-.55.45-1,1-1Z" transform="translate(104 22) rotate(-180)"/><path class="cls-1" d="m28,37h2c.55,0,1,.45,1,1v3h-4v-3c0-.55.45-1,1-1Z"/><path class="cls-2" d="m27,41h4c.55,0,1,.45,1,1v15c0,1.66-1.34,3-3,3h0c-1.66,0-3-1.34-3-3v-15c0-.55.45-1,1-1Z"/><path class="cls-4" d="m38,4v7c0,1.66-1.34,3-3,3s-3-1.34-3-3v8c0,1.66-1.34,3-3,3s-3-1.34-3-3v-9c0,1.66-1.34,3-3,3s-3-1.34-3-3v-6h18Z"/><path class="cls-5" d="m58,10h-3v-1c0-1.1-.9-2-2-2h-2v-1c0-1.65-1.35-3-3-3H10c-1.65,0-3,1.35-3,3v1h-2c-1.1,0-2,.9-2,2v4c0,1.1.9,2,2,2h2v1c0,1.65,1.35,3,3,3h15c0,2.21,1.79,4,4,4s4-1.79,4-4h15c1.65,0,3-1.35,3-3v-1h2c1.1,0,2-.9,2-2v-1h3c.55,0,1,.45,1,1v11.4c0,.47-.32.87-.76.97l-27.9,5.58c-1.38.31-2.34,1.51-2.34,2.93v2.12c-1.1,0-2,.9-2,2v2.28c-.59.35-1,.99-1,1.72v15c0,2.21,1.79,4,4,4s4-1.79,4-4v-15c0-.74-.41-1.37-1-1.72v-2.28c0-1.1-.9-2-2-2v-2.12c0-.47.32-.87.76-.97l27.9-5.58c1.38-.31,2.34-1.51,2.34-2.93v-11.4c0-1.65-1.35-3-3-3ZM5,13v-4h2v4h-2Zm5,4c-.55,0-1-.45-1-1V6c0-.55.45-1,1-1h9v5c0,2.21,1.79,4,4,4,.73,0,1.41-.2,2-.54v3.54h-15Zm21,2c0,1.1-.9,2-2,2s-2-.9-2-2v-9c0-.55-.45-1-1-1s-1,.45-1,1c0,1.1-.9,2-2,2s-2-.9-2-2v-5h16v6c0,1.1-.9,2-2,2s-2-.9-2-2c0-.55-.45-1-1-1s-1,.45-1,1v8Zm18-3c0,.55-.45,1-1,1h-15v-2.54c.59.34,1.27.54,2,.54,2.21,0,4-1.79,4-4v-6h9c.55,0,1,.45,1,1v10Zm4-3h-2v-4h2v4Zm-25,25h2v2h-2v-2Zm3,19c0,1.1-.9,2-2,2s-2-.9-2-2v-15h4v15Z"/></svg>