<?xml version="1.0" encoding="UTF-8"?><svg id="Filled_Line" xmlns="http://www.w3.org/2000/svg" viewBox="0 0 64 64"><defs><style>.cls-1{fill:#edae65;}.cls-2{fill:#d3dce5;}.cls-3{fill:#e26677;}.cls-4{fill:#1a2c3d;}.cls-5{fill:#536882;}</style></defs><rect class="cls-5" x="13" y="10" width="12" height="6" rx="1" ry="1"/><rect class="cls-2" x="16" y="16" width="6" height="5"/><polygon class="cls-5" points="27 27 11 27 16 21 22 21 27 27"/><polygon class="cls-2" points="29 55 9 55 11 27 27 27 29 55"/><path class="cls-5" d="m9,55h20v4c0,.55-.45,1-1,1H10c-.55,0-1-.45-1-1v-4h0Z"/><path class="cls-3" d="m22,43c0,1.66-1.34,3-3,3s-3-1.34-3-3,3-6,3-6c0,0,3,4.34,3,6Z"/><path class="cls-2" d="m42,16h4c.55,0,1,.45,1,1v4h-6v-4c0-.55.45-1,1-1Z"/><polygon class="cls-5" points="52 27 36 27 41 21 47 21 52 27"/><polygon class="cls-2" points="54 55 34 55 36 27 52 27 54 55"/><path class="cls-5" d="m34,55h20v4c0,.55-.45,1-1,1h-18c-.55,0-1-.45-1-1v-4h0Z"/><path class="cls-1" d="m47,43c0,1.66-1.34,3-3,3s-3-1.34-3-3,3-6,3-6c0,0,3,4.34,3,6Z"/><path class="cls-1" d="m59,17.26h-.92c-3.54,0-6.43-2.88-6.43-6.43,0-1.56-1.27-2.83-2.83-2.83s-2.83,1.27-2.83,2.83v5.17h-4v-5.17c0-3.77,3.06-6.83,6.83-6.83s6.83,3.06,6.83,6.83c0,1.34,1.09,2.43,2.43,2.43h.92"/><path class="cls-4" d="m44.82,36.43c-.38-.54-1.27-.54-1.65,0-.53.77-3.18,4.69-3.18,6.57,0,2.21,1.79,4,4,4s4-1.79,4-4c0-1.87-2.65-5.8-3.18-6.57Zm-.82,8.57c-1.1,0-2-.9-2-2,0-.66.93-2.47,2-4.18,1.07,1.7,2,3.52,2,4.18,0,1.1-.9,2-2,2Zm-14,9.93l-2-28c-.02-.21-.1-.41-.23-.57l-4.77-5.72v-3.64h1c1.1,0,2-.9,2-2v-4c0-1.1-.9-2-2-2h-10c-1.1,0-2,.9-2,2v4c0,1.1.9,2,2,2h1v3.64l-4.77,5.72c-.13.16-.21.36-.23.57l-2,28s0,.06,0,.07v4c0,1.1.9,2,2,2h18c1.1,0,2-.9,2-2v-4s0-.06,0-.07Zm-13.53-32.93h5.06l3.33,4h-11.73l3.33-4Zm-2.47-11h10v4s-10,0-10,0v-4Zm7,6v3h-4v-3h4Zm-9.07,11h14.14l1.86,26H10.07l1.86-26Zm-1.93,31v-3h18v3s-18,0-18,0Zm9.82-22.57c-.37-.54-1.27-.54-1.65,0-.53.77-3.18,4.69-3.18,6.57,0,2.21,1.79,4,4,4s4-1.79,4-4c0-1.87-2.65-5.8-3.18-6.57Zm-.82,8.57c-1.1,0-2-.9-2-2,0-.66.93-2.47,2-4.18,1.07,1.7,2,3.52,2,4.18,0,1.1-.9,2-2,2Zm40-28.74h-.92c-2.99,0-5.43-2.43-5.43-5.43,0-2.11-1.72-3.83-3.83-3.83s-3.83,1.72-3.83,3.83v4.17h-2v-4.17c0-3.21,2.62-5.83,5.83-5.83s5.83,2.62,5.83,5.83c0,1.89,1.54,3.43,3.43,3.43h.92c.55,0,1-.45,1-1s-.45-1-1-1h-.92c-.79,0-1.43-.64-1.43-1.43,0-4.32-3.51-7.83-7.83-7.83s-7.83,3.51-7.83,7.83v4.45c-.59.35-1,.98-1,1.72v3.64l-4.77,5.72c-.13.16-.21.36-.23.57l-2,28s0,.06,0,.07v4c0,1.1.9,2,2,2h18c1.1,0,2-.9,2-2v-4s0-.06,0-.07l-2-28c-.01-.21-.09-.41-.23-.57l-4.77-5.72v-3.64c0-.74-.41-1.37-1-1.72v-4.45c0-1.01.82-1.83,1.83-1.83s1.83.82,1.83,1.83c0,4.09,3.33,7.43,7.43,7.43h.92c.55,0,1-.45,1-1s-.45-1-1-1Zm-13,.74v3h-4v-3h4Zm-4.53,5h5.06l3.33,4h-11.73l3.33-4Zm-6.47,37v-3h18v3s-18,0-18,0Zm17.93-5h-17.85l1.86-26h14.14l1.86,26Z"/></svg>