<?xml version="1.0" encoding="UTF-8"?><svg id="Filled_Line" xmlns="http://www.w3.org/2000/svg" viewBox="0 0 64 64"><defs><style>.cls-1{fill:#b8c3d5;}.cls-2{fill:#d3dce5;}.cls-3{fill:#1a2c3d;}.cls-4{fill:#78b24c;}.cls-5{fill:#50823f;}</style></defs><path class="cls-2" d="m7,52h50c.55,0,1,.45,1,1v3H6v-3c0-.55.45-1,1-1Z"/><rect class="cls-1" x="4" y="56" width="56" height="4" rx="1" ry="1"/><path class="cls-2" d="m4,14h56v5c0,.55-.45,1-1,1H5c-.55,0-1-.45-1-1v-5h0Z"/><polygon class="cls-1" points="60 14 4 14 32 4 60 14"/><rect class="cls-2" x="10" y="26" width="6" height="20"/><path class="cls-1" d="m8,20h10v5c0,.55-.45,1-1,1h-8c-.55,0-1-.45-1-1v-5h0Z"/><path class="cls-1" d="m9,46h8c.55,0,1,.45,1,1v5h-10v-5c0-.55.45-1,1-1Z"/><rect class="cls-2" x="48" y="26" width="6" height="20" transform="translate(102 72) rotate(-180)"/><path class="cls-1" d="m47,20h8c.55,0,1,.45,1,1v5h-10v-5c0-.55.45-1,1-1Z" transform="translate(102 46) rotate(-180)"/><path class="cls-1" d="m46,46h10v5c0,.55-.45,1-1,1h-8c-.55,0-1-.45-1-1v-5h0Z" transform="translate(102 98) rotate(-180)"/><rect class="cls-2" x="22" y="26" width="20" height="20" rx="1.54" ry="1.54"/><path class="cls-5" d="m42,41.25v3.21c0,.85-.69,1.54-1.54,1.54h-10.92l6.58-9.67c.61-.9,1.93-.9,2.54,0l3.35,4.92Z"/><path class="cls-4" d="m37.05,46h-13.51c-.85,0-1.54-.69-1.54-1.54v-2.48l4.88-7.18c.61-.9,1.93-.9,2.54,0l7.62,11.21Z"/><path class="cls-3" d="m57,25v-4h2c1.1,0,2-.9,2-2v-5c0-.42-.27-.8-.66-.94L32.34,3.06c-.22-.08-.46-.08-.67,0L3.66,13.06c-.4.14-.66.52-.66.94v5c0,1.1.9,2,2,2h2v4c0,1.1.9,2,2,2v18c-1.1,0-2,.9-2,2v4c-1.1,0-2,.9-2,2v2c-1.1,0-2,.9-2,2v2c0,1.1.9,2,2,2h54c1.1,0,2-.9,2-2v-2c0-1.1-.9-2-2-2v-2c0-1.1-.9-2-2-2v-4c0-1.1-.9-2-2-2v-18c1.1,0,2-.9,2-2Zm-2,0h-8v-4h8v4Zm-8,20c-1.1,0-2,.9-2,2v4h-26v-4c0-1.1-.9-2-2-2v-18c1.1,0,2-.9,2-2v-4h26v4c0,1.1.9,2,2,2v18ZM32,5.06l22.23,7.94H9.77l22.23-7.94ZM5,15h54v4H5v-4Zm12,6v4s-1,0-1,0h-7v-4h8Zm-6,6h4v18h-4v-18Zm-2,20h8v4h-8v-4Zm50,12H5v-2h54v2Zm-52-4v-2h50v2H7Zm40-4v-4h8v4h-8Zm6-6h-4v-18h4v18Zm-12.54-20h-16.92c-1.4,0-2.54,1.14-2.54,2.54v16.92c0,1.4,1.14,2.54,2.54,2.54h16.92c1.4,0,2.54-1.14,2.54-2.54v-16.92c0-1.4-1.14-2.54-2.54-2.54Zm-16.92,2h16.92c.29,0,.54.25.54.54v10.47l-1.52-2.23c-.47-.7-1.25-1.12-2.1-1.12h0c-.84,0-1.63.42-2.09,1.11l-2,2.94-3.04-4.47c-.47-.7-1.26-1.12-2.1-1.12s-1.63.42-2.1,1.11l-3.06,4.5v-11.19c0-.29.25-.54.54-.54Zm-.54,17.46v-2.18l4.71-6.93c.14-.2.33-.23.44-.23s.3.03.44.24l6.56,9.65h-11.62c-.29,0-.54-.25-.54-.54Zm17.46.54h-2.89l-3.07-4.52,2.45-3.59c.14-.21.35-.23.43-.23.08,0,.29.02.44.24l3.18,4.66v2.9c0,.29-.25.54-.54.54Zm-7.92-12.85c0-.55.45-1,1-1s1,.45,1,1-.45,1-1,1-1-.45-1-1Z"/></svg>