<?xml version="1.0" encoding="UTF-8"?><svg id="Filled_Line" xmlns="http://www.w3.org/2000/svg" viewBox="0 0 64 64"><defs><style>.cls-1{fill:#a26a55;}.cls-2{fill:#d3dce5;}.cls-3{fill:#1a2c3d;}.cls-4{fill:#894c3d;}</style></defs><polyline class="cls-4" points="30 60 30 46 34 46 34 60"/><polyline class="cls-4" points="19 60 22 46 26 46 23 60"/><polyline class="cls-4" points="45 60 42 46 38 46 41 60"/><rect class="cls-2" x="8" y="12" width="48" height="32" rx="2" ry="2"/><path class="cls-1" d="m27,8h10c.55,0,1,.45,1,1v3h-12v-3c0-.55.45-1,1-1Z"/><rect class="cls-1" x="19" y="42" width="26" height="4" rx="1" ry="1"/><path class="cls-4" d="m31,4h2c.55,0,1,.45,1,1v3h-4v-3c0-.55.45-1,1-1Z"/><path class="cls-3" d="m54,11h-15v-2c0-1.1-.9-2-2-2h-2v-2c0-1.1-.9-2-2-2h-2c-1.1,0-2,.9-2,2v2h-2c-1.1,0-2,.9-2,2v2h-15c-1.65,0-3,1.35-3,3v28c0,1.65,1.35,3,3,3h8c0,1.1.9,2,2,2h.76l-2.74,12.79c-.12.54.23,1.07.77,1.19.54.12,1.07-.23,1.19-.77l2.83-13.21h1.95l-2.74,12.79c-.12.54.23,1.07.77,1.19.07.02.14.02.21.02.46,0,.88-.32.98-.79l2.83-13.21h2.19v13c0,.55.45,1,1,1s1-.45,1-1v-13h2v13c0,.55.45,1,1,1s1-.45,1-1v-13h2.19l2.83,13.21c.12.54.64.88,1.19.77.54-.12.88-.65.77-1.19l-2.74-12.79h1.95l2.83,13.21c.1.47.51.79.98.79.07,0,.14,0,.21-.02.54-.12.88-.65.77-1.19l-2.74-12.79h.76c1.1,0,2-.9,2-2h8c1.65,0,3-1.35,3-3V14c0-1.65-1.35-3-3-3Zm-23-6h2v2h-2v-2Zm-4,4h10v2h-10v-2Zm-7,36v-2h24v2s-24,0-24,0Zm35-3c0,.55-.45,1-1,1h-8c0-1.1-.9-2-2-2h-24c-1.1,0-2,.9-2,2h-8c-.55,0-1-.45-1-1V14c0-.55.45-1,1-1h44c.55,0,1,.45,1,1v28Z"/></svg>