<?xml version="1.0" encoding="UTF-8"?><svg id="Filled_Line" xmlns="http://www.w3.org/2000/svg" viewBox="0 0 64 64"><defs><style>.cls-1{fill:#edae65;}.cls-2{fill:#a26a55;}.cls-3{fill:#b8c3d5;}.cls-4{fill:#d3dce5;}.cls-5{fill:#1a2c3d;}.cls-6{fill:#894c3d;}</style></defs><path class="cls-4" d="m42.47,26.18l-4.65-4.65.65-5.88c.08-.69.48-1.3,1.08-1.65l16.91-9.83c.43-.28,1-.21,1.36.15l1.86,1.86c.36.36.43.93.15,1.36l-9.83,16.91c-.35.6-.96,1-1.65,1.08l-5.88.65Z"/><path class="cls-3" d="m37.62,19.61h.39c1.1,0,2,.9,2,2v11.16h-4.39v-11.16c0-1.1.9-2,2-2Z" transform="translate(29.59 -19.07) rotate(45)"/><path class="cls-1" d="m29.32,30.19h4.58c.55,0,1,.45,1,1v3.39h-6.58v-3.39c0-.55.45-1,1-1Z" transform="translate(32.16 -12.87) rotate(45)"/><path class="cls-2" d="m5.25,58.75s6.98,3.88,11.94-1.98l15.33-18.96c.37-.44.34-1.08-.06-1.48l-4.78-4.78c-.4-.4-1.05-.43-1.48-.06l-18.96,15.33c-5.86,4.96-1.98,11.94-1.98,11.94h0"/><circle class="cls-6" cx="10.68" cy="53.32" r="2.19"/><path class="cls-5" d="m60.39,5.47l-1.86-1.86c-.68-.68-1.78-.81-2.57-.31l-16.91,9.83c-.87.51-1.45,1.4-1.57,2.4l-.65,5.88c-.03.3.07.6.29.82l.07.07-5.74,5.74c-.69-.21-1.49-.06-2.02.47l-1.84,1.84c-.68-.24-1.45-.13-2.02.36l-18.97,15.34c-6.41,5.43-2.25,13.11-2.21,13.18.09.16.23.3.39.39.04.02,2.52,1.36,5.64,1.36,2.4,0,5.2-.79,7.56-3.59l15.32-18.94c.5-.59.61-1.36.37-2.04l1.84-1.84c.38-.38.59-.88.59-1.42,0-.21-.04-.42-.11-.61l5.73-5.73.07.07c.19.19.44.29.71.29.04,0,.07,0,.11,0l5.89-.65c1-.12,1.89-.7,2.4-1.57l9.81-16.88c.52-.82.39-1.92-.29-2.6Zm-20.18,16.63c.39-.39,1.02-.39,1.41,0l.27.27c.39.39.39,1.02,0,1.41l-7.18,7.18-1.69-1.69,7.18-7.18Zm-8.47,15.08l-15.31,18.94c-3.9,4.61-9.19,2.48-10.43,1.88-.59-1.24-2.73-6.53,1.87-10.42l18.97-15.34s.09-.03.13,0l4.78,4.78s.04.09,0,.15Zm.65-2.33l-3.24-3.24,1.69-1.69,3.24,3.24-1.69,1.69ZM58.97,7.04l-9.83,16.91c-.19.33-.53.55-.9.59l-4.82.53c1.05-1.18,1.02-2.98-.11-4.11l-.27-.27c-1.13-1.13-2.93-1.16-4.11-.11l.53-4.81c.04-.37.26-.71.59-.9l16.94-9.85s.09-.02.12,0l1.86,1.86s.03.08,0,.15ZM8.42,51.06c-1.25,1.25-1.25,3.27,0,4.52.62.62,1.44.93,2.26.93s1.64-.31,2.26-.93c1.25-1.25,1.25-3.27,0-4.52-1.25-1.25-3.27-1.25-4.52,0Zm3.1,3.1c-.47.46-1.22.46-1.69,0-.47-.46-.47-1.22,0-1.69.23-.23.54-.35.84-.35s.61.12.84.35c.47.46.47,1.22,0,1.69Z"/></svg>