<?xml version="1.0" encoding="UTF-8"?><svg id="Filled_Line" xmlns="http://www.w3.org/2000/svg" viewBox="0 0 64 64"><defs><style>.cls-1{fill:#edae65;}.cls-2{fill:#a26a55;}.cls-3{fill:#d3dce5;}.cls-4{fill:#1a2c3d;}.cls-5{fill:#536882;}.cls-6{fill:#894c3d;}.cls-7{fill:#78b24c;}.cls-8{fill:#50823f;}</style></defs><path class="cls-3" d="m54,12H10c-1.1,0-2,.9-2,2v18s5-8,17-8c6.09,0,10.64,2.06,13.63,4.09h.02c.32-.25,5.73-4.09,17.35-4.09v-10c0-1.1-.9-2-2-2Zm-15,9c-1.1,0-2-.9-2-2s.9-2,2-2,2,.9,2,2-.9,2-2,2Z"/><path class="cls-8" d="m56,24v8h-13s-1.46-1.94-4.37-3.91h.02c.32-.25,5.73-4.09,17.35-4.09Z"/><path class="cls-1" d="m37,36.42c-3.08,5.54-10.43,7.58-10.43,7.58H10c-1.1,0-2-.9-2-2v-10h30s.24,2.2-1,4.42Z"/><path class="cls-1" d="m56,32v10c0,1.1-.9,2-2,2h-16.27s3.07-2.15,3.77-7.23c.36-2.63-.37-4.77-.37-4.77h14.87Z"/><path class="cls-5" d="m41.5,36.77c-.7,5.08-3.77,7.23-3.77,7.23h-11.16s7.35-2.04,10.43-7.58c1.24-2.22,1-4.42,1-4.42h3.13s.73,2.14.37,4.77Z"/><path class="cls-2" d="m27,8h10c.55,0,1,.45,1,1v3h-12v-3c0-.55.45-1,1-1Z"/><rect class="cls-2" x="19" y="42" width="26" height="4" rx="1" ry="1"/><path class="cls-6" d="m31,4h2c.55,0,1,.45,1,1v3h-4v-3c0-.55.45-1,1-1Z"/><polyline class="cls-6" points="30 60 30 46 34 46 34 60"/><polyline class="cls-6" points="19 60 22 46 26 46 23 60"/><polyline class="cls-6" points="45 60 42 46 38 46 41 60"/><path class="cls-7" d="m43,32H8s5-8,17-8c6.09,0,10.64,2.06,13.63,4.09,2.91,1.97,4.37,3.91,4.37,3.91Z"/><circle class="cls-1" cx="39" cy="19" r="2"/><path class="cls-4" d="m54,11h-15v-2c0-1.1-.9-2-2-2h-2v-2c0-1.1-.9-2-2-2h-2c-1.1,0-2,.9-2,2v2h-2c-1.1,0-2,.9-2,2v2h-15c-1.65,0-3,1.35-3,3v28c0,1.65,1.35,3,3,3h8c0,1.1.9,2,2,2h.76l-2.74,12.79c-.12.54.23,1.07.77,1.19.54.12,1.07-.23,1.19-.77l2.83-13.21h1.95l-2.74,12.79c-.12.54.23,1.07.77,1.19.07.02.14.02.21.02.46,0,.88-.32.98-.79l2.83-13.21h2.19v13c0,.55.45,1,1,1s1-.45,1-1v-13h2v13c0,.55.45,1,1,1s1-.45,1-1v-13h2.19l2.83,13.21c.12.54.64.89,1.19.77.54-.12.88-.65.77-1.19l-2.74-12.79h1.95l2.83,13.21c.1.47.51.79.98.79.07,0,.14,0,.21-.02.54-.12.88-.65.77-1.19l-2.74-12.79h.76c1.1,0,2-.9,2-2h8c1.65,0,3-1.35,3-3V14c0-1.65-1.35-3-3-3Zm-13.49,25.63c-.27,1.97-.92,3.41-1.5,4.37h-4.65c1.51-1.23,2.69-2.6,3.52-4.09.83-1.48,1.07-2.94,1.12-3.91h1.36c.17.77.36,2.11.15,3.63Zm.17-5.63H10.1c2.07-2.2,6.81-6,14.9-6s13.27,3.77,15.67,6Zm2.8,0c-.48-.56-1.48-1.64-3.02-2.83,2.06-1.08,6.79-2.99,14.54-3.15v5.98h-11.53ZM31,5h2v2h-2v-2Zm-4,4h10v2h-10v-2Zm-17,4h44c.55,0,1,.45,1,1v9.02c-9.45.18-14.68,2.83-16.36,3.87-3.12-1.99-7.65-3.89-13.64-3.89-8.41,0-13.51,3.73-16,6.24v-15.24c0-.55.45-1,1-1Zm0,30c-.55,0-1-.45-1-1v-9h27.99c-.06.74-.25,1.83-.87,2.93-1.06,1.92-2.83,3.62-5.26,5.07h-10.87c-1.1,0-2,.9-2,2h-8Zm10,2v-2h24v2s-24,0-24,0Zm34-2h-8c0-1.1-.9-2-2-2h-2.74c.6-1.24,1.03-2.62,1.23-4.09.21-1.56.07-2.95-.1-3.91h12.61v9c0,.55-.45,1-1,1Zm-15-21c1.65,0,3-1.35,3-3s-1.35-3-3-3-3,1.35-3,3,1.35,3,3,3Zm0-4c.55,0,1,.45,1,1s-.45,1-1,1-1-.45-1-1,.45-1,1-1Z"/></svg>