<?xml version="1.0" encoding="UTF-8"?><svg id="Filled_Line" xmlns="http://www.w3.org/2000/svg" viewBox="0 0 64 64"><defs><style>.cls-1{fill:#edae65;}.cls-2{fill:#a26a55;}.cls-3{fill:#b74846;}.cls-4{fill:#d3dce5;}.cls-5{fill:#d68076;}.cls-6{fill:#e26677;}.cls-7{fill:#1a2c3d;}.cls-8{fill:#536882;}</style></defs><path class="cls-1" d="m41.2,45.7l-12.2-1.7-12.2,1.7c-1.43.2-2.8.69-4.04,1.43h0c-2.95,1.78-4.76,4.98-4.76,8.43v4.44s21,0,21,0h21v-4.44c0-3.45-1.81-6.65-4.76-8.43h0c-1.24-.74-2.61-1.23-4.04-1.43Z"/><path class="cls-3" d="m35,38v7.91c0,1.3-.65,2.52-1.74,3.24h0c-2.58,1.72-5.95,1.72-8.53,0h0c-1.08-.72-1.74-1.94-1.74-3.24v-7.91h12Z"/><path class="cls-8" d="m29,9h0c7.73,0,14,6.27,14,14v5H15v-5c0-7.73,6.27-14,14-14Z"/><path class="cls-6" d="m40.35,16.36c-2.48.94-6.41,2.1-11.35,2.16-5.35.06-9.59-1.19-12.15-2.16-.29-.54-2.69-4.94-.62-7.42,3.41-4.09,7.42,1.24,12.99-1.86,5.57-3.09,9.43-4.79,12.66-.49s-1.52,9.77-1.52,9.77Z"/><path class="cls-3" d="m39,25h3c1.66,0,3,1.34,3,3h0c0,1.66-1.34,3-3,3h-3v-6h0Z"/><path class="cls-3" d="m13,25h3c1.66,0,3,1.34,3,3h0c0,1.66-1.34,3-3,3h-3v-6h0Z" transform="translate(32 56) rotate(180)"/><path class="cls-5" d="m41,25h-1.48c-3.72,0-7.36-1.04-10.52-3h0s0,0,0,0c-3.16,1.96-6.8,3-10.52,3h-1.48v5.6c0,6.61,5.17,12.28,11.78,12.4,6.73.12,12.22-5.3,12.22-12v-6Z"/><rect class="cls-2" x="49" y="41" width="6" height="17"/><path class="cls-4" d="m49,41c-.49-.58-1.6-2.17-1.3-4.57.55-4.34,4.36-6.17,4.76-6.64,0,0-.15,2.02.7,3.45,1.5,2.49,4.09,1.98,1.84,7.77h-6Z"/><path class="cls-5" d="m50,48h3c2.21,0,4,1.79,4,4v4c0,2.21-1.79,4-4,4h-3c-1.1,0-2-.9-2-2v-8c0-1.1.9-2,2-2Z"/><path class="cls-7" d="m56,48.03v-6.84c1.66-4.37.75-5.67-.81-7.14-.43-.4-.83-.78-1.17-1.33-.56-.93-.6-2.38-.56-2.86.03-.43-.2-.86-.6-1.03-.4-.16-.84-.07-1.12.26-.07.07-.2.15-.36.27-1.24.88-4.15,2.94-4.66,6.93-.31,2.44.66,4.19,1.29,5.04v6.44c-.05.05-.11.1-.16.15-.63-.63-1.32-1.19-2.08-1.65-1.34-.82-2.83-1.34-4.42-1.57l-5.34-.74v-2.02c.75-.48,1.46-1.04,2.11-1.68,2.27-2.23,3.61-5.14,3.84-8.28h.05c1.07,0,2.07-.42,2.83-1.17.76-.76,1.17-1.76,1.17-2.83,0-1.47-.81-2.75-2-3.44v-1.56c0-2.58-.67-5.09-1.92-7.32,1.33-2.06,3.27-6.13.59-9.69-3.98-5.31-9.28-2.38-13.94.22-.52.29-1.02.48-1.52.62-.13-.95-.52-2.2-1.64-3.18-.42-.36-1.05-.32-1.41.09-.37.42-.32,1.05.09,1.41.66.58.89,1.35.97,1.94-1.01-.01-1.97-.2-2.92-.4-2.32-.47-4.71-.97-6.85,1.6-2,2.41-.76,5.96.18,7.9-1.07,2.11-1.64,4.45-1.64,6.81v1.56c-1.19.69-2,1.97-2,3.44,0,1.07.42,2.07,1.17,2.83.76.76,1.76,1.17,2.83,1.17h.07c.42,4.12,2.69,7.7,5.93,9.86v2.11l-5.34.74c-1.6.22-3.08.75-4.42,1.56-1.59.96-2.92,2.32-3.85,3.96-.92,1.62-1.4,3.46-1.4,5.33v4.44c0,.55.45,1,1,1h45c2.76,0,5-2.24,5-5v-4c0-1.63-.79-3.06-2-3.97Zm-7.3-11.47c.3-2.39,1.73-3.91,2.89-4.85.12.66.33,1.4.72,2.04.48.79,1.05,1.33,1.51,1.76.99.93,1.57,1.47.49,4.49h-4.81c-.44-.64-1.01-1.83-.8-3.45Zm1.3,5.45h4v5.1c-.32-.07-.66-.1-1-.1h-3v-5Zm-6.59-12.59c-.38.38-.88.59-1.41.59v-4c1.1,0,2,.9,2,2,0,.53-.21,1.03-.59,1.41ZM17,9.57c1.31-1.58,2.58-1.4,4.91-.92,1.21.25,2.6.52,4.13.4.03,0,.05.02.08.03.05,0,.09,0,.14,0,.15,0,.29-.04.42-.1.96-.14,1.97-.45,3.03-1.04,5.73-3.18,8.72-4.3,11.37-.77,2.4,3.2-.6,7.4-1.33,8.33-3.46,1.29-7.08,1.96-10.76,2-3.95.06-7.76-.61-11.43-1.97-1.04-2.05-1.7-4.61-.56-5.98Zm-1,13.43c0-1.91.43-3.74,1.22-5.45,3.67,1.3,7.48,1.97,11.37,1.97.14,0,.28,0,.42,0,4-.05,7.92-.79,11.66-2.22.87,1.77,1.32,3.71,1.32,5.7v1h-2.48c-3.54,0-6.99-.99-9.99-2.85-.32-.2-.73-.2-1.05,0-3,1.86-6.46,2.85-9.99,2.85h-2.48v-1Zm-1.41,6.41c-.38-.38-.59-.88-.59-1.41,0-1.1.9-2,2-2v4c-.53,0-1.03-.21-1.41-.59Zm3.41,1.19v-4.6h.48s0,0,0,0c3.7,0,7.33-.98,10.52-2.83,3.19,1.86,6.82,2.83,10.52,2.83,0,0,0,0,0,0h.48v5c0,2.98-1.17,5.76-3.29,7.85-2.12,2.08-4.89,3.19-7.91,3.15-5.95-.11-10.79-5.22-10.79-11.4Zm10.76,13.4c.08,0,.16,0,.25,0,1.74,0,3.43-.34,5-1v2.91c0,.97-.48,1.88-1.29,2.42-2.2,1.47-5.21,1.47-7.41,0-.81-.54-1.3-1.45-1.3-2.42v-2.96c1.47.64,3.07,1.02,4.76,1.05Zm-19.76,11.56c0-1.52.39-3.03,1.14-4.35.76-1.33,1.84-2.45,3.14-3.23,1.1-.67,2.33-1.11,3.66-1.29l5.07-.7c.03,1.61.83,3.1,2.18,4,1.43.95,3.1,1.46,4.81,1.46s3.38-.5,4.82-1.46c1.35-.9,2.15-2.39,2.18-4l5.07.7c1.32.19,2.55.62,3.66,1.3.87.53,1.63,1.2,2.28,2,0,0,0,.01,0,.02v8c0,.35.07.69.18,1H9v-3.44Zm47,.44c0,1.65-1.35,3-3,3h-3c-.55,0-1-.45-1-1v-8c0-.55.45-1,1-1h3c1.65,0,3,1.35,3,3v4Z"/></svg>