<?xml version="1.0" encoding="UTF-8"?><svg id="Outline" xmlns="http://www.w3.org/2000/svg" viewBox="0 0 64 64"><path d="M59.13,22.6L33.8,3.6c-1.06-.79-2.54-.79-3.6,0L4.87,22.6c-.21,.16-.35,.4-.39,.66-.04,.26,.03,.53,.19,.74l2.4,3.2c.33,.44,.96,.53,1.4,.2l.53-.4V60c0,.55,.45,1,1,1H54c.55,0,1-.45,1-1V27l.53,.4c.18,.14,.39,.2,.6,.2,.3,0,.6-.14,.8-.4l2.4-3.2c.16-.21,.23-.48,.19-.74-.04-.26-.18-.5-.39-.66ZM20,59v-2h24v2H20Zm17-8h-10v-14h10v14Zm5,2v2H22v-2h20Zm11,6h-7v-3c0-.55-.45-1-1-1h-1v-3c0-.55-.45-1-1-1h-4v-15c0-.55-.45-1-1-1h-12c-.55,0-1,.45-1,1v15h-4c-.55,0-1,.45-1,1v3h-1c-.55,0-1,.45-1,1v3h-7V25.5l21-15.75,21,15.75V59Zm2.93-33.8L32.6,7.7c-.18-.13-.39-.2-.6-.2s-.42,.07-.6,.2L8.07,25.2l-1.2-1.6L31.4,5.2c.35-.27,.85-.27,1.2,0l24.53,18.4-1.2,1.6Z"/><path d="M43,45h6c.55,0,1-.45,1-1v-8c0-.55-.45-1-1-1h-6c-.55,0-1,.45-1,1v8c0,.55,.45,1,1,1Zm1-8h4v6h-4v-6Z"/><path d="M26,21c-.55,0-1,.45-1,1v6c0,.55,.45,1,1,1h12c.55,0,1-.45,1-1v-6c0-.55-.45-1-1-1h-12Zm1,2h4v4h-4v-4Zm10,4h-4v-4h4v4Z"/><path d="M21,35h-6c-.55,0-1,.45-1,1v8c0,.55,.45,1,1,1h6c.55,0,1-.45,1-1v-8c0-.55-.45-1-1-1Zm-1,8h-4v-6h4v6Z"/></svg>