<?xml version="1.0" encoding="UTF-8"?><svg id="Outline" xmlns="http://www.w3.org/2000/svg" viewBox="0 0 64 64"><path d="M59.13,22.6L33.8,3.6c-1.06-.79-2.54-.79-3.6,0L4.87,22.6c-.21,.16-.35,.4-.39,.66-.04,.26,.03,.53,.19,.74l2.4,3.2c.33,.44,.96,.53,1.4,.2l.53-.4V60c0,.55,.45,1,1,1H54c.55,0,1-.45,1-1V27l.53,.4c.18,.14,.39,.2,.6,.2,.3,0,.6-.14,.8-.4l2.4-3.2c.16-.21,.23-.48,.19-.74-.04-.26-.18-.5-.39-.66Zm-6.13,36.4H11V25.5l21-15.75,21,15.75V59Zm2.93-33.8L32.6,7.7c-.18-.13-.39-.2-.6-.2s-.42,.07-.6,.2L8.07,25.2l-1.2-1.6L31.4,5.2c.35-.26,.85-.26,1.2,0l24.53,18.4-1.2,1.6Z"/><path d="M31.46,27.16c-3.31,2.15-7.08,3.07-11.54,2.8-.27-.02-.55,.08-.75,.27-.2,.19-.31,.46-.31,.74,.17,13.39,4.12,20.78,12.8,23.96,.11,.04,.23,.06,.34,.06s.23-.02,.34-.06c8.68-3.19,12.63-10.58,12.8-23.96,0-.28-.11-.54-.31-.74-.2-.19-.47-.3-.75-.27-4.45,.26-8.23-.65-11.54-2.8-.33-.21-.76-.21-1.09,0Zm11.67,4.84c-.33,11.74-3.69,18.05-11.12,20.93-7.43-2.88-10.79-9.19-11.12-20.93,4.2,.09,7.85-.84,11.12-2.82,3.27,1.98,6.93,2.91,11.12,2.82Z"/><path d="M27.76,39.15c-.39-.39-1.02-.39-1.41,0-.39,.39-.39,1.02,0,1.41l3.87,3.87c.19,.19,.44,.29,.71,.29s.52-.11,.71-.29l7.01-7.01c.39-.39,.39-1.02,0-1.41s-1.02-.39-1.41,0l-6.31,6.31-3.17-3.17Z"/></svg>