<?xml version="1.0" encoding="UTF-8"?><svg id="Outline" xmlns="http://www.w3.org/2000/svg" viewBox="0 0 64 64"><path d="M59.13,22.6L33.8,3.6c-1.06-.79-2.54-.79-3.6,0L4.87,22.6c-.21,.16-.35,.4-.39,.66-.04,.26,.03,.53,.19,.74l2.4,3.2c.33,.44,.96,.53,1.4,.2l.53-.4V60c0,.55,.45,1,1,1H54c.55,0,1-.45,1-1V27l.53,.4c.18,.14,.39,.2,.6,.2,.3,0,.6-.14,.8-.4l2.4-3.2c.16-.21,.23-.48,.19-.74-.04-.26-.18-.5-.39-.66Zm-6.13,36.4H11V25.5l21-15.75,21,15.75V59Zm2.93-33.8L32.6,7.7c-.18-.13-.39-.2-.6-.2s-.42,.07-.6,.2L8.07,25.2l-1.2-1.6L31.4,5.2c.35-.26,.85-.26,1.2,0l24.53,18.4-1.2,1.6Z"/><path d="M20,38v3c0,.39,.23,.74,.58,.9,.35,.16,.77,.11,1.07-.14,0,0,.94-.76,2.35-.76s2.34,.76,2.35,.76c.19,.16,.42,.24,.65,.24,.16,0,.31-.04,.46-.11,.02,0,1.35-.68,3.54-.85v9.96c0,1.1-.9,2-2,2s-2-.9-2-2v-1c0-.55-.45-1-1-1s-1,.45-1,1v1c0,2.21,1.79,4,4,4s4-1.79,4-4v-9.96c2.17,.17,3.53,.84,3.54,.85,.36,.18,.8,.13,1.1-.12,0,0,.94-.76,2.35-.76s2.34,.76,2.35,.76c.3,.25,.71,.31,1.07,.15,.36-.16,.58-.52,.58-.91v-3c0-6.62-5.38-12-12-12s-12,5.38-12,12Zm16,0v1.56c-.95-.28-2.32-.56-4-.56s-3.05,.28-4,.56v-1.56c0-5.72,2.11-10,4-10s4,4.28,4,10Zm-14,1.34v-1.34c0-4.12,2.5-7.66,6.06-9.19-1.28,2.16-2.06,5.42-2.06,9.19v1.35c-.56-.2-1.22-.35-2-.35s-1.45,.15-2,.34Zm20-1.34v1.34c-.55-.19-1.23-.34-2-.34s-1.44,.15-2,.35v-1.35c0-3.78-.79-7.03-2.07-9.19,3.57,1.53,6.07,5.07,6.07,9.19Z"/></svg>