<?xml version="1.0" encoding="UTF-8"?><svg id="Outline" xmlns="http://www.w3.org/2000/svg" viewBox="0 0 64 64"><path d="M59,11H12.9c-.46-2.28-2.48-4-4.9-4-2.76,0-5,2.24-5,5V52c0,2.76,2.24,5,5,5H59c1.1,0,2-.9,2-2V13c0-1.1-.9-2-2-2ZM5,12c0-1.65,1.35-3,3-3s3,1.35,3,3V48c-.84-.63-1.88-1-3-1s-2.16,.37-3,1V12ZM59,55H8c-1.65,0-3-1.35-3-3s1.35-3,3-3,3,1.35,3,3c0,.55,.45,1,1,1s1-.45,1-1V13H59V55Z"/><path d="M21.29,50.71l2,2c.2,.2,.45,.29,.71,.29s.51-.1,.71-.29c.39-.39,.39-1.02,0-1.41l-.29-.29h27.17l-.29,.29c-.39,.39-.39,1.02,0,1.41,.2,.2,.45,.29,.71,.29s.51-.1,.71-.29l2-2c.39-.39,.39-1.02,0-1.41l-2-2c-.39-.39-1.02-.39-1.41,0s-.39,1.02,0,1.41l.29,.29H24.41l.29-.29c.39-.39,.39-1.02,0-1.41s-1.02-.39-1.41,0l-2,2c-.39,.39-.39,1.02,0,1.41Z"/><path d="M18.71,39.29c-.39-.39-1.02-.39-1.41,0s-.39,1.02,0,1.41l2,2c.2,.2,.45,.29,.71,.29s.51-.1,.71-.29l2-2c.39-.39,.39-1.02,0-1.41s-1.02-.39-1.41,0l-.29,.29V20.41l.29,.29c.2,.2,.45,.29,.71,.29s.51-.1,.71-.29c.39-.39,.39-1.02,0-1.41l-2-2c-.39-.39-1.02-.39-1.41,0l-2,2c-.39,.39-.39,1.02,0,1.41s1.02,.39,1.41,0l.29-.29v19.17l-.29-.29Z"/><path d="M28,43h26c.55,0,1-.45,1-1V18c0-.55-.45-1-1-1H28c-.55,0-1,.45-1,1v24c0,.55,.45,1,1,1Zm9-7.5h5v5.5h-13v-10h7v3.5c0,.55,.45,1,1,1Zm16-6.5h-6v-10h6v10Zm-20-10h6v4h-6v-4Zm-2,0v5c0,.55,.45,1,1,1h8c.55,0,1-.45,1-1v-5h4v11c0,.55,.45,1,1,1h7v10h-9v-6.5c0-.55-.45-1-1-1h-5v-3.5c0-.55-.45-1-1-1h-8v-10h2Z"/></svg>