<?xml version="1.0" encoding="UTF-8"?><svg id="Outline" xmlns="http://www.w3.org/2000/svg" viewBox="0 0 64 64"><path d="M59.13,22.6L33.8,3.6c-1.06-.79-2.54-.79-3.6,0L4.87,22.6c-.21,.16-.35,.4-.39,.66-.04,.26,.03,.53,.19,.74l2.4,3.2c.33,.44,.96,.53,1.4,.2l.53-.4V60c0,.55,.45,1,1,1H54c.55,0,1-.45,1-1V27l.53,.4c.18,.14,.39,.2,.6,.2,.3,0,.6-.14,.8-.4l2.4-3.2c.16-.21,.23-.48,.19-.74-.04-.26-.18-.5-.39-.66Zm-42.13,10.4h30v2H17v-2Zm30-2H17v-2h30v2Zm-30,6h30v22h-5.78c.11-.31,.18-.65,.18-1v-1h.29c1.06,0,1.91-.86,1.91-1.91v-3.24c0-.47-.14-.92-.4-1.32l-1.47-2.2-.77-5.84c-.13-.99-.98-1.74-1.98-1.74h-13.96c-1,0-1.85,.75-1.98,1.74l-.77,5.84-1.47,2.21c-.26,.39-.4,.84-.4,1.31v3.24c0,1.06,.86,1.91,1.91,1.91h.29v1c0,.35,.07,.69,.18,1h-5.78v-22Zm7.6,21v-1h2v1c0,.55-.45,1-1,1s-1-.45-1-1Zm-2.2-6.16c0-.07,.02-.15,.06-.21l1.3-1.95h16.47l1.3,1.95c.04,.06,.06,.13,.06,.21v3.16H22.4v-3.16Zm1.97-4.16l.65-4.94h13.96l.65,4.94h-15.26Zm15.03,10.31c0,.55-.45,1-1,1s-1-.45-1-1v-1h2v1Zm-10.8,0v-1h6.8v1c0,.35,.07,.69,.18,1h-7.17c.11-.31,.18-.65,.18-1Zm24.4,1h-4V28c0-.55-.45-1-1-1H16c-.55,0-1,.45-1,1v31h-4V25.5l21-15.75,21,15.75V59Zm2.93-33.8L32.6,7.7c-.18-.13-.39-.2-.6-.2s-.42,.07-.6,.2L8.07,25.2l-1.2-1.6L31.4,5.2c.35-.26,.85-.26,1.2,0l24.53,18.4-1.2,1.6Z"/><path d="M29.71,53h4.57c.55,0,1-.45,1-1s-.45-1-1-1h-4.57c-.55,0-1,.45-1,1s.45,1,1,1Z"/><path d="M28,20c0,2.21,1.79,4,4,4s4-1.79,4-4-1.79-4-4-4-4,1.79-4,4Zm6,0c0,1.1-.9,2-2,2s-2-.9-2-2,.9-2,2-2,2,.9,2,2Z"/></svg>