<?xml version="1.0" encoding="UTF-8"?><svg id="Outline" xmlns="http://www.w3.org/2000/svg" viewBox="0 0 64 64"><path d="M54.71,11.29L46.71,3.29c-.19-.19-.44-.29-.71-.29H12c-1.65,0-3,1.35-3,3V58c0,1.65,1.35,3,3,3H52c1.65,0,3-1.35,3-3V12c0-.27-.11-.52-.29-.71Zm-7.71-4.88l4.59,4.59h-4.59V6.41Zm5,52.59H12c-.55,0-1-.45-1-1V6c0-.55,.45-1,1-1H45v7c0,.55,.45,1,1,1h7V58c0,.55-.45,1-1,1Z"/><path d="M22.66,16l1.24-.93v11.18c0,.55,.45,1,1,1h14.19c.55,0,1-.45,1-1V15.07l1.25,.94c.18,.13,.39,.2,.6,.2,.3,0,.6-.14,.8-.4,.33-.44,.24-1.07-.2-1.4l-9.94-7.46c-.18-.13-.39-.2-.6-.2-.21,0-.42,.07-.6,.2l-9.94,7.46c-.44,.33-.53,.96-.2,1.4,.33,.44,.96,.53,1.4,.2Zm7.34,9.25v-6h4v6h-4Zm8.09,0h-2.09v-7c0-.55-.45-1-1-1h-6c-.55,0-1,.45-1,1v7h-2.09V13.57l6.09-4.57,6.09,4.57v11.68Z"/><path d="M48,31H16c-.55,0-1,.45-1,1s.45,1,1,1H48c.55,0,1-.45,1-1s-.45-1-1-1Z"/><path d="M43.48,35H20.52c-.55,0-1,.45-1,1s.45,1,1,1h22.96c.55,0,1-.45,1-1s-.45-1-1-1Z"/><path d="M37.32,49.54c.43-.83,.68-1.77,.68-2.77,0-3.31-2.69-6-6-6s-6,2.69-6,6c0,1,.25,1.94,.68,2.77l-2.47,3.8c-.19,.29-.21,.66-.06,.97,.15,.31,.45,.53,.79,.57l1.66,.19,.85,1.44c.18,.3,.49,.49,.84,.49h.02c.34,0,.65-.17,.84-.46l2.46-3.8c.13,0,.25,.02,.38,.02s.25-.01,.38-.02l2.47,3.8c.18,.29,.5,.46,.84,.46h.02c.35,0,.66-.19,.84-.49l.85-1.44,1.66-.19c.34-.04,.64-.25,.79-.57,.15-.31,.12-.68-.07-.97l-2.47-3.8Zm-8.96,4.56l-.28-.48c-.16-.27-.44-.45-.75-.49l-.55-.06,1.21-1.86c.47,.42,1,.77,1.58,1.03l-1.2,1.86Zm3.64-3.33c-2.21,0-4-1.79-4-4s1.79-4,4-4,4,1.79,4,4-1.79,4-4,4Zm4.67,2.37c-.31,.04-.59,.22-.75,.49l-.28,.48-1.2-1.86c.58-.26,1.11-.61,1.58-1.03l1.21,1.86-.55,.06Z"/><circle cx="32" cy="46.76" r="2"/></svg>