<?xml version="1.0" encoding="UTF-8"?><svg id="Outline" xmlns="http://www.w3.org/2000/svg" viewBox="0 0 64 64"><path d="M9,21h6c.55,0,1-.45,1-1v-6c0-.55-.45-1-1-1h-6c-.55,0-1,.45-1,1v6c0,.55,.45,1,1,1Zm1-6h4v4h-4v-4Z"/><path d="M9,31h6c.55,0,1-.45,1-1v-6c0-.55-.45-1-1-1h-6c-.55,0-1,.45-1,1v6c0,.55,.45,1,1,1Zm1-6h4v4h-4v-4Z"/><path d="M21,21h6c.55,0,1-.45,1-1v-6c0-.55-.45-1-1-1h-6c-.55,0-1,.45-1,1v6c0,.55,.45,1,1,1Zm1-6h4v4h-4v-4Z"/><path d="M21,31h6c.55,0,1-.45,1-1v-6c0-.55-.45-1-1-1h-6c-.55,0-1,.45-1,1v6c0,.55,.45,1,1,1Zm1-6h4v4h-4v-4Z"/><path d="M33,21h6c.55,0,1-.45,1-1v-6c0-.55-.45-1-1-1h-6c-.55,0-1,.45-1,1v6c0,.55,.45,1,1,1Zm1-6h4v4h-4v-4Z"/><path d="M33,31h6c.55,0,1-.45,1-1v-6c0-.55-.45-1-1-1h-6c-.55,0-1,.45-1,1v6c0,.55,.45,1,1,1Zm1-6h4v4h-4v-4Z"/><path d="M16,40v-6c0-.55-.45-1-1-1h-6c-.55,0-1,.45-1,1v6c0,.55,.45,1,1,1h6c.55,0,1-.45,1-1Zm-2-1h-4v-4h4v4Z"/><path d="M21,41h6c.55,0,1-.45,1-1v-6c0-.55-.45-1-1-1h-6c-.55,0-1,.45-1,1v6c0,.55,.45,1,1,1Zm1-6h4v4h-4v-4Z"/><path d="M33,41h6c.55,0,1-.45,1-1v-6c0-.55-.45-1-1-1h-6c-.55,0-1,.45-1,1v6c0,.55,.45,1,1,1Zm1-6h4v4h-4v-4Z"/><path d="M60,13h-15V4c0-.55-.45-1-1-1H4c-.55,0-1,.45-1,1V60c0,.55,.45,1,1,1H60c.55,0,1-.45,1-1V14c0-.55-.45-1-1-1Zm-1,2v2h-14v-2h14ZM5,5H43v2H5v-2Zm0,4H43V59h-8v-8h1c.55,0,1-.45,1-1v-4c0-.55-.45-1-1-1H12c-.55,0-1,.45-1,1v4c0,.55,.45,1,1,1h1v8H5V9ZM25,47h10v2h-10v-2Zm-2,2H13v-2h10v2Zm-8,2h8v8H15v-8Zm10,0h8v8h-8v-8Zm20,8V19h14V59h-14Z"/><path d="M55,23h-6c-.55,0-1,.45-1,1v6c0,.55,.45,1,1,1h6c.55,0,1-.45,1-1v-6c0-.55-.45-1-1-1Zm-1,6h-4v-4h4v4Z"/><path d="M55,33h-6c-.55,0-1,.45-1,1v6c0,.55,.45,1,1,1h6c.55,0,1-.45,1-1v-6c0-.55-.45-1-1-1Zm-1,6h-4v-4h4v4Z"/><path d="M55,43h-6c-.55,0-1,.45-1,1v6c0,.55,.45,1,1,1h6c.55,0,1-.45,1-1v-6c0-.55-.45-1-1-1Zm-1,6h-4v-4h4v4Z"/></svg>