<?xml version="1.0" encoding="UTF-8"?><svg id="Outline" xmlns="http://www.w3.org/2000/svg" viewBox="0 0 64 64"><path d="M60,7h-4v-3c0-.55-.45-1-1-1h-4c-.55,0-1,.45-1,1v3H14v-3c0-.55-.45-1-1-1h-4c-.55,0-1,.45-1,1v3H4c-.55,0-1,.45-1,1v30c0,.55,.45,1,1,1h3v3c0,.55,.45,1,1,1v17c0,.55,.45,1,1,1h4c.55,0,1-.45,1-1v-17c.55,0,1-.45,1-1v-3H49v3c0,.55,.45,1,1,1v17c0,.55,.45,1,1,1h4c.55,0,1-.45,1-1v-17c.55,0,1-.45,1-1v-3h3c.55,0,1-.45,1-1V8c0-.55-.45-1-1-1Zm-8-2h2v2h-2v-2Zm-42,0h2v2h-2v-2Zm2,54h-2v-16h2v16Zm1-18h-4v-2h4v2Zm41,18h-2v-16h2v16Zm1-18h-4v-2h4v2Zm4-4H5V9H59v28Z"/><path d="M20.54,12.95c-.36-.27-.84-.27-1.2,0l-9.94,7.46c-.44,.33-.53,.96-.2,1.4,.33,.44,.96,.53,1.4,.2l1.24-.93v11.18c0,.55,.45,1,1,1h14.19c.55,0,1-.45,1-1v-11.18l1.25,.94c.18,.13,.39,.2,.6,.2,.3,0,.6-.14,.8-.4,.33-.44,.24-1.07-.2-1.4l-9.94-7.46Zm-2.6,18.3v-6h4v6h-4Zm8.09,0h-2.09v-7c0-.55-.45-1-1-1h-6c-.55,0-1,.45-1,1v7h-2.09v-11.68l.04-.03,6.05-4.54,6.09,4.57v11.68Z"/><path d="M54,16h-21c-.55,0-1,.45-1,1s.45,1,1,1h21c.55,0,1-.45,1-1s-.45-1-1-1Z"/><path d="M54,20h-18c-.55,0-1,.45-1,1s.45,1,1,1h18c.55,0,1-.45,1-1s-.45-1-1-1Z"/><path d="M54,24h-18c-.55,0-1,.45-1,1s.45,1,1,1h18c.55,0,1-.45,1-1s-.45-1-1-1Z"/><path d="M54,28h-18c-.55,0-1,.45-1,1s.45,1,1,1h18c.55,0,1-.45,1-1s-.45-1-1-1Z"/></svg>