<?xml version="1.0" encoding="UTF-8"?><svg id="Outline" xmlns="http://www.w3.org/2000/svg" viewBox="0 0 64 64"><path d="M60,7H4c-.55,0-1,.45-1,1V56c0,.55,.45,1,1,1H60c.55,0,1-.45,1-1V8c0-.55-.45-1-1-1Zm-1,48H5V9H59V55Z"/><path d="M8,53H56c.55,0,1-.45,1-1V12c0-.55-.45-1-1-1H8c-.55,0-1,.45-1,1V52c0,.55,.45,1,1,1Zm1-2v-4h6v4h-6Zm13,0v-3c0-.55-.45-1-1-1s-1,.45-1,1v3h-3v-5c0-.55-.45-1-1-1h-7v-8h11v4.5c0,.55,.45,1,1,1h6v8.5h-5Zm13-13c-.55,0-1,.45-1,1v12h-5v-9.5c0-.55-.45-1-1-1h-6v-4.5c0-.55-.45-1-1-1H9v-4H28c.55,0,1-.45,1-1s-.45-1-1-1H9v-4h10c.3,0,.59-.14,.78-.38l4-5c.14-.18,.22-.4,.22-.62v-6h4v9c0,.55,.45,1,1,1h6c.55,0,1-.45,1-1V13h5v19c0,.55,.45,1,1,1h13v5h-13c-.55,0-1,.45-1,1v12h-5v-12c0-.55-.45-1-1-1Zm20-17h-6v-4h6v4Zm0,10h-5.23l1.8-3h3.43v3Zm0,20h-12v-11h12v11Zm0-36h-7c-.55,0-1,.45-1,1v6c0,.55,.45,1,1,1h7v3h-4c-.35,0-.68,.18-.86,.49l-2.71,4.51h-4.43V13h12v2Zm-21-2v8h-4V13h4Zm-12,0v5.65l-3.48,4.35H9v-2h5c.55,0,1-.45,1-1v-4c0-.55-.45-1-1-1h-5v-2h13Zm-13,4h4v2h-4v-2Z"/></svg>