<?xml version="1.0" encoding="UTF-8"?><svg id="Outline" xmlns="http://www.w3.org/2000/svg" viewBox="0 0 64 64"><path d="M56,59h-3V24c0-11.58-9.42-21-21-21S11,12.42,11,24V59h-3c-.55,0-1,.45-1,1s.45,1,1,1H56c.55,0,1-.45,1-1s-.45-1-1-1Zm-39,0V24c0-8.27,6.73-15,15-15s15,6.73,15,15V59H17Zm32,0V24c0-9.37-7.63-17-17-17S15,14.63,15,24V59h-2V24c0-10.48,8.52-19,19-19s19,8.52,19,19V59h-2Z"/><path d="M44,29H20c-.55,0-1,.45-1,1v26c0,.55,.45,1,1,1h24c.55,0,1-.45,1-1V30c0-.55-.45-1-1-1Zm-1,13h-10v-11h10v11Zm-12-11v11h-10v-11h10Zm-10,13h10v11h-10v-11Zm12,11v-11h10v11h-10Z"/><path d="M32,11c-7.17,0-13,5.83-13,13v2c0,.55,.45,1,1,1h24c.55,0,1-.45,1-1v-2c0-7.17-5.83-13-13-13Zm8.05,5.53l-7.05,7.05V13.05c2.78,.25,5.26,1.55,7.05,3.48Zm-9.05-3.48v10.54l-7.05-7.05c1.8-1.94,4.27-3.23,7.05-3.48Zm-10,10.95c0-2.16,.63-4.17,1.71-5.87l6.87,6.87h-8.59v-1Zm22,1h-8.59l6.87-6.87c1.08,1.7,1.71,3.71,1.71,5.87v1Z"/></svg>