<?xml version="1.0" encoding="UTF-8"?><svg id="Outline" xmlns="http://www.w3.org/2000/svg" viewBox="0 0 64 64"><path d="M59.13,22.6L33.8,3.6c-1.06-.8-2.54-.8-3.6,0L4.87,22.6c-.21,.16-.35,.4-.39,.66-.04,.26,.03,.53,.19,.74l2.4,3.2c.33,.44,.96,.53,1.4,.2l.53-.4V60c0,.55,.45,1,1,1H54c.55,0,1-.45,1-1V27l.53,.4c.18,.13,.39,.2,.6,.2,.3,0,.6-.14,.8-.4l2.4-3.2c.16-.21,.23-.48,.19-.74-.04-.26-.18-.5-.39-.66Zm-6.13,36.4H11V25.5l21-15.75,21,15.75V59Zm2.93-33.8L32.6,7.7c-.18-.13-.39-.2-.6-.2s-.42,.07-.6,.2L8.07,25.2l-1.2-1.6L31.4,5.2c.35-.27,.84-.27,1.2,0l24.53,18.4-1.2,1.6Z"/><path d="M28.47,38.04l-2.02,2.02c-.17-.04-.34-.08-.52-.08h0c-.53,0-1.04,.21-1.41,.59l-9.18,9.18c-.38,.38-.59,.88-.59,1.42s.21,1.04,.59,1.42l2.84,2.81c.39,.38,.9,.58,1.41,.58s1.02-.19,1.41-.58l9.15-9.15c.52-.52,.69-1.26,.51-1.93l1.9-1.9c1.74,1.05,3.7,1.59,5.68,1.59,2.82,0,5.63-1.07,7.78-3.22,4.29-4.29,4.29-11.27,0-15.56-4.29-4.29-11.27-4.29-15.56,0-3.46,3.46-4.13,8.68-2,12.81Zm-8.88,15.95l-2.84-2.81,9.18-9.18,2.81,2.84-9.15,9.15Zm9.86-11.28l-1.4-1.41,1.52-1.53c.28,.35,.57,.7,.89,1.02,.15,.15,.32,.29,.48,.43l-1.49,1.49Zm8.79-18.7c2.3,0,4.61,.88,6.36,2.63,3.51,3.51,3.51,9.22,0,12.73-3.51,3.51-9.22,3.51-12.73,0-3.51-3.51-3.51-9.22,0-12.73,1.75-1.75,4.06-2.63,6.36-2.63Z"/><path d="M41.22,39.22c.17,0,.34-.04,.49-.13,.54-.31,1.04-.69,1.49-1.13,.74-.74,1.29-1.61,1.64-2.6,.18-.52-.09-1.09-.61-1.28-.52-.18-1.09,.09-1.28,.61-.25,.7-.64,1.32-1.17,1.85-.32,.32-.67,.59-1.06,.81-.48,.27-.65,.88-.38,1.36,.18,.32,.52,.51,.87,.51Z"/><path d="M43.01,31.47c.14,.42,.53,.69,.95,.69,.1,0,.21-.02,.31-.05,.53-.17,.81-.73,.65-1.26-.16-.51-.39-1-.66-1.45-.28-.47-.9-.63-1.37-.34-.47,.29-.63,.9-.34,1.37,.19,.32,.35,.67,.47,1.04Z"/></svg>