<?xml version="1.0" encoding="UTF-8"?><svg id="Outline" xmlns="http://www.w3.org/2000/svg" viewBox="0 0 64 64"><path d="M60.92,26.62l-5-12c-.16-.37-.52-.62-.92-.62h-6.98c-.1,0-.2,.02-.29,.05L33.8,3.6c-1.06-.79-2.54-.79-3.6,0l-13.86,10.4h-7.34c-.4,0-.77,.24-.92,.62L3.08,26.62c-.13,.31-.09,.66,.09,.94s.5,.45,.83,.45h3V60c0,.55,.45,1,1,1H56c.55,0,1-.45,1-1V28h3c.33,0,.65-.17,.83-.45s.22-.63,.09-.94ZM31.4,5.2c.35-.27,.85-.27,1.2,0l17.33,13-1.2,1.6L32.6,7.7c-.18-.13-.39-.2-.6-.2s-.42,.07-.6,.2L15.27,19.8l-1.2-1.6L31.4,5.2Zm13.6,49.8h-6v-14h1c.55,0,1-.45,1-1v-4c0-.55-.45-1-1-1H24c-.55,0-1,.45-1,1v4c0,.55,.45,1,1,1h1v14h-6V19.5l13-9.75,13,9.75V55Zm-20-16v-2h14v2h-14Zm2,2h10v14h-10v-14ZM9.67,16h4l-1.6,1.2c-.44,.33-.53,.96-.2,1.4l2.4,3.2c.16,.21,.4,.35,.66,.39,.27,.04,.53-.03,.74-.19l1.33-1v5H5.5l4.17-10Zm-.67,12h8v27h-2c-.55,0-1,.45-1,1v3h-5V28Zm7,31v-2H48v2H16Zm39,0h-5v-3c0-.55-.45-1-1-1h-2V28h8v31Zm-8-33v-5l1.33,1c.17,.13,.38,.2,.6,.2,.05,0,.09,0,.14,0,.26-.04,.5-.18,.66-.39l2.4-3.2c.33-.44,.24-1.07-.2-1.4l-1.6-1.2h4l4.17,10h-11.5Z"/><path d="M26,20c-.55,0-1,.45-1,1v6c0,.55,.45,1,1,1h12c.55,0,1-.45,1-1v-6c0-.55-.45-1-1-1h-12Zm1,2h4v4h-4v-4Zm10,4h-4v-4h4v4Z"/></svg>