<?xml version="1.0" encoding="UTF-8"?><svg id="Outline" xmlns="http://www.w3.org/2000/svg" viewBox="0 0 64 64"><path d="M58,27h-6.2l-16.04-10.69c.14-.41,.24-.85,.24-1.31,0-2.21-1.79-4-4-4s-4,1.79-4,4c0,.46,.09,.9,.24,1.31L12.2,27H6c-1.65,0-3,1.35-3,3v20c0,1.65,1.35,3,3,3H58c1.65,0,3-1.35,3-3V30c0-1.65-1.35-3-3-3Zm-26-14c1.1,0,2,.9,2,2s-.9,2-2,2-2-.9-2-2,.9-2,2-2Zm-2.65,4.97c.71,.63,1.63,1.03,2.65,1.03s1.94-.4,2.65-1.03l13.55,9.03H15.8l13.55-9.03Zm29.65,32.03c0,.55-.45,1-1,1H6c-.55,0-1-.45-1-1V30c0-.55,.45-1,1-1H58c.55,0,1,.45,1,1v20Z"/><path d="M15.72,41.14c1.39-.75,2.35-2.21,2.35-3.9,0-2.45-2-4.45-4.45-4.45h-3.45c-.55,0-1,.45-1,1v12.41c0,.55,.45,1,1,1s1-.45,1-1v-4.52h2.45s.08-.01,.13-.01l2.49,4.98c.18,.35,.53,.55,.9,.55,.15,0,.3-.03,.45-.11,.49-.25,.69-.85,.45-1.34l-2.31-4.62Zm-4.54-6.35h2.45c1.35,0,2.45,1.1,2.45,2.45s-1.1,2.45-2.45,2.45h-2.45v-4.9Z"/><path d="M28.62,34.79c.55,0,1-.45,1-1s-.45-1-1-1h-6.9c-.55,0-1,.45-1,1v12.41c0,.55,.45,1,1,1h6.9c.55,0,1-.45,1-1s-.45-1-1-1h-5.9v-4.21h4.52c.55,0,1-.45,1-1s-.45-1-1-1h-4.52v-4.21h5.9Z"/><path d="M41.33,32.79c-.55,0-1,.45-1,1v9.11l-6.44-9.67c-.24-.37-.7-.53-1.12-.4-.42,.13-.71,.52-.71,.96v12.41c0,.55,.45,1,1,1s1-.45,1-1v-9.11l6.44,9.67c.19,.28,.5,.45,.83,.45,.1,0,.19-.01,.29-.04,.42-.13,.71-.52,.71-.96v-12.41c0-.55-.45-1-1-1Z"/><path d="M53.82,32.79h-8.28c-.55,0-1,.45-1,1s.45,1,1,1h3.14v11.41c0,.55,.45,1,1,1s1-.45,1-1v-11.41h3.14c.55,0,1-.45,1-1s-.45-1-1-1Z"/></svg>