<?xml version="1.0" encoding="UTF-8"?><svg id="Outline" xmlns="http://www.w3.org/2000/svg" viewBox="0 0 64 64"><path d="M35.93,34.88c.47-.29,.62-.9,.34-1.37-.29-.47-.9-.62-1.37-.34-1.82,1.1-3.96,1.1-5.78,0-.47-.29-1.09-.14-1.37,.34-.29,.47-.13,1.09,.34,1.37,1.23,.74,2.55,1.12,3.93,1.12s2.7-.38,3.93-1.12Z"/><path d="M47,33c-.68,0-1.35,.07-2,.16,.31-.79,.55-1.6,.71-2.43l1.28-.22c1.12-.18,2.13-.76,2.88-1.63,.73-.87,1.13-1.97,1.13-3.09,0-2.01-1.24-3.72-3-4.44v-2.35c0-8.82-7.18-16-16-16-4.28,0-8.29,1.67-11.31,4.69-3.03,3.02-4.69,7.03-4.69,11.31v2.35c-1.76,.71-3,2.43-3,4.44,0,1.12,.4,2.22,1.14,3.1,.74,.87,1.75,1.45,2.87,1.63l1.33,.22c.93,4.38,3.8,8.02,7.66,9.89v1.36l-2.4,1.03c-6.96,.22-12.6,5.99-12.6,12.98v4c0,.55,.45,1,1,1H47c7.72,0,14-6.28,14-14s-6.28-14-14-14Zm2-7.21c0,.66-.23,1.29-.66,1.8-.43,.51-1.02,.84-1.67,.95l-.7,.12c.01-.22,.04-.44,.04-.66v-5h.21c1.54,0,2.79,1.25,2.79,2.79ZM22.11,9.11c2.64-2.65,6.15-4.11,9.89-4.11,7.72,0,14,6.28,14,14v2h-.18c-.41-1.16-1.51-2-2.82-2h-6.17c-1.56,0-3.02-.61-4.12-1.71-.38-.38-1.04-.38-1.41,0-1.1,1.1-2.56,1.71-4.12,1.71h-6.17c-1.3,0-2.4,.84-2.82,2h-.18v-2c0-3.74,1.46-7.25,4.11-9.89Zm-4.78,19.44c-.65-.11-1.24-.44-1.66-.94-.44-.52-.67-1.15-.67-1.81,0-1.54,1.25-2.79,2.79-2.79h.21v4.63c0,.35,.03,.69,.05,1.03l-.72-.12Zm2.67-.91v-5.63c0-.55,.45-1,1-1h6.17c1.77,0,3.46-.59,4.83-1.66,1.37,1.08,3.05,1.66,4.83,1.66h6.17c.55,0,1,.45,1,1v6c0,2.02-.52,3.99-1.48,5.75-3.07,1.04-5.66,3.12-7.36,5.82-1.21,.33-2.46,.47-3.74,.41-6.4-.3-11.42-5.73-11.42-12.35Zm10.22,23.17l1.78-1.5,1.47,1.23c.07,.26,.13,.52,.22,.77-.25,0-.51,.1-.7,.29l-.98,.98-1.78-1.78Zm1.11-8.82c.23,.01,.45,.02,.67,.02,.67,0,1.34-.07,2-.16-.44,1.11-.75,2.29-.89,3.51l-1.11,1.18-4-4.28v-.86c1.06,.32,2.17,.53,3.33,.59Zm-4.66,1.9s.1,.02,.15,.03l3.74,4-2.26,1.9-3.03-5.33,1.4-.6Zm-13.66,12.12c0-5.79,4.56-10.58,10.27-10.96l3.87,6.8c.15,.26,.4,.44,.69,.49,.06,.01,.12,.02,.18,.02,.23,0,.46-.08,.64-.23l.03-.02,.77,.77-3.07,6.14H13v-3Zm15.62,3l2.32-4.65,.35,.35c.2,.2,.45,.29,.71,.29s.51-.1,.71-.29l.35-.35,2.32,4.65h-6.76Zm9,0l-1.82-3.63c1.09,1.46,2.46,2.69,4.03,3.63h-2.21Zm9.38,0c-6.62,0-12-5.38-12-12s5.38-12,12-12,12,5.38,12,12-5.38,12-12,12Z"/><path d="M54.03,39.91c-1.13-1.13-2.64-1.76-4.24-1.76s-3.11,.62-4.24,1.76c-1.52,1.52-2.1,3.74-1.55,5.79l-3.95,3.94c-.18,.18-.29,.43-.29,.69l-.06,2.89c0,.27,.1,.54,.29,.73,.19,.19,.44,.29,.71,.29h.02l2.89-.06c.26,0,.5-.11,.69-.29l3.95-3.95c2.06,.55,4.27-.03,5.79-1.55,2.34-2.34,2.34-6.15,0-8.48Zm-1.41,7.07c-1.12,1.12-2.8,1.47-4.29,.89-.37-.14-.79-.06-1.07,.22l-4.09,4.09-1.44,.03,.03-1.45,4.09-4.09c.28-.28,.37-.7,.22-1.07-.58-1.48-.23-3.17,.89-4.29,.76-.76,1.76-1.17,2.83-1.17s2.07,.42,2.83,1.17c1.56,1.56,1.56,4.1,0,5.66Z"/><path d="M48.37,42.74c-.78,.78-.78,2.05,0,2.83,.38,.38,.88,.59,1.42,.59s1.04-.21,1.41-.58h0c.78-.78,.78-2.05,0-2.83-.76-.76-2.07-.75-2.83,0Z"/></svg>