<?xml version="1.0" encoding="UTF-8"?><svg id="Outline" xmlns="http://www.w3.org/2000/svg" viewBox="0 0 64 64"><path d="M59.13,22.6L33.8,3.6c-1.06-.79-2.54-.79-3.6,0L4.87,22.6c-.21,.16-.35,.4-.39,.66-.04,.26,.03,.53,.19,.74l2.4,3.2c.33,.44,.96,.53,1.4,.2l.53-.4V60c0,.55,.45,1,1,1H54c.55,0,1-.45,1-1V27l.53,.4c.18,.14,.39,.2,.6,.2,.3,0,.6-.14,.8-.4l2.4-3.2c.16-.21,.23-.48,.19-.74-.04-.26-.18-.5-.39-.66ZM20.14,59v-1.57c0-3.22,2.25-5.94,5.34-6.57l2.44,4.35c.14,.25,.38,.43,.67,.49,.06,.01,.13,.02,.19,.02l-.77,3.29h-7.86Zm4.5-23.43c0-.16,.13-.29,.29-.29h3.97c1.13,0,2.2-.34,3.1-.98,.9,.64,1.98,.98,3.1,.98h3.97c.16,0,.29,.13,.29,.29v3.86c0,2.03-.81,3.92-2.28,5.32-1.47,1.4-3.39,2.13-5.43,2.02-3.93-.18-7-3.52-7-7.58v-3.62Zm-1.28-1.65v-.28c0-2.3,.9-4.47,2.53-6.11,1.63-1.63,3.8-2.53,6.11-2.53,4.76,0,8.64,3.88,8.64,8.64v.28c-.41-.39-.96-.63-1.57-.63h-3.97c-.91,0-1.76-.35-2.4-.99-.39-.39-1.02-.39-1.41,0-.64,.64-1.49,.99-2.4,.99h-3.97c-.61,0-1.16,.24-1.57,.63Zm12.16,16.07l1.02,.32-1.64,2.92-1.41-1.07,2.03-2.17Zm-3.52,.83l-2.14-2.29c.55,.13,1.11,.22,1.69,.24,.15,0,.3,.01,.46,.01,.73,0,1.44-.09,2.13-.25l-2.14,2.29Zm-1.49,1.34l-1.41,1.07-1.64-2.92,1.02-.32,2.03,2.17Zm-.46,6.84l1.14-4.85,.81-.61,.81,.61,1.14,4.85h-3.9Zm5.95,0l-.77-3.29c.06,0,.13,0,.19-.02,.28-.06,.53-.24,.67-.49l2.44-4.35c3.08,.64,5.34,3.36,5.34,6.57v1.57h-7.86Zm17,0h-7.14v-1.57c0-4.35-3.18-8-7.45-8.62-.03-.01-.06-.04-.09-.05l-2.1-.65v-.32c.81-.41,1.57-.94,2.25-1.59,1.35-1.28,2.25-2.89,2.65-4.65l.92-.15c.8-.14,1.53-.56,2.03-1.15,.54-.61,.83-1.4,.83-2.23,0-1.48-.94-2.73-2.25-3.22v-1.15c0-5.87-4.77-10.64-10.64-10.64-2.85,0-5.52,1.11-7.53,3.11-2.01,2.02-3.11,4.69-3.11,7.53v1.15c-1.31,.48-2.25,1.74-2.25,3.22,0,.83,.29,1.62,.81,2.21,.52,.62,1.24,1.04,2.05,1.17l.96,.16c.67,2.72,2.46,4.97,4.85,6.21v.35l-2.1,.65s-.06,.04-.09,.05c-4.27,.62-7.45,4.26-7.45,8.62v1.57h-7.14V25.5l21-15.75,21,15.75V59Zm-11.65-19.52s0-.03,0-.05v-2.86h.1c.79,0,1.43,.65,1.43,1.44,0,.34-.12,.67-.35,.93-.21,.26-.52,.43-.84,.48l-.35,.06Zm-18.7,0l-.35-.06c-.34-.06-.64-.23-.87-.51-.21-.24-.33-.56-.33-.91,0-.79,.64-1.44,1.43-1.44h.1v2.62c0,.1,.01,.19,.01,.29Zm33.28-14.28L32.6,7.7c-.18-.13-.39-.2-.6-.2s-.42,.07-.6,.2L8.07,25.2l-1.2-1.6L31.4,5.2c.35-.26,.85-.26,1.2,0l24.53,18.4-1.2,1.6Z"/><path d="M29.29,43.84c.85,.51,1.76,.77,2.71,.77s1.86-.26,2.71-.77c.47-.29,.62-.9,.34-1.37-.29-.47-.9-.62-1.37-.34-1.06,.64-2.29,.64-3.35,0-.47-.29-1.09-.14-1.37,.34-.29,.47-.13,1.09,.34,1.37Z"/></svg>