<?xml version="1.0" encoding="UTF-8"?><svg id="Outline" xmlns="http://www.w3.org/2000/svg" viewBox="0 0 64 64"><circle cx="15" cy="51" r="2"/><path d="M59.11,36.92l-6.28-2.48-5.21-10.7c-.5-1.02-1.55-1.68-2.69-1.68H28V12c0-.55-.45-1-1-1H13c-.55,0-1,.45-1,1v10.06H6c-.55,0-1,.45-1,1v11h-1c-.55,0-1,.45-1,1v16c0,.55,.45,1,1,1h5.1c.5,2.8,2.95,4.94,5.9,4.94s5.4-2.14,5.9-4.94h22.2c.5,2.8,2.95,4.94,5.9,4.94s5.4-2.14,5.9-4.94h4.1c1.1,0,2-.9,2-2v-10.35c0-1.22-.76-2.34-1.89-2.79Zm-13.29-12.3l4.68,9.61h-11.5v-10.17h5.93c.38,0,.73,.22,.89,.56Zm-25.6,23.44h12.78v2h-12.08c-.11-.72-.35-1.39-.7-2Zm12.78-14h-12v-10h3v5c0,.55,.45,1,1,1h4c.55,0,1-.45,1-1v-5h3v10Zm-5-10v4h-2v-4h2Zm-7-11.06v4h-2v-4h2Zm-7,0h3v5c0,.55,.45,1,1,1h4c.55,0,1-.45,1-1v-5h3v9.06H14V13Zm-1,11.06h1v4h-2v-4h1Zm-6,0h3v5c0,.55,.45,1,1,1h4c.55,0,1-.45,1-1v-5h3v10H7v-10Zm26,12v10h-14.56s-.02,0-.03,0c-.97-.67-2.14-1.07-3.4-1.07s-2.43,.39-3.4,1.06H5v-10h28ZM5,48.06h4.78c-.34,.61-.58,1.28-.7,2H5v-2Zm10,6.94c-2.21,0-4-1.79-4-4s1.79-4,4-4,4,1.79,4,4-1.79,4-4,4Zm34,0c-2.21,0-4-1.79-4-4s1.79-4,4-4,4,1.79,4,4-1.79,4-4,4Zm5.92-4.94c-.45-2.86-2.93-5.06-5.92-5.06s-5.47,2.2-5.92,5.06h-8.08V24.06h2v11.17c0,.55,.45,1,1,1h13.9l6.47,2.55c.38,.15,.63,.52,.63,.93v.35h-3c-.55,0-1,.45-1,1v4c0,.55,.45,1,1,1h3v4h-4.08Zm4.08-6h-2v-2h2v2Z"/><circle cx="49" cy="51" r="2"/><path d="M42,38.23h-4c-.55,0-1,.45-1,1s.45,1,1,1h4c.55,0,1-.45,1-1s-.45-1-1-1Z"/></svg>