<?xml version="1.0" encoding="UTF-8"?><svg id="Outline" xmlns="http://www.w3.org/2000/svg" viewBox="0 0 64 64"><path d="M60.71,11.29L52.71,3.29c-.19-.19-.44-.29-.71-.29H18c-1.65,0-3,1.35-3,3v26.3l-2.22-2.22s0,0,0,0l-3.54-3.54c-.78-.78-2.05-.78-2.83,0l-2.83,2.83c-.78,.78-.78,2.05,0,2.83l1.41,1.41-.71,.71c-1.17,1.17-1.17,3.07,0,4.24l5.66,5.66c.2,.2,.45,.29,.71,.29s.51-.1,.71-.29c.39-.39,.39-1.02,0-1.41l-5.66-5.66c-.39-.39-.39-1.02,0-1.41l.71-.71,8.59,8.59v14.39c0,1.65,1.35,3,3,3H58c1.65,0,3-1.35,3-3V12c0-.27-.11-.52-.29-.71Zm-7.71-4.88l4.59,4.59h-4.59V6.41ZM27.86,50.82l-2.89-.41,2.47-2.47,.41,2.89Zm-4.48-1.65l-14.14-14.14,2.83-2.83,14.14,14.14-2.83,2.83ZM7.83,27.96l2.83,2.83-2.83,2.83-2.83-2.83,2.83-2.83Zm50.17,31.04H18c-.55,0-1-.45-1-1v-12.39l5.68,5.68s0,0,0,0,0,0,0,0l.23,.23c.46,.46,1.06,.76,1.7,.85l4.29,.61s.09,.01,.14,.01c.26,0,.52-.1,.71-.29,.22-.22,.33-.54,.28-.85l-.61-4.29c-.09-.64-.39-1.24-.85-1.7l-11.57-11.57V6c0-.55,.45-1,1-1H51v7c0,.55,.45,1,1,1h7V58c0,.55-.45,1-1,1Z"/><path d="M39.8,9.6c-1.06-.79-2.54-.79-3.6,0l-12.81,9.61c-.44,.33-.53,.96-.2,1.4l2.4,3.2c.16,.21,.4,.35,.66,.39,.05,0,.09,.01,.14,.01,.22,0,.43-.07,.6-.2h0s0,11.57,0,11.57c0,.55,.45,1,1,1h20c.55,0,1-.45,1-1v-11.58h0c.21,.17,.48,.24,.74,.2,.26-.04,.5-.18,.66-.39l2.4-3.2c.33-.44,.24-1.07-.2-1.4l-12.81-9.61Zm-3.8,24.98v-8h4v8h-4Zm11,0h-5v-9c0-.55-.45-1-1-1h-6c-.55,0-1,.45-1,1v9h-5v-12.08l9-6.75,9,6.75v12.08Zm2.41-12.77l-10.81-8.11c-.36-.27-.84-.27-1.2,0l-10.81,8.11-1.2-1.6,12.01-9.01c.35-.26,.85-.26,1.2,0l12.01,9.01-1.2,1.6Z"/><path d="M51.56,49.02c-.28,.13-.52,.31-.74,.48-.03-.65-.22-1.59-1.27-1.86-1.17-.3-1.81,.75-2.27,1.65,0-1.08-.03-2.16-.74-2.8-.33-.29-.76-.42-1.18-.33-.47,.09-.88,.42-1.29,.95-.11-.8-.32-1.55-.62-2.17-.67-1.37-1.61-1.79-2.28-1.91-2.26-.38-3.26,2.44-4.32,5.43-.65,1.82-1.31,3.7-2.22,4.95-.33,.45-.23,1.07,.22,1.4,.18,.13,.38,.19,.59,.19,.31,0,.61-.14,.81-.41,1.08-1.48,1.82-3.59,2.49-5.46,.52-1.48,1.49-4.24,2.09-4.13,.38,.07,.66,.48,.82,.81,.76,1.55,.67,4.5-.17,6.07-.26,.48-.08,1.08,.4,1.35,.48,.27,1.08,.1,1.35-.38,.27-.47,.57-1.08,.89-1.73,.3-.61,.76-1.55,1.17-2.23,0,.23,0,.45,0,.62,0,1.13-.02,2.83,1.44,2.94,1.09,.08,1.69-.94,2.14-1.84,.08,.47,.3,.96,.91,1.17,.94,.33,1.7-.26,2.2-.64,.17-.13,.33-.26,.45-.32,.5-.24,.71-.84,.46-1.34s-.84-.7-1.34-.46Z"/></svg>