<?xml version="1.0" encoding="UTF-8"?><svg id="Outline" xmlns="http://www.w3.org/2000/svg" viewBox="0 0 64 64"><path d="M59.13,22.6L33.8,3.6c-1.06-.79-2.54-.79-3.6,0L4.87,22.6c-.21,.16-.35,.4-.39,.66-.04,.26,.03,.53,.19,.74l2.4,3.2c.33,.44,.96,.53,1.4,.2l.53-.4V60c0,.55,.45,1,1,1H54c.55,0,1-.45,1-1V27l.53,.4c.18,.14,.39,.2,.6,.2,.3,0,.6-.14,.8-.4l2.4-3.2c.16-.21,.23-.48,.19-.74-.04-.26-.18-.5-.39-.66Zm-6.13,36.4H11V25.5l21-15.75,21,15.75V59Zm2.93-33.8L32.6,7.7c-.18-.13-.39-.2-.6-.2s-.42,.07-.6,.2L8.07,25.2l-1.2-1.6L31.4,5.2c.35-.26,.85-.26,1.2,0l24.53,18.4-1.2,1.6Z"/><path d="M32,55c-.25,0-.5-.1-.7-.29-.45-.44-10.93-10.79-10.93-19.09,0-6.41,5.22-11.63,11.63-11.63s11.63,5.22,11.63,11.63c0,8.3-10.48,18.65-10.93,19.09-.19,.19-.45,.29-.7,.29Zm0-29c-5.31,0-9.63,4.32-9.63,9.63,0,6.3,7.31,14.49,9.63,16.94,2.32-2.45,9.63-10.64,9.63-16.94,0-5.31-4.32-9.63-9.63-9.63Z"/><path d="M32,41.94c-3.48,0-6.31-2.83-6.31-6.31s2.83-6.31,6.31-6.31,6.31,2.83,6.31,6.31-2.83,6.31-6.31,6.31Zm0-10.63c-2.38,0-4.31,1.94-4.31,4.31s1.94,4.31,4.31,4.31,4.31-1.94,4.31-4.31-1.94-4.31-4.31-4.31Z"/></svg>