<?xml version="1.0" encoding="UTF-8"?><svg id="Glyph" xmlns="http://www.w3.org/2000/svg" viewBox="0 0 64 64"><defs><style>.cls-1{stroke-width:0px;}</style></defs><path class="cls-1" d="m59,22h-3v-3.15c0-.49-.36-.91-.85-.99-8.69-1.41-16.52-1.86-23.15-1.86-8.78,0-16.59.8-23.17,1.86-.48.08-.83.5-.83.99v3.15h-3c-.55,0-1,.45-1,1v14c0,.55.45,1,1,1h3v3.28c0,.43.28.81.68.95l14.45,4.82c1.84.61,3.77-.66,3.94-2.59l.27-3.19c.21-2.42,2.23-4.27,4.65-4.27,1.21,0,2.32.46,3.15,1.23.84.76,1.39,1.83,1.5,3.04l.27,3.19c.17,1.93,2.1,3.2,3.94,2.59l14.45-4.82c.41-.14.68-.52.68-.95v-3.28h3c.55,0,1-.45,1-1v-14c0-.55-.45-1-1-1Zm-7,17.12l-11.2,3.73-.17-1.92c-.2-2.21-1.19-4.21-2.8-5.66-1.56-1.45-3.65-2.26-5.83-2.26-4.53,0-8.24,3.41-8.63,7.92l-.17,1.93-11.2-3.73v-17.69c6.62-.95,13.33-1.43,20-1.43s13.39.48,20,1.43v17.69Z"/></svg>