<?xml version="1.0" encoding="UTF-8"?><svg id="Glyph" xmlns="http://www.w3.org/2000/svg" viewBox="0 0 64 64"><defs><style>.cls-1{stroke-width:0px;}</style></defs><path class="cls-1" d="m53.6,27.58c-.17-.93-.86-1.58-1.67-1.58h-13.93v-3c0-.55-.45-1-1-1h-3v-5.23l-4,.57v4.66h-3c-.55,0-1,.45-1,1v3h-13.94c-.79,0-1.49.65-1.66,1.56-.22,1.17-.4,2.32-.56,3.44-.65,4.58-.84,8.65-.84,12,0,1.38.03,2.71.09,4,.21,4.36.72,8.21,1.31,11.42.17.93.86,1.58,1.67,1.58h39.87c.79,0,1.49-.65,1.66-1.56.77-4.21,1.15-8.07,1.3-11.44.07-1.43.1-2.76.1-4,0-4.48-.35-8.52-.85-12-.17-1.21-.35-2.35-.55-3.42Zm-35.6,19.42h-6.9s0-.07,0-.1c-.06-1.25-.09-2.57-.09-3.9,0-3.94.28-7.88.82-11.72.01-.09.03-.19.04-.28h6.14v16Zm22,11h-16v-9.3h16v9.3Zm0-11.3h-16v-15.7h16v15.7Zm12.9.2s0,.07-.01.1h-6.89v-16h6.13c.01.09.03.19.04.28.55,3.84.83,7.78.83,11.72,0,1.26-.03,2.57-.1,3.9Z"/><path class="cls-1" d="m22.95,12.29l-18.81,2.7c-.54.08-.92.59-.85,1.13.08.5.5.86.99.86.05,0,.1,0,.15-.01l18.81-2.7-.29-1.98Z"/><path class="cls-1" d="m59.57,7.03l-18.81,2.7.29,1.98,18.81-2.7c.54-.08.92-.59.85-1.13-.08-.55-.59-.93-1.14-.85Z"/><rect class="cls-1" x="25" y="9" width="14" height="6" rx="1" ry="1" transform="translate(-1.38 4.67) rotate(-8.17)"/><path class="cls-1" d="m28,53h2c.55,0,1-.45,1-1s-.45-1-1-1h-2c-.55,0-1,.45-1,1s.45,1,1,1Z"/></svg>