<?xml version="1.0" encoding="UTF-8"?><svg id="Glyph" xmlns="http://www.w3.org/2000/svg" viewBox="0 0 64 64"><defs><style>.cls-1{stroke-width:0px;}</style></defs><polygon class="cls-1" points="29 26.27 29 21.3 22.39 15.35 24.23 24.05 28.54 26.54 29 26.27"/><polygon class="cls-1" points="25.54 32.27 25.54 31.73 21.24 29.25 12.78 32 21.24 34.75 25.54 32.27"/><polygon class="cls-1" points="29 37.73 28.54 37.46 24.23 39.95 22.39 48.65 29 42.7 29 37.73"/><polygon class="cls-1" points="35 37.73 35 42.7 41.61 48.65 39.77 39.95 35.46 37.46 35 37.73"/><polygon class="cls-1" points="38.46 31.73 38.46 32.27 42.76 34.75 51.22 32 42.76 29.25 38.46 31.73"/><polygon class="cls-1" points="35 26.27 35.46 26.54 39.77 24.05 41.61 15.35 35 21.3 35 26.27"/><path class="cls-1" d="m57.48,41.28c-.14-.53-.69-.85-1.22-.71l-5.06,1.36-2.75-1.59,1.77-.47c.53-.14.85-.69.71-1.22-.14-.53-.69-.85-1.22-.71l-3.7.99-9.54-5.5v-2.84l9.54-5.5,3.7.99c.09.02.17.03.26.03.44,0,.84-.29.96-.74.14-.53-.17-1.08-.71-1.22l-1.77-.47,2.75-1.59,5.06,1.36c.09.02.17.03.26.03.44,0,.85-.29.96-.74.14-.53-.17-1.08-.71-1.22l-3.13-.84,3.11-1.79c.48-.28.64-.89.37-1.37-.28-.48-.89-.64-1.37-.37l-3.11,1.79.84-3.13c.14-.53-.17-1.08-.71-1.22-.53-.14-1.08.17-1.22.71l-1.36,5.06-2.75,1.59.47-1.77c.14-.53-.17-1.08-.71-1.22-.53-.14-1.08.17-1.22.71l-.99,3.7-9.54,5.51-2.46-1.42v-11.01l2.71-2.71c.39-.39.39-1.02,0-1.41s-1.02-.39-1.41,0l-1.29,1.29v-3.17l3.71-3.71c.39-.39.39-1.02,0-1.41s-1.02-.39-1.41,0l-2.29,2.29v-3.59c0-.55-.45-1-1-1s-1,.45-1,1v3.59l-2.29-2.29c-.39-.39-1.02-.39-1.41,0s-.39,1.02,0,1.41l3.71,3.71v3.17l-1.29-1.29c-.39-.39-1.02-.39-1.41,0s-.39,1.02,0,1.41l2.71,2.71v11.01l-2.46,1.42-9.54-5.51-.99-3.7c-.14-.53-.69-.85-1.22-.71-.53.14-.85.69-.71,1.22l.47,1.77-2.75-1.59-1.36-5.06c-.14-.53-.69-.85-1.22-.71-.53.14-.85.69-.71,1.22l.84,3.13-3.11-1.79c-.48-.28-1.09-.11-1.37.37-.28.48-.11,1.09.37,1.37l3.11,1.79-3.13.84c-.53.14-.85.69-.71,1.22.12.45.52.74.97.74.09,0,.17-.01.26-.03l5.06-1.36,2.75,1.59-1.77.47c-.53.14-.85.69-.71,1.22.12.45.52.74.97.74.09,0,.17-.01.26-.03l3.7-.99,9.54,5.5v2.85l-9.54,5.5-3.7-.99c-.53-.15-1.08.17-1.22.71s.17,1.08.71,1.22l1.77.47-2.75,1.59-5.06-1.36c-.54-.15-1.08.17-1.22.71-.14.53.17,1.08.71,1.22l3.13.84-3.11,1.79c-.48.28-.64.89-.37,1.37.19.32.52.5.87.5.17,0,.34-.04.5-.13l3.11-1.79-.84,3.13c-.14.53.17,1.08.71,1.22.09.02.17.03.26.03.44,0,.85-.29.97-.74l1.36-5.06,2.75-1.59-.47,1.77c-.14.53.17,1.08.71,1.22.09.02.17.03.26.03.44,0,.85-.29.97-.74l.99-3.7,9.54-5.51,2.46,1.42v11.01l-2.71,2.71c-.39.39-.39,1.02,0,1.41s1.02.39,1.41,0l1.29-1.29v3.17l-3.71,3.71c-.39.39-.39,1.02,0,1.41s1.02.39,1.41,0l2.29-2.29v3.59c0,.55.45,1,1,1s1-.45,1-1v-3.59l2.29,2.29c.2.2.45.29.71.29s.51-.1.71-.29c.39-.39.39-1.02,0-1.41l-3.71-3.71v-3.17l1.29,1.29c.2.2.45.29.71.29s.51-.1.71-.29c.39-.39.39-1.02,0-1.41l-2.71-2.71v-11.01l2.46-1.42,9.54,5.51.99,3.7c.12.45.52.74.96.74.09,0,.17-.01.26-.03.53-.14.85-.69.71-1.22l-.47-1.77,2.75,1.59,1.36,5.06c.12.45.52.74.96.74.09,0,.17-.01.26-.03.53-.14.85-.69.71-1.22l-.84-3.13,3.11,1.79c.16.09.33.13.5.13.35,0,.68-.18.87-.5.28-.48.11-1.09-.37-1.37l-3.11-1.79,3.13-.84c.53-.14.85-.69.71-1.22Zm-23.02-7.85l-2.46,1.42-2.46-1.42v-2.85l2.46-1.42,2.46,1.42v2.85Z"/></svg>