<?xml version="1.0" encoding="UTF-8"?><svg id="Glyph" xmlns="http://www.w3.org/2000/svg" viewBox="0 0 64 64"><defs><style>.cls-1{stroke-width:0px;}</style></defs><path class="cls-1" d="m32,49.89c-1.11,0-2.13-.57-2.73-1.53l-.55-.87v12.51h6.56v-12.51l-.55.87c-.6.96-1.62,1.53-2.73,1.53Z"/><path class="cls-1" d="m21.44,37.47c-.71.07-1.43.11-2.16.11-1.35,0-2.71-.13-4.05-.39-.77-.15-1.39-.74-1.57-1.5-.18-.77.1-1.57.73-2.05,2.97-2.27,5.64-4.95,7.97-7.99-.37.02-.75.03-1.13.03-1.15,0-2.32-.1-3.46-.31-.79-.14-1.42-.74-1.6-1.52-.18-.78.12-1.59.77-2.06,1.86-1.35,3.55-2.89,5.11-4.56-.04-.06-.09-.12-.13-.18-2.26-3.27-3.51-6.4-4.22-8.65-.71,2.25-1.96,5.37-4.22,8.65-2.55,3.69-5.38,6.11-7.38,7.57,1.34.24,4.15.55,7.23-.58-.2.33-.4.67-.62,1-3.02,4.62-6.36,7.65-8.72,9.45,1.64.31,5.13.73,8.92-.87-.07.11-.13.21-.2.32-3.02,4.62-6.36,7.65-8.72,9.45,1.79.34,5.78.81,9.96-1.35.34-.17.65-.34.95-.53l.98,1.55c2-1.68,3.86-3.55,5.55-5.61Z"/><path class="cls-1" d="m51.28,33.95c-.07-.11-.13-.21-.2-.32,3.79,1.59,7.28,1.18,8.92.87-2.36-1.81-5.7-4.84-8.72-9.45-.22-.34-.42-.67-.62-1,3.09,1.13,5.89.82,7.23.58-2-1.45-4.83-3.87-7.38-7.57-2.26-3.27-3.51-6.4-4.22-8.65-.71,2.25-1.96,5.37-4.22,8.65-.04.06-.09.12-.13.18,1.56,1.67,3.25,3.21,5.11,4.56.65.47.95,1.28.77,2.06-.18.78-.81,1.38-1.6,1.52-1.14.21-2.31.31-3.46.31-.38,0-.75-.01-1.13-.03,2.33,3.04,5,5.72,7.97,7.99.63.48.91,1.28.73,2.05-.18.77-.8,1.36-1.57,1.5-1.34.26-2.7.39-4.05.39-.73,0-1.45-.04-2.16-.11,1.69,2.06,3.55,3.93,5.55,5.61l.98-1.55c.3.18.61.35.95.53,4.19,2.16,8.17,1.69,9.96,1.35-2.36-1.81-5.7-4.84-8.72-9.45Z"/><path class="cls-1" d="m44.71,48.25c-.39,0-.77-.01-1.15-.03v6.98h5.48v-7.42c-.09.03-.17.07-.26.09-1.35.26-2.72.39-4.07.39Z"/><path class="cls-1" d="m15.22,47.86c-.09-.02-.17-.06-.26-.09v7.42h5.48v-6.98c-.38.02-.76.03-1.15.03-1.35,0-2.72-.13-4.07-.39Z"/><path class="cls-1" d="m39.63,36.94c-1.23-.32-2.43-.75-3.59-1.31l-1.31,2.07c-.6.96-1.62,1.53-2.73,1.53s-2.13-.57-2.73-1.53l-1.31-2.07c-1.15.56-2.35.99-3.59,1.31-3.13,4.21-6.38,7.12-8.78,8.95,2.15.41,6.91.97,11.92-1.61.4-.21.78-.41,1.14-.63l2.3,3.65c.5.79,1.58.79,2.08,0l2.3-3.65c.35.22.73.42,1.14.63,5.01,2.59,9.78,2.03,11.92,1.61-2.4-1.84-5.64-4.74-8.78-8.95Z"/><path class="cls-1" d="m38.91,25.27c-1.38-.3-2.72-.74-3.99-1.36-1.02-.5-1.99-1.09-2.91-1.79-.92.69-1.89,1.29-2.91,1.79-1.27.62-2.61,1.07-3.99,1.36-3.35,4.76-6.91,7.98-9.5,9.96,2.15.41,6.91.97,11.92-1.61.4-.21.78-.41,1.14-.63l2.3,3.65c.5.79,1.58.79,2.08,0l2.3-3.65c.35.22.73.42,1.14.63,5.01,2.59,9.78,2.03,11.92,1.61-2.58-1.98-6.15-5.2-9.5-9.96Z"/><path class="cls-1" d="m45.88,23.4c-2.39-1.74-5.78-4.63-8.83-9.05-2.71-3.92-4.2-7.65-5.05-10.35-.85,2.69-2.34,6.43-5.05,10.35-3.06,4.42-6.44,7.32-8.83,9.05,1.82.33,5.85.77,10.09-1.29,1.61-.78,2.86-1.74,3.79-2.59.93.85,2.18,1.81,3.79,2.59,4.24,2.06,8.28,1.62,10.09,1.29Z"/></svg>