<?xml version="1.0" encoding="UTF-8"?><svg id="Glyph" xmlns="http://www.w3.org/2000/svg" viewBox="0 0 64 64"><defs><style>.cls-1{stroke-width:0px;}</style></defs><path class="cls-1" d="m30.92,9.44c.34-.02.71-.03,1.08-.03s.74.01,1.12.03c.56.02,1.1.07,1.63.15,1.09.13,2.17.38,3.22.68-.16-.26-.34-.51-.41-.77-.14-.51.1-1.18-.16-1.63-.26-.46-.96-.58-1.33-.95-.37-.37-.5-1.07-.95-1.33-.45-.26-1.12-.02-1.63-.16-.5-.13-.95-.68-1.49-.68s-1,.54-1.49.67c-.51.14-1.18-.1-1.63.16-.46.26-.58.96-.95,1.33-.37.37-1.07.5-1.33.95-.26.45-.02,1.12-.16,1.63-.07.26-.25.51-.41.77,1.04-.31,2.13-.55,3.26-.69.49-.07,1.04-.12,1.63-.14Z"/><path class="cls-1" d="m17.67,23.17c1.93-4.2,4.49-7.64,7.63-10.21.29-.24.59-.46.89-.66-1.19.36-2.35.84-3.47,1.44-3.75,2-7.92,5.1-11.25,9.85-4.91,7.01-5.51,18.42-5.47,23.41h8c-.05-5.73.53-16.97,3.67-23.83Z"/><path class="cls-1" d="m28.18,13.43c-.55.3-1.1.65-1.62,1.08-2.89,2.37-5.27,5.57-7.07,9.5-3,6.54-3.54,17.44-3.5,22.99h7.01c-.02-5.68.24-16.85,1.71-23.62.87-4.07,2.04-7.41,3.47-9.95Z"/><path class="cls-1" d="m33,11.44s.05,0,.08,0c-.03,0-.05,0-.08,0h0Z"/><path class="cls-1" d="m31,11.44s-.05,0-.08,0c.03,0,.05,0,.08,0h0Z"/><path class="cls-1" d="m48.01,47c.04-5.55-.5-16.45-3.5-22.99-1.8-3.93-4.18-7.13-7.07-9.5-.52-.43-1.07-.78-1.62-1.08,1.43,2.54,2.6,5.88,3.47,9.95,1.47,6.77,1.73,17.94,1.71,23.62h7.01Z"/><path class="cls-1" d="m38.7,12.96c3.14,2.57,5.7,6.01,7.63,10.21,3.14,6.86,3.72,18.1,3.67,23.83h7.99c.05-4.99-.55-16.4-5.46-23.41-3.33-4.75-7.5-7.85-11.25-9.85-1.12-.6-2.28-1.08-3.47-1.44.3.2.6.42.89.66Z"/><path class="cls-1" d="m33,47h6c.02-5.59-.24-16.59-1.66-23.2-.86-3.97-1.98-7.18-3.35-9.56-.32-.56-.66-1-.99-1.31v34.07Z"/><path class="cls-1" d="m31,47V12.93c-.33.31-.67.75-.99,1.31-1.37,2.38-2.49,5.59-3.35,9.56-1.42,6.61-1.68,17.61-1.66,23.2h6Z"/><path class="cls-1" d="m58,49h-4v5c0,.55-.45,1-1,1s-1-.45-1-1v-5h-4v5c0,.55-.45,1-1,1s-1-.45-1-1v-5h-4v5c0,.55-.45,1-1,1s-1-.45-1-1v-5h-4v5c0,.55-.45,1-1,1s-1-.45-1-1v-5h-4v5c0,.55-.45,1-1,1s-1-.45-1-1v-5h-4v5c0,.55-.45,1-1,1s-1-.45-1-1v-5h-4v5c0,.55-.45,1-1,1s-1-.45-1-1v-5h-4v5c0,.55-.45,1-1,1s-1-.45-1-1v-5h-4c-1.1,0-2,.9-2,2v6c0,1.1.9,2,2,2h52c1.1,0,2-.9,2-2v-6c0-1.1-.9-2-2-2Z"/></svg>