<?xml version="1.0" encoding="UTF-8"?><svg id="Glyph" xmlns="http://www.w3.org/2000/svg" viewBox="0 0 64 64"><defs><style>.cls-1{stroke-width:0px;}</style></defs><rect class="cls-1" x="14" y="21" width="36" height="6" rx="1" ry="1"/><path class="cls-1" d="m46.41,19h-28.82l.77-2.63c.24-.82.92-1.37,1.68-1.37h23.92c.76,0,1.44.55,1.68,1.37l.77,2.63Z"/><path class="cls-1" d="m17.68,33h28.63c.06,0,.11.01.17.02l.34-4.02h-29.66l.34,4.02c.06,0,.11-.02.17-.02Z"/><path class="cls-1" d="m19.06,51l.61,7.17c.08,1.04.89,1.83,1.86,1.83h20.94c.97,0,1.78-.79,1.86-1.83l.61-7.17h-25.89Z"/><path class="cls-1" d="m23.68,11.17c-.18,0-.37-.05-.54-.16-.47-.3-.6-.91-.31-1.38l.74-1.17c.11-.18.06-.42-.12-.53-.54-.34-.91-.87-1.05-1.49-.14-.62-.03-1.26.31-1.8l.74-1.17c.3-.47.91-.6,1.38-.31.47.3.6.91.31,1.38l-.74,1.17c-.07.12-.06.23-.05.29.01.06.05.17.17.24,1.11.71,1.44,2.18.74,3.29l-.74,1.17c-.19.3-.51.46-.85.46Z"/><path class="cls-1" d="m31.68,11.17c-.18,0-.37-.05-.54-.16-.47-.3-.6-.91-.31-1.38l.74-1.17c.11-.18.06-.42-.12-.53-.54-.34-.91-.87-1.05-1.49-.14-.62-.03-1.26.31-1.8l.74-1.17c.3-.47.91-.6,1.38-.31.47.3.6.91.31,1.38l-.74,1.17c-.07.12-.06.23-.05.29.01.06.05.17.17.24,1.11.71,1.44,2.18.74,3.29l-.74,1.17c-.19.3-.51.46-.85.46Z"/><path class="cls-1" d="m39.68,11.17c-.18,0-.37-.05-.54-.16-.47-.3-.6-.91-.31-1.38l.74-1.17c.11-.18.06-.42-.12-.53-.54-.34-.91-.87-1.05-1.49-.14-.62-.03-1.26.31-1.8l.74-1.17c.3-.47.91-.6,1.38-.31.47.3.6.91.31,1.38l-.74,1.17c-.07.12-.06.23-.05.29.01.06.05.17.17.24,1.11.71,1.44,2.18.74,3.29l-.74,1.17c-.19.3-.51.46-.85.46Z"/><path class="cls-1" d="m17.68,35l1.19,14h26.25l1.19-14h-28.63Zm14.32,10c-1.66,0-3-1.34-3-3s1.34-3,3-3,3,1.34,3,3-1.34,3-3,3Z"/></svg>