<?xml version="1.0" encoding="UTF-8"?><svg id="Glyph" xmlns="http://www.w3.org/2000/svg" viewBox="0 0 64 64"><defs><style>.cls-1{stroke-width:0px;}</style></defs><rect class="cls-1" x="10" y="56" width="44" height="4" rx="1" ry="1"/><polygon class="cls-1" points="16.17 46 13.63 54 50.37 54 47.83 46 16.17 46"/><path class="cls-1" d="m29.02,20.69c-.14.23-.28.46-.43.69-2.06,3.16-4.35,5.23-5.96,6.47,1.12.22,3.51.49,6.11-.61-.05.08-.1.16-.15.24-2.06,3.16-4.35,5.23-5.96,6.47,1.23.23,3.95.56,6.81-.92.23-.12.45-.23.65-.36l1.32,2.08c.29.45.9.45,1.19,0l1.32-2.08c.2.13.42.24.65.36,2.86,1.48,5.59,1.16,6.81.92-1.61-1.24-3.9-3.31-5.96-6.47-.05-.08-.1-.16-.15-.24,2.6,1.09,4.99.82,6.11.61-1.61-1.24-3.9-3.31-5.96-6.47-.15-.23-.29-.46-.43-.69,2.11.77,4.03.56,4.95.4-1.37-.99-3.3-2.65-5.05-5.17-1.55-2.24-2.4-4.37-2.88-5.91-.48,1.54-1.34,3.68-2.88,5.91-1.75,2.53-3.68,4.18-5.05,5.17.92.17,2.84.38,4.95-.4Z"/><circle class="cls-1" cx="16" cy="26" r="2"/><circle class="cls-1" cx="23" cy="13" r="2"/><circle class="cls-1" cx="49" cy="26" r="2"/><circle class="cls-1" cx="44" cy="15" r="2"/><path class="cls-1" d="m16.17,44h31.67c.57,0,1.07.26,1.44.65,4.16-4.32,6.72-10.18,6.72-16.65,0-13.25-10.75-24-24-24S8,14.75,8,28c0,6.47,2.56,12.33,6.72,16.65.37-.39.88-.65,1.44-.65ZM32,6c12.13,0,22,9.87,22,22,0,3.73-.94,7.25-2.59,10.33-5.97-.1-10.99,3.51-17.54,3.42v-5.44c-.5.49-1.16.77-1.87.77s-1.37-.28-1.87-.77v4.97c-.37-.09-.75-.17-1.13-.28-6.83-2.05-11.78-.53-14.24.64-2.98-3.75-4.76-8.49-4.76-13.64,0-12.13,9.87-22,22-22Z"/></svg>