<?xml version="1.0" encoding="UTF-8"?><svg id="Glyph" xmlns="http://www.w3.org/2000/svg" viewBox="0 0 64 64"><defs><style>.cls-1{stroke-width:0px;}</style></defs><path class="cls-1" d="m28.56,17.14c-4.02.66-10.71,2.6-15.41,8.29-2.09,2.53-4.56,6.29-5.15,12.97,3.03-2.27,6.19-2.4,7.2-2.4,2.13,0,3.88.56,5.15,1.17-.07-3.44.48-8.15,3.01-13.06,1.35-2.6,3.09-4.93,5.2-6.97Z"/><path class="cls-1" d="m33,17.63v-5.43c0-.55-.45-1-1-1s-1,.45-1,1v5.43c-1.75,1.52-4.05,3.91-5.86,7.4-2.94,5.68-2.91,10.99-2.74,13.37,3.42-1.82,6.6-2.27,8.6-2.37v19.8c0,1.39-1.14,2.87-2.4,3.11-1,.19-2.02-.11-2.72-.82-.56-.56-.88-1.33-.88-2.12v-2.8c0-.55-.45-1-1-1s-1,.45-1,1v2.8c0,1.34.52,2.6,1.46,3.54.94.94,2.22,1.46,3.54,1.46.32,0,.65-.03.97-.09,2.22-.43,4.02-2.71,4.02-5.08v-19.79c4.08.2,7.12,1.57,8.6,2.36.17-2.38.2-7.69-2.74-13.37-1.81-3.49-4.11-5.88-5.86-7.4Z"/><path class="cls-1" d="m35.45,17.15c2.1,2.03,3.84,4.37,5.19,6.96,2.53,4.91,3.08,9.61,3.01,13.05,2.3-1.08,4.37-1.16,5.15-1.16,3.79,0,6.39,1.79,7.2,2.4-1.8-16.17-14.35-20.23-20.55-21.25Z"/><circle class="cls-1" cx="8" cy="17" r="2"/><circle class="cls-1" cx="19" cy="12" r="2"/><path class="cls-1" d="m19,6.97c.55,0,1-.45,1-1v-1.97c0-.55-.45-1-1-1s-1,.45-1,1v1.97c0,.55.45,1,1,1Z"/><path class="cls-1" d="m8,11.97c.55,0,1-.45,1-1v-2.97c0-.55-.45-1-1-1s-1,.45-1,1v2.97c0,.55.45,1,1,1Z"/><circle class="cls-1" cx="56" cy="17" r="2"/><circle class="cls-1" cx="45" cy="12" r="2"/><path class="cls-1" d="m45,6.97c.55,0,1-.45,1-1v-1.97c0-.55-.45-1-1-1s-1,.45-1,1v1.97c0,.55.45,1,1,1Z"/><path class="cls-1" d="m56,11.97c.55,0,1-.45,1-1v-3.97c0-.55-.45-1-1-1s-1,.45-1,1v3.97c0,.55.45,1,1,1Z"/></svg>