<?xml version="1.0" encoding="UTF-8"?><svg id="Glyph" xmlns="http://www.w3.org/2000/svg" viewBox="0 0 64 64"><defs><style>.cls-1{stroke-width:0px;}</style></defs><path class="cls-1" d="m25.98,16c-.3.02-.52.13-.69.29-.11.11-.29.35-.29.71v2h2.1c-.07-.33-.1-.66-.1-1v-.77c0-.64-.49-1.23-1.02-1.23Z"/><path class="cls-1" d="m38.08,15s0,0,0,0c-.43,0-.66.18-.77.29-.11.11-.29.35-.29.71v1.83c0,.4-.06.79-.14,1.17h2.14v-2.83c0-.6-.42-1.13-.92-1.17Z"/><path class="cls-1" d="m13,21v6h7c-1.33,0-2.59-.52-3.53-1.47-.95-.94-1.47-2.2-1.47-3.53v-1h-2Z"/><path class="cls-1" d="m15,35h5.38c.6-2.36,1.91-4.44,3.68-6h-9.06v6Z"/><path class="cls-1" d="m49,29h-9.06c.19.16.37.33.55.51,1.49,1.49,2.59,3.38,3.13,5.49h5.38v-6Z"/><path class="cls-1" d="m21,26.88c-.21.04-.42.09-.64.11-.12,0-.24.01-.36.01h1v-.12Z"/><path class="cls-1" d="m50,15c-.55,0-1,.45-1,1v2.83c0,.06-.01.11-.02.17h6.65c-1.05-1.68-2.29-3.23-3.67-4.64-.37.39-.88.64-1.44.64h-.52Z"/><path class="cls-1" d="m53,27h6.12c-.55-2.1-1.33-4.11-2.32-6h-3.8v6Z"/><path class="cls-1" d="m33,22.88v3.16c1.34.11,2.63.44,3.81.96h4.19v-4.03c-.18-.14-.37-.27-.53-.44-.45-.44-.8-.97-1.05-1.53h-3.5c-.72.95-1.74,1.63-2.92,1.88Z"/><path class="cls-1" d="m25,21.83c0,1.68-.79,3.18-2,4.13v1.04h4.19c1.18-.52,2.47-.85,3.81-.96v-3.14c-.95-.19-1.83-.66-2.53-1.37-.17-.16-.3-.35-.44-.53h-3.03v.83Z"/><path class="cls-1" d="m12,43h8v-5c0-.34.01-.67.04-1h-8.04v6Z"/><path class="cls-1" d="m44,43h8v-6h-8.04c.03.33.04.66.04,1v5Z"/><rect class="cls-1" x="4" y="45" width="8" height="7"/><rect class="cls-1" x="54" y="37" width="6" height="6"/><rect class="cls-1" x="52" y="45" width="8" height="7"/><path class="cls-1" d="m59.55,29h-8.55v6h9v-1c0-1.71-.15-3.38-.45-5Z"/><rect class="cls-1" x="14" y="45" width="6" height="7"/><rect class="cls-1" x="44" y="45" width="6" height="7"/><path class="cls-1" d="m15,16c0-.55-.45-1-1-1h-.52c-.55,0-1.05-.24-1.42-.62-1.38,1.41-2.63,2.95-3.69,4.62h6.63v-3Z"/><path class="cls-1" d="m44.36,23.99c-.12,0-.24.01-.36.01-.34,0-.67-.04-1-.1v3.1h8v-6h-2.48c-.75,1.65-2.3,2.85-4.15,2.99Z"/><path class="cls-1" d="m11,21h-3.8c-.99,1.89-1.77,3.9-2.32,6h6.12v-6Z"/><path class="cls-1" d="m13,29H4.45c-.3,1.62-.45,3.29-.45,5v1h9v-6Z"/><rect class="cls-1" x="4" y="37" width="6" height="6"/><path class="cls-1" d="m32,31c-3.87,0-7,3.13-7,7v14h14v-14c0-3.87-3.13-7-7-7Z"/><path class="cls-1" d="m17,16v6c0,.83.34,1.58.88,2.12.59.59,1.42.94,2.34.87,1.6-.11,2.78-1.56,2.78-3.16v-4.83c0-.83.34-1.58.88-2.12.49-.49,1.14-.81,1.87-.87,1.78-.15,3.25,1.43,3.25,3.22v.77c0,.83.34,1.58.88,2.12.59.59,1.42.94,2.34.87,1.6-.11,2.78-1.56,2.78-3.16v-1.83c0-.83.34-1.58.88-2.12.59-.59,1.42-.94,2.34-.87,1.6.11,2.78,1.56,2.78,3.16v2.83c0,.83.34,1.58.88,2.12.59.59,1.42.94,2.34.87,1.6-.11,2.78-1.56,2.78-3.16v-2.83c0-1.66,1.34-3,3-3h.52c-4.94-4.35-11.42-7-18.52-7s-13.58,2.65-18.52,7h.52c1.66,0,3,1.34,3,3Z"/></svg>