<?xml version="1.0" encoding="UTF-8"?><svg id="Glyph" xmlns="http://www.w3.org/2000/svg" viewBox="0 0 64 64"><defs><style>.cls-1{stroke-width:0px;}</style></defs><path class="cls-1" d="m54,9h-6c0-2.8-1.76-5-4-5s-4,2.2-4,5h2c0-1.63.92-3,2-3s2,1.37,2,3h-4c0,1.13.44,2.13,1.07,2.64.14-.37.51-.64.93-.64.55,0,1,.45,1,1v2c0,.55-.45,1-1,1s-1-.45-1-1v-.16c-1.74-.53-3-2.47-3-4.84h-5c0-2.8-1.76-5-4-5s-4,2.2-4,5h2c0-1.63.92-3,2-3s2,1.37,2,3h-4c0,1.13.44,2.13,1.07,2.64.14-.37.51-.64.93-.64.55,0,1,.45,1,1v2c0,.55-.45,1-1,1s-1-.45-1-1v-.16c-1.74-.53-3-2.47-3-4.84h-5c0-2.8-1.76-5-4-5s-4,2.2-4,5h2c0-1.63.92-3,2-3s2,1.37,2,3h-4c0,1.13.44,2.13,1.07,2.64.14-.37.51-.64.93-.64.55,0,1,.45,1,1v2c0,.55-.45,1-1,1s-1-.45-1-1v-.16c-1.74-.53-3-2.47-3-4.84h-4c-1.1,0-2,.9-2,2v6h48v-6c0-1.1-.9-2-2-2Z"/><polygon class="cls-1" points="33.81 39.05 33.81 36.95 32 35.9 30.19 36.95 30.19 39.05 32 40.1 33.81 39.05"/><path class="cls-1" d="m8,55c0,1.1.9,2,2,2h44c1.1,0,2-.9,2-2V19H8v36Zm16.59-20.12l-5.33,1.43c-.09.02-.17.03-.26.03-.44,0-.85-.29-.97-.74-.14-.53.17-1.08.71-1.22l3.41-.91-3.36-1.94c-.48-.28-.64-.89-.37-1.37.28-.48.89-.64,1.37-.37l3.36,1.94-.91-3.39c-.14-.53.17-1.08.71-1.22.54-.15,1.08.17,1.22.71l1.43,5.34,3.59,2.07,1.82-1.05v-4.15l-3.9-3.9c-.39-.39-.39-1.02,0-1.41s1.02-.39,1.41,0l2.49,2.49v-3.88c0-.55.45-1,1-1s1,.45,1,1v3.88l2.49-2.49c.39-.39,1.02-.39,1.41,0s.39,1.02,0,1.41l-3.9,3.9v4.15l1.82,1.05,3.59-2.07,1.43-5.34c.14-.53.69-.85,1.22-.71.53.14.85.69.71,1.22l-.91,3.39,3.36-1.94c.48-.28,1.09-.11,1.37.37.28.48.11,1.09-.37,1.37l-3.36,1.94,3.41.91c.53.14.85.69.71,1.22-.12.45-.52.74-.97.74-.09,0-.17-.01-.26-.03l-5.33-1.43-3.6,2.08v2.09l3.6,2.08,5.33-1.43c.53-.14,1.08.17,1.22.71s-.17,1.08-.71,1.22l-3.41.91,3.36,1.94c.48.28.64.89.37,1.37-.19.32-.52.5-.87.5-.17,0-.34-.04-.5-.13l-3.36-1.94.91,3.39c.14.53-.17,1.08-.71,1.22-.09.02-.17.03-.26.03-.44,0-.85-.29-.97-.74l-1.43-5.34-3.59-2.07-1.82,1.05v4.15l3.9,3.9c.39.39.39,1.02,0,1.41-.2.2-.45.29-.71.29s-.51-.1-.71-.29l-2.49-2.49v3.88c0,.55-.45,1-1,1s-1-.45-1-1v-3.88l-2.49,2.49c-.39.39-1.02.39-1.41,0s-.39-1.02,0-1.41l3.9-3.9v-4.15l-1.82-1.05-3.59,2.07-1.43,5.34c-.12.45-.52.74-.97.74-.09,0-.17-.01-.26-.03-.53-.14-.85-.69-.71-1.22l.91-3.39-3.36,1.94c-.16.09-.33.13-.5.13-.35,0-.68-.18-.87-.5-.28-.48-.11-1.09.37-1.37l3.36-1.94-3.41-.91c-.53-.14-.85-.69-.71-1.22.14-.53.69-.85,1.22-.71l5.33,1.43,3.6-2.08v-2.09l-3.6-2.08Z"/></svg>