<?xml version="1.0" encoding="UTF-8"?><svg id="Glyph" xmlns="http://www.w3.org/2000/svg" viewBox="0 0 64 64"><defs><style>.cls-1{stroke-width:0px;}</style></defs><path class="cls-1" d="m59,7h-4c-1.1,0-2,.9-2,2v1.62h-3v-2.62c0-2.21-1.79-4-4-4h-28c-2.21,0-4,1.79-4,4v2.62h-3v-1.62c0-1.1-.9-2-2-2h-4c-1.1,0-2,.9-2,2v8c0,1.1.9,2,2,2h4c1.1,0,2-.9,2-2v-2h3v10h-2c-1.66,0-3,1.34-3,3v9h12v-12h-5V9h32v16h-5v12h12v-9c0-1.66-1.34-3-3-3h-2v-10h3v2c0,1.1.9,2,2,2h4c1.1,0,2-.9,2-2v-8c0-1.1-.9-2-2-2Zm-40,25c0,1.66-1.34,3-3,3s-3-1.34-3-3,1.34-3,3-3,3,1.34,3,3Zm32,0c0,1.66-1.34,3-3,3s-3-1.34-3-3,1.34-3,3-3,3,1.34,3,3Z"/><path class="cls-1" d="m39,23h-14c-1.1,0-2,.9-2,2v12h18v-12c0-1.1-.9-2-2-2Zm-10,12c0,.55-.45,1-1,1s-1-.45-1-1v-8c0-.55.45-1,1-1s1,.45,1,1v8Zm4,0c0,.55-.45,1-1,1s-1-.45-1-1v-8c0-.55.45-1,1-1s1,.45,1,1v8Zm4,0c0,.55-.45,1-1,1s-1-.45-1-1v-8c0-.55.45-1,1-1s1,.45,1,1v8Z"/><polygon class="cls-1" points="6.29 43 57.71 43 59 39 5 39 6.29 43"/><path class="cls-1" d="m56.68,46.22l.39-1.22H6.93l.39,1.22c.69,2.15.69,4.41,0,6.56l-2.32,7.22h6v-2.24c0-2.96,2-5.46,4.71-6.23.77-2.72,3.27-4.71,6.23-4.71,1.6,0,3.1.58,4.26,1.61.77-.32,1.61-.49,2.45-.49.56,0,1.12.08,1.66.23,1.12-.87,2.49-1.34,3.92-1.34s2.8.48,3.91,1.33c1.11-.85,2.47-1.33,3.91-1.33,2.96,0,5.46,2,6.23,4.71,2.72.77,4.71,3.27,4.71,6.23v2.24h6l-2.32-7.22c-.69-2.15-.69-4.41,0-6.56Z"/><path class="cls-1" d="m46.53,53.29c0-2.47-2-4.47-4.47-4.47-1.7,0-3.15.96-3.91,2.35-.76-1.39-2.22-2.35-3.91-2.35-1.41,0-2.65.66-3.46,1.68-.63-.35-1.35-.56-2.12-.56-1.1,0-2.1.41-2.88,1.08-.78-1.31-2.19-2.19-3.83-2.19-2.47,0-4.47,2-4.47,4.47-2.47,0-4.47,2-4.47,4.47v2.24h38v-2.24c0-2.47-2-4.47-4.47-4.47Z"/></svg>