<?xml version="1.0" encoding="UTF-8"?><svg id="Glyph" xmlns="http://www.w3.org/2000/svg" viewBox="0 0 64 64"><defs><style>.cls-1{stroke-width:0px;}</style></defs><path class="cls-1" d="m58,45.82v7.18H21.83c-.95-5.67-5.89-10-11.83-10v-10.03c1.83,2.44,4.73,4.03,8,4.03,5.51,0,10-4.49,10-10v-11.07c.67-.1,1.33-.29,1.95-.58h.1c.93.43,1.92.65,2.95.65s2.01-.21,2.93-.64h.13c.62.28,1.27.47,1.94.57v1.07h-4c-.55,0-1,.45-1,1s.45,1,1,1h4v3h-4c-.55,0-1,.45-1,1s.45,1,1,1h4v3h-4c-.55,0-1,.45-1,1s.45,1,1,1h4v.24c0,.96.14,1.88.4,2.76h-4.4c-.55,0-1,.45-1,1s.45,1,1,1h5.24c1.66,2.98,4.86,5,8.52,5h3.42c3.77,0,6.82,3.05,6.82,6.82Z"/><path class="cls-1" d="m26,15.93v11.07c0,4.42-3.58,8-8,8s-8-3.58-8-8v-11.07c.67-.1,1.32-.29,1.94-.57h.13c.92.43,1.91.64,2.93.64s2.02-.22,2.95-.65h.1c.93.43,1.92.65,2.95.65s2.02-.22,2.95-.65h.1c.62.29,1.28.48,1.95.58Z"/><path class="cls-1" d="m43.96,9.64c-.28,2.27-2.16,4.11-4.44,4.34-.94.09-1.84-.07-2.62-.43-.57-.26-1.24-.26-1.81,0-.63.29-1.34.45-2.09.45s-1.47-.16-2.1-.46c-.56-.26-1.23-.26-1.79,0-.64.3-1.35.46-2.1.46s-1.47-.16-2.1-.46c-.56-.26-1.23-.26-1.79,0-.64.3-1.35.46-2.1.46s-1.47-.16-2.1-.46c-.56-.26-1.23-.26-1.79,0-.64.3-1.35.46-2.1.46s-1.46-.16-2.09-.45c-.57-.26-1.24-.27-1.81,0-.78.36-1.68.52-2.62.43-2.27-.23-4.16-2.07-4.44-4.34-.38-3.04,1.99-5.64,4.96-5.64.75,0,1.47.16,2.1.46.56.26,1.23.26,1.79,0,.64-.3,1.35-.46,2.1-.46s1.47.16,2.1.46c.56.26,1.23.26,1.79,0,.64-.3,1.35-.46,2.1-.46s1.47.16,2.1.46c.56.26,1.23.26,1.79,0,.64-.3,1.35-.46,2.1-.46s1.47.16,2.1.46c.56.26,1.23.26,1.79,0,.64-.3,1.35-.46,2.1-.46s1.47.16,2.1.46c.56.26,1.23.26,1.79,0,.64-.3,1.35-.46,2.1-.46,2.97,0,5.34,2.59,4.96,5.64Z"/><path class="cls-1" d="m58,55v5h-5.95l-1.39-1.23c-.38-.33-.95-.33-1.32,0l-1.39,1.23h-3.9l-1.39-1.23c-.38-.33-.95-.33-1.32,0l-1.39,1.23h-3.9l-1.39-1.23c-.38-.33-.95-.33-1.32,0l-1.39,1.23h-3.9l-1.39-1.23c-.38-.33-.95-.33-1.32,0l-1.39,1.23h-3.9l-1.39-1.23c-.38-.33-.95-.33-1.32,0l-1.39,1.23h-5.95v-5h48Z"/><path class="cls-1" d="m19.8,53h-9.8v-8c2.76,0,5.26,1.12,7.07,2.93,1.36,1.36,2.33,3.11,2.73,5.07Z"/><path class="cls-1" d="m41,18c0,.55-.45,1-1,1h-2v-2h2c.55,0,1,.45,1,1Z"/><path class="cls-1" d="m41,23c0,.55-.45,1-1,1h-2v-2h2c.55,0,1,.45,1,1Z"/><path class="cls-1" d="m41,28c0,.55-.45,1-1,1h-2v-2h2c.55,0,1,.45,1,1Z"/><path class="cls-1" d="m41,33c0,.55-.45,1-1,1h-.76c-.36-.63-.64-1.3-.84-2h1.6c.55,0,1,.45,1,1Z"/></svg>