<?xml version="1.0" encoding="UTF-8"?><svg id="Glyph" xmlns="http://www.w3.org/2000/svg" viewBox="0 0 64 64"><defs><style>.cls-1{stroke-width:0px;}</style></defs><path class="cls-1" d="m24.23,34.67l10.42,4.46c1.47.63,3.03.95,4.62.95h19.89v-1.42c0-2.53-1.65-4.76-4.08-5.45-2.18-.63-4.8-1.55-7.6-2.96-.03.06-.07.12-.11.17l-1.75,2.15c-.19.24-.48.37-.77.37-.23,0-.45-.08-.63-.23-.43-.35-.5-.98-.15-1.41l1.62-2c-.92-.51-1.85-1.07-2.79-1.71-.06.07-.12.14-.19.2l-2.37,2.02c-.19.16-.42.24-.65.24-.28,0-.57-.12-.76-.35-.36-.43-.31-1.06.11-1.41l2.19-1.87c-.78-.57-1.57-1.2-2.35-1.87-.06.07-.14.14-.23.19l-2.94,1.77c-.16.09-.33.14-.51.14-.34,0-.67-.17-.86-.48-.28-.48-.13-1.09.34-1.38l2.68-1.6c-.7-.66-1.36-1.33-1.98-2-.08.07-.16.13-.25.17l-2.95,1.36c-.14.06-.28.09-.42.09-.38,0-.74-.21-.91-.58-.23-.5,0-1.1.49-1.33l2.7-1.24c-.64-.75-1.22-1.49-1.75-2.22-.08.06-.17.11-.27.14l-3.11,1.04c-.11.03-.21.05-.32.05-.42,0-.81-.27-.95-.69-.17-.52.11-1.09.63-1.26l2.85-.95c-.65-.99-1.22-1.94-1.73-2.86-.05.03-.1.05-.16.07l-3.24,1.08c-.11.04-.22.06-.32.06-.42,0-.81-.27-.95-.69-.17-.52.11-1.09.63-1.26l3.11-1.04c-.62-1.23-1.1-2.36-1.49-3.33-.16-.41-.56-.68-1-.68H7.24c-.59,0-1.08.49-1.08,1.08v11.23c0,1.88-.33,3.74-.97,5.49-.67,1.82-1.01,3.74-1.01,5.68v2.81h13.85c2.15,0,4.24.42,6.2,1.26Z"/><path class="cls-1" d="m59.84,49.01c-.21.08-.44.13-.68.13h-3.53l.18.44c.57,1.42-.48,2.97-2.01,2.97h-8.7c-1.19,0-2.16-.97-2.16-2.16v-1.25h-4.33v1.25c0,1.19-.97,2.16-2.16,2.16H15.9c-1.19,0-2.16-.97-2.16-2.16v-2.49h-4.33v4.65h-4.33c-.6,0-1.08.48-1.08,1.08v2.16c0,.6.48,1.08,1.08,1.08h48.42c4.24,0,7.2-3.94,6.33-7.86Z"/><path class="cls-1" d="m20.22,45.9v-5.25l14.44,5.78c1.18.47,2.44.71,3.71.71h20.79v-5.06h-19.89c-1.86,0-3.7-.38-5.41-1.11l-10.42-4.46c-1.71-.73-3.55-1.1-5.41-1.1H4.18l2.17,10.49h13.87Z"/><path class="cls-1" d="m29.86,11.72c-.17-.53-.73-.81-1.26-.64l-.14.05c.28.57.59,1.17.93,1.78.42-.22.63-.73.47-1.19Z"/><path class="cls-1" d="m32.65,16.31c-.17-.52-.73-.8-1.26-.63l-.27.09c.37.55.75,1.11,1.17,1.67.35-.25.51-.7.36-1.13Z"/><path class="cls-1" d="m35.62,20.03c-.23-.5-.82-.72-1.33-.49l-.25.12c.42.51.87,1.02,1.34,1.53.32-.28.43-.75.24-1.16Z"/><path class="cls-1" d="m38.88,24.55c.28-.32.34-.79.11-1.18-.29-.47-.9-.62-1.37-.34l-.26.16c.06.05.11.11.17.16.45.42.9.82,1.35,1.2Z"/><path class="cls-1" d="m42.83,26.38c-.36-.42-.99-.47-1.41-.12l-.19.16c.56.42,1.11.81,1.67,1.17.25-.37.23-.86-.07-1.21Z"/><path class="cls-1" d="m47.22,29.02c-.43-.35-1.06-.29-1.41.14l-.12.14c.6.35,1.2.66,1.79.95.21-.41.11-.92-.26-1.23Z"/></svg>