<?xml version="1.0" encoding="UTF-8"?><svg id="Glyph" xmlns="http://www.w3.org/2000/svg" viewBox="0 0 64 64"><defs><style>.cls-1{stroke-width:0px;}</style></defs><path class="cls-1" d="m41.45,29.27c.18.32.52.5.86.5.17,0,.35-.05.5-.14.55-.32,1.14-.59,1.74-.81-.37-.65-.92-1.18-1.59-1.51-.39.18-.78.37-1.15.59-.48.28-.64.89-.36,1.37Z"/><path class="cls-1" d="m21.19,33c.46,0,.87-.32.98-.78.12-.54-.22-1.07-.76-1.2-.8-.18-1.62-.28-2.44-.31v2c.67.03,1.35.12,2,.27.08.01.15.02.22.02Z"/><path class="cls-1" d="m21.69,29.77c.34,0,.68-.18.86-.5.28-.48.12-1.09-.36-1.37-.37-.22-.76-.41-1.15-.59-.67.33-1.22.86-1.59,1.51.6.22,1.19.49,1.74.81.15.09.33.14.5.14Z"/><path class="cls-1" d="m42.59,31.02c-.54.13-.88.66-.76,1.2.11.46.52.78.98.78.07,0,.14-.01.22-.02.65-.15,1.33-.24,2-.27v-2c-.82.03-1.64.13-2.44.31Z"/><path class="cls-1" d="m55,48.5c-.23-.58-.58-1.3-.92-1.97-.72-1.41-1.08-2.97-1.08-4.56v-16.47c0-11.85-9.81-21.41-21.76-20.99-11.38.4-20.24,10.1-20.24,21.49v15.97c0,1.58-.36,3.15-1.08,4.56-.34.67-.69,1.39-.92,1.97-1.72,4.29-2.04,8.23-2,11h11.98c2.04-4.97,7.1-8.5,13.02-8.5s10.98,3.53,13.03,8.5h11.97c.04-2.77-.28-6.71-2-11Zm-15-33.5c1.24,0,2.25,1.34,2.25,3s-1.01,3-2.25,3-2.25-1.34-2.25-3,1.01-3,2.25-3Zm-9.36,9h2.73c2.03,0,3.29,2.19,2.28,3.95l-1.36,2.36c-1.01,1.76-3.55,1.76-4.56,0l-1.36-2.36c-1.01-1.76.25-3.95,2.28-3.95Zm-6.64-9c1.24,0,2.25,1.34,2.25,3s-1.01,3-2.25,3-2.25-1.34-2.25-3,1.01-3,2.25-3Zm1.43,29.93c-.33,1.08-1.53,1.08-1.86,0l-1.53-5.03c.48.12.98.18,1.5.18h2.96c.14,0,.27,0,.41,0l-1.48,4.86Zm15,0c-.33,1.08-1.53,1.08-1.86,0l-1.48-4.86c.14,0,.27,0,.41,0h2.96c.52,0,1.02-.06,1.5-.18l-1.53,5.03Zm8.74-12.71c-.12.54-.66.88-1.2.76-.85-.2-1.71-.28-2.61-.28-.11,0-.22,0-.33,0v.8c0,.36-.04.71-.12,1.04.08.02.15.04.23.06,1,.29,1.95.69,2.85,1.2.48.27.65.88.38,1.36-.18.33-.52.51-.87.51-.17,0-.33-.04-.49-.13-.76-.43-1.58-.77-2.42-1.02-.19-.05-.38-.1-.57-.14.42-.53.73-1.15.89-1.84-.81-.22-1.65-.37-2.49-.42-.55-.04-1.03.37-1.07.92-.04.55.37,1.03.93,1.07.58.04,1.16.13,1.73.27-.84,1.03-2.12,1.69-3.55,1.69h-2.96c-1.72,0-3.64-.94-4.7-2.34-.41-.54-1.19-.54-1.6,0-1.06,1.4-2.98,2.34-4.7,2.34h-2.96c-1.43,0-2.71-.66-3.55-1.69.57-.14,1.15-.23,1.73-.27.56-.04.97-.52.93-1.07-.04-.55-.52-.96-1.07-.92-.84.05-1.68.2-2.49.42.16.69.47,1.31.89,1.84-.19.04-.38.09-.57.14-.84.25-1.66.59-2.42,1.02-.15.09-.32.13-.49.13-.35,0-.69-.18-.87-.51-.27-.48-.1-1.09.38-1.36.9-.51,1.85-.91,2.85-1.2.08-.02.15-.04.23-.06-.08-.33-.12-.68-.12-1.04v-.8c-.11,0-.22,0-.33,0-.88-.01-1.76.08-2.61.28-.54.12-1.08-.22-1.2-.76-.12-.54.22-1.07.76-1.2,1.01-.22,2.06-.32,3.07-.32.1,0,.21,0,.31,0v-.07c0-.66.17-1.28.48-1.82-.13-.05-.27-.1-.41-.15-.83-.27-1.7-.44-2.57-.52-.55-.04-.96-.53-.92-1.08.05-.55.52-.96,1.08-.91,1.03.09,2.05.29,3.03.61.47.15.93.33,1.38.54.5-.25,1.06-.39,1.65-.39h3.33c.04.7.24,1.39.6,2.03l1.37,2.36c.84,1.45,2.34,2.32,4.01,2.32s3.17-.87,4.01-2.32l1.37-2.36c.36-.64.56-1.33.6-2.03h3.33c.59,0,1.15.14,1.65.39.45-.21.91-.39,1.38-.54.98-.32,2-.52,3.03-.61.56-.05,1.03.36,1.08.91.04.55-.37,1.04-.92,1.08-.87.08-1.74.25-2.57.52-.14.05-.28.1-.41.15.31.54.48,1.16.48,1.82v.07c.1,0,.21,0,.31,0,1.03,0,2.06.1,3.07.32.54.13.88.66.76,1.2Z"/></svg>