<?xml version="1.0" encoding="UTF-8"?><svg id="Glyph" xmlns="http://www.w3.org/2000/svg" viewBox="0 0 64 64"><defs><style>.cls-1{stroke-width:0px;}</style></defs><path class="cls-1" d="m17.19,38.49c-.06-.03-.13-.04-.19-.04s-.13,0-.19.04c-.9.34-1.85.51-2.81.51-.73,0-1.44-.1-2.12-.29-.23,3.33-.81,6.63-1.73,9.83-.57,2.02-1.28,4.01-2.12,5.94-.82,1.9-.01,4.12,1.83,5.09,2.08,1.08,4.62.16,5.55-2,.96-2.22,1.77-4.51,2.44-6.83,1.09-3.83,1.78-7.77,2.04-11.74-.92-.01-1.83-.18-2.7-.51Z"/><path class="cls-1" d="m55.97,54.48c-.84-1.93-1.55-3.92-2.12-5.94-.92-3.2-1.5-6.5-1.73-9.83-.68.19-1.39.29-2.12.29-.96,0-1.91-.17-2.81-.51-.06-.03-.13-.04-.19-.04s-.13,0-.19.04c-.87.33-1.78.5-2.7.51.26,3.97.95,7.91,2.04,11.74.67,2.32,1.48,4.61,2.44,6.83.93,2.16,3.47,3.08,5.55,2,1.84-.97,2.65-3.19,1.83-5.09Z"/><path class="cls-1" d="m42.09,38.76c-.3-.07-.6-.16-.9-.27-.06-.02-.13-.04-.19-.04s-.13.01-.19.04c-.9.34-1.85.51-2.81.51s-1.91-.17-2.81-.51c-.06-.02-.13-.04-.19-.04s-.13.01-.19.04c-.9.34-1.85.51-2.81.51s-1.91-.17-2.81-.51c-.06-.02-.13-.04-.19-.04s-.13.01-.19.04c-.9.34-1.85.51-2.81.51s-1.91-.17-2.81-.51c-.06-.02-.13-.04-.19-.04s-.13.01-.19.04c-.3.11-.6.2-.9.27-.26,4.24-.98,8.45-2.14,12.52-.51,1.79-1.11,3.57-1.8,5.31,3.52,1.03,8.31,2.02,14.03,2.02,5.72,0,10.5-.99,14.03-2.02-.68-1.74-1.29-3.52-1.8-5.31-1.16-4.08-1.88-8.28-2.14-12.52Z"/><path class="cls-1" d="m17.01,23.55c.06,0,.13-.01.19-.03.9-.34,1.84-.51,2.81-.51s1.91.17,2.81.51c.06.02.13.04.19.04s.13-.01.19-.04c.9-.34,1.85-.51,2.81-.51s1.91.17,2.81.51c.06.02.13.04.19.04s.13-.01.19-.04c.9-.34,1.85-.51,2.81-.51,1.03,0,2.05.2,3,.59.95-.39,1.97-.59,3-.59.96,0,1.91.17,2.81.51.06.02.13.04.19.04s.13-.01.19-.04c.9-.34,1.85-.51,2.81-.51s1.91.17,2.81.51c.06.02.12.03.19.03.07,0,.14-.01.22-.04.9-.33,1.83-.5,2.79-.5v-5c0-5.52-4.48-10-10-10h-3v-2c0-1.1-.9-2-2-2h-6c-1.1,0-2,.9-2,2v2h-3c-5.52,0-10,4.48-10,10v5c.96,0,1.89.17,2.79.5.08.03.15.04.22.04Z"/><path class="cls-1" d="m14,37c.74,0,1.45-.14,2.1-.38.58-.22,1.21-.22,1.79,0,.65.25,1.36.38,2.1.38s1.45-.14,2.1-.38c.58-.22,1.21-.22,1.79,0,.65.25,1.36.38,2.1.38s1.45-.14,2.1-.38c.58-.22,1.21-.22,1.79,0,.65.25,1.36.38,2.1.38s1.45-.14,2.1-.38c.58-.22,1.21-.22,1.79,0,.65.25,1.36.38,2.1.38s1.45-.14,2.1-.38c.58-.22,1.21-.22,1.79,0,.65.25,1.36.38,2.1.38s1.45-.14,2.1-.38c.58-.22,1.21-.22,1.79,0,.65.25,1.36.38,2.1.38,3.54,0,6.36-3.06,5.96-6.68-.29-2.62-2.34-4.8-4.94-5.24-1.11-.19-2.16-.06-3.11.29-.59.22-1.22.23-1.81,0-.65-.25-1.36-.38-2.1-.38s-1.45.14-2.1.38c-.58.22-1.21.22-1.79,0-.65-.25-1.36-.38-2.1-.38-1.09,0-2.12.3-3,.81-.88-.51-1.91-.81-3-.81-.74,0-1.45.14-2.1.38-.58.22-1.21.22-1.79,0-.65-.25-1.36-.38-2.1-.38s-1.45.14-2.1.38c-.58.22-1.21.22-1.79,0-.65-.25-1.36-.38-2.1-.38s-1.45.14-2.1.38c-.59.22-1.22.22-1.81,0-.95-.35-2-.48-3.11-.29-2.6.44-4.65,2.62-4.94,5.24-.4,3.62,2.43,6.68,5.96,6.68Z"/></svg>