<?xml version="1.0" encoding="UTF-8"?><svg id="Glyph" xmlns="http://www.w3.org/2000/svg" viewBox="0 0 64 64"><defs><style>.cls-1{stroke-width:0px;}</style></defs><path class="cls-1" d="m55,48.5c-.23-.58-.58-1.3-.92-1.97-.72-1.41-1.08-2.97-1.08-4.56v-16.47c0-11.85-9.81-21.41-21.76-20.99-11.38.4-20.24,10.1-20.24,21.49v15.97c0,1.58-.36,3.15-1.08,4.56-.34.67-.69,1.39-.92,1.97-1.72,4.29-2.04,8.23-2,11h7.15c0-3.54.44-8.78,2.68-14.63,1.32-3.46,2.94-6.27,4.41-8.42-.88-.89-4.24-4.6-4.24-9.95,0-6.35,3.81-11.5,8.5-11.5,2.61,0,4.94,1.59,6.5,4.09,1.56-2.5,3.89-4.09,6.5-4.09,4.69,0,8.5,5.15,8.5,11.5,0,5.35-3.36,9.06-4.24,9.95,1.47,2.15,3.09,4.96,4.41,8.42,2.23,5.84,2.68,11.09,2.68,14.63h7.15c.04-2.77-.28-6.71-2-11Z"/><ellipse class="cls-1" cx="25" cy="25" rx="2.25" ry="3"/><ellipse class="cls-1" cx="39" cy="25" rx="2.25" ry="3"/><path class="cls-1" d="m34.23,31.21h-4.45c-.73,0-1.22.76-.91,1.42l2.23,4.77c.36.77,1.45.77,1.81,0l2.23-4.77c.31-.66-.17-1.42-.91-1.42Z"/></svg>