<?xml version="1.0" encoding="UTF-8"?><svg id="Glyph" xmlns="http://www.w3.org/2000/svg" viewBox="0 0 64 64"><defs><style>.cls-1{stroke-width:0px;}</style></defs><path class="cls-1" d="m58.86,23.01l-1.72.24,2.68-3.83c.32-.45.21-1.08-.25-1.39-.45-.32-1.08-.21-1.39.25l-4.7,6.71-.5-2.21c-.12-.54-.66-.88-1.2-.75-.54.12-.88.66-.75,1.2l.9,3.98-4.23,6.04c-.1-.18-.2-.37-.31-.54-1.05,1.03-2.18,1.94-3.39,2.73v7.37c.01.06.02.13.02.2v2.53c0,.55-.45,1-1,1s-1-.45-1-1v-1.53h-2v1.53c0,.55-.45,1-1,1s-1-.45-1-1v-2.33c-.01-.06-.02-.13-.02-.2v-4.84c-1.93.54-3.94.84-6,.84-5.81,0-11.25-2.24-15.39-6.31-.11.18-.2.36-.31.54l-4.23-6.04.9-3.98c.12-.54-.22-1.07-.75-1.2-.54-.12-1.07.22-1.2.75l-.5,2.21-4.71-6.71c-.32-.45-.94-.56-1.39-.25-.45.32-.56.94-.25,1.39l2.68,3.83-1.72-.24c-.55-.08-1.05.3-1.13.85-.08.55.3,1.05.85,1.13l3.57.5,6.52,9.3c.11.16.27.26.43.33-.88,2.12-1.38,4.44-1.38,6.87,0,9.94,8.06,18,18,18s18-8.06,18-18c0-2.44-.5-4.75-1.38-6.87.17-.07.32-.17.43-.33l6.52-9.3,3.57-.5c.55-.08.93-.58.85-1.13s-.58-.93-1.13-.85Zm-26.86,32.33c-.55,0-1-.45-1-1s.45-1,1-1,1,.45,1,1-.45,1-1,1Zm0-6c-.55,0-1-.45-1-1s.45-1,1-1,1,.45,1,1-.45,1-1,1Zm0-6c-.55,0-1-.45-1-1s.45-1,1-1,1,.45,1,1-.45,1-1,1Z"/><path class="cls-1" d="m46.26,31.02c-1.02-1.33-2.23-2.51-3.58-3.51-2.72,2.77-6.5,4.49-10.68,4.49s-7.96-1.72-10.68-4.49c-1.35,1-2.55,2.18-3.58,3.51,3.63,3.69,8.67,5.98,14.26,5.98s10.63-2.29,14.26-5.98Z"/><path class="cls-1" d="m32,30c7.18,0,13-5.82,13-13s-5.82-13-13-13-13,5.82-13,13,5.82,13,13,13Zm4-17.78c0-.55.45-1,1-1s1,.45,1,1v2c0,.55-.45,1-1,1s-1-.45-1-1v-2Zm-2.15,7.24s0,.03,0,.05c0,.03,0,.06,0,.08-.01,1.54-1.6,2.57-3.04,2.03l-3.22-1.21c-.79-.3-.79-1.41,0-1.7l3.22-1.21c1.42-.53,3.01.45,3.04,1.97Zm-7.85-7.24c0-.55.45-1,1-1s1,.45,1,1v2c0,.55-.45,1-1,1s-1-.45-1-1v-2Z"/></svg>