<?xml version="1.0" encoding="UTF-8"?><svg id="Glyph" xmlns="http://www.w3.org/2000/svg" viewBox="0 0 64 64"><defs><style>.cls-1{stroke-width:0px;}</style></defs><path class="cls-1" d="m5,53v2c0,.55.45,1,1,1h3l1.47,3.45c.14.34.44.55.76.55h29.55c.32,0,.62-.21.76-.55l1.47-3.45h3c.55,0,1-.45,1-1v-2c0-.55-.45-1-1-1H6c-.55,0-1,.45-1,1Z"/><path class="cls-1" d="m17.46,7.84c.12.07.16.18.17.24.01.06.02.17-.05.29l-.74,1.17c-.3.47-.16,1.08.31,1.38.17.11.35.16.54.16.33,0,.66-.16.85-.46l.74-1.17c.34-.54.45-1.18.32-1.8-.14-.62-.51-1.15-1.05-1.5-.12-.07-.16-.18-.17-.24-.01-.06-.02-.17.05-.29l.74-1.17c.3-.47.16-1.08-.31-1.38-.46-.3-1.08-.16-1.38.31l-.74,1.17c-.34.54-.45,1.18-.32,1.8.14.62.51,1.15,1.05,1.5Z"/><path class="cls-1" d="m25.46,7.84c.12.07.16.18.17.24.01.06.02.17-.05.29l-.74,1.17c-.3.47-.16,1.08.31,1.38.17.11.35.16.54.16.33,0,.66-.16.85-.46l.74-1.17c.34-.54.45-1.18.32-1.8-.14-.62-.51-1.15-1.05-1.5-.12-.07-.16-.18-.17-.24-.01-.06-.02-.17.05-.29l.74-1.17c.3-.47.16-1.08-.31-1.38-.46-.3-1.08-.16-1.38.31l-.74,1.17c-.34.54-.45,1.18-.32,1.8.14.62.51,1.15,1.05,1.5Z"/><path class="cls-1" d="m33.46,7.84c.12.07.16.18.17.24.01.06.02.17-.05.29l-.74,1.17c-.3.47-.16,1.08.31,1.38.17.11.35.16.54.16.33,0,.66-.16.85-.46l.74-1.17c.34-.54.45-1.18.32-1.8-.14-.62-.51-1.15-1.05-1.5-.12-.07-.16-.18-.17-.24-.01-.06-.02-.17.05-.29l.74-1.17c.3-.47.16-1.08-.31-1.38s-1.08-.16-1.38.31l-.74,1.17c-.34.54-.45,1.18-.32,1.8.14.62.51,1.15,1.05,1.5Z"/><path class="cls-1" d="m53.56,18h-8.56c0-1.1-.9-2-2-2H9c-1.1,0-2,.9-2,2v3h5c1.66,0,3,1.34,3,3v9c0,.83.34,1.58.88,2.12.59.59,1.42.94,2.34.87,1.6-.11,2.78-1.56,2.78-3.16v-7.83c0-.83.34-1.58.88-2.12.48-.48,1.12-.8,1.84-.87,1.79-.16,3.28,1.42,3.28,3.22v2.77c0,.83.34,1.58.88,2.12.59.59,1.42.94,2.34.87,1.6-.11,2.78-1.56,2.78-3.16v-3.83c0-.83.34-1.58.88-2.12.54-.54,1.29-.88,2.12-.88h9v1h8.56c.8,0,1.44.64,1.44,1.44,0,5.02-3.38,9.46-8.21,10.8l-1.79.5v-11.74h-9c-.36,0-.6.18-.71.29-.11.11-.29.35-.29.71v3.83c0,2.71-2.04,4.98-4.64,5.16-.12,0-.24.01-.37.01-1.33,0-2.58-.52-3.52-1.46s-1.47-2.2-1.47-3.53v-2.77c0-.64-.49-1.23-1.02-1.23-.36.03-.57.18-.68.29-.11.11-.29.35-.29.71v7.83c0,2.71-2.04,4.98-4.64,5.16-.12,0-.24.01-.37.01-1.33,0-2.58-.52-3.52-1.46s-1.47-2.2-1.47-3.53v-9c0-.55-.45-1-1-1h-5v10c0,10.49,8.51,19,19,19,8.33,0,15.39-5.37,17.95-12.82l3.91-1.09c3.29-.91,6.08-2.87,8.04-5.45,1.96-2.58,3.1-5.78,3.1-9.2,0-3.01-2.43-5.44-5.44-5.44Z"/></svg>