<?xml version="1.0" encoding="UTF-8"?><svg id="Glyph" xmlns="http://www.w3.org/2000/svg" viewBox="0 0 64 64"><defs><style>.cls-1{stroke-width:0px;}</style></defs><path class="cls-1" d="m24.06,4.07c-.84-.14-1.64-.06-2.36.19-.55.19-1.14.2-1.69,0-.49-.17-1.01-.26-1.56-.26s-1.07.09-1.56.26c-.55.19-1.13.19-1.68,0-.49-.17-1.01-.26-1.56-.26s-1.07.09-1.56.26c-.55.19-1.14.19-1.69,0-.72-.25-1.53-.33-2.36-.19-2.07.35-3.72,2.09-3.94,4.18-.32,2.89,1.94,5.33,4.76,5.33.55,0,1.07-.09,1.56-.26.55-.19,1.13-.19,1.68,0,.49.17,1.01.26,1.56.26s1.07-.09,1.56-.26c.55-.19,1.13-.19,1.68,0,.49.17,1.01.26,1.56.26s1.07-.09,1.56-.26c.55-.19,1.13-.19,1.68,0,.49.17,1.01.26,1.56.26,2.83,0,5.08-2.44,4.76-5.33-.23-2.09-1.87-3.83-3.94-4.18Z"/><path class="cls-1" d="m14.94,36.2v4.86l-4.81-4.09c-1.71-1.46-2.7-3.59-2.7-5.84v-1.53h.92c3.64,0,6.59,2.95,6.59,6.6Z"/><path class="cls-1" d="m57.87,56.96c-3.06,3.6-8.44,4.06-12.07,1.05,1.13-2.51,2.76-5.42,5.16-8.06,1.91-2.08,4.05-3.79,6.05-5.04,3.51,3.11,3.9,8.46.86,12.05Z"/><path class="cls-1" d="m49.65,16.54c-.84-.14-1.64-.06-2.36.19-.55.19-1.14.2-1.69,0-.49-.17-1.01-.26-1.56-.26s-1.07.09-1.56.26c-.55.19-1.13.19-1.68,0-.49-.17-1.01-.26-1.56-.26s-1.07.09-1.56.26c-.55.19-1.14.19-1.69,0-.72-.25-1.53-.33-2.36-.19-2.07.35-3.72,2.09-3.94,4.18-.32,2.89,1.94,5.33,4.76,5.33.55,0,1.07-.09,1.56-.26.55-.19,1.13-.19,1.68,0,.49.17,1.01.26,1.56.26s1.07-.09,1.56-.26c.55-.19,1.13-.19,1.68,0,.49.17,1.01.26,1.56.26s1.07-.09,1.56-.26c.55-.19,1.13-.19,1.68,0,.49.17,1.01.26,1.56.26,2.83,0,5.08-2.44,4.76-5.33-.23-2.09-1.87-3.83-3.94-4.18Z"/><path class="cls-1" d="m31.01,43.6v-10.81c-1.87,1.22-3.87,2.78-5.63,4.69-2.39,2.63-4.08,5.53-5.2,8.03,3.24,2.72,7.88,2.64,11.03.03-.13-.63-.2-1.28-.2-1.94Z"/><path class="cls-1" d="m40.53,48.67v4.87l-4.82-4.1c-1.71-1.46-2.7-3.59-2.7-5.84v-1.53h.92c3.64,0,6.6,2.96,6.6,6.6Z"/><path class="cls-1" d="m29.9,31.13l-2.52-2.14c-1.71-1.45-2.7-3.59-2.7-5.84v-.33c-.64.03-.96.21-1.4.45-.57.31-1.27.71-2.58.71s-2.02-.4-2.59-.71c-.48-.27-.82-.46-1.6-.46s-1.14.19-1.62.46c-.56.31-1.27.71-2.57.71s-2.02-.4-2.59-.71c-.47-.27-.82-.46-1.6-.46-.21,0-.4.01-.56.04-.05.01-.09.01-.14.01v4.74h.92c4.74,0,8.59,3.86,8.59,8.6v4.86c0,.48-.19.93-.49,1.28l2.15,1.83c1.02-2.19,2.72-5.19,5.3-8.03,1.67-1.81,3.73-3.53,6-5.01Z"/><path class="cls-1" d="m8.13,16.75c1.3,0,2.01.4,2.58.71.47.27.82.46,1.61.46s1.12-.19,1.6-.46c.57-.31,1.28-.71,2.59-.71s2.01.4,2.57.71c.48.27.82.46,1.62.46s1.13-.19,1.61-.46c.53-.29,1.19-.66,2.34-.7h.03v-1.33c-.47.1-.95.15-1.43.15-.76,0-1.5-.13-2.22-.37-.06-.02-.12-.03-.18-.03s-.12,0-.18.03c-.71.25-1.46.37-2.21.37s-1.5-.13-2.22-.37c-.06-.02-.12-.03-.18-.03s-.12,0-.18.03c-.71.25-1.46.37-2.21.37s-1.5-.13-2.22-.37c-.06-.02-.12-.03-.18-.03s-.12,0-.18.03c-.71.25-1.46.37-2.21.37-.49,0-.97-.05-1.44-.16v1.36c.21-.03.44-.04.7-.04Z"/><path class="cls-1" d="m20.7,19.92c-1.32,0-2.02-.39-2.59-.71-.48-.27-.82-.46-1.6-.46s-1.14.19-1.62.46c-.56.32-1.27.71-2.57.71s-2.02-.39-2.59-.71c-.47-.27-.82-.46-1.6-.46-.21,0-.4.02-.56.04-.05.01-.09.01-.14.01v2.05c.21-.03.44-.04.7-.04,1.3,0,2.01.39,2.58.71.47.27.82.46,1.61.46s1.12-.19,1.6-.46c.57-.32,1.28-.71,2.59-.71s2.01.39,2.57.71c.48.27.82.46,1.62.46s1.13-.19,1.61-.46c.53-.29,1.19-.66,2.34-.7h.03v-2.06c-.64.03-.96.21-1.4.45-.57.32-1.27.71-2.58.71Z"/><path class="cls-1" d="m33.71,29.22c1.3,0,2.01.4,2.58.71.47.27.82.46,1.61.46s1.13-.19,1.6-.45c.57-.32,1.28-.72,2.59-.72s2.01.4,2.57.71c.48.27.83.46,1.62.46s1.13-.19,1.61-.45c.53-.3,1.19-.66,2.34-.71h.04v-1.33c-.47.1-.95.16-1.44.16-.75,0-1.5-.12-2.21-.37-.06-.02-.12-.03-.18-.03s-.12.01-.18.03c-.71.25-1.46.37-2.21.37s-1.5-.12-2.21-.37c-.06-.02-.12-.03-.18-.03s-.12.01-.18.03c-.72.25-1.46.37-2.22.37s-1.5-.12-2.21-.37c-.06-.02-.12-.03-.18-.03s-.12.01-.18.03c-.71.25-1.46.37-2.21.37-.49,0-.97-.05-1.44-.16v1.37c.21-.03.44-.05.7-.05Z"/><path class="cls-1" d="m55.43,43.56l-2.47-2.09c-1.71-1.46-2.69-3.6-2.69-5.84v-.34c-.65.04-.97.2-1.41.45-.57.32-1.27.71-2.58.71s-2.02-.39-2.59-.71c-.48-.27-.82-.46-1.6-.46s-1.14.19-1.62.46c-.56.32-1.27.71-2.57.71s-2.02-.39-2.59-.71c-.47-.27-.82-.46-1.6-.46-.21,0-.4.02-.55.04-.05,0-.1,0-.15,0v4.74h.92c4.74,0,8.6,3.86,8.6,8.6v4.87c0,.48-.19.93-.49,1.28l2.19,1.86c1.45-3.11,3.21-5.83,5.25-8.08,1.76-1.91,3.81-3.64,5.95-5.04Z"/><path class="cls-1" d="m46.28,32.39c-1.32,0-2.02-.39-2.59-.71-.48-.26-.82-.46-1.6-.46s-1.14.2-1.62.46c-.56.32-1.27.71-2.57.71s-2.02-.39-2.59-.71c-.47-.26-.82-.46-1.6-.46-.21,0-.4.02-.55.04-.05,0-.1,0-.15,0v2.06c.21-.03.44-.05.7-.05,1.3,0,2.01.4,2.58.71.47.27.82.46,1.61.46s1.13-.19,1.6-.45c.57-.32,1.28-.72,2.59-.72s2.01.4,2.57.71c.48.27.83.46,1.62.46s1.13-.19,1.61-.46c.53-.29,1.19-.66,2.34-.7h.04v-2.06c-.65.04-.97.21-1.41.45-.57.32-1.27.71-2.58.71Z"/></svg>