<?xml version="1.0" encoding="UTF-8"?><svg id="Glyph" xmlns="http://www.w3.org/2000/svg" viewBox="0 0 64 64"><defs><style>.cls-1{stroke-width:0px;}</style></defs><circle class="cls-1" cx="7" cy="45" r="2"/><path class="cls-1" d="m8,38.97v-2.97c0-.55-.45-1-1-1s-1,.45-1,1v2.97c0,.55.45,1,1,1s1-.45,1-1Z"/><circle class="cls-1" cx="17" cy="41" r="2"/><path class="cls-1" d="m18,34.97v-2.97c0-.55-.45-1-1-1s-1,.45-1,1v2.97c0,.55.45,1,1,1s1-.45,1-1Z"/><path class="cls-1" d="m28.07,18.81c.42-3.54,2.71-6.52,5.84-7.93-.54-3.89-3.87-6.88-7.91-6.88-1.46,0-2.82.4-4,1.08-1.18-.68-2.54-1.08-4-1.08-4.42,0-8,3.58-8,8,0,.09.01.17.01.26-3.46.88-6.01,4.01-6.01,7.74,0,4.42,3.58,8,8,8,1.89,0,3.63-.66,5-1.76,1.37,1.1,3.11,1.76,5,1.76,0-4.05,2.43-7.64,6.07-9.19Z"/><path class="cls-1" d="m60,28c0-3.73-2.56-6.86-6.01-7.74,0-.09.01-.17.01-.26,0-4.42-3.58-8-8-8-1.46,0-2.82.4-4,1.08-1.18-.68-2.54-1.08-4-1.08-4.42,0-8,3.58-8,8,0,.09.01.17.01.26-3.46.88-6.01,4.01-6.01,7.74,0,4.42,3.58,8,8,8,1.89,0,3.63-.66,5-1.76,1.37,1.1,3.11,1.76,5,1.76s3.63-.66,5-1.76c1.37,1.1,3.11,1.76,5,1.76,4.42,0,8-3.58,8-8Z"/><circle class="cls-1" cx="27" cy="49" r="2"/><path class="cls-1" d="m28,42.97v-2.97c0-.55-.45-1-1-1s-1,.45-1,1v2.97c0,.55.45,1,1,1s1-.45,1-1Z"/><circle class="cls-1" cx="47" cy="49" r="2"/><path class="cls-1" d="m48,42.97v-2.97c0-.55-.45-1-1-1s-1,.45-1,1v2.97c0,.55.45,1,1,1s1-.45,1-1Z"/><circle class="cls-1" cx="37" cy="53" r="2"/><path class="cls-1" d="m38,46.97v-2.97c0-.55-.45-1-1-1s-1,.45-1,1v2.97c0,.55.45,1,1,1s1-.45,1-1Z"/><circle class="cls-1" cx="57" cy="53" r="2"/><path class="cls-1" d="m56,44v2.97c0,.55.45,1,1,1s1-.45,1-1v-2.97c0-.55-.45-1-1-1s-1,.45-1,1Z"/></svg>