<?xml version="1.0" encoding="UTF-8"?><svg id="Glyph" xmlns="http://www.w3.org/2000/svg" viewBox="0 0 64 64"><defs><style>.cls-1{stroke-width:0px;}</style></defs><path class="cls-1" d="m11.07,51.93l-.07.56c-.06.48-.51.83-.99.78l-2.41-.27-2.41-.27c-.49-.05-.84-.48-.8-.97l.05-.55,6.63.72Z"/><path class="cls-1" d="m59.61,51.76c.04.49-.31.92-.8.97l-2.41.27-2.41.27c-.48.05-.93-.3-.99-.78l-.07-.56,6.63-.72.05.55Z"/><path class="cls-1" d="m47.33,55.64v.61c0,.55-.45,1-1,1h-28.66c-.55,0-1-.45-1-1v-.61h30.66Z"/><path class="cls-1" d="m6.64,29.49h-.03c.31-1.01.66-2.03,1.04-3.06.66-1.75,1.36-3.4,2.1-4.94,1.95-4.05,5.41-7.1,9.54-8.69.27.79,1.01,1.36,1.89,1.36h21.64c.88,0,1.62-.57,1.89-1.36,4.13,1.59,7.59,4.64,9.54,8.69.74,1.54,1.44,3.19,2.1,4.94.38,1.03.73,2.05,1.04,3.05h-.03c-3.22,1.05-6.5,1.89-9.73,2.51-10.37,2.01-20.89,2.01-31.26,0-3.23-.62-6.51-1.46-9.73-2.5Z"/><path class="cls-1" d="m4.78,37.29c3.42,1.08,6.86,1.95,10.23,2.6l-2.85,10.14c-2.7-.29-5.41-.58-8.11-.87-.12-3.07-.05-7.15.73-11.87Z"/><path class="cls-1" d="m47.85,40.09l.05,13.55h-31.8l.05-13.56c5.26.95,10.56,1.42,15.85,1.42s10.59-.47,15.85-1.41Z"/><path class="cls-1" d="m58.75,35.35c-3.38,1.07-6.79,1.93-10.12,2.57l-.19.03-.61-2.18v2.29s-.17.03-.17.03c-10.39,1.88-20.93,1.88-31.33-.01l-.17-.03v-2.28s-.6,2.18-.6,2.18l-.15-.02c-3.35-.64-6.76-1.51-10.16-2.58l-.11-.04c.25-1.27.55-2.57.92-3.91,3.3,1.07,6.63,1.92,9.93,2.55,5.31,1.03,10.66,1.55,16.01,1.55s10.7-.52,16.01-1.55c3.3-.63,6.63-1.48,9.93-2.55.37,1.34.67,2.64.92,3.91l-.11.04Z"/><path class="cls-1" d="m59.95,49.16c-2.7.29-5.41.58-8.11.87l-2.85-10.14c3.37-.65,6.81-1.52,10.23-2.6.78,4.72.85,8.8.73,11.87Z"/><path class="cls-1" d="m23.18,6.75c-1.11,0-2,.9-2,2v3.41h4.41v-5.41h-2.41Z"/><rect class="cls-1" x="27.59" y="6.75" width="3.41" height="5.41"/><rect class="cls-1" x="33" y="6.75" width="3.41" height="5.41"/><path class="cls-1" d="m40.82,6.75h-2.41v5.41h4.41v-3.41c0-1.1-.89-2-2-2Z"/></svg>