<?xml version="1.0" encoding="UTF-8"?><svg id="Glyph" xmlns="http://www.w3.org/2000/svg" viewBox="0 0 64 64"><defs><style>.cls-1{stroke-width:0px;}</style></defs><path class="cls-1" d="m30,42.21c0,1.15.46,2.25,1.27,3.06l.73.73.73-.73c.81-.81,1.27-1.91,1.27-3.06v-7.21h-4v7.21Z"/><path class="cls-1" d="m34,17.88c-.41.07-.82.12-1.25.12h-1.5c-.42,0-.84-.05-1.25-.12v15.12h4v-15.12Z"/><path class="cls-1" d="m28.88,15.44c.36.18.73.32,1.12.41.41.1.83.15,1.25.15h1.5c.42,0,.84-.05,1.25-.15.39-.09.76-.23,1.12-.41,2.99-1.5,4.88-4.55,4.88-7.89v-2.55c0-.55-.45-1-1-1h-14c-.55,0-1,.45-1,1v2.55c0,1.67.47,3.27,1.32,4.63.84,1.37,2.06,2.51,3.56,3.26Zm7.1-7.44c-.12,1.25-.71,2.38-1.64,3.19-.11.09-.22.18-.34.25-.58.38-1.29.56-2,.56s-1.42-.17-2-.56c-.12-.07-.23-.16-.34-.25-.93-.8-1.52-1.94-1.64-3.19h7.96Z"/><path class="cls-1" d="m26.11,51.22c.8-.27,1.65-.42,2.54-.42.6,0,1.19.07,1.77.2,1.1-.64,2.44-1,3.82-1s2.81.38,3.91,1.05c.49-.3,1.04-.53,1.62-.71.15-.75.23-1.52.23-2.31v-8.03h-4v2.21c0,1.69-.66,3.28-1.85,4.47l-.73.73c-.39.39-.9.59-1.41.59s-1.02-.2-1.41-.59l-.73-.73c-1.19-1.19-1.85-2.78-1.85-4.47v-2.21h-4v8.03c0,.78.08,1.55.23,2.3.68.21,1.32.5,1.88.88Z"/><path class="cls-1" d="m46.53,55.2c0-1.77-2-3.2-4.47-3.2-1.7,0-3.15.68-3.91,1.68-.76-1-2.22-1.68-3.91-1.68-1.41,0-2.65.47-3.46,1.2-.63-.25-1.35-.4-2.12-.4-1.1,0-2.1.3-2.88.77-.78-.94-2.19-1.57-3.83-1.57-2.47,0-4.47,1.43-4.47,3.2-2.47,0-4.47,1.43-4.47,3.2v1.6h38v-1.6c0-1.77-2-3.2-4.47-3.2Z"/></svg>