<?xml version="1.0" encoding="UTF-8"?><svg id="Glyph" xmlns="http://www.w3.org/2000/svg" viewBox="0 0 64 64"><defs><style>.cls-1{stroke-width:0px;}</style></defs><path class="cls-1" d="m40.81,5.84c-1.47.92-2.73,2.16-3.75,3.58-.14.19-.27.38-.42.57l10.61,6.75,6.76,10.61c.21-.15.41-.3.61-.44,1.42-1.01,2.62-2.28,3.53-3.73l-6.74-10.59-10.6-6.75Z"/><path class="cls-1" d="m56.26,7.73c-2.49-2.49-5.75-3.73-9.01-3.73-1.44,0-2.72.24-3.85.61-.17.06-.34.13-.51.19l9.59,6.11c.25.16.46.37.61.61l6.09,9.57c.34-.87.58-1.77.7-2.71.49-3.78-.72-7.74-3.63-10.64Z"/><path class="cls-1" d="m4.22,45.05c-.03.19-.08.37-.11.56-.49,3.78.72,7.74,3.63,10.64,2.59,2.59,6.62,3.59,10.8,2.91l-5.32-8.39-9-5.73Z"/><path class="cls-1" d="m7.96,38.25c-1.42,1.33-2.53,2.97-3.21,4.77l9.92,6.31,5.94,9.37c.19-.05.37-.11.55-.17,1.68-.55,3.2-1.47,4.49-2.65l-6.82-10.71-10.87-6.92Z"/><path class="cls-1" d="m52.32,28.42l-6.52-10.23-10.23-6.51s-.07-.06-.11-.09c-3.82,5.09-7.64,9.33-11.08,12.78-5.17,5.17-10.25,9.29-14.78,12.55l10.3,6.56c.25.16.46.37.62.62l6.54,10.27c.14-.17.27-.33.4-.51,4.18-5.75,8.4-10.47,12.17-14.24,4.42-4.42,8.77-8.08,12.78-11.09-.03-.03-.06-.07-.09-.11Zm-31.95,9.22c-.87-1.71-.26-3.81,1.4-4.79,1.66-.98,3.8-.5,4.88,1.1l.96,1.42-6.46,3.81-.78-1.54Zm8.71,6.82l-.69.4c-1.81,1.07-4.15.39-5.11-1.49l-.57-1.13,6.83-4.02.71,1.05c1.18,1.74.64,4.12-1.17,5.19Zm4.87-17.82c-1.59-1.08-2.08-3.21-1.1-4.87.98-1.66,3.08-2.28,4.8-1.4l1.66.84-3.94,6.39-1.42-.96Zm10.92,1.74l-.41.69c-1.07,1.82-3.44,2.35-5.19,1.17l-1.04-.71,4.02-6.82,1.13.57c1.88.95,2.56,3.29,1.49,5.1Z"/></svg>