<?xml version="1.0" encoding="UTF-8"?><svg id="Glyph" xmlns="http://www.w3.org/2000/svg" viewBox="0 0 64 64"><defs><style>.cls-1{stroke-width:0px;}</style></defs><path class="cls-1" d="m10.7,43.47l-1.17-.74c-.54-.34-1.18-.46-1.8-.32-.62.14-1.15.51-1.49,1.05-.08.12-.18.16-.24.17-.06.01-.17.02-.29-.05l-1.17-.74c-.47-.3-1.08-.16-1.38.31-.3.47-.16,1.08.31,1.38l1.17.74c.4.25.84.37,1.28.37.79,0,1.56-.39,2.02-1.11.07-.12.18-.16.24-.17.06-.01.17-.02.29.05l1.17.74c.47.3,1.08.16,1.38-.31.3-.47.16-1.08-.31-1.38Z"/><path class="cls-1" d="m10.7,35.47l-1.17-.74c-.54-.34-1.18-.46-1.8-.32-.62.14-1.15.51-1.49,1.05-.08.12-.18.16-.24.17-.06.01-.17.02-.29-.05l-1.17-.74c-.47-.3-1.08-.16-1.38.31-.3.47-.16,1.08.31,1.38l1.17.74c.4.25.84.37,1.28.37.79,0,1.56-.39,2.02-1.11.07-.12.18-.16.24-.17.06-.01.17-.02.29.05l1.17.74c.47.3,1.08.16,1.38-.31.3-.47.16-1.08-.31-1.38Z"/><path class="cls-1" d="m10.7,27.47l-1.17-.74c-.54-.34-1.18-.46-1.8-.32-.62.14-1.15.51-1.49,1.05-.08.12-.18.16-.24.17-.06.01-.17.02-.29-.05l-1.17-.74c-.47-.3-1.08-.16-1.38.31-.3.47-.16,1.08.31,1.38l1.17.74c.4.25.84.37,1.28.37.79,0,1.56-.39,2.02-1.11.07-.12.18-.16.24-.17.06-.01.17-.02.29.05l1.17.74c.47.3,1.08.16,1.38-.31.3-.47.16-1.08-.31-1.38Z"/><path class="cls-1" d="m59.46,42.84l-1.17.74c-.12.07-.23.06-.29.05-.06-.01-.17-.05-.24-.17-.34-.54-.87-.91-1.5-1.05-.62-.14-1.26-.03-1.8.32l-1.17.74c-.47.3-.6.91-.31,1.38.3.47.91.6,1.38.31l1.17-.74c.12-.08.23-.06.29-.05.06.01.17.05.24.17.45.71,1.23,1.11,2.02,1.11.44,0,.88-.12,1.28-.37l1.17-.74c.47-.3.6-.91.31-1.38s-.92-.6-1.38-.31Z"/><path class="cls-1" d="m59.46,34.84l-1.17.74c-.12.07-.23.06-.29.05-.06-.01-.17-.05-.24-.17-.34-.54-.87-.91-1.5-1.05s-1.26-.03-1.8.32l-1.17.74c-.47.3-.6.91-.31,1.38.3.47.91.6,1.38.31l1.17-.74c.12-.07.23-.07.29-.05.06.01.17.05.24.17.45.71,1.23,1.11,2.02,1.11.44,0,.88-.12,1.28-.37l1.17-.74c.47-.3.6-.91.31-1.38s-.92-.6-1.38-.31Z"/><path class="cls-1" d="m54.37,29.16l1.17-.74c.12-.07.23-.06.29-.05.06.01.17.05.24.17.45.71,1.23,1.11,2.02,1.11.44,0,.88-.12,1.28-.37l1.17-.74c.47-.3.6-.91.31-1.38s-.92-.6-1.38-.31l-1.17.74c-.12.07-.23.06-.29.05-.06-.01-.17-.05-.24-.17-.34-.54-.87-.91-1.5-1.05s-1.26-.03-1.8.32l-1.17.74c-.47.3-.6.91-.31,1.38.3.47.91.6,1.38.31Z"/><rect class="cls-1" x="12" y="55" width="40" height="5" rx="1" ry="1"/><path class="cls-1" d="m47.28,5.67c-.16-.96-1-1.67-1.97-1.67h-26.61c-.98,0-1.81.71-1.97,1.67l-1.72,10.33h34l-1.72-10.33Zm-25.28,6.33c-1.1,0-2-.9-2-2s.9-2,2-2,2,.9,2,2-.9,2-2,2Zm9,0c-1.1,0-2-.9-2-2s.9-2,2-2,2,.9,2,2-.9,2-2,2Zm13,1h-6c-.55,0-1-.45-1-1s.45-1,1-1h6c.55,0,1,.45,1,1s-.45,1-1,1Zm0-4h-6c-.55,0-1-.45-1-1s.45-1,1-1h6c.55,0,1,.45,1,1s-.45,1-1,1Z"/><path class="cls-1" d="m24,24c-.55,0-1,.45-1,1v21c0,.55.45,1,1,1s1-.45,1-1v-21c0-.55-.45-1-1-1Z"/><path class="cls-1" d="m28,24c-.55,0-1,.45-1,1v21c0,.55.45,1,1,1s1-.45,1-1v-21c0-.55-.45-1-1-1Z"/><path class="cls-1" d="m32,24c-.55,0-1,.45-1,1v21c0,.55.45,1,1,1s1-.45,1-1v-21c0-.55-.45-1-1-1Z"/><path class="cls-1" d="m36,24c-.55,0-1,.45-1,1v21c0,.55.45,1,1,1s1-.45,1-1v-21c0-.55-.45-1-1-1Z"/><path class="cls-1" d="m40,24c-.55,0-1,.45-1,1v21c0,.55.45,1,1,1s1-.45,1-1v-21c0-.55-.45-1-1-1Z"/><path class="cls-1" d="m49.18,53c.48-5.23.8-10.9.82-17,.02-6.48-.3-12.51-.81-18.02-.06,0-.13.02-.19.02H15c-.07,0-.13-.01-.19-.02-.51,5.51-.83,11.54-.81,18.02.02,6.1.33,11.77.82,17h34.36ZM19,21h26v29h-26v-29Z"/></svg>