<?xml version="1.0" encoding="UTF-8"?><svg id="Greeny" xmlns="http://www.w3.org/2000/svg" xmlns:xlink="http://www.w3.org/1999/xlink" viewBox="0 0 96 96"><defs><style>.cls-1{fill:none;}.cls-1,.cls-2,.cls-3,.cls-4,.cls-5,.cls-6,.cls-7,.cls-8,.cls-9{stroke-width:0px;}.cls-2{fill:url(#New_Pattern_Swatch_5);}.cls-3{fill:url(#New_Pattern_Swatch_3);}.cls-4{fill:url(#New_Pattern_Swatch_2);}.cls-5{fill:url(#New_Pattern_Swatch_4);}.cls-6{fill:#2faf96;}.cls-7{fill:#1feab0;}.cls-8{fill:#b3ffde;}.cls-9{fill:#008887;}</style><pattern id="New_Pattern_Swatch_3" x="0" y="0" width="39.26" height="39.26" patternTransform="translate(-204 -1992)" patternUnits="userSpaceOnUse" viewBox="0 0 39.26 39.26"><rect class="cls-1" x="0" y="0" width="39.26" height="39.26"/><rect class="cls-7" x="0" y="0" width="39.26" height="39.26"/></pattern><pattern id="New_Pattern_Swatch_4" x="0" y="0" width="39.26" height="39.26" patternTransform="translate(-204 -1992)" patternUnits="userSpaceOnUse" viewBox="0 0 39.26 39.26"><rect class="cls-1" y="0" width="39.26" height="39.26"/><rect class="cls-8" x="0" y="0" width="39.26" height="39.26"/></pattern><pattern id="New_Pattern_Swatch_5" x="0" y="0" width="39.26" height="39.26" patternTransform="translate(-204 -1992)" patternUnits="userSpaceOnUse" viewBox="0 0 39.26 39.26"><rect class="cls-1" x="0" y="0" width="39.26" height="39.26"/><rect class="cls-9" x="0" y="0" width="39.26" height="39.26"/></pattern><pattern id="New_Pattern_Swatch_2" x="0" y="0" width="39.26" height="39.26" patternTransform="translate(-204 -1992)" patternUnits="userSpaceOnUse" viewBox="0 0 39.26 39.26"><rect class="cls-1" x="0" y="0" width="39.26" height="39.26"/><rect class="cls-6" x="0" y="0" width="39.26" height="39.26"/></pattern></defs><path class="cls-3" d="M86,37h-4l-.52-3-.6-3.49-.28-1.62-.64-3.78-.28-1.62-.89-5.17c-.33-1.92-1.99-3.32-3.94-3.32H21.15c-1.95,0-3.61,1.4-3.94,3.32l-3.21,18.68h-4c-1.1,0-2,.9-2,2v6h80v-6c0-1.1-.9-2-2-2ZM23.45,22.83c.06-.47.47-.83.97-.83h47.16c.5,0,.91.36.97.83l1.44,12.13c.07.55-.38,1.04-.96,1.04H22.97c-.58,0-1.03-.49-.96-1.04l1.44-12.13Z"/><path class="cls-5" d="M82,37l-.52-3h-3.48l-3.09-18-.12-.68c-.02-.11-.04-.22-.07-.32H21.15c-1.95,0-3.61,1.4-3.94,3.32l-3.21,18.68h-4c-1.1,0-2,.9-2,2v3h70c2.61,0,4.83-1.67,5.65-4,.12-.32.2-.66.26-1h-1.91ZM24.42,23l47.13-.05,1.48,12.05H23.01l1.41-12Z"/><path class="cls-2" d="M48,54c-.55,0-1,.45-1,1v26c0,.55.45,1,1,1s1-.45,1-1v-26c0-.55-.45-1-1-1ZM59.97,80l-.85-25.03c-.02-.56-.5-.99-1.03-.97-.56.02-.99.48-.97,1.03l.85,24.97h-19.94l.85-24.97c.02-.55-.41-1.01-.97-1.03-.53-.02-1.01.41-1.03.97l-.85,25.03-.03.97c-.01.27.09.53.28.72.19.2.45.31.72.31h22c.27,0,.53-.11.72-.31.19-.19.29-.45.28-.72l-.03-.97ZM70.94,80l-1.7-25.07c-.04-.55-.51-.96-1.07-.93-.55.04-.96.52-.93,1.07l1.69,24.93H27.07l1.69-24.93c.03-.55-.38-1.03-.93-1.07-.56-.04-1.03.38-1.07.93l-1.7,25.07-.06.93c-.02.28.08.55.27.75.19.21.45.32.73.32h44c.28,0,.54-.11.73-.32.19-.2.29-.47.27-.75l-.06-.93ZM80.91,80l-2.47-25.1c-.06-.55-.54-.95-1.1-.9-.55.06-.95.55-.9,1.1l2.46,24.9H17.1l2.46-24.9c.05-.55-.35-1.04-.9-1.1-.55-.05-1.04.35-1.1.9l-2.47,25.1-.09.9c-.02.28.07.56.26.77s.46.33.74.33h64c.28,0,.55-.12.74-.33s.28-.49.26-.77l-.09-.9ZM90.74,78.64l-3.1-23.77c-.07-.55-.57-.93-1.12-.86-.55.07-.93.57-.86,1.12l3.1,23.75c.03.29-.06.57-.26.79-.19.21-.45.33-.74.33H8.24c-.29,0-.55-.12-.74-.33-.2-.22-.29-.5-.26-.77l3.1-23.77c.07-.55-.31-1.05-.86-1.12-.54-.07-1.05.31-1.12.86l-3.1,23.79c-.1.85.18,1.71.75,2.34.57.64,1.38,1,2.23,1h79.52c.85,0,1.66-.36,2.23-1,.57-.63.85-1.49.75-2.36ZM74.99,34.84l-1.45-12.13c-.12-.98-.96-1.71-1.96-1.71H24.42c-1,0-1.84.73-1.96,1.71l-1.45,12.13c-.01.07-.01.14-.01.21,0,.47.17.93.48,1.29.38.42.92.66,1.49.66h50.06c.57,0,1.11-.24,1.49-.66.36-.41.53-.96.47-1.5ZM73.03,35H23.01l1.41-12,47.13-.05,1.48,12.05ZM86,36h-3.16l-.8-4.67c-.1-.54-.61-.91-1.16-.82-.54.1-.91.62-.82,1.16l.4,2.33.55,3.17c.09.48.5.83.99.83h4c.55,0,1,.45,1,1v5H9v-5c0-.55.45-1,1-1h4c.49,0,.9-.35.99-.83l3.21-18.68c.24-1.44,1.49-2.49,2.95-2.49h53.76c1.43.03,2.65,1.07,2.89,2.49l.72,4.18c.1.54.61.91,1.16.82.54-.1.91-.62.82-1.16l-.72-4.18c-.42-2.4-2.49-4.15-4.93-4.15H21.15c-2.44,0-4.51,1.75-4.93,4.15l-3.06,17.85h-3.16c-1.65,0-3,1.35-3,3v6c0,.55.45,1,1,1h80c.55,0,1-.45,1-1v-6c0-1.65-1.35-3-3-3ZM81.12,25.93c-.1-.54-.61-.91-1.16-.82-.54.1-.91.62-.82,1.16l.31,1.8c.09.49.51.83.99.83.06,0,.1,0,.16,0h.01c.54-.1.91-.62.82-1.16l-.31-1.8Z"/><rect class="cls-4" x="5" y="44" width="86" height="12" rx="3" ry="3"/></svg>