<?xml version="1.0" encoding="UTF-8"?><svg id="Greeny" xmlns="http://www.w3.org/2000/svg" xmlns:xlink="http://www.w3.org/1999/xlink" viewBox="0 0 96 96"><defs><style>.cls-1{fill:none;}.cls-1,.cls-2,.cls-3,.cls-4,.cls-5,.cls-6,.cls-7,.cls-8,.cls-9{stroke-width:0px;}.cls-2{fill:url(#New_Pattern_Swatch_5);}.cls-3{fill:url(#New_Pattern_Swatch_3);}.cls-4{fill:url(#New_Pattern_Swatch_2);}.cls-5{fill:url(#New_Pattern_Swatch_4);}.cls-6{fill:#2faf96;}.cls-7{fill:#1feab0;}.cls-8{fill:#b3ffde;}.cls-9{fill:#008887;}</style><pattern id="New_Pattern_Swatch_3" x="0" y="0" width="39.26" height="39.26" patternTransform="translate(-400 -1992)" patternUnits="userSpaceOnUse" viewBox="0 0 39.26 39.26"><rect class="cls-1" x="0" y="0" width="39.26" height="39.26"/><rect class="cls-7" x="0" y="0" width="39.26" height="39.26"/></pattern><pattern id="New_Pattern_Swatch_4" x="0" y="0" width="39.26" height="39.26" patternTransform="translate(-400 -1992)" patternUnits="userSpaceOnUse" viewBox="0 0 39.26 39.26"><rect class="cls-1" y="0" width="39.26" height="39.26"/><rect class="cls-8" x="0" y="0" width="39.26" height="39.26"/></pattern><pattern id="New_Pattern_Swatch_5" x="0" y="0" width="39.26" height="39.26" patternTransform="translate(-400 -1992)" patternUnits="userSpaceOnUse" viewBox="0 0 39.26 39.26"><rect class="cls-1" x="0" y="0" width="39.26" height="39.26"/><rect class="cls-9" x="0" y="0" width="39.26" height="39.26"/></pattern><pattern id="New_Pattern_Swatch_2" x="0" y="0" width="39.26" height="39.26" patternTransform="translate(-400 -1992)" patternUnits="userSpaceOnUse" viewBox="0 0 39.26 39.26"><rect class="cls-1" x="0" y="0" width="39.26" height="39.26"/><rect class="cls-6" x="0" y="0" width="39.26" height="39.26"/></pattern></defs><path class="cls-3" d="M82.54,24.46c-2.47-1.56-5.4-2.46-8.54-2.46H22c-6.17,0-11.53,3.49-14.19,8.61-1.16,2.21-1.81,4.72-1.81,7.39v20c0,3.14.9,6.07,2.46,8.54,2.84,4.48,7.84,7.46,13.54,7.46h52c6.17,0,11.53-3.49,14.19-8.61,1.16-2.21,1.81-4.72,1.81-7.39v-20c0-5.7-2.98-10.7-7.46-13.54ZM32,35h32c7.17,0,13,5.83,13,13s-5.83,13-13,13h-32c-7.17,0-13-5.83-13-13s5.83-13,13-13Z"/><path class="cls-5" d="M83.63,26.51c-.31-.71-.68-1.39-1.09-2.05-2.47-1.56-5.4-2.46-8.54-2.46H22c-6.17,0-11.53,3.49-14.19,8.61-1.16,2.21-1.81,4.72-1.81,7.39v20c0,3.14.9,6.07,2.46,8.54.66.41,1.34.78,2.05,1.09,1.98.88,4.18,1.37,6.49,1.37h52c8.84,0,16-7.16,16-16v-20c0-2.31-.49-4.51-1.37-6.49ZM64,61h-32c-7.17,0-13-5.83-13-13s5.83-13,13-13h32c7.17,0,13,5.83,13,13s-5.83,13-13,13Z"/><path class="cls-2" d="M64,33h-32c-8.27,0-15,6.73-15,15s6.73,15,15,15h32c8.27,0,15-6.73,15-15s-6.73-15-15-15ZM64,61h-32c-7.17,0-13-5.83-13-13s5.83-13,13-13h32c7.17,0,13,5.83,13,13s-5.83,13-13,13ZM90,47.5c-.55,0-1,.45-1,1v9.5c0,2.13-.43,4.17-1.29,6.08-.23.49-.01,1.08.48,1.31.01,0,.01,0,.02,0,.13.06.27.09.41.09.38,0,.75-.22.91-.59.98-2.17,1.47-4.49,1.47-6.9v-9.5c0-.55-.45-1-1-1ZM59.12,73H22c-4.6,0-8.73-2.09-11.49-5.37-2.19-2.61-3.51-5.96-3.51-9.63v-20c0-2.13.43-4.17,1.29-6.08.23-.49.01-1.08-.48-1.31-.01,0-.01-.01-.02-.01-.5-.23-1.1,0-1.32.5-.98,2.17-1.47,4.49-1.47,6.9v20c0,9.37,7.63,17,17,17h37.12c.55,0,1-.45,1-1s-.45-1-1-1ZM74,21h-37.12c-.55,0-1,.45-1,1s.45,1,1,1h37.12c3.67,0,7.02,1.32,9.63,3.51,3.28,2.76,5.37,6.89,5.37,11.49v1.5c0,.55.45,1,1,1s1-.45,1-1v-1.5c0-9.37-7.63-17-17-17ZM90,42.1c-.55,0-1,.45-1,1v1.8c0,.55.45,1,1,1s1-.45,1-1v-1.8c0-.55-.45-1-1-1Z"/><path class="cls-4" d="M88.58,73.81c.36.89.55,1.84.55,2.8,0,4.07-3.32,7.39-7.39,7.39-1.15,0-2.26-.26-3.28-.77-1.38,1.95-3.6,3.12-6.03,3.12-2.81,0-5.31-1.55-6.57-4.02-.14,0-.28.02-.43.02-4.07,0-7.39-3.32-7.39-7.39s3.32-7.4,7.39-7.4c1.14,0,2.25.26,3.26.76,1.39-1.74,3.48-2.76,5.74-2.76.75,0,1.48.12,2.18.34,1.04-2.9,3.79-4.9,6.96-4.9,4.07,0,7.39,3.32,7.39,7.39,0,2.06-.88,4.03-2.38,5.42Z"/><path class="cls-4" d="M37.96,21.04c0,4.08-3.32,7.4-7.39,7.4-1.14,0-2.25-.26-3.26-.76-1.39,1.74-3.48,2.76-5.74,2.76-.75,0-1.48-.12-2.18-.34-1.04,2.9-3.79,4.9-6.96,4.9-4.07,0-7.39-3.32-7.39-7.39,0-2.06.88-4.03,2.38-5.42-.36-.88-.55-1.84-.55-2.8,0-4.07,3.32-7.39,7.39-7.39,1.15,0,2.26.26,3.28.77,1.38-1.95,3.6-3.12,6.03-3.12,2.81,0,5.31,1.55,6.57,4.02.14-.01.28-.02.43-.02,4.07,0,7.39,3.32,7.39,7.39Z"/></svg>