<?xml version="1.0" encoding="UTF-8"?><svg id="Greeny" xmlns="http://www.w3.org/2000/svg" xmlns:xlink="http://www.w3.org/1999/xlink" viewBox="0 0 96 96"><defs><style>.cls-1{fill:none;}.cls-1,.cls-2,.cls-3,.cls-4,.cls-5,.cls-6,.cls-7,.cls-8,.cls-9{stroke-width:0px;}.cls-2{fill:url(#New_Pattern_Swatch_5);}.cls-3{fill:url(#New_Pattern_Swatch_3);}.cls-4{fill:url(#New_Pattern_Swatch_2);}.cls-5{fill:url(#New_Pattern_Swatch_4);}.cls-6{fill:#2faf96;}.cls-7{fill:#1feab0;}.cls-8{fill:#b3ffde;}.cls-9{fill:#008887;}</style><pattern id="New_Pattern_Swatch_3" x="0" y="0" width="39.26" height="39.26" patternTransform="translate(-596 -1992)" patternUnits="userSpaceOnUse" viewBox="0 0 39.26 39.26"><rect class="cls-1" x="0" y="0" width="39.26" height="39.26"/><rect class="cls-7" x="0" y="0" width="39.26" height="39.26"/></pattern><pattern id="New_Pattern_Swatch_4" x="0" y="0" width="39.26" height="39.26" patternTransform="translate(-596 -1992)" patternUnits="userSpaceOnUse" viewBox="0 0 39.26 39.26"><rect class="cls-1" y="0" width="39.26" height="39.26"/><rect class="cls-8" x="0" y="0" width="39.26" height="39.26"/></pattern><pattern id="New_Pattern_Swatch_5" x="0" y="0" width="39.26" height="39.26" patternTransform="translate(-596 -1992)" patternUnits="userSpaceOnUse" viewBox="0 0 39.26 39.26"><rect class="cls-1" x="0" y="0" width="39.26" height="39.26"/><rect class="cls-9" x="0" y="0" width="39.26" height="39.26"/></pattern><pattern id="New_Pattern_Swatch_2" x="0" y="0" width="39.26" height="39.26" patternTransform="translate(-596 -1992)" patternUnits="userSpaceOnUse" viewBox="0 0 39.26 39.26"><rect class="cls-1" x="0" y="0" width="39.26" height="39.26"/><rect class="cls-6" x="0" y="0" width="39.26" height="39.26"/></pattern></defs><polygon class="cls-3" points="71.77 88 24.23 88 24.67 85 28.87 56 67.13 56 71.77 88"/><path class="cls-5" d="M57.22,85H24.67l4.2-29h35.69l2.55,17.57c.88,6.03-3.8,11.43-9.89,11.43Z"/><path class="cls-3" d="M51.73,7.17c-1.05-.74-2.34-1.17-3.73-1.17-3.79,0-6.79,3.2-6.55,6.99l1.69,26.01.13,2,.06,1h9.34l.06-1,.68-10.5h.01l.1-1.6.25-3.8.1-1.6.68-10.51c.01-.14.01-.28.01-.42,0-2.23-1.11-4.22-2.83-5.4ZM48,11c.55,0,1,.45,1,1s-.45,1-1,1-1-.45-1-1,.45-1,1-1Z"/><path class="cls-5" d="M48,6c-3.79,0-6.79,3.2-6.55,6.99l1.69,26.01h.9s.07,0,.1-.01c3.13-.04,5.69-2.48,5.89-5.6l1.62-25.01.08-1.21c-1.05-.74-2.34-1.17-3.73-1.17ZM48,13c-.55,0-1-.45-1-1s.45-1,1-1,1,.45,1,1-.45,1-1,1Z"/><path class="cls-2" d="M53.77,25.1c-.55-.04-1.03.38-1.07.93l-.12,1.8c-.03.55.38,1.03.93,1.07h.07c.52,0,.96-.4,1-.93l.12-1.8c.03-.55-.38-1.03-.93-1.07ZM48,9c-1.65,0-3,1.35-3,3s1.35,3,3,3,3-1.35,3-3-1.35-3-3-3ZM48,13c-.55,0-1-.45-1-1s.45-1,1-1,1,.45,1,1-.45,1-1,1ZM48,5c-2.11,0-4.07.85-5.51,2.39-1.45,1.54-2.17,3.55-2.04,5.66l1.82,28.05.06.96c.04.53.47.94,1,.94h9.34c.53,0,.96-.41,1-.94l.06-.96.62-9.54c.03-.55-.38-1.01-.93-1.06h-.01c-.54-.03-1.02.38-1.06.94l-.62,9.56h-7.46l-.13-2.01-1.69-26.06c-.1-1.56.43-3.04,1.5-4.18,1.06-1.13,2.5-1.75,4.05-1.75,1.4,0,2.67.51,3.65,1.38,1.17,1.01,1.91,2.52,1.91,4.19,0,.12,0,.23-.01.36l-.62,9.51c-.03.55.38,1.02.93,1.06h.01c.57.03,1.02-.38,1.06-.94l.62-9.5c.01-.16.01-.33.01-.49,0-4.17-3.39-7.57-7.56-7.57Z"/><path class="cls-4" d="M56,44v4c0,.55-.45,1-1,1h-14c-.55,0-1-.45-1-1v-4c0-1.65,1.35-3,3-3h10c1.65,0,3,1.35,3,3Z"/><path class="cls-2" d="M75.1,49.82c-.1-1.58-1.41-2.82-3-2.82H23.9c-1.6,0-2.91,1.25-2.99,2.8l-3.8,38.04c-.04.82.26,1.63.82,2.22.57.6,1.36.94,2.18.94h1.09c.89,0,1.68-.39,2.23-1h49.14c.56.61,1.34,1,2.23,1h1.09c.82,0,1.61-.34,2.18-.93.56-.6.86-1.41.81-2.27l-3.78-37.98ZM24.23,88l.44-3,4.2-29h38.26l4.64,32H24.23ZM76.62,88.69c-.19.2-.45.31-.73.31h-1.09c-.52,0-.94-.38-1-.93l-4.81-33.21c-.07-.5-.49-.86-.99-.86H28c-.5,0-.92.36-.99.86l-4.81,33.25c-.06.51-.49.89-1,.89h-1.09c-.28,0-.54-.11-.73-.31-.19-.2-.29-.47-.27-.7l3.79-38.04c.03-.53.47-.95,1-.95h48.2c.53,0,.97.42,1,.95v.04l3.79,37.96c.02.27-.08.54-.27.74Z"/></svg>