<?xml version="1.0" encoding="UTF-8"?><svg id="Greeny" xmlns="http://www.w3.org/2000/svg" xmlns:xlink="http://www.w3.org/1999/xlink" viewBox="0 0 96 96"><defs><style>.cls-1{fill:none;}.cls-1,.cls-2,.cls-3,.cls-4,.cls-5,.cls-6,.cls-7,.cls-8,.cls-9{stroke-width:0px;}.cls-2{fill:url(#New_Pattern_Swatch_5);}.cls-3{fill:url(#New_Pattern_Swatch_3);}.cls-4{fill:url(#New_Pattern_Swatch_2);}.cls-5{fill:url(#New_Pattern_Swatch_4);}.cls-6{fill:#2faf96;}.cls-7{fill:#1feab0;}.cls-8{fill:#b3ffde;}.cls-9{fill:#008887;}</style><pattern id="New_Pattern_Swatch_3" x="0" y="0" width="39.26" height="39.26" patternTransform="translate(-792 -1992)" patternUnits="userSpaceOnUse" viewBox="0 0 39.26 39.26"><rect class="cls-1" x="0" y="0" width="39.26" height="39.26"/><rect class="cls-7" x="0" y="0" width="39.26" height="39.26"/></pattern><pattern id="New_Pattern_Swatch_4" x="0" y="0" width="39.26" height="39.26" patternTransform="translate(-792 -1992)" patternUnits="userSpaceOnUse" viewBox="0 0 39.26 39.26"><rect class="cls-1" y="0" width="39.26" height="39.26"/><rect class="cls-8" x="0" y="0" width="39.26" height="39.26"/></pattern><pattern id="New_Pattern_Swatch_5" x="0" y="0" width="39.26" height="39.26" patternTransform="translate(-792 -1992)" patternUnits="userSpaceOnUse" viewBox="0 0 39.26 39.26"><rect class="cls-1" x="0" y="0" width="39.26" height="39.26"/><rect class="cls-9" x="0" y="0" width="39.26" height="39.26"/></pattern><pattern id="New_Pattern_Swatch_2" x="0" y="0" width="39.26" height="39.26" patternTransform="translate(-792 -1992)" patternUnits="userSpaceOnUse" viewBox="0 0 39.26 39.26"><rect class="cls-1" x="0" y="0" width="39.26" height="39.26"/><rect class="cls-6" x="0" y="0" width="39.26" height="39.26"/></pattern></defs><path class="cls-3" d="M90,9c0,.77-.3,1.54-.88,2.12l-40.72,40.72-4.24-4.24,2.25-2.25L84.88,6.88c1.17-1.17,3.07-1.17,4.24,0,.04.04.07.08.1.12.52.56.78,1.28.78,2Z"/><path class="cls-5" d="M89.22,7s-.06.08-.1.12l-37.19,37.18c-1.49,1.49-3.69,1.84-5.52,1.05L84.88,6.88c1.17-1.17,3.07-1.17,4.24,0,.04.04.07.08.1.12Z"/><path class="cls-2" d="M91,9c0-1.07-.42-2.07-1.17-2.83-1.56-1.56-4.09-1.56-5.66,0l-40.72,40.72c-.19.19-.29.44-.29.71s.11.52.29.71l4.24,4.24c.2.2.45.29.71.29s.51-.1.71-.29l14.61-14.6c.39-.39.39-1.02,0-1.41s-1.02-.39-1.41,0l-13.9,13.89-2.83-2.83L78.52,14.66l2.83,2.83-12.68,12.68c-.39.39-.39,1.02,0,1.41s1.02.39,1.41,0l19.75-19.75c.76-.76,1.17-1.76,1.17-2.83ZM88.41,10.41l-5.66,5.66-2.83-2.83,5.66-5.66c.78-.78,2.05-.78,2.83,0,.37.37.59.89.59,1.41s-.21,1.04-.59,1.41ZM65.55,35.69c-.26,0-.51-.1-.71-.3-.39-.39-.39-1.02,0-1.41l1.28-1.27c.39-.39,1.02-.39,1.41,0,.39.39.39,1.02,0,1.41l-1.28,1.27c-.2.19-.45.29-.7.29Z"/><path class="cls-4" d="M49.82,54.67l-2.83,2.82c-.2.2-.45.3-.71.3s-.51-.1-.7-.3l-7.08-7.07c-.18-.18-.29-.44-.29-.7s.11-.52.29-.71l2.83-2.83c.78-.78,2.05-.78,2.83,0l5.66,5.66c.78.78.78,2.05,0,2.83Z"/><path class="cls-2" d="M55.48,64.57l-24.05-24.05c-1.13-1.13-3.11-1.13-4.24,0l-2.12,2.13c-.39.39-.39,1.02,0,1.41l26.87,26.87c.2.19.45.29.71.29s.51-.1.7-.29l2.13-2.12c1.17-1.17,1.17-3.07,0-4.24ZM54.06,67.39l-1.41,1.42-25.46-25.46,1.42-1.41c.38-.38,1.03-.38,1.41,0l24.04,24.04c.39.39.39,1.02,0,1.41Z"/><path class="cls-5" d="M54.06,67.39l-1.41,1.42-25.46-25.46,1.42-1.41c.38-.38,1.03-.38,1.41,0l24.04,24.04c.39.39.39,1.02,0,1.41Z"/><path class="cls-2" d="M51.19,75.83l-31.02-31.02c-.36-.36-.93-.39-1.32-.08l-13.4,10.49c-.43.34-.7.86-.74,1.42-.04.6.19,1.2.63,1.63l32.39,32.39c.41.41.95.64,1.51.64.04,0,.08,0,.12,0,.56-.03,1.08-.3,1.42-.74l10.49-13.4c.31-.4.28-.97-.08-1.32ZM27.9,78l-4.24-4.24,11.31-11.31,3.78,3.78-10.81,11.72s-.03.03-.05.05ZM33.56,61.03l-11.31,11.31-4.24-4.24s.03-.03.05-.05l11.72-10.81,3.78,3.78ZM28.36,55.83l-11.66,10.75s-.07.07-.11.11l-4.25-4.25s.01-.01.02-.02l12.21-10.38,3.78,3.78ZM33.58,83.64s-.01.02-.02.02l-4.25-4.25s.08-.08.11-.11l10.75-11.66,3.78,3.78-10.37,12.21ZM6.69,56.79s0,0,0,0l12.69-9.93,3.78,3.78-12.09,10.27s-.09.09-.13.14l-4.18-4.18s-.05-.07-.06-.07ZM39.25,89.3s-.05,0-.1-.05h0s-4.18-4.18-4.18-4.18c.05-.05.1-.08.14-.13l10.27-12.09,3.78,3.78-9.9,12.67Z"/><path class="cls-4" d="M54.78,72.45l-.4,1.36c-.09.31-.26.59-.48.82l-2.67,2.66c-.18.19-.44.3-.7.3s-.52-.11-.71-.3l-31.11-31.11c-.19-.19-.3-.44-.3-.71s.11-.52.3-.7l2.66-2.66c.22-.23.51-.4.82-.49l1.36-.4c.72-.2,1.52.01,2.07.56l28.6,28.6c.55.55.77,1.35.56,2.07Z"/></svg>