<?xml version="1.0" encoding="UTF-8"?><svg id="Greeny" xmlns="http://www.w3.org/2000/svg" xmlns:xlink="http://www.w3.org/1999/xlink" viewBox="0 0 96 96"><defs><style>.cls-1{fill:none;}.cls-1,.cls-2,.cls-3,.cls-4,.cls-5,.cls-6,.cls-7,.cls-8,.cls-9{stroke-width:0px;}.cls-2{fill:url(#New_Pattern_Swatch_5);}.cls-3{fill:url(#New_Pattern_Swatch_3);}.cls-4{fill:url(#New_Pattern_Swatch_2);}.cls-5{fill:url(#New_Pattern_Swatch_4);}.cls-6{fill:#2faf96;}.cls-7{fill:#1feab0;}.cls-8{fill:#b3ffde;}.cls-9{fill:#008887;}</style><pattern id="New_Pattern_Swatch_4" x="0" y="0" width="39.26" height="39.26" patternTransform="translate(-988 -1992)" patternUnits="userSpaceOnUse" viewBox="0 0 39.26 39.26"><rect class="cls-1" y="0" width="39.26" height="39.26"/><rect class="cls-8" x="0" y="0" width="39.26" height="39.26"/></pattern><pattern id="New_Pattern_Swatch_5" x="0" y="0" width="39.26" height="39.26" patternTransform="translate(-988 -1992)" patternUnits="userSpaceOnUse" viewBox="0 0 39.26 39.26"><rect class="cls-1" x="0" y="0" width="39.26" height="39.26"/><rect class="cls-9" x="0" y="0" width="39.26" height="39.26"/></pattern><pattern id="New_Pattern_Swatch_2" x="0" y="0" width="39.26" height="39.26" patternTransform="translate(-988 -1992)" patternUnits="userSpaceOnUse" viewBox="0 0 39.26 39.26"><rect class="cls-1" x="0" y="0" width="39.26" height="39.26"/><rect class="cls-6" x="0" y="0" width="39.26" height="39.26"/></pattern><pattern id="New_Pattern_Swatch_3" x="0" y="0" width="39.26" height="39.26" patternTransform="translate(-988 -1992)" patternUnits="userSpaceOnUse" viewBox="0 0 39.26 39.26"><rect class="cls-1" x="0" y="0" width="39.26" height="39.26"/><rect class="cls-7" x="0" y="0" width="39.26" height="39.26"/></pattern></defs><path class="cls-5" d="M65,56h0c-7.73,0-14-6.27-14-14v-9c0-5.52-4.48-10-10-10h0c-5.52,0-10,4.48-10,10v8s-4,0-4,0v-8c0-7.73,6.27-14,14-14h0c7.73,0,14,6.27,14,14v9c0,5.52,4.48,10,10,10h0c5.52,0,10-4.48,10-10v-25h4v25c0,7.73-6.27,14-14,14Z"/><path class="cls-2" d="M65,57c-8.27,0-15-6.73-15-15v-9c0-4.96-4.04-9-9-9s-9,4.04-9,9v8c0,.55-.45,1-1,1h-4c-.55,0-1-.45-1-1v-8c0-8.27,6.73-15,15-15s15,6.73,15,15v9c0,4.96,4.04,9,9,9s9-4.04,9-9v-25c0-.55.45-1,1-1h4c.55,0,1,.45,1,1v25c0,8.27-6.73,15-15,15ZM41,22c6.07,0,11,4.93,11,11v9c0,7.17,5.83,13,13,13s13-5.83,13-13v-24h-2v24c0,6.07-4.93,11-11,11s-11-4.93-11-11v-9c0-7.17-5.83-13-13-13s-13,5.83-13,13v7h2v-7c0-6.07,4.93-11,11-11Z"/><path class="cls-4" d="M34,42v4c0,.55-.45,1-1,1h-8c-.55,0-1-.45-1-1v-4c0-1.1.9-2,2-2h6c1.1,0,2,.9,2,2Z"/><path class="cls-3" d="M22,78c0-.55.45-1,1-1h2c.55,0,1,.45,1,1s-.45,1-1,1h-2c-.55,0-1-.45-1-1Z"/><path class="cls-3" d="M22,75c0-.55.45-1,1-1h2c.55,0,1,.45,1,1s-.45,1-1,1h-2c-.55,0-1-.45-1-1Z"/><path class="cls-3" d="M22,72c0-.55.45-1,1-1h2c.55,0,1,.45,1,1s-.45,1-1,1h-2c-.55,0-1-.45-1-1Z"/><path class="cls-3" d="M35,71h-6c-.55,0-1,.45-1,1v6c0,.55.45,1,1,1h6c.55,0,1-.45,1-1v-6c0-.55-.45-1-1-1ZM34,77h-4v-4h4v4Z"/><path class="cls-3" d="M39.31,48.69c-2.29-1.69-5.13-2.69-8.19-2.69h-4.24c-7.66,0-13.88,6.22-13.88,13.88v28.12h32v-28.12c0-4.6-2.24-8.68-5.69-11.19ZM38,81h-18v-12h18v12Z"/><path class="cls-5" d="M22,78c0-.55.45-1,1-1h2c.55,0,1,.45,1,1s-.45,1-1,1h-2c-.55,0-1-.45-1-1Z"/><path class="cls-5" d="M22,75c0-.55.45-1,1-1h2c.55,0,1,.45,1,1s-.45,1-1,1h-2c-.55,0-1-.45-1-1Z"/><path class="cls-5" d="M22,72c0-.55.45-1,1-1h2c.55,0,1,.45,1,1s-.45,1-1,1h-2c-.55,0-1-.45-1-1Z"/><path class="cls-5" d="M35,71h-6c-.55,0-1,.45-1,1v6c0,.55.45,1,1,1h6c.55,0,1-.45,1-1v-6c0-.55-.45-1-1-1ZM34,77h-4v-4h4v4Z"/><path class="cls-5" d="M40.94,51.57c-.42-1.03-.97-1.99-1.63-2.88-2.29-1.69-5.13-2.69-8.19-2.69h-4.24c-7.66,0-13.88,6.22-13.88,13.88v25.12h19c2.25,0,4.32-.74,5.99-2,.76-.57,1.44-1.25,2.01-2.01,1.26-1.67,2-3.74,2-5.99v-18.12c0-1.88-.38-3.67-1.06-5.31ZM38,81h-18v-12h18v12Z"/><path class="cls-4" d="M82,12v4c0,1.1-.9,2-2,2h-6c-1.1,0-2-.9-2-2v-4c0-.55.45-1,1-1h8c.55,0,1,.45,1,1Z"/><path class="cls-2" d="M88.15,13h-22.31c-.98,0-1.81-.7-1.97-1.67l-.67-4c-.1-.58.07-1.17.45-1.62.38-.45.94-.71,1.53-.71h23.64c.59,0,1.15.26,1.53.71.38.45.54,1.04.45,1.62l-.67,4c-.16.97-.99,1.67-1.97,1.67ZM65.18,7l.67,4h22.31s.67-4,.67-4h-23.64Z"/><path class="cls-2" d="M25,77h-2c-.55,0-1,.45-1,1s.45,1,1,1h2c.55,0,1-.45,1-1s-.45-1-1-1ZM25,74h-2c-.55,0-1,.45-1,1s.45,1,1,1h2c.55,0,1-.45,1-1s-.45-1-1-1ZM25,71h-2c-.55,0-1,.45-1,1s.45,1,1,1h2c.55,0,1-.45,1-1s-.45-1-1-1ZM35,71h-6c-.55,0-1,.45-1,1v6c0,.55.45,1,1,1h6c.55,0,1-.45,1-1v-6c0-.55-.45-1-1-1ZM34,77h-4v-4h4v4ZM35,71h-6c-.55,0-1,.45-1,1v6c0,.55.45,1,1,1h6c.55,0,1-.45,1-1v-6c0-.55-.45-1-1-1ZM34,77h-4v-4h4v4ZM25,71h-2c-.55,0-1,.45-1,1s.45,1,1,1h2c.55,0,1-.45,1-1s-.45-1-1-1ZM25,74h-2c-.55,0-1,.45-1,1s.45,1,1,1h2c.55,0,1-.45,1-1s-.45-1-1-1ZM25,77h-2c-.55,0-1,.45-1,1s.45,1,1,1h2c.55,0,1-.45,1-1s-.45-1-1-1ZM39,67h-20c-.55,0-1,.45-1,1v14c0,.55.45,1,1,1h20c.55,0,1-.45,1-1v-14c0-.55-.45-1-1-1ZM20,81v-12h18v12h-18ZM35,71h-6c-.55,0-1,.45-1,1v6c0,.55.45,1,1,1h6c.55,0,1-.45,1-1v-6c0-.55-.45-1-1-1ZM34,77h-4v-4h4v4ZM25,71h-2c-.55,0-1,.45-1,1s.45,1,1,1h2c.55,0,1-.45,1-1s-.45-1-1-1ZM25,74h-2c-.55,0-1,.45-1,1s.45,1,1,1h2c.55,0,1-.45,1-1s-.45-1-1-1ZM25,77h-2c-.55,0-1,.45-1,1s.45,1,1,1h2c.55,0,1-.45,1-1s-.45-1-1-1ZM25,77h-2c-.55,0-1,.45-1,1s.45,1,1,1h2c.55,0,1-.45,1-1s-.45-1-1-1ZM25,74h-2c-.55,0-1,.45-1,1s.45,1,1,1h2c.55,0,1-.45,1-1s-.45-1-1-1ZM25,71h-2c-.55,0-1,.45-1,1s.45,1,1,1h2c.55,0,1-.45,1-1s-.45-1-1-1ZM35,71h-6c-.55,0-1,.45-1,1v6c0,.55.45,1,1,1h6c.55,0,1-.45,1-1v-6c0-.55-.45-1-1-1ZM34,77h-4v-4h4v4ZM25,71h-2c-.55,0-1,.45-1,1s.45,1,1,1h2c.55,0,1-.45,1-1s-.45-1-1-1ZM25,74h-2c-.55,0-1,.45-1,1s.45,1,1,1h2c.55,0,1-.45,1-1s-.45-1-1-1ZM25,77h-2c-.55,0-1,.45-1,1s.45,1,1,1h2c.55,0,1-.45,1-1s-.45-1-1-1ZM35,71h-6c-.55,0-1,.45-1,1v6c0,.55.45,1,1,1h6c.55,0,1-.45,1-1v-6c0-.55-.45-1-1-1ZM34,77h-4v-4h4v4ZM50,75h-3c-.35,0-.69.07-1,.18v-1.68c0-.55-.45-1-1-1s-1,.45-1,1v13.5H14v-24.49h30v1.99c0,.55.45,1,1,1s1-.45,1-1v-4.62c0-8.2-6.67-14.88-14.88-14.88h-4.24c-8.21,0-14.88,6.68-14.88,14.88v15.3c-.31-.11-.65-.18-1-.18h-3c-1.65,0-3,1.35-3,3v10c0,1.65,1.35,3,3,3h3c1.3,0,2.4-.84,2.82-2h30.36c.42,1.16,1.52,2,2.82,2h3c1.65,0,3-1.35,3-3v-10c0-1.65-1.35-3-3-3ZM12,88c0,.55-.45,1-1,1h-3c-.55,0-1-.45-1-1v-10c0-.55.45-1,1-1h3c.55,0,1,.45,1,1v10ZM44,60.51H14v-.63c0-7.1,5.78-12.88,12.88-12.88h4.24c3.94,0,7.47,1.78,9.82,4.57,1.92,2.24,3.06,5.15,3.06,8.31v.63ZM51,88c0,.55-.45,1-1,1h-3c-.55,0-1-.45-1-1v-10c0-.55.45-1,1-1h3c.55,0,1,.45,1,1v10ZM45,67.1c-.55,0-1,.45-1,1v1.8c0,.55.45,1,1,1s1-.45,1-1v-1.8c0-.55-.45-1-1-1Z"/></svg>