<?xml version="1.0" encoding="UTF-8"?><svg id="Greeny" xmlns="http://www.w3.org/2000/svg" xmlns:xlink="http://www.w3.org/1999/xlink" viewBox="0 0 96 96"><defs><style>.cls-1{fill:none;}.cls-1,.cls-2,.cls-3,.cls-4,.cls-5,.cls-6,.cls-7,.cls-8,.cls-9{stroke-width:0px;}.cls-2{fill:url(#New_Pattern_Swatch_5);}.cls-3{fill:url(#New_Pattern_Swatch_3);}.cls-4{fill:url(#New_Pattern_Swatch_2);}.cls-5{fill:url(#New_Pattern_Swatch_4);}.cls-6{fill:#2faf96;}.cls-7{fill:#1feab0;}.cls-8{fill:#b3ffde;}.cls-9{fill:#008887;}</style><pattern id="New_Pattern_Swatch_4" x="0" y="0" width="39.26" height="39.26" patternTransform="translate(-204 -2188)" patternUnits="userSpaceOnUse" viewBox="0 0 39.26 39.26"><rect class="cls-1" y="0" width="39.26" height="39.26"/><rect class="cls-8" x="0" y="0" width="39.26" height="39.26"/></pattern><pattern id="New_Pattern_Swatch_3" x="0" y="0" width="39.26" height="39.26" patternTransform="translate(-204 -2188)" patternUnits="userSpaceOnUse" viewBox="0 0 39.26 39.26"><rect class="cls-1" x="0" y="0" width="39.26" height="39.26"/><rect class="cls-7" x="0" y="0" width="39.26" height="39.26"/></pattern><pattern id="New_Pattern_Swatch_5" x="0" y="0" width="39.26" height="39.26" patternTransform="translate(-204 -2188)" patternUnits="userSpaceOnUse" viewBox="0 0 39.26 39.26"><rect class="cls-1" x="0" y="0" width="39.26" height="39.26"/><rect class="cls-9" x="0" y="0" width="39.26" height="39.26"/></pattern><pattern id="New_Pattern_Swatch_2" x="0" y="0" width="39.26" height="39.26" patternTransform="translate(-204 -2188)" patternUnits="userSpaceOnUse" viewBox="0 0 39.26 39.26"><rect class="cls-1" x="0" y="0" width="39.26" height="39.26"/><rect class="cls-6" x="0" y="0" width="39.26" height="39.26"/></pattern></defs><path class="cls-5" d="M82.31,59.28c0,1.46-1.19,2.65-2.65,2.65-.38,0-.77-.09-1.14-.27-.35-.17-.77-.12-1.07.12-.34.28-.9.61-1.66.61s-1.42-.31-1.93-.86c-.2-.21-.47-.32-.74-.32-.13,0-.25.02-.38.07-.32.14-.65.2-.99.2-1.47,0-2.65-1.19-2.65-2.65s1.18-2.65,2.65-2.65c.1,0,.19.02.36.04.52.07.99-.26,1.11-.76.29-1.19,1.35-2.03,2.57-2.03,1.33,0,2.46,1.01,2.62,2.34.06.53.53.91,1.06.88.06,0,.11,0,.21-.03,1.45,0,2.63,1.2,2.63,2.66Z"/><path class="cls-3" d="M59.63,9.77l-9.55,51.69-6.98-1.29,1.85-10.02,7.71-41.67c.3-1.63,1.86-2.7,3.49-2.4l1.08.2s.08.02.12.03c1.56.35,2.57,1.87,2.28,3.46Z"/><path class="cls-5" d="M57.35,6.31l-7.21,38.97c-.49,2.65-2.65,4.57-5.19,4.87l7.71-41.67c.3-1.63,1.86-2.7,3.49-2.4l1.08.2s.08.02.12.03Z"/><path class="cls-2" d="M51.32,83.87c-.63,1.25-1.28,2.43-1.91,3.5-.84,1.41-2.18,2.43-3.77,2.85-2.13.55-4.85,1.01-7.97,1.01s-6.29-.42-9.77-1.6c-6.12-2.08-10.34-5.7-12.8-8.37-.55-.59-.72-1.39-.47-2.15.25-.76.9-1.32,1.69-1.47,14.7-2.61,19.76-17.54,19.81-17.69.17-.52.74-.81,1.26-.64.52.17.81.74.64,1.26-.22.66-5.46,16.21-21.36,19.03-.09.02-.13.08-.15.13-.03.09.02.15.04.17,1.28,1.39,3.09,3.05,5.4,4.58,1.98-.49,10.59-3.19,14.57-13.69.2-.52.77-.78,1.29-.58.52.2.78.77.58,1.29-3.55,9.35-10.51,13.03-14.15,14.35,1.3.7,2.72,1.34,4.28,1.87,1.27.43,2.52.75,3.74.99,1.69-.76,9.83-4.98,11.8-16.21.1-.54.61-.91,1.16-.81.54.1.91.61.81,1.16-1.61,9.16-7.03,14.06-10.46,16.3,3.79.27,7.1-.24,9.55-.87,1.06-.28,2-.98,2.56-1.93.62-1.03,1.24-2.17,1.85-3.38.25-.49.85-.69,1.34-.44.49.25.69.85.44,1.34ZM56,62.74c-.56-.05-1.03.37-1.08.92-.2,2.48-.56,4.83-1.09,7.19-.12.54.22,1.07.76,1.2.07.02.15.02.22.02.46,0,.87-.32.97-.78.55-2.45.92-4.89,1.13-7.47.04-.55-.37-1.03-.92-1.08Z"/><path class="cls-3" d="M76.33,79.39c0,1.73-1.17,3.23-2.84,3.65-.35.09-.63.36-.72.71-.45,1.63-1.95,2.77-3.64,2.77-.53,0-1.06-.12-1.55-.34-.25-.12-.53-.12-.78-.02-.25.09-.45.29-.56.54-.59,1.4-1.95,2.3-3.47,2.3-1.34,0-2.56-.7-3.23-1.82-.1-.15-.18-.31-.25-.48-.11-.25-.31-.45-.56-.54-.12-.05-.24-.07-.36-.07-.14,0-.28.03-.42.09-.49.22-1.01.34-1.55.34-1.69,0-3.19-1.14-3.64-2.77-.09-.35-.36-.62-.71-.71-1.68-.42-2.85-1.92-2.85-3.65s1.14-3.18,2.76-3.63c.38-.11.66-.42.72-.8.3-1.83,1.87-3.16,3.72-3.16.54,0,1.06.12,1.56.34.24.11.52.12.77.02.25-.1.45-.29.56-.54.59-1.4,1.96-2.3,3.48-2.3s2.88.9,3.47,2.3c.11.25.31.45.56.54.25.1.53.09.78-.02.49-.22,1.02-.34,1.55-.34,1.85,0,3.42,1.33,3.72,3.16.07.38.35.69.72.8.14.04.28.08.41.13,1.41.58,2.35,1.96,2.35,3.5Z"/><path class="cls-5" d="M73.98,75.89c-.02,2.2-1.51,4.1-3.64,4.64-.44.11-.8.46-.92.91-.57,2.08-2.5,3.55-4.66,3.55-.68,0-1.36-.16-1.99-.44-.32-.15-.68-.15-1-.03s-.58.38-.72.7c-.33.8-.86,1.46-1.51,1.96-.1-.15-.18-.31-.25-.48-.11-.25-.31-.45-.56-.54-.12-.05-.24-.07-.36-.07-.14,0-.28.03-.42.09-.49.22-1.01.34-1.55.34-1.69,0-3.19-1.14-3.64-2.77-.09-.35-.36-.62-.71-.71-1.68-.42-2.85-1.92-2.85-3.65s1.14-3.18,2.76-3.63c.38-.11.66-.42.72-.8.3-1.83,1.87-3.16,3.72-3.16.54,0,1.06.12,1.56.34.24.11.52.12.77.02.25-.1.45-.29.56-.54.59-1.4,1.96-2.3,3.48-2.3s2.88.9,3.47,2.3c.11.25.31.45.56.54.25.1.53.09.78-.02.49-.22,1.02-.34,1.55-.34,1.85,0,3.42,1.33,3.72,3.16.07.38.35.69.72.8.14.04.28.08.41.13Z"/><path class="cls-2" d="M74.69,74.03c-.68-2.48-2.93-4.23-5.56-4.23-.5,0-1,.07-1.49.2-1.04-1.65-2.87-2.68-4.87-2.68s-3.83,1.03-4.88,2.68c-.49-.13-.98-.2-1.49-.2-2.63,0-4.87,1.75-5.56,4.23-2.17.86-3.64,2.99-3.64,5.36s1.54,4.61,3.81,5.43c.85,2.2,2.99,3.7,5.39,3.7.51,0,1-.07,1.49-.2,1.05,1.65,2.87,2.68,4.88,2.68s3.83-1.03,4.87-2.68c.49.13.99.2,1.49.2,2.4,0,4.54-1.5,5.39-3.7,2.27-.82,3.81-2.98,3.81-5.43s-1.47-4.5-3.64-5.36ZM73.49,83.04c-.35.09-.63.36-.72.71-.45,1.63-1.95,2.77-3.64,2.77-.53,0-1.06-.12-1.55-.34-.25-.12-.53-.12-.78-.02-.25.09-.45.29-.56.54-.59,1.4-1.95,2.3-3.47,2.3s-2.89-.9-3.48-2.3c-.11-.25-.31-.45-.56-.54-.12-.05-.24-.07-.36-.07-.14,0-.28.03-.42.09-.49.22-1.01.34-1.55.34-1.69,0-3.19-1.14-3.64-2.77-.09-.35-.36-.62-.71-.71-1.68-.42-2.85-1.92-2.85-3.65s1.14-3.18,2.76-3.63c.38-.11.66-.42.72-.8.3-1.83,1.87-3.16,3.72-3.16.54,0,1.06.12,1.56.34.24.11.52.12.77.02.25-.1.45-.29.56-.54.59-1.4,1.96-2.3,3.48-2.3s2.88.9,3.47,2.3c.11.25.31.45.56.54.25.1.53.09.78-.02.49-.22,1.02-.34,1.55-.34,1.85,0,3.42,1.33,3.72,3.16.07.38.35.69.72.8,1.63.45,2.76,1.94,2.76,3.63s-1.17,3.23-2.84,3.65ZM80.2,54.66c-.6-1.89-2.37-3.23-4.41-3.23-1.86,0-3.5,1.1-4.24,2.75-2.47.11-4.45,2.15-4.45,4.65s2.08,4.65,4.65,4.65c.38,0,.75-.04,1.12-.14.83.68,1.84,1.05,2.92,1.05.87,0,1.69-.24,2.43-.7.47.16.95.24,1.44.24,2.56,0,4.65-2.09,4.65-4.65,0-2.39-1.8-4.35-4.11-4.62ZM79.66,61.93c-.38,0-.77-.09-1.14-.27-.35-.17-.77-.12-1.07.12-.34.28-.9.61-1.66.61s-1.42-.31-1.93-.86c-.2-.21-.47-.32-.74-.32-.13,0-.25.02-.38.07-.32.14-.65.2-.99.2-1.47,0-2.65-1.19-2.65-2.65s1.18-2.65,2.65-2.65c.1,0,.19.02.36.04.52.07.99-.26,1.11-.76.29-1.19,1.35-2.03,2.57-2.03,1.33,0,2.46,1.01,2.62,2.34.06.53.53.91,1.06.88.06,0,.11,0,.21-.03,1.45,0,2.63,1.2,2.63,2.66s-1.19,2.65-2.65,2.65Z"/><path class="cls-2" d="M44.39,54.19c-.06,0-.12,0-.18-.02-.54-.1-.9-.62-.8-1.17l4.42-23.89s.02-.11.03-.12l.38-2.12,3.44-18.57c.19-1.05.78-1.96,1.66-2.57.88-.6,1.94-.83,2.99-.64l1.08.2c1.05.19,1.96.78,2.57,1.66.6.88.83,1.94.64,2.99l-3.38,18.27c-.1.54-.62.9-1.17.8-.54-.1-.9-.62-.8-1.17l3.38-18.27c.1-.53-.02-1.06-.32-1.5s-.76-.73-1.28-.83l-1.08-.2c-.53-.1-1.06.02-1.5.32-.44.3-.73.76-.83,1.28l-3.83,20.73s-.02.12-.03.13l-4.41,23.85c-.09.48-.51.82-.98.82ZM52.35,54.67l3.25-17.58c.1-.54-.26-1.06-.8-1.17-.55-.1-1.06.26-1.17.8l-3.25,17.58c-.1.54.26,1.06.8,1.17.06.01.12.02.18.02.47,0,.89-.34.98-.82ZM56.25,33.54l.33-1.77c.1-.54-.26-1.06-.8-1.17-.54-.1-1.07.26-1.17.8l-.33,1.77c-.1.54.26,1.06.8,1.17.06.01.12.02.18.02.47,0,.89-.34.98-.82Z"/><path class="cls-4" d="M58.6,59.89l-.6,3.22c-.18.96-1.02,1.64-1.96,1.64-.12,0-.25-.01-.37-.04l-18.96-3.5c-.52-.1-.98-.39-1.28-.83-.31-.44-.42-.98-.32-1.5l.59-3.22c.51-2.71,3.12-4.51,5.83-4.01l13.06,2.41c1.31.25,2.45.99,3.21,2.09.76,1.1,1.04,2.43.8,3.74Z"/></svg>