<?xml version="1.0" encoding="UTF-8"?><svg id="Greeny" xmlns="http://www.w3.org/2000/svg" xmlns:xlink="http://www.w3.org/1999/xlink" viewBox="0 0 96 96"><defs><style>.cls-1{fill:none;}.cls-1,.cls-2,.cls-3,.cls-4,.cls-5,.cls-6,.cls-7,.cls-8,.cls-9{stroke-width:0px;}.cls-2{fill:url(#New_Pattern_Swatch_5);}.cls-3{fill:url(#New_Pattern_Swatch_3);}.cls-4{fill:url(#New_Pattern_Swatch_2);}.cls-5{fill:url(#New_Pattern_Swatch_4);}.cls-6{fill:#2faf96;}.cls-7{fill:#1feab0;}.cls-8{fill:#b3ffde;}.cls-9{fill:#008887;}</style><pattern id="New_Pattern_Swatch_4" x="0" y="0" width="39.26" height="39.26" patternTransform="translate(-400 -2188)" patternUnits="userSpaceOnUse" viewBox="0 0 39.26 39.26"><rect class="cls-1" y="0" width="39.26" height="39.26"/><rect class="cls-8" x="0" y="0" width="39.26" height="39.26"/></pattern><pattern id="New_Pattern_Swatch_3" x="0" y="0" width="39.26" height="39.26" patternTransform="translate(-400 -2188)" patternUnits="userSpaceOnUse" viewBox="0 0 39.26 39.26"><rect class="cls-1" x="0" y="0" width="39.26" height="39.26"/><rect class="cls-7" x="0" y="0" width="39.26" height="39.26"/></pattern><pattern id="New_Pattern_Swatch_5" x="0" y="0" width="39.26" height="39.26" patternTransform="translate(-400 -2188)" patternUnits="userSpaceOnUse" viewBox="0 0 39.26 39.26"><rect class="cls-1" x="0" y="0" width="39.26" height="39.26"/><rect class="cls-9" x="0" y="0" width="39.26" height="39.26"/></pattern><pattern id="New_Pattern_Swatch_2" x="0" y="0" width="39.26" height="39.26" patternTransform="translate(-400 -2188)" patternUnits="userSpaceOnUse" viewBox="0 0 39.26 39.26"><rect class="cls-1" x="0" y="0" width="39.26" height="39.26"/><rect class="cls-6" x="0" y="0" width="39.26" height="39.26"/></pattern></defs><path class="cls-5" d="M33.2,6h12.8c1.1,0,2,.9,2,2v8.8h-16.8v-8.8c0-1.1.9-2,2-2Z"/><path class="cls-3" d="M67.37,27.72s-.02-.01-.03-.02c-.05-.03-.09-.07-.14-.1-1.61-1.19-3.21-2.11-4.7-2.83-2.78-1.34-5.86-1.97-8.95-1.97h-22.39c-5.94,0-10.76,4.82-10.76,10.76v45.68c0,1.94.51,3.77,1.42,5.34,1.85,3.24,5.34,5.42,9.34,5.42h33.68c5.94,0,10.76-4.82,10.76-10.76v-34.68c0-6.59-2.97-12.9-8.23-16.84ZM67.4,44.56v5.88c0,1.41-1.15,2.56-2.56,2.56-9.4,0-17.04-7.64-17.04-17.04v-2.4c0-1.41,1.15-2.56,2.56-2.56h3.19c1.96,0,3.82.4,5.39,1.16,1.2.57,2.34,1.26,3.39,2.04l.1.07c3.11,2.32,4.97,6.17,4.97,10.29ZM64.84,62.2c.86,0,1.72-.09,2.56-.28v17.96c0,1.04-1.17,1.92-2.56,1.92H31.16c-1.39,0-2.56-.88-2.56-1.92v-37.36c0-1.04,1.17-1.92,2.56-1.92h7.85c2.22,12.37,13.17,21.6,25.83,21.6Z"/><path class="cls-5" d="M69.3,30.81h-.01c-.54-1.09-1.19-2.12-1.92-3.09-.01,0-.02-.01-.03-.02-.05-.03-.09-.07-.14-.1-1.61-1.19-3.21-2.11-4.7-2.83-2.78-1.34-5.86-1.97-8.95-1.97h-22.39c-5.94,0-10.76,4.82-10.76,10.76v45.68c0,1.94.51,3.77,1.42,5.34.56.32,1.14.59,1.76.81,1.12.4,2.33.61,3.58.61h34.44c5.52,0,10-4.48,10-10v-35.52c0-3.4-.8-6.71-2.3-9.67ZM67.4,79.88c0,1.04-1.17,1.92-2.56,1.92H31.16c-1.39,0-2.56-.88-2.56-1.92v-37.36c0-1.04,1.17-1.92,2.56-1.92h7.85c2.22,12.37,13.17,21.6,25.83,21.6.86,0,1.72-.09,2.56-.28v17.96ZM67.4,50.44c0,1.41-1.15,2.56-2.56,2.56-9.4,0-17.04-7.64-17.04-17.04v-2.4c0-1.41,1.15-2.56,2.56-2.56h3.19c1.96,0,3.82.4,5.39,1.16,1.2.57,2.34,1.26,3.39,2.04l.1.07c3.11,2.32,4.97,6.17,4.97,10.29v5.88Z"/><path class="cls-2" d="M75.6,54.1c-.55,0-1,.45-1,1v1.8c0,.55.45,1,1,1s1-.45,1-1v-1.8c0-.55-.45-1-1-1ZM75.6,52.5c.55,0,1-.45,1-1v-6.94c0-7.01-3.24-13.61-8.71-17.7-.01,0-.09-.06-.1-.06-1.5-1.11-3.13-2.1-4.86-2.93-2.8-1.35-6.05-2.07-9.38-2.07h-22.39c-6.48,0-11.76,5.28-11.76,11.76v45.68c0,6.48,5.28,11.76,11.76,11.76h33.68c6.48,0,11.76-5.28,11.76-11.76v-18.74c0-.55-.45-1-1-1s-1,.45-1,1v18.74c0,5.38-4.38,9.76-9.76,9.76H31.16c-3.05,0-5.78-1.41-7.58-3.61-1.36-1.68-2.18-3.82-2.18-6.15v-45.68c0-5.38,4.38-9.76,9.76-9.76h22.39c3.03,0,5.98.65,8.51,1.87,1.62.78,3.15,1.7,4.6,2.77l.08.06c.92.69,1.77,1.46,2.55,2.3h.01c3.36,3.65,5.3,8.58,5.3,13.76v6.94c0,.55.45,1,1,1ZM68.98,59.79c-.26-.19-.6-.24-.91-.14-1.05.37-2.14.55-3.23.55-11.97,0-22.28-8.92-23.99-20.74-.07-.49-.49-.86-.99-.86h-8.7c-2.51,0-4.56,1.76-4.56,3.92v37.36c0,2.16,2.05,3.92,4.56,3.92h33.68c2.51,0,4.56-1.76,4.56-3.92v-19.28c0-.32-.16-.63-.42-.81ZM67.4,79.88c0,1.04-1.17,1.92-2.56,1.92H31.16c-1.39,0-2.56-.88-2.56-1.92v-37.36c0-1.04,1.17-1.92,2.56-1.92h7.85c2.22,12.37,13.17,21.6,25.83,21.6.86,0,1.72-.09,2.56-.28v17.96ZM63.63,32.67l-.11-.08c-1.16-.85-2.4-1.6-3.71-2.23-1.84-.89-4-1.36-6.26-1.36h-3.19c-2.51,0-4.56,2.05-4.56,4.56v2.4c0,10.5,8.54,19.04,19.04,19.04,2.51,0,4.56-2.05,4.56-4.56v-5.88c0-4.75-2.16-9.19-5.77-11.89ZM67.4,50.44c0,1.41-1.15,2.56-2.56,2.56-9.4,0-17.04-7.64-17.04-17.04v-2.4c0-1.41,1.15-2.56,2.56-2.56h3.19c1.96,0,3.82.4,5.39,1.16,1.2.57,2.34,1.26,3.39,2.04l.1.07c3.11,2.32,4.97,6.17,4.97,10.29v5.88ZM46,5h-12.8c-1.65,0-3,1.35-3,3v8.8c0,.55.45,1,1,1h16.8c.55,0,1-.45,1-1v-8.8c0-1.65-1.35-3-3-3ZM47,15.8h-14.8v-7.8c0-.55.45-1,1-1h12.8c.55,0,1,.45,1,1v7.8Z"/><path class="cls-4" d="M51.4,17.8v5c0,.55-.45,1-1,1h-21.6c-.55,0-1-.45-1-1v-5c0-1.1.9-2,2-2h19.6c1.1,0,2,.9,2,2Z"/></svg>