<?xml version="1.0" encoding="UTF-8"?><svg id="Greeny" xmlns="http://www.w3.org/2000/svg" xmlns:xlink="http://www.w3.org/1999/xlink" viewBox="0 0 96 96"><defs><style>.cls-1{fill:none;}.cls-1,.cls-2,.cls-3,.cls-4,.cls-5,.cls-6,.cls-7,.cls-8,.cls-9{stroke-width:0px;}.cls-2{fill:url(#New_Pattern_Swatch_5);}.cls-3{fill:url(#New_Pattern_Swatch_3);}.cls-4{fill:url(#New_Pattern_Swatch_2);}.cls-5{fill:url(#New_Pattern_Swatch_4);}.cls-6{fill:#2faf96;}.cls-7{fill:#1feab0;}.cls-8{fill:#b3ffde;}.cls-9{fill:#008887;}</style><pattern id="New_Pattern_Swatch_3" x="0" y="0" width="39.26" height="39.26" patternTransform="translate(-596 -2188)" patternUnits="userSpaceOnUse" viewBox="0 0 39.26 39.26"><rect class="cls-1" x="0" y="0" width="39.26" height="39.26"/><rect class="cls-7" x="0" y="0" width="39.26" height="39.26"/></pattern><pattern id="New_Pattern_Swatch_4" x="0" y="0" width="39.26" height="39.26" patternTransform="translate(-596 -2188)" patternUnits="userSpaceOnUse" viewBox="0 0 39.26 39.26"><rect class="cls-1" y="0" width="39.26" height="39.26"/><rect class="cls-8" x="0" y="0" width="39.26" height="39.26"/></pattern><pattern id="New_Pattern_Swatch_5" x="0" y="0" width="39.26" height="39.26" patternTransform="translate(-596 -2188)" patternUnits="userSpaceOnUse" viewBox="0 0 39.26 39.26"><rect class="cls-1" x="0" y="0" width="39.26" height="39.26"/><rect class="cls-9" x="0" y="0" width="39.26" height="39.26"/></pattern><pattern id="New_Pattern_Swatch_2" x="0" y="0" width="39.26" height="39.26" patternTransform="translate(-596 -2188)" patternUnits="userSpaceOnUse" viewBox="0 0 39.26 39.26"><rect class="cls-1" x="0" y="0" width="39.26" height="39.26"/><rect class="cls-6" x="0" y="0" width="39.26" height="39.26"/></pattern></defs><path class="cls-3" d="M33.95,65.74c-2.83,3.61-3.13,4.54-6.46,8.29-5.53,6.24-7.8,8.52-13.14,13.43-1.63,1.49-4.13,1.44-5.69-.12-1.28-1.28-1.54-3.19-.78-4.73.17-.34.39-.67.66-.96,4.91-5.34,7.19-7.61,13.43-13.14,3.75-3.33,4.68-3.63,8.29-6.46l2.12,2.12c.32.31.74.73,1.57,1.57Z"/><path class="cls-5" d="M32.38,64.17c-1.54,2.1-2.3,3.31-4.88,6.22-5.54,6.23-7.8,8.51-13.15,13.43-1.62,1.49-4.13,1.44-5.69-.12-.33-.33-.59-.7-.78-1.09.17-.34.39-.67.66-.96,4.91-5.34,7.19-7.61,13.43-13.14,3.75-3.33,4.68-3.63,8.29-6.46l2.12,2.12Z"/><path class="cls-2" d="M25.19,76.6c.41.37.44,1,.06,1.41l-.13.14c-.38.41-.75.82-1.1,1.2-.2.21-.46.32-.73.32-.24,0-.49-.09-.68-.27-.4-.38-.43-1.01-.05-1.41.35-.38.71-.78,1.09-1.19l.13-.14c.37-.41,1-.44,1.41-.06ZM34.66,65.03l-3.69-3.69c-.36-.36-.93-.39-1.32-.08-1.34,1.05-2.32,1.76-3.18,2.38-1.49,1.07-2.77,2-5.16,4.12-.23.21-.45.41-.68.6l-.57.5c-2.79,2.49-4.79,4.35-6.68,6.24-1.75,1.74-3.43,3.53-5.57,5.86-1.85,2.03-1.79,5.13.15,7.07,1,1,2.3,1.5,3.61,1.5,1.24,0,2.48-.45,3.46-1.35,2.42-2.23,4.45-4.14,6.5-6.21.39-.39.38-1.03-.01-1.41-.39-.39-1.03-.38-1.41.01-2.02,2.05-3.96,3.87-6.42,6.14-1.24,1.13-3.13,1.09-4.31-.09-1.18-1.18-1.22-3.07-.09-4.31,2.12-2.31,3.79-4.09,5.51-5.8,1.87-1.86,3.84-3.7,6.6-6.17l.56-.49c.23-.2.46-.41.69-.61,2.31-2.05,3.49-2.91,5-3.99.72-.52,1.53-1.1,2.55-1.89l2.44,2.44c-.78,1.02-1.36,1.82-1.89,2.55-1.08,1.5-1.94,2.69-4,5-.16.18-.32.36-.47.53l-.08.09c-.37.41-.33,1.04.08,1.41.41.37,1.04.33,1.41-.08l.08-.09c.16-.18.33-.36.49-.55,2.12-2.38,3.04-3.67,4.12-5.15.63-.87,1.34-1.85,2.38-3.18.31-.4.28-.97-.08-1.32Z"/><path class="cls-4" d="M41.15,59.53c0,.27-.1.52-.29.71l-6.21,6.21c-.19.19-.44.29-.71.29s-.52-.1-.71-.29l-3.68-3.68c-.39-.4-.39-1.03,0-1.42l6.21-6.21c.39-.39,1.02-.39,1.41,0l3.69,3.69c.19.18.29.44.29.7Z"/><path class="cls-2" d="M85.07,34.42c0-1.63-.53-3.18-1.5-4.44.08-.08.16-.15.24-.23,2.86-2.86,2.86-7.52,0-10.38-1.36-1.36-3.15-2.11-5.04-2.13-.03-1.89-.77-3.68-2.13-5.04-2.86-2.86-7.52-2.86-10.38,0-.08.08-.16.16-.23.24-2.88-2.19-7.01-1.97-9.64.65-1.36,1.36-2.11,3.15-2.13,5.04-1.89.02-3.68.77-5.04,2.13-1.36,1.36-2.11,3.15-2.13,5.04-1.89.02-3.68.77-5.04,2.13-1.36,1.36-2.11,3.15-2.13,5.04-1.89.02-3.68.77-5.04,2.13-1.39,1.39-2.15,3.23-2.15,5.19,0,1.63.52,3.17,1.5,4.44-.08.08-.16.15-.24.23-1.39,1.39-2.15,3.23-2.15,5.19s.76,3.81,2.15,5.19,3.15,2.11,5.04,2.13c.02,1.89.77,3.68,2.13,5.04s3.23,2.15,5.19,2.15,3.81-.76,5.19-2.15c.08-.08.15-.16.23-.24,1.27.97,2.82,1.5,4.44,1.5,1.96,0,3.81-.76,5.19-2.15,1.36-1.36,2.11-3.15,2.13-5.04,1.89-.02,3.68-.77,5.04-2.13,1.36-1.36,2.11-3.15,2.13-5.04,1.89-.02,3.68-.77,5.04-2.13,1.36-1.36,2.11-3.15,2.13-5.04,1.89-.02,3.68-.77,5.04-2.13,1.39-1.39,2.15-3.23,2.15-5.19ZM76.95,39.68c-.31-.05-.63.06-.85.28-.22.22-.33.54-.28.85.25,1.7-.29,3.36-1.48,4.55-1.2,1.2-2.85,1.74-4.55,1.49-.31-.05-.63.06-.85.28-.22.22-.33.54-.28.85.25,1.7-.29,3.36-1.49,4.55-1.2,1.2-2.86,1.74-4.55,1.49-.31-.05-.63.06-.85.28-.22.22-.33.54-.28.85.25,1.7-.29,3.36-1.48,4.55-1.01,1.01-2.35,1.56-3.78,1.56s-2.77-.56-3.72-1.5c-.03-.04-.1-.13-.14-.17-.21-.21-.49-.31-.8-.28-.29.03-.56.18-.73.43-.24.35-.46.62-.7.86-1.01,1.01-2.35,1.56-3.78,1.56s-2.77-.56-3.78-1.56c-1.2-1.2-1.74-2.86-1.49-4.55.05-.31-.06-.63-.28-.85-.19-.19-.44-.29-.71-.29-.05,0-.1,0-.15.01-1.7.26-3.36-.29-4.55-1.49-1.01-1.01-1.56-2.35-1.56-3.78s.56-2.77,1.56-3.78c.24-.24.51-.46.86-.7.24-.17.4-.44.43-.73.03-.3-.08-.59-.29-.8-.05-.05-.1-.09-.1-.08-1.01-1.01-1.56-2.35-1.56-3.78s.56-2.77,1.56-3.78c1.2-1.2,2.86-1.74,4.55-1.49.31.05.63-.06.85-.28.22-.22.33-.54.28-.85-.25-1.7.29-3.36,1.49-4.55,1.2-1.2,2.86-1.74,4.55-1.49.31.05.63-.06.85-.28.22-.22.33-.54.28-.85-.25-1.7.29-3.36,1.49-4.55,1.2-1.2,2.85-1.74,4.55-1.49.31.05.63-.06.85-.28.22-.22.33-.54.28-.85-.25-1.7.29-3.36,1.48-4.55,2.08-2.08,5.47-2.08,7.5-.06.03.04.1.12.13.16.21.21.5.31.8.29.3-.03.56-.18.73-.43.24-.35.46-.62.7-.86,2.08-2.08,5.47-2.08,7.56,0,1.2,1.2,1.74,2.86,1.49,4.55-.05.31.06.63.28.85.22.22.54.33.85.28,1.7-.25,3.36.29,4.55,1.49,2.08,2.08,2.08,5.47,0,7.56-.24.24-.51.46-.86.7-.25.17-.4.44-.43.74-.03.3.08.59.29.8.05.05.09.09.09.07,1.01,1.01,1.56,2.35,1.56,3.78s-.56,2.77-1.56,3.78c-1.2,1.2-2.86,1.74-4.55,1.49Z"/><path class="cls-4" d="M50.11,14.98c-.12,0-.23-.02-.35-.06-.52-.19-.78-.77-.59-1.29.66-1.77,1.71-3.41,3.03-4.74,3.58-3.58,8.8-4.8,13.61-3.19.52.18.81.74.63,1.27s-.74.81-1.27.63c-4.09-1.37-8.52-.33-11.56,2.71-1.12,1.12-2.01,2.51-2.57,4.02-.15.4-.53.65-.94.65ZM28.75,44.66c.52-.18.81-.74.63-1.27-1.37-4.09-.33-8.52,2.71-11.56,1.12-1.12,2.51-2.01,4.02-2.57.52-.19.78-.77.59-1.29-.19-.52-.77-.78-1.29-.59-1.77.66-3.41,1.71-4.74,3.03-3.58,3.58-4.8,8.8-3.19,13.61.14.42.53.68.95.68.1,0,.21-.02.32-.05ZM65.58,65.32c1.32-1.32,2.37-2.96,3.03-4.74.19-.52-.07-1.09-.59-1.29-.52-.19-1.09.07-1.29.59-.56,1.51-1.45,2.9-2.57,4.02-3.04,3.04-7.47,4.08-11.56,2.71-.52-.17-1.09.11-1.27.63-.18.52.11,1.09.63,1.27,1.4.47,2.84.7,4.26.7,3.45,0,6.81-1.35,9.35-3.89ZM82.37,46.83c1.77-.66,3.41-1.71,4.74-3.03,3.58-3.58,4.8-8.8,3.19-13.61-.18-.52-.75-.8-1.27-.63-.52.18-.81.74-.63,1.27,1.37,4.09.33,8.52-2.71,11.56-1.12,1.12-2.51,2.01-4.02,2.57-.52.19-.78.77-.59,1.29.15.4.53.65.94.65.12,0,.23-.02.35-.06Z"/></svg>