<?xml version="1.0" encoding="UTF-8"?><svg id="Greeny" xmlns="http://www.w3.org/2000/svg" xmlns:xlink="http://www.w3.org/1999/xlink" viewBox="0 0 96 96"><defs><style>.cls-1{fill:none;}.cls-1,.cls-2,.cls-3,.cls-4,.cls-5,.cls-6,.cls-7,.cls-8,.cls-9{stroke-width:0px;}.cls-2{fill:url(#New_Pattern_Swatch_5);}.cls-3{fill:url(#New_Pattern_Swatch_3);}.cls-4{fill:url(#New_Pattern_Swatch_2);}.cls-5{fill:url(#New_Pattern_Swatch_4);}.cls-6{fill:#2faf96;}.cls-7{fill:#1feab0;}.cls-8{fill:#b3ffde;}.cls-9{fill:#008887;}</style><pattern id="New_Pattern_Swatch_5" x="0" y="0" width="39.26" height="39.26" patternTransform="translate(-792 -2188)" patternUnits="userSpaceOnUse" viewBox="0 0 39.26 39.26"><rect class="cls-1" x="0" y="0" width="39.26" height="39.26"/><rect class="cls-9" x="0" y="0" width="39.26" height="39.26"/></pattern><pattern id="New_Pattern_Swatch_2" x="0" y="0" width="39.26" height="39.26" patternTransform="translate(-792 -2188)" patternUnits="userSpaceOnUse" viewBox="0 0 39.26 39.26"><rect class="cls-1" x="0" y="0" width="39.26" height="39.26"/><rect class="cls-6" x="0" y="0" width="39.26" height="39.26"/></pattern><pattern id="New_Pattern_Swatch_3" x="0" y="0" width="39.26" height="39.26" patternTransform="translate(-792 -2188)" patternUnits="userSpaceOnUse" viewBox="0 0 39.26 39.26"><rect class="cls-1" x="0" y="0" width="39.26" height="39.26"/><rect class="cls-7" x="0" y="0" width="39.26" height="39.26"/></pattern><pattern id="New_Pattern_Swatch_4" x="0" y="0" width="39.26" height="39.26" patternTransform="translate(-792 -2188)" patternUnits="userSpaceOnUse" viewBox="0 0 39.26 39.26"><rect class="cls-1" y="0" width="39.26" height="39.26"/><rect class="cls-8" x="0" y="0" width="39.26" height="39.26"/></pattern></defs><path class="cls-2" d="M36.54,63.89l-5.66-5.66c-.38-.38-1.04-.38-1.41,0l-2.4,2.4c-1.3,1.3-2.87,2.45-4.66,3.41-3.64,1.96-6.97,4.44-9.9,7.38-2.56,2.56-4.8,5.46-6.66,8.63-1.74,2.96-.91,6.67,1.92,8.63,1.06.73,2.31,1.1,3.59,1.1,1.21,0,2.45-.33,3.56-.99,3.07-1.82,5.91-4.02,8.42-6.53,2.92-2.92,5.41-6.26,7.38-9.92.96-1.77,2.1-3.33,3.41-4.64l2.4-2.4c.39-.39.39-1.02,0-1.41ZM32.73,66.3c-1.44,1.44-2.7,3.16-3.75,5.1-1.88,3.49-4.25,6.67-7.04,9.46-2.4,2.4-5.1,4.49-8.03,6.23-1.62.96-3.58.94-4.99-.04-1.96-1.36-2.54-3.93-1.34-5.98,1.77-3.02,3.91-5.78,6.35-8.23,2.79-2.79,5.97-5.16,9.44-7.03,1.96-1.06,3.69-2.33,5.12-3.76l1.7-1.7,4.24,4.24-1.7,1.7ZM14.55,80.23c.39.39.39,1.02,0,1.41l-1.79,1.79c-.2.2-.45.29-.71.29s-.51-.1-.71-.29c-.39-.39-.39-1.02,0-1.41l1.79-1.79c.39-.39,1.02-.39,1.41,0Z"/><path class="cls-4" d="M87.91,19.59l-4.24,4.24c-.2.2-.45.3-.71.3s-.51-.1-.7-.3l-11.31-11.31c-.39-.39-.39-1.02,0-1.41l4.24-4.24c1.17-1.17,3.07-1.17,4.24,0l8.48,8.48c1.17,1.17,1.17,3.07,0,4.24Z"/><path class="cls-4" d="M45.03,64.36l-3.3,3.3c-.57.57-1.32.88-2.12.88s-1.56-.31-2.12-.88l-10.37-10.37c-1.17-1.17-1.17-3.07,0-4.24l3.3-3.3c.37-.37,1.04-.37,1.41,0l13.2,13.2c.39.39.39,1.02,0,1.41Z"/><path class="cls-3" d="M85.79,31.61l-33.93,33.93c-1.56,1.56-4.09,1.56-5.66,0l-16.96-16.96c-1.56-1.57-1.56-4.1,0-5.66l.11-.1L63.17,8.99c1.56-1.56,4.09-1.56,5.66,0l16.86,16.86.1.1c1.56,1.57,1.56,4.1,0,5.66Z"/><path class="cls-5" d="M85.69,25.85l-29.59,29.58c-3.9,3.91-10.23,3.91-14.14,0l-12.61-12.61L63.17,8.99c1.56-1.56,4.09-1.56,5.66,0l16.86,16.86Z"/><path class="cls-2" d="M72.62,44.8c.39.39.39,1.02,0,1.41l-1.28,1.27c-.2.19-.45.29-.7.29s-.51-.1-.71-.3c-.39-.39-.39-1.02,0-1.41l1.28-1.27c.39-.39,1.02-.39,1.41,0ZM90.37,44.46c-3.25-1.1-3.35-1.92-3.48-3.05-.09-.79-.21-1.77-1.08-2.81-1.15-1.35-2.32-1.98-3.32-2.27l4.02-4.02c1.94-1.94,1.94-5.12,0-7.07l-16.96-16.96c-1.96-1.94-5.13-1.94-7.07,0l-3.7,3.7c-.62-.26-1.2-.33-1.7-.39-1.13-.13-1.95-.23-3.05-3.48-.18-.52-.74-.8-1.27-.63-.52.18-.8.75-.63,1.27,1.4,4.12,2.9,4.61,4.71,4.82.1.01.2.03.3.04l-20.57,20.57c-.51-1.01-1.51-2.21-3.5-3.05-1.25-.53-2.22-.34-3-.19-1.12.22-1.92.37-3.95-2.39-.33-.45-.95-.54-1.4-.21-.45.33-.54.95-.21,1.4,2.58,3.51,4.16,3.52,5.95,3.17.65-.12,1.16-.22,1.85.07,2.02.85,2.58,2.12,2.74,2.74l-6.48,6.48c-1.94,1.94-1.95,5.12,0,7.07l16.96,16.96c.98.97,2.26,1.46,3.54,1.46s2.56-.49,3.53-1.46l9.34-9.34c.05.42-.02.8-.11,1.25-.38,1.79-.39,3.36,3.07,6,.18.14.39.2.6.2.3,0,.6-.14.8-.39.33-.44.25-1.07-.19-1.4-2.73-2.08-2.56-2.88-2.33-3.99.16-.78.37-1.75-.14-3.01-.03-.09-.07-.16-.11-.25l5.29-5.29c.39-.39.39-1.02,0-1.41-.39-.39-1.02-.39-1.41,0l-4.93,4.93c-1.62-2.01-3.6-2.08-3.71-2.08-.54-.02-1.01.43-1.01.98,0,.55.43,1.01.99,1.02.01,0,1.25.07,2.31,1.51l-9.87,9.86c-1.17,1.17-3.07,1.17-4.25,0l-16.96-16.96c-1.17-1.18-1.17-3.08,0-4.25l29.04-29.04c1.74,1.74,1.34,3.33,1.31,3.42-.16.52.13,1.08.65,1.24.1.03.2.05.3.05.42,0,.82-.27.95-.7.04-.12.84-2.78-1.81-5.43l3.47-3.47c1.17-1.17,3.07-1.17,4.25,0l16.96,16.96c1.17,1.18,1.17,3.08,0,4.25l-11.34,11.34c-.39.39-.39,1.02,0,1.41s1.02.39,1.41,0l5.52-5.52c.54-.07,2.04-.07,3.6,1.76.49.57.55,1.09.62,1.74.21,1.81.7,3.31,4.82,4.71.11.04.21.05.32.05.42,0,.81-.26.95-.68.18-.52-.1-1.09-.63-1.27ZM58.25,32.68c-1.11.24-1.92.4-3.99-2.33-.33-.44-.96-.53-1.4-.19-.44.33-.52.96-.19,1.4,2.63,3.46,4.21,3.45,6,3.07.64-.14,1.15-.25,1.85.04,2.7,1.08,2.84,2.95,2.85,3.06.02.54.46.97,1,.97h.01c.55,0,.99-.46.99-1.02,0-.13-.1-3.26-4.1-4.87-1.26-.51-2.23-.3-3.01-.14Z"/></svg>