<?xml version="1.0" encoding="UTF-8"?><svg id="Greeny" xmlns="http://www.w3.org/2000/svg" xmlns:xlink="http://www.w3.org/1999/xlink" viewBox="0 0 96 96"><defs><style>.cls-1{fill:none;}.cls-1,.cls-2,.cls-3,.cls-4,.cls-5,.cls-6,.cls-7,.cls-8,.cls-9{stroke-width:0px;}.cls-2{fill:url(#New_Pattern_Swatch_5);}.cls-3{fill:url(#New_Pattern_Swatch_3);}.cls-4{fill:url(#New_Pattern_Swatch_2);}.cls-5{fill:url(#New_Pattern_Swatch_4);}.cls-6{fill:#2faf96;}.cls-7{fill:#1feab0;}.cls-8{fill:#b3ffde;}.cls-9{fill:#008887;}</style><pattern id="New_Pattern_Swatch_4" x="0" y="0" width="39.26" height="39.26" patternTransform="translate(-988 -2188)" patternUnits="userSpaceOnUse" viewBox="0 0 39.26 39.26"><rect class="cls-1" y="0" width="39.26" height="39.26"/><rect class="cls-8" x="0" y="0" width="39.26" height="39.26"/></pattern><pattern id="New_Pattern_Swatch_2" x="0" y="0" width="39.26" height="39.26" patternTransform="translate(-988 -2188)" patternUnits="userSpaceOnUse" viewBox="0 0 39.26 39.26"><rect class="cls-1" x="0" y="0" width="39.26" height="39.26"/><rect class="cls-6" x="0" y="0" width="39.26" height="39.26"/></pattern><pattern id="New_Pattern_Swatch_3" x="0" y="0" width="39.26" height="39.26" patternTransform="translate(-988 -2188)" patternUnits="userSpaceOnUse" viewBox="0 0 39.26 39.26"><rect class="cls-1" x="0" y="0" width="39.26" height="39.26"/><rect class="cls-7" x="0" y="0" width="39.26" height="39.26"/></pattern><pattern id="New_Pattern_Swatch_5" x="0" y="0" width="39.26" height="39.26" patternTransform="translate(-988 -2188)" patternUnits="userSpaceOnUse" viewBox="0 0 39.26 39.26"><rect class="cls-1" x="0" y="0" width="39.26" height="39.26"/><rect class="cls-9" x="0" y="0" width="39.26" height="39.26"/></pattern></defs><polygon class="cls-5" points="82.23 72.77 78.56 77 17.44 77 13.77 72.77 17.44 68.54 78.56 68.54 82.23 72.77"/><path class="cls-4" d="M90.83,44.59v27.18c0,1.11-.9,2-2,2h-5.28c-.55,0-1-.45-1-1v-29.18c0-.56.45-1,1-1h5.28c1.1,0,2,.89,2,2Z"/><path class="cls-4" d="M13.45,43.59v29.18c0,.55-.45,1-1,1h-5.28c-1.1,0-2-.89-2-2v-27.18c0-1.11.9-2,2-2h5.28c.55,0,1,.44,1,1Z"/><path class="cls-3" d="M78.65,38.36h-16.29c-1.61,6.23-3.32,11.71-3.92,13.59h-20.88c-.6-1.88-2.31-7.36-3.92-13.59h-16.29l-4.9,5.23v29.18h1.32l3.67-4.23h61.12l3.67,4.23h1.32v-29.18l-4.9-5.23ZM34.16,47.68c.53,1.81.99,3.29,1.3,4.27h-1.46c-.55,0-1,.45-1,1s.45,1,1,1h28c.55,0,1-.45,1-1s-.45-1-1-1h-1.46c.31-.98.77-2.46,1.3-4.27h5.16c.55,0,1,.45,1,1v8.54c0,.55-.45,1-1,1H29c-.55,0-1-.45-1-1v-8.54c0-.55.45-1,1-1h5.16Z"/><path class="cls-5" d="M78.33,38.36h-15.97c-1.61,6.23-3.32,11.71-3.92,13.59h-20.88c-.6-1.88-2.31-7.36-3.92-13.59h-16.29l-4.9,5.23v19.95h1l55.09.05c5.53,0,10.01-4.48,10.01-10v-15l-.22-.23ZM34.16,47.68c.53,1.81.99,3.29,1.3,4.27h-1.46c-.55,0-1,.45-1,1s.45,1,1,1h28c.55,0,1-.45,1-1s-.45-1-1-1h-1.46c.31-.98.77-2.46,1.3-4.27h5.16c.55,0,1,.45,1,1v8.54c0,.55-.45,1-1,1H29c-.55,0-1-.45-1-1v-8.54c0-.55.45-1,1-1h5.16Z"/><path class="cls-2" d="M84.55,43.59c0-.25-.1-.5-.27-.68l-4.9-5.23c-.19-.21-.45-.32-.73-.32h-2.01c-.55,0-1,.45-1,1s.45,1,1,1h1.58l.33.35,4,4.27v26.11l-2.78-3.2c-.19-.22-.47-.35-.76-.35H16.99c-.29,0-.57.13-.76.35l-2.78,3.2v-26.11l4.33-4.62h14.05c.59,2.27,1.19,4.41,1.74,6.32h-4.57c-1.65,0-3,1.35-3,3v8.54c0,1.65,1.35,3,3,3h38c1.65,0,3-1.35,3-3v-8.54c0-1.65-1.35-3-3-3h-4.57c.55-1.91,1.15-4.05,1.74-6.32h3.47c.55,0,1-.45,1-1s-.45-1-1-1h-2.96c1.48-5.89,2.79-12.27,2.99-16.92.05-1.29-.5-2.48-1.53-3.27-1.03-.78-2.37-1.02-3.61-.64l-3.24,1.02c-1.82.57-3.82.52-5.61-.15l-1.96-.73c-2.4-.89-5.04-.89-7.43,0l-1.97.73c-1.79.67-3.78.72-5.61.15l-3.24-1.02c-1.24-.38-2.58-.14-3.61.64-1.03.79-1.58,1.98-1.53,3.27.2,4.65,1.51,11.03,2.99,16.92h-13.97c-.28,0-.54.11-.73.32l-4.9,5.23c-.17.18-.27.43-.27.68v29.18c0,.24.09.45.23.62.01,0,0,.03.01.04l4.54,5.23c.19.21.47.34.76.34h62.02c.29,0,.57-.13.76-.34l4.42-5.1-.02-.03c.23-.18.38-.45.38-.76v-29.18ZM67,47.68c.55,0,1,.45,1,1v8.54c0,.55-.45,1-1,1H29c-.55,0-1-.45-1-1v-8.54c0-.55.45-1,1-1h5.16c.53,1.81.99,3.29,1.3,4.27h-1.46c-.55,0-1,.45-1,1s.45,1,1,1h28c.55,0,1-.45,1-1s-.45-1-1-1h-1.46c.31-.98.77-2.46,1.3-4.27h5.16ZM30.33,20.35c-.03-.62.25-1.2.75-1.59.52-.4,1.17-.51,1.79-.32l3.25,1.02c2.24.7,4.69.64,6.89-.18l1.98-.74c1.94-.72,4.09-.72,6.03,0l1.96.73c2.21.83,4.66.89,6.91.19l3.24-1.02c.62-.19,1.27-.08,1.79.32.5.39.78.97.75,1.59-.21,4.85-1.71,11.8-3.31,18.01-1.61,6.23-3.32,11.71-3.92,13.59h-20.88c-.6-1.88-2.31-7.36-3.92-13.59-1.6-6.21-3.1-13.16-3.31-18.01ZM78.56,77H17.44l-3.67-4.23,3.67-4.23h61.12l3.67,4.23-3.67,4.23Z"/><path class="cls-2" d="M71.24,39.36h1.8c.55,0,1-.45,1-1s-.45-1-1-1h-1.8c-.55,0-1,.45-1,1s.45,1,1,1Z"/><path class="cls-2" d="M47.73,44.38c.55,0,1-.45,1-1v-16.29c0-.55-.45-1-1-1s-1,.45-1,1v16.29c0,.55.45,1,1,1Z"/><path class="cls-2" d="M54.42,44.37s.09,0,.13,0c.5,0,.93-.37.99-.87l2.09-16.29c.07-.55-.32-1.05-.87-1.12-.55-.07-1.05.32-1.12.86l-2.09,16.29c-.07.55.32,1.05.87,1.12Z"/><path class="cls-2" d="M40.92,44.38s.08,0,.13,0c.55-.07.94-.57.87-1.12l-2.09-16.29c-.07-.55-.57-.94-1.12-.86-.55.07-.94.57-.87,1.12l2.09,16.29c.07.5.5.87.99.87Z"/></svg>