<?xml version="1.0" encoding="UTF-8"?><svg id="Greeny" xmlns="http://www.w3.org/2000/svg" xmlns:xlink="http://www.w3.org/1999/xlink" viewBox="0 0 96 96"><defs><style>.cls-1{fill:none;}.cls-1,.cls-2,.cls-3,.cls-4,.cls-5,.cls-6,.cls-7,.cls-8,.cls-9{stroke-width:0px;}.cls-2{fill:url(#New_Pattern_Swatch_5);}.cls-3{fill:url(#New_Pattern_Swatch_3);}.cls-4{fill:url(#New_Pattern_Swatch_2);}.cls-5{fill:url(#New_Pattern_Swatch_4);}.cls-6{fill:#2faf96;}.cls-7{fill:#1feab0;}.cls-8{fill:#b3ffde;}.cls-9{fill:#008887;}</style><pattern id="New_Pattern_Swatch_5" x="0" y="0" width="39.26" height="39.26" patternTransform="translate(-204 -2384)" patternUnits="userSpaceOnUse" viewBox="0 0 39.26 39.26"><rect class="cls-1" x="0" y="0" width="39.26" height="39.26"/><rect class="cls-9" x="0" y="0" width="39.26" height="39.26"/></pattern><pattern id="New_Pattern_Swatch_2" x="0" y="0" width="39.26" height="39.26" patternTransform="translate(-204 -2384)" patternUnits="userSpaceOnUse" viewBox="0 0 39.26 39.26"><rect class="cls-1" x="0" y="0" width="39.26" height="39.26"/><rect class="cls-6" x="0" y="0" width="39.26" height="39.26"/></pattern><pattern id="New_Pattern_Swatch_3" x="0" y="0" width="39.26" height="39.26" patternTransform="translate(-204 -2384)" patternUnits="userSpaceOnUse" viewBox="0 0 39.26 39.26"><rect class="cls-1" x="0" y="0" width="39.26" height="39.26"/><rect class="cls-7" x="0" y="0" width="39.26" height="39.26"/></pattern><pattern id="New_Pattern_Swatch_4" x="0" y="0" width="39.26" height="39.26" patternTransform="translate(-204 -2384)" patternUnits="userSpaceOnUse" viewBox="0 0 39.26 39.26"><rect class="cls-1" y="0" width="39.26" height="39.26"/><rect class="cls-8" x="0" y="0" width="39.26" height="39.26"/></pattern></defs><path class="cls-2" d="M73.42,32.97c-.49,0-.92-.36-.99-.86-.02-.16-.53-3.94,1.73-6.55,1.34-1.54,3.32-2.33,5.89-2.33,6.85,0,8.89-7.76,8.98-8.09.14-.54.68-.86,1.21-.72.54.13.86.68.73,1.21-.02.1-2.5,9.6-10.92,9.6-1.96,0-3.43.55-4.38,1.63-1.66,1.91-1.27,4.94-1.27,4.97.08.55-.31,1.05-.85,1.13-.05,0-.09.01-.14.01Z"/><path class="cls-4" d="M77.74,32.97v6.74c0,.55-.45,1-1,1h-6.63c-.56,0-1-.45-1-1v-6.74c0-1.1.89-2,2-2h4.63c1.1,0,2,.9,2,2Z"/><path class="cls-3" d="M86.29,56.69c-.9-1.65-1.83-3.61-2.66-5.87-.5-1.38-.97-2.88-1.37-4.48-.41-1.66-.7-3.24-.89-4.71-.15-1.1-1.08-1.92-2.19-1.92h-23.76c-.13,0-.25,0-.38.01-1.28,0-2.54.07-3.8.18-.54.05-1.07.11-1.61.18-13.35,1.72-25.37,9.33-32.62,20.92l-5.67,9.08-3.13,5h69.63c.43-2.95,1.49-7.47,4.42-12.16,1.26-2.01,2.61-3.65,3.86-4.95.33-.35.4-.85.17-1.28ZM40.16,65.24v-3.63c0-.56.45-1,1-1h9.26c.55,0,1,.44,1,1v3.63h-11.26ZM65.52,54.12c.42,1.15.27,2.45-.44,3.58-.64,1.03-1.25,2.1-1.8,3.18-1.36,2.69-4.01,4.36-6.9,4.36h-2.96v-3.63c0-1.66-1.34-3-3-3h-9.26c-1.66,0-3,1.34-3,3v3.63h-12.17c6.59-9.85,17.51-15.69,29.42-15.69h3.75c2.82,0,5.36,1.81,6.36,4.57Z"/><path class="cls-5" d="M82.26,46.34c-.41-1.66-.7-3.24-.89-4.71-.15-1.1-1.08-1.92-2.19-1.92h-23.76c-.13,0-.25,0-.38.01-1.28,0-2.54.07-3.8.18-.54.05-1.07.11-1.61.18-13.35,1.72-25.37,9.33-32.62,20.92l-5.67,9.08h53.78c4.15,0,7.92-2.54,9.34-6.44.67-1.81,1.57-3.75,2.8-5.72,1.26-2.01,2.61-3.65,3.86-4.95.12-.12.84-.72,1.71-1.47.26-.21.53-.44.8-.68-.5-1.38-.97-2.88-1.37-4.48ZM65.08,57.7c-.64,1.03-1.25,2.1-1.8,3.18-1.36,2.69-4.01,4.36-6.9,4.36h-2.96v-3.63c0-1.66-1.34-3-3-3h-9.26c-1.66,0-3,1.34-3,3v3.63h-12.17c6.59-9.85,17.51-15.69,29.42-15.69h3.75c2.82,0,5.36,1.81,6.36,4.57.42,1.15.27,2.45-.44,3.58ZM40.16,65.24v-3.63c0-.56.45-1,1-1h9.26c.55,0,1,.44,1,1v3.63h-11.26Z"/><path class="cls-2" d="M87.17,56.21c-1.74-3.2-3.06-6.6-3.94-10.11-.38-1.55-.67-3.1-.87-4.61-.22-1.58-1.58-2.78-3.18-2.78h-21.54c-.55,0-1,.45-1,1s.45,1,1,1h21.54c.61,0,1.12.44,1.2,1.05.2,1.57.51,3.2.91,4.82.42,1.67.93,3.31,1.54,4.92.72,1.94,1.59,3.83,2.58,5.66.02.05.02.08,0,.12-1.49,1.55-2.83,3.27-3.99,5.11-2.21,3.55-3.7,7.48-4.42,11.69H10.01l2.5-4,5.35-8.55c6.87-10.98,18.14-18.39,30.93-20.32.55-.08.92-.58.84-1.13h0c-.08-.56-.6-.93-1.14-.85-13.36,2.02-25.15,9.76-32.33,21.24l-8.8,14.08c-.19.31-.2.7-.02,1.01.17.32.51.52.87.52h69.63c.5,0,.92-.36.99-.86.62-4.26,2.06-8.22,4.28-11.77,1.08-1.73,2.34-3.34,3.74-4.79.63-.67.76-1.63.32-2.45ZM54.01,38.73c-.61.02-1.24.05-1.84.09-.55.04-.96.52-.93,1.07h0c.05.54.48.93,1,.93h.07c.58-.04,1.17-.07,1.76-.09.55-.02.98-.47.97-1.01v-.02c-.02-.55-.47-.99-1.03-.97ZM67.37,53.36c-1.26-3.47-4.56-5.81-8.21-5.81h-3.75c-13,0-24.87,6.58-31.75,17.61l-.34.55c-.2.31-.21.69-.03,1.01s.51.52.87.52h32.22c3.65,0,6.98-2.09,8.68-5.45.53-1.04,1.1-2.05,1.73-3.05,1.02-1.63,1.24-3.57.58-5.38ZM51.42,65.24h-11.26v-3.63c0-.56.45-1,1-1h9.26c.55,0,1,.44,1,1v3.63ZM65.08,57.7c-.64,1.03-1.25,2.1-1.8,3.18-1.36,2.69-4.01,4.36-6.9,4.36h-2.96v-3.63c0-1.66-1.34-3-3-3h-9.26c-1.66,0-3,1.34-3,3v3.63h-12.17c6.59-9.85,17.51-15.69,29.42-15.69h3.75c2.82,0,5.36,1.81,6.36,4.57.42,1.15.27,2.45-.44,3.58Z"/><path class="cls-4" d="M84.37,77.08v1.53c0,1.65-1.35,3-3,3H8c-1.65,0-3-1.35-3-3v-1.53c0-1.66,1.35-3,3-3h73.37c1.65,0,3,1.34,3,3Z"/></svg>