<?xml version="1.0" encoding="UTF-8"?><svg id="Greeny" xmlns="http://www.w3.org/2000/svg" xmlns:xlink="http://www.w3.org/1999/xlink" viewBox="0 0 96 96"><defs><style>.cls-1{fill:none;}.cls-1,.cls-2,.cls-3,.cls-4,.cls-5,.cls-6,.cls-7,.cls-8,.cls-9{stroke-width:0px;}.cls-2{fill:url(#New_Pattern_Swatch_5);}.cls-3{fill:url(#New_Pattern_Swatch_3);}.cls-4{fill:url(#New_Pattern_Swatch_2);}.cls-5{fill:url(#New_Pattern_Swatch_4);}.cls-6{fill:#2faf96;}.cls-7{fill:#1feab0;}.cls-8{fill:#b3ffde;}.cls-9{fill:#008887;}</style><pattern id="New_Pattern_Swatch_3" x="0" y="0" width="39.26" height="39.26" patternTransform="translate(-400 -2384)" patternUnits="userSpaceOnUse" viewBox="0 0 39.26 39.26"><rect class="cls-1" x="0" y="0" width="39.26" height="39.26"/><rect class="cls-7" x="0" y="0" width="39.26" height="39.26"/></pattern><pattern id="New_Pattern_Swatch_4" x="0" y="0" width="39.26" height="39.26" patternTransform="translate(-400 -2384)" patternUnits="userSpaceOnUse" viewBox="0 0 39.26 39.26"><rect class="cls-1" y="0" width="39.26" height="39.26"/><rect class="cls-8" x="0" y="0" width="39.26" height="39.26"/></pattern><pattern id="New_Pattern_Swatch_5" x="0" y="0" width="39.26" height="39.26" patternTransform="translate(-400 -2384)" patternUnits="userSpaceOnUse" viewBox="0 0 39.26 39.26"><rect class="cls-1" x="0" y="0" width="39.26" height="39.26"/><rect class="cls-9" x="0" y="0" width="39.26" height="39.26"/></pattern><pattern id="New_Pattern_Swatch_2" x="0" y="0" width="39.26" height="39.26" patternTransform="translate(-400 -2384)" patternUnits="userSpaceOnUse" viewBox="0 0 39.26 39.26"><rect class="cls-1" x="0" y="0" width="39.26" height="39.26"/><rect class="cls-6" x="0" y="0" width="39.26" height="39.26"/></pattern></defs><path class="cls-3" d="M63.7,25.93l-6.75,6.75c-.19.19-.45.29-.71.29s-.51-.1-.7-.29c-.39-.39-.39-1.03,0-1.42l6.75-6.75c.39-.39,1.02-.39,1.41,0s.39,1.03,0,1.42Z"/><path class="cls-3" d="M69.1,27.21c.39.39.39,1.03,0,1.42l-9.45,9.45c-.19.19-.45.29-.71.29s-.51-.1-.7-.29c-.39-.39-.39-1.03,0-1.42l9.45-9.45c.39-.39,1.02-.39,1.41,0Z"/><path class="cls-3" d="M35.12,25.65l-1.11-.61c-.72-.39-1.31-.99-1.71-1.71l-.6-1.1c-.18-.33-.52-.53-.88-.53s-.7.2-.88.52l-.6,1.11c-.4.72-.99,1.32-1.72,1.71l-1.1.61c-.32.17-.52.51-.52.87s.2.71.52.88l1.1.6c.73.4,1.32.99,1.72,1.72l.6,1.1c.18.32.51.52.88.52s.7-.2.88-.52l.6-1.1c.4-.73.99-1.32,1.71-1.72l1.11-.6c.32-.17.52-.51.52-.88s-.2-.7-.52-.87ZM30.82,28.3c-.47-.7-1.07-1.31-1.78-1.78.71-.47,1.31-1.07,1.78-1.78.47.71,1.07,1.31,1.78,1.78-.71.47-1.31,1.08-1.78,1.78ZM40.84,35.19l-1.1-.6c-.72-.4-1.32-.99-1.71-1.72l-.61-1.1c-.35-.64-1.4-.64-1.75,0l-.61,1.1c-.39.73-.98,1.32-1.71,1.72l-1.1.6c-.32.18-.52.51-.52.88s.2.7.52.88l1.1.6c.73.4,1.32.99,1.71,1.71l.61,1.11c.17.32.51.52.88.52s.7-.2.87-.52l.61-1.11c.39-.72.99-1.31,1.71-1.71l1.1-.6c.32-.18.52-.52.52-.88s-.2-.7-.52-.88ZM36.55,37.85c-.47-.71-1.08-1.31-1.78-1.78.7-.47,1.31-1.07,1.78-1.78.46.71,1.07,1.31,1.78,1.78-.71.47-1.32,1.07-1.78,1.78ZM40.84,35.19l-1.1-.6c-.72-.4-1.32-.99-1.71-1.72l-.61-1.1c-.35-.64-1.4-.64-1.75,0l-.61,1.1c-.39.73-.98,1.32-1.71,1.72l-1.1.6c-.32.18-.52.51-.52.88s.2.7.52.88l1.1.6c.73.4,1.32.99,1.71,1.71l.61,1.11c.17.32.51.52.88.52s.7-.2.87-.52l.61-1.11c.39-.72.99-1.31,1.71-1.71l1.1-.6c.32-.18.52-.52.52-.88s-.2-.7-.52-.88ZM36.55,37.85c-.47-.71-1.08-1.31-1.78-1.78.7-.47,1.31-1.07,1.78-1.78.46.71,1.07,1.31,1.78,1.78-.71.47-1.32,1.07-1.78,1.78ZM35.12,25.65l-1.11-.61c-.72-.39-1.31-.99-1.71-1.71l-.6-1.1c-.18-.33-.52-.53-.88-.53s-.7.2-.88.52l-.6,1.11c-.4.72-.99,1.32-1.72,1.71l-1.1.61c-.32.17-.52.51-.52.87s.2.71.52.88l1.1.6c.73.4,1.32.99,1.72,1.72l.6,1.1c.18.32.51.52.88.52s.7-.2.88-.52l.6-1.1c.4-.73.99-1.32,1.71-1.72l1.11-.6c.32-.17.52-.51.52-.88s-.2-.7-.52-.87ZM30.82,28.3c-.47-.7-1.07-1.31-1.78-1.78.71-.47,1.31-1.07,1.78-1.78.47.71,1.07,1.31,1.78,1.78-.71.47-1.31,1.08-1.78,1.78ZM34.59,57.92c-.39-.39-1.03-.39-1.42,0l-6.75,6.75c-.39.39-.39,1.03,0,1.42.2.19.45.29.71.29s.51-.1.71-.29l6.75-6.75c.39-.39.39-1.03,0-1.42ZM35.12,25.65l-1.11-.61c-.72-.39-1.31-.99-1.71-1.71l-.6-1.1c-.18-.33-.52-.53-.88-.53s-.7.2-.88.52l-.6,1.11c-.4.72-.99,1.32-1.72,1.71l-1.1.61c-.32.17-.52.51-.52.87s.2.71.52.88l1.1.6c.73.4,1.32.99,1.72,1.72l.6,1.1c.18.32.51.52.88.52s.7-.2.88-.52l.6-1.1c.4-.73.99-1.32,1.71-1.72l1.11-.6c.32-.17.52-.51.52-.88s-.2-.7-.52-.87ZM30.82,28.3c-.47-.7-1.07-1.31-1.78-1.78.71-.47,1.31-1.07,1.78-1.78.47.71,1.07,1.31,1.78,1.78-.71.47-1.31,1.08-1.78,1.78ZM39.99,60.62c-.39-.39-1.03-.39-1.42,0l-9.45,9.45c-.39.39-.39,1.03,0,1.42.2.19.45.29.71.29s.51-.1.71-.29l9.45-9.45c.39-.39.39-1.03,0-1.42ZM40.84,35.19l-1.1-.6c-.72-.4-1.32-.99-1.71-1.72l-.61-1.1c-.35-.64-1.4-.64-1.75,0l-.61,1.1c-.39.73-.98,1.32-1.71,1.72l-1.1.6c-.32.18-.52.51-.52.88s.2.7.52.88l1.1.6c.73.4,1.32.99,1.71,1.71l.61,1.11c.17.32.51.52.88.52s.7-.2.87-.52l.61-1.11c.39-.72.99-1.31,1.71-1.71l1.1-.6c.32-.18.52-.52.52-.88s-.2-.7-.52-.88ZM36.55,37.85c-.47-.71-1.08-1.31-1.78-1.78.7-.47,1.31-1.07,1.78-1.78.46.71,1.07,1.31,1.78,1.78-.71.47-1.32,1.07-1.78,1.78ZM40.84,35.19l-1.1-.6c-.72-.4-1.32-.99-1.71-1.72l-.61-1.1c-.35-.64-1.4-.64-1.75,0l-.61,1.1c-.39.73-.98,1.32-1.71,1.72l-1.1.6c-.32.18-.52.51-.52.88s.2.7.52.88l1.1.6c.73.4,1.32.99,1.71,1.71l.61,1.11c.17.32.51.52.88.52s.7-.2.87-.52l.61-1.11c.39-.72.99-1.31,1.71-1.71l1.1-.6c.32-.18.52-.52.52-.88s-.2-.7-.52-.88ZM36.55,37.85c-.47-.71-1.08-1.31-1.78-1.78.7-.47,1.31-1.07,1.78-1.78.46.71,1.07,1.31,1.78,1.78-.71.47-1.32,1.07-1.78,1.78ZM35.12,25.65l-1.11-.61c-.72-.39-1.31-.99-1.71-1.71l-.6-1.1c-.18-.33-.52-.53-.88-.53s-.7.2-.88.52l-.6,1.11c-.4.72-.99,1.32-1.72,1.71l-1.1.61c-.32.17-.52.51-.52.87s.2.71.52.88l1.1.6c.73.4,1.32.99,1.72,1.72l.6,1.1c.18.32.51.52.88.52s.7-.2.88-.52l.6-1.1c.4-.73.99-1.32,1.71-1.72l1.11-.6c.32-.17.52-.51.52-.88s-.2-.7-.52-.87ZM30.82,28.3c-.47-.7-1.07-1.31-1.78-1.78.71-.47,1.31-1.07,1.78-1.78.47.71,1.07,1.31,1.78,1.78-.71.47-1.31,1.08-1.78,1.78ZM39.99,60.62c-.39-.39-1.03-.39-1.42,0l-9.45,9.45c-.39.39-.39,1.03,0,1.42.2.19.45.29.71.29s.51-.1.71-.29l9.45-9.45c.39-.39.39-1.03,0-1.42ZM34.59,57.92c-.39-.39-1.03-.39-1.42,0l-6.75,6.75c-.39.39-.39,1.03,0,1.42.2.19.45.29.71.29s.51-.1.71-.29l6.75-6.75c.39-.39.39-1.03,0-1.42ZM34.59,57.92c-.39-.39-1.03-.39-1.42,0l-6.75,6.75c-.39.39-.39,1.03,0,1.42.2.19.45.29.71.29s.51-.1.71-.29l6.75-6.75c.39-.39.39-1.03,0-1.42ZM35.12,25.65l-1.11-.61c-.72-.39-1.31-.99-1.71-1.71l-.6-1.1c-.18-.33-.52-.53-.88-.53s-.7.2-.88.52l-.6,1.11c-.4.72-.99,1.32-1.72,1.71l-1.1.61c-.32.17-.52.51-.52.87s.2.71.52.88l1.1.6c.73.4,1.32.99,1.72,1.72l.6,1.1c.18.32.51.52.88.52s.7-.2.88-.52l.6-1.1c.4-.73.99-1.32,1.71-1.72l1.11-.6c.32-.17.52-.51.52-.88s-.2-.7-.52-.87ZM30.82,28.3c-.47-.7-1.07-1.31-1.78-1.78.71-.47,1.31-1.07,1.78-1.78.47.71,1.07,1.31,1.78,1.78-.71.47-1.31,1.08-1.78,1.78ZM39.99,60.62c-.39-.39-1.03-.39-1.42,0l-9.45,9.45c-.39.39-.39,1.03,0,1.42.2.19.45.29.71.29s.51-.1.71-.29l9.45-9.45c.39-.39.39-1.03,0-1.42ZM40.84,35.19l-1.1-.6c-.72-.4-1.32-.99-1.71-1.72l-.61-1.1c-.35-.64-1.4-.64-1.75,0l-.61,1.1c-.39.73-.98,1.32-1.71,1.72l-1.1.6c-.32.18-.52.51-.52.88s.2.7.52.88l1.1.6c.73.4,1.32.99,1.71,1.71l.61,1.11c.17.32.51.52.88.52s.7-.2.87-.52l.61-1.11c.39-.72.99-1.31,1.71-1.71l1.1-.6c.32-.18.52-.52.52-.88s-.2-.7-.52-.88ZM36.55,37.85c-.47-.71-1.08-1.31-1.78-1.78.7-.47,1.31-1.07,1.78-1.78.46.71,1.07,1.31,1.78,1.78-.71.47-1.32,1.07-1.78,1.78ZM64.23,59.05l-1.1-.6c-.73-.4-1.32-.99-1.72-1.71l-.6-1.11c-.35-.64-1.41-.64-1.76,0l-.6,1.11c-.4.72-.99,1.31-1.71,1.71l-1.11.6c-.32.18-.52.52-.52.88s.2.7.52.88l1.11.6c.72.4,1.31.99,1.71,1.72l.6,1.1c.18.32.52.52.88.52s.7-.2.88-.52l.6-1.1c.4-.73.99-1.32,1.72-1.72l1.1-.6c.32-.18.52-.51.52-.88s-.2-.7-.52-.88ZM59.93,61.71c-.47-.71-1.07-1.31-1.78-1.78.71-.47,1.31-1.07,1.78-1.78.47.71,1.07,1.31,1.78,1.78-.71.47-1.31,1.07-1.78,1.78ZM69.96,68.6l-1.11-.6c-.72-.4-1.31-.99-1.71-1.72l-.6-1.1c-.18-.32-.52-.52-.88-.52s-.7.2-.88.52l-.6,1.1c-.4.73-.99,1.32-1.72,1.72l-1.1.6c-.32.18-.52.51-.52.88s.2.7.52.88l1.1.6c.73.39,1.32.99,1.72,1.71l.6,1.11c.18.32.51.52.88.52s.7-.2.88-.52l.6-1.11c.4-.72.99-1.32,1.71-1.71l1.11-.61c.32-.17.52-.51.52-.87s-.2-.7-.52-.88ZM65.66,71.26c-.47-.71-1.07-1.31-1.78-1.78.71-.47,1.31-1.07,1.78-1.78.47.71,1.07,1.31,1.78,1.78-.71.47-1.31,1.07-1.78,1.78ZM40.84,35.19l-1.1-.6c-.72-.4-1.32-.99-1.71-1.72l-.61-1.1c-.35-.64-1.4-.64-1.75,0l-.61,1.1c-.39.73-.98,1.32-1.71,1.72l-1.1.6c-.32.18-.52.51-.52.88s.2.7.52.88l1.1.6c.73.4,1.32.99,1.71,1.71l.61,1.11c.17.32.51.52.88.52s.7-.2.87-.52l.61-1.11c.39-.72.99-1.31,1.71-1.71l1.1-.6c.32-.18.52-.52.52-.88s-.2-.7-.52-.88ZM36.55,37.85c-.47-.71-1.08-1.31-1.78-1.78.7-.47,1.31-1.07,1.78-1.78.46.71,1.07,1.31,1.78,1.78-.71.47-1.32,1.07-1.78,1.78ZM34.01,28l1.11-.6c.32-.17.52-.51.52-.88s-.2-.7-.52-.87l-1.11-.61c-.72-.39-1.31-.99-1.71-1.71l-.6-1.1c-.18-.33-.52-.53-.88-.53s-.7.2-.88.52l-.6,1.11c-.4.72-.99,1.32-1.72,1.71l-1.1.61c-.32.17-.52.51-.52.87s.2.71.52.88l1.1.6c.73.4,1.32.99,1.72,1.72l.6,1.1c.18.32.51.52.88.52s.7-.2.88-.52l.6-1.1c.4-.73.99-1.32,1.71-1.72ZM30.82,28.3c-.47-.7-1.07-1.31-1.78-1.78.71-.47,1.31-1.07,1.78-1.78.47.71,1.07,1.31,1.78,1.78-.71.47-1.31,1.08-1.78,1.78ZM39.99,60.62c-.39-.39-1.03-.39-1.42,0l-9.45,9.45c-.39.39-.39,1.03,0,1.42.2.19.45.29.71.29s.51-.1.71-.29l9.45-9.45c.39-.39.39-1.03,0-1.42ZM34.59,57.92c-.39-.39-1.03-.39-1.42,0l-6.75,6.75c-.39.39-.39,1.03,0,1.42.2.19.45.29.71.29s.51-.1.71-.29l6.75-6.75c.39-.39.39-1.03,0-1.42ZM69.96,68.6l-1.11-.6c-.72-.4-1.31-.99-1.71-1.72l-.6-1.1c-.18-.32-.52-.52-.88-.52s-.7.2-.88.52l-.6,1.1c-.4.73-.99,1.32-1.72,1.72l-1.1.6c-.32.18-.52.51-.52.88s.2.7.52.88l1.1.6c.73.39,1.32.99,1.72,1.71l.6,1.11c.18.32.51.52.88.52s.7-.2.88-.52l.6-1.11c.4-.72.99-1.32,1.71-1.71l1.11-.61c.32-.17.52-.51.52-.87s-.2-.7-.52-.88ZM65.66,71.26c-.47-.71-1.07-1.31-1.78-1.78.71-.47,1.31-1.07,1.78-1.78.47.71,1.07,1.31,1.78,1.78-.71.47-1.31,1.07-1.78,1.78ZM63.13,61.41l1.1-.6c.32-.18.52-.51.52-.88s-.2-.7-.52-.88l-1.1-.6c-.73-.4-1.32-.99-1.72-1.71l-.6-1.11c-.35-.64-1.41-.64-1.76,0l-.6,1.11c-.4.72-.99,1.31-1.71,1.71l-1.11.6c-.32.18-.52.52-.52.88s.2.7.52.88l1.11.6c.72.4,1.31.99,1.71,1.72l.6,1.1c.18.32.52.52.88.52s.7-.2.88-.52l.6-1.1c.4-.73.99-1.32,1.72-1.72ZM59.93,61.71c-.47-.71-1.07-1.31-1.78-1.78.71-.47,1.31-1.07,1.78-1.78.47.71,1.07,1.31,1.78,1.78-.71.47-1.31,1.07-1.78,1.78ZM16.5,11.73v72.54h63V11.73H16.5ZM51.86,44.14v-25.69h20.91v25.69h-20.91ZM52.82,51.86h19.95v25.69h-19.95v-25.69ZM43.18,51.86v25.69h-19.95v-25.69h19.95ZM44.14,44.14h-20.91v-25.69h20.91v25.69ZM69.96,68.6l-1.11-.6c-.72-.4-1.31-.99-1.71-1.72l-.6-1.1c-.18-.32-.52-.52-.88-.52s-.7.2-.88.52l-.6,1.1c-.4.73-.99,1.32-1.72,1.72l-1.1.6c-.32.18-.52.51-.52.88s.2.7.52.88l1.1.6c.73.39,1.32.99,1.72,1.71l.6,1.11c.18.32.51.52.88.52s.7-.2.88-.52l.6-1.11c.4-.72.99-1.32,1.71-1.71l1.11-.61c.32-.17.52-.51.52-.87s-.2-.7-.52-.88ZM65.66,71.26c-.47-.71-1.07-1.31-1.78-1.78.71-.47,1.31-1.07,1.78-1.78.47.71,1.07,1.31,1.78,1.78-.71.47-1.31,1.07-1.78,1.78ZM63.13,61.41l1.1-.6c.32-.18.52-.51.52-.88s-.2-.7-.52-.88l-1.1-.6c-.73-.4-1.32-.99-1.72-1.71l-.6-1.11c-.35-.64-1.41-.64-1.76,0l-.6,1.11c-.4.72-.99,1.31-1.71,1.71l-1.11.6c-.32.18-.52.52-.52.88s.2.7.52.88l1.11.6c.72.4,1.31.99,1.71,1.72l.6,1.1c.18.32.52.52.88.52s.7-.2.88-.52l.6-1.1c.4-.73.99-1.32,1.72-1.72ZM59.93,61.71c-.47-.71-1.07-1.31-1.78-1.78.71-.47,1.31-1.07,1.78-1.78.47.71,1.07,1.31,1.78,1.78-.71.47-1.31,1.07-1.78,1.78ZM33.35,34.59l-1.1.6c-.32.18-.52.51-.52.88s.2.7.52.88l1.1.6c.73.4,1.32.99,1.71,1.71l.61,1.11c.17.32.51.52.88.52s.7-.2.87-.52l.61-1.11c.39-.72.99-1.31,1.71-1.71l1.1-.6c.32-.18.52-.52.52-.88s-.2-.7-.52-.88l-1.1-.6c-.72-.4-1.32-.99-1.71-1.72l-.61-1.1c-.35-.64-1.4-.64-1.75,0l-.61,1.1c-.39.73-.98,1.32-1.71,1.72ZM36.55,34.29c.46.71,1.07,1.31,1.78,1.78-.71.47-1.32,1.07-1.78,1.78-.47-.71-1.08-1.31-1.78-1.78.7-.47,1.31-1.07,1.78-1.78ZM29.12,71.49c.2.19.45.29.71.29s.51-.1.71-.29l9.45-9.45c.39-.39.39-1.03,0-1.42-.39-.39-1.03-.39-1.42,0l-9.45,9.45c-.39.39-.39,1.03,0,1.42ZM26.52,27.4l1.1.6c.73.4,1.32.99,1.72,1.72l.6,1.1c.18.32.51.52.88.52s.7-.2.88-.52l.6-1.1c.4-.73.99-1.32,1.71-1.72l1.11-.6c.32-.17.52-.51.52-.88s-.2-.7-.52-.87l-1.11-.61c-.72-.39-1.31-.99-1.71-1.71l-.6-1.1c-.18-.33-.52-.53-.88-.53s-.7.2-.88.52l-.6,1.11c-.4.72-.99,1.32-1.72,1.71l-1.1.61c-.32.17-.52.51-.52.87s.2.71.52.88ZM30.82,24.74c.47.71,1.07,1.31,1.78,1.78-.71.47-1.31,1.08-1.78,1.78-.47-.7-1.07-1.31-1.78-1.78.71-.47,1.31-1.07,1.78-1.78ZM27.13,66.38c.26,0,.51-.1.71-.29l6.75-6.75c.39-.39.39-1.03,0-1.42-.39-.39-1.03-.39-1.42,0l-6.75,6.75c-.39.39-.39,1.03,0,1.42.2.19.45.29.71.29ZM34.59,57.92c-.39-.39-1.03-.39-1.42,0l-6.75,6.75c-.39.39-.39,1.03,0,1.42.2.19.45.29.71.29s.51-.1.71-.29l6.75-6.75c.39-.39.39-1.03,0-1.42ZM39.99,60.62c-.39-.39-1.03-.39-1.42,0l-9.45,9.45c-.39.39-.39,1.03,0,1.42.2.19.45.29.71.29s.51-.1.71-.29l9.45-9.45c.39-.39.39-1.03,0-1.42ZM35.12,25.65l-1.11-.61c-.72-.39-1.31-.99-1.71-1.71l-.6-1.1c-.18-.33-.52-.53-.88-.53s-.7.2-.88.52l-.6,1.11c-.4.72-.99,1.32-1.72,1.71l-1.1.61c-.32.17-.52.51-.52.87s.2.71.52.88l1.1.6c.73.4,1.32.99,1.72,1.72l.6,1.1c.18.32.51.52.88.52s.7-.2.88-.52l.6-1.1c.4-.73.99-1.32,1.71-1.72l1.11-.6c.32-.17.52-.51.52-.88s-.2-.7-.52-.87ZM30.82,28.3c-.47-.7-1.07-1.31-1.78-1.78.71-.47,1.31-1.07,1.78-1.78.47.71,1.07,1.31,1.78,1.78-.71.47-1.31,1.08-1.78,1.78ZM40.84,35.19l-1.1-.6c-.72-.4-1.32-.99-1.71-1.72l-.61-1.1c-.35-.64-1.4-.64-1.75,0l-.61,1.1c-.39.73-.98,1.32-1.71,1.72l-1.1.6c-.32.18-.52.51-.52.88s.2.7.52.88l1.1.6c.73.4,1.32.99,1.71,1.71l.61,1.11c.17.32.51.52.88.52s.7-.2.87-.52l.61-1.11c.39-.72.99-1.31,1.71-1.71l1.1-.6c.32-.18.52-.52.52-.88s-.2-.7-.52-.88ZM36.55,37.85c-.47-.71-1.08-1.31-1.78-1.78.7-.47,1.31-1.07,1.78-1.78.46.71,1.07,1.31,1.78,1.78-.71.47-1.32,1.07-1.78,1.78ZM40.84,35.19l-1.1-.6c-.72-.4-1.32-.99-1.71-1.72l-.61-1.1c-.35-.64-1.4-.64-1.75,0l-.61,1.1c-.39.73-.98,1.32-1.71,1.72l-1.1.6c-.32.18-.52.51-.52.88s.2.7.52.88l1.1.6c.73.4,1.32.99,1.71,1.71l.61,1.11c.17.32.51.52.88.52s.7-.2.87-.52l.61-1.11c.39-.72.99-1.31,1.71-1.71l1.1-.6c.32-.18.52-.52.52-.88s-.2-.7-.52-.88ZM36.55,37.85c-.47-.71-1.08-1.31-1.78-1.78.7-.47,1.31-1.07,1.78-1.78.46.71,1.07,1.31,1.78,1.78-.71.47-1.32,1.07-1.78,1.78ZM39.99,60.62c-.39-.39-1.03-.39-1.42,0l-9.45,9.45c-.39.39-.39,1.03,0,1.42.2.19.45.29.71.29s.51-.1.71-.29l9.45-9.45c.39-.39.39-1.03,0-1.42ZM35.12,25.65l-1.11-.61c-.72-.39-1.31-.99-1.71-1.71l-.6-1.1c-.18-.33-.52-.53-.88-.53s-.7.2-.88.52l-.6,1.11c-.4.72-.99,1.32-1.72,1.71l-1.1.61c-.32.17-.52.51-.52.87s.2.71.52.88l1.1.6c.73.4,1.32.99,1.72,1.72l.6,1.1c.18.32.51.52.88.52s.7-.2.88-.52l.6-1.1c.4-.73.99-1.32,1.71-1.72l1.11-.6c.32-.17.52-.51.52-.88s-.2-.7-.52-.87ZM30.82,28.3c-.47-.7-1.07-1.31-1.78-1.78.71-.47,1.31-1.07,1.78-1.78.47.71,1.07,1.31,1.78,1.78-.71.47-1.31,1.08-1.78,1.78ZM34.59,57.92c-.39-.39-1.03-.39-1.42,0l-6.75,6.75c-.39.39-.39,1.03,0,1.42.2.19.45.29.71.29s.51-.1.71-.29l6.75-6.75c.39-.39.39-1.03,0-1.42ZM35.12,25.65l-1.11-.61c-.72-.39-1.31-.99-1.71-1.71l-.6-1.1c-.18-.33-.52-.53-.88-.53s-.7.2-.88.52l-.6,1.11c-.4.72-.99,1.32-1.72,1.71l-1.1.61c-.32.17-.52.51-.52.87s.2.71.52.88l1.1.6c.73.4,1.32.99,1.72,1.72l.6,1.1c.18.32.51.52.88.52s.7-.2.88-.52l.6-1.1c.4-.73.99-1.32,1.71-1.72l1.11-.6c.32-.17.52-.51.52-.88s-.2-.7-.52-.87ZM30.82,28.3c-.47-.7-1.07-1.31-1.78-1.78.71-.47,1.31-1.07,1.78-1.78.47.71,1.07,1.31,1.78,1.78-.71.47-1.31,1.08-1.78,1.78ZM40.84,35.19l-1.1-.6c-.72-.4-1.32-.99-1.71-1.72l-.61-1.1c-.35-.64-1.4-.64-1.75,0l-.61,1.1c-.39.73-.98,1.32-1.71,1.72l-1.1.6c-.32.18-.52.51-.52.88s.2.7.52.88l1.1.6c.73.4,1.32.99,1.71,1.71l.61,1.11c.17.32.51.52.88.52s.7-.2.87-.52l.61-1.11c.39-.72.99-1.31,1.71-1.71l1.1-.6c.32-.18.52-.52.52-.88s-.2-.7-.52-.88ZM36.55,37.85c-.47-.71-1.08-1.31-1.78-1.78.7-.47,1.31-1.07,1.78-1.78.46.71,1.07,1.31,1.78,1.78-.71.47-1.32,1.07-1.78,1.78ZM40.84,35.19l-1.1-.6c-.72-.4-1.32-.99-1.71-1.72l-.61-1.1c-.35-.64-1.4-.64-1.75,0l-.61,1.1c-.39.73-.98,1.32-1.71,1.72l-1.1.6c-.32.18-.52.51-.52.88s.2.7.52.88l1.1.6c.73.4,1.32.99,1.71,1.71l.61,1.11c.17.32.51.52.88.52s.7-.2.87-.52l.61-1.11c.39-.72.99-1.31,1.71-1.71l1.1-.6c.32-.18.52-.52.52-.88s-.2-.7-.52-.88ZM36.55,37.85c-.47-.71-1.08-1.31-1.78-1.78.7-.47,1.31-1.07,1.78-1.78.46.71,1.07,1.31,1.78,1.78-.71.47-1.32,1.07-1.78,1.78ZM35.12,25.65l-1.11-.61c-.72-.39-1.31-.99-1.71-1.71l-.6-1.1c-.18-.33-.52-.53-.88-.53s-.7.2-.88.52l-.6,1.11c-.4.72-.99,1.32-1.72,1.71l-1.1.61c-.32.17-.52.51-.52.87s.2.71.52.88l1.1.6c.73.4,1.32.99,1.72,1.72l.6,1.1c.18.32.51.52.88.52s.7-.2.88-.52l.6-1.1c.4-.73.99-1.32,1.71-1.72l1.11-.6c.32-.17.52-.51.52-.88s-.2-.7-.52-.87ZM30.82,28.3c-.47-.7-1.07-1.31-1.78-1.78.71-.47,1.31-1.07,1.78-1.78.47.71,1.07,1.31,1.78,1.78-.71.47-1.31,1.08-1.78,1.78ZM35.12,25.65l-1.11-.61c-.72-.39-1.31-.99-1.71-1.71l-.6-1.1c-.18-.33-.52-.53-.88-.53s-.7.2-.88.52l-.6,1.11c-.4.72-.99,1.32-1.72,1.71l-1.1.61c-.32.17-.52.51-.52.87s.2.71.52.88l1.1.6c.73.4,1.32.99,1.72,1.72l.6,1.1c.18.32.51.52.88.52s.7-.2.88-.52l.6-1.1c.4-.73.99-1.32,1.71-1.72l1.11-.6c.32-.17.52-.51.52-.88s-.2-.7-.52-.87ZM30.82,28.3c-.47-.7-1.07-1.31-1.78-1.78.71-.47,1.31-1.07,1.78-1.78.47.71,1.07,1.31,1.78,1.78-.71.47-1.31,1.08-1.78,1.78ZM40.84,35.19l-1.1-.6c-.72-.4-1.32-.99-1.71-1.72l-.61-1.1c-.35-.64-1.4-.64-1.75,0l-.61,1.1c-.39.73-.98,1.32-1.71,1.72l-1.1.6c-.32.18-.52.51-.52.88s.2.7.52.88l1.1.6c.73.4,1.32.99,1.71,1.71l.61,1.11c.17.32.51.52.88.52s.7-.2.87-.52l.61-1.11c.39-.72.99-1.31,1.71-1.71l1.1-.6c.32-.18.52-.52.52-.88s-.2-.7-.52-.88ZM36.55,37.85c-.47-.71-1.08-1.31-1.78-1.78.7-.47,1.31-1.07,1.78-1.78.46.71,1.07,1.31,1.78,1.78-.71.47-1.32,1.07-1.78,1.78ZM40.84,35.19l-1.1-.6c-.72-.4-1.32-.99-1.71-1.72l-.61-1.1c-.35-.64-1.4-.64-1.75,0l-.61,1.1c-.39.73-.98,1.32-1.71,1.72l-1.1.6c-.32.18-.52.51-.52.88s.2.7.52.88l1.1.6c.73.4,1.32.99,1.71,1.71l.61,1.11c.17.32.51.52.88.52s.7-.2.87-.52l.61-1.11c.39-.72.99-1.31,1.71-1.71l1.1-.6c.32-.18.52-.52.52-.88s-.2-.7-.52-.88ZM36.55,37.85c-.47-.71-1.08-1.31-1.78-1.78.7-.47,1.31-1.07,1.78-1.78.46.71,1.07,1.31,1.78,1.78-.71.47-1.32,1.07-1.78,1.78ZM35.12,25.65l-1.11-.61c-.72-.39-1.31-.99-1.71-1.71l-.6-1.1c-.18-.33-.52-.53-.88-.53s-.7.2-.88.52l-.6,1.11c-.4.72-.99,1.32-1.72,1.71l-1.1.61c-.32.17-.52.51-.52.87s.2.71.52.88l1.1.6c.73.4,1.32.99,1.72,1.72l.6,1.1c.18.32.51.52.88.52s.7-.2.88-.52l.6-1.1c.4-.73.99-1.32,1.71-1.72l1.11-.6c.32-.17.52-.51.52-.88s-.2-.7-.52-.87ZM30.82,28.3c-.47-.7-1.07-1.31-1.78-1.78.71-.47,1.31-1.07,1.78-1.78.47.71,1.07,1.31,1.78,1.78-.71.47-1.31,1.08-1.78,1.78Z"/><path class="cls-5" d="M63.7,25.93l-6.75,6.75c-.19.19-.45.29-.71.29s-.51-.1-.7-.29c-.39-.39-.39-1.03,0-1.42l6.75-6.75c.39-.39,1.02-.39,1.41,0s.39,1.03,0,1.42Z"/><path class="cls-5" d="M69.1,27.21c.39.39.39,1.03,0,1.42l-9.45,9.45c-.19.19-.45.29-.71.29s-.51-.1-.7-.29c-.39-.39-.39-1.03,0-1.42l9.45-9.45c.39-.39,1.02-.39,1.41,0Z"/><path class="cls-5" d="M35.12,25.65l-1.11-.61c-.72-.39-1.31-.99-1.71-1.71l-.6-1.1c-.18-.33-.52-.53-.88-.53s-.7.2-.88.52l-.6,1.11c-.4.72-.99,1.32-1.72,1.71l-1.1.61c-.32.17-.52.51-.52.87s.2.71.52.88l1.1.6c.73.4,1.32.99,1.72,1.72l.6,1.1c.18.32.51.52.88.52s.7-.2.88-.52l.6-1.1c.4-.73.99-1.32,1.71-1.72l1.11-.6c.32-.17.52-.51.52-.88s-.2-.7-.52-.87ZM30.82,28.3c-.47-.7-1.07-1.31-1.78-1.78.71-.47,1.31-1.07,1.78-1.78.47.71,1.07,1.31,1.78,1.78-.71.47-1.31,1.08-1.78,1.78ZM40.84,35.19l-1.1-.6c-.72-.4-1.32-.99-1.71-1.72l-.61-1.1c-.35-.64-1.4-.64-1.75,0l-.61,1.1c-.39.73-.98,1.32-1.71,1.72l-1.1.6c-.32.18-.52.51-.52.88s.2.7.52.88l1.1.6c.73.4,1.32.99,1.71,1.71l.61,1.11c.17.32.51.52.88.52s.7-.2.87-.52l.61-1.11c.39-.72.99-1.31,1.71-1.71l1.1-.6c.32-.18.52-.52.52-.88s-.2-.7-.52-.88ZM36.55,37.85c-.47-.71-1.08-1.31-1.78-1.78.7-.47,1.31-1.07,1.78-1.78.46.71,1.07,1.31,1.78,1.78-.71.47-1.32,1.07-1.78,1.78ZM40.84,35.19l-1.1-.6c-.72-.4-1.32-.99-1.71-1.72l-.61-1.1c-.35-.64-1.4-.64-1.75,0l-.61,1.1c-.39.73-.98,1.32-1.71,1.72l-1.1.6c-.32.18-.52.51-.52.88s.2.7.52.88l1.1.6c.73.4,1.32.99,1.71,1.71l.61,1.11c.17.32.51.52.88.52s.7-.2.87-.52l.61-1.11c.39-.72.99-1.31,1.71-1.71l1.1-.6c.32-.18.52-.52.52-.88s-.2-.7-.52-.88ZM36.55,37.85c-.47-.71-1.08-1.31-1.78-1.78.7-.47,1.31-1.07,1.78-1.78.46.71,1.07,1.31,1.78,1.78-.71.47-1.32,1.07-1.78,1.78ZM35.12,25.65l-1.11-.61c-.72-.39-1.31-.99-1.71-1.71l-.6-1.1c-.18-.33-.52-.53-.88-.53s-.7.2-.88.52l-.6,1.11c-.4.72-.99,1.32-1.72,1.71l-1.1.61c-.32.17-.52.51-.52.87s.2.71.52.88l1.1.6c.73.4,1.32.99,1.72,1.72l.6,1.1c.18.32.51.52.88.52s.7-.2.88-.52l.6-1.1c.4-.73.99-1.32,1.71-1.72l1.11-.6c.32-.17.52-.51.52-.88s-.2-.7-.52-.87ZM30.82,28.3c-.47-.7-1.07-1.31-1.78-1.78.71-.47,1.31-1.07,1.78-1.78.47.71,1.07,1.31,1.78,1.78-.71.47-1.31,1.08-1.78,1.78ZM34.59,57.92c-.39-.39-1.03-.39-1.42,0l-6.75,6.75c-.39.39-.39,1.03,0,1.42.2.19.45.29.71.29s.51-.1.71-.29l6.75-6.75c.39-.39.39-1.03,0-1.42ZM35.12,25.65l-1.11-.61c-.72-.39-1.31-.99-1.71-1.71l-.6-1.1c-.18-.33-.52-.53-.88-.53s-.7.2-.88.52l-.6,1.11c-.4.72-.99,1.32-1.72,1.71l-1.1.61c-.32.17-.52.51-.52.87s.2.71.52.88l1.1.6c.73.4,1.32.99,1.72,1.72l.6,1.1c.18.32.51.52.88.52s.7-.2.88-.52l.6-1.1c.4-.73.99-1.32,1.71-1.72l1.11-.6c.32-.17.52-.51.52-.88s-.2-.7-.52-.87ZM30.82,28.3c-.47-.7-1.07-1.31-1.78-1.78.71-.47,1.31-1.07,1.78-1.78.47.71,1.07,1.31,1.78,1.78-.71.47-1.31,1.08-1.78,1.78ZM39.99,60.62c-.39-.39-1.03-.39-1.42,0l-9.45,9.45c-.39.39-.39,1.03,0,1.42.2.19.45.29.71.29s.51-.1.71-.29l9.45-9.45c.39-.39.39-1.03,0-1.42ZM40.84,35.19l-1.1-.6c-.72-.4-1.32-.99-1.71-1.72l-.61-1.1c-.35-.64-1.4-.64-1.75,0l-.61,1.1c-.39.73-.98,1.32-1.71,1.72l-1.1.6c-.32.18-.52.51-.52.88s.2.7.52.88l1.1.6c.73.4,1.32.99,1.71,1.71l.61,1.11c.17.32.51.52.88.52s.7-.2.87-.52l.61-1.11c.39-.72.99-1.31,1.71-1.71l1.1-.6c.32-.18.52-.52.52-.88s-.2-.7-.52-.88ZM36.55,37.85c-.47-.71-1.08-1.31-1.78-1.78.7-.47,1.31-1.07,1.78-1.78.46.71,1.07,1.31,1.78,1.78-.71.47-1.32,1.07-1.78,1.78ZM40.84,35.19l-1.1-.6c-.72-.4-1.32-.99-1.71-1.72l-.61-1.1c-.35-.64-1.4-.64-1.75,0l-.61,1.1c-.39.73-.98,1.32-1.71,1.72l-1.1.6c-.32.18-.52.51-.52.88s.2.7.52.88l1.1.6c.73.4,1.32.99,1.71,1.71l.61,1.11c.17.32.51.52.88.52s.7-.2.87-.52l.61-1.11c.39-.72.99-1.31,1.71-1.71l1.1-.6c.32-.18.52-.52.52-.88s-.2-.7-.52-.88ZM36.55,37.85c-.47-.71-1.08-1.31-1.78-1.78.7-.47,1.31-1.07,1.78-1.78.46.71,1.07,1.31,1.78,1.78-.71.47-1.32,1.07-1.78,1.78ZM35.12,25.65l-1.11-.61c-.72-.39-1.31-.99-1.71-1.71l-.6-1.1c-.18-.33-.52-.53-.88-.53s-.7.2-.88.52l-.6,1.11c-.4.72-.99,1.32-1.72,1.71l-1.1.61c-.32.17-.52.51-.52.87s.2.71.52.88l1.1.6c.73.4,1.32.99,1.72,1.72l.6,1.1c.18.32.51.52.88.52s.7-.2.88-.52l.6-1.1c.4-.73.99-1.32,1.71-1.72l1.11-.6c.32-.17.52-.51.52-.88s-.2-.7-.52-.87ZM30.82,28.3c-.47-.7-1.07-1.31-1.78-1.78.71-.47,1.31-1.07,1.78-1.78.47.71,1.07,1.31,1.78,1.78-.71.47-1.31,1.08-1.78,1.78ZM39.99,60.62c-.39-.39-1.03-.39-1.42,0l-9.45,9.45c-.39.39-.39,1.03,0,1.42.2.19.45.29.71.29s.51-.1.71-.29l9.45-9.45c.39-.39.39-1.03,0-1.42ZM34.59,57.92c-.39-.39-1.03-.39-1.42,0l-6.75,6.75c-.39.39-.39,1.03,0,1.42.2.19.45.29.71.29s.51-.1.71-.29l6.75-6.75c.39-.39.39-1.03,0-1.42ZM34.59,57.92c-.39-.39-1.03-.39-1.42,0l-6.75,6.75c-.39.39-.39,1.03,0,1.42.2.19.45.29.71.29s.51-.1.71-.29l6.75-6.75c.39-.39.39-1.03,0-1.42ZM35.12,25.65l-1.11-.61c-.72-.39-1.31-.99-1.71-1.71l-.6-1.1c-.18-.33-.52-.53-.88-.53s-.7.2-.88.52l-.6,1.11c-.4.72-.99,1.32-1.72,1.71l-1.1.61c-.32.17-.52.51-.52.87s.2.71.52.88l1.1.6c.73.4,1.32.99,1.72,1.72l.6,1.1c.18.32.51.52.88.52s.7-.2.88-.52l.6-1.1c.4-.73.99-1.32,1.71-1.72l1.11-.6c.32-.17.52-.51.52-.88s-.2-.7-.52-.87ZM30.82,28.3c-.47-.7-1.07-1.31-1.78-1.78.71-.47,1.31-1.07,1.78-1.78.47.71,1.07,1.31,1.78,1.78-.71.47-1.31,1.08-1.78,1.78ZM39.99,60.62c-.39-.39-1.03-.39-1.42,0l-9.45,9.45c-.39.39-.39,1.03,0,1.42.2.19.45.29.71.29s.51-.1.71-.29l9.45-9.45c.39-.39.39-1.03,0-1.42ZM40.84,35.19l-1.1-.6c-.72-.4-1.32-.99-1.71-1.72l-.61-1.1c-.35-.64-1.4-.64-1.75,0l-.61,1.1c-.39.73-.98,1.32-1.71,1.72l-1.1.6c-.32.18-.52.51-.52.88s.2.7.52.88l1.1.6c.73.4,1.32.99,1.71,1.71l.61,1.11c.17.32.51.52.88.52s.7-.2.87-.52l.61-1.11c.39-.72.99-1.31,1.71-1.71l1.1-.6c.32-.18.52-.52.52-.88s-.2-.7-.52-.88ZM36.55,37.85c-.47-.71-1.08-1.31-1.78-1.78.7-.47,1.31-1.07,1.78-1.78.46.71,1.07,1.31,1.78,1.78-.71.47-1.32,1.07-1.78,1.78ZM64.23,59.05l-1.1-.6c-.73-.4-1.32-.99-1.72-1.71l-.6-1.11c-.35-.64-1.41-.64-1.76,0l-.6,1.11c-.4.72-.99,1.31-1.71,1.71l-1.11.6c-.32.18-.52.52-.52.88s.2.7.52.88l1.11.6c.72.4,1.31.99,1.71,1.72l.6,1.1c.18.32.52.52.88.52s.7-.2.88-.52l.6-1.1c.4-.73.99-1.32,1.72-1.72l1.1-.6c.32-.18.52-.51.52-.88s-.2-.7-.52-.88ZM59.93,61.71c-.47-.71-1.07-1.31-1.78-1.78.71-.47,1.31-1.07,1.78-1.78.47.71,1.07,1.31,1.78,1.78-.71.47-1.31,1.07-1.78,1.78ZM69.96,68.6l-1.11-.6c-.72-.4-1.31-.99-1.71-1.72l-.6-1.1c-.18-.32-.52-.52-.88-.52s-.7.2-.88.52l-.6,1.1c-.4.73-.99,1.32-1.72,1.72l-1.1.6c-.32.18-.52.51-.52.88s.2.7.52.88l1.1.6c.73.39,1.32.99,1.72,1.71l.6,1.11c.18.32.51.52.88.52s.7-.2.88-.52l.6-1.11c.4-.72.99-1.32,1.71-1.71l1.11-.61c.32-.17.52-.51.52-.87s-.2-.7-.52-.88ZM65.66,71.26c-.47-.71-1.07-1.31-1.78-1.78.71-.47,1.31-1.07,1.78-1.78.47.71,1.07,1.31,1.78,1.78-.71.47-1.31,1.07-1.78,1.78ZM69.96,68.6l-1.11-.6c-.72-.4-1.31-.99-1.71-1.72l-.6-1.1c-.18-.32-.52-.52-.88-.52s-.7.2-.88.52l-.6,1.1c-.4.73-.99,1.32-1.72,1.72l-1.1.6c-.32.18-.52.51-.52.88s.2.7.52.88l1.1.6c.73.39,1.32.99,1.72,1.71l.6,1.11c.18.32.51.52.88.52s.7-.2.88-.52l.6-1.11c.4-.72.99-1.32,1.71-1.71l1.11-.61c.32-.17.52-.51.52-.87s-.2-.7-.52-.88ZM65.66,71.26c-.47-.71-1.07-1.31-1.78-1.78.71-.47,1.31-1.07,1.78-1.78.47.71,1.07,1.31,1.78,1.78-.71.47-1.31,1.07-1.78,1.78ZM63.13,61.41l1.1-.6c.32-.18.52-.51.52-.88s-.2-.7-.52-.88l-1.1-.6c-.73-.4-1.32-.99-1.72-1.71l-.6-1.11c-.35-.64-1.41-.64-1.76,0l-.6,1.11c-.4.72-.99,1.31-1.71,1.71l-1.11.6c-.32.18-.52.52-.52.88s.2.7.52.88l1.11.6c.72.4,1.31.99,1.71,1.72l.6,1.1c.18.32.52.52.88.52s.7-.2.88-.52l.6-1.1c.4-.73.99-1.32,1.72-1.72ZM59.93,61.71c-.47-.71-1.07-1.31-1.78-1.78.71-.47,1.31-1.07,1.78-1.78.47.71,1.07,1.31,1.78,1.78-.71.47-1.31,1.07-1.78,1.78ZM40.84,35.19l-1.1-.6c-.72-.4-1.32-.99-1.71-1.72l-.61-1.1c-.35-.64-1.4-.64-1.75,0l-.61,1.1c-.39.73-.98,1.32-1.71,1.72l-1.1.6c-.32.18-.52.51-.52.88s.2.7.52.88l1.1.6c.73.4,1.32.99,1.71,1.71l.61,1.11c.17.32.51.52.88.52s.7-.2.87-.52l.61-1.11c.39-.72.99-1.31,1.71-1.71l1.1-.6c.32-.18.52-.52.52-.88s-.2-.7-.52-.88ZM36.55,37.85c-.47-.71-1.08-1.31-1.78-1.78.7-.47,1.31-1.07,1.78-1.78.46.71,1.07,1.31,1.78,1.78-.71.47-1.32,1.07-1.78,1.78ZM34.01,28l1.11-.6c.32-.17.52-.51.52-.88s-.2-.7-.52-.87l-1.11-.61c-.72-.39-1.31-.99-1.71-1.71l-.6-1.1c-.18-.33-.52-.53-.88-.53s-.7.2-.88.52l-.6,1.11c-.4.72-.99,1.32-1.72,1.71l-1.1.61c-.32.17-.52.51-.52.87s.2.71.52.88l1.1.6c.73.4,1.32.99,1.72,1.72l.6,1.1c.18.32.51.52.88.52s.7-.2.88-.52l.6-1.1c.4-.73.99-1.32,1.71-1.72ZM30.82,28.3c-.47-.7-1.07-1.31-1.78-1.78.71-.47,1.31-1.07,1.78-1.78.47.71,1.07,1.31,1.78,1.78-.71.47-1.31,1.08-1.78,1.78ZM39.99,60.62c-.39-.39-1.03-.39-1.42,0l-9.45,9.45c-.39.39-.39,1.03,0,1.42.2.19.45.29.71.29s.51-.1.71-.29l9.45-9.45c.39-.39.39-1.03,0-1.42ZM34.59,57.92c-.39-.39-1.03-.39-1.42,0l-6.75,6.75c-.39.39-.39,1.03,0,1.42.2.19.45.29.71.29s.51-.1.71-.29l6.75-6.75c.39-.39.39-1.03,0-1.42ZM16.5,11.73v69.54h50c2.07,0,4-.63,5.6-1.72,1.05-.7,1.96-1.61,2.67-2.65,1.09-1.6,1.73-3.54,1.73-5.63V11.73H16.5ZM43.18,77.55h-19.95v-25.69h19.95v25.69ZM23.23,44.14v-25.69h20.91v25.69h-20.91ZM51.86,44.14v-25.69h20.91v25.69h-20.91ZM72.77,77.55h-19.95v-25.69h19.95v25.69ZM62.46,68l-1.1.6c-.32.18-.52.51-.52.88s.2.7.52.88l1.1.6c.73.39,1.32.99,1.72,1.71l.6,1.11c.18.32.51.52.88.52s.7-.2.88-.52l.6-1.11c.4-.72.99-1.32,1.71-1.71l1.11-.61c.32-.17.52-.51.52-.87s-.2-.7-.52-.88l-1.11-.6c-.72-.4-1.31-.99-1.71-1.72l-.6-1.1c-.18-.32-.52-.52-.88-.52s-.7.2-.88.52l-.6,1.1c-.4.73-.99,1.32-1.72,1.72ZM65.66,67.7c.47.71,1.07,1.31,1.78,1.78-.71.47-1.31,1.07-1.78,1.78-.47-.71-1.07-1.31-1.78-1.78.71-.47,1.31-1.07,1.78-1.78ZM55.63,60.81l1.11.6c.72.4,1.31.99,1.71,1.72l.6,1.1c.18.32.52.52.88.52s.7-.2.88-.52l.6-1.1c.4-.73.99-1.32,1.72-1.72l1.1-.6c.32-.18.52-.51.52-.88s-.2-.7-.52-.88l-1.1-.6c-.73-.4-1.32-.99-1.72-1.71l-.6-1.11c-.35-.64-1.41-.64-1.76,0l-.6,1.11c-.4.72-.99,1.31-1.71,1.71l-1.11.6c-.32.18-.52.52-.52.88s.2.7.52.88ZM59.93,58.15c.47.71,1.07,1.31,1.78,1.78-.71.47-1.31,1.07-1.78,1.78-.47-.71-1.07-1.31-1.78-1.78.71-.47,1.31-1.07,1.78-1.78ZM40.84,35.19l-1.1-.6c-.72-.4-1.32-.99-1.71-1.72l-.61-1.1c-.35-.64-1.4-.64-1.75,0l-.61,1.1c-.39.73-.98,1.32-1.71,1.72l-1.1.6c-.32.18-.52.51-.52.88s.2.7.52.88l1.1.6c.73.4,1.32.99,1.71,1.71l.61,1.11c.17.32.51.52.88.52s.7-.2.87-.52l.61-1.11c.39-.72.99-1.31,1.71-1.71l1.1-.6c.32-.18.52-.52.52-.88s-.2-.7-.52-.88ZM36.55,37.85c-.47-.71-1.08-1.31-1.78-1.78.7-.47,1.31-1.07,1.78-1.78.46.71,1.07,1.31,1.78,1.78-.71.47-1.32,1.07-1.78,1.78ZM29.12,71.49c.2.19.45.29.71.29s.51-.1.71-.29l9.45-9.45c.39-.39.39-1.03,0-1.42-.39-.39-1.03-.39-1.42,0l-9.45,9.45c-.39.39-.39,1.03,0,1.42ZM34.01,28l1.11-.6c.32-.17.52-.51.52-.88s-.2-.7-.52-.87l-1.11-.61c-.72-.39-1.31-.99-1.71-1.71l-.6-1.1c-.18-.33-.52-.53-.88-.53s-.7.2-.88.52l-.6,1.11c-.4.72-.99,1.32-1.72,1.71l-1.1.61c-.32.17-.52.51-.52.87s.2.71.52.88l1.1.6c.73.4,1.32.99,1.72,1.72l.6,1.1c.18.32.51.52.88.52s.7-.2.88-.52l.6-1.1c.4-.73.99-1.32,1.71-1.72ZM30.82,28.3c-.47-.7-1.07-1.31-1.78-1.78.71-.47,1.31-1.07,1.78-1.78.47.71,1.07,1.31,1.78,1.78-.71.47-1.31,1.08-1.78,1.78ZM27.13,66.38c.26,0,.51-.1.71-.29l6.75-6.75c.39-.39.39-1.03,0-1.42-.39-.39-1.03-.39-1.42,0l-6.75,6.75c-.39.39-.39,1.03,0,1.42.2.19.45.29.71.29ZM34.59,57.92c-.39-.39-1.03-.39-1.42,0l-6.75,6.75c-.39.39-.39,1.03,0,1.42.2.19.45.29.71.29s.51-.1.71-.29l6.75-6.75c.39-.39.39-1.03,0-1.42ZM39.99,60.62c-.39-.39-1.03-.39-1.42,0l-9.45,9.45c-.39.39-.39,1.03,0,1.42.2.19.45.29.71.29s.51-.1.71-.29l9.45-9.45c.39-.39.39-1.03,0-1.42ZM35.12,25.65l-1.11-.61c-.72-.39-1.31-.99-1.71-1.71l-.6-1.1c-.18-.33-.52-.53-.88-.53s-.7.2-.88.52l-.6,1.11c-.4.72-.99,1.32-1.72,1.71l-1.1.61c-.32.17-.52.51-.52.87s.2.71.52.88l1.1.6c.73.4,1.32.99,1.72,1.72l.6,1.1c.18.32.51.52.88.52s.7-.2.88-.52l.6-1.1c.4-.73.99-1.32,1.71-1.72l1.11-.6c.32-.17.52-.51.52-.88s-.2-.7-.52-.87ZM30.82,28.3c-.47-.7-1.07-1.31-1.78-1.78.71-.47,1.31-1.07,1.78-1.78.47.71,1.07,1.31,1.78,1.78-.71.47-1.31,1.08-1.78,1.78ZM40.84,35.19l-1.1-.6c-.72-.4-1.32-.99-1.71-1.72l-.61-1.1c-.35-.64-1.4-.64-1.75,0l-.61,1.1c-.39.73-.98,1.32-1.71,1.72l-1.1.6c-.32.18-.52.51-.52.88s.2.7.52.88l1.1.6c.73.4,1.32.99,1.71,1.71l.61,1.11c.17.32.51.52.88.52s.7-.2.87-.52l.61-1.11c.39-.72.99-1.31,1.71-1.71l1.1-.6c.32-.18.52-.52.52-.88s-.2-.7-.52-.88ZM36.55,37.85c-.47-.71-1.08-1.31-1.78-1.78.7-.47,1.31-1.07,1.78-1.78.46.71,1.07,1.31,1.78,1.78-.71.47-1.32,1.07-1.78,1.78ZM40.84,35.19l-1.1-.6c-.72-.4-1.32-.99-1.71-1.72l-.61-1.1c-.35-.64-1.4-.64-1.75,0l-.61,1.1c-.39.73-.98,1.32-1.71,1.72l-1.1.6c-.32.18-.52.51-.52.88s.2.7.52.88l1.1.6c.73.4,1.32.99,1.71,1.71l.61,1.11c.17.32.51.52.88.52s.7-.2.87-.52l.61-1.11c.39-.72.99-1.31,1.71-1.71l1.1-.6c.32-.18.52-.52.52-.88s-.2-.7-.52-.88ZM36.55,37.85c-.47-.71-1.08-1.31-1.78-1.78.7-.47,1.31-1.07,1.78-1.78.46.71,1.07,1.31,1.78,1.78-.71.47-1.32,1.07-1.78,1.78ZM39.99,60.62c-.39-.39-1.03-.39-1.42,0l-9.45,9.45c-.39.39-.39,1.03,0,1.42.2.19.45.29.71.29s.51-.1.71-.29l9.45-9.45c.39-.39.39-1.03,0-1.42ZM35.12,25.65l-1.11-.61c-.72-.39-1.31-.99-1.71-1.71l-.6-1.1c-.18-.33-.52-.53-.88-.53s-.7.2-.88.52l-.6,1.11c-.4.72-.99,1.32-1.72,1.71l-1.1.61c-.32.17-.52.51-.52.87s.2.71.52.88l1.1.6c.73.4,1.32.99,1.72,1.72l.6,1.1c.18.32.51.52.88.52s.7-.2.88-.52l.6-1.1c.4-.73.99-1.32,1.71-1.72l1.11-.6c.32-.17.52-.51.52-.88s-.2-.7-.52-.87ZM30.82,28.3c-.47-.7-1.07-1.31-1.78-1.78.71-.47,1.31-1.07,1.78-1.78.47.71,1.07,1.31,1.78,1.78-.71.47-1.31,1.08-1.78,1.78ZM34.59,57.92c-.39-.39-1.03-.39-1.42,0l-6.75,6.75c-.39.39-.39,1.03,0,1.42.2.19.45.29.71.29s.51-.1.71-.29l6.75-6.75c.39-.39.39-1.03,0-1.42ZM35.12,25.65l-1.11-.61c-.72-.39-1.31-.99-1.71-1.71l-.6-1.1c-.18-.33-.52-.53-.88-.53s-.7.2-.88.52l-.6,1.11c-.4.72-.99,1.32-1.72,1.71l-1.1.61c-.32.17-.52.51-.52.87s.2.71.52.88l1.1.6c.73.4,1.32.99,1.72,1.72l.6,1.1c.18.32.51.52.88.52s.7-.2.88-.52l.6-1.1c.4-.73.99-1.32,1.71-1.72l1.11-.6c.32-.17.52-.51.52-.88s-.2-.7-.52-.87ZM30.82,28.3c-.47-.7-1.07-1.31-1.78-1.78.71-.47,1.31-1.07,1.78-1.78.47.71,1.07,1.31,1.78,1.78-.71.47-1.31,1.08-1.78,1.78ZM40.84,35.19l-1.1-.6c-.72-.4-1.32-.99-1.71-1.72l-.61-1.1c-.35-.64-1.4-.64-1.75,0l-.61,1.1c-.39.73-.98,1.32-1.71,1.72l-1.1.6c-.32.18-.52.51-.52.88s.2.7.52.88l1.1.6c.73.4,1.32.99,1.71,1.71l.61,1.11c.17.32.51.52.88.52s.7-.2.87-.52l.61-1.11c.39-.72.99-1.31,1.71-1.71l1.1-.6c.32-.18.52-.52.52-.88s-.2-.7-.52-.88ZM36.55,37.85c-.47-.71-1.08-1.31-1.78-1.78.7-.47,1.31-1.07,1.78-1.78.46.71,1.07,1.31,1.78,1.78-.71.47-1.32,1.07-1.78,1.78ZM40.84,35.19l-1.1-.6c-.72-.4-1.32-.99-1.71-1.72l-.61-1.1c-.35-.64-1.4-.64-1.75,0l-.61,1.1c-.39.73-.98,1.32-1.71,1.72l-1.1.6c-.32.18-.52.51-.52.88s.2.7.52.88l1.1.6c.73.4,1.32.99,1.71,1.71l.61,1.11c.17.32.51.52.88.52s.7-.2.87-.52l.61-1.11c.39-.72.99-1.31,1.71-1.71l1.1-.6c.32-.18.52-.52.52-.88s-.2-.7-.52-.88ZM36.55,37.85c-.47-.71-1.08-1.31-1.78-1.78.7-.47,1.31-1.07,1.78-1.78.46.71,1.07,1.31,1.78,1.78-.71.47-1.32,1.07-1.78,1.78ZM35.12,25.65l-1.11-.61c-.72-.39-1.31-.99-1.71-1.71l-.6-1.1c-.18-.33-.52-.53-.88-.53s-.7.2-.88.52l-.6,1.11c-.4.72-.99,1.32-1.72,1.71l-1.1.61c-.32.17-.52.51-.52.87s.2.71.52.88l1.1.6c.73.4,1.32.99,1.72,1.72l.6,1.1c.18.32.51.52.88.52s.7-.2.88-.52l.6-1.1c.4-.73.99-1.32,1.71-1.72l1.11-.6c.32-.17.52-.51.52-.88s-.2-.7-.52-.87ZM30.82,28.3c-.47-.7-1.07-1.31-1.78-1.78.71-.47,1.31-1.07,1.78-1.78.47.71,1.07,1.31,1.78,1.78-.71.47-1.31,1.08-1.78,1.78ZM35.12,25.65l-1.11-.61c-.72-.39-1.31-.99-1.71-1.71l-.6-1.1c-.18-.33-.52-.53-.88-.53s-.7.2-.88.52l-.6,1.11c-.4.72-.99,1.32-1.72,1.71l-1.1.61c-.32.17-.52.51-.52.87s.2.71.52.88l1.1.6c.73.4,1.32.99,1.72,1.72l.6,1.1c.18.32.51.52.88.52s.7-.2.88-.52l.6-1.1c.4-.73.99-1.32,1.71-1.72l1.11-.6c.32-.17.52-.51.52-.88s-.2-.7-.52-.87ZM30.82,28.3c-.47-.7-1.07-1.31-1.78-1.78.71-.47,1.31-1.07,1.78-1.78.47.71,1.07,1.31,1.78,1.78-.71.47-1.31,1.08-1.78,1.78ZM40.84,35.19l-1.1-.6c-.72-.4-1.32-.99-1.71-1.72l-.61-1.1c-.35-.64-1.4-.64-1.75,0l-.61,1.1c-.39.73-.98,1.32-1.71,1.72l-1.1.6c-.32.18-.52.51-.52.88s.2.7.52.88l1.1.6c.73.4,1.32.99,1.71,1.71l.61,1.11c.17.32.51.52.88.52s.7-.2.87-.52l.61-1.11c.39-.72.99-1.31,1.71-1.71l1.1-.6c.32-.18.52-.52.52-.88s-.2-.7-.52-.88ZM36.55,37.85c-.47-.71-1.08-1.31-1.78-1.78.7-.47,1.31-1.07,1.78-1.78.46.71,1.07,1.31,1.78,1.78-.71.47-1.32,1.07-1.78,1.78ZM40.84,35.19l-1.1-.6c-.72-.4-1.32-.99-1.71-1.72l-.61-1.1c-.35-.64-1.4-.64-1.75,0l-.61,1.1c-.39.73-.98,1.32-1.71,1.72l-1.1.6c-.32.18-.52.51-.52.88s.2.7.52.88l1.1.6c.73.4,1.32.99,1.71,1.71l.61,1.11c.17.32.51.52.88.52s.7-.2.87-.52l.61-1.11c.39-.72.99-1.31,1.71-1.71l1.1-.6c.32-.18.52-.52.52-.88s-.2-.7-.52-.88ZM36.55,37.85c-.47-.71-1.08-1.31-1.78-1.78.7-.47,1.31-1.07,1.78-1.78.46.71,1.07,1.31,1.78,1.78-.71.47-1.32,1.07-1.78,1.78ZM35.12,25.65l-1.11-.61c-.72-.39-1.31-.99-1.71-1.71l-.6-1.1c-.18-.33-.52-.53-.88-.53s-.7.2-.88.52l-.6,1.11c-.4.72-.99,1.32-1.72,1.71l-1.1.61c-.32.17-.52.51-.52.87s.2.71.52.88l1.1.6c.73.4,1.32.99,1.72,1.72l.6,1.1c.18.32.51.52.88.52s.7-.2.88-.52l.6-1.1c.4-.73.99-1.32,1.71-1.72l1.11-.6c.32-.17.52-.51.52-.88s-.2-.7-.52-.87ZM30.82,28.3c-.47-.7-1.07-1.31-1.78-1.78.71-.47,1.31-1.07,1.78-1.78.47.71,1.07,1.31,1.78,1.78-.71.47-1.31,1.08-1.78,1.78Z"/><path class="cls-2" d="M79.5,47.1c-.55,0-1,.45-1,1v1.8c0,.55.45,1,1,1s1-.45,1-1v-1.8c0-.55-.45-1-1-1ZM79.5,45.5c.55,0,1-.45,1-1V11.73c0-.55-.45-1-1-1H16.5c-.55,0-1,.45-1,1v72.54c0,.55.45,1,1,1h63c.55,0,1-.45,1-1v-30.77c0-.55-.45-1-1-1s-1,.45-1,1v29.77H17.5V12.73h61v31.77c0,.55.45,1,1,1ZM35.12,25.65l-1.11-.61c-.72-.39-1.31-.99-1.71-1.71l-.6-1.1c-.18-.33-.52-.53-.88-.53s-.7.2-.88.52l-.6,1.11c-.4.72-.99,1.32-1.72,1.71l-1.1.61c-.32.17-.52.51-.52.87s.2.71.52.88l1.1.6c.73.4,1.32.99,1.72,1.72l.6,1.1c.18.32.51.52.88.52s.7-.2.88-.52l.6-1.1c.4-.73.99-1.32,1.71-1.72l1.11-.6c.32-.17.52-.51.52-.88s-.2-.7-.52-.87ZM30.82,28.3c-.47-.7-1.07-1.31-1.78-1.78.71-.47,1.31-1.07,1.78-1.78.47.71,1.07,1.31,1.78,1.78-.71.47-1.31,1.08-1.78,1.78ZM40.84,35.19l-1.1-.6c-.72-.4-1.32-.99-1.71-1.72l-.61-1.1c-.35-.64-1.4-.64-1.75,0l-.61,1.1c-.39.73-.98,1.32-1.71,1.72l-1.1.6c-.32.18-.52.51-.52.88s.2.7.52.88l1.1.6c.73.4,1.32.99,1.71,1.71l.61,1.11c.17.32.51.52.88.52s.7-.2.87-.52l.61-1.11c.39-.72.99-1.31,1.71-1.71l1.1-.6c.32-.18.52-.52.52-.88s-.2-.7-.52-.88ZM36.55,37.85c-.47-.71-1.08-1.31-1.78-1.78.7-.47,1.31-1.07,1.78-1.78.46.71,1.07,1.31,1.78,1.78-.71.47-1.32,1.07-1.78,1.78ZM40.84,35.19l-1.1-.6c-.72-.4-1.32-.99-1.71-1.72l-.61-1.1c-.35-.64-1.4-.64-1.75,0l-.61,1.1c-.39.73-.98,1.32-1.71,1.72l-1.1.6c-.32.18-.52.51-.52.88s.2.7.52.88l1.1.6c.73.4,1.32.99,1.71,1.71l.61,1.11c.17.32.51.52.88.52s.7-.2.87-.52l.61-1.11c.39-.72.99-1.31,1.71-1.71l1.1-.6c.32-.18.52-.52.52-.88s-.2-.7-.52-.88ZM36.55,37.85c-.47-.71-1.08-1.31-1.78-1.78.7-.47,1.31-1.07,1.78-1.78.46.71,1.07,1.31,1.78,1.78-.71.47-1.32,1.07-1.78,1.78ZM35.12,25.65l-1.11-.61c-.72-.39-1.31-.99-1.71-1.71l-.6-1.1c-.18-.33-.52-.53-.88-.53s-.7.2-.88.52l-.6,1.11c-.4.72-.99,1.32-1.72,1.71l-1.1.61c-.32.17-.52.51-.52.87s.2.71.52.88l1.1.6c.73.4,1.32.99,1.72,1.72l.6,1.1c.18.32.51.52.88.52s.7-.2.88-.52l.6-1.1c.4-.73.99-1.32,1.71-1.72l1.11-.6c.32-.17.52-.51.52-.88s-.2-.7-.52-.87ZM30.82,28.3c-.47-.7-1.07-1.31-1.78-1.78.71-.47,1.31-1.07,1.78-1.78.47.71,1.07,1.31,1.78,1.78-.71.47-1.31,1.08-1.78,1.78ZM35.12,25.65l-1.11-.61c-.72-.39-1.31-.99-1.71-1.71l-.6-1.1c-.18-.33-.52-.53-.88-.53s-.7.2-.88.52l-.6,1.11c-.4.72-.99,1.32-1.72,1.71l-1.1.61c-.32.17-.52.51-.52.87s.2.71.52.88l1.1.6c.73.4,1.32.99,1.72,1.72l.6,1.1c.18.32.51.52.88.52s.7-.2.88-.52l.6-1.1c.4-.73.99-1.32,1.71-1.72l1.11-.6c.32-.17.52-.51.52-.88s-.2-.7-.52-.87ZM30.82,28.3c-.47-.7-1.07-1.31-1.78-1.78.71-.47,1.31-1.07,1.78-1.78.47.71,1.07,1.31,1.78,1.78-.71.47-1.31,1.08-1.78,1.78ZM40.84,35.19l-1.1-.6c-.72-.4-1.32-.99-1.71-1.72l-.61-1.1c-.35-.64-1.4-.64-1.75,0l-.61,1.1c-.39.73-.98,1.32-1.71,1.72l-1.1.6c-.32.18-.52.51-.52.88s.2.7.52.88l1.1.6c.73.4,1.32.99,1.71,1.71l.61,1.11c.17.32.51.52.88.52s.7-.2.87-.52l.61-1.11c.39-.72.99-1.31,1.71-1.71l1.1-.6c.32-.18.52-.52.52-.88s-.2-.7-.52-.88ZM36.55,37.85c-.47-.71-1.08-1.31-1.78-1.78.7-.47,1.31-1.07,1.78-1.78.46.71,1.07,1.31,1.78,1.78-.71.47-1.32,1.07-1.78,1.78ZM40.84,35.19l-1.1-.6c-.72-.4-1.32-.99-1.71-1.72l-.61-1.1c-.35-.64-1.4-.64-1.75,0l-.61,1.1c-.39.73-.98,1.32-1.71,1.72l-1.1.6c-.32.18-.52.51-.52.88s.2.7.52.88l1.1.6c.73.4,1.32.99,1.71,1.71l.61,1.11c.17.32.51.52.88.52s.7-.2.87-.52l.61-1.11c.39-.72.99-1.31,1.71-1.71l1.1-.6c.32-.18.52-.52.52-.88s-.2-.7-.52-.88ZM36.55,37.85c-.47-.71-1.08-1.31-1.78-1.78.7-.47,1.31-1.07,1.78-1.78.46.71,1.07,1.31,1.78,1.78-.71.47-1.32,1.07-1.78,1.78ZM35.12,25.65l-1.11-.61c-.72-.39-1.31-.99-1.71-1.71l-.6-1.1c-.18-.33-.52-.53-.88-.53s-.7.2-.88.52l-.6,1.11c-.4.72-.99,1.32-1.72,1.71l-1.1.61c-.32.17-.52.51-.52.87s.2.71.52.88l1.1.6c.73.4,1.32.99,1.72,1.72l.6,1.1c.18.32.51.52.88.52s.7-.2.88-.52l.6-1.1c.4-.73.99-1.32,1.71-1.72l1.11-.6c.32-.17.52-.51.52-.88s-.2-.7-.52-.87ZM30.82,28.3c-.47-.7-1.07-1.31-1.78-1.78.71-.47,1.31-1.07,1.78-1.78.47.71,1.07,1.31,1.78,1.78-.71.47-1.31,1.08-1.78,1.78ZM35.12,25.65l-1.11-.61c-.72-.39-1.31-.99-1.71-1.71l-.6-1.1c-.18-.33-.52-.53-.88-.53s-.7.2-.88.52l-.6,1.11c-.4.72-.99,1.32-1.72,1.71l-1.1.61c-.32.17-.52.51-.52.87s.2.71.52.88l1.1.6c.73.4,1.32.99,1.72,1.72l.6,1.1c.18.32.51.52.88.52s.7-.2.88-.52l.6-1.1c.4-.73.99-1.32,1.71-1.72l1.11-.6c.32-.17.52-.51.52-.88s-.2-.7-.52-.87ZM30.82,28.3c-.47-.7-1.07-1.31-1.78-1.78.71-.47,1.31-1.07,1.78-1.78.47.71,1.07,1.31,1.78,1.78-.71.47-1.31,1.08-1.78,1.78ZM40.84,35.19l-1.1-.6c-.72-.4-1.32-.99-1.71-1.72l-.61-1.1c-.35-.64-1.4-.64-1.75,0l-.61,1.1c-.39.73-.98,1.32-1.71,1.72l-1.1.6c-.32.18-.52.51-.52.88s.2.7.52.88l1.1.6c.73.4,1.32.99,1.71,1.71l.61,1.11c.17.32.51.52.88.52s.7-.2.87-.52l.61-1.11c.39-.72.99-1.31,1.71-1.71l1.1-.6c.32-.18.52-.52.52-.88s-.2-.7-.52-.88ZM36.55,37.85c-.47-.71-1.08-1.31-1.78-1.78.7-.47,1.31-1.07,1.78-1.78.46.71,1.07,1.31,1.78,1.78-.71.47-1.32,1.07-1.78,1.78ZM40.84,35.19l-1.1-.6c-.72-.4-1.32-.99-1.71-1.72l-.61-1.1c-.35-.64-1.4-.64-1.75,0l-.61,1.1c-.39.73-.98,1.32-1.71,1.72l-1.1.6c-.32.18-.52.51-.52.88s.2.7.52.88l1.1.6c.73.4,1.32.99,1.71,1.71l.61,1.11c.17.32.51.52.88.52s.7-.2.87-.52l.61-1.11c.39-.72.99-1.31,1.71-1.71l1.1-.6c.32-.18.52-.52.52-.88s-.2-.7-.52-.88ZM36.55,37.85c-.47-.71-1.08-1.31-1.78-1.78.7-.47,1.31-1.07,1.78-1.78.46.71,1.07,1.31,1.78,1.78-.71.47-1.32,1.07-1.78,1.78ZM35.12,25.65l-1.11-.61c-.72-.39-1.31-.99-1.71-1.71l-.6-1.1c-.18-.33-.52-.53-.88-.53s-.7.2-.88.52l-.6,1.11c-.4.72-.99,1.32-1.72,1.71l-1.1.61c-.32.17-.52.51-.52.87s.2.71.52.88l1.1.6c.73.4,1.32.99,1.72,1.72l.6,1.1c.18.32.51.52.88.52s.7-.2.88-.52l.6-1.1c.4-.73.99-1.32,1.71-1.72l1.11-.6c.32-.17.52-.51.52-.88s-.2-.7-.52-.87ZM30.82,28.3c-.47-.7-1.07-1.31-1.78-1.78.71-.47,1.31-1.07,1.78-1.78.47.71,1.07,1.31,1.78,1.78-.71.47-1.31,1.08-1.78,1.78ZM35.12,25.65l-1.11-.61c-.72-.39-1.31-.99-1.71-1.71l-.6-1.1c-.18-.33-.52-.53-.88-.53s-.7.2-.88.52l-.6,1.11c-.4.72-.99,1.32-1.72,1.71l-1.1.61c-.32.17-.52.51-.52.87s.2.71.52.88l1.1.6c.73.4,1.32.99,1.72,1.72l.6,1.1c.18.32.51.52.88.52s.7-.2.88-.52l.6-1.1c.4-.73.99-1.32,1.71-1.72l1.11-.6c.32-.17.52-.51.52-.88s-.2-.7-.52-.87ZM30.82,28.3c-.47-.7-1.07-1.31-1.78-1.78.71-.47,1.31-1.07,1.78-1.78.47.71,1.07,1.31,1.78,1.78-.71.47-1.31,1.08-1.78,1.78ZM40.84,35.19l-1.1-.6c-.72-.4-1.32-.99-1.71-1.72l-.61-1.1c-.35-.64-1.4-.64-1.75,0l-.61,1.1c-.39.73-.98,1.32-1.71,1.72l-1.1.6c-.32.18-.52.51-.52.88s.2.7.52.88l1.1.6c.73.4,1.32.99,1.71,1.71l.61,1.11c.17.32.51.52.88.52s.7-.2.87-.52l.61-1.11c.39-.72.99-1.31,1.71-1.71l1.1-.6c.32-.18.52-.52.52-.88s-.2-.7-.52-.88ZM36.55,37.85c-.47-.71-1.08-1.31-1.78-1.78.7-.47,1.31-1.07,1.78-1.78.46.71,1.07,1.31,1.78,1.78-.71.47-1.32,1.07-1.78,1.78ZM40.84,35.19l-1.1-.6c-.72-.4-1.32-.99-1.71-1.72l-.61-1.1c-.35-.64-1.4-.64-1.75,0l-.61,1.1c-.39.73-.98,1.32-1.71,1.72l-1.1.6c-.32.18-.52.51-.52.88s.2.7.52.88l1.1.6c.73.4,1.32.99,1.71,1.71l.61,1.11c.17.32.51.52.88.52s.7-.2.87-.52l.61-1.11c.39-.72.99-1.31,1.71-1.71l1.1-.6c.32-.18.52-.52.52-.88s-.2-.7-.52-.88ZM36.55,37.85c-.47-.71-1.08-1.31-1.78-1.78.7-.47,1.31-1.07,1.78-1.78.46.71,1.07,1.31,1.78,1.78-.71.47-1.32,1.07-1.78,1.78ZM34.01,28l1.11-.6c.32-.17.52-.51.52-.88s-.2-.7-.52-.87l-1.11-.61c-.72-.39-1.31-.99-1.71-1.71l-.6-1.1c-.18-.33-.52-.53-.88-.53s-.7.2-.88.52l-.6,1.11c-.4.72-.99,1.32-1.72,1.71l-1.1.61c-.32.17-.52.51-.52.87s.2.71.52.88l1.1.6c.73.4,1.32.99,1.72,1.72l.6,1.1c.18.32.51.52.88.52s.7-.2.88-.52l.6-1.1c.4-.73.99-1.32,1.71-1.72ZM30.82,28.3c-.47-.7-1.07-1.31-1.78-1.78.71-.47,1.31-1.07,1.78-1.78.47.71,1.07,1.31,1.78,1.78-.71.47-1.31,1.08-1.78,1.78ZM45.14,16.45h-22.91c-.56,0-1,.45-1,1v27.69c0,.55.44,1,1,1h22.91c.55,0,1-.45,1-1v-27.69c0-.55-.45-1-1-1ZM44.14,44.14h-20.91v-25.69h20.91v25.69ZM33.35,34.59l-1.1.6c-.32.18-.52.51-.52.88s.2.7.52.88l1.1.6c.73.4,1.32.99,1.71,1.71l.61,1.11c.17.32.51.52.88.52s.7-.2.87-.52l.61-1.11c.39-.72.99-1.31,1.71-1.71l1.1-.6c.32-.18.52-.52.52-.88s-.2-.7-.52-.88l-1.1-.6c-.72-.4-1.32-.99-1.71-1.72l-.61-1.1c-.35-.64-1.4-.64-1.75,0l-.61,1.1c-.39.73-.98,1.32-1.71,1.72ZM36.55,34.29c.46.71,1.07,1.31,1.78,1.78-.71.47-1.32,1.07-1.78,1.78-.47-.71-1.08-1.31-1.78-1.78.7-.47,1.31-1.07,1.78-1.78ZM26.52,27.4l1.1.6c.73.4,1.32.99,1.72,1.72l.6,1.1c.18.32.51.52.88.52s.7-.2.88-.52l.6-1.1c.4-.73.99-1.32,1.71-1.72l1.11-.6c.32-.17.52-.51.52-.88s-.2-.7-.52-.87l-1.11-.61c-.72-.39-1.31-.99-1.71-1.71l-.6-1.1c-.18-.33-.52-.53-.88-.53s-.7.2-.88.52l-.6,1.11c-.4.72-.99,1.32-1.72,1.71l-1.1.61c-.32.17-.52.51-.52.87s.2.71.52.88ZM30.82,24.74c.47.71,1.07,1.31,1.78,1.78-.71.47-1.31,1.08-1.78,1.78-.47-.7-1.07-1.31-1.78-1.78.71-.47,1.31-1.07,1.78-1.78ZM35.12,25.65l-1.11-.61c-.72-.39-1.31-.99-1.71-1.71l-.6-1.1c-.18-.33-.52-.53-.88-.53s-.7.2-.88.52l-.6,1.11c-.4.72-.99,1.32-1.72,1.71l-1.1.61c-.32.17-.52.51-.52.87s.2.71.52.88l1.1.6c.73.4,1.32.99,1.72,1.72l.6,1.1c.18.32.51.52.88.52s.7-.2.88-.52l.6-1.1c.4-.73.99-1.32,1.71-1.72l1.11-.6c.32-.17.52-.51.52-.88s-.2-.7-.52-.87ZM30.82,28.3c-.47-.7-1.07-1.31-1.78-1.78.71-.47,1.31-1.07,1.78-1.78.47.71,1.07,1.31,1.78,1.78-.71.47-1.31,1.08-1.78,1.78ZM40.84,35.19l-1.1-.6c-.72-.4-1.32-.99-1.71-1.72l-.61-1.1c-.35-.64-1.4-.64-1.75,0l-.61,1.1c-.39.73-.98,1.32-1.71,1.72l-1.1.6c-.32.18-.52.51-.52.88s.2.7.52.88l1.1.6c.73.4,1.32.99,1.71,1.71l.61,1.11c.17.32.51.52.88.52s.7-.2.87-.52l.61-1.11c.39-.72.99-1.31,1.71-1.71l1.1-.6c.32-.18.52-.52.52-.88s-.2-.7-.52-.88ZM36.55,37.85c-.47-.71-1.08-1.31-1.78-1.78.7-.47,1.31-1.07,1.78-1.78.46.71,1.07,1.31,1.78,1.78-.71.47-1.32,1.07-1.78,1.78ZM40.84,35.19l-1.1-.6c-.72-.4-1.32-.99-1.71-1.72l-.61-1.1c-.35-.64-1.4-.64-1.75,0l-.61,1.1c-.39.73-.98,1.32-1.71,1.72l-1.1.6c-.32.18-.52.51-.52.88s.2.7.52.88l1.1.6c.73.4,1.32.99,1.71,1.71l.61,1.11c.17.32.51.52.88.52s.7-.2.87-.52l.61-1.11c.39-.72.99-1.31,1.71-1.71l1.1-.6c.32-.18.52-.52.52-.88s-.2-.7-.52-.88ZM36.55,37.85c-.47-.71-1.08-1.31-1.78-1.78.7-.47,1.31-1.07,1.78-1.78.46.71,1.07,1.31,1.78,1.78-.71.47-1.32,1.07-1.78,1.78ZM35.12,25.65l-1.11-.61c-.72-.39-1.31-.99-1.71-1.71l-.6-1.1c-.18-.33-.52-.53-.88-.53s-.7.2-.88.52l-.6,1.11c-.4.72-.99,1.32-1.72,1.71l-1.1.61c-.32.17-.52.51-.52.87s.2.71.52.88l1.1.6c.73.4,1.32.99,1.72,1.72l.6,1.1c.18.32.51.52.88.52s.7-.2.88-.52l.6-1.1c.4-.73.99-1.32,1.71-1.72l1.11-.6c.32-.17.52-.51.52-.88s-.2-.7-.52-.87ZM30.82,28.3c-.47-.7-1.07-1.31-1.78-1.78.71-.47,1.31-1.07,1.78-1.78.47.71,1.07,1.31,1.78,1.78-.71.47-1.31,1.08-1.78,1.78ZM35.12,25.65l-1.11-.61c-.72-.39-1.31-.99-1.71-1.71l-.6-1.1c-.18-.33-.52-.53-.88-.53s-.7.2-.88.52l-.6,1.11c-.4.72-.99,1.32-1.72,1.71l-1.1.61c-.32.17-.52.51-.52.87s.2.71.52.88l1.1.6c.73.4,1.32.99,1.72,1.72l.6,1.1c.18.32.51.52.88.52s.7-.2.88-.52l.6-1.1c.4-.73.99-1.32,1.71-1.72l1.11-.6c.32-.17.52-.51.52-.88s-.2-.7-.52-.87ZM30.82,28.3c-.47-.7-1.07-1.31-1.78-1.78.71-.47,1.31-1.07,1.78-1.78.47.71,1.07,1.31,1.78,1.78-.71.47-1.31,1.08-1.78,1.78ZM40.84,35.19l-1.1-.6c-.72-.4-1.32-.99-1.71-1.72l-.61-1.1c-.35-.64-1.4-.64-1.75,0l-.61,1.1c-.39.73-.98,1.32-1.71,1.72l-1.1.6c-.32.18-.52.51-.52.88s.2.7.52.88l1.1.6c.73.4,1.32.99,1.71,1.71l.61,1.11c.17.32.51.52.88.52s.7-.2.87-.52l.61-1.11c.39-.72.99-1.31,1.71-1.71l1.1-.6c.32-.18.52-.52.52-.88s-.2-.7-.52-.88ZM36.55,37.85c-.47-.71-1.08-1.31-1.78-1.78.7-.47,1.31-1.07,1.78-1.78.46.71,1.07,1.31,1.78,1.78-.71.47-1.32,1.07-1.78,1.78ZM40.84,35.19l-1.1-.6c-.72-.4-1.32-.99-1.71-1.72l-.61-1.1c-.35-.64-1.4-.64-1.75,0l-.61,1.1c-.39.73-.98,1.32-1.71,1.72l-1.1.6c-.32.18-.52.51-.52.88s.2.7.52.88l1.1.6c.73.4,1.32.99,1.71,1.71l.61,1.11c.17.32.51.52.88.52s.7-.2.87-.52l.61-1.11c.39-.72.99-1.31,1.71-1.71l1.1-.6c.32-.18.52-.52.52-.88s-.2-.7-.52-.88ZM36.55,37.85c-.47-.71-1.08-1.31-1.78-1.78.7-.47,1.31-1.07,1.78-1.78.46.71,1.07,1.31,1.78,1.78-.71.47-1.32,1.07-1.78,1.78ZM35.12,25.65l-1.11-.61c-.72-.39-1.31-.99-1.71-1.71l-.6-1.1c-.18-.33-.52-.53-.88-.53s-.7.2-.88.52l-.6,1.11c-.4.72-.99,1.32-1.72,1.71l-1.1.61c-.32.17-.52.51-.52.87s.2.71.52.88l1.1.6c.73.4,1.32.99,1.72,1.72l.6,1.1c.18.32.51.52.88.52s.7-.2.88-.52l.6-1.1c.4-.73.99-1.32,1.71-1.72l1.11-.6c.32-.17.52-.51.52-.88s-.2-.7-.52-.87ZM30.82,28.3c-.47-.7-1.07-1.31-1.78-1.78.71-.47,1.31-1.07,1.78-1.78.47.71,1.07,1.31,1.78,1.78-.71.47-1.31,1.08-1.78,1.78ZM35.12,25.65l-1.11-.61c-.72-.39-1.31-.99-1.71-1.71l-.6-1.1c-.18-.33-.52-.53-.88-.53s-.7.2-.88.52l-.6,1.11c-.4.72-.99,1.32-1.72,1.71l-1.1.61c-.32.17-.52.51-.52.87s.2.71.52.88l1.1.6c.73.4,1.32.99,1.72,1.72l.6,1.1c.18.32.51.52.88.52s.7-.2.88-.52l.6-1.1c.4-.73.99-1.32,1.71-1.72l1.11-.6c.32-.17.52-.51.52-.88s-.2-.7-.52-.87ZM30.82,28.3c-.47-.7-1.07-1.31-1.78-1.78.71-.47,1.31-1.07,1.78-1.78.47.71,1.07,1.31,1.78,1.78-.71.47-1.31,1.08-1.78,1.78ZM40.84,35.19l-1.1-.6c-.72-.4-1.32-.99-1.71-1.72l-.61-1.1c-.35-.64-1.4-.64-1.75,0l-.61,1.1c-.39.73-.98,1.32-1.71,1.72l-1.1.6c-.32.18-.52.51-.52.88s.2.7.52.88l1.1.6c.73.4,1.32.99,1.71,1.71l.61,1.11c.17.32.51.52.88.52s.7-.2.87-.52l.61-1.11c.39-.72.99-1.31,1.71-1.71l1.1-.6c.32-.18.52-.52.52-.88s-.2-.7-.52-.88ZM36.55,37.85c-.47-.71-1.08-1.31-1.78-1.78.7-.47,1.31-1.07,1.78-1.78.46.71,1.07,1.31,1.78,1.78-.71.47-1.32,1.07-1.78,1.78ZM40.84,35.19l-1.1-.6c-.72-.4-1.32-.99-1.71-1.72l-.61-1.1c-.35-.64-1.4-.64-1.75,0l-.61,1.1c-.39.73-.98,1.32-1.71,1.72l-1.1.6c-.32.18-.52.51-.52.88s.2.7.52.88l1.1.6c.73.4,1.32.99,1.71,1.71l.61,1.11c.17.32.51.52.88.52s.7-.2.87-.52l.61-1.11c.39-.72.99-1.31,1.71-1.71l1.1-.6c.32-.18.52-.52.52-.88s-.2-.7-.52-.88ZM36.55,37.85c-.47-.71-1.08-1.31-1.78-1.78.7-.47,1.31-1.07,1.78-1.78.46.71,1.07,1.31,1.78,1.78-.71.47-1.32,1.07-1.78,1.78ZM35.12,25.65l-1.11-.61c-.72-.39-1.31-.99-1.71-1.71l-.6-1.1c-.18-.33-.52-.53-.88-.53s-.7.2-.88.52l-.6,1.11c-.4.72-.99,1.32-1.72,1.71l-1.1.61c-.32.17-.52.51-.52.87s.2.71.52.88l1.1.6c.73.4,1.32.99,1.72,1.72l.6,1.1c.18.32.51.52.88.52s.7-.2.88-.52l.6-1.1c.4-.73.99-1.32,1.71-1.72l1.11-.6c.32-.17.52-.51.52-.88s-.2-.7-.52-.87ZM30.82,28.3c-.47-.7-1.07-1.31-1.78-1.78.71-.47,1.31-1.07,1.78-1.78.47.71,1.07,1.31,1.78,1.78-.71.47-1.31,1.08-1.78,1.78ZM35.12,25.65l-1.11-.61c-.72-.39-1.31-.99-1.71-1.71l-.6-1.1c-.18-.33-.52-.53-.88-.53s-.7.2-.88.52l-.6,1.11c-.4.72-.99,1.32-1.72,1.71l-1.1.61c-.32.17-.52.51-.52.87s.2.71.52.88l1.1.6c.73.4,1.32.99,1.72,1.72l.6,1.1c.18.32.51.52.88.52s.7-.2.88-.52l.6-1.1c.4-.73.99-1.32,1.71-1.72l1.11-.6c.32-.17.52-.51.52-.88s-.2-.7-.52-.87ZM30.82,28.3c-.47-.7-1.07-1.31-1.78-1.78.71-.47,1.31-1.07,1.78-1.78.47.71,1.07,1.31,1.78,1.78-.71.47-1.31,1.08-1.78,1.78ZM40.84,35.19l-1.1-.6c-.72-.4-1.32-.99-1.71-1.72l-.61-1.1c-.35-.64-1.4-.64-1.75,0l-.61,1.1c-.39.73-.98,1.32-1.71,1.72l-1.1.6c-.32.18-.52.51-.52.88s.2.7.52.88l1.1.6c.73.4,1.32.99,1.71,1.71l.61,1.11c.17.32.51.52.88.52s.7-.2.87-.52l.61-1.11c.39-.72.99-1.31,1.71-1.71l1.1-.6c.32-.18.52-.52.52-.88s-.2-.7-.52-.88ZM36.55,37.85c-.47-.71-1.08-1.31-1.78-1.78.7-.47,1.31-1.07,1.78-1.78.46.71,1.07,1.31,1.78,1.78-.71.47-1.32,1.07-1.78,1.78ZM34.59,57.92c-.39-.39-1.03-.39-1.42,0l-6.75,6.75c-.39.39-.39,1.03,0,1.42.2.19.45.29.71.29s.51-.1.71-.29l6.75-6.75c.39-.39.39-1.03,0-1.42ZM39.99,60.62c-.39-.39-1.03-.39-1.42,0l-9.45,9.45c-.39.39-.39,1.03,0,1.42.2.19.45.29.71.29s.51-.1.71-.29l9.45-9.45c.39-.39.39-1.03,0-1.42ZM34.59,57.92c-.39-.39-1.03-.39-1.42,0l-6.75,6.75c-.39.39-.39,1.03,0,1.42.2.19.45.29.71.29s.51-.1.71-.29l6.75-6.75c.39-.39.39-1.03,0-1.42ZM39.99,60.62c-.39-.39-1.03-.39-1.42,0l-9.45,9.45c-.39.39-.39,1.03,0,1.42.2.19.45.29.71.29s.51-.1.71-.29l9.45-9.45c.39-.39.39-1.03,0-1.42ZM39.99,60.62c-.39-.39-1.03-.39-1.42,0l-9.45,9.45c-.39.39-.39,1.03,0,1.42.2.19.45.29.71.29s.51-.1.71-.29l9.45-9.45c.39-.39.39-1.03,0-1.42ZM34.59,57.92c-.39-.39-1.03-.39-1.42,0l-6.75,6.75c-.39.39-.39,1.03,0,1.42.2.19.45.29.71.29s.51-.1.71-.29l6.75-6.75c.39-.39.39-1.03,0-1.42ZM34.59,57.92c-.39-.39-1.03-.39-1.42,0l-6.75,6.75c-.39.39-.39,1.03,0,1.42.2.19.45.29.71.29s.51-.1.71-.29l6.75-6.75c.39-.39.39-1.03,0-1.42ZM39.99,60.62c-.39-.39-1.03-.39-1.42,0l-9.45,9.45c-.39.39-.39,1.03,0,1.42.2.19.45.29.71.29s.51-.1.71-.29l9.45-9.45c.39-.39.39-1.03,0-1.42ZM39.99,60.62c-.39-.39-1.03-.39-1.42,0l-9.45,9.45c-.39.39-.39,1.03,0,1.42.2.19.45.29.71.29s.51-.1.71-.29l9.45-9.45c.39-.39.39-1.03,0-1.42ZM34.59,57.92c-.39-.39-1.03-.39-1.42,0l-6.75,6.75c-.39.39-.39,1.03,0,1.42.2.19.45.29.71.29s.51-.1.71-.29l6.75-6.75c.39-.39.39-1.03,0-1.42ZM34.59,57.92c-.39-.39-1.03-.39-1.42,0l-6.75,6.75c-.39.39-.39,1.03,0,1.42.2.19.45.29.71.29s.51-.1.71-.29l6.75-6.75c.39-.39.39-1.03,0-1.42ZM39.99,60.62c-.39-.39-1.03-.39-1.42,0l-9.45,9.45c-.39.39-.39,1.03,0,1.42.2.19.45.29.71.29s.51-.1.71-.29l9.45-9.45c.39-.39.39-1.03,0-1.42ZM39.99,60.62c-.39-.39-1.03-.39-1.42,0l-9.45,9.45c-.39.39-.39,1.03,0,1.42.2.19.45.29.71.29s.51-.1.71-.29l9.45-9.45c.39-.39.39-1.03,0-1.42ZM34.59,57.92c-.39-.39-1.03-.39-1.42,0l-6.75,6.75c-.39.39-.39,1.03,0,1.42.2.19.45.29.71.29s.51-.1.71-.29l6.75-6.75c.39-.39.39-1.03,0-1.42ZM34.59,57.92c-.39-.39-1.03-.39-1.42,0l-6.75,6.75c-.39.39-.39,1.03,0,1.42.2.19.45.29.71.29s.51-.1.71-.29l6.75-6.75c.39-.39.39-1.03,0-1.42ZM39.99,60.62c-.39-.39-1.03-.39-1.42,0l-9.45,9.45c-.39.39-.39,1.03,0,1.42.2.19.45.29.71.29s.51-.1.71-.29l9.45-9.45c.39-.39.39-1.03,0-1.42ZM39.99,60.62c-.39-.39-1.03-.39-1.42,0l-9.45,9.45c-.39.39-.39,1.03,0,1.42.2.19.45.29.71.29s.51-.1.71-.29l9.45-9.45c.39-.39.39-1.03,0-1.42ZM34.59,57.92c-.39-.39-1.03-.39-1.42,0l-6.75,6.75c-.39.39-.39,1.03,0,1.42.2.19.45.29.71.29s.51-.1.71-.29l6.75-6.75c.39-.39.39-1.03,0-1.42ZM44.18,49.86h-21.95c-.56,0-1,.45-1,1v27.69c0,.55.44,1,1,1h21.95c.55,0,1-.45,1-1v-27.69c0-.55-.45-1-1-1ZM43.18,77.55h-19.95v-25.69h19.95v25.69ZM29.12,71.49c.2.19.45.29.71.29s.51-.1.71-.29l9.45-9.45c.39-.39.39-1.03,0-1.42-.39-.39-1.03-.39-1.42,0l-9.45,9.45c-.39.39-.39,1.03,0,1.42ZM27.13,66.38c.26,0,.51-.1.71-.29l6.75-6.75c.39-.39.39-1.03,0-1.42-.39-.39-1.03-.39-1.42,0l-6.75,6.75c-.39.39-.39,1.03,0,1.42.2.19.45.29.71.29ZM34.59,57.92c-.39-.39-1.03-.39-1.42,0l-6.75,6.75c-.39.39-.39,1.03,0,1.42.2.19.45.29.71.29s.51-.1.71-.29l6.75-6.75c.39-.39.39-1.03,0-1.42ZM39.99,60.62c-.39-.39-1.03-.39-1.42,0l-9.45,9.45c-.39.39-.39,1.03,0,1.42.2.19.45.29.71.29s.51-.1.71-.29l9.45-9.45c.39-.39.39-1.03,0-1.42ZM39.99,60.62c-.39-.39-1.03-.39-1.42,0l-9.45,9.45c-.39.39-.39,1.03,0,1.42.2.19.45.29.71.29s.51-.1.71-.29l9.45-9.45c.39-.39.39-1.03,0-1.42ZM34.59,57.92c-.39-.39-1.03-.39-1.42,0l-6.75,6.75c-.39.39-.39,1.03,0,1.42.2.19.45.29.71.29s.51-.1.71-.29l6.75-6.75c.39-.39.39-1.03,0-1.42ZM34.59,57.92c-.39-.39-1.03-.39-1.42,0l-6.75,6.75c-.39.39-.39,1.03,0,1.42.2.19.45.29.71.29s.51-.1.71-.29l6.75-6.75c.39-.39.39-1.03,0-1.42ZM39.99,60.62c-.39-.39-1.03-.39-1.42,0l-9.45,9.45c-.39.39-.39,1.03,0,1.42.2.19.45.29.71.29s.51-.1.71-.29l9.45-9.45c.39-.39.39-1.03,0-1.42ZM39.99,60.62c-.39-.39-1.03-.39-1.42,0l-9.45,9.45c-.39.39-.39,1.03,0,1.42.2.19.45.29.71.29s.51-.1.71-.29l9.45-9.45c.39-.39.39-1.03,0-1.42ZM34.59,57.92c-.39-.39-1.03-.39-1.42,0l-6.75,6.75c-.39.39-.39,1.03,0,1.42.2.19.45.29.71.29s.51-.1.71-.29l6.75-6.75c.39-.39.39-1.03,0-1.42ZM34.59,57.92c-.39-.39-1.03-.39-1.42,0l-6.75,6.75c-.39.39-.39,1.03,0,1.42.2.19.45.29.71.29s.51-.1.71-.29l6.75-6.75c.39-.39.39-1.03,0-1.42ZM39.99,60.62c-.39-.39-1.03-.39-1.42,0l-9.45,9.45c-.39.39-.39,1.03,0,1.42.2.19.45.29.71.29s.51-.1.71-.29l9.45-9.45c.39-.39.39-1.03,0-1.42ZM39.99,60.62c-.39-.39-1.03-.39-1.42,0l-9.45,9.45c-.39.39-.39,1.03,0,1.42.2.19.45.29.71.29s.51-.1.71-.29l9.45-9.45c.39-.39.39-1.03,0-1.42ZM34.59,57.92c-.39-.39-1.03-.39-1.42,0l-6.75,6.75c-.39.39-.39,1.03,0,1.42.2.19.45.29.71.29s.51-.1.71-.29l6.75-6.75c.39-.39.39-1.03,0-1.42ZM34.59,57.92c-.39-.39-1.03-.39-1.42,0l-6.75,6.75c-.39.39-.39,1.03,0,1.42.2.19.45.29.71.29s.51-.1.71-.29l6.75-6.75c.39-.39.39-1.03,0-1.42ZM39.99,60.62c-.39-.39-1.03-.39-1.42,0l-9.45,9.45c-.39.39-.39,1.03,0,1.42.2.19.45.29.71.29s.51-.1.71-.29l9.45-9.45c.39-.39.39-1.03,0-1.42ZM63.7,24.51c-.39-.39-1.02-.39-1.41,0l-6.75,6.75c-.39.39-.39,1.03,0,1.42.19.19.45.29.7.29s.52-.1.71-.29l6.75-6.75c.39-.39.39-1.03,0-1.42ZM69.1,27.21c-.39-.39-1.02-.39-1.41,0l-9.45,9.45c-.39.39-.39,1.03,0,1.42.19.19.45.29.7.29s.52-.1.71-.29l9.45-9.45c.39-.39.39-1.03,0-1.42ZM63.7,24.51c-.39-.39-1.02-.39-1.41,0l-6.75,6.75c-.39.39-.39,1.03,0,1.42.19.19.45.29.7.29s.52-.1.71-.29l6.75-6.75c.39-.39.39-1.03,0-1.42ZM69.1,27.21c-.39-.39-1.02-.39-1.41,0l-9.45,9.45c-.39.39-.39,1.03,0,1.42.19.19.45.29.7.29s.52-.1.71-.29l9.45-9.45c.39-.39.39-1.03,0-1.42ZM69.1,27.21c-.39-.39-1.02-.39-1.41,0l-9.45,9.45c-.39.39-.39,1.03,0,1.42.19.19.45.29.7.29s.52-.1.71-.29l9.45-9.45c.39-.39.39-1.03,0-1.42ZM63.7,24.51c-.39-.39-1.02-.39-1.41,0l-6.75,6.75c-.39.39-.39,1.03,0,1.42.19.19.45.29.7.29s.52-.1.71-.29l6.75-6.75c.39-.39.39-1.03,0-1.42ZM63.7,24.51c-.39-.39-1.02-.39-1.41,0l-6.75,6.75c-.39.39-.39,1.03,0,1.42.19.19.45.29.7.29s.52-.1.71-.29l6.75-6.75c.39-.39.39-1.03,0-1.42ZM69.1,27.21c-.39-.39-1.02-.39-1.41,0l-9.45,9.45c-.39.39-.39,1.03,0,1.42.19.19.45.29.7.29s.52-.1.71-.29l9.45-9.45c.39-.39.39-1.03,0-1.42ZM69.1,27.21c-.39-.39-1.02-.39-1.41,0l-9.45,9.45c-.39.39-.39,1.03,0,1.42.19.19.45.29.7.29s.52-.1.71-.29l9.45-9.45c.39-.39.39-1.03,0-1.42ZM63.7,24.51c-.39-.39-1.02-.39-1.41,0l-6.75,6.75c-.39.39-.39,1.03,0,1.42.19.19.45.29.7.29s.52-.1.71-.29l6.75-6.75c.39-.39.39-1.03,0-1.42ZM63.7,24.51c-.39-.39-1.02-.39-1.41,0l-6.75,6.75c-.39.39-.39,1.03,0,1.42.19.19.45.29.7.29s.52-.1.71-.29l6.75-6.75c.39-.39.39-1.03,0-1.42ZM69.1,27.21c-.39-.39-1.02-.39-1.41,0l-9.45,9.45c-.39.39-.39,1.03,0,1.42.19.19.45.29.7.29s.52-.1.71-.29l9.45-9.45c.39-.39.39-1.03,0-1.42ZM69.1,27.21c-.39-.39-1.02-.39-1.41,0l-9.45,9.45c-.39.39-.39,1.03,0,1.42.19.19.45.29.7.29s.52-.1.71-.29l9.45-9.45c.39-.39.39-1.03,0-1.42ZM63.7,24.51c-.39-.39-1.02-.39-1.41,0l-6.75,6.75c-.39.39-.39,1.03,0,1.42.19.19.45.29.7.29s.52-.1.71-.29l6.75-6.75c.39-.39.39-1.03,0-1.42ZM63.7,24.51c-.39-.39-1.02-.39-1.41,0l-6.75,6.75c-.39.39-.39,1.03,0,1.42.19.19.45.29.7.29s.52-.1.71-.29l6.75-6.75c.39-.39.39-1.03,0-1.42ZM69.1,27.21c-.39-.39-1.02-.39-1.41,0l-9.45,9.45c-.39.39-.39,1.03,0,1.42.19.19.45.29.7.29s.52-.1.71-.29l9.45-9.45c.39-.39.39-1.03,0-1.42ZM69.1,27.21c-.39-.39-1.02-.39-1.41,0l-9.45,9.45c-.39.39-.39,1.03,0,1.42.19.19.45.29.7.29s.52-.1.71-.29l9.45-9.45c.39-.39.39-1.03,0-1.42ZM63.7,24.51c-.39-.39-1.02-.39-1.41,0l-6.75,6.75c-.39.39-.39,1.03,0,1.42.19.19.45.29.7.29s.52-.1.71-.29l6.75-6.75c.39-.39.39-1.03,0-1.42ZM73.77,16.45h-22.91c-.55,0-1,.45-1,1v27.69c0,.55.45,1,1,1h22.91c.56,0,1-.45,1-1v-27.69c0-.55-.44-1-1-1ZM72.77,44.14h-20.91v-25.69h20.91v25.69ZM58.24,38.08c.19.19.45.29.7.29s.52-.1.71-.29l9.45-9.45c.39-.39.39-1.03,0-1.42-.39-.39-1.02-.39-1.41,0l-9.45,9.45c-.39.39-.39,1.03,0,1.42ZM56.24,32.97c.26,0,.52-.1.71-.29l6.75-6.75c.39-.39.39-1.03,0-1.42s-1.02-.39-1.41,0l-6.75,6.75c-.39.39-.39,1.03,0,1.42.19.19.45.29.7.29ZM63.7,24.51c-.39-.39-1.02-.39-1.41,0l-6.75,6.75c-.39.39-.39,1.03,0,1.42.19.19.45.29.7.29s.52-.1.71-.29l6.75-6.75c.39-.39.39-1.03,0-1.42ZM69.1,27.21c-.39-.39-1.02-.39-1.41,0l-9.45,9.45c-.39.39-.39,1.03,0,1.42.19.19.45.29.7.29s.52-.1.71-.29l9.45-9.45c.39-.39.39-1.03,0-1.42ZM69.1,27.21c-.39-.39-1.02-.39-1.41,0l-9.45,9.45c-.39.39-.39,1.03,0,1.42.19.19.45.29.7.29s.52-.1.71-.29l9.45-9.45c.39-.39.39-1.03,0-1.42ZM63.7,24.51c-.39-.39-1.02-.39-1.41,0l-6.75,6.75c-.39.39-.39,1.03,0,1.42.19.19.45.29.7.29s.52-.1.71-.29l6.75-6.75c.39-.39.39-1.03,0-1.42ZM63.7,24.51c-.39-.39-1.02-.39-1.41,0l-6.75,6.75c-.39.39-.39,1.03,0,1.42.19.19.45.29.7.29s.52-.1.71-.29l6.75-6.75c.39-.39.39-1.03,0-1.42ZM69.1,27.21c-.39-.39-1.02-.39-1.41,0l-9.45,9.45c-.39.39-.39,1.03,0,1.42.19.19.45.29.7.29s.52-.1.71-.29l9.45-9.45c.39-.39.39-1.03,0-1.42ZM69.1,27.21c-.39-.39-1.02-.39-1.41,0l-9.45,9.45c-.39.39-.39,1.03,0,1.42.19.19.45.29.7.29s.52-.1.71-.29l9.45-9.45c.39-.39.39-1.03,0-1.42ZM63.7,24.51c-.39-.39-1.02-.39-1.41,0l-6.75,6.75c-.39.39-.39,1.03,0,1.42.19.19.45.29.7.29s.52-.1.71-.29l6.75-6.75c.39-.39.39-1.03,0-1.42ZM63.7,24.51c-.39-.39-1.02-.39-1.41,0l-6.75,6.75c-.39.39-.39,1.03,0,1.42.19.19.45.29.7.29s.52-.1.71-.29l6.75-6.75c.39-.39.39-1.03,0-1.42ZM69.1,27.21c-.39-.39-1.02-.39-1.41,0l-9.45,9.45c-.39.39-.39,1.03,0,1.42.19.19.45.29.7.29s.52-.1.71-.29l9.45-9.45c.39-.39.39-1.03,0-1.42ZM69.1,27.21c-.39-.39-1.02-.39-1.41,0l-9.45,9.45c-.39.39-.39,1.03,0,1.42.19.19.45.29.7.29s.52-.1.71-.29l9.45-9.45c.39-.39.39-1.03,0-1.42ZM63.7,24.51c-.39-.39-1.02-.39-1.41,0l-6.75,6.75c-.39.39-.39,1.03,0,1.42.19.19.45.29.7.29s.52-.1.71-.29l6.75-6.75c.39-.39.39-1.03,0-1.42ZM63.7,24.51c-.39-.39-1.02-.39-1.41,0l-6.75,6.75c-.39.39-.39,1.03,0,1.42.19.19.45.29.7.29s.52-.1.71-.29l6.75-6.75c.39-.39.39-1.03,0-1.42ZM69.1,27.21c-.39-.39-1.02-.39-1.41,0l-9.45,9.45c-.39.39-.39,1.03,0,1.42.19.19.45.29.7.29s.52-.1.71-.29l9.45-9.45c.39-.39.39-1.03,0-1.42ZM35.12,25.65l-1.11-.61c-.72-.39-1.31-.99-1.71-1.71l-.6-1.1c-.18-.33-.52-.53-.88-.53s-.7.2-.88.52l-.6,1.11c-.4.72-.99,1.32-1.72,1.71l-1.1.61c-.32.17-.52.51-.52.87s.2.71.52.88l1.1.6c.73.4,1.32.99,1.72,1.72l.6,1.1c.18.32.51.52.88.52s.7-.2.88-.52l.6-1.1c.4-.73.99-1.32,1.71-1.72l1.11-.6c.32-.17.52-.51.52-.88s-.2-.7-.52-.87ZM30.82,28.3c-.47-.7-1.07-1.31-1.78-1.78.71-.47,1.31-1.07,1.78-1.78.47.71,1.07,1.31,1.78,1.78-.71.47-1.31,1.08-1.78,1.78ZM40.84,35.19l-1.1-.6c-.72-.4-1.32-.99-1.71-1.72l-.61-1.1c-.35-.64-1.4-.64-1.75,0l-.61,1.1c-.39.73-.98,1.32-1.71,1.72l-1.1.6c-.32.18-.52.51-.52.88s.2.7.52.88l1.1.6c.73.4,1.32.99,1.71,1.71l.61,1.11c.17.32.51.52.88.52s.7-.2.87-.52l.61-1.11c.39-.72.99-1.31,1.71-1.71l1.1-.6c.32-.18.52-.52.52-.88s-.2-.7-.52-.88ZM36.55,37.85c-.47-.71-1.08-1.31-1.78-1.78.7-.47,1.31-1.07,1.78-1.78.46.71,1.07,1.31,1.78,1.78-.71.47-1.32,1.07-1.78,1.78ZM64.23,59.05l-1.1-.6c-.73-.4-1.32-.99-1.72-1.71l-.6-1.11c-.35-.64-1.41-.64-1.76,0l-.6,1.11c-.4.72-.99,1.31-1.71,1.71l-1.11.6c-.32.18-.52.52-.52.88s.2.7.52.88l1.11.6c.72.4,1.31.99,1.71,1.72l.6,1.1c.18.32.52.52.88.52s.7-.2.88-.52l.6-1.1c.4-.73.99-1.32,1.72-1.72l1.1-.6c.32-.18.52-.51.52-.88s-.2-.7-.52-.88ZM59.93,61.71c-.47-.71-1.07-1.31-1.78-1.78.71-.47,1.31-1.07,1.78-1.78.47.71,1.07,1.31,1.78,1.78-.71.47-1.31,1.07-1.78,1.78ZM69.96,68.6l-1.11-.6c-.72-.4-1.31-.99-1.71-1.72l-.6-1.1c-.18-.32-.52-.52-.88-.52s-.7.2-.88.52l-.6,1.1c-.4.73-.99,1.32-1.72,1.72l-1.1.6c-.32.18-.52.51-.52.88s.2.7.52.88l1.1.6c.73.39,1.32.99,1.72,1.71l.6,1.11c.18.32.51.52.88.52s.7-.2.88-.52l.6-1.11c.4-.72.99-1.32,1.71-1.71l1.11-.61c.32-.17.52-.51.52-.87s-.2-.7-.52-.88ZM65.66,71.26c-.47-.71-1.07-1.31-1.78-1.78.71-.47,1.31-1.07,1.78-1.78.47.71,1.07,1.31,1.78,1.78-.71.47-1.31,1.07-1.78,1.78ZM64.23,59.05l-1.1-.6c-.73-.4-1.32-.99-1.72-1.71l-.6-1.11c-.35-.64-1.41-.64-1.76,0l-.6,1.11c-.4.72-.99,1.31-1.71,1.71l-1.11.6c-.32.18-.52.52-.52.88s.2.7.52.88l1.11.6c.72.4,1.31.99,1.71,1.72l.6,1.1c.18.32.52.52.88.52s.7-.2.88-.52l.6-1.1c.4-.73.99-1.32,1.72-1.72l1.1-.6c.32-.18.52-.51.52-.88s-.2-.7-.52-.88ZM59.93,61.71c-.47-.71-1.07-1.31-1.78-1.78.71-.47,1.31-1.07,1.78-1.78.47.71,1.07,1.31,1.78,1.78-.71.47-1.31,1.07-1.78,1.78ZM69.96,68.6l-1.11-.6c-.72-.4-1.31-.99-1.71-1.72l-.6-1.1c-.18-.32-.52-.52-.88-.52s-.7.2-.88.52l-.6,1.1c-.4.73-.99,1.32-1.72,1.72l-1.1.6c-.32.18-.52.51-.52.88s.2.7.52.88l1.1.6c.73.39,1.32.99,1.72,1.71l.6,1.11c.18.32.51.52.88.52s.7-.2.88-.52l.6-1.11c.4-.72.99-1.32,1.71-1.71l1.11-.61c.32-.17.52-.51.52-.87s-.2-.7-.52-.88ZM65.66,71.26c-.47-.71-1.07-1.31-1.78-1.78.71-.47,1.31-1.07,1.78-1.78.47.71,1.07,1.31,1.78,1.78-.71.47-1.31,1.07-1.78,1.78ZM69.96,68.6l-1.11-.6c-.72-.4-1.31-.99-1.71-1.72l-.6-1.1c-.18-.32-.52-.52-.88-.52s-.7.2-.88.52l-.6,1.1c-.4.73-.99,1.32-1.72,1.72l-1.1.6c-.32.18-.52.51-.52.88s.2.7.52.88l1.1.6c.73.39,1.32.99,1.72,1.71l.6,1.11c.18.32.51.52.88.52s.7-.2.88-.52l.6-1.11c.4-.72.99-1.32,1.71-1.71l1.11-.61c.32-.17.52-.51.52-.87s-.2-.7-.52-.88ZM65.66,71.26c-.47-.71-1.07-1.31-1.78-1.78.71-.47,1.31-1.07,1.78-1.78.47.71,1.07,1.31,1.78,1.78-.71.47-1.31,1.07-1.78,1.78ZM64.23,59.05l-1.1-.6c-.73-.4-1.32-.99-1.72-1.71l-.6-1.11c-.35-.64-1.41-.64-1.76,0l-.6,1.11c-.4.72-.99,1.31-1.71,1.71l-1.11.6c-.32.18-.52.52-.52.88s.2.7.52.88l1.11.6c.72.4,1.31.99,1.71,1.72l.6,1.1c.18.32.52.52.88.52s.7-.2.88-.52l.6-1.1c.4-.73.99-1.32,1.72-1.72l1.1-.6c.32-.18.52-.51.52-.88s-.2-.7-.52-.88ZM59.93,61.71c-.47-.71-1.07-1.31-1.78-1.78.71-.47,1.31-1.07,1.78-1.78.47.71,1.07,1.31,1.78,1.78-.71.47-1.31,1.07-1.78,1.78ZM64.23,59.05l-1.1-.6c-.73-.4-1.32-.99-1.72-1.71l-.6-1.11c-.35-.64-1.41-.64-1.76,0l-.6,1.11c-.4.72-.99,1.31-1.71,1.71l-1.11.6c-.32.18-.52.52-.52.88s.2.7.52.88l1.11.6c.72.4,1.31.99,1.71,1.72l.6,1.1c.18.32.52.52.88.52s.7-.2.88-.52l.6-1.1c.4-.73.99-1.32,1.72-1.72l1.1-.6c.32-.18.52-.51.52-.88s-.2-.7-.52-.88ZM59.93,61.71c-.47-.71-1.07-1.31-1.78-1.78.71-.47,1.31-1.07,1.78-1.78.47.71,1.07,1.31,1.78,1.78-.71.47-1.31,1.07-1.78,1.78ZM69.96,68.6l-1.11-.6c-.72-.4-1.31-.99-1.71-1.72l-.6-1.1c-.18-.32-.52-.52-.88-.52s-.7.2-.88.52l-.6,1.1c-.4.73-.99,1.32-1.72,1.72l-1.1.6c-.32.18-.52.51-.52.88s.2.7.52.88l1.1.6c.73.39,1.32.99,1.72,1.71l.6,1.11c.18.32.51.52.88.52s.7-.2.88-.52l.6-1.11c.4-.72.99-1.32,1.71-1.71l1.11-.61c.32-.17.52-.51.52-.87s-.2-.7-.52-.88ZM65.66,71.26c-.47-.71-1.07-1.31-1.78-1.78.71-.47,1.31-1.07,1.78-1.78.47.71,1.07,1.31,1.78,1.78-.71.47-1.31,1.07-1.78,1.78ZM69.96,68.6l-1.11-.6c-.72-.4-1.31-.99-1.71-1.72l-.6-1.1c-.18-.32-.52-.52-.88-.52s-.7.2-.88.52l-.6,1.1c-.4.73-.99,1.32-1.72,1.72l-1.1.6c-.32.18-.52.51-.52.88s.2.7.52.88l1.1.6c.73.39,1.32.99,1.72,1.71l.6,1.11c.18.32.51.52.88.52s.7-.2.88-.52l.6-1.11c.4-.72.99-1.32,1.71-1.71l1.11-.61c.32-.17.52-.51.52-.87s-.2-.7-.52-.88ZM65.66,71.26c-.47-.71-1.07-1.31-1.78-1.78.71-.47,1.31-1.07,1.78-1.78.47.71,1.07,1.31,1.78,1.78-.71.47-1.31,1.07-1.78,1.78ZM64.23,59.05l-1.1-.6c-.73-.4-1.32-.99-1.72-1.71l-.6-1.11c-.35-.64-1.41-.64-1.76,0l-.6,1.11c-.4.72-.99,1.31-1.71,1.71l-1.11.6c-.32.18-.52.52-.52.88s.2.7.52.88l1.11.6c.72.4,1.31.99,1.71,1.72l.6,1.1c.18.32.52.52.88.52s.7-.2.88-.52l.6-1.1c.4-.73.99-1.32,1.72-1.72l1.1-.6c.32-.18.52-.51.52-.88s-.2-.7-.52-.88ZM59.93,61.71c-.47-.71-1.07-1.31-1.78-1.78.71-.47,1.31-1.07,1.78-1.78.47.71,1.07,1.31,1.78,1.78-.71.47-1.31,1.07-1.78,1.78ZM64.23,59.05l-1.1-.6c-.73-.4-1.32-.99-1.72-1.71l-.6-1.11c-.35-.64-1.41-.64-1.76,0l-.6,1.11c-.4.72-.99,1.31-1.71,1.71l-1.11.6c-.32.18-.52.52-.52.88s.2.7.52.88l1.11.6c.72.4,1.31.99,1.71,1.72l.6,1.1c.18.32.52.52.88.52s.7-.2.88-.52l.6-1.1c.4-.73.99-1.32,1.72-1.72l1.1-.6c.32-.18.52-.51.52-.88s-.2-.7-.52-.88ZM59.93,61.71c-.47-.71-1.07-1.31-1.78-1.78.71-.47,1.31-1.07,1.78-1.78.47.71,1.07,1.31,1.78,1.78-.71.47-1.31,1.07-1.78,1.78ZM69.96,68.6l-1.11-.6c-.72-.4-1.31-.99-1.71-1.72l-.6-1.1c-.18-.32-.52-.52-.88-.52s-.7.2-.88.52l-.6,1.1c-.4.73-.99,1.32-1.72,1.72l-1.1.6c-.32.18-.52.51-.52.88s.2.7.52.88l1.1.6c.73.39,1.32.99,1.72,1.71l.6,1.11c.18.32.51.52.88.52s.7-.2.88-.52l.6-1.11c.4-.72.99-1.32,1.71-1.71l1.11-.61c.32-.17.52-.51.52-.87s-.2-.7-.52-.88ZM65.66,71.26c-.47-.71-1.07-1.31-1.78-1.78.71-.47,1.31-1.07,1.78-1.78.47.71,1.07,1.31,1.78,1.78-.71.47-1.31,1.07-1.78,1.78ZM69.96,68.6l-1.11-.6c-.72-.4-1.31-.99-1.71-1.72l-.6-1.1c-.18-.32-.52-.52-.88-.52s-.7.2-.88.52l-.6,1.1c-.4.73-.99,1.32-1.72,1.72l-1.1.6c-.32.18-.52.51-.52.88s.2.7.52.88l1.1.6c.73.39,1.32.99,1.72,1.71l.6,1.11c.18.32.51.52.88.52s.7-.2.88-.52l.6-1.11c.4-.72.99-1.32,1.71-1.71l1.11-.61c.32-.17.52-.51.52-.87s-.2-.7-.52-.88ZM65.66,71.26c-.47-.71-1.07-1.31-1.78-1.78.71-.47,1.31-1.07,1.78-1.78.47.71,1.07,1.31,1.78,1.78-.71.47-1.31,1.07-1.78,1.78ZM64.23,59.05l-1.1-.6c-.73-.4-1.32-.99-1.72-1.71l-.6-1.11c-.35-.64-1.41-.64-1.76,0l-.6,1.11c-.4.72-.99,1.31-1.71,1.71l-1.11.6c-.32.18-.52.52-.52.88s.2.7.52.88l1.11.6c.72.4,1.31.99,1.71,1.72l.6,1.1c.18.32.52.52.88.52s.7-.2.88-.52l.6-1.1c.4-.73.99-1.32,1.72-1.72l1.1-.6c.32-.18.52-.51.52-.88s-.2-.7-.52-.88ZM59.93,61.71c-.47-.71-1.07-1.31-1.78-1.78.71-.47,1.31-1.07,1.78-1.78.47.71,1.07,1.31,1.78,1.78-.71.47-1.31,1.07-1.78,1.78ZM64.23,59.05l-1.1-.6c-.73-.4-1.32-.99-1.72-1.71l-.6-1.11c-.35-.64-1.41-.64-1.76,0l-.6,1.11c-.4.72-.99,1.31-1.71,1.71l-1.11.6c-.32.18-.52.52-.52.88s.2.7.52.88l1.11.6c.72.4,1.31.99,1.71,1.72l.6,1.1c.18.32.52.52.88.52s.7-.2.88-.52l.6-1.1c.4-.73.99-1.32,1.72-1.72l1.1-.6c.32-.18.52-.51.52-.88s-.2-.7-.52-.88ZM59.93,61.71c-.47-.71-1.07-1.31-1.78-1.78.71-.47,1.31-1.07,1.78-1.78.47.71,1.07,1.31,1.78,1.78-.71.47-1.31,1.07-1.78,1.78ZM69.96,68.6l-1.11-.6c-.72-.4-1.31-.99-1.71-1.72l-.6-1.1c-.18-.32-.52-.52-.88-.52s-.7.2-.88.52l-.6,1.1c-.4.73-.99,1.32-1.72,1.72l-1.1.6c-.32.18-.52.51-.52.88s.2.7.52.88l1.1.6c.73.39,1.32.99,1.72,1.71l.6,1.11c.18.32.51.52.88.52s.7-.2.88-.52l.6-1.11c.4-.72.99-1.32,1.71-1.71l1.11-.61c.32-.17.52-.51.52-.87s-.2-.7-.52-.88ZM65.66,71.26c-.47-.71-1.07-1.31-1.78-1.78.71-.47,1.31-1.07,1.78-1.78.47.71,1.07,1.31,1.78,1.78-.71.47-1.31,1.07-1.78,1.78ZM69.96,68.6l-1.11-.6c-.72-.4-1.31-.99-1.71-1.72l-.6-1.1c-.18-.32-.52-.52-.88-.52s-.7.2-.88.52l-.6,1.1c-.4.73-.99,1.32-1.72,1.72l-1.1.6c-.32.18-.52.51-.52.88s.2.7.52.88l1.1.6c.73.39,1.32.99,1.72,1.71l.6,1.11c.18.32.51.52.88.52s.7-.2.88-.52l.6-1.11c.4-.72.99-1.32,1.71-1.71l1.11-.61c.32-.17.52-.51.52-.87s-.2-.7-.52-.88ZM65.66,71.26c-.47-.71-1.07-1.31-1.78-1.78.71-.47,1.31-1.07,1.78-1.78.47.71,1.07,1.31,1.78,1.78-.71.47-1.31,1.07-1.78,1.78ZM63.13,61.41l1.1-.6c.32-.18.52-.51.52-.88s-.2-.7-.52-.88l-1.1-.6c-.73-.4-1.32-.99-1.72-1.71l-.6-1.11c-.35-.64-1.41-.64-1.76,0l-.6,1.11c-.4.72-.99,1.31-1.71,1.71l-1.11.6c-.32.18-.52.52-.52.88s.2.7.52.88l1.11.6c.72.4,1.31.99,1.71,1.72l.6,1.1c.18.32.52.52.88.52s.7-.2.88-.52l.6-1.1c.4-.73.99-1.32,1.72-1.72ZM59.93,61.71c-.47-.71-1.07-1.31-1.78-1.78.71-.47,1.31-1.07,1.78-1.78.47.71,1.07,1.31,1.78,1.78-.71.47-1.31,1.07-1.78,1.78ZM73.77,49.86h-21.95c-.55,0-1,.45-1,1v27.69c0,.55.45,1,1,1h21.95c.56,0,1-.45,1-1v-27.69c0-.55-.44-1-1-1ZM52.82,77.55v-25.69h19.95v25.69h-19.95ZM69.96,68.6l-1.11-.6c-.72-.4-1.31-.99-1.71-1.72l-.6-1.1c-.18-.32-.52-.52-.88-.52s-.7.2-.88.52l-.6,1.1c-.4.73-.99,1.32-1.72,1.72l-1.1.6c-.32.18-.52.51-.52.88s.2.7.52.88l1.1.6c.73.39,1.32.99,1.72,1.71l.6,1.11c.18.32.51.52.88.52s.7-.2.88-.52l.6-1.11c.4-.72.99-1.32,1.71-1.71l1.11-.61c.32-.17.52-.51.52-.87s-.2-.7-.52-.88ZM65.66,71.26c-.47-.71-1.07-1.31-1.78-1.78.71-.47,1.31-1.07,1.78-1.78.47.71,1.07,1.31,1.78,1.78-.71.47-1.31,1.07-1.78,1.78ZM63.13,61.41l1.1-.6c.32-.18.52-.51.52-.88s-.2-.7-.52-.88l-1.1-.6c-.73-.4-1.32-.99-1.72-1.71l-.6-1.11c-.35-.64-1.41-.64-1.76,0l-.6,1.11c-.4.72-.99,1.31-1.71,1.71l-1.11.6c-.32.18-.52.52-.52.88s.2.7.52.88l1.11.6c.72.4,1.31.99,1.71,1.72l.6,1.1c.18.32.52.52.88.52s.7-.2.88-.52l.6-1.1c.4-.73.99-1.32,1.72-1.72ZM59.93,61.71c-.47-.71-1.07-1.31-1.78-1.78.71-.47,1.31-1.07,1.78-1.78.47.71,1.07,1.31,1.78,1.78-.71.47-1.31,1.07-1.78,1.78ZM64.23,59.05l-1.1-.6c-.73-.4-1.32-.99-1.72-1.71l-.6-1.11c-.35-.64-1.41-.64-1.76,0l-.6,1.11c-.4.72-.99,1.31-1.71,1.71l-1.11.6c-.32.18-.52.52-.52.88s.2.7.52.88l1.11.6c.72.4,1.31.99,1.71,1.72l.6,1.1c.18.32.52.52.88.52s.7-.2.88-.52l.6-1.1c.4-.73.99-1.32,1.72-1.72l1.1-.6c.32-.18.52-.51.52-.88s-.2-.7-.52-.88ZM59.93,61.71c-.47-.71-1.07-1.31-1.78-1.78.71-.47,1.31-1.07,1.78-1.78.47.71,1.07,1.31,1.78,1.78-.71.47-1.31,1.07-1.78,1.78ZM69.96,68.6l-1.11-.6c-.72-.4-1.31-.99-1.71-1.72l-.6-1.1c-.18-.32-.52-.52-.88-.52s-.7.2-.88.52l-.6,1.1c-.4.73-.99,1.32-1.72,1.72l-1.1.6c-.32.18-.52.51-.52.88s.2.7.52.88l1.1.6c.73.39,1.32.99,1.72,1.71l.6,1.11c.18.32.51.52.88.52s.7-.2.88-.52l.6-1.11c.4-.72.99-1.32,1.71-1.71l1.11-.61c.32-.17.52-.51.52-.87s-.2-.7-.52-.88ZM65.66,71.26c-.47-.71-1.07-1.31-1.78-1.78.71-.47,1.31-1.07,1.78-1.78.47.71,1.07,1.31,1.78,1.78-.71.47-1.31,1.07-1.78,1.78ZM69.96,68.6l-1.11-.6c-.72-.4-1.31-.99-1.71-1.72l-.6-1.1c-.18-.32-.52-.52-.88-.52s-.7.2-.88.52l-.6,1.1c-.4.73-.99,1.32-1.72,1.72l-1.1.6c-.32.18-.52.51-.52.88s.2.7.52.88l1.1.6c.73.39,1.32.99,1.72,1.71l.6,1.11c.18.32.51.52.88.52s.7-.2.88-.52l.6-1.11c.4-.72.99-1.32,1.71-1.71l1.11-.61c.32-.17.52-.51.52-.87s-.2-.7-.52-.88ZM65.66,71.26c-.47-.71-1.07-1.31-1.78-1.78.71-.47,1.31-1.07,1.78-1.78.47.71,1.07,1.31,1.78,1.78-.71.47-1.31,1.07-1.78,1.78ZM64.23,59.05l-1.1-.6c-.73-.4-1.32-.99-1.72-1.71l-.6-1.11c-.35-.64-1.41-.64-1.76,0l-.6,1.11c-.4.72-.99,1.31-1.71,1.71l-1.11.6c-.32.18-.52.52-.52.88s.2.7.52.88l1.11.6c.72.4,1.31.99,1.71,1.72l.6,1.1c.18.32.52.52.88.52s.7-.2.88-.52l.6-1.1c.4-.73.99-1.32,1.72-1.72l1.1-.6c.32-.18.52-.51.52-.88s-.2-.7-.52-.88ZM59.93,61.71c-.47-.71-1.07-1.31-1.78-1.78.71-.47,1.31-1.07,1.78-1.78.47.71,1.07,1.31,1.78,1.78-.71.47-1.31,1.07-1.78,1.78ZM64.23,59.05l-1.1-.6c-.73-.4-1.32-.99-1.72-1.71l-.6-1.11c-.35-.64-1.41-.64-1.76,0l-.6,1.11c-.4.72-.99,1.31-1.71,1.71l-1.11.6c-.32.18-.52.52-.52.88s.2.7.52.88l1.11.6c.72.4,1.31.99,1.71,1.72l.6,1.1c.18.32.52.52.88.52s.7-.2.88-.52l.6-1.1c.4-.73.99-1.32,1.72-1.72l1.1-.6c.32-.18.52-.51.52-.88s-.2-.7-.52-.88ZM59.93,61.71c-.47-.71-1.07-1.31-1.78-1.78.71-.47,1.31-1.07,1.78-1.78.47.71,1.07,1.31,1.78,1.78-.71.47-1.31,1.07-1.78,1.78ZM69.96,68.6l-1.11-.6c-.72-.4-1.31-.99-1.71-1.72l-.6-1.1c-.18-.32-.52-.52-.88-.52s-.7.2-.88.52l-.6,1.1c-.4.73-.99,1.32-1.72,1.72l-1.1.6c-.32.18-.52.51-.52.88s.2.7.52.88l1.1.6c.73.39,1.32.99,1.72,1.71l.6,1.11c.18.32.51.52.88.52s.7-.2.88-.52l.6-1.11c.4-.72.99-1.32,1.71-1.71l1.11-.61c.32-.17.52-.51.52-.87s-.2-.7-.52-.88ZM65.66,71.26c-.47-.71-1.07-1.31-1.78-1.78.71-.47,1.31-1.07,1.78-1.78.47.71,1.07,1.31,1.78,1.78-.71.47-1.31,1.07-1.78,1.78ZM69.96,68.6l-1.11-.6c-.72-.4-1.31-.99-1.71-1.72l-.6-1.1c-.18-.32-.52-.52-.88-.52s-.7.2-.88.52l-.6,1.1c-.4.73-.99,1.32-1.72,1.72l-1.1.6c-.32.18-.52.51-.52.88s.2.7.52.88l1.1.6c.73.39,1.32.99,1.72,1.71l.6,1.11c.18.32.51.52.88.52s.7-.2.88-.52l.6-1.11c.4-.72.99-1.32,1.71-1.71l1.11-.61c.32-.17.52-.51.52-.87s-.2-.7-.52-.88ZM65.66,71.26c-.47-.71-1.07-1.31-1.78-1.78.71-.47,1.31-1.07,1.78-1.78.47.71,1.07,1.31,1.78,1.78-.71.47-1.31,1.07-1.78,1.78ZM64.23,59.05l-1.1-.6c-.73-.4-1.32-.99-1.72-1.71l-.6-1.11c-.35-.64-1.41-.64-1.76,0l-.6,1.11c-.4.72-.99,1.31-1.71,1.71l-1.11.6c-.32.18-.52.52-.52.88s.2.7.52.88l1.11.6c.72.4,1.31.99,1.71,1.72l.6,1.1c.18.32.52.52.88.52s.7-.2.88-.52l.6-1.1c.4-.73.99-1.32,1.72-1.72l1.1-.6c.32-.18.52-.51.52-.88s-.2-.7-.52-.88ZM59.93,61.71c-.47-.71-1.07-1.31-1.78-1.78.71-.47,1.31-1.07,1.78-1.78.47.71,1.07,1.31,1.78,1.78-.71.47-1.31,1.07-1.78,1.78ZM64.23,59.05l-1.1-.6c-.73-.4-1.32-.99-1.72-1.71l-.6-1.11c-.35-.64-1.41-.64-1.76,0l-.6,1.11c-.4.72-.99,1.31-1.71,1.71l-1.11.6c-.32.18-.52.52-.52.88s.2.7.52.88l1.11.6c.72.4,1.31.99,1.71,1.72l.6,1.1c.18.32.52.52.88.52s.7-.2.88-.52l.6-1.1c.4-.73.99-1.32,1.72-1.72l1.1-.6c.32-.18.52-.51.52-.88s-.2-.7-.52-.88ZM59.93,61.71c-.47-.71-1.07-1.31-1.78-1.78.71-.47,1.31-1.07,1.78-1.78.47.71,1.07,1.31,1.78,1.78-.71.47-1.31,1.07-1.78,1.78ZM69.96,68.6l-1.11-.6c-.72-.4-1.31-.99-1.71-1.72l-.6-1.1c-.18-.32-.52-.52-.88-.52s-.7.2-.88.52l-.6,1.1c-.4.73-.99,1.32-1.72,1.72l-1.1.6c-.32.18-.52.51-.52.88s.2.7.52.88l1.1.6c.73.39,1.32.99,1.72,1.71l.6,1.11c.18.32.51.52.88.52s.7-.2.88-.52l.6-1.11c.4-.72.99-1.32,1.71-1.71l1.11-.61c.32-.17.52-.51.52-.87s-.2-.7-.52-.88ZM65.66,71.26c-.47-.71-1.07-1.31-1.78-1.78.71-.47,1.31-1.07,1.78-1.78.47.71,1.07,1.31,1.78,1.78-.71.47-1.31,1.07-1.78,1.78ZM69.96,68.6l-1.11-.6c-.72-.4-1.31-.99-1.71-1.72l-.6-1.1c-.18-.32-.52-.52-.88-.52s-.7.2-.88.52l-.6,1.1c-.4.73-.99,1.32-1.72,1.72l-1.1.6c-.32.18-.52.51-.52.88s.2.7.52.88l1.1.6c.73.39,1.32.99,1.72,1.71l.6,1.11c.18.32.51.52.88.52s.7-.2.88-.52l.6-1.11c.4-.72.99-1.32,1.71-1.71l1.11-.61c.32-.17.52-.51.52-.87s-.2-.7-.52-.88ZM65.66,71.26c-.47-.71-1.07-1.31-1.78-1.78.71-.47,1.31-1.07,1.78-1.78.47.71,1.07,1.31,1.78,1.78-.71.47-1.31,1.07-1.78,1.78ZM64.23,59.05l-1.1-.6c-.73-.4-1.32-.99-1.72-1.71l-.6-1.11c-.35-.64-1.41-.64-1.76,0l-.6,1.11c-.4.72-.99,1.31-1.71,1.71l-1.11.6c-.32.18-.52.52-.52.88s.2.7.52.88l1.11.6c.72.4,1.31.99,1.71,1.72l.6,1.1c.18.32.52.52.88.52s.7-.2.88-.52l.6-1.1c.4-.73.99-1.32,1.72-1.72l1.1-.6c.32-.18.52-.51.52-.88s-.2-.7-.52-.88ZM59.93,61.71c-.47-.71-1.07-1.31-1.78-1.78.71-.47,1.31-1.07,1.78-1.78.47.71,1.07,1.31,1.78,1.78-.71.47-1.31,1.07-1.78,1.78ZM64.23,59.05l-1.1-.6c-.73-.4-1.32-.99-1.72-1.71l-.6-1.11c-.35-.64-1.41-.64-1.76,0l-.6,1.11c-.4.72-.99,1.31-1.71,1.71l-1.11.6c-.32.18-.52.52-.52.88s.2.7.52.88l1.11.6c.72.4,1.31.99,1.71,1.72l.6,1.1c.18.32.52.52.88.52s.7-.2.88-.52l.6-1.1c.4-.73.99-1.32,1.72-1.72l1.1-.6c.32-.18.52-.51.52-.88s-.2-.7-.52-.88ZM59.93,61.71c-.47-.71-1.07-1.31-1.78-1.78.71-.47,1.31-1.07,1.78-1.78.47.71,1.07,1.31,1.78,1.78-.71.47-1.31,1.07-1.78,1.78ZM69.96,68.6l-1.11-.6c-.72-.4-1.31-.99-1.71-1.72l-.6-1.1c-.18-.32-.52-.52-.88-.52s-.7.2-.88.52l-.6,1.1c-.4.73-.99,1.32-1.72,1.72l-1.1.6c-.32.18-.52.51-.52.88s.2.7.52.88l1.1.6c.73.39,1.32.99,1.72,1.71l.6,1.11c.18.32.51.52.88.52s.7-.2.88-.52l.6-1.11c.4-.72.99-1.32,1.71-1.71l1.11-.61c.32-.17.52-.51.52-.87s-.2-.7-.52-.88ZM65.66,71.26c-.47-.71-1.07-1.31-1.78-1.78.71-.47,1.31-1.07,1.78-1.78.47.71,1.07,1.31,1.78,1.78-.71.47-1.31,1.07-1.78,1.78Z"/><rect class="cls-4" x="12.64" y="5" width="70.72" height="7.73" rx="2" ry="2"/><rect class="cls-4" x="12.64" y="83.27" width="70.72" height="7.73" rx="2" ry="2"/></svg>