<?xml version="1.0" encoding="UTF-8"?><svg id="Greeny" xmlns="http://www.w3.org/2000/svg" xmlns:xlink="http://www.w3.org/1999/xlink" viewBox="0 0 96 96"><defs><style>.cls-1{fill:none;}.cls-1,.cls-2,.cls-3,.cls-4,.cls-5,.cls-6,.cls-7,.cls-8,.cls-9{stroke-width:0px;}.cls-2{fill:url(#New_Pattern_Swatch_5);}.cls-3{fill:url(#New_Pattern_Swatch_3);}.cls-4{fill:url(#New_Pattern_Swatch_2);}.cls-5{fill:url(#New_Pattern_Swatch_4);}.cls-6{fill:#2faf96;}.cls-7{fill:#1feab0;}.cls-8{fill:#b3ffde;}.cls-9{fill:#008887;}</style><pattern id="New_Pattern_Swatch_3" x="0" y="0" width="39.26" height="39.26" patternTransform="translate(-596 -2384)" patternUnits="userSpaceOnUse" viewBox="0 0 39.26 39.26"><rect class="cls-1" x="0" y="0" width="39.26" height="39.26"/><rect class="cls-7" x="0" y="0" width="39.26" height="39.26"/></pattern><pattern id="New_Pattern_Swatch_4" x="0" y="0" width="39.26" height="39.26" patternTransform="translate(-596 -2384)" patternUnits="userSpaceOnUse" viewBox="0 0 39.26 39.26"><rect class="cls-1" y="0" width="39.26" height="39.26"/><rect class="cls-8" x="0" y="0" width="39.26" height="39.26"/></pattern><pattern id="New_Pattern_Swatch_5" x="0" y="0" width="39.26" height="39.26" patternTransform="translate(-596 -2384)" patternUnits="userSpaceOnUse" viewBox="0 0 39.26 39.26"><rect class="cls-1" x="0" y="0" width="39.26" height="39.26"/><rect class="cls-9" x="0" y="0" width="39.26" height="39.26"/></pattern><pattern id="New_Pattern_Swatch_2" x="0" y="0" width="39.26" height="39.26" patternTransform="translate(-596 -2384)" patternUnits="userSpaceOnUse" viewBox="0 0 39.26 39.26"><rect class="cls-1" x="0" y="0" width="39.26" height="39.26"/><rect class="cls-6" x="0" y="0" width="39.26" height="39.26"/></pattern></defs><path class="cls-3" d="M57,57v6.38c0,1.6-.91,3.07-2.35,3.79l-1.07.54c-1.57.78-2.53,2.42-2.45,4.17l.7,14.12c.09,2.18-1.65,4-3.83,4-1.47,0-2.73-.82-3.37-2.02-.3-.55-.46-1.16-.46-1.82v-.16l.7-14.12c.08-1.75-.88-3.39-2.45-4.17l-1.07-.54c-.16-.08-.31-.17-.45-.26-.38-.25-.7-.55-.97-.9-.59-.73-.93-1.66-.93-2.63v-6.38c0-.55.45-1,1-1h16c.55,0,1,.45,1,1Z"/><path class="cls-5" d="M54,56v5.38c0,1.6-.91,3.07-2.35,3.79l-1.07.54c-1.57.78-2.53,2.42-2.45,4.17l.7,14.12c.09,2.18-1.65,4-3.83,4-.13,0-.25-.01-.37-.02-.3-.55-.46-1.16-.46-1.82v-.16l.7-14.12c.08-1.75-.88-3.39-2.45-4.17l-1.07-.54c-.16-.08-.31-.17-.45-.26-.27-.34-.6-.65-.97-.9-.59-.73-.93-1.66-.93-2.63v-6.38c0-.55.45-1,1-1h14Z"/><path class="cls-5" d="M32.1,72l1.7.93-1.7.93c-1.37.75-2.49,1.87-3.24,3.24l-.93,1.7-.93-1.7c-.75-1.37-1.87-2.49-3.24-3.24l-1.7-.93,1.7-.93c1.37-.75,2.49-1.87,3.24-3.24l.93-1.7.93,1.7c.75,1.37,1.87,2.49,3.24,3.24Z"/><path class="cls-5" d="M70.1,78l1.7.93-1.7.93c-1.37.75-2.49,1.87-3.24,3.24l-.93,1.7-.93-1.7c-.75-1.37-1.87-2.49-3.24-3.24l-1.7-.93,1.7-.93c1.37-.75,2.49-1.87,3.24-3.24l.93-1.7.93,1.7c.75,1.37,1.87,2.49,3.24,3.24Z"/><path class="cls-2" d="M34.27,72.05l-1.7-.93c-1.2-.66-2.19-1.64-2.84-2.84l-.93-1.7c-.35-.64-1.4-.64-1.75,0l-.93,1.7c-.66,1.2-1.64,2.19-2.84,2.84l-1.7.93c-.32.18-.52.51-.52.88s.2.7.52.88l1.7.93c1.2.66,2.19,1.64,2.84,2.84l.93,1.7c.18.32.51.52.88.52s.7-.2.88-.52l.93-1.7c.66-1.2,1.64-2.19,2.84-2.84l1.7-.93c.32-.17.52-.51.52-.88s-.2-.7-.52-.88ZM31.62,72.98c-1.54.84-2.8,2.1-3.64,3.64l-.05.09-.05-.09c-.84-1.54-2.1-2.8-3.64-3.64l-.09-.05.09-.05c1.54-.84,2.8-2.1,3.64-3.64l.05-.09.05.09c.84,1.54,2.1,2.8,3.64,3.64h0s.09.05.09.05l-.09.05Z"/><path class="cls-2" d="M75,6v39c0,.55-.45,1-1,1H22c-.55,0-1-.45-1-1V6c0-.55.45-1,1-1s1,.45,1,1v38h50V6c0-.55.45-1,1-1s1,.45,1,1Z"/><path class="cls-2" d="M51.29,75.1c-.55.03-.98.5-.95,1.05l.09,1.8c.03.54.47.95,1,.95.02,0,.03,0,.05,0,.55-.03.98-.5.95-1.05l-.09-1.8c-.03-.55-.5-.98-1.05-.95Z"/><path class="cls-2" d="M73,50H23c-.55,0-1,.45-1,1v6c0,1.65,1.35,3,3,3h13v3.38c0,1.99,1.11,3.79,2.9,4.68l1.08.54c1.21.6,1.96,1.87,1.9,3.23l-.7,14.17v.16c0,2.67,2.17,4.84,4.83,4.84,1.33,0,2.56-.53,3.48-1.49.92-.96,1.4-2.22,1.34-3.56l-.22-4.5c-.03-.55-.5-.99-1.05-.95-.55.03-.98.5-.95,1.05l.22,4.49c.03.78-.25,1.52-.79,2.09-.54.56-1.26.87-2.04.87-1.56,0-2.83-1.27-2.83-2.84v-.11s.7-14.12.7-14.12c.1-2.15-1.08-4.16-3-5.11l-1.07-.54c-1.11-.55-1.8-1.66-1.8-2.9v-6.38h16v6.38c0,1.23-.69,2.34-1.8,2.9l-1.07.54c-1.92.96-3.1,2.96-3,5.11l.03.62c.03.55.5.98,1.05.95.55-.03.98-.5.95-1.05l-.03-.62c-.06-1.36.68-2.62,1.9-3.23l1.07-.54c1.79-.9,2.9-2.69,2.9-4.68v-3.38h13c1.65,0,3-1.35,3-3v-6c0-.55-.45-1-1-1ZM72,57c0,.55-.45,1-1,1h-13v-1c0-1.1-.9-2-2-2h-16c-1.1,0-2,.9-2,2v1h-13c-.55,0-1-.45-1-1v-5h48v5Z"/><path class="cls-2" d="M72.28,78.05l-1.7-.93c-1.2-.66-2.19-1.64-2.84-2.84l-.93-1.7c-.35-.64-1.4-.64-1.75,0l-.93,1.7c-.66,1.2-1.64,2.19-2.84,2.84l-1.7.93c-.32.18-.52.51-.52.88s.2.7.52.88l1.7.93c1.2.66,2.19,1.64,2.84,2.84l.93,1.7c.18.32.51.52.88.52s.7-.2.88-.52l.93-1.7c.66-1.2,1.64-2.19,2.84-2.84l1.7-.93c.32-.17.52-.51.52-.88s-.2-.7-.52-.88ZM69.62,78.98c-1.54.84-2.8,2.1-3.64,3.64l-.05.09-.05-.09c-.84-1.54-2.1-2.8-3.64-3.64l-.09-.05.09-.05c1.54-.84,2.8-2.1,3.64-3.64l.05-.09.05.09c.84,1.54,2.1,2.8,3.64,3.64h0s.09.05.09.05l-.09.05Z"/><rect class="cls-4" x="19" y="44" width="58" height="8" rx="2" ry="2"/><path class="cls-4" d="M32,36c-.55,0-1-.45-1-1V6c0-.55.45-1,1-1s1,.45,1,1v29c0,.55-.45,1-1,1ZM41,35V12c0-.55-.45-1-1-1s-1,.45-1,1v23c0,.55.45,1,1,1s1-.45,1-1ZM49,35V6c0-.55-.45-1-1-1s-1,.45-1,1v29c0,.55.45,1,1,1s1-.45,1-1ZM57,35V12c0-.55-.45-1-1-1s-1,.45-1,1v23c0,.55.45,1,1,1s1-.45,1-1ZM65,35V6c0-.55-.45-1-1-1s-1,.45-1,1v29c0,.55.45,1,1,1s1-.45,1-1Z"/></svg>