<?xml version="1.0" encoding="UTF-8"?><svg id="Greeny" xmlns="http://www.w3.org/2000/svg" xmlns:xlink="http://www.w3.org/1999/xlink" viewBox="0 0 96 96"><defs><style>.cls-1{fill:none;}.cls-1,.cls-2,.cls-3,.cls-4,.cls-5,.cls-6,.cls-7,.cls-8,.cls-9{stroke-width:0px;}.cls-2{fill:url(#New_Pattern_Swatch_5);}.cls-3{fill:url(#New_Pattern_Swatch_3);}.cls-4{fill:url(#New_Pattern_Swatch_2);}.cls-5{fill:url(#New_Pattern_Swatch_4);}.cls-6{fill:#2faf96;}.cls-7{fill:#1feab0;}.cls-8{fill:#b3ffde;}.cls-9{fill:#008887;}</style><pattern id="New_Pattern_Swatch_3" x="0" y="0" width="39.26" height="39.26" patternTransform="translate(-792 -2384)" patternUnits="userSpaceOnUse" viewBox="0 0 39.26 39.26"><rect class="cls-1" x="0" y="0" width="39.26" height="39.26"/><rect class="cls-7" x="0" y="0" width="39.26" height="39.26"/></pattern><pattern id="New_Pattern_Swatch_4" x="0" y="0" width="39.26" height="39.26" patternTransform="translate(-792 -2384)" patternUnits="userSpaceOnUse" viewBox="0 0 39.26 39.26"><rect class="cls-1" y="0" width="39.26" height="39.26"/><rect class="cls-8" x="0" y="0" width="39.26" height="39.26"/></pattern><pattern id="New_Pattern_Swatch_5" x="0" y="0" width="39.26" height="39.26" patternTransform="translate(-792 -2384)" patternUnits="userSpaceOnUse" viewBox="0 0 39.26 39.26"><rect class="cls-1" x="0" y="0" width="39.26" height="39.26"/><rect class="cls-9" x="0" y="0" width="39.26" height="39.26"/></pattern><pattern id="New_Pattern_Swatch_2" x="0" y="0" width="39.26" height="39.26" patternTransform="translate(-792 -2384)" patternUnits="userSpaceOnUse" viewBox="0 0 39.26 39.26"><rect class="cls-1" x="0" y="0" width="39.26" height="39.26"/><rect class="cls-6" x="0" y="0" width="39.26" height="39.26"/></pattern></defs><path class="cls-3" d="M83.54,74.92v8.62H10c-1.86,0-3.43-1.27-3.87-3-.09-.32-.13-.65-.13-1v-.62c0-2.21,1.79-4,4-4h73.54Z"/><path class="cls-5" d="M79.54,74.92v.62c0,2.76-2.24,5-5,5H6.13c-.09-.32-.13-.65-.13-1v-.62c0-2.21,1.79-4,4-4h69.54Z"/><path class="cls-3" d="M68.46,61.69v.62c0,2.21-1.79,4-4,4H25.08c-1.9,0-3.5-1.33-3.9-3.11-.07-.28-.1-.58-.1-.89v-.62c0-2.21,1.79-4,4-4h39.38c.31,0,.61.04.9.11,1.78.4,3.1,1.99,3.1,3.89Z"/><path class="cls-5" d="M65.46,58.69v.62c0,2.21-1.79,4-4,4H22.08c-.31,0-.61-.04-.9-.11-.07-.28-.1-.58-.1-.89v-.62c0-2.21,1.79-4,4-4h39.38c.31,0,.61.04.9.11.07.28.1.58.1.89Z"/><path class="cls-3" d="M39.38,23.23v16.23c0,.55-.44,1-1,1h-8.76c-.56,0-1-.45-1-1v-16.23h10.76Z"/><path class="cls-5" d="M36.38,23.23v8.23c0,3.32-2.68,6-6,6h-1.76v-14.23h7.76Z"/><path class="cls-2" d="M83.54,73.92h-7.56c.63-.84,1.03-1.87,1.03-3v-.62c0-2.76-2.24-5-5-5h-3.56c.63-.84,1.03-1.87,1.03-3v-.62c0-2.76-2.24-5-5-5h-25.15v-15.47c.63-.34,1.07-.99,1.07-1.76v-6.89l3.16-1.05c1.98-.66,3.31-2.5,3.31-4.59v-2.7l.31-.05,5.89,2.14c.11.04.23.06.34.06.2,0,.4-.06.57-.18.27-.19.43-.49.43-.82v-12.92c0-.33-.16-.63-.43-.82-.27-.19-.61-.23-.92-.12l-5.89,2.14c-.08-.02-.15-.05-.23-.05h-18.46c-1.65,0-3,1.35-3,3v4.62c0,1.36.92,2.5,2.16,2.86v3.4c0,.55.45,1,1,1s1-.45,1-1v-3.27h8.76v15.23h-8.76v-2.96c0-.55-.45-1-1-1s-1,.45-1,1v2.96c0,.77.44,1.43,1.07,1.76v15.47h-3.62c-2.76,0-5,2.24-5,5v.62c0,1.13.39,2.16,1.03,3h-3.56c-2.76,0-5,2.24-5,5v.62c0,1.13.39,2.16,1.03,3h-3.56c-2.76,0-5,2.24-5,5v.62c0,2.76,2.24,5,5,5h73.54c.55,0,1-.45,1-1v-8.62c0-.55-.45-1-1-1ZM44.85,26.93c0,1.22-.78,2.3-1.94,2.69l-2.52.84v-6.23h4.46v2.7ZM52.38,23.96l-4.46-1.62v-6.82l4.46-1.62v10.07ZM27.46,16.62c0-.55.45-1,1-1h17.46v6.62h-17.46c-.55,0-1-.45-1-1v-4.62ZM30.69,41.46h6.62v15.23h-6.62v-15.23ZM22.08,62.31v-.62c0-1.65,1.35-3,3-3h39.38c1.65,0,3,1.35,3,3v.62c0,1.65-1.35,3-3,3H25.08c-1.65,0-3-1.35-3-3ZM14.54,70.92v-.62c0-1.65,1.35-3,3-3h54.46c1.65,0,3,1.35,3,3v.62c0,1.65-1.35,3-3,3H17.54c-1.65,0-3-1.35-3-3ZM82.54,82.54H10c-1.65,0-3-1.35-3-3v-.62c0-1.65,1.35-3,3-3h72.54v6.62ZM27.62,32.9v-1.8c0-.55.45-1,1-1s1,.45,1,1v1.8c0,.55-.45,1-1,1s-1-.45-1-1Z"/><rect class="cls-4" x="82.54" y="71.77" width="8.46" height="14.92" rx="2" ry="2"/><path class="cls-4" d="M59.77,11.31v15.23c0,1.1-.9,2-2,2h-3.39c-1.1,0-2-.9-2-2v-15.23c0-1.11.9-2,2-2h3.39c1.1,0,2,.89,2,2Z"/></svg>