<?xml version="1.0" encoding="UTF-8"?><svg id="Greeny" xmlns="http://www.w3.org/2000/svg" xmlns:xlink="http://www.w3.org/1999/xlink" viewBox="0 0 96 96"><defs><style>.cls-1{fill:none;}.cls-1,.cls-2,.cls-3,.cls-4,.cls-5,.cls-6,.cls-7,.cls-8,.cls-9{stroke-width:0px;}.cls-2{fill:url(#New_Pattern_Swatch_5);}.cls-3{fill:url(#New_Pattern_Swatch_3);}.cls-4{fill:url(#New_Pattern_Swatch_2);}.cls-5{fill:url(#New_Pattern_Swatch_4);}.cls-6{fill:#2faf96;}.cls-7{fill:#1feab0;}.cls-8{fill:#b3ffde;}.cls-9{fill:#008887;}</style><pattern id="New_Pattern_Swatch_3" x="0" y="0" width="39.26" height="39.26" patternTransform="translate(-988 -2384)" patternUnits="userSpaceOnUse" viewBox="0 0 39.26 39.26"><rect class="cls-1" x="0" y="0" width="39.26" height="39.26"/><rect class="cls-7" x="0" y="0" width="39.26" height="39.26"/></pattern><pattern id="New_Pattern_Swatch_4" x="0" y="0" width="39.26" height="39.26" patternTransform="translate(-988 -2384)" patternUnits="userSpaceOnUse" viewBox="0 0 39.26 39.26"><rect class="cls-1" y="0" width="39.26" height="39.26"/><rect class="cls-8" x="0" y="0" width="39.26" height="39.26"/></pattern><pattern id="New_Pattern_Swatch_5" x="0" y="0" width="39.26" height="39.26" patternTransform="translate(-988 -2384)" patternUnits="userSpaceOnUse" viewBox="0 0 39.26 39.26"><rect class="cls-1" x="0" y="0" width="39.26" height="39.26"/><rect class="cls-9" x="0" y="0" width="39.26" height="39.26"/></pattern><pattern id="New_Pattern_Swatch_2" x="0" y="0" width="39.26" height="39.26" patternTransform="translate(-988 -2384)" patternUnits="userSpaceOnUse" viewBox="0 0 39.26 39.26"><rect class="cls-1" x="0" y="0" width="39.26" height="39.26"/><rect class="cls-6" x="0" y="0" width="39.26" height="39.26"/></pattern></defs><path class="cls-3" d="M82.31,31.76c-.35-.41-.7-.82-1.07-1.2-.87-.93-1.83-1.77-2.86-2.52-.46-.34-.93-.66-1.42-.95-.24-.16-.49-.3-.74-.44h-.01c-3.02-1.69-6.5-2.65-10.21-2.65-1.91,0-3.76.26-5.52.73-8.14,2.22-16.82,2.22-24.96,0-1.76-.47-3.61-.73-5.52-.73-7.85,0-14.69,4.3-18.29,10.68-1.9,3.34-2.9,7.27-2.68,11.44.24,4.62,2.02,8.86,4.83,12.23,3.74,4.51,9.32,7.46,15.5,7.64,1.97.06,3.89-.15,5.72-.61,8.51-2.11,17.33-2.11,25.84,0,1.83.46,3.75.67,5.72.61,10.8-.32,19.77-9.08,20.33-19.87.28-5.45-1.52-10.48-4.66-14.36ZM34,33.17c1.65,0,3,1.34,3,3s-1.35,3-3,3-3-1.35-3-3,1.35-3,3-3ZM48,49c1.65,0,3,1.35,3,3s-1.35,3-3,3-3-1.35-3-3,1.35-3,3-3ZM55.35,37.01c0,.13,0,.26-.04.39-.11.52-.41.97-.86,1.27-.45.29-.98.4-1.5.29-.53-.11-.98-.41-1.27-.86-.3-.44-.4-.98-.29-1.5.19-.95,1.03-1.6,1.96-1.6.13,0,.26.01.4.04.52.11.97.41,1.27.86.22.33.33.71.33,1.11ZM28.04,54.6c.19-.95,1.03-1.6,1.96-1.6.13,0,.27.01.4.04.52.11.97.41,1.27.86.29.44.4.98.29,1.5-.22,1.08-1.28,1.78-2.36,1.56-1.08-.22-1.78-1.28-1.56-2.36ZM73,35c0,1.65-1.35,3-3,3s-3-1.35-3-3,1.35-3,3-3,3,1.35,3,3ZM65.6,51.6c.19-.95,1.03-1.6,1.96-1.6.13,0,.26.01.4.04.95.19,1.6,1.03,1.6,1.96,0,.13-.01.27-.04.4-.11.52-.41.97-.86,1.27-.44.29-.98.4-1.5.29-.52-.11-.97-.41-1.27-.86-.29-.44-.4-.98-.29-1.5ZM17.12,44.43c.11-.53.42-.98.86-1.27.33-.22.71-.33,1.1-.33.13,0,.27,0,.4.04.53.1.98.41,1.27.85.3.45.4.98.29,1.51-.1.52-.41.97-.85,1.27-.45.29-.98.39-1.5.29-.53-.11-.98-.41-1.27-.86-.3-.44-.4-.98-.3-1.5ZM85.97,46c-1.61,0-2.97-1.36-2.97-3,0-1.44,1.02-2.64,2.38-2.93.48,1.91.69,3.9.59,5.93Z"/><path class="cls-5" d="M76.75,27.33c-.17-.23-.35-.46-.53-.68h-.01c-3.02-1.69-6.5-2.65-10.21-2.65-1.91,0-3.76.26-5.52.73-8.14,2.22-16.82,2.22-24.96,0-1.76-.47-3.61-.73-5.52-.73-7.85,0-14.69,4.3-18.29,10.68-1.9,3.34-2.9,7.27-2.68,11.44.24,4.62,2.02,8.86,4.83,12.23.78.43,1.59.82,2.42,1.15,2.21.9,4.6,1.42,7.08,1.49,1.97.06,3.89-.15,5.72-.61,8.51-2.11,17.33-2.11,25.84,0,1.83.46,3.75.67,5.72.61,10.8-.32,19.77-9.08,20.33-19.87.27-5.19-1.35-10-4.22-13.79ZM21.04,45.23c-.1.52-.41.97-.85,1.27-.45.29-.98.39-1.5.29-.53-.11-.98-.41-1.27-.86-.3-.44-.4-.98-.3-1.5.11-.53.42-.98.86-1.27.33-.22.71-.33,1.1-.33.13,0,.27,0,.4.04.53.1.98.41,1.27.85.3.45.4.98.29,1.51ZM69.52,52.4c-.11.52-.41.97-.86,1.27-.44.29-.98.4-1.5.29-.52-.11-.97-.41-1.27-.86-.29-.44-.4-.98-.29-1.5.19-.95,1.03-1.6,1.96-1.6.13,0,.26.01.4.04.95.19,1.6,1.03,1.6,1.96,0,.13-.01.27-.04.4ZM70,38c-1.65,0-3-1.35-3-3s1.35-3,3-3,3,1.35,3,3-1.35,3-3,3ZM55.31,37.4c-.11.52-.41.97-.86,1.27-.45.29-.98.4-1.5.29-.53-.11-.98-.41-1.27-.86-.3-.44-.4-.98-.29-1.5.19-.95,1.03-1.6,1.96-1.6.13,0,.26.01.4.04.52.11.97.41,1.27.86.22.33.33.71.33,1.11,0,.13,0,.26-.04.39ZM48,55c-1.65,0-3-1.35-3-3s1.35-3,3-3,3,1.35,3,3-1.35,3-3,3ZM31.96,55.4c-.22,1.08-1.28,1.78-2.36,1.56-1.08-.22-1.78-1.28-1.56-2.36.19-.95,1.03-1.6,1.96-1.6.13,0,.27.01.4.04.52.11.97.41,1.27.86.29.44.4.98.29,1.5ZM34,39.17c-1.65,0-3-1.35-3-3s1.35-3,3-3,3,1.34,3,3-1.35,3-3,3Z"/><path class="cls-2" d="M76.58,25.7c-4.93-2.69-10.84-3.41-16.36-1.93-7.67,2.08-15.79,2.17-23.49.24-.53-.13-1.07.19-1.21.72h0c-.13.54.19,1.09.73,1.22,8.02,2.01,16.49,1.92,24.49-.25,5.01-1.34,10.39-.7,14.88,1.76.15.08.32.12.48.12.24,0,.47-.09.65-.25.08-.06.15-.14.21-.24.01,0,.01-.02.02-.03.26-.48.08-1.09-.4-1.36ZM81.24,29.13c-.43-.41-.9-.83-1.43-1.26-.43-.35-1.06-.28-1.41.15l-.02.02c-.33.43-.25,1.05.17,1.39.48.38.91.77,1.29,1.14.2.19.45.28.7.28s.51-.1.7-.29h.01c.39-.41.38-1.04-.01-1.43ZM87.91,46.87s.05-.48.06-.7c.26-5.1-1.25-10.15-4.25-14.21-.32-.45-.95-.54-1.39-.22l-.02.02c-.43.33-.51.95-.19,1.38,1.14,1.56,2.03,3.25,2.67,5.02-2.17.55-3.79,2.5-3.79,4.84,0,2.68,2.13,4.86,4.78,4.98-1.41,9.4-9.49,16.72-19.17,17.01-1.86.06-3.69-.14-5.45-.58-8.61-2.14-17.71-2.14-26.32,0-1.76.44-3.59.64-5.45.58-5.04-.15-9.66-2.21-13.11-5.49-3.62-3.42-5.98-8.16-6.25-13.43-.18-3.49.54-6.97,2.1-10.06.25-.48.06-1.07-.42-1.33,0,0-.01-.01-.02-.01-.49-.25-1.09-.05-1.34.44-1.71,3.38-2.51,7.18-2.32,11h-.03c0,.38-.1,9.31.03,11.74.59,11.33,9.94,20.47,21.3,20.81.23.01.46.01.68.01,1.8,0,3.58-.21,5.31-.64,7.9-1.97,15.95-2.08,23.93-.33l.42-1.96c-8.27-1.82-16.63-1.7-24.83.35-1.77.43-3.6.63-5.45.57-10.32-.31-18.83-8.61-19.36-18.91-.04-.74-.06-2.13-.06-3.7,3.39,7.43,10.8,12.69,19.36,12.94,2.04.06,4.06-.15,5.99-.64,8.29-2.06,17.06-2.06,25.36,0,1.72.43,3.5.65,5.31.65.22,0,.45,0,.68-.01,8.54-.25,15.94-5.49,19.34-12.89.01,1.52,0,2.89-.04,3.65-.14,2.74-.85,5.38-2.1,7.85-.25.49-.06,1.09.44,1.34.14.07.3.11.45.11.36,0,.71-.2.89-.55,1.39-2.71,2.17-5.62,2.32-8.65.13-2.44-.05-10.63-.06-10.98ZM83,43c0-1.44,1.02-2.64,2.38-2.93.48,1.91.69,3.9.59,5.93-1.61,0-2.97-1.36-2.97-3ZM70,30c-2.76,0-5,2.24-5,5s2.24,5,5,5,5-2.24,5-5-2.24-5-5-5ZM70,38c-1.65,0-3-1.35-3-3s1.35-3,3-3,3,1.35,3,3-1.35,3-3,3ZM48,47c-2.76,0-5,2.24-5,5s2.24,5,5,5,5-2.24,5-5-2.24-5-5-5ZM48,55c-1.65,0-3-1.35-3-3s1.35-3,3-3,3,1.35,3,3-1.35,3-3,3ZM34,31.17c-2.76,0-5,2.24-5,5s2.24,5,5,5,5-2.24,5-5-2.24-5-5-5ZM34,39.17c-1.65,0-3-1.35-3-3s1.35-3,3-3,3,1.34,3,3-1.35,3-3,3ZM70.89,49.79c-.58-.89-1.49-1.5-2.53-1.71-1.05-.21-2.12-.01-3.01.58-.89.59-1.5,1.49-1.71,2.54-.21,1.05-.01,2.12.58,3.01.59.89,1.49,1.5,2.54,1.71.27.05.54.08.81.08.77,0,1.53-.23,2.2-.66.89-.59,1.5-1.5,1.71-2.54.21-1.05,0-2.12-.59-3.01ZM69.52,52.4c-.11.52-.41.97-.86,1.27-.44.29-.98.4-1.5.29-.52-.11-.97-.41-1.27-.86-.29-.44-.4-.98-.29-1.5.19-.95,1.03-1.6,1.96-1.6.13,0,.26.01.4.04.95.19,1.6,1.03,1.6,1.96,0,.13-.01.27-.04.4ZM56.68,34.79c-.59-.89-1.49-1.5-2.53-1.71-2.16-.44-4.28.96-4.72,3.12-.22,1.05-.01,2.12.58,3.01.59.89,1.49,1.5,2.54,1.71.27.05.54.08.81.08.77,0,1.53-.23,2.19-.66.9-.59,1.5-1.49,1.72-2.54.21-1.05,0-2.12-.59-3.01ZM55.31,37.4c-.11.52-.41.97-.86,1.27-.45.29-.98.4-1.5.29-.53-.11-.98-.41-1.27-.86-.3-.44-.4-.98-.29-1.5.19-.95,1.03-1.6,1.96-1.6.13,0,.26.01.4.04.52.11.97.41,1.27.86.22.33.33.71.33,1.11,0,.13,0,.26-.04.39ZM33.34,52.79c-.59-.89-1.49-1.5-2.54-1.71-2.17-.44-4.28.96-4.72,3.12-.21,1.05-.01,2.12.58,3.01.59.89,1.49,1.5,2.54,1.71.27.05.54.08.81.08.77,0,1.53-.22,2.2-.66.89-.59,1.5-1.49,1.71-2.54.21-1.05.01-2.11-.58-3.01ZM31.96,55.4c-.22,1.08-1.28,1.78-2.36,1.56-1.08-.22-1.78-1.28-1.56-2.36.19-.95,1.03-1.6,1.96-1.6.13,0,.27.01.4.04.52.11.97.41,1.27.86.29.44.4.98.29,1.5ZM22.42,42.62c-.59-.89-1.49-1.5-2.54-1.71-1.04-.21-2.11-.01-3,.58s-1.5,1.49-1.71,2.54c-.22,1.05-.01,2.11.58,3,.59.9,1.49,1.5,2.54,1.72.27.05.54.08.8.08.78,0,1.54-.23,2.2-.67.89-.59,1.5-1.49,1.71-2.53.22-1.05.01-2.12-.58-3.01ZM21.04,45.23c-.1.52-.41.97-.85,1.27-.45.29-.98.39-1.5.29-.53-.11-.98-.41-1.27-.86-.3-.44-.4-.98-.3-1.5.11-.53.42-.98.86-1.27.33-.22.71-.33,1.1-.33.13,0,.27,0,.4.04.53.1.98.41,1.27.85.3.45.4.98.29,1.51Z"/><path class="cls-4" d="M37.91,22.72c0,4.07-3.31,7.39-7.39,7.39-1.13,0-2.24-.26-3.25-.75-1.39,1.74-3.48,2.75-5.75,2.75-.74,0-1.47-.11-2.17-.33-1.04,2.9-3.8,4.89-6.96,4.89-4.07,0-7.39-3.31-7.39-7.39,0-2.05.88-4.03,2.38-5.42-.37-.88-.55-1.84-.55-2.79,0-4.08,3.31-7.4,7.39-7.4,1.15,0,2.26.27,3.28.77,1.37-1.94,3.6-3.11,6.02-3.11,2.81,0,5.31,1.55,6.57,4.01.15,0,.29,0,.43,0,4.08,0,7.39,3.31,7.39,7.39Z"/><path class="cls-4" d="M88.62,77.75c.36.88.55,1.83.55,2.8,0,4.07-3.32,7.39-7.39,7.39-1.15,0-2.27-.27-3.28-.77-1.38,1.94-3.6,3.12-6.03,3.12-2.81,0-5.31-1.56-6.57-4.02-.15.01-.29.02-.43.02-4.08,0-7.39-3.32-7.39-7.4s3.31-7.39,7.39-7.39c1.14,0,2.24.26,3.25.76,1.4-1.74,3.48-2.76,5.75-2.76.74,0,1.47.11,2.18.33,1.03-2.89,3.79-4.89,6.95-4.89,4.08,0,7.39,3.31,7.39,7.39,0,2.06-.87,4.03-2.37,5.42Z"/></svg>