<?xml version="1.0" encoding="UTF-8"?><svg id="Greeny" xmlns="http://www.w3.org/2000/svg" xmlns:xlink="http://www.w3.org/1999/xlink" viewBox="0 0 96 96"><defs><style>.cls-1{fill:none;}.cls-1,.cls-2,.cls-3,.cls-4,.cls-5,.cls-6,.cls-7,.cls-8,.cls-9{stroke-width:0px;}.cls-2{fill:url(#New_Pattern_Swatch_5);}.cls-3{fill:url(#New_Pattern_Swatch_3);}.cls-4{fill:url(#New_Pattern_Swatch_2);}.cls-5{fill:url(#New_Pattern_Swatch_4);}.cls-6{fill:#2faf96;}.cls-7{fill:#1feab0;}.cls-8{fill:#b3ffde;}.cls-9{fill:#008887;}</style><pattern id="New_Pattern_Swatch_2" x="0" y="0" width="39.26" height="39.26" patternTransform="translate(-204 -2580)" patternUnits="userSpaceOnUse" viewBox="0 0 39.26 39.26"><rect class="cls-1" x="0" y="0" width="39.26" height="39.26"/><rect class="cls-6" x="0" y="0" width="39.26" height="39.26"/></pattern><pattern id="New_Pattern_Swatch_3" x="0" y="0" width="39.26" height="39.26" patternTransform="translate(-204 -2580)" patternUnits="userSpaceOnUse" viewBox="0 0 39.26 39.26"><rect class="cls-1" x="0" y="0" width="39.26" height="39.26"/><rect class="cls-7" x="0" y="0" width="39.26" height="39.26"/></pattern><pattern id="New_Pattern_Swatch_4" x="0" y="0" width="39.26" height="39.26" patternTransform="translate(-204 -2580)" patternUnits="userSpaceOnUse" viewBox="0 0 39.26 39.26"><rect class="cls-1" y="0" width="39.26" height="39.26"/><rect class="cls-8" x="0" y="0" width="39.26" height="39.26"/></pattern><pattern id="New_Pattern_Swatch_5" x="0" y="0" width="39.26" height="39.26" patternTransform="translate(-204 -2580)" patternUnits="userSpaceOnUse" viewBox="0 0 39.26 39.26"><rect class="cls-1" x="0" y="0" width="39.26" height="39.26"/><rect class="cls-9" x="0" y="0" width="39.26" height="39.26"/></pattern></defs><path class="cls-4" d="M41.93,10.91C21.57,10.91,5,27.48,5,47.84s16.57,36.94,36.93,36.94c7.06,0,13.65-1.99,19.26-5.42,1.14-.71,2.25-1.47,3.3-2.29-1.73.8-3.82.46-5.22-.93-.67-.67-1.12-1.51-1.29-2.44-.05-.28-.22-.53-.47-.68-.24-.15-.54-.18-.82-.09-1.64.53-3.41.13-4.64-1.06-.03-.02-.06-.05-.09-.08-1.35-1.34-1.74-3.42-.97-5.18.19-.42.06-.92-.31-1.2l-.06-.04c-.14-.13-.3-.19-.48-.23-.06-.01-.13-.01-.2-.02-.91.03-1.8-.24-2.57-.73-1.25-.81-2.03-2.14-2.12-3.64-.03-.5-.43-.9-.92-.94-.79-.06-1.55-.31-2.21-.73-1.04-.67-1.77-1.71-2.03-2.93-.26-1.22-.03-2.47.64-3.52.52-.8,1.25-1.41,2.11-1.76.27-.11.47-.33.57-.61.09-.27.06-.57-.08-.82-.87-1.52-.83-3.38.11-4.86,1.04-1.61,3-2.43,4.86-2.03.46.09.93-.14,1.12-.57.11-.25.23-.49.36-.7,1.4-2.16,4.3-2.79,6.46-1.39.77.5,1.37,1.21,1.73,2.05-1.49.62-2.89,1.49-4.12,2.64-5.18,4.83-5.81,12.97-1.42,18.55.04.05.08.1.12.15.77.95,1.64,1.78,2.58,2.46,1.06.78,2.07,1.61,3.02,2.5,2.66,2.48,4.84,5.4,6.51,8.69.54-.42,1.07-.85,1.59-1.31,5.74-5.03,9.91-11.81,11.67-19.5.2-.86.37-1.74.5-2.62.29-1.85.44-3.74.44-5.66,0-20.36-16.56-36.93-36.93-36.93ZM33.13,43.58c0-.65.53-1.18,1.18-1.18s1.18.53,1.18,1.18-.53,1.18-1.18,1.18-1.18-.53-1.18-1.18ZM38.75,33.69c0-.65.53-1.18,1.18-1.18s1.18.53,1.18,1.18-.53,1.18-1.18,1.18-1.18-.53-1.18-1.18Z"/><path class="cls-3" d="M67.68,43.76c-1.36-8.69-7.02-15.95-14.74-19.54-3.34-1.57-7.08-2.44-11.01-2.44-14.39,0-26.07,11.67-26.07,26.06,0,7.7,3.34,14.61,8.64,19.38,4.62,4.16,10.73,6.69,17.43,6.69,3.59,0,7.01-.73,10.12-2.04-.03-.02-.06-.05-.09-.08-1.35-1.34-1.74-3.42-.97-5.18.19-.42.06-.92-.31-1.2l-.06-.04c-.14-.13-.3-.19-.48-.23-.06-.01-.13-.01-.2-.02-.91.03-1.8-.24-2.57-.73-1.25-.81-2.03-2.14-2.12-3.64-.03-.5-.43-.9-.92-.94-.79-.06-1.55-.31-2.21-.73-1.04-.67-1.77-1.71-2.03-2.93-.26-1.22-.03-2.47.64-3.52.52-.8,1.25-1.41,2.11-1.76.27-.11.47-.33.57-.61.09-.27.06-.57-.08-.82-.87-1.52-.83-3.38.11-4.86,1.04-1.61,3-2.43,4.86-2.03.46.09.93-.14,1.12-.57.11-.25.23-.49.36-.7,1.4-2.16,4.3-2.79,6.46-1.39.77.5,1.37,1.21,1.73,2.05-1.49.62-2.89,1.49-4.12,2.64-5.18,4.83-5.81,12.97-1.42,18.55.04.05.08.1.12.15.77.95,1.64,1.78,2.58,2.46,1.06.78,2.07,1.61,3.02,2.5.53-.41,1.04-.85,1.53-1.31,5.12-4.76,8.32-11.55,8.32-19.09,0-1.39-.11-2.75-.32-4.08ZM35.49,43.58c0,.65-.53,1.18-1.18,1.18s-1.18-.53-1.18-1.18.53-1.18,1.18-1.18,1.18.53,1.18,1.18ZM38.75,33.69c0-.65.53-1.18,1.18-1.18s1.18.53,1.18,1.18-.53,1.18-1.18,1.18-1.18-.53-1.18-1.18Z"/><path class="cls-5" d="M61.54,43c0-.68-.04-1.34-.11-2-.53-5.43-2.73-10.36-6.08-14.29-.74-.88-1.55-1.72-2.41-2.49-3.34-1.57-7.08-2.44-11.01-2.44-14.39,0-26.07,11.67-26.07,26.06,0,7.7,3.34,14.61,8.64,19.38,1.03.48,2.09.89,3.18,1.23,2.46.78,5.09,1.2,7.81,1.2,4.34,0,8.44-1.06,12.04-2.95.9-.47,1.78-.99,2.61-1.56-.06-.01-.13-.01-.2-.02-.91.03-1.8-.24-2.57-.73-1.25-.81-2.03-2.14-2.12-3.64-.03-.5-.43-.9-.92-.94-.79-.06-1.55-.31-2.21-.73-1.04-.67-1.77-1.71-2.03-2.93-.26-1.22-.03-2.47.64-3.52.52-.8,1.25-1.41,2.11-1.76.27-.11.47-.33.57-.61.09-.27.06-.57-.08-.82-.87-1.52-.83-3.38.11-4.86,1.04-1.61,3-2.43,4.86-2.03.46.09.93-.14,1.12-.57.11-.25.23-.49.36-.7,1.4-2.16,4.3-2.79,6.46-1.39.77.5,1.37,1.21,1.73,2.05-1.49.62-2.89,1.49-4.12,2.64-5.18,4.83-5.81,12.97-1.42,18.55.04.05.08.1.12.15.51-.43,1-.89,1.47-1.37,4.66-4.71,7.54-11.18,7.54-18.33,0-.19,0-.39-.02-.58ZM34.31,44.76c-.65,0-1.18-.53-1.18-1.18s.53-1.18,1.18-1.18,1.18.53,1.18,1.18-.53,1.18-1.18,1.18ZM39.93,32.51c.65,0,1.18.53,1.18,1.18s-.53,1.18-1.18,1.18-1.18-.53-1.18-1.18.53-1.18,1.18-1.18Z"/><path class="cls-3" d="M84.9,81.57c-2.82,2.12-6.32,2.88-9.63,2.36-2.83-.44-5.52-1.82-7.53-4.08-.79-.9-1.44-1.87-1.94-2.9-2.34-4.78-5.77-8.88-10.08-12.02-.92-.67-1.76-1.48-2.51-2.42-4.05-5.15-3.48-12.73,1.32-17.2,1.95-1.81,4.3-2.89,6.72-3.27h.01c4.26-.67,8.76.85,11.74,4.4.74.89,1.34,1.85,1.81,2.86,2.14,4.65,5.52,8.68,9.72,11.61.91.63,1.75,1.39,2.49,2.28,4.67,5.57,3.76,13.95-2.12,18.38Z"/><path class="cls-5" d="M80.9,81.57c-1.69,1.27-3.63,2.06-5.63,2.36-2.83-.44-5.52-1.82-7.53-4.08-.79-.9-1.44-1.87-1.94-2.9-2.34-4.78-5.77-8.88-10.08-12.02-.92-.67-1.76-1.48-2.51-2.42-4.05-5.15-3.48-12.73,1.32-17.2,1.95-1.81,4.3-2.89,6.72-3.27h.01c2.92.47,5.69,1.95,7.74,4.4.74.89,1.34,1.85,1.81,2.86,2.14,4.65,5.52,8.68,9.72,11.61.91.63,1.75,1.39,2.49,2.28,4.67,5.57,3.76,13.95-2.12,18.38Z"/><path class="cls-2" d="M39.93,30.51c-1.75,0-3.18,1.43-3.18,3.18s1.43,3.18,3.18,3.18,3.18-1.43,3.18-3.18-1.43-3.18-3.18-3.18ZM39.93,34.87c-.65,0-1.18-.53-1.18-1.18s.53-1.18,1.18-1.18,1.18.53,1.18,1.18-.53,1.18-1.18,1.18ZM34.31,40.4c-1.75,0-3.18,1.43-3.18,3.18s1.43,3.18,3.18,3.18,3.18-1.43,3.18-3.18-1.43-3.18-3.18-3.18ZM34.31,44.76c-.65,0-1.18-.53-1.18-1.18s.53-1.18,1.18-1.18,1.18.53,1.18,1.18-.53,1.18-1.18,1.18ZM87.01,61.71c-.46-.48-.97-.93-1.5-1.32-.45-.32-1.07-.22-1.4.22-.32.45-.23,1.07.22,1.4.44.32.86.68,1.24,1.08.19.21.46.31.72.31s.5-.09.69-.28c.4-.38.41-1.01.03-1.41ZM39.93,30.51c-1.75,0-3.18,1.43-3.18,3.18s1.43,3.18,3.18,3.18,3.18-1.43,3.18-3.18-1.43-3.18-3.18-3.18ZM39.93,34.87c-.65,0-1.18-.53-1.18-1.18s.53-1.18,1.18-1.18,1.18.53,1.18,1.18-.53,1.18-1.18,1.18ZM34.31,40.4c-1.75,0-3.18,1.43-3.18,3.18s1.43,3.18,3.18,3.18,3.18-1.43,3.18-3.18-1.43-3.18-3.18-3.18ZM34.31,44.76c-.65,0-1.18-.53-1.18-1.18s.53-1.18,1.18-1.18,1.18.53,1.18,1.18-.53,1.18-1.18,1.18ZM34.31,40.4c-1.75,0-3.18,1.43-3.18,3.18s1.43,3.18,3.18,3.18,3.18-1.43,3.18-3.18-1.43-3.18-3.18-3.18ZM34.31,44.76c-.65,0-1.18-.53-1.18-1.18s.53-1.18,1.18-1.18,1.18.53,1.18,1.18-.53,1.18-1.18,1.18ZM39.93,30.51c-1.75,0-3.18,1.43-3.18,3.18s1.43,3.18,3.18,3.18,3.18-1.43,3.18-3.18-1.43-3.18-3.18-3.18ZM39.93,34.87c-.65,0-1.18-.53-1.18-1.18s.53-1.18,1.18-1.18,1.18.53,1.18,1.18-.53,1.18-1.18,1.18ZM39.93,30.51c-1.75,0-3.18,1.43-3.18,3.18s1.43,3.18,3.18,3.18,3.18-1.43,3.18-3.18-1.43-3.18-3.18-3.18ZM39.93,34.87c-.65,0-1.18-.53-1.18-1.18s.53-1.18,1.18-1.18,1.18.53,1.18,1.18-.53,1.18-1.18,1.18ZM34.31,40.4c-1.75,0-3.18,1.43-3.18,3.18s1.43,3.18,3.18,3.18,3.18-1.43,3.18-3.18-1.43-3.18-3.18-3.18ZM34.31,44.76c-.65,0-1.18-.53-1.18-1.18s.53-1.18,1.18-1.18,1.18.53,1.18,1.18-.53,1.18-1.18,1.18ZM89.33,64.81c-.27-.48-.87-.66-1.36-.4-.48.27-.66.87-.4,1.36,2.76,5.07,1.36,11.52-3.27,15-4.84,3.64-11.78,2.94-15.81-1.58-.73-.83-1.33-1.73-1.79-2.68-.15-.3-.3-.6-.45-.89-1.72-3.28-3.92-6.19-6.57-8.69-1.05-1.01-2.18-1.94-3.37-2.81-.84-.61-1.62-1.36-2.29-2.21t-.02-.02c-3.75-4.76-3.22-11.72,1.21-15.85,1.79-1.66,3.98-2.7,6.33-3.04.79-.12,1.6-.15,2.42-.1,1.3.08,2.55.37,3.72.86,1.75.7,3.3,1.83,4.55,3.32.67.8,1.23,1.69,1.67,2.64,1.05,2.28,2.4,4.44,4.02,6.4,1.04,1.28,2.19,2.47,3.43,3.56.42.37,1.05.32,1.41-.09.37-.42.32-1.05-.09-1.41-1.58-1.39-3.02-2.97-4.25-4.68-1.05-1.45-1.96-3-2.7-4.62-.52-1.11-1.18-2.15-1.95-3.08-1.5-1.79-3.37-3.12-5.46-3.95-2.77-12.24-13.76-21.07-26.38-21.07-14.93,0-27.07,12.14-27.07,27.06s12.14,27.07,27.07,27.07c3.04,0,6.01-.52,8.85-1.5,1.5,1.37,3.51,1.98,5.51,1.67.32.92.86,1.77,1.56,2.48.94.94,2.11,1.54,3.34,1.8.45.09.91.14,1.37.14,1.07,0,2.13-.26,3.1-.77.39.62.83,1.22,1.33,1.78,2.69,3.03,6.48,4.59,10.3,4.59,2.88,0,5.77-.9,8.21-2.73,5.42-4.08,7.06-11.63,3.83-17.56ZM64.08,40.91c-.89-.06-1.78-.02-2.65.09-.53.07-1.05.17-1.56.3-.51-1.26-1.39-2.34-2.55-3.09-3.08-1.99-7.22-1.1-9.23,2.01-.05.08-.1.16-.15.26-2.43-.22-4.84.94-6.18,3.02-1.16,1.81-1.37,4.03-.62,5.99-.83.51-1.54,1.21-2.09,2.06-.96,1.5-1.29,3.28-.91,5.02.37,1.74,1.4,3.23,2.9,4.19.71.45,1.5.77,2.32.93.33,1.79,1.39,3.39,2.93,4.38.4.25.81.46,1.24.63.4.15.81.26,1.23.33-.36,1.6-.1,3.29.69,4.71-2.43.76-4.95,1.17-7.52,1.17-5.29,0-10.2-1.65-14.25-4.46-6.53-4.53-10.82-12.08-10.82-20.61,0-13.82,11.25-25.06,25.07-25.06,4.88,0,9.5,1.43,13.42,3.93,5.14,3.27,9.06,8.38,10.74,14.49-.66-.14-1.32-.25-2.01-.29ZM64.49,77.07c-1.73.8-3.82.46-5.22-.93-.67-.67-1.12-1.51-1.29-2.44-.05-.28-.22-.53-.47-.68-.24-.15-.54-.18-.82-.09-1.64.53-3.41.13-4.64-1.06-.03-.02-.06-.05-.09-.08-1.35-1.34-1.74-3.42-.97-5.18.19-.42.06-.92-.31-1.2l-.06-.04c-.14-.13-.3-.19-.48-.23-.06-.01-.13-.01-.2-.02-.91.03-1.8-.24-2.57-.73-1.25-.81-2.03-2.14-2.12-3.64-.03-.5-.43-.9-.92-.94-.79-.06-1.55-.31-2.21-.73-1.04-.67-1.77-1.71-2.03-2.93-.26-1.22-.03-2.47.64-3.52.52-.8,1.25-1.41,2.11-1.76.27-.11.47-.33.57-.61.09-.27.06-.57-.08-.82-.87-1.52-.83-3.38.11-4.86,1.04-1.61,3-2.43,4.86-2.03.46.09.93-.14,1.12-.57.11-.25.23-.49.36-.7,1.4-2.16,4.3-2.79,6.46-1.39.77.5,1.37,1.21,1.73,2.05-1.49.62-2.89,1.49-4.12,2.64-5.18,4.83-5.81,12.97-1.42,18.55.04.05.08.1.12.15.77.95,1.64,1.78,2.58,2.46,1.06.78,2.07,1.61,3.02,2.5,2.66,2.48,4.84,5.4,6.51,8.69.01.02.02.03.03.05-.07.03-.13.07-.2.09ZM39.93,30.51c-1.75,0-3.18,1.43-3.18,3.18s1.43,3.18,3.18,3.18,3.18-1.43,3.18-3.18-1.43-3.18-3.18-3.18ZM39.93,34.87c-.65,0-1.18-.53-1.18-1.18s.53-1.18,1.18-1.18,1.18.53,1.18,1.18-.53,1.18-1.18,1.18ZM34.31,40.4c-1.75,0-3.18,1.43-3.18,3.18s1.43,3.18,3.18,3.18,3.18-1.43,3.18-3.18-1.43-3.18-3.18-3.18ZM34.31,44.76c-.65,0-1.18-.53-1.18-1.18s.53-1.18,1.18-1.18,1.18.53,1.18,1.18-.53,1.18-1.18,1.18ZM34.31,40.4c-1.75,0-3.18,1.43-3.18,3.18s1.43,3.18,3.18,3.18,3.18-1.43,3.18-3.18-1.43-3.18-3.18-3.18ZM34.31,44.76c-.65,0-1.18-.53-1.18-1.18s.53-1.18,1.18-1.18,1.18.53,1.18,1.18-.53,1.18-1.18,1.18ZM39.93,30.51c-1.75,0-3.18,1.43-3.18,3.18s1.43,3.18,3.18,3.18,3.18-1.43,3.18-3.18-1.43-3.18-3.18-3.18ZM39.93,34.87c-.65,0-1.18-.53-1.18-1.18s.53-1.18,1.18-1.18,1.18.53,1.18,1.18-.53,1.18-1.18,1.18ZM39.93,30.51c-1.75,0-3.18,1.43-3.18,3.18s1.43,3.18,3.18,3.18,3.18-1.43,3.18-3.18-1.43-3.18-3.18-3.18ZM39.93,34.87c-.65,0-1.18-.53-1.18-1.18s.53-1.18,1.18-1.18,1.18.53,1.18,1.18-.53,1.18-1.18,1.18ZM34.31,40.4c-1.75,0-3.18,1.43-3.18,3.18s1.43,3.18,3.18,3.18,3.18-1.43,3.18-3.18-1.43-3.18-3.18-3.18ZM34.31,44.76c-.65,0-1.18-.53-1.18-1.18s.53-1.18,1.18-1.18,1.18.53,1.18,1.18-.53,1.18-1.18,1.18Z"/></svg>