<?xml version="1.0" encoding="UTF-8"?><svg id="Greeny" xmlns="http://www.w3.org/2000/svg" xmlns:xlink="http://www.w3.org/1999/xlink" viewBox="0 0 96 96"><defs><style>.cls-1{fill:none;}.cls-1,.cls-2,.cls-3,.cls-4,.cls-5,.cls-6,.cls-7,.cls-8,.cls-9{stroke-width:0px;}.cls-2{fill:url(#New_Pattern_Swatch_5);}.cls-3{fill:url(#New_Pattern_Swatch_3);}.cls-4{fill:url(#New_Pattern_Swatch_2);}.cls-5{fill:url(#New_Pattern_Swatch_4);}.cls-6{fill:#2faf96;}.cls-7{fill:#1feab0;}.cls-8{fill:#b3ffde;}.cls-9{fill:#008887;}</style><pattern id="New_Pattern_Swatch_5" x="0" y="0" width="39.26" height="39.26" patternTransform="translate(-400 -2580)" patternUnits="userSpaceOnUse" viewBox="0 0 39.26 39.26"><rect class="cls-1" x="0" y="0" width="39.26" height="39.26"/><rect class="cls-9" x="0" y="0" width="39.26" height="39.26"/></pattern><pattern id="New_Pattern_Swatch_3" x="0" y="0" width="39.26" height="39.26" patternTransform="translate(-400 -2580)" patternUnits="userSpaceOnUse" viewBox="0 0 39.26 39.26"><rect class="cls-1" x="0" y="0" width="39.26" height="39.26"/><rect class="cls-7" x="0" y="0" width="39.26" height="39.26"/></pattern><pattern id="New_Pattern_Swatch_4" x="0" y="0" width="39.26" height="39.26" patternTransform="translate(-400 -2580)" patternUnits="userSpaceOnUse" viewBox="0 0 39.26 39.26"><rect class="cls-1" y="0" width="39.26" height="39.26"/><rect class="cls-8" x="0" y="0" width="39.26" height="39.26"/></pattern><pattern id="New_Pattern_Swatch_2" x="0" y="0" width="39.26" height="39.26" patternTransform="translate(-400 -2580)" patternUnits="userSpaceOnUse" viewBox="0 0 39.26 39.26"><rect class="cls-1" x="0" y="0" width="39.26" height="39.26"/><rect class="cls-6" x="0" y="0" width="39.26" height="39.26"/></pattern></defs><path class="cls-2" d="M69.24,13.76l-2-4c-.85-1.7-2.57-2.76-4.47-2.76h-5.95c-.41-1.16-1.51-2-2.82-2h-12c-1.65,0-3,1.35-3,3v4c0,1.65,1.35,3,3,3h2v6c0,.55.45,1,1,1h6c.55,0,1-.45,1-1v-6h2c1.3,0,2.4-.84,2.82-2h5.33l1.72,3.45c.24.48.65.83,1.16,1,.21.07.42.1.63.1.31,0,.61-.07.89-.21l1.79-.89c.99-.49,1.39-1.7.89-2.68ZM50,20h-4v-5h4v5ZM54,13h-12c-.55,0-1-.45-1-1v-4c0-.55.45-1,1-1h12c.55,0,1,.45,1,1v4c0,.55-.45,1-1,1ZM65.66,15.55h0s-2-4-2-4c-.17-.34-.52-.55-.89-.55h-5.76v-2h5.76c1.14,0,2.17.64,2.68,1.66l2,4-1.79.9Z"/><path class="cls-3" d="M59.58,30.62c-1.7-.9-3.64-1.42-5.7-1.42h-11.76c-6.69,0-12.12,5.43-12.12,12.12v42.68c0,.31.02.62.08.92.43,2.87,2.92,5.08,5.92,5.08h24c3.31,0,6-2.69,6-6v-42.68c0-4.63-2.6-8.66-6.42-10.7ZM52,62c0,2.21-1.79,4-4,4s-4-1.79-4-4c0-1.54,2.2-5.43,4-8.2,1.8,2.77,4,6.66,4,8.2Z"/><path class="cls-5" d="M60.28,32.24c-.19-.56-.43-1.1-.7-1.62-1.7-.9-3.64-1.42-5.7-1.42h-11.76c-6.69,0-12.12,5.43-12.12,12.12v42.68c0,.31.02.62.08.92.3.06.61.08.92.08h20c4.83,0,8.87-3.44,9.8-8,.13-.64.2-1.31.2-2v-38.68c0-1.43-.25-2.81-.72-4.08ZM44,62c0-1.54,2.2-5.43,4-8.2,1.8,2.77,4,6.66,4,8.2,0,2.21-1.79,4-4,4s-4-1.79-4-4Z"/><path class="cls-4" d="M56,23v6c0,.55-.45,1-1,1h-14c-.55,0-1-.45-1-1v-6c0-1.65,1.35-3,3-3h10c1.65,0,3,1.35,3,3Z"/><path class="cls-2" d="M66,58.1c-.55,0-1,.45-1,1v1.8c0,.55.45,1,1,1s1-.45,1-1v-1.8c0-.55-.45-1-1-1ZM48.82,51.43c-.37-.54-1.27-.54-1.64,0-.53.77-5.18,7.58-5.18,10.57,0,3.31,2.69,6,6,6s6-2.69,6-6c0-2.99-4.65-9.8-5.18-10.57ZM48,66c-2.21,0-4-1.79-4-4,0-1.54,2.2-5.43,4-8.2,1.8,2.77,4,6.66,4,8.2,0,2.21-1.79,4-4,4ZM66,56.5c.55,0,1-.45,1-1v-14.18c0-7.23-5.89-13.12-13.12-13.12h-11.76c-7.23,0-13.12,5.89-13.12,13.12v42.68c0,3.86,3.14,7,7,7h24c3.86,0,7-3.14,7-7v-19.5c0-.55-.45-1-1-1s-1,.45-1,1v10.5H31v-31h34v11.5c0,.55.45,1,1,1ZM65,77v7c0,2.76-2.24,5-5,5h-24c-2.42,0-4.44-1.72-4.9-4-.07-.32-.1-.66-.1-1v-7h34ZM31,42v-.68c0-6.13,4.99-11.12,11.12-11.12h11.76c2.38,0,4.59.75,6.4,2.04,2.85,2.01,4.72,5.33,4.72,9.08v.68H31Z"/></svg>