<?xml version="1.0" encoding="UTF-8"?><svg id="Greeny" xmlns="http://www.w3.org/2000/svg" xmlns:xlink="http://www.w3.org/1999/xlink" viewBox="0 0 96 96"><defs><style>.cls-1{fill:none;}.cls-1,.cls-2,.cls-3,.cls-4,.cls-5,.cls-6,.cls-7,.cls-8,.cls-9{stroke-width:0px;}.cls-2{fill:url(#New_Pattern_Swatch_5);}.cls-3{fill:url(#New_Pattern_Swatch_3);}.cls-4{fill:url(#New_Pattern_Swatch_2);}.cls-5{fill:url(#New_Pattern_Swatch_4);}.cls-6{fill:#2faf96;}.cls-7{fill:#1feab0;}.cls-8{fill:#b3ffde;}.cls-9{fill:#008887;}</style><pattern id="New_Pattern_Swatch_5" x="0" y="0" width="39.26" height="39.26" patternTransform="translate(-596 -2580)" patternUnits="userSpaceOnUse" viewBox="0 0 39.26 39.26"><rect class="cls-1" x="0" y="0" width="39.26" height="39.26"/><rect class="cls-9" x="0" y="0" width="39.26" height="39.26"/></pattern><pattern id="New_Pattern_Swatch_2" x="0" y="0" width="39.26" height="39.26" patternTransform="translate(-596 -2580)" patternUnits="userSpaceOnUse" viewBox="0 0 39.26 39.26"><rect class="cls-1" x="0" y="0" width="39.26" height="39.26"/><rect class="cls-6" x="0" y="0" width="39.26" height="39.26"/></pattern><pattern id="New_Pattern_Swatch_3" x="0" y="0" width="39.26" height="39.26" patternTransform="translate(-596 -2580)" patternUnits="userSpaceOnUse" viewBox="0 0 39.26 39.26"><rect class="cls-1" x="0" y="0" width="39.26" height="39.26"/><rect class="cls-7" x="0" y="0" width="39.26" height="39.26"/></pattern><pattern id="New_Pattern_Swatch_4" x="0" y="0" width="39.26" height="39.26" patternTransform="translate(-596 -2580)" patternUnits="userSpaceOnUse" viewBox="0 0 39.26 39.26"><rect class="cls-1" y="0" width="39.26" height="39.26"/><rect class="cls-8" x="0" y="0" width="39.26" height="39.26"/></pattern></defs><path class="cls-2" d="M66,5h-21c-7.17,0-13,5.83-13,13v3.07c0,.55.45,1,1,1s1-.45,1-1v-3.07c0-6.07,4.93-11,11-11h21c6.07,0,11,4.93,11,11v71h-4V18c0-3.86-3.14-7-7-7h-21c-3.86,0-7,3.14-7,7v3.07c0,.55.45,1,1,1s1-.45,1-1v-3.07c0-2.76,2.24-5,5-5h21c2.76,0,5,2.24,5,5v45h-4v-2c0-1.1-.9-2-2-2h-2c-1.1,0-2,.9-2,2v10c0,1.1.9,2,2,2h2c1.1,0,2-.9,2-2v-2h4v21c0,.55.45,1,1,1h6c.55,0,1-.45,1-1V18c0-7.17-5.83-13-13-13ZM63,71v-10h2v3s0,0,0,0v4s0,0,0,0v2.99s-2,0-2,0ZM70,67h-3v-2h3v2Z"/><path class="cls-4" d="M41.5,23v4c0,.55-.45,1-1,1h-9c-.55,0-1-.45-1-1v-4c0-1.65,1.35-3,3-3h5c1.65,0,3,1.35,3,3Z"/><path class="cls-3" d="M49,39v3h-26v-3c0-.34.01-.67.05-1,.5-6.71,6.11-12,12.95-12,2.57,0,4.96.75,6.97,2.03.81.51,1.55,1.11,2.22,1.78,2.35,2.35,3.81,5.6,3.81,9.19Z"/><path class="cls-5" d="M45,35c0,.83-.34,1.58-.88,2.12-.54.54-1.29.88-2.12.88h-18.95c.5-6.71,6.11-12,12.95-12,2.57,0,4.96.75,6.97,2.03,1.28,2.01,2.03,4.4,2.03,6.97Z"/><path class="cls-2" d="M48,35c-.39,0-.77-.23-.93-.62-.22-.53-.47-1.02-.74-1.46-.29-.47-.15-1.08.32-1.38.47-.29,1.08-.15,1.38.32.33.53.64,1.13.9,1.76.21.51-.03,1.09-.54,1.3-.12.05-.25.08-.38.08ZM50,42v-3c0-.55-.03-1.09-.1-1.62-.07-.55-.57-.95-1.11-.87-.55.07-.94.57-.87,1.11.05.45.08.91.08,1.38v2h-24v-2c0-6.62,5.38-12,12-12,3.01,0,5.89,1.12,8.1,3.16.41.38,1.04.35,1.41-.06.37-.41.35-1.04-.06-1.41-2.59-2.38-5.95-3.68-9.46-3.68-7.72,0-14,6.28-14,14v3c0,.55.45,1,1,1h26c.55,0,1-.45,1-1Z"/><rect class="cls-4" x="18" y="41" width="36" height="8" rx="3" ry="3"/><path class="cls-4" d="M36,57c-.55,0-1-.45-1-1v-2c0-.55.45-1,1-1s1,.45,1,1v2c0,.55-.45,1-1,1Z"/><path class="cls-4" d="M36,64c-.55,0-1-.45-1-1v-2c0-.55.45-1,1-1s1,.45,1,1v2c0,.55-.45,1-1,1Z"/><path class="cls-4" d="M36,71c-.55,0-1-.45-1-1v-2c0-.55.45-1,1-1s1,.45,1,1v2c0,.55-.45,1-1,1Z"/><path class="cls-4" d="M36,78c-.55,0-1-.45-1-1v-2c0-.55.45-1,1-1s1,.45,1,1v2c0,.55-.45,1-1,1Z"/><path class="cls-4" d="M28.35,56.73c-.07,0-.14,0-.21-.02-.54-.12-.89-.65-.77-1.19l.41-1.96c.11-.54.64-.89,1.19-.77.54.11.89.65.77,1.19l-.41,1.96c-.1.47-.51.79-.98.79Z"/><path class="cls-4" d="M26.9,63.58c-.07,0-.14,0-.21-.02-.54-.12-.89-.65-.77-1.19l.41-1.96c.11-.54.64-.88,1.19-.77.54.11.89.65.77,1.19l-.41,1.96c-.1.47-.51.79-.98.79Z"/><path class="cls-4" d="M25.45,70.43c-.07,0-.14,0-.21-.02-.54-.12-.89-.65-.77-1.19l.41-1.96c.11-.54.64-.89,1.19-.77.54.11.89.65.77,1.19l-.41,1.96c-.1.47-.51.79-.98.79Z"/><path class="cls-4" d="M24,77.27c-.07,0-.14,0-.21-.02-.54-.11-.89-.65-.77-1.19l.41-1.96c.12-.54.65-.88,1.19-.77.54.11.89.65.77,1.19l-.41,1.96c-.1.47-.52.79-.98.79Z"/><path class="cls-4" d="M43.65,56.73c-.46,0-.88-.32-.98-.79l-.41-1.96c-.11-.54.23-1.07.77-1.19.54-.11,1.07.23,1.19.77l.41,1.96c.11.54-.23,1.07-.77,1.19-.07.01-.14.02-.21.02Z"/><path class="cls-4" d="M45.1,63.58c-.46,0-.88-.32-.98-.79l-.41-1.96c-.11-.54.23-1.07.77-1.19.54-.11,1.07.23,1.19.77l.41,1.96c.11.54-.23,1.07-.77,1.19-.07.01-.14.02-.21.02Z"/><path class="cls-4" d="M46.55,70.43c-.46,0-.88-.32-.98-.79l-.41-1.96c-.11-.54.23-1.07.77-1.19.54-.11,1.07.23,1.19.77l.41,1.96c.11.54-.23,1.07-.77,1.19-.07.01-.14.02-.21.02Z"/><path class="cls-4" d="M48,77.27c-.46,0-.88-.32-.98-.79l-.41-1.96c-.11-.54.23-1.07.77-1.19.54-.11,1.07.23,1.19.77l.41,1.96c.11.54-.23,1.07-.77,1.19-.07.01-.14.02-.21.02Z"/></svg>