<?xml version="1.0" encoding="UTF-8"?><svg id="Greeny" xmlns="http://www.w3.org/2000/svg" xmlns:xlink="http://www.w3.org/1999/xlink" viewBox="0 0 96 96"><defs><style>.cls-1{fill:none;}.cls-1,.cls-2,.cls-3,.cls-4,.cls-5,.cls-6,.cls-7,.cls-8,.cls-9{stroke-width:0px;}.cls-2{fill:url(#New_Pattern_Swatch_5);}.cls-3{fill:url(#New_Pattern_Swatch_3);}.cls-4{fill:url(#New_Pattern_Swatch_2);}.cls-5{fill:url(#New_Pattern_Swatch_4);}.cls-6{fill:#2faf96;}.cls-7{fill:#1feab0;}.cls-8{fill:#b3ffde;}.cls-9{fill:#008887;}</style><pattern id="New_Pattern_Swatch_3" x="0" y="0" width="39.26" height="39.26" patternTransform="translate(-792 -2580)" patternUnits="userSpaceOnUse" viewBox="0 0 39.26 39.26"><rect class="cls-1" x="0" y="0" width="39.26" height="39.26"/><rect class="cls-7" x="0" y="0" width="39.26" height="39.26"/></pattern><pattern id="New_Pattern_Swatch_4" x="0" y="0" width="39.26" height="39.26" patternTransform="translate(-792 -2580)" patternUnits="userSpaceOnUse" viewBox="0 0 39.26 39.26"><rect class="cls-1" y="0" width="39.26" height="39.26"/><rect class="cls-8" x="0" y="0" width="39.26" height="39.26"/></pattern><pattern id="New_Pattern_Swatch_5" x="0" y="0" width="39.26" height="39.26" patternTransform="translate(-792 -2580)" patternUnits="userSpaceOnUse" viewBox="0 0 39.26 39.26"><rect class="cls-1" x="0" y="0" width="39.26" height="39.26"/><rect class="cls-9" x="0" y="0" width="39.26" height="39.26"/></pattern><pattern id="New_Pattern_Swatch_2" x="0" y="0" width="39.26" height="39.26" patternTransform="translate(-792 -2580)" patternUnits="userSpaceOnUse" viewBox="0 0 39.26 39.26"><rect class="cls-1" x="0" y="0" width="39.26" height="39.26"/><rect class="cls-6" x="0" y="0" width="39.26" height="39.26"/></pattern></defs><path class="cls-3" d="M73.52,37.07l-27.26,6.06c-1.12.23-1.92,1.21-1.92,2.35l-.06,28.73h-19.19v-31.38c0-4.63,3.32-8.61,7.88-9.44l32.35-5.87c1.38-.25,2.74-.09,3.96.41,2.12.84,3.79,2.68,4.34,5.06l.66,2.88c.13.54-.21,1.08-.76,1.2Z"/><path class="cls-5" d="M69.52,33.07l-27.26,6.06c-1.12.23-1.92,1.21-1.92,2.35l-.04,18.75c-.01,5.51-4.48,9.98-10,9.98h-5.21v-27.38c0-4.63,3.32-8.61,7.88-9.44l32.35-5.87c1.38-.25,2.74-.09,3.96.41.14.34.25.69.34,1.06l.66,2.88c.13.54-.21,1.08-.76,1.2Z"/><path class="cls-3" d="M72.67,65.33c0,3.13-2.54,5.67-5.67,5.67-1.34,0-2.57-.47-3.55-1.26-1.29-1.03-2.12-2.62-2.12-4.41,0-2.24,2.9-7.07,4.55-9.64.66-1.02,1.12-1.69,1.12-1.69,0,0,5.67,8.2,5.67,11.33Z"/><path class="cls-5" d="M69.65,64.1c0,3.13-2.54,5.67-5.67,5.67-.18,0-.35-.01-.53-.03-1.29-1.03-2.12-2.62-2.12-4.41,0-2.24,2.9-7.07,4.55-9.64,1.64,2.67,3.77,6.49,3.77,8.41Z"/><path class="cls-2" d="M75.25,35.65l-.66-2.88c-.99-4.27-5.15-7-9.45-6.23l-14.71,2.67v-1.8c0-1.28-.81-2.37-1.95-2.8v-4.75c0-.6.38-1.13.93-1.33l7.7-2.73c1.82-.64,3.27-1.96,4.1-3.7.82-1.74.92-3.69.27-5.47l-.32-.94c-.09-.25-.27-.46-.51-.58-.24-.12-.52-.13-.77-.04l-22.34,7.93c-3.26,1.16-5.46,4.26-5.46,7.72v3.89c-1.14.43-1.95,1.52-1.95,2.8v5.86c-3.62,1.72-6.05,5.4-6.05,9.57v31.38c0,.55.45,1,1,1h19.19c.55,0,1-.45,1-1l.02-9.71c0-.55-.45-1-1-1h0c-.55,0-1,.45-1,1l-.02,8.71h-17.19v-30.38c0-3.58,2.21-6.71,5.44-7.99,0,0,0,0,0,0,.52-.2,1.05-.36,1.62-.47l32.35-5.87c3.26-.59,6.4,1.48,7.15,4.71l.66,2.88-27.24,6.06c-1.58.32-2.72,1.72-2.72,3.33l-.02,10.02c0,.55.45,1,1,1,.57,0,1-.45,1-1l.02-10.02c0-.67.46-1.24,1.14-1.37l9.58-2.13.8,3.84c.3,1.41,1.56,2.38,2.95,2.38.2,0,.4-.02.6-.06l10.18-2.11c.78-.16,1.45-.61,1.89-1.28.44-.67.6-1.47.44-2.26l-.84-4.07,1.66-.37c.53-.12.98-.43,1.27-.89.29-.46.37-1,.25-1.51ZM38.21,14.87l21.38-7.59c.47,1.3.4,2.7-.19,3.95-.6,1.26-1.65,2.21-2.96,2.67l-7.7,2.73c-1.36.48-2.27,1.77-2.27,3.21v4.55h-12.39v-3.69c0-2.61,1.66-4.96,4.12-5.84ZM32.79,32.41c-.22.04-.44.1-.65.15v-5.15c0-.55.45-1,1-1h14.29c.55,0,1,.45,1,1v2.17l-15.64,2.84ZM70.95,42.89c.05.26,0,.53-.15.76-.15.22-.37.37-.63.42l-10.18,2.11c-.55.11-1.08-.24-1.19-.77l-.8-3.86,12.11-2.69.83,4.04ZM66.18,53.43c-.6.87-5.84,8.56-5.84,11.9,0,3.68,2.99,6.67,6.67,6.67s6.67-2.99,6.67-6.67c0-3.34-5.25-11.04-5.84-11.9-.38-.54-1.27-.54-1.65,0ZM67,70c-2.57,0-4.67-2.09-4.67-4.67,0-1.8,2.6-6.37,4.67-9.54,2.07,3.17,4.67,7.74,4.67,9.54,0,2.57-2.09,4.67-4.67,4.67ZM45.31,59.1v1.8c0,.55-.45,1-1,1s-1-.45-1-1v-1.8c0-.55.45-1,1-1s1,.45,1,1Z"/><path class="cls-4" d="M48.88,76.21v13.79c0,.55-.45,1-1,1h-26.39c-.55,0-1-.45-1-1v-13.79c0-1.66,1.35-3,3-3h22.39c1.65,0,3,1.34,3,3Z"/></svg>