<?xml version="1.0" encoding="UTF-8"?><svg id="Greeny" xmlns="http://www.w3.org/2000/svg" xmlns:xlink="http://www.w3.org/1999/xlink" viewBox="0 0 96 96"><defs><style>.cls-1{fill:none;}.cls-1,.cls-2,.cls-3,.cls-4,.cls-5,.cls-6,.cls-7,.cls-8,.cls-9{stroke-width:0px;}.cls-2{fill:url(#New_Pattern_Swatch_5);}.cls-3{fill:url(#New_Pattern_Swatch_3);}.cls-4{fill:url(#New_Pattern_Swatch_2);}.cls-5{fill:url(#New_Pattern_Swatch_4);}.cls-6{fill:#2faf96;}.cls-7{fill:#1feab0;}.cls-8{fill:#b3ffde;}.cls-9{fill:#008887;}</style><pattern id="New_Pattern_Swatch_2" x="0" y="0" width="39.26" height="39.26" patternTransform="translate(-204 -2776)" patternUnits="userSpaceOnUse" viewBox="0 0 39.26 39.26"><rect class="cls-1" x="0" y="0" width="39.26" height="39.26"/><rect class="cls-6" x="0" y="0" width="39.26" height="39.26"/></pattern><pattern id="New_Pattern_Swatch_3" x="0" y="0" width="39.26" height="39.26" patternTransform="translate(-204 -2776)" patternUnits="userSpaceOnUse" viewBox="0 0 39.26 39.26"><rect class="cls-1" x="0" y="0" width="39.26" height="39.26"/><rect class="cls-7" x="0" y="0" width="39.26" height="39.26"/></pattern><pattern id="New_Pattern_Swatch_4" x="0" y="0" width="39.26" height="39.26" patternTransform="translate(-204 -2776)" patternUnits="userSpaceOnUse" viewBox="0 0 39.26 39.26"><rect class="cls-1" y="0" width="39.26" height="39.26"/><rect class="cls-8" x="0" y="0" width="39.26" height="39.26"/></pattern><pattern id="New_Pattern_Swatch_5" x="0" y="0" width="39.26" height="39.26" patternTransform="translate(-204 -2776)" patternUnits="userSpaceOnUse" viewBox="0 0 39.26 39.26"><rect class="cls-1" x="0" y="0" width="39.26" height="39.26"/><rect class="cls-9" x="0" y="0" width="39.26" height="39.26"/></pattern></defs><path class="cls-4" d="M45.37,31.19c-.04.48-.46.87-.94.87s-.83-.39-.79-.87c.04-.48.46-.86.94-.86s.83.38.79.86Z"/><path class="cls-4" d="M46.19,23.49l-.38,4.33c-.05.52-.49.91-1,.91h-.09c-.55-.05-.95-.54-.91-1.09l.38-4.32c.05-.55.54-.97,1.09-.91.55.05.95.53.91,1.08Z"/><path class="cls-4" d="M68.99,11.99c-.09-.97-.89-1.7-1.86-1.7H31.58c-.31,0-.6.14-.79.38s-.26.56-.19.85l.19.77,12,49.43c.11.45.51.76.97.76h19.86l.61,6.95c.08.97.88,1.71,1.85,1.71h6.05c.53,0,1.03-.22,1.38-.61.35-.38.53-.9.48-1.42l-5-57.12ZM52.46,33.21c-.18.28-.46.44-.76.44h-14.99c-.3,0-.45-.15-.52-.28-.12-.22-.09-.51.08-.76l8.63-12.98c.22-.33.55-.43.79-.42.16.01.37.07.48.31l6.36,12.98c.15.3,0,.6-.07.71Z"/><path class="cls-3" d="M45.37,31.19c-.04.48-.46.87-.94.87s-.83-.39-.79-.87c.04-.48.46-.86.94-.86s.83.38.79.86Z"/><path class="cls-3" d="M46.19,23.49l-.38,4.33c-.05.52-.49.91-1,.91h-.09c-.55-.05-.95-.54-.91-1.09l.38-4.32c.05-.55.54-.97,1.09-.91.55.05.95.53.91,1.08Z"/><path class="cls-3" d="M28.87,11.29c-.45,0-.82.34-.86.79l-5.01,57.12c-.04.5.36.94.87.94h6.05c.45,0,.82-.35.86-.79l.69-7.87h20.77l-.68,7.72c-.04.5.36.94.86.94h6.06c.44,0,.82-.35.86-.79l5.08-58.06H28.87ZM52.46,33.21c-.18.28-.46.44-.76.44h-14.99c-.3,0-.45-.15-.52-.28-.12-.22-.09-.51.08-.76l8.63-12.98c.22-.33.55-.43.79-.42.16.01.37.07.48.31l6.36,12.98c.15.3,0,.6-.07.71Z"/><path class="cls-5" d="M43.64,31.19c.04-.48.46-.86.94-.86s.83.38.79.86-.46.87-.94.87-.83-.39-.79-.87Z"/><path class="cls-5" d="M43.81,27.64l.38-4.32c.05-.55.54-.97,1.09-.91.55.05.95.53.91,1.08l-.38,4.33c-.05.52-.49.91-1,.91h-.09c-.55-.05-.95-.54-.91-1.09Z"/><path class="cls-5" d="M28.87,11.29c-.45,0-.82.34-.86.79l-4.74,54.06h8.8l.32-3.66h18.76l-.33,3.66h.78c.08,0,.15,0,.23-.01.35-.02.7-.08,1.02-.19,1.49-.49,2.6-1.82,2.74-3.45l4.39-50.2.09-1h-31.2ZM36.27,32.61l8.63-12.98c.22-.33.55-.43.79-.42.16.01.37.07.48.31l6.36,12.98c.15.3,0,.6-.07.71-.18.28-.46.44-.76.44h-14.99c-.3,0-.45-.15-.52-.28-.12-.22-.09-.51.08-.76Z"/><path class="cls-2" d="M85.45,73.73c.96-1.07,1.55-2.48,1.55-4.02,0-1.73-.73-3.28-1.9-4.38,2.28-.85,3.9-3.05,3.9-5.62,0-3.31-2.69-6-6-6h-10.36l.18,2h10.18c2.21,0,4,1.79,4,4s-1.79,4-4,4h-2c-.55,0-1,.45-1,1s.45,1,1,1c2.21,0,4,1.79,4,4s-1.79,4-4,4c-.55,0-1,.45-1,1s.45,1,1,1h4c2.21,0,4,1.79,4,4s-1.79,4-4,4H17c-2.21,0-4-1.79-4-4s1.79-4,4-4c.55,0,1-.45,1-1s-.45-1-1-1h-6c-2.21,0-4-1.79-4-4s1.79-4,4-4h6c.55,0,1-.45,1-1s-.45-1-1-1c-2.21,0-4-1.79-4-4s1.79-4,4-4h6.18l-1.18,13.41c-.04.52.14,1.03.49,1.42.36.38.86.6,1.38.6h6.05c.96,0,1.77-.75,1.86-1.7l.29-3.3.32-3.66h18.76l-.33,3.66-.26,2.98c-.04.52.14,1.04.5,1.42.35.38.85.6,1.36.6h6.06c.95,0,1.77-.75,1.86-1.7l.61-6.96,4.47-51.1c.02-.28-.07-.56-.26-.77-.19-.2-.46-.32-.74-.32H28.87c-.97,0-1.77.73-1.86,1.7l-1,11.42c-.04.55.36,1.04.91,1.09.56.05,1.04-.36,1.09-.91l.99-11.3h34.33l-4.4,50.19-.58,6.66h-5.78l.28-3.2.31-3.46.08-.91c.02-.28-.07-.56-.26-.77-.19-.2-.46-.32-.74-.32h-20.77c-.52,0-.95.4-1,.91l-.42,4.75-.26,3h-5.78l.26-3,2.95-33.55c.04-.55-.36-1.04-.91-1.09-.55-.04-1.04.36-1.09.91l-1.86,21.3h-6.36c-3.31,0-6,2.69-6,6,0,1.54.58,2.94,1.53,4h-1.53c-3.31,0-6,2.69-6,6s2.69,6,6,6h1.53c-.95,1.06-1.53,2.46-1.53,4,0,3.31,2.69,6,6,6h68c3.31,0,6-2.69,6-6s-2.45-5.75-5.55-5.98ZM26.78,26.1c-.56-.05-1.04.36-1.09.91l-.16,1.8c-.05.55.36,1.04.91,1.09h.09c.51,0,.95-.39,1-.91l.16-1.8c.04-.55-.36-1.04-.91-1.09ZM44.58,30.33c-.48,0-.9.38-.94.86-.04.48.31.87.79.87s.9-.39.94-.87-.31-.86-.79-.86ZM45.28,22.41c-.55-.06-1.04.36-1.09.91l-.38,4.32c-.04.55.36,1.04.91,1.09h.09c.51,0,.95-.39,1-.91l.38-4.33c.04-.55-.36-1.03-.91-1.08ZM45.28,22.41c-.55-.06-1.04.36-1.09.91l-.38,4.32c-.04.55.36,1.04.91,1.09h.09c.51,0,.95-.39,1-.91l.38-4.33c.04-.55-.36-1.03-.91-1.08ZM44.58,30.33c-.48,0-.9.38-.94.86-.04.48.31.87.79.87s.9-.39.94-.87-.31-.86-.79-.86ZM54.32,31.62l-6.35-12.98c-.41-.83-1.21-1.36-2.14-1.42-1.03-.07-2.01.43-2.59,1.3l-8.02,12.04-.62.94c-.32.49-.48,1.03-.48,1.57,0,.43.1.86.31,1.24.41.77,1.16,1.25,2.03,1.33.08,0,.16,0,.25,0h14.99c.99,0,1.91-.51,2.45-1.38.52-.83.58-1.82.17-2.65ZM52.46,33.21c-.18.28-.46.44-.76.44h-14.99c-.3,0-.45-.15-.52-.28-.12-.22-.09-.51.08-.76l8.63-12.98c.22-.33.55-.43.79-.42.16.01.37.07.48.31l6.36,12.98c.15.3,0,.6-.07.71ZM45.28,22.41c-.55-.06-1.04.36-1.09.91l-.38,4.32c-.04.55.36,1.04.91,1.09h.09c.51,0,.95-.39,1-.91l.38-4.33c.04-.55-.36-1.03-.91-1.08ZM44.58,30.33c-.48,0-.9.38-.94.86-.04.48.31.87.79.87s.9-.39.94-.87-.31-.86-.79-.86ZM44.58,30.33c-.48,0-.9.38-.94.86-.04.48.31.87.79.87s.9-.39.94-.87-.31-.86-.79-.86ZM45.28,22.41c-.55-.06-1.04.36-1.09.91l-.38,4.32c-.04.55.36,1.04.91,1.09h.09c.51,0,.95-.39,1-.91l.38-4.33c.04-.55-.36-1.03-.91-1.08ZM45.28,22.41c-.55-.06-1.04.36-1.09.91l-.38,4.32c-.04.55.36,1.04.91,1.09h.09c.51,0,.95-.39,1-.91l.38-4.33c.04-.55-.36-1.03-.91-1.08ZM44.58,30.33c-.48,0-.9.38-.94.86-.04.48.31.87.79.87s.9-.39.94-.87-.31-.86-.79-.86ZM53.12,40.58h-19.04c-.56,0-1,.45-1,1s.44,1,1,1h19.04c.55,0,1-.45,1-1s-.45-1-1-1ZM52.91,47.12h-20.37c-.56,0-1,.45-1,1s.44,1,1,1h20.37c.55,0,1-.45,1-1s-.45-1-1-1ZM52.34,53.6h-20.37c-.55,0-1,.45-1,1s.45,1,1,1h20.37c.55,0,1-.45,1-1s-.45-1-1-1Z"/></svg>