<?xml version="1.0" encoding="UTF-8"?><svg id="Greeny" xmlns="http://www.w3.org/2000/svg" xmlns:xlink="http://www.w3.org/1999/xlink" viewBox="0 0 96 96"><defs><style>.cls-1{fill:none;}.cls-1,.cls-2,.cls-3,.cls-4,.cls-5,.cls-6,.cls-7,.cls-8,.cls-9{stroke-width:0px;}.cls-2{fill:url(#New_Pattern_Swatch_5);}.cls-3{fill:url(#New_Pattern_Swatch_3);}.cls-4{fill:url(#New_Pattern_Swatch_2);}.cls-5{fill:url(#New_Pattern_Swatch_4);}.cls-6{fill:#2faf96;}.cls-7{fill:#1feab0;}.cls-8{fill:#b3ffde;}.cls-9{fill:#008887;}</style><pattern id="New_Pattern_Swatch_3" x="0" y="0" width="39.26" height="39.26" patternTransform="translate(-400 -2776)" patternUnits="userSpaceOnUse" viewBox="0 0 39.26 39.26"><rect class="cls-1" x="0" y="0" width="39.26" height="39.26"/><rect class="cls-7" x="0" y="0" width="39.26" height="39.26"/></pattern><pattern id="New_Pattern_Swatch_4" x="0" y="0" width="39.26" height="39.26" patternTransform="translate(-400 -2776)" patternUnits="userSpaceOnUse" viewBox="0 0 39.26 39.26"><rect class="cls-1" y="0" width="39.26" height="39.26"/><rect class="cls-8" x="0" y="0" width="39.26" height="39.26"/></pattern><pattern id="New_Pattern_Swatch_5" x="0" y="0" width="39.26" height="39.26" patternTransform="translate(-400 -2776)" patternUnits="userSpaceOnUse" viewBox="0 0 39.26 39.26"><rect class="cls-1" x="0" y="0" width="39.26" height="39.26"/><rect class="cls-9" x="0" y="0" width="39.26" height="39.26"/></pattern><pattern id="New_Pattern_Swatch_2" x="0" y="0" width="39.26" height="39.26" patternTransform="translate(-400 -2776)" patternUnits="userSpaceOnUse" viewBox="0 0 39.26 39.26"><rect class="cls-1" x="0" y="0" width="39.26" height="39.26"/><rect class="cls-6" x="0" y="0" width="39.26" height="39.26"/></pattern></defs><path class="cls-3" d="M55.15,31.85l-1.34,52.03c-.04,1.52-1.28,2.73-2.81,2.73H14.35c-1.52,0-2.76-1.21-2.8-2.73l-.08-3.27-1.26-48.76h44.94Z"/><path class="cls-5" d="M49,31.85l-1.01,39.02c-.14,5.42-4.57,9.74-9.99,9.74H11.47l-1.26-48.76h38.79Z"/><path class="cls-3" d="M89.94,76.6c-.82,13.89-12.71,8.69-19.07,8.69-5.33,0-14.56,3.65-17.88-3.35-.64-1.35-1.06-3.1-1.19-5.34-1.05-17.36,12.71-25.2,12.71-25.2h12.72s13.76,7.84,12.71,25.2Z"/><path class="cls-5" d="M84.94,72.6c-.82,13.89-12.71,8.69-19.07,8.69-3.53,0-8.78,1.6-12.88.65-.64-1.35-1.06-3.1-1.19-5.34-1.05-17.36,12.71-25.2,12.71-25.2h12.62c3.84,3.94,8.43,10.89,7.81,21.2Z"/><path class="cls-2" d="M89.54,65.59c-.2-.61-.44-1.25-.71-1.89-.22-.5-.81-.74-1.32-.52-.5.22-.74.81-.52,1.32.25.57.47,1.15.65,1.71.13.42.53.69.95.69.1,0,.2-.02.31-.05.52-.17.81-.73.64-1.26ZM74.06,51.05c-.44-.32-1.06-.22-1.38.21-.33.44-.24,1.07.19,1.4.08.06,1.96,1.54,1.92,5.22,0,.55.44,1,.99,1.01h0c.55,0,1-.44,1-.99.05-4.76-2.61-6.76-2.73-6.85ZM69.12,51.27c-.33-.44-.95-.54-1.4-.22-.11.09-2.77,2.09-2.73,6.85.01.55.45.99,1,.99h.01c.55-.01,1-.46.99-1.01-.03-3.66,1.83-5.14,1.92-5.22.44-.33.54-.95.21-1.39ZM82.32,35.43c-.25-.65-.75-1.1-1.43-1.26-1.96-.5-3.26.23-4.21.76-.97.54-1.28.67-2,.19-.61-.41-1.19-.76-1.71-1.04-1.32-.71-2.89-.71-4.21,0-.52.28-1.09.63-1.71,1.04-.72.48-1.03.34-2-.19-.95-.53-2.24-1.26-4.21-.76-.67.16-1.18.61-1.43,1.26-1.05,2.75,3.4,9.63,4.79,11.68.18.27.49.44.82.44h11.69c.33,0,.64-.17.83-.44,1.38-2.05,5.83-8.93,4.78-11.68ZM76.18,45.55h-10.62c-2.81-4.23-4.82-8.66-4.23-9.44,1.19-.3,1.91.1,2.75.56.97.55,2.31,1.29,4.08.11.56-.37,1.08-.69,1.55-.94.72-.39,1.59-.39,2.31,0,.47.25.99.57,1.55.94,1.77,1.18,3.11.44,4.09-.11.83-.46,1.55-.86,2.78-.56.55.78-1.46,5.21-4.26,9.44ZM43.91,42.08c-.55,0-1,.45-1,1v32.3c0,.55.45,1,1,1s1-.45,1-1v-32.3c0-.55-.45-1-1-1ZM32.68,42.08c-.55,0-1,.45-1,1v32.3c0,.55.45,1,1,1s1-.45,1-1v-32.3c0-.55-.45-1-1-1ZM21.45,42.08c-.56,0-1,.45-1,1v32.3c0,.55.44,1,1,1s1-.45,1-1v-32.3c0-.55-.45-1-1-1ZM90.5,69.31c-.1-.54-.62-.89-1.17-.79-.54.1-.9.62-.79,1.17.41,2.18.55,4.49.4,6.85-.2,3.47-1.11,5.82-2.77,7.18-2.03,1.66-5.04,1.68-8.07,1.36.96-2.29,1.93-6.06,1.18-11.07-.08-.55-.59-.92-1.14-.85-.54.09-.92.59-.84,1.14.74,4.99-.35,8.56-1.27,10.52-.21-.03-.43-.06-.64-.09-1.63-.22-3.17-.44-4.52-.44s-2.89.22-4.52.44c-.21.03-.43.06-.64.09-.92-1.96-2.01-5.53-1.27-10.52.08-.55-.3-1.05-.84-1.14-.55-.07-1.06.3-1.14.85-.75,5.01.22,8.78,1.18,11.07-3.03.32-6.05.29-8.07-1.36-1.66-1.36-2.57-3.71-2.77-7.18-.32-5.29.77-9.65,2.42-13.15l.06-.12c2.84-5.96,7.3-9.4,9.16-10.64.45-.31.58-.93.27-1.39-.31-.45-.93-.58-1.39-.27-1.6,1.07-5,3.66-7.87,7.95l.7-27.04c0-.27-.1-.54-.28-.73-.19-.19-.45-.3-.72-.3H10.21c-.27,0-.53.11-.72.3-.18.19-.29.46-.28.73l1.34,52.03c.05,2.07,1.72,3.7,3.8,3.7h36.65c1.55,0,2.87-.9,3.47-2.22,1.83,1.42,4.1,1.86,6.47,1.86,1.89,0,3.84-.28,5.69-.54,1.56-.21,3.03-.42,4.24-.42s2.68.21,4.24.42c4.23.6,9.01,1.27,12.32-1.45,2.12-1.73,3.27-4.55,3.51-8.6.16-2.52.01-5-.44-7.35ZM52.81,83.85c-.03.99-.82,1.76-1.81,1.76H14.35c-.98,0-1.77-.77-1.8-1.76l-1.31-51h42.88l-.76,29.8c-1.75,3.74-2.9,8.39-2.56,14.01.17,2.97.84,5.27,2.01,6.97v.22ZM43.91,42.08c-.55,0-1,.45-1,1v32.3c0,.55.45,1,1,1s1-.45,1-1v-32.3c0-.55-.45-1-1-1ZM32.68,42.08c-.55,0-1,.45-1,1v32.3c0,.55.45,1,1,1s1-.45,1-1v-32.3c0-.55-.45-1-1-1ZM21.45,42.08c-.56,0-1,.45-1,1v32.3c0,.55.44,1,1,1s1-.45,1-1v-32.3c0-.55-.45-1-1-1ZM86.94,59.98c-3.05-5.03-6.98-7.98-8.52-9.01-.46-.31-1.08-.19-1.39.27-.31.46-.19,1.08.27,1.39,1.44.96,5.09,3.7,7.92,8.39.19.31.52.48.86.48.18,0,.36-.05.52-.14.47-.29.62-.91.34-1.38ZM21.45,42.08c-.56,0-1,.45-1,1v32.3c0,.55.44,1,1,1s1-.45,1-1v-32.3c0-.55-.45-1-1-1ZM43.91,42.08c-.55,0-1,.45-1,1v32.3c0,.55.45,1,1,1s1-.45,1-1v-32.3c0-.55-.45-1-1-1ZM32.68,42.08c-.55,0-1,.45-1,1v32.3c0,.55.45,1,1,1s1-.45,1-1v-32.3c0-.55-.45-1-1-1ZM53.15,15.41h-11.05v-4.03c0-1.65-1.34-3-3-3h-12.85c-1.65,0-3,1.35-3,3v4.03h-11.04c-1.65,0-3,1.34-3,3v5.02c0,.55.45,1,1,1h44.94c.55,0,1-.45,1-1v-5.02c0-1.66-1.35-3-3-3ZM25.25,11.38c0-.55.45-1,1-1h12.85c.56,0,1,.45,1,1v4.03h-14.85v-4.03ZM54.15,22.43H11.21v-4.02c0-.56.45-1,1-1h40.94c.55,0,1,.44,1,1v4.02Z"/><rect class="cls-4" x="5" y="22.43" width="55.36" height="10.42" rx="3" ry="3"/><path class="cls-4" d="M80.37,48.55v1.31c0,1.66-1.34,3-3,3h-13.01c-1.65,0-3-1.34-3-3v-1.31c0-1.66,1.35-3,3-3h13.01c1.66,0,3,1.34,3,3Z"/></svg>