<?xml version="1.0" encoding="UTF-8"?><svg id="Greeny" xmlns="http://www.w3.org/2000/svg" xmlns:xlink="http://www.w3.org/1999/xlink" viewBox="0 0 96 96"><defs><style>.cls-1{fill:none;}.cls-1,.cls-2,.cls-3,.cls-4,.cls-5,.cls-6,.cls-7,.cls-8,.cls-9{stroke-width:0px;}.cls-2{fill:url(#New_Pattern_Swatch_5);}.cls-3{fill:url(#New_Pattern_Swatch_3);}.cls-4{fill:url(#New_Pattern_Swatch_2);}.cls-5{fill:url(#New_Pattern_Swatch_4);}.cls-6{fill:#2faf96;}.cls-7{fill:#1feab0;}.cls-8{fill:#b3ffde;}.cls-9{fill:#008887;}</style><pattern id="New_Pattern_Swatch_3" x="0" y="0" width="39.26" height="39.26" patternTransform="translate(-596 -2776)" patternUnits="userSpaceOnUse" viewBox="0 0 39.26 39.26"><rect class="cls-1" x="0" y="0" width="39.26" height="39.26"/><rect class="cls-7" x="0" y="0" width="39.26" height="39.26"/></pattern><pattern id="New_Pattern_Swatch_4" x="0" y="0" width="39.26" height="39.26" patternTransform="translate(-596 -2776)" patternUnits="userSpaceOnUse" viewBox="0 0 39.26 39.26"><rect class="cls-1" y="0" width="39.26" height="39.26"/><rect class="cls-8" x="0" y="0" width="39.26" height="39.26"/></pattern><pattern id="New_Pattern_Swatch_5" x="0" y="0" width="39.26" height="39.26" patternTransform="translate(-596 -2776)" patternUnits="userSpaceOnUse" viewBox="0 0 39.26 39.26"><rect class="cls-1" x="0" y="0" width="39.26" height="39.26"/><rect class="cls-9" x="0" y="0" width="39.26" height="39.26"/></pattern><pattern id="New_Pattern_Swatch_2" x="0" y="0" width="39.26" height="39.26" patternTransform="translate(-596 -2776)" patternUnits="userSpaceOnUse" viewBox="0 0 39.26 39.26"><rect class="cls-1" x="0" y="0" width="39.26" height="39.26"/><rect class="cls-6" x="0" y="0" width="39.26" height="39.26"/></pattern></defs><path class="cls-3" d="M29.06,31v45h-6V31c0-1.66,1.35-3,3-3,.83,0,1.58.34,2.12.88s.88,1.29.88,2.12Z"/><path class="cls-5" d="M26.06,28v40c0,2.05-1.24,3.81-3,4.59V31c0-1.66,1.35-3,3-3Z"/><path class="cls-2" d="M49.84,19.56v-5.06c0-.55-.45-1-1-1h-6c-.55,0-1,.45-1,1v5.06c-2.82.4-5,2.83-5,5.76v11.18c0,.55.45,1,1,1h16c.55,0,1-.45,1-1v-11.18c0-2.93-2.18-5.36-5-5.76ZM42.66,21.5h.18c.55,0,1-.45,1-1v-5h4v5c0,.55.45,1,1,1h.18c2.11,0,3.82,1.71,3.82,3.82v.18h-14v-.18c0-2.11,1.71-3.82,3.82-3.82ZM44.32,34.5c0-1.1.9-2,2-2s2,.9,2,2c0,.36-.1.7-.27,1h-3.45c-.18-.3-.27-.65-.27-1ZM50.18,35.5c.08-.33.14-.66.14-1,0-2.21-1.79-4-4-4s-4,1.79-4,4c0,.34.06.67.14,1h-3.62v-8h14v8h-2.66ZM84.8,6.5h-14.45c-3.88,0-7.41,2.29-8.99,5.84l-.59,1.32c-.23.52-.18,1.12.13,1.6s.84.77,1.41.77h.81c1.86,0,3.44,1.39,3.67,3.24l.17,1.36c.06.5.49.88.99.88h6.16c.49,0,.91-.36.99-.84l.37-2.34c.18-1.15.87-2.21,1.77-2.84.23,1.49.8,3.72,2.19,4.86.19.15.41.23.63.23.29,0,.58-.12.77-.37.35-.43.29-1.06-.14-1.41-.94-.77-1.37-2.78-1.54-4.05l1.96-.54h3.67c1.1,0,2-.9,2-2v-3.71c0-1.1-.9-2-2-2ZM73.51,18l-.24,1.5h-4.42l-.06-.49c-.36-2.84-2.79-4.99-5.65-4.99h-.32l.39-.87c1.26-2.83,4.07-4.65,7.16-4.65h9.66v3.94l-2.14.58c-2.18.5-3.98,2.54-4.37,4.98ZM82.01,12.21v-3.71h2.79v3.71s-2.79,0-2.79,0ZM76,24.5h-10.32c-2.8,0-5.08,2.28-5.08,5.07v6.93c0,.55.45,1,1,1h18.47c.55,0,1-.45,1-1v-6.93c0-2.8-2.28-5.07-5.08-5.07ZM79.08,35.5h-16.47v-5.93c0-1.7,1.38-3.07,3.08-3.07h10.32c1.7,0,3.08,1.38,3.08,3.07v5.93Z"/><path class="cls-3" d="M68.32,44.5v8h-18v-8h-13v38.5h2.86l.75,6h-2.25c.71.62,1.63,1,2.64,1h36c2.21,0,4-1.79,4-4v-41.5h-13ZM50.32,54.5h18v2c0,.55-.44,1-1,1h-16c-.55,0-1-.45-1-1v-2Z"/><path class="cls-5" d="M68.32,44.5v8h-18v-8h-13v38.5h2.86l.25,2h25.89c5.53,0,10-4.48,10-10v-30.5h-8ZM68.32,56.5c0,.55-.44,1-1,1h-16c-.55,0-1-.45-1-1v-2h18v2Z"/><path class="cls-2" d="M37.32,77c-.55,0-1-.45-1-1v-31.5c0-.55.45-1,1-1h12c.55,0,1,.45,1,1s-.45,1-1,1h-11v30.5c0,.55-.45,1-1,1ZM82.32,64.5v-20c0-.55-.45-1-1-1h-12c-.55,0-1,.45-1,1s.45,1,1,1h11v19c0,.55.45,1,1,1s1-.45,1-1ZM82.32,86v-12.5c0-.55-.45-1-1-1s-1,.45-1,1v12.5c0,1.65-1.35,3-3,3h-36c-.05,0-.1,0-.15,0-.54-.06-1.04.34-1.1.89-.06.55.34,1.04.89,1.1.13.01.24.02.37.02h36c2.76,0,5-2.24,5-5ZM82.32,69.9v-1.8c0-.55-.45-1-1-1s-1,.45-1,1v1.8c0,.55.45,1,1,1s1-.45,1-1Z"/><path class="cls-4" d="M85.32,38.5v4c0,1.65-1.34,3-3,3h-14v-8h-18v8h-14c-1.65,0-3-1.35-3-3v-4c0-1.65,1.35-3,3-3h46c1.66,0,3,1.35,3,3Z"/><path class="cls-2" d="M69.32,35.5h-20c-.55,0-1,.45-1,1v20c0,1.65,1.35,3,3,3h16c1.66,0,3-1.35,3-3v-20c0-.55-.44-1-1-1ZM68.32,56.5c0,.55-.44,1-1,1h-16c-.55,0-1-.45-1-1v-2h18v2ZM68.32,52.5h-18v-15h18v15Z"/><path class="cls-2" d="M42.45,85l-.39-3.12c-.07-.5-.49-.88-1-.88H11.06c-.5,0-.93.38-.99.88l-.86,6.87c-.07.57.11,1.14.49,1.57s.92.68,1.5.68h29.73c.57,0,1.12-.25,1.5-.68.09-.1.17-.21.23-.32.22-.37.31-.81.26-1.25l-.47-3.75ZM17.12,89h-5.92l.75-6h5.55l-.38,6ZM25.06,89h-5.93l.37-6h5.56v6ZM27.06,89v-6h5.56l.38,6h-5.94ZM35,89l-.37-6h5.55l.75,6h-5.93ZM26.06,27c-2.2,0-4,1.79-4,4v45c0,.55.45,1,1,1h6c.56,0,1-.45,1-1V31c0-2.21-1.79-4-4-4ZM28.06,75h-4V31c0-1.1.9-2,2-2s2,.9,2,2v44Z"/><path class="cls-4" d="M42.06,78v4c0,.55-.44,1-1,1H11.06c-.55,0-1-.45-1-1v-4c0-1.65,1.35-3,3-3h26c1.66,0,3,1.35,3,3Z"/><rect class="cls-4" x="39.84" y="7.5" width="12" height="8" rx="2" ry="2"/><path class="cls-4" d="M75.84,21.5v4c0,.55-.45,1-1,1h-8c-.55,0-1-.45-1-1v-4c0-1.1.9-2,2-2h6c1.1,0,2,.9,2,2Z"/></svg>