<?xml version="1.0" encoding="UTF-8"?><svg id="Greeny" xmlns="http://www.w3.org/2000/svg" xmlns:xlink="http://www.w3.org/1999/xlink" viewBox="0 0 96 96"><defs><style>.cls-1{fill:none;}.cls-1,.cls-2,.cls-3,.cls-4,.cls-5,.cls-6,.cls-7,.cls-8,.cls-9{stroke-width:0px;}.cls-2{fill:url(#New_Pattern_Swatch_5);}.cls-3{fill:url(#New_Pattern_Swatch_3);}.cls-4{fill:url(#New_Pattern_Swatch_2);}.cls-5{fill:url(#New_Pattern_Swatch_4);}.cls-6{fill:#2faf96;}.cls-7{fill:#1feab0;}.cls-8{fill:#b3ffde;}.cls-9{fill:#008887;}</style><pattern id="New_Pattern_Swatch_4" x="0" y="0" width="39.26" height="39.26" patternTransform="translate(-792 -2776)" patternUnits="userSpaceOnUse" viewBox="0 0 39.26 39.26"><rect class="cls-1" y="0" width="39.26" height="39.26"/><rect class="cls-8" x="0" y="0" width="39.26" height="39.26"/></pattern><pattern id="New_Pattern_Swatch_5" x="0" y="0" width="39.26" height="39.26" patternTransform="translate(-792 -2776)" patternUnits="userSpaceOnUse" viewBox="0 0 39.26 39.26"><rect class="cls-1" x="0" y="0" width="39.26" height="39.26"/><rect class="cls-9" x="0" y="0" width="39.26" height="39.26"/></pattern><pattern id="New_Pattern_Swatch_2" x="0" y="0" width="39.26" height="39.26" patternTransform="translate(-792 -2776)" patternUnits="userSpaceOnUse" viewBox="0 0 39.26 39.26"><rect class="cls-1" x="0" y="0" width="39.26" height="39.26"/><rect class="cls-6" x="0" y="0" width="39.26" height="39.26"/></pattern><pattern id="New_Pattern_Swatch_3" x="0" y="0" width="39.26" height="39.26" patternTransform="translate(-792 -2776)" patternUnits="userSpaceOnUse" viewBox="0 0 39.26 39.26"><rect class="cls-1" x="0" y="0" width="39.26" height="39.26"/><rect class="cls-7" x="0" y="0" width="39.26" height="39.26"/></pattern></defs><path class="cls-5" d="M73.34,64.55c.94,1.24,1.51,2.76,1.51,4.43,0,4.08-3.31,7.39-7.39,7.39-2.24,0-4.24-.99-5.59-2.57l-1.09-1h3.27c.82,0,1.58-.32,2.16-.89.63-.63.95-1.5.89-2.38-.12-1.58-1.55-2.82-3.27-2.82h-9.68l-2.17-2h6.68c.81,0,1.57-.32,2.15-.9.63-.63.95-1.49.89-2.38-.12-1.58-1.55-2.82-3.27-2.82h-13.09l-1.09-1c1.02-2.85,3.75-4.89,6.95-4.89.2,0,.39.05.59.06,1.13-2.64,3.75-4.49,6.8-4.49s5.81,1.97,6.88,4.74c.64-.18,1.3-.31,1.99-.31,4.08,0,7.39,3.31,7.39,7.39,0,1.67-.57,3.2-1.51,4.44Z"/><path class="cls-5" d="M68.89,52.86h-4.59c-1.06-2.19-3.25-3.57-5.71-3.57-.74,0-1.46.13-2.13.36l.04-.62,1.5-21.03h10l.89,24.86Z"/><path class="cls-2" d="M87.99,63.99c-.19-2.62-2.51-4.68-5.27-4.68h-1.15c.74-.97,1.1-2.18,1.02-3.42-.18-2.62-2.5-4.68-5.27-4.68h-7.49l-.83-23.25c-.02-.54-.46-.96-1-.96h-10c-.52,0-.96.41-1,.93l-.64,8.96c-.68.2-1.33.53-1.9.99l-10.39,8.52c-.26-1.45-1.12-2.72-2.36-3.51-1.92-1.21-4.38-1.06-6.13.38l-12.71,10.42c-1.21.99-2.74,1.54-4.3,1.54H6c-.55,0-1,.45-1,1s.45,1,1,1h12.57c2.02,0,4-.71,5.57-1.99l12.71-10.42c1.09-.89,2.61-.98,3.8-.23.78.5,1.31,1.27,1.47,2.18s-.06,1.82-.63,2.55l-5.93,7.67c-.23.3-.27.71-.11,1.05.17.34.52.56.9.56h22.09c1.72,0,3.16,1.24,3.27,2.82.06.88-.26,1.75-.89,2.38-.58.58-1.34.9-2.15.9h-16.2c-.55,0-1,.45-1,1s.45,1,1,1h21.37c1.72,0,3.16,1.24,3.27,2.82.06.88-.26,1.75-.89,2.38-.58.58-1.34.9-2.15.9h-21.6c-.55,0-1,.45-1,1s.45,1,1,1h16.2c1.68,0,3.05,1.37,3.05,3.05,0,.81-.32,1.58-.9,2.15s-1.34.89-2.15.89h-20.25c-.55,0-1,.45-1,1s.45,1,1,1h12.15c1.68,0,3.05,1.37,3.05,3.05,0,.81-.32,1.58-.9,2.15s-1.34.89-2.15.89h-16.33c-3.27,0-6.47-.89-9.27-2.57l-3.22-1.94c-2.44-1.46-5.23-2.24-8.07-2.24h-7.67c-.55,0-1,.45-1,1s.45,1,1,1h7.67c2.48,0,4.91.67,7.04,1.95l3.23,1.94c3.11,1.87,6.67,2.86,10.3,2.86h16.33c1.35,0,2.61-.53,3.57-1.48.96-.96,1.48-2.22,1.48-3.57,0-.12-.02-.23-.03-.35h13.87c1.34,0,2.64-.54,3.57-1.48.96-.96,1.48-2.22,1.48-3.57,0-1.14-.38-2.2-1.03-3.05h4.08c1.34,0,2.61-.53,3.56-1.48.95-.93,1.49-2.23,1.49-3.57,0-1.14-.38-2.2-1.03-3.05h1.38c1.35,0,2.62-.52,3.57-1.48,1.04-1.05,1.57-2.48,1.47-3.94ZM77.32,53.21c1.73,0,3.16,1.24,3.27,2.82.06.89-.26,1.76-.89,2.38-.58.58-1.34.9-2.15.9h-1.74c-.24-2.53-1.61-4.73-3.59-6.1h5.1ZM58.93,29h8.1l.81,22.74c-.13,0-.26-.02-.39-.02-.46,0-.92.05-1.42.14-1.43-2.81-4.26-4.57-7.45-4.57-.33,0-.65.03-.97.07l1.31-18.36ZM43.06,50.54c.32-.41.56-.86.75-1.34l11.92-9.78c.15-.12.31-.22.47-.32l-.62,8.76c-1.85.71-3.43,2.06-4.39,3.86-3.28,0-6.23,1.95-7.58,4.89h-5.23l4.68-6.06ZM67.62,73.32c1.04-1.04,1.57-2.47,1.47-3.94-.19-2.62-2.5-4.68-5.26-4.68h-1.15c.74-.97,1.1-2.18,1.01-3.42-.19-2.62-2.5-4.68-5.26-4.68h-12.55c1.16-1.76,3.14-2.89,5.32-2.89.06,0,.12.01.19.02.12.02.23.03.35.04.45.02.81-.22.97-.61,1.01-2.36,3.32-3.88,5.88-3.88s4.99,1.61,5.95,4.1c.18.48.71.74,1.2.6.66-.19,1.21-.27,1.72-.27,3.52,0,6.39,2.87,6.39,6.39,0,1.38-.45,2.71-1.31,3.83-.27.36-.27.85,0,1.21.85,1.13,1.31,2.45,1.31,3.83,0,3.52-2.87,6.39-6.39,6.39-.97,0-1.91-.22-2.76-.63,1.1-.14,2.12-.62,2.92-1.42ZM71.6,82.71c-.56.57-1.34.89-2.15.89h-14.43c-.13-.25-.28-.48-.44-.7h4.08c1.35,0,2.61-.53,3.57-1.48s1.48-2.22,1.48-3.57c0-.12-.02-.23-.03-.35h5.77c1.68,0,3.05,1.37,3.05,3.05,0,.81-.32,1.57-.9,2.16ZM79.7,74.6c-.58.58-1.34.9-2.15.9h-4.82c1.8-1.46,2.98-3.64,3.1-6.1h1.72c1.68,0,3.05,1.37,3.05,3.05,0,.81-.33,1.59-.9,2.15ZM85.1,66.51c-.57.57-1.33.89-2.15.89h-7.27c-.2-1-.56-1.97-1.12-2.85.63-1,1.04-2.09,1.2-3.24h6.96c1.72,0,3.16,1.24,3.27,2.82.06.89-.25,1.74-.89,2.38Z"/><path class="cls-4" d="M71,22v5c0,1.1-.9,2-2,2h-12c-1.1,0-2-.9-2-2v-5c0-.55.45-1,1-1h14c.55,0,1,.45,1,1Z"/><path class="cls-3" d="M90,10v12h-40v-4.38c0-4.21,3.41-7.62,7.62-7.62h32.38Z"/><path class="cls-5" d="M85.8,10c-.93,4.56-4.97,8-9.8,8h-26v-.38c0-4.21,3.41-7.62,7.62-7.62h28.18Z"/><path class="cls-2" d="M90,23h-40c-.55,0-1-.45-1-1v-4.38c0-4.75,3.87-8.62,8.62-8.62h8.02c.55,0,1,.45,1,1s-.45,1-1,1h-8.02c-3.65,0-6.62,2.97-6.62,6.62v3.38h38v-10h-14.36c-.55,0-1-.45-1-1s.45-1,1-1h15.36c.55,0,1,.45,1,1v12c0,.55-.45,1-1,1ZM72.04,10c0-.55-.45-1-1-1h-1.8c-.55,0-1,.45-1,1s.45,1,1,1h1.8c.55,0,1-.45,1-1Z"/></svg>