<?xml version="1.0" encoding="UTF-8"?><svg id="Greeny" xmlns="http://www.w3.org/2000/svg" xmlns:xlink="http://www.w3.org/1999/xlink" viewBox="0 0 96 96"><defs><style>.cls-1{fill:none;}.cls-1,.cls-2,.cls-3,.cls-4,.cls-5,.cls-6,.cls-7,.cls-8,.cls-9{stroke-width:0px;}.cls-2{fill:url(#New_Pattern_Swatch_5);}.cls-3{fill:url(#New_Pattern_Swatch_3);}.cls-4{fill:url(#New_Pattern_Swatch_2);}.cls-5{fill:url(#New_Pattern_Swatch_4);}.cls-6{fill:#2faf96;}.cls-7{fill:#1feab0;}.cls-8{fill:#b3ffde;}.cls-9{fill:#008887;}</style><pattern id="New_Pattern_Swatch_3" x="0" y="0" width="39.26" height="39.26" patternTransform="translate(-988 -2776)" patternUnits="userSpaceOnUse" viewBox="0 0 39.26 39.26"><rect class="cls-1" x="0" y="0" width="39.26" height="39.26"/><rect class="cls-7" x="0" y="0" width="39.26" height="39.26"/></pattern><pattern id="New_Pattern_Swatch_4" x="0" y="0" width="39.26" height="39.26" patternTransform="translate(-988 -2776)" patternUnits="userSpaceOnUse" viewBox="0 0 39.26 39.26"><rect class="cls-1" y="0" width="39.26" height="39.26"/><rect class="cls-8" x="0" y="0" width="39.26" height="39.26"/></pattern><pattern id="New_Pattern_Swatch_5" x="0" y="0" width="39.26" height="39.26" patternTransform="translate(-988 -2776)" patternUnits="userSpaceOnUse" viewBox="0 0 39.26 39.26"><rect class="cls-1" x="0" y="0" width="39.26" height="39.26"/><rect class="cls-9" x="0" y="0" width="39.26" height="39.26"/></pattern><pattern id="New_Pattern_Swatch_2" x="0" y="0" width="39.26" height="39.26" patternTransform="translate(-988 -2776)" patternUnits="userSpaceOnUse" viewBox="0 0 39.26 39.26"><rect class="cls-1" x="0" y="0" width="39.26" height="39.26"/><rect class="cls-6" x="0" y="0" width="39.26" height="39.26"/></pattern></defs><path class="cls-3" d="M32.78,78.45h-6.3V9c0-1.66,1.34-3,2.99-3h.31c1.65,0,2.99,1.34,2.99,3v69.45Z"/><path class="cls-5" d="M29.77,6v63.45c0,2.16-1.37,4-3.29,4.69V9c0-1.66,1.34-3,2.99-3h.3Z"/><path class="cls-2" d="M33.77,9c0-2.21-1.79-4-3.99-4h-.31c-2.2,0-3.99,1.79-3.99,4v68.4c0,.55.45,1,1,1s1-.45,1-1V29.59h4.29v47.81c0,.55.46,1,1.01,1s1-.45,1-1V9ZM27.48,27.59V9c0-1.1.89-2,1.99-2h.31c1.1,0,1.99.9,1.99,2v18.59s-4.29,0-4.29,0Z"/><path class="cls-4" d="M35.88,78.4v4.25c0,.55-.45,1-1,1h-10.5c-.56,0-1-.45-1-1v-4.25c0-1.1.89-2,2-2h8.5c1.1,0,2,.9,2,2Z"/><path class="cls-3" d="M82.12,63.75l-1.94,24.32c-.09,1.09-1,1.93-2.09,1.93h-21.33c-1.09,0-2-.84-2.09-1.93l-.17-2.07-1.78-22.25h29.4Z"/><path class="cls-5" d="M77.8,63.75l-1.04,13.05c-.41,5.19-4.75,9.2-9.97,9.2h-12.29l-1.78-22.25h25.08Z"/><path class="cls-2" d="M47.47,91H11.78c-.29,0-.57-.13-.76-.35-.19-.22-.27-.51-.23-.8l.86-5.6c.29-1.52,1.69-2.6,3.34-2.6h29.29c1.65,0,3.05,1.08,3.33,2.57l.86,5.63c.04.29-.04.58-.23.8-.19.22-.47.35-.76.35ZM12.94,89h33.37l-.68-4.44c-.1-.5-.68-.91-1.36-.91H14.98c-.68,0-1.26.4-1.37.94l-.68,4.41Z"/><path class="cls-2" d="M83.69,58.59c-.17,0-.34-.04-.49-.13,0,0-.02,0-.02,0h-31.5c-.32.18-.72.17-1.03-.02-.31-.19-.5-.53-.49-.9.11-2.29,1.56-4.27,3.64-5.1-.03-.21-.04-.42-.04-.62,0-3.21,2.62-5.82,5.83-5.82,1.5,0,2.91.57,3.98,1.59.66-.25,1.34-.38,2.05-.38,1.62,0,3.13.68,4.22,1.84,1.08-1.16,2.6-1.84,4.21-1.84,2.9,0,5.31,2.12,5.76,4.89,2.67.43,4.74,2.67,4.88,5.44.02.36-.16.71-.47.9-.16.1-.34.15-.53.15ZM52.41,56.45h30.03c-.55-1.43-1.94-2.43-3.56-2.43-.55,0-1-.45-1-1,0-2.11-1.72-3.82-3.83-3.82-1.38,0-2.66.77-3.33,2.01-.18.32-.51.52-.88.52h0c-.37,0-.7-.2-.88-.52-.68-1.24-1.96-2.01-3.34-2.01-.63,0-1.24.16-1.8.47-.43.24-.96.13-1.27-.25-.73-.91-1.8-1.43-2.96-1.43-2.11,0-3.83,1.71-3.83,3.82,0,.32.05.64.17,1.03.08.27.04.56-.1.8-.14.24-.38.41-.65.47-1.29.27-2.31,1.17-2.77,2.35ZM69.53,44.8c-1.71,0-3.1-1.39-3.1-3.1s1.39-3.1,3.1-3.1,3.1,1.39,3.1,3.1-1.39,3.1-3.1,3.1ZM69.53,40.6c-.61,0-1.1.49-1.1,1.1s.49,1.1,1.1,1.1,1.1-.49,1.1-1.1-.49-1.1-1.1-1.1ZM77.92,40.6c-1.71,0-3.1-1.39-3.1-3.1s1.39-3.1,3.1-3.1,3.1,1.39,3.1,3.1-1.39,3.1-3.1,3.1ZM77.92,36.4c-.61,0-1.1.49-1.1,1.1s.49,1.1,1.1,1.1,1.1-.49,1.1-1.1-.49-1.1-1.1-1.1ZM81.18,88.15l.61-7.57c.04-.55-.37-1.03-.92-1.08-.56-.04-1.03.37-1.08.92l-.61,7.57c-.05.57-.53,1.01-1.09,1.01h-21.33c-.57,0-1.05-.44-1.09-1.01l-1.85-23.24h27.23l-.53,6.67c-.04.55.37,1.03.92,1.08.57.05,1.03-.37,1.08-.92l.62-7.75c.02-.28-.07-.55-.26-.76-.19-.21-.46-.32-.73-.32h-29.4c-.28,0-.54.12-.73.32s-.28.48-.26.76l1.94,24.32c.13,1.6,1.49,2.85,3.09,2.85h21.33c1.6,0,2.96-1.25,3.09-2.85ZM82.08,76.98l.14-1.8c.04-.55-.37-1.03-.92-1.07-.57-.04-1.03.37-1.07.92l-.14,1.8c-.04.55.37,1.03.92,1.07.03,0,.05,0,.08,0,.52,0,.96-.4,1-.92Z"/><path class="cls-4" d="M85.22,58.45v4.3c0,1.1-.89,2-2,2h-31.6c-1.1,0-2-.9-2-2v-4.3c0-1.1.9-2,2-2h31.6c1.11,0,2,.9,2,2Z"/></svg>