<?xml version="1.0" encoding="UTF-8"?><svg id="Flat" xmlns="http://www.w3.org/2000/svg" viewBox="0 0 64 64"><defs><style>.cls-1{fill:#a26955;}.cls-2{fill:#c3967b;}.cls-3{fill:#b8c3d5;}.cls-4{fill:#d3dce5;}.cls-5{fill:#702e24;}.cls-6{fill:#894c3d;}</style></defs><polygon class="cls-2" points="54 60 54 22 32 6.09 10 22 10 60 54 60"/><path class="cls-6" d="M56.13,26.6L32,8.5,7.87,26.6l-2.4-3.2L30.8,4.4c.71-.53,1.69-.53,2.4,0l25.33,19-2.4,3.2Z"/><rect class="cls-5" x="19" y="56" width="26" height="4"/><rect class="cls-6" x="21" y="52" width="22" height="4"/><rect class="cls-1" x="26" y="36" width="12" height="16"/><rect class="cls-4" x="43" y="36" width="6" height="8"/><rect class="cls-3" x="26" y="22" width="6" height="6" transform="translate(54 -4) rotate(90)"/><rect class="cls-4" x="32" y="22" width="6" height="6" transform="translate(60 -10) rotate(90)"/><rect class="cls-4" x="15" y="36" width="6" height="8" transform="translate(36 80) rotate(-180)"/></svg>