<?xml version="1.0" encoding="UTF-8"?><svg id="Flat" xmlns="http://www.w3.org/2000/svg" viewBox="0 0 64 64"><defs><style>.cls-1{fill:#c3967b;}.cls-2{fill:#d3dce5;}.cls-3{fill:#894c3d;}.cls-4{fill:#79b24d;}</style></defs><polygon class="cls-1" points="54 60 54 22 32 6.09 10 22 10 60 54 60"/><path class="cls-3" d="M56.13,26.6L32,8.5,7.87,26.6l-2.4-3.2L30.8,4.4c.71-.53,1.69-.53,2.4,0l25.33,19-2.4,3.2Z"/><path class="cls-4" d="M44.15,30.96c-.15,11.76-3.11,19.72-12.15,23.04-9.03-3.32-12-11.27-12.15-23.04,5.34,.32,9.16-1.02,12.15-2.96,2.99,1.94,6.81,3.28,12.15,2.96Z"/><path class="cls-2" d="M30.92,44.73c-.27,0-.52-.11-.71-.29l-3.87-3.87c-.39-.39-.39-1.02,0-1.41,.39-.39,1.02-.39,1.41,0l3.17,3.17,6.31-6.31c.39-.39,1.02-.39,1.41,0s.39,1.02,0,1.41l-7.01,7.01c-.19,.19-.44,.29-.71,.29Z"/></svg>