<?xml version="1.0" encoding="UTF-8"?><svg id="Flat" xmlns="http://www.w3.org/2000/svg" viewBox="0 0 64 64"><defs><style>.cls-1{fill:#c3967b;}.cls-2{fill:#d3dce5;}.cls-3{fill:#894c3d;}</style></defs><polygon class="cls-1" points="54 60 54 22 32 6.09 10 22 10 60 54 60"/><path class="cls-3" d="M56.13,26.6L32,8.5,7.87,26.6l-2.4-3.2L30.8,4.4c.71-.53,1.69-.53,2.4,0l25.33,19-2.4,3.2Z"/><path class="cls-2" d="M28.9,46.35l10.45-10.45c1.96,.5,4.12,0,5.65-1.53,1.41-1.41,1.95-3.35,1.64-5.17-.11-.66-.95-.9-1.43-.42l-2.65,2.65-2.33-.62-.03-.03-.62-2.33,2.65-2.65c.48-.48,.23-1.32-.44-1.43-1.83-.31-3.78,.25-5.19,1.68-1.47,1.49-1.95,3.65-1.47,5.6l-10.49,10.49c-1.95-.48-4.1,0-5.6,1.47-1.43,1.41-1.99,3.35-1.68,5.19,.11,.67,.95,.92,1.43,.44l2.65-2.65,2.33,.62,.03,.03,.62,2.33-2.65,2.65c-.47,.47-.24,1.31,.42,1.43,1.82,.31,3.76-.24,5.17-1.64,1.53-1.53,2.03-3.69,1.53-5.65Z"/></svg>