<?xml version="1.0" encoding="UTF-8"?><svg id="Flat" xmlns="http://www.w3.org/2000/svg" viewBox="0 0 64 64"><defs><style>.cls-1{fill:#a26955;}.cls-2{fill:#c3967b;}.cls-3{fill:#b8c3d5;}.cls-4{fill:#9dabc4;}.cls-5{fill:#d3dce5;}.cls-6{fill:#536882;}.cls-7{fill:#894c3d;}.cls-8{fill:#335068;}</style></defs><path class="cls-6" d="M13,26c-.55,0-1-.45-1-1v-6c0-.55,.45-1,1-1s1,.45,1,1v6c0,.55-.45,1-1,1Z"/><g><path class="cls-6" d="M54,24c-.23,0-.45-.08-.64-.23l-6-5c-.42-.35-.48-.98-.13-1.41,.35-.42,.98-.48,1.41-.13l6,5c.42,.35,.48,.98,.13,1.41-.2,.24-.48,.36-.77,.36Z"/><path class="cls-6" d="M48,29c-.29,0-.57-.12-.77-.36-.35-.42-.3-1.05,.13-1.41l6-5c.43-.35,1.06-.3,1.41,.13,.35,.42,.3,1.05-.13,1.41l-6,5c-.19,.16-.41,.23-.64,.23Z"/><path class="cls-6" d="M54,33c-.23,0-.45-.08-.64-.23l-6-5c-.42-.35-.48-.98-.13-1.41,.35-.42,.98-.48,1.41-.13l6,5c.42,.35,.48,.98,.13,1.41-.2,.24-.48,.36-.77,.36Z"/><path class="cls-6" d="M48,38c-.29,0-.57-.12-.77-.36-.35-.42-.3-1.06,.13-1.41l6-5c.43-.35,1.06-.3,1.41,.13,.35,.42,.3,1.05-.13,1.41l-6,5c-.19,.16-.41,.23-.64,.23Z"/><path class="cls-6" d="M54,42c-.23,0-.45-.08-.64-.23l-6-5c-.42-.35-.48-.98-.13-1.41,.35-.42,.98-.48,1.41-.13l6,5c.42,.35,.48,.98,.13,1.41-.2,.24-.48,.36-.77,.36Z"/><path class="cls-6" d="M48,47c-.29,0-.57-.12-.77-.36-.35-.42-.3-1.06,.13-1.41l6-5c.43-.35,1.06-.29,1.41,.13,.35,.42,.3,1.06-.13,1.41l-6,5c-.19,.16-.41,.23-.64,.23Z"/><path class="cls-6" d="M54,51c-.23,0-.45-.08-.64-.23l-6-5c-.42-.35-.48-.98-.13-1.41,.35-.42,.98-.48,1.41-.13l6,5c.42,.35,.48,.98,.13,1.41-.2,.24-.48,.36-.77,.36Z"/><path class="cls-6" d="M48,56c-.29,0-.57-.12-.77-.36-.35-.42-.3-1.06,.13-1.41l6-5c.43-.35,1.06-.3,1.41,.13,.35,.42,.3,1.06-.13,1.41l-6,5c-.19,.16-.41,.23-.64,.23Z"/></g><path class="cls-5" d="M31,46c-.55,0-1-.45-1-1V29c0-.55,.45-1,1-1s1,.45,1,1v16c0,.55-.45,1-1,1Z"/><path class="cls-5" d="M26,46c-.55,0-1-.45-1-1V29c0-.55,.45-1,1-1s1,.45,1,1v16c0,.55-.45,1-1,1Z"/><rect class="cls-3" x="4" y="11" width="56" height="4"/><path class="cls-3" d="M54,60h-6c-.55,0-1-.45-1-1V4c0-.55,.45-1,1-1h6c.55,0,1,.45,1,1V59c0,.55-.45,1-1,1Zm-5-2h4V5h-4V58Z"/><rect class="cls-8" x="46" y="56" width="10" height="4"/><rect class="cls-8" x="46" y="8" width="10" height="10" rx="1" ry="1"/><path class="cls-4" d="M9,15h8v3c0,.55-.45,1-1,1h-6c-.55,0-1-.45-1-1v-3h0Z"/><rect class="cls-2" x="9" y="25" width="8" height="6"/><polygon class="cls-2" points="11 43.65 11 60 35 60 35 45 27 45 27 38.55 23 36 11 43.65"/><rect class="cls-1" x="20" y="52" width="6" height="8"/><path class="cls-7" d="M36,60H10c-.55,0-1-.45-1-1s.45-1,1-1h26c.55,0,1,.45,1,1s-.45,1-1,1Z"/><path class="cls-3" d="M23,30c-.55,0-1,.45-1,1s.45,1,1,1h9v-2h-9Z"/></svg>