<?xml version="1.0" encoding="UTF-8"?><svg id="Flat" xmlns="http://www.w3.org/2000/svg" viewBox="0 0 64 64"><defs><style>.cls-1{fill:#ecaf64;}.cls-2{fill:#6581c6;}.cls-3{fill:#d3dce5;}.cls-4{fill:#5064aa;}</style></defs><path class="cls-2" d="M60,13V55c0,.55-.45,1-1,1H8c-2.21,0-4-1.79-4-4V12c0-2.21,1.79-4,4-4s4,1.79,4,4H59c.55,0,1,.45,1,1Z"/><path class="cls-4" d="M12,12V52c0-2.21-1.79-4-4-4s-4,1.79-4,4V12c0-2.21,1.79-4,4-4s4,1.79,4,4Z"/><g><path class="cls-1" d="M54.71,49.29l-2-2c-.39-.39-1.02-.39-1.41,0s-.39,1.02,0,1.41l.29,.29H24.41l.29-.29c.39-.39,.39-1.02,0-1.41s-1.02-.39-1.41,0l-2,2c-.39,.39-.39,1.02,0,1.41l2,2c.2,.2,.45,.29,.71,.29s.51-.1,.71-.29c.39-.39,.39-1.02,0-1.41l-.29-.29h27.17l-.29,.29c-.39,.39-.39,1.02,0,1.41,.2,.2,.45,.29,.71,.29s.51-.1,.71-.29l2-2c.39-.39,.39-1.02,0-1.41Z"/><path class="cls-1" d="M22.71,39.29c-.39-.39-1.02-.39-1.41,0l-.29,.29V20.41l.29,.29c.2,.2,.45,.29,.71,.29s.51-.1,.71-.29c.39-.39,.39-1.02,0-1.41l-2-2c-.39-.39-1.02-.39-1.41,0l-2,2c-.39,.39-.39,1.02,0,1.41s1.02,.39,1.41,0l.29-.29v19.17l-.29-.29c-.39-.39-1.02-.39-1.41,0s-.39,1.02,0,1.41l2,2c.2,.2,.45,.29,.71,.29s.51-.1,.71-.29l2-2c.39-.39,.39-1.02,0-1.41Z"/></g><path class="cls-3" d="M54,17H28c-.55,0-1,.45-1,1v24c0,.55,.45,1,1,1h26c.55,0,1-.45,1-1V18c0-.55-.45-1-1-1Zm-1,12h-6v-10h6v10Zm-14-10v4h-6v-4h6Zm-10,22v-10h7v3.5c0,.55,.45,1,1,1h5v5.5h-13Zm15,0v-6.5c0-.55-.45-1-1-1h-5v-3.5c0-.55-.45-1-1-1h-8v-10h2v5c0,.55,.45,1,1,1h8c.55,0,1-.45,1-1v-5h4v11c0,.55,.45,1,1,1h7v10h-9Z"/></svg>