<?xml version="1.0" encoding="UTF-8"?><svg id="Flat" xmlns="http://www.w3.org/2000/svg" viewBox="0 0 64 64"><defs><style>.cls-1{fill:#ecaf64;}.cls-2{fill:#c3967b;}.cls-3{fill:#d88852;}.cls-4{fill:#d3dce5;}.cls-5{fill:#702e24;}.cls-6{fill:#536882;}.cls-7{fill:#894c3d;}.cls-8{fill:#335068;}</style></defs><polygon class="cls-2" points="54 60 54 22 32 6.09 10 22 10 60 54 60"/><path class="cls-7" d="M56.13,26.6L32,8.5,7.87,26.6l-2.4-3.2L30.8,4.4c.71-.53,1.69-.53,2.4,0l25.33,19-2.4,3.2Z"/><rect class="cls-4" x="16" y="36" width="32" height="24"/><g><path class="cls-6" d="M37.9,56h0c1.38,0,2.5,1.12,2.5,2.5v1.5h-5v-1.5c0-1.38,1.12-2.5,2.5-2.5Z" transform="translate(75.8 116) rotate(-180)"/><path class="cls-6" d="M23.6,56h5v1.5c0,1.38-1.12,2.5-2.5,2.5h0c-1.38,0-2.5-1.12-2.5-2.5v-1.5h0Z"/><path class="cls-3" d="M40.77,49.69l-.8-6.07c-.07-.5-.49-.87-.99-.87h-13.96c-.5,0-.93,.37-.99,.87l-.8,6.07-1.6,2.4c-.15,.23-.23,.49-.23,.76v3.24c0,.5,.41,.91,.91,.91h19.37c.5,0,.91-.41,.91-.91v-3.24c0-.27-.08-.54-.23-.76l-1.6-2.4Z"/><path class="cls-1" d="M40.77,49.69H23.23l.8-6.07c.07-.5,.49-.87,.99-.87h13.96c.5,0,.93,.37,.99,.87l.8,6.07Z"/><path class="cls-4" d="M34.29,54h-4.57c-.55,0-1-.45-1-1s.45-1,1-1h4.57c.55,0,1,.45,1,1s-.45,1-1,1Z"/></g><rect class="cls-8" x="16" y="32" width="32" height="4"/><rect class="cls-6" x="16" y="28" width="32" height="4"/><rect class="cls-5" x="29" y="17" width="6" height="6" rx="3" ry="3" transform="translate(52 -12) rotate(90)"/></svg>