<?xml version="1.0" encoding="UTF-8"?><svg id="Flat" xmlns="http://www.w3.org/2000/svg" viewBox="0 0 64 64"><defs><style>.cls-1{fill:#d3dce5;}.cls-2{fill:#d85363;}.cls-3{fill:#335068;}</style></defs><path class="cls-3" d="M53,30c-.19,0-.38-.05-.55-.17L31.45,15.83c-.46-.31-.58-.93-.28-1.39,.31-.46,.93-.58,1.39-.28l21,14c.46,.31,.58,.93,.28,1.39-.19,.29-.51,.45-.83,.45Z"/><path class="cls-3" d="M11,30c-.32,0-.64-.16-.83-.45-.31-.46-.18-1.08,.28-1.39L31.45,14.17c.46-.31,1.08-.18,1.39,.28,.31,.46,.18,1.08-.28,1.39L11.55,29.83c-.17,.11-.36,.17-.55,.17Z"/><rect class="cls-2" x="4" y="28" width="56" height="24" rx="2" ry="2"/><circle class="cls-2" cx="32" cy="15" r="3"/><g><path class="cls-1" d="M26.95,47.21h-2.9c-2.21,0-4-1.79-4-4v-6.41c0-2.21,1.79-4,4-4h2.9c2.21,0,4,1.79,4,4v6.41c0,2.21-1.79,4-4,4Zm-2.9-12.41c-1.1,0-2,.9-2,2v6.41c0,1.1,.9,2,2,2h2.9c1.1,0,2-.9,2-2v-6.41c0-1.1-.9-2-2-2h-2.9Z"/><path class="cls-1" d="M13.95,47.21h-1.9c-2.21,0-4-1.79-4-4v-.32c0-.55,.45-1,1-1s1,.45,1,1v.32c0,1.1,.9,2,2,2h1.9c.55,0,1.08-.23,1.46-.64,.24-.26,.54-.71,.54-1.36,0-.7-.45-1.32-1.11-1.54l-4.31-1.44c-1.48-.5-2.48-1.88-2.48-3.44,0-1.02,.39-1.99,1.09-2.74,.75-.8,1.81-1.26,2.91-1.26h1.9c2.21,0,4,1.79,4,4v.31c0,.55-.45,1-1,1s-1-.45-1-1v-.31c0-1.1-.9-2-2-2h-1.9c-.55,0-1.07,.23-1.45,.63-.36,.38-.55,.86-.55,1.37,0,.7,.45,1.32,1.11,1.54l4.31,1.44c1.48,.5,2.48,1.88,2.48,3.44,0,1.01-.38,1.98-1.08,2.73-.77,.81-1.83,1.27-2.92,1.27Z"/><path class="cls-1" d="M48.74,47.21h-2.69c-.55,0-1-.45-1-1v-12.41c0-.55,.45-1,1-1h2.69c3.97,0,7.21,3.23,7.21,7.21s-3.23,7.21-7.21,7.21Zm-1.69-2h1.69c2.87,0,5.21-2.34,5.21-5.21s-2.34-5.21-5.21-5.21h-1.69v10.41Z"/><path class="cls-1" d="M41.46,47.21h-6.9c-.55,0-1-.45-1-1v-12.41c0-.55,.45-1,1-1s1,.45,1,1v11.41h5.9c.55,0,1,.45,1,1s-.45,1-1,1Z"/></g></svg>