<?xml version="1.0" encoding="UTF-8"?><svg id="Flat" xmlns="http://www.w3.org/2000/svg" viewBox="0 0 64 64"><defs><style>.cls-1{fill:#a26955;}.cls-2{fill:#c3967b;}.cls-3{fill:#b8c3d5;}.cls-4{fill:#d3dce5;}.cls-5{fill:#894c3d;}.cls-6{fill:#79b24d;}.cls-7{fill:#4f823f;}</style></defs><path class="cls-4" d="M54,12V58c0,1.1-.9,2-2,2H12c-1.1,0-2-.9-2-2V6c0-1.1,.9-2,2-2H46l8,8Z"/><polygon class="cls-3" points="54 12 46 12 46 4 54 12"/><g><polygon class="cls-2" points="39.09 26.25 39.09 13.07 32 7.75 24.9 13.07 24.9 26.25 39.09 26.25"/><rect class="cls-1" x="29" y="18.25" width="6" height="8"/><path class="cls-5" d="M40.33,15c-.21,0-.42-.07-.6-.2l-7.73-5.8-7.73,5.8c-.44,.33-1.07,.24-1.4-.2-.33-.44-.24-1.07,.2-1.4l8.33-6.25c.36-.27,.84-.27,1.2,0l8.33,6.25c.44,.33,.53,.96,.2,1.4-.2,.26-.5,.4-.8,.4Z"/></g><g><path class="cls-3" d="M48,33H16c-.55,0-1-.45-1-1s.45-1,1-1H48c.55,0,1,.45,1,1s-.45,1-1,1Z"/><path class="cls-3" d="M43.48,37H20.52c-.55,0-1-.45-1-1s.45-1,1-1h22.96c.55,0,1,.45,1,1s-.45,1-1,1Z"/></g><g><polygon class="cls-7" points="32.35 50.87 35.68 56 36.78 54.13 38.94 53.88 35.61 48.75 32.35 50.87"/><polygon class="cls-7" points="31.65 50.87 28.32 56 27.22 54.13 25.06 53.88 28.39 48.75 31.65 50.87"/><circle class="cls-6" cx="32" cy="46.76" r="5"/><circle class="cls-4" cx="32" cy="46.76" r="2"/></g></svg>