<?xml version="1.0" encoding="UTF-8"?><svg id="Flat" xmlns="http://www.w3.org/2000/svg" viewBox="0 0 64 64"><defs><style>.cls-1{fill:#a26955;}.cls-2{fill:#c3967b;}.cls-3{fill:#b8c3d5;}.cls-4{fill:#9dabc4;}.cls-5{fill:#536882;}.cls-6{fill:#894c3d;}</style></defs><g><polygon class="cls-2" points="47 31.58 47 14.41 37 6.21 27 14.41 27 31.58 47 31.58"/><rect class="cls-1" x="34" y="19.58" width="6" height="12"/><path class="cls-6" d="M51.01,14.01l-2.4,3.2-11.61-8.71-11.61,8.71-2.4-3.2,12.81-9.61c.71-.53,1.69-.53,2.4,0l12.81,9.61Z"/></g><path class="cls-4" d="M16.25,44.63l-3.06-30.63H6c-1.1,0-2-.9-2-2h0c0-1.1,.9-2,2-2H15c1.03,0,1.89,.78,1.99,1.8l2.88,32.07-3.61,.76Z"/><circle class="cls-5" cx="25" cy="57" r="3"/><circle class="cls-5" cx="50" cy="57" r="3"/><path class="cls-3" d="M19.21,54c-3.05,0-5.77-2.19-6.16-5.21-.47-3.66,2.38-6.79,5.95-6.79H52.63l3.4-20.55c.18-1.09,1.21-1.83,2.3-1.65h0c1.09,.18,1.83,1.21,1.65,2.3l-3.67,22.23c-.16,.97-.99,1.67-1.97,1.67H19c-1.1,0-2,.9-2,2h0c0,1.1,.9,2,2,2H56c1.1,0,2,.9,2,2h0c0,1.1-.9,2-2,2H19.21Z"/></svg>