<?xml version="1.0" encoding="UTF-8"?><svg id="Flat" xmlns="http://www.w3.org/2000/svg" viewBox="0 0 64 64"><defs><style>.cls-1{fill:#b8c3d5;}.cls-2{fill:#9dabc4;}.cls-3{fill:#6581c6;}.cls-4{fill:#d3dce5;}.cls-5{fill:#5064aa;}</style></defs><rect class="cls-3" x="4" y="4" width="40" height="56"/><rect class="cls-1" x="14" y="46" width="10" height="14"/><rect class="cls-2" x="12" y="46" width="12" height="4"/><rect class="cls-4" x="24" y="46" width="10" height="14" transform="translate(58 106) rotate(-180)"/><rect class="cls-1" x="24" y="46" width="12" height="4" transform="translate(60 96) rotate(-180)"/><rect class="cls-4" x="9" y="14" width="6" height="6"/><rect class="cls-4" x="9" y="24" width="6" height="6"/><rect class="cls-4" x="21" y="14" width="6" height="6"/><rect class="cls-4" x="21" y="24" width="6" height="6"/><rect class="cls-4" x="33" y="14" width="6" height="6"/><rect class="cls-4" x="33" y="24" width="6" height="6"/><rect class="cls-4" x="9" y="34" width="6" height="6"/><rect class="cls-4" x="21" y="34" width="6" height="6"/><rect class="cls-4" x="33" y="34" width="6" height="6"/><rect class="cls-4" x="4" y="4" width="40" height="4"/><rect class="cls-5" x="44" y="14" width="16" height="46" transform="translate(104 74) rotate(180)"/><rect class="cls-1" x="44" y="14" width="16" height="4" transform="translate(104 32) rotate(180)"/><rect class="cls-4" x="49" y="24" width="6" height="6"/><rect class="cls-4" x="49" y="34" width="6" height="6"/><rect class="cls-4" x="49" y="44" width="6" height="6"/></svg>