<?xml version="1.0" encoding="UTF-8"?><svg id="Flat" xmlns="http://www.w3.org/2000/svg" viewBox="0 0 64 64"><defs><style>.cls-1{fill:#a26955;}.cls-2{fill:#c3967b;}.cls-3{fill:#b8c3d5;}.cls-4{fill:#d3dce5;}.cls-5{fill:#536882;}.cls-6{fill:#894c3d;}.cls-7{fill:#335068;}</style></defs><rect class="cls-5" x="9" y="4" width="4" height="56"/><rect class="cls-7" x="8" y="38" width="6" height="4"/><rect class="cls-5" x="51" y="4" width="4" height="56"/><rect class="cls-7" x="50" y="38" width="6" height="4"/><rect class="cls-4" x="4" y="8" width="56" height="30"/><g><polygon class="cls-2" points="27.03 32.25 27.03 19.07 19.94 13.75 12.84 19.07 12.84 32.25 27.03 32.25"/><rect class="cls-1" x="16.94" y="24.25" width="6" height="8"/><path class="cls-6" d="M28.27,21c-.21,0-.42-.07-.6-.2l-7.73-5.8-7.73,5.8c-.44,.33-1.07,.24-1.4-.2-.33-.44-.24-1.07,.2-1.4l8.33-6.25c.36-.27,.84-.27,1.2,0l8.33,6.25c.44,.33,.53,.96,.2,1.4-.2,.26-.5,.4-.8,.4Z"/></g><g><path class="cls-3" d="M54,18h-21c-.55,0-1-.45-1-1s.45-1,1-1h21c.55,0,1,.45,1,1s-.45,1-1,1Z"/><path class="cls-3" d="M54,22h-18c-.55,0-1-.45-1-1s.45-1,1-1h18c.55,0,1,.45,1,1s-.45,1-1,1Z"/><path class="cls-3" d="M54,26h-18c-.55,0-1-.45-1-1s.45-1,1-1h18c.55,0,1,.45,1,1s-.45,1-1,1Z"/><path class="cls-3" d="M54,30h-18c-.55,0-1-.45-1-1s.45-1,1-1h18c.55,0,1,.45,1,1s-.45,1-1,1Z"/></g></svg>