<?xml version="1.0" encoding="UTF-8"?><svg id="Flat" xmlns="http://www.w3.org/2000/svg" viewBox="0 0 64 64"><defs><style>.cls-1{fill:#a26955;}.cls-2{fill:#b8c3d5;}.cls-3{fill:#d3dce5;}.cls-4{fill:#702e24;}.cls-5{fill:#894c3d;}</style></defs><path class="cls-5" d="M32,4h0c11.04,0,20,8.96,20,20V60H12V24c0-11.04,8.96-20,20-20Z"/><path class="cls-1" d="M22,18H58v32H22c-8.83,0-16-7.17-16-16h0c0-8.83,7.17-16,16-16Z" transform="translate(66 2) rotate(90)"/><path class="cls-4" d="M55,60H9c-.55,0-1-.45-1-1s.45-1,1-1H55c.55,0,1,.45,1,1s-.45,1-1,1Z"/><g><path class="cls-3" d="M20,24v2h24v-2c0-6.63-5.37-12-12-12h0c-6.63,0-12,5.37-12,12Z"/><path class="cls-2" d="M42.02,17.39l-8.6,8.61h-2.84l-8.6-8.6c.37-.57,.78-1.1,1.25-1.59l7.77,7.78V12.04c.33-.03,.66-.04,1-.04s.67,.01,1,.04v11.55l7.78-7.78c.45,.49,.87,1.01,1.24,1.58Z"/></g><g><rect class="cls-5" x="20" y="30" width="24" height="25"/><polygon class="cls-1" points="44 41.5 44 43.5 33 43.5 33 55 31 55 31 43.5 20 43.5 20 41.5 31 41.5 31 30 33 30 33 41.5 44 41.5"/></g></svg>