<?xml version="1.0" encoding="UTF-8"?><svg id="Flat" xmlns="http://www.w3.org/2000/svg" viewBox="0 0 64 64"><defs><style>.cls-1{fill:#c3967b;}.cls-2{fill:#b8c3d5;}.cls-3{fill:#d3dce5;}.cls-4{fill:#536882;}.cls-5{fill:#894c3d;}.cls-6{fill:#335068;}</style></defs><polygon class="cls-1" points="54 60 54 22 32 6.09 10 22 10 60 54 60"/><path class="cls-5" d="M56.13,26.6L32,8.5,7.87,26.6l-2.4-3.2L30.8,4.4c.71-.53,1.69-.53,2.4,0l25.33,19-2.4,3.2Z"/><g><polygon class="cls-4" points="23.84 49.74 36.52 37.06 33.72 34.21 20.99 46.94 23.84 49.74"/><path class="cls-6" d="M20.3,54.7l9.15-9.15c.39-.39,.39-1.02,0-1.41l-2.81-2.84c-.39-.39-1.03-.4-1.42,0l-9.18,9.18c-.39,.39-.39,1.03,0,1.42l2.84,2.81c.39,.39,1.02,.39,1.41,0Z"/><circle class="cls-3" cx="38.25" cy="33.01" r="10"/><path class="cls-2" d="M41.22,39.22c-.35,0-.69-.18-.87-.51-.27-.48-.11-1.09,.38-1.36,.38-.22,.74-.49,1.06-.81,.53-.53,.92-1.15,1.17-1.85,.18-.52,.76-.79,1.28-.61,.52,.18,.79,.76,.61,1.28-.35,.98-.9,1.86-1.64,2.6-.45,.45-.94,.83-1.49,1.13-.16,.09-.33,.13-.49,.13Z"/><path class="cls-2" d="M43.96,32.17c-.42,0-.82-.27-.95-.69-.12-.36-.28-.71-.47-1.04-.28-.47-.13-1.09,.34-1.37,.47-.28,1.09-.13,1.37,.34,.27,.45,.5,.94,.66,1.45,.17,.53-.12,1.09-.65,1.26-.1,.03-.21,.05-.31,.05Z"/></g></svg>