<?xml version="1.0" encoding="UTF-8"?><svg id="Flat" xmlns="http://www.w3.org/2000/svg" viewBox="0 0 64 64"><defs><style>.cls-1{fill:#737f9b;}.cls-2{fill:#b8c3d5;}.cls-3{fill:#d3dce5;}.cls-4{fill:#702e24;}.cls-5{fill:#536882;}.cls-6{fill:#894c3d;}.cls-7{fill:#335068;}</style></defs><rect class="cls-2" x="8" y="27" width="48" height="33"/><polygon class="cls-4" points="55 15 9 15 4 27 60 27 55 15"/><path class="cls-3" d="M46,16V60H18V16L30.8,6.4c.71-.53,1.69-.53,2.4,0l12.8,9.6Z"/><path class="cls-6" d="M30.8,4.4L12.67,18l2.4,3.2,16.93-12.7,16.93,12.7,2.4-3.2L33.2,4.4c-.71-.53-1.69-.53-2.4,0Z"/><rect class="cls-1" x="15" y="56" width="34" height="4"/><rect class="cls-5" x="26" y="40" width="12" height="16"/><rect class="cls-7" x="24" y="36" width="16" height="4"/><rect class="cls-5" x="26" y="21" width="6" height="6" transform="translate(53 -5) rotate(90)"/><rect class="cls-7" x="32" y="21" width="6" height="6" transform="translate(59 -11) rotate(90)"/></svg>