<?xml version="1.0" encoding="UTF-8"?><svg id="Flat" xmlns="http://www.w3.org/2000/svg" viewBox="0 0 64 64"><defs><style>.cls-1{fill:#a26955;}.cls-2{fill:#d3dce5;}.cls-3{fill:#335068;}</style></defs><path class="cls-3" d="M53,30c-.19,0-.38-.05-.55-.17L31.45,15.83c-.46-.31-.58-.93-.28-1.39,.31-.46,.93-.58,1.39-.28l21,14c.46,.31,.58,.93,.28,1.39-.19,.29-.51,.45-.83,.45Z"/><path class="cls-3" d="M11,30c-.32,0-.64-.16-.83-.45-.31-.46-.18-1.08,.28-1.39L31.45,14.17c.46-.31,1.08-.18,1.39,.28,.31,.46,.18,1.08-.28,1.39L11.55,29.83c-.17,.11-.36,.17-.55,.17Z"/><rect class="cls-1" x="4" y="28" width="56" height="24" rx="2" ry="2"/><circle class="cls-1" cx="32" cy="15" r="3"/><g><path class="cls-2" d="M15.72,41.14c1.39-.75,2.35-2.21,2.35-3.9,0-2.45-2-4.45-4.45-4.45h-3.45c-.55,0-1,.45-1,1v12.41c0,.55,.45,1,1,1s1-.45,1-1v-4.52h2.45s.08-.01,.13-.01l2.49,4.98c.18,.35,.53,.55,.9,.55,.15,0,.3-.03,.45-.11,.49-.25,.69-.85,.45-1.34l-2.31-4.62Zm-4.54-6.35h2.45c1.35,0,2.45,1.1,2.45,2.45s-1.1,2.45-2.45,2.45h-2.45v-4.9Z"/><path class="cls-2" d="M28.62,34.79c.55,0,1-.45,1-1s-.45-1-1-1h-6.9c-.55,0-1,.45-1,1v12.41c0,.55,.45,1,1,1h6.9c.55,0,1-.45,1-1s-.45-1-1-1h-5.9v-4.21h4.52c.55,0,1-.45,1-1s-.45-1-1-1h-4.52v-4.21h5.9Z"/><path class="cls-2" d="M41.33,32.79c-.55,0-1,.45-1,1v9.11l-6.44-9.67c-.24-.37-.7-.53-1.12-.4-.42,.13-.71,.52-.71,.96v12.41c0,.55,.45,1,1,1s1-.45,1-1v-9.11l6.44,9.67c.19,.28,.5,.45,.83,.45,.1,0,.19-.01,.29-.04,.42-.13,.71-.52,.71-.96v-12.41c0-.55-.45-1-1-1Z"/><path class="cls-2" d="M53.82,32.79h-8.28c-.55,0-1,.45-1,1s.45,1,1,1h3.14v11.41c0,.55,.45,1,1,1s1-.45,1-1v-11.41h3.14c.55,0,1-.45,1-1s-.45-1-1-1Z"/></g></svg>