<?xml version="1.0" encoding="UTF-8"?><svg id="Flat" xmlns="http://www.w3.org/2000/svg" viewBox="0 0 64 64"><defs><style>.cls-1{fill:#ecaf64;}.cls-2{fill:#b74846;}.cls-3{fill:#9dabc4;}.cls-4{fill:#6581c6;}.cls-5{fill:#d3dce5;}.cls-6{fill:#d68076;}.cls-7{fill:#335068;}.cls-8{fill:#5064aa;}</style></defs><g><path class="cls-7" d="M32,4h0c8.28,0,15,6.72,15,15v10H17v-10c0-8.28,6.72-15,15-15Z"/><g><path class="cls-2" d="M46.83,29.53l-2.83,.47v-8h2.21c2.09,0,3.79,1.7,3.79,3.79h0c0,1.85-1.34,3.43-3.17,3.74Z"/><path class="cls-2" d="M17.17,29.53l2.83,.47v-8s-2.21,0-2.21,0c-2.09,0-3.79,1.7-3.79,3.79h0c0,1.85,1.34,3.43,3.17,3.74Z"/></g><path class="cls-5" d="M24,44h16c6.62,0,12,5.38,12,12v4H12v-4c0-6.62,5.38-12,12-12Z"/><path class="cls-2" d="M27,33h10v11c0,2.21-1.79,4-4,4h-2c-2.21,0-4-1.79-4-4v-11h0Z"/><path class="cls-6" d="M19,22v5.63c0,7,5.38,13.02,12.37,13.35,7.47,.35,13.63-5.6,13.63-12.99v-6c0-1.1-.9-2-2-2h-6.17c-1.81,0-3.55-.72-4.83-2h0s0,0,0,0c-1.28,1.28-3.02,2-4.83,2h-6.17c-1.1,0-2,.9-2,2Z"/><path class="cls-2" d="M32,36c-1.38,0-2.7-.38-3.93-1.12-.47-.29-.62-.9-.34-1.37,.29-.47,.9-.62,1.37-.34,1.82,1.1,3.96,1.1,5.78,0,.47-.28,1.09-.14,1.37,.34,.29,.47,.13,1.09-.34,1.37-1.23,.74-2.55,1.12-3.93,1.12Z"/><polygon class="cls-4" points="27 60 31 52 33 52 37 60 27 60"/><polygon class="cls-8" points="35.76 50.24 32 54 28.24 50.24 32 48 35.76 50.24"/><polygon class="cls-4" points="32 48 35.99 51.35 40.17 44 37 42.65 32 48"/><polygon class="cls-4" points="32 48 28.01 51.35 23.83 44 27 42.65 32 48"/></g><g><circle class="cls-1" cx="47" cy="47" r="13"/><g><path class="cls-5" d="M53.32,47.69c1.95-1.95,1.95-5.12,0-7.07s-5.12-1.95-7.07,0c-1.45,1.45-1.82,3.56-1.12,5.36l-4.38,4.38-.06,2.89,2.89-.06,4.38-4.38c1.79,.7,3.91,.33,5.36-1.12Z"/><path class="cls-3" d="M51.2,42.74c-.76-.76-2.07-.75-2.83,0-.78,.78-.78,2.05,0,2.83,.38,.38,.88,.59,1.42,.59s1.04-.21,1.41-.58h0c.78-.78,.78-2.05,0-2.83Z"/></g></g></svg>