<?xml version="1.0" encoding="UTF-8"?><svg id="Flat" xmlns="http://www.w3.org/2000/svg" viewBox="0 0 64 64"><defs><style>.cls-1{fill:#c3967b;}.cls-2{fill:#b74846;}.cls-3{fill:#6581c6;}.cls-4{fill:#d3dce5;}.cls-5{fill:#d68076;}.cls-6{fill:#894c3d;}.cls-7{fill:#335068;}.cls-8{fill:#5064aa;}</style></defs><polygon class="cls-1" points="54 60 54 22 32 6.09 10 22 10 60 54 60"/><path class="cls-6" d="M56.13,26.6L32,8.5,7.87,26.6l-2.4-3.2L30.8,4.4c.71-.53,1.69-.53,2.4,0l25.33,19-2.4,3.2Z"/><g><path class="cls-7" d="M32,24h0c5.32,0,9.64,4.32,9.64,9.64v6.43H22.36v-6.43c0-5.32,4.32-9.64,9.64-9.64Z"/><g><path class="cls-2" d="M41.86,40.41l-1.82,.3v-5.14h1.42c1.35,0,2.44,1.09,2.44,2.44h0c0,1.19-.86,2.21-2.04,2.4Z"/><path class="cls-2" d="M22.14,40.41l1.82,.3v-5.14s-1.42,0-1.42,0c-1.35,0-2.44,1.09-2.44,2.44h0c0,1.19,.86,2.21,2.04,2.4Z"/></g><path class="cls-4" d="M26.86,49.71h10.29c4.26,0,7.71,3.46,7.71,7.71v2.57H19.14v-2.57c0-4.26,3.46-7.71,7.71-7.71Z"/><path class="cls-2" d="M28.79,42.64h6.43v7.07c0,1.42-1.15,2.57-2.57,2.57h-1.29c-1.42,0-2.57-1.15-2.57-2.57v-7.07h0Z"/><path class="cls-5" d="M23.64,35.57v3.62c0,4.5,3.46,8.37,7.95,8.58,4.8,.23,8.76-3.6,8.76-8.35v-3.86c0-.71-.58-1.29-1.29-1.29h-3.97c-1.16,0-2.28-.46-3.1-1.29h0s0,0,0,0c-.82,.82-1.94,1.29-3.1,1.29h-3.97c-.71,0-1.29,.58-1.29,1.29Z"/><path class="cls-2" d="M32,44.61c-.95,0-1.86-.26-2.71-.77-.47-.29-.62-.9-.34-1.37,.29-.47,.9-.62,1.37-.34,1.06,.64,2.29,.64,3.35,0,.47-.28,1.09-.14,1.37,.34,.29,.47,.13,1.09-.34,1.37-.85,.51-1.76,.77-2.71,.77Z"/><polygon class="cls-8" points="28.79 60 30.6 52.29 33.4 52.29 35.21 60 28.79 60"/><polygon class="cls-3" points="32 52.29 35.21 54.71 38.02 49.71 35.21 48.85 32 52.29"/><polygon class="cls-3" points="32 52.29 28.79 54.71 25.98 49.71 28.79 48.85 32 52.29"/></g></svg>