<?xml version="1.0" encoding="UTF-8"?><svg id="Flat" xmlns="http://www.w3.org/2000/svg" viewBox="0 0 64 64"><defs><style>.cls-1{fill:#ecaf64;}.cls-2{fill:#a26955;}.cls-3{fill:#c3967b;}.cls-4{fill:#b8c3d5;}.cls-5{fill:#d3dce5;}.cls-6{fill:#894c3d;}</style></defs><path class="cls-4" d="M42.99,14.56c-.53,0-.97-.41-1-.95-.19-3.63-2.51-6.78-5.93-8.02-2.26-.82-4.71-.72-6.9,.3-2.18,1.02-3.84,2.83-4.66,5.09-.27,.74-.44,1.5-.51,2.28-.05,.55-.53,.95-1.09,.91-.55-.05-.96-.54-.91-1.09,.09-.94,.3-1.88,.62-2.78,1.01-2.77,3.03-4.97,5.7-6.22,2.67-1.24,5.66-1.38,8.43-.37,4.17,1.52,7.01,5.36,7.24,9.8,.03,.55-.4,1.02-.95,1.05-.02,0-.03,0-.05,0Z"/><g><polygon class="cls-3" points="60 38.74 54.29 18.82 40.36 13.78 31.22 25.43 36.93 45.36 60 38.74"/><rect class="cls-2" x="41.54" y="28.32" width="10" height="14" transform="translate(-7.93 14.2) rotate(-16)"/><path class="cls-6" d="M58.31,16.85l-1.43,3.74-16.35-6.23-10.56,13.95-3.19-2.41,11.47-15.15c.54-.71,1.48-.98,2.31-.66l17.75,6.77Z"/></g><path class="cls-1" d="M34.76,26.56c2.83-7.78-1.18-16.39-8.97-19.23s-16.39,1.18-19.23,8.97c-2.23,6.13-.2,12.77,4.56,16.7l-1.8,4.95,1.2,2.56-2.56,1.2,1.2,2.56-2.56,1.2,1.2,2.56-2.56,1.2-1.23,3.39,2.65,7.35,6.75-3.93,7.14-19.61c6.18,.05,12-3.72,14.23-9.86Z"/><path class="cls-4" d="M23.57,11.64c-.11,0-.23-.02-.34-.06-.52-.19-.79-.76-.6-1.28,.94-2.58,2.79-4.7,5.21-5.98,.49-.26,1.09-.07,1.35,.42,.26,.49,.07,1.09-.42,1.35-1.98,1.05-3.5,2.78-4.26,4.89-.15,.41-.53,.66-.94,.66Z"/><circle class="cls-5" cx="23.41" cy="13.91" r="3"/></svg>