<?xml version="1.0" encoding="UTF-8"?><svg id="Flat" xmlns="http://www.w3.org/2000/svg" viewBox="0 0 64 64"><defs><style>.cls-1{fill:#ecaf64;}.cls-2{fill:#737f9b;}.cls-3{fill:#a26955;}.cls-4{fill:#c3967b;}.cls-5{fill:#b8c3d5;}.cls-6{fill:#9dabc4;}.cls-7{fill:#d3dce5;}.cls-8{fill:#702e24;}.cls-9{fill:#536882;}.cls-10{fill:#894c3d;}.cls-11{fill:#335068;}</style></defs><rect class="cls-5" x="4" y="35.06" width="32" height="16"/><rect class="cls-3" x="6" y="23.06" width="14" height="12"/><rect class="cls-8" x="11" y="23.06" width="4" height="6"/><rect class="cls-4" x="20" y="23.06" width="14" height="12"/><rect class="cls-10" x="13" y="12" width="14" height="11.06"/><rect class="cls-2" x="4" y="47.06" width="32" height="4"/><circle class="cls-9" cx="15" cy="51" r="5"/><path class="cls-6" d="M58.74,37.85l-6.63-2.63-5.38-11.04c-.34-.69-1.03-1.12-1.8-1.12h-10.93s0,28,0,28h25c.55,0,1-.45,1-1v-10.35c0-.82-.5-1.56-1.26-1.86Z"/><path class="cls-7" d="M52.1,35.23h-14.1v-12.17h6.93c.76,0,1.46,.44,1.79,1.12l5.38,11.05Z"/><circle class="cls-9" cx="49" cy="51" r="5"/><g><circle class="cls-11" cx="15" cy="51" r="2"/><circle class="cls-11" cx="49" cy="51" r="2"/></g><path class="cls-7" d="M43,40.23h-4c-.55,0-1-.45-1-1s.45-1,1-1h4c.55,0,1,.45,1,1s-.45,1-1,1Z"/><rect class="cls-1" x="56" y="41.06" width="4" height="4" transform="translate(116 86.12) rotate(180)"/><rect class="cls-8" x="25" y="23.06" width="4" height="6"/><rect class="cls-8" x="18" y="12" width="4" height="6"/></svg>