<?xml version="1.0" encoding="UTF-8"?><svg id="Flat" xmlns="http://www.w3.org/2000/svg" viewBox="0 0 64 64"><defs><style>.cls-1{fill:#a26955;}.cls-2{fill:#c3967b;}.cls-3{fill:#b8c3d5;}.cls-4{fill:#9dabc4;}.cls-5{fill:#6581c6;}.cls-6{fill:#d3dce5;}.cls-7{fill:#894c3d;}.cls-8{fill:#5064aa;}</style></defs><path class="cls-6" d="M60,12V58c0,1.1-.9,2-2,2H18c-1.1,0-2-.9-2-2V6c0-1.1,.9-2,2-2H52l8,8Z"/><polygon class="cls-3" points="60 12 52 12 52 4 60 12"/><g><polygon class="cls-2" points="48 35.58 48 20.41 38 12.21 28 20.41 28 35.58 48 35.58"/><rect class="cls-1" x="35" y="25.58" width="6" height="10"/><path class="cls-7" d="M52.01,20.01l-2.4,3.2-11.61-8.71-11.61,8.71-2.4-3.2,12.81-9.61c.71-.53,1.69-.53,2.4,0l12.81,9.61Z"/><path class="cls-4" d="M35.44,55c-.2,0-.41-.06-.59-.19-.45-.32-.55-.95-.22-1.4,.9-1.24,1.57-3.13,2.22-4.95,1.06-2.99,2.06-5.81,4.32-5.43,.67,.12,1.62,.54,2.28,1.91,.3,.62,.51,1.37,.62,2.17,.41-.54,.82-.86,1.29-.95,.42-.08,.85,.04,1.18,.33,.71,.64,.75,1.72,.74,2.8,.46-.9,1.1-1.95,2.27-1.65,1.05,.27,1.24,1.21,1.27,1.86,.22-.17,.46-.35,.74-.48,.49-.24,1.1-.03,1.34,.46s.03,1.1-.46,1.34c-.12,.06-.29,.19-.45,.32-.5,.39-1.27,.97-2.2,.64-.61-.21-.83-.7-.91-1.17-.46,.9-1.05,1.92-2.14,1.84-1.46-.11-1.45-1.81-1.44-2.94,0-.17,0-.39,0-.62-.4,.68-.87,1.62-1.17,2.23-.32,.65-.62,1.27-.89,1.73-.27,.48-.87,.65-1.35,.38-.48-.27-.65-.87-.4-1.35,.85-1.57,.93-4.52,.17-6.07-.16-.33-.44-.75-.82-.81-.6-.11-1.57,2.65-2.09,4.13-.66,1.86-1.41,3.98-2.49,5.46-.2,.27-.5,.41-.81,.41Z"/></g><g><path class="cls-5" d="M8.54,27.25l19.33,19.33c.31,.31,.5,.7,.57,1.13l.61,4.29-4.29-.61c-.43-.06-.83-.26-1.13-.57L4.29,31.49c-.39-.39-.39-1.02,0-1.41l2.83-2.83c.39-.39,1.02-.39,1.41,0Z"/><path class="cls-8" d="M29.04,52l-4.29-.61c-.43-.06-.82-.26-1.13-.57l-.23-.23,4.24-4.25,.23,.24c.31,.3,.51,.7,.57,1.13l.61,4.29Z"/><path class="cls-5" d="M10.66,44.51c-.26,0-.51-.1-.71-.29l-5.66-5.66c-1.17-1.17-1.17-3.07,0-4.24l1.41-1.41c.39-.39,1.02-.39,1.41,0s.39,1.02,0,1.41l-1.41,1.41c-.39,.39-.39,1.02,0,1.41l5.66,5.66c.39,.39,.39,1.02,0,1.41-.2,.2-.45,.29-.71,.29Z"/><path class="cls-8" d="M5.83,27.79h4c.55,0,1,.45,1,1v5H4.83v-5c0-.55,.45-1,1-1Z" transform="translate(-19.48 14.55) rotate(-45)"/></g></svg>