<?xml version="1.0" encoding="UTF-8"?><svg id="Glyph" xmlns="http://www.w3.org/2000/svg" viewBox="0 0 64 64"><rect x="12" y="6" width="15" height="2"/><rect x="37" y="6" width="15" height="2"/><rect x="12" y="56" width="15" height="2"/><rect x="37" y="56" width="15" height="2"/><rect x="6" y="12" width="2" height="15"/><rect x="6" y="37" width="2" height="15"/><rect x="56" y="12" width="2" height="15"/><rect x="56" y="37" width="2" height="15"/><rect x="29" y="4" width="6" height="6" rx="1" ry="1"/><rect x="4" y="4" width="6" height="6" rx="1" ry="1"/><rect x="54" y="4" width="6" height="6" rx="1" ry="1"/><rect x="29" y="54" width="6" height="6" rx="1" ry="1"/><rect x="4" y="54" width="6" height="6" rx="1" ry="1"/><rect x="54" y="54" width="6" height="6" rx="1" ry="1"/><rect x="4" y="29" width="6" height="6" rx="1" ry="1"/><rect x="54" y="29" width="6" height="6" rx="1" ry="1"/><path d="m32,25c-3.87,0-7,3.13-7,7s3.13,7,7,7,7-3.13,7-7-3.13-7-7-7Zm2.21,7.79h-1.21v1.21c0,.55-.45,1-1,1s-1-.45-1-1v-1.21h-1.21c-.55,0-1-.45-1-1s.45-1,1-1h1.21v-1.21c0-.55.45-1,1-1s1,.45,1,1v1.21h1.21c.55,0,1,.45,1,1s-.45,1-1,1Z"/></svg>