<?xml version="1.0" encoding="UTF-8"?><svg id="Glyph" xmlns="http://www.w3.org/2000/svg" viewBox="0 0 64 64"><path d="m34.67,4.8c-.1-.47-.51-.8-.98-.8h-3.38c-.47,0-.88.33-.98.8l-1.91,9.2h9.16l-1.91-9.2Z"/><path d="m42,22v-4c0-1.1-.9-2-2-2h-1v2c0,.55-.45,1-1,1s-1-.45-1-1v-2h-2v2c0,.55-.45,1-1,1s-1-.45-1-1v-2h-2v2c0,.55-.45,1-1,1s-1-.45-1-1v-2h-2v2c0,.55-.45,1-1,1s-1-.45-1-1v-2h-1c-1.1,0-2,.9-2,2v4c-2.21,0-4,1.79-4,4v32c0,1.1.9,2,2,2h24c1.1,0,2-.9,2-2V26c0-2.21-1.79-4-4-4Zm-1,32c0,.55-.45,1-1,1h-16c-.55,0-1-.45-1-1v-22c0-.55.45-1,1-1h3.1c.46-2.28,2.48-4,4.9-4,1.38,0,2.63.56,3.54,1.46.68.68,1.16,1.56,1.36,2.54h3.1c.55,0,1,.45,1,1v22Z"/><path d="m36,36h-8c-.55,0-1,.45-1,1s.45,1,1,1h8c.55,0,1-.45,1-1s-.45-1-1-1Z"/><path d="m36,42h-8c-.55,0-1,.45-1,1s.45,1,1,1h8c.55,0,1-.45,1-1s-.45-1-1-1Z"/><path d="m36,48h-8c-.55,0-1,.45-1,1s.45,1,1,1h8c.55,0,1-.45,1-1s-.45-1-1-1Z"/></svg>