<?xml version="1.0" encoding="UTF-8"?><svg id="Glyph" xmlns="http://www.w3.org/2000/svg" viewBox="0 0 64 64"><path d="m21,8c-4.79,2.57-8.22,7.36-8.88,13h2.02c.89-6.67,6.19-11.97,12.86-12.86v-2.14h-15.1c.07.32.1.66.1,1s-.03.68-.1,1h9.1Z"/><path d="m49.86,21h2.02c-.66-5.64-4.09-10.43-8.88-13h9.1c-.07-.32-.1-.66-.1-1s.03-.68.1-1h-15.1v2.14c6.67.89,11.97,6.19,12.86,12.86Z"/><rect x="20" y="54" width="24" height="6" rx="1" ry="1"/><rect x="29" y="4" width="6" height="6" rx="1" ry="1"/><rect x="10" y="23" width="6" height="6" rx="1" ry="1"/><circle cx="7" cy="7" r="3"/><rect x="48" y="23" width="6" height="6" rx="1" ry="1"/><circle cx="57" cy="7" r="3"/><path d="m36.26,15.61c-.16-.37-.52-.61-.92-.61h-2.34v20c0,.06-.02.11-.04.17,1.18.4,2.04,1.51,2.04,2.83,0,1.66-1.34,3-3,3s-3-1.34-3-3c0-1.32.85-2.42,2.04-2.83-.01-.06-.04-.11-.04-.17V15h-2.34c-.4,0-.76.24-.92.61l-10.77,23.04c-.1.22-.1.48-.02.71l5.27,12.64h19.57l5.27-12.64c.08-.23.08-.49-.02-.71l-10.77-23.04Z"/></svg>