<?xml version="1.0" encoding="UTF-8"?><svg id="Glyph" xmlns="http://www.w3.org/2000/svg" viewBox="0 0 64 64"><path d="m57.59,4h-4.59v2c0,.55-.45,1-1,1s-1-.45-1-1v-2h-4v2c0,.55-.45,1-1,1s-1-.45-1-1v-2h-4v2c0,.55-.45,1-1,1s-1-.45-1-1v-2h-4v2c0,.55-.45,1-1,1s-1-.45-1-1v-2h-4v2c0,.55-.45,1-1,1s-1-.45-1-1v-2h-4v2c0,.55-.45,1-1,1s-1-.45-1-1v-2h-4v2c0,.55-.45,1-1,1s-1-.45-1-1v-2h-4v2c0,.55-.45,1-1,1s-1-.45-1-1v-2h-4c-.55,0-1,.45-1,1v4h2c.55,0,1,.45,1,1s-.45,1-1,1h-2v4h2c.55,0,1,.45,1,1s-.45,1-1,1h-2v4h2c.55,0,1,.45,1,1s-.45,1-1,1h-2v4h2c.55,0,1,.45,1,1s-.45,1-1,1h-2v4h2c.55,0,1,.45,1,1s-.45,1-1,1h-2v4h2c.55,0,1,.45,1,1s-.45,1-1,1h-2v4h2c.55,0,1,.45,1,1s-.45,1-1,1h-2v4h2c.55,0,1,.45,1,1s-.45,1-1,1h-2v4.59c0,.89,1.08,1.33,1.71.7L58.29,5.71c.63-.63.19-1.71-.7-1.71ZM12,40.69V12h28.69l-28.69,28.69Z"/></svg>