<?xml version="1.0" encoding="UTF-8"?><svg id="Glyph" xmlns="http://www.w3.org/2000/svg" viewBox="0 0 64 64"><path d="m54,5s-2.81,3.51-3.72,7h7.44c-.91-3.49-3.72-7-3.72-7Z"/><path d="m40,5H8c-1.1,0-2,.9-2,2v50c0,1.1.9,2,2,2h32c1.1,0,2-.9,2-2V7c0-1.1-.9-2-2-2Zm-24,49c-2.76,0-5-2.24-5-5s2.24-5,5-5,5,2.24,5,5-2.24,5-5,5Zm0-17c-2.76,0-5-2.24-5-5s2.24-5,5-5,5,2.24,5,5-2.24,5-5,5Zm0-17c-2.76,0-5-2.24-5-5s2.24-5,5-5,5,2.24,5,5-2.24,5-5,5Zm16,34c-2.76,0-5-2.24-5-5s2.24-5,5-5,5,2.24,5,5-2.24,5-5,5Zm0-17c-2.76,0-5-2.24-5-5s2.24-5,5-5,5,2.24,5,5-2.24,5-5,5Zm0-17c-2.76,0-5-2.24-5-5s2.24-5,5-5,5,2.24,5,5-2.24,5-5,5Z"/><path d="m51,56c0,1.66,1.34,3,3,3s3-1.34,3-3V21h-6v35Z"/><polygon points="50 14 51 19 57 19 58 14 50 14"/></svg>