<?xml version="1.0" encoding="UTF-8"?><svg id="Glyph" xmlns="http://www.w3.org/2000/svg" viewBox="0 0 64 64"><rect x="12.13" y="33.83" width="41.28" height="5.61" transform="translate(-16.31 33.9) rotate(-45)"/><rect x="6.74" y="28.43" width="41.28" height="5.64" transform="translate(-14.08 28.51) rotate(-45)"/><rect x="40.69" y="12.27" width="15.46" height="6.63" rx="1" ry="1" transform="translate(25.2 -29.67) rotate(45)"/><path d="m59.72,10.9c0,1.7-.64,3.39-1.93,4.68l-.93.93-9.37-9.37.93-.93c2.58-2.58,6.78-2.58,9.37,0,1.29,1.29,1.93,2.99,1.93,4.69Z"/><path d="m10,58.08l-4.34,1.71c-.91.39-1.84-.54-1.45-1.45l1.71-4.34,4.08,4.08Z"/><polygon points="18.74 54.63 12.03 57.28 6.72 51.97 9.37 45.26 18.74 54.63"/></svg>