<?xml version="1.0" encoding="UTF-8"?><svg id="Glyph" xmlns="http://www.w3.org/2000/svg" viewBox="0 0 64 64"><path d="m12,7v3h1c1.1,0,2,.9,2,2,0,.55-.22,1.05-.59,1.41-.36.37-.86.59-1.41.59h-1v6h1c1.1,0,2,.9,2,2,0,.55-.22,1.05-.59,1.41-.36.37-.86.59-1.41.59h-1v6h1c1.1,0,2,.9,2,2,0,.55-.22,1.05-.59,1.41-.36.37-.86.59-1.41.59h-1v6h1c1.1,0,2,.9,2,2,0,.55-.22,1.05-.59,1.41-.36.37-.86.59-1.41.59h-1v6h1c1.1,0,2,.9,2,2,0,.55-.22,1.05-.59,1.41-.36.37-.86.59-1.41.59h-1v3c0,1.1.9,2,2,2h5V5h-5c-1.1,0-2,.9-2,2Z"/><path d="m11,10c-.55,0-1.05.22-1.41.59-.37.36-.59.86-.59,1.41,0,1.1.9,2,2,2h1v-4h-1Z"/><path d="m11,20c-.55,0-1.05.22-1.41.59-.37.36-.59.86-.59,1.41,0,1.1.9,2,2,2h1v-4h-1Z"/><path d="m11,30c-.55,0-1.05.22-1.41.59-.37.36-.59.86-.59,1.41,0,1.1.9,2,2,2h1v-4h-1Z"/><path d="m11,40c-.55,0-1.05.22-1.41.59-.37.36-.59.86-.59,1.41,0,1.1.9,2,2,2h1v-4h-1Z"/><path d="m11,50c-.55,0-1.05.22-1.41.59-.37.36-.59.86-.59,1.41,0,1.1.9,2,2,2h1v-4h-1Z"/><path d="m21,59h26V5h-26v54Zm4-48c0-.55.45-1,1-1h16c.55,0,1,.45,1,1v18c0,.55-.45,1-1,1h-16c-.55,0-1-.45-1-1V11Z"/><path d="m53,5h-2v54h2c1.1,0,2-.9,2-2V7c0-1.1-.9-2-2-2Z"/><path d="m29,16h10c.55,0,1-.45,1-1s-.45-1-1-1h-10c-.55,0-1,.45-1,1s.45,1,1,1Z"/><path d="m29,21h10c.55,0,1-.45,1-1s-.45-1-1-1h-10c-.55,0-1,.45-1,1s.45,1,1,1Z"/><path d="m29,26h10c.55,0,1-.45,1-1s-.45-1-1-1h-10c-.55,0-1,.45-1,1s.45,1,1,1Z"/></svg>