<?xml version="1.0" encoding="UTF-8"?><svg id="Glyph" xmlns="http://www.w3.org/2000/svg" viewBox="0 0 64 64"><rect x="17" y="20" width="30" height="4" rx="1" ry="1"/><rect x="19" y="26" width="26" height="4"/><rect x="19" y="50" width="26" height="4"/><rect x="17" y="56" width="30" height="4" rx="1" ry="1"/><path d="m36,10h-2c-.55,0-1-.45-1-1s.45-1,1-1h2v-3c0-.55-.45-1-1-1h-6c-.55,0-1,.45-1,1v7h8v-2Z"/><path d="m40,15.71c-1.46-.83-2.86-1.36-4-1.71h-8c-1.14.35-2.54.88-4,1.71-1.28.73-2.31,1.53-3.14,2.29h22.28c-.83-.76-1.86-1.56-3.14-2.29Z"/><path d="m19,48h26v-16h-26v16Zm13-12s3,3.34,3,5-1.34,3-3,3-3-1.34-3-3,3-5,3-5Z"/></svg>