<?xml version="1.0" encoding="UTF-8"?><svg id="Glyph" xmlns="http://www.w3.org/2000/svg" viewBox="0 0 64 64"><polygon points="47.25 16.4 41.61 14.34 38.46 23 44.84 23 47.25 16.4"/><path d="m48.17,8.47c-.32-1.63.52-3.48.52-3.48-.53.31-4.73.72-6.74,4.61-.46.9-.65,1.75-.68,2.48l7.27,2.66c2.13-3.16.12-3.8-.37-6.27Z"/><polygon points="19.19 23 25.57 23 22.36 14.18 16.73 16.24 19.19 23"/><path d="m22.29,12.07c-.4-3.78-2.35-2.97-4.31-4.55-1.29-1.05-1.84-3-1.84-3-.21.57-3.16,3.59-2.2,7.86.23.99.64,1.77,1.09,2.36l7.26-2.67Z"/><rect x="14" y="25" width="36" height="6" rx="1" ry="1"/><path d="m17,59c0,1.1.9,2,2,2h26c1.1,0,2-.9,2-2v-26h-30v26Z"/><rect x="29" y="12" width="6" height="11"/><path d="m28.25,10h7.5l1.74-4.65c.25-.65-.23-1.35-.93-1.35h-1.56v2c0,.55-.45,1-1,1s-1-.45-1-1v-2h-2v2c0,.55-.45,1-1,1s-1-.45-1-1v-2h-1.56c-.7,0-1.18.7-.93,1.35l1.74,4.65Z"/></svg>