<?xml version="1.0" encoding="UTF-8"?><svg id="Glyph" xmlns="http://www.w3.org/2000/svg" viewBox="0 0 64 64"><path d="m54,59h-21.51l-2,2h23.51c.55,0,1-.45,1-1s-.45-1-1-1Z"/><path d="m16.27,27.07l-12.39,12.39c-1.17,1.17-1.17,3.08,0,4.25l17,17c.19.18.44.29.71.29h5.65c.27,0,.52-.11.71-.29l10.98-10.98-22.66-22.66Z"/><path d="m60.12,24.29L41.71,5.88c-1.17-1.17-3.08-1.17-4.25,0l-12.39,12.39,22.66,22.66,12.39-12.4c1.17-1.17,1.17-3.08,0-4.25Z"/><rect x="27.78" y="17.98" width="8.44" height="32.05" transform="translate(-14.67 32.59) rotate(-45)"/></svg>