<?xml version="1.0" encoding="UTF-8"?><svg id="Glyph" xmlns="http://www.w3.org/2000/svg" viewBox="0 0 64 64"><path d="m31,41v-3c0-.55-.45-1-1-1h-2c-.55,0-1,.45-1,1v3c-.55,0-1,.45-1,1v15c0,1.66,1.34,3,3,3s3-1.34,3-3v-15c0-.55-.45-1-1-1Z"/><path d="m18,10v-6h-8c-1.1,0-2,.9-2,2v2h-3c-.55,0-1,.45-1,1v4c0,.55.45,1,1,1h3v2c0,1.1.9,2,2,2h14v-3.1c-.32.07-.66.1-1,.1-2.76,0-5-2.24-5-5Z"/><path d="m34,15.9v2.1h14c1.1,0,2-.9,2-2v-2h3c.55,0,1-.45,1-1v-4c0-.55-.45-1-1-1h-3v-2c0-1.1-.9-2-2-2h-8v7c0,2.76-2.24,5-5,5-.34,0-.68-.03-1-.1Z"/><path d="m26,19c0,1.66,1.34,3,3,3s3-1.34,3-3v-8c0,1.66,1.34,3,3,3s3-1.34,3-3v-7h-18v6c0,1.66,1.34,3,3,3s3-1.34,3-3v9Z"/><path d="m58,10h-2v2h2c.55,0,1,.45,1,1v11.4c0,.47-.32.87-.76.97l-27.9,5.58c-1.38.31-2.34,1.51-2.34,2.93v1.12h2v-1.12c0-.47.32-.87.76-.97l27.9-5.58c1.38-.31,2.34-1.51,2.34-2.93v-11.4c0-1.65-1.35-3-3-3Z"/></svg>