<?xml version="1.0" encoding="UTF-8"?><svg id="Glyph" xmlns="http://www.w3.org/2000/svg" viewBox="0 0 64 64"><rect x="13" y="10" width="12" height="6" rx="1" ry="1"/><polygon points="22 21 22 18 16 18 16 21 11 27 27 27 22 21"/><path d="m9,59c0,.55.45,1,1,1h18c.55,0,1-.45,1-1v-4H9v4Z"/><path d="m27.14,29H10.86l-1.72,24h19.72l-1.72-24Zm-8.14,17c-1.66,0-3-1.34-3-3s3-6,3-6c0,0,3,4.34,3,6s-1.34,3-3,3Z"/><path d="m47,21v-4c0-.55-.45-1-1-1h-4c-.55,0-1,.45-1,1v4l-3.33,4h12.66l-3.33-4Z"/><path d="m34,59c0,.55.45,1,1,1h18c.55,0,1-.45,1-1v-2h-20v2Z"/><path d="m36,27l-2,28h20l-2-28h-16Zm8,19c-1.66,0-3-1.34-3-3s3-6,3-6c0,0,3,4.34,3,6s-1.34,3-3,3Z"/><path d="m58.08,13.26c-1.33,0-2.42-1.09-2.42-2.43,0-3.77-3.06-6.83-6.83-6.83s-6.83,3.06-6.83,6.83v3.17h4v-3.17c0-1.56,1.27-2.83,2.83-2.83s2.83,1.27,2.83,2.83c0,3.54,2.88,6.43,6.42,6.43h.92v-4h-.92Z"/></svg>