<?xml version="1.0" encoding="UTF-8"?><svg id="Glyph" xmlns="http://www.w3.org/2000/svg" viewBox="0 0 64 64"><path d="m6,53v2h52v-2c0-.55-.45-1-1-1H7c-.55,0-1,.45-1,1Z"/><rect x="4" y="57" width="56" height="3" rx="1" ry="1"/><path d="m4,14v5c0,.55.45,1,1,1h54c.55,0,1-.45,1-1v-5H4Z"/><polygon points="32 4 9.6 12 54.4 12 32 4"/><rect x="10" y="28" width="6" height="16"/><path d="m18,25v-3h-10v3c0,.55.45,1,1,1h8c.55,0,1-.45,1-1Z"/><path d="m8,50h10v-3c0-.55-.45-1-1-1h-8c-.55,0-1,.45-1,1v3Z"/><rect x="48" y="28" width="6" height="16"/><path d="m56,25v-3h-10v3c0,.55.45,1,1,1h8c.55,0,1-.45,1-1Z"/><path d="m46,50h10v-3c0-.55-.45-1-1-1h-8c-.55,0-1,.45-1,1v3Z"/><path d="m40.46,46c.85,0,1.54-.69,1.54-1.54v-16.92c0-.85-.69-1.54-1.54-1.54h-16.92c-.85,0-1.54.69-1.54,1.54v16.92c0,.85.69,1.54,1.54,1.54h16.92Zm-.46-18v10.31l-1.35-1.98c-.61-.9-1.93-.9-2.54,0l-1.61,2.37,3.6,5.3h-2.42l-6.26-9.21c-.61-.9-1.93-.9-2.54,0l-2.88,4.24v-11.04h16Z"/><circle cx="33.54" cy="32.15" r=".77"/></svg>