<?xml version="1.0" encoding="UTF-8"?><svg id="Glyph" xmlns="http://www.w3.org/2000/svg" viewBox="0 0 64 64"><path d="m34,5v3h-4v-3c0-.55.45-1,1-1h2c.55,0,1,.45,1,1Z"/><rect x="30" y="16" width="4" height="19"/><path d="m30,45h4v14c0,.55-.45,1-1,1h-2c-.55,0-1-.45-1-1v-14Z"/><path d="m43.26,8h-4.05l-.37-2.36c-.09-.55.28-1.06.83-1.15l1.97-.31c.55-.08,1.06.29,1.15.84l.47,2.98Z"/><polygon points="47.49 35 43.45 35 40.47 16 44.51 16 47.49 35"/><path d="m51.16,58.36c.09.55-.28,1.06-.83,1.15l-1.97.31c-.55.08-1.06-.29-1.15-.84l-2.19-13.98h4.04l2.1,13.36Z"/><path d="m13.94,45h4.04l-2.19,13.98c-.09.55-.6.92-1.15.84l-1.97-.31c-.55-.09-.92-.6-.83-1.15l2.1-13.36Z"/><path d="m22.53,16l-2.98,19h-4.04l2.98-19.05c.16.03.34.05.51.05h3.53Z"/><path d="m24.16,5.64l-.37,2.36h-4.05l.47-2.98c.09-.55.6-.92,1.15-.84l1.97.31c.55.09.92.6.83,1.15Z"/><rect x="18" y="10" width="28" height="4" rx="1" ry="1"/><rect x="11" y="37" width="42" height="6" rx="1" ry="1"/></svg>