<?xml version="1.0" encoding="UTF-8"?><svg id="Glyph" xmlns="http://www.w3.org/2000/svg" viewBox="0 0 64 64"><path d="m59.68,6.18l-1.86-1.86c-.36-.36-.93-.43-1.36-.15l-16.91,9.83c-.6.35-1,.96-1.08,1.65l-.49,4.44.11-.11c.76-.76,1.76-1.17,2.83-1.17s2.07.42,2.83,1.17l.27.28c1.56,1.56,1.56,4.1,0,5.66l-.11.11,4.44-.49c.69-.08,1.3-.48,1.65-1.08l9.83-16.91c.28-.43.21-1-.15-1.36Z"/><path d="m42.33,21.4c-.78-.78-2.05-.78-2.83,0l-6.48,6.48,3.1,3.1,6.48-6.48c.78-.78.78-2.05,0-2.83l-.27-.27Z"/><path d="m34.78,32.46l-3.24-3.24c-.39-.39-1.02-.39-1.41,0l-2.39,2.39-.07-.06c-.4-.4-1.04-.43-1.48-.07l-18.96,15.33c-5.86,4.96-1.98,11.94-1.98,11.94,0,0,6.98,3.88,11.94-1.98l15.33-18.96c.36-.44.33-1.08-.07-1.48l-.06-.07,2.39-2.39c.39-.39.39-1.02,0-1.41Zm-22.55,22.41c-.86.86-2.25.86-3.1,0-.86-.85-.86-2.24,0-3.1.85-.86,2.24-.86,3.1,0s.86,2.25,0,3.1Z"/></svg>