<?xml version="1.0" encoding="UTF-8"?><svg id="Glyph" xmlns="http://www.w3.org/2000/svg" viewBox="0 0 64 64"><path d="m34,40c1.15-.98,2.21-2.17,3-3.58,1.24-2.22,1-4.42,1-4.42H8v10c0,1.1.9,2,2,2h7v-1c0-1.65,1.35-3,3-3h14Z"/><path d="m41.5,36.77c-.17,1.25-.49,2.32-.86,3.23h3.36c1.65,0,3,1.35,3,3v1h7c1.1,0,2-.9,2-2v-10h-14.87s.73,2.14.37,4.77Z"/><path d="m44,42h-24c-.55,0-1,.45-1,1v2c0,.55.45,1,1,1h2l-3,14h4l3-14h4v14h4v-14h4l3,14h4l-3-14h2c.55,0,1-.45,1-1v-2c0-.55-.45-1-1-1Z"/><path d="m43.92,30h12.08v-6c-7.93,0-12.96,1.79-15.46,3,1.59,1.17,2.72,2.29,3.38,3Z"/><path d="m38.63,28.09c-2.99-2.03-7.54-4.09-13.63-4.09-8.08,0-12.99,3.63-15.33,6h31.41c-.65-.58-1.47-1.24-2.45-1.91Z"/><path d="m54,12H10c-1.1,0-2,.9-2,2v14.85c2.51-2.65,7.92-6.85,17-6.85,6.02,0,10.61,1.89,13.65,3.73,2.3-1.28,7.93-3.73,17.35-3.73v-8c0-1.1-.9-2-2-2Zm-15,9c-1.1,0-2-.9-2-2s.9-2,2-2,2,.9,2,2-.9,2-2,2Z"/><path d="m38,9c0-.55-.45-1-1-1h-3v-3c0-.55-.45-1-1-1h-2c-.55,0-1,.45-1,1v3h-3c-.55,0-1,.45-1,1v1h12v-1Z"/></svg>