<?xml version="1.0" encoding="UTF-8"?><svg id="Glyph" xmlns="http://www.w3.org/2000/svg" viewBox="0 0 64 64"><path d="m49.47,15.12l-14.51-7.69c.02-.14.04-.28.04-.43,0-1.66-1.34-3-3-3s-3,1.34-3,3c0,.15.02.29.04.43l-14.51,7.69c-.34.18-.53.52-.53.88h2c0,2.19-.6,4.23-1.62,6h35.25c-1.03-1.77-1.62-3.81-1.62-6h2c0-.36-.19-.7-.53-.88Zm-32.34.88l12.85-6.8c.53.49,1.24.8,2.02.8s1.49-.31,2.02-.8l12.85,6.8h-29.74Z"/><path d="m54,49.62c1.77-1.03,3.81-1.62,6-1.62v-20c-2.19,0-4.23-.6-6-1.62v23.25Z"/><path d="m10,26.38c-1.77,1.03-3.81,1.62-6,1.62v20c2.19,0,4.23.6,6,1.62v-23.25Z"/><path d="m16,60h32c0-2.19.6-4.23,1.62-6H14.38c1.03,1.77,1.62,3.81,1.62,6Z"/><path d="m4,17v9c5.52,0,10-4.48,10-10H5c-.55,0-1,.45-1,1Zm4,2c.55,0,1,.45,1,1s-.45,1-1,1-1-.45-1-1,.45-1,1-1Z"/><path d="m59,16h-9c0,5.52,4.48,10,10,10v-9c0-.55-.45-1-1-1Zm-3,5c-.55,0-1-.45-1-1s.45-1,1-1,1,.45,1,1-.45,1-1,1Z"/><path d="m4,50v9c0,.55.45,1,1,1h9c0-5.52-4.48-10-10-10Zm4,7c-.55,0-1-.45-1-1s.45-1,1-1,1,.45,1,1-.45,1-1,1Z"/><path d="m50,60h9c.55,0,1-.45,1-1v-9c-5.52,0-10,4.48-10,10Zm6-5c.55,0,1,.45,1,1s-.45,1-1,1-1-.45-1-1,.45-1,1-1Z"/></svg>