<?xml version="1.0" encoding="UTF-8"?><svg id="Glyph" xmlns="http://www.w3.org/2000/svg" viewBox="0 0 64 64"><path d="m51.89,35.65c-.52-.2-1.03-.41-1.52-.63-7.62-3.48-7.51-9.69.14-13.1.43-.19.87-.37,1.33-.54,3.19-1.2,4.18-5.31,1.93-7.86-5.13-5.83-12.65-9.51-21.02-9.51-16.07,0-28.99,13.56-27.94,29.85.89,13.81,12.04,25.07,25.85,26.07,10.47.76,19.83-4.24,25.23-12.17,2.95-4.33.91-10.27-3.99-12.11ZM17.56,15.92c1.19-.83,2.85-.82,4.02.03,1.08.78,1.56,2,1.45,3.18-.04.45-.64.82-1.14,1.05-.43.2-.75.56-.91,1-.18.47-.46,1.01-.84,1.07-1.08.18-2.23-.14-3.07-.97-1.51-1.51-1.35-4.07.49-5.36Zm-.62,18.1c-.63.9-1.68,1.48-2.86,1.48-2.14,0-3.83-1.92-3.44-4.13.25-1.43,1.43-2.59,2.86-2.82,1.31-.21,2.52.31,3.27,1.22.29.35.13,1.03-.06,1.55-.16.44-.13.93.06,1.35.21.46.39,1.04.17,1.35Zm6.08,13.65c-1.51,1.51-4.07,1.35-5.36-.49-.83-1.19-.82-2.85.03-4.02.78-1.08,2-1.56,3.18-1.45.45.04.82.64,1.05,1.14.2.43.56.75,1,.91.47.18,1.01.46,1.07.84.18,1.08-.14,2.23-.97,3.07Zm6.22-34.34c0-2.14,1.92-3.83,4.13-3.44,1.43.25,2.59,1.43,2.82,2.86.21,1.31-.31,2.52-1.22,3.27-.35.29-1.03.13-1.55-.06-.44-.16-.93-.13-1.35.06-.46.21-1.04.39-1.35.17-.9-.63-1.48-1.68-1.48-2.86Zm3.87,40.78c-1.43-.25-2.59-1.43-2.82-2.86-.21-1.31.31-2.52,1.22-3.27.35-.29,1.03-.13,1.55.06.44.16.93.13,1.35-.06.46-.21,1.04-.39,1.35-.17.9.63,1.48,1.68,1.48,2.86,0,2.14-1.92,3.83-4.13,3.44Zm17.13-6.61c-1.82,1.82-4.78,1.82-6.6,0s-1.82-4.78,0-6.6,4.78-1.82,6.6,0,1.82,4.78,0,6.6Z"/></svg>