<?xml version="1.0" encoding="UTF-8"?><svg id="Glyph" xmlns="http://www.w3.org/2000/svg" viewBox="0 0 64 64"><path d="m23.4,23.1c.41.03.83.06,1.25.06,1.31,0,2.54-.17,3.73-.5-.38-1.88-1.29-4.54-3.42-6.95-1.02-1.15-2.87-1.03-3.8.2-.7.93-.66,2.23.11,3.1,1.21,1.36,1.82,2.89,2.13,4.1Z"/><path d="m57.75,22.13c-6.45-8.6-14.18-5.2-25.32.99-11.13,6.19-19.17-4.46-25.98,3.71-4.23,5.07-2.1,10.14-.33,12.84h50.06c2.38-3.55,6.33-11.18,1.56-17.54Z"/><path d="m7.7,47.1c0,1.1.9,2,2,2h43.01c1.1,0,2-.9,2-2v-5.42H7.7v5.42Z"/></svg>