<?xml version="1.0" encoding="UTF-8"?><svg id="Glyph" xmlns="http://www.w3.org/2000/svg" viewBox="0 0 64 64"><rect x="34.64" y="21.05" width="14.83" height="6.36" rx="1" ry="1" transform="translate(29.45 -22.64) rotate(45)"/><path d="m56.14,20.12c-.81,2.63-2.85,4.78-5.31,5.79-.14-.29-.33-.57-.58-.81l-9.07-9.08c-.36-.36-.8-.61-1.27-.75.06-.39.14-.82.25-1.28l.14.04s2.67.74,3.72,2.86c.67,1.33,1.79,2.06,3.17,2.06,1.1,0,2.09-.47,3.06-.92.55-.26,1.31-.61,1.64-.62,1.31,1.3,2.55,2.53,4.25,2.71Z"/><path d="m56.5,18.15c-1.07-.04-2.03-1-3.19-2.16-2.25-2.25-5.99,3-7.49,0s-5.01-3.9-5.01-3.9c1.64-3.75,5.95-8.09,16.99-8.09,0,0-4.62,5.01-2.25,9.74.75,1.5,1.03,3,.94,4.41Z"/><path d="m43.27,32.71c-.71,1.11-1.61,2.3-2.72,3.5-2.77,3.01-18.25,15.35-26.78,22.68-1.82,1.56-4.53,1.45-6.23-.24-1.67-1.68-1.8-4.35-.28-6.17,6.03-7.26,20.38-24.46,22.8-26.76,1.2-1.13,2.4-2.02,3.5-2.72.08.12.18.24.29.35l9.08,9.07c.11.11.22.21.34.29Z"/></svg>