<?xml version="1.0" encoding="UTF-8"?><svg id="Glyph" xmlns="http://www.w3.org/2000/svg" viewBox="0 0 64 64"><path d="m50.94,4c-17.98,2.75-18.89,12.93-18.89,12.93l-.99-2.09c-4.76,6.37-3.21,11.07-2.1,13.06,3.93-12.58,12.14-18.14,12.59-18.44.47-.3,1.08-.17,1.39.29.3.46.18,1.08-.28,1.38-.11.07-7.9,5.37-11.71,17.25,9.91-4.48,12.44-10.55,12.44-10.55h-3.53s4.24-1.94,4.24-1.94c1.19-4.96,6.84-11.89,6.84-11.89Z"/><path d="m28.96,27.9c-.36,1.17-.69,2.41-.97,3.7h-8.85c-.55,0-1,.45-1,1v3.33c0,.55.45,1,1,1h1.66v2.1c0,1.84-1.37,3.4-3.2,3.63l-2.26.28c-.92.12-1.6.93-1.55,1.86l.16,3.03.55,10.5c.05.94.83,1.68,1.77,1.68h23.26c.95,0,1.73-.74,1.78-1.68l.55-10.5.16-3.03c.05-.93-.63-1.74-1.55-1.86l-2.26-.28c-1.83-.23-3.21-1.79-3.21-3.63v-2.1h1.67c.55,0,1-.45,1-1v-3.33c0-.55-.45-1-1-1h-6.6c.26-1.12.56-2.2.89-3.22-.41.19-.85.38-1.29.56,0,0-.32-.36-.7-1.04Zm-11.11,16.74c2.83-.36,4.95-2.77,4.95-5.62v-2.1h4.36c-.16,1.63-.26,3.33-.26,5.12v5.78h-10.95l-.15-2.93,2.05-.25Zm15.16-7.71v2h0v.1c0,2.84,2.13,5.26,4.96,5.62l2.05.25-.15,2.93h-10.96v-5.78c0-1.79.1-3.49.27-5.12h3.83Z"/></svg>