<?xml version="1.0" encoding="UTF-8"?><svg id="Glyph" xmlns="http://www.w3.org/2000/svg" viewBox="0 0 64 64"><path d="m46,50c0-.71.19-1.37.51-1.95-.39-.34-.82-.65-1.27-.92-1.23-.75-2.61-1.23-4.04-1.43l-4.2-.59v.8c0,1.98-.98,3.82-2.63,4.91-1.59,1.07-3.45,1.63-5.37,1.63s-3.78-.56-5.37-1.63c-1.65-1.09-2.63-2.93-2.63-4.91v-.8l-4.2.59c-1.43.2-2.81.68-4.04,1.43-2.95,1.78-4.76,4.98-4.76,8.43v4.44h38.54c-.34-.59-.54-1.27-.54-2v-8Z"/><path d="m29,18.52c4.94-.06,8.88-1.22,11.35-2.16,0,0,4.75-5.47,1.52-9.77-3.23-4.3-7.09-2.6-12.66.49-.67.37-1.32.62-1.95.78.03-.82-.08-2.79-1.69-4.21-.42-.36-1.05-.32-1.41.09-.37.42-.32,1.05.09,1.41,1.2,1.06,1,2.78,1,2.81,0,.05,0,.09,0,.13-3.61-.02-6.5-2.21-9.04.84-2.07,2.49.33,6.89.62,7.42,2.56.97,6.8,2.23,12.15,2.16Z"/><path d="m16,31h.02c.14,4.95,2.94,9.27,6.98,11.46v3.45c0,1.31.65,2.52,1.74,3.25,1.29.86,2.78,1.29,4.26,1.29s2.97-.43,4.26-1.29c1.09-.73,1.74-1.94,1.74-3.25v-3.37c1.13-.59,2.17-1.34,3.11-2.26,2.51-2.46,3.89-5.76,3.89-9.28.83,0,1.58-.34,2.12-.88.54-.54.88-1.29.88-2.12,0-1.31-.83-2.42-2-2.82v-2.18c0-1.91-.39-3.74-1.08-5.4-.02.02-.05.06-.06.07l-.33.38-.47.18c-3.86,1.47-7.92,2.24-12.04,2.29h-.42c-4.27,0-8.47-.77-12.47-2.29l-.25-.1c-.56,1.52-.89,3.16-.89,4.87v2.18c-1.17.4-2,1.51-2,2.82,0,.83.34,1.58.88,2.12.54.54,1.29.88,2.12.88Zm7.95-6.76c1.77-.51,3.47-1.26,5.05-2.24,3.16,1.96,6.8,3,10.52,3h.48v6c0,2.98-1.17,5.76-3.29,7.85-2.12,2.08-4.89,3.19-7.91,3.15-5.95-.11-10.79-5.22-10.79-11.4v-5.6h.48c1.86,0,3.7-.26,5.47-.76Z"/><path d="m49,41v5.13c.32-.09.65-.13,1-.13h3c.7,0,1.37.12,2,.35v-5.35h0c2.24-5.79-.34-5.28-1.84-7.77-.86-1.42-.7-3.45-.7-3.45-.39.47-4.2,2.3-4.76,6.64-.31,2.41.81,4,1.3,4.57h0Z"/><path d="m53,48h-3c-1.1,0-2,.9-2,2v8c0,1.1.9,2,2,2h3c2.21,0,4-1.79,4-4v-4c0-2.21-1.79-4-4-4Z"/></svg>