<?xml version="1.0" encoding="UTF-8"?>
<svg id="Outline" xmlns="http://www.w3.org/2000/svg" viewBox="0 0 64 64">
  <path d="M56.022,7.979C48.235.192,34.02,1.739,24.332,11.427c-7.956,7.956-10.409,18.959-6.724,26.954l-2.587,2.587c-.662.662-.775,1.658-.359,2.445l-11.369,11.369c-.391.391-.391,1.023,0,1.414.195.195.451.293.707.293s.512-.098.707-.293l11.297-11.297,3.098,3.098-11.296,11.296c-.391.391-.391,1.023,0,1.414.195.195.451.293.707.293s.512-.098.707-.293l11.368-11.368c.304.161.636.25.972.25.534,0,1.068-.203,1.475-.61l2.591-2.591c2.434,1.121,5.139,1.69,7.961,1.69,6.445,0,13.456-2.878,18.989-8.411,9.688-9.688,11.235-23.904,3.449-31.69ZM21.619,47.565c-.033.033-.088.033-.121,0l-5.063-5.063c-.033-.033-.033-.087,0-.121l2.166-2.166c.646,1.037,1.396,2.015,2.282,2.902.886.886,1.86,1.643,2.896,2.289l-2.16,2.16ZM51.159,38.254c-8.907,8.909-21.854,10.456-28.862,3.449-7.006-7.006-5.459-19.954,3.449-28.862,5.149-5.149,11.647-7.838,17.568-7.838,4.322,0,8.337,1.434,11.294,4.39,7.006,7.006,5.459,19.954-3.449,28.862ZM52.664,11.336c-2.538-2.538-6.008-3.731-9.751-3.694-.008-.022-.006-.022-.014,0-5.1.055-10.707,2.408-15.177,6.877-7.754,7.754-9.182,18.943-3.184,24.941,2.5,2.5,5.9,3.71,9.579,3.71,5.148,0,10.84-2.371,15.362-6.894,3.721-3.721,6.118-8.336,6.749-12.996.644-4.76-.622-9.002-3.565-11.945ZM42.75,38.839l-2.884-2.884,3.79-3.789,3.522,3.522c-1.397,1.263-2.888,2.318-4.427,3.152ZM34.692,41.172l-.021-.021,3.782-3.781,2.394,2.394c-2.059.861-4.152,1.333-6.154,1.409ZM23.049,32.357l3.59,3.59-1.345,1.345c-1.157-1.413-1.9-3.095-2.245-4.935ZM28.313,16.823l3.483,3.483-3.789,3.789-2.845-2.845c.834-1.539,1.889-3.03,3.152-4.427ZM34.119,12.143l2.92,2.92-3.829,3.829-3.495-3.495c1.369-1.283,2.85-2.375,4.404-3.253ZM50.505,12.081l-1.614,1.614-3.828-3.828.096-.096c2.037.312,3.858,1.089,5.347,2.31ZM47.477,15.11l-3.782,3.782-3.828-3.828,3.782-3.782,3.828,3.828ZM42.281,20.305l-3.829,3.828-3.828-3.828,3.829-3.829,3.828,3.828ZM33.21,21.72l3.828,3.828-3.789,3.789-3.828-3.828,3.789-3.789ZM31.835,30.751l-3.782,3.782-3.828-3.828,3.782-3.782,3.828,3.828ZM33.249,32.165l3.789,3.79-3.782,3.781-3.789-3.789,3.782-3.782ZM28.053,37.361l3.589,3.589c-1.84-.345-3.521-1.088-4.934-2.245l1.345-1.345ZM38.452,34.541l-3.789-3.79,3.789-3.789,3.79,3.79-3.79,3.789ZM39.866,25.548l3.829-3.828,3.789,3.79-3.828,3.828-3.79-3.79ZM45.109,20.305l3.782-3.782,3.79,3.79-3.782,3.782-3.789-3.79ZM50.305,15.11l1.606-1.606c1.207,1.472,1.99,3.261,2.309,5.27l-.125.126-3.79-3.79ZM42.015,9.648l.219.219-3.782,3.782-2.456-2.456c1.628-.717,3.306-1.212,4.99-1.44.346-.047.689-.081,1.028-.105ZM24.237,23.154l2.355,2.355-3.764,3.764c.08-1.992.553-4.072,1.409-6.12ZM48.603,34.285l-3.534-3.534,3.828-3.828,2.958,2.958c-.879,1.553-1.97,3.034-3.253,4.403ZM52.807,28.004l-2.494-2.495,3.782-3.782.244.244c-.024.345-.044.69-.091,1.042-.228,1.684-.723,3.362-1.44,4.99Z"/>
</svg>