<?xml version="1.0" encoding="UTF-8"?>
<svg id="Outline" xmlns="http://www.w3.org/2000/svg" viewBox="0 0 64 64">
  <path d="M54.168,50.525l-7.115-6.185-1.773-9.025c-.065-.33-.292-.605-.603-.732l-6.788-2.779c.615-1.089,1.019-2.357,1.142-3.723h5.801c.29,0,.565-.125.755-.344l6.848-7.88c.362-.417.318-1.048-.099-1.411-.417-.363-1.049-.317-1.411.099l-6.549,7.536h-5.374c-.135-1.189-.482-2.297-.995-3.273l9.013-7.916c.256-.225.38-.565.329-.902l-1.537-10.111c-.083-.546-.592-.923-1.139-.838-.546.083-.921.593-.838,1.139l1.455,9.57-8.425,7.4c-.437-.49-.924-.919-1.455-1.265,1.955-1.169,3.278-3.29,3.278-5.729,0-1.549-.534-2.973-1.421-4.108l1.467-1.76c.239-.287.299-.684.153-1.028l-1.432-3.399c-.214-.509-.802-.748-1.31-.533-.509.214-.748.801-.533,1.31l1.196,2.838-.995,1.193c-1.083-.755-2.397-1.202-3.815-1.202s-2.731.446-3.815,1.202l-.995-1.193,1.196-2.838c.215-.509-.024-1.095-.533-1.31-.508-.215-1.096.024-1.31.533l-1.432,3.399c-.146.344-.086.741.153,1.028l1.467,1.76c-.887,1.135-1.421,2.559-1.421,4.108,0,2.438,1.322,4.56,3.277,5.729-.531.347-1.017.775-1.454,1.265l-8.425-7.4,1.455-9.57c.083-.546-.292-1.056-.838-1.139-.546-.085-1.056.292-1.139.838l-1.537,10.111c-.051.337.073.677.329.902l9.013,7.916c-.514.977-.861,2.084-.995,3.273h-5.374l-6.549-7.536c-.362-.417-.995-.462-1.411-.099-.417.362-.461.994-.099,1.411l6.848,7.88c.19.219.465.344.755.344h5.801c.123,1.366.528,2.634,1.142,3.723l-6.788,2.779c-.311.127-.538.402-.603.732l-1.773,9.025-7.115,6.185c-.417.362-.461.994-.099,1.411.198.227.476.344.755.344.232,0,.466-.081.656-.245l7.374-6.41c.167-.146.282-.344.325-.562l1.735-8.834,6.767-2.77c.363.376.758.711,1.181.994-3.663,1.975-6.275,6.961-6.275,12.801,0,7.563,4.373,13.716,9.749,13.716s9.749-6.153,9.749-13.716c0-5.84-2.612-10.826-6.275-12.801.423-.283.818-.617,1.181-.994l6.767,2.77,1.735,8.834c.043.218.158.416.325.562l7.374,6.41c.189.165.423.245.656.245.279,0,.558-.117.755-.344.362-.417.318-1.049-.099-1.411ZM27.311,14.156c0-2.586,2.104-4.689,4.689-4.689s4.689,2.104,4.689,4.689-2.104,4.689-4.689,4.689-4.689-2.104-4.689-4.689ZM38.813,52.832h-13.625c-.497-1.382-.81-2.933-.902-4.578h15.43c-.093,1.645-.405,3.196-.902,4.578ZM39.715,46.254h-15.43c.093-1.645.406-3.196.902-4.578h13.625c.497,1.382.81,2.933.902,4.578ZM32,58.97c-2.362,0-4.477-1.611-5.899-4.139h11.798c-1.422,2.528-3.537,4.139-5.899,4.139ZM37.899,39.676h-11.798c1.422-2.528,3.537-4.139,5.899-4.139s4.477,1.611,5.899,4.139ZM26.926,27.191c0-3.5,2.276-6.346,5.074-6.346s5.074,2.847,5.074,6.346-2.276,6.346-5.074,6.346-5.074-2.847-5.074-6.346Z"/>
</svg>