<?xml version="1.0" encoding="UTF-8"?>
<svg id="Outline" xmlns="http://www.w3.org/2000/svg" viewBox="0 0 64 64">
  <path d="M37.774,8.935c0-.552.447-1,1-1h2.415c.553,0,1,.448,1,1s-.447,1-1,1h-2.415c-.553,0-1-.448-1-1ZM53.647,20.151v36.168c0,2.573-2.093,4.666-4.665,4.666h-18.001c-.598,0-1.186-.127-1.756-.365-1.096.247-2.231.389-3.4.389-8.532,0-15.474-6.94-15.474-15.47s6.941-15.47,15.474-15.47c.165,0,.326.02.49.025v-9.942c0-.062.006-.124.017-.185l2.677-14.256c.296-1.575,1.674-2.718,3.277-2.718h2.724c.553,0,1,.448,1,1v.535h7.944v-.535c0-.552.447-1,1-1h2.724c1.603,0,2.98,1.143,3.275,2.718l2.677,14.256c.012.061.018.123.018.185ZM36.01,6.527v3.077c0,1.09.887,1.978,1.978,1.978h3.989c1.091,0,1.978-.887,1.978-1.978v-3.077h-7.944ZM28.521,19.151h22.922l-2.454-13.072c-.119-.63-.67-1.087-1.311-1.087h-1.724v4.612c0,2.193-1.784,3.978-3.978,3.978h-3.989c-2.193,0-3.978-1.784-3.978-3.978v-4.612h-1.724c-.641,0-1.192.458-1.311,1.088l-2.454,13.071ZM12.352,45.538c0,3.355,1.241,6.42,3.278,8.78l4.19-4.19c-.261-.608-.432-1.263-.497-1.948l-1.323.155-.718,1.498c-.172.358-.53.568-.902.568-.145,0-.292-.031-.432-.098-.498-.239-.708-.836-.47-1.334l.956-1.995c.148-.309.445-.521.785-.561l2.203-.258c.107-.593.283-1.187.509-1.766l-2.025-.576c-.346-.099-.613-.375-.698-.725l-.859-3.521c-.131-.537.198-1.078.734-1.209.537-.126,1.078.198,1.209.734l.721,2.955,1.843.524c.28-.432.593-.836.933-1.203-.126-.406-.199-.829-.199-1.256,0-1.034.387-1.971,1.006-2.707l-.517-.621c-.24-.287-.299-.684-.153-1.029l.715-1.696c.214-.508.8-.748,1.31-.533.509.214.748.801.533,1.31l-.478,1.135.194.233c.501-.209,1.049-.327,1.625-.327s1.124.117,1.625.327l.194-.233-.478-1.135c-.214-.509.024-1.095.533-1.31.51-.215,1.095.024,1.31.533l.714,1.696c.146.344.086.741-.153,1.028l-.517.621c.577.687.939,1.551.985,2.505l4.567-4.568c-2.36-2.035-5.425-3.275-8.778-3.275-7.429,0-13.474,6.042-13.474,13.47ZM41.296,45.538c0,3.216-.988,6.204-2.674,8.681h8.197c.061,0,.11-.05.11-.111v-28.278c0-.061-.05-.111-.11-.111h-13.675c-.062,0-.11.05-.11.111v6.031c4.907,2.597,8.262,7.749,8.262,13.677ZM21.406,48.542l6.381-6.381c-.609-.492-1.279-.797-1.963-.797-2.334,0-4.532,3.489-4.532,6.194,0,.339.044.667.115.984ZM23.607,39.946c.692-.364,1.436-.582,2.216-.582s1.524.218,2.216.582c-.087-1.152-1.042-2.066-2.216-2.066s-2.129.914-2.216,2.066ZM25.824,52.09c2.5,0,4.533-2.033,4.533-4.532,0-1.272-.49-2.715-1.248-3.89l-6.761,6.761c.832,1.005,2.073,1.66,3.477,1.66ZM30.792,42.572l1.844-.524.616-2.522-2.698,2.698c.082.114.162.23.239.349ZM25.826,59.008c7.427,0,13.47-6.042,13.47-13.47,0-3.355-1.241-6.42-3.278-8.781l-1.595,1.595c.048.004.094-.006.142.005.536.131.865.672.734,1.209l-.859,3.521c-.086.35-.352.626-.698.725l-2.025.576c.226.579.402,1.173.509,1.766l2.202.258c.341.04.638.251.785.561l.956,1.995c.239.498.029,1.095-.469,1.334-.14.067-.287.098-.432.098-.373,0-.73-.209-.902-.568l-.719-1.498-1.323-.155c-.092.97-.401,1.875-.871,2.675l.503.674c.116.156.184.341.196.535l.235,3.732c.035.551-.384,1.026-.935,1.061-.021.001-.043.002-.064.002-.523,0-.964-.407-.997-.937l-.216-3.436-.031-.042c-1.153,1.02-2.663,1.645-4.32,1.645s-3.167-.625-4.32-1.645l-.031.042-.217,3.436c-.033.53-.474.937-.997.937-.021,0-.042,0-.064-.002-.551-.035-.97-.51-.935-1.061l.153-2.433-2.37,2.37c2.361,2.036,5.426,3.276,8.782,3.276ZM51.647,56.319V21.151h-23.332v9.137c.937.153,1.845.388,2.718.702v-5.159c0-1.164.947-2.111,2.111-2.111h13.675c1.164,0,2.11.947,2.11,2.111v28.278c0,1.164-.946,2.111-2.11,2.111h-9.83c-1.038,1.085-2.229,2.018-3.543,2.765h15.535c1.47,0,2.665-1.196,2.665-2.666Z"/>
</svg>