<?xml version="1.0" encoding="UTF-8"?>
<svg id="Outline" xmlns="http://www.w3.org/2000/svg" viewBox="0 0 64 64">
  <path d="M47.472,3h-30.943c-3.744,0-6.79,3.046-6.79,6.791v44.42c0,3.744,3.046,6.791,6.79,6.791h30.943c3.744,0,6.79-3.046,6.79-6.791V9.79c0-3.744-3.046-6.791-6.79-6.791ZM52.262,54.21c0,2.642-2.148,4.791-4.79,4.791h-30.943c-2.642,0-4.79-2.149-4.79-4.791V9.79c0-2.642,2.148-4.791,4.79-4.791h30.943c2.642,0,4.79,2.149,4.79,4.791v44.42ZM30.231,15.444c-1.875,0-3.4,1.525-3.4,3.4s1.525,3.4,3.4,3.4,3.4-1.525,3.4-3.4-1.525-3.4-3.4-3.4ZM30.231,20.245c-.772,0-1.4-.628-1.4-1.4s.628-1.4,1.4-1.4,1.4.628,1.4,1.4-.628,1.4-1.4,1.4ZM38.629,13.969c0-1.596-1.299-2.895-2.896-2.895s-2.896,1.299-2.896,2.895,1.299,2.895,2.896,2.896c1.597,0,2.896-1.299,2.896-2.896ZM35.733,14.864c-.494,0-.896-.402-.896-.896s.401-.895.896-.895.896.401.896.895-.401.896-.896.896ZM45.581,32.814h-2.494v-.393c0-1.664-1.354-3.018-3.018-3.018-.778,0-1.482.304-2.018.79-.536-.485-1.239-.79-2.017-.79s-1.482.304-2.018.79c-.293-.266-.637-.471-1.018-.606v-4.35h4.692c.553,0,1-.448,1-1,0-.018,0-.037-.002-.057.019-1.504,1.237-2.725,2.74-2.745.022,0,.044.002.063.002.553,0,1-.448,1-1v-11.284c0-.552-.447-1-1-1h-18.988c-.553,0-1,.448-1,1v2.855c0,.511.386.94.894.994,1.066.114,1.871,1.001,1.871,2.064s-.804,1.95-1.87,2.063c-.509.054-.895.483-.895.995v6.111c0,.552.447,1,1,1h8.494v4.35c-.381.135-.724.34-1.018.606-.536-.486-1.239-.79-2.018-.79s-1.481.304-2.017.79c-.536-.485-1.239-.79-2.018-.79-1.664,0-3.018,1.354-3.018,3.018v.393h-2.494c-2.238,0-4.059,1.82-4.059,4.058v15.257c0,2.237,1.82,4.058,4.059,4.058h27.162c2.238,0,4.059-1.82,4.059-4.058v-15.257c0-2.237-1.82-4.058-4.059-4.058ZM23.506,18.924c1.625-.552,2.765-2.079,2.765-3.856s-1.14-3.304-2.765-3.856v-1.058h16.988v9.381c-1.854.386-3.316,1.849-3.703,3.702h-13.285v-4.313ZM40.069,31.404c.562,0,1.018.457,1.018,1.018v2.785c0,.561-.456,1.018-1.018,1.018s-1.018-.457-1.018-1.018v-2.785c0-.561.456-1.018,1.018-1.018ZM36.035,31.404c.561,0,1.017.457,1.017,1.018v2.785c0,.561-.456,1.018-1.017,1.018s-1.018-.457-1.018-1.018v-2.785c0-.561.456-1.018,1.018-1.018ZM32,31.404c.562,0,1.018.457,1.018,1.018v2.785c0,.561-.456,1.018-1.018,1.018s-1.018-.457-1.018-1.018v-2.785c0-.561.456-1.018,1.018-1.018ZM27.965,31.404c.562,0,1.018.457,1.018,1.018v2.785c0,.561-.456,1.018-1.018,1.018s-1.017-.457-1.017-1.018v-2.785c0-.561.456-1.018,1.017-1.018ZM22.913,32.421c0-.561.456-1.018,1.018-1.018s1.018.457,1.018,1.018v2.785c0,.561-.456,1.018-1.018,1.018s-1.018-.457-1.018-1.018v-2.785ZM47.64,52.128c0,1.135-.924,2.058-2.059,2.058h-27.162c-1.135,0-2.059-.923-2.059-2.058v-15.257c0-1.135.924-2.058,2.059-2.058h2.494v.392c0,1.664,1.354,3.018,3.018,3.018.778,0,1.482-.304,2.018-.79.536.485,1.239.79,2.017.79s1.482-.304,2.018-.79c.293.266.637.471,1.018.606v8.151c0,.552.447,1,1,1s1-.448,1-1v-8.151c.381-.135.724-.34,1.018-.606.536.486,1.239.79,2.018.79s1.481-.304,2.017-.79c.536.485,1.239.79,2.018.79,1.664,0,3.018-1.354,3.018-3.018v-.392h2.494c1.135,0,2.059.923,2.059,2.058v15.257Z"/>
</svg>