<?xml version="1.0" encoding="UTF-8"?>
<svg id="Outline" xmlns="http://www.w3.org/2000/svg" viewBox="0 0 64 64">
  <path d="M43.09,39.046c1.519,0,2.754-1.236,2.754-2.754s-1.235-2.754-2.754-2.754-2.754,1.235-2.754,2.754,1.235,2.754,2.754,2.754ZM43.09,35.538c.416,0,.754.338.754.754s-.338.754-.754.754-.754-.338-.754-.754.338-.754.754-.754ZM32,3C16.01,3,3,16.01,3,32s13.01,29,29,29,29-13.009,29-29S47.99,3,32,3ZM32,59c-14.888,0-27-12.112-27-27S17.112,5,32,5s27,12.112,27,27-12.112,27-27,27ZM47.832,13.95c-.014-.282-.146-.544-.362-.724-4.341-3.58-9.835-5.552-15.47-5.552-13.413,0-24.325,10.912-24.325,24.325,0,5.637,1.973,11.132,5.555,15.473.18.217.442.349.724.362.017,0,.032,0,.048,0,.265,0,.52-.105.707-.293L47.54,14.705c.199-.199.306-.474.292-.755ZM15.227,32.847c.092-4.932,4.182-8.945,9.091-8.945.037.001,3.58.133,8.717,2.458-.005.014-.012.028-.017.043l-4.492,4.493c-.02-.069-.033-.138-.054-.207-.165-.527-.722-.821-1.253-.657-.527.164-.821.725-.657,1.252.136.436.227.863.296,1.281l-7.759,7.761c-2.452-1.763-3.927-4.555-3.871-7.478ZM36.324,23.094c-.868.325-1.635.863-2.243,1.548-5.652-2.605-9.545-2.736-9.738-2.74-2.79,0-5.35,1.061-7.314,2.789-.286-.273-.623-.635-.893-1.054-.475-.738-.478-1.728-.007-2.521.363-.614.849-.951,1.481-1.029h6.116c.168,0,4.117-.033,5.026-2.928.165-.527-.128-1.088-.654-1.253-.531-.168-1.09.128-1.254.655-.462,1.47-3.095,1.526-3.118,1.526h-6.172c-.034,0-.068.002-.102.005-1.294.132-2.348.826-3.045,2.004-.853,1.439-.835,3.253.046,4.624.369.573.815,1.056,1.195,1.418-1.47,1.847-2.376,4.158-2.423,6.672-.066,3.474,1.615,6.795,4.438,8.949l-3.573,3.573c-2.855-3.835-4.417-8.527-4.417-13.331,0-12.31,10.015-22.325,22.325-22.325,4.803,0,9.493,1.56,13.328,4.414l-9.004,9.005ZM50.806,16.572c-.179-.218-.441-.35-.724-.364-.278-.002-.557.092-.756.292L16.503,49.329c-.199.2-.306.474-.292.756.014.282.146.545.364.724,4.334,3.558,9.812,5.517,15.425,5.517,13.413,0,24.325-10.912,24.325-24.325,0-5.614-1.96-11.094-5.52-15.428ZM41.945,28.376c0,.507-.104,1-.311,1.467-.217.493-.006,1.069.479,1.304,6.15,2.98,6.802,7.766,6.643,10.354-.022.359-.325.641-.69.641h-9.621c-.232-1.325-.958-2.106-1.573-2.541-.629-.445-1.407-.68-2.25-.68h-2.375c-.553,0-1,.448-1,1s.447,1,1,1h2.375c.298,0,.729.054,1.095.313.323.228.536.537.664.907h-5.548c-.162-.765-.58-1.808-1.612-2.705l6.206-6.207c.865.512,1.857.792,2.873.792.553,0,1-.448,1-1s-.447-1-1-1c-.479,0-.946-.103-1.382-.283l4.737-4.738c.185.436.291.897.291,1.375ZM27.802,40.856c.519.42.798.887.951,1.285h-2.236l1.285-1.285ZM32,54.325c-4.782,0-9.457-1.549-13.283-4.382l5.804-5.806c.029,0,.059.004.088.004h23.456c1.42,0,2.6-1.106,2.687-2.518.147-2.395-.266-8.213-6.978-11.871.113-.448.171-.908.171-1.376,0-1.019-.28-1.992-.805-2.862l6.8-6.801c2.835,3.828,4.385,8.504,4.385,13.287,0,12.31-10.015,22.325-22.325,22.325Z"/>
</svg>