<?xml version="1.0" encoding="UTF-8"?>
<svg id="Outline" xmlns="http://www.w3.org/2000/svg" viewBox="0 0 64 64">
  <path d="M32,2.971c-11.841,0-21.474,9.633-21.474,21.474,0,12.497,10.792,25.632,20.193,35.679l.551.589c.189.202.453.316.73.316s.541-.114.73-.316l.551-.589c9.401-10.047,20.193-23.182,20.193-35.679,0-11.841-9.633-21.474-21.474-21.474ZM32,58.565c-9.107-9.752-19.474-22.4-19.474-34.12,0-10.738,8.736-19.474,19.475-19.474s19.473,8.736,19.473,19.474c0,11.72-10.367,24.368-19.474,34.12ZM32.002,8.975c-8.532,0-15.474,6.94-15.474,15.47s6.941,15.47,15.474,15.47,15.47-6.939,15.47-15.47-6.939-15.47-15.47-15.47ZM32.002,10.975c3.354,0,6.418,1.24,8.779,3.276l-4.568,4.567c-.046-.954-.408-1.818-.985-2.505l.517-.621c.24-.287.299-.684.153-1.029l-.715-1.696c-.214-.508-.8-.748-1.31-.533-.509.214-.748.801-.533,1.31l.479,1.135-.194.233c-.501-.209-1.049-.327-1.625-.327s-1.124.117-1.625.327l-.194-.233.479-1.135c.215-.509-.024-1.096-.533-1.31-.511-.215-1.095.024-1.31.533l-.715,1.696c-.146.345-.086.742.153,1.029l.517.621c-.618.736-1.005,1.672-1.005,2.706,0,.427.072.85.198,1.256-.34.368-.652.771-.933,1.203l-1.843-.524-.722-2.955c-.131-.536-.674-.863-1.209-.734-.537.131-.865.672-.734,1.209l.86,3.521c.085.35.352.626.698.725l2.024.576c-.226.579-.402,1.173-.509,1.767l-2.202.258c-.34.04-.637.252-.785.561l-.956,1.995c-.239.498-.028,1.095.47,1.334.14.067.287.098.432.098.373,0,.73-.209.902-.568l.718-1.498,1.323-.155c.065.686.236,1.34.497,1.948l-4.19,4.19c-2.037-2.36-3.278-5.425-3.278-8.78,0-7.428,6.044-13.47,13.474-13.47ZM27.467,26.465c0-2.705,2.198-6.194,4.533-6.194.684,0,1.354.305,1.963.797l-6.381,6.381c-.071-.318-.115-.645-.115-.984ZM32,16.787c1.174,0,2.129.914,2.216,2.066-.693-.364-1.436-.582-2.216-.582s-1.524.218-2.216.582c.087-1.152,1.042-2.066,2.216-2.066ZM28.523,29.336l6.762-6.761c.758,1.175,1.249,2.617,1.249,3.89,0,2.499-2.033,4.532-4.533,4.532-1.404,0-2.645-.655-3.477-1.661ZM36.729,21.13l2.698-2.698-.616,2.522-1.843.524c-.077-.119-.157-.234-.239-.349ZM32.002,37.915c-3.355,0-6.421-1.24-8.782-3.276l2.37-2.37-.154,2.434c-.035.551.384,1.025.935,1.061.021,0,.043.002.064.002.523,0,.964-.407.997-.938l.217-3.435.031-.042c1.153,1.02,2.663,1.645,4.32,1.645s3.167-.625,4.32-1.645l.031.042.217,3.435c.034.53.474.938.997.938.021,0,.042,0,.064-.002.551-.035.97-.51.935-1.061l-.235-3.732c-.012-.193-.081-.379-.196-.534l-.502-.674c.471-.8.779-1.706.872-2.676l1.323.155.718,1.498c.172.358.53.568.902.568.145,0,.292-.031.432-.098.498-.239.708-.836.47-1.334l-.956-1.995c-.148-.309-.445-.521-.785-.561l-2.202-.258c-.107-.593-.283-1.187-.509-1.767l2.024-.576c.346-.099.613-.375.698-.725l.86-3.521c.131-.537-.198-1.078-.734-1.209-.048-.012-.094,0-.142-.005l1.595-1.595c2.036,2.361,3.277,5.426,3.277,8.781,0,7.427-6.042,13.47-13.47,13.47Z"/>
</svg>