<?xml version="1.0" encoding="UTF-8"?>
<svg id="Outline" xmlns="http://www.w3.org/2000/svg" viewBox="0 0 64 64">
  <path d="M32,3C16.01,3,3,16.01,3,32s13.009,29,29,29,29-13.01,29-29S47.99,3,32,3ZM32,59c-14.888,0-27-12.112-27-27S17.112,5,32,5s27,12.112,27,27-12.112,27-27,27ZM47.832,13.95c-.014-.281-.146-.544-.363-.724-4.34-3.58-9.834-5.552-15.469-5.552-13.413,0-24.325,10.912-24.325,24.325,0,5.637,1.973,11.132,5.554,15.473.18.217.442.349.724.362.016,0,.032,0,.048,0,.265,0,.519-.104.707-.293L47.54,14.705c.199-.199.305-.474.292-.755ZM32,20.176c1.214,0,2.49,1.402,3.478,3.764l-2.698,2.699c-1.678.096-3.38-.123-4.994-.632,1.025-3.628,2.674-5.83,4.214-5.83ZM27.329,27.97c1.128.344,2.288.562,3.47.65l-3.995,3.996c.065-1.683.252-3.238.525-4.646ZM36.995,22.423c-.672-1.405-1.459-2.469-2.324-3.186.553-1.22,2.185-3.967,6.018-5.062.531-.152.838-.706.687-1.236-.152-.531-.704-.836-1.236-.688-4.479,1.279-6.479,4.427-7.237,6.043-.296-.074-.596-.118-.902-.118s-.606.049-.9.123c-.756-1.615-2.757-4.767-7.239-6.047-.532-.147-1.084.156-1.236.688-.152.53.156,1.084.687,1.236,3.845,1.098,5.465,3.825,6.017,5.054-1.856,1.524-3.3,4.615-4.028,8.634l-2.156-1.7.887-5.84c.083-.546-.292-1.056-.838-1.139-.545-.084-1.056.291-1.139.838l-.975,6.415c-.054.355.087.713.37.936l3.531,2.783c-.123,1.164-.194,2.379-.2,3.645h-1.286l-4.047-4.657c-.361-.416-.994-.46-1.411-.099-.417.362-.461.994-.099,1.411l4.346,5.001c.19.218.465.344.755.344h.582l-9.529,9.53c-2.855-3.835-4.416-8.527-4.416-13.331,0-12.311,10.015-22.325,22.325-22.325,4.803,0,9.493,1.561,13.328,4.414l-8.333,8.334ZM50.806,16.571c-.179-.218-.442-.351-.724-.364-.281-.019-.556.092-.756.292L16.503,49.328c-.2.199-.306.475-.292.756.014.282.146.545.364.724,4.333,3.559,9.811,5.518,15.425,5.518,13.413,0,24.325-10.912,24.325-24.325,0-5.615-1.96-11.095-5.52-15.429ZM37.225,33.981c0,7.047-2.066,12.236-4.225,13.501v-11.826l4.129-4.13c.06.813.096,1.633.096,2.455ZM31,47.491c-1.362-.799-2.646-3.165-3.427-6.406l3.427-3.428v9.834ZM32,54.325c-4.782,0-9.457-1.549-13.283-4.383l1.586-1.586c.06.086.123.17.211.236.18.134.389.198.597.198.305,0,.606-.139.803-.402l1.792-2.405c.11-.148.178-.324.194-.508l.071-.788,1.967-1.967c1.3,4.457,3.505,7.067,6.062,7.067,3.044,0,5.531-3.718,6.624-9.292l1.062.379.414,4.601c.017.184.084.359.194.508l1.792,2.405c.196.264.498.402.803.402.208,0,.417-.064.597-.198.443-.33.534-.956.204-1.399l-1.624-2.179-.446-4.956c-.035-.389-.292-.721-.66-.852l-2.016-.72c.109-.864.19-1.759.234-2.686h1.784c.29,0,.565-.126.755-.344l4.346-5.001c.362-.417.318-1.049-.099-1.411s-1.048-.318-1.411.099l-4.047,4.657h-1.288c-.006-1.221-.089-2.432-.22-3.628l3.553-2.8c.282-.223.423-.58.37-.936l-.093-.611,7.112-7.113c2.834,3.827,4.385,8.504,4.385,13.287,0,12.311-10.015,22.325-22.325,22.325Z"/>
</svg>