<?xml version="1.0" encoding="UTF-8"?>
<svg id="Outline" xmlns="http://www.w3.org/2000/svg" viewBox="0 0 64 64">
  <path d="M60,31h-1.92l-4.387-13.503,1.631-1.184c.447-.324.547-.95.223-1.396s-.951-.548-1.396-.223l-1.624,1.178-11.545-8.388.588-1.818c.17-.525-.118-1.089-.644-1.259-.529-.171-1.089.117-1.259.644l-.594,1.836h-14.145l-.594-1.836c-.17-.526-.732-.815-1.259-.644-.526.17-.814.733-.644,1.259l.588,1.818-11.508,8.361-1.588-1.152c-.447-.324-1.072-.225-1.397.223-.324.446-.225,1.072.222,1.396l1.573,1.141-4.401,13.545h-1.92c-.552,0-1,.447-1,1s.448,1,1,1h1.92l4.387,13.503-1.559,1.131c-.447.324-.546.95-.222,1.396.196.27.501.413.811.413.204,0,.409-.062.586-.19l1.551-1.125,11.545,8.387-.588,1.818c-.17.525.118,1.089.644,1.259.102.033.206.049.308.049.422,0,.814-.269.952-.692l.594-1.836h14.145l.594,1.836c.137.424.529.692.951.692.102,0,.205-.016.308-.049.525-.17.813-.733.644-1.259l-.588-1.818,11.581-8.414,1.588,1.152c.177.129.383.19.586.19.31,0,.615-.144.811-.413.324-.446.225-1.072-.223-1.396l-1.617-1.173,4.373-13.46h1.92c.553,0,1-.447,1-1s-.447-1-1-1ZM55.977,31h-5.124l-3.009-9.259,4.147-3.009,3.986,12.268ZM35.747,23.667l3.016,2.191-4.867,3.531,1.851-5.722ZM32,28.751l-1.842-5.696h3.685l-1.843,5.696ZM30.083,29.32l-4.809-3.489,2.98-2.165,1.829,5.654ZM28.991,31h-6.071l1.158-3.564,4.912,3.564ZM28.919,33l-4.854,3.521-1.144-3.521h5.998ZM30.105,34.611l-1.851,5.722-3.016-2.191,4.867-3.531ZM32,35.249l1.842,5.695h-3.684l1.842-5.695ZM33.873,34.542l4.925,3.573-3.052,2.217-1.873-5.79ZM35.154,33h5.925l-1.13,3.479-4.795-3.479ZM35.081,31l4.854-3.522,1.144,3.522h-5.998ZM40.465,24.623l-4.071-2.958,1.714-5.299,6.864,4.987-4.508,3.27ZM34.49,21.056h-4.979l-1.713-5.294h8.404l-1.713,5.294ZM27.606,21.665l-4.034,2.932-4.508-3.27,6.828-4.96,1.714,5.299ZM22.377,26.201l-1.559,4.799h-5.567l2.621-8.067,4.505,3.269ZM20.818,33l1.545,4.756-4.506,3.269-2.607-8.025h5.567ZM23.535,39.377l4.071,2.957-1.714,5.3-6.864-4.987,4.508-3.27ZM29.511,42.943h4.978l1.713,5.295h-8.404l1.713-5.295ZM36.394,42.334l4.108-2.983,4.507,3.27-6.9,5.013-1.714-5.3ZM41.651,37.714l1.532-4.714h5.567l-2.593,7.982-4.505-3.269ZM43.183,31l-1.546-4.756,4.505-3.269,2.607,8.025h-5.567ZM50.824,17.108l-4.149,3.01-7.919-5.753,1.578-4.878,10.49,7.621ZM38.426,8.888l-1.577,4.874h-9.698l-1.577-4.874h12.851ZM23.666,9.486l1.578,4.878-7.883,5.727-4.149-3.01,10.453-7.595ZM12.023,18.689l4.147,3.009-3.022,9.302h-5.125l4-12.311ZM8.023,33h5.125l3.008,9.259-4.147,3.009-3.986-12.268ZM13.176,46.892l4.149-3.01,7.919,5.753-1.578,4.878-10.49-7.621ZM25.575,55.112l1.577-4.874h9.698l1.577,4.874h-12.851ZM40.334,54.514l-1.578-4.878,7.955-5.78,4.149,3.01-10.526,7.648ZM52.005,45.226l-4.147-3.009,2.995-9.217h5.124l-3.972,12.226Z"/>
</svg>