<?xml version="1.0" encoding="UTF-8"?>
<svg id="Outline" xmlns="http://www.w3.org/2000/svg" viewBox="0 0 64 64">
  <path d="M60.956,25.369c-.191-1.222-.845-2.308-1.841-3.059l-7.051-5.289V7.665c0-1.557-1.266-2.822-2.822-2.822h-4.608c-1.556,0-2.821,1.266-2.821,2.822v1.666l-7.343-5.508c-1.453-1.092-3.486-1.092-4.939,0L4.882,22.312c-2.068,1.561-2.514,4.471-.993,6.488.889,1.179,2.254,1.797,3.647,1.797.469,0,.941-.076,1.399-.218l.093,25.745c0,2.668,2.171,4.841,4.84,4.844l36.453.033h.005c1.293,0,2.508-.503,3.423-1.417.916-.915,1.421-2.132,1.421-3.431l-.094-25.781c1.819.56,3.85,0,5.035-1.57.738-.979,1.038-2.198.845-3.432ZM43.812,7.665c0-.453.368-.822.821-.822h4.608c.453,0,.822.369.822.822v7.856l-6.252-4.69v-3.167ZM52.336,58.168c-.537.536-1.251.832-2.01.832h-.003l-36.453-.033c-1.567,0-2.842-1.277-2.842-2.848l-.094-26.887,19.797-14.836c.748-.559,1.789-.559,2.537,0l19.807,14.844.095,26.916c0,.76-.296,1.475-.834,2.012ZM58.514,27.597c-.858,1.14-2.523,1.333-3.713.438l-20.333-15.238c-1.452-1.09-3.481-1.09-4.936,0l-20.335,15.239c-1.19.897-2.854.698-3.711-.438-.857-1.138-.588-2.792.598-3.687L30.729,5.423c.748-.561,1.793-.561,2.541,0l24.643,18.486c.577.435.956,1.063,1.067,1.77.108.693-.057,1.375-.467,1.918ZM32.002,24.071c-8.532,0-15.474,6.939-15.474,15.47s6.941,15.471,15.474,15.471,15.47-6.94,15.47-15.471-6.939-15.47-15.47-15.47ZM32.002,26.071c3.354,0,6.418,1.24,8.778,3.276l-4.567,4.567c-.046-.954-.408-1.818-.985-2.504l.517-.622c.239-.287.298-.684.153-1.027l-.714-1.695c-.215-.511-.806-.745-1.31-.534-.51.215-.748.801-.534,1.31l.479,1.136-.194.233c-.501-.209-1.049-.327-1.625-.327s-1.124.117-1.625.327l-.194-.233.479-1.136c.214-.509-.024-1.095-.534-1.31-.504-.211-1.095.023-1.31.534l-.714,1.695c-.145.344-.086.74.153,1.027l.517.622c-.618.736-1.006,1.672-1.006,2.706,0,.427.072.85.198,1.256-.34.368-.652.771-.932,1.203l-1.844-.524-.721-2.955c-.131-.537-.676-.867-1.209-.734-.536.131-.865.672-.734,1.209l.859,3.521c.086.35.353.626.698.725l2.025.576c-.226.579-.402,1.173-.509,1.767l-2.203.258c-.341.04-.638.252-.786.562l-.955,1.995c-.238.498-.027,1.095.471,1.334.14.066.286.098.431.098.373,0,.731-.209.903-.568l.717-1.498,1.324-.155c.065.686.236,1.341.497,1.948l-4.19,4.191c-2.037-2.361-3.278-5.426-3.278-8.781,0-7.427,6.044-13.47,13.474-13.47ZM27.468,41.561c0-2.704,2.198-6.193,4.532-6.193.684,0,1.354.305,1.963.797l-6.381,6.381c-.071-.318-.115-.646-.115-.985ZM32,31.883c1.174,0,2.129.914,2.216,2.067-.693-.364-1.436-.582-2.216-.582s-1.524.218-2.216.582c.087-1.152,1.042-2.067,2.216-2.067ZM28.523,44.433l6.761-6.761c.758,1.175,1.248,2.617,1.248,3.889,0,2.5-2.033,4.533-4.532,4.533-1.404,0-2.645-.655-3.477-1.661ZM36.729,36.227l2.698-2.698-.615,2.522-1.844.524c-.077-.119-.157-.234-.239-.348ZM32.002,53.012c-3.355,0-6.421-1.24-8.782-3.276l2.37-2.37-.153,2.434c-.035.551.384,1.025.936,1.061.021,0,.042.002.063.002.523,0,.964-.407.997-.938l.217-3.436.031-.041c1.153,1.02,2.663,1.646,4.32,1.646s3.167-.625,4.32-1.646l.031.041.217,3.436c.033.53.474.938.997.938.021,0,.043,0,.063-.002.552-.035.971-.51.936-1.061l-.235-3.732c-.013-.194-.08-.38-.196-.535l-.502-.674c.47-.8.779-1.706.871-2.676l1.324.155.717,1.498c.172.359.53.568.903.568.145,0,.292-.031.431-.098.498-.239.709-.836.471-1.334l-.955-1.995c-.148-.31-.445-.521-.786-.562l-2.203-.258c-.107-.593-.283-1.187-.509-1.767l2.025-.576c.346-.099.612-.375.698-.725l.859-3.521c.131-.537-.198-1.078-.734-1.209-.048-.012-.094-.001-.141-.006l1.594-1.595c2.036,2.361,3.277,5.426,3.277,8.78,0,7.428-6.043,13.471-13.47,13.471Z"/>
</svg>