<?xml version="1.0" encoding="UTF-8"?>
<svg id="Outline" xmlns="http://www.w3.org/2000/svg" viewBox="0 0 64 64">
  <path d="M26.283,19.146v-1.474c0-.553.448-1,1-1s1,.447,1,1v1.474c0,.553-.448,1-1,1s-1-.447-1-1ZM21.156,20.146c.552,0,1-.447,1-1v-1.474c0-.553-.448-1-1-1s-1,.447-1,1v1.474c0,.553.448,1,1,1ZM61,46.138v13.836c0,.553-.448,1-1,1H4c-.552,0-1-.447-1-1v-9.606c0-.452.304-.849.741-.966.328-.089,7.78-2.04,16.68-2.193-1.023-1.343-1.651-2.946-1.803-4.656-1.688-1.646-2.74-3.94-2.74-6.478,0-.869.136-1.732.389-2.576-.705-1.288-1.107-2.765-1.107-4.334,0-1.16.234-2.287.669-3.364-1.047-1.586-1.661-3.481-1.661-5.519,0-3.916,2.256-7.308,5.533-8.966-.162-.501-.477-1.219-1.075-1.922-.504.293-1.081.473-1.704.473-1.886,0-3.42-1.534-3.42-3.42s1.534-3.419,3.42-3.419,3.419,1.534,3.419,3.419c0,.534-.134,1.033-.353,1.484.857.949,1.328,1.928,1.577,2.667.847-.232,1.734-.367,2.653-.367.894,0,1.757.129,2.582.349.25-.737.721-1.707,1.571-2.648-.219-.451-.353-.95-.353-1.485,0-1.885,1.534-3.419,3.42-3.419s3.419,1.534,3.419,3.419-1.534,3.42-3.419,3.42c-.624,0-1.201-.18-1.705-.473-.586.69-.899,1.391-1.063,1.89,3.312,1.646,5.599,5.055,5.599,8.998,0,2.038-.614,3.933-1.661,5.519.436,1.077.67,2.204.67,3.365,0,.912-.138,1.792-.39,2.622.586,1.083.943,2.264,1.053,3.483.379.37.73.764,1.036,1.189,1.056.235,2.033.647,2.905,1.204.661-.162,1.336-.266,2.024-.266,4.689,0,8.504,3.814,8.504,8.504,0,1.302-.301,2.574-.866,3.727,3.568-.547,7.5-1.59,11.928-4.339.309-.191.695-.2,1.013-.024.317.177.514.511.514.874ZM30.019,6.445c0,.783.637,1.42,1.42,1.42s1.419-.637,1.419-1.42-.637-1.419-1.419-1.419-1.42.637-1.42,1.419ZM16.922,7.865c.783,0,1.419-.637,1.419-1.42s-.637-1.419-1.419-1.419-1.42.637-1.42,1.419.637,1.42,1.42,1.42ZM39.907,39.396c-.007,0-.014.002-.02.002,1.361,1.591,2.17,3.651,2.17,5.884,0,1.893-.598,3.701-1.666,5.213,1.02-.148,2.061-.272,3.151-.384.462-.048.932-.097,1.407-.149.934-1.157,1.463-2.579,1.463-4.062,0-3.586-2.917-6.504-6.504-6.504ZM36.265,39.035c.274.871.422,1.784.422,2.714,0,2.697-1.219,5.213-3.225,6.91,1.608.443,3.098.997,4.49,1.638,1.34-1.323,2.104-3.117,2.104-5.014,0-2.693-1.511-5.062-3.792-6.248ZM24.219,36.223c3.893,0,7.06-3.166,7.06-7.059,0-.534-.061-1.061-.181-1.576-1.8,1.695-4.217,2.742-6.878,2.742s-5.078-1.047-6.878-2.742c-.12.515-.181,1.042-.181,1.576,0,3.893,3.167,7.059,7.059,7.059ZM16.169,20.28c0,4.438,3.611,8.05,8.05,8.05s8.051-3.611,8.051-8.05-3.611-8.051-8.051-8.051-8.05,3.611-8.05,8.051ZM24.937,43.133c3.893,0,7.06-3.166,7.06-7.059,0-.633-.089-1.261-.257-1.867-1.628,2.42-4.391,4.015-7.521,4.015-2.45,0-4.672-.981-6.304-2.567-.009.14-.037.278-.037.418,0,3.893,3.167,7.059,7.059,7.059ZM21.025,44.232c.44,1.166,1.191,2.2,2.19,3.004,2.708.081,5.236.348,7.57.804,2.374-1.193,3.902-3.627,3.902-6.291,0-1.256-.336-2.476-.954-3.542-.963,3.967-4.536,6.926-8.795,6.926-1.402,0-2.726-.33-3.912-.901ZM45.279,58.974c-9.127-14.353-35.508-8.938-40.279-7.822v7.822h40.279ZM59,47.883c-5.899,3.257-11.051,3.786-15.255,4.218-.741.076-1.464.15-2.166.236,2.547,1.772,4.568,3.99,6.022,6.637h11.398v-11.091Z"/>
</svg>