<?xml version="1.0" encoding="UTF-8"?>
<svg id="Outline" xmlns="http://www.w3.org/2000/svg" viewBox="0 0 64 64">
  <path d="M51.995,23.822v-.361c0-4.194-2.955-7.707-6.892-8.578v-1.838c0-1.694-1.378-3.072-3.071-3.072h-.808v-4.277c0-1.475-1.2-2.675-2.675-2.675h-3.13c-1.475,0-2.675,1.2-2.675,2.675v4.277h-.808c-1.693,0-3.071,1.378-3.071,3.072v1.838c-3.937.871-6.893,4.383-6.893,8.578v.361c-1.404.283-2.464,1.525-2.464,3.01v.555c0,1.2.698,2.23,1.704,2.735-.434-.037-.87-.067-1.313-.067-8.532,0-15.474,6.939-15.474,15.47s6.941,15.471,15.474,15.471c.643,0,1.273-.052,1.895-.128.261.071.523.12.786.12h28.806c1.693,0,3.071-1.378,3.071-3.071v-.555c0-1.485-1.061-2.727-2.464-3.01v-23.955c1.403-.283,2.464-1.525,2.464-3.01v-.555c0-1.485-1.061-2.727-2.464-3.01ZM34.745,5.695c0-.372.303-.675.675-.675h3.13c.372,0,.675.303.675.675v.802h-1.389c-.553,0-1,.447-1,1s.447,1,1,1h1.389v1.476h-4.479v-4.277ZM31.937,11.973h10.095c.591,0,1.071.481,1.071,1.072v1.626h-12.237v-1.626c0-.591.48-1.072,1.071-1.072ZM30.765,16.671h12.44c3.744,0,6.79,3.046,6.79,6.79v.3h-26.021v-.3c0-3.744,3.047-6.79,6.791-6.79ZM49.995,30.458v3.458h-3.457c-4.664,0-8.458,3.794-8.458,8.458s3.794,8.458,8.458,8.458h3.457v3.458h-17.359c1.722-2.494,2.736-5.512,2.736-8.765,0-7.119-4.841-13.114-11.398-14.908v-.159h26.021ZM49.995,48.832h-3.457c-3.561,0-6.458-2.897-6.458-6.458s2.897-6.458,6.458-6.458h3.457v12.916ZM19.901,32.056c3.354,0,6.419,1.24,8.779,3.276l-4.567,4.567c-.046-.954-.408-1.818-.986-2.504l.518-.621c.239-.287.298-.684.153-1.028l-.715-1.695c-.215-.509-.803-.744-1.311-.533-.509.215-.747.802-.533,1.311l.479,1.134-.194.234c-.501-.209-1.049-.326-1.625-.326s-1.123.117-1.624.326l-.194-.234.479-1.134c.214-.509-.024-1.096-.533-1.311-.507-.211-1.096.024-1.311.533l-.715,1.695c-.145.345-.086.741.153,1.028l.518.621c-.618.736-1.006,1.672-1.006,2.707,0,.427.073.85.199,1.256-.34.368-.652.771-.932,1.203l-1.844-.524-.721-2.955c-.131-.537-.673-.866-1.209-.734-.536.131-.865.672-.734,1.209l.859,3.521c.086.35.353.626.698.725l2.025.576c-.226.579-.402,1.174-.509,1.767l-2.202.258c-.341.04-.638.252-.785.561l-.956,1.995c-.239.498-.029,1.096.469,1.334.14.067.287.099.432.099.373,0,.73-.209.902-.567l.719-1.499,1.323-.155c.065.686.236,1.341.497,1.948l-4.19,4.19c-2.037-2.361-3.278-5.426-3.278-8.781,0-7.427,6.044-13.47,13.474-13.47ZM15.367,47.545c0-2.704,2.198-6.193,4.532-6.193.684,0,1.355.305,1.964.797l-6.381,6.381c-.071-.318-.115-.646-.115-.985ZM19.899,37.867c1.175,0,2.13.914,2.218,2.067-.693-.364-1.437-.582-2.218-.582s-1.524.218-2.216.582c.087-1.152,1.042-2.067,2.216-2.067ZM16.422,50.417l6.762-6.762c.758,1.175,1.249,2.617,1.249,3.889,0,2.5-2.033,4.533-4.533,4.533-1.404,0-2.645-.655-3.477-1.661ZM24.629,42.211l2.698-2.698-.615,2.522-1.844.524c-.077-.119-.157-.234-.239-.348ZM11.12,55.72l2.37-2.37-.153,2.434c-.034.551.384,1.026.936,1.061.021,0,.042.002.063.002.523,0,.964-.407.997-.938l.216-3.436.031-.041c1.153,1.02,2.663,1.646,4.32,1.646s3.168-.625,4.321-1.646l.031.041.216,3.436c.033.53.474.938.997.938.021,0,.042,0,.063-.002.552-.034.97-.51.936-1.061l-.234-3.732c-.012-.193-.08-.38-.196-.535l-.502-.674c.471-.8.779-1.706.871-2.675l1.323.155.717,1.498c.172.359.53.568.903.568.145,0,.292-.031.431-.098.498-.239.709-.836.471-1.334l-.955-1.995c-.148-.31-.445-.521-.786-.562l-2.201-.258c-.107-.593-.283-1.188-.509-1.767l2.025-.576c.346-.099.612-.375.698-.725l.859-3.521c.131-.537-.198-1.078-.734-1.209-.048-.012-.094-.001-.142-.006l1.595-1.595c2.037,2.361,3.277,5.426,3.277,8.78,0,7.428-6.043,13.471-13.471,13.471-3.355,0-6.421-1.24-8.782-3.276ZM52.459,57.361v.555c0,.591-.48,1.071-1.071,1.071h-23.89c1.291-.731,2.466-1.64,3.492-2.697h20.398c.591,0,1.071.48,1.071,1.071ZM52.459,27.387c0,.591-.48,1.071-1.071,1.071h-28.806c-.591,0-1.072-.48-1.072-1.071v-.555c0-.591.481-1.071,1.072-1.071h28.806c.591,0,1.071.48,1.071,1.071v.555ZM45.354,5.706c-.07-.548.316-1.049.864-1.12l12.227-1.574c.562-.061,1.05.317,1.12.864.07.548-.316,1.049-.864,1.12l-12.227,1.574c-.044.005-.087.008-.129.008-.496,0-.926-.368-.991-.872ZM59.564,10.706c-.065.504-.495.872-.991.872-.042,0-.085-.003-.129-.008l-12.227-1.574c-.548-.071-.935-.572-.864-1.12.071-.547.559-.924,1.12-.864l12.227,1.574c.548.071.935.572.864,1.12Z"/>
</svg>