<?xml version="1.0" encoding="UTF-8"?><svg id="Glyph" xmlns="http://www.w3.org/2000/svg" viewBox="0 0 64 64"><path d="M56.13,26.6L32,8.5,7.87,26.6l-2.4-3.2L30.8,4.4c.71-.53,1.69-.53,2.4,0l25.33,19-2.4,3.2Z"/><path d="M32,11L10,27.5V60H54V27.5L32,11Zm-11,30v-3c0-4.43,2.61-8.23,6.38-9.97-1.41,2.18-2.38,5.52-2.38,9.97v2.11c-.31-.06-.64-.11-1-.11-1.84,0-3,1-3,1Zm16,0s-1.53-.78-4-.96v10.96c0,2.21-1.79,4-4,4s-4-1.79-4-4v-1c0-.55,.45-1,1-1s1,.45,1,1v1c0,1.1,.9,2,2,2s2-.9,2-2v-10.96c-2.47,.18-4,.96-4,.96v-3c0-6.08,2.24-11,5-11s5,4.92,5,11v3Zm6,0s-1.16-1-3-1c-.36,0-.69,.05-1,.11v-2.11c0-4.46-.96-7.79-2.38-9.97,3.76,1.75,6.38,5.55,6.38,9.97v3Z"/></svg>