<?xml version="1.0" encoding="UTF-8"?><svg id="Glyph" xmlns="http://www.w3.org/2000/svg" viewBox="0 0 64 64"><path d="M56.13,26.6L32,8.5,7.87,26.6l-2.4-3.2L30.8,4.4c.71-.53,1.69-.53,2.4,0l25.33,19-2.4,3.2Z"/><path d="M32,11L10,27.5V60H54V27.5L32,11Zm13,23.37c-1.53,1.53-3.69,2.03-5.65,1.53l-10.45,10.45c.5,1.96,0,4.12-1.53,5.65-1.41,1.41-3.35,1.95-5.17,1.64-.66-.11-.9-.95-.42-1.43l2.65-2.65-.62-2.33-.03-.03-2.33-.62-2.65,2.65c-.48,.48-1.32,.23-1.43-.44-.31-1.83,.25-3.78,1.68-5.19,1.49-1.47,3.65-1.95,5.6-1.47l10.49-10.49c-.48-1.95,0-4.1,1.47-5.6,1.41-1.43,3.35-1.99,5.19-1.68,.67,.11,.92,.95,.44,1.43l-2.65,2.65,.62,2.33,.03,.03,2.33,.62,2.65-2.65c.47-.47,1.31-.24,1.43,.42,.31,1.82-.24,3.76-1.64,5.17Z"/></svg>