<?xml version="1.0" encoding="UTF-8"?><svg id="Glyph" xmlns="http://www.w3.org/2000/svg" viewBox="0 0 64 64"><path d="M4,15h5v3c0,.55,.45,1,1,1h2v6h-3v6h8v-6h-3v-6h2c.55,0,1-.45,1-1v-3h27v-4H4v4Z"/><rect x="58" y="11" width="2" height="4"/><path d="M49,5h4v1h2v-2c0-.55-.45-1-1-1h-6c-.55,0-1,.45-1,1v2h2v-1Z"/><path d="M55,20h-2v.86l-1.04-.86h-4.96V56h-1v4h10v-4h-1V20Zm-2,27.86l-2.84-2.36,2.84-2.36v4.73Zm-4-9.73l3.44,2.86-3.44,2.86v-5.73Zm4,.73l-2.84-2.36,2.84-2.36v4.73Zm-4-4v-5.73l3.44,2.86-3.44,2.86Zm0,12.27l3.44,2.86-3.44,2.86v-5.73Zm0,8.33l4-3.33v3.86h-4v-.53Zm4-25.6l-2.84-2.36,2.84-2.36v4.73Zm-.56-6.86l-3.44,2.86v-5.73l3.44,2.86Z"/><rect x="46" y="8" width="10" height="10" rx="1" ry="1"/><path d="M36,58h-1v-13h-3V29c0-.55-.45-1-1-1s-1,.45-1,1v1h-3v-1c0-.55-.45-1-1-1s-1,.45-1,1v1h-2c-.55,0-1,.45-1,1s.45,1,1,1h2v5.27l-2-1.27-12,7.65v14.35h-1c-.55,0-1,.45-1,1s.45,1,1,1h26c.55,0,1-.45,1-1s-.45-1-1-1Zm-9-26h3v13h-3v-13Zm-7,26v-6h6v6h-6Z"/></svg>