<?xml version="1.0" encoding="UTF-8"?><svg id="Glyph" xmlns="http://www.w3.org/2000/svg" viewBox="0 0 64 64"><path d="M33,19v4h6v-4h-6Zm4,16.5c-.55,0-1-.45-1-1v-3.5h-7v10h13v-5.5h-5Zm10-16.5v10h6v-10h-6Zm-1,12c-.55,0-1-.45-1-1v-11h-4v5c0,.55-.45,1-1,1h-8c-.55,0-1-.45-1-1v-5h-2v10h8c.55,0,1,.45,1,1v3.5h5c.55,0,1,.45,1,1v6.5h9v-10h-7Zm-1-1v-11h-4v5c0,.55-.45,1-1,1h-8c-.55,0-1-.45-1-1v-5h-2v10h8c.55,0,1,.45,1,1v3.5h5c.55,0,1,.45,1,1v6.5h9v-10h-7c-.55,0-1-.45-1-1Zm2-11v10h6v-10h-6Zm-11,15.5v-3.5h-7v10h13v-5.5h-5c-.55,0-1-.45-1-1Zm3-15.5h-6v4h6v-4ZM13,13V52c0,.55-.45,1-1,1s-1-.45-1-1c0-1.65-1.35-3-3-3s-3,1.35-3,3,1.35,3,3,3H59V13H13Zm14,5c0-.55,.45-1,1-1h26c.55,0,1,.45,1,1v24c0,.55-.45,1-1,1H28c-.55,0-1-.45-1-1V18Zm-7,25c-.26,0-.51-.1-.71-.29l-2-2c-.39-.39-.39-1.03,0-1.42,.39-.39,1.03-.39,1.42,0l.29,.3V20.41l-.29,.3c-.39,.39-1.03,.39-1.42,0s-.39-1.03,0-1.42l2-2c.39-.39,1.03-.39,1.42,0l2,2c.39,.39,.39,1.03,0,1.42-.2,.19-.45,.29-.71,.29s-.51-.1-.71-.29l-.29-.3v19.18l.29-.3c.39-.39,1.03-.39,1.42,0,.39,.39,.39,1.03,0,1.42l-2,2c-.2,.19-.45,.29-.71,.29Zm34.71,7.71l-2,2c-.2,.19-.45,.29-.71,.29s-.51-.1-.71-.29c-.39-.39-.39-1.03,0-1.42l.3-.29H24.41l.3,.29c.39,.39,.39,1.03,0,1.42-.2,.19-.45,.29-.71,.29s-.51-.1-.71-.29l-2-2c-.39-.39-.39-1.03,0-1.42l2-2c.39-.39,1.03-.39,1.42,0,.39,.39,.39,1.03,0,1.42l-.3,.29h27.18l-.3-.29c-.39-.39-.39-1.03,0-1.42,.39-.39,1.03-.39,1.42,0l2,2c.39,.39,.39,1.03,0,1.42Zm-16.71-20.71v3.5h5c.55,0,1,.45,1,1v6.5h9v-10h-7c-.55,0-1-.45-1-1v-11h-4v5c0,.55-.45,1-1,1h-8c-.55,0-1-.45-1-1v-5h-2v10h8c.55,0,1,.45,1,1Zm15-11h-6v10h6v-10Zm-11,16.5h-5c-.55,0-1-.45-1-1v-3.5h-7v10h13v-5.5Zm-3-16.5h-6v4h6v-4ZM8,9c-1.65,0-3,1.35-3,3V48c.84-.63,1.88-1,3-1s2.16,.37,3,1V12c0-1.65-1.35-3-3-3Z"/></svg>