<?xml version="1.0" encoding="UTF-8"?><svg id="Glyph" xmlns="http://www.w3.org/2000/svg" viewBox="0 0 64 64"><path d="M33.2,4.4c-.71-.53-1.69-.53-2.4,0L5.47,23.4l2.4,3.2L32,8.5l24.13,18.1,2.4-3.2L33.2,4.4Z"/><path d="M38.98,42.74h-13.96c-.5,0-.93,.37-.99,.87l-.71,5.39h17.36l-.71-5.39c-.07-.5-.49-.87-.99-.87Z"/><path d="M41.65,51H22.35l-.72,1.08c-.15,.23-.23,.49-.23,.76v3.25c0,.5,.41,.91,.91,.91h1.29v.5c0,1.38,1.12,2.5,2.5,2.5s2.5-1.12,2.5-2.5v-.5h6.8v.5c0,1.38,1.12,2.5,2.5,2.5s2.5-1.12,2.5-2.5v-.5h1.29c.5,0,.91-.41,.91-.91v-3.25c0-.27-.08-.53-.23-.76l-.72-1.08Zm-7.36,4h-4.58c-.55,0-1-.45-1-1s.45-1,1-1h4.58c.55,0,1,.45,1,1s-.45,1-1,1Z"/><path d="M10,27.5V60h6v-20H48v20h6V27.5L32,11,10,27.5Zm38,10.5H16v-4H48v4Zm0-6H16v-4H48v4Zm-13-12c0,1.66-1.34,3-3,3s-3-1.34-3-3,1.34-3,3-3,3,1.34,3,3Z"/></svg>