<?xml version="1.0" encoding="UTF-8"?><svg id="Glyph" xmlns="http://www.w3.org/2000/svg" viewBox="0 0 64 64"><path d="M48.74,34.79h-1.69v10.41h1.69c2.87,0,5.21-2.34,5.21-5.21s-2.34-5.21-5.21-5.21Z"/><rect x="22.05" y="34.79" width="6.9" height="10.41" rx="2" ry="2"/><path d="M58,28h-4.7l-18.4-12.27c.06-.24,.1-.48,.1-.73,0-1.66-1.34-3-3-3s-3,1.34-3,3c0,.25,.04,.5,.1,.73L10.7,28H6c-1.1,0-2,.9-2,2v20c0,1.1,.9,2,2,2H58c1.1,0,2-.9,2-2V30c0-1.1-.9-2-2-2Zm-27.79-10.61c.5,.37,1.12,.61,1.79,.61s1.29-.23,1.79-.61l15.91,10.61H14.3l15.91-10.61Zm-12.26,19.7c0,.55-.45,1-1,1s-1-.45-1-1v-.31c0-1.1-.9-2-2-2h-1.9c-.55,0-1.07,.23-1.45,.63-.36,.38-.55,.86-.55,1.37,0,.7,.45,1.32,1.11,1.54l4.31,1.44c1.48,.5,2.48,1.88,2.48,3.44,0,1.01-.38,1.98-1.08,2.73-.77,.81-1.83,1.27-2.92,1.27h-1.9c-2.21,0-4-1.79-4-4v-.32c0-.55,.45-1,1-1s1,.45,1,1v.32c0,1.1,.9,2,2,2h1.9c.55,0,1.08-.23,1.46-.64,.24-.26,.54-.71,.54-1.36,0-.7-.45-1.32-1.11-1.54l-4.31-1.44c-1.48-.5-2.48-1.88-2.48-3.44,0-1.02,.39-1.99,1.09-2.74,.75-.8,1.81-1.26,2.91-1.26h1.9c2.21,0,4,1.79,4,4v.31Zm13,6.11c0,2.21-1.79,4-4,4h-2.9c-2.21,0-4-1.79-4-4v-6.41c0-2.21,1.79-4,4-4h2.9c2.21,0,4,1.79,4,4v6.41Zm10.51,4h-6.9c-.55,0-1-.45-1-1v-12.41c0-.55,.45-1,1-1s1,.45,1,1v11.41h5.9c.55,0,1,.45,1,1s-.45,1-1,1Zm7.28,0h-2.69c-.55,0-1-.45-1-1v-12.41c0-.55,.45-1,1-1h2.69c3.97,0,7.21,3.23,7.21,7.21s-3.23,7.21-7.21,7.21Z"/></svg>