<?xml version="1.0" encoding="UTF-8"?><svg id="Glyph" xmlns="http://www.w3.org/2000/svg" viewBox="0 0 64 64"><polygon points="46 4 46 12 54 12 46 4"/><path d="M44,4H12c-1.1,0-2,.9-2,2V58c0,1.1,.9,2,2,2H52c1.1,0,2-.9,2-2V14h-10V4ZM23.07,13.2l8.33-6.25c.36-.27,.84-.27,1.2,0l8.33,6.25c.44,.33,.53,.96,.2,1.4-.2,.26-.5,.4-.8,.4-.21,0-.42-.07-.6-.2l-7.73-5.8-7.73,5.8c-.44,.33-1.07,.24-1.4-.2-.33-.44-.24-1.07,.2-1.4Zm5.93,5.05v8h-4.09v-9.53c.2-.09,.39-.19,.56-.32l6.53-4.9,6.53,4.9c.17,.13,.36,.23,.56,.32v9.53h-4.09v-8h-6Zm-.68,37.75l-1.1-1.87-2.16-.25,1.65-2.55c.85,.99,1.98,1.74,3.26,2.13l-1.65,2.54Zm-1.32-9.24c0-2.76,2.24-5,5-5s5,2.24,5,5-2.24,5-5,5-5-2.24-5-5Zm9.78,7.37l-1.1,1.87-1.65-2.54c1.28-.39,2.41-1.14,3.26-2.13l1.65,2.55-2.16,.25Zm6.7-17.13H20.52c-.55,0-1-.45-1-1s.45-1,1-1h22.96c.55,0,1,.45,1,1s-.45,1-1,1Zm4.52-6c.55,0,1,.45,1,1s-.45,1-1,1H16c-.55,0-1-.45-1-1s.45-1,1-1H48Z"/><circle cx="32" cy="46.76" r="2"/></svg>