<?xml version="1.0" encoding="UTF-8"?><svg id="Glyph" xmlns="http://www.w3.org/2000/svg" viewBox="0 0 64 64"><polygon points="47 31.58 47 18.5 37 11 27 18.5 27 31.58 34 31.58 34 19.58 40 19.58 40 31.58 47 31.58"/><path d="M37,8.5l11.61,8.71,2.4-3.2-12.81-9.61c-.71-.53-1.69-.53-2.4,0l-12.81,9.61,2.4,3.2,11.61-8.71Z"/><path d="M15.86,40.65c.98-.42,2.05-.65,3.14-.65h.52l-2.53-28.2c-.1-1.02-.96-1.8-1.99-1.8H6c-1.1,0-2,.9-2,2s.9,2,2,2h7.19l2.67,26.65Z"/><path d="M19,46H54.33c.98,0,1.81-.71,1.97-1.67l3.67-22.23c.18-1.09-.56-2.12-1.65-2.3-1.09-.18-2.12,.56-2.3,1.65l-3.4,20.55H19c-3.57,0-6.42,3.13-5.95,6.79,.39,3.02,3.11,5.21,6.16,5.21h3.17c-.84,.73-1.38,1.8-1.38,3,0,2.21,1.79,4,4,4s4-1.79,4-4c0-1.2-.54-2.27-1.38-3h19.76c-.84,.73-1.38,1.8-1.38,3,0,2.21,1.79,4,4,4s4-1.79,4-4c0-1.2-.54-2.27-1.38-3h3.38c1.1,0,2-.9,2-2s-.9-2-2-2H19c-1.1,0-2-.9-2-2s.9-2,2-2Zm6,13c-1.1,0-2-.9-2-2s.9-2,2-2,2,.9,2,2-.9,2-2,2Zm25,0c-1.1,0-2-.9-2-2s.9-2,2-2,2,.9,2,2-.9,2-2,2Z"/></svg>