<?xml version="1.0" encoding="UTF-8"?><svg id="Glyph" xmlns="http://www.w3.org/2000/svg" viewBox="0 0 64 64"><path d="M4,10V60H14v-9h9v9h2v-9h9v9h10V10H4Zm17,4h6v6h-6v-6Zm0,10h6v6h-6v-6ZM9,14h6v6h-6v-6Zm0,10h6v6h-6v-6Zm0,10h6v6h-6v-6Zm14,15H12v-3h11v3Zm-2-9v-6h6v6h-6Zm15,9h-11v-3h11v3Zm3-9h-6v-6h6v6Zm0-10h-6v-6h6v6Zm0-10h-6v-6h6v6Z"/><rect x="4" y="4" width="40" height="4"/><rect x="46" y="14" width="14" height="4"/><path d="M46,20V60h14V20h-14Zm10,30h-6v-6h6v6Zm0-10h-6v-6h6v6Zm0-10h-6v-6h6v6Z"/></svg>