<?xml version="1.0" encoding="UTF-8"?><svg id="Glyph" xmlns="http://www.w3.org/2000/svg" viewBox="0 0 64 64"><path d="M55,8V4h-4v4H13V4h-4v4H4v30h4v4h1v18h4v-18h1v-4H50v4h1v18h4v-18h1v-4h4V8h-5Zm-27.97,24.25h-4.09v-8h-6v8h-4.1v-9.53c.2-.09,.39-.19,.57-.32l6.53-4.9,6.53,4.9c.18,.13,.37,.24,.56,.32v9.53Zm2.04-11.65c-.2,.26-.5,.4-.8,.4-.21,0-.42-.07-.6-.2l-7.73-5.8-7.73,5.8c-.44,.33-1.07,.24-1.4-.2-.33-.44-.24-1.07,.2-1.4l8.33-6.25c.36-.27,.84-.27,1.2,0l8.33,6.25c.44,.33,.53,.96,.2,1.4Zm2.93-3.6c0-.55,.45-1,1-1h21c.55,0,1,.45,1,1s-.45,1-1,1h-21c-.55,0-1-.45-1-1Zm22,5h-18c-.55,0-1-.45-1-1s.45-1,1-1h18c.55,0,1,.45,1,1s-.45,1-1,1Zm1,3c0,.55-.45,1-1,1h-18c-.55,0-1-.45-1-1s.45-1,1-1h18c.55,0,1,.45,1,1Zm-19,5c-.55,0-1-.45-1-1s.45-1,1-1h18c.55,0,1,.45,1,1s-.45,1-1,1h-18Z"/></svg>