<?xml version="1.0" encoding="UTF-8"?><svg id="Glyph" xmlns="http://www.w3.org/2000/svg" viewBox="0 0 64 64"><rect x="43" y="40" width="12" height="11"/><path d="M20,41.5v-4.5H9v8h7c.55,0,1,.45,1,1v5h3v-3c0-.55,.45-1,1-1s1,.45,1,1v3h5v-8.5h-6c-.55,0-1-.45-1-1Z"/><rect x="9" y="17" width="4" height="2"/><path d="M22,18.65v-5.65H9v2h5c.55,0,1,.45,1,1v4c0,.55-.45,1-1,1h-5v2h9.52l3.48-4.35Z"/><rect x="30" y="13" width="4" height="8"/><rect x="9" y="47" width="6" height="4"/><path d="M4,8V56H60V8H4ZM57,52c0,.55-.45,1-1,1H8c-.55,0-1-.45-1-1V12c0-.55,.45-1,1-1H56c.55,0,1,.45,1,1V52Z"/><path d="M41,32V13h-5v9c0,.55-.45,1-1,1h-6c-.55,0-1-.45-1-1V13h-4v6c0,.23-.08,.45-.22,.62l-4,5c-.19,.24-.48,.38-.78,.38H9v4H28c.55,0,1,.45,1,1s-.45,1-1,1H9v4h12c.55,0,1,.45,1,1v4.5h6c.55,0,1,.45,1,1v9.5h5v-12c0-.55,.45-1,1-1s1,.45,1,1v12h5v-12c0-.55,.45-1,1-1h13v-5h-13c-.55,0-1-.45-1-1Z"/><path d="M43,31h4.43l2.71-4.51c.18-.3,.51-.49,.86-.49h4v-3h-7c-.55,0-1-.45-1-1v-6c0-.55,.45-1,1-1h7v-2h-12V31Z"/><polygon points="49.77 31 55 31 55 28 51.57 28 49.77 31"/><rect x="49" y="17" width="6" height="4"/></svg>