<?xml version="1.0" encoding="UTF-8"?><svg id="Glyph" xmlns="http://www.w3.org/2000/svg" viewBox="0 0 64 64"><path d="M55,58h-3V24c0-11.05-8.95-20-20-20h0c-11.05,0-20,8.95-20,20V58h-3c-.55,0-1,.45-1,1s.45,1,1,1H55c.55,0,1-.45,1-1s-.45-1-1-1ZM30.58,26h-10.58v-2c0-2.44,.73-4.7,1.98-6.6l8.6,8.6Zm-7.34-10.18c1.98-2.12,4.7-3.52,7.76-3.77v11.54l-7.76-7.77Zm7.76,14.18v11.5h-11v-11.5h11Zm0,14.5v11.5h-11v-11.5h11Zm2-20.91V12.05c3.06,.25,5.79,1.65,7.77,3.77l-7.77,7.77Zm9.01-6.19c1.25,1.89,1.99,4.16,1.99,6.6v2h-10.58l8.59-8.6Zm1.99,12.6v11.5h-11v-11.5h11Zm0,14.5v11.5h-11v-11.5h11Zm3,13.5V24c0-8.27-6.73-15-15-15s-15,6.73-15,15V58h-2V24c0-9.37,7.63-17,17-17s17,7.63,17,17V58h-2Z"/></svg>