<?xml version="1.0" encoding="UTF-8"?><svg id="Glyph" xmlns="http://www.w3.org/2000/svg" viewBox="0 0 64 64"><polygon points="42 12 42 4 26 12 42 12"/><path d="M20,12.76L37.53,4H12c-1.1,0-2,.9-2,2V48c0,1.1,.9,2,2,2h8V12.76Z"/><path d="M52,14H22V58c0,1.1,.9,2,2,2h28c1.1,0,2-.9,2-2V16c0-1.1-.9-2-2-2Zm-22.93,10.33l8.33-6.25c.36-.27,.84-.27,1.2,0l8.33,6.25c.44,.33,.53,.96,.2,1.4-.2,.26-.5,.4-.8,.4-.21,0-.42-.07-.6-.2l-7.73-5.8-7.73,5.8c-.44,.33-1.07,.24-1.4-.2-.33-.44-.24-1.07,.2-1.4Zm5.93,5.05v8h-4.1v-9.53c.2-.08,.39-.19,.57-.33l6.53-4.9,6.53,4.91c.18,.13,.37,.24,.56,.32v9.53h-4.09v-8h-6Zm-7,12.74h20c.55,0,1,.45,1,1s-.45,1-1,1H28c-.55,0-1-.45-1-1s.45-1,1-1Zm0,4h20c.55,0,1,.45,1,1s-.45,1-1,1H28c-.55,0-1-.45-1-1s.45-1,1-1Zm15,10h-10c-.55,0-1-.45-1-1s.45-1,1-1h10c.55,0,1,.45,1,1s-.45,1-1,1Zm5-4H28c-.55,0-1-.45-1-1s.45-1,1-1h20c.55,0,1,.45,1,1s-.45,1-1,1Z"/></svg>