<?xml version="1.0" encoding="UTF-8"?><svg id="Glyph" xmlns="http://www.w3.org/2000/svg" viewBox="0 0 64 64"><path d="M33.2,4.4c-.71-.53-1.69-.53-2.4,0L5.47,23.4l2.4,3.2L32,8.5l24.13,18.1,2.4-3.2L33.2,4.4Z"/><path d="M43.01,31.47c.13,.43,.53,.7,.95,.7,.1,0,.2-.02,.31-.05,.52-.17,.81-.73,.64-1.26-.16-.51-.39-1-.66-1.45-.28-.48-.9-.63-1.37-.35-.47,.29-.63,.9-.34,1.38,.19,.32,.35,.67,.47,1.03Z"/><path d="M41.22,39.22c.17,0,.34-.04,.49-.13,.54-.3,1.04-.69,1.49-1.13,.74-.74,1.29-1.62,1.64-2.6,.19-.52-.09-1.09-.61-1.28-.51-.18-1.09,.09-1.27,.61-.25,.7-.65,1.33-1.17,1.85-.32,.32-.68,.6-1.06,.81-.48,.28-.65,.89-.38,1.37,.19,.32,.52,.5,.87,.5Z"/><path d="M10,27.5V60H54V27.5L32,11,10,27.5Zm17.78,18.31c.39,.39,.44,.97,.11,1.3l-7.7,7.7c-.33,.33-.91,.28-1.3-.11l-2.84-2.82c-.39-.39-.45-.98-.12-1.31l7.73-7.73c.33-.33,.91-.28,1.3,.11l3.31-3.31c.45,.66,.94,1.29,1.49,1.84,.39,.39,.82,.75,1.25,1.07l-3.24,3.24h0Zm17.54-19.87c3.91,3.9,3.91,10.24,0,14.14-3.5,3.51-8.98,3.87-12.88,1.06-.44-.31-.86-.66-1.26-1.06-.57-.57-1.06-1.2-1.47-1.86-2.36-3.85-1.87-8.95,1.47-12.28,3.9-3.91,10.24-3.91,14.14,0Z"/></svg>