<?xml version="1.0" encoding="UTF-8"?><svg id="Glyph" xmlns="http://www.w3.org/2000/svg" viewBox="0 0 64 64"><g><polygon points="56 29 56 60 51 60 51 54 48 54 48 29 56 29"/><polygon points="16 29 16 54 13 54 13 60 8 60 8 29 16 29"/></g><path d="M30.8,4.4L12.67,18l2.4,3.2,16.93-12.7,16.93,12.7,2.4-3.2L33.2,4.4c-.71-.53-1.69-.53-2.4,0Z"/><g><polygon points="54.13 17.6 49.33 24 48 23 48 27 60 27 55 15 50.66 15 54.13 17.6"/><polygon points="16 23 14.67 24 9.87 17.6 13.34 15 9 15 4 27 16 27 16 23"/></g><path d="M26,54v-13h12v13h8V21.5l-14-10.5-14,10.5V54h8Zm7-33h5v6h-5v-6Zm-7,0h5v6h-5v-6Zm-2,15h16v3H24v-3Z"/><rect x="15" y="56" width="34" height="4"/></svg>