<?xml version="1.0" encoding="UTF-8"?><svg id="Glyph" xmlns="http://www.w3.org/2000/svg" viewBox="0 0 64 64"><path d="M13.63,34.79h-2.45v4.9h2.45c1.35,0,2.45-1.1,2.45-2.45s-1.1-2.45-2.45-2.45Z"/><path d="M58,28h-4.7l-18.4-12.27c.06-.24,.1-.48,.1-.73,0-1.66-1.34-3-3-3s-3,1.34-3,3c0,.25,.04,.5,.1,.73L10.7,28H6c-1.1,0-2,.9-2,2v20c0,1.1,.9,2,2,2H58c1.1,0,2-.9,2-2V30c0-1.1-.9-2-2-2Zm-27.79-10.61c.5,.37,1.12,.61,1.79,.61s1.29-.23,1.79-.61l15.91,10.61H14.3l15.91-10.61Zm-12.62,29.71c-.14,.07-.3,.11-.45,.11-.37,0-.72-.2-.9-.55l-2.49-4.98s-.08,.01-.13,.01h-2.45v4.52c0,.55-.45,1-1,1s-1-.45-1-1v-12.41c0-.55,.45-1,1-1h3.45c2.45,0,4.45,2,4.45,4.45,0,1.69-.96,3.15-2.35,3.9l2.31,4.62c.25,.49,.05,1.09-.45,1.34Zm9.65-8.1c.55,0,1,.45,1,1s-.45,1-1,1h-4.52v4.21h5.9c.55,0,1,.45,1,1s-.45,1-1,1h-6.9c-.55,0-1-.45-1-1v-12.41c0-.55,.45-1,1-1h6.9c.55,0,1,.45,1,1s-.45,1-1,1h-5.9v4.21h4.52Zm15.09,7.21c0,.44-.29,.83-.71,.96-.1,.03-.19,.04-.29,.04-.33,0-.64-.16-.83-.45l-6.44-9.67v9.11c0,.55-.45,1-1,1s-1-.45-1-1v-12.41c0-.44,.29-.83,.71-.96,.42-.13,.88,.04,1.12,.4l6.44,9.67v-9.11c0-.55,.45-1,1-1s1,.45,1,1v12.41Zm11.49-11.41h-3.14v11.41c0,.55-.45,1-1,1s-1-.45-1-1v-11.41h-3.14c-.55,0-1-.45-1-1s.45-1,1-1h8.28c.55,0,1,.45,1,1s-.45,1-1,1Z"/></svg>