<?xml version="1.0" encoding="UTF-8"?><svg id="Glyph" xmlns="http://www.w3.org/2000/svg" viewBox="0 0 64 64"><path d="M35.93,34.88c.47-.29,.62-.9,.34-1.37-.29-.47-.9-.62-1.37-.34-1.82,1.1-3.96,1.1-5.78,0-.47-.29-1.09-.14-1.37,.34-.29,.47-.13,1.09,.34,1.37,1.23,.74,2.55,1.12,3.93,1.12s2.7-.38,3.93-1.12Z"/><path d="M27.46,54.42l-5.79-10.19c-5.51,1.09-9.66,5.94-9.66,11.77v4h12.76l2.86-5.72-.17,.14Z"/><polygon points="32 56.83 29.72 54.55 27 60 37 60 34.28 54.55 32 56.83"/><polygon points="33.84 52.16 32 50.61 30.16 52.16 32 54 33.84 52.16"/><path d="M47,33c-.68,0-1.34,.06-1.99,.16,.44-1.11,.75-2.27,.89-3.48l.94-.16c1.83-.3,3.17-1.89,3.17-3.74s-1.29-3.34-3-3.7v-3.09c0-8.28-6.72-15-15-15s-15,6.72-15,15v3.09c-1.71,.36-3,1.88-3,3.7s1.34,3.43,3.17,3.74l.98,.16c.73,5.22,4.17,9.55,8.85,11.37v1.59l-3.17,1.35,4.18,7.35,3.99-3.35,1.16,.97c.51,3.56,2.34,6.7,5,8.87l1.08,2.16h2.59c1.6,.64,3.34,1,5.17,1,7.72,0,14-6.28,14-14s-6.28-14-14-14Zm-27-5.37v-5.63c0-.55,.45-1,1-1h6.17c1.78,0,3.46-.59,4.83-1.66,1.37,1.07,3.05,1.66,4.83,1.66h6.17c.55,0,1,.45,1,1v6c0,2.04-.51,4-1.46,5.74-3.08,1.04-5.68,3.12-7.38,5.83-1.2,.33-2.45,.48-3.73,.42-6.4-.3-11.42-5.73-11.42-12.36Zm27,31.37c-6.62,0-12-5.38-12-12s5.38-12,12-12,12,5.38,12,12-5.38,12-12,12Z"/><path d="M46.25,40.62c-1.45,1.45-1.82,3.56-1.12,5.36l-4.38,4.38-.06,2.89,2.89-.06,4.38-4.38c1.79,.7,3.91,.33,5.36-1.12,1.95-1.95,1.95-5.12,0-7.07-1.95-1.95-5.12-1.95-7.07,0Zm4.95,4.95h0c-.38,.38-.88,.59-1.41,.59s-1.04-.21-1.42-.59c-.78-.78-.78-2.05,0-2.83,.75-.75,2.07-.76,2.83,0,.78,.78,.78,2.05,0,2.83Z"/></svg>