<?xml version="1.0" encoding="UTF-8"?><svg id="Glyph" xmlns="http://www.w3.org/2000/svg" viewBox="0 0 64 64"><path d="M34.71,43.84c.47-.29,.62-.9,.34-1.37-.29-.47-.9-.62-1.37-.34-1.06,.64-2.29,.64-3.35,0-.47-.29-1.09-.14-1.37,.34-.29,.47-.13,1.09,.34,1.37,.85,.51,1.76,.77,2.71,.77s1.86-.26,2.71-.77Z"/><path d="M35.21,48.85v-.63c1.19-.44,2.3-1.11,3.24-2.01,1.61-1.53,2.59-3.53,2.83-5.69l.57-.09c1.17-.2,2.04-1.21,2.04-2.4,0-1.28-.99-2.32-2.25-2.42v-1.95c0-5.33-4.32-9.64-9.64-9.64s-9.64,4.32-9.64,9.64v1.95c-1.26,.1-2.25,1.14-2.25,2.42,0,1.19,.86,2.21,2.04,2.4l.6,.1c.47,3.56,2.83,6.5,6.05,7.7v.64l-2.8,.87,2.8,5,3.21-2.43,3.21,2.43,2.8-5-2.8-.87Zm-10.57-9.65v-3.62c0-.16,.13-.29,.29-.29h3.97c1.13,0,2.2-.34,3.1-.98,.9,.64,1.98,.98,3.1,.98h3.97c.16,0,.29,.13,.29,.29v3.86c0,2.03-.81,3.92-2.28,5.32-1.47,1.4-3.39,2.13-5.43,2.02-3.93-.18-7-3.52-7-7.58Z"/><path d="M19.14,57.43v2.57h7.59l.81-3.42-3.54-6.31c-2.84,1.14-4.86,3.91-4.86,7.16Z"/><path d="M40,50.27l-3.54,6.31,.81,3.42h7.59v-2.57c0-3.25-2.01-6.03-4.86-7.16Z"/><polygon points="32 54.79 29.58 56.62 28.79 60 35.21 60 34.42 56.62 32 54.79"/><path d="M10,27.5V60h7.14v-2.57c0-4.55,3.12-8.41,7.44-9.44-1.71-1.51-2.96-3.52-3.55-5.81-1.73-.62-2.92-2.27-2.92-4.17,0-1.63,.9-3.08,2.25-3.84v-.52c0-6.42,5.22-11.64,11.64-11.64s11.64,5.22,11.64,11.64v.52c1.35,.77,2.25,2.22,2.25,3.84,0,1.88-1.16,3.51-2.87,4.15-.51,2.09-1.59,3.97-3.19,5.49-.12,.12-.25,.23-.38,.35,4.29,1.04,7.4,4.9,7.4,9.43v2.57h7.14V27.5L32,11,10,27.5Z"/><path d="M33.2,4.4c-.71-.53-1.69-.53-2.4,0L5.47,23.4l2.4,3.2L32,8.5l24.13,18.1,2.4-3.2L33.2,4.4Z"/></svg>