<?xml version="1.0" encoding="UTF-8"?><svg id="Glyph" xmlns="http://www.w3.org/2000/svg" viewBox="0 0 64 64"><polygon points="18 23.06 14 23.06 14 28 10 28 10 23.06 6 23.06 6 33 18 33 18 23.06"/><polygon points="28 28 24 28 24 23.06 20 23.06 20 33 32 33 32 23.06 28 23.06 28 28"/><polygon points="25 12 21 12 21 17 17 17 17 12 13 12 13 21 25 21 25 12"/><path d="M4,45.06H14.21c-1.48,.2-2.79,.93-3.72,2H4v4h5c.03,3.28,2.71,5.94,6,5.94s5.96-2.66,6-5.94h11v-4h-12.49c-.94-1.07-2.24-1.8-3.72-2h16.21v-10H4v10Zm15,5.94c0,2.21-1.79,4-4,4s-4-1.79-4-4,1.79-4,4-4,4,1.79,4,4Z"/><circle cx="15" cy="51" r="2"/><circle cx="49" cy="51" r="2"/><path d="M60,41.06v-1.35c0-.82-.5-1.56-1.26-1.86l-6.63-2.63-5.38-11.04c-.33-.69-1.03-1.12-1.8-1.12h-10.93v28h9c.03,3.28,2.71,5.94,6,5.94s5.97-2.66,6-5.94h4c.55,0,1-.45,1-1v-5h-4v-4h4Zm-22-16h6.93l4.95,10.17h-11.88v-10.17Zm0,14.17c0-.55,.45-1,1-1h4c.55,0,1,.45,1,1s-.45,1-1,1h-4c-.55,0-1-.45-1-1Zm11,15.77c-2.21,0-4-1.79-4-4s1.79-4,4-4,4,1.79,4,4-1.79,4-4,4Z"/></svg>