<?xml version="1.0" encoding="UTF-8"?><svg id="Glyph" xmlns="http://www.w3.org/2000/svg" viewBox="0 0 64 64"><polygon points="52 4 52 12 60 12 52 4"/><path d="M50,4H18c-1.1,0-2,.9-2,2V31.89l13.28,13.28c.61,.61,1.01,1.41,1.13,2.26l.99,6.93-6.93-.99c-.85-.12-1.66-.52-2.26-1.13l-6.21-6.21v11.97c0,1.1,.9,2,2,2H58c1.1,0,2-.9,2-2V14h-10V4Zm-22,31.58v-11.08l10-7.5,10,7.5v11.08h-7v-10h-6v10h-7Zm24.9,13.9c.24,.5,.03,1.1-.46,1.34-.12,.06-.29,.19-.45,.32-.5,.39-1.27,.97-2.2,.64-.61-.21-.83-.7-.91-1.17-.46,.9-1.05,1.92-2.14,1.84-1.46-.11-1.45-1.81-1.44-2.94,0-.17,0-.39,0-.62-.4,.68-.87,1.62-1.17,2.23-.32,.65-.62,1.27-.89,1.73-.27,.48-.87,.65-1.35,.38-.48-.27-.65-.87-.4-1.35,.85-1.57,.93-4.52,.17-6.07-.16-.33-.44-.75-.82-.81-.6-.11-1.57,2.65-2.09,4.13-.66,1.86-1.41,3.98-2.49,5.46-.2,.27-.5,.41-.81,.41-.2,0-.41-.06-.59-.19-.45-.32-.55-.95-.22-1.4,.9-1.24,1.57-3.13,2.22-4.95,1.06-2.99,2.06-5.81,4.32-5.43,.67,.12,1.62,.54,2.28,1.91,.3,.62,.51,1.37,.62,2.17,.41-.54,.82-.86,1.29-.95,.42-.08,.85,.04,1.18,.33,.71,.64,.75,1.72,.74,2.8,.46-.9,1.1-1.95,2.27-1.65,1.05,.27,1.24,1.21,1.27,1.86,.22-.17,.46-.35,.74-.48,.49-.24,1.1-.03,1.34,.46Zm-.89-29.47l-2.4,3.2-11.61-8.71-11.61,8.71-2.4-3.2,12.81-9.61c.71-.53,1.69-.53,2.4,0l12.81,9.61Z"/><path d="M24.75,51.39l4.29,.61-.61-4.29c-.06-.43-.26-.83-.57-1.13l-.23-.24-4.24,4.25,.23,.23c.31,.31,.7,.51,1.13,.57Z"/><path d="M5.71,37.15c-.39-.39-.39-1.02,0-1.41l1.41-1.41s0,0,0,0l.71,.71,4.24-4.24-3.54-3.54c-.39-.39-1.02-.39-1.41,0l-2.83,2.83c-.39,.39-.39,1.02,0,1.41l1.41,1.41s0,0,0,0l-1.41,1.41c-1.17,1.17-1.17,3.07,0,4.24l5.66,5.66c.2,.2,.45,.29,.71,.29s.51-.1,.71-.29c.39-.39,.39-1.02,0-1.41l-5.66-5.66Z"/><rect x="14.73" y="31.69" width="6" height="18" transform="translate(-23.58 24.45) rotate(-45)"/></svg>