<?xml version="1.0" encoding="UTF-8"?><svg id="Line" xmlns="http://www.w3.org/2000/svg" viewBox="0 0 64 64"><defs><style>.cls-1{stroke-width:0px;}</style></defs><path class="cls-1" d="m52.14,20.44c-13.3-1.91-26.96-1.91-40.28,0-.49.07-.86.49-.86.99v17.69c0,.43.28.81.68.95l11.2,3.73c.1.03.21.05.32.05.19,0,.38-.06.55-.16.26-.17.42-.44.45-.75l.17-1.92c.35-4,3.63-7.01,7.64-7.01,1.94,0,3.77.71,5.16,2.01,1.42,1.29,2.3,3.07,2.48,5.01l.17,1.92c.03.31.19.58.45.75.26.17.58.21.87.11l11.2-3.73c.41-.14.68-.52.68-.95v-17.69c0-.5-.37-.92-.86-.99Zm-1.14,17.96l-9.31,3.1-.06-.66c-.22-2.45-1.33-4.69-3.12-6.31-1.76-1.63-4.07-2.53-6.51-2.53-5.05,0-9.19,3.8-9.63,8.84l-.06.66-9.31-3.1v-16.1c12.58-1.72,25.44-1.72,38,0v16.1Zm8-17.4h-2v-2.15c0-.99-.71-1.82-1.69-1.98-15.37-2.49-31.26-2.49-46.64,0-.97.16-1.67.99-1.67,1.98v2.15h-2c-1.1,0-2,.9-2,2v14c0,1.1.9,2,2,2h2v2.28c0,.86.55,1.62,1.37,1.9l14.45,4.82c1.17.39,2.43.23,3.46-.45,1.03-.68,1.68-1.77,1.79-3l.27-3.19c.17-1.91,1.74-3.36,3.65-3.36.92,0,1.8.34,2.48.97.67.61,1.09,1.46,1.17,2.38l.27,3.19c.11,1.23.76,2.32,1.79,3,.66.44,1.42.66,2.19.66.43,0,.85-.07,1.27-.21l14.45-4.82c.82-.27,1.37-1.04,1.37-1.9v-2.28h2c1.1,0,2-.9,2-2v-14c0-1.1-.9-2-2-2ZM5,37v-14h2v14h-2Zm50,4.28l-14.45,4.82c-.58.19-1.22.11-1.73-.23-.52-.34-.84-.89-.89-1.5l-.27-3.19c-.13-1.43-.78-2.74-1.82-3.68-1.04-.97-2.4-1.5-3.83-1.5-2.96,0-5.39,2.23-5.65,5.18l-.27,3.19c-.05.61-.38,1.16-.89,1.5-.52.34-1.15.42-1.73.23l-14.45-4.82v-3.27s0,0,0,0v-16s0-.02,0-.03v-3.12c15.17-2.45,30.84-2.46,46.01,0v22.42Zm2-4.28v-14h2v14s-2,0-2,0Z"/></svg>