<?xml version="1.0" encoding="UTF-8"?><svg id="Line" xmlns="http://www.w3.org/2000/svg" viewBox="0 0 64 64"><defs><style>.cls-1{stroke-width:0px;}</style></defs><path class="cls-1" d="m59.58,7.03l-19.8,2.85-.14-.99c-.08-.53-.35-1-.78-1.32-.43-.32-.95-.45-1.48-.38l-11.88,1.71c-1.09.16-1.85,1.17-1.69,2.26l.14.98-19.8,2.85c-.55.08-.93.59-.85,1.13.07.5.5.86.99.86.05,0,.1,0,.14-.01l19.8-2.85.14.99c.08.53.35,1,.78,1.32.35.26.77.4,1.19.4.1,0,.19,0,.29-.02l2.37-.34v4.53h-2c-1.1,0-2,.9-2,2v2h-12.94c-1.28,0-2.39,1-2.65,2.38-.94,5.12-1.42,10.38-1.42,15.62s.48,10.48,1.42,15.6c.25,1.39,1.37,2.4,2.65,2.4h39.87c1.28,0,2.39-1,2.65-2.38.94-5.12,1.42-10.38,1.42-15.62s-.48-10.48-1.42-15.6c-.25-1.39-1.37-2.4-2.65-2.4h-12.93v-2c0-1.1-.9-2-2-2h-2v-5.39l3.51-.5h0c1.09-.16,1.85-1.17,1.69-2.26l-.14-.98,19.8-2.85c.55-.08.93-.59.85-1.13-.08-.55-.58-.93-1.13-.85ZM10,43c0-3.68.25-7.36.73-11h6.27v14h-6.93c-.04-1-.07-2-.07-3Zm29,2.7h-14v-13.7h14v13.7Zm-14,13.3v-11.3h14v11.3h-14Zm29-16c0,1-.03,2-.07,3h-6.93v-14h6.27c.48,3.64.73,7.32.73,11Zm-1.38-15.24c.14.74.24,1.49.36,2.24h-6.98c-.55,0-1,.45-1,1v16c0,.55.45,1,1,1h7.83c-.2,3.45-.6,6.88-1.22,10.26-.08.42-.37.74-.68.74h-10.94v-28c0-.55-.45-1-1-1h-16c-.55,0-1,.45-1,1v28h-10.93c-.32,0-.6-.32-.68-.76-.62-3.37-1.01-6.8-1.22-10.24h7.83c.55,0,1-.45,1-1v-16c0-.55-.45-1-1-1h-6.98c.12-.75.22-1.51.36-2.26.08-.42.37-.74.68-.74h39.87c.32,0,.6.32.68.76Zm-15.62-2.76h-10v-2h10v2Zm-4-4h-2v-4.82l2-.29v5.1Zm-6.65-6.17l-.57-3.96,11.88-1.71.57,3.96-11.88,1.71Zm4.65,36.17c0,.55-.45,1-1,1h-2c-.55,0-1-.45-1-1s.45-1,1-1h2c.55,0,1,.45,1,1Z"/></svg>