<?xml version="1.0" encoding="UTF-8"?><svg id="Line" xmlns="http://www.w3.org/2000/svg" viewBox="0 0 64 64"><defs><style>.cls-1{stroke-width:0px;}</style></defs><path class="cls-1" d="m57.48,41.28c-.14-.53-.69-.85-1.22-.71l-5.06,1.36-2.75-1.59,1.77-.47c.53-.14.85-.69.71-1.22-.14-.53-.69-.85-1.22-.71l-3.7.99-4.62-2.67,10.16-3.3c.41-.13.69-.52.69-.95s-.28-.82-.69-.95l-10.16-3.31,4.62-2.67,3.7.99c.09.02.17.03.26.03.44,0,.84-.29.96-.74.14-.53-.17-1.08-.71-1.22l-1.77-.47,2.75-1.59,5.06,1.36c.09.02.17.03.26.03.44,0,.85-.29.96-.74.14-.53-.17-1.08-.71-1.22l-3.13-.84,3.11-1.79c.48-.28.64-.89.37-1.37-.28-.48-.89-.64-1.37-.37l-3.11,1.79.84-3.13c.14-.53-.17-1.08-.71-1.22-.53-.14-1.08.17-1.22.71l-1.36,5.06-2.75,1.59.47-1.77c.14-.53-.17-1.08-.71-1.22-.53-.14-1.08.17-1.22.71l-.99,3.7-4.62,2.67,2.22-10.45c.09-.42-.1-.86-.48-1.07-.37-.22-.85-.17-1.17.12l-7.95,7.14v-5.34l2.71-2.71c.39-.39.39-1.02,0-1.41s-1.02-.39-1.41,0l-1.29,1.29v-3.17l3.71-3.71c.39-.39.39-1.02,0-1.41s-1.02-.39-1.41,0l-2.29,2.29v-3.59c0-.55-.45-1-1-1s-1,.45-1,1v3.59l-2.29-2.29c-.39-.39-1.02-.39-1.41,0s-.39,1.02,0,1.41l3.71,3.71v3.17l-1.29-1.29c-.39-.39-1.02-.39-1.41,0s-.39,1.02,0,1.41l2.71,2.71v5.34l-7.94-7.15c-.32-.29-.79-.34-1.17-.12-.38.22-.57.65-.48,1.07l2.21,10.45-4.62-2.67-.99-3.7c-.14-.53-.69-.85-1.22-.71-.53.14-.85.69-.71,1.22l.47,1.77-2.75-1.59-1.36-5.06c-.14-.53-.69-.85-1.22-.71-.53.14-.85.69-.71,1.22l.84,3.13-3.11-1.79c-.48-.28-1.09-.11-1.37.37-.28.48-.11,1.09.37,1.37l3.11,1.79-3.13.84c-.53.14-.85.69-.71,1.22.12.45.52.74.97.74.09,0,.17-.01.26-.03l5.06-1.36,2.75,1.59-1.77.47c-.53.14-.85.69-.71,1.22.12.45.52.74.97.74.09,0,.17-.01.26-.03l3.7-.99,4.62,2.67-10.16,3.3c-.41.13-.69.52-.69.95s.28.82.69.95l10.16,3.31-4.62,2.67-3.7-.99c-.53-.15-1.08.17-1.22.71s.17,1.08.71,1.22l1.77.47-2.75,1.59-5.06-1.36c-.54-.15-1.08.17-1.22.71-.14.53.17,1.08.71,1.22l3.13.84-3.11,1.79c-.48.28-.64.89-.37,1.37.19.32.52.5.87.5.17,0,.34-.04.5-.13l3.11-1.79-.84,3.13c-.14.53.17,1.08.71,1.22.09.02.17.03.26.03.44,0,.85-.29.97-.74l1.36-5.06,2.75-1.59-.47,1.77c-.14.53.17,1.08.71,1.22.09.02.17.03.26.03.44,0,.85-.29.97-.74l.99-3.7,4.63-2.67-2.22,10.45c-.09.42.1.86.48,1.07.16.09.33.13.5.13.24,0,.48-.09.67-.26l7.95-7.14v5.34l-2.71,2.71c-.39.39-.39,1.02,0,1.41s1.02.39,1.41,0l1.29-1.29v3.17l-3.71,3.71c-.39.39-.39,1.02,0,1.41s1.02.39,1.41,0l2.29-2.29v3.59c0,.55.45,1,1,1s1-.45,1-1v-3.59l2.29,2.29c.2.2.45.29.71.29s.51-.1.71-.29c.39-.39.39-1.02,0-1.41l-3.71-3.71v-3.17l1.29,1.29c.2.2.45.29.71.29s.51-.1.71-.29c.39-.39.39-1.02,0-1.41l-2.71-2.71v-5.34l7.94,7.15c.19.17.43.26.67.26.17,0,.34-.04.5-.13.38-.22.57-.65.48-1.07l-2.22-10.45,4.62,2.67.99,3.7c.12.45.52.74.96.74.09,0,.17-.01.26-.03.53-.14.85-.69.71-1.22l-.47-1.77,2.75,1.59,1.36,5.06c.12.45.52.74.96.74.09,0,.17-.01.26-.03.53-.14.85-.69.71-1.22l-.84-3.13,3.11,1.79c.16.09.33.13.5.13.35,0,.68-.18.87-.5.28-.48.11-1.09-.37-1.37l-3.11-1.79,3.13-.84c.53-.14.85-.69.71-1.22Zm-9.49-9.28l-8.95,2.91-2.58-1.49v-2.84l2.58-1.49,8.95,2.91Zm-8-13.85l-1.96,9.21-2.58,1.49-2.46-1.42v-2.98l7-6.29Zm-8,16.69l-2.46-1.42v-2.85l2.46-1.42,2.46,1.42v2.85l-2.46,1.42Zm-7.99-16.7l6.99,6.3v2.98l-2.46,1.42-2.58-1.49-1.95-9.21Zm-8,13.85l8.95-2.91,2.58,1.49v2.84l-2.58,1.49-8.95-2.91Zm7.99,13.85l1.95-9.21,2.58-1.49,2.46,1.42v2.98l-7,6.29Zm15.99,0l-7-6.3v-2.98l2.46-1.42,2.58,1.49,1.95,9.21Z"/></svg>