<?xml version="1.0" encoding="UTF-8"?><svg id="Line" xmlns="http://www.w3.org/2000/svg" viewBox="0 0 64 64"><defs><style>.cls-1{stroke-width:0px;}</style></defs><path class="cls-1" d="m53.57,35.45c1.16.24,2.28.34,3.31.34,1.24,0,2.37-.14,3.31-.32.39-.08.69-.37.78-.75.09-.38-.05-.78-.37-1.02-2.87-2.19-5.51-4.95-7.69-8.03.82.13,1.6.19,2.34.19,1.06,0,2.01-.11,2.81-.26.39-.07.71-.37.79-.76.09-.39-.06-.8-.39-1.03-2.77-2.01-5.18-4.47-7.14-7.32-1.77-2.57-3.15-5.39-4.08-8.38-.13-.42-.52-.7-.95-.7h0c-.44,0-.82.28-.95.7-.95,3.01-2.33,5.83-4.09,8.38-.19.27-.38.54-.59.82-.99-1.12-1.94-2.28-2.8-3.52-2.13-3.08-3.78-6.47-4.92-10.08-.13-.42-.52-.7-.95-.7s-.82.28-.95.7c-1.13,3.6-2.79,7-4.92,10.08-.86,1.24-1.81,2.4-2.8,3.52-.21-.28-.4-.55-.59-.82-1.76-2.55-3.14-5.37-4.09-8.38-.13-.42-.52-.7-.95-.7-.48-.02-.83.29-.96.7-.93,2.99-2.3,5.81-4.08,8.38-1.97,2.85-4.37,5.31-7.14,7.32-.32.23-.48.64-.39,1.03.09.39.4.69.79.76.8.15,1.76.26,2.81.26.74,0,1.52-.06,2.34-.19-2.18,3.08-4.82,5.84-7.69,8.03-.31.24-.46.64-.37,1.02.09.38.4.68.78.75.95.18,2.07.32,3.32.32,1.03,0,2.15-.1,3.31-.34-2.05,2.73-4.45,5.18-7.04,7.15-.31.24-.46.64-.37,1.02.09.38.4.68.78.75,2.05.4,6.03.74,10.15-1.22v12.03c0,.55.45,1,1,1h5.49c.55,0,1-.45,1-1v-8.06c1.97-.22,4.1-.76,6.27-1.83v14.71c0,.55.45,1,1,1h6.56c.55,0,1-.45,1-1v-14.71c2.17,1.07,4.3,1.62,6.27,1.83v8.06c0,.55.45,1,1,1h5.49c.55,0,1-.45,1-1v-12.03c4.13,1.97,8.11,1.62,10.15,1.22.39-.08.69-.37.78-.75.09-.38-.05-.78-.37-1.02-2.58-1.97-4.97-4.4-7.04-7.15Zm-3.12-9.86c2,3.06,4.43,5.85,7.11,8.19-2.05.09-4.53-.22-7.06-1.53-.31-.16-.61-.31-.87-.48-.47-.29-1.08-.15-1.37.32l-.73,1.15c-2.26-1.9-4.34-4.05-6.21-6.42.27-.38.55-.79.84-1.24.2-.31.39-.6.58-.9,0,0,.01,0,.02,0,1.24,0,2.36-.13,3.31-.3.39-.07.71-.37.8-.76.04-.19.03-.38-.04-.56.7.52,1.43.99,2.2,1.36.32.16.63.29.95.42.16.24.31.49.48.74Zm-13.52,7.13c-.37-.19-.73-.38-1.07-.59-.47-.29-1.08-.14-1.37.32l-2.3,3.65c-.13.21-.26.21-.39,0l-2.3-3.65c-.29-.46-.9-.61-1.37-.32-.34.21-.69.4-1.08.6-3.25,1.68-6.45,2-9.02,1.82,3.36-2.87,6.32-6.25,8.83-10.09.2-.32.4-.63.59-.94.4-.15.79-.31,1.19-.51,1.19-.58,2.31-1.3,3.35-2.16,1.04.86,2.16,1.58,3.35,2.16.4.2.8.36,1.2.52.19.31.38.61.59.93,2.5,3.83,5.46,7.22,8.83,10.08-2.57.18-5.77-.14-9.03-1.83Zm-12.96-7.57c-.14-.2-.27-.4-.42-.62.32-.04.63-.09.96-.15-.18.26-.36.52-.54.78Zm15.53-.77c.32.06.64.11.95.15-.14.22-.28.42-.41.62-.18-.25-.36-.51-.54-.77Zm6.8-13.03c.9,2.21,2.03,4.31,3.39,6.27,1.61,2.33,3.49,4.42,5.62,6.23-1.64-.03-3.49-.28-5.41-1.22-1.06-.51-2.04-1.18-2.92-2-.38-.35-.97-.35-1.35,0-.26.24-.53.46-.8.67-.97-.79-1.9-1.62-2.78-2.5.3-.4.59-.79.85-1.17,1.35-1.95,2.49-4.05,3.39-6.27Zm-18.52,3.57c1.7-2.47,3.12-5.12,4.22-7.92,1.1,2.8,2.52,5.45,4.22,7.92,2.01,2.91,4.39,5.51,7.09,7.76-2.06.07-4.56-.23-7.09-1.46-1.28-.62-2.47-1.44-3.55-2.42-.19-.18-.43-.26-.68-.26s-.49.09-.68.26c-1.08.99-2.27,1.8-3.55,2.42-2.53,1.23-5.03,1.53-7.09,1.46,2.7-2.24,5.08-4.85,7.09-7.76Zm-19.09,8.94c2.13-1.82,4.01-3.9,5.62-6.23,1.36-1.96,2.49-4.06,3.39-6.27.91,2.22,2.04,4.32,3.39,6.27.26.38.55.77.85,1.17-.88.89-1.81,1.71-2.78,2.5-.27-.21-.53-.43-.8-.67-.38-.35-.97-.34-1.35,0-.88.81-1.86,1.48-2.92,2-1.92.94-3.82,1.21-5.41,1.22Zm-2.24,9.93c2.68-2.34,5.11-5.13,7.11-8.19.16-.25.32-.49.47-.74.31-.13.63-.26.94-.42.78-.38,1.51-.85,2.21-1.36-.06.18-.08.37-.04.56.09.39.4.69.8.76.95.17,2.08.29,3.33.29.19.3.38.6.58.9.29.45.57.85.84,1.24-1.87,2.37-3.95,4.52-6.21,6.42l-.73-1.15c-.29-.46-.91-.61-1.37-.32-.27.16-.56.32-.88.48-2.53,1.31-5.01,1.62-7.05,1.53Zm0,8.9c2.67-2.33,5.1-5.13,7.1-8.18,0,0,.04-.07.05-.08.27-.12.53-.24.8-.38.05-.03.11-.05.16-.08l.35.56c-.26.24-.38.6-.29.95.09.38.4.68.79.75,2.17.42,5.13.62,8.37-.15-1.96,2.67-4.16,5.09-6.59,7.21l-1.44-2.28c-.29-.46-.91-.61-1.37-.32-.27.17-.56.32-.88.48-2.57,1.33-5.09,1.6-7.04,1.52Zm9.5,11.51v-7.22c1.03.17,2.21.28,3.49.28v6.95h-3.49Zm13.76,4.81v-11.8l.39.62c.42.67,1.12,1.07,1.89,1.07s1.47-.4,1.89-1.07l.39-.62v11.8h-4.56Zm6.14-16.2s-.07-.02-.1-.04c0,0,0,0,0,0-.39-.18-.84-.09-1.13.22-.04.04-.09.08-.12.13,0,0,0,0,0,.01l-2.3,3.64c-.11.17-.28.17-.39,0l-2.3-3.64s0,0-.01-.01c-.04-.05-.08-.09-.12-.13-.28-.3-.7-.39-1.09-.23-.05.01-.09.03-.13.05,0,0-.01,0-.02,0-.34.21-.7.4-1.08.59-3.25,1.68-6.45,1.99-9.02,1.81,3.36-2.87,6.32-6.24,8.81-10.05.04-.05.07-.11.1-.16.34-.15.67-.31,1.01-.48.12-.06.24-.12.36-.18l1.79,2.84c.42.66,1.12,1.06,1.88,1.06s1.47-.4,1.89-1.06l1.79-2.84c.11.06.23.12.34.18.34.18.68.34,1.02.49.03.05.06.1.09.14,2.5,3.83,5.47,7.21,8.83,10.07-2.56.18-5.76-.13-9.01-1.81-.38-.2-.74-.39-1.08-.6Zm8.69,11.39v-6.95c1.28,0,2.46-.11,3.49-.28v7.22h-3.49Zm5.94-13.03c-.31-.16-.6-.31-.87-.48-.47-.29-1.08-.15-1.37.32l-1.43,2.28c-2.42-2.13-4.63-4.54-6.59-7.22,3.24.78,6.2.57,8.37.15.39-.07.69-.37.79-.75.08-.35-.04-.71-.29-.95l.35-.56s.1.05.15.07c.27.14.54.27.81.39,0,.01.05.08.05.08,2,3.05,4.42,5.85,7.1,8.18-1.95.08-4.48-.2-7.05-1.53Z"/></svg>