<?xml version="1.0" encoding="UTF-8"?><svg id="Line" xmlns="http://www.w3.org/2000/svg" viewBox="0 0 64 64"><defs><style>.cls-1{stroke-width:0px;}</style></defs><path class="cls-1" d="m58.97,48.18c.21-5.26-.44-17.76-5.63-25.16-2.94-4.2-6.84-7.62-11.59-10.16-.86-.46-1.75-.85-2.65-1.18.08-.2.13-.43.13-.68,0-.6-.3-1.07-.51-1.42-.07-.11-.17-.27-.19-.34-.02-.07-.01-.27,0-.42.01-.4.03-.94-.26-1.44-.3-.52-.79-.78-1.15-.96-.12-.06-.3-.15-.34-.2s-.14-.23-.2-.34c-.19-.36-.44-.85-.96-1.15-.51-.29-1.06-.27-1.46-.26-.15,0-.34.01-.39,0-.06-.02-.23-.12-.34-.19-.35-.22-.82-.52-1.43-.52s-1.07.3-1.42.51c-.11.07-.27.17-.34.19-.07.02-.27.01-.42,0-.4-.01-.94-.03-1.44.26-.52.3-.78.79-.96,1.15-.06.12-.15.3-.2.34s-.23.14-.34.2c-.36.19-.85.44-1.15.96-.29.51-.27,1.06-.26,1.46,0,.15.01.34,0,.39-.02.06-.12.23-.19.34-.22.35-.52.82-.52,1.43,0,.25.06.47.13.68-.9.33-1.79.72-2.65,1.18-4.75,2.54-8.65,5.96-11.59,10.16-5.19,7.41-5.83,19.9-5.63,25.16-1.17.41-2.03,1.51-2.03,2.82v6c0,1.65,1.35,3,3,3h52c1.65,0,3-1.35,3-3v-6c0-1.31-.85-2.42-2.03-2.82Zm-7.27-24.01c5.28,7.53,5.35,20.3,5.26,23.84h-6.98c.12-5.31-.32-17.55-3.66-24.83-1.61-3.51-3.67-6.47-6.12-8.85.2.1.4.19.6.3,4.47,2.39,8.14,5.6,10.9,9.54Zm-10.72,23.84c.06-5.26-.15-17.42-1.7-24.62-.88-4.07-2.04-7.41-3.47-9.94.55.3,1.09.65,1.61,1.08,2.9,2.37,5.28,5.57,7.08,9.49,3.19,6.97,3.6,18.87,3.47,23.99h-6.99Zm-7.99,0V12.92c.33.31.67.75.99,1.31,1.37,2.38,2.49,5.6,3.35,9.56,1.52,7.03,1.71,19.03,1.66,24.2h-5.99Zm-7.99,0c-.06-5.17.14-17.16,1.65-24.2.86-3.97,1.98-7.19,3.35-9.56.32-.56.66-1,.99-1.31v35.08h-5.99Zm-8.99,0c-.12-5.12.28-17.03,3.47-23.99,1.8-3.93,4.18-7.12,7.08-9.49.52-.43,1.06-.78,1.61-1.08-1.42,2.54-2.59,5.88-3.47,9.94-1.55,7.2-1.76,19.36-1.7,24.62h-6.99ZM26.76,11.03c.02-.07.13-.25.21-.37.16-.25.33-.52.44-.9.09-.36.08-.69.07-.99,0-.14-.01-.35-.03-.36.05-.05.23-.14.35-.2.26-.13.57-.3.84-.56s.43-.58.56-.84c.06-.12.16-.3.15-.32.07-.02.28-.01.41,0,.29,0,.65.02,1.01-.08.35-.09.64-.27.89-.43.12-.08.3-.19.32-.21.07.02.25.13.37.21.25.16.52.33.9.44.36.09.69.08.99.07.14,0,.35-.01.36-.03.05.05.14.23.2.35.13.26.3.57.56.84s.58.43.84.56c.12.06.3.14.32.15.02.07.01.27,0,.41,0,.29-.02.65.08,1.01.09.35.27.64.43.89.08.12.19.3.21.32,0,.02-.03.07-.05.1-3.41-.89-6.99-.89-10.39,0-.02-.03-.03-.05-.04-.05Zm-14.47,13.14c2.76-3.94,6.43-7.15,10.9-9.54.2-.11.4-.2.6-.3-2.46,2.38-4.51,5.34-6.12,8.85-3.33,7.28-3.78,19.52-3.66,24.83h-6.98c-.09-3.54-.02-16.31,5.26-23.84Zm46.71,32.84c0,.55-.45,1-1,1H6c-.55,0-1-.45-1-1v-6c0-.55.45-1,1-1h4v4c0,.55.45,1,1,1s1-.45,1-1v-4h4v4c0,.55.45,1,1,1s1-.45,1-1v-4h4v4c0,.55.45,1,1,1s1-.45,1-1v-4h4v4c0,.55.45,1,1,1s1-.45,1-1v-4h4v4c0,.55.45,1,1,1s1-.45,1-1v-4h4v4c0,.55.45,1,1,1s1-.45,1-1v-4h4v4c0,.55.45,1,1,1s1-.45,1-1v-4h4v4c0,.55.45,1,1,1s1-.45,1-1v-4h4c.55,0,1,.45,1,1v6Z"/></svg>