<?xml version="1.0" encoding="UTF-8"?><svg id="Line" xmlns="http://www.w3.org/2000/svg" viewBox="0 0 64 64"><defs><style>.cls-1{stroke-width:0px;}</style></defs><path class="cls-1" d="m49,20h-1.25l-1.15-3.91c-.37-1.25-1.43-2.09-2.63-2.09h-23.93c-1.21,0-2.27.84-2.63,2.09l-1.15,3.91h-1.25c-1.1,0-2,.9-2,2v4c0,1.1.9,2,2,2h1.08l2.59,30.25c.13,1.57,1.36,2.75,2.86,2.75h20.93c1.51,0,2.74-1.18,2.86-2.74l2.59-30.26h1.08c1.1,0,2-.9,2-2v-4c0-1.1-.9-2-2-2Zm-29.68-3.35c.11-.39.4-.65.71-.65h23.93c.31,0,.6.26.71.65l.99,3.35h-27.33l.99-3.35Zm24.88,31.35h-24.4l-1.03-12h26.45l-1.03,12Zm-1.73,11h-20.93c-.45,0-.83-.4-.87-.91l-.69-8.09h24.06l-.69,8.09c-.04.51-.42.91-.87.91Zm2.93-25h-26.8l-.51-6h27.82l-.51,6Zm-30.4-8v-4h34v4s-34,0-34,0Zm7.41-19.57c-.14-.62-.03-1.26.31-1.8l.74-1.17c.3-.47.91-.6,1.38-.31.47.3.6.91.31,1.38l-.74,1.17c-.07.12-.06.23-.05.29.01.06.05.17.17.24,1.11.71,1.44,2.18.74,3.29l-.74,1.17c-.19.3-.51.46-.85.46-.18,0-.37-.05-.54-.16-.47-.3-.6-.91-.31-1.38l.74-1.17c.11-.18.06-.42-.12-.53-.54-.34-.91-.87-1.05-1.49Zm8,0c-.14-.62-.03-1.26.31-1.8l.74-1.17c.3-.47.91-.6,1.38-.31.47.3.6.91.31,1.38l-.74,1.17c-.07.12-.06.23-.05.29.01.06.05.17.17.24,1.11.71,1.44,2.18.74,3.29l-.74,1.17c-.19.3-.51.46-.85.46-.18,0-.37-.05-.54-.16-.47-.3-.6-.91-.31-1.38l.74-1.17c.11-.18.06-.42-.12-.53-.54-.34-.91-.87-1.05-1.49Zm8,0c-.14-.62-.03-1.26.31-1.8l.74-1.17c.3-.47.91-.6,1.38-.31.47.3.6.91.31,1.38l-.74,1.17c-.07.12-.06.23-.05.29.01.06.05.17.17.24,1.11.71,1.44,2.18.74,3.29l-.74,1.17c-.19.3-.51.46-.85.46-.18,0-.37-.05-.54-.16-.47-.3-.6-.91-.31-1.38l.74-1.17c.11-.18.06-.42-.12-.53-.54-.34-.91-.87-1.05-1.49Zm-6.41,39.57c2.21,0,4-1.79,4-4s-1.79-4-4-4-4,1.79-4,4,1.79,4,4,4Zm0-6c1.1,0,2,.9,2,2s-.9,2-2,2-2-.9-2-2,.9-2,2-2Z"/></svg>