<?xml version="1.0" encoding="UTF-8"?><svg id="Line" xmlns="http://www.w3.org/2000/svg" viewBox="0 0 64 64"><defs><style>.cls-1{stroke-width:0px;}</style></defs><path class="cls-1" d="m33,15.85v-3.65c0-.55-.45-1-1-1s-1,.45-1,1v3.64c-3.07.21-12.42,1.45-18.62,8.95-2.18,2.64-4.76,6.56-5.37,13.52-.03.39.17.77.51.96.34.19.77.16,1.09-.07,2.55-1.91,5.23-2.2,6.6-2.2,3.19,0,5.5,1.38,6.6,2.2.31.23.73.26,1.07.08,3.04-1.62,5.96-2.14,8.13-2.25v18.8c0,1.39-1.14,2.87-2.4,3.11-1,.19-2.02-.11-2.72-.82-.56-.56-.88-1.33-.88-2.12v-2.8c0-.55-.45-1-1-1s-1,.45-1,1v2.8c0,1.34.52,2.6,1.46,3.54.94.94,2.22,1.46,3.54,1.46.32,0,.65-.03.97-.09,2.22-.43,4.02-2.71,4.02-5.08v-18.79c3.53.18,6.34,1.29,8.13,2.24.15.08.31.12.47.12.21,0,.42-.07.6-.2,2.55-1.91,5.23-2.2,6.6-2.2,3.19,0,5.5,1.38,6.6,2.2.32.24.75.27,1.1.07.35-.2.54-.58.5-.98-2.17-19.51-19.61-22.1-23.99-22.44Zm-1,19.15c-2.14,0-5.28.35-8.65,1.84-.03-3.05.49-7.13,2.68-11.35,1.46-2.81,3.51-5.34,5.97-7.39,2.46,2.05,4.51,4.59,5.97,7.39,2.19,4.22,2.71,8.29,2.68,11.34-2.14-.94-5.1-1.83-8.65-1.83Zm-22.75,1.44c.83-5.15,2.9-8.23,4.67-10.37,4.6-5.57,11.3-7.39,15.12-7.98-1.92,1.91-3.55,4.11-4.78,6.48-2.3,4.44-2.91,8.72-2.91,11.98-1.48-.79-3.57-1.55-6.14-1.55-1.29,0-3.56.21-5.95,1.44Zm39.55-1.44c-1.32,0-3.68.23-6.14,1.55,0-3.26-.62-7.54-2.91-11.98-1.24-2.39-2.88-4.6-4.82-6.51,5.54.8,17.19,4.18,19.77,18.37-1.46-.74-3.47-1.42-5.9-1.42ZM11,17c0-1.65-1.35-3-3-3s-3,1.35-3,3,1.35,3,3,3,3-1.35,3-3Zm-4,0c0-.55.45-1,1-1s1,.45,1,1-.45,1-1,1-1-.45-1-1Zm12-2c1.65,0,3-1.35,3-3s-1.35-3-3-3-3,1.35-3,3,1.35,3,3,3Zm0-4c.55,0,1,.45,1,1s-.45,1-1,1-1-.45-1-1,.45-1,1-1Zm-1-5.03v-1.97c0-.55.45-1,1-1s1,.45,1,1v1.97c0,.55-.45,1-1,1s-1-.45-1-1Zm-11,5v-2.97c0-.55.45-1,1-1s1,.45,1,1v2.97c0,.55-.45,1-1,1s-1-.45-1-1Zm49,3.03c-1.65,0-3,1.35-3,3s1.35,3,3,3,3-1.35,3-3-1.35-3-3-3Zm0,4c-.55,0-1-.45-1-1s.45-1,1-1,1,.45,1,1-.45,1-1,1Zm-11-3c1.65,0,3-1.35,3-3s-1.35-3-3-3-3,1.35-3,3,1.35,3,3,3Zm0-4c.55,0,1,.45,1,1s-.45,1-1,1-1-.45-1-1,.45-1,1-1Zm-1-5.03v-1.97c0-.55.45-1,1-1s1,.45,1,1v1.97c0,.55-.45,1-1,1s-1-.45-1-1Zm11,5v-3.97c0-.55.45-1,1-1s1,.45,1,1v3.97c0,.55-.45,1-1,1s-1-.45-1-1Z"/></svg>