<?xml version="1.0" encoding="UTF-8"?><svg id="Line" xmlns="http://www.w3.org/2000/svg" viewBox="0 0 64 64"><defs><style>.cls-1{stroke-width:0px;}</style></defs><path class="cls-1" d="m32,5c-15.99,0-29,13.01-29,29v18c0,.55.45,1,1,1h56c.55,0,1-.45,1-1v-18c0-15.99-13.01-29-29-29ZM5,43v-6h5v6h-5Zm.47-14h7.53v6H5v-1c0-1.71.17-3.38.47-5Zm10.53-8v1c0,1.07.42,2.07,1.17,2.83.75.75,1.77,1.17,2.83,1.17.1,0,.19,0,.29-.01.24-.02.48-.06.71-.12v1.13h-8v-6h3Zm-5,6h-5.07c.57-2.11,1.38-4.12,2.42-6h2.66v6Zm1,10h7.05c-.03.33-.05.66-.05,1v5h-7v-6Zm7,8v6h-5v-6h5Zm.36-10h-4.36v-6h7.64c-1.58,1.65-2.73,3.71-3.28,6Zm5.74-8h-2.1v-2.43c.62-.74,1-1.7,1-2.74v-.83h5.39c.47.41,1.02.69,1.61.85v3.2c-2.16.17-4.16.86-5.9,1.95Zm3.04-8h-4.14v-2c0-.53.21-1.03.59-1.41.33-.33.78-.54,1.25-.58.5-.04,1.01.14,1.42.51.47.43.75,1.07.75,1.71v.77c0,.34.06.68.14,1Zm4.86,2.87c.59-.16,1.12-.46,1.58-.87h5.98c.13.22.28.42.45.62v5.38h-2.1c-1.74-1.09-3.74-1.78-5.9-1.95v-3.18Zm14.41-.87h3.59v6h-8v-4.15c.42.11.85.17,1.29.14,1.33-.1,2.46-.87,3.12-1.99Zm8.25,0c1.03,1.88,1.85,3.89,2.42,6h-5.07v-6h2.66Zm-15.66-2h-4.18c.11-.37.18-.76.18-1.17v-1.83c0-.53.21-1.03.59-1.41.41-.41.98-.62,1.56-.58,1.02.07,1.85,1.04,1.85,2.16v2.83Zm9,10v6h-4.36c-.55-2.29-1.69-4.35-3.28-6h7.64Zm-4,16h5v6h-5v-6Zm0-2v-5c0-.34-.03-.67-.05-1h7.05v6h-7Zm9-6h5v6h-5v-6Zm-3-2v-6h7.53c.3,1.62.47,3.29.47,5v1h-8Zm3.44-16h-6.45c0-.06.02-.11.02-.17v-2.83c0-1.1.9-2,2-2h.12c1.63,1.48,3.09,3.16,4.32,5Zm-6.21-6.57c-1.31.66-2.22,2-2.22,3.57v2.83c0,1.12-.83,2.09-1.85,2.16-.59.05-1.15-.17-1.56-.58-.38-.38-.59-.88-.59-1.41v-2.83c0-2.18-1.63-4.01-3.71-4.16-1.16-.08-2.3.34-3.12,1.16-.76.76-1.17,1.76-1.17,2.83v1.83c0,1.12-.83,2.09-1.85,2.16-.59.04-1.15-.17-1.56-.58-.38-.38-.59-.88-.59-1.41v-.77c0-1.21-.51-2.37-1.39-3.18-.82-.75-1.85-1.12-2.94-1.03-.94.08-1.82.49-2.49,1.16-.76.76-1.17,1.76-1.17,2.83v4.83c0,1.12-.83,2.09-1.85,2.16-.59.04-1.15-.17-1.56-.58-.38-.38-.59-.88-.59-1.41v-6c0-1.57-.91-2.91-2.22-3.57,4.52-3.41,10.14-5.43,16.22-5.43s11.7,2.03,16.22,5.43Zm-34.34,1.57h.12c1.1,0,2,.9,2,2v3h-6.44c1.23-1.84,2.68-3.52,4.32-5Zm-8.88,31h7v6h-7v-6Zm21,6v-13c0-3.31,2.69-6,6-6s6,2.69,6,6v13h-12Zm14,0v-13c0-4.41-3.59-8-8-8s-8,3.59-8,8v13h-3v-13c0-6.07,4.93-11,11-11s11,4.93,11,11v13h-3Zm12,0v-6h7v6h-7Z"/></svg>