<?xml version="1.0" encoding="UTF-8"?><svg id="Line" xmlns="http://www.w3.org/2000/svg" viewBox="0 0 64 64"><defs><style>.cls-1{stroke-width:0px;}</style></defs><path class="cls-1" d="m60.22,47.06l-.05-.12s0-.02,0-.04v-8.26c0-2.97-1.98-5.6-4.81-6.41-4.48-1.28-11.1-3.99-17.14-9.63-4.45-4.15-8-9.37-10.27-15.09-.33-.84-1.13-1.41-2.03-1.41H7.33c-1.2,0-2.17.97-2.17,2.17v10.95c0,1.77-.24,3.55-.87,5.22-.74,1.97-1.11,4.04-1.11,6.14v4.79l.02.22,2.15,10.41c.1.51.55.87,1.07.87h1.9s.09.04.09.09v4.47s-.04.09-.09.09h-3.15c-1.2,0-2.17.97-2.17,2.17v1.98c0,1.2.97,2.17,2.17,2.17h48.33c2.81,0,5.38-1.56,6.68-4.11,1.06-2.08.98-4.57.04-6.7ZM5.18,30.6c0-1.81.31-3.59.93-5.29.69-1.89,1.05-3.88,1.05-5.89v-11.12c.07-.07.1-.1.17-.17l18.65.04s.07.02.08.06c.42,1.06.9,2.11,1.4,3.13.02.05,0,.11-.05.12l-2.07.69c-.52.17-.81.74-.63,1.27.14.42.53.68.95.68.1,0,.21-.02.32-.05l2.39-.8s.08,0,.1.04c.51.92,1.05,1.81,1.62,2.69.03.05,0,.11-.05.13l-1.78.59c-.52.17-.81.74-.63,1.26.14.42.53.68.95.68.1,0,.21-.02.32-.05l2.38-.79s.08,0,.1.03c.53.73,1.08,1.45,1.65,2.14.04.04.02.11-.03.14l-1.66.77c-.5.23-.72.83-.49,1.33.17.37.53.58.91.58.14,0,.28-.03.42-.09l2.24-1.03s.08,0,.1.02c.61.66,1.23,1.31,1.87,1.93.04.04.03.11-.02.14l-1.7,1.02c-.47.28-.63.9-.34,1.37.19.31.52.48.86.48.18,0,.35-.05.51-.14l2.24-1.35s.07-.02.1,0c.76.66,1.53,1.28,2.3,1.86.05.03.05.1,0,.14l-1.32,1.13c-.42.36-.47.99-.11,1.41.2.23.48.35.76.35.23,0,.46-.08.65-.24l1.75-1.49s.07-.03.11,0c.93.63,1.86,1.2,2.78,1.72.05.03.06.09.02.13l-.92,1.13c-.35.43-.28,1.06.15,1.41.19.15.41.22.63.22.29,0,.58-.13.78-.37l1.19-1.46s.07-.04.11-.02c2.93,1.48,5.66,2.46,7.89,3.09,1.97.56,3.35,2.41,3.35,4.48v2.34s-.04.09-.09.09h-18.79c-1.74,0-3.46-.35-5.06-1.04l-10.38-4.44c-1.85-.79-3.84-1.2-5.84-1.2H5.27s-.09-.04-.09-.09v-3.71Zm.34,5.8h12.49c1.74,0,3.46.35,5.06,1.04l10.4,4.45c1.85.79,3.8,1.19,5.81,1.19h18.81s.09.04.09.09v2.88s-.04.09-.09.09h-19.7c-1.15,0-2.27-.22-3.34-.64l-14.44-5.78c-.31-.12-.66-.08-.93.1-.27.19-.44.5-.44.83v4.16s-.04.09-.09.09H7.23s-.08-.03-.09-.07l-1.71-8.32c-.01-.06.03-.11.09-.11Zm49.36,13.55c.15.36.1.76-.12,1.08-.22.32-.57.51-.96.51h-8.61c-.69,0-1.25-.56-1.25-1.25v-2.07s.04-.09.09-.09h10.07s.07.02.08.06l.7,1.76Zm-34.75-3.05c.6,0,1.09-.49,1.09-1.09v-3.55c0-.06.06-.11.12-.08l12.94,5.18c1.04.42,2.13.66,3.24.74.05,0,.08.04.08.09v2.11c0,.69-.56,1.25-1.25,1.25H15.99c-.69,0-1.25-.56-1.25-1.25v-3.31s.04-.09.09-.09h5.31Zm37.52,7.09c-1.08,1.26-2.73,1.89-4.39,1.89H5.17c-.09,0-.17-.08-.17-.17v-1.98c0-.09.08-.17.17-.17h4.15c.6,0,1.09-.49,1.09-1.09v-5.31s.04-.09.09-.09h2.15s.09.04.09.09v3.15c0,1.8,1.46,3.25,3.25,3.25h20.37c1.8,0,3.25-1.46,3.25-3.25v-2.07s.04-.09.09-.09h2.15s.09.04.09.09v2.07c0,1.8,1.46,3.25,3.25,3.25h8.58c.51,0,1.03-.09,1.48-.33,1.53-.83,2.08-2.56,1.5-4.01l-.43-1.07h2.2v.02c.87,1.93.55,4.18-.86,5.83Z"/></svg>