<?xml version="1.0" encoding="UTF-8"?><svg id="Line" xmlns="http://www.w3.org/2000/svg" viewBox="0 0 64 64"><defs><style>.cls-1{stroke-width:0px;}</style></defs><path class="cls-1" d="m56.89,54.08c-.82-1.88-1.52-3.84-2.08-5.82-1.03-3.57-1.61-7.26-1.76-10.97.81-.39,1.55-.94,2.17-1.62,1.33-1.48,1.96-3.47,1.74-5.46-.34-3.08-2.71-5.6-5.77-6.11h0c-.06-.01-.13-.01-.19-.02v-6.08c0-6.07-4.93-11-11-11h-2v-1c0-1.65-1.35-3-3-3h-6c-1.65,0-3,1.35-3,3v1h-2c-6.07,0-11,4.93-11,11v6.08c-.06,0-.13,0-.19.02-3.06.51-5.43,3.03-5.77,6.11-.22,1.99.42,3.98,1.74,5.46.61.68,1.36,1.2,2.17,1.59-.15,3.72-.74,7.42-1.77,11.01-.56,1.97-1.25,3.93-2.08,5.82-1.02,2.36-.02,5.16,2.29,6.37.73.38,1.51.57,2.3.57.57,0,1.13-.1,1.69-.29,1.31-.47,2.39-1.48,2.94-2.77.1-.24.19-.5.29-.74,4.98,1.58,10.15,2.39,15.38,2.39s10.39-.81,15.37-2.39c.09.21.18.43.26.64,0,0,.04.09.04.1.56,1.29,1.63,2.3,2.94,2.77.55.2,1.12.29,1.68.29.79,0,1.58-.19,2.31-.57,2.3-1.21,3.3-4.01,2.28-6.37ZM28,6c0-.55.45-1,1-1h6c.55,0,1,.45,1,1v1h-8v-1Zm-4,3h16c4.96,0,9,4.04,9,9v6.09c-.49.07-.97.18-1.44.35-.37.14-.75.14-1.11,0-1.57-.59-3.33-.59-4.91,0-.36.13-.73.13-1.09,0-1.76-.66-3.76-.58-5.45.23-1.7-.81-3.7-.9-5.46-.23-.36.13-.73.13-1.09,0-1.58-.59-3.33-.59-4.91,0-.36.13-.73.13-1.09,0-1.58-.6-3.34-.59-4.91,0-.35.13-.74.13-1.11,0-.46-.17-.95-.28-1.44-.35v-6.09c0-4.96,4.04-9,9-9Zm-14.97,21.43c.24-2.17,1.97-4,4.11-4.36.89-.15,1.77-.07,2.59.24.82.31,1.71.31,2.52,0,1.12-.42,2.37-.42,3.5,0,.81.31,1.7.3,2.5,0,1.12-.42,2.38-.42,3.5,0,.81.31,1.7.3,2.5,0,1.38-.52,2.96-.39,4.25.36.31.18.69.18,1,0,1.29-.75,2.87-.87,4.25-.36.81.31,1.7.3,2.5,0,1.13-.42,2.38-.42,3.5,0,.81.31,1.7.3,2.52,0,.83-.31,1.7-.39,2.59-.24,2.14.36,3.87,2.19,4.11,4.36.16,1.45-.28,2.83-1.24,3.9-1.35,1.5-3.58,2.05-5.47,1.35-.4-.15-.83-.23-1.25-.23s-.85.08-1.25.23c-1.12.42-2.38.42-3.5,0-.81-.3-1.69-.3-2.5,0-1.12.42-2.38.42-3.5,0-.81-.3-1.69-.3-2.5,0-1.12.42-2.38.42-3.5,0-.81-.3-1.69-.3-2.5,0-1.12.42-2.38.42-3.5,0-.81-.3-1.69-.3-2.5,0-1.12.42-2.38.42-3.5,0-.81-.3-1.69-.3-2.5,0-1.89.71-4.13.16-5.48-1.35-.96-1.07-1.4-2.46-1.24-3.9Zm5.46,26.74c-.34.79-.97,1.39-1.78,1.67-.79.28-1.64.22-2.39-.16-1.38-.73-1.99-2.4-1.38-3.81.86-1.97,1.58-4.01,2.16-6.06,1.02-3.56,1.62-7.24,1.81-10.94,1.18.19,2.4.1,3.54-.32.36-.13.73-.13,1.09,0,.45.17.92.28,1.39.35-.21,4.25-.88,8.47-2.04,12.56-.67,2.33-1.48,4.59-2.4,6.71Zm2.86-1.82c.53-1.41,1.03-2.86,1.46-4.35,1.21-4.27,1.91-8.67,2.12-13.1.52-.07,1.03-.18,1.52-.36.36-.13.73-.13,1.09,0,1.58.59,3.33.59,4.91,0,.36-.13.73-.13,1.09,0,1.58.59,3.33.59,4.91,0,.36-.13.73-.13,1.09,0,1.58.59,3.33.59,4.91,0,.36-.13.73-.13,1.09,0,.49.19,1,.29,1.52.36.21,4.43.91,8.83,2.12,13.1.42,1.46.92,2.91,1.45,4.35-9.5,2.98-19.79,2.98-29.29,0Zm36.32,3.32c-.75.39-1.6.45-2.4.17-.8-.29-1.43-.88-1.81-1.76-.2-.48-.41-.97-.6-1.46-.67-1.69-1.26-3.43-1.76-5.17-1.16-4.09-1.83-8.31-2.04-12.56.47-.07.94-.18,1.39-.35.36-.13.73-.13,1.09,0,.79.3,1.61.45,2.45.45.37,0,.73-.04,1.08-.09.19,3.69.79,7.36,1.8,10.91.58,2.06,1.31,4.1,2.16,6.07.61,1.41,0,3.08-1.37,3.81Z"/></svg>