<?xml version="1.0" encoding="UTF-8"?><svg id="Line" xmlns="http://www.w3.org/2000/svg" viewBox="0 0 64 64"><defs><style>.cls-1{stroke-width:0px;}</style></defs><path class="cls-1" d="m53.56,17h-7.74c-.41-1.16-1.51-2-2.82-2H9c-1.65,0-3,1.35-3,3v15c0,7.92,4.64,14.76,11.34,18H6c-1.1,0-2,.9-2,2v2c0,1.1.9,2,2,2h2.34l1.21,2.84c.3.71.96,1.16,1.68,1.16h29.55c.72,0,1.38-.46,1.68-1.16l1.21-2.84h2.34c1.1,0,2-.9,2-2v-2c0-1.1-.9-2-2-2h-11.34c4.61-2.23,8.24-6.17,10.05-11l3.42-.95c3.39-.94,6.44-3,8.57-5.81,2.16-2.84,3.3-6.23,3.3-9.8s-2.89-6.44-6.44-6.44Zm-12.92,42H11.36l-.85-2h30.98l-.85,2Zm5.36-6v2s-40,0-40,0v-2h40Zm-2-20c0,9.92-8.08,18-18,18s-18-8.08-18-18v-11h4c1.1,0,2,.9,2,2v9c0,1.07.42,2.07,1.17,2.83.75.75,1.77,1.17,2.82,1.17.1,0,.2,0,.3-.01,2.08-.14,3.71-1.97,3.71-4.16v-7.83c0-.53.21-1.03.59-1.41.34-.34.76-.54,1.23-.58.53-.04,1.02.13,1.43.51.47.43.75,1.07.75,1.71v2.77c0,1.07.42,2.07,1.17,2.83.82.82,1.97,1.24,3.12,1.16,2.08-.14,3.71-1.97,3.71-4.16v-3.83c0-.53.21-1.03.59-1.41s.88-.59,1.41-.59h8v11Zm0-13h-8c-1.07,0-2.07.42-2.83,1.17-.76.76-1.17,1.76-1.17,2.83v3.83c0,1.12-.83,2.09-1.86,2.16-.58.04-1.14-.16-1.56-.58-.38-.38-.59-.88-.59-1.41v-2.77c0-1.21-.51-2.38-1.4-3.19-.83-.76-1.88-1.12-2.96-1.02-.92.08-1.8.5-2.46,1.16-.76.76-1.17,1.76-1.17,2.83v7.83c0,1.12-.83,2.09-1.86,2.16-.58.05-1.14-.16-1.56-.58-.38-.38-.59-.88-.59-1.41v-9c0-2.21-1.79-4-4-4h-4v-2c0-.55.45-1,1-1h34c.55,0,1,.45,1,1v2Zm2,13v-10h7.56c.24,0,.44.2.44.44,0,4.57-3.08,8.62-7.48,9.84l-.52.15v-.42Zm9.1-.96c-1.87,2.46-4.54,4.27-7.51,5.09l-2.18.61c.17-.71.31-1.44.41-2.18l1.24-.34c5.27-1.46,8.94-6.3,8.94-11.77,0-1.34-1.09-2.44-2.44-2.44h-7.56v-2h7.56c2.45,0,4.44,1.99,4.44,4.44,0,3.13-1,6.1-2.9,8.59ZM16.41,6.35c-.14-.62-.03-1.26.32-1.8l.74-1.17c.3-.47.92-.6,1.38-.31.47.3.6.91.31,1.38l-.74,1.17c-.08.12-.06.23-.05.29.01.06.05.17.17.24.54.34.91.87,1.05,1.5.14.62.03,1.26-.32,1.8l-.74,1.17c-.19.3-.51.46-.85.46-.18,0-.37-.05-.54-.16-.47-.3-.6-.91-.31-1.38l.74-1.17c.08-.12.06-.23.05-.29-.01-.06-.05-.17-.17-.24-.54-.34-.91-.87-1.05-1.5Zm8,0c-.14-.62-.03-1.26.32-1.8l.74-1.17c.3-.47.92-.6,1.38-.31.47.3.6.91.31,1.38l-.74,1.17c-.08.12-.06.23-.05.29.01.06.05.17.17.24.54.34.91.87,1.05,1.5.14.62.03,1.26-.32,1.8l-.74,1.17c-.19.3-.51.46-.85.46-.18,0-.37-.05-.54-.16-.47-.3-.6-.91-.31-1.38l.74-1.17c.08-.12.06-.23.05-.29-.01-.06-.05-.17-.17-.24-.54-.34-.91-.87-1.05-1.5Zm8,0c-.14-.62-.03-1.26.32-1.8l.74-1.17c.3-.47.92-.6,1.38-.31s.6.91.31,1.38l-.74,1.17c-.08.12-.06.23-.05.29.01.06.05.17.17.24.54.34.91.87,1.05,1.5.14.62.03,1.26-.32,1.8l-.74,1.17c-.19.3-.51.46-.85.46-.18,0-.37-.05-.54-.16-.47-.3-.6-.91-.31-1.38l.74-1.17c.08-.12.06-.23.05-.29-.01-.06-.05-.17-.17-.24-.54-.34-.91-.87-1.05-1.5Z"/></svg>