<?xml version="1.0" encoding="UTF-8"?><svg id="Line" xmlns="http://www.w3.org/2000/svg" viewBox="0 0 64 64"><defs><style>.cls-1{stroke-width:0px;}</style></defs><path class="cls-1" d="m7,42c-1.65,0-3,1.35-3,3s1.35,3,3,3,3-1.35,3-3-1.35-3-3-3Zm0,4c-.55,0-1-.45-1-1s.45-1,1-1,1,.45,1,1-.45,1-1,1Zm0-6.03c-.55,0-1-.45-1-1v-2.97c0-.55.45-1,1-1s1,.45,1,1v2.97c0,.55-.45,1-1,1Zm10-1.97c-1.65,0-3,1.35-3,3s1.35,3,3,3,3-1.35,3-3-1.35-3-3-3Zm0,4c-.55,0-1-.45-1-1s.45-1,1-1,1,.45,1,1-.45,1-1,1Zm0-6.03c-.55,0-1-.45-1-1v-2.97c0-.55.45-1,1-1s1,.45,1,1v2.97c0,.55-.45,1-1,1Zm44-7.97c0-3.84-2.44-7.23-6.01-8.48-.25-4.74-4.19-8.52-8.99-8.52-1.39,0-2.76.33-4,.94-1.24-.62-2.61-.94-4-.94-1.05,0-2.06.19-3,.53,0,0,0,0-.01,0-.25-4.74-4.19-8.52-8.99-8.52-1.38,0-2.75.33-4,.95-1.25-.62-2.62-.95-4-.95-4.8,0-8.74,3.78-8.99,8.52-3.58,1.25-6.01,4.63-6.01,8.48,0,4.96,4.04,9,9,9,1.78,0,3.53-.54,5-1.52,1.47.98,3.22,1.52,5,1.52.35,0,.7-.03,1.05-.07.47,4.53,4.3,8.07,8.95,8.07,1.78,0,3.53-.54,5-1.52,2.95,1.97,7.05,1.97,10,0,1.47.99,3.22,1.52,5,1.52,4.96,0,9-4.04,9-9Zm-43.37-2.54c-.37-.29-.89-.29-1.25,0-1.25,1.01-2.77,1.54-4.37,1.54-3.86,0-7-3.14-7-7,0-3.2,2.16-5.98,5.26-6.77.44-.11.75-.51.75-.97,0-.06,0-.13,0-.26,0-3.86,3.14-7,7-7,1.23,0,2.41.32,3.5.95.31.18.69.18,1,0,1.09-.63,2.27-.95,3.5-.95,3.86,0,7,3.14,7,7.07,0,.06,0,.12,0,.19,0,.09.02.16.04.24-2.3,1.53-3.86,4.09-4.02,7.01-3.23,1.13-5.53,4.01-5.94,7.39-.35.06-.71.09-1.07.09-1.61,0-3.12-.53-4.37-1.54Zm34.37,9.54c-1.61,0-3.12-.53-4.37-1.54-.18-.15-.4-.22-.63-.22s-.44.07-.63.22c-1.26,1.01-2.77,1.54-4.37,1.54s-3.12-.53-4.37-1.54c-.37-.29-.89-.29-1.25,0-1.26,1.01-2.77,1.54-4.37,1.54-3.86,0-7-3.14-7-7,0-3.19,2.16-5.98,5.26-6.77.45-.12.77-.53.75-1v-.23c-.01-3.86,3.13-7,6.99-7,1.22,0,2.43.33,3.5.94.31.18.69.18,1,0,1.07-.62,2.28-.94,3.5-.94,3.86,0,7,3.14,7,7.08v.14c-.02.47.29.89.74,1,3.1.79,5.26,3.58,5.26,6.77,0,3.86-3.14,7-7,7Zm-25,11c-1.65,0-3,1.35-3,3s1.35,3,3,3,3-1.35,3-3-1.35-3-3-3Zm0,4c-.55,0-1-.45-1-1s.45-1,1-1,1,.45,1,1-.45,1-1,1Zm0-6.03c-.55,0-1-.45-1-1v-2.97c0-.55.45-1,1-1s1,.45,1,1v2.97c0,.55-.45,1-1,1Zm20,2.03c-1.65,0-3,1.35-3,3s1.35,3,3,3,3-1.35,3-3-1.35-3-3-3Zm0,4c-.55,0-1-.45-1-1s.45-1,1-1,1,.45,1,1-.45,1-1,1Zm0-6.03c-.55,0-1-.45-1-1v-2.97c0-.55.45-1,1-1s1,.45,1,1v2.97c0,.55-.45,1-1,1Zm-10,6.03c-1.65,0-3,1.35-3,3s1.35,3,3,3,3-1.35,3-3-1.35-3-3-3Zm0,4c-.55,0-1-.45-1-1s.45-1,1-1,1,.45,1,1-.45,1-1,1Zm0-6.03c-.55,0-1-.45-1-1v-2.97c0-.55.45-1,1-1s1,.45,1,1v2.97c0,.55-.45,1-1,1Zm20,2.03c-1.65,0-3,1.35-3,3s1.35,3,3,3,3-1.35,3-3-1.35-3-3-3Zm0,4c-.55,0-1-.45-1-1s.45-1,1-1,1,.45,1,1-.45,1-1,1Zm0-11c.55,0,1,.45,1,1v2.97c0,.55-.45,1-1,1s-1-.45-1-1v-2.97c0-.55.45-1,1-1Z"/></svg>