<?xml version="1.0" encoding="UTF-8"?><svg id="Line" xmlns="http://www.w3.org/2000/svg" viewBox="0 0 64 64"><defs><style>.cls-1{stroke-width:0px;}</style></defs><path class="cls-1" d="m45,20h-26c-.55,0-1,.45-1,1v29c0,.55.45,1,1,1h26c.55,0,1-.45,1-1v-29c0-.55-.45-1-1-1Zm-1,29h-24v-27h24v27Zm-21-3v-21c0-.55.45-1,1-1s1,.45,1,1v21c0,.55-.45,1-1,1s-1-.45-1-1Zm4,0v-21c0-.55.45-1,1-1s1,.45,1,1v21c0,.55-.45,1-1,1s-1-.45-1-1Zm4,0v-21c0-.55.45-1,1-1s1,.45,1,1v21c0,.55-.45,1-1,1s-1-.45-1-1Zm4,0v-21c0-.55.45-1,1-1s1,.45,1,1v21c0,.55-.45,1-1,1s-1-.45-1-1Zm4,0v-21c0-.55.45-1,1-1s1,.45,1,1v21c0,.55-.45,1-1,1s-1-.45-1-1Zm-27.99-1.15c-.3.47-.91.61-1.38.31l-1.17-.74c-.12-.07-.23-.06-.29-.05-.06.01-.17.05-.24.17-.46.71-1.23,1.11-2.02,1.11-.44,0-.88-.12-1.28-.37l-1.17-.74c-.47-.3-.6-.91-.31-1.38.3-.47.91-.61,1.38-.31l1.17.74c.12.08.23.06.29.05.06-.01.17-.05.24-.17.34-.54.87-.91,1.49-1.05.62-.14,1.26-.03,1.8.32l1.17.74c.47.3.6.91.31,1.38Zm-7.85-9.71c.3-.47.91-.61,1.38-.31l1.17.74c.12.07.23.07.29.05.06-.01.17-.05.24-.17.34-.54.87-.91,1.49-1.05.62-.14,1.26-.03,1.8.32l1.17.74c.47.3.6.91.31,1.38-.3.47-.91.61-1.38.31l-1.17-.74c-.12-.07-.23-.06-.29-.05-.06.01-.17.05-.24.17-.46.71-1.23,1.11-2.02,1.11-.44,0-.88-.12-1.28-.37l-1.17-.74c-.47-.3-.6-.91-.31-1.38Zm0-8c.3-.47.91-.61,1.38-.31l1.17.74c.12.07.23.07.29.05.06-.01.17-.05.24-.17.34-.54.87-.91,1.49-1.05.62-.14,1.26-.03,1.8.32l1.17.74c.47.3.6.91.31,1.38-.3.47-.91.61-1.38.31l-1.17-.74c-.12-.07-.23-.06-.29-.05-.06.01-.17.05-.24.17-.46.71-1.23,1.11-2.02,1.11-.44,0-.88-.12-1.28-.37l-1.17-.74c-.47-.3-.6-.91-.31-1.38Zm57.69,16c.3.47.16,1.08-.31,1.38l-1.17.74c-.4.25-.84.37-1.28.37-.79,0-1.56-.39-2.02-1.11-.08-.12-.18-.16-.24-.17-.06-.01-.17-.02-.29.05l-1.17.74c-.47.3-1.08.16-1.38-.31-.3-.47-.16-1.08.31-1.38l1.17-.74c.54-.34,1.18-.46,1.8-.32.62.14,1.15.51,1.5,1.05.07.12.18.16.24.17.06.01.17.02.29-.05l1.17-.74c.46-.3,1.08-.16,1.38.31Zm0-8c.3.47.16,1.08-.31,1.38l-1.17.74c-.4.25-.84.37-1.28.37-.79,0-1.56-.39-2.02-1.11-.08-.12-.18-.16-.24-.17-.06-.01-.17-.02-.29.05l-1.17.74c-.47.29-1.08.16-1.38-.31-.3-.47-.16-1.08.31-1.38l1.17-.74c.54-.34,1.18-.45,1.8-.32s1.15.51,1.5,1.05c.07.12.18.16.24.17.06.01.17.02.29-.05l1.17-.74c.46-.3,1.08-.16,1.38.31Zm-7.85-6.29c-.3-.47-.16-1.08.31-1.38l1.17-.74c.54-.34,1.18-.45,1.8-.32s1.15.51,1.5,1.05c.07.12.18.16.24.17.06.01.17.02.29-.05l1.17-.74c.46-.3,1.08-.16,1.38.31s.16,1.08-.31,1.38l-1.17.74c-.4.25-.84.37-1.28.37-.79,0-1.56-.39-2.02-1.11-.08-.12-.18-.16-.24-.17-.06-.01-.17-.02-.29.05l-1.17.74c-.47.3-1.08.16-1.38-.31ZM22,7c-1.65,0-3,1.35-3,3s1.35,3,3,3,3-1.35,3-3-1.35-3-3-3Zm0,4c-.55,0-1-.45-1-1s.45-1,1-1,1,.45,1,1-.45,1-1,1Zm9-4c-1.65,0-3,1.35-3,3s1.35,3,3,3,3-1.35,3-3-1.35-3-3-3Zm0,4c-.55,0-1-.45-1-1s.45-1,1-1,1,.45,1,1-.45,1-1,1Zm14-3c0,.55-.45,1-1,1h-6c-.55,0-1-.45-1-1s.45-1,1-1h6c.55,0,1,.45,1,1Zm0,4c0,.55-.45,1-1,1h-6c-.55,0-1-.45-1-1s.45-1,1-1h6c.55,0,1,.45,1,1Zm6,42h-.91c.58-5.97.89-12.02.91-18,.02-6.68-.32-13.45-1-20.11,0-.01,0-.05,0-.06l-1.72-10.33c-.24-1.45-1.49-2.51-2.96-2.51h-26.61c-1.47,0-2.72,1.05-2.96,2.51l-1.72,10.33s0,.05,0,.06c-.68,6.66-1.02,13.42-1,20.11.02,5.98.33,12.03.91,18h-.91c-1.1,0-2,.9-2,2v3c0,1.1.9,2,2,2h38c1.1,0,2-.9,2-2v-3c0-1.1-.9-2-2-2ZM17.71,5.83c.08-.48.5-.83.99-.83h26.61c.49,0,.91.35.99.83l1.53,9.17h-31.64l1.53-9.17Zm-2.71,30.16c-.02-6.31.29-12.7.9-19h32.19c.62,6.3.92,12.68.9,19-.02,5.98-.32,12.03-.9,18H15.9c-.58-5.97-.89-12.02-.9-18Zm-2,23v-3h38v3s-38,0-38,0Z"/></svg>