<?xml version="1.0" encoding="UTF-8"?><svg id="Line" xmlns="http://www.w3.org/2000/svg" viewBox="0 0 64 64"><defs><style>.cls-1{stroke-width:0px;}</style></defs><path class="cls-1" d="M52.47,14.57c.49-.47,1.04-.88,1.64-1.21l1.87-1.02c.32-.18.52-.51.52-.88s-.2-.7-.52-.88l-1.87-1.02c-1.34-.73-2.44-1.83-3.17-3.17l-1.02-1.87c-.18-.32-.51-.52-.88-.52s-.7.2-.88.52l-1.02,1.87c-.57,1.04-1.36,1.93-2.31,2.62-3.62-1.76-7.65-2.7-11.71-2.7-14.81,0-26.85,12.04-26.85,26.84,0,4.34,1.06,8.62,3.06,12.43-.72,1.15-1.71,2.1-2.9,2.75l-1.87,1.02c-.32.18-.52.51-.52.88s.2.7.52.88l1.87,1.02c1.34.73,2.44,1.83,3.17,3.17l1.02,1.87c.18.32.51.52.88.52s.7-.2.88-.52l1.02-1.87c.46-.84,1.07-1.57,1.79-2.19,4.93,4.44,11.26,6.88,17.93,6.88,14.8,0,26.84-12.04,26.84-26.85,0-7.02-2.66-13.58-7.49-18.58ZM48.89,7.35l.14-.26.14.26c.92,1.68,2.29,3.05,3.97,3.97l.26.14-.26.14c-1.05.57-1.96,1.34-2.73,2.23-.02.02-.05.03-.07.05-.04.04-.05.08-.08.13-.4.49-.78,1-1.09,1.56l-.14.26-.14-.26c-.92-1.68-2.29-3.05-3.97-3.97l-.26-.14.26-.14c.15-.08.28-.19.43-.27.09-.04.17-.09.24-.16,1.37-.9,2.51-2.1,3.3-3.54ZM11.64,54.34l-.14.26-.14-.26c-.92-1.68-2.29-3.05-3.97-3.97l-.26-.14.26-.14c1.68-.92,3.05-2.29,3.97-3.97l.14-.26.14.26c.92,1.68,2.29,3.05,3.97,3.97l.26.14-.26.14c-1.68.92-3.05,2.29-3.97,3.97ZM46.39,54.14l-.41-.7c-.28-.48-.89-.64-1.37-.37-.48.28-.64.89-.37,1.37l.41.71c-3.17,1.67-6.75,2.68-10.54,2.83v-.82c0-.55-.45-1-1-1s-1,.45-1,1v.82c-3.72-.15-7.31-1.12-10.55-2.82l.41-.72c.28-.48.11-1.09-.37-1.37-.48-.28-1.09-.11-1.37.37l-.41.71c-1.03-.65-2.02-1.38-2.95-2.19l1.55-.85c.32-.18.52-.51.52-.88s-.2-.7-.52-.88l-1.87-1.02c-1.34-.73-2.44-1.83-3.17-3.17l-1.02-1.87c-.35-.64-1.41-.64-1.75,0l-.1.19c-1.33-2.92-2.09-6.09-2.22-9.32h.81c.55,0,1-.45,1-1s-.45-1-1-1h-.82c.15-3.79,1.16-7.37,2.83-10.54l.71.41c.16.09.33.13.5.13.35,0,.68-.18.87-.5.28-.48.11-1.09-.37-1.37l-.7-.41c1.97-3.1,4.61-5.74,7.72-7.71l.4.7c.19.32.52.5.87.5.17,0,.34-.04.5-.13.48-.28.64-.89.37-1.37l-.41-.71c3.17-1.67,6.75-2.68,10.54-2.83v.82c0,.55.45,1,1,1s1-.45,1-1v-.81c2.96.12,5.89.77,8.6,1.91l-.62.34c-.32.18-.52.51-.52.88s.2.7.52.88l1.87,1.02c1.34.73,2.44,1.83,3.17,3.17l1.02,1.87c.18.32.51.52.88.52s.7-.2.88-.52l1.02-1.87c.08-.14.17-.27.26-.4,1.1,1.16,2.08,2.42,2.92,3.74l-.72.42c-.48.28-.64.89-.37,1.37.19.32.52.5.87.5.17,0,.34-.04.5-.13l.72-.42c1.7,3.22,2.67,6.81,2.81,10.55h-.82c-.55,0-1,.45-1,1s.45,1,1,1h.82c-.15,3.79-1.16,7.37-2.83,10.54l-.71-.41c-.48-.28-1.09-.11-1.37.37-.28.48-.11,1.09.37,1.37l.7.41c-1.97,3.11-4.61,5.75-7.71,7.72ZM33.12,13.85c-10.65,0-19.31,8.66-19.31,19.31s8.66,19.31,19.31,19.31,19.31-8.66,19.31-19.31-8.66-19.31-19.31-19.31ZM47.61,23.73l-1.07.35c-2.1.68-4.34.33-6.12-.97-1.79-1.3-2.81-3.31-2.81-5.52v-1.13c4.16,1.12,7.71,3.75,10.01,7.27ZM35.6,16.05v1.54c0,2.86,1.32,5.46,3.64,7.14,1.54,1.12,3.33,1.7,5.17,1.7.92,0,1.84-.15,2.75-.44l1.46-.47c.73,1.47,1.25,3.05,1.54,4.72l-1.47.48c-2.72.89-4.78,2.95-5.66,5.67-.88,2.72-.43,5.6,1.25,7.92l.91,1.25c-1.19,1.16-2.54,2.15-4.02,2.93l-.91-1.25c-1.68-2.31-4.28-3.64-7.14-3.64s-5.46,1.32-7.14,3.64l-.91,1.25c-1.48-.78-2.83-1.77-4.02-2.93l.91-1.25c1.68-2.32,2.13-5.2,1.25-7.92-.88-2.72-2.95-4.78-5.67-5.67l-1.47-.48c.29-1.67.81-3.25,1.54-4.72l1.46.47c.91.29,1.83.44,2.75.44,1.83,0,3.63-.58,5.17-1.7,2.31-1.68,3.64-4.28,3.64-7.14v-1.54c.81-.12,1.64-.2,2.49-.2s1.67.08,2.49.2ZM28.63,16.46v1.13c0,2.21-1.02,4.22-2.81,5.52-1.79,1.3-4.02,1.66-6.12.97l-1.07-.35c2.3-3.52,5.85-6.15,10.01-7.27ZM15.85,32.26l1.07.35c2.1.69,3.7,2.28,4.38,4.38.68,2.1.33,4.34-.97,6.13l-.67.92c-2.41-2.97-3.86-6.76-3.86-10.88,0-.3.03-.6.05-.9ZM26.93,49.3l.66-.91c1.3-1.79,3.31-2.81,5.52-2.81s4.22,1.02,5.52,2.81l.66.91c-1.92.74-4,1.16-6.18,1.16s-4.26-.42-6.18-1.16ZM46.56,44.03l-.67-.92c-1.3-1.79-1.65-4.02-.97-6.13.68-2.1,2.28-3.7,4.38-4.38l1.07-.35c.02.3.05.59.05.9,0,4.12-1.45,7.9-3.86,10.88ZM26.88,33.15c0,3.44,2.79,6.23,6.23,6.23s6.23-2.8,6.23-6.23-2.8-6.23-6.23-6.23-6.23,2.8-6.23,6.23ZM37.35,33.15c0,2.33-1.9,4.23-4.23,4.23s-4.23-1.9-4.23-4.23,1.9-4.23,4.23-4.23,4.23,1.9,4.23,4.23Z"/></svg>