<?xml version="1.0" encoding="UTF-8"?><svg id="Line" xmlns="http://www.w3.org/2000/svg" viewBox="0 0 64 64"><defs><style>.cls-1{stroke-width:0px;}</style></defs><path class="cls-1" d="M20,44v-3c0-.74-.41-1.38-1-1.72v-22.28c1.1,0,2-.9,2-2V5c0-1.1-.9-2-2-2h-6c-1.1,0-2,.9-2,2v10c0,1.1.9,2,2,2v22.28c-.59.35-1,.98-1,1.72v3c-1.1,0-2,.9-2,2v4c0,1.1.9,2,2,2h1v3c-1.1,0-2,.9-2,2v2c0,1.1.9,2,2,2h6c1.1,0,2-.9,2-2v-2c0-1.1-.9-2-2-2v-3h1c1.1,0,2-.9,2-2v-4c0-1.1-.9-2-2-2ZM13,5h6v10s-6,0-6,0V5ZM17,17v22h-2v-22h2ZM14,41h4v3h-4v-3ZM19,59h-6v-2h6v2ZM17,55h-2v-3h2v3ZM12,50v-4h8v4s-8,0-8,0ZM36,44h-1v-27c1.1,0,2-.9,2-2V5c0-1.1-.9-2-2-2h-6c-1.1,0-2,.9-2,2v10c0,1.1.9,2,2,2v27h-1c-1.1,0-2,.9-2,2v4c0,1.1.9,2,2,2h1v3c-1.1,0-2,.9-2,2v2c0,1.1.9,2,2,2h6c1.1,0,2-.9,2-2v-2c0-1.1-.9-2-2-2v-3h1c1.1,0,2-.9,2-2v-4c0-1.1-.9-2-2-2ZM29,5h6v10s-6,0-6,0V5ZM31,17h2v27h-2v-27ZM35,59h-6v-2h6v2ZM33,55h-2v-3h2v3ZM28,50v-4h8v4s-8,0-8,0ZM52,44h-1v-6c1.1,0,2-.9,2-2v-18c0-1.1-.9-2-2-2v-3c1.1,0,2-.9,2-2v-2c0-1.1-.9-2-2-2v-2c0-1.1-.9-2-2-2h-2c-1.1,0-2,.9-2,2v2c-1.1,0-2,.9-2,2v2c0,1.1.9,2,2,2v3c-1.1,0-2,.9-2,2v18c0,1.1.9,2,2,2v6h-1c-1.1,0-2,.9-2,2v4c0,1.1.9,2,2,2h1v3c-1.1,0-2,.9-2,2v2c0,1.1.9,2,2,2h6c1.1,0,2-.9,2-2v-2c0-1.1-.9-2-2-2v-3h1c1.1,0,2-.9,2-2v-4c0-1.1-.9-2-2-2ZM47,5h2v2h-2v-2ZM45,9h6v2s-6,0-6,0v-2ZM47,13h2v3h-2v-3ZM45,18h6v18s-6,0-6,0v-18ZM47,38h2v6h-2v-6ZM51,59h-6v-2h6v2ZM49,55h-2v-3h2v3ZM44,50v-4h8v4s-8,0-8,0Z"/></svg>