<?xml version="1.0" encoding="UTF-8"?><svg id="Line" xmlns="http://www.w3.org/2000/svg" viewBox="0 0 64 64"><defs><style>.cls-1{stroke-width:0px;}</style></defs><path class="cls-1" d="M60.96,13.21c0-.53-.21-1.04-.59-1.41l-8.16-8.16c-.78-.78-2.05-.78-2.83,0l-2.57,2.57-11.45,4.71c-.12.05-.23.12-.33.22L15.88,30.29c-.77.77-.77,2.02,0,2.78l1.35,1.35-2.69,2.69c-.76.76-.77,1.99-.04,2.78l-2.7,2.69c-.38.38-.59.88-.59,1.41s.21,1.04.59,1.41l.64.64-3.38,3.38c-.37-.35-.85-.54-1.36-.54h0c-.53,0-1.04.21-1.41.59l-2.69,2.69c-.78.78-.78,2.05,0,2.83l5.43,5.43c.39.39.9.58,1.41.58s1.02-.19,1.41-.58l2.69-2.69c.38-.38.59-.88.59-1.41s-.2-.99-.54-1.36l3.38-3.38.64.64c.39.39.9.58,1.41.58s1.02-.19,1.41-.58l2.7-2.7c.38.36.87.54,1.36.54s1.02-.19,1.41-.58l2.69-2.69,1.35,1.35c.38.38.89.58,1.39.58s1.01-.19,1.39-.58l19.16-19.16c.09-.09.17-.2.22-.33l4.71-11.45,2.57-2.57c.38-.38.59-.88.59-1.41ZM10.43,59h0s-5.43-5.43-5.43-5.43l2.69-2.69,5.43,5.43-2.69,2.69ZM16.54,50.15l-3.38,3.38-2.69-2.69,3.38-3.38,2.69,2.69ZM20,50.79l-6.8-6.8,2.69-2.69,6.8,6.8-2.69,2.69ZM28.17,45.36l-2.69,2.69h0s-8.87-8.87-8.87-8.87c0,0-.66-.66-.66-.66l2.69-2.69,9.53,9.53ZM51.31,27.69l-18.99,18.99-15.03-14.98,19.02-19.02,5.01-2.06.52.52c.19.19.29.45.27.72s-.14.51-.36.68l-5.68,4.44c-.09.07-.19.15-.27.24l-13.09,13.07c-.61.61-.92,1.46-.85,2.32.07.86.52,1.65,1.23,2.15,1.15.82,2.81.65,3.85-.4l12.75-12.75s.05-.05.08-.07l6.33-4.95c.37-.29.9-.26,1.23.07s.37.86.08,1.24l-4.96,6.33s-.04.05-.07.08l-12.75,12.75c-1.05,1.05-1.22,2.71-.4,3.85.5.71,1.29,1.16,2.15,1.23.08,0,.17.01.25.01.78,0,1.52-.31,2.07-.86l12.92-12.92c.08-.08.16-.17.23-.26l4.6-5.86c.17-.21.41-.34.68-.36.25-.02.52.08.71.27l.52.52-2.06,5.01ZM54.2,20.69c-.58-.55-1.35-.84-2.17-.79-.84.05-1.61.46-2.13,1.12l-4.6,5.86s-.05.06-.08.09l-12.92,12.92c-.19.19-.46.29-.74.27-.16-.01-.46-.08-.69-.39-.25-.36-.17-.92.19-1.28l12.75-12.75c.09-.09.17-.18.24-.27l4.95-6.33c.91-1.17.81-2.83-.23-3.88-1.05-1.05-2.72-1.15-3.88-.23l-6.33,4.95c-.09.07-.18.15-.26.23l-12.75,12.75c-.36.36-.92.44-1.28.19-.31-.22-.38-.53-.39-.69-.02-.28.08-.55.27-.74l13.09-13.08s.05-.05.08-.07l5.68-4.45c.66-.52,1.07-1.29,1.12-2.13.05-.8-.24-1.59-.79-2.17l3.82-1.57,8.63,8.64-1.57,3.82ZM56.95,15.21l-8.16-8.16,2.01-2.01,8.16,8.16-2.01,2.01Z"/></svg>