<?xml version="1.0" encoding="UTF-8"?><svg id="Line" xmlns="http://www.w3.org/2000/svg" viewBox="0 0 64 64"><defs><style>.cls-1{stroke-width:0px;}</style></defs><path class="cls-1" d="M52,20v-9c0-1.65-1.35-3-3-3h-12.75c-1.04,0-1.99.52-2.54,1.4l-1.97,3.13c-.18.29-.5.47-.85.47h-.9v-2c0-1.1-.9-2-2-2v-3c0-1.65-1.35-3-3-3h-5c-1.65,0-3,1.35-3,3v3c-1.1,0-2,.9-2,2v2c-1.65,0-3,1.35-3,3v4c0,1.3.84,2.4,2,2.82v28.37c-1.16.41-2,1.51-2,2.82v4c0,1.65,1.35,3,3,3h34c1.65,0,3-1.35,3-3v-4c0-1.3-.84-2.4-2-2.82v-28.37c1.16-.41,2-1.51,2-2.82ZM19,6c0-.55.45-1,1-1h5c.55,0,1,.45,1,1v3h-7v-3ZM17,11h11v2h-11v-2ZM14,16c0-.55.45-1,1-1h15.9c1.04,0,1.99-.52,2.54-1.4l1.97-3.13c.18-.29.5-.47.85-.47h12.75c.55,0,1,.45,1,1v9c0,.55-.45,1-1,1H15c-.55,0-1-.45-1-1v-4ZM48,51H16v-28h32v28ZM50,58c0,.55-.45,1-1,1H15c-.55,0-1-.45-1-1v-4c0-.55.45-1,1-1h34c.55,0,1,.45,1,1v4ZM39,18h6c1.65,0,3-1.35,3-3s-1.35-3-3-3h-6c-1.65,0-3,1.35-3,3s1.35,3,3,3ZM39,14h6c.55,0,1,.45,1,1s-.45,1-1,1h-6c-.55,0-1-.45-1-1s.45-1,1-1ZM22,46h20c.55,0,1-.45,1-1v-16c0-.55-.45-1-1-1h-20c-.55,0-1,.45-1,1v16c0,.55.45,1,1,1ZM23,30h18v14h-18v-14Z"/></svg>