<?xml version="1.0" encoding="UTF-8"?><svg id="Line" xmlns="http://www.w3.org/2000/svg" viewBox="0 0 64 64"><defs><style>.cls-1{stroke-width:0px;}</style></defs><path class="cls-1" d="M54,43h-1.01c0-.87-.19-2.08-.98-3.21-1.03-1.48-2.75-2.38-5.12-2.7-2.76-.37-4.62-1.4-6.59-2.5-1.32-.73-2.7-1.47-4.31-1.97V7c0-2.21-1.79-4-4-4s-4,1.79-4,4v25.62c-1.61.5-2.98,1.24-4.31,1.97-1.97,1.09-3.83,2.13-6.59,2.5-2.38.32-4.1,1.22-5.13,2.7-.78,1.13-.97,2.34-.98,3.21h-1.01c-1.1,0-2,.9-2,2v4c0,1.1.9,2,2,2h.68l-.66,6.7c-.08.86.2,1.71.77,2.34.55.61,1.33.96,2.15.96h38.14c.81,0,1.59-.35,2.15-.96.57-.63.85-1.49.77-2.34l-.66-6.7h.68c1.1,0,2-.9,2-2v-4c0-1.1-.9-2-2-2ZM30,7c0-1.1.9-2,2-2s2,.9,2,2v30c0,1.1-.9,2-2,2s-2-.9-2-2V7ZM13.64,40.91c.69-.98,1.95-1.6,3.74-1.84,3.13-.42,5.25-1.59,7.29-2.73,1.1-.61,2.16-1.2,3.33-1.63v2.29c0,2.21,1.79,4,4,4s4-1.79,4-4v-2.29c1.17.43,2.23,1.02,3.33,1.63,2.05,1.13,4.16,2.31,7.29,2.73,1.78.24,3.04.86,3.73,1.84.51.72.62,1.51.63,2.09H13c0-.57.13-1.37.63-2.09ZM12.26,58.7c-.19-.21-.29-.51-.26-.8l.68-6.89h4.31v8h-4.07c-.25,0-.49-.11-.66-.3ZM24,51v8h-5v-8h5ZM31,51v8h-5v-8h5ZM38,51v8h-5v-8h5ZM45,51v8h-5v-8h5ZM51.99,57.89c.03.3-.07.59-.26.8-.18.19-.41.3-.66.3h-4.07v-8h4.31l.68,6.89ZM10,49v-4h44v4s-44,0-44,0Z"/></svg>