<?xml version="1.0" encoding="UTF-8"?><svg id="Line" xmlns="http://www.w3.org/2000/svg" viewBox="0 0 64 64"><defs><style>.cls-1{stroke-width:0px;}</style></defs><path class="cls-1" d="M57.7,51.58c.31-.55.5-1.18.5-1.85,0-1.93-1.44-3.5-3.3-3.75.31-.55.5-1.18.5-1.85,0-2.1-1.71-3.8-3.8-3.8h-27v-4.55c.52-.04.93-.46.93-.99v-12.33c.97,3.07,2.87,4.79,4.51,5.73.3.17.63.26.96.26.44,0,.89-.16,1.25-.47.63-.54.85-1.38.56-2.15-.89-2.34-.75-4.73-.6-5.92h.39l2.67,2c.69.52,1.54.8,2.4.8h1.75c.07,1.04.93,1.87,1.99,1.87h2.67c1.1,0,2-.9,2-2V6.87c0-1.1-.9-2-2-2h-2.67c-1.06,0-1.92.83-1.99,1.87h-1.75c-.86,0-1.71.28-2.4.8l-2.67,2h-13.25c-1.8,0-3.39,1.14-3.96,2.85l-.67,2c-.39,1.16-.25,2.42.37,3.47l.47.79c.28.47.37,1.01.26,1.53-.42,2.04-.65,4.13-.69,6.21-.05,2.91.27,5.82.96,8.66.1.43.47.72.9.75v4.55h-4.6c-2.1,0-3.8,1.7-3.8,3.8,0,.67.19,1.3.5,1.85-1.86.25-3.3,1.82-3.3,3.75,0,.67.19,1.3.5,1.85-1.86.25-3.3,1.82-3.3,3.75,0,2.1,1.7,3.8,3.8,3.8h50.4c2.09,0,3.8-1.7,3.8-3.8,0-1.92-1.44-3.5-3.3-3.75ZM30.87,26.37c-1.56-.96-3.35-2.84-3.83-6.44h3.16c-.16,1.43-.24,3.91.67,6.44ZM41.4,6.87h2.67v15.73s-2.67,0-2.67,0V6.87ZM36.47,9.13c.34-.26.77-.4,1.2-.4h1.73v12h-1.73c-.43,0-.86-.14-1.2-.4l-2.53-1.9v-7.4l2.53-1.9ZM16.61,15.02l.67-2c.3-.89,1.13-1.48,2.06-1.48h12.58v6.4h-7.4c-.55,0-1,.45-1,1v14.87h-5.67c-.53-2.42-.77-4.9-.73-7.38.04-1.96.25-3.92.65-5.84.21-1.01.03-2.07-.5-2.96l-.47-.79c-.33-.55-.4-1.21-.19-1.81ZM19,35.8h3.6v4.53h-3.6v-4.53ZM12.4,42.33h39.2c.99,0,1.8.81,1.8,1.8s-.81,1.8-1.8,1.8H12.4c-.99,0-1.8-.81-1.8-1.8s.81-1.8,1.8-1.8ZM9.6,47.93h44.8c.99,0,1.8.81,1.8,1.8s-.81,1.8-1.8,1.8H9.6c-.99,0-1.8-.81-1.8-1.8s.81-1.8,1.8-1.8ZM57.2,57.13H6.8c-.99,0-1.8-.81-1.8-1.8s.81-1.8,1.8-1.8h50.4c.99,0,1.8.81,1.8,1.8s-.81,1.8-1.8,1.8Z"/></svg>