<?xml version="1.0" encoding="UTF-8"?><svg id="Line" xmlns="http://www.w3.org/2000/svg" viewBox="0 0 64 64"><defs><style>.cls-1{stroke-width:0px;}</style></defs><path class="cls-1" d="M43.7,17.69l-6.7-2.39v-4.3c0-1.1-.9-2-2-2v-4c0-1.1-.9-2-2-2h-8c-1.1,0-2,.9-2,2v4c-1.1,0-2,.9-2,2v4.59l-4.19,4.19c-2.46,2.46-3.81,5.72-3.81,9.2v27.02c0,2.76,2.24,5,5,5h28c2.76,0,5-2.24,5-5v-27.95c0-4.64-2.93-8.8-7.3-10.36ZM25,5h8v4h-8v-4ZM23,11h12v4h-12v-4ZM49,56c0,1.65-1.35,3-3,3h-28c-1.65,0-3-1.35-3-3v-27.02c0-2.94,1.15-5.71,3.23-7.79l4.19-4.19h13.41l7.2,2.57c3.57,1.28,5.97,4.68,5.97,8.48v27.95ZM45.56,44.91c-.27-.19-.62-.22-.93-.1-.75.3-1.57.45-2.42.45-1.75,0-3.41-.67-4.68-1.89-4.07-3.92-6.4-9.4-6.4-15.04v-7.33c0-.55-.45-1-1-1h-6.06c-.27,0-.52.11-.71.29l-3.02,3.02c-1.49,1.49-2.34,3.55-2.34,5.67v26.02c0,.55.45,1,1,1h26c.55,0,1-.45,1-1v-9.26c0-.33-.16-.64-.44-.83ZM44,54h-24v-25.02c0-1.59.64-3.14,1.76-4.25l2.73-2.73h4.65v6.33c0,6.18,2.56,12.19,7.02,16.48,1.65,1.58,3.8,2.45,6.06,2.45.61,0,1.21-.06,1.79-.18v6.92ZM42.02,22.4l-6.55-2.34c-.31-.11-.65-.06-.91.12-.27.19-.42.49-.42.82v7.33c0,4.83,2,9.52,5.48,12.87.73.7,1.65,1.06,2.59,1.06.5,0,1.01-.1,1.5-.31,1.42-.6,2.3-1.93,2.3-3.47v-10.44c0-2.53-1.6-4.8-3.98-5.65ZM44,38.49c0,.73-.4,1.34-1.08,1.63-.68.28-1.4.15-1.92-.35-3.09-2.97-4.87-7.14-4.87-11.43v-5.91l5.22,1.86c1.59.57,2.65,2.08,2.65,3.77v10.44Z"/></svg>