<?xml version="1.0" encoding="UTF-8"?><svg id="Line" xmlns="http://www.w3.org/2000/svg" viewBox="0 0 64 64"><defs><style>.cls-1{stroke-width:0px;}</style></defs><path class="cls-1" d="M25.52,32.33c2.13,0,3.87-1.73,3.87-3.87s-1.73-3.87-3.87-3.87-3.87,1.73-3.87,3.87,1.73,3.87,3.87,3.87ZM25.52,26.6c1.03,0,1.87.84,1.87,1.87s-.84,1.87-1.87,1.87-1.87-.84-1.87-1.87.84-1.87,1.87-1.87ZM44.55,43.71h-3.64c-.35,0-.69.07-1,.18v-19.25c0-.23-.08-.45-.22-.62l-3.82-4.78c-.19-.24-.48-.38-.78-.38h-.91v-5.51c0-2.76-2.24-5-5-5h-7.29c-2.76,0-5,2.24-5,5v5.51h-.91c-.3,0-.59.14-.78.38l-3.82,4.78c-.14.18-.22.4-.22.62v19.25c-.31-.11-.65-.18-1-.18h-3.64c-1.65,0-3,1.35-3,3v11.29c0,1.65,1.35,3,3,3h3.64c1.27,0,2.35-.8,2.79-1.91h25.18c.44,1.12,1.52,1.91,2.79,1.91h3.64c1.65,0,3-1.35,3-3v-11.29c0-1.65-1.35-3-3-3ZM18.88,13.35c0-1.65,1.35-3,3-3h7.29c1.65,0,3,1.35,3,3v5.51h-1.82v-5.69c0-.55-.45-1-1-1h-7.64c-.55,0-1,.45-1,1v5.69h-1.82v-5.51ZM28.35,18.87h-5.64v-4.69h5.64v4.69ZM16.45,20.87h18.15l3.3,4.13v7.81l-6.47,2.33c-.74.31-1.32.91-1.6,1.66l-.95,2.51c-.13.35-.48.59-.85.59h-5c-.38,0-.72-.24-.85-.59l-.95-2.51c-.28-.75-.87-1.35-1.65-1.67l-6.43-2.31v-7.81l3.3-4.13ZM10.15,59h-3.64c-.55,0-1-.45-1-1v-11.29c0-.55.45-1,1-1h3.64c.55,0,1,.45,1,1v11.29c0,.55-.45,1-1,1ZM13.15,46.71v-11.78l5.7,2.05c.23.1.41.29.5.52l.95,2.51c.43,1.13,1.52,1.88,2.72,1.88h5c1.2,0,2.3-.76,2.72-1.88l.95-2.51c.09-.23.27-.42.46-.5l5.75-2.07v22.16h-4.87l-.49-2.44c-.27-1.36-1.47-2.34-2.85-2.34h-8.33c-1.38,0-2.58.98-2.85,2.34l-.49,2.44h-4.87v-10.38ZM20.06,57.09l.41-2.04c.08-.42.46-.73.89-.73h8.33c.43,0,.81.31.89.73l.41,2.04h-10.94ZM45.55,58c0,.55-.45,1-1,1h-3.64c-.55,0-1-.45-1-1v-11.29c0-.55.45-1,1-1h3.64c.55,0,1,.45,1,1v11.29ZM59.23,11.42l-10.95-7.93c-.65-.43-1.42-.58-2.19-.43-.76.15-1.42.59-1.8,1.18l-5.9,7.51c-.43.65-.58,1.42-.43,2.19.15.76.59,1.42,1.24,1.85.01,0,.02.02.04.02l9.71,5.9v6.39c0,1.59,1.28,2.88,2.87,2.91v9.48c-.28.01-.54.13-.72.34-.19.22-.27.52-.22.81l.96,5.73c.08.48.5.84.99.84h3.82c.49,0,.91-.35.99-.84l.96-5.73c.05-.29-.03-.59-.22-.81-.18-.21-.44-.33-.72-.34v-9.48c1.58-.02,2.87-1.32,2.87-2.91v-14.27c0-.98-.48-1.88-1.26-2.4ZM55.63,40.46h-1.82v-9.47h1.82v9.47ZM55.78,46.2h-2.13l-.62-3.73h3.37l-.62,3.73ZM58.5,28.09c0,.5-.41.91-.91.91h-5.73c-.5,0-.91-.41-.91-.91v-6.95c0-.35-.18-.67-.48-.85l-10.17-6.18c-.41-.28-.51-.84-.28-1.19l5.9-7.51c.13-.2.34-.34.58-.39.24-.05.48,0,.65.11l10.95,7.93c.25.17.41.45.41.76v14.27ZM50.97,10.27l-3.15-2.49c-.22-.17-.5-.25-.78-.2-.28.04-.52.2-.68.43l-2.65,3.98c-.15.22-.2.49-.15.76s.21.49.43.64l6.1,3.98c.17.11.36.16.55.16.17,0,.35-.04.5-.13.33-.19.52-.54.5-.92l-.3-5.47c-.02-.29-.15-.55-.38-.73ZM45.94,12.26l1.49-2.24,1.94,1.54.17,3.05-3.6-2.35Z"/></svg>