<?xml version="1.0" encoding="UTF-8"?><svg id="Line" xmlns="http://www.w3.org/2000/svg" viewBox="0 0 64 64"><defs><style>.cls-1{stroke-width:0px;}</style></defs><path class="cls-1" d="M60.75,7.7c-.95-1.08-2.32-1.7-3.75-1.7-2.44,0-4.48,1.76-4.92,4.08-2.32.44-4.08,2.48-4.08,4.92,0,.62.11,1.23.33,1.79-1,.63-1.74,1.6-2.09,2.72l-18.76,8.95c-.27-.3-.63-.52-1.05-.61l-7-1.56c-.59-.13-1.21.02-1.68.4-.41.33-.66.8-.72,1.31h-5.03c0-1.1-.9-2-2-2h-5c-.55,0-1,.45-1,1s.45,1,1,1h5v8h-5c-.55,0-1,.45-1,1s.45,1,1,1h5c1.1,0,2-.9,2-2h5.03c.06.51.31.98.72,1.31.36.29.8.44,1.25.44.14,0,.29-.01.43-.04l7-1.56c.42-.09.78-.31,1.05-.61l18.76,8.95c.35,1.12,1.09,2.09,2.09,2.72-.22.56-.33,1.17-.33,1.79,0,2.44,1.76,4.48,4.08,4.92.44,2.32,2.48,4.08,4.92,4.08,1.43,0,2.8-.62,3.75-1.7.16-.18.25-.42.25-.66V8.36c0-.24-.09-.48-.25-.66ZM17,34h-5v-4h5v4ZM26,34.2l-7,1.55v-7.5l7,1.55v4.4ZM46.07,42.19l-18.07-8.62v-3.14l18.07-8.62c.19,1.14.77,2.17,1.63,2.93-2.29,1.67-3.7,4.37-3.7,7.26s1.41,5.59,3.7,7.26c-.86.76-1.44,1.79-1.63,2.93ZM59,55.23c-.55.49-1.26.77-2,.77-1.65,0-3-1.35-3-3,0-.55-.45-1-1-1-1.65,0-3-1.35-3-3,0-.61.18-1.18.51-1.67.18-.26.23-.59.13-.88-.1-.3-.33-.53-.62-.64-1.21-.41-2.02-1.54-2.02-2.81s.8-2.38,1.98-2.81c.38-.14.64-.49.66-.9.02-.4-.21-.78-.58-.95-2.47-1.14-4.06-3.63-4.06-6.34s1.59-5.2,4.06-6.34c.37-.17.6-.55.58-.95-.02-.41-.28-.76-.66-.9-1.18-.43-1.98-1.56-1.98-2.81s.81-2.4,2.02-2.81c.29-.11.52-.34.62-.64.1-.29.05-.62-.13-.88-.33-.49-.51-1.06-.51-1.67,0-1.65,1.35-3,3-3,.55,0,1-.45,1-1,0-1.65,1.35-3,3-3,.74,0,1.45.28,2,.77v46.46ZM41.94,27.66c.19.52-.08,1.09-.59,1.28l-4,1.47c-.11.04-.23.06-.34.06-.41,0-.79-.25-.94-.66-.19-.52.08-1.09.59-1.28l4-1.47c.52-.19,1.09.08,1.28.59ZM41.94,36.34c-.15.4-.53.66-.94.66-.11,0-.23-.02-.34-.06l-4-1.47c-.52-.19-.78-.76-.59-1.28.19-.52.76-.79,1.28-.59l4,1.47c.52.19.78.76.59,1.28ZM11.72,17c.51-.92.48-2.04-.07-2.94-.93-1.51-.97-3.41-.11-4.96l.78-1.4c.27-.48.88-.66,1.36-.39.48.27.66.88.39,1.36l-.78,1.4c-.51.92-.48,2.04.07,2.94.93,1.51.97,3.41.11,4.96l-.78,1.4c-.18.33-.52.51-.88.51-.16,0-.33-.04-.48-.13-.48-.27-.66-.88-.39-1.36l.78-1.4ZM19.54,17c.51-.92.48-2.04-.07-2.94-.93-1.51-.97-3.41-.11-4.96l.78-1.4c.27-.48.88-.66,1.36-.39.48.27.66.88.39,1.36l-.78,1.4c-.51.92-.48,2.04.07,2.94.93,1.51.97,3.41.11,4.96l-.78,1.4c-.18.33-.52.51-.88.51-.16,0-.33-.04-.48-.13-.48-.27-.66-.88-.39-1.36l.78-1.4ZM27.36,17c.51-.92.48-2.04-.07-2.93-.93-1.51-.97-3.41-.11-4.96l.78-1.41c.27-.48.88-.66,1.36-.39.48.27.66.88.39,1.36l-.78,1.4c-.51.92-.48,2.04.07,2.93.93,1.51.98,3.41.11,4.96l-.78,1.41c-.18.33-.52.51-.88.51-.16,0-.33-.04-.49-.13-.48-.27-.66-.88-.39-1.36l.78-1.4Z"/></svg>