<?xml version="1.0" encoding="UTF-8"?><svg id="Line" xmlns="http://www.w3.org/2000/svg" viewBox="0 0 64 64"><defs><style>.cls-1{stroke-width:0px;}</style></defs><path class="cls-1" d="M22,22.5h-10c-.55,0-1,.45-1,1v6c0,.55.45,1,1,1h10c.55,0,1-.45,1-1v-6c0-.55-.45-1-1-1ZM21,28.5h-8v-4h8v4ZM13,38h-4c-.55,0-1,.45-1,1v4c0,.55.45,1,1,1h4c.55,0,1-.45,1-1v-4c0-.55-.45-1-1-1ZM12,42h-2v-2h2v2ZM25,38h-8c-.55,0-1,.45-1,1v12c0,.55.45,1,1,1h8c.55,0,1-.45,1-1v-12c0-.55-.45-1-1-1ZM24,50h-6v-10h6v10ZM13,46h-4c-.55,0-1,.45-1,1v4c0,.55.45,1,1,1h4c.55,0,1-.45,1-1v-4c0-.55-.45-1-1-1ZM12,50h-2v-2h2v2ZM60.27,55.5c-.24-1.45-1.49-2.5-2.96-2.5h-4.59c.37-1.6.37-3.04.28-4.09-.05-.51-.48-.91-1-.91h-1v-28.25c0-4.83-3.92-8.75-8.76-8.75s-8.75,3.92-8.75,8.75v5.71c0,.97-.57,1.86-1.46,2.27l-1.03.47v-1.2c0-.31-.15-.61-.4-.8l-2.37-1.79-1.52-5.67c-.12-.44-.51-.74-.97-.74h-2.75v-1.5c0-3.31-2.69-6-6-6s-6,2.69-6,6v1.5h-2.75c-.45,0-.85.3-.97.74l-1.52,5.67-2.37,1.79c-.25.19-.4.48-.4.8v28c0,1.1.9,2,2,2v2c0,1.1.9,2,2,2h2c1.1,0,2-.9,2-2v-2h12v2c0,1.1.9,2,2,2h2c1.1,0,2-.9,2-2v-2c1.1,0,2-.9,2-2v-20.2l2.95-1.35c3.36-1.53,5.54-4.91,5.54-8.61v-5.1c0-1.52,1.23-2.75,2.76-2.75s2.75,1.23,2.75,2.75v28.25h-1c-.52,0-.95.39-1,.91-.1,1.05-.09,2.49.28,4.09h-4.59c-1.47,0-2.71,1.05-2.96,2.51l-.72,4.33c-.05.29.03.59.22.81.19.22.47.35.76.35h24c.29,0,.57-.13.76-.35.19-.22.27-.52.22-.81l-.72-4.33ZM13,16.5c0-2.21,1.79-4,4-4s4,1.79,4,4v1.5h-8v-1.5ZM5,27.5l2.24-1.7c.18-.13.3-.32.36-.54l1.41-5.26h15.97l1.41,5.26c.06.21.19.4.36.54l2.24,1.7v5.5H5v-5.5ZM9,59h-2v-2h2v2ZM27,59h-2v-2h2v2ZM5,55v-20h24v20s-24,0-24,0ZM42.24,15c-2.62,0-4.75,2.13-4.75,4.75v5.1c0,2.92-1.71,5.58-4.37,6.79l-2.12.97v-2.2l1.86-.85c1.6-.73,2.63-2.33,2.63-4.09v-5.71c0-3.72,3.03-6.75,6.76-6.75s6.75,3.03,6.75,6.75v28.25h-2v-28.25c0-2.62-2.13-4.75-4.76-4.75ZM46,50h5.05c.01,1.26-.18,2.88-.96,4.59-.06.14-.13.27-.19.4,0,0,0,0,0,0-.37.73-1.08,1.17-1.89,1.17s-1.52-.44-1.9-1.17c-.07-.13-.13-.27-.19-.41-.78-1.71-.98-3.33-.96-4.58h1.05ZM37.18,59l.53-3.17c.08-.48.5-.83.98-.83h5.23c.06.14.32.74.4.9.71,1.4,2.12,2.27,3.68,2.27s2.97-.87,3.68-2.27c.08-.16.35-.76.4-.9h5.23c.48,0,.91.36.98.83l.53,3.17h-21.64Z"/></svg>