<?xml version="1.0" encoding="UTF-8"?><svg id="Line" xmlns="http://www.w3.org/2000/svg" viewBox="0 0 64 64"><defs><style>.cls-1{stroke-width:0px;}</style></defs><path class="cls-1" d="M57.81,21.44c-.77-.58-1.78-.76-2.7-.47-.89.28-1.78.87-2.66,1.77l1.99-7.17c.55-2,.6-3.65.15-4.89-.33-.9-1.08-1.59-2.01-1.85-.67-.19-1.38-.13-2,.14.03-.83-.07-1.56-.31-2.19-.33-.9-1.08-1.59-2.01-1.85-.93-.26-1.93-.05-2.68.55-.52.42-.99.99-1.39,1.72-.39-.55-.97-.96-1.64-1.15-.93-.26-1.93-.05-2.68.55-.98.79-1.75,2.12-2.3,3.95-.38-.41-.87-.72-1.42-.88-.93-.26-1.93-.05-2.68.55-1.03.83-1.84,2.27-2.4,4.27l-.07.24-.07-.25c-.56-2-1.36-3.43-2.39-4.26-.75-.6-1.75-.81-2.68-.55-.55.15-1.04.46-1.41.87-.55-1.82-1.32-3.15-2.31-3.95-.76-.61-1.73-.81-2.67-.54-.67.19-1.25.6-1.65,1.15-.4-.72-.87-1.29-1.39-1.71-.75-.6-1.76-.8-2.68-.55s-1.68.95-2.01,1.85c-.23.63-.33,1.36-.3,2.18-.62-.27-1.33-.32-2-.14-.93.26-1.69.95-2.01,1.84-.47,1.24-.42,2.88.14,4.9l1.99,7.17c-.88-.9-1.77-1.5-2.66-1.77-.91-.29-1.92-.12-2.69.46-.78.58-1.23,1.5-1.2,2.48.04,1.34.69,2.85,1.92,4.49,3.12,4.16,6.25,8.32,6.25,8.33l1.93,2.54c1.03,1.35,1.76,2.96,2.11,4.66l1.74,8.52c-.43.17-.79.46-1.02.87-.27.47-.34,1.01-.19,1.52l.62,2.26c.25.89,1.04,1.46,1.93,1.46.18,0,.36-.02.54-.07l12.16-3.38,12.17,3.37c.18.05.36.07.54.07.34,0,.67-.09.98-.26.46-.26.8-.69.94-1.21l.62-2.25c.14-.51.08-1.05-.19-1.52-.23-.41-.59-.7-1.02-.87l1.73-8.52c.34-1.69,1.08-3.3,2.12-4.67l8.18-10.86s0,0,0,0c1.24-1.65,1.88-3.16,1.92-4.5.02-.96-.42-1.88-1.19-2.46ZM25.73,12.2c.11-.29.35-.51.66-.6.32-.09.64-.03.89.18.48.39,1.17,1.26,1.72,3.24l.96,3.46-1.66,5.99-2.38-8.57s0-.02,0-.03v-.04c-.55-1.96-.41-3.05-.19-3.63ZM14.7,38.04l-1.93-2.54s-3.13-4.16-6.25-8.32c-1.22-1.62-1.5-2.72-1.52-3.34,0-.32.14-.62.4-.82.26-.19.58-.25.89-.15.59.18,1.56.75,2.79,2.4l1.97,2.62s0,0,.01,0c0,0,0,0,0,0l2.81,3.56c.26.34.72.46,1.12.32.42-.15,4.16-1.32,5.94,2.74.16.38.53.6.92.6.13,0,.27-.03.4-.08.51-.22.74-.81.52-1.32-1.83-4.2-5.53-4.53-7.73-4.03l-2.27-2.88-3.27-11.8c-.55-1.99-.41-3.09-.19-3.67.11-.3.35-.52.67-.61.32-.09.64-.02.89.18.44.35,1.07,1.13,1.61,2.89,0,0,0,0,0,0l2.42,8.71c.12.44.53.73.96.73.09,0,.18-.01.27-.04.53-.15.84-.7.7-1.23l-3.01-10.86c-.54-1.98-.41-3.09-.2-3.67.11-.3.35-.52.67-.61.32-.09.64-.02.9.18.48.39,1.17,1.26,1.72,3.24l3.01,10.87c.12.44.53.73.96.73.09,0,.18-.01.27-.04.53-.15.84-.7.7-1.23l-2.34-8.43c-.52-1.92-.38-3.01-.17-3.59.11-.3.36-.53.68-.61.32-.09.64-.02.88.17.49.4,1.18,1.28,1.73,3.25l1.38,4.97s0,.01,0,.02c0,0,0,.02,0,.03l2.55,9.19c.12.44.53.73.96.73.09,0,.18-.01.27-.04.02,0,.03-.02.05-.02-.62,2.59-.51,5.29.35,7.82l1.15,3.4c.28.81.3,1.67.1,2.41l-2.87,7.41c-.46-.09-.93-.02-1.34.22-.46.26-.8.69-.94,1.21l-.49,1.76-4.91,1.36-1.7-8.33c-.41-2-1.27-3.89-2.48-5.47ZM18.29,56.54l-.62-2.25,6.21-1.72c.26.41.65.73,1.15.87l2.22.61-8.96,2.48ZM43.7,56.54l-18.12-5.02.62-2.25,18.13,5.02-.62,2.25ZM55.48,27.2l-6.24,8.31-1.93,2.53c-1.22,1.61-2.08,3.5-2.49,5.48l-1.69,8.33-14.61-4.05,2.81-7.27c.34-1.21.3-2.49-.1-3.68l-1.15-3.39c-.79-2.31-.86-4.78-.2-7.13l3.13-11.3c.55-1.98,1.24-2.86,1.72-3.25.25-.2.57-.27.89-.18.32.09.56.31.67.61.21.58.35,1.69-.19,3.66l-2.55,9.2c-.15.53.16,1.08.7,1.23.09.02.18.04.27.04.44,0,.84-.29.96-.73l3.94-14.2c.55-1.98,1.24-2.86,1.72-3.25.25-.2.57-.26.89-.18.32.09.56.31.67.61.21.58.35,1.69-.19,3.66h0s-2.32,8.36-2.32,8.36c-.15.53.16,1.08.7,1.23.09.02.18.04.27.04.44,0,.84-.29.96-.73l3.01-10.86c.55-1.98,1.24-2.86,1.72-3.25.25-.2.57-.27.89-.18.32.09.56.31.67.61.21.58.35,1.69-.2,3.67l-3.01,10.86c-.15.53.16,1.08.7,1.23.09.02.18.04.27.04.44,0,.84-.29.96-.73l2.32-8.36c.55-1.98,1.24-2.86,1.72-3.25.25-.2.57-.26.89-.18.32.09.56.31.67.61.21.58.35,1.69-.2,3.67l-3.27,11.8-2.27,2.88c-2.21-.5-5.9-.17-7.73,4.03-.22.51,0,1.1.52,1.32.13.06.27.08.4.08.39,0,.75-.22.92-.6,1.77-4.06,5.52-2.89,5.94-2.75.4.14.86.02,1.12-.32,0,0,2.82-3.58,2.82-3.58l1.97-2.62c1.23-1.64,2.2-2.21,2.79-2.4.3-.1.63-.04.89.16.26.2.41.49.4.81-.02.63-.29,1.72-1.52,3.35Z"/></svg>