<?xml version="1.0" encoding="UTF-8"?><svg id="Line" xmlns="http://www.w3.org/2000/svg" viewBox="0 0 64 64"><defs><style>.cls-1{stroke-width:0px;}</style></defs><path class="cls-1" d="M55,3c-2.08,0-3.92,1.07-5,2.68-.22-.33-.47-.65-.76-.94-1.14-1.13-2.65-1.75-4.24-1.75-2.08,0-3.92,1.07-5,2.68-.22-.33-.47-.65-.76-.94-1.14-1.13-2.65-1.75-4.24-1.75-2.08,0-3.92,1.07-5,2.68-.22-.33-.47-.65-.76-.94-1.14-1.13-2.65-1.75-4.24-1.75-3.31,0-6,2.69-6,6v25.41l-.86.62c-.45-.61-1.11-1.02-1.87-1.14-.77-.13-1.54.05-2.17.51l-9.83,7.06c-.79.57-1.24,1.49-1.21,2.43l-.05,13.52c.06,1.6,1.41,2.84,2.93,2.81l9.54.41c1.6-.06,2.86-1.41,2.81-3.01,0-.01,0-.03,0-.04l-.87-11.33,3.43-2.46c.63-.45,1.05-1.13,1.17-1.89.05-.3.04-.59,0-.88h37.99c.55,0,1-.45,1-1V9c0-3.31-2.69-6-6-6ZM45,5c1.07,0,2.07.42,2.83,1.16.75.76,1.17,1.77,1.17,2.84v14.44c-.25-.31-.54-.58-.9-.79,0,0-.08-.05-.09-.05-.44-.24-.93-.41-1.52-.56-.11-1.02-.52-2.45-1.85-3.46-.6-.46-1.3-.75-2.08-.88-.08-.01-.1-.08-.11-.12-.06-.84-.35-1.62-.83-2.27-.18-.25-.39-.46-.62-.66v-5.65c0-2.21,1.79-4,4-4ZM32.37,29.46l-1.04-1.45,6.28-11.43c.21-.38.57-.64.99-.73.22-.04.64-.07,1.03.24.15.12.27.25.39.4.26.35.41.77.45,1.24.08.98.81,1.78,1.77,1.94.45.08.85.24,1.2.5.76.58,1,1.45,1.07,2.08.1.91.81,1.66,1.72,1.82.3.05.57.15.86.31.72.42.65,1.15.61,1.36-.08.49-.43,1.05-1.16,1.18l-14.17,2.55ZM25.04,32.53l1.06,1.48-5.74,4.12-1.06-1.47,5.74-4.12ZM29.61,29.05l1.24,1.73-2.67,2.68-1.97-2.74,3.39-1.67ZM27.28,35.62c.17.22.42.36.7.38.03,0,.05,0,.08,0,.26,0,.52-.11.71-.29l.23-.23v3.52h-6.43l4.71-3.38ZM35,5c1.07,0,2.07.42,2.83,1.16.75.76,1.17,1.77,1.17,2.84v4.84c-.26-.01-.53,0-.79.06-1,.2-1.86.83-2.35,1.72l-4.86,8.84v-15.46c0-2.21,1.79-4,4-4ZM21,9c0-2.21,1.79-4,4-4,1.07,0,2.07.42,2.83,1.16.75.76,1.17,1.77,1.17,2.84v18.12l-4.73,2.33c-.26.13-.46.37-.53.66s-.01.55.14.79l-2.89,2.07V9ZM19.67,42.15l-3.89,2.79c-.28.2-.44.54-.41.89l.91,11.86c0,.24-.08.46-.24.64-.17.18-.39.28-.56.29l-9.54-.41c-.5-.01-.93-.38-.94-.84l.05-13.52c-.01-.3.13-.59.38-.77l9.83-7.06c.2-.14.43-.2.68-.16.24.04.45.17.59.37l3.35,4.66c.14.2.2.44.16.68-.04.24-.17.45-.37.59ZM31,33.47l1.87-1.88c.06-.06.1-.14.14-.21l5.99-1.08v8.69h-8v-5.53ZM41,29.95l5.89-1.06c.86-.16,1.6-.62,2.11-1.29v11.4h-8v-9.05ZM59,39h-8V9c0-2.21,1.79-4,4-4s4,1.79,4,4v30ZM12.62,46.97c-.34-.15-.75-.11-1.04.13l-4.27,3.44c-.22.18-.36.45-.37.73l-.18,4.01c-.01.28.09.55.29.75.19.19.44.3.71.3.01,0,.02,0,.04,0l4.78-.17c.27,0,.52-.12.7-.32.18-.2.28-.46.26-.72l-.33-7.28c-.02-.38-.24-.71-.59-.87ZM8.8,54.28l.11-2.47,2.38-1.92.19,4.29-2.69.09Z"/></svg>